ply
format ascii 1.0
element vertex 39
property float32 x
property float32 y
property float32 z
property float32 I
end_header
-17.1184 0.0000 -2.0334 0.9334
-17.0345 -1.6889 -2.0334 0.9334
-16.7845 -3.3612 -2.0333 0.9334
-14.0719 -2.8180 -2.0334 0.9437
-13.7250 -4.1926 -2.0334 0.9437
-12.3441 0.0000 -2.0335 0.9512
-12.1034 -2.4238 -2.0335 0.9512
-10.8192 0.0000 -2.0336 0.9569
-9.4331 -1.8890 -2.0336 0.9614
-9.2007 -2.8105 -2.0335 0.9614
-8.6529 0.0000 -2.0336 0.9651
-8.6107 -0.8537 -2.0336 0.9651
-7.8545 0.0000 -2.0337 0.9681
-7.1838 0.0000 -2.0337 0.9706
-7.1487 -0.7088 -2.0337 0.9706
-6.8702 -2.0986 -2.0336 0.9706
-6.6120 0.0000 -2.0337 0.9727
-6.5797 -0.6523 -2.0337 0.9727
-6.4832 -1.2983 -2.0337 0.9727
-6.3234 -1.9316 -2.0336 0.9727
-5.9990 -1.2013 -2.0337 0.9745
-5.8511 -1.7873 -2.0337 0.9745
-5.6871 0.0000 -2.0337 0.9761
-5.2036 -1.0421 -2.0337 0.9775
-5.0754 -1.5504 -2.0337 0.9775
-4.7523 -1.4517 -2.0337 0.9788
-1.9178 0.0000 -0.8358 0.9917
-1.9046 -0.3814 -0.8465 0.9916
-2.0743 -0.6336 -0.9453 0.9906
-1.5655 0.0000 -0.7246 0.9931
-1.6068 -0.1593 -0.7474 0.9929
-1.3536 -0.1342 -0.6672 0.9940
-1.2937 -0.3951 -0.6635 0.9940
-1.2004 -0.1190 -0.6257 0.9946
-1.1469 -0.3503 -0.6221 0.9946
-1.0348 -0.3161 -0.5926 0.9951
-0.9881 -0.0979 -0.5733 0.9954
-0.9750 -0.1952 -0.5740 0.9954
-0.9555 -0.2919 -0.5768 0.9954
