ply
format ascii 1.0
element vertex 205
property float32 x
property float32 y
property float32 z
property float32 I
end_header
2.3254 18.7030 3.3232 0.9263
2.1887 17.6031 2.7175 0.9307
4.1047 18.9744 2.5280 0.9247
2.2096 17.7725 2.3322 0.9303
2.3071 18.5564 2.0080 0.9275
-4.6040 19.3411 1.6830 0.9233
3.8565 17.8274 0.7192 0.9296
2.2390 18.0085 0.7156 0.9299
2.2237 17.8858 0.3044 0.9304
14.7775 9.1341 -0.8810 0.9328
13.9964 8.6514 -1.5797 0.9360
-1.7617 7.4005 -0.7303 0.9699
11.6616 12.5400 -2.0341 0.9333
10.4963 13.5305 -2.0341 0.9333
6.5379 15.8271 -2.0341 0.9333
5.0996 16.3473 -2.0341 0.9333
-1.1030 7.5883 -0.9109 0.9696
-6.8630 15.6879 -2.0340 0.9334
12.2114 7.5481 -2.0341 0.9437
11.4893 8.6076 -2.0341 0.9437
10.6754 9.5985 -2.0341 0.9437
8.7994 11.3432 -2.0341 0.9437
5.4811 13.2685 -2.0341 0.9437
4.2753 13.7046 -2.0341 0.9437
1.7713 14.2462 -2.0341 0.9437
-1.7173 7.2141 -1.0507 0.9705
-2.5857 7.7237 -1.1541 0.9676
-5.7536 13.1519 -2.0340 0.9437
-6.9041 12.5859 -2.0340 0.9437
10.5027 6.4919 -2.0341 0.9512
9.8816 7.4031 -2.0341 0.9512
9.1816 8.2554 -2.0341 0.9512
8.4084 9.0417 -2.0341 0.9512
6.6674 10.3923 -2.0341 0.9512
5.7136 10.9457 -2.0341 0.9512
4.7141 11.4119 -2.0341 0.9512
3.6771 11.7870 -2.0341 0.9512
2.6106 12.0680 -2.0341 0.9512
0.4241 12.3398 -2.0340 0.9512
-0.4305 7.8183 -1.2899 0.9688
-1.0504 7.2258 -1.2029 0.9708
-3.9195 11.7081 -2.0340 0.9512
-4.9485 11.3116 -2.0340 0.9512
-5.9380 10.8249 -2.0340 0.9512
8.6607 6.4885 -2.0340 0.9569
8.0472 7.2354 -2.0341 0.9569
7.3695 7.9246 -2.0341 0.9569
6.6330 8.5505 -2.0341 0.9569
5.8436 9.1083 -2.0341 0.9569
4.1316 10.0019 -2.0340 0.9569
2.2881 10.5770 -2.0340 0.9569
1.3352 10.7389 -2.0340 0.9569
-0.4165 7.5651 -1.4241 0.9696
-1.6956 7.1231 -1.3763 0.9706
-2.4093 7.1968 -1.4265 0.9696
-4.3371 9.9141 -2.0340 0.9569
8.1852 5.0594 -2.0340 0.9614
6.5530 7.0465 -2.0340 0.9614
2.8656 9.1860 -2.0340 0.9614
0.3305 9.6169 -2.0340 0.9614
-1.0563 7.2671 -1.5523 0.9704
-1.7122 7.1928 -1.5629 0.9702
-2.4060 7.1871 -1.6021 0.9695
-3.8566 8.8157 -2.0340 0.9614
-4.6278 8.4363 -2.0340 0.9614
7.3617 4.5504 -2.0340 0.9651
6.4357 5.7864 -2.0340 0.9651
5.8937 6.3376 -2.0340 0.9651
5.3047 6.8382 -2.0340 0.9651
4.6734 7.2843 -2.0340 0.9651
1.8299 8.4588 -2.0340 0.9651
1.0678 8.5884 -2.0340 0.9651
0.2972 8.6494 -2.0340 0.9651
-1.0613 7.3010 -1.7340 0.9701
-1.7112 7.1889 -1.7368 0.9701
-2.4996 7.4665 -1.8505 0.9682
-3.4686 7.9288 -2.0340 0.9651
5.3498 5.7527 -2.0340 0.9681
3.6352 6.9641 -2.0340 0.9681
2.9993 7.2607 -2.0340 0.9681
2.3395 7.4993 -2.0340 0.9681
0.9692 7.7957 -2.0340 0.9681
-0.4318 7.8438 -2.0340 0.9681
-1.1300 7.7740 -2.0340 0.9681
-1.8191 7.6421 -2.0340 0.9681
-3.7781 6.8874 -2.0339 0.9681
6.1116 3.7777 -2.0340 0.9706
5.3428 4.8038 -2.0340 0.9706
3.3248 6.3694 -2.0340 0.9706
2.7431 6.6406 -2.0340 0.9706
2.1397 6.8589 -2.0340 0.9706
0.2468 7.1806 -2.0340 0.9706
-0.3950 7.1740 -2.0340 0.9706
-1.0335 7.1101 -2.0340 0.9706
-1.6638 6.9895 -2.0340 0.9706
-2.2808 6.8131 -2.0340 0.9706
-3.4554 6.2992 -2.0339 0.9706
4.9175 4.4214 -2.0340 0.9727
4.5034 4.8425 -2.0340 0.9727
4.0533 5.2251 -2.0340 0.9727
2.5248 6.1120 -2.0340 0.9727
1.9693 6.3129 -2.0340 0.9727
-0.9512 6.5440 -2.0340 0.9727
-1.5314 6.4330 -2.0340 0.9727
-2.6504 6.0584 -2.0339 0.9727
5.2049 3.2172 -2.0340 0.9745
4.8971 3.6688 -2.0340 0.9745
4.5502 4.0912 -2.0340 0.9745
4.1670 4.4808 -2.0340 0.9745
3.7506 4.8348 -2.0340 0.9745
3.3042 5.1502 -2.0340 0.9745
2.3362 5.6554 -2.0340 0.9745
1.8223 5.8414 -2.0340 0.9745
0.7550 6.0722 -2.0340 0.9745
-1.4170 5.9525 -2.0340 0.9745
-2.9429 5.3647 -2.0339 0.9745
4.5520 3.4103 -2.0340 0.9761
4.2296 3.8028 -2.0340 0.9761
3.4863 4.4941 -2.0340 0.9761
2.1715 5.2569 -2.0340 0.9761
0.1954 5.6843 -2.0340 0.9761
-0.8182 5.6285 -2.0340 0.9761
-1.8056 5.3934 -2.0339 0.9761
-2.2796 5.2108 -2.0339 0.9761
4.5148 2.7906 -2.0340 0.9775
4.2477 3.1823 -2.0340 0.9775
3.6145 3.8867 -2.0340 0.9775
3.2533 4.1937 -2.0340 0.9775
2.8661 4.4673 -2.0340 0.9775
2.4561 4.7052 -2.0340 0.9775
2.0264 4.9055 -2.0340 0.9775
1.1222 5.1876 -2.0340 0.9775
0.1823 5.3044 -2.0340 0.9775
-0.2918 5.2995 -2.0340 0.9775
-1.2291 5.1632 -2.0339 0.9775
3.3843 3.6392 -2.0340 0.9787
2.6836 4.1829 -2.0340 0.9787
2.2997 4.4056 -2.0340 0.9787
1.8974 4.5932 -2.0340 0.9787
1.4800 4.7442 -2.0340 0.9787
1.0508 4.8573 -2.0340 0.9787
0.1707 4.9667 -2.0340 0.9788
-0.2732 4.9621 -2.0340 0.9788
-1.9918 4.5530 -2.0339 0.9788
3.7351 2.7983 -2.0340 0.9798
3.4705 3.1204 -2.0340 0.9798
2.8606 3.6876 -2.0340 0.9798
2.1596 4.1373 -2.0340 0.9798
1.7818 4.3135 -2.0340 0.9798
0.1603 4.6642 -2.0340 0.9798
-0.2565 4.6599 -2.0340 0.9798
-1.0807 4.5401 -2.0339 0.9798
-1.8705 4.2757 -2.0339 0.9798
3.5167 2.6346 -2.0340 0.9808
3.2675 2.9379 -2.0340 0.9808
2.3728 3.6984 -2.0340 0.9808
1.6777 4.0612 -2.0340 0.9808
0.5421 4.3605 -2.0340 0.9808
0.1509 4.3915 -2.0340 0.9808
-0.6321 4.3484 -2.0339 0.9808
-1.7611 4.0256 -2.0339 0.9808
3.5271 2.1802 -2.0340 0.9817
3.3185 2.4862 -2.0340 0.9817
2.5416 3.2763 -2.0340 0.9817
2.2391 3.4900 -2.0340 0.9817
1.9187 3.6758 -2.0340 0.9817
1.5831 3.8324 -2.0340 0.9817
0.5116 4.1148 -2.0340 0.9817
0.1424 4.1440 -2.0339 0.9817
-0.5964 4.1033 -2.0339 0.9817
-1.6619 3.7988 -2.0339 0.9817
3.1378 2.3507 -2.0340 0.9825
2.6700 2.8711 -2.0340 0.9825
2.1171 3.2999 -2.0340 0.9825
1.4969 3.6236 -2.0340 0.9825
1.1676 3.7428 -2.0340 0.9825
0.8290 3.8320 -2.0340 0.9825
0.4837 3.8907 -2.0339 0.9825
-0.2155 3.9147 -2.0339 0.9825
-0.9079 3.8140 -2.0339 0.9825
-1.2446 3.7178 -2.0339 0.9825
2.9721 2.2266 -2.0340 0.9832
2.7615 2.4829 -2.0340 0.9832
2.5290 2.7194 -2.0340 0.9832
2.2762 2.9342 -2.0340 0.9832
2.0054 3.1256 -2.0340 0.9832
1.7184 3.2921 -2.0340 0.9832
0.4582 3.6852 -2.0339 0.9832
0.1275 3.7114 -2.0339 0.9832
-0.5342 3.6749 -2.0339 0.9832
-0.8600 3.6126 -2.0339 0.9832
-1.4884 3.4022 -2.0339 0.9832
-1.7860 3.2558 -2.0339 0.9832
2.9966 1.8523 -2.0339 0.9839
2.6197 2.3554 -2.0339 0.9839
2.1593 2.7836 -2.0340 0.9839
1.6302 3.1230 -2.0339 0.9839
1.3450 3.2560 -2.0339 0.9839
1.0491 3.3630 -2.0339 0.9839
0.1210 3.5208 -2.0339 0.9839
-0.1936 3.5175 -2.0339 0.9839
-0.5068 3.4862 -2.0339 0.9839
-1.1183 3.3406 -2.0339 0.9839
-1.4119 3.2275 -2.0339 0.9839
-1.6943 3.0887 -2.0339 0.9839
