ply
format ascii 1.0
element vertex 169
property float32 x
property float32 y
property float32 z
property float32 I
end_header
16.4575 -4.3350 -1.2479 0.9340
16.1059 -4.2424 -1.5990 0.9353
0.5828 -17.1103 -2.0336 0.9334
2.1486 -6.7504 -0.8415 0.9719
2.5675 -6.0806 -0.7840 0.9738
8.0711 -15.0989 -2.0337 0.9334
13.9045 -9.9904 -2.0338 0.9334
17.0743 -1.2798 -2.0339 0.9334
0.4886 -14.3446 -2.0337 0.9437
1.7954 -14.2403 -2.0337 0.9437
1.9502 -6.1268 -0.9110 0.9744
2.5113 -5.9476 -0.9148 0.9743
7.8933 -11.9882 -2.0337 0.9437
9.9406 -10.3543 -2.0338 0.9437
11.6569 -8.3755 -2.0338 0.9437
12.3725 -7.2770 -2.0338 0.9437
12.9850 -6.1178 -2.0338 0.9437
13.8807 -3.6562 -2.0338 0.9437
0.4202 -12.3376 -2.0337 0.9512
1.9218 -6.0377 -1.0438 0.9746
3.1728 -5.9355 -1.1087 0.9731
9.3267 -8.0884 -2.0338 0.9512
10.0258 -7.2036 -2.0338 0.9512
10.6414 -6.2588 -2.0338 0.9512
11.6017 -4.2209 -2.0338 0.9512
11.9385 -3.1446 -2.0338 0.9512
12.1757 -2.0423 -2.0338 0.9512
1.3534 -10.7348 -2.0337 0.9569
1.4175 -6.4361 -1.2387 0.9735
1.8830 -5.9158 -1.1669 0.9750
2.4524 -5.8081 -1.1850 0.9747
8.1745 -7.0891 -2.0338 0.9569
8.7872 -6.3137 -2.0338 0.9569
9.3267 -5.4856 -2.0338 0.9569
9.7884 -4.6117 -2.0338 0.9569
10.6714 -1.7899 -2.0338 0.9569
10.7902 -0.8087 -2.0338 0.9569
1.2035 -9.5455 -2.0337 0.9614
1.8682 -5.8693 -1.3020 0.9751
2.4618 -5.8304 -1.3378 0.9745
3.0763 -5.7550 -1.3794 0.9737
7.8136 -5.6141 -2.0338 0.9614
8.2933 -4.8778 -2.0338 0.9614
8.7038 -4.1008 -2.0338 0.9614
9.0418 -3.2895 -2.0338 0.9614
9.3042 -2.4508 -2.0338 0.9614
9.4891 -1.5916 -2.0338 0.9614
9.5948 -0.7191 -2.0338 0.9614
0.2945 -8.6482 -2.0337 0.9651
1.3491 -6.1256 -1.4742 0.9746
1.8454 -5.7976 -1.4299 0.9753
2.4719 -5.8542 -1.4935 0.9742
2.9678 -5.5520 -1.4796 0.9745
4.7587 -7.2274 -2.0337 0.9651
5.3983 -6.7631 -2.0337 0.9651
7.0276 -5.0494 -2.0338 0.9651
7.8283 -3.6882 -2.0338 0.9651
8.6295 -0.6468 -2.0338 0.9651
0.2673 -7.8501 -2.0337 0.9681
1.8604 -5.8448 -1.5881 0.9750
3.0645 -5.7329 -1.6831 0.9735
4.3195 -6.5604 -2.0337 0.9681
5.9342 -5.1463 -2.0338 0.9681
6.3790 -4.5834 -2.0338 0.9681
7.1058 -3.3478 -2.0338 0.9681
7.5959 -2.0008 -2.0338 0.9681
0.2445 -7.1797 -2.0337 0.9706
0.8986 -7.1275 -2.0337 0.9706
1.8764 -5.8952 -1.7514 0.9746
4.4817 -5.6147 -2.0338 0.9706
5.4275 -4.7068 -2.0338 0.9706
5.8343 -4.1920 -2.0338 0.9706
6.1925 -3.6421 -2.0338 0.9706
6.4990 -3.0619 -2.0338 0.9706
6.7512 -2.4562 -2.0338 0.9706
7.0853 -1.1884 -2.0338 0.9706
7.1642 -0.5370 -2.0338 0.9706
0.8271 -6.5601 -2.0337 0.9727
3.1171 -5.8313 -2.0337 0.9727
5.3698 -3.8582 -2.0338 0.9727
6.5212 -1.0938 -2.0338 0.9727
6.5938 -0.4942 -2.0338 0.9727
0.2082 -6.1146 -2.0337 0.9745
0.7653 -6.0701 -2.0337 0.9745
1.3160 -5.9750 -2.0337 0.9745
3.3646 -5.1101 -2.0337 0.9745
3.8168 -4.7818 -2.0338 0.9745
4.9688 -3.5701 -2.0338 0.9745
5.2738 -3.1018 -2.0338 0.9745
5.5348 -2.6077 -2.0338 0.9745
5.9166 -1.5585 -2.0338 0.9745
6.1013 -0.4573 -2.0338 0.9745
1.2233 -5.5539 -2.0337 0.9761
1.7249 -5.4192 -2.0337 0.9761
3.1275 -4.7499 -2.0337 0.9761
4.2965 -3.7261 -2.0338 0.9761
5.3445 -1.9444 -2.0338 0.9761
5.6089 -0.9408 -2.0338 0.9761
5.6713 -0.4251 -2.0338 0.9761
0.1807 -5.3039 -2.0337 0.9775
0.6639 -5.2653 -2.0337 0.9775
1.1415 -5.1828 -2.0337 0.9775
1.6096 -5.0570 -2.0337 0.9775
2.0643 -4.8890 -2.0337 0.9775
2.5018 -4.6803 -2.0337 0.9775
3.6754 -3.8283 -2.0338 0.9775
4.3099 -3.0967 -2.0338 0.9775
5.2340 -0.8779 -2.0338 0.9775
5.2923 -0.3967 -2.0338 0.9775
0.6216 -4.9301 -2.0337 0.9788
1.0689 -4.8528 -2.0337 0.9788
1.5072 -4.7350 -2.0337 0.9788
2.7327 -4.1503 -2.0338 0.9788
3.1000 -3.8837 -2.0338 0.9788
3.4414 -3.5846 -2.0338 0.9788
3.7541 -3.2557 -2.0338 0.9788
4.8054 -1.2657 -2.0338 0.9788
4.9554 -0.3714 -2.0338 0.9788
0.1589 -4.6637 -2.0337 0.9798
0.5837 -4.6298 -2.0337 0.9798
1.0037 -4.5573 -2.0337 0.9798
3.2318 -3.3663 -2.0338 0.9798
3.7898 -2.7229 -2.0338 0.9798
4.2215 -1.9889 -2.0338 0.9798
4.3854 -1.5954 -2.0338 0.9798
4.5127 -1.1886 -2.0338 0.9798
0.1496 -4.3910 -2.0337 0.9808
1.7091 -4.0476 -2.0337 0.9808
3.0428 -3.1695 -2.0338 0.9808
3.3193 -2.8786 -2.0338 0.9808
3.5682 -2.5637 -2.0338 0.9808
3.7872 -2.2275 -2.0338 0.9808
0.1411 -4.1436 -2.0337 0.9817
0.5186 -4.1135 -2.0337 0.9817
1.9545 -3.6565 -2.0337 0.9817
2.2800 -3.4629 -2.0338 0.9817
2.5864 -3.2404 -2.0338 0.9817
2.8714 -2.9909 -2.0338 0.9817
3.1323 -2.7164 -2.0338 0.9817
3.3671 -2.4193 -2.0338 0.9817
4.0094 -1.0561 -2.0338 0.9817
4.1346 -0.3099 -2.0338 0.9817
0.1335 -3.9179 -2.0337 0.9825
0.4904 -3.8895 -2.0337 0.9825
0.8432 -3.8285 -2.0337 0.9825
2.4456 -3.0639 -2.0338 0.9825
2.7150 -2.8279 -2.0338 0.9825
2.9617 -2.5685 -2.0338 0.9825
3.1837 -2.2875 -2.0338 0.9825
3.3792 -1.9875 -2.0338 0.9825
3.7910 -0.9986 -2.0338 0.9825
2.1018 -0.3525 -1.1056 0.9904
2.0771 -0.1557 -1.0806 0.9907
0.1264 -3.7111 -2.0337 0.9832
0.7987 -3.6263 -2.0337 0.9832
1.1263 -3.5383 -2.0337 0.9832
2.3165 -2.9021 -2.0338 0.9832
2.8053 -2.4328 -2.0338 0.9832
3.2007 -1.8825 -2.0338 0.9832
3.3591 -1.5826 -2.0338 0.9832
3.4895 -1.2695 -2.0338 0.9832
1.8518 -0.3106 -1.0284 0.9915
1.3702 -3.2451 -2.0337 0.9839
1.6606 -3.1065 -2.0338 0.9839
2.6612 -2.3079 -2.0338 0.9839
3.0364 -1.7858 -2.0338 0.9839
3.1867 -1.5013 -2.0338 0.9839
1.7130 -0.4512 -1.0227 0.9919
1.7225 -0.1291 -0.9973 0.9921
