ply
format ascii 1.0
element vertex 193
property float32 x
property float32 y
property float32 z
property float32 I
end_header
16.4531 -4.3563 -1.2480 0.9340
16.1292 -4.2705 -1.6018 0.9352
15.2826 8.9219 -1.6989 0.9314
14.0470 -9.7909 -2.0339 0.9334
16.5528 -4.3827 -2.0340 0.9334
16.8725 -2.9199 -2.0340 0.9334
17.0633 -1.4347 -2.0340 0.9333
17.1236 0.0614 -2.0340 0.9333
17.0529 1.5571 -2.0341 0.9333
16.0654 5.9277 -2.0341 0.9333
15.4862 7.3085 -2.0341 0.9333
13.1930 9.3370 -1.9199 0.9370
12.0429 12.1744 -2.0341 0.9333
11.7764 -8.2082 -2.0339 0.9437
12.4485 -7.1481 -2.0339 0.9437
14.2962 1.3054 -2.0340 0.9437
13.8509 3.7738 -2.0341 0.9437
13.4683 4.9694 -2.0341 0.9437
12.9827 6.1270 -2.0341 0.9437
12.3979 7.2378 -2.0341 0.9437
11.7182 8.2932 -2.0341 0.9437
10.9490 9.2852 -2.0341 0.9437
10.0960 10.2063 -2.0341 0.9437
9.4731 -7.9175 -2.0339 0.9512
10.1286 -7.0597 -2.0339 0.9512
10.7068 -6.1480 -2.0339 0.9512
11.2030 -5.1891 -2.0339 0.9512
11.6136 -4.1906 -2.0340 0.9512
11.9353 -3.1601 -2.0340 0.9512
12.3033 -1.0345 -2.0340 0.9512
12.3468 0.0443 -2.0340 0.9512
12.2957 1.1227 -2.0340 0.9512
12.1507 2.1926 -2.0340 0.9512
11.9128 3.2457 -2.0340 0.9512
11.5837 4.2740 -2.0340 0.9512
11.1661 5.2697 -2.0341 0.9512
9.4169 7.9860 -2.0341 0.9512
8.6832 8.7781 -2.0341 0.9512
9.8189 -4.5480 -2.0339 0.9569
10.1787 -3.6729 -2.0339 0.9569
10.7833 -0.9067 -2.0340 0.9569
10.8213 0.0388 -2.0340 0.9569
10.4409 2.8447 -2.0340 0.9569
10.1525 3.7460 -2.0340 0.9569
9.3457 5.4559 -2.0340 0.9569
8.2534 6.9993 -2.0340 0.9569
7.6104 7.6935 -2.0341 0.9569
7.3829 -6.1705 -2.0339 0.9614
8.3443 -4.7914 -2.0339 0.9614
8.7310 -4.0441 -2.0339 0.9614
9.3018 -2.4628 -2.0340 0.9614
9.5886 -0.8062 -2.0340 0.9614
9.5826 0.8750 -2.0340 0.9614
9.4696 1.7088 -2.0340 0.9614
9.2841 2.5296 -2.0340 0.9614
9.0277 3.3309 -2.0340 0.9614
8.7022 4.1069 -2.0340 0.9614
7.3389 6.2238 -2.0340 0.9614
6.7672 6.8411 -2.0340 0.9614
7.8527 -3.6373 -2.0339 0.9651
8.1405 -2.9374 -2.0339 0.9651
8.6239 -0.7251 -2.0340 0.9651
8.6543 0.0311 -2.0340 0.9651
8.5169 1.5369 -2.0340 0.9651
8.3501 2.2750 -2.0340 0.9651
7.4741 4.3633 -2.0340 0.9651
6.4445 -4.4918 -2.0339 0.9681
6.8123 -3.9117 -2.0339 0.9681
7.3893 -2.6663 -2.0339 0.9681
7.5939 -2.0106 -2.0339 0.9681
7.7405 -1.3395 -2.0340 0.9681
7.8280 -0.6582 -2.0340 0.9681
7.5795 2.0651 -2.0340 0.9681
5.5246 5.5850 -2.0340 0.9681
5.5127 -4.6074 -2.0339 0.9706
6.2305 -3.5777 -2.0339 0.9706
6.5193 -3.0197 -2.0339 0.9706
6.7582 -2.4386 -2.0339 0.9706
6.9454 -1.8389 -2.0339 0.9706
7.1551 0.6533 -2.0340 0.9706
6.9321 1.8887 -2.0340 0.9706
6.7407 2.4871 -2.0340 0.9706
6.2050 3.6224 -2.0340 0.9706
5.8648 4.1506 -2.0340 0.9706
5.4797 4.6471 -2.0340 0.9706
5.0528 5.1080 -2.0340 0.9706
5.4249 -3.7812 -2.0339 0.9727
6.0004 -2.7793 -2.0339 0.9727
6.2202 -2.2445 -2.0339 0.9727
6.5159 -1.1276 -2.0339 0.9727
6.5896 -0.5541 -2.0340 0.9727
6.6128 0.0237 -2.0340 0.9727
6.5854 0.6013 -2.0340 0.9727
5.9804 2.8223 -2.0340 0.9727
5.7109 3.3340 -2.0340 0.9727
5.0435 4.2771 -2.0340 0.9727
4.6506 4.7013 -2.0340 0.9727
4.6948 -3.9239 -2.0339 0.9745
5.0197 -3.4988 -2.0339 0.9745
5.3062 -3.0469 -2.0339 0.9745
5.5521 -2.5717 -2.0339 0.9745
5.9150 -1.5661 -2.0339 0.9745
6.0293 -1.0434 -2.0339 0.9745
6.0974 -0.5127 -2.0339 0.9745
6.0936 0.5564 -2.0340 0.9745
6.0217 1.0866 -2.0340 0.9745
5.7407 2.1181 -2.0340 0.9745
4.9947 3.5348 -2.0340 0.9745
4.3032 4.3502 -2.0340 0.9745
4.9323 -2.8322 -2.0339 0.9761
5.3500 -1.9305 -2.0339 0.9761
5.6641 0.5172 -2.0340 0.9761
5.3361 1.9688 -2.0340 0.9761
5.1437 2.4275 -2.0340 0.9761
4.9120 2.8676 -2.0340 0.9761
4.3379 3.6787 -2.0340 0.9761
4.0723 -3.4036 -2.0339 0.9775
4.3541 -3.0349 -2.0339 0.9775
4.9924 -1.8015 -2.0339 0.9775
5.3075 0.0190 -2.0339 0.9775
5.2232 0.9425 -2.0340 0.9775
5.1209 1.3952 -2.0340 0.9775
4.9795 1.8372 -2.0340 0.9775
4.0480 3.4329 -2.0340 0.9775
3.7326 3.7734 -2.0340 0.9775
3.8131 -3.1869 -2.0339 0.9788
4.3096 -2.4746 -2.0339 0.9788
4.8041 -1.2720 -2.0339 0.9788
4.8968 -0.8474 -2.0339 0.9788
4.9522 -0.4164 -2.0339 0.9787
4.9491 0.4519 -2.0339 0.9787
4.8907 0.8825 -2.0340 0.9787
4.6624 1.7203 -2.0340 0.9787
4.4943 2.1210 -2.0340 0.9787
3.7903 3.2143 -2.0340 0.9787
3.5809 -2.9928 -2.0339 0.9798
4.2347 -1.9615 -2.0339 0.9798
4.3899 -1.5840 -2.0339 0.9798
4.5986 -0.7958 -2.0339 0.9798
4.6506 -0.3910 -2.0339 0.9798
4.6477 0.4244 -2.0339 0.9798
4.2206 1.9918 -2.0340 0.9798
3.2821 3.3180 -2.0340 0.9798
3.3715 -2.8178 -2.0339 0.9808
3.8105 -2.1880 -2.0339 0.9808
4.1332 -1.4914 -2.0339 0.9808
4.2477 -1.1246 -2.0339 0.9808
4.3297 -0.7493 -2.0339 0.9808
4.3786 -0.3682 -2.0339 0.9808
4.3940 0.0157 -2.0339 0.9808
4.3759 0.3996 -2.0339 0.9808
4.3242 0.7803 -2.0339 0.9808
3.1815 -2.6591 -2.0339 0.9817
3.7624 -1.7427 -2.0339 0.9817
3.9003 -1.4074 -2.0339 0.9817
4.0083 -1.0613 -2.0339 0.9817
4.1319 -0.3474 -2.0339 0.9817
4.1293 0.3770 -2.0339 0.9817
4.0806 0.7363 -2.0339 0.9817
4.0007 1.0900 -2.0339 0.9817
3.3846 2.3954 -2.0340 0.9817
3.1625 2.6819 -2.0340 0.9817
3.0082 -2.5143 -2.0339 0.9825
3.2164 -2.2418 -2.0339 0.9825
3.4000 -1.9523 -2.0339 0.9825
3.5575 -1.6478 -2.0339 0.9825
3.7900 -1.0034 -2.0339 0.9825
2.1029 -0.3639 -1.1071 0.9904
2.0755 -0.1745 -1.0805 0.9907
2.0709 0.0074 -1.0743 0.9907
2.0738 0.1893 -1.0803 0.9907
3.5457 1.6733 -2.0339 0.9825
2.7572 2.7873 -2.0340 0.9825
2.8494 -2.3814 -2.0339 0.9832
3.0465 -2.1234 -2.0339 0.9832
3.4931 -1.2605 -2.0339 0.9832
1.8527 -0.3206 -1.0298 0.9915
1.8505 0.0066 -1.0135 0.9916
1.8538 0.3345 -1.0317 0.9914
3.4840 1.2855 -2.0339 0.9832
2.6116 2.6402 -2.0340 0.9832
2.8901 -2.0144 -2.0339 0.9839
3.0550 -1.7542 -2.0339 0.9839
1.7865 -0.8275 -1.1367 0.9909
1.7228 -0.6217 -1.0574 0.9916
1.7128 -0.4535 -1.0230 0.9918
1.7245 0.0062 -0.9957 0.9921
1.7211 0.1571 -0.9978 0.9920
1.7140 0.3093 -1.0055 0.9920
1.7120 0.4664 -1.0245 0.9918
1.7206 0.6348 -1.0588 0.9916
2.6868 2.2786 -2.0339 0.9839
2.4775 2.5046 -2.0339 0.9839
