ply
format ascii 1.0
element vertex 172
property float32 x
property float32 y
property float32 z
property float32 I
end_header
16.5652 -3.8812 -0.8628 0.9341
16.2810 -3.8145 -1.2261 0.9351
16.2234 -3.8011 -1.5997 0.9352
14.1968 -9.5725 -2.0339 0.9334
16.2488 -5.4013 -2.0340 0.9334
16.9575 -2.3787 -2.0340 0.9333
17.1034 -0.8317 -2.0340 0.9333
17.1085 0.7222 -2.0341 0.9333
15.7369 6.7519 -2.0341 0.9333
13.4573 8.9491 -1.9197 0.9370
13.3410 10.7360 -2.0341 0.9333
12.3128 11.9012 -2.0341 0.9333
11.9019 -8.0252 -2.0339 0.9437
13.1555 -5.7443 -2.0339 0.9437
14.2162 -1.9942 -2.0340 0.9437
14.3428 0.6054 -2.0340 0.9437
14.2289 1.9032 -2.0340 0.9437
13.1929 5.6604 -2.0341 0.9437
11.9540 7.9495 -2.0341 0.9437
11.1843 9.0004 -2.0341 0.9437
10.2366 -6.9023 -2.0339 0.9512
10.8202 -5.9460 -2.0339 0.9512
11.3148 -4.9406 -2.0339 0.9512
11.7162 -3.8946 -2.0340 0.9512
12.0211 -2.8165 -2.0340 0.9512
12.2270 -1.7152 -2.0340 0.9512
11.7414 3.8197 -2.0340 0.9512
8.0635 9.3506 -2.0341 0.9512
9.4834 -5.2113 -2.0339 0.9569
10.2687 -3.4134 -2.0340 0.9569
10.7164 -1.5032 -2.0340 0.9569
10.5518 2.4011 -2.0340 0.9569
8.4307 6.7846 -2.0340 0.9569
7.0672 8.1954 -2.0341 0.9569
8.4328 -4.6339 -2.0339 0.9614
8.8182 -3.8505 -2.0339 0.9614
9.6111 -0.4673 -2.0340 0.9614
9.6139 0.4058 -2.0340 0.9614
9.5375 1.2757 -2.0340 0.9614
8.8430 3.7941 -2.0340 0.9614
8.4627 4.5801 -2.0340 0.9614
6.9189 6.6876 -2.0340 0.9614
6.2842 7.2873 -2.0340 0.9614
7.9311 -3.4631 -2.0339 0.9651
8.2124 -2.7299 -2.0339 0.9651
8.5704 -1.2022 -2.0340 0.9651
8.6467 0.3650 -2.0340 0.9651
8.4388 1.9203 -2.0340 0.9651
8.2300 2.6773 -2.0340 0.9651
7.9534 3.4124 -2.0340 0.9651
6.2228 6.0148 -2.0340 0.9651
6.8845 -3.7831 -2.0339 0.9681
7.1991 -3.1435 -2.0339 0.9681
7.4545 -2.4779 -2.0339 0.9681
7.7795 -1.0913 -2.0340 0.9681
7.8464 -0.3816 -2.0340 0.9681
7.7864 1.0414 -2.0340 0.9681
7.6599 1.7430 -2.0340 0.9681
7.4704 2.4302 -2.0340 0.9681
6.9089 3.7392 -2.0340 0.9681
5.1303 5.9493 -2.0340 0.9681
5.9570 -4.0166 -2.0339 0.9706
6.2966 -3.4601 -2.0339 0.9706
6.5843 -2.8751 -2.0339 0.9706
6.8179 -2.2663 -2.0339 0.9706
7.1151 -0.9981 -2.0340 0.9706
7.0058 1.5942 -2.0340 0.9706
6.8324 2.2227 -2.0340 0.9706
6.3188 3.4198 -2.0340 0.9706
5.4827 -3.6969 -2.0339 0.9727
6.0602 -2.6462 -2.0339 0.9727
6.5487 -0.9186 -2.0339 0.9727
6.6050 -0.3212 -2.0340 0.9727
6.6069 0.2789 -2.0340 0.9727
6.2885 2.0457 -2.0340 0.9727
5.5065 3.6618 -2.0340 0.9727
4.7548 4.5959 -2.0340 0.9727
4.3186 5.0080 -2.0340 0.9727
5.0732 -3.4208 -2.0339 0.9745
5.3625 -2.9468 -2.0339 0.9745
5.8064 -1.9301 -2.0339 0.9745
5.9575 -1.3958 -2.0339 0.9745
6.0596 -0.8500 -2.0339 0.9745
6.1135 0.2580 -2.0340 0.9745
6.0649 0.8112 -2.0340 0.9745
5.9664 1.3577 -2.0340 0.9745
5.8188 1.8929 -2.0340 0.9745
5.6232 2.4126 -2.0340 0.9745
5.3814 2.9125 -2.0340 0.9745
4.7671 3.8362 -2.0340 0.9745
4.9846 -2.7391 -2.0339 0.9761
5.2124 -2.2760 -2.0339 0.9761
5.5377 -1.2974 -2.0339 0.9761
5.6810 -0.2763 -2.0339 0.9761
5.6826 0.2399 -2.0340 0.9761
5.6375 0.7540 -2.0340 0.9761
5.5459 1.2620 -2.0340 0.9761
5.4087 1.7596 -2.0340 0.9761
4.7361 3.1495 -2.0340 0.9761
4.0896 3.9529 -2.0340 0.9761
4.4005 -2.9672 -2.0339 0.9775
5.2561 -0.7373 -2.0339 0.9775
5.3013 -0.2578 -2.0339 0.9775
5.3029 0.2238 -2.0339 0.9775
5.2607 0.7036 -2.0340 0.9775
4.4196 2.9390 -2.0340 0.9775
4.1350 3.3276 -2.0340 0.9775
4.3553 -2.3933 -2.0339 0.9788
4.5544 -1.9887 -2.0339 0.9788
4.8386 -1.1337 -2.0339 0.9788
4.9214 -0.6904 -2.0339 0.9788
4.9638 -0.2414 -2.0339 0.9787
4.9652 0.2096 -2.0339 0.9788
4.9258 0.6588 -2.0340 0.9787
4.8458 1.1026 -2.0340 0.9787
3.8717 3.1157 -2.0340 0.9787
3.2455 3.7636 -2.0340 0.9787
3.8695 -2.6091 -2.0339 0.9798
4.0900 -2.2476 -2.0339 0.9798
4.4287 -1.4721 -2.0339 0.9798
4.5439 -1.0646 -2.0339 0.9798
4.6614 -0.2267 -2.0339 0.9798
4.6628 0.1968 -2.0339 0.9798
4.6258 0.6187 -2.0339 0.9798
4.5507 1.0355 -2.0340 0.9798
4.1045 2.2213 -2.0340 0.9798
3.6359 2.9260 -2.0340 0.9798
3.6432 -2.4565 -2.0339 0.9808
4.0269 -1.7583 -2.0339 0.9808
4.2782 -1.0024 -2.0339 0.9808
4.3902 0.1853 -2.0339 0.9808
4.3554 0.5825 -2.0339 0.9808
4.0381 1.7325 -2.0340 0.9808
3.8644 2.0915 -2.0340 0.9808
3.6589 2.4332 -2.0340 0.9808
3.4233 2.7549 -2.0340 0.9808
3.4379 -2.3180 -2.0339 0.9817
3.9348 -1.3079 -2.0339 0.9817
4.0371 -0.9459 -2.0339 0.9817
4.1099 0.5497 -2.0339 0.9817
4.0431 0.9200 -2.0339 0.9817
3.9431 1.2828 -2.0339 0.9817
3.8106 1.6349 -2.0340 0.9817
3.6467 1.9736 -2.0340 0.9817
2.9814 2.8818 -2.0340 0.9817
3.4360 -1.8881 -2.0339 0.9825
3.8172 -0.8944 -2.0339 0.9825
2.0776 0.0877 -1.0788 0.9907
3.7283 1.2129 -2.0339 0.9825
3.4480 1.8661 -2.0340 0.9825
3.2647 2.1710 -2.0340 0.9825
3.0544 2.4580 -2.0340 0.9825
2.5604 2.9691 -2.0340 0.9825
3.0790 -2.0761 -2.0339 0.9832
1.8933 -0.6294 -1.0927 0.9909
1.8576 -0.4352 -1.0450 0.9913
1.8460 -0.2590 -1.0209 0.9915
1.8528 -0.0901 -1.0160 0.9916
3.2660 1.7676 -2.0339 0.9832
3.0923 2.0564 -2.0340 0.9832
2.8932 2.3282 -2.0340 0.9832
2.6702 2.5809 -2.0340 0.9832
3.0874 -1.6966 -2.0339 0.9839
1.7148 -0.4018 -1.0168 0.9919
1.7134 -0.2404 -0.9989 0.9920
1.7236 -0.0838 -0.9963 0.9921
1.7238 0.0728 -0.9961 0.9921
1.7149 0.3902 -1.0154 0.9919
1.7684 0.7587 -1.1110 0.9912
3.0982 1.6768 -2.0339 0.9839
2.5330 2.4484 -2.0339 0.9839
2.3007 2.6679 -2.0340 0.9839
