ply
format ascii 1.0
element vertex 181
property float32 x
property float32 y
property float32 z
property float32 I
end_header
-12.0438 -7.9816 -0.7327 0.9438
-11.9988 -7.9518 -1.0554 0.9439
-11.7073 -7.7586 -1.3484 0.9451
-16.9878 2.1300 -2.0337 0.9334
-17.1097 0.6159 -2.0337 0.9334
-16.9495 -2.4148 -2.0337 0.9334
-16.6687 -3.9076 -2.0337 0.9334
-16.2568 -5.3695 -2.0337 0.9334
-15.7168 -6.7893 -2.0337 0.9334
-11.7977 -7.8185 -1.6812 0.9446
-13.3766 -10.6853 -2.0337 0.9334
-12.3769 -11.8288 -2.0337 0.9334
-11.2798 -12.8793 -2.0337 0.9334
-10.0939 -13.8283 -2.0337 0.9334
-8.8286 -14.6686 -2.0337 0.9334
-14.2098 -2.0245 -2.0337 0.9437
-13.9744 -3.2759 -2.0337 0.9437
-12.6200 -6.8373 -2.0337 0.9437
-11.9643 -7.9289 -2.0337 0.9437
-10.3764 -9.9169 -2.0337 0.9437
-9.4566 -10.7975 -2.0337 0.9437
-8.4623 -11.5932 -2.0337 0.9437
-6.2824 -12.9052 -2.0337 0.9437
-12.2493 1.5358 -2.0337 0.9512
-12.3371 0.4441 -2.0337 0.9512
-12.3279 -0.6511 -2.0337 0.9512
-12.2217 -1.7412 -2.0337 0.9512
-11.7221 -3.8718 -2.0337 0.9512
-11.3329 -4.8955 -2.0337 0.9512
-9.6454 -7.7048 -2.0337 0.9512
-8.1335 -9.2868 -2.0337 0.9512
-7.2784 -9.9711 -2.0337 0.9512
-6.3660 -10.5770 -2.0337 0.9512
-5.4034 -11.0996 -2.0337 0.9512
-4.3984 -11.5348 -2.0337 0.9512
-10.5745 2.2923 -2.0338 0.9569
-10.7360 1.3461 -2.0337 0.9569
-10.8130 0.3892 -2.0337 0.9569
-10.7118 -1.5261 -2.0337 0.9569
-10.5343 -2.4695 -2.0337 0.9569
-9.9328 -4.2907 -2.0337 0.9569
-9.5134 -5.1542 -2.0337 0.9569
-9.0191 -5.9771 -2.0337 0.9569
-8.4538 -6.7529 -2.0337 0.9569
-7.8220 -7.4756 -2.0337 0.9569
-6.3792 -8.7393 -2.0337 0.9569
-5.5795 -9.2703 -2.0337 0.9569
-4.7359 -9.7284 -2.0337 0.9569
-3.8550 -10.1098 -2.0337 0.9569
-9.3673 -2.1959 -2.0337 0.9614
-9.1357 -3.0175 -2.0337 0.9614
-3.4280 -8.9898 -2.0337 0.9614
-8.4571 1.8333 -2.0338 0.9651
-8.5862 1.0766 -2.0338 0.9651
-8.6413 -0.4564 -2.0337 0.9651
-8.5668 -1.2205 -2.0337 0.9651
-8.4250 -1.9750 -2.0337 0.9651
-8.2167 -2.7139 -2.0337 0.9651
-7.9438 -3.4315 -2.0337 0.9651
-6.7610 -5.4007 -2.0337 0.9651
-5.7012 -6.5096 -2.0337 0.9651
-5.1018 -6.9893 -2.0337 0.9651
-4.4623 -7.4140 -2.0337 0.9651
-3.7876 -7.7804 -2.0337 0.9651
-7.8439 -0.4143 -2.0337 0.9681
-7.4585 -2.4635 -2.0337 0.9681
-7.2107 -3.1148 -2.0337 0.9681
-6.5474 -4.3390 -2.0337 0.9681
-5.6784 -5.4270 -2.0337 0.9681
-4.0505 -6.7298 -2.0337 0.9681
-3.4380 -7.0624 -2.0337 0.9681
-2.7986 -7.3393 -2.0337 0.9681
-7.0210 1.5221 -2.0338 0.9706
-7.1741 -0.3789 -2.0338 0.9706
-7.1121 -1.0132 -2.0338 0.9706
-6.8215 -2.2531 -2.0337 0.9706
-6.5950 -2.8488 -2.0337 0.9706
-4.7332 -5.4043 -2.0337 0.9706
-3.7046 -6.1551 -2.0337 0.9706
-2.5596 -6.7125 -2.0337 0.9706
-6.6079 0.2379 -2.0338 0.9727
-6.6029 -0.3487 -2.0338 0.9727
-6.5460 -0.9326 -2.0338 0.9727
-6.2785 -2.0738 -2.0337 0.9727
-6.0700 -2.6221 -2.0337 0.9727
-5.5116 -3.6527 -2.0337 0.9727
-4.3564 -4.9741 -2.0337 0.9727
-3.8984 -5.3406 -2.0337 0.9727
-3.4097 -5.6652 -2.0337 0.9727
-2.8942 -5.9451 -2.0337 0.9727
-5.9795 1.2962 -2.0338 0.9745
-6.1144 0.2201 -2.0338 0.9745
-6.0571 -0.8630 -2.0338 0.9745
-5.8096 -1.9189 -2.0338 0.9745
-5.3795 -2.9145 -2.0337 0.9745
-5.1000 -3.3798 -2.0337 0.9745
-4.7804 -3.8186 -2.0337 0.9745
-3.1550 -5.2421 -2.0337 0.9745
-5.5580 1.2049 -2.0338 0.9761
-5.6429 0.7075 -2.0338 0.9761
-5.6792 -0.3000 -2.0338 0.9761
-5.0004 -2.7091 -2.0338 0.9761
-4.1114 -3.9293 -2.0337 0.9761
-2.4893 -5.1134 -2.0338 0.9761
-5.3036 0.1909 -2.0338 0.9775
-5.2540 -0.7485 -2.0338 0.9775
-5.1670 -1.2113 -2.0338 0.9775
-4.8719 -2.1045 -2.0338 0.9775
-4.4237 -2.9317 -2.0338 0.9775
-4.1465 -3.3122 -2.0338 0.9775
-3.8366 -3.6667 -2.0338 0.9775
-3.4965 -3.9923 -2.0338 0.9775
-3.1289 -4.2865 -2.0338 0.9775
-2.3229 -4.7717 -2.0338 0.9775
-1.8908 -4.9587 -2.0338 0.9775
-2.1071 0.2642 -0.8691 0.9909
-2.1196 -0.4969 -0.8910 0.9906
-4.3691 -2.3671 -2.0338 0.9788
-4.1422 -2.7451 -2.0338 0.9788
-3.8825 -3.1014 -2.0338 0.9788
-2.5625 -4.2575 -2.0338 0.9788
-1.7704 -4.6430 -2.0338 0.9788
-1.9042 0.2387 -0.8364 0.9917
-1.9007 -0.4456 -0.8508 0.9915
-4.4311 -1.4636 -2.0338 0.9798
-4.2839 -1.8505 -2.0338 0.9798
-4.1030 -2.2229 -2.0338 0.9798
-3.8899 -2.5779 -2.0338 0.9798
-3.3736 -3.2242 -2.0338 0.9798
-3.0745 -3.5105 -2.0338 0.9798
-2.7513 -3.7692 -2.0338 0.9798
-2.4064 -3.9982 -2.0338 0.9798
-1.6626 -4.3603 -2.0338 0.9798
-1.5860 0.0571 -0.7346 0.9930
-1.5937 -0.0842 -0.7387 0.9930
-1.6107 -0.2295 -0.7531 0.9929
-4.0334 -1.7423 -2.0338 0.9808
-3.6624 -2.4271 -2.0338 0.9808
-2.8948 -3.3052 -2.0338 0.9808
-2.5904 -3.5488 -2.0338 0.9808
-1.9231 -3.9504 -2.0338 0.9808
-1.3520 0.1695 -0.6684 0.9939
-1.3462 0.0485 -0.6608 0.9940
-1.3495 -0.1923 -0.6686 0.9939
-1.2814 -0.4233 -0.6620 0.9940
-3.8061 -1.6442 -2.0338 0.9817
-2.7317 -3.1190 -2.0338 0.9817
-2.4444 -3.3488 -2.0338 0.9817
-2.1380 -3.5523 -2.0338 0.9817
-1.8148 -3.7278 -2.0338 0.9817
-1.4772 -3.8740 -2.0338 0.9817
-1.1975 0.0431 -0.6216 0.9946
-1.1991 -0.0633 -0.6229 0.9946
-1.1707 -0.2744 -0.6238 0.9946
-1.1104 -0.4796 -0.6275 0.9946
-3.2678 -2.1656 -2.0338 0.9825
-2.8341 -2.7086 -2.0338 0.9825
-2.5829 -2.9491 -2.0338 0.9825
-2.0216 -3.3588 -2.0338 0.9825
-1.7159 -3.5248 -2.0338 0.9825
-1.3968 -3.6630 -2.0338 0.9825
-1.0803 0.0389 -0.5920 0.9951
-1.0734 -0.1529 -0.5938 0.9951
-1.0492 -0.2460 -0.5902 0.9951
-3.0953 -2.0513 -2.0338 0.9832
-2.6844 -2.5655 -2.0338 0.9832
-2.4464 -2.7934 -2.0338 0.9832
-2.1893 -2.9992 -2.0338 0.9832
-1.9148 -3.1814 -2.0338 0.9832
-1.6253 -3.3387 -2.0338 0.9832
-0.9716 0.2106 -0.5740 0.9954
-0.9900 0.0356 -0.5720 0.9954
-0.9900 -0.0523 -0.5724 0.9954
-0.9839 -0.1402 -0.5738 0.9954
-0.9676 -0.2268 -0.5738 0.9954
-0.9518 -0.3144 -0.5787 0.9954
-0.9305 -0.4019 -0.5852 0.9953
-0.9011 -0.4882 -0.5917 0.9953
-2.3208 -2.6499 -2.0338 0.9839
-1.8165 -3.0181 -2.0338 0.9839
-1.5418 -3.1672 -2.0338 0.9839
