ply
format ascii 1.0
element vertex 261
property float32 x
property float32 y
property float32 z
property float32 I
end_header
16.5936 -3.6704 -0.8619 0.9342
2.4419 -6.2071 -0.6404 0.9736
3.1726 -6.3438 -0.6809 0.9719
16.2398 -3.5921 -1.5968 0.9353
-5.6557 -16.1581 -2.0335 0.9334
1.8452 -17.0202 -2.0336 0.9334
3.3496 -16.7893 -2.0336 0.9334
1.8329 -6.2362 -0.7721 0.9742
2.4347 -6.1890 -0.7900 0.9736
2.9635 -5.9258 -0.7870 0.9737
11.4248 -12.7521 -2.0338 0.9334
12.5124 -11.6871 -2.0338 0.9334
14.3832 -9.2890 -2.0339 0.9334
16.9813 -2.1985 -2.0340 0.9334
-4.7417 -13.5465 -2.0336 0.9437
-1.0022 -14.3176 -2.0336 0.9437
0.2734 -14.3502 -2.0336 0.9437
2.8082 -14.0756 -2.0337 0.9437
1.8421 -6.2676 -0.9256 0.9740
9.5780 -10.6908 -2.0338 0.9437
11.3188 -8.8276 -2.0338 0.9437
13.2462 -5.5312 -2.0339 0.9437
14.0161 -3.1002 -2.0339 0.9437
-5.0970 -11.2430 -2.0336 0.9512
-4.0782 -11.6513 -2.0336 0.9512
-3.0273 -11.9675 -2.0336 0.9512
-1.9524 -12.1892 -2.0336 0.9512
1.3305 -12.2729 -2.0337 0.9512
2.4154 -12.1063 -2.0337 0.9512
1.7789 -6.0526 -1.0393 0.9747
2.3446 -5.9598 -1.0551 0.9744
2.9109 -5.8204 -1.0721 0.9740
6.4809 -10.5073 -2.0337 0.9512
8.2379 -9.1950 -2.0338 0.9512
9.0221 -8.4271 -2.0338 0.9512
10.9251 -5.7503 -2.0339 0.9512
11.3927 -4.7572 -2.0339 0.9512
12.0549 -2.6664 -2.0339 0.9512
-4.4674 -9.8541 -2.0336 0.9569
-3.5745 -10.2120 -2.0336 0.9569
-2.6533 -10.4891 -2.0336 0.9569
-0.7555 -10.7932 -2.0337 0.9569
2.1170 -10.6107 -2.0337 0.9569
2.3204 -5.8984 -1.1914 0.9745
5.6802 -9.2093 -2.0338 0.9569
6.4757 -8.6684 -2.0338 0.9569
7.9075 -7.3860 -2.0338 0.9569
8.5323 -6.6545 -2.0338 0.9569
9.0897 -5.8704 -2.0338 0.9569
9.9852 -4.1695 -2.0339 0.9569
10.5655 -2.3370 -2.0339 0.9569
10.7314 -1.3893 -2.0339 0.9569
-3.9724 -8.7624 -2.0337 0.9614
-3.1784 -9.0806 -2.0337 0.9614
-2.3593 -9.3271 -2.0337 0.9614
-1.5216 -9.4998 -2.0337 0.9614
-0.6718 -9.5975 -2.0337 0.9614
1.0370 -9.5650 -2.0337 0.9614
2.8103 -5.6194 -1.3281 0.9746
5.7583 -7.7080 -2.0338 0.9614
7.5870 -5.9172 -2.0338 0.9614
8.0827 -5.2200 -2.0338 0.9614
8.5144 -4.4815 -2.0339 0.9614
8.8789 -3.7076 -2.0339 0.9614
9.1732 -2.9043 -2.0339 0.9614
9.3949 -2.0780 -2.0339 0.9614
9.5424 -1.2354 -2.0339 0.9614
-3.5728 -7.8810 -2.0337 0.9651
-2.8587 -8.1672 -2.0337 0.9651
-1.3686 -8.5442 -2.0337 0.9651
2.2640 -5.7550 -1.4535 0.9749
4.5428 -7.3652 -2.0338 0.9651
5.7744 -6.4453 -2.0338 0.9651
6.3241 -5.9070 -2.0338 0.9651
6.8238 -5.3219 -2.0338 0.9651
7.2696 -4.6948 -2.0338 0.9651
8.2503 -2.6121 -2.0339 0.9651
8.5824 -1.1111 -2.0339 0.9651
-1.2422 -7.7557 -2.0337 0.9681
0.1496 -7.8533 -2.0337 0.9681
0.8466 -7.8090 -2.0337 0.9681
2.8474 -5.6935 -1.6482 0.9740
4.1236 -6.6855 -2.0338 0.9681
4.7011 -6.2929 -2.0338 0.9681
6.1940 -4.8308 -2.0338 0.9681
6.5987 -4.2616 -2.0338 0.9681
7.7904 -1.0086 -2.0339 0.9681
-2.9662 -6.5429 -2.0337 0.9706
-2.3733 -6.7805 -2.0337 0.9706
-1.7617 -6.9645 -2.0337 0.9706
0.1369 -7.1826 -2.0337 0.9706
0.7743 -7.1421 -2.0337 0.9706
1.4056 -7.0452 -2.0337 0.9706
1.7355 -5.9049 -1.7423 0.9747
3.7714 -6.1146 -2.0338 0.9706
4.7939 -5.3509 -2.0338 0.9706
5.2502 -4.9039 -2.0338 0.9706
5.6651 -4.4183 -2.0338 0.9706
6.6296 -2.7683 -2.0339 0.9706
7.0149 -1.5516 -2.0339 0.9706
7.1250 -0.9225 -2.0339 0.9706
0.7127 -6.5736 -2.0337 0.9727
1.2937 -6.4843 -2.0337 0.9727
1.7593 -5.9858 -1.9190 0.9742
2.4207 -6.1532 -2.0338 0.9727
2.9576 -5.9139 -2.0338 0.9727
3.4712 -5.6278 -2.0338 0.9727
4.4123 -4.9249 -2.0338 0.9727
4.8323 -4.5136 -2.0338 0.9727
5.2141 -4.0665 -2.0338 0.9727
5.5547 -3.5874 -2.0338 0.9727
5.8514 -3.0798 -2.0338 0.9727
6.1019 -2.5479 -2.0338 0.9727
6.4565 -1.4281 -2.0339 0.9727
-2.5262 -5.5723 -2.0337 0.9745
-2.0213 -5.7746 -2.0337 0.9745
-1.5004 -5.9314 -2.0337 0.9745
-0.4272 -6.1033 -2.0337 0.9745
0.1166 -6.1172 -2.0337 0.9745
1.7253 -5.8700 -2.0338 0.9745
3.2120 -5.2075 -2.0338 0.9745
3.6618 -4.9017 -2.0338 0.9745
4.0827 -4.5571 -2.0338 0.9745
5.1398 -3.3194 -2.0338 0.9745
5.6461 -2.3577 -2.0338 0.9745
5.8332 -1.8468 -2.0339 0.9745
5.9743 -1.3214 -2.0339 0.9745
-2.3482 -5.1796 -2.0337 0.9761
-0.8994 -5.6155 -2.0337 0.9761
-0.3971 -5.6732 -2.0337 0.9761
0.1084 -5.6861 -2.0337 0.9761
0.6129 -5.6540 -2.0337 0.9761
1.1127 -5.5772 -2.0338 0.9761
2.0820 -5.2924 -2.0338 0.9761
2.5439 -5.0865 -2.0338 0.9761
3.7950 -4.2359 -2.0338 0.9761
4.4846 -3.4976 -2.0338 0.9761
5.0328 -2.6489 -2.0338 0.9761
5.2482 -2.1915 -2.0338 0.9761
-2.1912 -4.8335 -2.0337 0.9775
-1.7532 -5.0090 -2.0337 0.9775
-1.3014 -5.1449 -2.0337 0.9775
-0.8393 -5.2402 -2.0337 0.9775
0.1011 -5.3061 -2.0337 0.9775
0.5720 -5.2761 -2.0338 0.9775
1.0384 -5.2045 -2.0338 0.9775
2.3739 -4.7466 -2.0338 0.9775
2.7861 -4.5170 -2.0338 0.9775
3.1763 -4.2517 -2.0338 0.9775
3.5414 -3.9528 -2.0338 0.9775
4.6964 -2.4719 -2.0338 0.9775
5.0598 -1.6020 -2.0339 0.9775
5.1821 -1.1462 -2.0339 0.9775
-2.0517 -4.5258 -2.0337 0.9788
-0.3470 -4.9570 -2.0337 0.9788
0.0947 -4.9683 -2.0338 0.9788
0.5356 -4.9402 -2.0338 0.9788
0.9723 -4.8732 -2.0338 0.9788
1.8192 -4.6243 -2.0338 0.9788
2.6087 -4.2295 -2.0338 0.9788
3.3159 -3.7012 -2.0338 0.9788
3.6316 -3.3920 -2.0338 0.9788
3.9185 -3.0561 -2.0338 0.9788
4.1745 -2.6960 -2.0338 0.9788
4.3975 -2.3146 -2.0338 0.9788
4.9283 -0.6380 -2.0339 0.9788
-1.9268 -4.2502 -2.0337 0.9798
-1.5417 -4.4045 -2.0337 0.9798
-1.1444 -4.5240 -2.0337 0.9798
-0.3259 -4.6551 -2.0337 0.9798
0.0889 -4.6657 -2.0338 0.9798
0.5030 -4.6394 -2.0338 0.9798
1.3159 -4.4772 -2.0338 0.9798
2.0874 -4.1738 -2.0338 0.9798
2.7930 -3.7386 -2.0338 0.9798
3.1139 -3.4758 -2.0338 0.9798
3.4104 -3.1854 -2.0338 0.9798
3.9202 -2.5318 -2.0338 0.9798
4.1296 -2.1736 -2.0338 0.9798
4.4491 -1.4086 -2.0338 0.9798
-1.8141 -4.0016 -2.0337 0.9808
-1.4515 -4.1470 -2.0337 0.9808
-0.6949 -4.3384 -2.0337 0.9808
-0.3068 -4.3829 -2.0338 0.9808
0.0837 -4.3929 -2.0338 0.9808
0.8597 -4.3088 -2.0338 0.9808
1.2390 -4.2154 -2.0338 0.9808
1.6085 -4.0887 -2.0338 0.9808
1.9653 -3.9297 -2.0338 0.9808
2.3066 -3.7396 -2.0338 0.9808
2.9319 -3.2725 -2.0338 0.9808
3.4647 -2.7021 -2.0338 0.9808
3.6910 -2.3837 -2.0338 0.9808
3.8882 -2.0465 -2.0338 0.9808
4.0546 -1.6930 -2.0338 0.9808
4.1889 -1.3262 -2.0338 0.9808
4.2902 -0.9490 -2.0339 0.9808
4.3575 -0.5641 -2.0339 0.9808
-1.7119 -3.7762 -2.0337 0.9817
-1.3697 -3.9133 -2.0337 0.9817
-1.0167 -4.0195 -2.0338 0.9817
-0.2895 -4.1360 -2.0338 0.9817
0.0790 -4.1454 -2.0338 0.9817
0.4469 -4.1220 -2.0338 0.9817
1.1692 -3.9779 -2.0338 0.9817
1.5179 -3.8583 -2.0338 0.9817
1.8546 -3.7083 -2.0338 0.9817
3.0300 -2.8302 -2.0338 0.9817
3.2695 -2.5499 -2.0338 0.9817
3.4830 -2.2494 -2.0338 0.9817
3.6691 -1.9312 -2.0338 0.9817
4.1120 -0.5324 -2.0339 0.9817
-1.6186 -3.5705 -2.0337 0.9825
-1.2951 -3.7002 -2.0338 0.9825
-0.9614 -3.8006 -2.0338 0.9825
-0.6200 -3.8709 -2.0338 0.9825
-0.2737 -3.9107 -2.0338 0.9825
0.0747 -3.9196 -2.0338 0.9825
0.4225 -3.8975 -2.0338 0.9825
0.7670 -3.8446 -2.0338 0.9825
1.1055 -3.7612 -2.0338 0.9825
1.4352 -3.6482 -2.0338 0.9825
2.0581 -3.3367 -2.0338 0.9825
3.2933 -2.1269 -2.0338 0.9825
3.4692 -1.8260 -2.0338 0.9825
3.6177 -1.5107 -2.0338 0.9825
3.7376 -1.1834 -2.0338 0.9825
2.0899 -0.2706 -1.0932 0.9905
-1.2268 -3.5048 -2.0338 0.9832
-0.9106 -3.5999 -2.0338 0.9832
-0.5872 -3.6665 -2.0338 0.9832
0.0707 -3.7126 -2.0338 0.9832
0.4002 -3.6916 -2.0338 0.9832
1.0471 -3.5626 -2.0338 0.9832
1.3594 -3.4555 -2.0338 0.9832
1.6609 -3.3212 -2.0338 0.9832
1.9494 -3.1605 -2.0338 0.9832
2.2224 -2.9749 -2.0338 0.9832
2.9281 -2.2837 -2.0338 0.9832
3.1194 -2.0146 -2.0338 0.9832
3.2861 -1.7296 -2.0338 0.9832
3.4266 -1.4309 -2.0338 0.9832
1.8837 -0.5964 -1.0822 0.9910
1.8573 -0.4108 -1.0419 0.9914
1.8443 -0.2388 -1.0186 0.9916
-1.1637 -3.3248 -2.0338 0.9839
0.3796 -3.5021 -2.0338 0.9839
0.6892 -3.4545 -2.0338 0.9839
0.9934 -3.3797 -2.0338 0.9839
1.2896 -3.2781 -2.0338 0.9839
1.5757 -3.1506 -2.0338 0.9839
1.8493 -2.9982 -2.0338 0.9839
2.1083 -2.8221 -2.0338 0.9839
2.3506 -2.6237 -2.0338 0.9839
2.5744 -2.4046 -2.0338 0.9839
2.7778 -2.1664 -2.0338 0.9839
2.9593 -1.9111 -2.0338 0.9839
3.1173 -1.6408 -2.0338 0.9839
1.7618 -0.7357 -1.1023 0.9912
1.7210 -0.5449 -1.0422 0.9917
1.7149 -0.3793 -1.0140 0.9919
