ply
format ascii 1.0
element vertex 211
property float32 x
property float32 y
property float32 z
property float32 I
end_header
2.8416 18.8413 3.3598 0.9255
2.6267 17.4169 1.4911 0.9317
2.6646 17.6679 1.1080 0.9309
2.6615 17.6473 0.7037 0.9310
2.7059 17.9415 0.3065 0.9300
2.8027 18.5834 -0.9531 0.9275
2.7836 18.4562 -1.7919 0.9277
-0.9724 7.6656 -0.7418 0.9694
-1.6549 7.4656 -0.7341 0.9697
13.2552 10.8391 -2.0339 0.9334
12.2038 12.0105 -2.0339 0.9334
9.8016 14.0397 -2.0339 0.9334
8.4709 14.8804 -2.0339 0.9334
7.0687 15.5954 -2.0339 0.9334
5.6067 16.1786 -2.0339 0.9334
4.0974 16.6250 -2.0339 0.9334
0.9880 17.0938 -2.0339 0.9334
-0.5859 17.1122 -2.0339 0.9334
-0.9720 7.6623 -0.9175 0.9694
-5.2247 16.3053 -2.0338 0.9334
-6.6998 15.7565 -2.0338 0.9334
11.1123 9.0869 -2.0339 0.9437
10.2310 10.0689 -2.0339 0.9437
9.2631 10.9658 -2.0339 0.9437
7.1015 12.4749 -2.0339 0.9437
5.9261 13.0743 -2.0339 0.9437
4.7004 13.5632 -2.0339 0.9437
3.4351 13.9375 -2.0339 0.9437
2.1407 14.1940 -2.0339 0.9437
0.8283 14.3305 -2.0339 0.9437
-0.4911 14.3460 -2.0339 0.9437
-0.9298 7.3297 -1.0469 0.9706
-4.3801 13.6695 -2.0338 0.9437
-5.6168 13.2095 -2.0338 0.9437
-7.9377 11.9594 -2.0338 0.9437
7.9670 9.4314 -2.0339 0.9512
7.0673 10.1232 -2.0339 0.9512
6.1079 10.7294 -2.0339 0.9512
4.0427 11.6654 -2.0339 0.9512
2.9544 11.9873 -2.0339 0.9512
-0.4224 12.3386 -2.0338 0.9512
-0.9384 7.3968 -1.2283 0.9702
-2.4714 7.7127 -1.3342 0.9677
-4.8309 11.3612 -2.0338 0.9512
-5.8537 10.8695 -2.0338 0.9512
-6.8271 10.2860 -2.0338 0.9512
8.3766 6.8498 -2.0339 0.9569
7.7122 7.5900 -2.0339 0.9569
6.9827 8.2662 -2.0339 0.9569
6.1941 8.8725 -2.0339 0.9569
4.4671 9.8555 -2.0339 0.9569
3.5432 10.2241 -2.0339 0.9569
0.6244 10.8025 -2.0338 0.9569
-0.9239 7.2828 -1.3799 0.9706
-1.6097 7.2619 -1.3981 0.9702
-4.2341 9.9575 -2.0338 0.9569
-5.1305 9.5266 -2.0338 0.9569
-5.9836 9.0152 -2.0338 0.9569
7.4485 6.0909 -2.0338 0.9614
6.8577 6.7491 -2.0338 0.9614
2.3025 9.3422 -2.0338 0.9614
0.5552 9.6057 -2.0338 0.9614
-0.2668 7.7902 -1.6477 0.9686
-1.6127 7.2754 -1.5752 0.9700
-2.2878 7.1397 -1.5848 0.9698
-3.7649 8.8543 -2.0338 0.9614
-5.3207 8.0164 -2.0338 0.9614
6.6991 5.4781 -2.0338 0.9651
6.1678 6.0701 -2.0338 0.9651
4.9537 7.0957 -2.0338 0.9651
3.5725 7.8820 -2.0338 0.9651
-1.6592 7.4851 -1.8019 0.9690
-3.3862 7.9636 -2.0338 0.9651
-4.7854 7.2099 -2.0338 0.9651
5.0690 6.0007 -2.0338 0.9681
1.8797 7.6269 -2.0338 0.9681
1.1714 7.7673 -2.0338 0.9681
0.4532 7.8420 -2.0338 0.9681
-0.9393 7.4046 -1.9325 0.9696
-2.3970 7.4804 -2.0338 0.9681
-3.7245 6.9158 -2.0338 0.9681
-4.3438 6.5446 -2.0338 0.9681
5.1205 5.0394 -2.0338 0.9706
3.5542 6.2435 -2.0338 0.9706
2.9659 6.5435 -2.0338 0.9706
1.7192 6.9756 -2.0338 0.9706
1.0714 7.1039 -2.0338 0.9706
0.4145 7.1723 -2.0338 0.9706
-0.2459 7.1800 -2.0338 0.9706
-0.9041 7.1271 -2.0338 0.9706
-1.5548 7.0140 -2.0338 0.9706
-2.1922 6.8415 -2.0338 0.9706
-2.8112 6.6113 -2.0338 0.9706
-3.4064 6.3252 -2.0338 0.9706
-3.9729 5.9857 -2.0338 0.9706
5.1188 4.1858 -2.0338 0.9727
4.2670 5.0513 -2.0338 0.9727
3.2713 5.7465 -2.0338 0.9727
1.5823 6.4203 -2.0338 0.9727
-0.8321 6.5597 -2.0338 0.9727
-1.4309 6.4556 -2.0338 0.9727
-2.0177 6.2969 -2.0338 0.9727
-2.5874 6.0850 -2.0338 0.9727
-3.6566 5.5092 -2.0338 0.9727
4.7365 3.8732 -2.0338 0.9745
4.3608 4.2917 -2.0338 0.9745
3.9483 4.6740 -2.0338 0.9745
2.5259 5.5728 -2.0338 0.9745
2.0035 5.7812 -2.0338 0.9745
0.9125 6.0500 -2.0338 0.9745
0.3530 6.1083 -2.0338 0.9745
-0.2094 6.1148 -2.0338 0.9745
-0.7700 6.0698 -2.0338 0.9745
-1.3241 5.9734 -2.0338 0.9745
-1.8670 5.8266 -2.0338 0.9745
-2.3941 5.6305 -2.0338 0.9745
-3.3834 5.0977 -2.0338 0.9745
4.0535 3.9893 -2.0338 0.9761
2.8136 4.9425 -2.0338 0.9761
2.3479 5.1800 -2.0338 0.9761
1.8623 5.3737 -2.0338 0.9761
0.3281 5.6778 -2.0338 0.9761
-0.7157 5.6420 -2.0338 0.9761
-1.2308 5.5525 -2.0338 0.9761
-1.7354 5.4160 -2.0338 0.9761
-2.2254 5.2337 -2.0338 0.9761
-3.1450 4.7384 -2.0338 0.9761
4.1084 3.3596 -2.0338 0.9775
3.0380 4.3516 -2.0338 0.9775
2.6256 4.6122 -2.0338 0.9775
1.7379 5.0146 -2.0338 0.9775
1.2700 5.1530 -2.0338 0.9775
0.7914 5.2478 -2.0338 0.9775
0.3062 5.2983 -2.0338 0.9775
-0.1816 5.3040 -2.0338 0.9775
-2.9348 4.4218 -2.0338 0.9775
3.8469 3.1457 -2.0338 0.9788
3.5418 3.4857 -2.0338 0.9788
3.2067 3.7962 -2.0338 0.9788
2.8446 4.0746 -2.0338 0.9788
2.0514 4.5261 -2.0338 0.9788
1.6272 4.6954 -2.0338 0.9788
0.7411 4.9137 -2.0338 0.9788
0.2868 4.9610 -2.0338 0.9788
-0.1700 4.9663 -2.0338 0.9788
-1.5164 4.7322 -2.0338 0.9788
-1.9445 4.5730 -2.0338 0.9788
3.6126 2.9541 -2.0338 0.9798
3.0114 3.5650 -2.0338 0.9798
1.1167 4.5311 -2.0338 0.9798
0.6959 4.6145 -2.0338 0.9798
0.2693 4.6588 -2.0338 0.9798
-0.5873 4.6295 -2.0338 0.9798
-1.0099 4.5560 -2.0338 0.9798
-1.4240 4.4440 -2.0338 0.9798
-2.2127 4.1087 -2.0338 0.9798
-2.5806 3.8881 -2.0338 0.9798
3.4013 2.7814 -2.0338 0.9808
3.1316 3.0820 -2.0338 0.9808
2.8353 3.3565 -2.0338 0.9808
2.1737 3.8184 -2.0338 0.9808
1.8139 4.0019 -2.0338 0.9808
1.0514 4.2661 -2.0338 0.9808
0.6552 4.3446 -2.0338 0.9808
0.2535 4.3864 -2.0338 0.9808
-0.1504 4.3912 -2.0338 0.9808
-0.5529 4.3588 -2.0338 0.9808
-0.9508 4.2896 -2.0338 0.9808
-1.7193 4.0434 -2.0338 0.9808
2.6755 3.1674 -2.0338 0.9817
2.3734 3.3997 -2.0338 0.9817
2.0512 3.6033 -2.0338 0.9817
0.9922 4.0257 -2.0338 0.9817
0.6183 4.0998 -2.0338 0.9817
0.2393 4.1393 -2.0338 0.9817
-0.1419 4.1437 -2.0338 0.9817
-0.8973 4.0479 -2.0338 0.9817
-1.2652 3.9484 -2.0338 0.9817
-1.6224 3.8155 -2.0338 0.9817
-1.9659 3.6504 -2.0338 0.9817
-2.2928 3.4545 -2.0338 0.9817
3.0348 2.4817 -2.0338 0.9825
2.7941 2.7499 -2.0338 0.9825
2.2441 3.2145 -2.0338 0.9825
1.9395 3.4070 -2.0338 0.9825
1.2837 3.7042 -2.0338 0.9825
0.5846 3.8765 -2.0338 0.9825
0.2262 3.9138 -2.0338 0.9825
-0.1341 3.9180 -2.0338 0.9825
-1.1962 3.7333 -2.0338 0.9825
-1.5340 3.6077 -2.0338 0.9825
2.6466 2.6047 -2.0338 0.9832
1.5330 3.3821 -2.0338 0.9832
1.2159 3.5086 -2.0338 0.9832
0.2143 3.7071 -2.0338 0.9832
-0.4673 3.6838 -2.0338 0.9832
-0.8036 3.6253 -2.0338 0.9832
-1.4530 3.4172 -2.0338 0.9832
-1.7607 3.2693 -2.0338 0.9832
2.5107 2.4709 -2.0338 0.9839
1.7427 3.0614 -2.0338 0.9839
1.4542 3.2084 -2.0338 0.9839
1.1535 3.3284 -2.0338 0.9839
0.8429 3.4203 -2.0338 0.9839
0.5253 3.4832 -2.0338 0.9839
0.2032 3.5168 -2.0338 0.9839
-0.4433 3.4946 -2.0338 0.9839
-0.7623 3.4391 -2.0338 0.9839
-1.3784 3.2417 -2.0338 0.9839
-1.6702 3.1014 -2.0338 0.9839
-1.9480 2.9350 -2.0338 0.9839
