ply
format ascii 1.0
element vertex 234
property float32 x
property float32 y
property float32 z
property float32 I
end_header
3.5055 18.5694 3.3321 0.9261
1.6915 17.6749 2.7201 0.9307
3.4411 18.2276 2.4155 0.9279
1.7312 18.0903 1.9514 0.9295
3.3570 17.7821 1.5319 0.9299
1.7833 18.6341 1.5846 0.9276
1.6993 17.7567 1.1061 0.9310
1.8129 18.9429 0.7504 0.9267
3.5531 18.8210 0.3235 0.9262
1.8929 19.7798 0.3356 0.9236
14.2814 9.0259 -0.8568 0.9346
13.8732 8.7679 -1.2033 0.9363
17.1199 0.2835 -2.0339 0.9334
17.0230 1.8411 -2.0339 0.9334
16.7848 3.3834 -2.0339 0.9334
16.4071 4.8977 -2.0339 0.9334
12.5754 11.6209 -2.0339 0.9334
1.6312 17.0446 -2.0339 0.9334
0.0725 17.1222 -2.0339 0.9334
-0.6981 8.0096 -0.9550 0.9681
14.2712 1.5435 -2.0339 0.9437
13.7548 4.1060 -2.0339 0.9437
12.7822 6.5323 -2.0339 0.9437
12.1344 7.6690 -2.0339 0.9437
11.3858 8.7420 -2.0339 0.9437
9.6117 10.6618 -2.0339 0.9437
7.5189 12.2280 -2.0339 0.9437
5.1767 13.3888 -2.0339 0.9437
3.9362 13.8044 -2.0339 0.9437
2.6629 14.1054 -2.0339 0.9437
0.0608 14.3543 -2.0339 0.9437
12.3442 0.2044 -2.0338 0.9512
12.2743 1.3275 -2.0339 0.9512
10.9937 5.6182 -2.0339 0.9512
10.4365 6.5959 -2.0339 0.9512
9.7926 7.5188 -2.0339 0.9512
9.0673 8.3791 -2.0339 0.9512
8.2667 9.1699 -2.0339 0.9512
7.3975 9.8845 -2.0339 0.9512
5.4823 11.0621 -2.0339 0.9512
2.2903 12.1317 -2.0339 0.9512
0.0523 12.3458 -2.0339 0.9512
-1.3202 7.3333 -1.2275 0.9702
10.8191 0.1792 -2.0338 0.9569
9.6354 4.9241 -2.0339 0.9569
9.1471 5.7810 -2.0339 0.9569
7.9471 7.3439 -2.0339 0.9569
7.2454 8.0370 -2.0339 0.9569
6.4836 8.6633 -2.0339 0.9569
2.9671 10.4059 -2.0339 0.9569
2.0073 10.6329 -2.0339 0.9569
-0.6568 7.5350 -1.4216 0.9697
-1.3052 7.2498 -1.3846 0.9705
9.6204 0.1593 -2.0338 0.9614
9.4321 1.9013 -2.0338 0.9614
9.2198 2.7522 -2.0338 0.9614
7.0665 6.5302 -2.0339 0.9614
6.4426 7.1465 -2.0339 0.9614
5.0398 8.1963 -2.0339 0.9614
4.2726 8.6212 -2.0339 0.9614
3.4699 8.9744 -2.0339 0.9614
2.6383 9.2530 -2.0338 0.9614
1.7849 9.4547 -2.0338 0.9614
0.9166 9.5780 -2.0338 0.9614
-0.6477 7.4308 -1.5767 0.9700
-1.2825 7.1242 -1.5301 0.9708
8.6525 0.1433 -2.0338 0.9651
8.4831 1.7100 -2.0338 0.9651
8.2922 2.4753 -2.0338 0.9651
7.3154 4.6233 -2.0338 0.9651
6.3557 5.8733 -2.0338 0.9651
5.1852 6.9284 -2.0338 0.9651
3.8428 7.7538 -2.0338 0.9651
3.1208 8.0715 -2.0338 0.9651
2.3729 8.3221 -2.0338 0.9651
1.6053 8.5036 -2.0338 0.9651
0.8244 8.6144 -2.0338 0.9651
0.0366 8.6537 -2.0338 0.9651
-0.6475 7.4294 -1.7527 0.9698
7.8096 0.8446 -2.0338 0.9681
7.7002 1.5522 -2.0338 0.9681
7.5269 2.2469 -2.0338 0.9681
7.2911 2.9229 -2.0338 0.9681
6.2305 4.7838 -2.0338 0.9681
5.7690 5.3312 -2.0338 0.9681
5.2597 5.8343 -2.0338 0.9681
4.1145 6.6914 -2.0338 0.9681
3.4881 7.0382 -2.0338 0.9681
2.8328 7.3266 -2.0338 0.9681
1.4572 7.7188 -2.0338 0.9681
0.7484 7.8194 -2.0338 0.9681
-1.3918 7.7308 -2.0338 0.9681
7.1426 0.7725 -2.0338 0.9706
7.0427 1.4196 -2.0338 0.9706
6.8841 2.0550 -2.0338 0.9706
6.3974 3.2693 -2.0338 0.9706
6.0731 3.8382 -2.0338 0.9706
5.6984 4.3753 -2.0338 0.9706
5.2764 4.8759 -2.0338 0.9706
4.8105 5.3361 -2.0338 0.9706
4.3047 5.7519 -2.0338 0.9706
3.7631 6.1200 -2.0338 0.9706
2.5909 6.7009 -2.0338 0.9706
0.6844 7.1516 -2.0338 0.9706
-1.2729 7.0706 -2.0338 0.9706
6.6114 0.1095 -2.0338 0.9727
6.5740 0.7110 -2.0338 0.9727
6.4820 1.3066 -2.0338 0.9727
6.3361 1.8914 -2.0338 0.9727
6.1375 2.4604 -2.0338 0.9727
5.8880 3.0091 -2.0338 0.9727
4.4276 4.9113 -2.0338 0.9727
3.9620 5.2940 -2.0338 0.9727
2.3846 6.1674 -2.0338 0.9727
1.8132 6.3589 -2.0338 0.9727
-1.1716 6.5077 -2.0338 0.9727
5.9978 1.2090 -2.0338 0.9745
5.6792 2.2767 -2.0338 0.9745
5.4483 2.7843 -2.0338 0.9745
5.1721 3.2688 -2.0338 0.9745
4.4936 4.1526 -2.0338 0.9745
3.2048 5.2121 -2.0338 0.9745
2.7170 5.4822 -2.0338 0.9745
1.6777 5.8840 -2.0338 0.9745
-0.5313 6.0953 -2.0338 0.9745
-1.0841 6.0216 -2.0338 0.9745
5.6865 0.0942 -2.0338 0.9761
5.6543 0.6115 -2.0338 0.9761
5.5752 1.1238 -2.0338 0.9761
5.4496 1.6268 -2.0338 0.9761
5.2789 2.1162 -2.0338 0.9761
5.0643 2.5880 -2.0338 0.9761
4.5110 3.4636 -2.0338 0.9761
4.1770 3.8599 -2.0338 0.9761
3.8081 4.2242 -2.0338 0.9761
3.4077 4.5534 -2.0338 0.9761
2.9790 4.8447 -2.0338 0.9761
2.0510 5.3046 -2.0338 0.9761
1.5595 5.4693 -2.0338 0.9761
1.0550 5.5886 -2.0338 0.9761
0.0241 5.6872 -2.0338 0.9761
-0.4939 5.6658 -2.0338 0.9761
-1.0077 5.5973 -2.0338 0.9761
5.2764 0.5707 -2.0338 0.9775
5.2025 1.0487 -2.0338 0.9775
5.0854 1.5181 -2.0338 0.9775
4.9261 1.9748 -2.0338 0.9775
4.7259 2.4151 -2.0338 0.9775
4.2095 3.2321 -2.0338 0.9775
3.5536 3.9419 -2.0338 0.9775
3.1800 4.2490 -2.0338 0.9775
2.3566 4.7553 -2.0338 0.9775
1.4553 5.1038 -2.0338 0.9775
0.9845 5.2151 -2.0338 0.9775
0.5056 5.2831 -2.0338 0.9775
-0.4609 5.2871 -2.0338 0.9775
4.9405 0.5343 -2.0338 0.9788
4.2007 2.6549 -2.0338 0.9788
3.3274 3.6909 -2.0338 0.9788
2.6029 4.2331 -2.0338 0.9788
2.2066 4.4525 -2.0338 0.9788
1.7921 4.6349 -2.0338 0.9788
1.3627 4.7788 -2.0338 0.9788
0.9219 4.8830 -2.0338 0.9788
0.4734 4.9467 -2.0338 0.9788
-0.4315 4.9505 -2.0338 0.9788
-0.8804 4.8906 -2.0338 0.9788
4.6660 0.0773 -2.0338 0.9798
4.6396 0.5018 -2.0338 0.9798
4.1555 2.1236 -2.0338 0.9798
3.9448 2.4932 -2.0338 0.9798
3.7015 2.8420 -2.0338 0.9798
3.1247 3.4661 -2.0338 0.9798
2.7961 3.7362 -2.0338 0.9798
2.4443 3.9753 -2.0338 0.9798
2.0723 4.1814 -2.0338 0.9798
0.0198 4.6666 -2.0338 0.9798
4.3932 0.0728 -2.0338 0.9808
4.3683 0.4725 -2.0338 0.9808
4.3071 0.8682 -2.0338 0.9808
4.0782 1.6349 -2.0338 0.9808
3.7142 2.3474 -2.0338 0.9808
3.4850 2.6758 -2.0338 0.9808
3.2269 2.9820 -2.0338 0.9808
2.3014 3.7428 -2.0338 0.9808
1.9511 3.9368 -2.0338 0.9808
1.2048 4.2254 -2.0338 0.9808
-0.3815 4.3772 -2.0338 0.9808
-0.7785 4.3242 -2.0338 0.9808
4.1456 0.0687 -2.0338 0.9817
3.9729 1.1860 -2.0338 0.9817
3.8485 1.5428 -2.0338 0.9817
3.6920 1.8868 -2.0338 0.9817
3.5049 2.2151 -2.0338 0.9817
3.2887 2.5250 -2.0338 0.9817
2.7762 3.0795 -2.0338 0.9817
1.8411 3.7150 -2.0338 0.9817
1.4952 3.8672 -2.0338 0.9817
1.1369 3.9873 -2.0338 0.9817
0.0176 4.1461 -2.0338 0.9817
-0.3600 4.1305 -2.0338 0.9817
3.7566 1.1214 -2.0338 0.9825
3.6389 1.4588 -2.0338 0.9825
3.3140 2.0945 -2.0338 0.9825
2.8793 2.6607 -2.0338 0.9825
2.6250 2.9118 -2.0338 0.9825
2.3490 3.1387 -2.0338 0.9825
2.0534 3.3396 -2.0338 0.9825
1.7409 3.5127 -2.0338 0.9825
1.4138 3.6566 -2.0338 0.9825
0.7272 3.8523 -2.0338 0.9825
0.3735 3.9025 -2.0338 0.9825
-0.3404 3.9055 -2.0338 0.9825
1.8562 0.3742 -1.0371 0.9914
3.3066 1.6898 -2.0338 0.9832
2.9454 2.2614 -2.0338 0.9832
2.7272 2.5202 -2.0338 0.9832
2.2250 2.9730 -2.0338 0.9832
1.3391 3.4635 -2.0338 0.9832
0.0157 3.7133 -2.0338 0.9832
-0.6579 3.6546 -2.0338 0.9832
1.7189 0.1859 -0.9982 0.9920
1.7144 0.3456 -1.0097 0.9920
1.7498 0.7015 -1.0884 0.9913
3.1368 1.6030 -2.0338 0.9839
2.7941 2.1453 -2.0338 0.9839
2.5871 2.3908 -2.0338 0.9839
2.3587 2.6164 -2.0338 0.9839
2.1107 2.8203 -2.0338 0.9839
1.8451 3.0008 -2.0338 0.9839
1.2704 3.2856 -2.0338 0.9839
0.6535 3.4615 -2.0338 0.9839
0.3356 3.5066 -2.0338 0.9839
-0.3059 3.5093 -2.0338 0.9839
