ply
format ascii 1.0
element vertex 243
property float32 x
property float32 y
property float32 z
property float32 I
end_header
1.0477 18.5898 2.8524 0.9274
1.0687 18.9650 2.4736 0.9262
-11.3593 12.2848 2.1788 0.9347
-11.6185 12.5650 1.4487 0.9336
-12.5982 13.6246 0.7317 0.9284
-12.0795 13.0636 0.3005 0.9313
-12.0293 13.0094 -0.0997 0.9316
-12.0170 12.9960 -0.4984 0.9316
-12.0224 13.0019 -0.8981 0.9315
-17.2067 5.1248 -0.9105 0.9306
-0.9386 7.6513 -0.7401 0.9695
0.9635 17.0970 -2.0341 0.9333
-0.5629 17.1147 -2.0341 0.9333
-2.3875 7.7072 -0.9584 0.9680
-6.5034 15.8403 -2.0340 0.9333
-7.8882 15.1981 -2.0340 0.9334
-11.6248 12.5719 -2.0339 0.9334
-12.6980 11.4865 -2.0339 0.9334
-14.5342 9.0515 -2.0339 0.9334
-15.2823 7.7210 -2.0339 0.9334
-15.9090 6.3293 -2.0338 0.9334
-17.0157 1.8987 -2.0338 0.9334
-17.1170 0.3758 -2.0338 0.9334
-17.0824 -1.1501 -2.0337 0.9334
-16.9119 -2.6668 -2.0337 0.9334
0.8077 14.3331 -2.0341 0.9437
-0.9120 7.4350 -1.0614 0.9702
-6.6131 12.7413 -2.0340 0.9437
-10.6455 9.6298 -2.0339 0.9437
-11.4607 8.6434 -2.0339 0.9437
-12.1848 7.5883 -2.0339 0.9437
-12.8121 6.4730 -2.0339 0.9437
-13.3375 5.3062 -2.0338 0.9437
-13.7569 4.0973 -2.0338 0.9437
-14.0670 2.8559 -2.0338 0.9437
-14.3504 0.3150 -2.0338 0.9437
-14.1784 -2.2358 -2.0338 0.9437
0.6947 12.3275 -2.0340 0.9512
-0.4059 12.3403 -2.0340 0.9512
-0.9062 7.3876 -1.2262 0.9703
-2.2544 7.2772 -1.2551 0.9696
-4.6893 11.4216 -2.0340 0.9512
-9.8571 7.4340 -2.0339 0.9512
-10.4800 6.5266 -2.0339 0.9512
-12.3425 0.2709 -2.0338 0.9512
-12.3176 -0.8293 -2.0338 0.9512
-12.1947 -1.9230 -2.0338 0.9512
-1.5502 7.2294 -1.3897 0.9704
-2.2048 7.1172 -1.4005 0.9701
-7.3465 7.9450 -2.0339 0.9569
-8.6393 6.5156 -2.0339 0.9569
-9.1852 5.7203 -2.0339 0.9569
-9.6581 4.8795 -2.0339 0.9569
-10.3704 3.0887 -2.0338 0.9569
-10.6042 2.1529 -2.0338 0.9569
-10.8178 0.2375 -2.0338 0.9569
-0.8840 7.2068 -1.5348 0.9708
-2.2226 7.1746 -1.5877 0.9698
-5.8775 7.6185 -2.0339 0.9614
-6.5325 7.0647 -2.0339 0.9614
-7.6821 5.7937 -2.0339 0.9614
-8.5880 4.3389 -2.0339 0.9614
-8.9403 3.5569 -2.0339 0.9614
-9.4293 1.9144 -2.0338 0.9614
-9.5041 -1.4987 -2.0338 0.9614
0.4870 8.6408 -2.0340 0.9651
-0.2845 8.6497 -2.0340 0.9651
-0.8930 7.2799 -1.7238 0.9703
-3.2869 8.0058 -2.0340 0.9651
-3.9868 7.6813 -2.0340 0.9651
-5.8754 6.3540 -2.0339 0.9651
-6.4179 5.8055 -2.0339 0.9651
-6.9094 5.2108 -2.0339 0.9651
-7.3459 4.5748 -2.0339 0.9651
-7.7241 3.9024 -2.0339 0.9651
-8.6004 0.9596 -2.0338 0.9651
-8.6342 -0.5813 -2.0338 0.9651
-8.5480 -1.3480 -2.0338 0.9651
-0.2582 7.8514 -2.0340 0.9681
-0.9130 7.4427 -1.9415 0.9695
-1.6471 7.6811 -2.0340 0.9681
-2.9836 7.2670 -2.0340 0.9681
-3.6188 6.9724 -2.0339 0.9681
-4.2254 6.6223 -2.0339 0.9681
-5.3332 5.7676 -2.0339 0.9681
-6.6680 4.1526 -2.0339 0.9681
-7.0113 3.5423 -2.0339 0.9681
-7.2988 2.9038 -2.0339 0.9681
-7.5284 2.2422 -2.0339 0.9681
-7.8067 0.8711 -2.0338 0.9681
-7.8533 0.1723 -2.0338 0.9681
-7.8373 -0.5277 -2.0338 0.9681
-7.7592 -1.2236 -2.0338 0.9681
0.4043 7.1735 -2.0340 0.9706
-0.2362 7.1809 -2.0340 0.9706
-1.5064 7.0251 -2.0340 0.9706
-3.8646 6.0568 -2.0339 0.9706
-5.3281 4.8197 -2.0339 0.9706
-6.0986 3.7980 -2.0339 0.9706
-6.4125 3.2398 -2.0339 0.9706
-7.1400 0.7967 -2.0338 0.9706
-7.1826 0.1577 -2.0338 0.9706
-7.1681 -0.4826 -2.0338 0.9706
0.3720 6.6024 -2.0340 0.9727
-0.8051 6.5636 -2.0340 0.9727
-1.9568 6.3167 -2.0340 0.9727
-2.5116 6.1173 -2.0339 0.9727
-3.0463 5.8693 -2.0339 0.9727
-4.0392 5.2357 -2.0339 0.9727
-4.4894 4.8552 -2.0339 0.9727
-5.6131 3.4957 -2.0339 0.9727
-5.9020 2.9819 -2.0339 0.9727
-6.1441 2.4444 -2.0339 0.9727
-6.3374 1.8875 -2.0339 0.9727
-6.4803 1.3156 -2.0339 0.9727
-6.5975 -0.4442 -2.0338 0.9727
-6.5317 -1.0300 -2.0338 0.9727
0.3443 6.1093 -2.0340 0.9745
-0.2012 6.1156 -2.0340 0.9745
-0.7450 6.0734 -2.0340 0.9745
-1.2829 5.9829 -2.0340 0.9745
-1.8106 5.8448 -2.0340 0.9745
-2.8188 5.4309 -2.0339 0.9745
-3.2912 5.1583 -2.0339 0.9745
-3.7375 4.8447 -2.0339 0.9745
-4.5377 4.1047 -2.0339 0.9745
-4.8852 3.6843 -2.0339 0.9745
-5.1939 3.2346 -2.0339 0.9745
-5.4612 2.7592 -2.0339 0.9745
-5.6852 2.2618 -2.0339 0.9745
-5.8641 1.7465 -2.0339 0.9745
-6.0809 0.6785 -2.0339 0.9745
-6.1171 0.1343 -2.0338 0.9745
-6.1047 -0.4110 -2.0338 0.9745
-6.0439 -0.9531 -2.0338 0.9745
0.3200 5.6787 -2.0340 0.9761
-0.1870 5.6846 -2.0340 0.9761
-2.6201 5.0481 -2.0339 0.9761
-3.0593 4.7947 -2.0339 0.9761
-3.8614 4.1759 -2.0339 0.9761
-4.2179 3.8154 -2.0339 0.9761
-4.5409 3.4246 -2.0339 0.9761
-5.0764 2.5647 -2.0339 0.9761
-5.2846 2.1024 -2.0339 0.9761
-5.5737 1.1316 -2.0339 0.9761
-5.6179 -0.8859 -2.0338 0.9761
0.2986 5.2991 -2.0340 0.9775
-0.1745 5.3047 -2.0340 0.9775
-1.1128 5.1896 -2.0339 0.9775
-1.5705 5.0698 -2.0339 0.9775
-2.4450 4.7108 -2.0339 0.9775
-3.6033 3.8969 -2.0339 0.9775
-4.2374 3.1958 -2.0339 0.9775
-4.5052 2.8057 -2.0339 0.9775
-4.9314 1.9619 -2.0339 0.9775
-5.2953 -0.3565 -2.0339 0.9775
-5.2425 -0.8267 -2.0338 0.9775
0.2796 4.9618 -2.0340 0.9787
-0.6050 4.9327 -2.0340 0.9788
-1.0420 4.8592 -2.0339 0.9788
-3.0355 3.9347 -2.0339 0.9788
-3.3739 3.6487 -2.0339 0.9788
-3.6854 3.3338 -2.0339 0.9788
-3.9677 2.9923 -2.0339 0.9788
-4.2184 2.6271 -2.0339 0.9788
-4.4355 2.2410 -2.0339 0.9788
-4.6175 1.8370 -2.0339 0.9788
-2.1218 0.4307 -0.8861 0.9907
-0.1534 4.6645 -2.0340 0.9798
-0.9785 4.5632 -2.0339 0.9798
-2.1500 4.1422 -2.0339 0.9798
-2.8506 3.6951 -2.0339 0.9798
-3.4610 3.1307 -2.0339 0.9798
-3.7260 2.8101 -2.0339 0.9798
-3.9614 2.4671 -2.0339 0.9798
-1.9044 0.3866 -0.8469 0.9916
-1.9188 0.0421 -0.8365 0.9917
-0.5350 4.3613 -2.0339 0.9808
-1.3002 4.1973 -2.0339 0.9808
-1.6688 4.0648 -2.0339 0.9808
-2.0242 3.9000 -2.0339 0.9808
-2.3635 3.7042 -2.0339 0.9808
-2.6839 3.4790 -2.0339 0.9808
-3.2586 2.9477 -2.0339 0.9808
-3.5081 2.6457 -2.0339 0.9808
-3.7298 2.3228 -2.0339 0.9808
-3.9218 1.9814 -2.0339 0.9808
-4.0827 1.6243 -2.0339 0.9808
-1.5995 0.3247 -0.7555 0.9928
-1.5786 0.0346 -0.7309 0.9931
-1.5988 -0.1077 -0.7417 0.9930
-1.6103 -0.2540 -0.7546 0.9928
0.2333 4.1399 -2.0339 0.9817
-0.5048 4.1156 -2.0339 0.9817
-1.2270 3.9608 -2.0339 0.9817
-1.5748 3.8357 -2.0339 0.9817
-1.9102 3.6802 -2.0339 0.9817
-2.2303 3.4955 -2.0339 0.9817
-2.5327 3.2830 -2.0339 0.9817
-3.0750 2.7816 -2.0339 0.9817
-3.3104 2.4967 -2.0339 0.9817
-3.7008 1.8698 -2.0339 0.9817
-1.2971 0.3863 -0.6639 0.9940
-1.3332 0.2706 -0.6673 0.9940
-1.3531 0.1509 -0.6678 0.9940
-1.3425 0.0294 -0.6587 0.9940
-1.3518 -0.0911 -0.6646 0.9940
0.2206 3.9144 -2.0339 0.9825
-0.1289 3.9185 -2.0339 0.9825
-0.4773 3.8914 -2.0339 0.9825
-0.8220 3.8335 -2.0339 0.9825
-1.4890 3.6268 -2.0339 0.9825
-2.3948 3.1042 -2.0339 0.9825
-2.6617 2.8786 -2.0339 0.9825
-2.9075 2.6301 -2.0339 0.9825
-3.1301 2.3607 -2.0339 0.9825
-1.1218 0.4463 -0.6263 0.9946
-1.1794 0.2394 -0.6243 0.9946
-1.1997 0.1338 -0.6263 0.9946
-1.1955 0.0262 -0.6204 0.9946
-1.2000 -0.0808 -0.6239 0.9946
-1.1924 -0.1881 -0.6262 0.9946
-0.1221 3.7116 -2.0339 0.9832
-0.7786 3.6310 -2.0339 0.9832
-1.0989 3.5472 -2.0339 0.9832
-1.4104 3.4353 -2.0339 0.9832
-1.7107 3.2960 -2.0339 0.9832
-1.9975 3.1306 -2.0339 0.9832
-2.9648 2.2360 -2.0339 0.9832
-0.9811 0.4956 -0.6020 0.9950
-1.0137 0.4033 -0.5976 0.9950
-1.0360 0.3085 -0.5920 0.9951
-1.0591 0.2150 -0.5919 0.9951
-1.0780 0.1203 -0.5941 0.9951
-1.0704 -0.1688 -0.5935 0.9951
-0.1158 3.5210 -2.0339 0.9839
-0.4289 3.4966 -2.0339 0.9839
-1.8949 2.9698 -2.0339 0.9839
-2.3917 2.5865 -2.0339 0.9839
-2.9903 1.8623 -2.0339 0.9839
-0.9112 0.4604 -0.5894 0.9953
-0.9386 0.3734 -0.5832 0.9953
-0.9897 -0.0667 -0.5727 0.9954
