ply
format ascii 1.0
element vertex 255
property float32 x
property float32 y
property float32 z
property float32 I
end_header
-11.8878 -8.0902 -0.7292 0.9440
-11.8159 -8.0413 -1.0480 0.9443
-11.5214 -7.8408 -1.3379 0.9455
2.8402 -6.1177 -0.6475 0.9733
-16.1770 -5.6056 -2.0337 0.9334
-14.9456 -8.3512 -2.0337 0.9334
-11.4776 -7.8111 -1.6491 0.9456
-12.2487 -11.9614 -2.0337 0.9334
-9.9653 -13.9212 -2.0337 0.9334
-8.7033 -14.7431 -2.0337 0.9334
-3.0871 -16.8400 -2.0337 0.9334
-0.0911 -17.1206 -2.0337 0.9334
2.9078 -16.8723 -2.0337 0.9334
1.7164 -6.4872 -0.7971 0.9733
9.8174 -14.0277 -2.0338 0.9334
11.0123 -13.1108 -2.0338 0.9334
-13.9229 -3.4896 -2.0337 0.9437
-13.0968 -5.8732 -2.0337 0.9437
-12.5299 -7.0014 -2.0337 0.9437
-11.8661 -8.0755 -2.0337 0.9437
-11.1105 -9.0870 -2.0337 0.9437
-6.1822 -12.9536 -2.0337 0.9437
-5.0199 -13.4469 -2.0337 0.9437
-1.3374 -14.2910 -2.0337 0.9437
1.1853 -14.3046 -2.0338 0.9437
2.4379 -14.1452 -2.0338 0.9437
1.7198 -6.5000 -0.9527 0.9732
2.2023 -6.0968 -0.9185 0.9742
2.7321 -5.8849 -0.9193 0.9741
9.2322 -10.9915 -2.0339 0.9437
10.1626 -10.1377 -2.0339 0.9437
-11.2645 -5.0515 -2.0337 0.9512
-9.5561 -7.8156 -2.0337 0.9512
-8.0401 -9.3680 -2.0337 0.9512
-5.3173 -11.1414 -2.0337 0.9512
-4.3176 -11.5656 -2.0337 0.9512
-2.2260 -12.1429 -2.0337 0.9512
1.0195 -12.3032 -2.0338 0.9512
2.0967 -12.1661 -2.0338 0.9512
1.6488 -6.2318 -1.0619 0.9742
7.9405 -9.4536 -2.0339 0.9512
8.7406 -8.7193 -2.0339 0.9512
-10.4956 -2.6305 -2.0338 0.9569
-10.2238 -3.5427 -2.0338 0.9569
-9.8729 -4.4274 -2.0338 0.9569
-8.9452 -6.0876 -2.0338 0.9569
-7.7412 -7.5597 -2.0337 0.9569
-7.0469 -8.2107 -2.0337 0.9569
-6.2980 -8.7982 -2.0337 0.9569
-5.5005 -9.3177 -2.0337 0.9569
-4.6604 -9.7650 -2.0338 0.9569
-3.7842 -10.1368 -2.0338 0.9569
-1.9511 -10.6428 -2.0338 0.9569
-1.0082 -10.7731 -2.0338 0.9569
-0.0576 -10.8201 -2.0338 0.9569
2.1364 -5.9142 -1.1819 0.9747
2.6684 -5.7476 -1.1911 0.9745
3.5139 -6.0998 -1.3232 0.9718
6.9595 -8.2857 -2.0339 0.9569
-9.0911 -3.1502 -2.0338 0.9614
-8.3991 -4.6932 -2.0338 0.9614
-7.9542 -5.4132 -2.0338 0.9614
-6.8836 -6.7222 -2.0338 0.9614
-4.8911 -8.2854 -2.0338 0.9614
-4.1441 -8.6832 -2.0338 0.9614
-3.3650 -9.0138 -2.0338 0.9614
-0.0512 -9.6214 -2.0338 0.9614
0.7946 -9.5887 -2.0338 0.9614
1.6341 -9.4818 -2.0338 0.9614
1.6370 -6.1870 -1.3528 0.9742
2.6364 -5.6788 -1.3234 0.9747
3.3002 -5.7287 -1.3975 0.9733
5.5170 -7.8830 -2.0339 0.9614
6.8120 -6.7954 -2.0339 0.9614
-7.8960 -3.5409 -2.0338 0.9651
-7.5543 -4.2212 -2.0338 0.9651
-5.6359 -6.5667 -2.0338 0.9651
-4.3991 -7.4520 -2.0338 0.9651
-3.7272 -7.8097 -2.0338 0.9651
-1.5604 -8.5118 -2.0338 0.9651
-0.8063 -8.6160 -2.0338 0.9651
0.7146 -8.6241 -2.0338 0.9651
1.4697 -8.5280 -2.0338 0.9651
3.3364 -5.7917 -1.5709 0.9729
4.9620 -7.0900 -2.0339 0.9651
6.1268 -6.1118 -2.0339 0.9651
-7.6193 -1.9097 -2.0338 0.9681
-7.1673 -3.2142 -2.0338 0.9681
-6.8571 -3.8316 -2.0338 0.9681
-6.4939 -4.4194 -2.0338 0.9681
-6.0804 -4.9729 -2.0338 0.9681
-3.3832 -7.0890 -2.0338 0.9681
-2.7472 -7.3589 -2.0338 0.9681
-1.4164 -7.7263 -2.0338 0.9681
-0.0418 -7.8550 -2.0338 0.9681
0.6487 -7.8282 -2.0338 0.9681
2.6837 -5.7807 -1.6502 0.9740
3.3842 -5.8746 -1.7554 0.9724
4.5041 -6.4357 -2.0339 0.9681
5.0523 -6.0150 -2.0339 0.9681
-6.5553 -2.9397 -2.0338 0.9706
-6.2716 -3.5044 -2.0338 0.9706
-5.9393 -4.0420 -2.0338 0.9706
-5.1399 -5.0194 -2.0338 0.9706
-4.6789 -5.4517 -2.0338 0.9706
-4.1817 -5.8418 -2.0338 0.9706
-3.6522 -6.1867 -2.0338 0.9706
-3.0944 -6.4837 -2.0338 0.9706
-2.5127 -6.7305 -2.0338 0.9706
2.1631 -5.9880 -1.8024 0.9739
3.5862 -6.2254 -2.0339 0.9706
4.1195 -5.8862 -2.0339 0.9706
4.6208 -5.5014 -2.0339 0.9706
5.0864 -5.0740 -2.0339 0.9706
-5.7723 -3.2254 -2.0338 0.9727
-5.1184 -4.1862 -2.0338 0.9727
-4.7307 -4.6198 -2.0338 0.9727
-4.3065 -5.0177 -2.0338 0.9727
-3.8488 -5.3768 -2.0338 0.9727
-3.3614 -5.6942 -2.0338 0.9727
-2.8480 -5.9675 -2.0338 0.9727
-1.7593 -6.3741 -2.0338 0.9727
-1.1923 -6.5040 -2.0338 0.9727
-0.6161 -6.5836 -2.0338 0.9727
-0.0352 -6.6123 -2.0338 0.9727
1.1230 -6.5164 -2.0338 0.9727
2.7845 -5.9977 -2.0339 0.9727
3.3007 -5.7298 -2.0339 0.9727
3.7915 -5.4175 -2.0339 0.9727
4.6815 -4.6701 -2.0339 0.9727
-5.7812 -2.0033 -2.0338 0.9745
-5.5828 -2.5036 -2.0338 0.9745
-5.0583 -3.4424 -2.0338 0.9745
-4.7362 -3.8736 -2.0338 0.9745
-4.3775 -4.2748 -2.0338 0.9745
-3.1104 -5.2689 -2.0338 0.9745
-2.1399 -5.7321 -2.0338 0.9745
-1.1033 -6.0182 -2.0338 0.9745
-0.5701 -6.0919 -2.0338 0.9745
1.0391 -6.0296 -2.0338 0.9745
2.5765 -5.5497 -2.0339 0.9745
3.0542 -5.3018 -2.0339 0.9745
3.5084 -5.0129 -2.0339 0.9745
4.3318 -4.3213 -2.0339 0.9745
-5.3738 -1.8621 -2.0338 0.9761
-5.1894 -2.3272 -2.0338 0.9761
-4.7018 -3.1998 -2.0338 0.9761
-4.0689 -3.9736 -2.0338 0.9761
-3.7041 -4.3158 -2.0338 0.9761
-1.5132 -5.4823 -2.0338 0.9761
-1.0255 -5.5941 -2.0338 0.9761
-0.5300 -5.6626 -2.0338 0.9761
-0.0302 -5.6873 -2.0338 0.9761
0.4696 -5.6680 -2.0338 0.9761
1.4547 -5.4982 -2.0339 0.9761
1.9323 -5.3491 -2.0339 0.9761
3.6580 -4.3550 -2.0339 0.9761
4.0266 -4.0168 -2.0339 0.9761
-5.1480 -1.2903 -2.0338 0.9775
-5.0147 -1.7377 -2.0338 0.9775
-4.8425 -2.1717 -2.0338 0.9775
-4.3876 -2.9860 -2.0338 0.9775
-3.4565 -4.0273 -2.0338 0.9775
-2.6980 -4.5703 -2.0338 0.9775
-1.8562 -4.9721 -2.0338 0.9775
-0.0282 -5.3072 -2.0338 0.9775
1.3575 -5.1307 -2.0339 0.9775
1.8031 -4.9916 -2.0339 0.9775
2.2348 -4.8138 -2.0339 0.9775
3.4135 -4.0640 -2.0339 0.9775
-2.1773 -0.5458 -0.9187 0.9903
-4.6954 -1.6271 -2.0338 0.9788
-4.5343 -2.0334 -2.0338 0.9788
-4.1082 -2.7958 -2.0338 0.9788
-3.5553 -3.4719 -2.0338 0.9788
-2.8925 -4.0408 -2.0338 0.9788
-1.3221 -4.7903 -2.0338 0.9788
-0.8961 -4.8879 -2.0338 0.9788
-0.0264 -4.9693 -2.0338 0.9788
0.4104 -4.9524 -2.0338 0.9788
0.8440 -4.8972 -2.0339 0.9788
1.6884 -4.6738 -2.0339 0.9788
2.0926 -4.5074 -2.0339 0.9788
-4.4095 -1.5280 -2.0338 0.9798
-4.0739 -2.2764 -2.0338 0.9798
-3.8580 -2.6256 -2.0338 0.9798
-3.6124 -2.9545 -2.0338 0.9798
-3.0394 -3.5413 -2.0338 0.9798
-2.7164 -3.7947 -2.0338 0.9798
-0.4348 -4.6465 -2.0338 0.9798
-0.0248 -4.6667 -2.0338 0.9798
1.9652 -4.2329 -2.0339 0.9798
3.0016 -3.5735 -2.0339 0.9798
3.3040 -3.2959 -2.0339 0.9798
-4.0092 -1.7979 -2.0338 0.9808
-3.6324 -2.4721 -2.0338 0.9808
-2.8616 -3.3342 -2.0338 0.9808
-2.5575 -3.5728 -2.0338 0.9808
-2.2337 -3.7837 -2.0338 0.9808
-1.8925 -3.9654 -2.0338 0.9808
-0.7923 -4.3219 -2.0338 0.9808
1.8502 -3.9854 -2.0339 0.9808
3.1107 -3.1032 -2.0339 0.9808
-1.2729 -0.4411 -0.6608 0.9940
-3.6195 -2.0225 -2.0338 0.9817
-3.4278 -2.3328 -2.0338 0.9817
-3.2095 -2.6250 -2.0338 0.9817
-2.9664 -2.8969 -2.0338 0.9817
-2.7004 -3.1463 -2.0338 0.9817
-2.4134 -3.3715 -2.0338 0.9817
-1.7859 -3.7420 -2.0338 0.9817
-1.4501 -3.8844 -2.0338 0.9817
-0.3863 -4.1283 -2.0339 0.9817
-0.0221 -4.1462 -2.0339 0.9817
1.7459 -3.7608 -2.0339 0.9817
2.0697 -3.5929 -2.0339 0.9817
2.6668 -3.1750 -2.0339 0.9817
-1.1661 -0.2923 -0.6237 0.9946
-1.1043 -0.4953 -0.6278 0.9946
-3.4224 -1.9124 -2.0338 0.9825
-3.2411 -2.2057 -2.0338 0.9825
-3.0347 -2.4820 -2.0338 0.9825
-2.5533 -2.9750 -2.0338 0.9825
-1.9930 -3.3761 -2.0338 0.9825
-1.3712 -3.6729 -2.0338 0.9825
-1.0431 -3.7792 -2.0338 0.9825
-0.0209 -3.9204 -2.0339 0.9825
0.6659 -3.8635 -2.0339 0.9825
1.0028 -3.7901 -2.0339 0.9825
1.6509 -3.5560 -2.0339 0.9825
2.7756 -2.7689 -2.0339 0.9825
-1.0269 -0.3559 -0.5952 0.9951
-3.2417 -1.8114 -2.0339 0.9832
-2.6568 -2.5945 -2.0338 0.9832
-2.4185 -2.8179 -2.0338 0.9832
-1.8877 -3.1978 -2.0338 0.9832
-1.5995 -3.3513 -2.0338 0.9832
-0.9880 -3.5796 -2.0339 0.9832
0.3067 -3.7008 -2.0339 0.9832
0.9498 -3.5899 -2.0339 0.9832
1.5637 -3.3682 -2.0339 0.9832
2.3884 -2.8436 -2.0339 0.9832
-0.9490 -0.3289 -0.5799 0.9954
-0.9262 -0.4154 -0.5860 0.9953
-2.2943 -2.6732 -2.0339 0.9839
-2.0504 -2.8645 -2.0339 0.9839
-1.7908 -3.0336 -2.0339 0.9839
-0.9373 -3.3958 -2.0339 0.9839
-0.6352 -3.4650 -2.0339 0.9839
-0.3282 -3.5074 -2.0339 0.9839
0.2909 -3.5107 -2.0339 0.9839
0.9011 -3.4056 -2.0339 0.9839
1.1968 -3.3132 -2.0339 0.9839
2.0200 -2.8862 -2.0339 0.9839
2.2658 -2.6975 -2.0339 0.9839
