ply
format ascii 1.0
element vertex 189
property float32 x
property float32 y
property float32 z
property float32 I
end_header
4.2140 19.0143 2.5361 0.9244
3.9757 17.9387 0.7245 0.9291
3.9734 17.9285 0.3102 0.9292
4.0662 18.3469 -0.1058 0.9276
17.3134 -3.5466 -0.8963 0.9317
14.9776 8.7675 -1.6662 0.9326
13.1623 9.4177 -1.5538 0.9370
16.7736 -3.4360 -2.0338 0.9334
17.0174 -1.8897 -2.0339 0.9334
17.0774 1.2372 -2.0339 0.9334
16.5677 4.3229 -2.0339 0.9334
15.5051 7.2643 -2.0339 0.9334
14.7769 8.6500 -2.0339 0.9334
12.9571 11.1936 -2.0339 0.9334
11.8807 12.3302 -2.0339 0.9334
10.7049 13.3637 -2.0339 0.9334
3.7049 16.7168 -2.0339 0.9334
14.0621 -2.8805 -2.0338 0.9437
14.2665 -1.5842 -2.0338 0.9437
14.3516 -0.2747 -2.0338 0.9437
14.3168 1.0372 -2.0339 0.9437
12.9986 6.0900 -2.0339 0.9437
9.9600 10.3370 -2.0339 0.9437
8.9744 11.2034 -2.0339 0.9437
6.7869 12.6488 -2.0339 0.9437
5.6033 13.2158 -2.0339 0.9437
4.3729 13.6723 -2.0339 0.9437
3.1059 14.0144 -2.0339 0.9437
12.0945 -2.4775 -2.0338 0.9512
12.3136 0.8921 -2.0338 0.9512
12.1807 2.0129 -2.0338 0.9512
11.9460 3.1170 -2.0339 0.9512
11.6114 4.1949 -2.0339 0.9512
11.1798 5.2379 -2.0339 0.9512
10.6547 6.2370 -2.0339 0.9512
10.0406 7.1841 -2.0339 0.9512
9.3425 8.0710 -2.0339 0.9512
8.5664 8.8905 -2.0339 0.9512
6.8064 10.3004 -2.0339 0.9512
3.7611 11.7592 -2.0339 0.9512
2.6714 12.0535 -2.0339 0.9512
10.6003 -2.1714 -2.0338 0.9569
10.8185 -0.2070 -2.0338 0.9569
10.6757 1.7642 -2.0338 0.9569
10.1768 3.6767 -2.0338 0.9569
9.7985 4.5907 -2.0338 0.9569
9.3383 5.4664 -2.0339 0.9569
8.1882 7.0738 -2.0339 0.9569
5.9654 9.0278 -2.0339 0.9569
5.1160 9.5348 -2.0339 0.9569
4.2238 9.9622 -2.0339 0.9569
3.2963 10.3063 -2.0338 0.9569
9.4259 -1.9308 -2.0338 0.9614
9.4929 1.5688 -2.0338 0.9614
9.0493 3.2693 -2.0338 0.9614
8.3037 4.8608 -2.0338 0.9614
7.8250 5.5988 -2.0338 0.9614
5.3045 8.0275 -2.0338 0.9614
4.5492 8.4784 -2.0338 0.9614
3.7558 8.8584 -2.0338 0.9614
8.4776 -1.7366 -2.0338 0.9651
8.6521 -0.1656 -2.0338 0.9651
8.5379 1.4109 -2.0338 0.9651
8.3734 2.1848 -2.0338 0.9651
7.4683 4.3718 -2.0338 0.9651
6.0045 6.2317 -2.0338 0.9651
4.7708 7.2199 -2.0338 0.9651
7.8070 -0.8669 -2.0338 0.9681
7.8536 -0.1503 -2.0338 0.9681
7.6006 1.9831 -2.0338 0.9681
7.1131 3.3326 -2.0338 0.9681
6.7790 3.9683 -2.0338 0.9681
5.9442 5.1352 -2.0338 0.9681
5.4503 5.6566 -2.0338 0.9681
4.9109 6.1307 -2.0338 0.9681
3.7139 6.9217 -2.0338 0.9681
2.3929 7.4817 -2.0338 0.9681
7.1403 -0.7929 -2.0338 0.9706
7.1829 -0.1375 -2.0338 0.9706
7.1654 0.5191 -2.0338 0.9706
6.9515 1.8138 -2.0338 0.9706
6.5057 3.0480 -2.0338 0.9706
5.8428 4.1805 -2.0338 0.9706
4.4916 5.6071 -2.0338 0.9706
3.3968 6.3306 -2.0338 0.9706
2.8044 6.6143 -2.0338 0.9706
1.5545 7.0141 -2.0338 0.9706
6.4778 -1.3269 -2.0338 0.9727
6.5719 -0.7298 -2.0338 0.9727
6.6111 -0.1265 -2.0338 0.9727
6.5238 1.0781 -2.0338 0.9727
6.3981 1.6694 -2.0338 0.9727
5.7065 3.3405 -2.0338 0.9727
5.3776 3.8477 -2.0338 0.9727
4.5880 4.7617 -2.0338 0.9727
3.6454 5.5167 -2.0338 0.9727
3.1264 5.8266 -2.0338 0.9727
2.5811 6.0878 -2.0338 0.9727
1.4307 6.4557 -2.0338 0.9727
6.1173 -0.1171 -2.0338 0.9745
6.1025 0.4421 -2.0338 0.9745
5.9203 1.5447 -2.0338 0.9745
5.7544 2.0789 -2.0338 0.9745
5.2804 3.0910 -2.0338 0.9745
4.6300 3.9999 -2.0338 0.9745
4.2454 4.4060 -2.0338 0.9745
3.3731 5.1047 -2.0338 0.9745
2.8928 5.3914 -2.0338 0.9745
1.8639 5.8277 -2.0338 0.9745
1.3239 5.9735 -2.0338 0.9745
5.6525 -0.6277 -2.0338 0.9761
5.6723 0.4109 -2.0338 0.9761
5.3489 1.9325 -2.0338 0.9761
4.6253 3.3094 -2.0338 0.9761
3.9462 4.0955 -2.0338 0.9761
3.5557 4.4388 -2.0338 0.9761
3.1354 4.7449 -2.0338 0.9761
2.6889 5.0114 -2.0338 0.9761
5.1991 -1.0650 -2.0338 0.9775
5.3062 -0.1016 -2.0338 0.9775
4.9914 1.8033 -2.0338 0.9775
4.8058 2.2516 -2.0338 0.9775
4.0161 3.4695 -2.0338 0.9775
3.6825 3.8218 -2.0338 0.9775
3.3180 4.1421 -2.0338 0.9775
2.9259 4.4278 -2.0338 0.9775
2.0717 4.8862 -2.0338 0.9775
1.6168 5.0549 -2.0338 0.9775
4.8681 -0.9972 -2.0338 0.9788
4.9684 -0.0951 -2.0338 0.9788
4.9563 0.3591 -2.0338 0.9788
4.9028 0.8102 -2.0338 0.9788
4.8083 1.2546 -2.0338 0.9788
4.4999 2.1083 -2.0338 0.9788
4.2886 2.5104 -2.0338 0.9788
4.0414 2.8916 -2.0338 0.9788
3.4480 3.5784 -2.0338 0.9788
2.7396 4.1459 -2.0338 0.9788
2.3495 4.3788 -2.0338 0.9788
1.5139 4.7331 -2.0338 0.9788
4.6544 0.3372 -2.0338 0.9798
4.3890 1.5857 -2.0338 0.9798
4.2259 1.9798 -2.0338 0.9798
4.0274 2.3575 -2.0338 0.9798
1.8216 4.2964 -2.0338 0.9798
1.4216 4.4448 -2.0338 0.9798
4.3043 -0.8817 -2.0338 0.9808
4.3929 -0.0841 -2.0338 0.9808
4.3349 0.7164 -2.0338 0.9808
3.7918 2.2197 -2.0338 0.9808
3.5733 2.5567 -2.0338 0.9808
3.0486 3.1640 -2.0338 0.9808
2.4223 3.6657 -2.0338 0.9808
1.7151 4.0452 -2.0338 0.9808
4.1208 -0.4576 -2.0338 0.9817
4.1454 -0.0793 -2.0338 0.9817
4.0118 1.0468 -2.0338 0.9817
3.8995 1.4088 -2.0338 0.9817
3.7545 1.7590 -2.0338 0.9817
3.3720 2.4126 -2.0338 0.9817
2.8768 2.9857 -2.0338 0.9817
2.5921 3.2360 -2.0338 0.9817
1.9603 3.6535 -2.0338 0.9817
1.6185 3.8172 -2.0338 0.9817
1.2631 3.9491 -2.0338 0.9817
2.0816 -0.2311 -1.0865 0.9906
2.0744 -0.0397 -1.0763 0.9907
2.1012 0.3472 -1.1049 0.9904
3.7933 0.9897 -2.0338 0.9825
3.6871 1.3321 -2.0338 0.9825
3.5500 1.6632 -2.0338 0.9825
3.3833 1.9805 -2.0338 0.9825
3.1883 2.2812 -2.0338 0.9825
2.1613 3.2708 -2.0338 0.9825
1.5303 3.6093 -2.0338 0.9825
1.8564 -0.3803 -1.0379 0.9914
1.8475 -0.2052 -1.0181 0.9916
1.8518 -0.0354 -1.0144 0.9916
1.8519 0.1342 -1.0170 0.9916
3.3626 1.5754 -2.0338 0.9832
3.2046 1.8759 -2.0338 0.9832
3.0199 2.1607 -2.0338 0.9832
1.4495 3.4187 -2.0338 0.9832
1.7146 -0.3512 -1.0105 0.9919
1.7185 -0.1908 -0.9983 0.9920
1.7246 -0.0330 -0.9959 0.9921
1.7227 0.1248 -0.9972 0.9921
1.3750 3.2432 -2.0338 0.9839
1.0731 3.3552 -2.0338 0.9839
