ply
format ascii 1.0
element vertex 239
property float32 x
property float32 y
property float32 z
property float32 I
end_header
-11.5870 -8.1568 -1.0390 0.9448
-11.7032 -8.2385 -1.3740 0.9441
-16.7866 3.3631 -2.0336 0.9334
-17.1173 0.2992 -2.0336 0.9334
-16.8934 -2.7742 -2.0336 0.9334
-15.5386 -7.1853 -2.0335 0.9334
-14.8287 -8.5546 -2.0335 0.9334
-11.3642 -7.9999 -1.6508 0.9456
-13.0548 -11.0743 -2.0335 0.9334
-10.8580 -13.2353 -2.0335 0.9334
-8.3095 -14.9674 -2.0335 0.9334
-6.9287 -15.6546 -2.0335 0.9334
-4.0101 -16.6432 -2.0336 0.9334
-0.9615 -17.0927 -2.0336 0.9334
2.1183 -16.9883 -2.0336 0.9334
-14.0732 2.8194 -2.0337 0.9437
-14.1629 -2.3258 -2.0336 0.9437
-13.0270 -6.0239 -2.0336 0.9437
-11.7360 -8.2616 -2.0336 0.9437
-10.9448 -9.2843 -2.0336 0.9437
-10.0648 -10.2317 -2.0336 0.9437
-8.0675 -11.8703 -2.0336 0.9437
-5.8088 -13.1243 -2.0336 0.9437
-3.3620 -13.9531 -2.0336 0.9437
-2.0925 -14.1991 -2.0336 0.9437
1.7759 -14.2424 -2.0336 0.9437
-12.1042 2.4250 -2.0337 0.9512
-12.2732 1.3258 -2.0337 0.9512
-12.1813 -2.0004 -2.0336 0.9512
-11.6253 -4.1517 -2.0336 0.9512
-11.2044 -5.1811 -2.0336 0.9512
-10.0941 -7.1058 -2.0336 0.9512
-8.6566 -8.8002 -2.0336 0.9512
-7.8295 -9.5436 -2.0336 0.9512
-6.9387 -10.2096 -2.0336 0.9512
-5.9918 -10.7926 -2.0336 0.9512
-4.9961 -11.2881 -2.0336 0.9512
-3.9599 -11.6920 -2.0336 0.9512
-2.8916 -12.0009 -2.0336 0.9512
1.5274 -12.2498 -2.0336 0.9512
-10.6088 2.1254 -2.0337 0.9569
-10.7909 -0.7853 -2.0336 0.9569
-10.6764 -1.7532 -2.0336 0.9569
-10.1891 -3.6388 -2.0336 0.9569
-9.8202 -4.5410 -2.0336 0.9569
-8.8470 -6.2279 -2.0336 0.9569
-8.2506 -6.9989 -2.0336 0.9569
-6.0816 -8.9483 -2.0336 0.9569
-0.6077 -10.8024 -2.0336 0.9569
1.3388 -10.7364 -2.0337 0.9569
-9.6194 0.1682 -2.0337 0.9614
-9.5955 -0.6982 -2.0337 0.9614
-9.4936 -1.5590 -2.0336 0.9614
-9.3147 -2.4071 -2.0336 0.9614
-8.7323 -4.0380 -2.0336 0.9614
-8.3334 -4.8075 -2.0336 0.9614
-7.8669 -5.5380 -2.0336 0.9614
-6.7466 -6.8585 -2.0336 0.9614
-6.1020 -7.4379 -2.0336 0.9614
-5.4079 -7.9569 -2.0336 0.9614
-4.6697 -8.4113 -2.0336 0.9614
-3.8937 -8.7975 -2.0336 0.9614
1.1905 -9.5470 -2.0337 0.9614
-8.4845 1.6999 -2.0337 0.9651
-8.6030 0.9293 -2.0337 0.9651
-8.6517 0.1513 -2.0337 0.9651
-8.6302 -0.6280 -2.0337 0.9651
-7.8539 -3.6317 -2.0336 0.9651
-6.5985 -5.5975 -2.0336 0.9651
-6.0680 -6.1686 -2.0336 0.9651
-3.5021 -7.9125 -2.0336 0.9651
-2.7757 -8.1956 -2.0336 0.9651
-2.0269 -8.4122 -2.0336 0.9651
0.2936 -8.6481 -2.0337 0.9651
-7.7016 1.5429 -2.0337 0.9681
-7.7507 -1.2728 -2.0337 0.9681
-7.1291 -3.2966 -2.0337 0.9681
-6.4226 -4.5212 -2.0336 0.9681
-5.5080 -5.5994 -2.0336 0.9681
-4.4150 -6.4961 -2.0336 0.9681
-3.1789 -7.1824 -2.0336 0.9681
-1.8398 -7.6359 -2.0337 0.9681
-1.1451 -7.7705 -2.0337 0.9681
0.2664 -7.8500 -2.0337 0.9681
-7.0439 1.4112 -2.0337 0.9706
-7.1827 0.1256 -2.0337 0.9706
-7.1648 -0.5213 -2.0337 0.9706
-6.9553 -1.7974 -2.0337 0.9706
-6.7652 -2.4160 -2.0337 0.9706
-6.2225 -3.5897 -2.0337 0.9706
-5.4782 -4.6471 -2.0337 0.9706
-4.0380 -5.9414 -2.0337 0.9706
-3.4869 -6.2807 -2.0337 0.9706
-1.0473 -7.1070 -2.0337 0.9706
-0.4034 -7.1724 -2.0337 0.9706
0.8889 -7.1286 -2.0337 0.9706
-6.4831 1.2989 -2.0337 0.9727
-6.6109 0.1156 -2.0337 0.9727
-6.5945 -0.4799 -2.0337 0.9727
-6.5245 -1.0714 -2.0337 0.9727
-6.4016 -1.6543 -2.0337 0.9727
-6.2267 -2.2237 -2.0337 0.9727
-5.4065 -3.8060 -2.0337 0.9727
-5.0421 -4.2771 -2.0337 0.9727
-4.1936 -5.1117 -2.0337 0.9727
-3.7165 -5.4684 -2.0337 0.9727
-2.6760 -6.0461 -2.0337 0.9727
-2.1210 -6.2624 -2.0337 0.9727
-1.5487 -6.4279 -2.0337 0.9727
-0.9639 -6.5412 -2.0337 0.9727
-0.3713 -6.6014 -2.0337 0.9727
0.2243 -6.6081 -2.0337 0.9727
-5.9989 1.2019 -2.0337 0.9745
-5.7616 -2.0576 -2.0337 0.9745
-5.2994 -3.0572 -2.0337 0.9745
-5.0028 -3.5217 -2.0337 0.9745
-4.6655 -3.9577 -2.0337 0.9745
-2.4761 -5.5946 -2.0337 0.9745
-1.9626 -5.7947 -2.0337 0.9745
-0.3436 -6.1084 -2.0337 0.9745
0.2076 -6.1146 -2.0337 0.9745
0.7570 -6.0711 -2.0337 0.9745
-5.5762 1.1171 -2.0337 0.9761
-5.6117 -0.9215 -2.0337 0.9761
-5.5060 -1.4229 -2.0337 0.9761
-4.9259 -2.8418 -2.0337 0.9761
-4.3367 -3.6788 -2.0337 0.9761
-3.9880 -4.0541 -2.0337 0.9761
-3.1966 -4.7034 -2.0337 0.9761
-2.7603 -4.9720 -2.0337 0.9761
-2.3016 -5.2003 -2.0337 0.9761
-1.8243 -5.3863 -2.0337 0.9761
-1.3321 -5.5287 -2.0337 0.9761
-0.3194 -5.6779 -2.0337 0.9761
0.7037 -5.6432 -2.0337 0.9761
-5.2035 1.0425 -2.0337 0.9775
-5.3061 0.0928 -2.0337 0.9775
-5.2929 -0.3852 -2.0337 0.9775
-5.2367 -0.8599 -2.0337 0.9775
-4.5968 -2.6518 -2.0337 0.9775
-4.3394 -3.0548 -2.0337 0.9775
-4.0469 -3.4329 -2.0337 0.9775
-2.9830 -4.3891 -2.0337 0.9775
-2.5759 -4.6397 -2.0337 0.9775
-1.7023 -5.0264 -2.0337 0.9775
-1.2430 -5.1592 -2.0337 0.9775
-0.7737 -5.2501 -2.0337 0.9775
-0.2980 -5.2985 -2.0337 0.9775
0.6567 -5.2661 -2.0337 0.9775
-2.1224 0.0371 -0.8688 0.9909
-2.1198 -0.1543 -0.8699 0.9909
-4.8109 -1.2432 -2.0337 0.9788
-4.5101 -2.0856 -2.0337 0.9788
-4.3041 -2.4830 -2.0337 0.9788
-4.0631 -2.8603 -2.0337 0.9788
-2.4119 -4.3444 -2.0337 0.9788
-1.5940 -4.7064 -2.0337 0.9788
-0.7245 -4.9159 -2.0337 0.9788
0.6148 -4.9308 -2.0337 0.9788
-1.9089 0.2062 -0.8368 0.9917
-1.9187 0.0336 -0.8364 0.9917
-1.9376 -0.5007 -0.8722 0.9913
-4.3945 -1.5694 -2.0337 0.9798
-4.0420 -2.3318 -2.0337 0.9798
-3.8157 -2.6861 -2.0337 0.9798
-3.5585 -3.0186 -2.0337 0.9798
-2.9596 -3.6077 -2.0337 0.9798
-2.6230 -3.8594 -2.0337 0.9798
-2.2650 -4.0798 -2.0337 0.9798
-1.8886 -4.2671 -2.0337 0.9798
-1.4969 -4.4197 -2.0337 0.9798
-1.0930 -4.5365 -2.0337 0.9798
-0.2620 -4.6590 -2.0337 0.9798
-1.6006 0.3207 -0.7556 0.9928
-1.6082 0.1737 -0.7487 0.9929
-1.5761 0.0276 -0.7297 0.9931
-1.6005 -0.1165 -0.7428 0.9930
-1.5696 -0.4056 -0.7504 0.9929
-3.9877 -1.8440 -2.0337 0.9808
-3.8057 -2.1954 -2.0337 0.9808
-3.5925 -2.5290 -2.0337 0.9808
-3.3504 -2.8421 -2.0337 0.9808
-3.0810 -3.1321 -2.0337 0.9808
-2.7866 -3.3967 -2.0337 0.9808
-2.4696 -3.6337 -2.0337 0.9808
-2.1325 -3.8412 -2.0337 0.9808
-1.4094 -4.1613 -2.0337 0.9808
-1.0291 -4.2713 -2.0337 0.9808
-0.6405 -4.3466 -2.0337 0.9808
0.5437 -4.3597 -2.0337 0.9808
-1.3339 0.2672 -0.6673 0.9940
-1.3533 0.1462 -0.6677 0.9940
-1.3448 -0.2208 -0.6685 0.9939
-1.3134 -0.3394 -0.6654 0.9940
-1.2670 -0.4525 -0.6599 0.9940
-3.3902 -2.3865 -2.0337 0.9817
-3.1616 -2.6820 -2.0337 0.9817
-2.9074 -2.9556 -2.0337 0.9817
-2.6296 -3.2053 -2.0337 0.9817
-2.0124 -3.6248 -2.0337 0.9817
-1.3300 -3.9268 -2.0337 0.9817
-0.9712 -4.0306 -2.0337 0.9817
-0.6045 -4.1017 -2.0337 0.9817
-1.1803 0.2365 -0.6245 0.9946
-1.1999 0.1296 -0.6261 0.9946
-1.2002 -0.0873 -0.6243 0.9946
-1.1333 -0.4047 -0.6243 0.9946
-2.2035 -3.2422 -2.0337 0.9825
-1.9028 -3.4273 -2.0337 0.9825
-1.2575 -3.7130 -2.0337 0.9825
-0.2202 -3.9140 -2.0337 0.9825
0.1330 -3.9179 -2.0337 0.9825
-1.0599 0.2123 -0.5920 0.9951
-1.0784 0.1165 -0.5941 0.9951
-1.0810 -0.0787 -0.5936 0.9951
-1.0690 -0.1755 -0.5934 0.9951
-0.9939 -0.4596 -0.5998 0.9950
-3.2163 -1.8555 -2.0337 0.9832
-2.3551 -2.8707 -2.0337 0.9832
-2.0871 -3.0710 -2.0337 0.9832
-1.8023 -3.2464 -2.0337 0.9832
-1.5028 -3.3954 -2.0337 0.9832
-1.1911 -3.5169 -2.0337 0.9832
-0.5413 -3.6735 -2.0337 0.9832
0.1259 -3.7110 -2.0337 0.9832
0.4595 -3.6846 -2.0337 0.9832
-0.9896 0.0173 -0.5715 0.9954
-0.9895 -0.0720 -0.5728 0.9954
-0.9809 -0.1611 -0.5739 0.9954
-0.9613 -0.2484 -0.5732 0.9954
-1.1831 -0.6825 -0.7886 0.9937
-2.8804 -2.0276 -2.0337 0.9839
-2.4702 -2.5112 -2.0337 0.9839
-1.9800 -2.9133 -2.0337 0.9839
-1.7098 -3.0797 -2.0337 0.9839
-1.4256 -3.2211 -2.0337 0.9839
-0.8251 -3.4245 -2.0337 0.9839
-0.5136 -3.4848 -2.0337 0.9839
-0.1978 -3.5169 -2.0337 0.9839
