ply
format ascii 1.0
element vertex 195
property float32 x
property float32 y
property float32 z
property float32 I
end_header
-13.0262 -8.0638 -1.1233 0.9404
-11.5902 -8.6627 -1.0610 0.9436
-12.5321 -7.7579 -1.4150 0.9425
-16.7645 -3.4704 -2.0336 0.9334
-15.9036 -6.3376 -2.0336 0.9334
-15.2886 -7.7038 -2.0336 0.9334
-12.7641 -11.4089 -2.0336 0.9334
-10.5816 -13.4579 -2.0336 0.9334
-6.7247 -15.7437 -2.0336 0.9334
-3.8795 -16.6745 -2.0336 0.9334
-0.9155 -17.0955 -2.0336 0.9334
-14.2554 -1.6694 -2.0336 0.9437
-11.4963 -8.5925 -2.0336 0.9437
-10.7010 -9.5648 -2.0336 0.9437
-9.8237 -10.4638 -2.0336 0.9437
-8.8712 -11.2827 -2.0336 0.9437
-7.8508 -12.0151 -2.0336 0.9437
-5.6378 -13.1990 -2.0336 0.9437
-4.4622 -13.6414 -2.0336 0.9437
-3.2524 -13.9794 -2.0336 0.9437
-2.0177 -14.2102 -2.0336 0.9437
-0.7675 -14.3323 -2.0336 0.9437
-12.2610 -1.4358 -2.0337 0.9512
-11.4676 -4.5698 -2.0336 0.9512
-11.0241 -5.5549 -2.0336 0.9512
-10.4962 -6.4975 -2.0336 0.9512
-9.8879 -7.3904 -2.0336 0.9512
-7.6300 -9.7041 -2.0336 0.9512
-6.7524 -10.3341 -2.0336 0.9512
-4.8490 -11.3523 -2.0336 0.9512
-0.6601 -12.3270 -2.0337 0.9512
-10.8151 -0.3140 -2.0337 0.9569
-10.7462 -1.2585 -2.0337 0.9569
-10.5950 -2.1932 -2.0337 0.9569
-10.0509 -4.0053 -2.0337 0.9569
-9.6622 -4.8687 -2.0337 0.9569
-9.1995 -5.6949 -2.0337 0.9569
-8.6663 -6.4774 -2.0336 0.9569
-8.0668 -7.2103 -2.0336 0.9569
-6.6875 -8.5053 -2.0336 0.9569
-5.1036 -9.5402 -2.0337 0.9569
-2.4518 -10.5381 -2.0337 0.9569
-1.5210 -10.7121 -2.0337 0.9569
-0.5786 -10.8042 -2.0337 0.9569
-9.6170 -0.2793 -2.0337 0.9614
-9.5557 -1.1190 -2.0337 0.9614
-9.4212 -1.9502 -2.0337 0.9614
-9.2146 -2.7665 -2.0337 0.9614
-8.1803 -5.0639 -2.0337 0.9614
-7.7062 -5.7598 -2.0337 0.9614
-7.1731 -6.4115 -2.0337 0.9614
-5.9466 -7.5630 -2.0337 0.9614
-4.5382 -8.4832 -2.0337 0.9614
-2.9911 -9.1441 -2.0337 0.9614
-2.1802 -9.3706 -2.0337 0.9614
-0.5145 -9.6072 -2.0337 0.9614
-8.6495 -0.2512 -2.0337 0.9651
-8.5944 -1.0064 -2.0337 0.9651
-8.4735 -1.7540 -2.0337 0.9651
-8.2876 -2.4882 -2.0337 0.9651
-7.7275 -3.8938 -2.0337 0.9651
-7.3574 -4.5545 -2.0337 0.9651
-6.4515 -5.7665 -2.0337 0.9651
-5.3484 -6.8022 -2.0337 0.9651
-3.3989 -7.9575 -2.0337 0.9651
-7.8513 -0.2280 -2.0337 0.9681
-7.8013 -0.9136 -2.0337 0.9681
-7.5229 -2.2585 -2.0337 0.9681
-7.2965 -2.9076 -2.0337 0.9681
-5.8562 -5.2344 -2.0337 0.9681
-5.3761 -5.7264 -2.0337 0.9681
-4.8548 -6.1745 -2.0337 0.9681
-2.4420 -7.4653 -2.0337 0.9681
-1.1042 -7.7766 -2.0337 0.9681
-7.0347 -1.4562 -2.0337 0.9706
-6.8804 -2.0657 -2.0337 0.9706
-6.6734 -2.6593 -2.0337 0.9706
-6.4153 -3.2326 -2.0337 0.9706
-6.1082 -3.7812 -2.0337 0.9706
-5.3561 -4.7874 -2.0337 0.9706
-2.8218 -6.6064 -2.0337 0.9706
-2.2334 -6.8278 -2.0337 0.9706
-6.5671 -0.7690 -2.0337 0.9727
-6.4747 -1.3403 -2.0337 0.9727
-6.1422 -2.4477 -2.0337 0.9727
-5.9046 -2.9753 -2.0337 0.9727
-5.6219 -3.4802 -2.0337 0.9727
-5.2961 -3.9584 -2.0337 0.9727
-4.5255 -4.8204 -2.0337 0.9727
-3.6167 -5.5351 -2.0337 0.9727
-2.5972 -6.0805 -2.0337 0.9727
-2.0557 -6.2843 -2.0337 0.9727
-1.4983 -6.4400 -2.0337 0.9727
-0.9295 -6.5463 -2.0337 0.9727
-0.3536 -6.6025 -2.0337 0.9727
-5.4637 -2.7531 -2.0337 0.9745
-4.9006 -3.6628 -2.0337 0.9745
-4.5616 -4.0772 -2.0337 0.9745
-4.1875 -4.4604 -2.0337 0.9745
-3.7815 -4.8095 -2.0337 0.9745
-3.3466 -5.1217 -2.0337 0.9745
-2.8859 -5.3946 -2.0337 0.9745
-2.4032 -5.6263 -2.0337 0.9745
-1.3864 -5.9590 -2.0337 0.9745
-0.8601 -6.0574 -2.0337 0.9745
-0.3271 -6.1094 -2.0337 0.9745
-5.6846 -0.1651 -2.0337 0.9761
-5.5689 -1.1528 -2.0337 0.9761
-5.2829 -2.1052 -2.0337 0.9761
-4.8355 -2.9933 -2.0337 0.9761
-3.8925 -4.1461 -2.0337 0.9761
-3.1107 -4.7607 -2.0337 0.9761
-2.6826 -5.0145 -2.0337 0.9761
-1.7680 -5.4052 -2.0337 0.9761
-0.7994 -5.6305 -2.0337 0.9761
-0.3041 -5.6789 -2.0337 0.9761
-5.3047 -0.1541 -2.0337 0.9775
-5.1968 -1.0758 -2.0337 0.9775
-5.0828 -1.5260 -2.0337 0.9775
-4.7393 -2.3881 -2.0337 0.9775
-4.5123 -2.7933 -2.0337 0.9775
-3.2801 -4.1718 -2.0337 0.9775
-2.9029 -4.4426 -2.0337 0.9775
-2.5033 -4.6794 -2.0337 0.9775
-2.0846 -4.8804 -2.0337 0.9775
-0.7461 -5.2542 -2.0337 0.9775
-2.1227 -0.0616 -0.8691 0.9909
-4.7592 -1.4288 -2.0337 0.9788
-3.9802 -2.9748 -2.0337 0.9788
-3.7048 -3.3115 -2.0337 0.9788
-3.4011 -3.6227 -2.0337 0.9788
-3.0713 -3.9062 -2.0337 0.9788
-2.7180 -4.1598 -2.0337 0.9788
-1.9518 -4.5696 -2.0337 0.9788
-1.5449 -4.7228 -2.0337 0.9788
-1.1260 -4.8398 -2.0337 0.9788
-1.9189 -0.0557 -0.8366 0.9917
-1.9065 -0.2233 -0.8366 0.9917
-1.9041 -0.3942 -0.8474 0.9916
-4.3349 -1.7275 -2.0337 0.9798
-3.7378 -2.7937 -2.0337 0.9798
-3.4792 -3.1098 -2.0337 0.9798
-2.8843 -3.6683 -2.0337 0.9798
-2.2012 -4.1146 -2.0337 0.9798
-1.4507 -4.4352 -2.0337 0.9798
-1.0575 -4.5450 -2.0337 0.9798
-0.6560 -4.6201 -2.0337 0.9798
-1.5825 -0.0460 -0.7328 0.9930
-1.6093 -0.1885 -0.7500 0.9929
-1.5979 -0.3308 -0.7553 0.9928
-1.5389 -0.4620 -0.7438 0.9929
-4.0814 -1.6264 -2.0337 0.9808
-2.7156 -3.4538 -2.0337 0.9808
-2.4032 -3.6780 -2.0337 0.9808
-2.0725 -3.8740 -2.0337 0.9808
-1.3659 -4.1758 -2.0337 0.9808
-0.9956 -4.2792 -2.0337 0.9808
-0.6177 -4.3499 -2.0337 0.9808
-0.2349 -4.3873 -2.0337 0.9808
-1.7217 -0.6861 -0.9091 0.9918
-3.5252 -2.1823 -2.0337 0.9817
-3.3209 -2.4821 -2.0337 0.9817
-2.2679 -3.4708 -2.0337 0.9817
-1.2889 -3.9405 -2.0337 0.9817
-0.2217 -4.1401 -2.0337 0.9817
-1.1966 -0.0347 -0.6210 0.9946
-1.1489 -0.3449 -0.6223 0.9946
-1.1216 -0.4470 -0.6264 0.9946
-2.6832 -2.8580 -2.0337 0.9825
-2.1443 -3.2817 -2.0337 0.9825
-1.8492 -3.4566 -2.0337 0.9825
-1.2188 -3.7259 -2.0337 0.9825
-0.8883 -3.8182 -2.0337 0.9825
-0.5511 -3.8813 -2.0337 0.9825
-1.0796 -0.0313 -0.5915 0.9951
-1.0773 -0.1262 -0.5941 0.9951
-0.9815 -0.4946 -0.6020 0.9950
-2.7685 -2.4745 -2.0337 0.9832
-2.5415 -2.7071 -2.0337 0.9832
-2.2951 -2.9189 -2.0337 0.9832
-2.0311 -3.1084 -2.0337 0.9832
-1.7515 -3.2741 -2.0337 0.9832
-1.1544 -3.5292 -2.0337 0.9832
-0.8414 -3.6166 -2.0337 0.9832
-0.1986 -3.7079 -2.0337 0.9832
-0.9866 -0.1155 -0.5735 0.9954
-0.9736 -0.2015 -0.5740 0.9954
-0.9562 -0.2871 -0.5764 0.9954
-0.9385 -0.3740 -0.5833 0.9953
-0.9116 -0.4594 -0.5894 0.9953
-2.9950 -1.8541 -2.0337 0.9839
-2.1772 -2.7690 -2.0337 0.9839
-1.9268 -2.9488 -2.0337 0.9839
-1.3836 -3.2394 -2.0337 0.9839
-1.0951 -3.3479 -2.0337 0.9839
