ply
format ascii 1.0
element vertex 249
property float32 x
property float32 y
property float32 z
property float32 I
end_header
3.3909 18.6700 3.3459 0.9258
3.4046 18.7456 2.9187 0.9258
1.6247 17.7350 2.7283 0.9305
-12.2864 12.1328 2.6453 0.9325
3.3520 18.4559 2.4427 0.9271
1.6282 17.7735 2.3242 0.9305
-11.8788 11.7302 2.1740 0.9349
-11.1334 13.1275 1.8484 0.9331
-12.0930 11.9418 1.8250 0.9339
3.2418 17.8495 1.5357 0.9298
1.6664 18.1901 1.5463 0.9293
-12.1167 11.9651 1.4415 0.9339
3.1730 17.4710 1.1011 0.9313
1.6543 18.0584 1.1245 0.9299
-12.4333 14.6603 1.1920 0.9259
-12.9033 12.7419 1.1245 0.9299
3.4803 19.1631 0.7680 0.9250
-12.4982 14.7368 0.7619 0.9256
3.4186 18.8231 0.3232 0.9263
1.8084 19.7404 0.3348 0.9238
3.3541 18.4678 -0.5285 0.9276
13.4171 9.1084 -1.1890 0.9370
13.2254 8.9783 -1.5346 0.9378
-1.9869 7.4132 -0.7368 0.9696
13.3855 9.0870 -1.9218 0.9369
12.2580 11.9579 -2.0342 0.9333
11.1556 12.9923 -2.0342 0.9333
9.9664 13.9255 -2.0342 0.9333
8.6995 14.7502 -2.0341 0.9333
7.3647 15.4599 -2.0341 0.9333
5.9726 16.0490 -2.0341 0.9333
4.5340 16.5132 -2.0341 0.9333
3.0600 16.8486 -2.0341 0.9333
1.5622 17.0527 -2.0341 0.9333
-0.6862 8.0292 -0.9572 0.9681
-1.9482 7.2686 -0.8939 0.9701
-5.8742 16.0841 -2.0340 0.9334
-9.8802 13.9845 -2.0339 0.9334
-11.0748 13.0585 -2.0339 0.9334
-12.1832 12.0308 -2.0339 0.9334
11.8777 8.0633 -2.0341 0.9437
11.1203 9.0794 -2.0341 0.9437
7.2931 12.3656 -2.0341 0.9437
5.0071 13.4545 -2.0341 0.9437
2.5654 14.1248 -2.0341 0.9437
1.3096 14.2959 -2.0341 0.9437
0.0438 14.3556 -2.0340 0.9437
-1.3006 7.4183 -1.0671 0.9700
-6.0945 12.9971 -2.0340 0.9437
-8.2830 11.7239 -2.0339 0.9437
-9.2846 10.9477 -2.0339 0.9437
-11.0634 9.1459 -2.0339 0.9437
9.5642 7.8089 -2.0341 0.9512
8.8383 8.6220 -2.0341 0.9512
8.0435 9.3679 -2.0341 0.9512
6.2725 10.6353 -2.0341 0.9512
0.0377 12.3469 -2.0340 0.9512
-0.6317 7.3911 -1.2220 0.9704
-1.2677 7.2301 -1.2093 0.9707
-1.9200 7.1638 -1.2218 0.9704
-4.2355 11.5973 -2.0340 0.9512
-7.9855 9.4158 -2.0339 0.9512
-9.5154 7.8662 -2.0339 0.9512
8.9534 6.0781 -2.0340 0.9569
7.0496 8.2104 -2.0340 0.9569
4.6540 9.7697 -2.0340 0.9569
3.7743 10.1421 -2.0340 0.9569
0.0330 10.8213 -2.0340 0.9569
-1.8834 7.0268 -1.3674 0.9708
-3.7123 10.1644 -2.0339 0.9569
-5.4402 9.3540 -2.0339 0.9569
-6.2439 8.8377 -2.0339 0.9569
7.4537 6.0857 -2.0340 0.9614
6.8880 6.7194 -2.0340 0.9614
4.8884 8.2884 -2.0340 0.9614
4.1384 8.6872 -2.0340 0.9614
3.3561 9.0183 -2.0340 0.9614
2.5477 9.2791 -2.0340 0.9614
1.7195 9.4676 -2.0340 0.9614
-1.9377 7.2297 -1.5821 0.9699
-3.3010 9.0383 -2.0339 0.9614
-4.0852 8.7119 -2.0339 0.9614
6.7039 5.4735 -2.0340 0.9651
6.1950 6.0434 -2.0340 0.9651
5.0369 7.0378 -2.0340 0.9651
4.3966 7.4546 -2.0340 0.9651
3.0185 8.1110 -2.0340 0.9651
1.5464 8.5151 -2.0340 0.9651
0.7895 8.6183 -2.0340 0.9651
0.0264 8.6543 -2.0340 0.9651
-1.9494 7.2733 -1.7697 0.9695
-2.9689 8.1290 -2.0339 0.9651
-3.6742 7.8354 -2.0339 0.9651
-4.3509 7.4808 -2.0339 0.9651
-4.9936 7.0679 -2.0339 0.9651
-5.5974 6.6000 -2.0339 0.9651
-6.1577 6.0806 -2.0339 0.9651
6.4996 4.4123 -2.0340 0.9681
5.6233 5.4856 -2.0340 0.9681
4.5720 6.3882 -2.0340 0.9681
3.3785 7.0921 -2.0340 0.9681
2.7399 7.3624 -2.0340 0.9681
1.4037 7.7292 -2.0340 0.9681
0.7166 7.8229 -2.0340 0.9681
0.0239 7.8556 -2.0340 0.9681
-0.6626 7.7536 -2.0149 0.9684
-1.3566 7.7375 -2.0339 0.9681
-2.6949 7.3787 -2.0339 0.9681
-3.3351 7.1123 -2.0339 0.9681
-3.9493 6.7904 -2.0339 0.9681
-4.5327 6.4156 -2.0339 0.9681
5.9445 4.0355 -2.0340 0.9706
5.5654 4.5440 -2.0340 0.9706
5.1430 5.0171 -2.0340 0.9706
4.6805 5.4511 -2.0340 0.9706
3.0900 6.4864 -2.0340 0.9706
0.0219 7.1847 -2.0340 0.9706
-0.6118 7.1586 -2.0339 0.9706
-1.2407 7.0767 -2.0339 0.9706
-1.8600 6.9397 -2.0339 0.9706
-3.0503 6.5049 -2.0339 0.9706
-4.6470 5.4793 -2.0339 0.9706
-5.5373 4.5775 -2.0339 0.9706
5.1224 4.1822 -2.0340 0.9727
3.8486 5.3775 -2.0340 0.9727
3.3594 5.6960 -2.0340 0.9727
2.8440 5.9701 -2.0340 0.9727
2.3064 6.1976 -2.0340 0.9727
1.1817 6.5064 -2.0340 0.9727
0.6032 6.5852 -2.0339 0.9727
-0.5631 6.5887 -2.0339 0.9727
-3.8156 5.4006 -2.0339 0.9727
-4.2770 5.0431 -2.0339 0.9727
5.0626 3.4368 -2.0340 0.9745
4.3800 4.2728 -2.0340 0.9745
3.5612 4.9759 -2.0340 0.9745
2.6316 5.5241 -2.0340 0.9745
1.0934 6.0204 -2.0339 0.9745
-0.5210 6.0966 -2.0339 0.9745
-2.5977 5.5399 -2.0339 0.9745
-3.0762 5.2892 -2.0339 0.9745
-3.5306 4.9973 -2.0339 0.9745
-4.3536 4.2992 -2.0339 0.9745
4.7058 3.1946 -2.0340 0.9761
4.4057 3.5971 -2.0340 0.9761
3.7052 4.3152 -2.0340 0.9761
2.4461 5.1348 -2.0340 0.9761
1.9837 5.3305 -2.0339 0.9761
0.5189 5.6639 -2.0339 0.9761
0.0174 5.6876 -2.0339 0.9761
-1.9511 5.3424 -2.0339 0.9761
-3.2818 4.6451 -2.0339 0.9761
-4.0468 3.9962 -2.0339 0.9761
3.7992 3.7062 -2.0339 0.9775
3.4576 4.0268 -2.0339 0.9775
3.0890 4.3161 -2.0339 0.9775
2.6963 4.5716 -2.0339 0.9775
1.8512 4.9742 -2.0339 0.9775
1.4053 5.1181 -2.0339 0.9775
0.9484 5.2221 -2.0339 0.9775
0.0162 5.3074 -2.0339 0.9775
-0.4520 5.2882 -2.0339 0.9775
-1.3740 5.1265 -2.0339 0.9775
-1.8207 4.9853 -2.0339 0.9775
-3.0625 4.3346 -2.0339 0.9775
-3.4328 4.0477 -2.0339 0.9775
-3.7764 3.7291 -2.0339 0.9775
-4.0905 3.3815 -2.0339 0.9775
3.5574 3.4702 -2.0339 0.9787
3.2375 3.7704 -2.0339 0.9787
2.1373 4.4865 -2.0339 0.9788
0.0152 4.9696 -2.0339 0.9788
-0.4231 4.9515 -2.0339 0.9788
-1.7048 4.6679 -2.0339 0.9788
-2.1098 4.4994 -2.0339 0.9788
-2.4984 4.2957 -2.0339 0.9788
-2.8675 4.0587 -2.0339 0.9788
-3.2143 3.7900 -2.0339 0.9788
-3.8300 3.1663 -2.0339 0.9788
3.8613 2.6212 -2.0339 0.9798
3.6150 2.9516 -2.0339 0.9798
3.3407 3.2589 -2.0339 0.9798
3.0403 3.5408 -2.0339 0.9798
1.6277 4.3739 -2.0339 0.9798
0.8339 4.5918 -2.0339 0.9798
0.4257 4.6474 -2.0339 0.9798
0.0143 4.6669 -2.0339 0.9798
-1.2082 4.5078 -2.0339 0.9798
-1.9813 4.2254 -2.0339 0.9798
-3.0185 3.5591 -2.0339 0.9798
-3.3206 3.2791 -2.0339 0.9798
3.4037 2.7790 -2.0339 0.9808
2.8625 3.3338 -2.0339 0.9808
2.5573 3.5732 -2.0339 0.9808
1.5326 4.1181 -2.0339 0.9808
0.7852 4.3233 -2.0339 0.9808
0.4009 4.3757 -2.0339 0.9808
0.0134 4.3940 -2.0339 0.9808
-0.3741 4.3780 -2.0339 0.9808
-0.7588 4.3279 -2.0339 0.9808
-1.8655 3.9783 -2.0339 0.9808
-2.2090 3.7982 -2.0339 0.9808
-2.8420 3.3510 -2.0339 0.9808
-3.1264 3.0873 -2.0339 0.9808
3.4307 2.3289 -2.0339 0.9817
3.2119 2.6224 -2.0339 0.9817
2.9681 2.8954 -2.0339 0.9817
2.4132 3.3719 -2.0339 0.9817
2.1065 3.5715 -2.0339 0.9817
1.0979 3.9985 -2.0339 0.9817
0.0127 4.1464 -2.0339 0.9817
-0.3531 4.1313 -2.0339 0.9817
-1.4225 3.8947 -2.0339 0.9817
-2.3925 3.3864 -2.0339 0.9817
-2.6818 3.1622 -2.0339 0.9817
-2.9502 2.9134 -2.0339 0.9817
-3.1957 2.6418 -2.0339 0.9817
3.0369 2.4795 -2.0339 0.9825
2.8064 2.7377 -2.0339 0.9825
2.5540 2.9746 -2.0339 0.9825
1.6861 3.5395 -2.0339 0.9825
0.3577 3.9042 -2.0339 0.9825
-0.6770 3.8616 -2.0339 0.9825
-1.0150 3.7869 -2.0339 0.9825
-1.6645 3.5496 -2.0339 0.9825
-2.2622 3.2020 -2.0339 0.9825
-2.5357 2.9900 -2.0339 0.9825
-3.0217 2.4979 -2.0339 0.9825
3.0725 2.0858 -2.0339 0.9832
2.4192 2.8175 -2.0339 0.9832
1.8866 3.1987 -2.0339 0.9832
1.2952 3.4803 -2.0339 0.9832
0.3388 3.6980 -2.0339 0.9832
-0.3162 3.7000 -2.0339 0.9832
-0.6413 3.6577 -2.0339 0.9832
-0.9613 3.5869 -2.0339 0.9832
-1.8669 3.2100 -2.0339 0.9832
-2.1428 3.0329 -2.0339 0.9832
-2.4018 2.8321 -2.0339 0.9832
-2.8621 2.3660 -2.0339 0.9832
2.9147 1.9787 -2.0339 0.9839
2.7288 2.2280 -2.0339 0.9839
1.2287 3.3016 -2.0339 0.9839
0.3214 3.5081 -2.0339 0.9839
0.0107 3.5228 -2.0339 0.9839
-0.6084 3.4699 -2.0339 0.9839
-1.2085 3.3090 -2.0339 0.9839
-2.0327 2.8771 -2.0339 0.9839
-2.2785 2.6866 -2.0339 0.9839
