ply
format ascii 1.0
element vertex 186
property float32 x
property float32 y
property float32 z
property float32 I
end_header
17.3133 -3.4914 -0.8957 0.9317
13.3779 9.3005 -1.1946 0.9367
14.5295 -9.0574 -2.0338 0.9334
15.2818 -7.7209 -2.0338 0.9334
15.9116 -6.3223 -2.0338 0.9334
16.7839 -3.3846 -2.0338 0.9334
17.0195 -1.8691 -2.0338 0.9334
17.1186 -0.3385 -2.0338 0.9334
16.5937 4.2206 -2.0339 0.9334
16.1495 5.6886 -2.0339 0.9334
15.5757 7.1111 -2.0339 0.9334
14.8768 8.4764 -2.0339 0.9334
13.1275 10.9927 -2.0339 0.9334
12.0912 12.1234 -2.0339 0.9334
10.9577 13.1568 -2.0339 0.9334
9.7363 14.0846 -2.0339 0.9334
12.1809 -7.5933 -2.0338 0.9437
13.3395 -5.3003 -2.0338 0.9437
14.0708 -2.8375 -2.0338 0.9437
14.2683 -1.5669 -2.0338 0.9437
14.3514 -0.2837 -2.0338 0.9437
14.3192 1.0017 -2.0338 0.9437
13.9114 3.5383 -2.0338 0.9437
13.5389 4.7691 -2.0339 0.9437
13.0579 5.9616 -2.0339 0.9437
12.4720 7.1062 -2.0339 0.9437
11.0054 9.2157 -2.0339 0.9437
9.1864 11.0300 -2.0339 0.9437
10.4765 -6.5308 -2.0338 0.9512
11.0190 -5.5671 -2.0338 0.9512
11.4730 -4.5587 -2.0338 0.9512
11.8350 -3.5137 -2.0338 0.9512
12.2719 -1.3477 -2.0338 0.9512
12.3432 -0.2440 -2.0338 0.9512
12.1891 1.9603 -2.0338 0.9512
11.2307 5.1274 -2.0338 0.9512
9.4655 7.9262 -2.0338 0.9512
8.7182 8.7415 -2.0339 0.9512
10.7557 -1.1812 -2.0338 0.9569
10.8183 -0.2139 -2.0338 0.9569
10.7940 0.7551 -2.0338 0.9569
10.4866 2.6672 -2.0338 0.9569
10.2059 3.5950 -2.0338 0.9569
9.8432 4.4939 -2.0338 0.9569
9.4016 5.3568 -2.0338 0.9569
8.2961 6.9469 -2.0338 0.9569
6.9248 8.3146 -2.0338 0.9569
8.5877 -4.3387 -2.0338 0.9614
8.9415 -3.5528 -2.0338 0.9614
9.2236 -2.7384 -2.0338 0.9614
9.6197 -0.1902 -2.0338 0.9614
9.5982 0.6715 -2.0338 0.9614
9.3247 2.3718 -2.0338 0.9614
8.7526 3.9960 -2.0338 0.9614
8.3599 4.7633 -2.0338 0.9614
7.9001 5.4923 -2.0338 0.9614
7.3769 6.1772 -2.0338 0.9614
6.7945 6.8127 -2.0338 0.9614
7.7237 -3.9022 -2.0338 0.9651
8.4829 -1.7106 -2.0338 0.9651
8.6520 -0.1710 -2.0338 0.9651
8.6325 0.6039 -2.0338 0.9651
8.5439 1.3740 -2.0338 0.9651
8.3867 2.1331 -2.0338 0.9651
8.1621 2.8751 -2.0338 0.9651
6.6348 5.5558 -2.0338 0.9651
6.1109 6.1273 -2.0338 0.9651
6.6658 -4.1553 -2.0338 0.9681
7.2998 -2.9005 -2.0338 0.9681
7.5301 -2.2356 -2.0338 0.9681
7.8080 -0.8575 -2.0338 0.9681
7.8535 -0.1553 -2.0338 0.9681
7.8359 0.5482 -2.0338 0.9681
7.7554 1.2472 -2.0338 0.9681
7.4089 2.6098 -2.0338 0.9681
7.1456 3.2623 -2.0338 0.9681
6.4496 4.4839 -2.0338 0.9681
6.0225 5.0431 -2.0338 0.9681
5.0270 6.0359 -2.0338 0.9681
4.4666 6.4615 -2.0338 0.9681
6.0965 -3.8005 -2.0338 0.9706
6.6764 -2.6528 -2.0338 0.9706
7.0424 -1.4202 -2.0338 0.9706
7.1412 -0.7842 -2.0338 0.9706
7.1667 0.5014 -2.0338 0.9706
6.7761 2.3869 -2.0338 0.9706
6.5354 2.9837 -2.0338 0.9706
5.5081 4.6124 -2.0338 0.9706
5.0733 5.0868 -2.0338 0.9706
4.5977 5.5204 -2.0338 0.9706
5.6112 -3.4979 -2.0338 0.9727
5.9018 -2.9817 -2.0338 0.9727
6.1449 -2.4416 -2.0338 0.9727
6.3388 -1.8819 -2.0338 0.9727
6.4818 -1.3071 -2.0338 0.9727
6.5727 -0.7218 -2.0338 0.9727
6.5962 0.4614 -2.0338 0.9727
6.5284 1.0499 -2.0338 0.9727
6.4083 1.6299 -2.0338 0.9727
6.2367 2.1969 -2.0338 0.9727
6.0151 2.7462 -2.0338 0.9727
5.7452 3.2735 -2.0338 0.9727
4.2316 5.0809 -2.0338 0.9727
3.7600 5.4393 -2.0338 0.9727
5.1921 -3.2367 -2.0338 0.9745
5.4610 -2.7590 -2.0338 0.9745
5.6860 -2.2592 -2.0338 0.9745
5.8654 -1.7413 -2.0338 0.9745
6.0818 -0.6679 -2.0338 0.9745
6.1035 0.4270 -2.0338 0.9745
6.0408 0.9715 -2.0338 0.9745
5.7709 2.0328 -2.0338 0.9745
5.5658 2.5411 -2.0338 0.9745
5.0237 3.4926 -2.0338 0.9745
4.6910 3.9281 -2.0338 0.9745
3.4792 5.0330 -2.0338 0.9745
4.8262 -3.0086 -2.0338 0.9761
5.0761 -2.5646 -2.0338 0.9761
5.5750 -1.1242 -2.0338 0.9761
5.6734 0.3969 -2.0338 0.9761
5.5118 1.4019 -2.0338 0.9761
4.6696 3.2464 -2.0338 0.9761
3.6396 4.3701 -2.0338 0.9761
4.5037 -2.8075 -2.0338 0.9775
5.0876 -1.5104 -2.0338 0.9775
5.2024 -1.0491 -2.0338 0.9775
5.3061 -0.1049 -2.0338 0.9775
5.2398 0.8427 -2.0338 0.9775
5.1434 1.3082 -2.0338 0.9775
4.3576 3.0295 -2.0338 0.9775
4.0690 3.4073 -2.0338 0.9775
4.6180 -1.8349 -2.0338 0.9788
4.8712 -0.9823 -2.0338 0.9788
4.9682 -0.0982 -2.0338 0.9788
4.8159 1.2249 -2.0338 0.9788
4.3176 2.4601 -2.0338 0.9788
3.8099 3.1903 -2.0338 0.9788
3.1802 3.8184 -2.0338 0.9788
3.9601 -2.4687 -2.0338 0.9798
4.3368 -1.7232 -2.0338 0.9798
4.4015 1.5505 -2.0338 0.9798
4.2451 1.9381 -2.0338 0.9798
4.0547 2.3102 -2.0338 0.9798
3.8317 2.6638 -2.0338 0.9798
3.5779 2.9961 -2.0338 0.9798
3.2954 3.3042 -2.0338 0.9798
2.6536 3.8387 -2.0338 0.9798
3.7286 -2.3243 -2.0338 0.9808
4.3070 -0.8685 -2.0338 0.9808
4.3929 -0.0868 -2.0338 0.9808
4.1442 1.4598 -2.0338 0.9808
3.8175 2.1752 -2.0338 0.9808
3.1027 3.1110 -2.0338 0.9808
2.8118 3.3762 -2.0338 0.9808
2.4984 3.6143 -2.0338 0.9808
4.1453 -0.0820 -2.0338 0.9817
3.9107 1.3775 -2.0338 0.9817
3.7717 1.7220 -2.0338 0.9817
3.6025 2.0526 -2.0338 0.9817
3.4043 2.3668 -2.0338 0.9817
3.1788 2.6619 -2.0338 0.9817
3.6432 -1.4476 -2.0338 0.9825
3.7582 -1.1157 -2.0338 0.9825
2.1066 -0.4248 -1.1148 0.9904
2.0779 0.1454 -1.0806 0.9907
3.7993 0.9664 -2.0338 0.9825
3.6976 1.3025 -2.0338 0.9825
3.2189 2.2378 -2.0338 0.9825
2.7684 2.7758 -2.0338 0.9825
2.5089 3.0124 -2.0338 0.9825
3.3143 -1.6745 -2.0338 0.9832
1.8734 -0.5562 -1.0703 0.9911
3.3779 1.5422 -2.0338 0.9832
3.0489 2.1197 -2.0338 0.9832
2.8470 2.3840 -2.0338 0.9832
2.3764 2.8533 -2.0338 0.9832
3.1441 -1.5885 -2.0338 0.9839
1.7145 -0.3457 -1.0098 0.9920
1.7246 -0.0341 -0.9959 0.9921
1.7229 0.1205 -0.9971 0.9921
1.7137 0.4359 -1.0209 0.9919
1.7250 0.6076 -1.0559 0.9916
1.7831 0.8141 -1.1317 0.9910
2.8923 2.0108 -2.0338 0.9839
2.4875 2.4942 -2.0338 0.9839
2.2544 2.7068 -2.0338 0.9839
