ply
format ascii 1.0
element vertex 53
property float32 x
property float32 y
property float32 z
property float32 I
end_header
-14.3538 -0.0000 -2.0338 0.9437
-14.3040 -1.1927 -2.0338 0.9437
-14.1554 -2.3772 -2.0338 0.9437
-13.9088 -3.5452 -2.0337 0.9437
-12.3028 -1.0259 -2.0338 0.9512
-10.8204 0.0000 -2.0338 0.9569
-10.7829 -0.8991 -2.0338 0.9569
-10.4850 -2.6725 -2.0338 0.9569
-10.2266 -3.5345 -2.0338 0.9569
-9.6216 -0.0000 -2.0338 0.9614
-9.5883 -0.7995 -2.0338 0.9614
-9.4886 -1.5935 -2.0338 0.9614
-8.6537 0.0000 -2.0338 0.9651
-8.6237 -0.7191 -2.0338 0.9651
-8.5342 -1.4332 -2.0338 0.9651
-7.6117 -1.9401 -2.0338 0.9681
-7.4241 -2.5659 -2.0338 0.9681
-6.9617 -1.7745 -2.0338 0.9706
-6.7902 -2.3468 -2.0338 0.9706
-6.5895 -0.5495 -2.0338 0.9727
-6.5211 -1.0951 -2.0338 0.9727
-6.4075 -1.6332 -2.0338 0.9727
-6.2496 -2.1600 -2.0338 0.9727
-5.9289 -1.5112 -2.0338 0.9745
-5.6874 -0.0000 -2.0339 0.9761
-5.6088 -0.9419 -2.0338 0.9761
-5.3753 -1.8578 -2.0338 0.9761
-5.1429 -1.3108 -2.0338 0.9775
-2.1210 -0.0000 -0.8681 0.9909
-2.1180 -0.1766 -0.8699 0.9909
-2.1174 -0.3556 -0.8787 0.9908
-2.1929 -0.5590 -0.9262 0.9903
-1.9177 -0.0000 -0.8358 0.9917
-1.9139 -0.1596 -0.8370 0.9917
-1.9050 -0.3200 -0.8419 0.9916
-4.4107 -1.5244 -2.0338 0.9798
-1.5655 -0.0000 -0.7246 0.9931
-1.6033 -0.1337 -0.7447 0.9929
-1.6111 -0.2706 -0.7562 0.9928
-1.5720 -0.4007 -0.7509 0.9929
-1.7645 -0.6099 -0.8642 0.9918
-1.3342 -0.0000 -0.6545 0.9941
-1.3149 -0.3352 -0.6656 0.9940
-1.2734 -0.4401 -0.6609 0.9940
-1.2004 -0.1001 -0.6249 0.9946
-1.1898 -0.1998 -0.6259 0.9946
-1.1648 -0.2969 -0.6236 0.9946
-1.1361 -0.3927 -0.6236 0.9946
-1.0757 -0.0000 -0.5891 0.9951
-1.0682 -0.1794 -0.5933 0.9951
-1.0434 -0.2660 -0.5897 0.9951
-0.9889 -0.0000 -0.5709 0.9954
-0.9623 -0.2453 -0.5733 0.9954
