ply
format ascii 1.0
element vertex 225
property float32 x
property float32 y
property float32 z
property float32 I
end_header
16.5508 -3.7823 -0.8610 0.9343
14.2476 9.0441 -0.8558 0.9346
13.7641 8.7372 -1.1954 0.9367
13.7247 8.7121 -1.5607 0.9368
13.4876 -10.5481 -2.0339 0.9334
16.4061 -3.7492 -1.9991 0.9345
16.9633 -2.3362 -2.0340 0.9333
17.1108 0.6635 -2.0341 0.9333
16.7321 3.6429 -2.0341 0.9333
14.4575 9.1773 -2.0341 0.9333
7.8826 15.2023 -2.0341 0.9333
10.4883 -9.8005 -2.0339 0.9437
11.3074 -8.8430 -2.0339 0.9437
12.0394 -7.8174 -2.0339 0.9437
12.6787 -6.7316 -2.0339 0.9437
13.2202 -5.5938 -2.0340 0.9437
13.6600 -4.4130 -2.0340 0.9437
13.9945 -3.1981 -2.0340 0.9437
14.0271 3.0539 -2.0341 0.9437
13.7054 4.2723 -2.0341 0.9437
13.2780 5.4577 -2.0341 0.9437
11.3989 8.7270 -2.0341 0.9437
10.5897 9.6930 -2.0341 0.9437
9.6989 10.5843 -2.0341 0.9437
7.7005 12.1161 -2.0341 0.9437
10.3548 -6.7236 -2.0339 0.9512
12.3320 -0.6054 -2.0340 0.9512
12.3376 0.4784 -2.0340 0.9512
12.0644 2.6266 -2.0340 0.9512
11.4200 4.6941 -2.0341 0.9512
10.9644 5.6774 -2.0341 0.9512
10.4243 6.6171 -2.0341 0.9512
9.1079 8.3367 -2.0341 0.9512
8.3418 9.1033 -2.0341 0.9512
7.9063 -7.3879 -2.0339 0.9569
8.5237 -6.6661 -2.0339 0.9569
10.2971 -3.3266 -2.0340 0.9569
10.5493 -2.4108 -2.0340 0.9569
10.7201 -1.4764 -2.0340 0.9569
10.8084 -0.5306 -2.0340 0.9569
10.5738 2.3021 -2.0340 0.9569
10.3313 3.2205 -2.0340 0.9569
9.6097 4.9760 -2.0340 0.9569
9.1364 5.7996 -2.0340 0.9569
7.3111 7.9785 -2.0341 0.9569
6.5832 8.5889 -2.0341 0.9569
5.8047 9.1331 -2.0341 0.9569
8.8616 -3.7495 -2.0339 0.9614
9.3805 -2.1437 -2.0340 0.9614
9.5324 -1.3128 -2.0340 0.9614
9.6152 0.3729 -2.0340 0.9614
9.5455 1.2146 -2.0340 0.9614
9.4022 2.0470 -2.0340 0.9614
8.1240 5.1570 -2.0340 0.9614
7.0982 6.4971 -2.0340 0.9614
6.5011 7.0945 -2.0340 0.9614
5.8538 7.6373 -2.0340 0.9614
5.1615 8.1212 -2.0340 0.9614
4.4295 8.5425 -2.0340 0.9614
6.8169 -5.3312 -2.0339 0.9651
7.2582 -4.7129 -2.0339 0.9651
7.6436 -4.0583 -2.0339 0.9651
8.2352 -2.6604 -2.0339 0.9651
8.4368 -1.9280 -2.0340 0.9651
8.6439 -0.4244 -2.0340 0.9651
8.6479 0.3353 -2.0340 0.9651
8.5852 1.0924 -2.0340 0.9651
8.4564 1.8411 -2.0340 0.9651
7.6853 3.9795 -2.0340 0.9651
7.3067 4.6382 -2.0340 0.9651
6.8718 5.2611 -2.0340 0.9651
5.8470 6.3808 -2.0340 0.9651
5.2649 6.8689 -2.0340 0.9651
5.7396 -5.3632 -2.0339 0.9681
6.1878 -4.8392 -2.0339 0.9681
6.9382 -3.6837 -2.0339 0.9681
7.4752 -2.4149 -2.0339 0.9681
7.6582 -1.7501 -2.0339 0.9681
7.7821 -1.0718 -2.0340 0.9681
7.8498 0.3044 -2.0340 0.9681
7.7929 0.9916 -2.0340 0.9681
7.6760 1.6712 -2.0340 0.9681
6.9760 3.6122 -2.0340 0.9681
5.7948 5.3041 -2.0340 0.9681
5.3073 5.7918 -2.0340 0.9681
4.2138 6.6301 -2.0340 0.9681
3.6162 6.9740 -2.0340 0.9681
5.6594 -4.4260 -2.0339 0.9706
6.3457 -3.3692 -2.0339 0.9706
7.1176 -0.9803 -2.0340 0.9706
7.1762 -0.3523 -2.0340 0.9706
7.0204 1.5284 -2.0340 0.9706
5.7049 4.3677 -2.0340 0.9706
5.2999 4.8511 -2.0340 0.9706
4.8541 5.2972 -2.0340 0.9706
3.8540 6.0638 -2.0340 0.9706
3.3073 6.3784 -2.0340 0.9706
5.2088 -4.0737 -2.0339 0.9727
5.5461 -3.6012 -2.0339 0.9727
6.0900 -2.5768 -2.0339 0.9727
6.5510 -0.9022 -2.0339 0.9727
6.6079 0.2562 -2.0340 0.9727
6.5600 0.8347 -2.0340 0.9727
6.3133 1.9680 -2.0340 0.9727
5.2508 4.0199 -2.0340 0.9727
4.8780 4.4649 -2.0340 0.9727
4.4677 4.8755 -2.0340 0.9727
3.5471 5.5811 -2.0340 0.9727
3.0440 5.8706 -2.0340 0.9727
4.8198 -3.7694 -2.0339 0.9745
5.1318 -3.3322 -2.0339 0.9745
5.8225 -1.8810 -2.0339 0.9745
5.9651 -1.3632 -2.0339 0.9745
6.0616 -0.8348 -2.0339 0.9745
6.1143 0.2371 -2.0340 0.9745
6.0700 0.7723 -2.0340 0.9745
5.8417 1.8210 -2.0340 0.9745
5.4337 2.8136 -2.0340 0.9745
5.1661 3.2793 -2.0340 0.9745
4.8586 3.7197 -2.0340 0.9745
3.7224 4.8565 -2.0340 0.9745
3.2821 5.1642 -2.0340 0.9745
2.8167 5.4322 -2.0340 0.9745
4.4802 -3.5038 -2.0339 0.9761
4.7702 -3.0974 -2.0339 0.9761
5.6808 -0.2789 -2.0339 0.9761
5.4300 1.6926 -2.0340 0.9761
5.2607 2.1623 -2.0340 0.9761
5.0508 2.6153 -2.0340 0.9761
4.8020 3.0482 -2.0340 0.9761
4.1956 3.8403 -2.0340 0.9761
3.8426 4.1934 -2.0340 0.9761
3.4601 4.5142 -2.0340 0.9761
2.6182 5.0493 -2.0340 0.9761
4.1807 -3.2696 -2.0339 0.9775
4.4514 -2.8904 -2.0339 0.9775
4.6877 -2.4889 -2.0339 0.9775
5.1741 -1.1824 -2.0339 0.9775
5.3012 -0.2603 -2.0339 0.9775
5.3036 0.2056 -2.0339 0.9775
5.1861 1.1291 -2.0340 0.9775
4.9091 2.0178 -2.0340 0.9775
4.4811 2.8445 -2.0340 0.9775
4.2143 3.2264 -2.0340 0.9775
3.5858 3.9132 -2.0340 0.9775
3.9145 -3.0614 -2.0339 0.9788
4.1680 -2.7064 -2.0339 0.9788
4.7289 -1.5278 -2.0339 0.9788
4.9232 -0.6780 -2.0339 0.9788
4.9299 0.6273 -2.0339 0.9787
4.8559 1.0572 -2.0340 0.9787
4.4132 2.2851 -2.0340 0.9787
3.3575 3.6640 -2.0340 0.9787
3.6762 -2.8750 -2.0339 0.9798
3.9142 -2.5415 -2.0339 0.9798
4.5497 -1.0397 -2.0339 0.9798
4.6233 -0.6368 -2.0339 0.9798
4.6635 0.1808 -2.0339 0.9798
4.6297 0.5891 -2.0339 0.9798
4.5602 0.9928 -2.0340 0.9798
4.3166 1.7743 -2.0340 0.9798
4.1444 2.1460 -2.0340 0.9798
3.9402 2.5012 -2.0340 0.9798
3.7057 2.8371 -2.0340 0.9798
3.4426 3.1511 -2.0340 0.9798
2.1483 4.1432 -2.0340 0.9798
3.8809 -2.0605 -2.0339 0.9808
4.0467 -1.7123 -2.0339 0.9808
4.1813 -1.3508 -2.0339 0.9808
4.0642 1.6705 -2.0340 0.9808
3.7098 2.3549 -2.0340 0.9808
3.4890 2.6712 -2.0340 0.9808
2.9686 3.2396 -2.0340 0.9808
2.6731 3.4875 -2.0340 0.9808
2.3570 3.7085 -2.0340 0.9808
3.0296 -2.8309 -2.0339 0.9817
3.8187 -1.6158 -2.0339 0.9817
3.9457 -1.2747 -2.0339 0.9817
4.1077 -0.5657 -2.0339 0.9817
4.1434 0.1606 -2.0339 0.9817
4.1133 0.5234 -2.0339 0.9817
4.0516 0.8821 -2.0339 0.9817
3.8352 1.5764 -2.0340 0.9817
3.6821 1.9066 -2.0340 0.9817
3.5007 2.2222 -2.0340 0.9817
3.2924 2.5206 -2.0340 0.9817
3.0587 2.7997 -2.0340 0.9817
1.9087 3.6811 -2.0340 0.9817
2.8646 -2.6768 -2.0339 0.9825
3.4628 -1.8385 -2.0339 0.9825
2.1369 -0.4883 -1.1371 0.9902
2.0931 -0.2883 -1.0961 0.9905
2.0773 0.0805 -1.0784 0.9907
2.1110 0.4596 -1.1208 0.9903
3.7430 1.1668 -2.0339 0.9825
3.6263 1.4905 -2.0339 0.9825
2.3851 3.1118 -2.0340 0.9825
2.1030 3.3089 -2.0340 0.9825
2.9252 -2.2877 -2.0339 0.9832
3.1145 -2.0224 -2.0339 0.9832
3.2799 -1.7414 -2.0339 0.9832
1.8878 -0.6099 -1.0866 0.9910
1.8575 -0.4245 -1.0436 0.9913
1.8528 -0.0910 -1.0160 0.9916
1.8446 0.2347 -1.0184 0.9916
3.4348 1.4118 -2.0339 0.9832
3.2977 1.7076 -2.0339 0.9832
3.1353 1.9902 -2.0339 0.9832
2.7393 2.5074 -2.0340 0.9832
1.7094 3.2968 -2.0340 0.9832
2.5740 -2.4052 -2.0339 0.9839
2.7750 -2.1702 -2.0339 0.9839
1.7650 -0.7469 -1.1065 0.9912
1.7224 -0.5565 -1.0450 0.9917
1.7149 -0.3919 -1.0156 0.9919
1.7236 -0.0846 -0.9963 0.9921
1.7149 0.3733 -1.0133 0.9919
1.7198 0.5361 -1.0401 0.9917
3.1284 1.6199 -2.0339 0.9839
2.9743 1.8880 -2.0339 0.9839
2.7973 2.1416 -2.0339 0.9839
2.5987 2.3786 -2.0339 0.9839
2.3801 2.5973 -2.0340 0.9839
2.1431 2.7961 -2.0340 0.9839
1.6216 3.1275 -2.0339 0.9839
