ply
format ascii 1.0
element vertex 231
property float32 x
property float32 y
property float32 z
property float32 I
end_header
-11.5870 -8.3193 -1.0459 0.9444
-11.2756 -8.0957 -1.6489 0.9456
-12.9625 -11.1836 -2.0336 0.9334
-11.9153 -12.2933 -2.0336 0.9334
-10.7734 -13.3054 -2.0336 0.9334
-8.2426 -15.0054 -2.0336 0.9334
-5.4504 -16.2295 -2.0336 0.9334
-0.9672 -17.0930 -2.0337 0.9334
0.5586 -17.1113 -2.0337 0.9334
3.5848 -16.7411 -2.0337 0.9334
1.9214 -6.2091 -0.7721 0.9742
2.4786 -6.0427 -0.7758 0.9740
3.1011 -5.9797 -0.8001 0.9732
9.2040 -14.4365 -2.0337 0.9334
11.6188 -12.5752 -2.0337 0.9334
12.6924 -11.4907 -2.0338 0.9334
13.6652 -10.3150 -2.0338 0.9334
-9.9894 -10.3063 -2.0337 0.9437
-9.0320 -11.1548 -2.0337 0.9437
-8.0029 -11.9147 -2.0337 0.9437
-6.9102 -12.5799 -2.0337 0.9437
-5.7628 -13.1453 -2.0337 0.9437
-4.5694 -13.6062 -2.0337 0.9437
-0.8109 -14.3302 -2.0337 0.9437
1.7437 -14.2468 -2.0337 0.9437
3.0054 -14.0350 -2.0337 0.9437
7.7162 -12.1029 -2.0337 0.9437
9.7407 -10.5425 -2.0337 0.9437
10.6408 -9.6334 -2.0338 0.9437
-9.3468 -8.0640 -2.0337 0.9512
-7.7683 -9.5941 -2.0337 0.9512
-5.9434 -10.8198 -2.0337 0.9512
-1.7921 -12.2141 -2.0337 0.9512
0.4027 -12.3383 -2.0337 0.9512
1.4998 -12.2535 -2.0337 0.9512
1.8659 -6.0297 -1.0398 0.9747
2.3877 -5.8209 -1.0365 0.9748
7.5371 -9.7773 -2.0337 0.9512
8.3778 -9.0674 -2.0337 0.9512
9.1519 -8.2855 -2.0338 0.9512
9.8534 -7.4377 -2.0338 0.9512
-8.1921 -7.0678 -2.0337 0.9569
-6.0329 -8.9817 -2.0337 0.9569
-5.2092 -9.4831 -2.0337 0.9569
-4.3441 -9.9093 -2.0337 0.9569
-3.4446 -10.2568 -2.0337 0.9569
-2.5176 -10.5227 -2.0337 0.9569
-1.5707 -10.7052 -2.0337 0.9569
0.3530 -10.8140 -2.0337 0.9569
1.3145 -10.7397 -2.0337 0.9569
2.3872 -5.8197 -1.1823 0.9747
3.0307 -5.8440 -1.2374 0.9736
5.8167 -9.1235 -2.0337 0.9569
7.3428 -7.9472 -2.0337 0.9569
8.0212 -7.2618 -2.0338 0.9569
-7.2846 -6.2848 -2.0337 0.9614
-5.3645 -7.9866 -2.0337 0.9614
-4.6321 -8.4325 -2.0337 0.9614
-3.8628 -8.8115 -2.0337 0.9614
-0.5436 -9.6057 -2.0337 0.9614
1.3608 -6.3547 -1.3737 0.9738
1.8550 -5.9946 -1.3264 0.9747
2.3759 -5.7922 -1.3233 0.9747
2.9179 -5.6265 -1.3398 0.9744
6.5293 -7.0667 -2.0337 0.9614
7.1326 -6.4573 -2.0338 0.9614
7.6793 -5.7966 -2.0338 0.9614
-5.4453 -6.7250 -2.0337 0.9651
-4.8249 -7.1832 -2.0337 0.9651
-0.4889 -8.6394 -2.0337 0.9651
1.0513 -8.5891 -2.0337 0.9651
1.3209 -6.1687 -1.4826 0.9744
1.8137 -5.8612 -1.4420 0.9751
2.9554 -5.6988 -1.5088 0.9740
4.6520 -7.2966 -2.0337 0.9651
-6.3804 -4.5810 -2.0337 0.9681
-5.4666 -5.6401 -2.0337 0.9681
-4.9428 -6.1044 -2.0337 0.9681
-4.3796 -6.5203 -2.0337 0.9681
-3.1536 -7.1937 -2.0337 0.9681
-1.8277 -7.6390 -2.0337 0.9681
-1.1403 -7.7714 -2.0337 0.9681
-0.4437 -7.8421 -2.0337 0.9681
0.2562 -7.8505 -2.0337 0.9681
0.9543 -7.7965 -2.0337 0.9681
1.3181 -6.1555 -1.6299 0.9743
1.8156 -5.8672 -1.5902 0.9749
2.4510 -5.9751 -1.6722 0.9737
4.7956 -6.2209 -2.0337 0.9681
5.3305 -5.7692 -2.0338 0.9681
-5.4393 -4.6928 -2.0337 0.9706
-4.5207 -5.5831 -2.0337 0.9706
-4.0056 -5.9635 -2.0337 0.9706
-2.8843 -6.5794 -2.0337 0.9706
-1.0429 -7.1078 -2.0337 0.9706
-0.4059 -7.1724 -2.0337 0.9706
0.2344 -7.1801 -2.0337 0.9706
0.8728 -7.1307 -2.0337 0.9706
2.5124 -6.1250 -1.8741 0.9729
3.0814 -5.9418 -1.8948 0.9726
3.8620 -6.0576 -2.0337 0.9706
4.3861 -5.6897 -2.0337 0.9706
4.8753 -5.2766 -2.0338 0.9706
5.3257 -4.8215 -2.0338 0.9706
5.7339 -4.3282 -2.0338 0.9706
-5.3710 -3.8563 -2.0337 0.9727
-4.6018 -4.7478 -2.0337 0.9727
-4.1607 -5.1387 -2.0337 0.9727
-3.6867 -5.4887 -2.0337 0.9727
-3.1834 -5.7952 -2.0337 0.9727
-2.1050 -6.2680 -2.0337 0.9727
-1.5386 -6.4305 -2.0337 0.9727
0.2157 -6.6085 -2.0337 0.9727
0.8032 -6.5631 -2.0337 0.9727
2.5093 -6.1174 -2.0337 0.9727
3.5546 -5.5754 -2.0337 0.9727
4.4871 -4.8565 -2.0338 0.9727
-3.4114 -5.0788 -2.0337 0.9745
-2.9456 -5.3624 -2.0337 0.9745
-0.3457 -6.1084 -2.0337 0.9745
0.1996 -6.1149 -2.0337 0.9745
1.2811 -5.9826 -2.0337 0.9745
2.3219 -5.6605 -2.0337 0.9745
3.2891 -5.1589 -2.0337 0.9745
4.1520 -4.4938 -2.0338 0.9745
4.5357 -4.1062 -2.0338 0.9745
4.8832 -3.6861 -2.0338 0.9745
-4.6196 -3.3168 -2.0337 0.9761
-3.9580 -4.0836 -2.0337 0.9761
-2.2833 -5.2085 -2.0337 0.9761
-1.3233 -5.5309 -2.0337 0.9761
-0.3213 -5.6779 -2.0337 0.9761
0.1855 -5.6840 -2.0337 0.9761
0.6909 -5.6449 -2.0337 0.9761
1.1908 -5.5610 -2.0337 0.9761
2.1583 -5.2616 -2.0337 0.9761
2.6182 -5.0486 -2.0337 0.9761
3.0573 -4.7954 -2.0337 0.9761
-3.3395 -4.1244 -2.0337 0.9775
-2.1307 -4.8604 -2.0337 0.9775
-1.6896 -5.0308 -2.0337 0.9775
-1.2349 -5.1613 -2.0337 0.9775
-0.2998 -5.2985 -2.0337 0.9775
2.0140 -4.9100 -2.0337 0.9775
2.8530 -4.4749 -2.0337 0.9775
3.2401 -4.2031 -2.0337 0.9775
3.9343 -3.5618 -2.0338 0.9775
-3.4584 -3.5681 -2.0337 0.9788
-3.1270 -3.8619 -2.0337 0.9788
-1.9950 -4.5510 -2.0337 0.9788
-1.1562 -4.8327 -2.0337 0.9788
-0.7214 -4.9164 -2.0337 0.9788
-0.2807 -4.9612 -2.0337 0.9788
0.6037 -4.9323 -2.0337 0.9788
1.4690 -4.7470 -2.0337 0.9788
2.6714 -4.1900 -2.0337 0.9788
3.0338 -3.9355 -2.0337 0.9788
3.6838 -3.3350 -2.0338 0.9788
3.9661 -2.9938 -2.0338 0.9788
-3.5332 -3.0483 -2.0337 0.9798
-2.9365 -3.6267 -2.0337 0.9798
-1.4856 -4.4237 -2.0337 0.9798
0.1522 -4.6640 -2.0337 0.9798
0.5669 -4.6319 -2.0337 0.9798
0.9771 -4.5630 -2.0337 0.9798
1.3795 -4.4579 -2.0337 0.9798
2.5087 -3.9348 -2.0337 0.9798
3.7246 -2.8114 -2.0338 0.9798
-3.5689 -2.5625 -2.0337 0.9808
-2.4498 -3.6472 -2.0337 0.9808
-1.7640 -4.0239 -2.0337 0.9808
-1.0223 -4.2730 -2.0337 0.9808
0.5338 -4.3610 -2.0337 0.9808
0.9200 -4.2962 -2.0337 0.9808
2.9816 -3.2271 -2.0338 0.9808
-3.3679 -2.4180 -2.0337 0.9817
-2.3118 -3.4417 -2.0337 0.9817
-1.6646 -3.7972 -2.0337 0.9817
-0.9647 -4.0322 -2.0337 0.9817
-0.2342 -4.1394 -2.0337 0.9817
0.5037 -4.1153 -2.0337 0.9817
0.8681 -4.0541 -2.0337 0.9817
1.2257 -3.9607 -2.0337 0.9817
2.5314 -3.2837 -2.0338 0.9817
2.8137 -3.0452 -2.0338 0.9817
3.0736 -2.7826 -2.0338 0.9817
3.3092 -2.4979 -2.0338 0.9817
-2.9682 -2.5608 -2.0337 0.9825
-2.4669 -3.0467 -2.0337 0.9825
-2.1858 -3.2543 -2.0337 0.9825
-1.8874 -3.4359 -2.0337 0.9825
-1.5739 -3.5904 -2.0337 0.9825
-0.9122 -3.8126 -2.0337 0.9825
-0.5691 -3.8787 -2.0337 0.9825
-0.2215 -3.9140 -2.0337 0.9825
0.4763 -3.8912 -2.0337 0.9825
0.8208 -3.8333 -2.0337 0.9825
1.1589 -3.7450 -2.0337 0.9825
1.4878 -3.6270 -2.0337 0.9825
1.8048 -3.4801 -2.0337 0.9825
2.1075 -3.3056 -2.0337 0.9825
2.3934 -3.1048 -2.0338 0.9825
2.6604 -2.8794 -2.0338 0.9825
2.9062 -2.6311 -2.0338 0.9825
3.1289 -2.3618 -2.0338 0.9825
-2.3367 -2.8858 -2.0337 0.9832
-2.0704 -3.0824 -2.0337 0.9832
-1.7877 -3.2545 -2.0337 0.9832
-1.4908 -3.4008 -2.0337 0.9832
-1.1821 -3.5200 -2.0337 0.9832
-0.2098 -3.7073 -2.0337 0.9832
0.1211 -3.7112 -2.0337 0.9832
1.4092 -3.4354 -2.0337 0.9832
1.7095 -3.2963 -2.0337 0.9832
2.5199 -2.7273 -2.0338 0.9832
2.7528 -2.4921 -2.0338 0.9832
-2.8614 -2.0544 -2.0337 0.9839
-2.6671 -2.3011 -2.0337 0.9839
-1.9641 -2.9241 -2.0337 0.9839
-1.4143 -3.2261 -2.0337 0.9839
-0.8196 -3.4258 -2.0337 0.9839
-0.5114 -3.4852 -2.0337 0.9839
-0.1990 -3.5169 -2.0337 0.9839
0.1149 -3.5207 -2.0337 0.9839
0.7376 -3.4444 -2.0337 0.9839
1.0413 -3.3651 -2.0337 0.9839
1.3368 -3.2590 -2.0337 0.9839
1.6217 -3.1271 -2.0337 0.9839
2.1507 -2.7898 -2.0338 0.9839
2.3905 -2.5872 -2.0338 0.9839
2.6114 -2.3641 -2.0338 0.9839
