ply
format ascii 1.0
element vertex 200
property float32 x
property float32 y
property float32 z
property float32 I
end_header
-12.5596 13.0477 3.1934 0.9291
-11.6158 12.0671 2.1811 0.9347
-11.3972 14.1311 1.9495 0.9296
-11.8561 12.3168 1.8358 0.9335
-11.5900 12.0404 1.4147 0.9351
-17.5324 5.0162 -0.9248 0.9296
-17.2666 4.9402 -1.3168 0.9305
-11.8746 12.3361 -2.0339 0.9334
-13.8434 10.0763 -2.0339 0.9334
-14.6721 8.8260 -2.0339 0.9334
-16.4611 4.7097 -2.0338 0.9334
-16.8100 3.2510 -2.0338 0.9334
-17.0298 1.7673 -2.0338 0.9334
-16.9036 -2.7190 -2.0337 0.9334
-16.1704 -5.6247 -2.0337 0.9334
-14.9418 -8.3580 -2.0337 0.9334
-7.9995 11.9196 -2.0340 0.9437
-9.9552 10.3420 -2.0339 0.9437
-14.0929 2.7255 -2.0338 0.9437
-14.2772 1.4816 -2.0338 0.9437
-14.3520 0.2264 -2.0338 0.9437
-14.3166 -1.0305 -2.0338 0.9437
-14.1714 -2.2795 -2.0338 0.9437
-13.5568 -4.7156 -2.0337 0.9437
-13.0920 -5.8839 -2.0337 0.9437
-12.5267 -7.0071 -2.0337 0.9437
-9.3078 8.1114 -2.0339 0.9512
-9.9819 7.2656 -2.0339 0.9512
-11.0957 5.4137 -2.0339 0.9512
-11.5269 4.4218 -2.0339 0.9512
-12.1211 2.3442 -2.0338 0.9512
-12.2797 1.2743 -2.0338 0.9512
-12.3136 -0.8863 -2.0338 0.9512
-11.9703 -3.0198 -2.0338 0.9512
-10.7741 -6.0268 -2.0337 0.9512
-6.0302 8.9852 -2.0339 0.9569
-10.1028 3.8755 -2.0339 0.9569
-10.4032 2.9765 -2.0338 0.9569
-10.7626 1.1169 -2.0338 0.9569
-10.8190 0.1707 -2.0338 0.9569
-10.7924 -0.7768 -2.0338 0.9569
-10.6829 -1.7184 -2.0338 0.9569
-10.4915 -2.6468 -2.0338 0.9569
-10.2196 -3.5548 -2.0338 0.9569
-9.8693 -4.4355 -2.0338 0.9569
-9.4432 -5.2822 -2.0338 0.9569
-5.3621 7.9897 -2.0339 0.9614
-6.6730 6.9322 -2.0339 0.9614
-7.2540 6.3216 -2.0339 0.9614
-8.2450 4.9598 -2.0339 0.9614
-8.9835 3.4462 -2.0339 0.9614
-9.2506 2.6467 -2.0339 0.9614
-9.6204 0.1518 -2.0338 0.9614
-9.5968 -0.6908 -2.0338 0.9614
-9.4994 -1.5280 -2.0338 0.9614
-9.0875 -3.1609 -2.0338 0.9614
-8.7759 -3.9441 -2.0338 0.9614
-4.8226 7.1859 -2.0339 0.9651
-6.5243 5.6856 -2.0339 0.9651
-6.9968 5.0928 -2.0339 0.9651
-7.4157 4.4609 -2.0339 0.9651
-7.7775 3.7947 -2.0339 0.9651
-8.3200 2.3804 -2.0339 0.9651
-8.6075 0.8932 -2.0338 0.9651
-8.6527 0.1365 -2.0338 0.9651
-8.6313 -0.6213 -2.0338 0.9651
-7.8931 -3.5474 -2.0338 0.9651
-4.3776 6.5227 -2.0339 0.9681
-4.9316 6.1146 -2.0339 0.9681
-5.4478 5.6595 -2.0339 0.9681
-5.9222 5.1609 -2.0339 0.9681
-6.3511 4.6228 -2.0339 0.9681
-6.7313 4.0492 -2.0339 0.9681
-7.0598 3.4446 -2.0339 0.9681
-7.7123 1.4915 -2.0339 0.9681
-7.8348 -0.5640 -2.0338 0.9681
-7.7554 -1.2475 -2.0338 0.9681
-7.6164 -1.9214 -2.0338 0.9681
-7.4190 -2.5806 -2.0338 0.9681
-7.1647 -3.2200 -2.0338 0.9681
-6.8554 -3.8347 -2.0338 0.9681
-4.0037 5.9657 -2.0339 0.9706
-5.8087 4.2280 -2.0339 0.9706
-6.1564 3.7034 -2.0339 0.9706
-6.4569 3.1504 -2.0339 0.9706
-6.7079 2.5732 -2.0339 0.9706
-6.9073 1.9762 -2.0339 0.9706
-7.0537 1.3642 -2.0339 0.9706
-7.1460 0.7416 -2.0338 0.9706
-7.1834 0.1133 -2.0338 0.9706
-7.1658 -0.5158 -2.0338 0.9706
-3.6850 5.4908 -2.0339 0.9727
-4.1514 5.1472 -2.0339 0.9727
-4.9853 4.3445 -2.0339 0.9727
-5.3463 3.8915 -2.0339 0.9727
-5.6663 3.4086 -2.0339 0.9727
-5.9429 2.8996 -2.0339 0.9727
-6.5771 0.6825 -2.0339 0.9727
-6.5285 -1.0502 -2.0338 0.9727
-6.0312 -2.7106 -2.0338 0.9727
-5.7709 -3.2280 -2.0338 0.9727
-3.4098 5.0807 -2.0339 0.9745
-4.6129 4.0200 -2.0339 0.9745
-5.4990 2.6830 -2.0339 0.9745
-5.7127 2.1915 -2.0339 0.9745
-5.8826 1.6831 -2.0339 0.9745
-6.0859 0.6316 -2.0339 0.9745
-6.1178 0.0965 -2.0338 0.9745
-6.1028 -0.4393 -2.0338 0.9745
-6.0409 -0.9717 -2.0338 0.9745
-5.5807 -2.5082 -2.0338 0.9745
-3.1695 4.7226 -2.0339 0.9761
-3.5706 4.4271 -2.0339 0.9761
-3.9443 4.0976 -2.0339 0.9761
-4.2879 3.7367 -2.0339 0.9761
-4.8737 2.9318 -2.0339 0.9761
-5.1115 2.4939 -2.0339 0.9761
-5.3102 2.0370 -2.0339 0.9761
-5.6867 0.0897 -2.0339 0.9761
-5.6727 -0.4083 -2.0338 0.9761
-5.5146 -1.3912 -2.0338 0.9761
-5.3716 -1.8685 -2.0338 0.9761
-5.1875 -2.3314 -2.0338 0.9761
-3.3320 4.1312 -2.0339 0.9775
-4.0012 3.4869 -2.0339 0.9775
-4.5479 2.7358 -2.0339 0.9775
-4.7699 2.3273 -2.0339 0.9775
-4.9552 1.9009 -2.0339 0.9775
-5.2789 0.5478 -2.0339 0.9775
-5.3066 0.0837 -2.0339 0.9775
-5.2936 -0.3810 -2.0339 0.9775
-5.1461 -1.2982 -2.0338 0.9775
-2.7693 4.1264 -2.0339 0.9788
-3.4464 3.5803 -2.0339 0.9788
-4.0179 2.9245 -2.0339 0.9788
-2.1223 0.0335 -0.8687 0.9909
-4.6935 -1.6326 -2.0338 0.9788
-4.5327 -2.0371 -2.0338 0.9788
-2.6007 3.8751 -2.0339 0.9798
-2.9298 3.6326 -2.0339 0.9798
-3.5183 3.0661 -2.0339 0.9798
-4.1942 2.0464 -2.0339 0.9798
-2.0168 0.5770 -0.9142 0.9909
-1.9049 0.3684 -0.8456 0.9916
-1.9205 -0.4845 -0.8632 0.9914
-4.4077 -1.5332 -2.0338 0.9798
-4.0728 -2.2782 -2.0338 0.9798
-2.4486 3.6485 -2.0339 0.9808
-3.0472 3.1656 -2.0339 0.9808
-3.3126 2.8868 -2.0339 0.9808
-3.9489 1.9267 -2.0339 0.9808
-4.1024 1.5738 -2.0339 0.9808
-1.5494 0.4433 -0.7460 0.9929
-1.6033 0.3100 -0.7559 0.9928
-1.6075 0.1668 -0.7481 0.9929
-1.6107 -0.2591 -0.7551 0.9928
-4.0077 -1.8012 -2.0338 0.9808
-3.8346 -2.1450 -2.0338 0.9808
-2.3106 3.4429 -2.0339 0.9817
-2.6031 3.2275 -2.0339 0.9817
-2.8755 2.9873 -2.0339 0.9817
-3.7265 1.8182 -2.0339 0.9817
-1.3022 0.3725 -0.6644 0.9940
-1.3534 0.1404 -0.6674 0.9940
-1.3407 0.0211 -0.6577 0.9940
-1.3523 -0.0974 -0.6650 0.9940
-1.3456 -0.2165 -0.6685 0.9939
-1.3161 -0.3320 -0.6658 0.9940
-3.7819 -1.6997 -2.0338 0.9817
-3.6186 -2.0242 -2.0338 0.9817
-2.1848 3.2554 -2.0339 0.9825
-2.4613 3.0517 -2.0339 0.9825
-2.9557 2.5758 -2.0339 0.9825
-3.3595 2.0209 -2.0339 0.9825
-3.5235 1.7191 -2.0339 0.9825
-1.1946 0.0188 -0.6198 0.9946
-1.1916 -0.1917 -0.6261 0.9946
-1.1656 -0.2941 -0.6236 0.9946
-1.1355 -0.3950 -0.6237 0.9946
-2.0694 3.0835 -2.0339 0.9832
-2.3313 2.8905 -2.0339 0.9832
-2.5754 2.6754 -2.0339 0.9832
-2.7996 2.4397 -2.0339 0.9832
-3.0024 2.1854 -2.0339 0.9832
-1.0376 0.2968 -0.5911 0.9951
-1.0788 0.1119 -0.5941 0.9951
-1.0780 0.0170 -0.5905 0.9951
-0.9977 -0.4484 -0.5991 0.9950
-3.2408 -1.8128 -2.0339 0.9832
-1.9631 2.9251 -2.0339 0.9839
-2.2116 2.7421 -2.0339 0.9839
-2.8482 2.0731 -2.0339 0.9839
-0.9158 0.4468 -0.5883 0.9953
-0.9418 0.3612 -0.5824 0.9954
-0.9761 0.1887 -0.5740 0.9954
-0.9877 0.1025 -0.5733 0.9954
-0.9895 -0.0713 -0.5728 0.9954
-0.9630 -0.2430 -0.5734 0.9954
-0.9487 -0.3301 -0.5800 0.9954
-0.9259 -0.4162 -0.5861 0.9953
