ply
format ascii 1.0
element vertex 215
property float32 x
property float32 y
property float32 z
property float32 I
end_header
3.4596 18.5228 2.8867 0.9266
1.7266 17.6696 2.7198 0.9307
3.4162 18.2912 2.4231 0.9277
-10.9277 13.3012 2.2417 0.9329
-11.7060 11.9523 2.1786 0.9347
3.4723 18.5916 2.0309 0.9267
-12.0664 12.3204 1.8518 0.9330
3.3247 17.8012 1.5330 0.9299
1.8187 18.6124 1.5831 0.9277
1.7286 17.6909 1.1022 0.9312
3.5684 19.1056 0.7664 0.9251
1.8529 18.9627 0.7513 0.9266
3.4020 18.2151 0.3130 0.9286
3.3400 17.8829 -0.1024 0.9298
-1.8854 7.3359 -0.7272 0.9700
9.9616 13.9288 -2.0341 0.9333
8.7101 14.7438 -2.0341 0.9333
7.3923 15.4466 -2.0341 0.9333
6.0184 16.0319 -2.0341 0.9333
4.5987 16.4952 -2.0341 0.9333
3.1439 16.8331 -2.0341 0.9333
1.6653 17.0429 -2.0341 0.9333
-1.8918 7.3611 -0.9028 0.9698
-5.6909 16.1501 -2.0340 0.9333
-7.0764 15.5928 -2.0340 0.9334
-8.4080 14.9167 -2.0340 0.9334
-13.0009 11.1425 -2.0339 0.9334
8.3512 11.6771 -2.0341 0.9437
3.8552 13.8286 -2.0341 0.9437
2.6357 14.1119 -2.0341 0.9437
1.3961 14.2878 -2.0341 0.9437
-1.2403 7.4798 -1.0743 0.9698
-1.8761 7.3000 -1.0680 0.9700
-5.9325 13.0721 -2.0340 0.9437
-7.0488 12.5054 -2.0340 0.9437
-8.1115 11.8437 -2.0340 0.9437
-10.0441 10.2555 -2.0339 0.9437
-11.6718 8.3561 -2.0339 0.9437
7.1827 10.0431 -2.0341 0.9512
5.3302 11.1375 -2.0341 0.9512
4.3395 11.5595 -2.0341 0.9512
1.2008 12.2886 -2.0340 0.9512
-1.8236 7.0955 -1.2069 0.9707
-6.0625 10.7556 -2.0340 0.9512
-6.9766 10.1865 -2.0340 0.9512
-7.8375 9.5398 -2.0339 0.9512
-8.6388 8.8206 -2.0339 0.9512
-10.0387 7.1869 -2.0339 0.9512
-10.6266 6.2849 -2.0339 0.9512
6.2952 8.8022 -2.0341 0.9569
5.5043 9.3172 -2.0341 0.9569
2.9061 10.4241 -2.0340 0.9569
1.0524 10.7702 -2.0340 0.9569
-0.5909 7.6507 -1.4423 0.9693
-1.1922 7.1905 -1.3700 0.9708
-4.4720 9.8540 -2.0340 0.9569
-6.8692 8.3612 -2.0339 0.9569
-7.5715 7.7308 -2.0339 0.9569
-8.7985 6.2990 -2.0339 0.9569
-9.3138 5.5084 -2.0339 0.9569
4.8944 8.2849 -2.0340 0.9614
4.1539 8.6798 -2.0340 0.9614
0.9358 9.5769 -2.0340 0.9614
0.0978 9.6220 -2.0340 0.9614
-0.5719 7.4049 -1.5699 0.9701
-1.1825 7.1314 -1.5280 0.9709
-2.6022 7.3847 -1.6551 0.9685
-4.7248 8.3824 -2.0340 0.9614
-6.1081 7.4348 -2.0339 0.9614
-7.3060 6.2615 -2.0339 0.9614
-8.2819 4.8981 -2.0339 0.9614
4.4020 7.4514 -2.0340 0.9651
2.3241 8.3366 -2.0340 0.9651
1.5889 8.5074 -2.0340 0.9651
0.8416 8.6134 -2.0340 0.9651
0.0880 8.6540 -2.0340 0.9651
-1.2134 7.3182 -1.7434 0.9700
-2.8762 8.1624 -2.0340 0.9651
-4.2495 7.5391 -2.0339 0.9651
-6.0553 6.1827 -2.0339 0.9651
-6.5710 5.6316 -2.0339 0.9651
3.9957 6.7637 -2.0340 0.9681
3.3912 7.0861 -2.0340 0.9681
2.7609 7.3546 -2.0340 0.9681
2.1096 7.5672 -2.0340 0.9681
1.4423 7.7222 -2.0340 0.9681
0.0798 7.8553 -2.0340 0.9681
-1.2850 7.7498 -2.0340 0.9681
-1.9554 7.6084 -2.0340 0.9681
-3.2464 7.1534 -2.0340 0.9681
-4.9866 6.0697 -2.0339 0.9681
-5.9645 5.1119 -2.0339 0.9681
-6.3872 4.5728 -2.0339 0.9681
-6.7614 3.9988 -2.0339 0.9681
3.6545 6.1861 -2.0340 0.9706
3.1016 6.4810 -2.0340 0.9706
2.5252 6.7266 -2.0340 0.9706
0.6987 7.1508 -2.0340 0.9706
-0.5532 7.1635 -2.0340 0.9706
-1.7884 6.9586 -2.0340 0.9706
-2.3879 6.7763 -2.0340 0.9706
-2.9692 6.5425 -2.0339 0.9706
-5.4552 4.6754 -2.0339 0.9706
3.8469 5.3789 -2.0340 0.9727
3.3636 5.6936 -2.0340 0.9727
2.3241 6.1911 -2.0340 0.9727
1.2141 6.5005 -2.0340 0.9727
0.6431 6.5815 -2.0340 0.9727
-0.5092 6.5932 -2.0340 0.9727
-1.0817 6.5237 -2.0340 0.9727
-3.2470 5.7606 -2.0339 0.9727
-4.1977 5.1095 -2.0339 0.9727
-4.6269 4.7243 -2.0339 0.9727
-5.0209 4.3031 -2.0339 0.9727
3.5595 4.9771 -2.0340 0.9745
3.1123 5.2683 -2.0340 0.9745
1.6432 5.8942 -2.0340 0.9745
0.5951 6.0900 -2.0340 0.9745
0.0622 6.1186 -2.0340 0.9745
-0.4711 6.1007 -2.0340 0.9745
-1.0009 6.0365 -2.0340 0.9745
-2.0336 5.7711 -2.0339 0.9745
-2.5287 5.5719 -2.0339 0.9745
-3.4575 5.0483 -2.0339 0.9745
-3.8842 4.7278 -2.0339 0.9745
-4.2813 4.3714 -2.0339 0.9745
-4.9752 3.5618 -2.0339 0.9745
3.3087 4.6263 -2.0340 0.9761
2.8930 4.8970 -2.0340 0.9761
1.0442 5.5910 -2.0340 0.9761
0.0579 5.6874 -2.0340 0.9761
-0.9304 5.6111 -2.0340 0.9761
-1.4157 5.5086 -2.0339 0.9761
-1.8903 5.3643 -2.0339 0.9761
-4.3185 3.7012 -2.0339 0.9761
-4.6245 3.3108 -2.0339 0.9761
-4.8954 2.8953 -2.0339 0.9761
3.0875 4.3171 -2.0340 0.9775
1.4253 5.1126 -2.0340 0.9775
0.9745 5.2174 -2.0340 0.9775
0.5162 5.2824 -2.0340 0.9775
0.0539 5.3073 -2.0340 0.9775
-0.4087 5.2918 -2.0340 0.9775
-1.7639 5.0058 -2.0339 0.9775
-2.1934 4.8331 -2.0339 0.9775
-3.3692 4.1010 -2.0339 0.9775
-4.0299 3.4538 -2.0339 0.9775
-4.3154 3.0895 -2.0339 0.9775
-4.5682 2.7018 -2.0339 0.9775
2.8910 4.0423 -2.0340 0.9787
2.5278 4.2788 -2.0340 0.9787
1.3346 4.7871 -2.0340 0.9787
0.4833 4.9461 -2.0340 0.9787
0.0505 4.9694 -2.0340 0.9787
-1.2370 4.8132 -2.0339 0.9788
-1.6516 4.6871 -2.0339 0.9788
-4.0407 2.8928 -2.0339 0.9788
2.3738 4.0182 -2.0340 0.9798
1.2533 4.4956 -2.0340 0.9798
0.4539 4.6449 -2.0340 0.9798
-0.7634 4.6041 -2.0339 0.9798
-2.2916 4.0655 -2.0339 0.9798
-3.2654 3.3342 -2.0339 0.9798
-3.5435 3.0370 -2.0339 0.9798
-4.0169 2.3757 -2.0339 0.9798
2.5561 3.5741 -2.0340 0.9808
1.8969 3.9636 -2.0340 0.9808
-0.3383 4.3810 -2.0339 0.9808
-0.7188 4.3349 -2.0339 0.9808
-1.0937 4.2557 -2.0339 0.9808
-1.4604 4.1443 -2.0339 0.9808
-2.7893 3.3952 -2.0339 0.9808
-3.0745 3.1392 -2.0339 0.9808
-3.3363 2.8594 -2.0339 0.9808
-3.7820 2.2368 -2.0339 0.9808
2.4121 3.3727 -2.0340 0.9817
2.1091 3.5700 -2.0340 0.9817
0.4032 4.1268 -2.0340 0.9817
-0.3193 4.1342 -2.0339 0.9817
-1.7136 3.7758 -2.0339 0.9817
-2.0360 3.6121 -2.0339 0.9817
-2.6321 3.2038 -2.0339 0.9817
-2.9012 2.9623 -2.0339 0.9817
-3.1483 2.6983 -2.0339 0.9817
1.6925 3.5365 -2.0340 0.9825
1.0529 3.7766 -2.0340 0.9825
-0.3019 3.9090 -2.0339 0.9825
-0.6413 3.8678 -2.0339 0.9825
-0.9759 3.7972 -2.0339 0.9825
-1.6202 3.5701 -2.0339 0.9825
-1.9251 3.4154 -2.0339 0.9825
-2.2154 3.2346 -2.0339 0.9825
-2.7432 2.8010 -2.0339 0.9825
-3.1878 2.2822 -2.0339 0.9825
1.6031 3.3497 -2.0340 0.9832
1.3052 3.4767 -2.0340 0.9832
0.3611 3.6960 -2.0339 0.9832
0.0377 3.7134 -2.0339 0.9832
-0.6074 3.6636 -2.0339 0.9832
-0.9243 3.5967 -2.0339 0.9832
-1.5346 3.3816 -2.0339 0.9832
-2.0984 3.0638 -2.0339 0.9832
-2.3573 2.8693 -2.0339 0.9832
-2.5984 2.6530 -2.0339 0.9832
-3.0195 2.1617 -2.0339 0.9832
2.0493 2.8655 -2.0340 0.9839
1.7919 3.0332 -2.0339 0.9839
0.6468 3.4630 -2.0339 0.9839
-0.2713 3.5124 -2.0339 0.9839
-0.5763 3.4754 -2.0339 0.9839
-1.7298 3.0689 -2.0339 0.9839
-2.2363 2.7220 -2.0339 0.9839
-2.4649 2.5168 -2.0339 0.9839
-2.6748 2.2925 -2.0339 0.9839
-3.0321 1.7933 -2.0339 0.9839
