ply
format ascii 1.0
element vertex 252
property float32 x
property float32 y
property float32 z
property float32 I
end_header
16.4131 -3.8583 -0.8551 0.9347
16.2765 -3.8262 -1.2260 0.9351
2.4439 -6.2041 -0.6402 0.9736
-1.0821 -17.0865 -2.0337 0.9334
1.9161 -17.0134 -2.0337 0.9334
3.3989 -16.7803 -2.0337 0.9334
1.8419 -6.2278 -0.7715 0.9742
2.4370 -6.1867 -0.7898 0.9736
2.9594 -5.9293 -0.7872 0.9737
8.9587 -14.5910 -2.0338 0.9334
10.2022 -13.7504 -2.0338 0.9334
12.4453 -11.7594 -2.0339 0.9334
15.7290 -6.7669 -2.0340 0.9334
16.4674 -3.8711 -2.0094 0.9341
17.1148 0.5514 -2.0341 0.9333
-2.1583 -14.1902 -2.0337 0.9437
-0.9071 -14.3248 -2.0337 0.9437
0.3510 -14.3493 -2.0337 0.9437
1.6064 -14.2635 -2.0338 0.9437
2.8495 -14.0680 -2.0338 0.9437
1.8544 -6.2703 -0.9265 0.9739
2.4091 -6.1160 -0.9314 0.9738
2.9594 -5.9293 -0.9389 0.9736
8.5531 -11.5278 -2.0338 0.9437
13.1865 -5.6730 -2.0340 0.9437
13.9743 -3.2851 -2.0340 0.9437
14.3334 -0.7962 -2.0340 0.9437
14.3481 0.4622 -2.0340 0.9437
-1.8563 -12.2049 -2.0337 0.9512
-0.7802 -12.3207 -2.0338 0.9512
2.4509 -12.0998 -2.0338 0.9512
2.3473 -5.9591 -1.0551 0.9744
8.1966 -9.2325 -2.0339 0.9512
9.6821 -7.6607 -2.0339 0.9512
10.3159 -6.7834 -2.0339 0.9512
12.0190 -2.8254 -2.0340 0.9512
12.2204 -1.7619 -2.0340 0.9512
12.3278 -0.6848 -2.0340 0.9512
-0.6838 -10.7986 -2.0338 0.9569
0.2646 -10.8170 -2.0338 0.9569
2.8275 -5.6650 -1.1901 0.9746
5.6617 -9.2212 -2.0338 0.9569
6.4476 -8.6899 -2.0339 0.9569
7.1840 -8.0919 -2.0339 0.9569
9.0414 -5.9453 -2.0339 0.9569
9.5274 -5.1306 -2.0339 0.9569
9.9402 -4.2764 -2.0339 0.9569
10.2766 -3.3895 -2.0340 0.9569
10.8047 -0.6002 -2.0340 0.9569
-1.4468 -9.5121 -2.0338 0.9614
-0.6080 -9.6023 -2.0338 0.9614
0.2353 -9.6187 -2.0338 0.9614
1.7672 -5.9756 -1.3172 0.9748
2.8044 -5.6188 -1.3274 0.9747
5.0344 -8.1996 -2.0339 0.9614
8.8389 -3.8026 -2.0339 0.9614
9.1380 -3.0139 -2.0339 0.9614
9.3670 -2.2020 -2.0340 0.9614
9.5239 -1.3731 -2.0340 0.9614
9.6076 -0.5337 -2.0340 0.9614
9.6174 0.3098 -2.0340 0.9614
-0.5469 -8.6363 -2.0338 0.9651
0.2116 -8.6511 -2.0338 0.9651
0.9685 -8.5993 -2.0338 0.9651
1.2639 -6.2402 -1.4964 0.9742
1.7261 -5.8364 -1.4304 0.9753
2.2658 -5.7521 -1.4530 0.9749
4.5280 -7.3748 -2.0339 0.9651
5.7454 -6.4716 -2.0339 0.9651
6.2902 -5.9435 -2.0339 0.9651
6.7866 -5.3698 -2.0339 0.9651
7.6196 -4.1032 -2.0339 0.9651
7.9497 -3.4201 -2.0339 0.9651
8.5657 -1.2349 -2.0340 0.9651
-1.1811 -7.7657 -2.0338 0.9681
-0.4964 -7.8393 -2.0338 0.9681
0.1920 -7.8527 -2.0338 0.9681
1.7430 -5.8936 -1.5913 0.9749
2.8497 -5.7094 -1.6522 0.9740
4.1101 -6.6942 -2.0339 0.9681
4.6807 -6.3085 -2.0339 0.9681
5.7097 -5.3950 -2.0339 0.9681
6.9164 -3.7245 -2.0339 0.9681
7.2160 -3.1045 -2.0339 0.9681
7.4603 -2.4605 -2.0339 0.9681
7.6471 -1.7977 -2.0339 0.9681
7.7752 -1.1210 -2.0340 0.9681
7.8516 0.2530 -2.0340 0.9681
-1.0803 -7.1026 -2.0338 0.9706
0.8040 -7.1392 -2.0338 0.9706
1.7496 -5.9159 -1.7464 0.9747
3.2084 -6.4282 -2.0339 0.9706
3.7591 -6.1225 -2.0339 0.9706
5.6342 -4.4580 -2.0339 0.9706
6.0030 -3.9474 -2.0339 0.9706
6.3257 -3.4065 -2.0339 0.9706
6.5998 -2.8394 -2.0339 0.9706
6.9941 -1.6442 -2.0339 0.9706
7.1112 -1.0253 -2.0340 0.9706
7.1737 -0.3985 -2.0340 0.9706
-0.4179 -6.5992 -2.0338 0.9727
0.1617 -6.6104 -2.0338 0.9727
0.7400 -6.5709 -2.0338 0.9727
1.3127 -6.4808 -2.0338 0.9727
3.4599 -5.6351 -2.0339 0.9727
4.3902 -4.9450 -2.0339 0.9727
4.8064 -4.5415 -2.0339 0.9727
5.5252 -3.6332 -2.0339 0.9727
6.4373 -1.5133 -2.0339 0.9727
6.5451 -0.9437 -2.0339 0.9727
6.6027 -0.3668 -2.0340 0.9727
6.6094 0.2129 -2.0340 0.9727
-0.3867 -6.1063 -2.0338 0.9745
0.6848 -6.0801 -2.0338 0.9745
1.7352 -5.8674 -2.0338 0.9745
2.2424 -5.6929 -2.0339 0.9745
2.7324 -5.4746 -2.0339 0.9745
3.2014 -5.2142 -2.0339 0.9745
3.6459 -4.9138 -2.0339 0.9745
5.1125 -3.3618 -2.0339 0.9745
5.3873 -2.9011 -2.0339 0.9745
5.6207 -2.4181 -2.0339 0.9745
5.8109 -1.9165 -2.0339 0.9745
6.0563 -0.8732 -2.0339 0.9745
6.1095 -0.3394 -2.0339 0.9745
6.1157 0.1970 -2.0340 0.9745
-0.3595 -5.6760 -2.0338 0.9761
0.6365 -5.6517 -2.0338 0.9761
1.6130 -5.4539 -2.0339 0.9761
2.0844 -5.2917 -2.0339 0.9761
2.5399 -5.0888 -2.0339 0.9761
3.3889 -4.5675 -2.0339 0.9761
3.7759 -4.2532 -2.0339 0.9761
4.4602 -3.5291 -2.0339 0.9761
5.2246 -2.2477 -2.0339 0.9761
5.4014 -1.7815 -2.0339 0.9761
5.6294 -0.8117 -2.0339 0.9761
5.6789 -0.3155 -2.0339 0.9761
5.6847 0.1831 -2.0340 0.9761
-0.3354 -5.2966 -2.0338 0.9775
0.1298 -5.3057 -2.0338 0.9775
0.5940 -5.2739 -2.0338 0.9775
1.0536 -5.2017 -2.0339 0.9775
1.5051 -5.0894 -2.0339 0.9775
2.3701 -4.7487 -2.0339 0.9775
3.1625 -4.2623 -2.0339 0.9775
3.5236 -3.9690 -2.0339 0.9775
3.8577 -3.6451 -2.0339 0.9775
4.1621 -3.2932 -2.0339 0.9775
4.4346 -2.9161 -2.0339 0.9775
4.6730 -2.5165 -2.0339 0.9775
4.8754 -2.0975 -2.0339 0.9775
5.0404 -1.6624 -2.0339 0.9775
5.1667 -1.2146 -2.0339 0.9775
5.2532 -0.7574 -2.0339 0.9775
5.3048 0.1709 -2.0339 0.9775
-0.7473 -4.9129 -2.0338 0.9788
-0.3141 -4.9595 -2.0338 0.9788
0.5561 -4.9382 -2.0338 0.9788
0.9865 -4.8705 -2.0339 0.9788
1.4093 -4.7654 -2.0339 0.9788
2.9611 -3.9909 -2.0339 0.9788
3.2993 -3.7163 -2.0339 0.9788
3.6121 -3.4130 -2.0339 0.9788
3.8972 -3.0836 -2.0339 0.9788
4.7196 -1.5566 -2.0339 0.9788
4.8378 -1.1373 -2.0339 0.9787
4.9188 -0.7092 -2.0339 0.9787
4.9620 -0.2756 -2.0339 0.9787
4.9671 0.1600 -2.0339 0.9787
-0.7017 -4.6137 -2.0338 0.9798
-0.2949 -4.6574 -2.0338 0.9798
0.1141 -4.6654 -2.0338 0.9798
0.5223 -4.6374 -2.0339 0.9798
0.9264 -4.5739 -2.0339 0.9798
1.3235 -4.4752 -2.0339 0.9798
2.0841 -4.1756 -2.0339 0.9798
3.6598 -2.8958 -2.0339 0.9798
3.8994 -2.5641 -2.0339 0.9798
4.1090 -2.2127 -2.0339 0.9798
4.2870 -1.8444 -2.0339 0.9798
4.5431 -1.0680 -2.0339 0.9798
4.6598 -0.2588 -2.0339 0.9798
4.6646 0.1503 -2.0339 0.9798
-0.6607 -4.3439 -2.0338 0.9808
0.1074 -4.3926 -2.0339 0.9808
0.4917 -4.3663 -2.0339 0.9808
1.2461 -4.2135 -2.0339 0.9808
1.6103 -4.0882 -2.0339 0.9808
1.9622 -3.9314 -2.0339 0.9808
2.2990 -3.7445 -2.0339 0.9808
2.6182 -3.5287 -2.0339 0.9808
3.4458 -2.7264 -2.0339 0.9808
3.6714 -2.4142 -2.0339 0.9808
3.8687 -2.0833 -2.0339 0.9808
4.0364 -1.7365 -2.0339 0.9808
4.1729 -1.3763 -2.0339 0.9808
4.2775 -1.0055 -2.0339 0.9808
4.3491 -0.6271 -2.0339 0.9808
4.3918 0.1415 -2.0339 0.9808
0.8231 -4.0638 -2.0339 0.9817
1.1759 -3.9761 -2.0339 0.9817
1.5196 -3.8578 -2.0339 0.9817
1.8516 -3.7099 -2.0339 0.9817
2.1695 -3.5335 -2.0339 0.9817
2.4707 -3.3299 -2.0339 0.9817
2.7528 -3.1007 -2.0339 0.9817
3.0138 -2.8477 -2.0339 0.9817
3.2517 -2.5728 -2.0339 0.9817
3.4645 -2.2781 -2.0339 0.9817
3.6507 -1.9659 -2.0339 0.9817
3.8089 -1.6386 -2.0339 0.9817
3.9378 -1.2987 -2.0339 0.9817
4.0364 -0.9489 -2.0339 0.9817
4.1040 -0.5917 -2.0339 0.9817
4.1443 0.1335 -2.0339 0.9817
0.0959 -3.9193 -2.0339 0.9825
0.4387 -3.8959 -2.0339 0.9825
0.7783 -3.8425 -2.0339 0.9825
1.7508 -3.5078 -2.0339 0.9825
2.0513 -3.3410 -2.0339 0.9825
2.3360 -3.1486 -2.0339 0.9825
3.0746 -2.4327 -2.0339 0.9825
3.4519 -1.8588 -2.0339 0.9825
3.8166 -0.8972 -2.0339 0.9825
-0.2347 -3.7060 -2.0339 0.9832
0.0908 -3.7123 -2.0339 0.9832
0.4156 -3.6901 -2.0339 0.9832
0.7372 -3.6396 -2.0339 0.9832
1.3609 -3.4551 -2.0339 0.9832
2.2127 -2.9823 -2.0339 0.9832
2.9122 -2.3042 -2.0339 0.9832
3.1028 -2.0403 -2.0339 0.9832
3.2696 -1.7607 -2.0339 0.9832
1.8918 -0.6240 -1.0910 0.9910
1.8576 -0.4367 -1.0451 0.9913
1.8469 -0.2663 -1.0220 0.9915
1.8527 -0.1029 -1.0163 0.9916
1.8525 0.0597 -1.0151 0.9916
-0.5297 -3.4827 -2.0339 0.9839
-0.2227 -3.5157 -2.0339 0.9839
0.0861 -3.5217 -2.0339 0.9839
0.3943 -3.5006 -2.0339 0.9839
0.9991 -3.3782 -2.0339 0.9839
1.2911 -3.2777 -2.0339 0.9839
1.8432 -3.0021 -2.0339 0.9839
2.0991 -2.8291 -2.0339 0.9839
2.9435 -1.9355 -2.0339 0.9839
1.7238 -0.5686 -1.0480 0.9917
1.7147 -0.4031 -1.0170 0.9919
1.7136 -0.2471 -0.9996 0.9920
1.7235 -0.0958 -0.9966 0.9921
