ply
format ascii 1.0
element vertex 183
property float32 x
property float32 y
property float32 z
property float32 I
end_header
16.4576 -4.3274 -1.2477 0.9340
16.1008 -4.2336 -1.5983 0.9353
8.2524 -15.0016 -2.0338 0.9334
11.9582 -12.2543 -2.0339 0.9334
14.7962 -8.6172 -2.0339 0.9334
16.8850 -2.8470 -2.0340 0.9333
17.1222 0.2248 -2.0340 0.9333
17.0327 1.7643 -2.0341 0.9333
16.8051 3.2895 -2.0341 0.9333
16.4411 4.7879 -2.0341 0.9333
15.9437 6.2476 -2.0341 0.9333
15.3171 7.6567 -2.0341 0.9333
6.9185 -12.5767 -2.0338 0.9437
8.0219 -11.9035 -2.0338 0.9437
10.9090 -9.3300 -2.0339 0.9437
12.4045 -7.2243 -2.0339 0.9437
14.3130 -1.1036 -2.0340 0.9437
14.3543 0.1885 -2.0340 0.9437
14.0884 2.7577 -2.0341 0.9437
13.7832 4.0139 -2.0341 0.9437
13.3663 5.2377 -2.0341 0.9437
6.8996 -10.2380 -2.0338 0.9512
7.7927 -9.5759 -2.0339 0.9512
8.6226 -8.8361 -2.0339 0.9512
9.3826 -8.0246 -2.0339 0.9512
11.9407 -3.1397 -2.0340 0.9512
12.3102 -0.9492 -2.0340 0.9512
12.3458 0.1621 -2.0340 0.9512
12.2812 1.2721 -2.0340 0.9512
12.1170 2.3718 -2.0340 0.9512
6.8299 -8.3928 -2.0339 0.9569
8.2234 -7.0332 -2.0339 0.9569
9.3508 -5.4458 -2.0339 0.9569
9.8028 -4.5826 -2.0339 0.9569
10.1754 -3.6821 -2.0339 0.9569
10.7893 -0.8319 -2.0340 0.9569
10.3899 3.0257 -2.0340 0.9569
5.3773 -7.9790 -2.0339 0.9614
6.0732 -7.4630 -2.0339 0.9614
6.7201 -6.8864 -2.0339 0.9614
7.3123 -6.2540 -2.0339 0.9614
9.4884 -1.5998 -2.0340 0.9614
9.5939 -0.7397 -2.0340 0.9614
9.2387 2.6905 -2.0340 0.9614
8.9593 3.5107 -2.0340 0.9614
8.6071 4.3025 -2.0340 0.9614
3.0485 -5.5417 -1.4865 0.9743
4.8362 -7.1764 -2.0339 0.9651
5.4623 -6.7122 -2.0339 0.9651
7.4783 -4.3553 -2.0339 0.9651
8.1378 -2.9448 -2.0339 0.9651
8.3698 -2.2008 -2.0339 0.9651
8.5339 -1.4389 -2.0340 0.9651
8.6287 -0.6653 -2.0340 0.9651
8.0579 3.1576 -2.0340 0.9651
7.7412 3.8696 -2.0340 0.9651
3.1903 -5.7995 -1.7138 0.9730
4.3900 -6.5141 -2.0339 0.9681
4.9582 -6.0928 -2.0339 0.9681
6.4049 -4.5480 -2.0339 0.9681
6.7881 -3.9534 -2.0339 0.9681
7.1163 -3.3267 -2.0339 0.9681
7.3868 -2.6730 -2.0339 0.9681
7.7462 -1.3061 -2.0340 0.9681
7.8324 -0.6039 -2.0340 0.9681
7.5424 2.1965 -2.0340 0.9681
7.0268 3.5125 -2.0340 0.9681
4.0151 -5.9578 -2.0339 0.9706
4.5348 -5.5725 -2.0339 0.9706
5.0177 -5.1420 -2.0339 0.9706
5.8580 -4.1596 -2.0339 0.9706
7.1635 -0.5524 -2.0340 0.9706
7.1842 0.0943 -2.0340 0.9706
6.6896 2.6213 -2.0340 0.9706
3.1871 -5.7937 -2.0339 0.9727
3.6955 -5.4836 -2.0339 0.9727
4.6183 -4.7326 -2.0339 0.9727
5.3916 -3.8285 -2.0339 0.9727
6.5208 -1.0995 -2.0339 0.9727
6.6123 0.0868 -2.0340 0.9727
6.4897 1.2703 -2.0340 0.9727
6.3491 1.8490 -2.0340 0.9727
5.9150 2.9568 -2.0340 0.9727
2.9491 -5.3610 -2.0339 0.9745
3.4195 -5.0740 -2.0339 0.9745
3.8621 -4.7458 -2.0339 0.9745
4.2733 -4.3792 -2.0339 0.9745
4.9889 -3.5425 -2.0339 0.9745
5.2874 -3.0794 -2.0339 0.9745
5.7537 -2.0821 -2.0339 0.9745
6.1008 -0.4704 -2.0339 0.9745
6.1184 0.0803 -2.0340 0.9745
6.0050 1.1754 -2.0340 0.9745
5.8749 1.7109 -2.0340 0.9745
5.4732 2.7359 -2.0340 0.9745
2.7413 -4.9832 -2.0339 0.9761
3.1785 -4.7164 -2.0339 0.9761
3.5899 -4.4113 -2.0339 0.9761
4.9148 -2.8624 -2.0339 0.9761
5.1524 -2.4086 -2.0339 0.9761
5.5007 -1.4463 -2.0339 0.9761
5.6085 -0.9456 -2.0339 0.9761
5.6872 0.0747 -2.0340 0.9761
5.5818 1.0926 -2.0340 0.9761
5.4609 1.5903 -2.0340 0.9761
5.0875 2.5431 -2.0340 0.9761
2.5581 -4.6502 -2.0339 0.9775
4.8081 -2.2477 -2.0339 0.9775
5.1330 -1.3497 -2.0339 0.9775
5.2919 -0.4080 -2.0339 0.9775
5.3071 0.0697 -2.0339 0.9775
5.2087 1.0196 -2.0340 0.9775
5.0959 1.4840 -2.0340 0.9775
4.7475 2.3731 -2.0340 0.9775
3.7766 -3.2300 -2.0339 0.9788
4.0520 -2.8772 -2.0339 0.9788
4.2944 -2.5010 -2.0339 0.9788
4.5020 -2.1045 -2.0339 0.9788
4.9004 -0.8263 -2.0339 0.9788
4.9692 0.0652 -2.0339 0.9788
4.9432 0.5120 -2.0339 0.9787
4.7714 1.3895 -2.0340 0.9787
4.6271 1.8131 -2.0340 0.9787
2.2493 -4.0890 -2.0339 0.9798
2.9457 -3.6197 -2.0339 0.9798
3.2594 -3.3401 -2.0339 0.9798
3.5466 -3.0333 -2.0339 0.9798
3.8052 -2.7019 -2.0339 0.9798
4.5136 -1.1868 -2.0339 0.9798
4.6532 -0.3588 -2.0339 0.9798
4.6666 0.0613 -2.0339 0.9798
4.6421 0.4808 -2.0339 0.9798
4.3453 1.7027 -2.0340 0.9798
2.1178 -3.8498 -2.0339 0.9808
2.4555 -3.6437 -2.0339 0.9808
3.7970 -2.2113 -2.0339 0.9808
4.1318 -1.4952 -2.0339 0.9808
4.3811 -0.3378 -2.0339 0.9808
4.3122 0.8441 -2.0339 0.9808
4.2188 1.2286 -2.0340 0.9808
4.0912 1.6031 -2.0340 0.9808
3.9304 1.9647 -2.0340 0.9808
2.6171 -3.2160 -2.0339 0.9817
3.1511 -2.6950 -2.0339 0.9817
3.3808 -2.4006 -2.0339 0.9817
3.5831 -2.0868 -2.0339 0.9817
3.8990 -1.4109 -2.0339 0.9817
4.0102 -1.0545 -2.0339 0.9817
4.0888 -0.6894 -2.0339 0.9817
4.1342 -0.3188 -2.0339 0.9817
4.0693 0.7965 -2.0339 0.9817
3.8607 1.5128 -2.0340 0.9817
3.7089 1.8540 -2.0340 0.9817
1.8896 -3.4351 -2.0339 0.9825
2.7382 -2.8059 -2.0339 0.9825
2.9795 -2.5482 -2.0339 0.9825
3.1967 -2.2699 -2.0339 0.9825
3.5517 -1.6603 -2.0339 0.9825
3.7918 -0.9970 -2.0339 0.9825
2.0768 -0.1602 -1.0806 0.9907
3.7643 1.0962 -2.0339 0.9825
3.5069 1.7530 -2.0340 0.9825
1.7898 -3.2537 -2.0339 0.9832
2.8221 -2.4137 -2.0339 0.9832
3.0279 -2.1500 -2.0339 0.9832
3.3641 -1.5726 -2.0339 0.9832
1.8592 -0.4889 -1.0529 0.9913
1.8519 -0.3123 -1.0286 0.9915
1.8516 -0.1428 -1.0171 0.9916
1.8513 0.0243 -1.0141 0.9916
1.8556 0.3632 -1.0356 0.9914
1.8712 0.5449 -1.0675 0.9912
3.3218 1.6604 -2.0339 0.9832
1.6979 -3.0866 -2.0339 0.9839
2.6772 -2.2897 -2.0339 0.9839
3.0442 -1.7729 -2.0339 0.9839
3.1914 -1.4919 -2.0339 0.9839
1.7225 -0.6233 -1.0576 0.9916
1.7130 -0.4504 -1.0226 0.9919
1.7247 0.0226 -0.9958 0.9921
1.7141 0.3355 -1.0084 0.9920
1.7144 0.4992 -1.0309 0.9918
1.7328 0.6790 -1.0745 0.9914
