ply
format ascii 1.0
element vertex 187
property float32 x
property float32 y
property float32 z
property float32 I
end_header
2.6204 -6.1632 -0.6430 0.9734
2.0967 -6.5023 -0.8115 0.9729
2.5887 -6.0887 -0.7859 0.9737
9.4140 -14.3004 -2.0337 0.9334
11.8245 -12.3822 -2.0338 0.9334
12.8906 -11.2684 -2.0338 0.9334
13.8523 -10.0630 -2.0338 0.9334
15.4317 -7.4180 -2.0339 0.9334
16.0366 -5.9997 -2.0339 0.9334
16.5115 -4.5327 -2.0339 0.9334
16.8525 -3.0289 -2.0339 0.9334
17.0569 -1.5005 -2.0339 0.9334
1.4823 -6.5717 -0.9545 0.9732
1.9829 -6.1496 -0.9155 0.9742
2.5173 -5.9206 -0.9115 0.9743
7.8923 -11.9889 -2.0337 0.9437
9.9131 -10.3807 -2.0338 0.9437
11.6131 -8.4364 -2.0338 0.9437
12.9371 -6.2189 -2.0338 0.9437
13.4443 -5.0298 -2.0339 0.9437
13.8424 -3.8000 -2.0339 0.9437
14.3548 0.0336 -2.0339 0.9437
14.2937 1.3249 -2.0339 0.9437
1.9401 -6.0167 -1.0414 0.9747
6.7881 -10.3114 -2.0337 0.9512
7.6883 -9.6591 -2.0338 0.9512
8.5261 -8.9283 -2.0338 0.9512
9.2948 -8.1251 -2.0338 0.9512
9.9882 -7.2560 -2.0338 0.9512
10.6006 -6.3281 -2.0338 0.9512
11.1270 -5.3488 -2.0338 0.9512
11.9055 -3.2683 -2.0339 0.9512
12.2936 1.1395 -2.0339 0.9512
1.4492 -6.4248 -1.2379 0.9736
2.4625 -5.7917 -1.1829 0.9747
3.1162 -5.8128 -1.2397 0.9735
5.9495 -9.0376 -2.0337 0.9569
7.4728 -7.8253 -2.0338 0.9569
8.1465 -7.1213 -2.0338 0.9569
9.7523 -4.6879 -2.0338 0.9569
10.4346 -2.8645 -2.0339 0.9569
10.6501 -1.9141 -2.0339 0.9569
3.0848 -5.7542 -1.3801 0.9737
5.2903 -8.0363 -2.0337 0.9614
7.2439 -6.3323 -2.0338 0.9614
8.2616 -4.9317 -2.0338 0.9614
8.6718 -4.1685 -2.0338 0.9614
9.4701 -1.7021 -2.0339 0.9614
9.5849 -0.8432 -2.0339 0.9614
9.5809 0.8881 -2.0339 0.9614
1.3784 -6.1109 -1.4723 0.9746
2.4822 -5.8381 -1.4910 0.9743
4.7581 -7.2279 -2.0338 0.9651
5.9764 -6.2583 -2.0338 0.9651
6.5152 -5.6953 -2.0338 0.9651
7.0012 -5.0861 -2.0338 0.9651
7.4305 -4.4356 -2.0338 0.9651
7.7994 -3.7492 -2.0338 0.9651
8.1051 -3.0323 -2.0338 0.9651
8.3451 -2.2909 -2.0338 0.9651
8.6539 0.0203 -2.0339 0.9651
8.6170 0.7987 -2.0339 0.9651
1.3720 -6.0827 -1.6145 0.9746
1.8761 -5.8183 -1.5828 0.9751
4.8918 -6.1457 -2.0338 0.9681
6.3551 -4.6167 -2.0338 0.9681
6.7447 -4.0263 -2.0338 0.9681
7.5749 -2.0795 -2.0338 0.9681
7.7313 -1.3896 -2.0338 0.9681
7.8250 -0.6884 -2.0339 0.9681
7.8552 0.0184 -2.0339 0.9681
7.8218 0.7250 -2.0339 0.9681
3.9502 -6.0006 -2.0338 0.9706
4.9616 -5.1956 -2.0338 0.9706
5.4089 -4.7282 -2.0338 0.9706
5.8124 -4.2225 -2.0338 0.9706
6.9280 -1.9019 -2.0338 0.9706
7.1568 -0.6296 -2.0338 0.9706
7.1844 0.0168 -2.0339 0.9706
7.1537 0.6631 -2.0339 0.9706
1.4548 -6.4500 -2.0337 0.9727
1.9177 -5.9470 -1.9219 0.9742
3.1241 -5.8276 -2.0338 0.9727
4.1179 -5.1734 -2.0338 0.9727
4.9783 -4.3518 -2.0338 0.9727
5.6777 -3.3893 -2.0338 0.9727
5.9596 -2.8648 -2.0338 0.9727
6.1931 -2.3170 -2.0338 0.9727
6.3765 -1.7505 -2.0338 0.9727
6.5082 -1.1697 -2.0338 0.9727
6.6125 0.0155 -2.0339 0.9727
1.8777 -5.8230 -2.0337 0.9745
2.8908 -5.3923 -2.0338 0.9745
3.8104 -4.7870 -2.0338 0.9745
4.2255 -4.4249 -2.0338 0.9745
4.6065 -4.0268 -2.0338 0.9745
5.2536 -3.1362 -2.0338 0.9745
5.5145 -2.6508 -2.0338 0.9745
5.7306 -2.1440 -2.0338 0.9745
6.0220 -1.0823 -2.0338 0.9745
6.0950 -0.5362 -2.0338 0.9745
2.2252 -5.2337 -2.0337 0.9761
4.2819 -3.7430 -2.0338 0.9761
4.8834 -2.9151 -2.0338 0.9761
5.1258 -2.4640 -2.0338 0.9761
5.3267 -1.9929 -2.0338 0.9761
5.4845 -1.5056 -2.0338 0.9761
5.5977 -1.0061 -2.0338 0.9761
5.6655 -0.4984 -2.0338 0.9761
5.6873 0.0133 -2.0338 0.9761
5.6631 0.5249 -2.0338 0.9761
1.1677 -5.1770 -2.0337 0.9775
2.5075 -4.6773 -2.0338 0.9775
3.3051 -4.1523 -2.0338 0.9775
4.7833 -2.2993 -2.0338 0.9775
4.9707 -1.8597 -2.0338 0.9775
5.1179 -1.4050 -2.0338 0.9775
5.2236 -0.9388 -2.0338 0.9775
5.2869 -0.4651 -2.0338 0.9775
5.3073 0.0124 -2.0338 0.9775
1.5250 -4.7294 -2.0337 0.9788
2.3479 -4.3796 -2.0338 0.9788
3.0947 -3.8879 -2.0338 0.9788
3.4319 -3.5938 -2.0338 0.9788
3.7414 -3.2705 -2.0338 0.9788
4.2669 -2.5471 -2.0338 0.9788
4.4787 -2.1529 -2.0338 0.9788
4.6543 -1.7413 -2.0338 0.9788
4.9502 -0.4355 -2.0338 0.9788
4.9694 0.0116 -2.0338 0.9788
4.9482 0.4587 -2.0338 0.9788
1.8259 -4.2945 -2.0338 0.9798
2.2048 -4.1129 -2.0338 0.9798
2.5659 -3.8979 -2.0338 0.9798
2.9062 -3.6512 -2.0338 0.9798
3.2229 -3.3749 -2.0338 0.9798
3.5134 -3.0713 -2.0338 0.9798
3.7755 -2.7428 -2.0338 0.9798
4.2059 -2.0218 -2.0338 0.9798
4.3708 -1.6352 -2.0338 0.9798
4.5931 -0.8255 -2.0338 0.9798
4.6487 -0.4089 -2.0338 0.9798
4.6667 0.0109 -2.0338 0.9798
4.6468 0.4307 -2.0338 0.9798
0.9667 -4.2860 -2.0337 0.9808
2.0759 -3.8723 -2.0338 0.9808
3.0345 -3.1776 -2.0338 0.9808
3.7727 -2.2521 -2.0338 0.9808
3.9600 -1.9036 -2.0338 0.9808
4.1152 -1.5396 -2.0338 0.9808
4.2370 -1.1632 -2.0338 0.9808
4.3769 -0.3851 -2.0338 0.9808
4.3751 0.4055 -2.0338 0.9808
1.2724 -3.9461 -2.0338 0.9817
1.9590 -3.6541 -2.0338 0.9817
2.5821 -3.2440 -2.0338 0.9817
3.1216 -2.7288 -2.0338 0.9817
3.3545 -2.4369 -2.0338 0.9817
3.5601 -2.1252 -2.0338 0.9817
3.7369 -1.7963 -2.0338 0.9817
3.9983 -1.0976 -2.0338 0.9817
0.8626 -3.8242 -2.0338 0.9825
2.1556 -3.2745 -2.0338 0.9825
2.4415 -3.0673 -2.0338 0.9825
2.7076 -2.8352 -2.0338 0.9825
2.9516 -2.5802 -2.0338 0.9825
3.3662 -2.0095 -2.0338 0.9825
2.0746 -0.1825 -1.0804 0.9907
2.0735 0.1922 -1.0803 0.9907
0.8170 -3.6223 -2.0338 0.9832
1.1396 -3.5341 -2.0338 0.9832
1.7545 -3.2727 -2.0338 0.9832
2.3125 -2.9053 -2.0338 0.9832
2.5645 -2.6855 -2.0338 0.9832
2.7957 -2.4439 -2.0338 0.9832
3.4779 -1.3012 -2.0338 0.9832
1.8537 -0.3332 -1.0315 0.9914
1.8506 -0.1628 -1.0175 0.9916
1.8501 0.1715 -1.0176 0.9916
0.7751 -3.4362 -2.0338 0.9839
1.6643 -3.1046 -2.0338 0.9839
2.4329 -2.5476 -2.0338 0.9839
2.8500 -2.0704 -2.0338 0.9839
3.1749 -1.5262 -2.0338 0.9839
1.7118 -0.4699 -1.0248 0.9918
1.7245 0.0040 -0.9956 0.9921
1.7209 0.1595 -0.9978 0.9920
