ply
format ascii 1.0
element vertex 210
property float32 x
property float32 y
property float32 z
property float32 I
end_header
-11.9244 12.3558 2.6306 0.9329
-11.1118 13.7997 2.3072 0.9310
-11.8870 12.3170 1.8381 0.9335
-11.5629 11.9812 1.4095 0.9353
-12.0813 12.5184 1.0788 0.9327
-11.6733 -8.5522 -0.7339 0.9437
-16.4055 6.0738 -1.2827 0.9322
-11.6712 -8.5507 -1.0608 0.9436
-16.2495 6.0161 -1.6635 0.9327
-10.7380 13.3355 -2.0338 0.9334
-11.8896 12.3197 -2.0338 0.9334
-12.9455 11.2048 -2.0337 0.9334
-13.8972 9.9998 -2.0337 0.9334
-14.7371 8.7144 -2.0337 0.9334
-16.8584 2.9834 -2.0337 0.9334
-17.0579 1.4609 -2.0336 0.9334
-17.0445 -1.6069 -2.0336 0.9334
-16.8319 -3.1275 -2.0336 0.9334
-16.4839 -4.6229 -2.0336 0.9334
-16.0034 -6.0812 -2.0336 0.9334
-15.3941 -7.4905 -2.0336 0.9334
-11.2648 -8.2530 -1.6588 0.9453
-9.9677 10.3283 -2.0338 0.9437
-13.4603 4.9835 -2.0337 0.9437
-14.3528 -0.0614 -2.0337 0.9437
-14.2895 -1.3471 -2.0336 0.9437
-13.4167 -5.0983 -2.0336 0.9437
-12.2913 -7.4109 -2.0336 0.9437
-11.4724 -8.4050 -2.0151 0.9442
-9.8782 -10.4124 -2.0336 0.9437
-7.7427 9.6156 -2.0338 0.9512
-9.3344 8.0793 -2.0337 0.9512
-10.0207 7.2104 -2.0337 0.9512
-11.1465 5.3062 -2.0337 0.9512
-12.3447 -0.0528 -2.0337 0.9512
-10.5717 -6.3740 -2.0336 0.9512
-9.2643 -8.1584 -2.0336 0.9512
-7.5139 7.7857 -2.0338 0.9569
-8.7827 6.3197 -2.0337 0.9569
-9.7695 4.6507 -2.0337 0.9569
-10.1468 3.7567 -2.0337 0.9569
-10.6542 1.8854 -2.0337 0.9569
-10.7719 -1.0155 -2.0337 0.9569
-10.6375 -1.9765 -2.0337 0.9569
-10.4177 -2.9216 -2.0337 0.9569
-10.1139 -3.8432 -2.0337 0.9569
-8.7279 -6.3942 -2.0336 0.9569
-8.1198 -7.1505 -2.0336 0.9569
-7.4465 -7.8492 -2.0336 0.9569
-6.0343 7.4939 -2.0338 0.9614
-6.6814 6.9231 -2.0338 0.9614
-8.2816 4.8972 -2.0337 0.9614
-9.0226 3.3404 -2.0337 0.9614
-9.4738 1.6766 -2.0337 0.9614
-9.5859 0.8210 -2.0337 0.9614
-9.6209 -0.0412 -2.0337 0.9614
-9.5785 -0.9030 -2.0337 0.9614
-8.2391 -4.9676 -2.0337 0.9614
-7.7609 -5.6858 -2.0337 0.9614
-6.0093 6.2267 -2.0338 0.9651
-6.5430 5.6632 -2.0338 0.9651
-7.0240 5.0542 -2.0337 0.9651
-7.4485 4.4045 -2.0337 0.9651
-7.8132 3.7195 -2.0337 0.9651
-8.3515 2.2653 -2.0337 0.9651
-8.6531 -0.0370 -2.0337 0.9651
-8.5075 -1.5807 -2.0337 0.9651
-7.7809 -3.7860 -2.0337 0.9651
-7.4103 -4.4679 -2.0337 0.9651
-5.4547 5.6520 -2.0338 0.9681
-5.9391 5.1405 -2.0338 0.9681
-6.7611 3.9980 -2.0337 0.9681
-7.0921 3.3762 -2.0337 0.9681
-7.5808 2.0562 -2.0337 0.9681
-7.7345 1.3687 -2.0337 0.9681
-7.8260 0.6703 -2.0337 0.9681
-7.8545 -0.0336 -2.0337 0.9681
-7.7224 -1.4349 -2.0337 0.9681
-7.3423 -2.7900 -2.0337 0.9681
-7.0628 -3.4366 -2.0337 0.9681
-6.3361 -4.6420 -2.0337 0.9681
-5.8946 -5.1910 -2.0337 0.9681
-4.5057 5.5955 -2.0338 0.9706
-6.1837 3.6566 -2.0337 0.9706
-6.4865 3.0879 -2.0337 0.9706
-6.9334 1.8806 -2.0337 0.9706
-7.1577 0.6130 -2.0337 0.9706
-7.1838 -0.0307 -2.0337 0.9706
-7.1521 -0.6742 -2.0337 0.9706
-5.7950 -4.2456 -2.0337 0.9706
-5.3912 -4.7477 -2.0337 0.9706
-4.1470 5.1501 -2.0338 0.9727
-4.5917 4.7578 -2.0338 0.9727
-4.9995 4.3273 -2.0338 0.9727
-5.3671 3.8619 -2.0337 0.9727
-5.6915 3.3655 -2.0337 0.9727
-6.3815 1.7309 -2.0337 0.9727
-6.5007 -1.2078 -2.0337 0.9727
-6.3663 -1.7854 -2.0337 0.9727
-4.9621 -4.3698 -2.0337 0.9727
-5.2664 3.1142 -2.0337 0.9745
-5.9048 1.6016 -2.0337 0.9745
-6.1181 -0.0262 -2.0337 0.9745
-6.0152 -1.1177 -2.0337 0.9745
-5.8908 -1.6521 -2.0337 0.9745
-4.5916 -4.0434 -2.0337 0.9745
-3.9493 4.0922 -2.0338 0.9761
-4.6163 3.3216 -2.0337 0.9761
-4.8953 2.8947 -2.0337 0.9761
-5.3332 1.9745 -2.0337 0.9761
-5.4887 1.4888 -2.0337 0.9761
-5.6000 0.9910 -2.0337 0.9761
-5.6663 0.4853 -2.0337 0.9761
-5.6619 -0.5337 -2.0337 0.9761
-5.5913 -1.0389 -2.0337 0.9761
-5.4757 -1.5357 -2.0337 0.9761
-5.3161 -2.0201 -2.0337 0.9761
-4.5875 -3.3610 -2.0337 0.9761
-4.2679 -3.7585 -2.0337 0.9761
-3.3284 4.1336 -2.0338 0.9775
-4.9768 1.8426 -2.0337 0.9775
-5.1219 1.3893 -2.0337 0.9775
-5.2257 0.9248 -2.0337 0.9775
-5.2876 0.4529 -2.0337 0.9775
-5.2835 -0.4981 -2.0337 0.9775
-5.2176 -0.9695 -2.0337 0.9775
-4.9608 -1.8851 -2.0337 0.9775
-4.7720 -2.3220 -2.0337 0.9775
-3.1166 3.8704 -2.0338 0.9788
-3.4508 3.5756 -2.0338 0.9788
-3.7572 3.2520 -2.0338 0.9788
-4.0335 2.9023 -2.0337 0.9788
-4.2773 2.5293 -2.0337 0.9788
-4.4867 2.1359 -2.0337 0.9788
-4.6600 1.7253 -2.0337 0.9788
-4.7958 1.3008 -2.0337 0.9788
-2.1190 0.3750 -0.8807 0.9907
-2.1176 0.1814 -0.8699 0.9909
-2.1214 -0.0091 -0.8683 0.9909
-4.6450 -1.7651 -2.0337 0.9788
-4.4682 -2.1742 -2.0337 0.9788
-4.0084 -2.9367 -2.0337 0.9788
-3.7292 -3.2840 -2.0337 0.9788
-2.9268 3.6347 -2.0338 0.9798
-3.2406 3.3579 -2.0338 0.9798
-3.5284 3.0540 -2.0338 0.9798
-3.7878 2.7256 -2.0337 0.9798
-4.2134 2.0058 -2.0337 0.9798
-4.3762 1.6202 -2.0337 0.9798
-1.9738 0.5354 -0.8913 0.9911
-1.9136 0.1639 -0.8370 0.9917
-1.9181 -0.0082 -0.8359 0.9917
-1.9119 -0.1802 -0.8369 0.9917
-1.9052 -0.3540 -0.8445 0.9916
-2.0003 -0.5610 -0.9054 0.9910
-4.3621 -1.6576 -2.0337 0.9798
-3.7643 -2.7578 -2.0337 0.9798
-3.2116 -3.3854 -2.0337 0.9798
-3.3221 2.8754 -2.0338 0.9808
-3.9671 1.8885 -2.0337 0.9808
-4.1203 1.5255 -2.0337 0.9808
-1.6087 0.2847 -0.7562 0.9928
-1.6039 0.1374 -0.7451 0.9929
-1.5682 -0.0067 -0.7259 0.9931
-1.6058 -0.1514 -0.7466 0.9929
-1.6059 -0.2984 -0.7561 0.9928
-1.5537 -0.4358 -0.7470 0.9929
-3.5441 -2.5966 -2.0337 0.9808
-2.6003 3.2293 -2.0338 0.9817
-3.1349 2.7134 -2.0338 0.9817
-3.3654 2.4216 -2.0337 0.9817
-1.3412 0.2373 -0.6681 0.9940
-1.3532 0.1159 -0.6662 0.9940
-1.3362 -0.0057 -0.6555 0.9941
-1.3535 -0.1276 -0.6669 0.9940
-1.2580 -0.4780 -0.6601 0.9940
-3.1115 -2.7401 -2.0337 0.9817
-2.8534 -3.0078 -2.0337 0.9817
-2.4587 3.0534 -2.0338 0.9825
-3.1821 2.2897 -2.0337 0.9825
-1.1299 0.4183 -0.6250 0.9946
-1.1595 0.3145 -0.6233 0.9946
-1.1874 0.2101 -0.6256 0.9946
-1.1926 -0.0051 -0.6187 0.9946
-1.2004 -0.1132 -0.6255 0.9946
-1.1563 -0.3243 -0.6230 0.9946
-1.1271 -0.4283 -0.6255 0.9946
-3.5250 -1.7152 -2.0337 0.9825
-3.1623 -2.3168 -2.0337 0.9825
-2.5786 2.6719 -2.0338 0.9832
-2.8076 2.4301 -2.0338 0.9832
-3.0141 2.1688 -2.0337 0.9832
-3.1962 1.8900 -2.0337 0.9832
-1.0213 0.3781 -0.5964 0.9950
-1.0661 0.1887 -0.5930 0.9951
-1.0639 -0.1977 -0.5927 0.9951
-0.9867 -0.4801 -0.6010 0.9950
-3.1798 -1.9173 -2.0337 0.9832
-2.9953 -2.1945 -2.0337 0.9832
-2.7866 -2.4540 -2.0337 0.9832
-2.5555 -2.6938 -2.0337 0.9832
-2.2092 2.7437 -2.0338 0.9839
-2.4462 2.5347 -2.0338 0.9839
-2.6634 2.3053 -2.0338 0.9839
-0.9445 0.3497 -0.5815 0.9954
-0.9789 0.1732 -0.5740 0.9954
-0.9891 -0.0042 -0.5711 0.9954
-0.9425 -0.3581 -0.5821 0.9954
-0.9161 -0.4458 -0.5882 0.9953
-2.4244 -2.5555 -2.0337 0.9839
