ply
format ascii 1.0
element vertex 181
property float32 x
property float32 y
property float32 z
property float32 I
end_header
2.4431 -6.1316 -0.6337 0.9738
-11.4777 -7.8110 -1.6491 0.9456
-13.2291 -10.8674 -2.0337 0.9334
-8.5430 -14.8365 -2.0337 0.9334
-7.1726 -15.5455 -2.0337 0.9334
-1.2254 -17.0768 -2.0337 0.9334
1.8571 -17.0199 -2.0337 0.9334
3.3821 -16.7838 -2.0337 0.9334
2.4580 -6.1689 -0.7888 0.9736
2.9844 -5.8849 -0.7838 0.9738
-13.1222 -5.8163 -2.0337 0.9437
-12.5451 -6.9741 -2.0337 0.9437
-9.2770 -10.9523 -2.0337 0.9437
-8.2531 -11.7431 -2.0337 0.9437
-4.8153 -13.5215 -2.0337 0.9437
-3.5783 -13.9002 -2.0337 0.9437
-1.0273 -14.3167 -2.0337 0.9437
1.5570 -14.2689 -2.0338 0.9437
2.4152 -6.0617 -0.9245 0.9740
3.0426 -5.9998 -0.9532 0.9732
-11.2863 -5.0025 -2.0337 0.9512
-10.7900 -5.9984 -2.0337 0.9512
-10.2060 -6.9456 -2.0337 0.9512
-7.9791 -9.4200 -2.0337 0.9512
1.3391 -12.2726 -2.0338 0.9512
1.7958 -6.0398 -1.0380 0.9748
2.3730 -5.9555 -1.0561 0.9743
2.9296 -5.7770 -1.0671 0.9741
-9.8920 -4.3845 -2.0338 0.9569
-8.3607 -6.8682 -2.0338 0.9569
-6.9933 -8.2563 -2.0337 0.9569
-6.2216 -8.8525 -2.0337 0.9569
-5.3992 -9.3767 -2.0337 0.9569
-3.6300 -10.1930 -2.0338 0.9569
0.2004 -10.8184 -2.0338 0.9569
1.7955 -6.0386 -1.1841 0.9747
-8.4093 -4.6750 -2.0338 0.9614
-7.9542 -5.4131 -2.0338 0.9614
-7.4345 -6.1073 -2.0338 0.9614
-6.8544 -6.7519 -2.0338 0.9614
-5.5323 -7.8718 -2.0338 0.9614
-4.8011 -8.3379 -2.0338 0.9614
-2.3987 -9.3177 -2.0338 0.9614
-0.6887 -9.5968 -2.0338 0.9614
1.3277 -6.5886 -1.4207 0.9729
2.3339 -5.8574 -1.3328 0.9746
-7.1541 -4.8687 -2.0338 0.9651
-6.6866 -5.4930 -2.0338 0.9651
-4.9758 -7.0799 -2.0338 0.9651
-2.9031 -8.1521 -2.0338 0.9651
-0.6194 -8.6314 -2.0338 0.9651
0.9387 -8.6026 -2.0338 0.9651
1.7347 -5.8342 -1.4305 0.9753
2.2707 -5.6989 -1.4418 0.9751
-7.1812 -3.1830 -2.0338 0.9681
-6.8654 -3.8167 -2.0338 0.9681
-5.0769 -5.9938 -2.0338 0.9681
-4.5166 -6.4265 -2.0338 0.9681
-3.9196 -6.8071 -2.0338 0.9681
-3.2908 -7.1324 -2.0338 0.9681
-2.6352 -7.3997 -2.0338 0.9681
-1.9583 -7.6070 -2.0338 0.9681
-0.5622 -7.8349 -2.0338 0.9681
1.3355 -6.6276 -1.7505 0.9725
1.7514 -5.8905 -1.5911 0.9749
2.2609 -5.6741 -1.5814 0.9751
2.9063 -5.7310 -1.6638 0.9738
-6.5679 -2.9112 -2.0338 0.9706
-6.2792 -3.4908 -2.0338 0.9706
-5.9394 -4.0420 -2.0338 0.9706
-5.1182 -5.0416 -2.0338 0.9706
-4.1310 -5.8778 -2.0338 0.9706
-3.5849 -6.2259 -2.0338 0.9706
-3.0098 -6.5234 -2.0338 0.9706
-2.4102 -6.7679 -2.0338 0.9706
0.7793 -7.1419 -2.0338 0.9706
3.1862 -6.2830 -1.9943 0.9711
-5.7793 -3.2129 -2.0338 0.9727
-5.1094 -4.1973 -2.0338 0.9727
-3.8021 -5.4099 -2.0338 0.9727
-2.7702 -6.0041 -2.0338 0.9727
-2.2184 -6.2291 -2.0338 0.9727
-0.4733 -6.5954 -2.0338 0.9727
0.1225 -6.6113 -2.0338 0.9727
0.7173 -6.5734 -2.0338 0.9727
2.4476 -6.1428 -2.0339 0.9727
-5.5936 -2.4794 -2.0338 0.9745
-5.3477 -2.9729 -2.0338 0.9745
-0.4379 -6.1029 -2.0338 0.9745
0.6637 -6.0825 -2.0338 0.9745
1.2087 -5.9980 -2.0338 0.9745
1.7438 -5.8648 -2.0338 0.9745
2.2648 -5.6840 -2.0339 0.9745
-5.1994 -2.3046 -2.0338 0.9761
-4.9708 -2.7634 -2.0338 0.9761
-4.7018 -3.1997 -2.0338 0.9761
-4.3946 -3.6101 -2.0338 0.9761
-3.6759 -4.3397 -2.0338 0.9761
-3.2702 -4.6531 -2.0338 0.9761
-2.3827 -5.1641 -2.0338 0.9761
-1.9080 -5.3577 -2.0338 0.9761
-1.4179 -5.5078 -2.0338 0.9761
-0.4071 -5.6728 -2.0338 0.9761
1.6209 -5.4515 -2.0339 0.9761
2.1052 -5.2835 -2.0339 0.9761
2.5724 -5.0725 -2.0339 0.9761
-4.8520 -2.1506 -2.0338 0.9775
-4.3876 -2.9859 -2.0338 0.9775
-3.7809 -3.7244 -2.0338 0.9775
-3.4302 -4.0497 -2.0338 0.9775
-2.6484 -4.5993 -2.0338 0.9775
-1.7805 -4.9997 -2.0338 0.9775
0.5757 -5.2760 -2.0338 0.9775
1.0484 -5.2027 -2.0339 0.9775
1.5126 -5.0872 -2.0339 0.9775
1.9645 -4.9304 -2.0339 0.9775
2.4004 -4.7335 -2.0339 0.9775
-4.5431 -2.0137 -2.0338 0.9788
-4.3433 -2.4146 -2.0338 0.9788
-4.1082 -2.7958 -2.0338 0.9788
-3.5402 -3.4873 -2.0338 0.9788
-3.2119 -3.7919 -2.0338 0.9788
-2.8574 -4.0657 -2.0338 0.9788
-2.4797 -4.3065 -2.0338 0.9788
-2.0819 -4.5122 -2.0338 0.9788
-1.6671 -4.6814 -2.0338 0.9788
-0.3557 -4.9566 -2.0338 0.9788
0.0921 -4.9686 -2.0338 0.9788
1.8395 -4.6165 -2.0339 0.9788
2.2477 -4.4321 -2.0339 0.9788
-4.0788 -2.2675 -2.0338 0.9798
-3.0162 -3.5610 -2.0338 0.9798
-2.6834 -3.8181 -2.0338 0.9798
-1.9551 -4.2375 -2.0338 0.9798
-1.1634 -4.5194 -2.0338 0.9798
0.5062 -4.6393 -2.0339 0.9798
2.1107 -4.1622 -2.0339 0.9798
-3.8403 -2.1349 -2.0338 0.9808
-3.6325 -2.4721 -2.0338 0.9808
-3.1303 -3.0834 -2.0338 0.9808
-1.4741 -4.1392 -2.0338 0.9808
-1.0954 -4.2551 -2.0338 0.9808
-0.7078 -4.3365 -2.0338 0.9808
1.2523 -4.2117 -2.0339 0.9808
1.9873 -3.9188 -2.0339 0.9808
-3.6239 -2.0146 -2.0338 0.9817
-3.4278 -2.3328 -2.0338 0.9817
-3.2038 -2.6319 -2.0338 0.9817
-2.6799 -3.1638 -2.0338 0.9817
-2.3841 -3.3923 -2.0338 0.9817
-2.0690 -3.5932 -2.0338 0.9817
-1.3910 -3.9060 -2.0338 0.9817
-1.0337 -4.0154 -2.0338 0.9817
-0.2968 -4.1357 -2.0339 0.9817
0.0768 -4.1456 -2.0339 0.9817
0.8191 -4.0646 -2.0339 0.9817
1.1817 -3.9744 -2.0339 0.9817
1.5348 -3.8518 -2.0339 0.9817
-1.1062 -0.4904 -0.6277 0.9946
-3.0293 -2.4886 -2.0338 0.9825
-2.2542 -3.2075 -2.0338 0.9825
-1.9563 -3.3975 -2.0338 0.9825
-1.3152 -3.6932 -2.0338 0.9825
-0.6316 -3.8693 -2.0339 0.9825
-0.2806 -3.9104 -2.0339 0.9825
0.4252 -3.8974 -2.0339 0.9825
-2.6454 -2.6059 -2.0338 0.9832
-2.4001 -2.8335 -2.0338 0.9832
-2.1352 -3.0382 -2.0338 0.9832
-1.5557 -3.3718 -2.0338 0.9832
-0.9258 -3.5962 -2.0339 0.9832
1.0584 -3.5595 -2.0339 0.9832
-2.9123 -1.9819 -2.0339 0.9839
-2.7220 -2.2361 -2.0339 0.9839
-2.5096 -2.4721 -2.0339 0.9839
-2.0255 -2.8821 -2.0339 0.9839
-0.8782 -3.4115 -2.0339 0.9839
-0.5675 -3.4768 -2.0339 0.9839
-0.2521 -3.5137 -2.0339 0.9839
1.0040 -3.3767 -2.0339 0.9839
1.5934 -3.1418 -2.0339 0.9839
