ply
format ascii 1.0
element vertex 262
property float32 x
property float32 y
property float32 z
property float32 I
end_header
3.3289 18.4385 2.8703 0.9270
1.6129 17.7459 2.7298 0.9304
1.6137 17.7565 2.3218 0.9306
3.2847 18.1942 1.9853 0.9283
1.6555 18.2167 1.5484 0.9292
3.1573 17.4881 1.1020 0.9313
1.6418 18.0645 1.1248 0.9299
3.4619 19.1754 0.7683 0.9250
3.4038 18.8538 0.3236 0.9262
1.7934 19.7336 0.3347 0.9238
3.3332 18.4631 -0.5283 0.9277
13.4230 9.1906 -1.1928 0.9368
13.2017 9.0390 -1.5360 0.9377
-1.3793 7.8787 -0.7679 0.9684
-1.9832 7.4165 -0.7370 0.9696
16.5967 4.2105 -2.0339 0.9334
16.1627 5.6526 -2.0339 0.9334
8.6640 14.7690 -2.0339 0.9334
5.9448 16.0575 -2.0339 0.9334
1.5498 17.0521 -2.0339 0.9334
0.0455 17.1223 -2.0339 0.9334
-0.6867 8.0285 -0.9572 0.9681
-1.3286 7.5891 -0.9152 0.9694
-8.5848 14.8138 -2.0338 0.9334
13.9137 3.5299 -2.0339 0.9437
13.5498 4.7388 -2.0339 0.9437
11.8445 8.1097 -2.0339 0.9437
11.0861 9.1191 -2.0339 0.9437
10.2420 10.0579 -2.0339 0.9437
8.3232 11.6954 -2.0339 0.9437
7.2634 12.3815 -2.0339 0.9437
6.1473 12.9718 -2.0339 0.9437
4.9838 13.4617 -2.0339 0.9437
3.7817 13.8475 -2.0339 0.9437
-7.1971 12.4191 -2.0338 0.9437
-8.2604 11.7387 -2.0338 0.9437
11.9669 3.0360 -2.0339 0.9512
11.6538 4.0757 -2.0339 0.9512
10.7605 6.0528 -2.0339 0.9512
10.1871 6.9749 -2.0339 0.9512
8.8088 8.6505 -2.0339 0.9512
8.0147 9.3910 -2.0339 0.9512
7.1585 10.0589 -2.0339 0.9512
5.2871 11.1567 -2.0339 0.9512
4.2864 11.5781 -2.0339 0.9512
3.2526 11.9099 -2.0339 0.9512
2.1935 12.1496 -2.0339 0.9512
0.0328 12.3458 -2.0338 0.9512
-0.6321 7.3905 -1.2219 0.9704
-1.2661 7.2325 -1.2096 0.9707
-1.9146 7.1604 -1.2210 0.9704
-7.1046 10.0962 -2.0338 0.9512
10.4883 2.6609 -2.0338 0.9569
9.8607 4.4558 -2.0339 0.9569
7.7205 7.5817 -2.0339 0.9569
7.0244 8.2308 -2.0339 0.9569
3.7568 10.1476 -2.0339 0.9569
2.8507 10.4384 -2.0339 0.9569
1.9224 10.6485 -2.0338 0.9569
0.0287 10.8205 -2.0338 0.9569
-1.8787 7.0260 -1.3670 0.9708
-3.7028 10.1671 -2.0338 0.9569
-6.2269 8.8488 -2.0338 0.9569
9.3263 2.3661 -2.0338 0.9614
8.3861 4.7172 -2.0338 0.9614
7.4309 6.1124 -2.0339 0.9614
4.8686 8.2992 -2.0338 0.9614
4.1205 8.6948 -2.0338 0.9614
2.5348 9.2819 -2.0338 0.9614
1.7095 9.4687 -2.0338 0.9614
0.8708 9.5822 -2.0338 0.9614
-0.6358 7.4330 -1.5769 0.9700
-1.2538 7.1621 -1.5369 0.9707
-3.2925 9.0406 -2.0338 0.9614
8.3880 2.1280 -2.0338 0.9651
7.8860 3.5635 -2.0338 0.9651
7.5424 4.2427 -2.0338 0.9651
6.6833 5.4975 -2.0338 0.9651
5.6178 6.5825 -2.0338 0.9651
5.0177 7.0507 -2.0338 0.9651
3.7059 7.8201 -2.0338 0.9651
0.0230 8.6537 -2.0338 0.9651
-2.9613 8.1311 -2.0338 0.9651
-3.6643 7.8394 -2.0338 0.9651
-4.9799 7.0769 -2.0338 0.9651
7.6139 1.9316 -2.0338 0.9681
7.4147 2.5932 -2.0338 0.9681
6.8463 3.8511 -2.0338 0.9681
6.4814 4.4378 -2.0338 0.9681
4.5546 6.3999 -2.0338 0.9681
2.7272 7.3665 -2.0338 0.9681
2.0694 7.5776 -2.0338 0.9681
1.3956 7.7301 -2.0338 0.9681
0.7110 7.8228 -2.0338 0.9681
-0.6636 7.7582 -2.0161 0.9683
-2.0291 7.5884 -2.0338 0.9681
-2.6880 7.3807 -2.0338 0.9681
-3.3261 7.1159 -2.0338 0.9681
-3.9384 6.7961 -2.0338 0.9681
-4.5204 6.4238 -2.0338 0.9681
6.9637 1.7667 -2.0338 0.9706
6.5469 2.9584 -2.0338 0.9706
6.2616 3.5222 -2.0338 0.9706
5.9280 4.0588 -2.0338 0.9706
5.5484 4.5639 -2.0338 0.9706
5.1259 5.0338 -2.0338 0.9706
4.6638 5.4647 -2.0338 0.9706
4.1656 5.8534 -2.0338 0.9706
2.4943 6.7374 -2.0338 0.9706
1.2764 7.0700 -2.0338 0.9706
0.6502 7.1548 -2.0338 0.9706
0.0191 7.1842 -2.0338 0.9706
-0.6122 7.1581 -2.0338 0.9706
-1.2388 7.0766 -2.0338 0.9706
-1.8558 6.9403 -2.0338 0.9706
-2.4584 6.7504 -2.0338 0.9706
-3.6021 6.2158 -2.0338 0.9706
3.8339 5.3874 -2.0338 0.9727
1.7420 6.3787 -2.0338 0.9727
0.0175 6.6123 -2.0338 0.9727
-1.1402 6.5132 -2.0338 0.9727
-1.7081 6.3878 -2.0338 0.9727
-2.2627 6.2130 -2.0338 0.9727
-3.8052 5.4075 -2.0338 0.9727
5.9306 1.5046 -2.0338 0.9745
5.7755 2.0198 -2.0338 0.9745
5.5757 2.5195 -2.0338 0.9745
5.3327 2.9997 -2.0338 0.9745
3.5476 4.9850 -2.0338 0.9745
3.0959 5.2774 -2.0338 0.9745
2.1243 5.7379 -2.0338 0.9745
1.0870 6.0211 -2.0338 0.9745
-0.5214 6.0962 -2.0338 0.9745
-2.5908 5.5428 -2.0338 0.9745
-3.0677 5.2936 -2.0338 0.9745
5.5126 1.3986 -2.0338 0.9761
4.3922 3.6129 -2.0338 0.9761
3.2976 4.6337 -2.0338 0.9761
2.4355 5.1394 -2.0338 0.9761
-0.4847 5.6665 -2.0338 0.9761
-1.4691 5.4942 -2.0338 0.9761
-1.9462 5.3438 -2.0338 0.9761
-2.4081 5.1521 -2.0338 0.9761
-3.2729 4.6510 -2.0337 0.9761
5.0096 1.7520 -2.0338 0.9775
4.8363 2.1854 -2.0338 0.9775
4.3791 2.9983 -2.0338 0.9775
3.7866 3.7186 -2.0338 0.9775
2.6854 4.5777 -2.0338 0.9775
2.2728 4.7959 -2.0338 0.9775
1.8425 4.9771 -2.0338 0.9775
1.3981 5.1197 -2.0338 0.9775
0.4804 5.2854 -2.0338 0.9775
-0.4523 5.2878 -2.0338 0.9775
-0.9152 5.2276 -2.0338 0.9775
-1.3709 5.1270 -2.0338 0.9775
-2.2472 4.8078 -2.0338 0.9775
-3.0541 4.3402 -2.0337 0.9775
4.5284 2.0463 -2.0338 0.9788
4.3311 2.4362 -2.0338 0.9788
3.8377 3.1568 -2.0338 0.9788
3.5455 3.4818 -2.0338 0.9788
3.2259 3.7799 -2.0338 0.9788
2.8813 4.0487 -2.0338 0.9788
2.5144 4.2862 -2.0338 0.9788
2.1281 4.4906 -2.0338 0.9788
1.7253 4.6602 -2.0338 0.9788
1.3091 4.7937 -2.0338 0.9788
0.8829 4.8902 -2.0338 0.9788
0.4498 4.9488 -2.0338 0.9788
-0.4235 4.9512 -2.0338 0.9788
-1.2837 4.8005 -2.0338 0.9788
-2.1041 4.5017 -2.0338 0.9788
-2.4916 4.2994 -2.0338 0.9788
-2.8597 4.0638 -2.0337 0.9788
4.5233 1.1476 -2.0338 0.9798
4.4050 1.5406 -2.0338 0.9798
4.2526 1.9217 -2.0338 0.9798
4.0673 2.2879 -2.0338 0.9798
3.8505 2.6364 -2.0338 0.9798
3.6040 2.9646 -2.0338 0.9798
3.0295 3.5497 -2.0338 0.9798
2.3612 4.0252 -2.0338 0.9798
1.6202 4.3763 -2.0338 0.9798
1.2294 4.5018 -2.0338 0.9798
0.8291 4.5924 -2.0338 0.9798
0.4223 4.6475 -2.0338 0.9798
0.0124 4.6666 -2.0338 0.9798
-0.3977 4.6496 -2.0338 0.9798
-1.5969 4.3848 -2.0338 0.9798
-2.6855 3.8163 -2.0337 0.9798
4.1474 1.4505 -2.0338 0.9808
3.8295 2.1541 -2.0338 0.9808
3.6254 2.4823 -2.0338 0.9808
3.3933 2.7912 -2.0338 0.9808
3.1349 3.0786 -2.0338 0.9808
2.5476 3.5798 -2.0338 0.9808
2.2232 3.7898 -2.0338 0.9808
1.5254 4.1204 -2.0338 0.9808
0.3977 4.3757 -2.0338 0.9808
0.0117 4.3937 -2.0338 0.9808
-0.3744 4.3777 -2.0338 0.9808
-1.1350 4.2446 -2.0338 0.9808
-1.8604 3.9804 -2.0338 0.9808
4.0188 1.0196 -2.0338 0.9817
3.9137 1.3687 -2.0338 0.9817
3.7783 1.7073 -2.0338 0.9817
3.6137 2.0327 -2.0338 0.9817
3.2020 2.6339 -2.0338 0.9817
2.9582 2.9051 -2.0338 0.9817
2.6916 3.1538 -2.0338 0.9817
2.4041 3.3781 -2.0338 0.9817
2.0979 3.5762 -2.0338 0.9817
1.4395 3.8883 -2.0338 0.9817
1.0923 3.9997 -2.0338 0.9817
0.7366 4.0802 -2.0338 0.9817
-0.3533 4.1310 -2.0338 0.9817
-0.7150 4.0840 -2.0338 0.9817
-1.7556 3.7561 -2.0338 0.9817
-2.0788 3.5873 -2.0337 0.9817
3.7005 1.2942 -2.0338 0.9825
3.5725 1.6143 -2.0338 0.9825
3.4169 1.9220 -2.0338 0.9825
3.0277 2.4905 -2.0338 0.9825
2.5450 2.9820 -2.0338 0.9825
2.2731 3.1941 -2.0338 0.9825
1.3611 3.6765 -2.0338 0.9825
1.0328 3.7818 -2.0338 0.9825
-0.6760 3.8616 -2.0338 0.9825
-1.3415 3.6836 -2.0338 0.9825
-1.6600 3.5515 -2.0338 0.9825
-1.9656 3.3919 -2.0337 0.9825
-2.2561 3.2060 -2.0337 0.9825
1.8571 0.4712 -1.0494 0.9913
3.2364 1.8205 -2.0338 0.9832
3.0639 2.0978 -2.0338 0.9832
2.8678 2.3589 -2.0338 0.9832
2.1530 3.0254 -2.0338 0.9832
1.8789 3.2029 -2.0338 0.9832
1.2892 3.4823 -2.0338 0.9832
0.9783 3.5821 -2.0338 0.9832
0.6598 3.6542 -2.0338 0.9832
-0.3164 3.6998 -2.0338 0.9832
-0.6403 3.6577 -2.0338 0.9832
-0.9592 3.5872 -2.0338 0.9832
-1.2707 3.4891 -2.0338 0.9832
-1.5723 3.3639 -2.0338 0.9832
-2.1369 3.0367 -2.0337 0.9832
3.0702 1.7270 -2.0338 0.9839
2.2868 2.6795 -2.0338 0.9839
2.0425 2.8700 -2.0338 0.9839
1.7824 3.0384 -2.0338 0.9839
1.5085 3.1833 -2.0338 0.9839
1.2230 3.3035 -2.0338 0.9839
0.9280 3.3982 -2.0338 0.9839
0.6259 3.4666 -2.0338 0.9839
0.0093 3.5226 -2.0338 0.9839
-0.6074 3.4698 -2.0338 0.9839
-0.9100 3.4030 -2.0338 0.9839
-1.2054 3.3099 -2.0338 0.9839
-1.4916 3.1912 -2.0338 0.9839
-2.0271 2.8808 -2.0337 0.9839
