ply
format ascii 1.0
element vertex 200
property float32 x
property float32 y
property float32 z
property float32 I
end_header
-11.7182 11.9368 2.1783 0.9348
-11.1543 13.5582 1.8853 0.9318
-11.3775 13.8295 1.5160 0.9306
-1.9516 7.6493 -0.5788 0.9688
-16.3842 6.0925 -1.2817 0.9323
-1.3048 7.9800 -0.7763 0.9680
-1.8726 7.3396 -0.7272 0.9700
-1.2380 7.5717 -0.9114 0.9696
-1.8767 7.3557 -0.9017 0.9699
-7.0639 15.5976 -2.0339 0.9334
-8.4032 14.9185 -2.0339 0.9334
-13.0187 11.1203 -2.0338 0.9334
-16.0471 5.9672 -2.0337 0.9334
-16.5080 4.5382 -2.0337 0.9334
-16.8420 3.0744 -2.0336 0.9334
-17.0464 1.5870 -2.0336 0.9334
-17.1196 0.0874 -2.0336 0.9334
-17.0613 -1.4128 -2.0336 0.9334
-1.2188 7.4540 -1.0702 0.9699
-5.9220 13.0761 -2.0339 0.9437
-8.1134 11.8415 -2.0339 0.9437
-9.1196 11.0849 -2.0338 0.9437
-11.6890 8.3305 -2.0338 0.9437
-12.9634 6.1622 -2.0337 0.9437
-13.4532 5.0027 -2.0337 0.9437
-13.8397 3.8047 -2.0337 0.9437
-14.1197 2.5775 -2.0337 0.9437
-1.1989 7.3325 -1.2240 0.9703
-1.8108 7.0973 -1.2067 0.9707
-4.0885 11.6496 -2.0339 0.9512
-5.0934 11.2465 -2.0339 0.9512
-7.8436 9.5339 -2.0338 0.9512
-9.3872 8.0183 -2.0338 0.9512
-12.2916 1.1443 -2.0337 0.9512
-12.3025 -1.0187 -2.0336 0.9512
-4.4641 9.8570 -2.0339 0.9569
-5.3105 9.4279 -2.0339 0.9569
-6.1161 8.9263 -2.0338 0.9569
-6.8746 8.3561 -2.0338 0.9569
-7.5801 7.7216 -2.0338 0.9569
-9.3277 5.4836 -2.0338 0.9569
-10.4329 2.8681 -2.0337 0.9569
-10.7732 1.0030 -2.0337 0.9569
-10.7827 -0.8929 -2.0337 0.9569
-1.8137 7.1089 -1.5508 0.9705
-2.5858 7.3679 -1.6506 0.9686
-4.7221 8.3833 -2.0339 0.9614
-5.4385 7.9373 -2.0338 0.9614
-6.7403 6.8661 -2.0338 0.9614
-7.8352 5.5840 -2.0338 0.9614
-9.2770 2.5503 -2.0337 0.9614
-9.4647 1.7278 -2.0337 0.9614
-9.6209 0.0491 -2.0337 0.9614
-9.5881 -0.7939 -2.0337 0.9614
-1.8357 7.1948 -1.7451 0.9700
-2.8658 8.1656 -2.0339 0.9651
-3.5702 7.8831 -2.0339 0.9651
-4.2471 7.5399 -2.0338 0.9651
-4.8913 7.1388 -2.0338 0.9651
-7.0470 5.0223 -2.0338 0.9651
-8.3438 2.2938 -2.0337 0.9651
-8.5126 1.5539 -2.0337 0.9651
-8.6159 0.8022 -2.0337 0.9651
-8.6530 0.0442 -2.0337 0.9651
-8.6236 -0.7141 -2.0337 0.9651
-1.9419 7.6115 -2.0339 0.9681
-2.6013 7.4120 -2.0339 0.9681
-5.5028 5.6054 -2.0338 0.9681
-5.9727 5.1017 -2.0338 0.9681
-7.3623 2.7377 -2.0338 0.9681
-7.8209 0.7281 -2.0337 0.9681
-1.7761 6.9614 -2.0339 0.9706
-2.9639 6.5445 -2.0338 0.9706
-4.0607 5.9266 -2.0338 0.9706
-4.5644 5.5480 -2.0338 0.9706
-6.4883 3.0843 -2.0338 0.9706
-6.9270 1.9043 -2.0337 0.9706
-7.0672 1.2901 -2.0337 0.9706
-7.1530 0.6659 -2.0337 0.9706
-7.1838 0.0367 -2.0337 0.9706
-1.0671 6.5258 -2.0339 0.9727
-1.6347 6.4072 -2.0339 0.9727
-2.7280 6.0235 -2.0338 0.9727
-3.2452 5.7613 -2.0338 0.9727
-3.7375 5.4548 -2.0338 0.9727
-4.6322 4.7186 -2.0338 0.9727
-5.3846 3.8376 -2.0338 0.9727
-5.7002 3.3510 -2.0338 0.9727
-5.9718 2.8387 -2.0338 0.9727
-6.1975 2.3046 -2.0338 0.9727
-6.5836 0.6129 -2.0337 0.9727
-6.6120 0.0338 -2.0337 0.9727
-6.5895 -0.5457 -2.0337 0.9727
-0.9873 6.0384 -2.0339 0.9745
-2.5243 5.5736 -2.0338 0.9745
-3.0028 5.3310 -2.0338 0.9745
-3.4583 5.0474 -2.0338 0.9745
-4.2862 4.3662 -2.0338 0.9745
-5.2744 3.1007 -2.0338 0.9745
-5.5258 2.6267 -2.0338 0.9745
-5.7346 2.1324 -2.0338 0.9745
-6.0187 1.0987 -2.0337 0.9745
-6.0919 0.5671 -2.0337 0.9745
-6.1181 0.0312 -2.0337 0.9745
-1.8834 5.3664 -2.0338 0.9761
-2.3463 5.1808 -2.0338 0.9761
-2.7912 4.9553 -2.0338 0.9761
-3.2146 4.6917 -2.0338 0.9761
-3.6133 4.3920 -2.0338 0.9761
-3.9841 4.0585 -2.0338 0.9761
-4.3244 3.6938 -2.0338 0.9761
-4.6314 3.3007 -2.0338 0.9761
-5.6626 0.5271 -2.0337 0.9761
-5.6869 0.0290 -2.0337 0.9761
-5.6676 -0.4693 -2.0337 0.9761
-0.8564 5.2377 -2.0339 0.9775
-1.3120 5.1425 -2.0338 0.9775
-1.7575 5.0078 -2.0338 0.9775
-2.1895 4.8345 -2.0338 0.9775
-2.9998 4.3781 -2.0338 0.9775
-3.3718 4.0984 -2.0338 0.9775
-3.7179 3.7872 -2.0338 0.9775
-4.3219 3.0801 -2.0338 0.9775
-4.5751 2.6896 -2.0338 0.9775
-4.7931 2.2784 -2.0338 0.9775
-4.9743 1.8497 -2.0338 0.9775
-5.2207 0.9530 -2.0338 0.9775
-5.2841 0.4919 -2.0337 0.9775
-5.3068 0.0271 -2.0337 0.9775
-1.2285 4.8151 -2.0338 0.9788
-1.6456 4.6890 -2.0338 0.9788
-2.4388 4.3297 -2.0338 0.9788
-2.8088 4.0994 -2.0338 0.9788
-3.1571 3.8375 -2.0338 0.9788
-3.4812 3.5461 -2.0338 0.9788
-3.7785 3.2275 -2.0338 0.9788
-4.0467 2.8840 -2.0338 0.9788
-4.2838 2.5184 -2.0338 0.9788
-4.4880 2.1333 -2.0338 0.9788
-2.1199 0.3870 -0.8820 0.9907
-1.1537 4.5219 -2.0338 0.9798
-1.5454 4.4034 -2.0338 0.9798
-1.9252 4.2511 -2.0338 0.9798
-2.6377 3.8497 -2.0338 0.9798
-3.2692 3.3302 -2.0338 0.9798
-3.5483 3.0309 -2.0338 0.9798
-4.0229 2.3650 -2.0338 0.9798
-4.3739 1.6264 -2.0338 0.9798
-1.9122 0.1780 -0.8370 0.9917
-1.9182 0.0098 -0.8360 0.9917
-1.9141 -0.1585 -0.8370 0.9917
-1.0862 4.2574 -2.0338 0.9808
-1.4550 4.1459 -2.0338 0.9808
-2.1564 3.8282 -2.0338 0.9808
-2.4835 3.6246 -2.0338 0.9808
-3.3408 2.8537 -2.0338 0.9808
-3.5780 2.5500 -2.0338 0.9808
-3.9682 1.8863 -2.0338 0.9808
-1.6070 0.2933 -0.7562 0.9928
-1.6056 0.1495 -0.7464 0.9929
-1.6032 -0.1328 -0.7447 0.9929
-0.6691 4.0919 -2.0338 0.9817
-1.0250 4.0176 -2.0338 0.9817
-1.3730 3.9123 -2.0338 0.9817
-1.7105 3.7769 -2.0338 0.9817
-2.3436 3.4204 -2.0338 0.9817
-2.6342 3.2019 -2.0338 0.9817
-3.1526 2.6929 -2.0338 0.9817
-3.5743 2.1012 -2.0338 0.9817
-1.2604 0.4687 -0.6596 0.9940
-1.3068 0.3592 -0.6648 0.9940
-1.3532 -0.1121 -0.6660 0.9940
-1.9240 3.4158 -2.0338 0.9825
-2.4907 3.0274 -2.0338 0.9825
-2.9809 2.5462 -2.0338 0.9825
-3.1925 2.2752 -2.0338 0.9825
-3.3795 1.9868 -2.0338 0.9825
-1.1583 0.3184 -0.6232 0.9946
-1.2005 -0.0994 -0.6249 0.9946
-0.9180 3.5981 -2.0338 0.9832
-1.2297 3.5038 -2.0338 0.9832
-1.8224 3.2354 -2.0338 0.9832
-2.0989 3.0633 -2.0338 0.9832
-2.8235 2.4118 -2.0338 0.9832
-1.0209 0.3796 -0.5965 0.9950
-1.0765 0.0055 -0.5896 0.9951
-1.0805 -0.0895 -0.5938 0.9951
-0.5684 3.4765 -2.0338 0.9839
-0.8709 3.4133 -2.0338 0.9839
-1.1665 3.3239 -2.0338 0.9839
-1.4533 3.2089 -2.0338 0.9839
-1.7288 3.0693 -2.0338 0.9839
-1.9911 2.9060 -2.0338 0.9839
-2.2380 2.7204 -2.0338 0.9839
-2.4677 2.5138 -2.0338 0.9839
-2.6785 2.2879 -2.0338 0.9839
-0.9442 0.3511 -0.5816 0.9954
-0.9591 0.2637 -0.5743 0.9954
-0.9780 0.1785 -0.5740 0.9954
-0.9891 -0.0819 -0.5730 0.9954
