ply
format ascii 1.0
element vertex 206
property float32 x
property float32 y
property float32 z
property float32 I
end_header
2.6534 18.8186 3.3510 0.9257
-11.8419 12.7111 2.6614 0.9321
-11.3270 12.1584 2.1639 0.9352
-11.5241 12.3699 1.8154 0.9342
-11.6493 12.5044 1.4467 0.9337
2.4350 17.2709 1.0816 0.9325
2.5177 17.8571 0.3046 0.9304
-12.0502 12.9347 -0.4978 0.9317
-12.0721 12.9582 -0.8982 0.9315
-17.2929 5.0989 -0.9143 0.9303
-16.7726 4.9455 -1.2821 0.9323
-1.6430 7.4889 -0.7361 0.9697
-16.7411 4.9363 -1.6756 0.9323
6.7797 15.7235 -2.0339 0.9334
0.8739 17.1002 -2.0339 0.9334
-0.9627 7.5421 -0.9032 0.9698
-1.6144 7.3587 -0.8949 0.9701
-5.1411 16.3320 -2.0339 0.9334
-6.5725 15.8102 -2.0338 0.9334
-11.6707 12.5273 -2.0338 0.9334
-15.3048 7.6735 -2.0337 0.9334
5.6837 13.1817 -2.0339 0.9437
3.2597 13.9797 -2.0339 0.9437
2.0041 14.2140 -2.0339 0.9437
-0.5446 14.3442 -2.0339 0.9437
-1.6052 7.3169 -1.0614 0.9702
-2.2987 7.3025 -1.0847 0.9695
-6.6664 12.7121 -2.0338 0.9437
-9.7842 10.5023 -2.0338 0.9437
-11.4891 8.6037 -2.0337 0.9437
-12.8309 6.4331 -2.0337 0.9437
-13.3518 5.2671 -2.0337 0.9437
4.8884 11.3372 -2.0339 0.9512
2.8036 12.0236 -2.0339 0.9512
0.6302 12.3299 -2.0339 0.9512
-0.4684 12.3371 -2.0339 0.9512
-0.9436 7.3923 -1.2277 0.9702
-2.2885 7.2696 -1.2555 0.9696
-5.7336 10.9334 -2.0338 0.9512
-7.5790 9.7452 -2.0338 0.9512
-11.8409 3.4914 -2.0337 0.9512
4.2844 9.9365 -2.0339 0.9569
3.3841 10.2779 -2.0339 0.9569
0.5523 10.8065 -2.0339 0.9569
-0.9285 7.2745 -1.3784 0.9706
-1.5766 7.1862 -1.3828 0.9705
-2.2553 7.1644 -1.4118 0.9699
-8.6608 6.4856 -2.0337 0.9569
-10.0650 3.9705 -2.0337 0.9569
3.8097 8.8355 -2.0339 0.9614
3.0093 9.1392 -2.0339 0.9614
1.3433 9.5275 -2.0338 0.9614
-0.2961 7.7996 -1.6499 0.9686
-1.5937 7.2641 -1.5720 0.9701
-3.6934 8.8845 -2.0338 0.9614
-6.5584 7.0398 -2.0338 0.9614
-7.1581 6.4289 -2.0337 0.9614
-8.1834 5.0597 -2.0337 0.9614
2.7065 8.2197 -2.0338 0.9651
1.9651 8.4278 -2.0338 0.9651
1.2081 8.5690 -2.0338 0.9651
-0.9302 7.2877 -1.7267 0.9703
-4.6842 7.2761 -2.0338 0.9651
-5.8986 6.3315 -2.0338 0.9651
-6.4380 5.7822 -2.0337 0.9651
-6.9265 5.1870 -2.0337 0.9651
-8.2999 2.4473 -2.0337 0.9651
1.7838 7.6499 -2.0338 0.9681
1.0966 7.7782 -2.0338 0.9681
0.4009 7.8449 -2.0338 0.9681
-0.9443 7.3975 -1.9309 0.9697
-1.6832 7.6726 -2.0338 0.9681
-3.6480 6.9564 -2.0338 0.9681
-4.8222 6.2004 -2.0338 0.9681
-5.3543 5.7472 -2.0338 0.9681
-6.6809 4.1307 -2.0337 0.9681
-7.0216 3.5205 -2.0337 0.9681
-7.3067 2.8824 -2.0337 0.9681
2.8445 6.5972 -2.0338 0.9706
2.2469 6.8239 -2.0338 0.9706
1.6314 6.9966 -2.0338 0.9706
1.0030 7.1139 -2.0338 0.9706
-0.9096 7.1264 -2.0338 0.9706
-1.5395 7.0173 -2.0338 0.9706
-2.1572 6.8527 -2.0338 0.9706
-3.3365 6.3624 -2.0338 0.9706
-4.4104 5.6709 -2.0338 0.9706
-6.1103 3.7780 -2.0337 0.9706
2.6181 6.0720 -2.0338 0.9727
1.5016 6.4396 -2.0338 0.9727
0.9232 6.5476 -2.0338 0.9727
-0.2508 6.6076 -2.0338 0.9727
-0.8372 6.5591 -2.0338 0.9727
-1.9855 6.3071 -2.0338 0.9727
-2.5382 6.1057 -2.0338 0.9727
-3.0709 5.8559 -2.0338 0.9727
-4.0593 5.2195 -2.0338 0.9727
-4.5071 4.8380 -2.0338 0.9727
-5.9107 2.9635 -2.0337 0.9727
1.3894 5.9587 -2.0338 0.9745
-1.8371 5.8361 -2.0338 0.9745
-3.7561 4.8296 -2.0338 0.9745
-4.1705 4.4767 -2.0338 0.9745
-5.6913 2.2452 -2.0337 0.9745
1.7787 5.4020 -2.0338 0.9761
0.2903 5.6799 -2.0338 0.9761
-0.2157 5.6832 -2.0338 0.9761
-1.2187 5.5551 -2.0338 0.9761
-1.7077 5.4248 -2.0338 0.9761
-2.1831 5.2515 -2.0338 0.9761
-3.4914 4.4893 -2.0338 0.9761
-3.8766 4.1611 -2.0338 0.9761
-4.2311 3.8001 -2.0337 0.9761
-4.5522 3.4089 -2.0337 0.9761
-5.2903 2.0870 -2.0337 0.9761
1.6598 5.0410 -2.0338 0.9775
1.2052 5.1685 -2.0338 0.9775
-0.2013 5.3033 -2.0338 0.9775
-0.6719 5.2645 -2.0338 0.9775
-2.0372 4.9005 -2.0338 0.9775
-2.4648 4.7000 -2.0338 0.9775
-2.8728 4.4623 -2.0338 0.9775
-3.2580 4.1893 -2.0338 0.9775
-4.2479 3.1811 -2.0337 0.9775
-4.5139 2.7909 -2.0337 0.9775
-4.9367 1.9475 -2.0337 0.9775
-5.0903 1.5009 -2.0337 0.9775
1.5541 4.7200 -2.0338 0.9788
1.1284 4.8395 -2.0338 0.9788
0.6938 4.9206 -2.0338 0.9788
-0.6291 4.9293 -2.0338 0.9788
-1.4921 4.7399 -2.0338 0.9788
-1.9075 4.5886 -2.0338 0.9788
-2.3079 4.4008 -2.0338 0.9788
-3.6970 3.3204 -2.0337 0.9788
-3.9775 2.9786 -2.0337 0.9788
-4.2265 2.6132 -2.0337 0.9788
-4.4421 2.2272 -2.0337 0.9788
-4.6224 1.8235 -2.0337 0.9788
1.4595 4.4326 -2.0338 0.9798
0.6515 4.6210 -2.0338 0.9798
0.2382 4.6606 -2.0338 0.9798
-2.1673 4.1328 -2.0338 0.9798
-2.8648 3.6837 -2.0338 0.9798
-3.1809 3.4144 -2.0338 0.9798
-3.4718 3.1181 -2.0337 0.9798
-3.7352 2.7972 -2.0337 0.9798
-3.9691 2.4541 -2.0337 0.9798
-4.3409 1.7124 -2.0337 0.9798
1.7397 4.0347 -2.0338 0.9808
0.6134 4.3507 -2.0338 0.9808
0.2243 4.3880 -2.0338 0.9808
-0.1667 4.3906 -2.0338 0.9808
-0.9415 4.2917 -2.0338 0.9808
-1.3193 4.1910 -2.0338 0.9808
-2.3784 3.6943 -2.0338 0.9808
-3.2688 2.9358 -2.0337 0.9808
-3.5168 2.6336 -2.0337 0.9808
-3.7370 2.3106 -2.0337 0.9808
-3.9276 1.9692 -2.0337 0.9808
-4.0871 1.6123 -2.0337 0.9808
1.6416 3.8074 -2.0338 0.9817
0.9415 4.0379 -2.0338 0.9817
0.5788 4.1056 -2.0338 0.9817
0.2116 4.1408 -2.0338 0.9817
-0.1573 4.1432 -2.0338 0.9817
-0.5250 4.1128 -2.0338 0.9817
-1.9256 3.6719 -2.0338 0.9817
-2.2443 3.4862 -2.0338 0.9817
-2.5453 3.2728 -2.0338 0.9817
-3.0846 2.7704 -2.0337 0.9817
-3.3187 2.4852 -2.0337 0.9817
-3.5264 2.1804 -2.0337 0.9817
-1.2533 0.4944 -0.6609 0.9940
-1.2984 0.3829 -0.6640 0.9940
1.5523 3.6000 -2.0338 0.9825
1.2261 3.7237 -2.0338 0.9825
0.8902 3.8179 -2.0338 0.9825
0.5473 3.8820 -2.0338 0.9825
0.2001 3.9152 -2.0338 0.9825
-0.1487 3.9175 -2.0338 0.9825
-0.4964 3.8888 -2.0338 0.9825
-1.1771 3.7394 -2.0338 0.9825
-1.8207 3.4719 -2.0338 0.9825
-2.1221 3.2963 -2.0338 0.9825
-2.6722 2.8684 -2.0338 0.9825
-3.3344 2.0616 -2.0337 0.9825
1.4702 3.4099 -2.0338 0.9832
0.8432 3.6163 -2.0338 0.9832
0.5184 3.6769 -2.0338 0.9832
-0.4702 3.6834 -2.0338 0.9832
-1.1150 3.5420 -2.0338 0.9832
-1.4254 3.4288 -2.0338 0.9832
-1.7245 3.2885 -2.0338 0.9832
-2.0100 3.1222 -2.0338 0.9832
-2.9722 2.2258 -2.0337 0.9832
1.3948 3.2348 -2.0338 0.9839
-0.1336 3.5201 -2.0338 0.9839
-1.3521 3.2527 -2.0338 0.9839
-1.9068 2.9619 -2.0338 0.9839
-2.1626 2.7806 -2.0338 0.9839
-2.4011 2.5774 -2.0338 0.9839
-2.6207 2.3537 -2.0337 0.9839
-2.8196 2.1114 -2.0337 0.9839
-0.9123 0.4574 -0.5892 0.9953
-0.9394 0.3706 -0.5830 0.9953
