ply
format ascii 1.0
element vertex 190
property float32 x
property float32 y
property float32 z
property float32 I
end_header
2.2214 17.5245 2.7061 0.9310
-11.5275 12.4610 2.6005 0.9336
2.2436 17.6994 2.3233 0.9306
-11.3621 12.2822 2.1788 0.9347
-11.4952 12.4261 1.8177 0.9342
-12.9979 11.7978 1.8849 0.9318
2.3268 18.3562 1.5663 0.9284
2.2312 17.6016 1.1002 0.9314
-12.0592 13.0357 1.1012 0.9313
3.8988 17.9963 0.3110 0.9290
-12.0329 13.0072 -0.0998 0.9316
-12.0243 12.9980 -0.8980 0.9315
-16.9909 5.2696 -0.9022 0.9312
-1.6810 7.4145 -0.7299 0.9699
-12.0723 13.0498 -1.7067 0.9311
2.1532 16.9863 -2.0339 0.9334
-0.8289 17.1021 -2.0339 0.9334
-1.0316 7.5559 -0.9059 0.9697
-1.6823 7.4205 -0.9038 0.9698
-6.6276 15.7871 -2.0338 0.9334
-7.9782 15.1494 -2.0338 0.9334
-9.2680 14.3964 -2.0338 0.9334
-12.6778 11.5072 -2.0338 0.9334
-14.4832 9.1310 -2.0338 0.9334
-15.8485 6.4775 -2.0337 0.9334
-16.3526 5.0716 -2.0337 0.9334
3.0393 14.0290 -2.0339 0.9437
-1.6490 7.2735 -1.0567 0.9703
-6.6885 12.7005 -2.0338 0.9437
-7.7698 12.0693 -2.0338 0.9437
-9.7475 10.5367 -2.0338 0.9437
-11.4288 8.6841 -2.0338 0.9437
-12.1420 7.6550 -2.0338 0.9437
-13.2867 5.4304 -2.0337 0.9437
-13.7093 4.2519 -2.0337 0.9437
-0.5977 12.3314 -2.0338 0.9512
-1.6125 7.1122 -1.2014 0.9709
-2.4721 7.7119 -1.3341 0.9677
-4.7788 11.3833 -2.0338 0.9512
-7.5619 9.7586 -2.0338 0.9512
-8.3836 9.0624 -2.0338 0.9512
-10.4432 6.5840 -2.0338 0.9512
-11.4277 4.6706 -2.0338 0.9512
-11.7912 3.6570 -2.0337 0.9512
2.2911 10.5753 -2.0339 0.9569
1.3607 10.7347 -2.0338 0.9569
-0.3764 7.7659 -1.4614 0.9689
-0.9981 7.3103 -1.3868 0.9704
-2.2979 7.1682 -1.4149 0.9698
-4.1884 9.9769 -2.0338 0.9569
-5.0420 9.5739 -2.0338 0.9569
-6.6277 8.5530 -2.0338 0.9569
-8.0120 7.2722 -2.0338 0.9569
-8.6153 6.5463 -2.0338 0.9569
-10.3345 3.2052 -2.0338 0.9569
1.2100 9.5454 -2.0338 0.9614
-0.3681 7.5934 -1.6070 0.9694
-0.9892 7.2452 -1.5457 0.9705
-1.6424 7.2440 -1.5701 0.9701
-6.5337 7.0628 -2.0338 0.9614
-7.1244 6.4666 -2.0338 0.9614
-7.6608 5.8210 -2.0338 0.9614
-8.1389 5.1313 -2.0338 0.9614
1.8323 8.4576 -2.0338 0.9651
1.0883 8.5851 -2.0338 0.9651
0.3359 8.6472 -2.0338 0.9651
-0.3672 7.5768 -1.7828 0.9693
-0.9877 7.2340 -1.7159 0.9704
-3.3497 7.9791 -2.0338 0.9651
-4.0323 7.6567 -2.0338 0.9651
-5.8764 6.3523 -2.0338 0.9651
-6.8901 5.2355 -2.0338 0.9651
-7.3201 4.6151 -2.0338 0.9651
-7.6945 3.9596 -2.0338 0.9651
-8.0102 3.2739 -2.0338 0.9651
-8.2651 2.5633 -2.0338 0.9651
0.3049 7.8492 -2.0338 0.9681
-0.9992 7.3185 -1.9125 0.9699
-1.7368 7.6606 -2.0338 0.9681
-3.6602 6.9502 -2.0338 0.9681
-4.2520 6.6047 -2.0338 0.9681
-7.2710 2.9718 -2.0338 0.9681
0.9034 7.1273 -2.0338 0.9706
-0.9718 7.1182 -2.0338 0.9706
-2.1930 6.8413 -2.0338 0.9706
-3.8888 6.0407 -2.0338 0.9706
-5.7202 4.3464 -2.0338 0.9706
-6.6500 2.7180 -2.0338 0.9706
-6.8616 2.1281 -2.0338 0.9706
0.8316 6.5599 -2.0338 0.9727
0.2566 6.6074 -2.0338 0.9727
-0.8945 6.5516 -2.0338 0.9727
-4.0502 5.2267 -2.0338 0.9727
-4.4902 4.8538 -2.0338 0.9727
-4.8961 4.4440 -2.0338 0.9727
-5.2648 4.0004 -2.0338 0.9727
-6.3154 1.9587 -2.0338 0.9727
1.2955 5.9798 -2.0338 0.9745
0.7695 6.0700 -2.0338 0.9745
-0.2962 6.1113 -2.0338 0.9745
-0.8277 6.0622 -2.0338 0.9745
-1.3528 5.9670 -2.0338 0.9745
-3.7476 4.8363 -2.0338 0.9745
-4.5304 4.1121 -2.0338 0.9745
-5.6636 2.3148 -2.0338 0.9745
-5.8437 1.8124 -2.0338 0.9745
0.7152 5.6421 -2.0338 0.9761
0.2207 5.6830 -2.0338 0.9761
-0.2754 5.6806 -2.0338 0.9761
-2.6500 5.0321 -2.0338 0.9761
-3.4836 4.4955 -2.0338 0.9761
-4.8109 3.0330 -2.0338 0.9761
-5.0568 2.6022 -2.0338 0.9761
-5.2644 2.1516 -2.0338 0.9761
1.1237 5.1869 -2.0338 0.9775
0.6674 5.2651 -2.0338 0.9775
0.2060 5.3032 -2.0338 0.9775
-0.7179 5.2584 -2.0338 0.9775
-1.6200 5.0538 -2.0338 0.9775
-3.2507 4.1950 -2.0338 0.9775
-3.6039 3.8958 -2.0338 0.9775
-4.4894 2.8303 -2.0338 0.9775
-4.7189 2.4283 -2.0338 0.9775
-5.0689 1.5721 -2.0338 0.9775
1.0521 4.8567 -2.0338 0.9788
0.1929 4.9656 -2.0338 0.9788
-0.6722 4.9236 -2.0338 0.9788
-1.0987 4.8463 -2.0338 0.9788
-1.5169 4.7321 -2.0338 0.9788
-2.3155 4.3968 -2.0338 0.9788
-3.0438 3.9280 -2.0338 0.9788
-3.3745 3.6477 -2.0338 0.9788
-4.4185 2.2737 -2.0338 0.9788
0.9880 4.5609 -2.0338 0.9798
0.5869 4.6296 -2.0338 0.9798
-1.0318 4.5512 -2.0338 0.9798
-1.8064 4.3029 -2.0338 0.9798
-2.1745 4.1291 -2.0338 0.9798
-2.5261 3.9238 -2.0338 0.9798
-3.1690 3.4256 -2.0338 0.9798
-3.4555 3.1364 -2.0338 0.9798
-4.1494 2.1353 -2.0338 0.9798
-4.3197 1.7655 -2.0338 0.9798
-2.0884 0.6477 -0.9530 0.9905
0.5526 4.3589 -2.0338 0.9808
-1.3412 4.1840 -2.0338 0.9808
-1.7007 4.0512 -2.0338 0.9808
-2.3783 3.6944 -2.0338 0.9808
-3.4983 2.6582 -2.0338 0.9808
-3.7167 2.3432 -2.0338 0.9808
-1.5317 0.4751 -0.7423 0.9930
0.5214 4.1133 -2.0338 0.9817
0.1609 4.1431 -2.0338 0.9817
-0.9168 4.0436 -2.0338 0.9817
-1.6049 3.8230 -2.0338 0.9817
-3.0701 2.7866 -2.0338 0.9817
-3.3012 2.5084 -2.0338 0.9817
-3.6866 1.8971 -2.0338 0.9817
-1.2914 0.4005 -0.6632 0.9940
0.8301 3.8315 -2.0338 0.9825
0.4930 3.8893 -2.0338 0.9825
0.1521 3.9174 -2.0338 0.9825
-0.1898 3.9158 -2.0338 0.9825
-1.1967 3.7332 -2.0338 0.9825
-1.8268 3.4687 -2.0338 0.9825
-2.4013 3.0988 -2.0338 0.9825
-2.6622 2.8778 -2.0338 0.9825
-1.1450 0.3551 -0.6219 0.9946
0.7862 3.6292 -2.0338 0.9832
0.4670 3.6839 -2.0338 0.9832
0.1441 3.7105 -2.0338 0.9832
-0.5023 3.6792 -2.0338 0.9832
-0.8211 3.6214 -2.0338 0.9832
-2.0100 3.1223 -2.0338 0.9832
-2.2745 2.9352 -2.0338 0.9832
-2.7496 2.4957 -2.0338 0.9832
-3.1411 1.9804 -2.0338 0.9832
-1.0248 0.5274 -0.6312 0.9948
-1.0340 0.3207 -0.5929 0.9951
0.7459 3.4428 -2.0338 0.9839
0.4430 3.4947 -2.0338 0.9839
0.1368 3.5200 -2.0338 0.9839
-0.1705 3.5185 -2.0338 0.9839
-1.3636 3.2480 -2.0338 0.9839
-1.6414 3.1168 -2.0338 0.9839
-2.1577 2.7845 -2.0338 0.9839
-2.3921 2.5859 -2.0338 0.9839
-2.6084 2.3675 -2.0338 0.9839
-0.9087 0.4676 -0.5900 0.9953
-0.9548 0.2961 -0.5772 0.9954
