ply
format ascii 1.0
element vertex 203
property float32 x
property float32 y
property float32 z
property float32 I
end_header
-11.1473 13.2029 2.2501 0.9327
-11.3282 13.4172 1.8856 0.9318
-11.5962 13.7346 1.5217 0.9304
-12.1187 11.9760 1.4423 0.9339
-12.3908 14.6758 1.1910 0.9259
-12.8989 12.7470 1.1245 0.9299
-16.3905 5.5915 -0.8783 0.9330
-16.2752 5.5522 -1.2609 0.9334
-12.1820 -7.8540 -1.0628 0.9435
-11.0452 13.0821 -2.0338 0.9334
-16.2034 5.5277 -2.0337 0.9334
-16.9317 2.5327 -2.0336 0.9334
-16.9926 -2.0825 -2.0336 0.9334
-16.3436 -5.0956 -2.0336 0.9334
-15.1649 -7.9435 -2.0335 0.9334
-11.9536 -7.7067 -1.6895 0.9443
-9.2598 10.9674 -2.0338 0.9437
-12.5334 6.9950 -2.0337 0.9437
-13.5843 4.6342 -2.0337 0.9437
-14.2459 -1.7458 -2.0336 0.9437
-13.7019 -4.2720 -2.0336 0.9437
-13.2616 -5.4881 -2.0336 0.9437
-12.7138 -6.6596 -2.0336 0.9437
-12.0626 -7.7770 -2.0336 0.9437
-7.9642 9.4329 -2.0338 0.9512
-9.5264 7.8518 -2.0337 0.9512
-10.1945 6.9623 -2.0337 0.9512
-10.7798 6.0163 -2.0337 0.9512
-11.2775 5.0214 -2.0337 0.9512
-11.6837 3.9858 -2.0337 0.9512
-12.2088 1.8262 -2.0337 0.9512
-12.3383 -0.3925 -2.0336 0.9512
-12.2528 -1.5016 -2.0336 0.9512
-12.0679 -2.5985 -2.0336 0.9512
-11.7849 -3.6743 -2.0336 0.9512
-10.9350 -5.7278 -2.0336 0.9512
-6.9803 8.2675 -2.0338 0.9569
-7.6961 7.6055 -2.0337 0.9569
-8.3495 6.8818 -2.0337 0.9569
-8.9350 6.1022 -2.0337 0.9569
-9.4480 5.2731 -2.0337 0.9569
-10.2402 3.4935 -2.0337 0.9569
-10.5130 2.5574 -2.0337 0.9569
-10.8012 0.6309 -2.0337 0.9569
-10.7391 -1.3161 -2.0336 0.9569
-10.5770 -2.2775 -2.0336 0.9569
-10.3290 -3.2203 -2.0336 0.9569
-9.9971 -4.1371 -2.0336 0.9569
-9.5841 -5.0202 -2.0336 0.9569
-6.2069 7.3515 -2.0338 0.9614
-6.8435 6.7629 -2.0337 0.9614
-7.4244 6.1194 -2.0337 0.9614
-7.9451 5.4261 -2.0337 0.9614
-8.7891 3.9135 -2.0337 0.9614
-9.5151 1.4233 -2.0337 0.9614
-9.6045 0.5610 -2.0337 0.9614
-9.6160 -0.3059 -2.0337 0.9614
-9.5494 -1.1703 -2.0337 0.9614
-8.8896 -3.6787 -2.0336 0.9614
-8.0859 -5.2131 -2.0336 0.9614
-5.5825 6.6119 -2.0338 0.9651
-6.1550 6.0825 -2.0337 0.9651
-6.6775 5.5038 -2.0337 0.9651
-7.1459 4.8803 -2.0337 0.9651
-7.9050 3.5198 -2.0337 0.9651
-8.4080 2.0453 -2.0337 0.9651
-8.5579 1.2801 -2.0337 0.9651
-8.6384 0.5046 -2.0337 0.9651
-8.6487 -0.2751 -2.0337 0.9651
-8.5887 -1.0526 -2.0337 0.9651
-7.6650 -4.0150 -2.0336 0.9651
-5.0673 6.0017 -2.0338 0.9681
-5.5870 5.5212 -2.0337 0.9681
-6.0613 4.9958 -2.0337 0.9681
-6.4863 4.4299 -2.0337 0.9681
-6.8587 3.8280 -2.0337 0.9681
-7.6320 1.8566 -2.0337 0.9681
-7.8411 0.4580 -2.0337 0.9681
-7.8505 -0.2497 -2.0337 0.9681
-6.9577 -3.6445 -2.0336 0.9681
-4.6345 5.4892 -2.0338 0.9706
-5.9325 4.0516 -2.0337 0.9706
-6.2730 3.5011 -2.0337 0.9706
-6.5627 2.9222 -2.0337 0.9706
-7.1802 -0.2284 -2.0337 0.9706
-7.0227 -1.5121 -2.0337 0.9706
-6.8581 -2.1382 -2.0337 0.9706
-6.6378 -2.7469 -2.0337 0.9706
-6.3636 -3.3333 -2.0337 0.9706
-6.0377 -3.8926 -2.0337 0.9706
-4.2656 5.0522 -2.0338 0.9727
-4.7031 4.6477 -2.0337 0.9727
-5.4602 3.7290 -2.0337 0.9727
-6.4246 1.5629 -2.0337 0.9727
-6.5392 0.9782 -2.0337 0.9727
-6.6086 -0.2102 -2.0337 0.9727
-6.4637 -1.3918 -2.0337 0.9727
-6.3122 -1.9680 -2.0337 0.9727
-6.1094 -2.5282 -2.0337 0.9727
-5.8570 -3.0679 -2.0337 0.9727
-4.3518 4.3005 -2.0337 0.9745
-5.0524 3.4505 -2.0337 0.9745
-5.7905 1.9754 -2.0337 0.9745
-6.0508 0.9051 -2.0337 0.9745
-6.1150 -0.1945 -2.0337 0.9745
-6.0727 -0.7442 -2.0337 0.9745
-5.9809 -1.2879 -2.0337 0.9745
-5.6530 -2.3394 -2.0337 0.9745
-5.4195 -2.8388 -2.0337 0.9745
-5.1420 -3.3151 -2.0337 0.9745
-3.6688 4.3454 -2.0337 0.9761
-4.0451 3.9975 -2.0337 0.9761
-4.3886 3.6171 -2.0337 0.9761
-4.6963 3.2074 -2.0337 0.9761
-5.3824 1.8362 -2.0337 0.9761
-5.5258 1.3442 -2.0337 0.9761
-5.6244 0.8413 -2.0337 0.9761
-5.6841 -0.1808 -2.0337 0.9761
-5.6447 -0.6918 -2.0337 0.9761
-5.2547 -2.1745 -2.0337 0.9761
-4.7796 -3.0815 -2.0337 0.9761
-3.7748 3.7304 -2.0337 0.9775
-4.0953 3.3754 -2.0337 0.9775
-4.3825 2.9930 -2.0337 0.9775
-4.6341 2.5863 -2.0337 0.9775
-5.1566 1.2544 -2.0337 0.9775
-5.2485 0.7851 -2.0337 0.9775
-5.2979 0.3095 -2.0337 0.9775
-5.1879 -1.1171 -2.0337 0.9775
-5.0663 -1.5796 -2.0337 0.9775
-4.9035 -2.0292 -2.0337 0.9775
-4.7010 -2.4624 -2.0337 0.9775
-4.4602 -2.8756 -2.0337 0.9775
-3.5345 3.4929 -2.0337 0.9788
-3.8345 3.1605 -2.0337 0.9788
-4.7029 1.6044 -2.0337 0.9788
-2.1508 0.5232 -0.9059 0.9905
-2.1132 0.3161 -0.8745 0.9908
-2.1210 -0.4567 -0.8880 0.9907
-4.7438 -1.4790 -2.0337 0.9788
-4.5914 -1.9000 -2.0337 0.9788
-4.1762 -2.6925 -2.0337 0.9788
-3.6010 2.9680 -2.0337 0.9798
-3.8535 2.6318 -2.0337 0.9798
-4.0748 2.2742 -2.0337 0.9798
-4.2630 1.8981 -2.0337 0.9798
-1.8992 0.4620 -0.8518 0.9915
-1.9050 -0.2335 -0.8364 0.9917
-1.9033 -0.4098 -0.8485 0.9915
-2.0934 -0.6527 -0.9557 0.9905
-4.3118 -1.7843 -2.0337 0.9798
-4.1336 -2.1652 -2.0337 0.9798
-3.9219 -2.5286 -2.0337 0.9798
-2.8345 3.3571 -2.0337 0.9808
-3.1251 3.0883 -2.0337 0.9808
-3.3904 2.7945 -2.0337 0.9808
-3.8365 2.1412 -2.0337 0.9808
-4.0137 1.7871 -2.0337 0.9808
-1.7262 0.5889 -0.8443 0.9920
-1.5794 0.3842 -0.7524 0.9929
-1.5958 0.0932 -0.7399 0.9930
-1.6098 -0.1973 -0.7508 0.9929
-4.0596 -1.6800 -2.0337 0.9808
-3.6926 -2.3807 -2.0337 0.9808
-2.9490 2.9143 -2.0337 0.9817
-3.6204 2.0205 -2.0337 0.9817
-3.7875 1.6865 -2.0337 0.9817
-1.3506 0.0789 -0.6636 0.9940
-1.3522 -0.1657 -0.6683 0.9939
-1.2906 -0.4024 -0.6631 0.9940
-3.6726 -1.9237 -2.0337 0.9817
-3.4845 -2.2465 -2.0337 0.9817
-2.5291 2.9954 -2.0337 0.9825
-2.7884 2.7556 -2.0337 0.9825
-3.0252 2.4934 -2.0337 0.9825
-3.4232 1.9105 -2.0337 0.9825
-1.1055 0.4922 -0.6278 0.9946
-1.1371 0.3879 -0.6233 0.9946
-1.1682 0.2842 -0.6237 0.9946
-1.1942 0.1786 -0.6264 0.9946
-1.1995 0.0701 -0.6233 0.9946
-1.1990 -0.1469 -0.6267 0.9946
-1.1754 -0.2531 -0.6237 0.9946
-3.4726 -1.8190 -2.0337 0.9825
-2.3955 2.8372 -2.0337 0.9832
-2.8654 2.3617 -2.0337 0.9832
-3.2424 1.8096 -2.0337 0.9832
-1.0464 0.2546 -0.5898 0.9951
-1.0721 0.1604 -0.5937 0.9951
-1.0813 0.0632 -0.5933 0.9951
-1.0798 -0.0344 -0.5917 0.9951
-1.0337 -0.3223 -0.5931 0.9951
-1.0090 -0.4175 -0.5981 0.9950
-2.2725 2.6915 -2.0337 0.9839
-2.5055 2.4760 -2.0337 0.9839
-2.7182 2.2404 -2.0337 0.9839
-2.9089 1.9866 -2.0337 0.9839
-0.9270 0.4128 -0.5859 0.9953
-0.9500 0.3241 -0.5795 0.9954
-0.9899 0.0578 -0.5725 0.9954
-0.9900 -0.0315 -0.5719 0.9954
-0.9861 -0.1208 -0.5736 0.9954
-0.9349 -0.3869 -0.5842 0.9953
