ply
format ascii 1.0
element vertex 174
property float32 x
property float32 y
property float32 z
property float32 I
end_header
2.5029 -6.4972 -0.6685 0.9724
3.1473 -6.3712 -0.6822 0.9718
-13.4947 -10.5339 -2.0335 0.9334
-12.4802 -11.7182 -2.0335 0.9334
-11.3621 -12.8052 -2.0335 0.9334
-6.0511 -16.0144 -2.0336 0.9334
-4.5687 -16.4986 -2.0336 0.9334
-3.0485 -16.8460 -2.0336 0.9334
0.0551 -17.1196 -2.0336 0.9334
1.8259 -6.4324 -0.7943 0.9734
2.9387 -5.9490 -0.7882 0.9736
8.9480 -14.5962 -2.0337 0.9334
-10.4630 -9.8242 -2.0336 0.9437
-7.4223 -12.2841 -2.0336 0.9437
-6.2737 -12.9086 -2.0336 0.9437
-5.0730 -13.4259 -2.0336 0.9437
0.0462 -14.3525 -2.0336 0.9437
1.3520 -14.2889 -2.0336 0.9437
2.6466 -14.1067 -2.0336 0.9437
1.7337 -6.1079 -0.8996 0.9747
2.8878 -5.8459 -0.9238 0.9740
7.5016 -12.2369 -2.0337 0.9437
-9.7307 -7.5957 -2.0336 0.9512
-8.1929 -9.2335 -2.0336 0.9512
-5.3959 -11.1025 -2.0336 0.9512
-4.3632 -11.5475 -2.0336 0.9512
0.0398 -12.3445 -2.0336 0.9512
2.2764 -12.1330 -2.0337 0.9512
1.7632 -6.2114 -1.0637 0.9742
6.4520 -10.5247 -2.0337 0.9512
-8.5286 -6.6574 -2.0336 0.9569
-7.1808 -8.0928 -2.0336 0.9569
-6.4146 -8.7127 -2.0336 0.9569
-2.8874 -10.4270 -2.0336 0.9569
-1.9266 -10.6465 -2.0336 0.9569
0.0348 -10.8195 -2.0336 0.9569
1.0192 -10.7714 -2.0337 0.9569
1.7054 -6.0079 -1.1739 0.9749
2.2907 -5.9464 -1.1978 0.9744
2.7954 -5.6588 -1.1863 0.9746
5.6549 -9.2245 -2.0337 0.9569
-4.9753 -8.2343 -2.0336 0.9614
-4.2054 -8.6529 -2.0336 0.9614
-2.5675 -9.2718 -2.0336 0.9614
-0.8446 -9.5837 -2.0337 0.9614
0.0310 -9.6208 -2.0337 0.9614
2.2631 -5.8747 -1.3308 0.9746
2.7774 -5.6225 -1.3256 0.9747
5.0284 -8.2025 -2.0337 0.9614
-6.8209 -5.3243 -2.0336 0.9651
-4.4748 -7.4060 -2.0336 0.9651
-3.7823 -7.7825 -2.0336 0.9651
-3.0585 -8.0944 -2.0336 0.9651
-1.5409 -8.5147 -2.0337 0.9651
-0.7596 -8.6196 -2.0337 0.9651
0.0279 -8.6530 -2.0337 0.9651
0.8152 -8.6146 -2.0337 0.9651
1.5956 -8.5047 -2.0337 0.9651
1.6605 -5.8499 -1.4292 0.9753
-4.0619 -6.7226 -2.0337 0.9681
-2.7762 -7.3474 -2.0337 0.9681
-2.0961 -7.5696 -2.0337 0.9681
-1.3987 -7.7289 -2.0337 0.9681
-0.6895 -7.8241 -2.0337 0.9681
1.6795 -5.9168 -1.5925 0.9749
2.8178 -5.7043 -1.6473 0.9741
4.1052 -6.6965 -2.0337 0.9681
-5.6627 -4.4203 -2.0337 0.9706
-5.2370 -4.9173 -2.0337 0.9706
-4.7679 -5.3734 -2.0337 0.9706
-4.2591 -5.7850 -2.0337 0.9706
-3.1401 -6.4611 -2.0337 0.9706
-2.5391 -6.7200 -2.0337 0.9706
-1.9172 -6.9232 -2.0337 0.9706
-1.2792 -7.0689 -2.0337 0.9706
0.0232 -7.1837 -2.0337 0.9706
1.6713 -5.8877 -1.7326 0.9749
2.4979 -6.4841 -1.9671 0.9715
3.1645 -6.4059 -2.0227 0.9707
-5.2120 -4.0684 -2.0337 0.9727
-4.3883 -4.9456 -2.0337 0.9727
-3.9200 -5.3244 -2.0337 0.9727
-2.8902 -5.9467 -2.0337 0.9727
-2.3370 -6.1851 -2.0337 0.9727
-1.7645 -6.3721 -2.0337 0.9727
0.0213 -6.6119 -2.0337 0.9727
1.2193 -6.4986 -2.0337 0.9727
2.3768 -6.1700 -2.0337 0.9727
2.9285 -5.9281 -2.0337 0.9727
-4.4601 -4.1878 -2.0337 0.9745
-3.1639 -5.2364 -2.0337 0.9745
-2.6743 -5.5026 -2.0337 0.9745
-2.1625 -5.7231 -2.0337 0.9745
-1.0894 -6.0203 -2.0337 0.9745
0.0196 -6.1180 -2.0337 0.9745
0.5763 -6.0909 -2.0337 0.9745
1.6707 -5.8856 -2.0337 0.9745
2.7098 -5.4854 -2.0337 0.9745
3.1977 -5.2161 -2.0337 0.9745
-2.9409 -4.8674 -2.0337 0.9761
-2.4859 -5.1148 -2.0337 0.9761
-2.0101 -5.3198 -2.0337 0.9761
-1.5177 -5.4806 -2.0337 0.9761
-1.0127 -5.5960 -2.0337 0.9761
0.0183 -5.6869 -2.0337 0.9761
0.5357 -5.6617 -2.0337 0.9761
2.5187 -5.0988 -2.0337 0.9761
2.9723 -4.8485 -2.0337 0.9761
-4.1832 -3.2654 -2.0337 0.9775
-3.8688 -3.6325 -2.0337 0.9775
-3.5221 -3.9695 -2.0337 0.9775
-2.7444 -4.5421 -2.0337 0.9775
-1.4162 -5.1144 -2.0337 0.9775
-0.4659 -5.2864 -2.0337 0.9775
0.4999 -5.2833 -2.0337 0.9775
2.3504 -4.7581 -2.0337 0.9775
-3.6224 -3.4012 -2.0337 0.9788
-3.2979 -3.7168 -2.0337 0.9788
-2.9460 -4.0014 -2.0337 0.9788
-1.7563 -4.6482 -2.0337 0.9788
-0.8848 -4.8896 -2.0337 0.9788
-0.4362 -4.9498 -2.0337 0.9788
0.0160 -4.9690 -2.0337 0.9788
0.9163 -4.8838 -2.0337 0.9788
1.7863 -4.6369 -2.0337 0.9788
2.5971 -4.2364 -2.0337 0.9788
-2.7666 -3.7578 -2.0337 0.9798
-2.4132 -3.9939 -2.0337 0.9798
-1.6494 -4.3652 -2.0337 0.9798
-1.2453 -4.4971 -2.0337 0.9798
-0.8309 -4.5918 -2.0337 0.9798
0.0150 -4.6664 -2.0337 0.9798
0.4396 -4.6456 -2.0337 0.9798
-3.4633 -2.7034 -2.0337 0.9808
-2.9160 -3.2863 -2.0337 0.9808
-2.6048 -3.5380 -2.0337 0.9808
-2.2720 -3.7604 -2.0337 0.9808
-1.5529 -4.1099 -2.0337 0.9808
-1.1725 -4.2342 -2.0337 0.9808
1.1997 -4.2266 -2.0337 0.9808
1.5794 -4.0999 -2.0337 0.9808
-2.7516 -3.1012 -2.0337 0.9817
-1.8123 -3.7289 -2.0337 0.9817
-1.4654 -3.8783 -2.0337 0.9817
-0.3640 -4.1300 -2.0337 0.9817
0.3905 -4.1276 -2.0337 0.9817
1.4904 -3.8689 -2.0337 0.9817
1.8363 -3.7172 -2.0337 0.9817
2.1669 -3.5347 -2.0337 0.9817
-3.0902 -2.4121 -2.0337 0.9825
-2.3242 -3.1568 -2.0337 0.9825
0.0126 -3.9201 -2.0337 0.9825
1.4092 -3.6582 -2.0337 0.9825
2.0489 -3.3422 -2.0337 0.9825
-2.7070 -2.5416 -2.0337 0.9832
-2.4644 -2.7774 -2.0337 0.9832
-2.2014 -2.9901 -2.0337 0.9832
-1.9202 -3.1780 -2.0337 0.9832
-1.6230 -3.3396 -2.0337 0.9832
-1.3125 -3.4735 -2.0337 0.9832
-0.6612 -3.6538 -2.0337 0.9832
-0.3260 -3.6988 -2.0337 0.9832
0.6847 -3.6495 -2.0337 0.9832
1.0140 -3.5720 -2.0337 0.9832
-2.5679 -2.4111 -2.0337 0.9839
-2.3378 -2.6348 -2.0337 0.9839
-1.8216 -3.0148 -2.0337 0.9839
-1.2450 -3.2951 -2.0337 0.9839
-0.6272 -3.4662 -2.0337 0.9839
-0.3093 -3.5089 -2.0337 0.9839
0.0113 -3.5224 -2.0337 0.9839
0.3318 -3.5068 -2.0337 0.9839
0.9619 -3.3886 -2.0337 0.9839
1.5601 -3.1582 -2.0337 0.9839
