ply
format ascii 1.0
element vertex 178
property float32 x
property float32 y
property float32 z
property float32 I
end_header
-11.7568 -8.4108 -0.7331 0.9437
-11.6030 -8.3007 -1.0460 0.9444
-11.4335 -8.1795 -1.3496 0.9451
-16.5422 -4.4090 -2.0336 0.9334
-15.4836 -7.3031 -2.0336 0.9334
-12.9703 -11.1734 -2.0335 0.9334
-11.9119 -12.2954 -2.0335 0.9334
-10.7569 -13.3177 -2.0335 0.9334
-6.8090 -15.7071 -2.0335 0.9334
-2.3663 -16.9554 -2.0336 0.9334
0.7118 -17.1051 -2.0336 0.9334
2.2485 -16.9718 -2.0336 0.9334
-13.4794 -4.9296 -2.0336 0.9437
-12.9810 -6.1228 -2.0336 0.9437
-11.6729 -8.3507 -2.0336 0.9437
-9.9866 -10.3082 -2.0336 0.9437
-9.0183 -11.1652 -2.0336 0.9437
-5.7085 -13.1684 -2.0336 0.9437
-4.5001 -13.6288 -2.0336 0.9437
-3.2552 -13.9785 -2.0336 0.9437
-0.6964 -14.3358 -2.0336 0.9437
0.5968 -14.3404 -2.0336 0.9437
-11.9282 -3.1792 -2.0336 0.9512
-11.5936 -4.2398 -2.0336 0.9512
-10.6455 -6.2496 -2.0336 0.9512
-9.3526 -8.0569 -2.0336 0.9512
-8.5895 -8.8660 -2.0336 0.9512
-7.7566 -9.6031 -2.0336 0.9512
-5.9093 -10.8381 -2.0336 0.9512
-3.8705 -11.7220 -2.0336 0.9512
0.5133 -12.3341 -2.0337 0.9512
-10.6630 -1.8342 -2.0337 0.9569
-10.1613 -3.7161 -2.0336 0.9569
-9.7856 -4.6156 -2.0336 0.9569
-9.3304 -5.4776 -2.0336 0.9569
-8.7995 -6.2951 -2.0336 0.9569
-6.0132 -8.9945 -2.0336 0.9569
-3.3924 -10.2739 -2.0336 0.9569
-2.4539 -10.5376 -2.0336 0.9569
-0.5250 -10.8069 -2.0337 0.9569
0.4498 -10.8104 -2.0337 0.9569
1.4210 -10.7260 -2.0337 0.9569
-8.7015 -4.1043 -2.0337 0.9614
-6.6944 -6.9098 -2.0336 0.9614
-6.0452 -7.4843 -2.0336 0.9614
-3.0165 -9.1357 -2.0337 0.9614
-2.1821 -9.3702 -2.0337 0.9614
1.2636 -9.5377 -2.0337 0.9614
-8.3612 -2.2285 -2.0337 0.9651
-8.1267 -2.9720 -2.0337 0.9651
-7.4621 -4.3808 -2.0337 0.9651
-7.0376 -5.0347 -2.0337 0.9651
-6.5558 -5.6476 -2.0337 0.9651
-6.0209 -6.2148 -2.0337 0.9651
-3.4416 -7.9392 -2.0337 0.9651
-2.7131 -8.2167 -2.0337 0.9651
-0.4198 -8.6430 -2.0337 0.9651
0.3598 -8.6457 -2.0337 0.9651
-7.7409 -1.3315 -2.0337 0.9681
-7.3767 -2.6978 -2.0337 0.9681
-6.3881 -4.5700 -2.0337 0.9681
-5.9509 -5.1265 -2.0337 0.9681
-5.4654 -5.6413 -2.0337 0.9681
-4.9354 -6.1103 -2.0337 0.9681
-4.3654 -6.5297 -2.0337 0.9681
-2.4627 -7.4585 -2.0337 0.9681
-6.4973 -3.0646 -2.0337 0.9706
-5.8426 -4.1798 -2.0337 0.9706
-5.4427 -4.6887 -2.0337 0.9706
-4.9986 -5.1596 -2.0337 0.9706
-4.5139 -5.5885 -2.0337 0.9706
-2.8573 -6.5912 -2.0337 0.9706
-1.6293 -6.9966 -2.0337 0.9706
-0.9930 -7.1149 -2.0337 0.9706
-0.3485 -7.1754 -2.0337 0.9706
0.9435 -7.1217 -2.0337 0.9706
-5.9802 -2.8207 -2.0337 0.9727
-5.0095 -4.3155 -2.0337 0.9727
-3.1651 -5.8052 -2.0337 0.9727
-2.6298 -6.0665 -2.0337 0.9727
-2.0731 -6.2786 -2.0337 0.9727
-1.4996 -6.4397 -2.0337 0.9727
-0.3208 -6.6042 -2.0337 0.9727
0.2749 -6.6063 -2.0337 0.9727
-5.9118 -1.5757 -2.0337 0.9745
-5.5335 -2.6100 -2.0337 0.9745
-4.6353 -3.9932 -2.0337 0.9745
-3.8443 -4.7595 -2.0337 0.9745
-1.9183 -5.8096 -2.0337 0.9745
-1.3876 -5.9587 -2.0337 0.9745
0.2544 -6.1129 -2.0337 0.9745
-5.4952 -1.4646 -2.0337 0.9761
-4.9043 -2.8792 -2.0337 0.9761
-4.3086 -3.7118 -2.0337 0.9761
-3.5734 -4.4241 -2.0337 0.9761
-3.1607 -4.7278 -2.0337 0.9761
-2.2619 -5.2178 -2.0337 0.9761
-1.7831 -5.4002 -2.0337 0.9761
0.2364 -5.6821 -2.0337 0.9761
0.7469 -5.6378 -2.0337 0.9761
-5.2301 -0.8997 -2.0337 0.9775
-5.1279 -1.3668 -2.0337 0.9775
-4.9841 -1.8228 -2.0337 0.9775
-4.7998 -2.2639 -2.0337 0.9775
-4.3162 -3.0878 -2.0337 0.9775
-3.3346 -4.1285 -2.0337 0.9775
-2.9495 -4.4118 -2.0337 0.9775
-2.5404 -4.6594 -2.0337 0.9775
-2.1108 -4.8691 -2.0337 0.9775
-1.6639 -5.0394 -2.0337 0.9775
-1.2036 -5.1687 -2.0337 0.9775
-0.7335 -5.2560 -2.0337 0.9775
0.2206 -5.3024 -2.0337 0.9775
-2.1182 -0.3644 -0.8796 0.9908
-4.8014 -1.2797 -2.0337 0.9788
-4.6668 -1.7067 -2.0337 0.9788
-4.4943 -2.1198 -2.0337 0.9788
-3.1223 -3.8656 -2.0337 0.9788
-1.5580 -4.7185 -2.0337 0.9788
-0.6868 -4.9214 -2.0337 0.9788
0.2066 -4.9648 -2.0337 0.9788
-1.9604 -0.5225 -0.8842 0.9912
-4.2205 -1.9907 -2.0337 0.9798
-4.0242 -2.3625 -2.0337 0.9798
-3.2470 -3.3516 -2.0337 0.9798
-2.9321 -3.6302 -2.0337 0.9798
-2.5935 -3.8794 -2.0337 0.9798
-1.4631 -4.4312 -2.0337 0.9798
-0.6450 -4.6217 -2.0337 0.9798
-0.2264 -4.6610 -2.0337 0.9798
-2.7607 -3.4179 -2.0337 0.9808
-2.1032 -3.8575 -2.0337 0.9808
-1.7475 -4.0311 -2.0337 0.9808
-1.3776 -4.1721 -2.0337 0.9808
-0.9965 -4.2791 -2.0337 0.9808
-0.2132 -4.3885 -2.0337 0.9808
0.1827 -4.3898 -2.0337 0.9808
0.5771 -4.3556 -2.0337 0.9808
-1.3427 -0.2310 -0.6683 0.9939
-1.2621 -0.4616 -0.6592 0.9940
-3.7498 -1.7687 -2.0337 0.9817
-3.3720 -2.4123 -2.0337 0.9817
-3.1412 -2.7061 -2.0337 0.9817
-2.8849 -2.9778 -2.0337 0.9817
-2.3043 -3.4467 -2.0337 0.9817
-0.9403 -4.0380 -2.0337 0.9817
-0.5730 -4.1063 -2.0337 0.9817
-0.2011 -4.1412 -2.0337 0.9817
0.1724 -4.1425 -2.0337 0.9817
-1.1888 -0.2045 -0.6258 0.9946
-1.1311 -0.4137 -0.6248 0.9946
-3.5456 -1.6724 -2.0337 0.9825
-3.1884 -2.2809 -2.0337 0.9825
-2.7277 -2.8156 -2.0337 0.9825
-1.2291 -3.7226 -2.0337 0.9825
-0.8891 -3.8181 -2.0337 0.9825
-0.5419 -3.8826 -2.0337 0.9825
-0.1902 -3.9156 -2.0337 0.9825
0.1630 -3.9169 -2.0337 0.9825
0.5149 -3.8863 -2.0338 0.9825
-1.0673 -0.1836 -0.5931 0.9951
-1.0400 -0.2772 -0.5895 0.9951
-0.9912 -0.4676 -0.6002 0.9950
-3.2021 -1.8799 -2.0337 0.9832
-3.0200 -2.1605 -2.0337 0.9832
-2.8133 -2.4236 -2.0337 0.9832
-2.5837 -2.6669 -2.0337 0.9832
-2.3332 -2.8886 -2.0337 0.9832
-1.4769 -3.4069 -2.0337 0.9832
-1.1642 -3.5260 -2.0337 0.9832
0.1544 -3.7100 -2.0337 0.9832
0.4877 -3.6811 -2.0338 0.9832
-0.9599 -0.2559 -0.5736 0.9954
-2.8649 -2.0496 -2.0337 0.9839
-2.6688 -2.2991 -2.0337 0.9839
-2.2134 -2.7403 -2.0337 0.9839
-1.6862 -3.0927 -2.0337 0.9839
-0.4869 -3.4888 -2.0337 0.9839
