ply
format ascii 1.0
element vertex 187
property float32 x
property float32 y
property float32 z
property float32 I
end_header
-12.5496 13.0523 3.1927 0.9291
-11.9157 12.3930 2.6338 0.9328
-11.0251 13.7909 2.2992 0.9313
-11.3103 14.1477 1.9450 0.9297
-11.8423 12.3165 1.8347 0.9336
-13.0340 -8.2705 -0.7829 0.9400
-16.4650 5.9768 -1.2843 0.9322
-12.7073 -8.0632 -1.1035 0.9414
-16.0062 5.8103 -1.6348 0.9339
-12.2275 -7.7588 -1.3903 0.9435
-10.6920 13.3743 -2.0340 0.9334
-11.8675 12.3429 -2.0339 0.9334
-12.9441 11.2085 -2.0339 0.9334
-13.9126 9.9807 -2.0339 0.9334
-15.4942 7.2863 -2.0338 0.9334
-16.0942 5.8422 -2.0338 0.9334
-16.5599 4.3494 -2.0338 0.9334
-16.8875 2.8204 -2.0338 0.9334
-17.1186 -0.2953 -2.0338 0.9334
-16.7797 -3.4009 -2.0337 0.9334
-16.3993 -4.9176 -2.0337 0.9334
-15.8821 -6.3933 -2.0337 0.9334
-15.2325 -7.8156 -2.0337 0.9334
-12.6033 -7.9973 -1.7730 0.9416
-12.3783 7.2683 -2.0339 0.9437
-12.9897 6.1085 -2.0339 0.9437
-14.1579 2.3645 -2.0338 0.9437
-14.3145 1.0629 -2.0338 0.9437
-13.3151 -5.3600 -2.0337 0.9437
-12.7705 -6.5524 -2.0337 0.9437
-7.7095 9.6436 -2.0339 0.9512
-8.5571 8.8999 -2.0339 0.9512
-10.0317 7.1966 -2.0339 0.9512
-11.1723 5.2538 -2.0339 0.9512
-11.6049 4.2126 -2.0338 0.9512
-11.9408 3.1363 -2.0338 0.9512
-12.1770 2.0337 -2.0338 0.9512
-12.3117 0.9142 -2.0338 0.9512
-12.2727 -1.3382 -2.0338 0.9512
-11.4522 -4.6101 -2.0338 0.9512
-10.4238 -6.6143 -2.0337 0.9512
-8.7923 6.3075 -2.0339 0.9569
-10.1712 3.6922 -2.0339 0.9569
-10.7907 0.8012 -2.0338 0.9569
-10.8187 -0.1866 -2.0338 0.9569
-10.7566 -1.1729 -2.0338 0.9569
-6.0084 7.5157 -2.0339 0.9614
-8.2973 4.8720 -2.0339 0.9614
-8.7071 4.0946 -2.0339 0.9614
-9.3061 2.4442 -2.0338 0.9614
-9.4902 1.5850 -2.0338 0.9614
-9.5952 0.7125 -2.0338 0.9614
-9.5649 -1.0429 -2.0338 0.9614
-9.2161 -2.7636 -2.0338 0.9614
-8.5604 -4.3923 -2.0338 0.9614
-6.5422 5.6650 -2.0339 0.9651
-7.8312 3.6827 -2.0339 0.9651
-8.1345 2.9528 -2.0339 0.9651
-8.3700 2.1983 -2.0339 0.9651
-8.6525 -0.1492 -2.0338 0.9651
-8.4812 -1.7190 -2.0338 0.9651
-7.6993 -3.9504 -2.0338 0.9651
-4.9052 6.1358 -2.0339 0.9681
-5.4445 5.6626 -2.0339 0.9681
-6.3828 4.5789 -2.0339 0.9681
-7.1085 3.3428 -2.0339 0.9681
-7.5975 1.9955 -2.0339 0.9681
-7.7479 1.2940 -2.0338 0.9681
-7.8336 0.5817 -2.0338 0.9681
-7.8088 -0.8515 -2.0338 0.9681
-7.2868 -2.9333 -2.0338 0.9681
-6.9888 -3.5859 -2.0338 0.9681
-4.9796 5.1790 -2.0339 0.9706
-6.1955 3.6378 -2.0339 0.9706
-6.5014 3.0574 -2.0339 0.9706
-6.7533 2.4514 -2.0339 0.9706
-7.0862 1.1835 -2.0339 0.9706
-7.1646 0.5320 -2.0338 0.9706
-7.1832 -0.1239 -2.0338 0.9706
-7.1420 -0.7788 -2.0338 0.9706
-7.0411 -1.4271 -2.0338 0.9706
-6.8815 -2.0635 -2.0338 0.9706
-6.6645 -2.6828 -2.0338 0.9706
-6.0661 -3.8491 -2.0338 0.9706
-4.1292 5.1650 -2.0339 0.9727
-4.9989 4.3287 -2.0339 0.9727
-5.7022 3.3482 -2.0339 0.9727
-5.9839 2.8140 -2.0339 0.9727
-6.5221 1.0893 -2.0339 0.9727
-6.6114 -0.1140 -2.0338 0.9727
-6.5734 -0.7168 -2.0338 0.9727
-6.4806 -1.3135 -2.0338 0.9727
-5.8832 -3.0186 -2.0338 0.9727
-5.5832 -3.5428 -2.0338 0.9727
-3.8207 4.7793 -2.0339 0.9745
-4.6256 4.0054 -2.0339 0.9745
-4.9717 3.5666 -2.0339 0.9745
-5.5370 2.6038 -2.0339 0.9745
-5.9179 1.5543 -2.0339 0.9745
-6.0350 1.0079 -2.0339 0.9745
-6.1018 0.4531 -2.0339 0.9745
-5.8607 -1.7575 -2.0338 0.9745
-5.6759 -2.2848 -2.0338 0.9745
-5.4437 -2.7932 -2.0338 0.9745
-4.2996 3.7231 -2.0339 0.9761
-4.6213 3.3153 -2.0339 0.9761
-4.9045 2.8798 -2.0339 0.9761
-5.1468 2.4203 -2.0339 0.9761
-5.5009 1.4448 -2.0339 0.9761
-5.6097 0.9369 -2.0339 0.9761
-5.6718 0.4212 -2.0339 0.9761
-5.5740 -1.1298 -2.0338 0.9761
-5.4477 -1.6336 -2.0338 0.9761
-5.2759 -2.1238 -2.0338 0.9761
-4.8021 -3.0471 -2.0338 0.9761
-3.3141 4.1456 -2.0339 0.9775
-3.6786 3.8259 -2.0339 0.9775
-4.0122 3.4743 -2.0339 0.9775
-5.1332 1.3482 -2.0339 0.9775
-5.2348 0.8743 -2.0339 0.9775
-5.2927 0.3930 -2.0339 0.9775
-5.2760 -0.5753 -2.0338 0.9775
-5.2015 -1.0542 -2.0338 0.9775
-5.0836 -1.5244 -2.0338 0.9775
-3.7568 3.2531 -2.0339 0.9788
-4.0379 2.8968 -2.0339 0.9788
-4.2854 2.5162 -2.0339 0.9788
-4.6712 1.6956 -2.0339 0.9788
-2.1196 0.1574 -0.8699 0.9909
-2.1223 -0.0366 -0.8688 0.9909
-2.1120 -0.2303 -0.8695 0.9909
-2.1218 -0.4301 -0.8860 0.9907
-4.7600 -1.4274 -2.0338 0.9788
-2.9142 3.6452 -2.0339 0.9798
-3.2346 3.3641 -2.0339 0.9798
-3.5280 3.0550 -2.0339 0.9798
-4.0243 2.3630 -2.0339 0.9798
-1.9495 0.5120 -0.8784 0.9912
-1.9050 0.3181 -0.8417 0.9916
-1.9154 0.1422 -0.8371 0.9917
-1.9187 -0.0331 -0.8363 0.9917
-1.9086 -0.2081 -0.8367 0.9917
-1.9044 -0.3860 -0.8468 0.9916
-2.0575 -0.6170 -0.9361 0.9907
-2.7437 3.4321 -2.0339 0.9808
-1.8186 0.6601 -0.8955 0.9915
-1.6112 0.2691 -0.7561 0.9928
-1.6084 -0.1754 -0.7489 0.9929
-1.5996 -0.3243 -0.7555 0.9928
-4.0760 -1.6408 -2.0338 0.9808
-3.9093 -2.0058 -2.0338 0.9808
-3.7100 -2.3541 -2.0338 0.9808
-2.5891 3.2387 -2.0339 0.9817
-3.1346 2.7143 -2.0339 0.9817
-3.5755 2.0995 -2.0339 0.9817
-3.7522 1.7645 -2.0339 0.9817
-1.2637 0.4587 -0.6594 0.9940
-1.3411 -0.0232 -0.6579 0.9940
-1.7336 -0.6979 -0.9167 0.9917
-3.6890 -1.8928 -2.0338 0.9817
-3.5009 -2.2215 -2.0338 0.9817
-2.4482 3.0623 -2.0339 0.9825
-2.7173 2.8261 -2.0339 0.9825
-2.9638 2.5664 -2.0339 0.9825
-3.3808 1.9851 -2.0339 0.9825
-3.5478 1.6684 -2.0339 0.9825
-1.2003 0.0891 -0.6244 0.9946
-1.1795 -0.2391 -0.6244 0.9946
-1.1491 -0.3446 -0.6223 0.9946
-1.1203 -0.4510 -0.6265 0.9946
-3.4881 -1.7897 -2.0339 0.9825
-3.3103 -2.1005 -2.0338 0.9825
-2.5738 2.6769 -2.0339 0.9832
-3.2023 1.8803 -2.0339 0.9832
-0.9916 0.4663 -0.6002 0.9950
-1.0230 0.3713 -0.5961 0.9950
-1.0684 0.1784 -0.5933 0.9951
-1.0782 -0.1176 -0.5941 0.9951
-1.0592 -0.2147 -0.5919 0.9951
-1.0172 -0.5220 -0.6262 0.9948
-2.4416 2.5394 -2.0339 0.9839
-3.0378 1.7837 -2.0339 0.9839
-0.9603 0.2522 -0.5732 0.9954
-0.9896 -0.0171 -0.5715 0.9954
-0.9562 -0.2868 -0.5764 0.9954
-0.9376 -0.3774 -0.5835 0.9953
-0.9091 -0.4665 -0.5899 0.9953
