ply
format ascii 1.0
element vertex 230
property float32 x
property float32 y
property float32 z
property float32 I
end_header
-13.2350 12.7389 2.8141 0.9284
-12.0103 11.5601 2.1708 0.9350
-11.2409 12.9196 1.8389 0.9334
-12.6352 12.1616 1.4846 0.9320
-12.5372 14.4095 1.1844 0.9263
-16.4474 5.5228 -0.8799 0.9329
-16.2673 5.4623 -1.2582 0.9335
-2.0738 7.3870 -0.9114 0.9696
-7.4571 15.4129 -2.0339 0.9334
-8.7896 14.6936 -2.0338 0.9334
-10.0534 13.8594 -2.0338 0.9334
-11.2385 12.9169 -2.0338 0.9334
-13.3363 10.7368 -2.0338 0.9334
-15.0176 8.2215 -2.0337 0.9334
-15.6851 6.8625 -2.0337 0.9334
-16.2299 5.4498 -2.0337 0.9334
-16.6478 3.9945 -2.0337 0.9334
-16.9354 2.5079 -2.0336 0.9334
-17.0907 1.0018 -2.0336 0.9334
-17.1122 -0.5121 -2.0336 0.9334
-16.7546 -3.5161 -2.0336 0.9334
-16.3783 -4.9826 -2.0336 0.9334
-15.8740 -6.4102 -2.0335 0.9334
-15.2455 -7.7876 -2.0335 0.9334
-5.0855 13.4233 -2.0339 0.9437
-8.4282 11.6191 -2.0338 0.9437
-11.9320 7.9781 -2.0337 0.9437
-13.6066 4.5689 -2.0337 0.9437
-14.1980 2.1026 -2.0337 0.9437
-14.3282 0.8399 -2.0336 0.9437
-14.2522 -1.6952 -2.0336 0.9437
-13.7311 -4.1773 -2.0336 0.9437
-13.3083 -5.3741 -2.0336 0.9437
-12.7814 -6.5289 -2.0336 0.9437
-2.0276 7.2226 -1.2359 0.9700
-6.3378 10.5948 -2.0338 0.9512
-8.1035 9.3137 -2.0338 0.9512
-8.8947 8.5612 -2.0338 0.9512
-10.2625 6.8619 -2.0337 0.9512
-10.8286 5.9282 -2.0337 0.9512
-11.3099 4.9483 -2.0337 0.9512
-12.0042 2.8803 -2.0337 0.9512
-12.2116 1.8084 -2.0337 0.9512
-12.2582 -1.4580 -2.0336 0.9512
-12.0813 -2.5354 -2.0336 0.9512
-11.4464 -4.6222 -2.0336 0.9512
-2.0182 7.1889 -1.4035 0.9701
-4.7126 9.7404 -2.0338 0.9569
-5.5547 9.2858 -2.0338 0.9569
-7.1023 8.1630 -2.0338 0.9569
-7.7958 7.5035 -2.0338 0.9569
-8.9947 6.0141 -2.0338 0.9569
-10.5212 2.5245 -2.0337 0.9569
-10.7030 1.5850 -2.0337 0.9569
-10.8011 0.6332 -2.0337 0.9569
-10.8147 -0.3236 -2.0337 0.9569
-10.7438 -1.2779 -2.0337 0.9569
-10.3511 -3.1490 -2.0336 0.9569
-10.0323 -4.0512 -2.0336 0.9569
-9.6351 -4.9217 -2.0336 0.9569
-2.0087 7.1553 -1.5710 0.9701
-4.1905 8.6612 -2.0338 0.9614
-5.6495 7.7883 -2.0338 0.9614
-6.3155 7.2586 -2.0338 0.9614
-6.9321 6.6722 -2.0338 0.9614
-7.4945 6.0336 -2.0338 0.9614
-7.9981 5.3478 -2.0338 0.9614
-9.5172 1.4094 -2.0337 0.9614
-9.6045 0.5630 -2.0337 0.9614
-9.4158 -1.9760 -2.0337 0.9614
-9.2043 -2.8001 -2.0337 0.9614
-3.7689 7.7898 -2.0338 0.9651
-4.4424 7.4263 -2.0338 0.9651
-5.6802 6.5284 -2.0338 0.9651
-6.2347 6.0010 -2.0338 0.9651
-7.1935 4.8098 -2.0338 0.9651
-7.9277 3.4685 -2.0337 0.9651
-8.2032 2.7545 -2.0337 0.9651
-8.4145 2.0189 -2.0337 0.9651
-8.5598 1.2676 -2.0337 0.9651
-8.6383 0.5064 -2.0337 0.9651
-8.5925 -1.0220 -2.0337 0.9651
-8.0235 -3.2400 -2.0337 0.9651
-2.1231 7.5627 -2.0338 0.9681
-4.6122 6.3583 -2.0338 0.9681
-6.1184 4.9258 -2.0338 0.9681
-7.1961 3.1484 -2.0337 0.9681
-7.4461 2.5003 -2.0337 0.9681
-7.6379 1.8326 -2.0337 0.9681
-7.5145 -2.2861 -2.0337 0.9681
-2.5453 6.7183 -2.0338 0.9706
-3.1289 6.4671 -2.0338 0.9706
-4.2184 5.8153 -2.0338 0.9706
-4.7156 5.4198 -2.0338 0.9706
-5.1760 4.9820 -2.0338 0.9706
-5.9721 3.9931 -2.0338 0.9706
-6.5816 2.8796 -2.0337 0.9706
-6.9856 1.6762 -2.0337 0.9706
-7.1335 -0.8485 -2.0337 0.9706
-6.6612 -2.6899 -2.0337 0.9706
-6.3974 -3.2679 -2.0337 0.9706
-1.7872 6.3663 -2.0338 0.9727
-3.3945 5.6745 -2.0338 0.9727
-4.3402 4.9884 -2.0338 0.9727
-5.4966 3.6752 -2.0338 0.9727
-6.0577 2.6503 -2.0337 0.9727
-6.2681 2.1047 -2.0337 0.9727
-6.5407 0.9686 -2.0337 0.9727
-6.6090 -0.1978 -2.0337 0.9727
-6.4710 -1.3580 -2.0337 0.9727
-6.3257 -1.9244 -2.0337 0.9727
-6.1309 -2.4758 -2.0337 0.9727
-1.6537 5.8907 -2.0338 0.9745
-3.1409 5.2507 -2.0338 0.9745
-3.5925 4.9526 -2.0338 0.9745
-4.7658 3.8368 -2.0338 0.9745
-5.6052 2.4524 -2.0337 0.9745
-5.8000 1.9475 -2.0337 0.9745
-5.9494 1.4275 -2.0337 0.9745
-6.1077 0.3580 -2.0337 0.9745
-6.1154 -0.1830 -2.0337 0.9745
-6.0753 -0.7226 -2.0337 0.9745
-5.9877 -1.2566 -2.0337 0.9745
-5.8532 -1.7807 -2.0337 0.9745
-5.6730 -2.2909 -2.0337 0.9745
-5.4484 -2.7831 -2.0337 0.9745
-2.0149 5.3184 -2.0338 0.9761
-2.4769 5.1195 -2.0338 0.9761
-3.3394 4.6036 -2.0338 0.9761
-4.0975 3.9439 -2.0338 0.9761
-4.4299 3.5664 -2.0338 0.9761
-5.2102 2.2795 -2.0337 0.9761
-5.5301 1.3269 -2.0337 0.9761
-5.6257 0.8331 -2.0337 0.9761
-5.6772 0.3328 -2.0337 0.9761
-5.5657 -1.1680 -2.0337 0.9761
-5.4407 -1.6552 -2.0337 0.9761
-5.2732 -2.1295 -2.0337 0.9761
-1.4344 5.1096 -2.0338 0.9775
-1.8802 4.9629 -2.0338 0.9775
-2.7245 4.5545 -2.0338 0.9775
-3.4836 4.0037 -2.0338 0.9775
-3.8237 3.6803 -2.0338 0.9775
-4.1339 3.3281 -2.0338 0.9775
-5.0309 1.6893 -2.0337 0.9775
-5.1605 1.2382 -2.0337 0.9775
-5.2497 0.7774 -2.0337 0.9775
-5.1937 -1.0899 -2.0337 0.9775
-5.0771 -1.5446 -2.0337 0.9775
-4.9208 -1.9871 -2.0337 0.9775
-4.7260 -2.4141 -2.0337 0.9775
-1.7606 4.6469 -2.0338 0.9788
-2.1642 4.4732 -2.0338 0.9788
-2.5510 4.2645 -2.0338 0.9788
-3.5802 3.4460 -2.0338 0.9788
-3.8707 3.1162 -2.0338 0.9788
-4.1309 2.7620 -2.0338 0.9788
-4.5525 1.9918 -2.0337 0.9788
-4.7106 1.5818 -2.0337 0.9788
-2.1390 0.5132 -0.9003 0.9905
-2.1129 0.3129 -0.8742 0.9908
-4.7539 -1.4462 -2.0337 0.9788
-4.6075 -1.8606 -2.0337 0.9788
-4.4251 -2.2604 -2.0337 0.9788
-1.6533 4.3639 -2.0338 0.9798
-2.0324 4.2008 -2.0338 0.9798
-2.3956 4.0048 -2.0338 0.9798
-4.0932 2.2409 -2.0338 0.9798
-4.2752 1.8705 -2.0338 0.9798
-4.4237 1.4854 -2.0337 0.9798
-1.9037 0.2819 -0.8387 0.9916
-1.9060 -0.2267 -0.8365 0.9917
-1.9038 -0.3996 -0.8478 0.9915
-2.0705 -0.6299 -0.9432 0.9906
-4.3270 -1.7473 -2.0337 0.9798
-4.1556 -2.1228 -2.0337 0.9798
-2.2555 3.7706 -2.0338 0.9808
-2.5798 3.5565 -2.0338 0.9808
-2.8840 3.3147 -2.0338 0.9808
-3.4223 2.7553 -2.0338 0.9808
-4.0252 1.7611 -2.0338 0.9808
-1.6821 0.5648 -0.8213 0.9922
-1.5814 0.3794 -0.7528 0.9929
-1.6105 0.2385 -0.7536 0.9928
-1.5959 0.0935 -0.7400 0.9930
-1.5829 -0.0474 -0.7330 0.9930
-1.6095 -0.1915 -0.7503 0.9929
-3.9127 -1.9987 -2.0337 0.9808
-2.7215 3.1279 -2.0338 0.9817
-3.2295 2.6000 -2.0338 0.9817
-3.7984 1.6619 -2.0338 0.9817
-1.2786 0.4293 -0.6616 0.9940
-1.3484 0.1996 -0.6686 0.9939
-1.3506 0.0791 -0.6637 0.9940
-1.3447 -0.0403 -0.6599 0.9940
-1.3525 -0.1609 -0.6681 0.9939
-1.2942 -0.3937 -0.6636 0.9940
-3.6922 -1.8861 -2.0337 0.9817
-1.0596 3.7745 -2.0338 0.9825
-1.3889 3.6661 -2.0338 0.9825
-2.5733 2.9575 -2.0338 0.9825
-3.4387 1.8825 -2.0338 0.9825
-1.1084 0.4849 -0.6276 0.9946
-1.1383 0.3822 -0.6229 0.9946
-1.1692 0.2805 -0.6238 0.9946
-1.1946 0.1769 -0.6265 0.9946
-1.1995 0.0703 -0.6234 0.9946
-1.1993 -0.1427 -0.6265 0.9946
-1.1771 -0.2471 -0.6239 0.9946
-1.0036 3.5751 -2.0338 0.9832
-1.9062 3.1866 -2.0338 0.9832
-2.1803 3.0057 -2.0338 0.9832
-2.4373 2.8014 -2.0338 0.9832
-2.6753 2.5750 -2.0338 0.9832
-2.8924 2.3286 -2.0338 0.9832
-3.2571 1.7831 -2.0338 0.9832
-1.0473 0.2512 -0.5899 0.9951
-1.0723 0.1588 -0.5937 0.9951
-1.0813 0.0634 -0.5933 0.9951
-1.0770 -0.1281 -0.5941 0.9951
-1.0120 -0.4087 -0.5978 0.9950
-0.9795 -0.5004 -0.6024 0.9950
-1.5342 3.1710 -2.0338 0.9839
-2.3122 2.6575 -2.0338 0.9839
-2.9283 1.9579 -2.0338 0.9839
-0.9509 0.3193 -0.5791 0.9954
-0.9899 0.0580 -0.5725 0.9954
-0.9730 -0.2042 -0.5740 0.9954
-0.9556 -0.2908 -0.5767 0.9954
-0.9373 -0.3785 -0.5836 0.9953
