ply
format ascii 1.0
element vertex 194
property float32 x
property float32 y
property float32 z
property float32 I
end_header
2.7300 18.8089 3.3513 0.9257
2.5623 17.6535 2.7328 0.9304
2.6121 17.9972 2.3682 0.9293
2.5509 17.5756 1.9071 0.9310
2.6218 18.0637 0.7197 0.9295
2.5987 17.9050 0.3056 0.9302
2.6245 18.0825 -0.1029 0.9295
2.6942 18.5628 -0.9513 0.9276
14.3795 8.7812 -1.6176 0.9345
13.2649 9.7956 -1.5831 0.9359
2.6930 18.5544 -1.8000 0.9274
17.0855 -1.1408 -2.0340 0.9333
17.1198 0.3626 -2.0341 0.9333
16.4347 4.8097 -2.0341 0.9333
15.9494 6.2330 -2.0341 0.9333
14.6146 8.9248 -2.0341 0.9333
13.7754 10.1726 -2.0341 0.9333
12.8299 11.3419 -2.0341 0.9333
11.7854 12.4237 -2.0341 0.9333
9.4325 14.2924 -2.0341 0.9333
3.9369 16.6655 -2.0341 0.9333
14.3523 0.3040 -2.0340 0.9437
14.2704 1.5620 -2.0340 0.9437
14.0784 2.8079 -2.0341 0.9437
13.7779 4.0322 -2.0341 0.9437
12.8612 6.3783 -2.0341 0.9437
12.2521 7.4820 -2.0341 0.9437
10.7558 9.5083 -2.0341 0.9437
5.6917 13.1796 -2.0341 0.9437
4.5135 13.6280 -2.0341 0.9437
3.3005 13.9714 -2.0341 0.9437
12.2736 1.3434 -2.0340 0.9512
11.8500 3.4680 -2.0340 0.9512
11.5001 4.4942 -2.0340 0.9512
10.5376 6.4351 -2.0341 0.9512
9.2507 8.1779 -2.0341 0.9512
8.4976 8.9579 -2.0341 0.9512
5.8709 10.8622 -2.0341 0.9512
2.8387 12.0164 -2.0341 0.9512
1.7736 12.2191 -2.0341 0.9512
10.7973 -0.7209 -2.0340 0.9569
10.8190 0.2291 -2.0340 0.9569
10.6125 2.1166 -2.0340 0.9569
8.7053 6.4285 -2.0340 0.9569
8.1078 7.1674 -2.0341 0.9569
7.4478 7.8510 -2.0341 0.9569
6.7302 8.4742 -2.0341 0.9569
5.1455 9.5201 -2.0341 0.9569
3.4023 10.2729 -2.0340 0.9569
2.4880 10.5317 -2.0340 0.9569
1.5544 10.7093 -2.0340 0.9569
9.6203 0.2037 -2.0340 0.9614
9.5654 1.0470 -2.0340 0.9614
9.2352 2.7027 -2.0340 0.9614
8.9625 3.5025 -2.0340 0.9614
8.2124 5.0151 -2.0340 0.9614
7.2095 6.3733 -2.0340 0.9614
6.6225 6.9812 -2.0340 0.9614
5.9845 7.5353 -2.0340 0.9614
4.5754 8.4653 -2.0340 0.9614
3.8150 8.8341 -2.0340 0.9614
8.4873 1.6928 -2.0340 0.9651
7.7534 3.8452 -2.0340 0.9651
7.3862 4.5106 -2.0340 0.9651
6.9620 5.1412 -2.0340 0.9651
6.4841 5.7321 -2.0340 0.9651
5.9562 6.2789 -2.0340 0.9651
5.3824 6.7772 -2.0340 0.9651
4.1150 7.6136 -2.0340 0.9651
2.7209 8.2157 -2.0340 0.9651
1.2431 8.5648 -2.0340 0.9651
7.8382 -0.5233 -2.0340 0.9681
7.8539 0.1663 -2.0340 0.9681
6.7045 4.0943 -2.0340 0.9681
4.8857 6.1517 -2.0340 0.9681
3.7353 6.9110 -2.0340 0.9681
3.1145 7.2120 -2.0340 0.9681
1.8061 7.6453 -2.0340 0.9681
7.1688 -0.4786 -2.0340 0.9706
7.1832 0.1521 -2.0340 0.9706
7.0461 1.4053 -2.0340 0.9706
6.8957 2.0180 -2.0340 0.9706
5.7798 4.2681 -2.0340 0.9706
5.3831 4.7587 -2.0340 0.9706
3.4162 6.3208 -2.0340 0.9706
1.6519 6.9924 -2.0340 0.9706
1.0320 7.1104 -2.0340 0.9706
6.5981 -0.4405 -2.0340 0.9727
6.5736 0.7195 -2.0340 0.9727
6.3467 1.8574 -2.0340 0.9727
6.1593 2.4070 -2.0340 0.9727
5.3196 3.9283 -2.0340 0.9727
4.1127 5.1784 -2.0340 0.9727
3.6425 5.5193 -2.0340 0.9727
2.0791 6.2776 -2.0340 0.9727
0.9499 6.5443 -2.0340 0.9727
6.1175 0.1296 -2.0340 0.9745
6.0826 0.6657 -2.0340 0.9745
5.8726 1.7186 -2.0340 0.9745
5.6992 2.2272 -2.0340 0.9745
5.4819 2.7186 -2.0340 0.9745
4.2112 4.4393 -2.0340 0.9745
3.8055 4.7917 -2.0340 0.9745
2.9094 5.3830 -2.0340 0.9745
0.8789 6.0555 -2.0340 0.9745
5.6539 0.6188 -2.0340 0.9761
5.5779 1.1124 -2.0340 0.9761
5.4588 1.5975 -2.0340 0.9761
5.2975 2.0702 -2.0340 0.9761
5.0955 2.5270 -2.0340 0.9761
4.5754 3.3787 -2.0340 0.9761
4.2614 3.7671 -2.0340 0.9761
3.9145 4.1265 -2.0340 0.9761
3.5373 4.4539 -2.0340 0.9761
2.2550 5.2216 -2.0340 0.9761
1.7882 5.3993 -2.0340 0.9761
1.3077 5.5354 -2.0340 0.9761
5.3064 0.1124 -2.0339 0.9775
5.2761 0.5775 -2.0340 0.9775
5.0939 1.4908 -2.0340 0.9775
4.7550 2.3581 -2.0340 0.9775
4.5298 2.7662 -2.0340 0.9775
4.2696 3.1529 -2.0340 0.9775
3.9766 3.5154 -2.0340 0.9775
3.6528 3.8507 -2.0340 0.9775
2.9236 4.4298 -2.0340 0.9775
2.5237 4.6693 -2.0340 0.9775
0.7624 5.2526 -2.0340 0.9775
4.9586 -0.3311 -2.0339 0.9788
4.9402 0.5407 -2.0339 0.9787
4.8737 0.9720 -2.0340 0.9787
4.7696 1.3958 -2.0340 0.9787
4.4522 2.2080 -2.0340 0.9787
3.9978 2.9522 -2.0340 0.9787
3.7234 3.2915 -2.0340 0.9787
3.4203 3.6055 -2.0340 0.9787
4.6566 -0.3109 -2.0339 0.9798
4.6393 0.5078 -2.0339 0.9798
4.3469 1.6987 -2.0340 0.9798
4.1811 2.0735 -2.0340 0.9798
3.9831 2.4323 -2.0340 0.9798
3.7543 2.7724 -2.0340 0.9798
2.5707 3.8952 -2.0340 0.9798
1.8504 4.2845 -2.0340 0.9798
1.4673 4.4303 -2.0340 0.9798
4.3843 -0.2927 -2.0339 0.9808
4.3931 0.0930 -2.0339 0.9808
4.3680 0.4781 -2.0339 0.9808
4.2172 1.2342 -2.0340 0.9808
4.0927 1.5994 -2.0340 0.9808
3.9366 1.9523 -2.0340 0.9808
3.7501 2.2901 -2.0340 0.9808
3.5348 2.6103 -2.0340 0.9808
0.6312 4.3485 -2.0340 0.9808
4.1373 -0.2763 -2.0339 0.9817
4.1456 0.0878 -2.0339 0.9817
4.1219 0.4511 -2.0339 0.9817
3.9796 1.1646 -2.0339 0.9817
3.8621 1.5093 -2.0340 0.9817
3.5389 2.1611 -2.0340 0.9817
3.3356 2.4632 -2.0340 0.9817
3.1066 2.7463 -2.0340 0.9817
2.5788 3.2471 -2.0340 0.9817
2.2840 3.4608 -2.0340 0.9817
1.9716 3.6478 -2.0340 0.9817
1.6439 3.8067 -2.0340 0.9817
0.9533 4.0354 -2.0340 0.9817
0.5956 4.1035 -2.0340 0.9817
2.0783 -0.1388 -1.0806 0.9907
2.0748 0.0439 -1.0766 0.9907
3.6517 1.4271 -2.0339 0.9825
3.5125 1.7419 -2.0340 0.9825
3.1539 2.3290 -2.0340 0.9825
2.1596 3.2723 -2.0340 0.9825
1.8642 3.4491 -2.0340 0.9825
0.5632 3.8800 -2.0339 0.9825
1.8523 -0.1237 -1.0167 0.9916
1.8520 0.0392 -1.0145 0.9916
1.8560 0.3701 -1.0365 0.9914
3.3270 1.6499 -2.0339 0.9832
3.1694 1.9354 -2.0339 0.9832
2.5558 2.6942 -2.0340 0.9832
2.3096 2.9080 -2.0340 0.9832
1.4723 3.4093 -2.0340 0.9832
0.8538 3.6141 -2.0339 0.9832
1.7187 0.1881 -0.9982 0.9920
1.7143 0.3419 -1.0093 0.9920
1.7308 0.6764 -1.0729 0.9915
3.1561 1.5652 -2.0339 0.9839
3.0066 1.8361 -2.0339 0.9839
2.6394 2.3333 -2.0339 0.9839
2.4246 2.5559 -2.0339 0.9839
1.9405 2.9403 -2.0340 0.9839
0.8100 3.4285 -2.0339 0.9839
