ply
format ascii 1.0
element vertex 212
property float32 x
property float32 y
property float32 z
property float32 I
end_header
-12.8345 12.9215 3.2113 0.9287
-12.3715 12.4553 2.6894 0.9314
2.2514 17.6824 2.3212 0.9306
-10.9833 13.2763 2.2438 0.9329
-11.1999 13.5382 1.8867 0.9318
-12.1848 12.2673 1.8567 0.9328
2.3357 18.3448 1.5655 0.9285
-4.6516 19.2731 1.6784 0.9235
-11.4243 13.8094 1.5172 0.9306
-11.9695 12.0505 1.4378 0.9341
2.2556 17.7153 0.7042 0.9310
-12.4591 15.0603 0.7707 0.9247
2.4995 19.6304 -0.5572 0.9239
-16.2710 5.6540 -1.2630 0.9332
-16.0131 5.5644 -1.6275 0.9341
0.6125 17.1113 -2.0339 0.9334
-1.1204 7.6217 -0.9151 0.9694
-1.7768 7.3617 -0.8996 0.9700
-5.5108 16.2108 -2.0338 0.9334
-10.9136 13.1922 -2.0338 0.9334
-14.8903 8.4500 -2.0337 0.9334
-16.6151 4.1289 -2.0337 0.9334
-17.0875 1.0580 -2.0336 0.9334
1.8131 14.2395 -2.0339 0.9437
-0.7904 14.3326 -2.0339 0.9437
-8.1082 11.8444 -2.0338 0.9437
-9.1495 11.0597 -2.0338 0.9437
-10.9975 9.2238 -2.0337 0.9437
-11.7891 8.1878 -2.0337 0.9437
-12.4834 7.0842 -2.0337 0.9437
-13.5580 4.7113 -2.0337 0.9437
-13.9295 3.4615 -2.0337 0.9437
-14.3255 0.8870 -2.0337 0.9437
-0.4311 7.8175 -1.2898 0.9688
-6.0206 10.7779 -2.0338 0.9512
-8.7000 8.7589 -2.0338 0.9512
-10.7367 6.0930 -2.0337 0.9512
-11.6611 4.0521 -2.0337 0.9512
-12.2012 1.8778 -2.0337 0.9512
-12.3212 0.7629 -2.0337 0.9512
1.3667 10.7339 -2.0338 0.9569
0.3870 10.8136 -2.0338 0.9569
-0.4171 7.5627 -1.4236 0.9696
-1.0543 7.1721 -1.3626 0.9709
-4.3978 9.8863 -2.0338 0.9569
-5.2768 9.4464 -2.0338 0.9569
-6.8971 8.3371 -2.0338 0.9569
-7.6251 7.6768 -2.0338 0.9569
-8.2903 6.9531 -2.0337 0.9569
-9.4103 5.3402 -2.0337 0.9569
-10.2204 3.5515 -2.0337 0.9569
-10.6939 1.6458 -2.0337 0.9569
-10.7990 0.6686 -2.0337 0.9569
1.2153 9.5446 -2.0338 0.9614
-1.0663 7.2538 -1.5498 0.9705
-1.7274 7.1573 -1.5564 0.9703
-5.4350 7.9393 -2.0338 0.9614
-6.7804 6.8263 -2.0338 0.9614
-7.3718 6.1828 -2.0337 0.9614
-7.9023 5.4883 -2.0337 0.9614
-8.7641 3.9697 -2.0337 0.9614
-9.5091 1.4635 -2.0337 0.9614
0.3095 8.6482 -2.0338 0.9651
-2.7852 8.1931 -2.0338 0.9651
-5.5159 6.6676 -2.0338 0.9651
-6.6302 5.5608 -2.0337 0.9651
-7.1074 4.9362 -2.0337 0.9651
-7.8824 3.5703 -2.0337 0.9651
-8.3978 2.0869 -2.0337 0.9651
-8.6366 0.5347 -2.0337 0.9651
-0.4325 7.8431 -2.0338 0.9681
-1.8429 7.6357 -2.0338 0.9681
-2.5282 7.4370 -2.0338 0.9681
-3.1925 7.1769 -2.0338 0.9681
-5.5354 5.5729 -2.0338 0.9681
-7.6228 1.8943 -2.0337 0.9681
-7.7632 1.1948 -2.0337 0.9681
-7.8396 0.4854 -2.0337 0.9681
0.9074 7.1267 -2.0338 0.9706
-2.9199 6.5640 -2.0338 0.9706
-3.5035 6.2719 -2.0338 0.9706
-4.0582 5.9281 -2.0338 0.9706
-5.5043 4.6166 -2.0337 0.9706
-5.9005 4.0980 -2.0337 0.9706
-6.2480 3.5457 -2.0337 0.9706
-6.7859 2.3581 -2.0337 0.9706
-1.5513 6.4277 -2.0338 0.9727
-2.1282 6.2604 -2.0338 0.9727
-3.7351 5.4562 -2.0338 0.9727
-4.6597 4.6912 -2.0338 0.9727
-5.4308 3.7718 -2.0337 0.9727
-5.7506 3.2634 -2.0337 0.9727
-6.0230 2.7281 -2.0337 0.9727
-6.2457 2.1703 -2.0337 0.9727
-6.4168 1.5946 -2.0337 0.9727
-6.5994 0.4086 -2.0337 0.9727
0.7728 6.0695 -2.0338 0.9745
0.2189 6.1145 -2.0338 0.9745
-0.3369 6.1092 -2.0338 0.9745
-0.8898 6.0534 -2.0338 0.9745
-1.9692 5.7928 -2.0338 0.9745
-2.4868 5.5902 -2.0338 0.9745
-2.9837 5.3415 -2.0338 0.9745
-3.4561 5.0487 -2.0338 0.9745
-3.9000 4.7142 -2.0338 0.9745
-4.6878 3.9317 -2.0337 0.9745
-5.3211 3.0197 -2.0337 0.9745
-5.5732 2.5244 -2.0337 0.9745
-5.9376 1.4755 -2.0337 0.9745
-6.0470 0.9306 -2.0337 0.9745
-6.1064 0.3781 -2.0337 0.9745
0.2034 5.6836 -2.0338 0.9761
-0.3132 5.6786 -2.0338 0.9761
-1.8305 5.3846 -2.0338 0.9761
-2.3115 5.1963 -2.0338 0.9761
-3.6252 4.3820 -2.0338 0.9761
-4.0078 4.0350 -2.0338 0.9761
-4.3574 3.6546 -2.0337 0.9761
-4.9461 2.8069 -2.0337 0.9761
-5.1804 2.3465 -2.0337 0.9761
-5.6208 0.8650 -2.0337 0.9761
-5.6761 0.3514 -2.0337 0.9761
0.6703 5.2647 -2.0338 0.9775
0.1898 5.3038 -2.0338 0.9775
-0.2922 5.2991 -2.0338 0.9775
-0.7719 5.2507 -2.0338 0.9775
-1.2451 5.1590 -2.0338 0.9775
-2.1570 4.8490 -2.0338 0.9775
-2.5881 4.6332 -2.0338 0.9775
-2.9979 4.3793 -2.0338 0.9775
-3.3829 4.0891 -2.0338 0.9775
-4.3589 3.0273 -2.0337 0.9775
-4.6156 2.6193 -2.0337 0.9775
-4.8342 2.1896 -2.0337 0.9775
-5.1503 1.2799 -2.0337 0.9775
-5.2452 0.8073 -2.0337 0.9775
-5.2968 0.3280 -2.0337 0.9775
0.6277 4.9295 -2.0338 0.9788
-0.2736 4.9617 -2.0338 0.9788
-0.7227 4.9164 -2.0338 0.9788
-2.4233 4.3382 -2.0338 0.9788
-2.8070 4.1004 -2.0338 0.9788
-4.5264 2.0503 -2.0337 0.9788
-4.6938 1.6311 -2.0337 0.9788
-0.2570 4.6595 -2.0338 0.9798
-0.6787 4.6170 -2.0338 0.9798
-1.0949 4.5363 -2.0338 0.9798
-1.5020 4.4183 -2.0338 0.9798
-3.2886 3.3109 -2.0338 0.9798
-3.5754 2.9988 -2.0337 0.9798
-3.8328 2.6620 -2.0337 0.9798
-4.2508 1.9254 -2.0337 0.9798
-4.4079 1.5317 -2.0337 0.9798
-1.9102 0.4747 -0.8578 0.9914
0.5550 4.3586 -2.0338 0.9808
0.1572 4.3910 -2.0338 0.9808
-0.2420 4.3871 -2.0338 0.9808
-1.0308 4.2711 -2.0338 0.9808
-1.7857 4.0144 -2.0338 0.9808
-2.1427 3.8358 -2.0338 0.9808
-2.4819 3.6255 -2.0338 0.9808
-3.0963 3.1172 -2.0338 0.9808
-3.3664 2.8234 -2.0337 0.9808
-3.6087 2.5063 -2.0337 0.9808
-4.0022 1.8128 -2.0337 0.9808
-1.5762 0.3917 -0.7518 0.9929
-1.5970 0.0989 -0.7406 0.9930
0.1483 4.1435 -2.0338 0.9817
-0.2283 4.1399 -2.0338 0.9817
-1.3345 3.9255 -2.0338 0.9817
-2.0219 3.6197 -2.0338 0.9817
-2.6428 3.1946 -2.0338 0.9817
-3.1767 2.6643 -2.0337 0.9817
-3.4054 2.3651 -2.0337 0.9817
-1.3472 0.2073 -0.6686 0.9939
-1.3511 0.0837 -0.6640 0.9940
0.4952 3.8889 -2.0338 0.9825
-0.2158 3.9144 -2.0338 0.9825
-0.5702 3.8786 -2.0338 0.9825
-0.9197 3.8109 -2.0338 0.9825
-1.5934 3.5819 -2.0338 0.9825
-1.9118 3.4225 -2.0338 0.9825
-2.4989 3.0206 -2.0338 0.9825
-2.7627 2.7814 -2.0338 0.9825
-3.2199 2.2362 -2.0337 0.9825
-1.1086 0.5021 -0.6314 0.9945
-1.1668 0.2899 -0.6237 0.9946
0.1328 3.7109 -2.0338 0.9832
-0.2045 3.7077 -2.0338 0.9832
-0.5400 3.6738 -2.0338 0.9832
-1.1951 3.5157 -2.0338 0.9832
-1.5092 3.3927 -2.0338 0.9832
-1.8109 3.2418 -2.0338 0.9832
-2.0975 3.0641 -2.0338 0.9832
-2.3669 2.8611 -2.0338 0.9832
-2.8450 2.3862 -2.0338 0.9832
-3.0498 2.1182 -2.0337 0.9832
-3.2294 1.8327 -2.0337 0.9832
-1.0267 0.3568 -0.5953 0.9951
-1.0450 0.2597 -0.5898 0.9951
-1.0813 0.0670 -0.5934 0.9951
0.1260 3.5204 -2.0338 0.9839
-0.5123 3.4852 -2.0338 0.9839
-1.1338 3.3352 -2.0338 0.9839
-1.4317 3.2185 -2.0338 0.9839
-1.7179 3.0753 -2.0338 0.9839
-1.9898 2.9067 -2.0338 0.9839
-2.2454 2.7142 -2.0338 0.9839
-2.6989 2.2637 -2.0338 0.9839
-0.9250 0.4190 -0.5863 0.9953
-0.9488 0.3297 -0.5799 0.9954
-0.9640 0.2396 -0.5735 0.9954
