ply
format ascii 1.0
element vertex 199
property float32 x
property float32 y
property float32 z
property float32 I
end_header
16.5614 -3.8550 -0.8623 0.9342
16.2773 -3.7888 -1.2254 0.9352
16.2036 -3.7716 -1.5972 0.9353
10.3135 -13.6671 -2.0338 0.9334
11.4616 -12.7199 -2.0339 0.9334
14.3550 -9.3337 -2.0339 0.9334
15.1115 -8.0518 -2.0339 0.9334
15.7538 -6.7090 -2.0340 0.9334
16.2771 -5.3156 -2.0340 0.9334
16.4457 -3.8280 -2.0057 0.9342
16.7616 3.5041 -2.0341 0.9333
15.9025 6.3518 -2.0341 0.9333
15.2909 7.7089 -2.0341 0.9333
7.6186 -12.1655 -2.0338 0.9437
11.3094 -8.8404 -2.0339 0.9437
12.6687 -6.7502 -2.0339 0.9437
13.2072 -5.6246 -2.0340 0.9437
13.6459 -4.4563 -2.0340 0.9437
13.9815 -3.2544 -2.0340 0.9437
14.2114 -2.0279 -2.0340 0.9437
14.3482 0.4618 -2.0340 0.9437
14.0520 2.9377 -2.0341 0.9437
13.3318 5.3249 -2.0341 0.9437
6.5527 -10.4634 -2.0338 0.9512
7.4366 -9.8549 -2.0339 0.9512
8.2645 -9.1718 -2.0339 0.9512
9.0299 -8.4195 -2.0339 0.9512
9.7270 -7.6035 -2.0339 0.9512
10.8961 -5.8058 -2.0339 0.9512
12.0252 -2.7991 -2.0340 0.9512
12.3283 -0.6760 -2.0340 0.9512
12.2594 1.4674 -2.0340 0.9512
12.0857 2.5266 -2.0340 0.9512
11.8207 3.5667 -2.0340 0.9512
11.0253 5.5583 -2.0341 0.9512
5.7431 -9.1707 -2.0338 0.9569
6.5179 -8.6373 -2.0339 0.9569
7.9143 -7.3793 -2.0339 0.9569
8.5253 -6.6641 -2.0339 0.9569
10.5395 -2.4532 -2.0340 0.9569
10.5925 2.2144 -2.0340 0.9569
10.0496 4.0140 -2.0340 0.9569
9.6631 4.8716 -2.0340 0.9569
5.1069 -8.1547 -2.0339 0.9614
5.7958 -7.6804 -2.0339 0.9614
6.4409 -7.1481 -2.0339 0.9614
7.0374 -6.5618 -2.0339 0.9614
7.5808 -5.9258 -2.0339 0.9614
8.0668 -5.2451 -2.0339 0.9614
8.4919 -4.5247 -2.0339 0.9614
9.3718 -2.1814 -2.0340 0.9614
9.6080 -0.5269 -2.0340 0.9614
8.9361 3.5692 -2.0340 0.9614
8.5924 4.3318 -2.0340 0.9614
4.5931 -7.3344 -2.0339 0.9651
5.2127 -6.9078 -2.0339 0.9651
5.7930 -6.4290 -2.0339 0.9651
6.3295 -5.9016 -2.0339 0.9651
7.6376 -4.0696 -2.0339 0.9651
8.2266 -2.6866 -2.0339 0.9651
8.5675 -1.2225 -2.0340 0.9651
8.6413 -0.4738 -2.0340 0.9651
8.6499 0.2784 -2.0340 0.9651
8.4713 1.7710 -2.0340 0.9651
8.2855 2.5000 -2.0340 0.9651
8.0371 3.2101 -2.0340 0.9651
4.7317 -6.2703 -2.0339 0.9681
5.2584 -5.8357 -2.0339 0.9681
5.7454 -5.3570 -2.0339 0.9681
6.9327 -3.6940 -2.0339 0.9681
7.2274 -3.0779 -2.0339 0.9681
7.4674 -2.4386 -2.0339 0.9681
7.6511 -1.7809 -2.0339 0.9681
7.7769 -1.1097 -2.0340 0.9681
7.8438 -0.4301 -2.0340 0.9681
7.8516 0.2527 -2.0340 0.9681
7.6895 1.6076 -2.0340 0.9681
7.5208 2.2693 -2.0340 0.9681
7.0147 3.5365 -2.0340 0.9681
3.8132 -6.0890 -2.0339 0.9706
4.3276 -5.7349 -2.0339 0.9706
4.8093 -5.3374 -2.0339 0.9706
5.2547 -4.8996 -2.0339 0.9706
6.3407 -3.3785 -2.0339 0.9706
6.9977 -1.6288 -2.0339 0.9706
7.1811 0.2311 -2.0340 0.9706
7.1339 0.8539 -2.0340 0.9706
7.0328 1.4702 -2.0340 0.9706
6.8786 2.0755 -2.0340 0.9706
6.4157 3.2344 -2.0340 0.9706
3.9831 -5.2783 -2.0339 0.9727
4.8364 -4.5095 -2.0339 0.9727
5.5438 -3.6046 -2.0339 0.9727
6.0840 -2.5910 -2.0339 0.9727
6.4406 -1.4992 -2.0339 0.9727
6.5465 -0.9341 -2.0339 0.9727
6.6029 -0.3621 -2.0340 0.9727
6.6094 0.2127 -2.0340 0.9727
6.4730 1.3532 -2.0340 0.9727
3.6856 -4.8841 -2.0339 0.9745
5.1297 -3.3354 -2.0339 0.9745
5.4001 -2.8773 -2.0339 0.9745
5.6296 -2.3975 -2.0339 0.9745
5.8166 -1.8995 -2.0339 0.9745
6.0575 -0.8644 -2.0339 0.9745
5.8581 1.7676 -2.0340 0.9745
5.4639 2.7546 -2.0340 0.9745
3.0187 -4.8202 -2.0339 0.9761
3.4259 -4.5399 -2.0339 0.9761
4.1598 -3.8787 -2.0339 0.9761
4.7682 -3.1004 -2.0339 0.9761
5.0195 -2.6745 -2.0339 0.9761
5.2329 -2.2285 -2.0339 0.9761
5.6791 -0.3114 -2.0339 0.9761
5.6473 0.6760 -2.0340 0.9761
5.5674 1.1639 -2.0340 0.9761
5.2820 2.1097 -2.0340 0.9761
5.0788 2.5604 -2.0340 0.9761
3.5528 -3.9428 -2.0339 0.9775
4.4496 -2.8931 -2.0339 0.9775
4.8832 -2.0796 -2.0339 0.9775
5.1693 -1.2033 -2.0339 0.9775
5.2996 -0.2906 -2.0339 0.9775
5.1953 1.0861 -2.0340 0.9775
5.0813 1.5332 -2.0340 0.9775
4.9289 1.9687 -2.0340 0.9775
4.7394 2.3893 -2.0340 0.9775
2.6376 -4.2117 -2.0339 0.9788
3.9152 -3.0605 -2.0339 0.9788
4.1663 -2.7090 -2.0339 0.9788
4.7241 -1.5427 -2.0339 0.9788
4.9621 -0.2721 -2.0339 0.9788
4.9345 0.5906 -2.0339 0.9787
4.6152 1.8434 -2.0340 0.9787
4.4376 2.2372 -2.0340 0.9787
3.1240 -3.4670 -2.0339 0.9798
3.6768 -2.8741 -2.0339 0.9798
3.9126 -2.5439 -2.0339 0.9798
4.2938 -1.8286 -2.0339 0.9798
4.4364 -1.4488 -2.0339 0.9798
4.6202 -0.6593 -2.0339 0.9798
4.6600 -0.2555 -2.0339 0.9798
4.5682 0.9550 -2.0340 0.9798
4.3341 1.7310 -2.0340 0.9798
4.1674 2.1009 -2.0340 0.9798
2.3321 -3.7240 -2.0339 0.9808
2.6467 -3.5073 -2.0339 0.9808
3.2137 -2.9965 -2.0339 0.9808
3.6838 -2.3952 -2.0339 0.9808
3.8779 -2.0662 -2.0339 0.9808
4.0427 -1.7217 -2.0339 0.9808
4.2796 -0.9962 -2.0339 0.9808
4.3629 0.5222 -2.0339 0.9808
4.3011 0.8992 -2.0339 0.9808
4.2068 1.2693 -2.0340 0.9808
3.9237 1.9781 -2.0340 0.9808
2.4976 -3.3097 -2.0339 0.9817
2.7756 -3.0803 -2.0339 0.9817
3.0327 -2.8276 -2.0339 0.9817
3.2668 -2.5536 -2.0339 0.9817
3.6594 -1.9498 -2.0339 0.9817
3.8149 -1.6246 -2.0339 0.9817
3.9416 -1.2872 -2.0339 0.9817
4.1049 -0.5858 -2.0339 0.9817
4.1443 0.1334 -2.0339 0.9817
4.1171 0.4928 -2.0339 0.9817
3.8507 1.5380 -2.0340 0.9817
2.0809 -3.3227 -2.0339 0.9825
2.3615 -3.1295 -2.0339 0.9825
2.6245 -2.9126 -2.0339 0.9825
3.0889 -2.4145 -2.0339 0.9825
3.4601 -1.8436 -2.0339 0.9825
3.7269 -1.2171 -2.0339 0.9825
3.8186 -0.8888 -2.0339 0.9825
2.0783 -0.1140 -1.0798 0.9907
2.0857 0.2496 -1.0898 0.9906
3.7535 1.1325 -2.0339 0.9825
3.5009 1.7650 -2.0340 0.9825
1.9709 -3.1473 -2.0339 0.9832
2.2368 -2.9642 -2.0339 0.9832
2.4859 -2.7587 -2.0339 0.9832
2.7161 -2.5324 -2.0339 0.9832
3.4166 -1.4550 -2.0339 0.9832
1.8576 -0.4324 -1.0446 0.9913
1.8525 0.0596 -1.0151 0.9916
1.8752 0.5658 -1.0728 0.9911
3.3160 1.6717 -2.0339 0.9832
2.1220 -2.8120 -2.0339 0.9839
2.7755 -2.1696 -2.0339 0.9839
2.9534 -1.9203 -2.0339 0.9839
3.1091 -1.6566 -2.0339 0.9839
1.7666 -0.7524 -1.1086 0.9912
1.7232 -0.5628 -1.0466 0.9917
1.7148 -0.3992 -1.0165 0.9919
1.7235 -0.0945 -0.9966 0.9921
1.7147 0.3585 -1.0114 0.9919
1.7173 0.5181 -1.0356 0.9917
1.7471 0.6978 -1.0862 0.9913
3.1457 1.5859 -2.0339 0.9839
