ply
format ascii 1.0
element vertex 184
property float32 x
property float32 y
property float32 z
property float32 I
end_header
2.8955 -6.0656 -0.6453 0.9734
16.2481 -3.5777 -1.5973 0.9353
1.7624 -6.5291 -0.8033 0.9731
2.3054 -6.2283 -0.7889 0.9736
2.8018 -5.8693 -0.7726 0.9741
8.7477 -14.7183 -2.0338 0.9334
14.3205 -9.3865 -2.0339 0.9334
15.1133 -8.0484 -2.0339 0.9334
15.7815 -6.6438 -2.0340 0.9334
16.7226 -3.6822 -2.0340 0.9334
16.9880 -2.1496 -2.0340 0.9333
17.1131 -0.5992 -2.0340 0.9333
16.9398 2.5037 -2.0341 0.9333
2.2839 -6.1703 -0.9322 0.9738
2.8247 -5.9172 -0.9290 0.9739
11.2419 -8.9261 -2.0339 0.9437
13.2304 -5.5699 -2.0340 0.9437
14.2418 -1.8021 -2.0340 0.9437
14.3467 -0.5023 -2.0340 0.9437
14.2014 2.0990 -2.0340 0.9437
1.6602 -6.1505 -1.0495 0.9745
2.2303 -6.0256 -1.0585 0.9743
2.7931 -5.8512 -1.0681 0.9741
8.1220 -9.2982 -2.0339 0.9512
9.6690 -7.6772 -2.0339 0.9512
10.3258 -6.7682 -2.0339 0.9512
11.3791 -4.7905 -2.0339 0.9512
12.0578 -2.6551 -2.0340 0.9512
12.2491 -1.5499 -2.0340 0.9512
12.3276 0.6895 -2.0340 0.9512
12.2143 1.8053 -2.0340 0.9512
1.6357 -6.0597 -1.1797 0.9748
2.7195 -5.6969 -1.1865 0.9746
6.3497 -8.7617 -2.0339 0.9569
7.1186 -8.1495 -2.0339 0.9569
8.4744 -6.7287 -2.0339 0.9569
9.5511 -5.0863 -2.0339 0.9569
9.9733 -4.1987 -2.0339 0.9569
10.5681 -2.3270 -2.0340 0.9569
10.8147 -0.3787 -2.0340 0.9569
10.7052 1.5822 -2.0340 0.9569
1.6588 -6.1457 -1.3456 0.9743
6.3299 -7.2466 -2.0339 0.9614
6.9615 -6.6423 -2.0339 0.9614
8.0474 -5.2748 -2.0339 0.9614
9.1706 -2.9133 -2.0339 0.9614
9.3972 -2.0692 -2.0340 0.9614
9.5191 1.4069 -2.0340 0.9614
2.1443 -5.7930 -1.4518 0.9749
5.0782 -7.0073 -2.0339 0.9651
6.2611 -5.9741 -2.0339 0.9651
7.9762 -3.3579 -2.0339 0.9651
8.4518 -1.8610 -2.0340 0.9651
8.5859 -1.0864 -2.0340 0.9651
8.6491 -0.3028 -2.0340 0.9651
8.6409 0.4833 -2.0340 0.9651
8.5614 1.2654 -2.0340 0.9651
1.5870 -5.8791 -1.5767 0.9752
4.0133 -6.7526 -2.0339 0.9681
4.6096 -6.3606 -2.0339 0.9681
5.1677 -5.9161 -2.0339 0.9681
6.1520 -4.8847 -2.0339 0.9681
7.2401 -3.0480 -2.0339 0.9681
7.4868 -2.3785 -2.0339 0.9681
7.7935 -0.9862 -2.0340 0.9681
7.7713 1.1486 -2.0340 0.9681
2.1932 -5.9252 -1.7886 0.9741
2.8442 -5.9581 -1.8690 0.9729
3.6707 -6.1760 -2.0339 0.9706
4.2159 -5.8174 -2.0339 0.9706
4.7265 -5.4109 -2.0339 0.9706
5.1980 -4.9597 -2.0339 0.9706
5.6266 -4.4676 -2.0339 0.9706
6.0088 -3.9386 -2.0339 0.9706
6.3415 -3.3771 -2.0339 0.9706
6.6218 -2.7877 -2.0339 0.9706
7.1279 -0.9019 -2.0340 0.9706
7.1804 -0.2514 -2.0340 0.9706
7.1736 0.4012 -2.0340 0.9706
2.2954 -6.2013 -2.0339 0.9727
2.8487 -5.9674 -2.0339 0.9727
4.3502 -4.9802 -2.0339 0.9727
4.7842 -4.5649 -2.0339 0.9727
5.1787 -4.1119 -2.0339 0.9727
5.5305 -3.6251 -2.0339 0.9727
6.3024 -2.0022 -2.0339 0.9727
6.6087 -0.2314 -2.0340 0.9727
6.6025 0.3693 -2.0340 0.9727
2.1239 -5.7381 -2.0339 0.9745
2.6359 -5.5217 -2.0339 0.9745
3.1261 -5.2598 -2.0339 0.9745
4.0253 -4.6082 -2.0339 0.9745
4.4268 -4.2240 -2.0339 0.9745
5.4007 -2.8761 -2.0339 0.9745
5.6395 -2.3742 -2.0339 0.9745
5.8317 -1.8526 -2.0339 0.9745
5.9757 -1.3158 -2.0339 0.9745
6.0705 -0.7681 -2.0339 0.9745
6.1152 -0.2141 -2.0340 0.9745
6.1094 0.3417 -2.0340 0.9745
1.9743 -5.3337 -2.0339 0.9761
2.4501 -5.1326 -2.0339 0.9761
3.7416 -4.2834 -2.0339 0.9761
4.1149 -3.9263 -2.0339 0.9761
4.4542 -3.5367 -2.0339 0.9761
4.7568 -3.1179 -2.0339 0.9761
5.0201 -2.6734 -2.0339 0.9761
5.4207 -1.7221 -2.0339 0.9761
5.5546 -1.2231 -2.0339 0.9761
5.6788 0.3176 -2.0340 0.9761
5.6266 0.8316 -2.0340 0.9761
1.8423 -4.9773 -2.0339 0.9775
2.2864 -4.7896 -2.0339 0.9775
3.1144 -4.2975 -2.0339 0.9775
3.4916 -3.9972 -2.0339 0.9775
5.0584 -1.6070 -2.0339 0.9775
5.2656 -0.6663 -2.0339 0.9775
5.2506 0.7760 -2.0340 0.9775
1.2950 -4.7977 -2.0339 0.9788
1.7251 -4.6604 -2.0339 0.9788
2.1409 -4.4846 -2.0339 0.9788
3.2693 -3.7427 -2.0339 0.9788
4.1563 -2.7243 -2.0339 0.9788
4.3864 -2.3359 -2.0339 0.9788
4.8533 -1.0687 -2.0339 0.9788
4.9666 -0.1739 -2.0339 0.9787
4.9619 0.2775 -2.0339 0.9787
4.9162 0.7266 -2.0340 0.9787
1.6200 -4.3766 -2.0339 0.9798
2.7386 -3.7788 -2.0339 0.9798
3.3764 -3.2217 -2.0339 0.9798
4.3013 -1.8108 -2.0339 0.9798
4.4479 -1.4130 -2.0339 0.9798
4.5578 -1.0036 -2.0339 0.9798
4.6301 -0.5859 -2.0339 0.9798
4.6641 -0.1633 -2.0339 0.9798
1.1450 -4.2421 -2.0339 0.9808
1.8929 -3.9653 -2.0339 0.9808
2.2449 -3.7771 -2.0339 0.9808
2.5784 -3.5579 -2.0339 0.9808
3.1790 -3.0333 -2.0339 0.9808
3.4412 -2.7323 -2.0339 0.9808
4.0498 -1.7049 -2.0339 0.9808
4.2913 -0.9449 -2.0339 0.9808
4.3872 0.2453 -2.0339 0.9808
4.3468 0.6425 -2.0339 0.9808
1.0805 -4.0030 -2.0339 0.9817
1.4393 -3.8885 -2.0339 0.9817
1.7862 -3.7419 -2.0339 0.9817
2.1184 -3.5644 -2.0339 0.9817
2.4332 -3.3574 -2.0339 0.9817
2.7277 -3.1228 -2.0339 0.9817
2.9999 -2.8624 -2.0339 0.9817
3.4679 -2.2730 -2.0339 0.9817
3.6598 -1.9490 -2.0339 0.9817
3.8216 -1.6089 -2.0339 0.9817
3.9518 -1.2555 -2.0339 0.9817
4.1439 -0.1451 -2.0339 0.9817
1.0217 -3.7850 -2.0339 0.9825
2.0030 -3.3702 -2.0339 0.9825
2.3006 -3.1745 -2.0339 0.9825
2.5792 -2.9527 -2.0339 0.9825
2.8365 -2.7065 -2.0339 0.9825
3.2790 -2.1493 -2.0339 0.9825
3.7366 -1.1870 -2.0339 0.9825
2.0887 -0.2643 -1.0922 0.9906
2.0966 0.3099 -1.0995 0.9905
0.9677 -3.5852 -2.0339 0.9832
1.5998 -3.3512 -2.0339 0.9832
2.1791 -3.0069 -2.0339 0.9832
3.2778 -1.7455 -2.0339 0.9832
3.4226 -1.4409 -2.0339 0.9832
1.8845 -0.5987 -1.0830 0.9910
1.8573 -0.4090 -1.0416 0.9914
1.8447 -0.2334 -1.0184 0.9916
1.8526 -0.0649 -1.0153 0.9916
1.8478 0.2731 -1.0230 0.9915
0.9180 -3.4011 -2.0339 0.9839
1.2229 -3.3037 -2.0339 0.9839
1.7998 -3.0283 -2.0339 0.9839
2.5487 -2.4319 -2.0339 0.9839
1.7638 -0.7426 -1.1049 0.9912
1.7149 -0.3776 -1.0138 0.9919
1.7242 -0.0604 -0.9961 0.9921
