ply
format ascii 1.0
element vertex 212
property float32 x
property float32 y
property float32 z
property float32 I
end_header
-17.6418 5.0310 -0.9304 0.9292
-11.6062 -8.2107 -1.0424 0.9446
-17.5685 5.0102 -1.7539 0.9292
-17.1204 0.1670 -2.0338 0.9334
-17.0668 -1.3614 -2.0337 0.9334
-16.8771 -2.8788 -2.0337 0.9334
-16.5528 -4.3733 -2.0337 0.9334
-11.9964 -12.2145 -2.0337 0.9334
-8.3330 -14.9556 -2.0337 0.9334
-4.0745 -16.6287 -2.0337 0.9334
-13.8038 3.9365 -2.0338 0.9437
-14.0999 2.6891 -2.0338 0.9437
-14.2834 1.4202 -2.0338 0.9437
-14.3082 -1.1413 -2.0338 0.9437
-13.4948 -4.8901 -2.0337 0.9437
-13.0045 -6.0747 -2.0337 0.9437
-12.4106 -7.2109 -2.0337 0.9437
-10.9311 -9.3020 -2.0337 0.9437
-10.0575 -10.2403 -2.0337 0.9437
-9.1036 -11.0968 -2.0337 0.9437
-5.8395 -13.1117 -2.0337 0.9437
-3.4159 -13.9410 -2.0337 0.9437
-11.8725 3.3858 -2.0338 0.9512
-12.1271 2.3129 -2.0338 0.9512
-12.2850 1.2215 -2.0338 0.9512
-12.3450 0.1204 -2.0338 0.9512
-12.1696 -2.0758 -2.0338 0.9512
-11.6068 -4.2059 -2.0338 0.9512
-11.1851 -5.2248 -2.0337 0.9512
-10.0782 -7.1297 -2.0337 0.9512
-9.4018 -8.0006 -2.0337 0.9512
-8.6504 -8.8076 -2.0337 0.9512
-5.0225 -11.2773 -2.0337 0.9512
-2.9380 -11.9905 -2.0337 0.9512
-10.4057 2.9675 -2.0338 0.9569
-10.7673 1.0706 -2.0338 0.9569
-10.8198 0.1055 -2.0338 0.9569
-10.6662 -1.8194 -2.0338 0.9569
-10.4612 -2.7639 -2.0338 0.9569
-9.8033 -4.5793 -2.0338 0.9569
-8.2404 -7.0122 -2.0338 0.9569
-6.8627 -8.3653 -2.0337 0.9569
-5.2665 -9.4520 -2.0337 0.9569
-4.4020 -9.8841 -2.0338 0.9569
-3.5025 -10.2376 -2.0338 0.9569
-8.9805 3.4539 -2.0339 0.9614
-9.2529 2.6387 -2.0339 0.9614
-9.4514 1.8025 -2.0338 0.9614
-9.5911 -0.7651 -2.0338 0.9614
-9.4846 -1.6178 -2.0338 0.9614
-8.7173 -4.0720 -2.0338 0.9614
-8.3191 -4.8337 -2.0338 0.9614
-7.8546 -5.5567 -2.0338 0.9614
-7.3274 -6.2354 -2.0338 0.9614
-6.7418 -6.8644 -2.0338 0.9614
-5.4143 -7.9534 -2.0338 0.9614
-4.6830 -8.4048 -2.0338 0.9614
-3.9144 -8.7892 -2.0338 0.9614
-8.3221 2.3733 -2.0339 0.9651
-8.6533 0.0844 -2.0338 0.9651
-8.1359 -2.9482 -2.0338 0.9651
-5.4886 -6.6903 -2.0338 0.9651
-4.2119 -7.5593 -2.0338 0.9651
-3.5206 -7.9050 -2.0338 0.9651
-2.0594 -8.4050 -2.0338 0.9651
-7.3317 2.8197 -2.0339 0.9681
-7.5541 2.1542 -2.0339 0.9681
-7.8166 0.7772 -2.0338 0.9681
-7.8548 0.0766 -2.0338 0.9681
-7.7432 -1.3208 -2.0338 0.9681
-7.5944 -2.0065 -2.0338 0.9681
-6.7918 -3.9462 -2.0338 0.9681
-6.4126 -4.5365 -2.0338 0.9681
-5.9821 -5.0906 -2.0338 0.9681
-5.5041 -5.6041 -2.0338 0.9681
-4.9821 -6.0729 -2.0338 0.9681
-3.1957 -7.1755 -2.0338 0.9681
-1.8694 -7.6293 -2.0338 0.9681
-6.9089 1.9703 -2.0339 0.9706
-7.1839 0.0701 -2.0338 0.9706
-7.0820 -1.2080 -2.0338 0.9706
-6.5091 -3.0406 -2.0338 0.9706
-6.2118 -3.6093 -2.0338 0.9706
-5.8650 -4.1491 -2.0338 0.9706
-5.4714 -4.6559 -2.0338 0.9706
-5.0341 -5.1255 -2.0338 0.9706
-4.0428 -5.9387 -2.0338 0.9706
-3.4968 -6.2758 -2.0338 0.9706
-2.9228 -6.5628 -2.0338 0.9706
-2.3255 -6.7974 -2.0338 0.9706
-1.7098 -6.9779 -2.0338 0.9706
-6.3589 1.8135 -2.0339 0.9727
-6.4954 1.2388 -2.0339 0.9727
-6.6121 0.0645 -2.0338 0.9727
-6.5915 -0.5258 -2.0338 0.9727
-6.5182 -1.1119 -2.0338 0.9727
-6.3930 -1.6891 -2.0338 0.9727
-6.2168 -2.2528 -2.0338 0.9727
-5.9909 -2.7985 -2.0338 0.9727
-5.0359 -4.2853 -2.0338 0.9727
-4.1939 -5.1121 -2.0338 0.9727
-3.7210 -5.4660 -2.0338 0.9727
-3.2184 -5.7762 -2.0338 0.9727
-2.6902 -6.0404 -2.0338 0.9727
-5.7109 2.1963 -2.0339 0.9745
-6.0103 1.1463 -2.0339 0.9745
-6.0314 -1.0288 -2.0338 0.9745
-5.7525 -2.0845 -2.0338 0.9745
-5.5435 -2.5895 -2.0338 0.9745
-5.2904 -3.0738 -2.0338 0.9745
-4.6597 -3.9652 -2.0338 0.9745
-4.2873 -4.3652 -2.0338 0.9745
-3.8807 -4.7304 -2.0338 0.9745
-2.9780 -5.3448 -2.0338 0.9745
-2.4892 -5.5892 -2.0338 0.9745
-5.4694 1.5597 -2.0339 0.9761
-5.5867 1.0655 -2.0339 0.9761
-5.6595 0.5627 -2.0339 0.9761
-5.6871 0.0555 -2.0339 0.9761
-5.4987 -1.4528 -2.0338 0.9761
-5.1529 -2.4070 -2.0338 0.9761
-3.9852 -4.0576 -2.0338 0.9761
-3.6072 -4.3970 -2.0338 0.9761
-3.2005 -4.7014 -2.0338 0.9761
-2.3138 -5.1954 -2.0338 0.9761
-1.8410 -5.3811 -2.0338 0.9761
-1.3535 -5.5239 -2.0338 0.9761
-4.9536 1.9051 -2.0339 0.9775
-5.2812 0.5251 -2.0339 0.9775
-5.1312 -1.3557 -2.0338 0.9775
-4.9898 -1.8081 -2.0338 0.9775
-4.8085 -2.2462 -2.0338 0.9775
-4.3327 -3.0651 -2.0338 0.9775
-4.0419 -3.4395 -2.0338 0.9775
-2.5832 -4.6362 -2.0338 0.9775
-4.6382 1.7838 -2.0339 0.9788
-2.1210 0.4045 -0.8837 0.9907
-2.1145 0.2102 -0.8697 0.9909
-2.1219 0.0207 -0.8685 0.9909
-2.1187 -0.1690 -0.8699 0.9909
-4.8045 -1.2694 -2.0338 0.9788
-4.5023 -2.1032 -2.0338 0.9788
-4.0568 -2.8700 -2.0338 0.9788
-3.7845 -3.2205 -2.0338 0.9788
-3.4821 -3.5454 -2.0338 0.9788
-2.7964 -4.1079 -2.0338 0.9788
-2.0217 -4.5395 -2.0338 0.9788
-1.6086 -4.7018 -2.0338 0.9788
-1.1827 -4.8266 -2.0338 0.9788
-4.3558 1.6752 -2.0339 0.9798
-1.9050 0.3633 -0.8452 0.9916
-1.9146 -0.1528 -0.8371 0.9917
-1.9051 -0.3250 -0.8423 0.9916
-1.9538 -0.5162 -0.8807 0.9912
-4.3875 -1.5899 -2.0338 0.9798
-4.0351 -2.3445 -2.0338 0.9798
-3.5541 -3.0244 -2.0338 0.9798
-3.2701 -3.3295 -2.0338 0.9798
-2.9599 -3.6080 -2.0338 0.9798
-1.8986 -4.2631 -2.0338 0.9798
-1.5106 -4.4155 -2.0338 0.9798
-1.1106 -4.5327 -2.0338 0.9798
-1.5501 0.4420 -0.7461 0.9929
-1.6042 0.3059 -0.7560 0.9928
-1.6068 0.1597 -0.7474 0.9929
-1.6024 -0.1279 -0.7441 0.9929
-1.6104 -0.2747 -0.7562 0.9928
-3.7991 -2.2074 -2.0338 0.9808
-3.5870 -2.5376 -2.0338 0.9808
-3.3462 -2.8475 -2.0338 0.9808
-3.0788 -3.1348 -2.0338 0.9808
-2.1386 -3.8383 -2.0338 0.9808
-1.7876 -4.0138 -2.0338 0.9808
-1.0457 -4.2676 -2.0338 0.9808
-1.2565 0.4832 -0.6604 0.9940
-1.3535 0.1346 -0.6672 0.9940
-1.3386 0.0130 -0.6567 0.9941
-1.3430 -0.2291 -0.6683 0.9939
-1.2640 -0.4581 -0.6595 0.9940
-3.3849 -2.3946 -2.0338 0.9817
-2.6298 -3.2056 -2.0338 0.9817
-2.3333 -3.4275 -2.0338 0.9817
-2.0181 -3.6220 -2.0338 0.9817
-1.1546 0.3292 -0.6229 0.9946
-1.2003 0.1193 -0.6257 0.9946
-1.1936 0.0116 -0.6192 0.9946
-3.2005 -2.2642 -2.0338 0.9825
-2.9857 -2.5408 -2.0338 0.9825
-2.7471 -2.7971 -2.0338 0.9825
-2.4866 -3.0310 -2.0338 0.9825
-1.9082 -3.4247 -2.0338 0.9825
-1.2691 -3.7094 -2.0338 0.9825
-0.9330 -3.8079 -2.0338 0.9825
-1.0175 0.3913 -0.5971 0.9950
-1.0377 0.2959 -0.5910 0.9951
-1.0793 0.1073 -0.5940 0.9951
-0.9926 -0.4637 -0.6000 0.9950
-3.2107 -1.8656 -2.0339 0.9832
-2.8280 -2.4066 -2.0338 0.9832
-2.3552 -2.8710 -2.0338 0.9832
-1.5108 -3.3922 -2.0338 0.9832
-0.8837 -3.6068 -2.0339 0.9832
-0.9766 0.1862 -0.5740 0.9954
-0.9880 0.0982 -0.5733 0.9954
-0.9894 0.0096 -0.5712 0.9954
-0.9602 -0.2537 -0.5734 0.9954
-0.9461 -0.3429 -0.5810 0.9954
-0.9211 -0.4303 -0.5869 0.9953
-1.2106 -0.7035 -0.8084 0.9936
-1.9824 -2.9121 -2.0339 0.9839
-1.1403 -3.3331 -2.0339 0.9839
-0.8384 -3.4215 -2.0339 0.9839
