ply
format ascii 1.0
element vertex 194
property float32 x
property float32 y
property float32 z
property float32 I
end_header
-11.7468 -8.8648 -1.0790 0.9427
-12.5521 -7.8550 -1.4216 0.9422
-17.0981 0.8901 -2.0338 0.9334
-16.9924 -2.0939 -2.0337 0.9334
-15.2498 -7.7820 -2.0337 0.9334
-12.8130 -8.0183 -1.7955 0.9409
-9.3117 -14.3666 -2.0337 0.9334
-6.6742 -15.7659 -2.0337 0.9334
-3.8336 -16.6859 -2.0337 0.9334
-2.3639 -16.9567 -2.0337 0.9334
-14.3345 0.7462 -2.0338 0.9437
-14.0385 -2.9911 -2.0337 0.9437
-13.7241 -4.2038 -2.0337 0.9437
-13.3052 -5.3845 -2.0337 0.9437
-12.1673 -7.6141 -2.0337 0.9437
-9.7805 -10.5051 -2.0337 0.9437
-7.8067 -12.0446 -2.0337 0.9437
-4.4215 -13.6553 -2.0337 0.9437
-3.2139 -13.9889 -2.0337 0.9437
-12.2261 1.7145 -2.0338 0.9512
-12.3379 -0.4357 -2.0338 0.9512
-12.2527 -1.5099 -2.0338 0.9512
-11.4437 -4.6311 -2.0338 0.9512
-10.9963 -5.6114 -2.0337 0.9512
-10.4650 -6.5489 -2.0337 0.9512
-9.1680 -8.2674 -2.0337 0.9512
-7.5923 -9.7345 -2.0337 0.9512
-6.7145 -10.3595 -2.0337 0.9512
-5.7855 -10.9055 -2.0337 0.9512
-2.7643 -12.0318 -2.0337 0.9512
-10.8058 0.5625 -2.0338 0.9569
-10.7390 -1.3233 -2.0338 0.9569
-9.6378 -4.9182 -2.0338 0.9569
-8.0355 -7.2461 -2.0338 0.9569
-6.6543 -8.5320 -2.0337 0.9569
-5.0709 -9.5583 -2.0338 0.9569
-3.3331 -10.2940 -2.0338 0.9569
-1.4940 -10.7165 -2.0338 0.9569
-9.6156 -0.3396 -2.0338 0.9614
-9.5493 -1.1767 -2.0338 0.9614
-9.4103 -2.0050 -2.0338 0.9614
-9.1995 -2.8179 -2.0338 0.9614
-8.5701 -4.3733 -2.0338 0.9614
-7.6799 -5.7957 -2.0338 0.9614
-7.1453 -6.4433 -2.0338 0.9614
-5.9172 -7.5867 -2.0338 0.9614
-4.5091 -8.4994 -2.0338 0.9614
-2.9639 -9.1535 -2.0338 0.9614
-2.1544 -9.3771 -2.0338 0.9614
-8.6483 -0.3054 -2.0338 0.9651
-8.2741 -2.5345 -2.0338 0.9651
-7.7080 -3.9334 -2.0338 0.9651
-7.3356 -4.5905 -2.0338 0.9651
-6.9074 -5.2127 -2.0338 0.9651
-5.8967 -6.3335 -2.0338 0.9651
-4.7066 -7.2616 -2.0338 0.9651
-3.3735 -7.9689 -2.0338 0.9651
-2.6657 -8.2328 -2.0338 0.9651
-7.7790 1.0909 -2.0338 0.9681
-7.8445 0.4084 -2.0338 0.9681
-7.8502 -0.2772 -2.0338 0.9681
-7.5106 -2.3006 -2.0338 0.9681
-6.9967 -3.5704 -2.0338 0.9681
-6.6587 -4.1669 -2.0338 0.9681
-5.8335 -5.2604 -2.0338 0.9681
-4.8308 -6.1938 -2.0338 0.9681
-4.2723 -6.5915 -2.0338 0.9681
-3.6812 -6.9389 -2.0338 0.9681
-3.0621 -7.2335 -2.0338 0.9681
-2.4197 -7.4730 -2.0338 0.9681
-1.7588 -7.6556 -2.0338 0.9681
-1.0846 -7.7798 -2.0338 0.9681
-7.1304 -0.8787 -2.0338 0.9706
-7.0265 -1.4971 -2.0338 0.9706
-6.3992 -3.2655 -2.0338 0.9706
-6.0901 -3.8111 -2.0338 0.9706
-5.3353 -4.8112 -2.0338 0.9706
-4.8955 -5.2581 -2.0338 0.9706
-3.9075 -6.0287 -2.0338 0.9706
-3.3669 -6.3464 -2.0338 0.9706
-1.6087 -7.0019 -2.0338 0.9706
-6.4672 -1.3779 -2.0338 0.9727
-6.1294 -2.4805 -2.0338 0.9727
-5.2780 -3.9831 -2.0338 0.9727
-4.9106 -4.4282 -2.0338 0.9727
-4.5058 -4.8396 -2.0338 0.9727
-4.0666 -5.2140 -2.0338 0.9727
-3.0989 -5.8412 -2.0338 0.9727
-2.5777 -6.0892 -2.0338 0.9727
-2.0370 -6.2908 -2.0338 0.9727
-0.9130 -6.5490 -2.0338 0.9727
-6.0593 0.8497 -2.0339 0.9745
-6.1103 0.3181 -2.0339 0.9745
-6.1148 -0.2159 -2.0338 0.9745
-6.0726 -0.7483 -2.0338 0.9745
-4.8838 -3.6856 -2.0338 0.9745
-4.5438 -4.0975 -2.0338 0.9745
-4.1693 -4.4781 -2.0338 0.9745
-3.7629 -4.8246 -2.0338 0.9745
-3.3279 -5.1344 -2.0338 0.9745
-1.3700 -5.9632 -2.0338 0.9745
-5.6797 0.2957 -2.0339 0.9761
-5.6838 -0.2007 -2.0338 0.9761
-5.2720 -2.1335 -2.0338 0.9761
-5.0659 -2.5851 -2.0338 0.9761
-4.8212 -3.0170 -2.0338 0.9761
-3.8754 -4.1625 -2.0338 0.9761
-3.0934 -4.7725 -2.0338 0.9761
-1.2735 -5.5429 -2.0338 0.9761
-5.3001 0.2759 -2.0339 0.9775
-5.2674 -0.6491 -2.0338 0.9775
-5.0745 -1.5544 -2.0338 0.9775
-4.7273 -2.4124 -2.0338 0.9775
-4.2363 -3.1970 -2.0338 0.9775
-3.6164 -3.8843 -2.0338 0.9775
-3.2640 -4.1849 -2.0338 0.9775
-2.4872 -4.6883 -2.0338 0.9775
-1.6349 -5.0492 -2.0338 0.9775
-0.7328 -5.2564 -2.0338 0.9775
-2.1107 0.2960 -0.8723 0.9908
-2.1227 -0.0750 -0.8693 0.9909
-2.1078 -0.2598 -0.8692 0.9909
-4.7514 -1.4554 -2.0338 0.9788
-4.4263 -2.2588 -2.0338 0.9788
-3.6904 -3.3279 -2.0338 0.9788
-3.3862 -3.6371 -2.0338 0.9788
-1.9372 -4.5762 -2.0338 0.9788
-1.5308 -4.7277 -2.0338 0.9788
-0.6861 -4.9218 -2.0338 0.9788
-1.9028 0.2668 -0.8374 0.9917
-1.9187 -0.0678 -0.8367 0.9917
-1.9048 -0.2348 -0.8364 0.9917
-1.9035 -0.4056 -0.8482 0.9915
-2.0768 -0.6362 -0.9466 0.9906
-4.3259 -1.7507 -2.0338 0.9798
-3.7250 -2.8112 -2.0338 0.9798
-3.4657 -3.1253 -2.0338 0.9798
-2.8701 -3.6799 -2.0338 0.9798
-2.5382 -3.9161 -2.0338 0.9798
-1.8193 -4.2975 -2.0338 0.9798
-1.4376 -4.4398 -2.0338 0.9798
-1.0450 -4.5483 -2.0338 0.9798
-0.6444 -4.6221 -2.0338 0.9798
-1.6106 0.2258 -0.7528 0.9929
-1.5933 0.0829 -0.7385 0.9930
-1.6099 -0.1984 -0.7508 0.9929
-3.5072 -2.6467 -2.0338 0.9808
-2.9941 -3.2158 -2.0338 0.9808
-2.7022 -3.4647 -2.0338 0.9808
-2.3898 -3.6871 -2.0338 0.9808
-0.6067 -4.3518 -2.0338 0.9808
-1.3498 0.1893 -0.6686 0.9939
-1.3521 -0.1667 -0.6683 0.9939
-1.3303 -0.2835 -0.6672 0.9940
-1.2932 -0.3962 -0.6634 0.9940
-1.7399 -0.7042 -0.9207 0.9917
-3.0792 -2.7767 -2.0338 0.9817
-2.8253 -3.0346 -2.0338 0.9817
-1.9432 -3.6628 -2.0338 0.9817
-1.2773 -3.9447 -2.0338 0.9817
-0.9284 -4.0410 -2.0338 0.9817
-1.1962 0.1677 -0.6266 0.9946
-1.1990 0.0624 -0.6229 0.9946
-1.1973 -0.0423 -0.6216 0.9946
-1.1989 -0.1478 -0.6267 0.9946
-1.1760 -0.2506 -0.6238 0.9946
-1.1196 -0.4531 -0.6266 0.9946
-3.3234 -2.0797 -2.0338 0.9825
-3.1293 -2.3616 -2.0338 0.9825
-2.6714 -2.8694 -2.0338 0.9825
-2.4111 -3.0914 -2.0338 0.9825
-2.1323 -3.2898 -2.0338 0.9825
-0.8779 -3.8209 -2.0339 0.9825
-0.5413 -3.8829 -2.0339 0.9825
-1.0738 0.1505 -0.5939 0.9951
-1.0764 -0.1327 -0.5940 0.9951
-1.0561 -0.2251 -0.5914 0.9951
-1.0118 -0.4095 -0.5978 0.9950
-0.9797 -0.5000 -0.6024 0.9950
-3.1478 -1.9699 -2.0339 0.9832
-2.9641 -2.2369 -2.0338 0.9832
-2.5304 -2.7178 -2.0338 0.9832
-1.7403 -3.2804 -2.0338 0.9832
-1.4477 -3.4196 -2.0338 0.9832
-0.8315 -3.6191 -2.0339 0.9832
-0.9841 0.1380 -0.5738 0.9954
-0.9900 0.0515 -0.5724 0.9954
-0.9900 -0.0350 -0.5719 0.9954
-0.9099 -0.4644 -0.5898 0.9953
-2.8118 -2.1220 -2.0339 0.9839
-2.4004 -2.5783 -2.0339 0.9839
-1.6509 -3.1120 -2.0339 0.9839
-1.0852 -3.3514 -2.0339 0.9839
-0.7888 -3.4333 -2.0339 0.9839
