ply
format ascii 1.0
element vertex 204
property float32 x
property float32 y
property float32 z
property float32 I
end_header
-12.5499 -11.6450 -2.0337 0.9334
-10.2287 -13.7288 -2.0337 0.9334
-8.9355 -14.6036 -2.0337 0.9334
-7.5680 -15.3569 -2.0337 0.9334
-6.1375 -15.9825 -2.0337 0.9334
-4.6561 -16.4752 -2.0337 0.9334
-3.1358 -16.8310 -2.0337 0.9334
2.3161 -6.0948 -0.7745 0.9741
8.8851 -14.6359 -2.0338 0.9334
10.1816 -13.7657 -2.0338 0.9334
-9.5884 -10.6808 -2.0337 0.9437
-7.4913 -12.2432 -2.0337 0.9437
-6.3448 -12.8748 -2.0337 0.9437
-2.6289 -14.1105 -2.0337 0.9437
-0.0251 -14.3535 -2.0337 0.9437
2.3436 -6.1674 -0.9348 0.9737
7.4489 -12.2701 -2.0338 0.9437
8.5358 -11.5406 -2.0338 0.9437
-9.7768 -7.5377 -2.0337 0.9512
-9.0495 -8.3970 -2.0337 0.9512
-7.3757 -9.8996 -2.0337 0.9512
-6.4432 -10.5303 -2.0337 0.9512
-5.4571 -11.0736 -2.0337 0.9512
-4.4256 -11.5246 -2.0337 0.9512
-2.2611 -12.1364 -2.0337 0.9512
-1.1461 -12.2920 -2.0338 0.9512
-0.0216 -12.3454 -2.0338 0.9512
1.7159 -6.1536 -1.0524 0.9744
2.2699 -5.9735 -1.0527 0.9744
2.8786 -5.8931 -1.0804 0.9738
6.4067 -10.5534 -2.0338 0.9512
7.3416 -9.9259 -2.0339 0.9512
-7.2281 -8.0516 -2.0337 0.9569
-6.4645 -8.6766 -2.0337 0.9569
-3.8789 -10.1009 -2.0338 0.9569
-1.9818 -10.6371 -2.0338 0.9569
-1.0045 -10.7734 -2.0338 0.9569
0.9669 -10.7770 -2.0338 0.9569
1.7162 -6.1546 -1.2009 0.9743
2.2599 -5.9470 -1.1958 0.9744
3.6743 -6.0524 -1.3308 0.9716
6.4345 -8.6996 -2.0339 0.9569
7.2004 -8.0773 -2.0339 0.9569
-5.7484 -7.7154 -2.0338 0.9614
-5.0216 -8.2070 -2.0338 0.9614
-4.2531 -8.6303 -2.0338 0.9614
-3.4492 -8.9819 -2.0338 0.9614
-0.0168 -9.6215 -2.0338 0.9614
0.8598 -9.5831 -2.0338 0.9614
1.6704 -5.9904 -1.3146 0.9749
4.9931 -8.2248 -2.0339 0.9614
5.7216 -7.7358 -2.0339 0.9614
6.4026 -7.1824 -2.0339 0.9614
-6.3434 -5.8860 -2.0338 0.9651
-5.7808 -6.4394 -2.0338 0.9651
-4.5165 -7.3814 -2.0338 0.9651
-2.3534 -8.3274 -2.0338 0.9651
-0.8034 -8.6163 -2.0338 0.9651
0.7733 -8.6191 -2.0338 0.9651
1.6391 -5.8782 -1.4342 0.9752
2.2056 -5.8040 -1.4592 0.9748
2.7525 -5.6350 -1.4739 0.9746
5.7586 -6.4599 -2.0339 0.9651
-5.7580 -5.3429 -2.0338 0.9681
-4.6930 -6.2989 -2.0338 0.9681
-4.0997 -6.7002 -2.0338 0.9681
-2.1363 -7.5590 -2.0338 0.9681
-0.7293 -7.8211 -2.0338 0.9681
1.4117 -7.7272 -2.0338 0.9681
5.2271 -5.8637 -2.0339 0.9681
-5.6896 -4.3865 -2.0338 0.9706
-5.2663 -4.8866 -2.0338 0.9706
-3.7496 -6.1281 -2.0338 0.9706
-3.1758 -6.4442 -2.0338 0.9706
-2.5755 -6.7067 -2.0338 0.9706
0.6420 -7.1556 -2.0338 0.9706
1.2912 -7.0673 -2.0338 0.9706
1.6361 -5.8674 -1.7244 0.9750
2.8832 -5.9026 -1.8597 0.9731
3.7282 -6.1414 -2.0339 0.9706
4.2722 -5.7762 -2.0339 0.9706
4.7807 -5.3630 -2.0339 0.9706
-4.8471 -4.4976 -2.0338 0.9727
-3.9506 -5.3024 -2.0338 0.9727
-3.4511 -5.6403 -2.0338 0.9727
-2.9230 -5.9312 -2.0338 0.9727
-2.3705 -6.1728 -2.0338 0.9727
-1.7983 -6.3631 -2.0338 0.9727
-1.2111 -6.5005 -2.0338 0.9727
0.5909 -6.5860 -2.0338 0.9727
1.1884 -6.5048 -2.0338 0.9727
2.3489 -6.1812 -2.0339 0.9727
2.9023 -5.9416 -2.0339 0.9727
3.4315 -5.6525 -2.0339 0.9727
-4.8455 -3.7358 -2.0338 0.9745
-4.4851 -4.1617 -2.0338 0.9745
-4.0873 -4.5530 -2.0338 0.9745
-3.1934 -5.2190 -2.0338 0.9745
-2.7046 -5.4882 -2.0338 0.9745
-2.1934 -5.7118 -2.0338 0.9745
-1.6640 -5.8879 -2.0338 0.9745
-1.1207 -6.0150 -2.0338 0.9745
1.0996 -6.0189 -2.0338 0.9745
2.6855 -5.4978 -2.0339 0.9745
3.6384 -4.9193 -2.0339 0.9745
4.0715 -4.5674 -2.0339 0.9745
-4.1690 -3.8684 -2.0338 0.9761
-3.7993 -4.2321 -2.0338 0.9761
-3.3980 -4.5606 -2.0338 0.9761
-2.9684 -4.8512 -2.0338 0.9761
-2.0388 -5.3093 -2.0338 0.9761
-1.5467 -5.4730 -2.0338 0.9761
1.0221 -5.5948 -2.0338 0.9761
1.5276 -5.4784 -2.0339 0.9761
2.4962 -5.1104 -2.0339 0.9761
2.9514 -4.8617 -2.0339 0.9761
-4.2031 -3.2405 -2.0338 0.9775
-3.8904 -3.6099 -2.0338 0.9775
-3.5454 -3.9493 -2.0338 0.9775
-2.7700 -4.5271 -2.0338 0.9775
-0.9721 -5.2175 -2.0338 0.9775
-0.4927 -5.2844 -2.0338 0.9775
-0.0093 -5.3073 -2.0338 0.9775
0.4742 -5.2861 -2.0338 0.9775
0.9538 -5.2209 -2.0339 0.9775
2.3295 -4.7688 -2.0339 0.9775
3.1560 -4.2670 -2.0339 0.9775
-3.9355 -3.0342 -2.0338 0.9788
-2.5936 -4.2388 -2.0338 0.9788
-2.1967 -4.4575 -2.0338 0.9788
-1.7815 -4.6391 -2.0338 0.9788
-0.9102 -4.8853 -2.0338 0.9788
0.4441 -4.9495 -2.0338 0.9788
1.3348 -4.7868 -2.0339 0.9788
2.5789 -4.2480 -2.0339 0.9788
3.3068 -3.7096 -2.0339 0.9788
-3.1175 -3.4727 -2.0338 0.9798
-2.4357 -3.9807 -2.0338 0.9798
-2.0629 -4.1861 -2.0338 0.9798
-1.6730 -4.3566 -2.0338 0.9798
-1.2691 -4.4909 -2.0338 0.9798
-0.8548 -4.5878 -2.0338 0.9798
0.8387 -4.5908 -2.0339 0.9798
1.2534 -4.4953 -2.0339 0.9798
2.0483 -4.1933 -2.0339 0.9798
2.7751 -3.7521 -2.0339 0.9798
3.1054 -3.4836 -2.0339 0.9798
-3.4797 -2.6828 -2.0338 0.9808
-2.9352 -3.2696 -2.0338 0.9808
-2.6252 -3.5234 -2.0338 0.9808
-2.2932 -3.7479 -2.0338 0.9808
-1.9423 -3.9413 -2.0338 0.9808
-1.5752 -4.1018 -2.0338 0.9808
-0.8048 -4.3196 -2.0338 0.9808
-0.4079 -4.3749 -2.0338 0.9808
-0.0077 -4.3939 -2.0339 0.9808
0.7897 -4.3223 -2.0339 0.9808
1.1802 -4.2324 -2.0339 0.9808
2.2802 -3.7560 -2.0339 0.9808
-3.0393 -2.8202 -2.0338 0.9817
-2.7698 -3.0854 -2.0338 0.9817
-2.1641 -3.5368 -2.0338 0.9817
-1.4864 -3.8707 -2.0338 0.9817
-1.1276 -3.9900 -2.0338 0.9817
-0.3849 -4.1284 -2.0339 0.9817
0.3705 -4.1297 -2.0339 0.9817
0.7452 -4.0788 -2.0339 0.9817
1.1137 -3.9940 -2.0339 0.9817
2.4656 -3.3336 -2.0339 0.9817
2.7591 -3.0951 -2.0339 0.9817
-3.1048 -2.3937 -2.0338 0.9825
-1.7330 -3.5166 -2.0338 0.9825
-1.0662 -3.7727 -2.0338 0.9825
-0.3640 -3.9036 -2.0339 0.9825
-0.0068 -3.9205 -2.0339 0.9825
0.3503 -3.9048 -2.0339 0.9825
1.3927 -3.6648 -2.0339 0.9825
1.7207 -3.5227 -2.0339 0.9825
2.3313 -3.1520 -2.0339 0.9825
-2.9408 -2.2673 -2.0338 0.9832
-2.7221 -2.5258 -2.0338 0.9832
-1.9381 -3.1675 -2.0338 0.9832
-1.6415 -3.3309 -2.0338 0.9832
-1.3312 -3.4666 -2.0339 0.9832
-1.0099 -3.5735 -2.0339 0.9832
-0.3448 -3.6974 -2.0339 0.9832
-0.0065 -3.7134 -2.0339 0.9832
0.3318 -3.6986 -2.0339 0.9832
1.3191 -3.4713 -2.0339 0.9832
1.9270 -3.1743 -2.0339 0.9832
2.2082 -2.9856 -2.0339 0.9832
2.4711 -2.7720 -2.0339 0.9832
-2.7898 -2.1509 -2.0339 0.9839
-2.5823 -2.3961 -2.0339 0.9839
-2.3532 -2.6214 -2.0339 0.9839
-1.8386 -3.0049 -2.0339 0.9839
-1.5572 -3.1599 -2.0339 0.9839
-1.2629 -3.2886 -2.0339 0.9839
-0.9580 -3.3900 -2.0339 0.9839
-0.3271 -3.5076 -2.0339 0.9839
0.3148 -3.5087 -2.0339 0.9839
0.6331 -3.4654 -2.0339 0.9839
1.2514 -3.2930 -2.0339 0.9839
1.8281 -3.0113 -2.0339 0.9839
