ply
format ascii 1.0
element vertex 179
property float32 x
property float32 y
property float32 z
property float32 I
end_header
16.4225 -3.5604 -1.6133 0.9347
10.1898 -13.7596 -2.0338 0.9334
12.4884 -11.7136 -2.0339 0.9334
15.1605 -7.9592 -2.0339 0.9334
16.3406 -5.1171 -2.0340 0.9334
16.9406 2.4987 -2.0341 0.9333
16.6476 4.0109 -2.0341 0.9333
16.2199 5.4908 -2.0341 0.9333
14.9753 8.3054 -2.0341 0.9333
8.5427 -11.5355 -2.0338 0.9437
9.5448 -10.7212 -2.0339 0.9437
12.7098 -6.6726 -2.0339 0.9437
13.2581 -5.5035 -2.0340 0.9437
14.0293 -3.0415 -2.0340 0.9437
14.2461 -1.7685 -2.0340 0.9437
14.2021 2.0948 -2.0340 0.9437
13.5978 4.6031 -2.0341 0.9437
13.1293 5.8064 -2.0341 0.9437
12.5544 6.9628 -2.0341 0.9437
6.4261 -10.5415 -2.0338 0.9512
7.3475 -9.9215 -2.0339 0.9512
8.2094 -9.2212 -2.0339 0.9512
10.9315 -5.7390 -2.0339 0.9512
11.4030 -4.7335 -2.0339 0.9512
11.7823 -3.6896 -2.0340 0.9512
12.0664 -2.6160 -2.0340 0.9512
12.3272 0.6967 -2.0340 0.9512
12.2148 1.8017 -2.0340 0.9512
12.0035 2.8920 -2.0340 0.9512
11.2920 4.9939 -2.0341 0.9512
10.7977 5.9885 -2.0341 0.9512
5.6322 -9.2392 -2.0338 0.9569
6.4398 -8.6958 -2.0339 0.9569
7.1952 -8.0820 -2.0339 0.9569
9.0901 -5.8705 -2.0339 0.9569
9.9942 -4.1487 -2.0339 0.9569
10.7389 -1.3332 -2.0340 0.9569
10.8041 0.6106 -2.0340 0.9569
10.7057 1.5791 -2.0340 0.9569
9.8969 4.3769 -2.0340 0.9569
9.4636 5.2486 -2.0340 0.9569
5.0083 -8.2156 -2.0339 0.9614
5.7262 -7.7324 -2.0339 0.9614
8.8869 -3.6890 -2.0339 0.9614
9.1825 -2.8755 -2.0339 0.9614
9.4039 -2.0387 -2.0340 0.9614
9.5491 -1.1854 -2.0340 0.9614
9.6071 0.5430 -2.0340 0.9614
9.3548 2.2539 -2.0340 0.9614
8.4150 4.6671 -2.0340 0.9614
5.7544 -6.4636 -2.0339 0.9651
6.3120 -5.9204 -2.0339 0.9651
6.8185 -5.3292 -2.0339 0.9651
7.6623 -4.0227 -2.0339 0.9651
8.2588 -2.5862 -2.0339 0.9651
8.4578 -1.8337 -2.0340 0.9651
8.6495 -0.2901 -2.0340 0.9651
8.6406 0.4884 -2.0340 0.9651
8.4137 2.0271 -2.0340 0.9651
7.9150 3.5004 -2.0340 0.9651
4.0887 -6.7073 -2.0339 0.9681
4.6749 -6.3127 -2.0339 0.9681
5.7295 -5.3740 -2.0339 0.9681
6.5989 -4.2617 -2.0339 0.9681
7.2552 -3.0117 -2.0339 0.9681
7.7716 1.1463 -2.0340 0.9681
7.6372 1.8400 -2.0340 0.9681
6.8700 3.8101 -2.0340 0.9681
5.2402 -4.9151 -2.0339 0.9706
6.0354 -3.8978 -2.0339 0.9706
6.8564 -2.1471 -2.0339 0.9706
7.0216 -1.5223 -2.0339 0.9706
7.1808 -0.2408 -2.0340 0.9706
6.9850 1.6829 -2.0340 0.9706
6.8055 2.3038 -2.0340 0.9706
6.5710 2.9060 -2.0340 0.9706
3.9353 -5.3140 -2.0339 0.9727
4.8230 -4.5238 -2.0339 0.9727
5.2101 -4.0721 -2.0339 0.9727
6.1074 -2.5352 -2.0339 0.9727
6.3106 -1.9762 -2.0339 0.9727
6.6091 -0.2217 -2.0340 0.9727
6.4289 1.5489 -2.0340 0.9727
5.7830 3.2073 -2.0340 0.9727
3.1848 -5.2244 -2.0339 0.9745
3.6414 -4.9171 -2.0339 0.9745
4.8209 -3.7680 -2.0339 0.9745
5.1400 -3.3196 -2.0339 0.9745
5.6512 -2.3459 -2.0339 0.9745
5.9800 -1.2964 -2.0339 0.9745
6.1092 0.3453 -2.0340 0.9745
5.7959 1.9620 -2.0340 0.9745
5.5961 2.4749 -2.0340 0.9745
5.3511 2.9678 -2.0340 0.9745
2.9604 -4.8562 -2.0339 0.9761
3.3848 -4.5706 -2.0339 0.9761
4.1483 -3.8910 -2.0339 0.9761
4.7777 -3.0856 -2.0339 0.9761
5.0358 -2.6438 -2.0339 0.9761
5.2530 -2.1806 -2.0339 0.9761
5.5585 -1.2051 -2.0339 0.9761
5.6845 -0.1906 -2.0339 0.9761
5.3874 1.8237 -2.0340 0.9761
5.2017 2.3004 -2.0340 0.9761
4.9740 2.7586 -2.0340 0.9761
2.7625 -4.5317 -2.0339 0.9775
3.1586 -4.2652 -2.0339 0.9775
4.1817 -3.2684 -2.0339 0.9775
4.4585 -2.8794 -2.0339 0.9775
5.0650 -1.5861 -2.0339 0.9775
5.2671 -0.6539 -2.0339 0.9775
5.3046 -0.1779 -2.0339 0.9775
2.9575 -3.9936 -2.0339 0.9788
3.6246 -3.3997 -2.0339 0.9788
3.9154 -3.0603 -2.0339 0.9788
4.7425 -1.4851 -2.0339 0.9788
4.9617 0.2804 -2.0339 0.9788
4.8314 1.1640 -2.0340 0.9787
2.4291 -3.9848 -2.0339 0.9798
3.1032 -3.4856 -2.0339 0.9798
4.1321 -2.1694 -2.0339 0.9798
4.5610 -0.9888 -2.0339 0.9798
4.6314 -0.5749 -2.0339 0.9798
4.6595 0.2633 -2.0339 0.9798
4.6170 0.6810 -2.0339 0.9798
4.5372 1.0931 -2.0340 0.9798
2.2871 -3.7518 -2.0339 0.9808
2.6150 -3.5311 -2.0339 0.9808
2.9217 -3.2818 -2.0339 0.9808
3.2048 -3.0060 -2.0339 0.9808
3.4620 -2.7058 -2.0339 0.9808
3.6912 -2.3838 -2.0339 0.9808
3.8905 -2.0425 -2.0339 0.9808
4.0582 -1.6846 -2.0339 0.9808
4.1932 -1.3131 -2.0339 0.9808
4.3916 -0.1473 -2.0339 0.9808
4.3471 0.6412 -2.0339 0.9808
3.8427 2.1312 -2.0340 0.9808
2.1582 -3.5404 -2.0339 0.9817
2.4676 -3.3321 -2.0339 0.9817
3.0243 -2.8366 -2.0339 0.9817
3.2670 -2.5534 -2.0339 0.9817
3.6712 -1.9274 -2.0339 0.9817
3.9570 -1.2392 -2.0339 0.9817
4.1149 -0.5108 -2.0339 0.9817
4.1399 0.2340 -2.0339 0.9817
4.0312 0.9712 -2.0339 0.9817
3.9275 1.3295 -2.0339 0.9817
3.7922 1.6771 -2.0340 0.9817
3.6261 2.0111 -2.0340 0.9817
2.0406 -3.3476 -2.0339 0.9825
2.8595 -2.6821 -2.0339 0.9825
3.0890 -2.4143 -2.0339 0.9825
2.0767 -0.0697 -1.0779 0.9907
3.7137 1.2571 -2.0339 0.9825
3.5856 1.5857 -2.0339 0.9825
3.4287 1.9015 -2.0340 0.9825
1.9329 -3.1708 -2.0339 0.9832
2.4693 -2.7736 -2.0339 0.9832
2.7086 -2.5405 -2.0339 0.9832
2.9258 -2.2868 -2.0339 0.9832
3.4298 -1.4237 -2.0339 0.9832
1.8816 -0.5892 -1.0799 0.9910
1.8477 0.2725 -1.0229 0.9915
1.8575 0.4475 -1.0465 0.9913
1.9005 0.6434 -1.0990 0.9909
3.2476 1.8011 -2.0339 0.9832
1.8336 -3.0079 -2.0339 0.9839
2.0965 -2.8310 -2.0339 0.9839
2.5694 -2.4101 -2.0339 0.9839
2.7757 -2.1694 -2.0339 0.9839
2.9593 -1.9112 -2.0339 0.9839
1.7604 -0.7307 -1.1004 0.9912
1.7202 -0.5387 -1.0407 0.9917
1.7149 -0.3718 -1.0131 0.9919
1.7163 -0.2131 -0.9985 0.9920
1.7138 0.2528 -1.0001 0.9920
1.7145 0.4131 -1.0182 0.9919
3.0808 1.7086 -2.0339 0.9839
