ply
format ascii 1.0
element vertex 198
property float32 x
property float32 y
property float32 z
property float32 I
end_header
-12.2842 13.1738 3.1761 0.9295
-11.8440 12.7019 2.6606 0.9321
-11.5279 12.3628 1.8151 0.9343
-12.1209 12.9987 -0.1001 0.9314
-12.0805 12.9555 -0.8984 0.9315
-17.2512 4.8606 -1.3141 0.9306
-2.2897 7.5157 -0.9333 0.9688
-6.4573 15.8592 -2.0340 0.9333
-9.2195 14.4291 -2.0340 0.9334
-12.7663 11.4106 -2.0339 0.9334
-13.7498 10.2039 -2.0339 0.9334
-15.9903 6.1210 -2.0338 0.9334
-16.4800 4.6434 -2.0338 0.9334
-17.0478 1.5856 -2.0338 0.9334
-17.1211 0.0307 -2.0338 0.9334
-16.8440 -3.0669 -2.0337 0.9334
-2.2235 7.2985 -1.0810 0.9696
-5.4135 13.2955 -2.0340 0.9437
-7.7292 12.0967 -2.0340 0.9437
-10.7027 9.5661 -2.0339 0.9437
-11.5272 8.5545 -2.0339 0.9437
-12.2564 7.4721 -2.0339 0.9437
-12.8843 6.3280 -2.0339 0.9437
-13.4056 5.1316 -2.0338 0.9437
-14.3537 0.0257 -2.0338 0.9437
-14.1214 -2.5712 -2.0338 0.9437
-13.8295 -3.8431 -2.0337 0.9437
-6.6477 10.4041 -2.0340 0.9512
-8.4200 9.0297 -2.0339 0.9512
-9.9143 7.3575 -2.0339 0.9512
-10.5415 6.4266 -2.0339 0.9512
-11.0816 5.4426 -2.0339 0.9512
-12.1380 2.2550 -2.0338 0.9512
-12.2964 -1.0993 -2.0338 0.9512
-12.1457 -2.2115 -2.0338 0.9512
-11.8946 -3.3054 -2.0338 0.9512
-4.0808 10.0223 -2.0340 0.9569
-4.9742 9.6102 -2.0340 0.9569
-5.8264 9.1187 -2.0340 0.9569
-8.6895 6.4486 -2.0339 0.9569
-9.7125 4.7702 -2.0339 0.9569
-10.1056 3.8683 -2.0339 0.9569
-10.4150 2.9346 -2.0338 0.9569
-10.7739 1.0020 -2.0338 0.9569
-10.8204 0.0194 -2.0338 0.9569
-10.7773 -0.9634 -2.0338 0.9569
-2.1175 6.9504 -1.5359 0.9707
-3.6287 8.9119 -2.0340 0.9614
-4.4230 8.5455 -2.0340 0.9614
-5.8959 7.6043 -2.0339 0.9614
-7.7268 5.7341 -2.0339 0.9614
-8.2155 5.0086 -2.0339 0.9614
-8.6364 4.2417 -2.0339 0.9614
-9.4598 1.7575 -2.0338 0.9614
-9.6216 0.0172 -2.0338 0.9614
-9.4659 -1.7236 -2.0338 0.9614
-9.2702 -2.5761 -2.0338 0.9614
-4.6596 7.2926 -2.0339 0.9651
-5.9020 6.3294 -2.0339 0.9651
-6.4524 5.7671 -2.0339 0.9651
-6.9495 5.1572 -2.0339 0.9651
-7.3891 4.5047 -2.0339 0.9651
-8.0820 3.0937 -2.0339 0.9651
-8.3295 2.3469 -2.0339 0.9651
-8.5082 1.5807 -2.0338 0.9651
-8.6537 0.0155 -2.0338 0.9651
-8.6193 -0.7705 -2.0338 0.9651
-8.3377 -2.3170 -2.0338 0.9651
-3.6109 6.9765 -2.0339 0.9681
-4.8134 6.2081 -2.0339 0.9681
-5.3573 5.7453 -2.0339 0.9681
-5.8569 5.2349 -2.0339 0.9681
-6.3081 4.6813 -2.0339 0.9681
-6.7072 4.0890 -2.0339 0.9681
-7.0508 3.4629 -2.0339 0.9681
-7.3361 2.8082 -2.0339 0.9681
-7.8214 0.7274 -2.0338 0.9681
-7.8551 0.0141 -2.0338 0.9681
-7.8239 -0.6994 -2.0338 0.9681
-7.7280 -1.4071 -2.0338 0.9681
-2.7094 6.6543 -2.0340 0.9706
-4.4023 5.6779 -2.0339 0.9706
-5.3568 4.7879 -2.0339 0.9706
-7.0635 1.3123 -2.0339 0.9706
-7.1843 0.0129 -2.0338 0.9706
-7.1558 -0.6397 -2.0338 0.9706
-1.9271 6.3257 -2.0340 0.9727
-2.4937 6.1246 -2.0339 0.9727
-3.5605 5.5723 -2.0339 0.9727
-4.5097 4.8363 -2.0339 0.9727
-5.6461 3.4421 -2.0339 0.9727
-5.9354 2.9151 -2.0339 0.9727
-6.3646 1.7933 -2.0339 0.9727
-6.5012 1.2078 -2.0339 0.9727
-6.5861 -0.5888 -2.0338 0.9727
-6.5054 -1.1845 -2.0338 0.9727
-2.8126 5.4341 -2.0339 0.9745
-3.7492 4.8356 -2.0339 0.9745
-4.1729 4.4751 -2.0339 0.9745
-4.5620 4.0776 -2.0339 0.9745
-5.4921 2.6973 -2.0339 0.9745
-5.7143 2.1874 -2.0339 0.9745
-5.8893 1.6594 -2.0339 0.9745
-6.0157 1.1176 -2.0339 0.9745
-6.1186 0.0110 -2.0338 0.9745
-6.0942 -0.5448 -2.0338 0.9745
-5.8951 -1.6382 -2.0338 0.9745
-2.1448 5.2677 -2.0339 0.9761
-2.6144 5.0511 -2.0339 0.9761
-3.4850 4.4948 -2.0339 0.9761
-4.2405 3.7902 -2.0339 0.9761
-4.5672 3.3894 -2.0339 0.9761
-5.1050 2.5073 -2.0339 0.9761
-5.3116 2.0333 -2.0339 0.9761
-5.4743 1.5424 -2.0339 0.9761
-5.5918 1.0388 -2.0339 0.9761
-5.6629 0.5267 -2.0339 0.9761
-5.6648 -0.5064 -2.0338 0.9761
-5.5954 -1.0188 -2.0338 0.9761
-1.5468 5.0771 -2.0339 0.9775
-2.4397 4.7136 -2.0339 0.9775
-2.8577 4.4725 -2.0339 0.9775
-3.6196 3.8817 -2.0339 0.9775
-4.2620 3.1629 -2.0339 0.9775
-4.5316 2.7627 -2.0339 0.9775
-5.1084 1.4394 -2.0339 0.9775
-5.2180 0.9694 -2.0339 0.9775
-5.2862 -0.4726 -2.0338 0.9775
-5.2214 -0.9507 -2.0338 0.9775
-1.4483 4.7539 -2.0339 0.9788
-3.3891 3.6346 -2.0339 0.9788
-3.7052 3.3117 -2.0339 0.9788
-4.4605 2.1907 -2.0339 0.9788
-4.6411 1.7765 -2.0339 0.9788
-4.7832 1.3477 -2.0339 0.9788
-1.7600 4.3224 -2.0339 0.9798
-2.1452 4.1446 -2.0339 0.9798
-2.8596 3.6882 -2.0339 0.9798
-3.1827 3.4132 -2.0339 0.9798
-3.9847 2.4293 -2.0339 0.9798
-4.3584 1.6684 -2.0339 0.9798
-2.0041 0.5646 -0.9074 0.9910
-1.9052 0.3539 -0.8445 0.9916
-1.9122 0.1778 -0.8370 0.9917
-1.9179 0.0034 -0.8358 0.9917
-1.9929 -0.5538 -0.9014 0.9910
-2.0198 3.9023 -2.0339 0.9808
-2.6924 3.4725 -2.0339 0.9808
-3.2761 2.9282 -2.0339 0.9808
-3.9439 1.9370 -2.0339 0.9808
-1.6059 0.2983 -0.7561 0.9928
-1.5666 0.0028 -0.7252 0.9931
-1.6048 -0.1435 -0.7458 0.9929
-1.6071 -0.2927 -0.7561 0.9928
-1.5557 -0.4324 -0.7474 0.9929
-1.2084 3.9665 -2.0339 0.9817
-2.8278 3.0326 -2.0339 0.9817
-3.3296 2.4710 -2.0339 0.9817
-1.2571 0.4812 -0.6603 0.9940
-1.3040 0.3674 -0.6646 0.9940
-1.3535 0.1258 -0.6668 0.9940
-1.3396 -0.2439 -0.6679 0.9940
-1.3056 -0.3629 -0.6647 0.9940
-1.8021 3.4818 -2.0339 0.9825
-2.6737 2.8674 -2.0339 0.9825
-1.1263 0.4311 -0.6257 0.9946
-1.1559 0.3256 -0.6230 0.9946
-1.1848 0.2201 -0.6252 0.9946
-1.1921 0.0021 -0.6184 0.9946
-1.1859 -0.2160 -0.6254 0.9946
-1.1572 -0.3216 -0.6231 0.9946
-1.0823 3.5524 -2.0339 0.9832
-1.4004 3.4394 -2.0339 0.9832
-1.7070 3.2979 -2.0339 0.9832
-1.9995 3.1293 -2.0339 0.9832
-2.2754 2.9347 -2.0339 0.9832
-2.5325 2.7160 -2.0339 0.9832
-2.7687 2.4747 -2.0339 0.9832
-2.9821 2.2130 -2.0339 0.9832
-0.9852 0.4839 -0.6012 0.9950
-1.0180 0.3896 -0.5970 0.9950
-1.0382 0.2925 -0.5908 0.9951
-1.0639 0.1976 -0.5927 0.9951
-1.0759 0.0019 -0.5893 0.9951
-1.0648 -0.1939 -0.5928 0.9951
-1.0386 -0.2887 -0.5904 0.9951
-1.3285 3.2627 -2.0339 0.9839
-1.8968 2.9686 -2.0339 0.9839
-2.1586 2.7840 -2.0339 0.9839
-2.4025 2.5765 -2.0339 0.9839
-3.0079 1.8338 -2.0339 0.9839
-0.9150 0.4493 -0.5885 0.9953
-0.9419 0.3605 -0.5823 0.9954
-0.9584 0.2700 -0.5749 0.9954
-0.9890 0.0017 -0.5710 0.9954
-0.9887 -0.0884 -0.5731 0.9954
-0.9781 -0.1781 -0.5740 0.9954
-0.9588 -0.2665 -0.5745 0.9954
