ply
format ascii 1.0
element vertex 183
property float32 x
property float32 y
property float32 z
property float32 I
end_header
17.5772 -3.4225 -0.9082 0.9308
2.5758 -6.0839 -0.7848 0.9737
8.0487 -15.1118 -2.0338 0.9334
10.5951 -13.4501 -2.0338 0.9334
11.7477 -12.4563 -2.0339 0.9334
12.8074 -11.3641 -2.0339 0.9334
13.7659 -10.1821 -2.0339 0.9334
15.9634 -6.1939 -2.0340 0.9334
16.4505 -4.7521 -2.0340 0.9334
16.8077 -3.2727 -2.0340 0.9334
17.1218 -0.2481 -2.0340 0.9333
17.0764 1.2732 -2.0341 0.9333
16.5821 4.2737 -2.0341 0.9333
2.5135 -5.9371 -0.9135 0.9743
3.2012 -6.0105 -0.9649 0.9729
12.2532 -7.4779 -2.0339 0.9437
13.3830 -5.1927 -2.0340 0.9437
14.3540 -0.2080 -2.0340 0.9437
14.3159 1.0674 -2.0340 0.9437
14.1646 2.3343 -2.0340 0.9437
13.9015 3.5829 -2.0341 0.9437
3.1620 -5.9367 -1.1081 0.9731
9.9260 -7.3419 -2.0339 0.9512
10.5388 -6.4316 -2.0339 0.9512
12.2809 -1.2743 -2.0340 0.9512
12.3455 -0.1789 -2.0340 0.9512
11.9563 3.0815 -2.0340 0.9512
2.4786 -5.8545 -1.1950 0.9745
5.9146 -9.0611 -2.0338 0.9569
9.2368 -5.6370 -2.0339 0.9569
9.7009 -4.7946 -2.0339 0.9569
10.8202 -0.1568 -2.0340 0.9569
10.7915 0.8046 -2.0340 0.9569
10.6775 1.7596 -2.0340 0.9569
10.4791 2.7008 -2.0340 0.9569
3.0656 -5.7558 -1.3785 0.9737
6.6017 -6.9999 -2.0339 0.9614
7.1972 -6.3862 -2.0339 0.9614
7.7358 -5.7219 -2.0339 0.9614
8.6261 -4.2634 -2.0339 0.9614
8.9706 -3.4807 -2.0339 0.9614
9.2443 -2.6704 -2.0340 0.9614
9.4450 -1.8390 -2.0340 0.9614
9.6214 -0.1394 -2.0340 0.9614
9.4944 1.5647 -2.0340 0.9614
4.7303 -7.2467 -2.0339 0.9651
6.4732 -5.7437 -2.0339 0.9651
6.9576 -5.1463 -2.0339 0.9651
7.3871 -4.5082 -2.0339 0.9651
8.3143 -2.4018 -2.0339 0.9651
8.6081 -0.8933 -2.0340 0.9651
8.6535 -0.1254 -2.0340 0.9651
8.5393 1.4072 -2.0340 0.9651
8.3806 2.1599 -2.0340 0.9651
3.1029 -5.8259 -1.7090 0.9731
4.2937 -6.5779 -2.0339 0.9681
5.3896 -5.7148 -2.0339 0.9681
6.3155 -4.6713 -2.0339 0.9681
7.0423 -3.4806 -2.0339 0.9681
7.3236 -2.8416 -2.0339 0.9681
7.5470 -2.1801 -2.0339 0.9681
7.7108 -1.5014 -2.0339 0.9681
7.8339 0.5841 -2.0340 0.9681
7.6071 1.9606 -2.0340 0.9681
4.9294 -5.2268 -2.0339 0.9706
5.3740 -4.7684 -2.0339 0.9706
6.1327 -3.7427 -2.0339 0.9706
6.4409 -3.1834 -2.0339 0.9706
6.6982 -2.5989 -2.0339 0.9706
6.9025 -1.9939 -2.0339 0.9706
7.1464 -0.7415 -2.0340 0.9706
7.1840 -0.1041 -2.0340 0.9706
7.1650 0.5342 -2.0340 0.9706
7.0892 1.1683 -2.0340 0.9706
6.9575 1.7931 -2.0340 0.9706
2.5780 -6.0893 -2.0339 0.9727
3.1085 -5.8363 -2.0339 0.9727
4.5370 -4.8106 -2.0339 0.9727
4.9462 -4.3888 -2.0339 0.9727
5.6445 -3.4448 -2.0339 0.9727
6.5775 -0.6825 -2.0339 0.9727
6.5946 0.4917 -2.0340 0.9727
2.3854 -5.6344 -2.0339 0.9745
2.8763 -5.4004 -2.0339 0.9745
4.1981 -4.4514 -2.0339 0.9745
4.5767 -4.0610 -2.0339 0.9745
5.4854 -2.7112 -2.0339 0.9745
5.8785 -1.6981 -2.0339 0.9745
6.0061 -1.1695 -2.0339 0.9745
6.0862 -0.6316 -2.0339 0.9745
6.1020 0.4549 -2.0340 0.9745
5.9253 1.5271 -2.0340 0.9745
2.6736 -5.0198 -2.0339 0.9761
3.1088 -4.7626 -2.0339 0.9761
3.5195 -4.4678 -2.0339 0.9761
4.2542 -3.7749 -2.0339 0.9761
4.8548 -2.9628 -2.0339 0.9761
5.0989 -2.5201 -2.0339 0.9761
5.3025 -2.0574 -2.0339 0.9761
5.4642 -1.5785 -2.0339 0.9761
5.5828 -1.0871 -2.0339 0.9761
5.6573 -0.5871 -2.0339 0.9761
5.6871 -0.0824 -2.0339 0.9761
5.6720 0.4229 -2.0340 0.9761
5.6120 0.9248 -2.0340 0.9761
5.5077 1.4195 -2.0340 0.9761
2.0691 -4.8874 -2.0339 0.9775
3.2842 -4.1692 -2.0339 0.9775
3.6414 -3.8611 -2.0339 0.9775
3.9699 -3.5226 -2.0339 0.9775
4.2670 -3.1562 -2.0339 0.9775
4.5304 -2.7648 -2.0339 0.9775
5.2097 -1.0144 -2.0339 0.9775
5.2792 -0.5478 -2.0339 0.9775
5.3070 -0.0769 -2.0339 0.9775
2.3361 -4.3862 -2.0339 0.9788
2.7163 -4.1614 -2.0339 0.9788
3.0751 -3.9037 -2.0339 0.9788
3.7171 -3.2983 -2.0339 0.9788
3.9953 -2.9553 -2.0339 0.9788
4.2420 -2.5888 -2.0339 0.9788
4.4551 -2.2019 -2.0339 0.9788
4.6330 -1.7977 -2.0339 0.9788
4.7744 -1.3792 -2.0339 0.9788
4.9559 0.3695 -2.0339 0.9787
2.5509 -3.9080 -2.0339 0.9798
4.3509 -1.6882 -2.0339 0.9798
4.4836 -1.2952 -2.0339 0.9798
4.5809 -0.8920 -2.0339 0.9798
4.6665 -0.0676 -2.0339 0.9798
4.5193 1.1647 -2.0340 0.9798
1.7130 -4.0462 -2.0339 0.9808
3.0147 -3.1966 -2.0339 0.9808
3.2867 -2.9163 -2.0339 0.9808
3.7507 -2.2890 -2.0339 0.9808
4.0964 -1.5895 -2.0339 0.9808
4.2214 -1.2195 -2.0339 0.9808
4.3131 -0.8398 -2.0339 0.9808
4.3706 -0.4535 -2.0339 0.9808
4.3936 -0.0637 -2.0339 0.9808
4.3356 0.7145 -2.0339 0.9808
2.2664 -3.4721 -2.0339 0.9817
2.5658 -3.2572 -2.0339 0.9817
2.8448 -3.0165 -2.0339 0.9817
3.1015 -2.7520 -2.0339 0.9817
3.5394 -2.1600 -2.0339 0.9817
3.7172 -1.8372 -2.0339 0.9817
3.8657 -1.4999 -2.0339 0.9817
4.1461 -0.0601 -2.0339 0.9817
4.1350 0.3083 -2.0339 0.9817
4.0913 0.6742 -2.0339 0.9817
4.0153 1.0348 -2.0339 0.9817
1.5285 -3.6103 -2.0339 0.9825
2.1430 -3.2830 -2.0339 0.9825
2.6900 -2.8522 -2.0339 0.9825
2.9325 -2.6021 -2.0339 0.9825
3.1521 -2.3314 -2.0339 0.9825
3.7666 -1.0880 -2.0339 0.9825
2.1056 -0.4100 -1.1128 0.9904
2.0778 -0.2156 -1.0837 0.9906
2.0772 0.1549 -1.0806 0.9907
1.7457 -3.2776 -2.0339 0.9832
2.2979 -2.9171 -2.0339 0.9832
2.5479 -2.7016 -2.0339 0.9832
3.1699 -1.9345 -2.0339 0.9832
3.4621 -1.3433 -2.0339 0.9832
1.8555 -0.3613 -1.0354 0.9914
1.8486 -0.1919 -1.0179 0.9916
1.8514 -0.0268 -1.0141 0.9916
1.8518 0.1380 -1.0170 0.9916
1.8512 0.3051 -1.0276 0.9915
1.8569 0.4786 -1.0503 0.9913
1.6561 -3.1093 -2.0339 0.9839
2.1800 -2.7673 -2.0339 0.9839
2.8323 -2.0949 -2.0339 0.9839
3.0071 -1.8352 -2.0339 0.9839
3.1582 -1.5609 -2.0339 0.9839
1.7255 -0.6695 -1.0686 0.9915
1.7137 -0.4951 -1.0298 0.9918
1.7141 -0.3338 -1.0082 0.9920
1.7247 -0.0250 -0.9958 0.9921
1.7226 0.1284 -0.9973 0.9921
1.7134 0.4416 -1.0216 0.9919
