ply
format ascii 1.0
element vertex 169
property float32 x
property float32 y
property float32 z
property float32 I
end_header
2.0828 17.6038 2.7156 0.9308
-11.2921 13.4768 2.6935 0.9313
4.0035 18.9371 2.5205 0.9249
2.1244 17.9560 2.3546 0.9297
2.1717 18.3559 1.9848 0.9283
-11.2353 13.4090 1.8785 0.9320
2.2223 18.7832 1.6011 0.9269
-11.5318 13.7628 1.5200 0.9305
3.7741 17.8519 1.1315 0.9295
2.0932 17.6920 1.1047 0.9311
-12.3186 14.7019 1.1894 0.9260
3.8329 18.1303 0.7307 0.9285
-12.5307 14.9551 0.7693 0.9249
2.2180 18.7473 -0.1063 0.9273
-1.9236 7.7086 -0.5825 0.9686
-1.8348 7.3527 -0.7275 0.9700
10.5159 13.5153 -2.0341 0.9333
7.9088 15.1887 -2.0341 0.9333
5.0429 16.3649 -2.0341 0.9333
0.4655 17.1177 -2.0341 0.9333
-1.1821 7.6167 -0.9156 0.9694
-7.0711 15.5951 -2.0340 0.9334
-8.4527 14.8914 -2.0340 0.9334
-9.7649 14.0657 -2.0340 0.9334
9.8046 10.4865 -2.0341 0.9437
8.8159 11.3304 -2.0341 0.9437
6.6302 12.7333 -2.0341 0.9437
1.6868 14.2564 -2.0341 0.9437
0.3903 14.3505 -2.0341 0.9437
-0.9093 14.3269 -2.0341 0.9437
-4.7212 13.5569 -2.0340 0.9437
-7.0862 12.4842 -2.0340 0.9437
7.5823 9.7449 -2.0341 0.9512
-0.4824 7.5996 -1.2545 0.9696
-1.1232 7.2377 -1.2066 0.9707
-1.7737 7.1081 -1.2069 0.9707
-5.0986 11.2448 -2.0340 0.9512
-7.9294 9.4635 -2.0339 0.9512
5.8457 9.1070 -2.0341 0.9569
4.9979 9.5984 -2.0341 0.9569
3.1869 10.3418 -2.0340 0.9569
2.2384 10.5876 -2.0340 0.9569
-1.1093 7.1480 -1.3596 0.9710
-1.7963 7.1984 -1.3945 0.9703
-2.5524 7.3292 -1.4588 0.9689
-4.4686 9.8555 -2.0340 0.9569
-6.1711 8.8890 -2.0339 0.9569
5.9091 7.5946 -2.0340 0.9614
1.1306 9.5559 -2.0340 0.9614
-0.4718 7.4335 -1.5745 0.9700
-3.9736 8.7636 -2.0340 0.9614
-5.4873 7.9042 -2.0339 0.9614
-6.1797 7.3754 -2.0339 0.9614
2.5486 8.2707 -2.0340 0.9651
1.7901 8.4674 -2.0340 0.9651
1.0168 8.5945 -2.0340 0.9651
-1.8082 7.2463 -1.7553 0.9698
-3.5738 7.8819 -2.0340 0.9651
-4.9353 7.1090 -2.0339 0.9651
-5.5581 6.6334 -2.0339 0.9651
4.2435 6.6111 -2.0340 0.9681
2.9830 7.2674 -2.0340 0.9681
2.3134 7.5074 -2.0340 0.9681
0.9230 7.8013 -2.0340 0.9681
0.2136 7.8529 -2.0340 0.9681
-0.4976 7.8399 -2.0340 0.9681
-1.1454 7.3804 -1.9338 0.9696
-1.9020 7.6219 -2.0340 0.9681
4.4121 5.6706 -2.0340 0.9706
3.8811 6.0465 -2.0340 0.9706
2.7282 6.6468 -2.0340 0.9706
1.4861 7.0295 -2.0340 0.9706
0.1954 7.1822 -2.0340 0.9706
-1.7395 6.9710 -2.0340 0.9706
-2.9670 6.5435 -2.0339 0.9706
-3.5467 6.2483 -2.0339 0.9706
-4.0973 5.9019 -2.0339 0.9706
-4.6143 5.5070 -2.0339 0.9706
4.0609 5.2192 -2.0340 0.9727
3.0541 5.8654 -2.0340 0.9727
1.9474 6.3196 -2.0340 0.9727
0.1798 6.6104 -2.0340 0.9727
-0.4189 6.5996 -2.0340 0.9727
-1.6010 6.4161 -2.0340 0.9727
-3.7711 5.4320 -2.0339 0.9727
4.1790 4.4697 -2.0340 0.9745
2.3236 5.6607 -2.0340 0.9745
1.8020 5.8476 -2.0340 0.9745
0.7189 6.0765 -2.0340 0.9745
3.4928 4.4890 -2.0340 0.9761
3.0724 4.7865 -2.0340 0.9761
1.1764 5.5647 -2.0340 0.9761
0.6683 5.6483 -2.0340 0.9761
0.1546 5.6856 -2.0340 0.9761
-0.3603 5.6762 -2.0340 0.9761
-0.8723 5.6204 -2.0340 0.9761
-1.3771 5.5184 -2.0340 0.9761
-2.3487 5.1800 -2.0339 0.9761
-3.2435 4.6721 -2.0339 0.9761
-3.6528 4.3595 -2.0339 0.9761
3.6249 3.8770 -2.0340 0.9775
2.8670 4.4666 -2.0340 0.9775
2.4513 4.7077 -2.0340 0.9775
1.0978 5.1928 -2.0340 0.9775
-0.8139 5.2447 -2.0340 0.9775
-1.7455 5.0123 -2.0339 0.9775
3.3941 3.6302 -2.0340 0.9787
2.6845 4.1822 -2.0340 0.9787
2.2952 4.4079 -2.0340 0.9787
1.0279 4.8622 -2.0340 0.9787
-0.7621 4.9108 -2.0339 0.9788
-1.2032 4.8217 -2.0339 0.9788
-1.6344 4.6932 -2.0339 0.9788
-2.0522 4.5261 -2.0339 0.9788
-2.8340 4.0822 -2.0339 0.9788
2.8659 3.6834 -2.0340 0.9798
2.1554 4.1395 -2.0340 0.9798
0.1269 4.6653 -2.0340 0.9798
-0.2956 4.6576 -2.0340 0.9798
-2.6614 3.8337 -2.0339 0.9798
3.0010 3.2097 -2.0340 0.9808
2.6984 3.4680 -2.0340 0.9808
2.3736 3.6979 -2.0340 0.9808
2.0294 3.8974 -2.0340 0.9808
1.2940 4.1992 -2.0340 0.9808
0.5163 4.3636 -2.0340 0.9808
0.1195 4.3924 -2.0340 0.9808
-1.0638 4.2633 -2.0339 0.9808
-1.4451 4.1496 -2.0339 0.9808
-1.8145 4.0019 -2.0339 0.9808
-2.1690 3.8213 -2.0339 0.9808
-2.8220 3.3680 -2.0339 0.9808
2.8319 3.0288 -2.0340 0.9817
2.5463 3.2726 -2.0340 0.9817
1.5745 3.8359 -2.0340 0.9817
0.8576 4.0568 -2.0340 0.9817
0.4872 4.1178 -2.0340 0.9817
-0.6359 4.0974 -2.0339 0.9817
-1.0039 4.0231 -2.0339 0.9817
-1.3636 3.9158 -2.0339 0.9817
-2.0468 3.6060 -2.0339 0.9817
-2.3646 3.4061 -2.0339 0.9817
-2.6630 3.1782 -2.0339 0.9817
2.1179 3.2994 -2.0340 0.9825
1.4888 3.6270 -2.0340 0.9825
1.1546 3.7468 -2.0340 0.9825
0.4607 3.8935 -2.0339 0.9825
-0.2483 3.9128 -2.0339 0.9825
-0.9492 3.8039 -2.0339 0.9825
-1.2894 3.7025 -2.0339 0.9825
-1.6190 3.5707 -2.0339 0.9825
-1.9354 3.4096 -2.0339 0.9825
-2.2358 3.2205 -2.0339 0.9825
-2.5180 3.0051 -2.0339 0.9825
2.2805 2.9309 -2.0340 0.9832
1.0936 3.5489 -2.0339 0.9832
-1.2213 3.5070 -2.0339 0.9832
-1.5335 3.3821 -2.0339 0.9832
-2.3850 2.8464 -2.0339 0.9832
2.1634 2.7804 -2.0340 0.9839
1.6270 3.1247 -2.0339 0.9839
1.3377 3.2590 -2.0339 0.9839
1.0374 3.3666 -2.0339 0.9839
0.7286 3.4467 -2.0339 0.9839
-0.2232 3.5158 -2.0339 0.9839
-0.5403 3.4812 -2.0339 0.9839
-0.8529 3.4181 -2.0339 0.9839
-1.7390 3.0637 -2.0339 0.9839
-2.2625 2.7002 -2.0339 0.9839
