ply
format ascii 1.0
element vertex 194
property float32 x
property float32 y
property float32 z
property float32 I
end_header
16.5636 -3.8702 -0.8626 0.9341
16.2760 -3.8030 -1.2255 0.9352
2.8670 -6.0924 -0.6464 0.9733
16.2151 -3.7887 -1.5987 0.9353
2.3493 -6.4420 -0.8145 0.9728
2.7718 -5.8901 -0.7733 0.9741
8.6554 -14.7728 -2.0338 0.9334
9.9502 -13.9338 -2.0338 0.9334
15.0269 -8.2085 -2.0339 0.9334
16.4541 -3.8445 -2.0072 0.9342
17.1029 -0.8430 -2.0340 0.9333
16.9771 2.2373 -2.0341 0.9333
16.7068 3.7565 -2.0341 0.9333
2.7766 -5.9005 -0.9240 0.9740
8.3418 -11.6816 -2.0338 0.9437
10.3014 -9.9966 -2.0339 0.9437
12.5979 -6.8816 -2.0339 0.9437
13.1663 -5.7196 -2.0339 0.9437
13.6279 -4.5113 -2.0340 0.9437
13.9787 -3.2662 -2.0340 0.9437
14.2162 -1.9946 -2.0340 0.9437
14.3436 0.5868 -2.0340 0.9437
14.0061 3.1493 -2.0341 0.9437
2.2003 -6.0335 -1.0580 0.9743
6.2411 -10.6521 -2.0338 0.9512
8.0500 -9.3606 -2.0339 0.9512
8.8601 -8.5979 -2.0339 0.9512
10.2583 -6.8700 -2.0339 0.9512
11.3241 -4.9194 -2.0339 0.9512
11.7210 -3.8800 -2.0340 0.9512
12.3365 0.5047 -2.0340 0.9512
2.1495 -5.8939 -1.1792 0.9748
7.0555 -8.2041 -2.0339 0.9569
7.7655 -7.5357 -2.0339 0.9569
8.4123 -6.8061 -2.0339 0.9569
8.9909 -6.0213 -2.0339 0.9569
9.4966 -5.1875 -2.0339 0.9569
9.9250 -4.3115 -2.0339 0.9569
10.2729 -3.4007 -2.0340 0.9569
10.5374 -2.4621 -2.0340 0.9569
10.8082 -0.5328 -2.0340 0.9569
10.5579 2.3739 -2.0340 0.9569
2.1237 -5.8235 -1.3103 0.9750
2.7229 -5.7861 -1.3517 0.9742
5.5916 -7.8303 -2.0339 0.9614
6.9051 -6.7009 -2.0339 0.9614
8.4444 -4.6127 -2.0339 0.9614
9.5290 -1.3370 -2.0340 0.9614
2.0848 -5.7166 -1.4301 0.9753
3.3898 -5.7856 -1.5759 0.9728
5.6427 -6.5613 -2.0339 0.9651
6.7278 -5.4432 -2.0339 0.9651
7.5948 -4.1487 -2.0339 0.9651
8.2158 -2.7197 -2.0339 0.9651
8.4273 -1.9691 -2.0340 0.9651
8.6439 -0.4261 -2.0340 0.9651
8.6471 0.3538 -2.0340 0.9651
8.5802 1.1308 -2.0340 0.9651
8.4436 1.8986 -2.0340 0.9651
4.5650 -6.3927 -2.0339 0.9681
5.6373 -5.4705 -2.0339 0.9681
6.5270 -4.3711 -2.0339 0.9681
7.2050 -3.1300 -2.0339 0.9681
7.4575 -2.4687 -2.0339 0.9681
7.6496 -1.7873 -2.0339 0.9681
7.8461 -0.3867 -2.0340 0.9681
7.8491 0.3211 -2.0340 0.9681
7.6644 1.7234 -2.0340 0.9681
3.6319 -6.1988 -2.0339 0.9706
4.1752 -5.8468 -2.0339 0.9706
5.5854 -4.5190 -2.0339 0.9706
5.9696 -3.9978 -2.0339 0.9706
6.3052 -3.4442 -2.0339 0.9706
6.5897 -2.8627 -2.0339 0.9706
6.8207 -2.2579 -2.0339 0.9706
7.1761 -0.3537 -2.0340 0.9706
7.1788 0.2937 -2.0340 0.9706
7.1232 0.9387 -2.0340 0.9706
7.0099 1.5762 -2.0340 0.9706
4.7455 -4.6051 -2.0339 0.9727
5.8033 -3.1701 -2.0339 0.9727
6.0652 -2.6348 -2.0339 0.9727
6.2777 -2.0781 -2.0339 0.9727
6.6073 0.2703 -2.0340 0.9727
6.5561 0.8640 -2.0340 0.9727
6.4518 1.4507 -2.0340 0.9727
2.0963 -5.7483 -2.0339 0.9745
3.0931 -5.2793 -2.0339 0.9745
4.7568 -3.8486 -2.0339 0.9745
5.3698 -2.9333 -2.0339 0.9745
5.6121 -2.4380 -2.0339 0.9745
5.8089 -1.9229 -2.0339 0.9745
5.9584 -1.3922 -2.0339 0.9745
5.9699 1.3423 -2.0340 0.9745
2.4217 -5.1461 -2.0339 0.9761
2.8752 -4.9072 -2.0339 0.9761
3.7085 -4.3121 -2.0339 0.9761
4.4216 -3.5774 -2.0339 0.9761
4.9914 -2.7266 -2.0339 0.9761
5.2166 -2.2662 -2.0339 0.9761
5.3995 -1.7874 -2.0339 0.9761
5.5385 -1.2941 -2.0339 0.9761
5.6325 -0.7903 -2.0339 0.9761
5.6808 -0.2800 -2.0339 0.9761
5.5492 1.2477 -2.0340 0.9761
2.2599 -4.8022 -2.0339 0.9775
2.6830 -4.5793 -2.0339 0.9775
3.0843 -4.3192 -2.0339 0.9775
3.4606 -4.0240 -2.0339 0.9775
3.8088 -3.6961 -2.0339 0.9775
4.1261 -3.3383 -2.0339 0.9775
4.8680 -2.1147 -2.0339 0.9775
5.1683 -1.2076 -2.0339 0.9775
5.2561 -0.7375 -2.0339 0.9775
5.3031 0.2169 -2.0339 0.9775
5.2621 0.6935 -2.0340 0.9775
5.1783 1.1643 -2.0340 0.9775
2.5121 -4.2877 -2.0339 0.9788
2.8879 -4.0442 -2.0339 0.9788
3.2403 -3.7678 -2.0339 0.9788
3.5663 -3.4608 -2.0339 0.9788
3.8634 -3.1257 -2.0339 0.9788
4.1291 -2.7653 -2.0339 0.9788
4.5581 -1.9801 -2.0339 0.9788
4.7179 -1.5618 -2.0339 0.9788
4.8393 -1.1307 -2.0339 0.9788
4.9636 -0.2447 -2.0339 0.9787
4.9655 0.2031 -2.0339 0.9787
4.9271 0.6493 -2.0340 0.9787
4.8486 1.0902 -2.0340 0.9787
1.5989 -4.3843 -2.0339 0.9798
2.3592 -4.0266 -2.0339 0.9798
2.7120 -3.7979 -2.0339 0.9798
3.0430 -3.5383 -2.0339 0.9798
3.6281 -2.9354 -2.0339 0.9798
3.8777 -2.5969 -2.0339 0.9798
4.2805 -1.8595 -2.0339 0.9798
4.5446 -1.0619 -2.0339 0.9798
4.6613 -0.2298 -2.0339 0.9798
1.5054 -4.1280 -2.0339 0.9808
1.8709 -3.9757 -2.0339 0.9808
2.2212 -3.7912 -2.0339 0.9808
2.5535 -3.5758 -2.0339 0.9808
2.8650 -3.3314 -2.0339 0.9808
3.1533 -3.0600 -2.0339 0.9808
3.8562 -2.1064 -2.0339 0.9808
4.0302 -1.7508 -2.0339 0.9808
4.2788 -0.9998 -2.0339 0.9808
4.3514 -0.6105 -2.0339 0.9808
4.3888 -0.2163 -2.0339 0.9808
4.3904 0.1796 -2.0339 0.9808
4.3564 0.5741 -2.0339 0.9808
4.2871 0.9639 -2.0339 0.9808
1.4206 -3.8954 -2.0339 0.9817
1.7655 -3.7517 -2.0339 0.9817
2.0961 -3.5775 -2.0339 0.9817
2.4096 -3.3743 -2.0339 0.9817
2.7036 -3.1437 -2.0339 0.9817
2.9757 -2.8876 -2.0339 0.9817
3.2235 -2.6080 -2.0339 0.9817
3.8031 -1.6521 -2.0339 0.9817
3.9364 -1.3031 -2.0339 0.9817
4.0377 -0.9434 -2.0339 0.9817
4.1414 -0.2042 -2.0339 0.9817
4.1430 0.1695 -2.0339 0.9817
4.0455 0.9096 -2.0339 0.9817
1.3433 -3.6832 -2.0339 0.9825
1.6693 -3.5473 -2.0339 0.9825
1.9819 -3.3827 -2.0339 0.9825
2.5563 -2.9725 -2.0339 0.9825
3.0479 -2.4660 -2.0339 0.9825
3.2575 -2.1816 -2.0339 0.9825
3.4407 -1.8795 -2.0339 0.9825
2.0941 -0.2938 -1.0970 0.9905
2.0781 -0.1024 -1.0794 0.9907
2.0775 0.0850 -1.0786 0.9907
2.0909 0.2755 -1.0941 0.9905
1.2723 -3.4887 -2.0339 0.9832
1.8772 -3.2041 -2.0339 0.9832
2.1581 -3.0220 -2.0339 0.9832
2.4214 -2.8155 -2.0339 0.9832
2.6650 -2.5861 -2.0339 0.9832
1.8925 -0.6265 -1.0918 0.9909
1.8576 -0.4340 -1.0448 0.9913
1.8446 0.2431 -1.0190 0.9916
1.8575 0.4176 -1.0427 0.9914
1.7809 -3.0395 -2.0339 0.9839
2.0473 -2.8669 -2.0339 0.9839
1.7714 -0.7696 -1.1151 0.9911
1.7241 -0.5707 -1.0485 0.9916
1.7148 -0.4007 -1.0167 0.9919
1.7239 0.0705 -0.9961 0.9921
1.7148 0.2260 -0.9986 0.9920
1.7149 0.3856 -1.0148 0.9919
