ply
format ascii 1.0
element vertex 186
property float32 x
property float32 y
property float32 z
property float32 I
end_header
16.5308 -3.8388 -0.8607 0.9343
14.5634 9.2010 -0.8736 0.9333
13.8756 8.7664 -1.2034 0.9363
16.1881 -3.7593 -1.5955 0.9354
15.0913 -8.0895 -2.0339 0.9334
16.2745 -5.3235 -2.0340 0.9334
16.4406 -3.8179 -2.0049 0.9343
17.1002 -0.8944 -2.0340 0.9333
16.9931 2.1122 -2.0341 0.9333
15.2245 7.8393 -2.0341 0.9333
14.4770 9.1464 -2.0341 0.9333
13.6177 10.3829 -2.0341 0.9333
11.5904 12.6059 -2.0341 0.9333
9.2052 14.4399 -2.0341 0.9333
13.6437 -4.4630 -2.0340 0.9437
14.3464 0.5124 -2.0340 0.9437
14.0355 3.0154 -2.0341 0.9437
13.7164 4.2367 -2.0341 0.9437
13.2912 5.4253 -2.0341 0.9437
12.1367 7.6678 -2.0341 0.9437
10.8816 -5.8329 -2.0339 0.9512
11.3520 -4.8545 -2.0339 0.9512
11.7347 -3.8385 -2.0340 0.9512
12.0266 -2.7929 -2.0340 0.9512
12.3390 0.4407 -2.0340 0.9512
12.2526 1.5230 -2.0340 0.9512
12.0716 2.5935 -2.0340 0.9512
11.7971 3.6439 -2.0340 0.9512
10.9774 5.6524 -2.0341 0.9512
10.4384 6.5948 -2.0341 0.9512
9.8187 7.4863 -2.0341 0.9512
9.1231 8.3200 -2.0341 0.9512
8.3570 9.0893 -2.0341 0.9512
6.6373 10.4116 -2.0341 0.9512
10.2849 -3.3643 -2.0340 0.9569
10.7151 -1.5124 -2.0340 0.9569
10.7388 1.3348 -2.0340 0.9569
10.5801 2.2730 -2.0340 0.9569
10.3396 3.1937 -2.0340 0.9569
10.0191 4.0896 -2.0340 0.9569
9.1487 5.7800 -2.0340 0.9569
7.9959 7.2920 -2.0341 0.9569
6.5963 8.5789 -2.0341 0.9569
5.8172 9.1252 -2.0341 0.9569
8.4805 -4.5459 -2.0339 0.9614
9.5279 -1.3448 -2.0340 0.9614
9.4079 2.0212 -2.0340 0.9614
9.1939 2.8398 -2.0340 0.9614
8.1350 5.1396 -2.0340 0.9614
7.6521 5.8344 -2.0340 0.9614
7.1100 6.4841 -2.0340 0.9614
6.5129 7.0836 -2.0340 0.9614
5.1727 8.1141 -2.0340 0.9614
7.6274 -4.0886 -2.0339 0.9651
7.9571 -3.4028 -2.0339 0.9651
8.4300 -1.9576 -2.0340 0.9651
8.6425 -0.4521 -2.0340 0.9651
8.5883 1.0675 -2.0340 0.9651
8.0127 3.2707 -2.0340 0.9651
7.6944 3.9619 -2.0340 0.9651
7.3166 4.6225 -2.0340 0.9651
6.8823 5.2474 -2.0340 0.9651
6.3947 5.8317 -2.0340 0.9651
5.8577 6.3709 -2.0340 0.9651
5.2754 6.8609 -2.0340 0.9651
7.6520 -1.7770 -2.0339 0.9681
7.8449 -0.4104 -2.0340 0.9681
7.8507 0.2804 -2.0340 0.9681
7.7957 0.9690 -2.0340 0.9681
7.5058 2.3184 -2.0340 0.9681
6.9843 3.5963 -2.0340 0.9681
6.6414 4.1959 -2.0340 0.9681
6.2471 4.7631 -2.0340 0.9681
5.3171 5.7829 -2.0340 0.9681
4.7885 6.2277 -2.0340 0.9681
6.3322 -3.3943 -2.0339 0.9706
6.6060 -2.8249 -2.0339 0.9706
6.8287 -2.2337 -2.0339 0.9706
6.9985 -1.6252 -2.0339 0.9706
7.1750 -0.3753 -2.0340 0.9706
7.1300 0.8862 -2.0340 0.9706
7.0245 1.5091 -2.0340 0.9706
6.8648 2.1204 -2.0340 0.9706
6.6521 2.7153 -2.0340 0.9706
6.3878 3.2892 -2.0340 0.9706
5.7136 4.3564 -2.0340 0.9706
4.3796 5.6958 -2.0340 0.9706
5.8281 -3.1241 -2.0339 0.9727
6.0801 -2.6001 -2.0339 0.9727
6.6086 0.2360 -2.0340 0.9727
6.4654 1.3890 -2.0340 0.9727
6.1225 2.4991 -2.0340 0.9727
5.8793 3.0273 -2.0340 0.9727
3.5548 5.5763 -2.0340 0.9727
5.8156 -1.9023 -2.0339 0.9745
5.9603 -1.3841 -2.0339 0.9745
6.1105 -0.3196 -2.0339 0.9745
6.1150 0.2184 -2.0340 0.9745
5.8464 1.8058 -2.0340 0.9745
5.6652 2.3124 -2.0340 0.9745
5.4402 2.8012 -2.0340 0.9745
5.1730 3.2682 -2.0340 0.9745
4.8660 3.7101 -2.0340 0.9745
3.7298 4.8509 -2.0340 0.9745
3.2892 5.1597 -2.0340 0.9745
5.0129 -2.6871 -2.0339 0.9761
5.4057 -1.7683 -2.0339 0.9761
5.5402 -1.2866 -2.0339 0.9761
5.6318 -0.7949 -2.0339 0.9761
5.6799 -0.2971 -2.0339 0.9761
5.5608 1.1946 -2.0340 0.9761
5.0568 2.6037 -2.0340 0.9761
4.8085 3.0379 -2.0340 0.9761
3.8496 4.1870 -2.0340 0.9761
5.1700 -1.2006 -2.0339 0.9775
5.2555 -0.7418 -2.0339 0.9775
5.3003 -0.2772 -2.0339 0.9775
5.3042 0.1895 -2.0339 0.9775
5.0712 1.5664 -2.0340 0.9775
4.4871 2.8349 -2.0340 0.9775
3.9217 3.5764 -2.0340 0.9775
3.2352 4.2076 -2.0340 0.9775
2.8531 4.4755 -2.0340 0.9775
4.8408 -1.1242 -2.0339 0.9788
4.9665 0.1774 -2.0339 0.9787
4.9317 0.6130 -2.0339 0.9788
4.2014 2.6544 -2.0340 0.9787
3.6720 3.3487 -2.0340 0.9787
4.1132 -2.2049 -2.0339 0.9798
4.2911 -1.8350 -2.0339 0.9798
4.5460 -1.0557 -2.0339 0.9798
4.6212 -0.6523 -2.0339 0.9798
4.6640 0.1666 -2.0339 0.9798
4.6313 0.5756 -2.0339 0.9798
4.3209 1.7637 -2.0340 0.9798
4.1493 2.1365 -2.0340 0.9798
3.4484 3.1448 -2.0340 0.9798
3.1588 3.4356 -2.0340 0.9798
2.5087 3.9354 -2.0340 0.9798
4.3509 -0.6141 -2.0339 0.9808
4.3913 0.1568 -2.0339 0.9808
4.2961 0.9229 -2.0339 0.9808
4.1984 1.2968 -2.0340 0.9808
4.0682 1.6606 -2.0340 0.9808
3.7148 2.3470 -2.0340 0.9808
3.2467 2.9609 -2.0340 0.9808
2.9741 3.2346 -2.0340 0.9808
3.8125 -1.6304 -2.0339 0.9817
3.9410 -1.2891 -2.0339 0.9817
4.1058 -0.5795 -2.0339 0.9817
4.1408 -0.2166 -2.0339 0.9817
4.1438 0.1480 -2.0339 0.9817
4.0540 0.8710 -2.0339 0.9817
3.0638 2.7941 -2.0340 0.9817
2.8065 3.0524 -2.0340 0.9817
2.5275 3.2872 -2.0340 0.9817
2.2289 3.4964 -2.0340 0.9817
3.6048 -1.5415 -2.0339 0.9825
3.7263 -1.2189 -2.0339 0.9825
2.0878 0.2595 -1.0914 0.9906
2.1086 0.4530 -1.1189 0.9903
3.4857 1.7948 -2.0340 0.9825
2.8969 2.6419 -2.0340 0.9825
2.3898 3.1081 -2.0340 0.9825
3.4145 -1.4601 -2.0339 0.9832
1.8902 -0.6183 -1.0893 0.9910
1.8526 0.0662 -1.0153 0.9916
1.8571 0.3990 -1.0403 0.9914
1.8788 0.5803 -1.0770 0.9911
3.3016 1.7000 -2.0339 0.9832
3.1395 1.9835 -2.0339 0.9832
2.9532 2.2516 -2.0340 0.9832
2.7439 2.5023 -2.0340 0.9832
2.5135 2.7337 -2.0340 0.9832
1.9962 3.1314 -2.0340 0.9832
1.7676 -0.7559 -1.1099 0.9912
1.7134 -0.2419 -0.9991 0.9920
1.7241 0.0616 -0.9961 0.9921
1.7149 0.3684 -1.0127 0.9919
1.7191 0.5310 -1.0388 0.9917
3.1321 1.6127 -2.0339 0.9839
2.9783 1.8816 -2.0339 0.9839
2.8015 2.1360 -2.0339 0.9839
2.6030 2.3739 -2.0339 0.9839
2.3844 2.5934 -2.0340 0.9839
2.1474 2.7928 -2.0340 0.9839
