ply
format ascii 1.0
element vertex 201
property float32 x
property float32 y
property float32 z
property float32 I
end_header
-12.5361 13.0585 3.1919 0.9291
-11.9121 12.4086 2.6351 0.9328
2.4401 18.1851 2.3893 0.9287
-11.0437 13.7929 2.3009 0.9312
-11.6017 12.0851 2.1815 0.9347
2.3727 17.6826 1.9158 0.9307
-11.6190 12.1030 1.4203 0.9349
2.3387 17.4287 1.0904 0.9320
-11.8663 12.3607 1.0625 0.9336
10.6664 13.3968 -2.0341 0.9333
9.4215 14.2997 -2.0341 0.9333
8.1005 15.0873 -2.0341 0.9333
6.7143 15.7532 -2.0341 0.9333
5.2738 16.2920 -2.0341 0.9333
3.7909 16.6994 -2.0341 0.9333
2.2774 16.9720 -2.0341 0.9333
-0.7924 17.1056 -2.0341 0.9333
-1.0354 7.5591 -0.9063 0.9697
-9.4598 14.2727 -2.0340 0.9334
-10.7021 13.3663 -2.0340 0.9334
-11.8580 12.3521 -2.0339 0.9334
-12.9182 11.2383 -2.0339 0.9334
7.8984 11.9880 -2.0341 0.9437
5.6289 13.2065 -2.0341 0.9437
4.4213 13.6582 -2.0341 0.9437
-0.6643 14.3404 -2.0341 0.9437
-1.0134 7.3988 -1.0581 0.9703
-1.6743 7.2829 -1.0588 0.9703
-4.4585 13.6455 -2.0340 0.9437
-7.9307 11.9655 -2.0340 0.9437
-9.9412 10.3554 -2.0339 0.9437
7.6908 9.6595 -2.0341 0.9512
6.7932 10.3105 -2.0341 0.9512
5.8408 10.8784 -2.0341 0.9512
3.8027 11.7471 -2.0341 0.9512
0.5376 12.3354 -2.0340 0.9512
-0.5713 12.3338 -2.0340 0.9512
-1.6362 7.1172 -1.2031 0.9708
-2.5077 7.6749 -1.3301 0.9678
-4.8721 11.3448 -2.0340 0.9512
-5.8702 10.8618 -2.0340 0.9512
-6.8209 10.2913 -2.0340 0.9512
-7.7168 9.6377 -2.0339 0.9512
-9.3147 8.1034 -2.0339 0.9512
5.1191 9.5343 -2.0341 0.9569
2.3957 10.5531 -2.0340 0.9569
0.4711 10.8113 -2.0340 0.9569
-0.3613 7.7989 -1.4675 0.9687
-1.0010 7.3084 -1.3865 0.9704
-2.3393 7.1597 -1.4158 0.9698
-8.1639 7.1023 -2.0339 0.9569
5.9937 7.5280 -2.0340 0.9614
5.2942 8.0353 -2.0340 0.9614
4.5519 8.4779 -2.0340 0.9614
3.7729 8.8521 -2.0340 0.9614
2.9635 9.1549 -2.0340 0.9614
0.4189 9.6134 -2.0340 0.9614
-0.9832 7.1783 -1.5315 0.9708
-2.3421 7.1681 -1.5940 0.9696
-3.7970 8.8415 -2.0340 0.9614
-4.5750 8.4651 -2.0340 0.9614
-5.3159 8.0205 -2.0339 0.9614
-6.6636 6.9412 -2.0339 0.9614
4.7615 7.2269 -2.0340 0.9651
3.3933 7.9615 -2.0340 0.9651
2.6654 8.2339 -2.0340 0.9651
1.9159 8.4398 -2.0340 0.9651
1.1509 8.5776 -2.0340 0.9651
0.3768 8.6463 -2.0340 0.9651
-0.9905 7.2311 -1.7153 0.9705
-1.6673 7.2526 -1.7490 0.9699
-4.7812 7.2136 -2.0339 0.9651
3.0802 7.2268 -2.0340 0.9681
1.0448 7.7860 -2.0340 0.9681
0.3420 7.8483 -2.0340 0.9681
-0.3635 7.8473 -2.0340 0.9681
-1.0020 7.3149 -1.9117 0.9700
-1.7600 7.6559 -2.0340 0.9681
-3.0999 7.2181 -2.0340 0.9681
-4.3399 6.5479 -2.0339 0.9681
-5.4402 5.6668 -2.0339 0.9681
-5.9266 5.1559 -2.0339 0.9681
3.3987 6.3302 -2.0340 0.9706
2.8171 6.6096 -2.0340 0.9706
2.2128 6.8357 -2.0340 0.9706
1.5906 7.0066 -2.0340 0.9706
0.9555 7.1211 -2.0340 0.9706
0.3128 7.1780 -2.0340 0.9706
-0.9750 7.1183 -2.0340 0.9706
-1.6097 7.0021 -2.0340 0.9706
-3.4160 6.3207 -2.0339 0.9706
-3.9693 5.9887 -2.0339 0.9706
-4.4906 5.6084 -2.0339 0.9706
-4.9756 5.1829 -2.0339 0.9706
-5.4205 4.7156 -2.0339 0.9706
4.1190 5.1734 -2.0340 0.9727
3.6383 5.5221 -2.0340 0.9727
3.1282 5.8263 -2.0340 0.9727
1.4639 6.4488 -2.0340 0.9727
-0.3060 6.6058 -2.0340 0.9727
-2.6095 6.0762 -2.0339 0.9727
-3.1440 5.8175 -2.0339 0.9727
-3.6533 5.5120 -2.0339 0.9727
3.3665 5.1097 -2.0340 0.9745
2.3992 5.6290 -2.0340 0.9745
1.8845 5.8215 -2.0340 0.9745
1.3546 5.9671 -2.0340 0.9745
0.2664 6.1131 -2.0340 0.9745
-0.8304 6.0623 -2.0340 0.9745
-2.4146 5.6223 -2.0339 0.9745
-2.9092 5.3830 -2.0339 0.9745
-4.2375 4.4140 -2.0339 0.9745
3.5428 4.4496 -2.0340 0.9761
3.1293 4.7495 -2.0340 0.9761
2.6905 5.0111 -2.0340 0.9761
1.7517 5.4113 -2.0340 0.9761
0.7564 5.6372 -2.0340 0.9761
-0.7719 5.6350 -2.0340 0.9761
-1.7665 5.4064 -2.0339 0.9761
-2.2444 5.2261 -2.0339 0.9761
-2.7042 5.0036 -2.0339 0.9761
-3.9388 4.1029 -2.0339 0.9761
-4.2910 3.7330 -2.0339 0.9761
2.9201 4.4321 -2.0340 0.9775
2.5107 4.6762 -2.0340 0.9775
1.6346 5.0496 -2.0340 0.9775
1.1750 5.1759 -2.0340 0.9775
-0.7203 5.2584 -2.0340 0.9775
-1.1891 5.1726 -2.0339 0.9775
-1.6484 5.0450 -2.0339 0.9775
-2.9322 4.4240 -2.0339 0.9775
3.0955 3.8879 -2.0340 0.9787
2.7342 4.1499 -2.0340 0.9787
1.5305 4.7281 -2.0340 0.9787
0.2164 4.9649 -2.0340 0.9787
-0.2299 4.9643 -2.0340 0.9787
-0.6744 4.9236 -2.0339 0.9788
-1.1134 4.8433 -2.0339 0.9788
-1.5435 4.7238 -2.0339 0.9788
-1.9611 4.5663 -2.0339 0.9788
-3.1061 3.8793 -2.0339 0.9788
-3.4416 3.5850 -2.0339 0.9788
-3.7493 3.2617 -2.0339 0.9788
2.9070 3.6511 -2.0340 0.9798
2.5677 3.8972 -2.0340 0.9798
2.2077 4.1118 -2.0340 0.9798
1.4373 4.4401 -2.0340 0.9798
1.0332 4.5512 -2.0340 0.9798
0.6206 4.6255 -2.0340 0.9798
-0.2160 4.6620 -2.0340 0.9798
-1.4495 4.4362 -2.0339 0.9798
-1.8416 4.2882 -2.0339 0.9798
-2.2189 4.1057 -2.0339 0.9798
-2.5783 3.8901 -2.0339 0.9798
-3.5210 3.0631 -2.0339 0.9798
2.0786 3.8714 -2.0340 0.9808
1.7229 4.0422 -2.0340 0.9808
1.3533 4.1805 -2.0340 0.9808
0.9728 4.2851 -2.0340 0.9808
-1.3647 4.1767 -2.0339 0.9808
-1.7339 4.0374 -2.0339 0.9808
-2.0891 3.8656 -2.0339 0.9808
-3.0430 3.1698 -2.0339 0.9808
-3.3151 2.8839 -2.0339 0.9808
2.2813 3.4625 -2.0340 0.9817
0.1805 4.1425 -2.0339 0.9817
-0.1919 4.1420 -2.0339 0.9817
-0.9290 4.0410 -2.0339 0.9817
-1.6362 3.8099 -2.0339 0.9817
-1.9714 3.6478 -2.0339 0.9817
-2.5916 3.2367 -2.0339 0.9817
-2.8715 2.9912 -2.0339 0.9817
-3.1283 2.7215 -2.0339 0.9817
2.1570 3.2739 -2.0340 0.9825
1.8546 3.4542 -2.0340 0.9825
1.2075 3.7301 -2.0340 0.9825
0.8679 3.8234 -2.0340 0.9825
0.5214 3.8858 -2.0339 0.9825
0.1707 3.9169 -2.0339 0.9825
-0.8784 3.8209 -2.0339 0.9825
-1.5471 3.6024 -2.0339 0.9825
-2.1660 3.2679 -2.0339 0.9825
-2.4504 3.0604 -2.0339 0.9825
-2.7151 2.8282 -2.0339 0.9825
2.3131 2.9052 -2.0340 0.9832
0.4939 3.6806 -2.0339 0.9832
-0.1718 3.7096 -2.0339 0.9832
-0.8320 3.6191 -2.0339 0.9832
-1.4654 3.4122 -2.0339 0.9832
-2.0516 3.0954 -2.0339 0.9832
-2.5717 2.6789 -2.0339 0.9832
1.6665 3.1038 -2.0339 0.9839
1.3813 3.2408 -2.0339 0.9839
1.0850 3.3516 -2.0339 0.9839
0.4685 3.4916 -2.0339 0.9839
0.1534 3.5195 -2.0339 0.9839
-1.0941 3.3486 -2.0339 0.9839
-1.3902 3.2370 -2.0339 0.9839
-2.2018 2.7499 -2.0339 0.9839
-2.4397 2.5413 -2.0339 0.9839
-2.6579 2.3122 -2.0339 0.9839
