ply
format ascii 1.0
element vertex 190
property float32 x
property float32 y
property float32 z
property float32 I
end_header
2.4440 -6.2039 -0.6402 0.9736
3.1698 -6.3465 -0.6811 0.9719
-6.9201 -15.6595 -2.0337 0.9334
-4.0736 -16.6288 -2.0337 0.9334
-2.5976 -16.9224 -2.0337 0.9334
0.4032 -17.1161 -2.0337 0.9334
3.3916 -16.7818 -2.0337 0.9334
1.8408 -6.2288 -0.7715 0.9742
2.4371 -6.1865 -0.7898 0.9736
10.2124 -13.7428 -2.0338 0.9334
11.3800 -12.7930 -2.0339 0.9334
-5.8016 -13.1285 -2.0337 0.9437
-4.6262 -13.5873 -2.0337 0.9437
-3.4152 -13.9411 -2.0337 0.9437
-0.9234 -14.3237 -2.0337 0.9437
0.3381 -14.3496 -2.0337 0.9437
2.8434 -14.0693 -2.0338 0.9437
7.5168 -12.2287 -2.0338 0.9437
11.2700 -8.8907 -2.0339 0.9437
12.0073 -7.8667 -2.0339 0.9437
-3.9791 -11.6864 -2.0337 0.9512
-1.8730 -12.2023 -2.0337 0.9512
-0.7942 -12.3198 -2.0338 0.9512
1.3735 -12.2688 -2.0338 0.9512
2.3476 -5.9591 -1.0551 0.9744
2.9089 -5.8242 -1.0725 0.9740
6.4651 -10.5177 -2.0338 0.9512
7.3637 -9.9094 -2.0339 0.9512
8.2056 -9.2245 -2.0339 0.9512
8.9841 -8.4683 -2.0339 0.9512
9.6931 -7.6467 -2.0339 0.9512
10.3273 -6.7660 -2.0339 0.9512
-0.6961 -10.7978 -2.0338 0.9569
0.2548 -10.8173 -2.0338 0.9569
2.1435 -10.6059 -2.0338 0.9569
1.7830 -6.0333 -1.1825 0.9747
6.4540 -8.6852 -2.0339 0.9569
7.8741 -7.4221 -2.0339 0.9569
8.4956 -6.7020 -2.0339 0.9569
9.0514 -5.9301 -2.0339 0.9569
-3.8890 -8.8004 -2.0338 0.9614
-3.1011 -9.1079 -2.0338 0.9614
-0.6190 -9.6016 -2.0338 0.9614
0.2266 -9.6189 -2.0338 0.9614
2.8064 -5.6189 -1.3276 0.9746
5.0386 -8.1971 -2.0339 0.9614
7.0017 -6.5998 -2.0339 0.9614
7.5543 -5.9595 -2.0339 0.9614
8.0485 -5.2731 -2.0339 0.9614
-2.7892 -8.1917 -2.0338 0.9651
-1.3130 -8.5534 -2.0338 0.9651
-0.5567 -8.6357 -2.0338 0.9651
0.2038 -8.6512 -2.0338 0.9651
0.9627 -8.6000 -2.0338 0.9651
1.2613 -6.2411 -1.4965 0.9742
2.2659 -5.7519 -1.4529 0.9749
2.7991 -5.6043 -1.4723 0.9746
5.1616 -6.9461 -2.0339 0.9651
5.7517 -6.4660 -2.0339 0.9651
6.2974 -5.9359 -2.0339 0.9651
6.7944 -5.3600 -2.0339 0.9651
7.2388 -4.7426 -2.0339 0.9651
-3.1750 -7.1847 -2.0338 0.9681
-2.5318 -7.4358 -2.0338 0.9681
-1.8690 -7.6294 -2.0338 0.9681
-1.1918 -7.7641 -2.0338 0.9681
-0.5054 -7.8388 -2.0338 0.9681
0.1850 -7.8529 -2.0338 0.9681
1.2575 -6.2219 -1.6435 0.9741
2.2324 -5.6668 -1.5770 0.9751
4.1135 -6.6921 -2.0339 0.9681
5.2209 -5.8692 -2.0339 0.9681
6.5708 -4.3049 -2.0339 0.9681
-2.9039 -6.5712 -2.0338 0.9706
-2.3156 -6.8009 -2.0338 0.9706
-1.7094 -6.9779 -2.0338 0.9706
-1.0900 -7.1011 -2.0338 0.9706
-0.4622 -7.1694 -2.0338 0.9706
1.4232 -7.0420 -2.0338 0.9706
1.7479 -5.9145 -1.7459 0.9747
4.7751 -5.3680 -2.0339 0.9706
5.2280 -4.9280 -2.0339 0.9706
5.6406 -4.4498 -2.0339 0.9706
6.0097 -3.9373 -2.0339 0.9706
-2.1312 -6.2595 -2.0338 0.9727
-1.5734 -6.4225 -2.0338 0.9727
-0.4254 -6.5987 -2.0338 0.9727
0.1557 -6.6106 -2.0338 0.9727
0.7357 -6.5714 -2.0338 0.9727
1.7711 -5.9930 -1.9221 0.9742
4.3949 -4.9407 -2.0339 0.9727
5.1916 -4.0956 -2.0339 0.9727
-2.4731 -5.5964 -2.0338 0.9745
-0.9283 -6.0477 -2.0338 0.9745
-0.3936 -6.1059 -2.0338 0.9745
0.1441 -6.1169 -2.0338 0.9745
0.6807 -6.0806 -2.0338 0.9745
1.2121 -5.9973 -2.0338 0.9745
1.7340 -5.8677 -2.0338 0.9745
2.2427 -5.6928 -2.0339 0.9745
2.7340 -5.4738 -2.0339 0.9745
3.2041 -5.2127 -2.0339 0.9745
4.4525 -4.1969 -2.0339 0.9745
4.8039 -3.7897 -2.0339 0.9745
5.1181 -3.3532 -2.0339 0.9745
-2.2988 -5.2020 -2.0338 0.9761
-1.8331 -5.3838 -2.0338 0.9761
-0.3659 -5.6756 -2.0338 0.9761
0.1339 -5.6858 -2.0338 0.9761
0.6327 -5.6521 -2.0338 0.9761
1.1266 -5.5747 -2.0338 0.9761
1.6119 -5.4542 -2.0339 0.9761
3.3923 -4.5650 -2.0339 0.9761
3.7801 -4.2495 -2.0339 0.9761
4.1387 -3.9012 -2.0339 0.9761
4.4653 -3.5226 -2.0339 0.9761
-2.1452 -4.8544 -2.0338 0.9775
-1.7106 -5.0240 -2.0338 0.9775
-1.2628 -5.1548 -2.0338 0.9775
1.0514 -5.2021 -2.0339 0.9775
1.5041 -5.0897 -2.0339 0.9775
2.3714 -4.7480 -2.0339 0.9775
2.7793 -4.5215 -2.0339 0.9775
3.1655 -4.2600 -2.0339 0.9775
3.5275 -3.9655 -2.0339 0.9775
3.8621 -3.6404 -2.0339 0.9775
-2.0086 -4.5454 -2.0338 0.9788
-1.1824 -4.8267 -2.0338 0.9788
-0.3197 -4.9591 -2.0338 0.9788
1.4084 -4.7657 -2.0339 0.9788
2.2205 -4.4458 -2.0339 0.9788
3.3029 -3.7130 -2.0339 0.9788
3.6162 -3.4087 -2.0339 0.9788
3.9016 -3.0779 -2.0339 0.9788
-1.5042 -4.4177 -2.0338 0.9798
0.5192 -4.6378 -2.0339 0.9798
1.3226 -4.4754 -2.0339 0.9798
2.0852 -4.1750 -2.0339 0.9798
2.4438 -3.9758 -2.0339 0.9798
2.7835 -3.7458 -2.0339 0.9798
3.3960 -3.2011 -2.0339 0.9798
3.6640 -2.8905 -2.0339 0.9798
-1.4162 -4.1594 -2.0338 0.9808
-1.0455 -4.2677 -2.0338 0.9808
-0.6666 -4.3430 -2.0338 0.9808
-0.2827 -4.3848 -2.0338 0.9808
0.1034 -4.3927 -2.0339 0.9808
1.2453 -4.2137 -2.0339 0.9808
2.3009 -3.7433 -2.0339 0.9808
3.4498 -2.7214 -2.0339 0.9808
-1.6759 -3.7925 -2.0338 0.9817
-1.3364 -3.9250 -2.0338 0.9817
-0.6291 -4.0983 -2.0338 0.9817
0.0977 -4.1451 -2.0339 0.9817
0.4613 -4.1206 -2.0339 0.9817
0.8213 -4.0642 -2.0339 0.9817
1.1751 -3.9763 -2.0339 0.9817
1.5198 -3.8578 -2.0339 0.9817
1.8527 -3.7094 -2.0339 0.9817
2.1713 -3.5324 -2.0339 0.9817
2.4731 -3.3280 -2.0339 0.9817
3.4684 -2.2723 -2.0339 0.9817
-1.5847 -3.5860 -2.0338 0.9825
-0.9328 -3.8079 -2.0338 0.9825
-0.5948 -3.8751 -2.0339 0.9825
-0.2522 -3.9123 -2.0339 0.9825
0.0923 -3.9194 -2.0339 0.9825
0.7766 -3.8428 -2.0339 0.9825
2.6057 -2.9293 -2.0339 0.9825
2.8530 -2.6891 -2.0339 0.9825
3.0781 -2.4282 -2.0339 0.9825
3.2795 -2.1485 -2.0339 0.9825
-1.5010 -3.3966 -2.0338 0.9832
-0.5634 -3.6705 -2.0339 0.9832
1.0524 -3.5612 -2.0339 0.9832
1.9446 -3.1636 -2.0339 0.9832
2.2149 -2.9806 -2.0339 0.9832
2.9155 -2.3000 -2.0339 0.9832
3.1063 -2.0350 -2.0339 0.9832
-1.4239 -3.2222 -2.0339 0.9839
-0.8382 -3.4216 -2.0339 0.9839
-0.5345 -3.4820 -2.0339 0.9839
-0.2266 -3.5155 -2.0339 0.9839
0.3919 -3.5009 -2.0339 0.9839
0.6978 -3.4529 -2.0339 0.9839
0.9984 -3.3783 -2.0339 0.9839
1.5741 -3.1515 -2.0339 0.9839
2.5635 -2.4163 -2.0339 0.9839
2.7658 -2.1819 -2.0339 0.9839
2.9468 -1.9305 -2.0339 0.9839
