ply
format ascii 1.0
element vertex 210
property float32 x
property float32 y
property float32 z
property float32 I
end_header
2.9562 18.5597 3.3138 0.9265
2.8343 17.7946 2.7604 0.9297
1.2405 18.4266 2.8292 0.9280
2.9188 18.3257 2.4165 0.9279
1.2773 18.9759 2.4767 0.9262
2.8080 17.6294 1.9169 0.9307
2.8002 17.5805 1.5070 0.9310
1.2763 18.9603 1.6087 0.9266
1.2701 18.8680 1.1727 0.9270
2.7559 17.3024 0.6908 0.9323
2.8382 17.8196 0.3048 0.9304
2.9420 18.4709 -0.1053 0.9279
13.6042 9.2321 -0.8338 0.9363
13.4500 9.1274 -1.1918 0.9369
13.2263 8.9756 -1.5346 0.9378
-0.8920 7.7728 -0.7511 0.9691
-1.5563 7.4854 -0.7340 0.9697
15.6722 6.9005 -2.0341 0.9333
14.9825 8.2923 -2.0341 0.9333
13.2402 10.8602 -2.0341 0.9333
11.0628 13.0714 -2.0341 0.9333
9.8328 14.0200 -2.0341 0.9333
5.7014 16.1474 -2.0341 0.9333
4.2148 16.5975 -2.0341 0.9333
2.6935 16.9110 -2.0341 0.9333
-1.5462 7.4364 -0.9022 0.9699
13.6087 4.5707 -2.0341 0.9437
12.5605 6.9517 -2.0341 0.9437
11.8789 8.0613 -2.0341 0.9437
11.0997 9.1045 -2.0341 0.9437
9.2744 10.9583 -2.0341 0.9437
8.2433 11.7536 -2.0341 0.9437
7.1444 12.4521 -2.0341 0.9437
5.9867 13.0482 -2.0341 0.9437
4.7797 13.5370 -2.0341 0.9437
-0.3376 14.3518 -2.0341 0.9437
-0.8553 7.4526 -1.0629 0.9701
11.3002 4.9755 -2.0341 0.9512
10.8029 5.9790 -2.0341 0.9512
10.2168 6.9333 -2.0341 0.9512
9.5465 7.8305 -2.0341 0.9512
7.0898 10.1089 -2.0341 0.9512
6.1446 10.7097 -2.0341 0.9512
5.1489 11.2224 -2.0341 0.9512
3.0390 11.9673 -2.0341 0.9512
-1.4989 7.2097 -1.2131 0.9706
10.2584 3.4454 -2.0340 0.9569
9.4682 5.2403 -2.0340 0.9569
8.3670 6.8630 -2.0340 0.9569
7.7107 7.5929 -2.0341 0.9569
6.2138 8.8599 -2.0341 0.9569
5.3854 9.3865 -2.0341 0.9569
4.5128 9.8358 -2.0340 0.9569
3.6030 10.2042 -2.0340 0.9569
2.6636 10.4887 -2.0340 0.9569
0.7268 10.7971 -2.0340 0.9569
-0.2545 10.8185 -2.0340 0.9569
8.8067 3.8776 -2.0340 0.9614
7.9623 5.4034 -2.0340 0.9614
6.8564 6.7517 -2.0340 0.9614
6.2164 7.3452 -2.0340 0.9614
5.5253 7.8782 -2.0340 0.9614
4.0127 8.7460 -2.0340 0.9614
3.2037 9.0736 -2.0340 0.9614
0.6463 9.6008 -2.0340 0.9614
-0.8395 7.3155 -1.5565 0.9703
8.2041 2.7555 -2.0340 0.9651
7.5721 4.1909 -2.0340 0.9651
6.6914 5.4887 -2.0340 0.9651
6.1666 6.0724 -2.0340 0.9651
5.5911 6.6062 -2.0340 0.9651
4.3070 7.5067 -2.0340 0.9651
3.6091 7.8661 -2.0340 0.9651
2.8814 8.1608 -2.0340 0.9651
2.1301 8.3883 -2.0340 0.9651
0.5813 8.6349 -2.0340 0.9651
-0.8361 7.2853 -1.7235 0.9703
-1.5642 7.5232 -1.8059 0.9689
7.4469 2.5012 -2.0340 0.9681
7.1897 3.1656 -2.0340 0.9681
6.8733 3.8041 -2.0340 0.9681
6.0739 4.9821 -2.0340 0.9681
5.5975 5.5120 -2.0340 0.9681
5.0750 5.9965 -2.0340 0.9681
3.9095 6.8140 -2.0340 0.9681
3.2760 7.1402 -2.0340 0.9681
2.6155 7.4076 -2.0340 0.9681
-0.1848 7.8535 -2.0340 0.9681
-0.8502 7.4090 -1.9309 0.9697
-1.5991 7.6912 -2.0340 0.9681
6.8110 2.2876 -2.0340 0.9706
6.2864 3.4792 -2.0340 0.9706
5.5552 4.5566 -2.0340 0.9706
5.1195 5.0412 -2.0340 0.9706
4.1256 5.8824 -2.0340 0.9706
3.5756 6.2321 -2.0340 0.9706
2.9961 6.5304 -2.0340 0.9706
2.3922 6.7750 -2.0340 0.9706
1.7684 6.9638 -2.0340 0.9706
1.1302 7.0954 -2.0340 0.9706
0.4826 7.1686 -2.0340 0.9706
-0.1690 7.1829 -2.0340 0.9706
6.0522 2.6648 -2.0340 0.9727
4.7119 4.6399 -2.0340 0.9727
4.2721 5.0478 -2.0340 0.9727
3.7971 5.4141 -2.0340 0.9727
3.2909 5.7359 -2.0340 0.9727
2.2017 6.2356 -2.0340 0.9727
1.6277 6.4095 -2.0340 0.9727
1.0402 6.5305 -2.0340 0.9727
0.4442 6.5979 -2.0340 0.9727
-0.1555 6.6110 -2.0340 0.9727
-0.7539 6.5697 -2.0340 0.9727
5.8005 1.9482 -2.0340 0.9745
5.3537 2.9630 -2.0340 0.9745
5.0632 3.4360 -2.0340 0.9745
4.3600 4.2933 -2.0340 0.9745
3.9530 4.6707 -2.0340 0.9745
2.5516 5.5615 -2.0340 0.9745
1.5061 5.9307 -2.0340 0.9745
-0.1439 6.1172 -2.0340 0.9745
-0.6976 6.0790 -2.0340 0.9745
5.3917 1.8108 -2.0340 0.9761
4.9764 2.7542 -2.0340 0.9761
4.7064 3.1938 -2.0340 0.9761
4.0527 3.9908 -2.0340 0.9761
3.6744 4.3416 -2.0340 0.9761
3.2659 4.6566 -2.0340 0.9761
2.8305 4.9334 -2.0340 0.9761
1.8937 5.3633 -2.0340 0.9761
0.8947 5.6169 -2.0340 0.9761
0.3820 5.6749 -2.0340 0.9761
-1.1577 5.5686 -2.0340 0.9761
5.0314 1.6899 -2.0340 0.9775
4.8576 2.1388 -2.0340 0.9775
3.0476 4.3454 -2.0340 0.9775
2.2134 4.8241 -2.0340 0.9775
1.3063 5.1443 -2.0340 0.9775
-0.1248 5.3061 -2.0340 0.9775
-1.0804 5.1964 -2.0339 0.9775
4.7111 1.5823 -2.0340 0.9787
4.5483 2.0026 -2.0340 0.9787
3.8425 3.1518 -2.0340 0.9787
3.5411 3.4870 -2.0340 0.9787
2.8536 4.0688 -2.0340 0.9787
2.4732 4.3106 -2.0340 0.9787
1.6546 4.6862 -2.0340 0.9787
0.3338 4.9584 -2.0340 0.9787
-1.0116 4.8655 -2.0339 0.9788
4.4241 1.4859 -2.0340 0.9798
3.8618 2.6207 -2.0340 0.9798
3.6084 2.9598 -2.0340 0.9798
3.0150 3.5624 -2.0340 0.9798
2.6798 3.8210 -2.0340 0.9798
2.3225 4.0480 -2.0340 0.9798
0.7341 4.6089 -2.0340 0.9798
0.3134 4.6564 -2.0340 0.9798
-0.1097 4.6657 -2.0340 0.9798
-0.9500 4.5692 -2.0339 0.9798
3.8446 2.1278 -2.0340 0.9808
3.3974 2.7867 -2.0340 0.9808
3.1309 3.0831 -2.0340 0.9808
2.8387 3.3541 -2.0340 0.9808
2.5231 3.5975 -2.0340 0.9808
2.1868 3.8113 -2.0340 0.9808
1.8324 3.9938 -2.0340 0.9808
1.4630 4.1434 -2.0340 0.9808
0.6912 4.3394 -2.0340 0.9808
-0.1033 4.3928 -2.0339 0.9808
-0.5009 4.3654 -2.0339 0.9808
3.9307 1.3202 -2.0339 0.9817
3.7950 1.6709 -2.0340 0.9817
3.4311 2.3284 -2.0340 0.9817
2.6787 3.1651 -2.0340 0.9817
2.3809 3.3948 -2.0340 0.9817
2.0636 3.5966 -2.0340 0.9817
1.3805 3.9099 -2.0340 0.9817
1.0206 4.0189 -2.0340 0.9817
0.6523 4.0949 -2.0340 0.9817
-0.0975 4.1453 -2.0339 0.9817
3.7166 1.2483 -2.0339 0.9825
3.5882 1.5799 -2.0339 0.9825
3.4304 1.8985 -2.0340 0.9825
3.0314 2.4864 -2.0340 0.9825
2.5329 2.9927 -2.0340 0.9825
1.9511 3.4007 -2.0340 0.9825
1.6350 3.5635 -2.0340 0.9825
0.9650 3.8000 -2.0340 0.9825
-0.0921 3.9195 -2.0339 0.9825
-0.7980 3.8385 -2.0339 0.9825
1.8954 0.6366 -1.0951 0.9909
3.3987 1.4965 -2.0339 0.9832
3.0729 2.0853 -2.0340 0.9832
2.8713 2.3551 -2.0340 0.9832
2.6461 2.6056 -2.0340 0.9832
2.3991 2.8347 -2.0340 0.9832
1.8481 3.2211 -2.0340 0.9832
1.5486 3.3753 -2.0340 0.9832
1.2364 3.5017 -2.0340 0.9832
0.9140 3.5993 -2.0339 0.9832
0.5841 3.6673 -2.0339 0.9832
-0.0873 3.7125 -2.0339 0.9832
1.7250 0.5794 -1.0506 0.9916
3.0823 1.7059 -2.0339 0.9839
2.5102 2.4718 -2.0339 0.9839
2.2759 2.6891 -2.0340 0.9839
1.1729 3.3219 -2.0339 0.9839
0.5541 3.4790 -2.0339 0.9839
-0.4016 3.4999 -2.0339 0.9839
-0.7171 3.4491 -2.0339 0.9839
