ply
format ascii 1.0
element vertex 198
property float32 x
property float32 y
property float32 z
property float32 I
end_header
2.3405 17.6132 2.7220 0.9306
2.3548 17.7216 1.9197 0.9306
-4.6048 19.3400 1.6830 0.9233
4.0327 17.7366 0.7172 0.9298
-4.5673 19.1824 0.7775 0.9241
2.5358 19.0835 0.3252 0.9259
4.1336 18.1804 -0.1050 0.9281
16.1372 5.7292 -2.0341 0.9333
15.5466 7.1792 -2.0341 0.9333
13.1898 9.3277 -1.9190 0.9370
13.0199 11.1232 -2.0341 0.9333
8.1791 15.0449 -2.0341 0.9333
6.7708 15.7290 -2.0341 0.9333
2.2556 16.9750 -2.0341 0.9333
-0.8698 17.1018 -2.0341 0.9333
-1.0885 7.5983 -0.9118 0.9696
12.4292 7.1839 -2.0341 0.9437
6.8569 12.6127 -2.0341 0.9437
5.6762 13.1862 -2.0341 0.9437
11.6355 4.1310 -2.0340 0.9512
11.2096 5.1764 -2.0341 0.9512
10.6900 6.1786 -2.0341 0.9512
8.6160 8.8441 -2.0341 0.9512
7.7722 9.5941 -2.0341 0.9512
6.8636 10.2638 -2.0341 0.9512
2.7375 12.0398 -2.0341 0.9512
1.6264 12.2395 -2.0341 0.9512
0.5017 12.3369 -2.0340 0.9512
-1.0386 7.2498 -1.2065 0.9707
10.1979 3.6206 -2.0340 0.9569
9.8246 4.5369 -2.0340 0.9569
8.8355 6.2484 -2.0340 0.9569
8.2279 7.0292 -2.0340 0.9569
7.5515 7.7514 -2.0341 0.9569
6.8119 8.4087 -2.0341 0.9569
6.0155 8.9957 -2.0341 0.9569
5.1687 9.5075 -2.0341 0.9569
4.2788 9.9398 -2.0340 0.9569
3.3530 10.2891 -2.0340 0.9569
0.4397 10.8126 -2.0340 0.9569
-1.0299 7.1897 -1.3652 0.9709
-1.6960 7.1232 -1.3763 0.9706
9.0680 3.2194 -2.0340 0.9614
8.7361 4.0342 -2.0340 0.9614
8.3311 4.8153 -2.0340 0.9614
6.7148 6.8925 -2.0340 0.9614
4.5960 8.4541 -2.0340 0.9614
3.8047 8.8385 -2.0340 0.9614
2.9815 9.1490 -2.0340 0.9614
2.1334 9.3831 -2.0340 0.9614
1.2675 9.5387 -2.0340 0.9614
-0.3861 7.5906 -1.6066 0.9694
8.1557 2.8955 -2.0340 0.9651
7.8572 3.6283 -2.0340 0.9651
7.0661 4.9971 -2.0340 0.9651
6.5802 5.6216 -2.0340 0.9651
6.0393 6.1991 -2.0340 0.9651
3.4219 7.9493 -2.0340 0.9651
2.6816 8.2286 -2.0340 0.9651
1.9188 8.4391 -2.0340 0.9651
7.4030 2.6283 -2.0340 0.9681
6.4140 4.5359 -2.0340 0.9681
5.9729 5.1028 -2.0340 0.9681
4.9450 6.1041 -2.0340 0.9681
4.3668 6.5302 -2.0340 0.9681
3.7521 6.9018 -2.0340 0.9681
3.1061 7.2156 -2.0340 0.9681
2.4341 7.4692 -2.0340 0.9681
-0.3991 7.8456 -2.0340 0.9681
-1.1139 7.7763 -2.0340 0.9681
6.7708 2.4038 -2.0340 0.9706
6.2205 3.5954 -2.0340 0.9706
5.8663 4.1485 -2.0340 0.9706
5.0138 5.1464 -2.0340 0.9706
4.5227 5.5828 -2.0340 0.9706
3.9939 5.9726 -2.0340 0.9706
0.9464 7.1222 -2.0340 0.9706
-0.3650 7.1755 -2.0340 0.9706
6.2318 2.2125 -2.0340 0.9727
6.0037 2.7724 -2.0340 0.9727
5.7254 3.3091 -2.0340 0.9727
5.0279 4.2954 -2.0340 0.9727
3.1585 5.8098 -2.0340 0.9727
1.4661 6.4483 -2.0340 0.9727
0.8711 6.5553 -2.0340 0.9727
-0.3359 6.6043 -2.0340 0.9727
5.7663 2.0472 -2.0340 0.9745
5.2977 3.0620 -2.0340 0.9745
4.9959 3.5331 -2.0340 0.9745
4.6524 3.9746 -2.0340 0.9745
3.4014 5.0865 -2.0340 0.9745
2.9226 5.3759 -2.0340 0.9745
2.4194 5.6204 -2.0340 0.9745
1.8959 5.8179 -2.0340 0.9745
1.3566 5.9667 -2.0340 0.9745
0.8060 6.0656 -2.0340 0.9745
0.2486 6.1139 -2.0340 0.9745
-0.3108 6.1110 -2.0340 0.9745
-0.8677 6.0571 -2.0340 0.9745
5.3599 1.9029 -2.0340 0.9761
5.1637 2.3845 -2.0340 0.9761
4.9244 2.8462 -2.0340 0.9761
4.3245 3.6945 -2.0340 0.9761
3.5803 4.4195 -2.0340 0.9761
2.7166 4.9970 -2.0340 0.9761
2.2488 5.2243 -2.0340 0.9761
1.7623 5.4078 -2.0340 0.9761
0.2311 5.6830 -2.0340 0.9761
-0.2889 5.6803 -2.0340 0.9761
-0.8065 5.6302 -2.0340 0.9761
4.8186 2.2252 -2.0340 0.9775
4.0355 3.4476 -2.0340 0.9775
3.3410 4.1241 -2.0340 0.9775
2.9504 4.4121 -2.0340 0.9775
2.0986 4.8751 -2.0340 0.9775
1.6445 5.0464 -2.0340 0.9775
1.1768 5.1755 -2.0340 0.9775
0.6991 5.2613 -2.0340 0.9775
0.2157 5.3032 -2.0340 0.9775
-0.2696 5.3007 -2.0340 0.9775
-0.7526 5.2539 -2.0340 0.9775
-1.2293 5.1632 -2.0339 0.9775
4.6832 1.6627 -2.0340 0.9787
4.5118 2.0835 -2.0340 0.9787
4.3027 2.4869 -2.0340 0.9787
3.4679 3.5597 -2.0340 0.9787
3.1283 3.8616 -2.0340 0.9787
1.1018 4.8460 -2.0340 0.9787
0.2019 4.9655 -2.0340 0.9787
-0.7047 4.9194 -2.0339 0.9788
-1.1511 4.8345 -2.0339 0.9788
4.3980 1.5614 -2.0340 0.9798
4.0406 2.3354 -2.0340 0.9798
3.5484 3.0315 -2.0340 0.9798
2.9378 3.6264 -2.0340 0.9798
2.5943 3.8795 -2.0340 0.9798
2.2291 4.1003 -2.0340 0.9798
1.4461 4.4373 -2.0340 0.9798
1.0347 4.5509 -2.0340 0.9798
0.1896 4.6631 -2.0340 0.9798
-0.2371 4.6609 -2.0340 0.9798
3.9893 1.8422 -2.0340 0.9808
3.0662 3.1474 -2.0340 0.9808
2.4425 3.6527 -2.0340 0.9808
2.0987 3.8605 -2.0340 0.9808
1.7374 4.0360 -2.0340 0.9808
1.3615 4.1779 -2.0340 0.9808
0.9742 4.2847 -2.0340 0.9808
0.5788 4.3558 -2.0340 0.9808
0.1786 4.3904 -2.0340 0.9808
-0.2232 4.3884 -2.0339 0.9808
-1.0177 4.2746 -2.0339 0.9808
3.9075 1.3873 -2.0339 0.9817
3.7645 1.7384 -2.0340 0.9817
3.5900 2.0749 -2.0340 0.9817
3.3855 2.3942 -2.0340 0.9817
3.1527 2.6934 -2.0340 0.9817
2.8935 2.9701 -2.0340 0.9817
2.6101 3.2219 -2.0340 0.9817
2.3050 3.4468 -2.0340 0.9817
1.2847 3.9424 -2.0340 0.9817
0.9193 4.0433 -2.0340 0.9817
0.5462 4.1104 -2.0340 0.9817
-0.2106 4.1411 -2.0339 0.9817
3.5595 1.6437 -2.0339 0.9825
3.3945 1.9619 -2.0340 0.9825
3.2011 2.2638 -2.0340 0.9825
2.9809 2.5467 -2.0340 0.9825
2.7359 2.8083 -2.0340 0.9825
2.4680 3.0464 -2.0340 0.9825
2.1794 3.2591 -2.0340 0.9825
1.8726 3.4445 -2.0340 0.9825
1.5502 3.6012 -2.0340 0.9825
1.2148 3.7277 -2.0340 0.9825
0.8693 3.8230 -2.0340 0.9825
0.5164 3.8865 -2.0339 0.9825
0.1593 3.9174 -2.0339 0.9825
-0.1992 3.9156 -2.0339 0.9825
2.0113 0.7141 -1.1690 0.9903
3.2152 1.8583 -2.0339 0.9832
3.0320 2.1442 -2.0340 0.9832
2.8235 2.4122 -2.0340 0.9832
2.5914 2.6600 -2.0340 0.9832
2.3376 2.8855 -2.0340 0.9832
2.0643 3.0870 -2.0340 0.9832
1.7737 3.2626 -2.0340 0.9832
1.4683 3.4110 -2.0340 0.9832
0.1509 3.7105 -2.0339 0.9832
-0.1886 3.7088 -2.0339 0.9832
-0.5266 3.6760 -2.0339 0.9832
3.0501 1.7629 -2.0339 0.9839
2.4583 2.5234 -2.0339 0.9839
2.2176 2.7374 -2.0340 0.9839
1.6826 3.0951 -2.0339 0.9839
1.3929 3.2359 -2.0339 0.9839
0.1432 3.5200 -2.0339 0.9839
-0.4995 3.4873 -2.0339 0.9839
-0.8160 3.4271 -2.0339 0.9839
