ply
format ascii 1.0
element vertex 198
property float32 x
property float32 y
property float32 z
property float32 I
end_header
-17.1032 0.7863 -2.0338 0.9334
-16.9604 -2.3387 -2.0337 0.9334
-16.6758 -3.8784 -2.0337 0.9334
-15.0002 -8.2526 -2.0337 0.9334
-13.2481 -10.8441 -2.0337 0.9334
-11.0538 -13.0736 -2.0337 0.9334
-9.8132 -14.0289 -2.0337 0.9334
-4.1436 -16.6116 -2.0337 0.9334
-2.6086 -16.9207 -2.0337 0.9334
-14.3387 0.6592 -2.0338 0.9437
-14.2190 -1.9607 -2.0338 0.9437
-13.9804 -3.2515 -2.0337 0.9437
-13.6248 -4.5151 -2.0337 0.9437
-13.1553 -5.7410 -2.0337 0.9437
-8.2271 -11.7614 -2.0337 0.9437
-7.1182 -12.4638 -2.0337 0.9437
-4.7316 -13.5510 -2.0337 0.9437
-3.4738 -13.9266 -2.0337 0.9437
-2.1870 -14.1859 -2.0337 0.9437
-0.8818 -14.3264 -2.0337 0.9437
-12.3325 0.5670 -2.0338 0.9512
-12.3327 -0.5620 -2.0338 0.9512
-12.2296 -1.6864 -2.0338 0.9512
-12.0245 -2.7966 -2.0338 0.9512
-11.7186 -3.8834 -2.0338 0.9512
-11.3148 -4.9378 -2.0337 0.9512
-10.8163 -5.9508 -2.0337 0.9512
-10.2275 -6.9141 -2.0337 0.9512
-9.5530 -7.8195 -2.0337 0.9512
-7.0761 -10.1159 -2.0337 0.9512
-5.1174 -11.2346 -2.0337 0.9512
-4.0696 -11.6552 -2.0337 0.9512
-1.8810 -12.2011 -2.0337 0.9512
-0.7585 -12.3220 -2.0338 0.9512
-10.8090 0.4970 -2.0338 0.9569
-10.8091 -0.4926 -2.0338 0.9569
-10.7189 -1.4780 -2.0338 0.9569
-10.5389 -2.4511 -2.0338 0.9569
-9.9170 -4.3278 -2.0338 0.9569
-9.4801 -5.2156 -2.0338 0.9569
-8.9639 -6.0599 -2.0338 0.9569
-8.3728 -6.8535 -2.0338 0.9569
-7.7117 -7.5897 -2.0337 0.9569
-6.9860 -8.2626 -2.0337 0.9569
-5.3660 -9.3958 -2.0337 0.9569
-4.4852 -9.8467 -2.0338 0.9569
-2.6187 -10.4985 -2.0338 0.9569
-9.6115 0.4419 -2.0338 0.9614
-9.5314 -1.3143 -2.0338 0.9614
-9.3714 -2.1796 -2.0338 0.9614
-8.8183 -3.8483 -2.0338 0.9614
-8.4299 -4.6379 -2.0338 0.9614
-7.4452 -6.0942 -2.0338 0.9614
-6.8573 -6.7489 -2.0338 0.9614
-6.2121 -7.3472 -2.0338 0.9614
-4.7716 -8.3548 -2.0338 0.9614
-3.9883 -8.7559 -2.0338 0.9614
-0.5911 -9.6033 -2.0338 0.9614
-8.6446 0.3974 -2.0338 0.9651
-8.5725 -1.1821 -2.0338 0.9651
-7.9312 -3.4612 -2.0338 0.9651
-7.1691 -4.8465 -2.0338 0.9651
-6.1675 -6.0700 -2.0338 0.9651
-5.5872 -6.6081 -2.0338 0.9651
-4.9601 -7.0909 -2.0338 0.9651
-3.5871 -7.8751 -2.0338 0.9651
-2.8527 -8.1699 -2.0338 0.9651
-2.0943 -8.3963 -2.0338 0.9651
-1.3185 -8.5526 -2.0338 0.9651
-7.8468 0.3608 -2.0338 0.9681
-7.6508 -1.7794 -2.0338 0.9681
-7.4562 -2.4709 -2.0338 0.9681
-7.1993 -3.1418 -2.0338 0.9681
-6.8822 -3.7864 -2.0338 0.9681
-6.5075 -4.3993 -2.0338 0.9681
-6.0784 -4.9754 -2.0338 0.9681
-4.5024 -6.4365 -2.0338 0.9681
-3.8955 -6.8210 -2.0338 0.9681
-3.2561 -7.1483 -2.0338 0.9681
-2.5894 -7.4159 -2.0338 0.9681
-0.4826 -7.8402 -2.0338 0.9681
-7.1768 0.3299 -2.0338 0.9706
-6.8196 -2.2599 -2.0338 0.9706
-6.5845 -2.8735 -2.0338 0.9706
-5.9518 -4.0236 -2.0338 0.9706
-5.5593 -4.5505 -2.0338 0.9706
-3.5629 -6.2385 -2.0338 0.9706
-2.9780 -6.5379 -2.0338 0.9706
-2.3683 -6.7826 -2.0338 0.9706
-1.7387 -6.9707 -2.0338 0.9706
-6.6055 -0.3011 -2.0338 0.9727
-6.5504 -0.9033 -2.0338 0.9727
-6.4404 -1.4979 -2.0338 0.9727
-5.7934 -3.1874 -2.0338 0.9727
-5.4780 -3.7033 -2.0338 0.9727
-4.2693 -5.0494 -2.0338 0.9727
-3.7902 -5.4183 -2.0338 0.9727
-3.2793 -5.7419 -2.0338 0.9727
-2.7410 -6.0175 -2.0338 0.9727
-2.1798 -6.2428 -2.0338 0.9727
-1.0075 -6.5352 -2.0338 0.9727
-0.4062 -6.5999 -2.0338 0.9727
-6.1122 -0.2786 -2.0338 0.9745
-6.0612 -0.8358 -2.0338 0.9745
-5.6077 -2.4472 -2.0338 0.9745
-5.0689 -3.4267 -2.0338 0.9745
-4.3608 -4.2918 -2.0338 0.9745
-3.9504 -4.6723 -2.0338 0.9745
-3.5071 -5.0136 -2.0338 0.9745
-2.0170 -5.7765 -2.0338 0.9745
-0.9323 -6.0471 -2.0338 0.9745
-0.3759 -6.1070 -2.0338 0.9745
-5.6340 -0.7769 -2.0338 0.9761
-5.5395 -1.2884 -2.0338 0.9761
-5.3986 -1.7890 -2.0338 0.9761
-5.2126 -2.2748 -2.0338 0.9761
-4.7116 -3.1853 -2.0338 0.9761
-4.4010 -3.6024 -2.0338 0.9761
-3.2599 -4.6603 -2.0338 0.9761
-2.3575 -5.1757 -2.0338 0.9761
-1.8748 -5.3694 -2.0338 0.9761
-1.3765 -5.5183 -2.0338 0.9761
-0.8666 -5.6209 -2.0338 0.9761
-0.3494 -5.6766 -2.0338 0.9761
-5.3017 0.2437 -2.0339 0.9775
-5.3018 -0.2416 -2.0339 0.9775
-5.2575 -0.7250 -2.0338 0.9775
-5.1693 -1.2022 -2.0338 0.9775
-5.0378 -1.6695 -2.0338 0.9775
-3.4266 -4.0528 -2.0338 0.9775
-3.0421 -4.3489 -2.0338 0.9775
-2.2000 -4.8298 -2.0338 0.9775
-1.7495 -5.0106 -2.0338 0.9775
-2.1224 0.0975 -0.8696 0.9909
-2.1191 -0.4929 -0.8904 0.9906
-4.7171 -1.5632 -2.0338 0.9788
-4.5545 -1.9876 -2.0338 0.9788
-4.1169 -2.7831 -2.0338 0.9788
-3.8454 -3.1476 -2.0338 0.9788
-3.5418 -3.4858 -2.0338 0.9788
-3.2084 -3.7947 -2.0338 0.9788
-2.8484 -4.0720 -2.0338 0.9788
-2.4645 -4.3152 -2.0338 0.9788
-2.0599 -4.5223 -2.0338 0.9788
-1.6382 -4.6916 -2.0338 0.9788
-1.2027 -4.8217 -2.0338 0.9788
-1.9183 -0.0875 -0.8369 0.9917
-4.4298 -1.4680 -2.0338 0.9798
-3.8661 -2.6137 -2.0338 0.9798
-3.6112 -2.9559 -2.0338 0.9798
-3.0131 -3.5637 -2.0338 0.9798
-2.6749 -3.8240 -2.0338 0.9798
-1.1295 -4.5280 -2.0338 0.9798
-0.7111 -4.6123 -2.0338 0.9798
-1.5907 0.0731 -0.7371 0.9930
-1.5905 -0.0725 -0.7370 0.9930
-1.5855 -0.3688 -0.7535 0.9929
-1.6471 -0.5459 -0.8032 0.9924
-3.4000 -2.7831 -2.0338 0.9808
-2.5185 -3.6004 -2.0338 0.9808
-2.1791 -3.8155 -2.0338 0.9808
-1.8214 -3.9986 -2.0338 0.9808
-1.4484 -4.1483 -2.0338 0.9808
-0.6695 -4.3426 -2.0338 0.9808
-1.3484 0.0620 -0.6621 0.9940
-1.3483 -0.0615 -0.6621 0.9940
-1.3238 -0.3079 -0.6667 0.9940
-3.8002 -1.6584 -2.0338 0.9817
-3.2084 -2.6263 -2.0338 0.9817
-1.0035 -4.0230 -2.0338 0.9817
-0.2547 -4.1385 -2.0339 0.9817
-1.1985 -0.0546 -0.6224 0.9946
-1.1087 -0.4839 -0.6276 0.9946
-3.2479 -2.1957 -2.0338 0.9825
-3.0337 -2.4832 -2.0338 0.9825
-2.5312 -2.9938 -2.0338 0.9825
-2.2472 -3.2125 -2.0338 0.9825
-1.9443 -3.4044 -2.0338 0.9825
-1.6251 -3.5678 -2.0338 0.9825
-1.2924 -3.7013 -2.0338 0.9825
-0.5973 -3.8747 -2.0339 0.9825
-0.2409 -3.9131 -2.0339 0.9825
-1.0811 0.0497 -0.5927 0.9951
-1.0742 -0.1482 -0.5939 0.9951
-3.2536 -1.7900 -2.0339 0.9832
-2.8735 -2.3521 -2.0338 0.9832
-2.6466 -2.6048 -2.0338 0.9832
-1.8416 -3.2246 -2.0338 0.9832
-1.5393 -3.3794 -2.0338 0.9832
-0.8988 -3.6030 -2.0339 0.9832
-0.5658 -3.6701 -2.0339 0.9832
-0.9900 0.0455 -0.5722 0.9954
-0.9680 -0.2252 -0.5738 0.9954
-0.8986 -0.4944 -0.5922 0.9953
-2.2745 -2.6901 -2.0339 0.9839
-2.0192 -2.8866 -2.0339 0.9839
-1.4603 -3.2058 -2.0339 0.9839
-0.2164 -3.5161 -2.0339 0.9839
