ply
format ascii 1.0
element vertex 214
property float32 x
property float32 y
property float32 z
property float32 I
end_header
-12.3230 13.1561 3.1785 0.9294
-10.8834 13.8667 2.2955 0.9314
-11.4380 12.2112 2.1788 0.9347
-11.9929 12.8035 1.0879 0.9321
-12.7128 13.5721 0.7333 0.9283
-6.7250 15.7475 -2.0340 0.9333
-9.3575 14.3400 -2.0340 0.9334
-12.7502 11.4287 -2.0339 0.9334
-14.5410 9.0405 -2.0339 0.9334
-15.2735 7.7385 -2.0339 0.9334
-15.8897 6.3777 -2.0338 0.9334
-16.7555 3.5211 -2.0338 0.9334
-16.9986 2.0471 -2.0338 0.9334
-17.0954 -0.9362 -2.0337 0.9334
-16.6729 -3.8909 -2.0337 0.9334
-16.2702 -5.3294 -2.0337 0.9334
-5.6379 13.2019 -2.0340 0.9437
-7.8448 12.0220 -2.0340 0.9437
-12.1905 7.5792 -2.0339 0.9437
-12.8046 6.4877 -2.0339 0.9437
-13.3213 5.3468 -2.0338 0.9437
-14.0472 2.9520 -2.0338 0.9437
-14.2509 1.7162 -2.0338 0.9437
-14.2092 -2.0312 -2.0338 0.9437
-13.9780 -3.2620 -2.0337 0.9437
-4.8490 11.3547 -2.0340 0.9512
-5.8203 10.8887 -2.0340 0.9512
-6.7472 10.3398 -2.0340 0.9512
-7.6227 9.7123 -2.0339 0.9512
-9.1936 8.2407 -2.0339 0.9512
-10.4848 6.5187 -2.0339 0.9512
-11.4575 4.5987 -2.0339 0.9512
-12.0818 2.5389 -2.0338 0.9512
-12.3390 0.4021 -2.0338 0.9512
-12.3271 -0.6750 -2.0338 0.9512
-12.0223 -2.8056 -2.0338 0.9512
-11.7320 -3.8428 -2.0338 0.9512
-4.2499 9.9518 -2.0340 0.9569
-5.9136 9.0624 -2.0340 0.9569
-6.6810 8.5123 -2.0339 0.9569
-7.3975 7.8975 -2.0339 0.9569
-8.6565 6.4927 -2.0339 0.9569
-10.0420 4.0305 -2.0339 0.9569
-10.3550 3.1398 -2.0338 0.9569
-10.7428 1.2937 -2.0338 0.9569
-10.8146 0.3524 -2.0338 0.9569
-10.8042 -0.5916 -2.0338 0.9569
-10.7114 -1.5312 -2.0338 0.9569
-10.5371 -2.4590 -2.0338 0.9569
-3.7791 8.8492 -2.0340 0.9614
-4.5360 8.4860 -2.0340 0.9614
-5.2584 8.0583 -2.0339 0.9614
-6.5779 7.0225 -2.0339 0.9614
-7.1650 6.4224 -2.0339 0.9614
-7.6975 5.7733 -2.0339 0.9614
-8.1714 5.0804 -2.0339 0.9614
-8.5831 4.3487 -2.0339 0.9614
-8.9294 3.5840 -2.0339 0.9614
-9.6072 -0.5261 -2.0338 0.9614
-9.3697 -2.1866 -2.0338 0.9614
-4.0796 7.6323 -2.0340 0.9651
-6.4442 5.7763 -2.0339 0.9651
-7.3493 4.5693 -2.0339 0.9651
-7.7196 3.9112 -2.0339 0.9651
-8.0311 3.2235 -2.0339 0.9651
-8.4688 1.7796 -2.0338 0.9651
-8.6491 0.2818 -2.0338 0.9651
-8.6407 -0.4732 -2.0338 0.9651
-8.4272 -1.9666 -2.0338 0.9651
-8.2237 -2.6937 -2.0338 0.9651
-3.0852 7.2244 -2.0340 0.9681
-3.7032 6.9280 -2.0339 0.9681
-4.2929 6.5787 -2.0339 0.9681
-5.3702 5.7332 -2.0339 0.9681
-6.2842 4.7134 -2.0339 0.9681
-7.2900 2.9260 -2.0339 0.9681
-7.6873 1.6154 -2.0339 0.9681
-7.7988 0.9392 -2.0338 0.9681
-7.7760 -1.1116 -2.0338 0.9681
-7.4648 -2.4451 -2.0338 0.9681
-2.8217 6.6074 -2.0340 0.9706
-3.9263 6.0169 -2.0339 0.9706
-5.3500 4.7955 -2.0339 0.9706
-5.7475 4.3108 -2.0339 0.9706
-6.4088 3.2471 -2.0339 0.9706
-6.8754 2.0847 -2.0339 0.9706
-7.1329 0.8590 -2.0338 0.9706
-7.1805 0.2340 -2.0338 0.9706
-6.8273 -2.2363 -2.0338 0.9706
-4.9240 4.4137 -2.0339 0.9727
-5.8986 2.9886 -2.0339 0.9727
-6.1367 2.4631 -2.0339 0.9727
-6.6025 -0.3615 -2.0338 0.9727
-6.5459 -0.9357 -2.0338 0.9727
-6.4394 -1.5027 -2.0338 0.9727
-2.8845 5.3963 -2.0339 0.9745
-4.1829 4.4657 -2.0339 0.9745
-4.5563 4.0841 -2.0339 0.9745
-4.8949 3.6713 -2.0339 0.9745
-5.8554 1.7755 -2.0339 0.9745
-5.9878 1.2583 -2.0339 0.9745
-6.0747 0.7316 -2.0339 0.9745
-6.1153 0.1993 -2.0339 0.9745
-6.1094 -0.3346 -2.0338 0.9745
-5.9584 -1.3905 -2.0338 0.9745
-5.8146 -1.9046 -2.0338 0.9745
-2.2337 5.2306 -2.0339 0.9761
-2.6812 5.0160 -2.0339 0.9761
-3.1082 4.7632 -2.0339 0.9761
-3.5115 4.4741 -2.0339 0.9761
-4.2352 3.7962 -2.0339 0.9761
-4.5500 3.4126 -2.0339 0.9761
-4.8301 3.0030 -2.0339 0.9761
-5.0734 2.5705 -2.0339 0.9761
-5.2782 2.1185 -2.0339 0.9761
-5.4428 1.6503 -2.0339 0.9761
-5.5658 1.1696 -2.0339 0.9761
-5.6844 0.1852 -2.0339 0.9761
-5.6301 -0.8048 -2.0338 0.9761
-5.4047 -1.7704 -2.0338 0.9761
-2.5020 4.6808 -2.0339 0.9775
-2.9004 4.4449 -2.0339 0.9775
-3.2768 4.1751 -2.0339 0.9775
-3.6283 3.8736 -2.0339 0.9775
-3.9521 3.5425 -2.0339 0.9775
-4.7344 2.3987 -2.0339 0.9775
-5.0790 1.5401 -2.0339 0.9775
-5.1939 1.0914 -2.0339 0.9775
-5.2693 0.6346 -2.0339 0.9775
-5.2993 -0.2902 -2.0339 0.9775
-5.1684 -1.2062 -2.0338 0.9775
-5.0436 -1.6521 -2.0338 0.9775
-1.9518 4.5703 -2.0339 0.9788
-2.3427 4.3827 -2.0339 0.9788
-2.7158 4.1619 -2.0339 0.9788
-3.3973 3.6269 -2.0339 0.9788
-3.7005 3.3170 -2.0339 0.9788
-4.2203 2.6239 -2.0339 0.9788
-4.6118 1.8511 -2.0339 0.9788
-4.7556 1.4420 -2.0339 0.9788
-2.1218 -0.1162 -0.8697 0.9909
-2.1114 -0.3019 -0.8730 0.9908
-2.1189 -0.4945 -0.8905 0.9906
-4.7225 -1.5469 -2.0338 0.9788
-1.8329 4.2919 -2.0339 0.9798
-2.8814 3.6712 -2.0339 0.9798
-3.4751 3.1150 -2.0339 0.9798
-3.7334 2.8002 -2.0339 0.9798
-3.9633 2.4641 -2.0339 0.9798
-2.0675 0.6269 -0.9416 0.9906
-1.9056 0.2295 -0.8365 0.9917
-1.9177 -0.1050 -0.8370 0.9917
-1.9032 -0.2721 -0.8379 0.9916
-1.9009 -0.4436 -0.8507 0.9915
-1.7257 4.0410 -2.0339 0.9808
-2.0714 3.8752 -2.0339 0.9808
-2.4012 3.6798 -2.0339 0.9808
-2.7129 3.4565 -2.0339 0.9808
-3.0038 3.2069 -2.0339 0.9808
-3.2719 2.9328 -2.0339 0.9808
-3.5151 2.6364 -2.0339 0.9808
-3.7315 2.3200 -2.0339 0.9808
-3.9196 1.9859 -2.0339 0.9808
-4.0777 1.6367 -2.0339 0.9808
-1.5368 0.4660 -0.7433 0.9929
-1.5965 0.3354 -0.7551 0.9928
-1.5843 0.0516 -0.7337 0.9930
-1.5945 -0.0873 -0.7392 0.9930
-1.6106 -0.2303 -0.7531 0.9929
-1.5850 -0.3699 -0.7534 0.9929
-1.6318 -0.5345 -0.7948 0.9925
-1.9546 3.6568 -2.0339 0.9817
-2.2659 3.4725 -2.0339 0.9817
-2.8346 3.0262 -2.0339 0.9817
-3.3171 2.4879 -2.0339 0.9817
-1.7301 0.6944 -0.9145 0.9917
-1.2946 0.3925 -0.6636 0.9940
-1.3312 0.2797 -0.6672 0.9940
-1.3454 0.0438 -0.6603 0.9940
-1.3500 -0.0740 -0.6632 0.9940
-1.2829 -0.4202 -0.6622 0.9940
-1.8482 3.4576 -2.0339 0.9825
-2.1425 3.2833 -2.0339 0.9825
-2.6802 2.8613 -2.0339 0.9825
-2.9194 2.6168 -2.0339 0.9825
-3.1364 2.3524 -2.0339 0.9825
-3.4972 1.7719 -2.0339 0.9825
-1.1207 0.4498 -0.6265 0.9946
-1.1477 0.3480 -0.6222 0.9946
-1.1991 0.1444 -0.6266 0.9946
-1.1970 0.0390 -0.6213 0.9946
-1.1710 -0.2733 -0.6238 0.9946
-1.1400 -0.3734 -0.6223 0.9946
-2.7652 2.4786 -2.0339 0.9832
-3.1536 1.9607 -2.0339 0.9832
-1.0127 0.4064 -0.5977 0.9950
-1.0351 0.3138 -0.5924 0.9951
-1.0768 0.1296 -0.5941 0.9951
-1.0799 0.0352 -0.5918 0.9951
-1.0814 -0.0593 -0.5932 0.9951
-1.0495 -0.2450 -0.5903 0.9951
-1.0308 -0.3377 -0.5941 0.9951
-1.9252 2.9503 -2.0339 0.9839
-2.1750 2.7712 -2.0339 0.9839
-2.6232 2.3513 -2.0339 0.9839
-2.8182 2.1137 -2.0339 0.9839
-2.9917 1.8600 -2.0339 0.9839
-0.9109 0.4615 -0.5895 0.9953
-0.9379 0.3764 -0.5834 0.9953
-0.9558 0.2898 -0.5766 0.9954
-0.9730 0.2044 -0.5740 0.9954
-0.9838 -0.1407 -0.5738 0.9954
-0.9679 -0.2259 -0.5738 0.9954
-0.9522 -0.3119 -0.5785 0.9954
