ply
format ascii 1.0
element vertex 190
property float32 x
property float32 y
property float32 z
property float32 I
end_header
1.1938 18.5625 2.8495 0.9275
2.7400 17.4024 1.4913 0.9317
2.7692 17.5882 1.1041 0.9311
1.2090 18.7990 1.1681 0.9273
2.7213 17.2836 0.6899 0.9324
2.8080 17.8343 0.3050 0.9303
2.9158 18.5189 -0.1055 0.9278
13.6961 9.1137 -0.8343 0.9362
13.5892 9.0426 -1.1968 0.9366
13.3050 8.8535 -1.5343 0.9378
-0.9210 7.6599 -0.7407 0.9695
16.3009 5.2453 -2.0341 0.9333
15.0672 8.1376 -2.0341 0.9333
13.6363 9.0740 -1.9456 0.9362
9.8924 13.9780 -2.0341 0.9333
8.5672 14.8272 -2.0341 0.9333
7.1697 15.5512 -2.0341 0.9333
5.7116 16.1437 -2.0341 0.9333
4.2052 16.5999 -2.0341 0.9333
2.6634 16.9158 -2.0341 0.9333
1.0990 17.0888 -2.0341 0.9333
-0.4746 17.1174 -2.0341 0.9333
-0.9246 7.6897 -0.9200 0.9693
13.6657 4.3973 -2.0341 0.9437
11.9518 7.9530 -2.0341 0.9437
11.1711 9.0168 -2.0341 0.9437
10.2961 10.0043 -2.0341 0.9437
9.3341 10.9074 -2.0341 0.9437
6.0107 13.0372 -2.0341 0.9437
4.7882 13.5339 -2.0341 0.9437
3.5255 13.9163 -2.0341 0.9437
0.9214 14.3262 -2.0341 0.9437
-0.8930 7.4267 -1.0599 0.9702
11.7536 3.7820 -2.0340 0.9512
10.8639 5.8675 -2.0341 0.9512
9.6079 7.7551 -2.0341 0.9512
8.8553 8.6045 -2.0341 0.9512
8.0279 9.3812 -2.0341 0.9512
5.1696 11.2129 -2.0341 0.9512
-0.8868 7.3751 -1.2237 0.9703
9.5216 5.1425 -2.0340 0.9569
8.4209 6.7969 -2.0340 0.9569
7.7612 7.5413 -2.0341 0.9569
7.0361 8.2221 -2.0341 0.9569
4.5309 9.8275 -2.0340 0.9569
2.6575 10.4902 -2.0340 0.9569
-0.8801 7.3196 -1.3857 0.9704
9.1600 2.9475 -2.0340 0.9614
8.4666 4.5727 -2.0340 0.9614
7.4878 6.0439 -2.0340 0.9614
6.9013 6.7058 -2.0340 0.9614
5.5588 7.8546 -2.0340 0.9614
4.8141 8.3318 -2.0340 0.9614
3.2095 9.0716 -2.0340 0.9614
1.4966 9.5055 -2.0340 0.9614
0.6176 9.6027 -2.0340 0.9614
-0.2667 9.6188 -2.0340 0.9614
-0.8607 7.1583 -1.5240 0.9710
7.9603 3.3962 -2.0340 0.9651
7.2051 4.7945 -2.0340 0.9651
4.9995 7.0644 -2.0340 0.9651
3.6235 7.8595 -2.0340 0.9651
2.8866 8.1590 -2.0340 0.9651
1.3461 8.5492 -2.0340 0.9651
7.4782 2.4063 -2.0340 0.9681
7.2257 3.0827 -2.0340 0.9681
6.9121 3.7331 -2.0340 0.9681
6.1130 4.9341 -2.0340 0.9681
2.6202 7.4059 -2.0340 0.9681
1.9291 7.6152 -2.0340 0.9681
1.2218 7.7602 -2.0340 0.9681
0.5042 7.8395 -2.0340 0.9681
-0.2177 7.8527 -2.0340 0.9681
6.6086 2.8195 -2.0340 0.9706
6.3218 3.4143 -2.0340 0.9706
5.9816 3.9803 -2.0340 0.9706
5.5909 4.5127 -2.0340 0.9706
4.6715 5.4589 -2.0340 0.9706
3.5946 6.2211 -2.0340 0.9706
2.3964 6.7735 -2.0340 0.9706
1.7644 6.9649 -2.0340 0.9706
0.4611 7.1700 -2.0340 0.9706
-0.8577 7.1334 -2.0340 0.9706
6.2950 2.0256 -2.0340 0.9727
5.5054 3.6634 -2.0340 0.9727
5.1458 4.1534 -2.0340 0.9727
4.7428 4.6083 -2.0340 0.9727
4.2996 5.0244 -2.0340 0.9727
3.3084 5.7259 -2.0340 0.9727
2.7687 6.0054 -2.0340 0.9727
2.2056 6.2342 -2.0340 0.9727
1.6239 6.4104 -2.0340 0.9727
0.4245 6.5992 -2.0340 0.9727
-0.1833 6.6103 -2.0340 0.9727
5.8248 1.8743 -2.0340 0.9745
5.3839 2.9078 -2.0340 0.9745
4.7615 3.8432 -2.0340 0.9745
4.3886 4.2641 -2.0340 0.9745
3.9784 4.6490 -2.0340 0.9745
3.0612 5.2982 -2.0340 0.9745
2.5619 5.5569 -2.0340 0.9745
2.0409 5.7686 -2.0340 0.9745
1.5027 5.9316 -2.0340 0.9745
0.9517 6.0445 -2.0340 0.9745
0.3927 6.1063 -2.0340 0.9745
-0.1696 6.1165 -2.0340 0.9745
-0.7304 6.0752 -2.0340 0.9745
5.2315 2.2319 -2.0340 0.9761
4.7352 3.1509 -2.0340 0.9761
4.0793 3.9636 -2.0340 0.9761
3.2857 4.6427 -2.0340 0.9761
2.8455 4.9248 -2.0340 0.9761
2.3814 5.1652 -2.0340 0.9761
1.8971 5.3621 -2.0340 0.9761
1.3967 5.5136 -2.0340 0.9761
0.8846 5.6185 -2.0340 0.9761
-0.1576 5.6855 -2.0340 0.9761
-0.6789 5.6470 -2.0340 0.9761
4.8819 2.0828 -2.0340 0.9775
4.6700 2.5222 -2.0340 0.9775
4.4187 2.9403 -2.0340 0.9775
4.1301 3.3336 -2.0340 0.9775
3.8066 3.6988 -2.0340 0.9775
3.4509 4.0326 -2.0340 0.9775
3.0661 4.3324 -2.0340 0.9775
1.7703 5.0037 -2.0340 0.9775
0.8255 5.2430 -2.0340 0.9775
-0.1471 5.3055 -2.0340 0.9775
-0.6336 5.2696 -2.0340 0.9775
4.7308 1.5222 -2.0340 0.9787
4.5711 1.9502 -2.0340 0.9787
4.3727 2.3616 -2.0340 0.9787
4.1374 2.7531 -2.0340 0.9787
3.8671 3.1214 -2.0340 0.9787
3.5642 3.4632 -2.0340 0.9787
1.6576 4.6851 -2.0340 0.9787
0.7729 4.9092 -2.0340 0.9787
-0.5932 4.9341 -2.0340 0.9787
4.4427 1.4296 -2.0340 0.9798
4.1064 2.2178 -2.0340 0.9798
3.8854 2.5855 -2.0340 0.9798
3.6316 2.9312 -2.0340 0.9798
3.3471 3.2523 -2.0340 0.9798
1.9540 4.2382 -2.0340 0.9798
1.5566 4.3998 -2.0340 0.9798
1.1461 4.5241 -2.0340 0.9798
0.7259 4.6102 -2.0340 0.9798
4.1829 1.3459 -2.0340 0.9808
4.0417 1.7243 -2.0340 0.9808
3.8663 2.0881 -2.0340 0.9808
3.6582 2.4343 -2.0340 0.9808
3.4193 2.7598 -2.0340 0.9808
1.8397 3.9904 -2.0340 0.9808
1.0791 4.2595 -2.0340 0.9808
-0.1218 4.3924 -2.0339 0.9808
-0.5245 4.3626 -2.0339 0.9808
3.8139 1.6271 -2.0340 0.9817
3.6484 1.9704 -2.0340 0.9817
1.7361 3.7656 -2.0340 0.9817
0.2661 4.1379 -2.0339 0.9817
3.7322 1.2009 -2.0339 0.9825
3.6062 1.5385 -2.0339 0.9825
3.0509 2.4625 -2.0340 0.9825
2.8119 2.7322 -2.0340 0.9825
2.2649 3.2003 -2.0340 0.9825
1.6415 3.5605 -2.0340 0.9825
0.9629 3.8006 -2.0340 0.9825
0.2516 3.9125 -2.0339 0.9825
1.8870 0.6072 -1.0857 0.9910
3.4157 1.4573 -2.0339 0.9832
3.0917 2.0573 -2.0340 0.9832
2.4145 2.8215 -2.0340 0.9832
2.1453 3.0313 -2.0340 0.9832
1.8579 3.2154 -2.0340 0.9832
1.5548 3.3724 -2.0340 0.9832
1.2386 3.5009 -2.0340 0.9832
0.9120 3.5998 -2.0339 0.9832
-0.4433 3.6870 -2.0339 0.9832
1.7221 0.5541 -1.0445 0.9917
1.7671 0.7539 -1.1092 0.9912
3.0997 1.6741 -2.0339 0.9839
2.7413 2.2127 -2.0339 0.9839
2.5266 2.4550 -2.0339 0.9839
2.0351 2.8756 -2.0340 0.9839
1.7625 3.0503 -2.0339 0.9839
1.4750 3.1992 -2.0339 0.9839
1.1750 3.3212 -2.0339 0.9839
0.5479 3.4800 -2.0339 0.9839
0.2261 3.5156 -2.0339 0.9839
-0.4205 3.4977 -2.0339 0.9839
