ply
format ascii 1.0
element vertex 177
property float32 x
property float32 y
property float32 z
property float32 I
end_header
17.2484 -3.2797 -1.2874 0.9320
2.6460 -6.1321 -0.6412 0.9735
17.6189 -3.3502 -1.7218 0.9305
3.9031 -16.6703 -2.0337 0.9334
2.1543 -6.5298 -0.8168 0.9727
8.1491 -15.0579 -2.0338 0.9334
11.8219 -12.3859 -2.0339 0.9334
12.8725 -11.2903 -2.0339 0.9334
14.6630 -8.8421 -2.0339 0.9334
15.9934 -6.1163 -2.0340 0.9334
16.8219 -3.1986 -2.0340 0.9334
17.0393 -1.6962 -2.0340 0.9333
2.0216 -14.2106 -2.0338 0.9437
2.0412 -6.1871 -0.9231 0.9740
3.2350 -5.9777 -0.9630 0.9729
9.9109 -10.3838 -2.0339 0.9437
12.2927 -7.4128 -2.0339 0.9437
12.9011 -6.2950 -2.0339 0.9437
14.3547 -0.1512 -2.0340 0.9437
1.7387 -12.2224 -2.0338 0.9512
1.5132 -6.4629 -1.0935 0.9735
1.9824 -6.0088 -1.0424 0.9747
3.2089 -5.9294 -1.1107 0.9730
6.8146 -10.2947 -2.0338 0.9512
10.5727 -6.3756 -2.0339 0.9512
11.0960 -5.4142 -2.0339 0.9512
11.5319 -4.4102 -2.0340 0.9512
11.8773 -3.3715 -2.0340 0.9512
12.3461 -0.1301 -2.0340 0.9512
1.9639 -5.9527 -1.1782 0.9748
2.4824 -5.7529 -1.1777 0.9748
3.1666 -5.8512 -1.2505 0.9733
5.9728 -9.0229 -2.0339 0.9569
6.7484 -8.4585 -2.0339 0.9569
7.4711 -7.8276 -2.0339 0.9569
8.1351 -7.1352 -2.0339 0.9569
8.7351 -6.3866 -2.0339 0.9569
9.2665 -5.5879 -2.0339 0.9569
10.4099 -2.9550 -2.0340 0.9569
10.8207 -0.1140 -2.0340 0.9569
1.3552 -9.5257 -2.0338 0.9614
1.9514 -5.9145 -1.3165 0.9749
3.1124 -5.7511 -1.3823 0.9736
5.3110 -8.0232 -2.0339 0.9614
6.0008 -7.5214 -2.0339 0.9614
6.6434 -6.9604 -2.0339 0.9614
7.7673 -5.6791 -2.0339 0.9614
8.2398 -4.9688 -2.0339 0.9614
9.2566 -2.6276 -2.0340 0.9614
9.6219 -0.1013 -2.0340 0.9614
1.2188 -8.5674 -2.0338 0.9651
2.5017 -5.7977 -1.4840 0.9744
2.9980 -5.5398 -1.4804 0.9744
5.3971 -6.7647 -2.0339 0.9651
6.5061 -5.7064 -2.0339 0.9651
8.0832 -3.0913 -2.0339 0.9651
8.3254 -2.3632 -2.0339 0.9651
8.6539 -0.0912 -2.0340 0.9651
1.1063 -7.7768 -2.0338 0.9681
1.4110 -6.0261 -1.6025 0.9748
1.9227 -5.8275 -1.5888 0.9750
2.5411 -5.8891 -1.6607 0.9738
3.1419 -5.8055 -1.7092 0.9731
4.3360 -6.5502 -2.0339 0.9681
5.4237 -5.6824 -2.0339 0.9681
6.3412 -4.6364 -2.0339 0.9681
7.0598 -3.4448 -2.0339 0.9681
7.3373 -2.8060 -2.0339 0.9681
7.5570 -2.1452 -2.0339 0.9681
7.8170 -0.7781 -2.0340 0.9681
7.8552 -0.0827 -2.0340 0.9681
1.0118 -7.1127 -2.0338 0.9706
1.4442 -6.1681 -1.7934 0.9740
3.4052 -6.2922 -2.0254 0.9707
3.9657 -5.9908 -2.0339 0.9706
4.4807 -5.6161 -2.0339 0.9706
4.9605 -5.1972 -2.0339 0.9706
5.4013 -4.7374 -2.0339 0.9706
6.9116 -1.9620 -2.0339 0.9706
7.0583 -1.3421 -2.0339 0.9706
7.1844 -0.0757 -2.0340 0.9706
0.9313 -6.5465 -2.0338 0.9727
1.4689 -6.2739 -1.9819 0.9734
2.0718 -6.2795 -2.0338 0.9727
2.6198 -6.0713 -2.0339 0.9727
4.1240 -5.1690 -2.0339 0.9727
4.9713 -4.3603 -2.0339 0.9727
5.6627 -3.4148 -2.0339 0.9727
5.9430 -2.8998 -2.0339 0.9727
6.1765 -2.3621 -2.0339 0.9727
6.3614 -1.8058 -2.0339 0.9727
0.8618 -6.0576 -2.0338 0.9745
1.3949 -5.9575 -2.0338 0.9745
1.9170 -5.8105 -2.0339 0.9745
2.4241 -5.6179 -2.0339 0.9745
4.9393 -3.6114 -2.0339 0.9745
5.4991 -2.6833 -2.0339 0.9745
5.7152 -2.1857 -2.0339 0.9745
5.8863 -1.6709 -2.0339 0.9745
6.0112 -1.1430 -2.0339 0.9745
6.1186 -0.0645 -2.0340 0.9745
0.8010 -5.6307 -2.0338 0.9761
2.2533 -5.2220 -2.0339 0.9761
3.5471 -4.4459 -2.0339 0.9761
4.5912 -3.3569 -2.0339 0.9761
5.3124 -2.0316 -2.0339 0.9761
5.4714 -1.5532 -2.0339 0.9761
5.6874 -0.0599 -2.0339 0.9761
2.1027 -4.8730 -2.0339 0.9775
3.6645 -3.8393 -2.0339 0.9775
4.5450 -2.7408 -2.0339 0.9775
4.7700 -2.3275 -2.0339 0.9775
5.1058 -1.4494 -2.0339 0.9775
5.2814 -0.5257 -2.0339 0.9775
5.3072 -0.0559 -2.0339 0.9775
0.6999 -4.9199 -2.0339 0.9788
1.5570 -4.7192 -2.0339 0.9788
1.9688 -4.5628 -2.0339 0.9788
3.4312 -3.5949 -2.0339 0.9788
3.7361 -3.2769 -2.0339 0.9788
4.0116 -2.9331 -2.0339 0.9788
4.4663 -2.1793 -2.0339 0.9788
4.8821 -0.9283 -2.0339 0.9788
0.6573 -4.6203 -2.0339 0.9798
1.4621 -4.4318 -2.0339 0.9798
2.5760 -3.8915 -2.0339 0.9798
3.2222 -3.3759 -2.0339 0.9798
3.5086 -3.0773 -2.0339 0.9798
3.7673 -2.7545 -2.0339 0.9798
3.9965 -2.4100 -2.0339 0.9798
4.4896 -1.2744 -2.0339 0.9798
4.5848 -0.8718 -2.0339 0.9798
4.6667 -0.0492 -2.0339 0.9798
1.0017 -4.2782 -2.0339 0.9808
1.3767 -4.1727 -2.0339 0.9808
2.0913 -3.8643 -2.0339 0.9808
2.4254 -3.6639 -2.0339 0.9808
3.0337 -3.1785 -2.0339 0.9808
3.5471 -2.5934 -2.0339 0.9808
3.7629 -2.2690 -2.0339 0.9808
3.9490 -1.9269 -2.0339 0.9808
4.1042 -1.5696 -2.0339 0.9808
1.2991 -3.9376 -2.0339 0.9817
3.5508 -2.1412 -2.0339 0.9817
3.7265 -1.8183 -2.0339 0.9817
3.9889 -1.1323 -2.0339 0.9817
4.0735 -0.7746 -2.0339 0.9817
1.2284 -3.7231 -2.0339 0.9825
1.8660 -3.4480 -2.0339 0.9825
2.4451 -3.0646 -2.0339 0.9825
3.3574 -2.0246 -2.0339 0.9825
3.5236 -1.7193 -2.0339 0.9825
3.6619 -1.4005 -2.0339 0.9825
3.7716 -1.0706 -2.0339 0.9825
2.1052 -0.4003 -1.1117 0.9904
2.0755 -0.2066 -1.0820 0.9906
2.0726 -0.0219 -1.0753 0.9907
0.8466 -3.6157 -2.0339 0.9832
1.1635 -3.5265 -2.0339 0.9832
1.4712 -3.4096 -2.0339 0.9832
2.0497 -3.0965 -2.0339 0.9832
2.3160 -2.9028 -2.0339 0.9832
2.7918 -2.4487 -2.0339 0.9832
1.8492 -0.1841 -1.0178 0.9916
1.8511 -0.0195 -1.0139 0.9916
0.4962 -3.4877 -2.0339 0.9839
1.1037 -3.3454 -2.0339 0.9839
1.3957 -3.2345 -2.0339 0.9839
1.6767 -3.0982 -2.0339 0.9839
1.9445 -2.9375 -2.0339 0.9839
2.1970 -2.7538 -2.0339 0.9839
2.4323 -2.5484 -2.0339 0.9839
3.0168 -1.8192 -2.0339 0.9839
3.1661 -1.5448 -2.0339 0.9839
1.7122 -0.4860 -1.0276 0.9918
1.7138 -0.3259 -1.0071 0.9920
1.7201 -0.1713 -0.9980 0.9920
