ply
format ascii 1.0
element vertex 224
property float32 x
property float32 y
property float32 z
property float32 I
end_header
2.2038 18.4397 3.2745 0.9273
2.1102 17.6558 2.7240 0.9306
-11.9389 12.2930 2.6252 0.9330
3.9946 18.9338 2.5198 0.9249
2.1416 17.9191 2.3500 0.9298
-11.2032 13.8026 2.3149 0.9308
-11.6623 12.0081 2.1798 0.9347
-11.4600 14.1191 1.9527 0.9295
3.7081 17.5763 1.5206 0.9304
-4.6535 19.2704 1.6782 0.9235
-11.2649 13.8787 1.5132 0.9308
3.7663 17.8523 1.1314 0.9295
2.1084 17.6417 1.1018 0.9313
2.1600 18.0734 0.7177 0.9297
-4.6701 19.3390 0.7845 0.9234
2.2126 18.5135 0.3150 0.9281
3.7943 17.9846 -0.1035 0.9291
-16.3973 6.0812 -1.2823 0.9323
-17.5591 4.7872 -1.3345 0.9296
-16.3379 6.0591 -1.6729 0.9324
3.5349 16.7554 -2.0341 0.9333
2.0321 17.0031 -2.0341 0.9333
-1.1381 7.6351 -0.9170 0.9694
-1.7776 7.3612 -0.8995 0.9700
-5.4826 16.2221 -2.0340 0.9333
-9.5670 14.2011 -2.0340 0.9334
-10.7909 13.2947 -2.0340 0.9334
-11.9293 12.2831 -2.0339 0.9334
-15.4610 7.3565 -2.0338 0.9334
-16.5187 4.5035 -2.0338 0.9334
1.7036 14.2544 -2.0341 0.9437
-0.8464 14.3307 -2.0341 0.9437
-1.1029 7.3986 -1.0599 0.9702
-1.7384 7.1988 -1.0493 0.9705
-4.5963 13.5997 -2.0340 0.9437
-6.9309 12.5712 -2.0340 0.9437
-10.8764 9.3681 -2.0339 0.9437
-11.6657 8.3646 -2.0339 0.9437
-12.9619 6.1674 -2.0339 0.9437
-13.4585 4.9913 -2.0338 0.9437
2.5488 12.0812 -2.0341 0.9512
1.4652 12.2598 -2.0340 0.9512
0.3700 12.3415 -2.0340 0.9512
-4.9768 11.2992 -2.0340 0.9512
-8.6017 8.8568 -2.0339 0.9512
-9.3546 8.0574 -2.0339 0.9512
-10.0335 7.1942 -2.0339 0.9512
-11.1483 5.3045 -2.0339 0.9512
-11.5755 4.2929 -2.0338 0.9512
1.2842 10.7451 -2.0340 0.9569
-0.4426 7.4931 -1.4109 0.9699
-1.0678 7.1633 -1.3613 0.9710
-1.7248 7.1423 -1.3811 0.9705
-2.4314 7.1942 -1.4274 0.9696
-4.3620 9.9031 -2.0340 0.9569
-7.5390 7.7625 -2.0339 0.9569
-8.1989 7.0619 -2.0339 0.9569
-8.7939 6.3054 -2.0339 0.9569
-9.7710 4.6492 -2.0339 0.9569
-10.1454 3.7625 -2.0339 0.9569
1.9864 9.4153 -2.0340 0.9614
1.1419 9.5546 -2.0340 0.9614
-1.0789 7.2378 -1.5468 0.9705
-1.7280 7.1558 -1.5561 0.9704
-2.4396 7.2182 -1.6106 0.9693
-6.0639 7.4709 -2.0339 0.9614
-7.2905 6.2795 -2.0339 0.9614
-8.2868 4.8898 -2.0339 0.9614
-8.6885 4.1341 -2.0339 0.9614
-9.2829 2.5309 -2.0338 0.9614
1.7865 8.4681 -2.0340 0.9651
1.0270 8.5933 -2.0340 0.9651
-0.4469 7.5653 -1.7811 0.9693
-1.0830 7.2652 -1.7264 0.9703
-1.7401 7.2060 -1.7423 0.9700
-2.7710 8.1987 -2.0340 0.9651
-3.4885 7.9201 -2.0340 0.9651
-6.0294 6.2081 -2.0339 0.9651
-6.5571 5.6478 -2.0339 0.9651
-7.0329 5.0428 -2.0339 0.9651
-7.4532 4.3979 -2.0339 0.9651
-7.8144 3.7182 -2.0339 0.9651
-8.1139 3.0091 -2.0339 0.9651
-8.3491 2.2762 -2.0339 0.9651
1.6216 7.6866 -2.0340 0.9681
0.9322 7.8002 -2.0340 0.9681
0.2355 7.8522 -2.0340 0.9681
-2.5152 7.4421 -2.0340 0.9681
-4.3891 6.5150 -2.0339 0.9681
-5.4729 5.6352 -2.0339 0.9681
-7.0932 3.3750 -2.0339 0.9681
-7.3650 2.7314 -2.0339 0.9681
1.4832 7.0302 -2.0340 0.9706
0.8527 7.1341 -2.0340 0.9706
0.2154 7.1816 -2.0340 0.9706
-1.6865 6.9840 -2.0340 0.9706
-3.4689 6.2918 -2.0339 0.9706
-4.0142 5.9587 -2.0339 0.9706
-4.5278 5.5784 -2.0339 0.9706
-5.4437 4.6888 -2.0339 0.9706
-5.8387 4.1865 -2.0339 0.9706
-6.1876 3.6511 -2.0339 0.9706
0.7848 6.5662 -2.0340 0.9727
-0.3899 6.6013 -2.0340 0.9727
-0.9750 6.5405 -2.0340 0.9727
-2.6655 6.0517 -2.0339 0.9727
-3.1928 5.7909 -2.0339 0.9727
-4.6071 4.7437 -2.0339 0.9727
-5.6951 3.3604 -2.0339 0.9727
-5.9711 2.8411 -2.0339 0.9727
-6.1999 2.2993 -2.0339 0.9727
1.2631 5.9872 -2.0340 0.9745
0.1834 6.1162 -2.0340 0.9745
-0.3608 6.1083 -2.0340 0.9745
-0.9021 6.0520 -2.0340 0.9745
-1.4363 5.9479 -2.0340 0.9745
-1.9591 5.7968 -2.0339 0.9745
-2.4664 5.5997 -2.0339 0.9745
-2.9543 5.3584 -2.0339 0.9745
-3.4187 5.0747 -2.0339 0.9745
-3.8561 4.7508 -2.0339 0.9745
-4.2630 4.3894 -2.0339 0.9745
-4.6361 3.9932 -2.0339 0.9745
-4.9726 3.5654 -2.0339 0.9745
-5.5251 2.6289 -2.0339 0.9745
0.6750 5.6475 -2.0340 0.9761
0.1705 5.6852 -2.0340 0.9761
-0.8386 5.6255 -2.0340 0.9761
-2.2927 5.2051 -2.0339 0.9761
-2.7461 4.9808 -2.0339 0.9761
-3.1778 4.7171 -2.0339 0.9761
-3.5843 4.4160 -2.0339 0.9761
-3.9625 4.0800 -2.0339 0.9761
-5.4871 1.4960 -2.0339 0.9761
1.0957 5.1933 -2.0340 0.9775
0.1591 5.3052 -2.0340 0.9775
-2.1394 4.8572 -2.0339 0.9775
-2.9654 4.4018 -2.0339 0.9775
-3.3448 4.1209 -2.0339 0.9775
-3.6977 3.8074 -2.0339 0.9775
-4.0214 3.4637 -2.0339 0.9775
-4.5710 2.6972 -2.0339 0.9775
-4.7925 2.2803 -2.0339 0.9775
-4.9762 1.8455 -2.0339 0.9775
-5.1204 1.3960 -2.0339 0.9775
0.5898 4.9346 -2.0340 0.9787
-1.5912 4.7080 -2.0339 0.9788
-2.0032 4.5480 -2.0339 0.9788
-2.3994 4.3520 -2.0339 0.9788
-2.7766 4.1215 -2.0339 0.9788
-3.1318 3.8585 -2.0339 0.9788
-3.4623 3.5649 -2.0339 0.9788
-3.7654 3.2432 -2.0339 0.9788
-4.4874 2.1352 -2.0339 0.9788
-4.6593 1.7280 -2.0339 0.9788
-4.7945 1.3071 -2.0339 0.9788
0.1398 4.6649 -2.0340 0.9798
-0.2752 4.6588 -2.0340 0.9798
-0.6881 4.6160 -2.0339 0.9798
-1.8812 4.2710 -2.0339 0.9798
-2.2532 4.0869 -2.0339 0.9798
-2.6075 3.8705 -2.0339 0.9798
-2.9411 3.6235 -2.0339 0.9798
-3.2514 3.3479 -2.0339 0.9798
-3.7927 2.7194 -2.0339 0.9798
-4.0193 2.3717 -2.0339 0.9798
0.9071 4.2994 -2.0340 0.9808
0.5214 4.3630 -2.0340 0.9808
0.1316 4.3921 -2.0340 0.9808
-0.6479 4.3460 -2.0339 0.9808
-1.0314 4.2712 -2.0339 0.9808
-1.4069 4.1627 -2.0339 0.9808
-1.7712 4.0212 -2.0339 0.9808
-2.1215 3.8479 -2.0339 0.9808
-2.7691 3.4116 -2.0339 0.9808
-3.0613 3.1521 -2.0339 0.9808
-4.1197 1.5278 -2.0339 0.9808
0.8560 4.0572 -2.0340 0.9817
0.4921 4.1172 -2.0340 0.9817
0.1243 4.1446 -2.0339 0.9817
-0.6113 4.1011 -2.0339 0.9817
-0.9733 4.0306 -2.0339 0.9817
-1.6714 3.7946 -2.0339 0.9817
-2.0020 3.6311 -2.0339 0.9817
-2.3167 3.4388 -2.0339 0.9817
-2.6131 3.2194 -2.0339 0.9817
-2.8888 2.9745 -2.0339 0.9817
-3.3697 2.4162 -2.0339 0.9817
-1.2607 0.4675 -0.6596 0.9940
-1.3077 0.3565 -0.6649 0.9940
0.8093 3.8362 -2.0340 0.9825
0.4653 3.8929 -2.0339 0.9825
0.1175 3.9188 -2.0339 0.9825
-1.5804 3.5879 -2.0339 0.9825
-2.4707 3.0440 -2.0339 0.9825
-2.9705 2.5586 -2.0339 0.9825
-3.1861 2.2846 -2.0339 0.9825
-3.3765 1.9924 -2.0339 0.9825
-3.5402 1.6845 -2.0339 0.9825
-1.1591 0.3160 -0.6232 0.9946
0.7666 3.6336 -2.0339 0.9832
0.1113 3.7119 -2.0339 0.9832
-1.4969 3.3985 -2.0339 0.9832
-1.7930 3.2520 -2.0339 0.9832
-2.0748 3.0798 -2.0339 0.9832
-2.3403 2.8833 -2.0339 0.9832
-2.5872 2.6639 -2.0339 0.9832
-2.8137 2.4235 -2.0339 0.9832
-1.0211 0.3787 -0.5965 0.9950
-1.0393 0.2833 -0.5900 0.9951
0.4181 3.4980 -2.0339 0.9839
0.1056 3.5213 -2.0339 0.9839
-0.2077 3.5167 -2.0339 0.9839
-0.5194 3.4844 -2.0339 0.9839
-0.8269 3.4244 -2.0339 0.9839
-1.1280 3.3374 -2.0339 0.9839
-1.9682 2.9217 -2.0339 0.9839
-2.2201 2.7352 -2.0339 0.9839
-2.6692 2.2991 -2.0339 0.9839
-2.8629 2.0528 -2.0339 0.9839
-3.0340 1.7903 -2.0339 0.9839
-0.9188 0.4371 -0.5875 0.9953
-0.9444 0.3502 -0.5815 0.9954
-0.9593 0.2615 -0.5741 0.9954
