ply
format ascii 1.0
element vertex 182
property float32 x
property float32 y
property float32 z
property float32 I
end_header
2.3618 17.3908 1.0883 0.9321
2.4919 18.3481 0.7301 0.9286
2.4173 17.7988 0.3034 0.9307
2.5052 18.4459 -0.1048 0.9282
13.5793 9.4613 -0.8393 0.9359
13.3718 9.3167 -1.1950 0.9367
13.1277 9.1466 -1.5361 0.9377
16.1846 5.5939 -2.0341 0.9333
15.6029 7.0560 -2.0341 0.9333
14.8895 8.4584 -2.0341 0.9333
13.3157 9.2777 -1.9278 0.9367
13.0924 11.0378 -2.0341 0.9333
9.5925 14.1856 -2.0341 0.9333
6.8376 15.7000 -2.0341 0.9333
5.3676 16.2613 -2.0341 0.9333
2.3045 16.9684 -2.0341 0.9333
13.9414 3.4244 -2.0341 0.9437
13.0806 5.9153 -2.0341 0.9437
11.7789 8.2068 -2.0341 0.9437
10.0802 10.2219 -2.0341 0.9437
9.0994 11.1040 -2.0341 0.9437
8.0418 11.8923 -2.0341 0.9437
6.9162 12.5803 -2.0341 0.9437
4.4999 13.6325 -2.0341 0.9437
1.9320 14.2253 -2.0341 0.9437
-0.7010 14.3386 -2.0341 0.9437
11.2503 5.0876 -2.0341 0.9512
10.7358 6.0988 -2.0341 0.9512
10.1307 7.0585 -2.0341 0.9512
9.4400 7.9586 -2.0341 0.9512
7.8261 9.5502 -2.0341 0.9512
5.9484 10.8199 -2.0341 0.9512
4.9302 11.3202 -2.0341 0.9512
3.8702 11.7249 -2.0341 0.9512
1.6616 12.2348 -2.0341 0.9512
-0.6029 12.3322 -2.0340 0.9512
9.8602 4.4590 -2.0340 0.9569
7.5985 7.7053 -2.0341 0.9569
6.0619 8.9645 -2.0341 0.9569
8.7677 3.9650 -2.0340 0.9614
7.8952 5.5009 -2.0340 0.9614
6.7566 6.8515 -2.0340 0.9614
6.0992 7.4428 -2.0340 0.9614
5.3903 7.9712 -2.0340 0.9614
4.6358 8.4323 -2.0340 0.9614
2.1647 9.3759 -2.0340 0.9614
1.2950 9.5350 -2.0340 0.9614
8.4046 2.0644 -2.0340 0.9651
8.1797 2.8272 -2.0340 0.9651
7.8857 3.5660 -2.0340 0.9651
7.5250 4.2748 -2.0340 0.9651
7.1009 4.9475 -2.0340 0.9651
6.6168 5.5784 -2.0340 0.9651
6.0768 6.1622 -2.0340 0.9651
5.4855 6.6940 -2.0340 0.9651
4.8480 7.1693 -2.0340 0.9651
3.4557 7.9347 -2.0340 0.9651
2.7128 8.2184 -2.0340 0.9651
1.9470 8.4327 -2.0340 0.9651
1.1647 8.5758 -2.0340 0.9651
0.3726 8.6464 -2.0340 0.9651
-0.3708 7.5835 -1.7844 0.9693
7.1579 3.2369 -2.0340 0.9681
6.4456 4.4909 -2.0340 0.9681
5.5160 5.5935 -2.0340 0.9681
1.7673 7.6544 -2.0340 0.9681
1.0572 7.7843 -2.0340 0.9681
6.9775 1.7138 -2.0340 0.9706
6.5466 2.9605 -2.0340 0.9706
6.2472 3.5489 -2.0340 0.9706
5.8951 4.1074 -2.0340 0.9706
5.4932 4.6311 -2.0340 0.9706
4.0247 5.9518 -2.0340 0.9706
2.2521 6.8228 -2.0340 0.9706
1.6164 7.0007 -2.0340 0.9706
0.9669 7.1195 -2.0340 0.9706
-0.3509 7.1762 -2.0340 0.9706
6.2501 2.1602 -2.0340 0.9727
5.7499 3.2664 -2.0340 0.9727
5.4258 3.7804 -2.0340 0.9727
3.7043 5.4780 -2.0340 0.9727
2.6405 6.0629 -2.0340 0.9727
2.0728 6.2796 -2.0340 0.9727
1.4877 6.4434 -2.0340 0.9727
0.8900 6.5528 -2.0340 0.9727
5.9423 1.4596 -2.0340 0.9745
5.7832 1.9989 -2.0340 0.9745
5.0205 3.4980 -2.0340 0.9745
4.6782 3.9441 -2.0340 0.9745
4.2965 4.3569 -2.0340 0.9745
3.8784 4.7329 -2.0340 0.9745
3.4276 5.0689 -2.0340 0.9745
2.9479 5.3621 -2.0340 0.9745
2.4433 5.6100 -2.0340 0.9745
1.9179 5.8106 -2.0340 0.9745
1.3766 5.9621 -2.0340 0.9745
0.8235 6.0633 -2.0340 0.9745
-0.2988 6.1116 -2.0340 0.9745
5.3757 1.8580 -2.0340 0.9761
5.1825 2.3436 -2.0340 0.9761
4.6667 3.2515 -2.0340 0.9761
4.3486 3.6661 -2.0340 0.9761
3.9937 4.0498 -2.0340 0.9761
3.1861 4.7116 -2.0340 0.9761
2.2711 5.2146 -2.0340 0.9761
1.7828 5.4011 -2.0340 0.9761
0.7655 5.6360 -2.0340 0.9761
0.2448 5.6824 -2.0340 0.9761
4.6149 2.6216 -2.0340 0.9775
4.3548 3.0342 -2.0340 0.9775
4.0579 3.4211 -2.0340 0.9775
3.3641 4.1053 -2.0340 0.9775
2.9731 4.3968 -2.0340 0.9775
2.1193 4.8661 -2.0340 0.9775
1.6637 5.0401 -2.0340 0.9775
1.1940 5.1716 -2.0340 0.9775
0.7143 5.2593 -2.0340 0.9775
0.2285 5.3027 -2.0340 0.9775
-0.2592 5.3012 -2.0340 0.9775
4.8262 1.1854 -2.0340 0.9787
4.6971 1.6234 -2.0340 0.9787
4.5282 2.0477 -2.0340 0.9787
4.3211 2.4547 -2.0340 0.9787
4.0775 2.8410 -2.0340 0.9787
3.7996 3.2033 -2.0340 0.9787
2.3942 4.3550 -2.0340 0.9787
1.9843 4.5563 -2.0340 0.9787
0.6688 4.9244 -2.0340 0.9787
0.2139 4.9651 -2.0340 0.9787
-0.2427 4.9637 -2.0340 0.9787
4.4110 1.5246 -2.0340 0.9798
3.5682 3.0082 -2.0340 0.9798
3.2770 3.3230 -2.0340 0.9798
2.9581 3.6098 -2.0340 0.9798
2.6143 3.8661 -2.0340 0.9798
2.2484 4.0897 -2.0340 0.9798
1.8635 4.2788 -2.0340 0.9798
1.4629 4.4318 -2.0340 0.9798
1.0499 4.5474 -2.0340 0.9798
0.6280 4.6245 -2.0340 0.9798
0.2009 4.6627 -2.0340 0.9798
4.2672 1.0481 -2.0339 0.9808
4.0037 1.8105 -2.0340 0.9808
3.6053 2.5120 -2.0340 0.9808
3.3595 2.8323 -2.0340 0.9808
2.7852 3.3987 -2.0340 0.9808
2.4614 3.6400 -2.0340 0.9808
2.1169 3.8505 -2.0340 0.9808
1.7545 4.0286 -2.0340 0.9808
1.3774 4.1727 -2.0340 0.9808
0.1892 4.3900 -2.0340 0.9808
-0.2146 4.3888 -2.0339 0.9808
3.7782 1.7085 -2.0340 0.9817
3.6054 2.0481 -2.0340 0.9817
3.1702 2.6727 -2.0340 0.9817
2.6282 3.2072 -2.0340 0.9817
1.9976 3.6336 -2.0340 0.9817
0.9328 4.0402 -2.0340 0.9817
3.7056 1.2808 -2.0339 0.9825
3.5724 1.6155 -2.0339 0.9825
3.4090 1.9366 -2.0340 0.9825
2.4850 3.0325 -2.0340 0.9825
1.2289 3.7230 -2.0340 0.9825
0.8820 3.8201 -2.0340 0.9825
0.1688 3.9170 -2.0339 0.9825
1.9350 0.6688 -1.1213 0.9907
3.2289 1.8343 -2.0339 0.9832
3.0469 2.1229 -2.0340 0.9832
2.6075 2.6442 -2.0340 0.9832
2.3538 2.8723 -2.0340 0.9832
2.0802 3.0762 -2.0340 0.9832
1.7891 3.2542 -2.0340 0.9832
1.4828 3.4047 -2.0340 0.9832
0.8355 3.6184 -2.0339 0.9832
-0.1813 3.7091 -2.0339 0.9832
1.7143 0.4211 -1.0192 0.9919
1.7809 0.8054 -1.1285 0.9910
2.4736 2.5084 -2.0339 0.9839
1.9734 2.9183 -2.0340 0.9839
1.6972 3.0871 -2.0339 0.9839
0.4741 3.4908 -2.0339 0.9839
0.1516 3.5196 -2.0339 0.9839
