ply
format ascii 1.0
element vertex 172
property float32 x
property float32 y
property float32 z
property float32 I
end_header
2.7053 -6.1761 -0.6473 0.9733
-10.4305 -13.5761 -2.0337 0.9334
-9.1827 -14.4495 -2.0337 0.9334
-7.8620 -15.2084 -2.0337 0.9334
-6.4793 -15.8471 -2.0337 0.9334
-5.0451 -16.3603 -2.0337 0.9334
2.4885 -16.9392 -2.0337 0.9334
3.9842 -16.6511 -2.0337 0.9334
2.1854 -6.5104 -0.8158 0.9727
8.2363 -15.0104 -2.0338 0.9334
10.7641 -13.3152 -2.0338 0.9334
-9.7217 -10.5596 -2.0337 0.9437
-8.7447 -11.3818 -2.0337 0.9437
-5.4320 -13.2858 -2.0337 0.9437
-1.7344 -14.2483 -2.0337 0.9437
2.0863 -14.2013 -2.0338 0.9437
1.5661 -6.5454 -0.9536 0.9732
6.9051 -12.5841 -2.0338 0.9437
-8.3616 -9.0822 -2.0337 0.9512
-7.5212 -9.7895 -2.0337 0.9512
-6.6214 -10.4192 -2.0337 0.9512
-5.6691 -10.9665 -2.0337 0.9512
-3.6379 -11.7970 -2.0337 0.9512
-2.5750 -12.0737 -2.0337 0.9512
-1.4917 -12.2548 -2.0338 0.9512
-0.3966 -12.3390 -2.0338 0.9512
0.7016 -12.3255 -2.0338 0.9512
2.0021 -5.9644 -1.0365 0.9748
6.8775 -10.2528 -2.0338 0.9512
7.7616 -9.6011 -2.0339 0.9512
-6.5921 -8.5801 -2.0337 0.9569
-4.0949 -10.0154 -2.0338 0.9569
-2.2569 -10.5822 -2.0338 0.9569
-1.3074 -10.7409 -2.0338 0.9569
1.5727 -10.7054 -2.0338 0.9569
1.9932 -5.9379 -1.1773 0.9748
-5.8618 -7.6296 -2.0338 0.9614
-2.0069 -9.4098 -2.0338 0.9614
-0.3091 -9.6166 -2.0338 0.9614
0.5469 -9.6060 -2.0338 0.9614
1.3985 -9.5194 -2.0338 0.9614
2.5625 -5.8500 -1.3500 0.9742
-5.8612 -6.3663 -2.0338 0.9651
-5.2721 -6.8621 -2.0338 0.9651
-4.6414 -7.3035 -2.0338 0.9651
-3.2749 -8.0099 -2.0338 0.9651
-1.8050 -8.4633 -2.0338 0.9651
1.9656 -5.8557 -1.4517 0.9749
3.0406 -5.5414 -1.4855 0.9744
5.4405 -6.7299 -2.0339 0.9651
-5.3203 -5.7788 -2.0338 0.9681
-4.7856 -6.2288 -2.0338 0.9681
-1.6384 -7.6822 -2.0338 0.9681
-0.9491 -7.7975 -2.0338 0.9681
-0.2523 -7.8510 -2.0338 0.9681
1.4366 -6.0042 -1.5985 0.9748
2.5612 -5.8473 -1.6528 0.9740
4.3759 -6.5235 -2.0339 0.9681
-4.8660 -5.2854 -2.0338 0.9706
-4.3770 -5.6970 -2.0338 0.9706
-2.7189 -6.6499 -2.0338 0.9706
-2.1170 -6.8653 -2.0338 0.9706
-1.4985 -7.0262 -2.0338 0.9706
-0.8681 -7.1316 -2.0338 0.9706
-0.2308 -7.1806 -2.0338 0.9706
0.4083 -7.1727 -2.0338 0.9706
1.4414 -6.0242 -1.7535 0.9746
1.9858 -5.9159 -1.7666 0.9744
3.2727 -5.9644 -1.9260 0.9721
-4.4786 -4.8646 -2.0338 0.9727
-4.0286 -5.2435 -2.0338 0.9727
-1.9485 -6.3187 -2.0338 0.9727
-0.2124 -6.6090 -2.0338 0.9727
0.3758 -6.6017 -2.0338 0.9727
0.9611 -6.5422 -2.0338 0.9727
3.1809 -5.7971 -2.0339 0.9727
3.6836 -5.4915 -2.0339 0.9727
-4.1442 -4.5013 -2.0338 0.9745
-3.7277 -4.8519 -2.0338 0.9745
-2.3155 -5.6634 -2.0338 0.9745
-1.2763 -5.9839 -2.0338 0.9745
-0.7393 -6.0737 -2.0338 0.9745
-0.1966 -6.1154 -2.0338 0.9745
0.8893 -6.0536 -2.0338 0.9745
1.9471 -5.8005 -2.0339 0.9745
2.9434 -5.3642 -2.0339 0.9745
3.4085 -5.0813 -2.0339 0.9745
3.8467 -4.7583 -2.0339 0.9745
-3.8521 -4.1841 -2.0338 0.9761
-3.4650 -4.5099 -2.0338 0.9761
-2.1524 -5.2643 -2.0338 0.9761
-1.6759 -5.4348 -2.0338 0.9761
-0.6873 -5.6457 -2.0338 0.9761
0.3233 -5.6782 -2.0338 0.9761
1.8098 -5.3917 -2.0339 0.9761
2.7359 -4.9862 -2.0339 0.9761
3.1683 -4.7232 -2.0339 0.9761
-3.5947 -3.9045 -2.0338 0.9775
-3.2334 -4.2085 -2.0338 0.9775
-2.4372 -4.7145 -2.0338 0.9775
-2.0085 -4.9125 -2.0338 0.9775
0.3016 -5.2987 -2.0338 0.9775
2.1294 -4.8614 -2.0339 0.9775
2.5531 -4.6529 -2.0339 0.9775
2.9566 -4.4076 -2.0339 0.9775
3.3366 -4.1274 -2.0339 0.9775
-3.3659 -3.6559 -2.0338 0.9788
-3.0276 -3.9406 -2.0338 0.9788
-2.6654 -4.1941 -2.0338 0.9788
-1.8806 -4.5998 -2.0338 0.9788
-1.4644 -4.7487 -2.0338 0.9788
-1.0366 -4.8601 -2.0338 0.9788
0.2825 -4.9614 -2.0338 0.9788
0.7223 -4.9166 -2.0339 0.9788
2.3905 -4.3567 -2.0339 0.9788
2.7683 -4.1270 -2.0339 0.9788
3.1242 -3.8646 -2.0339 0.9788
-3.1609 -3.4333 -2.0338 0.9798
-2.8432 -3.7006 -2.0338 0.9798
-2.5030 -3.9387 -2.0338 0.9798
-0.5639 -4.6325 -2.0338 0.9798
0.6783 -4.6172 -2.0339 0.9798
1.0860 -4.5387 -2.0339 0.9798
1.4851 -4.4242 -2.0339 0.9798
2.5997 -3.8756 -2.0339 0.9798
2.9339 -3.6293 -2.0339 0.9798
-2.9760 -3.2325 -2.0338 0.9808
-2.6769 -3.4842 -2.0338 0.9808
-2.0177 -3.9032 -2.0338 0.9808
-1.6629 -4.0671 -2.0338 0.9808
-0.5309 -4.3617 -2.0338 0.9808
-0.1412 -4.3916 -2.0338 0.9808
0.6386 -4.3472 -2.0339 0.9808
1.3982 -4.1655 -2.0339 0.9808
2.1137 -3.8521 -2.0339 0.9808
2.4477 -3.6490 -2.0339 0.9808
-2.8084 -3.0504 -2.0338 0.9817
-0.8648 -4.0551 -2.0338 0.9817
-0.1332 -4.1442 -2.0339 0.9817
0.2357 -4.1396 -2.0339 0.9817
0.6027 -4.1023 -2.0339 0.9817
2.6067 -3.2245 -2.0339 0.9817
-2.3885 -3.1088 -2.0338 0.9825
-1.8004 -3.4826 -2.0338 0.9825
-1.4837 -3.6289 -2.0338 0.9825
-0.8177 -3.8343 -2.0339 0.9825
-0.1259 -3.9185 -2.0339 0.9825
0.9123 -3.8129 -2.0339 0.9825
1.5730 -3.5911 -2.0339 0.9825
1.8859 -3.4371 -2.0339 0.9825
-2.2624 -2.9447 -2.0338 0.9832
-1.7053 -3.2987 -2.0338 0.9832
-1.4054 -3.4373 -2.0338 0.9832
-1.0943 -3.5485 -2.0339 0.9832
-0.7746 -3.6318 -2.0339 0.9832
-0.1193 -3.7115 -2.0339 0.9832
0.8641 -3.6115 -2.0339 0.9832
1.1818 -3.5204 -2.0339 0.9832
1.4900 -3.4014 -2.0339 0.9832
1.7863 -3.2556 -2.0339 0.9832
2.0687 -3.0839 -2.0339 0.9832
2.3346 -2.8879 -2.0339 0.9832
-2.3860 -2.5917 -2.0339 0.9839
-1.6177 -3.1293 -2.0339 0.9839
-1.3332 -3.2607 -2.0339 0.9839
-0.7348 -3.4453 -2.0339 0.9839
-0.4257 -3.4970 -2.0339 0.9839
-0.1132 -3.5209 -2.0339 0.9839
0.2002 -3.5171 -2.0339 0.9839
1.1210 -3.3396 -2.0339 0.9839
1.6946 -3.0884 -2.0339 0.9839
1.9625 -2.9256 -2.0339 0.9839
