ply
format ascii 1.0
element vertex 169
property float32 x
property float32 y
property float32 z
property float32 I
end_header
-12.9539 -8.2802 -0.7797 0.9403
-12.0360 -7.6936 -1.3714 0.9442
-11.5294 -8.8819 -1.3972 0.9432
-12.2533 -7.8324 -1.7275 0.9431
-9.1484 -14.4711 -2.0337 0.9334
-6.4843 -15.8450 -2.0337 0.9334
-3.6212 -16.7332 -2.0337 0.9334
-2.1424 -16.9861 -2.0337 0.9334
-0.6471 -17.1086 -2.0337 0.9334
0.8532 -17.0996 -2.0337 0.9334
3.8227 -16.6889 -2.0337 0.9334
-12.7241 -6.6420 -2.0337 0.9437
-4.2523 -13.7090 -2.0337 0.9437
-3.0359 -14.0287 -2.0337 0.9437
-1.7961 -14.2407 -2.0337 0.9437
-0.5425 -14.3433 -2.0337 0.9437
1.5014 -6.5547 -0.9528 0.9732
-10.9439 -5.7127 -2.0337 0.9512
-10.4018 -6.6489 -2.0337 0.9512
-9.7797 -7.5340 -2.0337 0.9512
-9.0826 -8.3612 -2.0337 0.9512
-8.3157 -9.1242 -2.0337 0.9512
-6.5968 -10.4348 -2.0337 0.9512
-5.6579 -10.9722 -2.0337 0.9512
-4.6756 -11.4255 -2.0337 0.9512
-2.6111 -12.0659 -2.0337 0.9512
-1.5448 -12.2483 -2.0338 0.9512
0.6152 -12.3300 -2.0338 0.9512
1.5194 -6.6332 -1.1211 0.9728
1.9444 -6.0114 -1.0408 0.9747
-9.5920 -5.0070 -2.0338 0.9569
-7.9605 -7.3283 -2.0338 0.9569
-4.0980 -10.0141 -2.0338 0.9569
-3.2056 -10.3344 -2.0338 0.9569
0.5393 -10.8068 -2.0338 0.9569
1.4833 -10.7181 -2.0338 0.9569
-8.1068 -5.1819 -2.0338 0.9614
-7.6220 -5.8717 -2.0338 0.9614
-6.4810 -7.1111 -2.0338 0.9614
-5.8335 -7.6512 -2.0338 0.9614
-5.1413 -8.1325 -2.0338 0.9614
-4.4096 -8.5514 -2.0338 0.9614
-3.6440 -8.9046 -2.0338 0.9614
-2.8505 -9.1895 -2.0338 0.9614
-1.2039 -9.5459 -2.0338 0.9614
1.3189 -9.5307 -2.0338 0.9614
1.9243 -5.9493 -1.3217 0.9748
-7.2912 -4.6607 -2.0338 0.9651
-6.8553 -5.2811 -2.0338 0.9651
-6.3666 -5.8609 -2.0338 0.9651
-5.8291 -6.3958 -2.0338 0.9651
-4.6241 -7.3145 -2.0338 0.9651
-2.5638 -8.2651 -2.0338 0.9651
-6.6184 -4.2305 -2.0338 0.9681
-5.7791 -5.3201 -2.0338 0.9681
-4.7625 -6.2465 -2.0338 0.9681
-4.1974 -6.6395 -2.0338 0.9681
-3.6000 -6.9814 -2.0338 0.9681
-2.3271 -7.5024 -2.0338 0.9681
1.0768 -7.7810 -2.0338 0.9681
-6.0533 -3.8693 -2.0338 0.9706
-5.6913 -4.3844 -2.0338 0.9706
-4.8393 -5.3098 -2.0338 0.9706
-3.8390 -6.0725 -2.0338 0.9706
-2.1284 -6.8617 -2.0338 0.9706
-1.5195 -7.0217 -2.0338 0.9706
-0.2716 -7.1792 -2.0338 0.9706
0.9848 -7.1165 -2.0338 0.9706
1.8870 -5.8341 -1.7358 0.9748
-5.8618 -3.0599 -2.0338 0.9727
-4.8648 -4.4784 -2.0338 0.9727
-4.4541 -4.8872 -2.0338 0.9727
-4.0091 -5.2583 -2.0338 0.9727
-1.3986 -6.4628 -2.0338 0.9727
-0.8274 -6.5604 -2.0338 0.9727
0.3295 -6.6042 -2.0338 0.9727
1.4764 -6.4455 -2.0338 0.9727
-5.4239 -2.8313 -2.0338 0.9745
-5.1553 -3.2953 -2.0338 0.9745
-4.8470 -3.7340 -2.0338 0.9745
-4.5015 -4.1440 -2.0338 0.9745
-4.1214 -4.5221 -2.0338 0.9745
-3.2695 -5.1717 -2.0338 0.9745
-2.8042 -5.4381 -2.0338 0.9745
-2.3173 -5.6627 -2.0338 0.9745
-0.7656 -6.0704 -2.0338 0.9745
-0.2312 -6.1142 -2.0338 0.9745
-4.1843 -3.8520 -2.0338 0.9761
-3.8310 -4.2035 -2.0338 0.9761
-2.6066 -5.0548 -2.0338 0.9761
-1.6850 -5.4320 -2.0338 0.9761
-1.2029 -5.5587 -2.0338 0.9761
-0.2149 -5.6833 -2.0338 0.9761
0.2834 -5.6803 -2.0338 0.9761
1.2699 -5.5438 -2.0338 0.9761
1.7503 -5.4114 -2.0339 0.9761
-4.7048 -2.4559 -2.0338 0.9775
-4.4718 -2.8584 -2.0338 0.9775
-4.2043 -3.2389 -2.0338 0.9775
-3.9047 -3.5945 -2.0338 0.9775
-3.5750 -3.9225 -2.0338 0.9775
-2.8360 -4.4860 -2.0338 0.9775
-2.0101 -4.9119 -2.0338 0.9775
-1.1225 -5.1872 -2.0338 0.9775
-0.2006 -5.3035 -2.0338 0.9775
0.7275 -5.2572 -2.0338 0.9775
-4.4053 -2.2996 -2.0338 0.9788
-4.1870 -2.6764 -2.0338 0.9788
-3.9367 -3.0327 -2.0338 0.9788
-3.6561 -3.3657 -2.0338 0.9788
-3.3473 -3.6728 -2.0338 0.9788
-2.2775 -4.4168 -2.0338 0.9788
-0.1879 -4.9659 -2.0338 0.9788
0.2476 -4.9632 -2.0338 0.9788
0.6812 -4.9225 -2.0339 0.9788
1.1095 -4.8440 -2.0339 0.9788
1.5293 -4.7283 -2.0339 0.9788
-4.1370 -2.1595 -2.0338 0.9798
-3.6969 -2.8480 -2.0338 0.9798
-3.4334 -3.1607 -2.0338 0.9798
-3.1435 -3.4492 -2.0338 0.9798
-1.3826 -4.4572 -2.0338 0.9798
-0.1764 -4.6634 -2.0338 0.9798
0.6397 -4.6227 -2.0339 0.9798
1.0420 -4.5490 -2.0339 0.9798
-3.8951 -2.0332 -2.0338 0.9808
-3.4807 -2.6815 -2.0338 0.9808
-3.2327 -2.9759 -2.0338 0.9808
-2.9597 -3.2474 -2.0338 0.9808
-2.6641 -3.4941 -2.0338 0.9808
-2.0138 -3.9052 -2.0338 0.9808
-1.3018 -4.1966 -2.0338 0.9808
-0.5498 -4.3593 -2.0338 0.9808
0.6023 -4.3524 -2.0339 0.9808
1.3523 -4.1806 -2.0339 0.9808
-3.4935 -2.2331 -2.0338 0.9817
-3.2846 -2.5304 -2.0338 0.9817
-3.0504 -2.8082 -2.0338 0.9817
-2.7930 -3.0645 -2.0338 0.9817
-2.5139 -3.2972 -2.0338 0.9817
-1.9003 -3.6852 -2.0338 0.9817
-1.5704 -3.8374 -2.0338 0.9817
-0.1567 -4.1433 -2.0339 0.9817
0.5684 -4.1072 -2.0339 0.9817
1.2760 -3.9451 -2.0339 0.9817
-3.3032 -2.1115 -2.0338 0.9825
-1.4848 -3.6284 -2.0338 0.9825
-1.1615 -3.7445 -2.0338 0.9825
-0.4906 -3.8896 -2.0339 0.9825
0.1954 -3.9156 -2.0339 0.9825
1.2066 -3.7302 -2.0339 0.9825
-2.9417 -2.2662 -2.0338 0.9832
-2.5013 -2.7446 -2.0338 0.9832
-1.4065 -3.4368 -2.0338 0.9832
-1.1002 -3.5467 -2.0339 0.9832
-0.7854 -3.6294 -2.0339 0.9832
0.1850 -3.7088 -2.0339 0.9832
0.5090 -3.6784 -2.0339 0.9832
0.8291 -3.6197 -2.0339 0.9832
1.1428 -3.5332 -2.0339 0.9832
-2.9682 -1.8973 -2.0339 0.9839
-2.7907 -2.1498 -2.0339 0.9839
-2.5917 -2.3859 -2.0339 0.9839
-2.3729 -2.6037 -2.0339 0.9839
-1.8824 -2.9777 -2.0339 0.9839
-1.6145 -3.1310 -2.0339 0.9839
-0.4408 -3.4951 -2.0339 0.9839
0.4829 -3.4895 -2.0339 0.9839
1.0841 -3.3518 -2.0339 0.9839
