ply
format ascii 1.0
element vertex 184
property float32 x
property float32 y
property float32 z
property float32 I
end_header
-16.4489 5.5283 -0.8800 0.9329
-16.2710 5.4685 -1.2586 0.9335
-13.3316 10.7445 -2.0339 0.9334
-15.6840 6.8683 -2.0338 0.9334
-16.6481 3.9980 -2.0338 0.9334
-17.1134 -0.5119 -2.0337 0.9334
-17.0010 -2.0229 -2.0337 0.9334
-16.3787 -4.9858 -2.0337 0.9334
-15.8737 -6.4144 -2.0337 0.9334
-11.2434 -8.5407 -1.6772 0.9447
-12.6641 -11.5207 -2.0337 0.9334
-11.1766 9.0078 -2.0339 0.9437
-11.9292 7.9842 -2.0339 0.9437
-12.5883 6.8981 -2.0339 0.9437
-13.1488 5.7580 -2.0339 0.9437
-13.6063 4.5729 -2.0338 0.9437
-13.9572 3.3520 -2.0338 0.9437
-14.1988 2.1047 -2.0338 0.9437
-14.3473 -0.4291 -2.0338 0.9437
-14.2531 -1.6960 -2.0338 0.9437
-14.0472 -2.9495 -2.0337 0.9437
-13.7314 -4.1799 -2.0337 0.9437
-13.3080 -5.3776 -2.0337 0.9437
-12.7803 -6.5332 -2.0337 0.9437
-12.1526 -7.6376 -2.0337 0.9437
-11.4297 -8.6821 -2.0337 0.9437
-10.6173 -9.6586 -2.0337 0.9437
-9.6129 7.7475 -2.0339 0.9512
-10.2601 6.8671 -2.0339 0.9512
-10.8270 5.9330 -2.0339 0.9512
-11.3091 4.9524 -2.0339 0.9512
-11.7025 3.9331 -2.0338 0.9512
-12.2122 1.8103 -2.0338 0.9512
-12.3243 0.7234 -2.0338 0.9512
-12.3400 -0.3691 -2.0338 0.9512
-11.4461 -4.6253 -2.0338 0.9512
-10.9923 -5.6192 -2.0337 0.9512
-10.4523 -6.5690 -2.0337 0.9512
-9.8306 -7.4674 -2.0337 0.9512
-9.1318 -8.3073 -2.0337 0.9512
-8.9925 6.0187 -2.0339 0.9569
-10.7036 1.5866 -2.0338 0.9569
-10.8155 -0.3235 -2.0338 0.9569
-10.7445 -1.2785 -2.0338 0.9569
-10.5893 -2.2235 -2.0338 0.9569
-10.0321 -4.0539 -2.0338 0.9569
-8.6162 -6.5449 -2.0338 0.9569
-7.4918 6.0379 -2.0339 0.9614
-7.9962 5.3519 -2.0339 0.9614
-8.4381 4.6239 -2.0339 0.9614
-9.1205 3.0653 -2.0339 0.9614
-9.3557 2.2469 -2.0338 0.9614
-9.6051 0.5638 -2.0338 0.9614
-9.5541 -1.1368 -2.0338 0.9614
-9.2044 -2.8019 -2.0338 0.9614
-8.9207 -3.6048 -2.0338 0.9614
-8.5670 -4.3794 -2.0338 0.9614
-8.1462 -5.1197 -2.0338 0.9614
-6.7381 5.4305 -2.0339 0.9651
-8.2030 2.7569 -2.0339 0.9651
-8.5602 1.2689 -2.0338 0.9651
-8.6389 0.5071 -2.0338 0.9651
-8.6498 -0.2587 -2.0338 0.9651
-8.5930 -1.0225 -2.0338 0.9651
-8.2786 -2.5201 -2.0338 0.9651
-7.3268 -4.6047 -2.0338 0.9651
-6.8909 -5.2344 -2.0338 0.9651
-6.5281 4.3693 -2.0339 0.9681
-6.8888 3.7749 -2.0339 0.9681
-7.4460 2.5025 -2.0339 0.9681
-7.6380 1.8343 -2.0339 0.9681
-7.8416 0.4603 -2.0338 0.9681
-7.5145 -2.2875 -2.0338 0.9681
-6.9942 -3.5754 -2.0338 0.9681
-6.3005 3.4526 -2.0339 0.9706
-6.5811 2.8820 -2.0339 0.9706
-6.9857 1.6777 -2.0339 0.9706
-7.1068 1.0534 -2.0339 0.9706
-7.1811 -0.2148 -2.0338 0.9706
-7.1340 -0.8489 -2.0338 0.9706
-7.0310 -1.4763 -2.0338 0.9706
-6.8729 -2.0922 -2.0338 0.9706
-6.6609 -2.6916 -2.0338 0.9706
-6.0827 -3.8228 -2.0338 0.9706
-5.7209 -4.3457 -2.0338 0.9706
-5.3143 -4.8345 -2.0338 0.9706
-5.4953 3.6780 -2.0339 0.9727
-6.0572 2.6525 -2.0339 0.9727
-6.2680 2.1066 -2.0339 0.9727
-6.4296 1.5441 -2.0339 0.9727
-6.5410 0.9696 -2.0339 0.9727
-6.4713 -1.3588 -2.0338 0.9727
-5.8877 -3.0097 -2.0338 0.9727
-5.5985 -3.5185 -2.0338 0.9727
-4.7641 3.8396 -2.0339 0.9745
-5.3659 2.9404 -2.0339 0.9745
-5.7998 1.9492 -2.0339 0.9745
-6.0757 -0.7229 -2.0338 0.9745
-5.8534 -1.7818 -2.0338 0.9745
-5.4479 -2.7849 -2.0338 0.9745
-5.1804 -3.2557 -2.0338 0.9745
-4.8722 -3.7010 -2.0338 0.9745
-4.5259 -4.1173 -2.0338 0.9745
-4.7266 3.1635 -2.0339 0.9761
-4.9877 2.7332 -2.0339 0.9761
-5.2098 2.2814 -2.0339 0.9761
-5.3911 1.8119 -2.0339 0.9761
-5.6848 -0.1700 -2.0338 0.9761
-5.5660 -1.1687 -2.0338 0.9761
-5.2731 -2.1308 -2.0338 0.9761
-5.0640 -2.5887 -2.0338 0.9761
-4.1324 3.3305 -2.0339 0.9775
-5.1606 1.2394 -2.0339 0.9775
-5.3049 -0.1587 -2.0339 0.9775
-5.1940 -1.0906 -2.0338 0.9775
-4.9207 -1.9884 -2.0338 0.9775
-4.7256 -2.4157 -2.0338 0.9775
-4.4935 -2.8240 -2.0338 0.9775
-4.2262 -3.2103 -2.0338 0.9775
-3.9259 -3.5714 -2.0338 0.9775
-4.3581 2.3881 -2.0339 0.9788
-4.5521 1.9935 -2.0339 0.9788
-2.1398 0.5139 -0.9007 0.9905
-2.1129 0.3132 -0.8742 0.9908
-2.1215 0.1245 -0.8698 0.9909
-2.1227 -0.0635 -0.8692 0.9909
-2.1091 -0.2510 -0.8693 0.9909
-4.7540 -1.4472 -2.0338 0.9788
-4.4247 -2.2619 -2.0338 0.9788
-4.2074 -2.6443 -2.0338 0.9788
-3.9572 -3.0059 -2.0338 0.9788
-3.6759 -3.3440 -2.0338 0.9788
-3.8783 2.5958 -2.0339 0.9798
-4.0927 2.2427 -2.0339 0.9798
-1.9060 -0.2268 -0.8365 0.9917
-2.0711 -0.6305 -0.9435 0.9906
-4.3268 -1.7485 -2.0338 0.9798
-4.1553 -2.1242 -2.0338 0.9798
-3.9512 -2.4832 -2.0338 0.9798
-3.4520 -3.1404 -2.0338 0.9798
-3.8533 2.1115 -2.0339 0.9808
-1.6845 0.5661 -0.8226 0.9922
-1.5813 0.3797 -0.7528 0.9929
-1.5829 -0.0474 -0.7330 0.9930
-3.4989 -2.6578 -2.0338 0.9808
-3.2284 2.6019 -2.0339 0.9817
-3.4458 2.3063 -2.0339 0.9817
-3.7981 1.6633 -2.0339 0.9817
-1.2784 0.4296 -0.6616 0.9940
-1.3506 0.0792 -0.6637 0.9940
-1.3312 -0.2796 -0.6672 0.9940
-1.2941 -0.3940 -0.6635 0.9940
-1.7381 -0.7024 -0.9196 0.9917
-3.6918 -1.8872 -2.0338 0.9817
-3.5105 -2.2063 -2.0338 0.9817
-3.3017 -2.5080 -2.0338 0.9817
-3.0670 -2.7901 -2.0338 0.9817
-3.4381 1.8840 -2.0339 0.9825
-1.1691 0.2807 -0.6238 0.9946
-1.1967 -0.0358 -0.6211 0.9946
-1.1770 -0.2472 -0.6239 0.9946
-3.4908 -1.7845 -2.0339 0.9825
-3.1219 -2.3714 -2.0338 0.9825
-2.9000 -2.6381 -2.0338 0.9825
-2.8913 2.3303 -2.0339 0.9832
-3.0861 2.0655 -2.0339 0.9832
-3.2566 1.7845 -2.0339 0.9832
-1.0723 0.1589 -0.5937 0.9951
-1.0813 0.0634 -0.5933 0.9951
-1.0770 -0.1282 -0.5941 0.9951
-1.0571 -0.2220 -0.5916 0.9951
-1.0119 -0.4089 -0.5978 0.9950
-0.9794 -0.5007 -0.6025 0.9950
-2.9570 -2.2462 -2.0338 0.9832
-0.9289 0.4068 -0.5855 0.9953
-0.9832 0.1457 -0.5738 0.9954
-0.9899 0.0581 -0.5725 0.9954
-0.9864 -0.1174 -0.5735 0.9954
-0.9730 -0.2043 -0.5740 0.9954
-0.9556 -0.2909 -0.5767 0.9954
-0.9372 -0.3787 -0.5836 0.9953
-0.9096 -0.4650 -0.5898 0.9953
-2.8052 -2.1309 -2.0339 0.9839
-2.6058 -2.3706 -2.0339 0.9839
