ply
format ascii 1.0
element vertex 191
property float32 x
property float32 y
property float32 z
property float32 I
end_header
2.4601 -6.1477 -0.6357 0.9737
-3.9269 -16.6642 -2.0337 0.9334
-0.9676 -17.0934 -2.0337 0.9334
0.5289 -17.1127 -2.0337 0.9334
2.4659 -6.1622 -0.7884 0.9736
2.9798 -5.8940 -0.7845 0.9737
13.4687 -10.5723 -2.0339 0.9334
14.3406 -9.3557 -2.0339 0.9334
15.1030 -8.0677 -2.0339 0.9334
15.7499 -6.7180 -2.0340 0.9334
-2.0595 -14.2049 -2.0337 0.9437
1.6946 -14.2532 -2.0338 0.9437
8.6066 -11.4879 -2.0338 0.9437
9.5770 -10.6925 -2.0339 0.9437
10.4743 -9.8154 -2.0339 0.9437
11.2915 -8.8633 -2.0339 0.9437
12.0225 -7.8434 -2.0339 0.9437
13.2041 -5.6321 -2.0340 0.9437
-3.8701 -11.7229 -2.0337 0.9512
-2.8316 -12.0161 -2.0337 0.9512
-1.7714 -12.2175 -2.0337 0.9512
-0.6977 -12.3256 -2.0338 0.9512
0.3814 -12.3395 -2.0338 0.9512
1.4575 -12.2591 -2.0338 0.9512
2.5225 -12.0850 -2.0338 0.9512
1.8138 -6.0077 -1.0338 0.9749
2.3780 -5.9423 -1.0544 0.9744
2.9255 -5.7865 -1.0682 0.9741
7.4023 -9.8807 -2.0339 0.9512
8.2370 -9.1965 -2.0339 0.9512
10.3403 -6.7460 -2.0339 0.9512
10.8900 -5.8173 -2.0339 0.9512
11.3565 -4.8440 -2.0339 0.9512
-2.4818 -10.5317 -2.0338 0.9569
-1.5525 -10.7082 -2.0338 0.9569
1.2775 -10.7446 -2.0338 0.9569
2.2109 -10.5921 -2.0338 0.9569
2.3670 -5.9148 -1.1975 0.9744
5.7068 -9.1934 -2.0338 0.9569
6.4879 -8.6599 -2.0339 0.9569
7.2194 -8.0603 -2.0339 0.9569
7.8958 -7.3991 -2.0339 0.9569
8.5118 -6.6814 -2.0339 0.9569
9.0628 -5.9125 -2.0339 0.9569
9.5446 -5.0985 -2.0339 0.9569
9.9535 -4.2456 -2.0339 0.9569
-2.2068 -9.3650 -2.0338 0.9614
-1.3805 -9.5220 -2.0338 0.9614
1.1359 -9.5543 -2.0338 0.9614
1.3073 -6.2628 -1.3524 0.9742
2.8416 -5.6205 -1.3313 0.9746
5.7691 -7.7005 -2.0339 0.9614
7.0210 -6.5794 -2.0339 0.9614
7.5687 -5.9411 -2.0339 0.9614
8.0587 -5.2575 -2.0339 0.9614
8.4871 -4.5337 -2.0339 0.9614
-2.7128 -8.2174 -2.0338 0.9651
-1.9848 -8.4229 -2.0338 0.9651
-1.2417 -8.5641 -2.0338 0.9651
0.2673 -8.6495 -2.0338 0.9651
1.0216 -8.5932 -2.0338 0.9651
1.7829 -5.9053 -1.4497 0.9750
7.2480 -4.7286 -2.0339 0.9651
7.6333 -4.0776 -2.0339 0.9651
7.9603 -3.3954 -2.0339 0.9651
-1.8017 -7.6456 -2.0338 0.9681
-1.1271 -7.7737 -2.0338 0.9681
-0.4439 -7.8425 -2.0338 0.9681
0.9273 -7.8001 -2.0338 0.9681
2.8902 -5.7166 -1.6585 0.9739
4.1428 -6.6740 -2.0339 0.9681
4.7099 -6.2867 -2.0339 0.9681
6.1791 -4.8503 -2.0339 0.9681
6.5791 -4.2922 -2.0339 0.9681
-1.6478 -6.9927 -2.0338 0.9706
-1.0309 -7.1099 -2.0338 0.9706
0.2219 -7.1809 -2.0338 0.9706
1.7765 -5.8841 -1.7400 0.9748
2.6692 -6.6702 -2.0338 0.9706
3.2415 -6.4116 -2.0339 0.9706
3.7891 -6.1040 -2.0339 0.9706
4.7934 -5.3517 -2.0339 0.9706
5.6514 -4.4361 -2.0339 0.9706
6.3371 -3.3852 -2.0339 0.9706
-1.5166 -6.4361 -2.0338 0.9727
0.2043 -6.6092 -2.0338 0.9727
0.7807 -6.5662 -2.0338 0.9727
1.3511 -6.4729 -2.0338 0.9727
3.4875 -5.6181 -2.0339 0.9727
3.9648 -5.2921 -2.0339 0.9727
4.4118 -4.9257 -2.0339 0.9727
4.8251 -4.5216 -2.0339 0.9727
5.8327 -3.1157 -2.0339 0.9727
6.0825 -2.5945 -2.0339 0.9727
-1.9181 -5.8101 -2.0338 0.9745
-1.4034 -5.9554 -2.0338 0.9745
0.1890 -6.1156 -2.0338 0.9745
0.7223 -6.0758 -2.0338 0.9745
1.2502 -5.9895 -2.0338 0.9745
2.7607 -5.4604 -2.0339 0.9745
3.6686 -4.8969 -2.0339 0.9745
4.4647 -4.1839 -2.0339 0.9745
5.1246 -3.3433 -2.0339 0.9745
-1.3045 -5.5357 -2.0338 0.9761
0.6714 -5.6476 -2.0338 0.9761
1.6439 -5.4447 -2.0339 0.9761
2.5661 -5.0756 -2.0339 0.9761
2.9996 -4.8322 -2.0339 0.9761
3.4101 -4.5518 -2.0339 0.9761
3.7946 -4.2366 -2.0339 0.9761
4.7634 -3.1077 -2.0339 0.9761
0.6266 -5.2702 -2.0338 0.9775
1.9719 -4.9275 -2.0339 0.9775
2.3946 -4.7364 -2.0339 0.9775
3.1822 -4.2476 -2.0339 0.9775
4.1749 -3.2771 -2.0339 0.9775
4.8819 -2.0824 -2.0339 0.9775
-1.5579 -4.7189 -2.0338 0.9788
-1.1398 -4.8369 -2.0338 0.9788
0.1535 -4.9670 -2.0338 0.9788
0.5867 -4.9346 -2.0339 0.9788
1.4363 -4.7573 -2.0339 0.9788
1.8463 -4.6137 -2.0339 0.9788
2.2421 -4.4349 -2.0339 0.9788
2.6209 -4.2221 -2.0339 0.9788
2.9796 -3.9771 -2.0339 0.9788
3.3156 -3.7018 -2.0339 0.9788
3.6261 -3.3981 -2.0339 0.9788
4.3834 -2.3415 -2.0339 0.9788
-1.4630 -4.4315 -2.0338 0.9798
0.1442 -4.6645 -2.0338 0.9798
1.7338 -4.3328 -2.0339 0.9798
2.1056 -4.1648 -2.0339 0.9798
2.4612 -3.9650 -2.0339 0.9798
3.1136 -3.4763 -2.0339 0.9798
3.4053 -3.1912 -2.0339 0.9798
3.9086 -2.5500 -2.0339 0.9798
4.1164 -2.1989 -2.0339 0.9798
4.2928 -1.8310 -2.0339 0.9798
-1.3774 -4.1724 -2.0338 0.9808
-1.0078 -4.2767 -2.0338 0.9808
0.1357 -4.3918 -2.0339 0.9808
0.5187 -4.3632 -2.0339 0.9808
1.2700 -4.2063 -2.0339 0.9808
1.6325 -4.0794 -2.0339 0.9808
2.3173 -3.7332 -2.0339 0.9808
2.6345 -3.5165 -2.0339 0.9808
3.6801 -2.4009 -2.0339 0.9808
-1.2998 -3.9373 -2.0338 0.9817
-0.2343 -4.1397 -2.0339 0.9817
0.1280 -4.1443 -2.0339 0.9817
0.8471 -4.0588 -2.0339 0.9817
1.1984 -3.9694 -2.0339 0.9817
1.5405 -3.8496 -2.0339 0.9817
1.8708 -3.7003 -2.0339 0.9817
2.1868 -3.5228 -2.0339 0.9817
2.4860 -3.3184 -2.0339 0.9817
2.7664 -3.0886 -2.0339 0.9817
3.0256 -2.8353 -2.0339 0.9817
3.2616 -2.5602 -2.0339 0.9817
3.6573 -1.9537 -2.0339 0.9817
-0.8992 -3.8159 -2.0338 0.9825
-0.2216 -3.9142 -2.0339 0.9825
0.4628 -3.8931 -2.0339 0.9825
2.0677 -3.3310 -2.0339 0.9825
2.3507 -3.1377 -2.0339 0.9825
2.6157 -2.9204 -2.0339 0.9825
2.8608 -2.6808 -2.0339 0.9825
3.2836 -2.1422 -2.0339 0.9825
3.4581 -1.8473 -2.0339 0.9825
3.6062 -1.5382 -2.0339 0.9825
-1.1641 -3.5262 -2.0339 0.9832
-0.8518 -3.6145 -2.0339 0.9832
-0.5329 -3.6750 -2.0339 0.9832
-0.2099 -3.7075 -2.0339 0.9832
0.1147 -3.7117 -2.0339 0.9832
1.0733 -3.5550 -2.0339 0.9832
1.3796 -3.4477 -2.0339 0.9832
2.2265 -2.9720 -2.0339 0.9832
2.4776 -2.7662 -2.0339 0.9832
3.2755 -1.7497 -2.0339 0.9832
3.4158 -1.4570 -2.0339 0.9832
-0.8080 -3.4288 -2.0339 0.9839
-0.5055 -3.4863 -2.0339 0.9839
-0.1991 -3.5171 -2.0339 0.9839
1.0182 -3.3724 -2.0339 0.9839
1.8579 -2.9930 -2.0339 0.9839
2.1122 -2.8194 -2.0339 0.9839
2.3504 -2.6241 -2.0339 0.9839
2.5706 -2.4088 -2.0339 0.9839
1.7670 -0.7537 -1.1091 0.9912
