ply
format ascii 1.0
element vertex 187
property float32 x
property float32 y
property float32 z
property float32 I
end_header
17.4601 -3.4517 -0.9026 0.9312
16.8338 -3.3278 -1.2582 0.9335
17.4560 -3.4508 -1.7083 0.9310
-1.0071 -17.0911 -2.0337 0.9334
2.0573 -16.9969 -2.0337 0.9334
3.1053 -5.9782 -0.8002 0.9732
12.7236 -11.4578 -2.0339 0.9334
14.5634 -9.0050 -2.0339 0.9334
15.3113 -7.6650 -2.0339 0.9334
16.7982 -3.3208 -2.0340 0.9334
-2.1237 -14.1955 -2.0337 0.9437
-0.8443 -14.3286 -2.0337 0.9437
2.9937 -14.0381 -2.0338 0.9437
2.4368 -5.9381 -0.9094 0.9744
7.7307 -12.0946 -2.0338 0.9437
10.6669 -9.6057 -2.0339 0.9437
12.2093 -7.5494 -2.0339 0.9437
12.8363 -6.4260 -2.0339 0.9437
13.7768 -4.0337 -2.0340 0.9437
0.3802 -12.3395 -2.0338 0.9512
2.5749 -12.0740 -2.0338 0.9512
1.8632 -6.0283 -1.0394 0.9747
2.3884 -5.8201 -1.0364 0.9748
3.0446 -5.8613 -1.0881 0.9736
6.6491 -10.4024 -2.0338 0.9512
8.3978 -9.0499 -2.0339 0.9512
9.1745 -8.2617 -2.0339 0.9512
9.8773 -7.4071 -2.0339 0.9512
10.5010 -6.4931 -2.0339 0.9512
11.4909 -4.5162 -2.0339 0.9512
11.8491 -3.4693 -2.0340 0.9512
-1.6010 -10.7011 -2.0338 0.9569
0.3332 -10.8152 -2.0338 0.9569
1.8550 -6.0018 -1.1808 0.9748
3.0377 -5.8480 -1.2386 0.9735
5.8276 -9.1173 -2.0338 0.9569
6.6205 -8.5589 -2.0339 0.9569
8.0410 -7.2411 -2.0339 0.9569
8.6571 -6.4921 -2.0339 0.9569
9.6763 -4.8440 -2.0339 0.9569
10.0712 -3.9582 -2.0339 0.9569
10.3852 -3.0406 -2.0340 0.9569
10.6158 -2.0986 -2.0340 0.9569
-1.4236 -9.5155 -2.0338 0.9614
0.2963 -9.6170 -2.0338 0.9614
1.1562 -9.5519 -2.0338 0.9614
1.3557 -6.3572 -1.3740 0.9738
5.8870 -7.6107 -2.0339 0.9614
7.1501 -6.4388 -2.0339 0.9614
8.1839 -5.0604 -2.0339 0.9614
8.9554 -3.5197 -2.0339 0.9614
9.2346 -2.7037 -2.0339 0.9614
9.4396 -1.8661 -2.0340 0.9614
-1.2804 -8.5583 -2.0338 0.9651
-0.5090 -8.6387 -2.0338 0.9651
0.2665 -8.6496 -2.0338 0.9651
1.0399 -8.5910 -2.0338 0.9651
2.3256 -5.6671 -1.4397 0.9751
5.8865 -6.3436 -2.0339 0.9651
7.3606 -4.5513 -2.0339 0.9651
7.7386 -3.8740 -2.0339 0.9651
8.0544 -3.1656 -2.0339 0.9651
8.3056 -2.4318 -2.0339 0.9651
8.4900 -1.6784 -2.0340 0.9651
-0.4620 -7.8414 -2.0338 0.9681
1.8136 -5.8678 -1.5902 0.9749
2.4521 -5.9753 -1.6723 0.9737
3.0273 -5.8281 -1.7004 0.9732
4.2305 -6.6187 -2.0339 0.9681
4.8062 -6.2134 -2.0339 0.9681
5.3432 -5.7581 -2.0339 0.9681
5.8373 -5.2567 -2.0339 0.9681
6.2846 -4.7129 -2.0339 0.9681
6.6814 -4.1313 -2.0339 0.9681
7.0244 -3.5165 -2.0339 0.9681
7.5391 -2.2073 -2.0339 0.9681
7.7065 -1.5235 -2.0339 0.9681
-1.0630 -7.1052 -2.0338 0.9706
0.8633 -7.1323 -2.0338 0.9706
1.4984 -7.0263 -2.0338 0.9706
3.0905 -5.9497 -1.8980 0.9725
3.8693 -6.0535 -2.0339 0.9706
4.3957 -5.6828 -2.0339 0.9706
4.8870 -5.2664 -2.0339 0.9706
5.7479 -4.3104 -2.0339 0.9706
6.1108 -3.7785 -2.0339 0.9706
6.4245 -3.2162 -2.0339 0.9706
6.8953 -2.0188 -2.0339 0.9706
7.0484 -1.3933 -2.0339 0.9706
-0.9784 -6.5396 -2.0338 0.9727
-0.3890 -6.6010 -2.0338 0.9727
0.7946 -6.5645 -2.0338 0.9727
2.5105 -6.1174 -2.0339 0.9727
6.1545 -2.4188 -2.0339 0.9727
6.3463 -1.8581 -2.0339 0.9727
6.4872 -1.2824 -2.0339 0.9727
0.1884 -6.1157 -2.0338 0.9745
0.7352 -6.0742 -2.0338 0.9745
1.2761 -5.9840 -2.0338 0.9745
1.8068 -5.8457 -2.0339 0.9745
3.2953 -5.1555 -2.0339 0.9745
3.7436 -4.8398 -2.0339 0.9745
4.1620 -4.4852 -2.0339 0.9745
5.2042 -3.2179 -2.0339 0.9745
5.6948 -2.2382 -2.0339 0.9745
6.0027 -1.1867 -2.0339 0.9745
0.6834 -5.6462 -2.0338 0.9761
2.6216 -5.0472 -2.0339 0.9761
3.0630 -4.7921 -2.0339 0.9761
4.2264 -3.8060 -2.0339 0.9761
4.5502 -3.4123 -2.0339 0.9761
5.2935 -2.0805 -2.0339 0.9761
5.5797 -1.1030 -2.0339 0.9761
1.1069 -5.1906 -2.0339 0.9775
2.0149 -4.9100 -2.0339 0.9775
2.4464 -4.7098 -2.0339 0.9775
3.2473 -4.1980 -2.0339 0.9775
3.6101 -3.8904 -2.0339 0.9775
4.9397 -1.9414 -2.0339 0.9775
5.2068 -1.0293 -2.0339 0.9775
-0.2923 -4.9608 -2.0338 0.9788
0.1530 -4.9670 -2.0338 0.9788
0.5971 -4.9334 -2.0339 0.9788
1.4674 -4.7478 -2.0339 0.9788
3.0405 -3.9308 -2.0339 0.9788
3.3802 -3.6428 -2.0339 0.9788
3.9758 -2.9815 -2.0339 0.9788
4.4439 -2.2246 -2.0339 0.9788
4.6252 -1.8178 -2.0339 0.9788
4.7694 -1.3964 -2.0339 0.9788
4.8752 -0.9638 -2.0339 0.9788
-0.2745 -4.6587 -2.0338 0.9798
0.5608 -4.6329 -2.0339 0.9798
0.9734 -4.5641 -2.0339 0.9798
1.3781 -4.4587 -2.0339 0.9798
1.7718 -4.3174 -2.0339 0.9798
2.1512 -4.1414 -2.0339 0.9798
2.8554 -3.6914 -2.0339 0.9798
3.1744 -3.4209 -2.0339 0.9798
3.4680 -3.1230 -2.0339 0.9798
3.9694 -2.4544 -2.0339 0.9798
4.1732 -2.0892 -2.0339 0.9798
4.4789 -1.3114 -2.0339 0.9798
4.5784 -0.9051 -2.0339 0.9798
0.1353 -4.3918 -2.0339 0.9808
0.9164 -4.2972 -2.0339 0.9808
1.2975 -4.1980 -2.0339 0.9808
2.0254 -3.8993 -2.0339 0.9808
2.6884 -3.4755 -2.0339 0.9808
3.7373 -2.3108 -2.0339 0.9808
4.0895 -1.6073 -2.0339 0.9808
4.3106 -0.8522 -2.0339 0.9808
-0.6135 -4.1007 -2.0338 0.9817
0.4982 -4.1163 -2.0339 0.9817
0.8648 -4.0552 -2.0339 0.9817
1.5741 -3.8359 -2.0339 0.9817
2.2330 -3.4937 -2.0339 0.9817
3.0812 -2.7747 -2.0339 0.9817
3.5267 -2.1806 -2.0339 0.9817
3.8591 -1.5167 -2.0339 0.9817
3.9794 -1.1651 -2.0339 0.9817
-0.5801 -3.8773 -2.0339 0.9825
1.1577 -3.7457 -2.0339 0.9825
1.4884 -3.6270 -2.0339 0.9825
2.1114 -3.3034 -2.0339 0.9825
3.1366 -2.3522 -2.0339 0.9825
3.5058 -1.7551 -2.0339 0.9825
-0.5495 -3.6726 -2.0339 0.9832
0.1143 -3.7117 -2.0339 0.9832
0.4462 -3.6866 -2.0339 0.9832
1.0966 -3.5479 -2.0339 0.9832
1.7118 -3.2954 -2.0339 0.9832
2.5260 -2.7221 -2.0339 0.9832
2.7595 -2.4850 -2.0339 0.9832
3.1586 -1.9530 -2.0339 0.9832
3.3207 -1.6624 -2.0339 0.9832
1.8558 -0.3669 -1.0361 0.9914
-0.5213 -3.4840 -2.0339 0.9839
0.1085 -3.5211 -2.0339 0.9839
0.4233 -3.4972 -2.0339 0.9839
1.3374 -3.2591 -2.0339 0.9839
2.1554 -2.7865 -2.0339 0.9839
2.6179 -2.3574 -2.0339 0.9839
2.8184 -2.1136 -2.0339 0.9839
2.9963 -1.8527 -2.0339 0.9839
1.7350 -0.6819 -1.0763 0.9914
1.7148 -0.5021 -1.0316 0.9918
