ply
format ascii 1.0
element vertex 180
property float32 x
property float32 y
property float32 z
property float32 I
end_header
3.5312 18.5473 3.3291 0.9262
1.9488 19.1966 3.4023 0.9246
3.5688 18.7447 2.9232 0.9257
1.7962 17.6939 2.7245 0.9306
3.6343 19.0889 2.5304 0.9246
3.5351 18.5679 2.0297 0.9268
1.8087 17.8177 1.9231 0.9305
3.3826 17.7672 1.5311 0.9300
3.3545 17.6198 1.1122 0.9306
1.9070 18.7853 0.7445 0.9272
13.4226 9.1821 -1.1924 0.9369
13.2050 9.0332 -1.5360 0.9377
17.0715 1.3369 -2.0341 0.9333
16.5828 4.2712 -2.0341 0.9333
13.3364 9.1230 -1.9194 0.9370
13.2406 10.8596 -2.0341 0.9333
12.2473 11.9686 -2.0341 0.9333
9.9913 13.9076 -2.0341 0.9333
8.7455 14.7228 -2.0341 0.9333
7.4337 15.4267 -2.0341 0.9333
4.6517 16.4803 -2.0341 0.9333
3.2027 16.8221 -2.0341 0.9333
13.9021 3.5807 -2.0341 0.9437
11.8489 8.1055 -2.0341 0.9437
11.1001 9.1040 -2.0341 0.9437
10.2675 10.0337 -2.0341 0.9437
9.3571 10.8877 -2.0341 0.9437
8.3761 11.6593 -2.0341 0.9437
7.3317 12.3427 -2.0341 0.9437
6.2320 12.9329 -2.0341 0.9437
2.6850 14.1026 -2.0341 0.9437
12.3092 0.9639 -2.0340 0.9512
12.1791 2.0295 -2.0340 0.9512
11.2435 5.1024 -2.0341 0.9512
7.2040 10.0278 -2.0341 0.9512
4.3736 11.5466 -2.0341 0.9512
3.3541 11.8829 -2.0341 0.9512
1.2470 12.2839 -2.0340 0.9512
10.6743 1.7787 -2.0340 0.9569
10.4795 2.6991 -2.0340 0.9569
10.2055 3.5992 -2.0340 0.9569
8.9318 6.1100 -2.0340 0.9569
8.3673 6.8627 -2.0340 0.9569
7.7396 7.5635 -2.0341 0.9569
7.0534 8.2072 -2.0341 0.9569
6.3139 8.7888 -2.0341 0.9569
2.9396 10.4147 -2.0340 0.9569
9.5931 0.7512 -2.0340 0.9614
9.4916 1.5817 -2.0340 0.9614
9.3184 2.4001 -2.0340 0.9614
8.7625 3.9765 -2.0340 0.9614
6.8821 6.7255 -2.0340 0.9614
6.2719 7.2978 -2.0340 0.9614
5.6143 7.8150 -2.0340 0.9614
4.1771 8.6687 -2.0340 0.9614
3.4084 8.9987 -2.0340 0.9614
1.7996 9.4528 -2.0340 0.9614
8.6280 0.6757 -2.0340 0.9651
7.1431 4.8864 -2.0340 0.9651
6.1897 6.0489 -2.0340 0.9651
5.6409 6.5636 -2.0340 0.9651
5.0495 7.0288 -2.0340 0.9651
3.7570 7.7966 -2.0340 0.9651
2.3509 8.3291 -2.0340 0.9651
1.6186 8.5018 -2.0340 0.9651
0.8740 8.6102 -2.0340 0.9651
7.8317 0.6133 -2.0340 0.9681
7.7489 1.2912 -2.0340 0.9681
7.6075 1.9594 -2.0340 0.9681
7.4085 2.6128 -2.0340 0.9681
6.4839 4.4354 -2.0340 0.9681
6.0741 4.9818 -2.0340 0.9681
5.6184 5.4906 -2.0340 0.9681
4.5834 6.3801 -2.0340 0.9681
4.0120 6.7541 -2.0340 0.9681
1.4693 7.7171 -2.0340 0.9681
0.7934 7.8156 -2.0340 0.9681
7.0871 1.1810 -2.0340 0.9706
6.9578 1.7921 -2.0340 0.9706
6.7758 2.3896 -2.0340 0.9706
3.6694 6.1773 -2.0340 0.9706
1.3438 7.0581 -2.0340 0.9706
6.5229 1.0869 -2.0340 0.9727
6.4039 1.6494 -2.0340 0.9727
6.2364 2.1994 -2.0340 0.9727
5.7618 3.2455 -2.0340 0.9727
5.4580 3.7337 -2.0340 0.9727
5.1131 4.1937 -2.0340 0.9727
4.7296 4.6219 -2.0340 0.9727
4.3102 5.0152 -2.0340 0.9727
3.3773 5.6855 -2.0340 0.9727
2.8706 5.9573 -2.0340 0.9727
1.7963 6.3642 -2.0340 0.9727
6.1003 0.4777 -2.0340 0.9745
5.5721 2.5287 -2.0340 0.9745
5.0504 3.4548 -2.0340 0.9745
4.3763 4.2767 -2.0340 0.9745
3.5701 4.9695 -2.0340 0.9745
3.1250 5.2608 -2.0340 0.9745
2.6562 5.5124 -2.0340 0.9745
2.1674 5.7223 -2.0340 0.9745
1.6622 5.8889 -2.0340 0.9745
5.1793 2.3504 -2.0340 0.9761
4.9556 2.7914 -2.0340 0.9761
4.3978 3.6069 -2.0340 0.9761
4.0679 3.9753 -2.0340 0.9761
3.7071 4.3136 -2.0340 0.9761
3.3185 4.6193 -2.0340 0.9761
2.9048 4.8901 -2.0340 0.9761
1.5451 5.4739 -2.0340 0.9761
1.0638 5.5874 -2.0340 0.9761
5.2354 0.8724 -2.0340 0.9775
5.0054 1.7653 -2.0340 0.9775
4.8332 2.1933 -2.0340 0.9775
4.6244 2.6049 -2.0340 0.9775
4.3807 2.9967 -2.0340 0.9775
4.1039 3.3659 -2.0340 0.9775
3.7960 3.7096 -2.0340 0.9775
3.4594 4.0253 -2.0340 0.9775
2.7107 4.5632 -2.0340 0.9775
0.9927 5.2139 -2.0340 0.9775
0.5361 5.2804 -2.0340 0.9775
4.9545 0.3880 -2.0339 0.9787
4.9021 0.8169 -2.0340 0.9787
4.8126 1.2396 -2.0340 0.9787
4.5255 2.0537 -2.0340 0.9787
4.3300 2.4390 -2.0340 0.9787
4.1018 2.8059 -2.0340 0.9787
3.8426 3.1516 -2.0340 0.9787
3.5543 3.4734 -2.0340 0.9787
2.1573 4.4770 -2.0340 0.9787
1.3500 4.7828 -2.0340 0.9787
0.9295 4.8820 -2.0340 0.9787
0.5019 4.9442 -2.0340 0.9787
4.5195 1.1640 -2.0340 0.9798
4.4013 1.5522 -2.0340 0.9798
4.0663 2.2905 -2.0340 0.9798
3.6086 2.9596 -2.0340 0.9798
3.0419 3.5395 -2.0340 0.9798
2.7230 3.7903 -2.0340 0.9798
2.0259 4.2043 -2.0340 0.9798
1.6531 4.3644 -2.0340 0.9798
1.2678 4.4915 -2.0340 0.9798
0.8729 4.5846 -2.0340 0.9798
0.4714 4.6431 -2.0340 0.9798
4.3343 0.7222 -2.0339 0.9808
4.1439 1.4614 -2.0340 0.9808
4.0013 1.8158 -2.0340 0.9808
3.3975 2.7866 -2.0340 0.9808
3.1427 3.0711 -2.0340 0.9808
2.8640 3.3325 -2.0340 0.9808
2.5638 3.5687 -2.0340 0.9808
1.1936 4.2288 -2.0340 0.9808
0.8218 4.3165 -2.0340 0.9808
4.0901 0.6815 -2.0339 0.9817
3.7759 1.7135 -2.0340 0.9817
1.8000 3.7354 -2.0340 0.9817
1.4687 3.8777 -2.0340 0.9817
3.6975 1.3040 -2.0339 0.9825
3.4160 1.9242 -2.0340 0.9825
3.0314 2.4863 -2.0340 0.9825
2.2875 3.1842 -2.0340 0.9825
1.3888 3.6665 -2.0340 0.9825
1.0651 3.7732 -2.0340 0.9825
0.7333 3.8514 -2.0339 0.9825
1.8569 0.4783 -1.0502 0.9913
3.2356 1.8226 -2.0339 0.9832
3.0650 2.0967 -2.0340 0.9832
2.8714 2.3550 -2.0340 0.9832
2.4205 2.8164 -2.0340 0.9832
2.1667 3.0160 -2.0340 0.9832
1.8966 3.1928 -2.0340 0.9832
1.7223 0.1349 -0.9974 0.9921
1.7135 0.4413 -1.0216 0.9919
1.7818 0.8086 -1.1297 0.9910
2.9077 1.9890 -2.0339 0.9839
2.5196 2.4622 -2.0339 0.9839
2.0555 2.8611 -2.0340 0.9839
0.9570 3.3904 -2.0339 0.9839
0.3558 3.5049 -2.0339 0.9839
