ply
format ascii 1.0
element vertex 194
property float32 x
property float32 y
property float32 z
property float32 I
end_header
-12.8870 12.8978 3.2149 0.9286
2.1984 17.5965 2.7166 0.9308
-11.2256 13.4895 2.6885 0.9314
-12.3452 12.3555 2.6757 0.9318
4.1518 18.9917 2.5315 0.9246
2.2181 17.7542 2.3299 0.9304
-11.8096 11.8195 2.1758 0.9348
-12.1564 12.1665 1.8468 0.9331
-4.6909 19.2169 1.6745 0.9237
-11.4740 13.7879 1.5185 0.9305
-12.1534 12.1635 1.4556 0.9333
-12.2540 14.7252 1.1879 0.9261
-11.9887 11.9987 1.0518 0.9343
-1.8224 7.4657 -0.7378 0.9696
5.1610 16.3280 -2.0341 0.9333
3.6571 16.7292 -2.0341 0.9333
2.1229 16.9921 -2.0341 0.9333
0.5712 17.1145 -2.0341 0.9333
-0.9852 17.0955 -2.0341 0.9333
-1.7923 7.3421 -0.8978 0.9700
-7.0021 15.6262 -2.0340 0.9334
-9.7125 14.1020 -2.0340 0.9334
7.8546 12.0167 -2.0341 0.9437
6.7310 12.6803 -2.0341 0.9437
0.4789 14.3478 -2.0341 0.9437
-1.1062 7.3946 -1.0594 0.9702
-1.7749 7.2713 -1.0605 0.9702
-7.0354 12.5129 -2.0340 0.9437
-9.1823 11.0341 -2.0339 0.9437
-11.0262 9.1913 -2.0339 0.9437
6.7555 10.3352 -2.0341 0.9512
5.7891 10.9060 -2.0341 0.9512
2.6369 12.0623 -2.0341 0.9512
0.4119 12.3402 -2.0340 0.9512
-0.4501 7.8115 -1.2890 0.9688
-1.0817 7.2309 -1.2045 0.9708
-1.7371 7.1164 -1.2068 0.9707
-5.0488 11.2672 -2.0340 0.9512
-7.0032 10.1681 -2.0340 0.9512
-7.8975 9.4901 -2.0339 0.9512
-8.7265 8.7338 -2.0339 0.9512
5.9208 9.0583 -2.0341 0.9569
4.1850 9.9797 -2.0340 0.9569
3.2616 10.3185 -2.0340 0.9569
2.3111 10.5720 -2.0340 0.9569
-0.4351 7.5500 -1.4215 0.9697
-1.0711 7.1600 -1.3608 0.9710
-4.4250 9.8752 -2.0340 0.9569
-5.3034 9.4325 -2.0340 0.9569
-6.9218 8.3177 -2.0339 0.9569
-7.6484 7.6548 -2.0339 0.9569
-8.3118 6.9286 -2.0339 0.9569
4.5116 8.4994 -2.0340 0.9614
2.9002 9.1752 -2.0340 0.9614
1.1929 9.5483 -2.0340 0.9614
0.3209 9.6172 -2.0340 0.9614
-1.7348 7.1067 -1.5463 0.9705
-5.4579 7.9245 -2.0339 0.9614
-7.3909 6.1610 -2.0339 0.9614
2.6084 8.2521 -2.0340 0.9651
1.0729 8.5877 -2.0340 0.9651
0.2887 8.6496 -2.0340 0.9651
-0.4394 7.6252 -1.7951 0.9691
-1.0910 7.2930 -1.7331 0.9702
-3.5389 7.8977 -2.0340 0.9651
-6.6474 5.5412 -2.0339 0.9651
3.0380 7.2446 -2.0340 0.9681
2.3676 7.4905 -2.0340 0.9681
0.9739 7.7952 -2.0340 0.9681
-0.4520 7.8427 -2.0340 0.9681
-1.8629 7.6316 -2.0340 0.9681
-2.5482 7.4309 -2.0340 0.9681
-6.0339 5.0298 -2.0339 0.9681
3.9311 6.0141 -2.0340 0.9706
3.3687 6.3462 -2.0340 0.9706
2.7786 6.6259 -2.0340 0.9706
0.2397 7.1809 -2.0340 0.9706
-0.4134 7.1729 -2.0340 0.9706
-1.7038 6.9798 -2.0340 0.9706
-2.3305 6.7963 -2.0340 0.9706
-2.9380 6.5566 -2.0339 0.9706
-4.0753 5.9171 -2.0339 0.9706
-4.5957 5.5226 -2.0339 0.9706
-5.0782 5.0824 -2.0339 0.9706
-5.5187 4.6003 -2.0339 0.9706
3.6181 5.5353 -2.0340 0.9727
3.1005 5.8410 -2.0340 0.9727
2.5573 6.0984 -2.0340 0.9727
1.9930 6.3054 -2.0340 0.9727
1.4122 6.4603 -2.0340 0.9727
-0.3804 6.6019 -2.0340 0.9727
-0.9784 6.5400 -2.0340 0.9727
-1.5681 6.4242 -2.0340 0.9727
-2.1450 6.2552 -2.0340 0.9727
-3.2409 5.7641 -2.0339 0.9727
-4.2299 5.0829 -2.0339 0.9727
-4.6739 4.6778 -2.0339 0.9727
-5.0793 4.2341 -2.0339 0.9727
3.3479 5.1219 -2.0340 0.9745
1.3068 5.9778 -2.0340 0.9745
0.2041 6.1155 -2.0340 0.9745
-0.3520 6.1088 -2.0340 0.9745
-1.9848 5.7880 -2.0339 0.9745
-2.5021 5.5839 -2.0339 0.9745
-2.9988 5.3336 -2.0339 0.9745
-3.4707 5.0392 -2.0339 0.9745
-4.7000 3.9178 -2.0339 0.9745
3.1119 4.7609 -2.0340 0.9761
2.6667 5.0238 -2.0340 0.9761
0.1897 5.6845 -2.0340 0.9761
-0.3272 5.6783 -2.0340 0.9761
-0.8414 5.6251 -2.0340 0.9761
-3.2261 4.6841 -2.0339 0.9761
-3.6381 4.3718 -2.0339 0.9761
-4.0200 4.0234 -2.0339 0.9761
2.9039 4.4428 -2.0340 0.9775
2.0525 4.8946 -2.0340 0.9775
1.5996 5.0608 -2.0340 0.9775
1.1335 5.1851 -2.0340 0.9775
0.6580 5.2666 -2.0340 0.9775
-0.7852 5.2491 -2.0340 0.9775
-1.2586 5.1561 -2.0339 0.9775
-2.6012 4.6264 -2.0339 0.9775
-3.0105 4.3711 -2.0339 0.9775
-3.3950 4.0796 -2.0339 0.9775
-4.0768 3.3983 -2.0339 0.9775
2.7191 4.1599 -2.0340 0.9787
2.3301 4.3896 -2.0340 0.9787
1.4978 4.7386 -2.0340 0.9787
1.0613 4.8550 -2.0340 0.9787
0.1658 4.9669 -2.0340 0.9787
-1.1785 4.8279 -2.0339 0.9788
-2.0322 4.5351 -2.0339 0.9788
-2.4356 4.3319 -2.0339 0.9788
-3.1788 3.8199 -2.0339 0.9788
-3.5125 3.5154 -2.0339 0.9788
2.5535 3.9065 -2.0340 0.9798
2.1882 4.1222 -2.0340 0.9798
1.8048 4.3039 -2.0340 0.9798
1.4066 4.4500 -2.0340 0.9798
0.9967 4.5593 -2.0340 0.9798
0.5786 4.6310 -2.0340 0.9798
0.1557 4.6644 -2.0340 0.9798
-1.5138 4.4146 -2.0339 0.9798
1.6993 4.0522 -2.0340 0.9808
1.3243 4.1898 -2.0340 0.9808
0.9384 4.2927 -2.0340 0.9808
0.5448 4.3602 -2.0340 0.9808
0.1466 4.3916 -2.0340 0.9808
-0.2528 4.3868 -2.0339 0.9808
-1.0420 4.2687 -2.0339 0.9808
-1.4253 4.1564 -2.0339 0.9808
-2.1535 3.8301 -2.0339 0.9808
-2.8107 3.3775 -2.0339 0.9808
2.2687 3.4708 -2.0340 0.9817
1.9441 3.6625 -2.0340 0.9817
0.1383 4.1442 -2.0339 0.9817
-0.2385 4.1396 -2.0339 0.9817
-0.6134 4.1008 -2.0339 0.9817
-0.9833 4.0282 -2.0339 0.9817
-1.3450 3.9222 -2.0339 0.9817
-1.6955 3.7839 -2.0339 0.9817
-2.0321 3.6143 -2.0339 0.9817
1.1816 3.7383 -2.0340 0.9825
0.8373 3.8302 -2.0340 0.9825
0.4861 3.8904 -2.0339 0.9825
0.1307 3.9184 -2.0339 0.9825
-0.5800 3.8775 -2.0339 0.9825
-0.9297 3.8087 -2.0339 0.9825
-1.2717 3.7086 -2.0339 0.9825
-1.6032 3.5778 -2.0339 0.9825
-2.7711 2.7734 -2.0339 0.9825
-3.0114 2.5103 -2.0339 0.9825
2.0318 3.1084 -2.0340 0.9832
1.4361 3.4247 -2.0340 0.9832
1.1192 3.5409 -2.0339 0.9832
0.7931 3.6279 -2.0339 0.9832
0.4604 3.6849 -2.0339 0.9832
-0.2136 3.7074 -2.0339 0.9832
-0.5494 3.6727 -2.0339 0.9832
-1.5186 3.3889 -2.0339 0.9832
-1.8200 3.2370 -2.0339 0.9832
-2.1064 3.0583 -2.0339 0.9832
-2.3754 2.8544 -2.0339 0.9832
-2.6248 2.6269 -2.0339 0.9832
1.6518 3.1117 -2.0339 0.9839
0.7523 3.4416 -2.0339 0.9839
0.4367 3.4957 -2.0339 0.9839
0.1175 3.5209 -2.0339 0.9839
-0.5212 3.4841 -2.0339 0.9839
-1.7265 3.0707 -2.0339 0.9839
-2.2534 2.7078 -2.0339 0.9839
-2.4900 2.4921 -2.0339 0.9839
-2.7060 2.2557 -2.0339 0.9839
