ply
format ascii 1.0
element vertex 167
property float32 x
property float32 y
property float32 z
property float32 I
end_header
-11.1889 12.6461 2.1988 0.9342
-12.6414 11.9938 2.2692 0.9321
-11.3109 12.7840 1.8330 0.9336
-11.7792 13.3132 1.5048 0.9311
-12.6984 12.0479 1.4818 0.9321
-16.4379 5.4911 -0.8789 0.9329
-8.9449 14.6010 -2.0340 0.9334
-11.3462 12.8239 -2.0339 0.9334
-13.4020 10.6565 -2.0339 0.9334
-14.2804 9.4467 -2.0339 0.9334
-15.7046 6.8209 -2.0338 0.9334
-16.6507 3.9875 -2.0338 0.9334
-16.7739 -3.4292 -2.0337 0.9334
-9.5121 10.7510 -2.0339 0.9437
-10.4136 9.8802 -2.0339 0.9437
-13.9593 3.3430 -2.0338 0.9437
-14.1976 2.1126 -2.0338 0.9437
-14.3277 0.8660 -2.0338 0.9437
-14.2600 -1.6373 -2.0338 0.9437
-14.0627 -2.8750 -2.0337 0.9437
-13.7582 -4.0907 -2.0337 0.9437
-13.3489 -5.2753 -2.0337 0.9437
-6.4497 10.5280 -2.0340 0.9512
-7.3434 9.9252 -2.0339 0.9512
-8.1812 9.2467 -2.0339 0.9512
-12.2112 1.8170 -2.0338 0.9512
-12.3410 -0.3330 -2.0338 0.9512
-11.4812 -4.5372 -2.0338 0.9512
-6.4362 8.6989 -2.0339 0.9569
-9.5112 5.1600 -2.0339 0.9569
-10.8007 0.6528 -2.0338 0.9569
-10.8164 -0.2918 -2.0338 0.9569
-5.0266 8.2049 -2.0339 0.9614
-5.7231 7.7352 -2.0339 0.9614
-6.3760 7.2064 -2.0339 0.9614
-6.9803 6.6227 -2.0339 0.9614
-7.5314 5.9885 -2.0339 0.9614
-9.1261 3.0486 -2.0339 0.9614
-9.3571 2.2409 -2.0338 0.9614
-9.5169 1.4161 -2.0338 0.9614
-9.6041 0.5805 -2.0338 0.9614
-9.4265 -1.9271 -2.0338 0.9614
-9.2225 -2.7421 -2.0338 0.9614
-8.9481 -3.5361 -2.0338 0.9614
-5.1474 6.9570 -2.0339 0.9651
-6.2781 5.9564 -2.0339 0.9651
-8.4159 2.0154 -2.0339 0.9651
-8.6380 0.5221 -2.0338 0.9651
-8.5972 -0.9871 -2.0338 0.9651
-8.4782 -1.7333 -2.0338 0.9651
-8.2947 -2.4663 -2.0338 0.9651
-8.0480 -3.1804 -2.0338 0.9651
-5.2054 5.8833 -2.0339 0.9681
-6.1486 4.8890 -2.0339 0.9681
-6.9046 3.7459 -2.0339 0.9681
-7.2050 3.1293 -2.0339 0.9681
-7.4505 2.4888 -2.0339 0.9681
-7.7696 1.1561 -2.0338 0.9681
-7.8523 -0.2119 -2.0338 0.9681
-7.8038 -0.8960 -2.0338 0.9681
-7.6958 -1.5733 -2.0338 0.9681
-7.5293 -2.2387 -2.0338 0.9681
-7.3053 -2.8869 -2.0338 0.9681
-4.2733 5.7756 -2.0339 0.9706
-6.3150 3.4260 -2.0339 0.9706
-6.8143 2.2763 -2.0339 0.9706
-7.1712 0.4335 -2.0338 0.9706
-7.1817 -0.1938 -2.0338 0.9706
-6.8863 -2.0475 -2.0338 0.9706
-3.4544 5.6387 -2.0339 0.9727
-5.5151 3.6483 -2.0339 0.9727
-5.8123 3.1533 -2.0339 0.9727
-6.0652 2.6342 -2.0339 0.9727
-6.4307 1.5400 -2.0339 0.9727
-6.6004 0.3989 -2.0338 0.9727
-6.6100 -0.1784 -2.0338 0.9727
-6.5693 -0.7543 -2.0338 0.9727
-6.4784 -1.3244 -2.0338 0.9727
-6.1496 -2.4302 -2.0338 0.9727
-3.6393 4.9188 -2.0339 0.9745
-4.0545 4.5826 -2.0339 0.9745
-4.4388 4.2114 -2.0339 0.9745
-5.3782 2.9178 -2.0339 0.9745
-5.6122 2.4375 -2.0339 0.9745
-5.9504 1.4250 -2.0339 0.9745
-6.1074 0.3692 -2.0339 0.9745
-6.1164 -0.1650 -2.0338 0.9745
-5.9946 -1.2255 -2.0338 0.9745
-5.8647 -1.7438 -2.0338 0.9745
-5.6903 -2.2487 -2.0338 0.9745
-2.9711 4.8498 -2.0339 0.9761
-3.3829 4.5722 -2.0339 0.9761
-3.7688 4.2596 -2.0339 0.9761
-4.1260 3.9146 -2.0339 0.9761
-4.7436 3.1379 -2.0339 0.9761
-5.2167 2.2657 -2.0339 0.9761
-5.6254 0.8370 -2.0339 0.9761
-5.6853 -0.1534 -2.0338 0.9761
-5.4514 -1.6209 -2.0338 0.9761
-5.2893 -2.0903 -2.0338 0.9761
-2.7726 4.5257 -2.0339 0.9775
-3.5169 3.9750 -2.0339 0.9775
-4.4265 2.9282 -2.0339 0.9775
-4.6650 2.5309 -2.0339 0.9775
-4.8680 2.1143 -2.0339 0.9775
-5.2976 0.3202 -2.0339 0.9775
-5.3054 -0.1432 -2.0339 0.9775
-4.1447 2.7418 -2.0339 0.9788
-2.1130 0.3144 -0.8743 0.9908
-2.1104 -0.2423 -0.8694 0.9909
-4.7633 -1.4163 -2.0338 0.9788
-4.6216 -1.8264 -2.0338 0.9788
-2.4379 3.9795 -2.0339 0.9798
-2.7758 3.7517 -2.0339 0.9798
-3.0925 3.4952 -2.0339 0.9798
-4.2805 1.8591 -2.0339 0.9798
-4.4264 1.4787 -2.0339 0.9798
-1.8999 0.4550 -0.8514 0.9915
-1.9189 -0.0518 -0.8366 0.9917
-1.9043 -0.3893 -0.8471 0.9916
-2.2954 3.7468 -2.0339 0.9808
-2.6135 3.5323 -2.0339 0.9808
-3.1876 3.0243 -2.0339 0.9808
-3.4393 2.7347 -2.0339 0.9808
-3.6646 2.4243 -2.0339 0.9808
-3.8621 2.0953 -2.0339 0.9808
-4.0302 1.7504 -2.0339 0.9808
-4.0863 -1.6149 -2.0338 0.9808
-2.4662 3.3333 -2.0339 0.9817
-3.2454 2.5806 -2.0339 0.9817
-3.4582 2.2877 -2.0339 0.9817
-3.6445 1.9773 -2.0339 0.9817
-3.8031 1.6518 -2.0339 0.9817
-1.2795 0.4274 -0.6617 0.9940
-1.3439 -0.0363 -0.6595 0.9940
-1.2973 -0.3858 -0.6639 0.9940
-2.5979 2.9363 -2.0339 0.9825
-2.8441 2.6984 -2.0339 0.9825
-3.0687 2.4400 -2.0339 0.9825
-3.2698 2.1630 -2.0339 0.9825
-3.4461 1.8696 -2.0339 0.9825
-1.1386 0.3803 -0.6228 0.9946
-1.1944 0.1777 -0.6265 0.9946
-1.1995 -0.1378 -0.6264 0.9946
-1.1226 -0.4437 -0.6262 0.9946
-2.2087 2.9852 -2.0339 0.9832
-2.4607 2.7812 -2.0339 0.9832
-2.9066 2.3112 -2.0339 0.9832
-3.2640 1.7708 -2.0339 0.9832
-1.0025 0.4354 -0.5986 0.9950
-1.0474 0.2508 -0.5899 0.9951
-1.0722 0.1595 -0.5937 0.9951
-1.0813 0.0653 -0.5933 0.9951
-1.0776 -0.1238 -0.5941 0.9951
-1.0587 -0.2165 -0.5919 0.9951
-1.0145 -0.4010 -0.5975 0.9950
-1.8403 3.0039 -2.0339 0.9839
-2.0953 2.8320 -2.0339 0.9839
-2.3343 2.6384 -2.0339 0.9839
-2.9381 1.9436 -2.0339 0.9839
-0.9298 0.4038 -0.5853 0.9953
-0.9663 0.2314 -0.5737 0.9954
-0.9831 0.1462 -0.5738 0.9954
-0.9898 0.0598 -0.5725 0.9954
-0.9899 -0.0267 -0.5717 0.9954
-0.9868 -0.1133 -0.5735 0.9954
-0.9565 -0.2844 -0.5761 0.9954
