ply
format ascii 1.0
element vertex 187
property float32 x
property float32 y
property float32 z
property float32 I
end_header
13.6069 9.4235 -0.8394 0.9359
16.7179 -3.4421 -1.2515 0.9338
11.5288 -12.6591 -2.0339 0.9334
12.6184 -11.5735 -2.0339 0.9334
13.6063 -10.3945 -2.0339 0.9334
15.2455 -7.7950 -2.0339 0.9334
15.8837 -6.3954 -2.0340 0.9334
16.3938 -4.9442 -2.0340 0.9334
16.7715 -3.4531 -2.0340 0.9334
17.0859 1.1385 -2.0341 0.9333
16.6074 4.1745 -2.0341 0.9333
13.1571 9.1120 -1.9011 0.9376
9.6652 -10.6129 -2.0339 0.9437
10.5788 -9.7027 -2.0339 0.9437
11.4069 -8.7143 -2.0339 0.9437
12.1430 -7.6555 -2.0339 0.9437
12.7812 -6.5350 -2.0339 0.9437
13.3162 -5.3616 -2.0340 0.9437
13.7437 -4.1450 -2.0340 0.9437
14.3516 -0.3349 -2.0340 0.9437
13.0730 5.9321 -2.0341 0.9437
12.4879 7.0814 -2.0341 0.9437
11.0209 9.1997 -2.0341 0.9437
9.0986 -8.3452 -2.0339 0.9512
9.8109 -7.4950 -2.0339 0.9512
10.9929 -5.6206 -2.0339 0.9512
11.4529 -4.6114 -2.0339 0.9512
12.2677 -1.3946 -2.0340 0.9512
11.6561 4.0724 -2.0340 0.9512
10.1506 7.0298 -2.0341 0.9512
9.4788 7.9124 -2.0341 0.9512
7.2859 -8.0003 -2.0339 0.9569
8.5988 -6.5690 -2.0339 0.9569
9.1537 -5.7709 -2.0339 0.9569
9.6347 -4.9262 -2.0339 0.9569
10.0380 -4.0417 -2.0339 0.9569
10.7520 -1.2223 -2.0340 0.9569
10.8184 -0.2525 -2.0340 0.9569
10.7975 0.7195 -2.0340 0.9569
10.6894 1.6855 -2.0340 0.9569
10.4950 2.6380 -2.0340 0.9569
10.2160 3.5693 -2.0340 0.9569
9.4135 5.3380 -2.0340 0.9569
8.3076 6.9348 -2.0340 0.9569
6.4787 -7.1139 -2.0339 0.9614
7.6461 -5.8412 -2.0339 0.9614
8.1395 -5.1315 -2.0339 0.9614
8.5672 -4.3804 -2.0339 0.9614
8.9258 -3.5939 -2.0339 0.9614
9.2124 -2.7784 -2.0339 0.9614
9.5051 1.4988 -2.0340 0.9614
9.3322 2.3458 -2.0340 0.9614
9.0841 3.1738 -2.0340 0.9614
8.7626 3.9762 -2.0340 0.9614
6.3777 -5.8496 -2.0339 0.9651
6.8769 -5.2536 -2.0339 0.9651
7.3207 -4.6153 -2.0339 0.9651
8.6353 0.5754 -2.0340 0.9651
8.5488 1.3480 -2.0340 0.9651
7.5284 4.2690 -2.0340 0.9651
5.7891 -5.3097 -2.0339 0.9681
6.6450 -4.1894 -2.0339 0.9681
6.9943 -3.5761 -2.0339 0.9681
7.2870 -2.9340 -2.0339 0.9681
7.5210 -2.2683 -2.0339 0.9681
7.6943 -1.5842 -2.0339 0.9681
7.8054 -0.8873 -2.0340 0.9681
7.4161 2.5910 -2.0340 0.9681
6.4582 4.4727 -2.0340 0.9681
6.0308 5.0342 -2.0340 0.9681
4.8375 -5.3118 -2.0339 0.9706
5.2947 -4.8563 -2.0339 0.9706
6.8787 -2.0746 -2.0339 0.9706
7.1388 -0.8115 -2.0340 0.9706
7.1689 0.4777 -2.0340 0.9706
7.0971 1.1191 -2.0340 0.9706
6.7829 2.3698 -2.0340 0.9706
6.5428 2.9689 -2.0340 0.9706
6.2500 3.5441 -2.0340 0.9706
5.9067 4.0907 -2.0340 0.9706
4.8732 -4.4697 -2.0339 0.9727
5.5938 -3.5266 -2.0339 0.9727
5.8877 -3.0104 -2.0339 0.9727
6.1342 -2.4699 -2.0339 0.9727
6.3311 -1.9094 -2.0339 0.9727
6.5705 -0.7469 -2.0339 0.9727
6.5982 0.4397 -2.0340 0.9727
6.5321 1.0300 -2.0340 0.9727
6.4134 1.6121 -2.0340 0.9727
6.2429 2.1811 -2.0340 0.9727
6.0219 2.7326 -2.0340 0.9727
5.7524 3.2620 -2.0340 0.9727
4.1199 -4.5238 -2.0339 0.9745
4.8622 -3.7145 -2.0339 0.9745
5.6760 -2.2854 -2.0339 0.9745
5.8582 -1.7668 -2.0339 0.9745
6.0797 -0.6911 -2.0339 0.9745
6.1173 -0.1428 -2.0340 0.9745
6.1054 0.4068 -2.0340 0.9745
6.0443 0.9531 -2.0340 0.9745
5.5721 2.5285 -2.0340 0.9745
3.8295 -4.2050 -2.0339 0.9761
4.5196 -3.4528 -2.0339 0.9761
5.0641 -2.5892 -2.0339 0.9761
5.2760 -2.1243 -2.0339 0.9761
5.4454 -1.6423 -2.0339 0.9761
5.5708 -1.1470 -2.0339 0.9761
5.6513 -0.6424 -2.0339 0.9761
5.6861 -0.1327 -2.0339 0.9761
5.6751 0.3781 -2.0340 0.9761
5.6183 0.8859 -2.0340 0.9761
5.3695 1.8760 -2.0340 0.9761
4.9477 2.8056 -2.0340 0.9761
4.6759 3.2383 -2.0340 0.9761
3.5736 -3.9240 -2.0339 0.9775
3.9114 -3.5875 -2.0339 0.9775
4.2175 -3.2220 -2.0339 0.9775
5.0814 -1.5325 -2.0339 0.9775
5.1985 -1.0704 -2.0339 0.9775
5.3061 -0.1238 -2.0339 0.9775
5.2428 0.8267 -2.0340 0.9775
5.1475 1.2938 -2.0340 0.9775
5.0106 1.7506 -2.0340 0.9775
4.8333 2.1932 -2.0340 0.9775
4.6169 2.6181 -2.0340 0.9775
3.9490 -3.0169 -2.0339 0.9788
4.6099 -1.8562 -2.0339 0.9788
4.7579 -1.4349 -2.0339 0.9788
4.9378 -0.5613 -2.0339 0.9788
4.9586 0.3304 -2.0339 0.9788
4.8197 1.2115 -2.0340 0.9787
4.6916 1.6391 -2.0340 0.9787
4.5255 2.0535 -2.0340 0.9787
3.8152 3.1847 -2.0340 0.9787
3.4393 -3.1545 -2.0339 0.9798
3.9479 -2.4889 -2.0339 0.9798
4.1553 -2.1246 -2.0339 0.9798
4.3292 -1.7431 -2.0339 0.9798
4.6567 0.3103 -2.0339 0.9798
4.6100 0.7269 -2.0339 0.9798
4.0597 2.3021 -2.0340 0.9798
3.5828 2.9907 -2.0340 0.9798
3.2382 -2.9700 -2.0339 0.9808
4.3038 -0.8861 -2.0339 0.9808
4.3659 -0.4963 -2.0339 0.9808
4.3843 0.2921 -2.0339 0.9808
4.2615 1.0712 -2.0339 0.9808
4.0014 1.8157 -2.0340 0.9808
3.6124 2.5018 -2.0340 0.9808
3.3733 2.8158 -2.0340 0.9808
2.7919 -3.0656 -2.0339 0.9817
3.0558 -2.8027 -2.0339 0.9817
3.8464 -1.5487 -2.0339 0.9817
4.0613 -0.8362 -2.0339 0.9817
4.1200 -0.4684 -2.0339 0.9817
4.1373 0.2757 -2.0339 0.9817
4.0214 1.0108 -2.0339 0.9817
3.7759 1.7134 -2.0340 0.9817
3.6070 2.0454 -2.0340 0.9817
3.1832 2.6572 -2.0340 0.9817
3.3165 -2.0909 -2.0339 0.9825
3.7536 -1.1321 -2.0339 0.9825
2.0752 -0.0484 -1.0768 0.9907
2.0783 0.1385 -1.0806 0.9907
2.0994 0.3310 -1.1026 0.9905
3.7012 1.2931 -2.0339 0.9825
3.0098 2.5125 -2.0340 0.9825
2.5005 -2.7455 -2.0339 0.9832
2.7367 -2.5101 -2.0339 0.9832
1.8752 -0.5655 -1.0727 0.9911
1.8565 -0.3823 -1.0381 0.9914
1.8521 -0.0432 -1.0147 0.9916
1.8572 0.4668 -1.0489 0.9913
1.9648 0.6864 -1.1399 0.9906
3.0530 2.1143 -2.0340 0.9832
2.8509 2.3798 -2.0340 0.9832
2.3721 -2.6046 -2.0339 0.9839
2.5962 -2.3812 -2.0339 0.9839
2.7995 -2.1386 -2.0339 0.9839
3.1366 -1.6037 -2.0339 0.9839
1.7146 -0.3530 -1.0107 0.9919
1.7181 -0.1953 -0.9983 0.9920
1.7246 -0.0403 -0.9960 0.9921
1.7139 0.4308 -1.0203 0.9919
3.0645 1.7378 -2.0339 0.9839
2.8962 2.0057 -2.0339 0.9839
2.7045 2.2576 -2.0339 0.9839
