ply
format ascii 1.0
element vertex 222
property float32 x
property float32 y
property float32 z
property float32 I
end_header
3.4200 18.6447 3.3424 0.9259
1.7231 18.6699 3.3060 0.9267
-13.1858 12.7610 3.2355 0.9282
3.4383 18.7444 2.9194 0.9258
-12.1704 11.7782 2.5946 0.9338
1.6417 17.7888 2.3263 0.9305
-11.9824 11.5962 2.1714 0.9349
3.4142 18.6135 2.0321 0.9267
1.6681 18.0746 1.9491 0.9296
-11.2102 12.9793 1.8416 0.9333
3.2710 17.8327 1.5348 0.9298
1.6765 18.1652 1.5443 0.9294
-11.5794 13.4068 1.4996 0.9314
-12.6115 12.2051 1.4857 0.9320
-12.5569 14.5386 1.1913 0.9259
-13.0205 12.6009 1.1236 0.9300
3.5114 19.1430 0.7674 0.9250
1.7566 19.0330 0.7537 0.9263
-12.4504 14.4152 0.7511 0.9266
1.8225 19.7473 0.3350 0.9237
3.2993 17.9870 -0.1030 0.9295
11.2619 12.9002 -2.0341 0.9333
7.4416 15.4229 -2.0341 0.9333
6.0352 16.0256 -2.0341 0.9333
3.0896 16.8432 -2.0341 0.9333
0.0454 17.1239 -2.0341 0.9333
-5.9498 16.0565 -2.0340 0.9333
-7.3592 15.4612 -2.0340 0.9334
-8.7099 14.7425 -2.0340 0.9334
-9.9909 13.9060 -2.0340 0.9334
9.4413 10.8148 -2.0341 0.9437
7.3679 12.3212 -2.0341 0.9437
6.2386 12.9296 -2.0341 0.9437
5.0596 13.4349 -2.0341 0.9437
1.3193 14.2951 -2.0341 0.9437
-0.6771 7.7878 -1.1076 0.9689
-1.3238 7.4388 -1.0706 0.9699
-6.1696 12.9619 -2.0340 0.9437
-7.3020 12.3593 -2.0340 0.9437
-9.3830 10.8638 -2.0339 0.9437
-10.3152 9.9828 -2.0339 0.9437
4.3516 11.5549 -2.0341 0.9512
1.1348 12.2948 -2.0340 0.9512
-0.6420 7.3838 -1.2210 0.9704
-1.3031 7.3229 -1.2253 0.9703
-6.2802 10.6300 -2.0340 0.9512
-8.0702 9.3438 -2.0339 0.9512
5.5539 9.2878 -2.0341 0.9569
4.7027 9.7464 -2.0340 0.9569
3.8139 10.1273 -2.0340 0.9569
0.9945 10.7758 -2.0340 0.9569
-3.7600 10.1471 -2.0340 0.9569
-4.6507 9.7709 -2.0340 0.9569
-6.3139 8.7881 -2.0339 0.9569
-7.0731 8.1894 -2.0339 0.9569
6.3283 7.2489 -2.0340 0.9614
5.6560 7.7849 -2.0340 0.9614
4.9385 8.2587 -2.0340 0.9614
2.5740 9.2720 -2.0340 0.9614
1.7361 9.4646 -2.0340 0.9614
0.0255 9.6225 -2.0340 0.9614
-1.9355 7.1182 -1.5593 0.9703
-4.8945 8.2844 -2.0340 0.9614
5.6917 6.5197 -2.0340 0.9651
4.4417 7.4278 -2.0340 0.9651
3.7610 7.7947 -2.0340 0.9651
3.0502 8.0993 -2.0340 0.9651
2.3150 8.3391 -2.0340 0.9651
0.0229 8.6544 -2.0340 0.9651
-0.6460 7.4300 -1.7528 0.9698
-1.9844 7.2979 -1.7774 0.9694
-3.0071 8.1151 -2.0340 0.9651
-5.6568 6.5495 -2.0339 0.9651
5.1664 5.9180 -2.0340 0.9681
4.6175 6.3555 -2.0340 0.9681
3.4138 7.0753 -2.0340 0.9681
2.1014 7.5695 -2.0340 0.9681
0.7220 7.8225 -2.0340 0.9681
-0.6805 7.8262 -2.0340 0.9681
-2.0612 7.5804 -2.0340 0.9681
-3.3762 7.0931 -2.0340 0.9681
-3.9958 6.7634 -2.0339 0.9681
-4.5836 6.3796 -2.0339 0.9681
-5.1347 5.9450 -2.0339 0.9681
-5.6448 5.4629 -2.0339 0.9681
4.7252 5.4125 -2.0340 0.9706
4.2232 5.8127 -2.0340 0.9706
3.1223 6.4710 -2.0340 0.9706
2.5322 6.7239 -2.0340 0.9706
1.9219 6.9230 -2.0340 0.9706
0.0191 7.1848 -2.0340 0.9706
-1.2588 7.0737 -2.0340 0.9706
-2.4965 6.7371 -2.0340 0.9706
-3.0879 6.4873 -2.0339 0.9706
-3.6546 6.1858 -2.0339 0.9706
-4.6962 5.4373 -2.0339 0.9706
3.3939 5.6756 -2.0340 0.9727
2.8737 5.9558 -2.0340 0.9727
2.3306 6.1886 -2.0340 0.9727
0.0175 6.6128 -2.0340 0.9727
-0.5728 6.5880 -2.0340 0.9727
-1.1586 6.5105 -2.0340 0.9727
-1.7351 6.3811 -2.0340 0.9727
-2.2977 6.2007 -2.0340 0.9727
-2.8420 5.9709 -2.0339 0.9727
-3.3636 5.6933 -2.0339 0.9727
-3.8584 5.3704 -2.0339 0.9727
4.0241 4.6096 -2.0340 0.9745
2.6591 5.5110 -2.0340 0.9745
0.0162 6.1189 -2.0340 0.9745
-0.5300 6.0959 -2.0340 0.9745
-1.0720 6.0242 -2.0340 0.9745
-1.6055 5.9045 -2.0340 0.9745
-2.1261 5.7376 -2.0339 0.9745
-2.6298 5.5249 -2.0339 0.9745
-3.1124 5.2681 -2.0339 0.9745
-3.5702 4.9692 -2.0339 0.9745
3.7405 4.2847 -2.0340 0.9761
2.0046 5.3228 -2.0340 0.9761
1.5214 5.4804 -2.0340 0.9761
1.0262 5.5944 -2.0340 0.9761
0.5227 5.6636 -2.0340 0.9761
0.0151 5.6877 -2.0340 0.9761
-0.9965 5.5997 -2.0340 0.9761
-1.9763 5.3332 -2.0339 0.9761
-2.4444 5.1356 -2.0339 0.9761
-2.8930 4.8969 -2.0339 0.9761
-3.3186 4.6190 -2.0339 0.9761
-4.0870 3.9553 -2.0339 0.9761
3.4905 3.9983 -2.0340 0.9775
3.1197 4.2940 -2.0340 0.9775
2.7240 4.5553 -2.0340 0.9775
2.3065 4.7802 -2.0340 0.9775
1.8706 4.9671 -2.0340 0.9775
1.4198 5.1142 -2.0340 0.9775
0.4878 5.2851 -2.0340 0.9775
-0.4598 5.2876 -2.0340 0.9775
-0.9299 5.2254 -2.0340 0.9775
-2.6997 4.5696 -2.0339 0.9775
-3.0968 4.3104 -2.0339 0.9775
-3.8139 3.6910 -2.0339 0.9775
3.2683 3.7438 -2.0340 0.9787
2.9211 4.0206 -2.0340 0.9787
1.3294 4.7886 -2.0340 0.9787
0.8966 4.8881 -2.0340 0.9787
0.4567 4.9486 -2.0340 0.9787
-0.8707 4.8928 -2.0339 0.9788
-1.3039 4.7955 -2.0339 0.9788
-2.1359 4.4872 -2.0339 0.9788
-2.5279 4.2786 -2.0339 0.9788
-2.8996 4.0359 -2.0339 0.9788
3.0693 3.5158 -2.0340 0.9798
2.7432 3.7757 -2.0340 0.9798
2.3952 4.0055 -2.0340 0.9798
2.0281 4.2033 -2.0340 0.9798
1.6448 4.3676 -2.0340 0.9798
0.8420 4.5904 -2.0340 0.9798
0.4289 4.6472 -2.0340 0.9798
0.0124 4.6670 -2.0340 0.9798
-0.4043 4.6494 -2.0339 0.9798
-1.2246 4.5034 -2.0339 0.9798
-1.6216 4.3761 -2.0339 0.9798
-3.0505 3.5319 -2.0339 0.9798
-3.3536 3.2455 -2.0339 0.9798
2.8898 3.3102 -2.0340 0.9808
2.2551 3.7713 -2.0340 0.9808
1.9095 3.9575 -2.0340 0.9808
1.5486 4.1121 -2.0340 0.9808
0.7928 4.3220 -2.0340 0.9808
0.4039 4.3755 -2.0340 0.9808
0.0117 4.3940 -2.0339 0.9808
-0.3806 4.3775 -2.0339 0.9808
-0.7698 4.3261 -2.0339 0.9808
-1.1529 4.2401 -2.0339 0.9808
-1.5268 4.1203 -2.0339 0.9808
-2.2351 3.7831 -2.0339 0.9808
-3.1575 3.0557 -2.0339 0.9808
2.7270 3.1237 -2.0340 0.9817
2.4372 3.3546 -2.0340 0.9817
1.8019 3.7345 -2.0340 0.9817
1.4614 3.8804 -2.0340 0.9817
1.1092 3.9954 -2.0340 0.9817
0.7481 4.0784 -2.0340 0.9817
0.3811 4.1289 -2.0339 0.9817
0.0110 4.1465 -2.0339 0.9817
-0.3591 4.1309 -2.0339 0.9817
-0.7265 4.0823 -2.0339 0.9817
-1.4408 3.8881 -2.0339 0.9817
-1.7821 3.7439 -2.0339 0.9817
-2.4193 3.3674 -2.0339 0.9817
-2.9796 2.8836 -2.0339 0.9817
2.0122 3.3649 -2.0340 0.9825
1.3818 3.6691 -2.0340 0.9825
1.0487 3.7778 -2.0340 0.9825
0.3604 3.9040 -2.0339 0.9825
-0.6869 3.8600 -2.0339 0.9825
-1.0287 3.7832 -2.0339 0.9825
-1.9943 3.3755 -2.0339 0.9825
2.4423 2.7975 -2.0340 0.9832
2.1828 3.0044 -2.0340 0.9832
1.9059 3.1872 -2.0340 0.9832
1.6138 3.3446 -2.0340 0.9832
1.3088 3.4753 -2.0340 0.9832
0.9934 3.5783 -2.0339 0.9832
0.6700 3.6526 -2.0339 0.9832
0.3413 3.6979 -2.0339 0.9832
0.0099 3.7136 -2.0339 0.9832
-0.3217 3.6996 -2.0339 0.9832
-0.9744 3.5834 -2.0339 0.9832
-1.2903 3.4822 -2.0339 0.9832
-1.8889 3.1972 -2.0339 0.9832
-2.4273 2.8104 -2.0339 0.9832
2.3168 2.6539 -2.0340 0.9839
1.8081 3.0236 -2.0339 0.9839
1.2416 3.2969 -2.0339 0.9839
0.9423 3.3945 -2.0339 0.9839
0.0093 3.5229 -2.0339 0.9839
-0.6172 3.4684 -2.0339 0.9839
-1.5141 3.1809 -2.0339 0.9839
-1.7919 3.0330 -2.0339 0.9839
-2.0555 2.8610 -2.0339 0.9839
-2.3027 2.6661 -2.0339 0.9839
