ply
format ascii 1.0
element vertex 183
property float32 x
property float32 y
property float32 z
property float32 I
end_header
-11.7364 -7.6998 -1.3476 0.9452
-16.6839 -3.8432 -2.0337 0.9334
-15.7456 -6.7225 -2.0337 0.9334
-15.0893 -8.0886 -2.0337 0.9334
-11.7929 -7.7369 -1.6754 0.9448
-12.4362 -11.7664 -2.0337 0.9334
-11.3468 -12.8201 -2.0337 0.9334
-10.1686 -13.7734 -2.0337 0.9334
-6.1957 -15.9600 -2.0337 0.9334
-4.7600 -16.4455 -2.0337 0.9334
-1.7881 -17.0270 -2.0337 0.9334
-13.2006 -5.6359 -2.0337 0.9437
-12.0011 -7.8735 -2.0337 0.9437
-11.2577 -8.9039 -2.0337 0.9437
-9.5129 -10.7480 -2.0337 0.9437
-8.5250 -11.5472 -2.0337 0.9437
-6.3572 -12.8686 -2.0337 0.9437
-5.1943 -13.3805 -2.0337 0.9437
-3.9906 -13.7875 -2.0337 0.9437
-2.7556 -14.0864 -2.0337 0.9437
-1.4991 -14.2750 -2.0337 0.9437
-0.2307 -14.3516 -2.0337 0.9437
1.0394 -14.3159 -2.0337 0.9437
2.3014 -14.1680 -2.0338 0.9437
-11.7380 -3.8243 -2.0338 0.9512
-11.3538 -4.8474 -2.0337 0.9512
-10.8805 -5.8325 -2.0337 0.9512
-9.6827 -7.6582 -2.0337 0.9512
-8.9675 -8.4845 -2.0337 0.9512
-6.4253 -10.5413 -2.0337 0.9512
-3.4323 -11.8585 -2.0337 0.9512
-2.3702 -12.1156 -2.0337 0.9512
-1.2893 -12.2778 -2.0338 0.9512
-0.1984 -12.3438 -2.0338 0.9512
-10.5441 -2.4289 -2.0338 0.9569
-10.2880 -3.3519 -2.0338 0.9569
-9.9511 -4.2486 -2.0338 0.9569
-9.5364 -5.1120 -2.0338 0.9569
-9.0469 -5.9353 -2.0338 0.9569
-7.8597 -7.4364 -2.0337 0.9569
-7.1712 -8.1023 -2.0337 0.9569
-6.4266 -8.7048 -2.0337 0.9569
-5.6316 -9.2391 -2.0337 0.9569
-4.7924 -9.7009 -2.0338 0.9569
-3.9156 -10.0867 -2.0338 0.9569
-3.0083 -10.3935 -2.0338 0.9569
-0.1739 -10.8188 -2.0338 0.9569
1.7349 -10.6803 -2.0338 0.9569
-7.5464 -5.9685 -2.0338 0.9614
-6.3768 -7.2047 -2.0338 0.9614
-5.7146 -7.7405 -2.0338 0.9614
-3.4819 -8.9693 -2.0338 0.9614
-1.8472 -9.4425 -2.0338 0.9614
-1.0048 -9.5689 -2.0338 0.9614
0.6967 -9.5963 -2.0338 0.9614
-8.4328 -1.9426 -2.0338 0.9651
-8.2279 -2.6807 -2.0338 0.9651
-7.2354 -4.7469 -2.0338 0.9651
-6.2859 -5.9474 -2.0338 0.9651
-5.1397 -6.9618 -2.0338 0.9651
-3.1316 -8.0671 -2.0338 0.9651
-2.4059 -8.3124 -2.0338 0.9651
-1.6614 -8.4926 -2.0338 0.9651
-0.1391 -8.6525 -2.0338 0.9651
-7.6546 -1.7633 -2.0338 0.9681
-7.4686 -2.4333 -2.0338 0.9681
-6.9231 -3.7111 -2.0338 0.9681
-6.5677 -4.3088 -2.0338 0.9681
-5.2060 -5.8820 -2.0338 0.9681
-4.0883 -6.7072 -2.0338 0.9681
-2.8427 -7.3226 -2.0338 0.9681
-0.8204 -7.8121 -2.0338 0.9681
-6.3319 -3.3942 -2.0338 0.9706
-5.6348 -4.4567 -2.0338 0.9706
-4.7615 -5.3797 -2.0338 0.9706
-4.2671 -5.7797 -2.0338 0.9706
-3.7392 -6.1345 -2.0338 0.9706
-3.1820 -6.4411 -2.0338 0.9706
-2.5999 -6.6973 -2.0338 0.9706
-1.9974 -6.9010 -2.0338 0.9706
-0.1155 -7.1834 -2.0338 0.9706
0.5203 -7.1654 -2.0338 0.9706
1.1519 -7.0914 -2.0338 0.9706
-6.4436 -1.4844 -2.0338 0.9727
-6.0812 -2.5964 -2.0338 0.9727
-5.8279 -3.1240 -2.0338 0.9727
-5.5287 -3.6272 -2.0338 0.9727
-5.1862 -4.1019 -2.0338 0.9727
-4.8032 -4.5445 -2.0338 0.9727
-3.9274 -5.3196 -2.0338 0.9727
-3.4415 -5.6462 -2.0338 0.9727
-2.3929 -6.1642 -2.0338 0.9727
-0.6906 -6.5762 -2.0338 0.9727
-0.1063 -6.6116 -2.0338 0.9727
1.0602 -6.5269 -2.0338 0.9727
-5.3926 -2.8907 -2.0338 0.9745
-5.1158 -3.3563 -2.0338 0.9745
-3.6341 -4.9223 -2.0338 0.9745
-2.2142 -5.7038 -2.0338 0.9745
-1.7011 -5.8773 -2.0338 0.9745
-1.1747 -6.0047 -2.0338 0.9745
0.4430 -6.1025 -2.0338 0.9745
-5.4076 -1.7618 -2.0338 0.9761
-5.2305 -2.2331 -2.0338 0.9761
-5.0125 -2.6870 -2.0338 0.9761
-4.7553 -3.1198 -2.0338 0.9761
-4.4607 -3.5281 -2.0338 0.9761
-2.0582 -5.3018 -2.0338 0.9761
-1.5812 -5.4631 -2.0338 0.9761
-1.0919 -5.5815 -2.0338 0.9761
-0.5940 -5.6562 -2.0338 0.9761
0.9119 -5.6138 -2.0338 0.9761
-5.1718 -1.1914 -2.0338 0.9775
-5.0461 -1.6441 -2.0338 0.9775
-4.6776 -2.5074 -2.0338 0.9775
-4.1627 -3.2923 -2.0338 0.9775
-3.8551 -3.6475 -2.0338 0.9775
-3.1522 -4.2697 -2.0338 0.9775
-2.7623 -4.5317 -2.0338 0.9775
-1.9206 -4.9475 -2.0338 0.9775
-1.0189 -5.2085 -2.0338 0.9775
-0.0853 -5.3066 -2.0338 0.9775
0.3843 -5.2934 -2.0338 0.9775
0.8509 -5.2387 -2.0338 0.9775
-2.1194 -0.4882 -0.8901 0.9906
-4.7249 -1.5394 -2.0338 0.9788
-4.5703 -1.9512 -2.0338 0.9788
-3.6097 -3.4153 -2.0338 0.9788
-3.2935 -3.7212 -2.0338 0.9788
-1.7984 -4.6326 -2.0338 0.9788
-1.3816 -4.7735 -2.0338 0.9788
-0.5190 -4.9422 -2.0338 0.9788
0.3598 -4.9564 -2.0338 0.9788
-1.9014 -0.4380 -0.8503 0.9915
-4.4371 -1.4456 -2.0338 0.9798
-4.2919 -1.8324 -2.0338 0.9798
-4.1130 -2.2048 -2.0338 0.9798
-2.0670 -4.1840 -2.0338 0.9798
-0.4874 -4.6412 -2.0338 0.9798
-0.0750 -4.6662 -2.0338 0.9798
-4.0409 -1.7253 -2.0338 0.9808
-3.8725 -2.0759 -2.0338 0.9808
-3.1917 -3.0198 -2.0338 0.9808
-2.2869 -3.7518 -2.0338 0.9808
-0.8436 -4.3121 -2.0338 0.9808
-0.4589 -4.3698 -2.0338 0.9808
-0.0706 -4.3933 -2.0339 0.9808
-1.3246 -0.3052 -0.6668 0.9940
-3.6543 -1.9589 -2.0338 0.9817
-3.0118 -2.8496 -2.0338 0.9817
-2.1580 -3.5404 -2.0338 0.9817
-0.7960 -4.0692 -2.0338 0.9817
0.6648 -4.0927 -2.0339 0.9817
-1.1718 -0.2700 -0.6238 0.9946
-1.1404 -0.3716 -0.6222 0.9946
-3.4553 -1.8522 -2.0338 0.9825
-3.2779 -2.1505 -2.0338 0.9825
-2.8478 -2.6944 -2.0338 0.9825
-2.5984 -2.9357 -2.0338 0.9825
-1.4188 -3.6547 -2.0338 0.9825
-0.7527 -3.8475 -2.0339 0.9825
-0.4095 -3.8990 -2.0339 0.9825
0.6286 -3.8698 -2.0339 0.9825
-1.0048 -0.4291 -0.5984 0.9950
-2.6974 -2.5521 -2.0338 0.9832
-2.2055 -2.9875 -2.0338 0.9832
-1.6448 -3.3293 -2.0338 0.9832
-1.3438 -3.4618 -2.0339 0.9832
-0.7129 -3.6444 -2.0339 0.9832
-0.9525 -0.3104 -0.5784 0.9954
-0.9317 -0.3978 -0.5849 0.9953
-0.9027 -0.4839 -0.5913 0.9953
-2.9454 -1.9324 -2.0339 0.9839
-2.7629 -2.1853 -2.0339 0.9839
-2.3347 -2.6379 -2.0339 0.9839
-2.0923 -2.8341 -2.0339 0.9839
-1.5603 -3.1584 -2.0339 0.9839
-1.2748 -3.2840 -2.0339 0.9839
-0.9795 -3.3839 -2.0339 0.9839
-0.3679 -3.5035 -2.0339 0.9839
-0.0566 -3.5223 -2.0339 0.9839
0.2551 -3.5135 -2.0339 0.9839
0.5648 -3.4772 -2.0339 0.9839
