ply
format ascii 1.0
element vertex 237
property float32 x
property float32 y
property float32 z
property float32 I
end_header
16.3187 -4.2084 -1.2357 0.9346
14.5260 8.8559 -1.2474 0.9340
14.4389 8.8028 -1.6235 0.9343
8.4856 -14.8709 -2.0338 0.9334
9.7721 -14.0593 -2.0338 0.9334
10.9815 -13.1365 -2.0338 0.9334
12.1043 -12.1101 -2.0339 0.9334
14.8678 -8.4933 -2.0339 0.9334
16.5607 -4.2708 -2.0315 0.9334
16.8950 -2.7874 -2.0340 0.9333
16.4530 4.7466 -2.0341 0.9333
15.3547 7.5810 -2.0341 0.9333
12.8148 11.3589 -2.0341 0.9333
11.7561 12.4515 -2.0341 0.9333
9.2064 -11.0132 -2.0339 0.9437
10.1477 -10.1526 -2.0339 0.9437
11.0089 -9.2119 -2.0339 0.9437
13.9004 -3.5847 -2.0340 0.9437
14.3541 0.2044 -2.0340 0.9437
14.0920 2.7392 -2.0341 0.9437
13.3857 5.1878 -2.0341 0.9437
11.5460 8.5314 -2.0341 0.9437
10.7432 9.5226 -2.0341 0.9437
8.8902 11.2721 -2.0341 0.9437
7.0462 -10.1376 -2.0338 0.9512
8.7279 -8.7321 -2.0339 0.9512
10.1345 -7.0514 -2.0339 0.9512
11.6345 -4.1321 -2.0340 0.9512
11.9554 -3.0832 -2.0340 0.9512
12.2814 1.2709 -2.0340 0.9512
11.8632 3.4224 -2.0340 0.9512
11.5127 4.4619 -2.0340 0.9512
10.5424 6.4273 -2.0341 0.9512
9.9304 7.3376 -2.0341 0.9512
6.1758 -8.8852 -2.0339 0.9569
8.8824 -6.1802 -2.0339 0.9569
10.4784 -2.7023 -2.0340 0.9569
10.6227 2.0648 -2.0340 0.9569
10.0903 3.9106 -2.0340 0.9569
9.7034 4.7908 -2.0340 0.9569
9.2399 5.6332 -2.0340 0.9569
8.0983 7.1782 -2.0341 0.9569
7.4292 7.8687 -2.0341 0.9569
6.8021 -6.8054 -2.0339 0.9614
7.3793 -6.1748 -2.0339 0.9614
8.7456 -4.0124 -2.0339 0.9614
9.3174 -2.4029 -2.0340 0.9614
9.4940 -1.5663 -2.0340 0.9614
9.5956 -0.7175 -2.0340 0.9614
9.2455 2.6672 -2.0340 0.9614
8.2161 5.0090 -2.0340 0.9614
7.7391 5.7185 -2.0340 0.9614
7.2010 6.3829 -2.0340 0.9614
5.9589 7.5555 -2.0340 0.9614
5.5504 -6.6396 -2.0339 0.9651
6.6370 -5.5537 -2.0339 0.9651
7.1037 -4.9427 -2.0339 0.9651
7.8658 -3.6087 -2.0339 0.9651
8.1552 -2.8964 -2.0339 0.9651
8.3801 -2.1611 -2.0339 0.9651
8.5389 -1.4088 -2.0340 0.9651
8.6302 -0.6453 -2.0340 0.9651
8.6536 0.1232 -2.0340 0.9651
8.6085 0.8908 -2.0340 0.9651
8.4955 1.6514 -2.0340 0.9651
7.3895 4.5051 -2.0340 0.9651
6.9605 5.1432 -2.0340 0.9651
6.4765 5.7407 -2.0340 0.9651
5.9414 6.2929 -2.0340 0.9651
3.3553 -5.8802 -1.7529 0.9724
4.4833 -6.4502 -2.0339 0.9681
5.0381 -6.0269 -2.0339 0.9681
7.4026 -2.6291 -2.0339 0.9681
7.7508 -1.2788 -2.0340 0.9681
7.8338 -0.5858 -2.0340 0.9681
7.8139 0.8086 -2.0340 0.9681
7.5479 2.1775 -2.0340 0.9681
7.3249 2.8388 -2.0340 0.9681
7.0440 3.4778 -2.0340 0.9681
4.8648 6.1682 -2.0340 0.9681
3.5606 -6.2400 -2.0339 0.9706
4.1004 -5.8994 -2.0339 0.9706
4.6079 -5.5122 -2.0339 0.9706
5.0790 -5.0815 -2.0339 0.9706
5.5100 -4.6106 -2.0339 0.9706
7.1841 0.1023 -2.0340 0.9706
7.1467 0.7396 -2.0340 0.9706
7.0529 1.3709 -2.0340 0.9706
6.9033 1.9915 -2.0340 0.9706
6.4425 3.1808 -2.0340 0.9706
6.1347 3.7401 -2.0340 0.9706
5.3768 4.7659 -2.0340 0.9706
4.9325 5.2243 -2.0340 0.9706
3.2772 -5.7433 -2.0339 0.9727
4.6746 -4.6770 -2.0339 0.9727
5.0714 -4.2436 -2.0339 0.9727
5.4280 -3.7767 -2.0339 0.9727
6.5246 -1.0765 -2.0339 0.9727
6.5944 -0.4931 -2.0340 0.9727
6.1660 2.3897 -2.0340 0.9727
5.6463 3.4423 -2.0340 0.9727
5.3185 3.9299 -2.0340 0.9727
4.9487 4.3864 -2.0340 0.9727
4.0951 5.1923 -2.0340 0.9727
3.0324 -5.3143 -2.0339 0.9745
3.4921 -5.0242 -2.0339 0.9745
4.3255 -4.3277 -2.0339 0.9745
5.0226 -3.4946 -2.0339 0.9745
5.3130 -3.0351 -2.0339 0.9745
6.0373 -0.9961 -2.0339 0.9745
6.1018 -0.4563 -2.0339 0.9745
6.0864 0.6298 -2.0340 0.9745
6.0065 1.1675 -2.0340 0.9745
5.8792 1.6961 -2.0340 0.9745
4.9213 3.6363 -2.0340 0.9745
4.5791 4.0588 -2.0340 0.9745
4.2007 4.4492 -2.0340 0.9745
3.7893 4.8045 -2.0340 0.9745
2.8187 -4.9398 -2.0339 0.9761
4.3619 -3.6499 -2.0339 0.9761
4.6686 -3.2484 -2.0339 0.9761
4.9386 -2.8212 -2.0339 0.9761
5.3596 -1.9035 -2.0339 0.9761
5.5074 -1.4203 -2.0339 0.9761
5.6718 -0.4241 -2.0339 0.9761
5.6871 0.0810 -2.0340 0.9761
5.5832 1.0853 -2.0340 0.9761
5.4648 1.5765 -2.0340 0.9761
4.8564 2.9607 -2.0340 0.9761
4.2564 3.7728 -2.0340 0.9761
3.9047 4.1357 -2.0340 0.9761
2.6304 -4.6097 -2.0339 0.9775
3.7520 -3.7538 -2.0339 0.9775
4.6086 -2.6326 -2.0339 0.9775
5.0014 -1.7763 -2.0339 0.9775
5.1394 -1.3254 -2.0339 0.9775
5.2368 -0.8640 -2.0339 0.9775
5.0996 1.4712 -2.0340 0.9775
4.9489 1.9180 -2.0340 0.9775
4.5318 2.7629 -2.0340 0.9775
4.2687 3.1542 -2.0340 0.9775
3.9719 3.5206 -2.0340 0.9775
2.4629 -4.3162 -2.0339 0.9788
2.8363 -4.0806 -2.0339 0.9788
3.1873 -3.8128 -2.0339 0.9788
3.5131 -3.5148 -2.0339 0.9788
4.3151 -2.4650 -2.0339 0.9788
4.5169 -2.0723 -2.0339 0.9788
4.6830 -1.6632 -2.0339 0.9788
4.8121 -1.2410 -2.0339 0.9788
4.9033 -0.8090 -2.0339 0.9788
4.9691 0.0708 -2.0339 0.9787
4.9432 0.5115 -2.0339 0.9787
4.8784 0.9483 -2.0340 0.9787
4.4562 2.2001 -2.0340 0.9787
4.2433 2.5869 -2.0340 0.9787
3.9969 2.9533 -2.0340 0.9787
3.0775 3.9021 -2.0340 0.9787
2.3129 -4.0534 -2.0339 0.9798
2.6635 -3.8321 -2.0339 0.9798
2.9932 -3.5805 -2.0339 0.9798
3.2992 -3.3007 -2.0339 0.9798
3.5791 -2.9949 -2.0339 0.9798
4.5191 -1.1654 -2.0339 0.9798
4.6047 -0.7597 -2.0339 0.9798
4.6539 -0.3480 -2.0339 0.9798
4.5812 0.8905 -2.0339 0.9798
4.3516 1.6865 -2.0340 0.9798
4.1848 2.0661 -2.0340 0.9798
3.7535 2.7735 -2.0340 0.9798
3.2039 3.3935 -2.0340 0.9798
2.8901 3.6645 -2.0340 0.9798
2.1777 -3.8163 -2.0339 0.9808
3.1063 -3.1077 -2.0339 0.9808
3.6068 -2.5096 -2.0339 0.9808
4.1407 -1.4706 -2.0339 0.9808
4.2548 -1.0973 -2.0339 0.9808
4.3355 -0.7153 -2.0339 0.9808
4.3134 0.8384 -2.0339 0.9808
4.2219 1.2180 -2.0340 0.9808
4.0971 1.5879 -2.0340 0.9808
3.5340 2.6113 -2.0340 0.9808
2.7211 3.4502 -2.0340 0.9808
2.3664 -3.4047 -2.0339 0.9817
2.9312 -2.9327 -2.0339 0.9817
3.1800 -2.6609 -2.0339 0.9817
3.4036 -2.3682 -2.0339 0.9817
3.6004 -2.0567 -2.0339 0.9817
4.0911 -0.6750 -2.0339 0.9817
4.1350 -0.3092 -2.0339 0.9817
4.1461 0.0590 -2.0339 0.9817
4.0703 0.7912 -2.0339 0.9817
3.9840 1.1493 -2.0339 0.9817
3.8663 1.4984 -2.0340 0.9817
3.7180 1.8357 -2.0340 0.9817
3.5404 2.1584 -2.0340 0.9817
3.1030 2.7504 -2.0340 0.9817
2.8466 3.0150 -2.0340 0.9817
2.5678 3.2558 -2.0340 0.9817
1.9430 -3.4052 -2.0339 0.9825
2.5145 -3.0080 -2.0339 0.9825
2.7716 -2.7729 -2.0339 0.9825
3.2182 -2.2392 -2.0339 0.9825
3.4043 -1.9447 -2.0339 0.9825
3.6945 -1.3121 -2.0339 0.9825
3.7964 -0.9790 -2.0339 0.9825
2.1012 -0.3467 -1.1048 0.9904
2.0777 0.2150 -1.0836 0.9906
2.1055 0.4093 -1.1128 0.9904
3.7671 1.0868 -2.0339 0.9825
3.6557 1.4168 -2.0339 0.9825
3.5155 1.7357 -2.0340 0.9825
3.1532 2.3300 -2.0340 0.9825
2.9340 2.6006 -2.0340 0.9825
2.6916 2.8508 -2.0340 0.9825
1.8404 -3.2253 -2.0339 0.9832
2.1194 -3.0493 -2.0339 0.9832
2.3818 -2.8491 -2.0339 0.9832
3.2245 -1.8420 -2.0339 0.9832
2.0123 -0.7147 -1.1696 0.9903
1.8569 -0.4789 -1.0503 0.9913
1.8518 -0.1385 -1.0170 0.9916
1.8514 0.0263 -1.0141 0.9916
1.8555 0.3607 -1.0353 0.9914
1.8702 0.5395 -1.0661 0.9912
2.9867 2.2069 -2.0340 0.9832
2.2997 2.9159 -2.0340 0.9832
2.4904 -2.4916 -2.0339 0.9839
2.7018 -2.2607 -2.0339 0.9839
3.0589 -1.7474 -2.0339 0.9839
1.7134 -0.4419 -1.0216 0.9919
1.7140 0.3332 -1.0081 0.9920
1.7136 0.4943 -1.0297 0.9918
1.7246 0.6684 -1.0679 0.9915
3.1589 1.5596 -2.0339 0.9839
3.0080 1.8338 -2.0339 0.9839
2.4185 2.5616 -2.0339 0.9839
