ply
format ascii 1.0
element vertex 182
property float32 x
property float32 y
property float32 z
property float32 I
end_header
2.8679 -6.0916 -0.6464 0.9733
16.1807 -3.7376 -1.5943 0.9354
8.6613 -14.7693 -2.0338 0.9334
11.1755 -12.9719 -2.0339 0.9334
12.3008 -11.9105 -2.0339 0.9334
14.2419 -9.5053 -2.0339 0.9334
15.7189 -6.7903 -2.0340 0.9334
16.9638 -2.3324 -2.0340 0.9333
2.2522 -6.1771 -0.9316 0.9738
7.2613 -12.3821 -2.0338 0.9437
11.1717 -9.0138 -2.0339 0.9437
11.9397 -7.9688 -2.0339 0.9437
13.6381 -4.4801 -2.0340 0.9437
13.9869 -3.2309 -2.0340 0.9437
14.3401 -0.6638 -2.0340 0.9437
14.3416 0.6332 -2.0340 0.9437
13.9943 3.2011 -2.0341 0.9437
7.1811 -10.0426 -2.0338 0.9512
8.8696 -8.5881 -2.0339 0.9512
10.2692 -6.8538 -2.0339 0.9512
10.8459 -5.8991 -2.0339 0.9512
11.3341 -4.8961 -2.0339 0.9512
11.7298 -3.8532 -2.0340 0.9512
12.0299 -2.7788 -2.0340 0.9512
12.3336 -0.5709 -2.0340 0.9512
12.0361 2.7532 -2.0340 0.9512
11.7386 3.8283 -2.0340 0.9512
3.5538 -6.0600 -1.3205 0.9718
6.2939 -8.8019 -2.0339 0.9569
7.7738 -7.5271 -2.0339 0.9569
8.4215 -6.7948 -2.0339 0.9569
9.9338 -4.2912 -2.0339 0.9569
10.5436 -2.4355 -2.0340 0.9569
10.8098 -0.5004 -2.0340 0.9569
10.7237 1.4511 -2.0340 0.9569
2.1236 -5.8244 -1.3104 0.9750
2.7234 -5.7849 -1.3516 0.9742
3.3719 -5.7499 -1.4090 0.9731
6.2802 -7.2897 -2.0339 0.9614
6.9125 -6.6932 -2.0339 0.9614
7.4884 -6.0421 -2.0339 0.9614
8.4528 -4.5974 -2.0339 0.9614
8.8332 -3.8158 -2.0339 0.9614
9.3754 -2.1657 -2.0340 0.9614
9.5327 -1.3107 -2.0340 0.9614
9.6131 0.4244 -2.0340 0.9614
9.5356 1.2903 -2.0340 0.9614
9.3802 2.1457 -2.0340 0.9614
9.1483 2.9835 -2.0340 0.9614
2.0844 -5.7166 -1.4301 0.9753
3.3927 -5.7853 -1.5762 0.9728
5.0336 -7.0394 -2.0339 0.9651
6.7351 -5.4342 -2.0339 0.9651
7.1981 -4.8042 -2.0339 0.9651
7.6024 -4.1349 -2.0339 0.9651
8.4322 -1.9478 -2.0340 0.9651
8.6451 -0.4002 -2.0340 0.9651
8.5763 1.1605 -2.0340 0.9651
8.4366 1.9298 -2.0340 0.9651
8.2280 2.6834 -2.0340 0.9651
2.1485 -5.8925 -1.6239 0.9744
2.6502 -5.6292 -1.6109 0.9746
5.1271 -5.9513 -2.0339 0.9681
6.1136 -4.9327 -2.0339 0.9681
6.5338 -4.3608 -2.0339 0.9681
7.4632 -2.4516 -2.0339 0.9681
7.7824 -1.0700 -2.0340 0.9681
7.8472 -0.3633 -2.0340 0.9681
7.8480 0.3465 -2.0340 0.9681
7.7847 1.0534 -2.0340 0.9681
7.6579 1.7517 -2.0340 0.9681
7.4686 2.4357 -2.0340 0.9681
2.1755 -5.9667 -1.7979 0.9739
4.1789 -5.8441 -2.0339 0.9706
4.6893 -5.4431 -2.0339 0.9706
5.5915 -4.5114 -2.0339 0.9706
6.3115 -3.4328 -2.0339 0.9706
6.5956 -2.8492 -2.0339 0.9706
7.1771 -0.3323 -2.0340 0.9706
7.1200 0.9634 -2.0340 0.9706
7.0039 1.6021 -2.0340 0.9706
6.8308 2.2277 -2.0340 0.9706
2.8166 -5.9826 -2.0339 0.9727
3.3450 -5.7040 -2.0339 0.9727
4.7505 -4.5999 -2.0339 0.9727
6.2825 -2.0638 -2.0339 0.9727
6.6057 -0.3058 -2.0340 0.9727
6.4464 1.4746 -2.0340 0.9727
2.0959 -5.7484 -2.0339 0.9745
2.6063 -5.5358 -2.0339 0.9745
3.0952 -5.2780 -2.0339 0.9745
3.9937 -4.6356 -2.0339 0.9745
4.7620 -3.8422 -2.0339 0.9745
5.0893 -3.3967 -2.0339 0.9745
5.8132 -1.9096 -2.0339 0.9745
5.9619 -1.3772 -2.0339 0.9745
6.1129 0.2699 -2.0340 0.9745
3.3081 -4.6264 -2.0339 0.9761
3.7122 -4.3089 -2.0339 0.9761
4.4264 -3.5714 -2.0339 0.9761
4.7307 -3.1574 -2.0339 0.9761
4.9964 -2.7175 -2.0339 0.9761
5.2213 -2.2555 -2.0339 0.9761
5.4036 -1.7751 -2.0339 0.9761
5.6816 -0.2630 -2.0339 0.9761
5.6822 0.2508 -2.0340 0.9761
5.5445 1.2682 -2.0340 0.9761
5.4074 1.7635 -2.0340 0.9761
2.6848 -4.5782 -2.0339 0.9775
3.4641 -4.0210 -2.0339 0.9775
4.1305 -3.3328 -2.0339 0.9775
5.0424 -1.6564 -2.0339 0.9775
5.1714 -1.1946 -2.0339 0.9775
5.2581 -0.7229 -2.0339 0.9775
5.3019 -0.2454 -2.0339 0.9775
5.3024 0.2341 -2.0339 0.9775
5.2596 0.7117 -2.0340 0.9775
2.5139 -4.2867 -2.0339 0.9788
2.8905 -4.0423 -2.0339 0.9788
3.8676 -3.1206 -2.0339 0.9788
4.1335 -2.7588 -2.0339 0.9788
4.3656 -2.3745 -2.0339 0.9788
4.5621 -1.9708 -2.0339 0.9788
4.9643 -0.2298 -2.0339 0.9787
4.9248 0.6664 -2.0340 0.9787
1.5986 -4.3845 -2.0339 0.9798
2.3608 -4.0257 -2.0339 0.9798
3.8818 -2.5907 -2.0339 0.9798
4.2843 -1.8507 -2.0339 0.9798
4.4339 -1.4565 -2.0339 0.9798
4.5472 -1.0504 -2.0339 0.9798
4.6235 -0.6357 -2.0339 0.9798
4.6620 -0.2158 -2.0339 0.9798
4.6625 0.2058 -2.0339 0.9798
4.5495 1.0406 -2.0340 0.9798
4.4370 1.4470 -2.0340 0.9798
1.5051 -4.1281 -2.0339 0.9808
4.0338 -1.7425 -2.0339 0.9808
4.1746 -1.3713 -2.0339 0.9808
4.2813 -0.9890 -2.0339 0.9808
4.3898 0.1938 -2.0339 0.9808
4.3543 0.5892 -2.0339 0.9808
4.1775 1.3624 -2.0340 0.9808
1.7661 -3.7514 -2.0339 0.9817
2.0975 -3.5767 -2.0339 0.9817
2.4117 -3.3728 -2.0339 0.9817
2.7063 -3.1414 -2.0339 0.9817
3.2270 -2.6037 -2.0339 0.9817
3.4488 -2.3018 -2.0339 0.9817
3.9393 -1.2940 -2.0339 0.9817
4.1078 -0.5648 -2.0339 0.9817
4.1420 -0.1918 -2.0339 0.9817
4.1424 0.1828 -2.0339 0.9817
4.1091 0.5560 -2.0339 0.9817
3.9421 1.2856 -2.0339 0.9817
1.6699 -3.5471 -2.0339 0.9825
1.9833 -3.3819 -2.0339 0.9825
2.2804 -3.1891 -2.0339 0.9825
3.0512 -2.4619 -2.0339 0.9825
3.2610 -2.1764 -2.0339 0.9825
2.0930 -0.2878 -1.0960 0.9905
2.0777 0.0917 -1.0789 0.9907
2.0923 0.2831 -1.0953 0.9905
3.7275 1.2156 -2.0339 0.9825
1.2721 -3.4888 -2.0339 0.9832
1.5817 -3.3598 -2.0339 0.9832
1.8785 -3.2033 -2.0339 0.9832
3.4091 -1.4727 -2.0339 0.9832
1.8528 -0.0858 -1.0159 0.9916
1.8528 0.0818 -1.0158 0.9916
1.8896 0.6162 -1.0886 0.9910
1.5005 -3.1872 -2.0339 0.9839
1.7820 -3.0388 -2.0339 0.9839
2.2993 -2.6689 -2.0339 0.9839
2.5308 -2.4505 -2.0339 0.9839
2.7417 -2.2121 -2.0339 0.9839
3.0948 -1.6832 -2.0339 0.9839
1.7148 -0.3961 -1.0161 0.9919
1.7136 -0.2356 -0.9987 0.9920
1.7236 -0.0798 -0.9962 0.9921
1.7141 0.2319 -0.9986 0.9920
1.7149 0.3922 -1.0157 0.9919
