ply
format ascii 1.0
element vertex 175
property float32 x
property float32 y
property float32 z
property float32 I
end_header
-11.7525 -8.8714 -1.0797 0.9427
-12.5133 -7.7608 -1.4136 0.9425
-12.8345 -7.9600 -1.7940 0.9410
-11.2007 -8.4549 -1.6670 0.9450
-11.5604 -12.6280 -2.0337 0.9334
-10.3587 -13.6310 -2.0337 0.9334
-7.7066 -15.2878 -2.0337 0.9334
-4.7975 -16.4346 -2.0337 0.9334
-3.2764 -16.8042 -2.0337 0.9334
-0.1653 -17.1200 -2.0337 0.9334
-12.8378 -6.4196 -2.0337 0.9437
-12.1978 -7.5651 -2.0337 0.9437
-11.4559 -8.6475 -2.0337 0.9437
-10.6182 -9.6576 -2.0337 0.9437
-8.6845 -11.4278 -2.0337 0.9437
-7.6045 -12.1732 -2.0337 0.9437
-2.7469 -14.0881 -2.0337 0.9437
-1.4488 -14.2802 -2.0337 0.9437
-0.1385 -14.3529 -2.0337 0.9437
2.4745 -14.1388 -2.0338 0.9437
-11.0417 -5.5214 -2.0337 0.9512
-10.4913 -6.5067 -2.0337 0.9512
-7.4695 -9.8290 -2.0337 0.9512
-6.5406 -10.4701 -2.0337 0.9512
-5.5571 -11.0237 -2.0337 0.9512
-3.4593 -11.8507 -2.0337 0.9512
-2.3626 -12.1171 -2.0337 0.9512
-0.1191 -12.3448 -2.0338 0.9512
2.1282 -12.1607 -2.0338 0.9512
2.2384 -6.0170 -1.0576 0.9743
-7.3061 -7.9809 -2.0337 0.9569
-6.5468 -8.6148 -2.0337 0.9569
-3.9679 -10.0663 -2.0338 0.9569
-3.0320 -10.3867 -2.0338 0.9569
-2.0707 -10.6202 -2.0338 0.9569
1.8654 -10.6583 -2.0338 0.9569
1.6405 -6.0521 -1.1786 0.9748
2.2005 -5.9149 -1.1862 0.9746
-8.1765 -5.0711 -2.0338 0.9614
-5.8215 -7.6604 -2.0338 0.9614
-3.5283 -8.9511 -2.0338 0.9614
-2.6961 -9.2360 -2.0338 0.9614
0.7862 -9.5894 -2.0338 0.9614
2.1879 -5.8812 -1.3264 0.9747
-7.3540 -4.5610 -2.0338 0.9651
-6.9068 -5.2136 -2.0338 0.9651
-6.4017 -5.8225 -2.0338 0.9651
-5.8432 -6.3829 -2.0338 0.9651
-5.2358 -6.8898 -2.0338 0.9651
-4.5848 -7.3392 -2.0338 0.9651
-3.8954 -7.7272 -2.0338 0.9651
-0.0835 -8.6532 -2.0338 0.9651
1.4918 -8.5242 -2.0338 0.9651
1.6059 -5.9245 -1.4426 0.9751
-5.3040 -5.7938 -2.0338 0.9681
-4.1617 -6.6619 -2.0338 0.9681
-2.2011 -7.5403 -2.0338 0.9681
-0.7929 -7.8149 -2.0338 0.9681
-0.0759 -7.8547 -2.0338 0.9681
0.6418 -7.8288 -2.0338 0.9681
1.3541 -7.7375 -2.0338 0.9681
1.5932 -5.8775 -1.5767 0.9752
2.1926 -5.8936 -1.6281 0.9744
-5.7341 -4.3283 -2.0338 0.9706
-4.8511 -5.2991 -2.0338 0.9706
-3.8063 -6.0930 -2.0338 0.9706
-3.2339 -6.4152 -2.0338 0.9706
-2.0131 -6.8964 -2.0338 0.9706
-1.3749 -7.0515 -2.0338 0.9706
-0.7252 -7.1476 -2.0338 0.9706
-0.0694 -7.1840 -2.0338 0.9706
1.2385 -7.0768 -2.0338 0.9706
1.6250 -5.9950 -1.7584 0.9745
-5.6194 -3.4851 -2.0338 0.9727
-4.8916 -4.4491 -2.0338 0.9727
-4.4650 -4.8772 -2.0338 0.9727
-4.0008 -5.2646 -2.0338 0.9727
-2.9765 -5.9045 -2.0338 0.9727
-2.4248 -6.1517 -2.0338 0.9727
-1.8529 -6.3475 -2.0338 0.9727
-1.2654 -6.4902 -2.0338 0.9727
-0.6675 -6.5786 -2.0338 0.9727
-0.0638 -6.6121 -2.0338 0.9727
0.5403 -6.5903 -2.0338 0.9727
1.1399 -6.5134 -2.0338 0.9727
2.3057 -6.1975 -2.0339 0.9727
-5.1997 -3.2248 -2.0338 0.9745
-4.8834 -3.6862 -2.0338 0.9745
-4.5263 -4.1168 -2.0338 0.9745
-4.1314 -4.5130 -2.0338 0.9745
-3.2416 -5.1892 -2.0338 0.9745
-2.7542 -5.4635 -2.0338 0.9745
-2.2437 -5.6923 -2.0338 0.9745
-1.1709 -6.0054 -2.0338 0.9745
-0.0591 -6.1183 -2.0338 0.9745
0.4999 -6.0981 -2.0338 0.9745
1.6008 -5.9055 -2.0338 0.9745
-4.5393 -3.4265 -2.0338 0.9761
-4.2074 -3.8267 -2.0338 0.9761
-3.4412 -4.5281 -2.0338 0.9761
-3.0132 -4.8235 -2.0338 0.9761
-2.0856 -5.2911 -2.0338 0.9761
-1.5937 -5.4595 -2.0338 0.9761
0.4647 -5.6683 -2.0338 0.9761
0.9804 -5.6022 -2.0338 0.9761
1.9831 -5.3305 -2.0339 0.9761
-3.2112 -4.2255 -2.0338 0.9775
-1.9462 -4.9375 -2.0338 0.9775
-1.4872 -5.0946 -2.0338 0.9775
-1.0157 -5.2092 -2.0338 0.9775
-0.0512 -5.3070 -2.0338 0.9775
0.4336 -5.2896 -2.0338 0.9775
-3.6762 -3.3436 -2.0338 0.9788
-1.8223 -4.6232 -2.0338 0.9788
-0.9510 -4.8775 -2.0338 0.9788
-0.0480 -4.9692 -2.0338 0.9788
1.7328 -4.6576 -2.0339 0.9788
-3.9659 -2.4597 -2.0338 0.9798
-3.7247 -2.8116 -2.0338 0.9798
-3.4524 -3.1400 -2.0338 0.9798
-3.1512 -3.4422 -2.0338 0.9798
-2.8236 -3.7156 -2.0338 0.9798
-2.4725 -3.9579 -2.0338 0.9798
-2.1007 -4.1672 -2.0338 0.9798
-1.7114 -4.3416 -2.0338 0.9798
-1.3077 -4.4798 -2.0338 0.9798
-0.4711 -4.6429 -2.0338 0.9798
-0.0451 -4.6666 -2.0338 0.9798
1.2210 -4.5042 -2.0339 0.9798
1.6272 -4.3739 -2.0339 0.9798
-3.7339 -2.3159 -2.0338 0.9808
-2.9669 -3.2409 -2.0338 0.9808
-2.6585 -3.4983 -2.0338 0.9808
-1.9779 -3.9235 -2.0338 0.9808
-0.4435 -4.3714 -2.0338 0.9808
0.3590 -4.3792 -2.0339 0.9808
1.5321 -4.1182 -2.0339 0.9808
-3.5236 -2.1854 -2.0338 0.9817
-3.0673 -2.7898 -2.0338 0.9817
-2.7998 -3.0583 -2.0338 0.9817
-2.5087 -3.3012 -2.0338 0.9817
-2.1968 -3.5165 -2.0338 0.9817
-1.5205 -3.8574 -2.0338 0.9817
-1.1619 -3.9802 -2.0338 0.9817
0.3388 -4.1325 -2.0339 0.9817
0.7148 -4.0842 -2.0339 0.9817
-3.3317 -2.0663 -2.0338 0.9825
-2.9002 -2.6379 -2.0338 0.9825
-2.0771 -3.3250 -2.0338 0.9825
-1.7648 -3.5008 -2.0338 0.9825
-1.4377 -3.6473 -2.0338 0.9825
-1.0986 -3.7634 -2.0338 0.9825
-0.7503 -3.8480 -2.0339 0.9825
-0.0379 -3.9203 -2.0339 0.9825
1.0257 -3.7839 -2.0339 0.9825
1.3670 -3.6745 -2.0339 0.9825
-0.9825 -0.4914 -0.6017 0.9950
-2.7471 -2.4986 -2.0338 0.9832
-2.5074 -2.7390 -2.0338 0.9832
-2.2468 -2.9566 -2.0338 0.9832
-1.0405 -3.5646 -2.0339 0.9832
-0.0359 -3.7133 -2.0339 0.9832
0.9716 -3.5841 -2.0339 0.9832
-0.9126 -0.4564 -0.5891 0.9953
-2.9937 -1.8567 -2.0339 0.9839
-2.6060 -2.3703 -2.0339 0.9839
-2.3786 -2.5984 -2.0339 0.9839
-2.1314 -2.8048 -2.0339 0.9839
-0.9871 -3.3816 -2.0339 0.9839
-0.6742 -3.4577 -2.0339 0.9839
-0.3556 -3.5048 -2.0339 0.9839
-0.0341 -3.5226 -2.0339 0.9839
0.2879 -3.5110 -2.0339 0.9839
0.9217 -3.4001 -2.0339 0.9839
1.2283 -3.3017 -2.0339 0.9839
