ply
format ascii 1.0
element vertex 189
property float32 x
property float32 y
property float32 z
property float32 I
end_header
-11.2935 13.1375 2.2560 0.9325
-11.1904 13.0176 1.8434 0.9333
-16.4964 5.4218 -0.8806 0.9328
-16.2254 5.3327 -1.2523 0.9338
-1.3368 7.9369 -0.7727 0.9682
-1.9582 7.4391 -0.7385 0.9696
0.2432 17.1223 -2.0341 0.9333
-8.6415 14.7827 -2.0340 0.9334
-11.1620 12.9846 -2.0339 0.9334
-16.2657 5.3460 -2.0338 0.9334
-16.9621 2.3294 -2.0338 0.9334
0.2039 14.3544 -2.0341 0.9437
-0.5978 7.8163 -1.1107 0.9688
-1.9309 7.3352 -1.0747 0.9698
-4.8945 13.4953 -2.0340 0.9437
-6.0945 12.9974 -2.0340 0.9437
-7.2446 12.3930 -2.0340 0.9437
-8.3352 11.6872 -2.0340 0.9437
-10.3034 9.9950 -2.0339 0.9437
-11.9347 7.9760 -2.0339 0.9437
-12.6068 6.8643 -2.0339 0.9437
-13.1756 5.6964 -2.0339 0.9437
-13.6366 4.4818 -2.0338 0.9437
-13.9858 3.2306 -2.0338 0.9437
-14.2205 1.9529 -2.0338 0.9437
-0.5765 7.5384 -1.2455 0.9698
-1.2279 7.2898 -1.2178 0.9705
-1.8618 7.0725 -1.2048 0.9708
-2.7034 7.4537 -1.3062 0.9684
-5.2417 11.1787 -2.0340 0.9512
-6.2309 10.6590 -2.0340 0.9512
-7.1690 10.0519 -2.0340 0.9512
-8.8618 8.5965 -2.0339 0.9512
-9.6027 7.7600 -2.0339 0.9512
-10.2648 6.8601 -2.0339 0.9512
-10.8429 5.9039 -2.0339 0.9512
0.1537 10.8204 -2.0340 0.9569
-1.2265 7.2821 -1.3880 0.9704
-4.5941 9.7976 -2.0340 0.9569
-5.4611 9.3421 -2.0340 0.9569
-7.0540 8.2058 -2.0339 0.9569
-7.7669 7.5344 -2.0339 0.9569
-8.4163 6.8013 -2.0339 0.9569
-8.9967 6.0126 -2.0339 0.9569
-9.5033 5.1745 -2.0339 0.9569
-9.9321 4.2941 -2.0339 0.9569
-10.2796 3.3785 -2.0338 0.9569
0.1366 9.6216 -2.0340 0.9614
-1.1987 7.1169 -1.5256 0.9709
-1.9036 7.2317 -1.5807 0.9699
-3.2808 9.0458 -2.0340 0.9614
-6.9064 6.6997 -2.0339 0.9614
-7.4838 6.0478 -2.0339 0.9614
-9.1408 3.0042 -2.0339 0.9614
-9.5322 1.3091 -2.0338 0.9614
-0.5679 7.4253 -1.7502 0.9699
-2.9507 8.1358 -2.0340 0.9651
-4.3675 7.4713 -2.0339 0.9651
-5.0251 7.0458 -2.0339 0.9651
-5.6415 6.5626 -2.0339 0.9651
-6.2116 6.0257 -2.0339 0.9651
-7.1951 4.8085 -2.0339 0.9651
-8.2212 2.7020 -2.0339 0.9651
0.1116 7.8549 -2.0340 0.9681
-1.3047 7.7466 -2.0340 0.9681
-1.9998 7.5968 -2.0340 0.9681
-2.6784 7.3849 -2.0340 0.9681
-3.3350 7.1125 -2.0340 0.9681
-3.9644 6.7818 -2.0339 0.9681
-4.5613 6.3956 -2.0339 0.9681
-5.1208 5.9570 -2.0339 0.9681
-5.6384 5.4696 -2.0339 0.9681
-6.1097 4.9374 -2.0339 0.9681
-6.5311 4.3648 -2.0339 0.9681
-7.2103 3.1173 -2.0339 0.9681
-7.4625 2.4526 -2.0339 0.9681
-7.6536 1.7679 -2.0339 0.9681
-7.7821 1.0687 -2.0338 0.9681
0.1020 7.1841 -2.0340 0.9706
-0.5479 7.1639 -2.0340 0.9706
-1.1933 7.0850 -2.0340 0.9706
-1.8290 6.9481 -2.0340 0.9706
-3.0503 6.5051 -2.0339 0.9706
-3.6259 6.2027 -2.0339 0.9706
-4.1718 5.8494 -2.0339 0.9706
-5.1569 5.0025 -2.0339 0.9706
-5.5880 4.5158 -2.0339 0.9706
-5.9734 3.9921 -2.0339 0.9706
-6.5945 2.8511 -2.0339 0.9706
-6.8253 2.2432 -2.0339 0.9706
-0.5043 6.5936 -2.0340 0.9727
-2.2546 6.2165 -2.0340 0.9727
-2.8074 5.9872 -2.0339 0.9727
-3.3372 5.7089 -2.0339 0.9727
-4.3107 5.0146 -2.0339 0.9727
-4.7464 4.6043 -2.0339 0.9727
-5.8075 3.1621 -2.0339 0.9727
-6.0696 2.6241 -2.0339 0.9727
-6.2820 2.0646 -2.0339 0.9727
-6.4429 1.4882 -2.0339 0.9727
-6.5510 0.8996 -2.0339 0.9727
-1.5577 5.9173 -2.0340 0.9745
-2.0862 5.7522 -2.0339 0.9745
-3.0879 5.2825 -2.0339 0.9745
-3.5529 4.9816 -2.0339 0.9745
-4.7590 3.8459 -2.0339 0.9745
-5.0872 3.3998 -2.0339 0.9745
-6.0617 0.8325 -2.0339 0.9745
0.0808 5.6871 -2.0340 0.9761
-0.4337 5.6711 -2.0340 0.9761
-1.4479 5.5003 -2.0339 0.9761
-2.4146 5.1496 -2.0339 0.9761
-3.7076 4.3130 -2.0339 0.9761
-4.0823 3.9601 -2.0339 0.9761
-4.7287 3.1603 -2.0339 0.9761
-4.9950 2.7197 -2.0339 0.9761
-5.2204 2.2570 -2.0339 0.9761
-5.6345 0.7738 -2.0339 0.9761
-1.3511 5.1327 -2.0339 0.9775
-1.8096 4.9895 -2.0339 0.9775
-2.2533 4.8054 -2.0339 0.9775
-3.8095 3.6955 -2.0339 0.9775
-4.4127 2.9490 -2.0339 0.9775
-5.0420 1.6571 -2.0339 0.9775
-5.1711 1.1945 -2.0339 0.9775
-5.2580 0.7221 -2.0339 0.9775
-0.8254 4.9006 -2.0339 0.9788
-1.6944 4.6718 -2.0339 0.9788
-2.8856 4.0460 -2.0339 0.9788
-3.5670 3.4602 -2.0339 0.9788
-3.8652 3.1235 -2.0339 0.9788
-4.7210 1.5516 -2.0339 0.9788
-2.1193 0.4895 -0.8902 0.9906
0.0663 4.6665 -2.0340 0.9798
-0.3559 4.6534 -2.0339 0.9798
-1.5912 4.3873 -2.0339 0.9798
-2.3552 4.0290 -2.0339 0.9798
-2.7098 3.7996 -2.0339 0.9798
-3.3497 3.2495 -2.0339 0.9798
-3.6298 2.9333 -2.0339 0.9798
-3.8801 2.5931 -2.0339 0.9798
-4.2836 1.8520 -2.0339 0.9798
-4.4335 1.4571 -2.0339 0.9798
-1.9022 0.2612 -0.8368 0.9917
0.0624 4.3936 -2.0340 0.9808
-0.3350 4.3812 -2.0339 0.9808
-0.7298 4.3330 -2.0339 0.9808
-1.1186 4.2493 -2.0339 0.9808
-1.8655 3.9784 -2.0339 0.9808
-2.5514 3.5774 -2.0339 0.9808
-2.8643 3.3321 -2.0339 0.9808
-3.1539 3.0594 -2.0339 0.9808
-3.4175 2.7618 -2.0339 0.9808
-3.6532 2.4415 -2.0339 0.9808
-3.8590 2.1012 -2.0339 0.9808
0.0589 4.1460 -2.0339 0.9817
-0.3162 4.1344 -2.0339 0.9817
-1.4137 3.8980 -2.0339 0.9817
-2.0925 3.5797 -2.0339 0.9817
-2.4076 3.3758 -2.0339 0.9817
-2.9761 2.8871 -2.0339 0.9817
-3.2250 2.6062 -2.0339 0.9817
-3.6416 1.9828 -2.0339 0.9817
-3.8059 1.6454 -2.0339 0.9817
-1.3244 0.3059 -0.6668 0.9940
0.0557 3.9202 -2.0339 0.9825
-0.2989 3.9092 -2.0339 0.9825
-0.6512 3.8662 -2.0339 0.9825
-1.3367 3.6857 -2.0339 0.9825
-1.6645 3.5497 -2.0339 0.9825
-1.9786 3.3847 -2.0339 0.9825
-2.2765 3.1919 -2.0339 0.9825
-2.8140 2.7298 -2.0339 0.9825
-3.0493 2.4642 -2.0339 0.9825
-1.1102 0.4800 -0.6275 0.9946
-1.1398 0.3746 -0.6224 0.9946
-1.1968 0.1643 -0.6267 0.9946
-0.2832 3.7028 -2.0339 0.9832
-1.2661 3.4910 -2.0339 0.9832
-2.8883 2.3341 -2.0339 0.9832
-1.0306 0.3387 -0.5942 0.9951
-1.0743 0.1475 -0.5939 0.9951
-0.5851 3.4739 -2.0339 0.9839
-2.0455 2.8681 -2.0339 0.9839
-2.2964 2.6714 -2.0339 0.9839
-2.7400 2.2142 -2.0339 0.9839
-0.9003 0.4902 -0.5918 0.9953
-0.9684 0.2237 -0.5739 0.9954
-0.9845 0.1352 -0.5737 0.9954
