ply
format ascii 1.0
element vertex 183
property float32 x
property float32 y
property float32 z
property float32 I
end_header
-11.8393 -8.4185 -0.7367 0.9435
-17.5094 4.8578 -1.3323 0.9297
-11.6194 -8.2621 -1.0454 0.9444
-17.9914 4.9915 -1.7925 0.9277
-13.8743 10.0339 -2.0339 0.9334
-14.7099 8.7627 -2.0339 0.9334
-15.4295 7.4225 -2.0339 0.9334
-16.8394 3.0948 -2.0338 0.9334
-16.8632 -2.9597 -2.0337 0.9334
-15.4872 -7.2979 -2.0337 0.9334
-14.7783 -8.6437 -2.0337 0.9334
-13.0170 -11.1205 -2.0337 0.9334
-11.9786 -12.2320 -2.0337 0.9334
-12.3322 7.3463 -2.0339 0.9437
-14.1175 2.5946 -2.0338 0.9437
-14.2920 1.3313 -2.0338 0.9437
-14.3536 0.0575 -2.0338 0.9437
-12.9840 -6.1184 -2.0337 0.9437
-10.9131 -9.3231 -2.0337 0.9437
-10.0425 -10.2549 -2.0337 0.9437
-10.6068 6.3184 -2.0339 0.9512
-11.5566 4.3434 -2.0338 0.9512
-11.8964 3.3005 -2.0338 0.9512
-12.1423 2.2316 -2.0338 0.9512
-12.2924 1.1450 -2.0338 0.9512
-12.3454 0.0495 -2.0338 0.9512
-12.3011 -1.0464 -2.0338 0.9512
-12.1596 -2.1342 -2.0338 0.9512
-11.5905 -4.2504 -2.0338 0.9512
-11.1675 -5.2624 -2.0337 0.9512
-10.6563 -6.2328 -2.0337 0.9512
-10.0610 -7.1540 -2.0337 0.9512
-9.3863 -8.0187 -2.0337 0.9512
-8.7682 6.3412 -2.0339 0.9569
-9.2963 5.5379 -2.0339 0.9569
-10.6423 1.9559 -2.0338 0.9569
-10.7738 1.0036 -2.0338 0.9569
-10.8203 0.0434 -2.0338 0.9569
-10.7814 -0.9172 -2.0338 0.9569
-10.6573 -1.8705 -2.0338 0.9569
-10.1587 -3.7254 -2.0338 0.9569
-9.7879 -4.6123 -2.0338 0.9569
-9.3398 -5.4628 -2.0338 0.9569
-7.7968 5.6386 -2.0339 0.9614
-8.6707 4.1711 -2.0339 0.9614
-9.0067 3.3851 -2.0339 0.9614
-9.2716 2.5723 -2.0338 0.9614
-9.6215 0.0386 -2.0338 0.9614
-9.4767 -1.6632 -2.0338 0.9614
-9.2916 -2.4978 -2.0338 0.9614
-8.7036 -4.1013 -2.0338 0.9614
-8.3051 -4.8576 -2.0338 0.9614
-7.8412 -5.5756 -2.0338 0.9614
-7.7985 3.7515 -2.0339 0.9651
-8.3389 2.3135 -2.0339 0.9651
-8.6164 0.8026 -2.0338 0.9651
-8.5234 -1.4960 -2.0338 0.9651
-8.1245 -2.9794 -2.0338 0.9651
-7.8280 -3.6888 -2.0338 0.9651
-6.5795 -5.6209 -2.0338 0.9651
-6.0546 -6.1827 -2.0338 0.9651
-6.3652 4.6033 -2.0339 0.9681
-7.7258 1.4199 -2.0338 0.9681
-7.8550 0.0315 -2.0338 0.9681
-7.5857 -2.0392 -2.0338 0.9681
-7.3747 -2.7045 -2.0338 0.9681
-6.7804 -3.9658 -2.0338 0.9681
-5.4959 -5.6121 -2.0338 0.9681
-6.1723 3.6769 -2.0339 0.9706
-6.4743 3.1145 -2.0339 0.9706
-6.7252 2.5275 -2.0339 0.9706
-6.9229 1.9207 -2.0339 0.9706
-7.0661 1.2986 -2.0339 0.9706
-7.1843 0.0288 -2.0338 0.9706
-7.0761 -1.2419 -2.0338 0.9706
-6.9379 -1.8651 -2.0338 0.9706
-6.7450 -2.4736 -2.0338 0.9706
-6.4989 -3.0624 -2.0338 0.9706
-6.2014 -3.6271 -2.0338 0.9706
-5.4623 -4.6665 -2.0338 0.9706
-5.0266 -5.1329 -2.0338 0.9706
-5.6809 3.3842 -2.0339 0.9727
-6.1898 2.3263 -2.0339 0.9727
-6.3718 1.7678 -2.0339 0.9727
-6.5839 0.6133 -2.0339 0.9727
-6.5886 -0.5605 -2.0338 0.9727
-6.5129 -1.1431 -2.0338 0.9727
-6.2081 -2.2766 -2.0338 0.9727
-5.9814 -2.8187 -2.0338 0.9727
-5.7077 -3.3384 -2.0338 0.9727
-5.3889 -3.8319 -2.0338 0.9727
-5.0275 -4.2950 -2.0338 0.9727
-4.6264 -4.7243 -2.0338 0.9727
-5.2567 3.1314 -2.0339 0.9745
-5.5139 2.6525 -2.0339 0.9745
-5.7275 2.1526 -2.0339 0.9745
-5.8959 1.6357 -2.0339 0.9745
-6.0178 1.1060 -2.0339 0.9745
-6.0922 0.5675 -2.0339 0.9745
-6.1185 0.0245 -2.0338 0.9745
-6.0264 -1.0577 -2.0338 0.9745
-5.9087 -1.5884 -2.0338 0.9745
-5.7444 -2.1066 -2.0338 0.9745
-5.5347 -2.6081 -2.0338 0.9745
-5.2814 -3.0891 -2.0338 0.9745
-4.9864 -3.5457 -2.0338 0.9745
-4.2809 -4.3714 -2.0338 0.9745
-4.6086 3.3329 -2.0339 0.9761
-5.1253 2.4655 -2.0339 0.9761
-5.6629 0.5275 -2.0339 0.9761
-5.6873 0.0228 -2.0339 0.9761
-5.6669 -0.4821 -2.0338 0.9761
-5.6017 -0.9832 -2.0338 0.9761
-5.4923 -1.4765 -2.0338 0.9761
-4.3242 -3.6942 -2.0338 0.9761
-4.5597 2.7162 -2.0339 0.9775
-5.2199 0.9593 -2.0339 0.9775
-5.2844 0.4922 -2.0339 0.9775
-5.1253 -1.3778 -2.0338 0.9775
-4.5812 -2.6795 -2.0338 0.9775
-4.3253 -3.0755 -2.0338 0.9775
-4.0352 -3.4473 -2.0338 0.9775
-4.0268 2.9122 -2.0339 0.9788
-4.2694 2.5433 -2.0339 0.9788
-4.4782 2.1543 -2.0339 0.9788
-4.6518 1.7483 -2.0339 0.9788
-2.1160 0.1971 -0.8698 0.9909
-2.1177 -0.1802 -0.8699 0.9909
-2.1188 -0.3719 -0.8804 0.9907
-4.7990 -1.2901 -2.0338 0.9788
-4.6655 -1.7110 -2.0338 0.9788
-4.2895 -2.5089 -2.0338 0.9788
-3.7784 -3.2278 -2.0338 0.9788
-3.4769 -3.5504 -2.0338 0.9788
-3.7816 2.7348 -2.0339 0.9798
-4.0094 2.3884 -2.0339 0.9798
-4.2055 2.0231 -2.0339 0.9798
-1.9916 0.5525 -0.9008 0.9910
-1.9121 0.1781 -0.8370 0.9917
-4.3814 -1.6067 -2.0338 0.9798
-4.0282 -2.3561 -2.0338 0.9798
-3.8032 -2.7044 -2.0338 0.9798
-3.5482 -3.0313 -2.0338 0.9798
-3.5604 2.5749 -2.0339 0.9808
-3.7749 2.2487 -2.0339 0.9808
-3.9596 1.9048 -2.0339 0.9808
-1.6066 0.2952 -0.7561 0.9928
-1.6037 -0.1365 -0.7450 0.9929
-1.8248 -0.6692 -0.8997 0.9915
-3.9747 -1.8730 -2.0338 0.9808
-3.7927 -2.2183 -2.0338 0.9808
-3.5808 -2.5462 -2.0338 0.9808
-3.3598 2.4298 -2.0339 0.9817
-1.2592 0.4732 -0.6599 0.9940
-1.3391 0.2461 -0.6678 0.9940
-1.3361 0.0053 -0.6554 0.9941
-1.3532 -0.1152 -0.6662 0.9940
-1.3416 -0.2355 -0.6682 0.9939
-1.2619 -0.4628 -0.6593 0.9940
-2.9010 -2.9624 -2.0338 0.9817
-3.1768 2.2975 -2.0339 0.9825
-3.5330 1.6996 -2.0339 0.9825
-1.1283 0.4240 -0.6253 0.9946
-1.2004 0.1118 -0.6254 0.9946
-1.1925 0.0047 -0.6187 0.9946
-1.1604 -0.3120 -0.6233 0.9946
-3.5464 -1.6712 -2.0339 0.9825
-3.3841 -1.9793 -2.0338 0.9825
-3.1950 -2.2719 -2.0338 0.9825
-2.7430 -2.8010 -2.0338 0.9825
-3.0091 2.1762 -2.0339 0.9832
-0.9884 0.4754 -0.6007 0.9950
-1.0644 0.1956 -0.5927 0.9951
-1.0798 0.1005 -0.5940 0.9951
-1.0664 -0.1872 -0.5930 0.9951
-2.5981 -2.6531 -2.0338 0.9832
-2.8545 2.0644 -2.0339 0.9839
-3.0264 1.8029 -2.0339 0.9839
-0.9175 0.4413 -0.5878 0.9953
-0.9891 0.0039 -0.5711 0.9954
-0.9792 -0.1719 -0.5740 0.9954
-3.0408 -1.7786 -2.0339 0.9839
-2.4647 -2.5169 -2.0339 0.9839
