ply
format ascii 1.0
element vertex 189
property float32 x
property float32 y
property float32 z
property float32 I
end_header
16.5718 -3.7074 -0.8612 0.9342
13.6407 9.0309 -1.1995 0.9365
14.3428 -9.3523 -2.0339 0.9334
16.7102 -3.7383 -2.0340 0.9334
17.1038 0.8252 -2.0341 0.9333
16.6844 3.8551 -2.0341 0.9333
13.6071 9.0087 -1.9385 0.9364
13.3773 10.6907 -2.0341 0.9333
11.2759 -8.8831 -2.0339 0.9437
12.6767 -6.7354 -2.0339 0.9437
14.2330 -1.8703 -2.0340 0.9437
14.3389 0.6918 -2.0340 0.9437
13.9873 3.2319 -2.0341 0.9437
13.1893 5.6689 -2.0341 0.9437
12.6303 6.8242 -2.0341 0.9437
11.9703 7.9250 -2.0341 0.9437
11.2147 8.9625 -2.0341 0.9437
10.3695 9.9283 -2.0341 0.9437
9.6982 -7.6402 -2.0339 0.9512
10.3419 -6.7435 -2.0339 0.9512
11.3769 -4.7961 -2.0339 0.9512
11.7598 -3.7608 -2.0340 0.9512
12.0489 -2.6955 -2.0340 0.9512
12.2415 -1.6086 -2.0340 0.9512
12.0300 2.7796 -2.0340 0.9512
10.8629 5.8693 -2.0341 0.9512
8.5001 -6.6963 -2.0339 0.9569
9.5559 -5.0772 -2.0339 0.9569
9.9713 -4.2035 -2.0339 0.9569
10.3069 -3.2962 -2.0340 0.9569
10.5602 -2.3625 -2.0340 0.9569
10.7291 -1.4099 -2.0340 0.9569
10.8122 -0.4460 -2.0340 0.9569
10.8089 0.5215 -2.0340 0.9569
10.7191 1.4848 -2.0340 0.9569
10.5437 2.4362 -2.0340 0.9569
10.2840 3.3682 -2.0340 0.9569
9.0233 5.9739 -2.0340 0.9569
8.4537 6.7560 -2.0340 0.9569
8.0600 -5.2555 -2.0339 0.9614
8.4972 -4.5147 -2.0339 0.9614
8.8665 -3.7378 -2.0339 0.9614
9.1650 -2.9310 -2.0339 0.9614
9.3902 -2.1007 -2.0340 0.9614
9.5404 -1.2537 -2.0340 0.9614
9.6143 -0.3966 -2.0340 0.9614
9.6113 0.4637 -2.0340 0.9614
9.5314 1.3203 -2.0340 0.9614
9.3755 2.1663 -2.0340 0.9614
8.8406 3.7998 -2.0340 0.9614
8.4659 4.5742 -2.0340 0.9614
8.0236 5.3120 -2.0340 0.9614
7.5170 6.0074 -2.0340 0.9614
6.7980 -5.3554 -2.0339 0.9651
7.6424 -4.0605 -2.0339 0.9651
7.9745 -3.3618 -2.0339 0.9651
8.2430 -2.6361 -2.0339 0.9651
8.4455 -1.8894 -2.0340 0.9651
8.6470 -0.3567 -2.0340 0.9651
8.6443 0.4171 -2.0340 0.9651
8.5726 1.1874 -2.0340 0.9651
7.6142 4.1140 -2.0340 0.9651
7.2163 4.7776 -2.0340 0.9651
6.2512 5.9853 -2.0340 0.9651
6.1706 -4.8612 -2.0339 0.9681
6.5802 -4.2906 -2.0339 0.9681
7.2386 -3.0515 -2.0339 0.9681
7.6661 -1.7150 -2.0339 0.9681
7.8489 -0.3237 -2.0340 0.9681
7.8466 0.3786 -2.0340 0.9681
7.7814 1.0779 -2.0340 0.9681
7.6541 1.7685 -2.0340 0.9681
7.4655 2.4451 -2.0340 0.9681
6.1368 4.9044 -2.0340 0.9681
5.6743 5.4329 -2.0340 0.9681
6.3447 -3.3711 -2.0339 0.9706
7.0114 -1.5686 -2.0339 0.9706
7.1765 0.3462 -2.0340 0.9706
7.0004 1.6175 -2.0340 0.9706
6.8280 2.2363 -2.0340 0.9706
6.3212 3.4154 -2.0340 0.9706
5.6128 4.4855 -2.0340 0.9706
5.1944 -4.0921 -2.0339 0.9727
5.8396 -3.1027 -2.0339 0.9727
6.0934 -2.5687 -2.0339 0.9727
6.4532 -1.4437 -2.0339 0.9727
6.5564 -0.8615 -2.0339 0.9727
6.6072 -0.2725 -2.0340 0.9727
6.5504 0.9073 -2.0340 0.9727
6.4431 1.4887 -2.0340 0.9727
6.2844 2.0582 -2.0340 0.9727
5.1659 4.1284 -2.0340 0.9727
5.1254 -3.3421 -2.0339 0.9745
5.6383 -2.3769 -2.0339 0.9745
5.8281 -1.8638 -2.0339 0.9745
5.9713 -1.3359 -2.0339 0.9745
6.1137 -0.2522 -2.0340 0.9745
5.9619 1.3775 -2.0340 0.9745
5.8150 1.9045 -2.0340 0.9745
5.6217 2.4162 -2.0340 0.9745
4.4198 4.2317 -2.0340 0.9745
4.7642 -3.1065 -2.0339 0.9761
5.0227 -2.6686 -2.0339 0.9761
5.6829 -0.2344 -2.0339 0.9761
5.6339 0.7804 -2.0340 0.9761
5.5417 1.2804 -2.0340 0.9761
5.4052 1.7703 -2.0340 0.9761
5.2255 2.2460 -2.0340 0.9761
4.1083 3.9335 -2.0340 0.9761
4.1691 -3.2844 -2.0339 0.9775
4.4459 -2.8989 -2.0339 0.9775
4.6870 -2.4903 -2.0339 0.9775
4.8907 -2.0617 -2.0339 0.9775
5.3030 -0.2188 -2.0339 0.9775
5.3014 0.2558 -2.0339 0.9775
5.2574 0.7282 -2.0340 0.9775
5.1714 1.1949 -2.0340 0.9775
5.0439 1.6519 -2.0340 0.9775
4.8763 2.0958 -2.0340 0.9775
4.4256 2.9300 -2.0340 0.9775
4.1462 3.3135 -2.0340 0.9775
3.8337 3.6706 -2.0340 0.9775
3.9037 -3.0753 -2.0339 0.9788
4.1628 -2.7144 -2.0339 0.9788
4.7334 -1.5138 -2.0339 0.9788
4.9654 -0.2048 -2.0339 0.9787
4.9639 0.2395 -2.0339 0.9787
4.9227 0.6819 -2.0340 0.9787
4.5658 1.9624 -2.0340 0.9787
3.8822 3.1026 -2.0340 0.9787
3.9093 -2.5491 -2.0339 0.9798
4.4452 -1.4216 -2.0339 0.9798
4.5544 -1.0189 -2.0339 0.9798
4.6630 -0.1924 -2.0339 0.9798
3.6458 2.9136 -2.0340 0.9798
3.4516 -2.7191 -2.0339 0.9808
3.6807 -2.4000 -2.0339 0.9808
3.8803 -2.0617 -2.0339 0.9808
4.1852 -1.3385 -2.0339 0.9808
4.2880 -0.9593 -2.0339 0.9808
4.3566 -0.5725 -2.0339 0.9808
4.3890 0.2117 -2.0339 0.9808
4.2813 0.9892 -2.0339 0.9808
4.1758 1.3676 -2.0340 0.9808
4.0370 1.7351 -2.0340 0.9808
3.8659 2.0888 -2.0340 0.9808
3.6639 2.4257 -2.0340 0.9808
3.4326 2.7432 -2.0340 0.9808
3.6617 -1.9455 -2.0339 0.9817
3.8208 -1.6107 -2.0339 0.9817
4.0464 -0.9053 -2.0339 0.9817
4.1430 -0.1709 -2.0339 0.9817
4.1073 0.5689 -2.0339 0.9817
4.0400 0.9335 -2.0339 0.9817
3.9405 1.2906 -2.0339 0.9817
3.6481 1.9711 -2.0340 0.9817
3.2392 2.5887 -2.0340 0.9817
3.4622 -1.8396 -2.0339 0.9825
3.6127 -1.5230 -2.0339 0.9825
2.1197 -0.4742 -1.1268 0.9903
2.0934 0.2900 -1.0964 0.9905
2.1462 0.4959 -1.1427 0.9901
3.7259 1.2203 -2.0339 0.9825
3.6020 1.5482 -2.0339 0.9825
3.2691 2.1643 -2.0340 0.9825
3.0628 2.4477 -2.0340 0.9825
2.9171 -2.2980 -2.0339 0.9832
3.1107 -2.0283 -2.0339 0.9832
3.2794 -1.7424 -2.0339 0.9832
3.4219 -1.4425 -2.0339 0.9832
1.8858 -0.6031 -1.0844 0.9910
1.8574 -0.4155 -1.0425 0.9914
1.8527 -0.0764 -1.0156 0.9916
3.4118 1.4664 -2.0339 0.9832
3.2672 1.7653 -2.0339 0.9832
3.0965 2.0500 -2.0340 0.9832
2.9011 2.3184 -2.0340 0.9832
2.6824 2.5682 -2.0340 0.9832
2.9510 -1.9241 -2.0339 0.9839
3.1110 -1.6529 -2.0339 0.9839
1.7641 -0.7437 -1.1053 0.9912
1.7149 -0.3837 -1.0146 0.9919
1.7149 -0.2254 -0.9986 0.9920
1.7236 0.0831 -0.9963 0.9921
1.7134 0.2373 -0.9987 0.9920
1.7234 0.5644 -1.0470 0.9917
1.7689 0.7603 -1.1116 0.9911
3.0995 1.6746 -2.0339 0.9839
2.9375 1.9448 -2.0339 0.9839
