ply
format ascii 1.0
element vertex 174
property float32 x
property float32 y
property float32 z
property float32 I
end_header
16.4414 -4.4613 -1.2491 0.9340
14.6818 8.7631 -1.2537 0.9337
13.1928 9.5655 -1.5645 0.9366
12.9724 -11.1754 -2.0339 0.9334
13.9168 -9.9751 -2.0339 0.9334
14.7504 -8.6954 -2.0339 0.9334
15.4668 -7.3463 -2.0340 0.9334
16.0601 -5.9389 -2.0340 0.9334
17.0595 -1.4794 -2.0340 0.9333
17.1236 0.0467 -2.0340 0.9333
17.0514 1.5725 -2.0341 0.9333
16.8436 3.0857 -2.0341 0.9333
16.5017 4.5745 -2.0341 0.9333
16.0285 6.0269 -2.0341 0.9333
15.4277 7.4313 -2.0341 0.9333
12.9128 11.2474 -2.0341 0.9333
10.8755 -9.3690 -2.0339 0.9437
11.6672 -8.3627 -2.0339 0.9437
13.4640 -4.9789 -2.0340 0.9437
13.8542 -3.7593 -2.0340 0.9437
14.3018 -1.2402 -2.0340 0.9437
14.2950 1.3183 -2.0340 0.9437
14.1207 2.5869 -2.0341 0.9437
13.8341 3.8350 -2.0341 0.9437
12.9337 6.2299 -2.0341 0.9437
12.3271 7.3577 -2.0341 0.9437
10.8253 9.4292 -2.0341 0.9437
9.3538 -8.0581 -2.0339 0.9512
10.0347 -7.1926 -2.0339 0.9512
11.1523 -5.2971 -2.0339 0.9512
11.9157 -3.2333 -2.0340 0.9512
12.1565 -2.1586 -2.0340 0.9512
12.3006 -1.0667 -2.0340 0.9512
12.3468 0.0337 -2.0340 0.9512
12.1448 2.2249 -2.0340 0.9512
11.1239 5.3582 -2.0341 0.9512
9.9961 7.2478 -2.0341 0.9512
9.3105 8.1097 -2.0341 0.9512
8.1982 -7.0626 -2.0339 0.9569
9.3218 -5.4952 -2.0339 0.9569
9.7745 -4.6426 -2.0339 0.9569
10.6546 -1.8919 -2.0340 0.9569
10.8213 0.0295 -2.0340 0.9569
10.7757 0.9937 -2.0340 0.9569
9.7495 4.6962 -2.0340 0.9569
9.2922 5.5463 -2.0340 0.9569
8.6916 -4.1283 -2.0339 0.9614
9.0249 -3.3373 -2.0339 0.9614
9.2865 -2.5198 -2.0340 0.9614
9.4741 -1.6823 -2.0340 0.9614
9.4650 1.7340 -2.0340 0.9614
9.0069 3.3867 -2.0340 0.9614
8.6693 4.1758 -2.0340 0.9614
7.2560 6.3202 -2.0340 0.9614
6.5566 -5.6484 -2.0339 0.9651
7.0338 -5.0416 -2.0339 0.9651
7.8172 -3.7130 -2.0339 0.9651
8.3523 -2.2663 -2.0339 0.9651
8.6220 -0.7477 -2.0340 0.9651
8.5128 1.5596 -2.0340 0.9651
8.1008 3.0459 -2.0340 0.9651
7.4314 4.4356 -2.0340 0.9651
7.0066 5.0802 -2.0340 0.9651
7.0958 -3.3703 -2.0339 0.9681
7.3679 -2.7246 -2.0339 0.9681
7.5814 -2.0572 -2.0339 0.9681
7.3531 2.7648 -2.0340 0.9681
6.3600 4.6113 -2.0340 0.9681
5.9237 5.1597 -2.0340 0.9681
5.4432 -4.6893 -2.0339 0.9706
6.4898 -3.0825 -2.0339 0.9706
6.7387 -2.4919 -2.0339 0.9706
7.1545 0.6598 -2.0340 0.9706
6.9237 1.9194 -2.0340 0.9706
6.7252 2.5287 -2.0340 0.9706
6.4731 3.1179 -2.0340 0.9706
6.1695 3.6824 -2.0340 0.9706
5.4179 4.7191 -2.0340 0.9706
5.0099 -4.3160 -2.0339 0.9727
5.9732 -2.8371 -2.0339 0.9727
6.3820 -1.7317 -2.0339 0.9727
6.5881 -0.5713 -2.0340 0.9727
6.5849 0.6072 -2.0340 0.9727
6.3726 1.7665 -2.0340 0.9727
5.9578 2.8697 -2.0340 0.9727
4.9865 4.3434 -2.0340 0.9727
4.6357 -3.9936 -2.0339 0.9745
4.9732 -3.5646 -2.0339 0.9745
5.7390 -2.1222 -2.0339 0.9745
5.9053 -1.6024 -2.0339 0.9745
6.0246 -1.0698 -2.0339 0.9745
6.0960 -0.5287 -2.0339 0.9745
6.0931 0.5619 -2.0340 0.9745
5.7275 2.1536 -2.0340 0.9745
5.2543 3.1361 -2.0340 0.9745
4.9539 3.5918 -2.0340 0.9745
4.6140 4.0190 -2.0340 0.9745
4.3090 -3.7122 -2.0339 0.9761
4.6227 -3.3134 -2.0339 0.9761
4.8996 -2.8883 -2.0339 0.9761
5.3346 -1.9727 -2.0339 0.9761
5.6001 -0.9944 -2.0339 0.9761
5.6877 0.0155 -2.0339 0.9761
5.4810 1.5194 -2.0340 0.9761
5.3238 2.0018 -2.0340 0.9761
5.1243 2.4683 -2.0340 0.9761
4.8839 2.9151 -2.0340 0.9761
4.6047 3.3387 -2.0340 0.9761
4.2889 3.7358 -2.0340 0.9761
4.0211 -3.4641 -2.0339 0.9775
4.3137 -3.0920 -2.0339 0.9775
5.2852 0.4874 -2.0340 0.9775
4.0022 3.4861 -2.0340 0.9775
4.7962 -1.3014 -2.0339 0.9788
4.8931 -0.8688 -2.0339 0.9788
4.9511 -0.4294 -2.0339 0.9788
4.7891 1.3276 -2.0340 0.9787
4.6517 1.7491 -2.0340 0.9787
4.0234 2.9172 -2.0340 0.9787
3.7475 3.2641 -2.0340 0.9787
3.5357 -3.0460 -2.0339 0.9798
4.0204 -2.3700 -2.0339 0.9798
4.3772 -1.6187 -2.0339 0.9798
4.5951 -0.8160 -2.0339 0.9798
4.6495 -0.4032 -2.0339 0.9798
4.5906 0.8410 -2.0339 0.9798
4.4974 1.2467 -2.0340 0.9798
4.3684 1.6425 -2.0340 0.9798
4.2046 2.0253 -2.0340 0.9798
3.7784 2.7395 -2.0340 0.9798
3.3290 -2.8679 -2.0339 0.9808
3.9690 -1.8852 -2.0339 0.9808
4.2407 -1.1507 -2.0339 0.9808
4.3776 -0.3796 -2.0339 0.9808
4.3221 0.7918 -2.0339 0.9808
3.3134 2.8861 -2.0340 0.9808
3.1415 -2.7063 -2.0339 0.9817
3.5720 -2.1057 -2.0339 0.9817
3.7454 -1.7790 -2.0339 0.9817
4.0017 -1.0859 -2.0339 0.9817
4.1310 -0.3583 -2.0339 0.9817
4.1465 0.0113 -2.0339 0.9817
4.1289 0.3808 -2.0339 0.9817
4.0786 0.7472 -2.0339 0.9817
3.5605 2.1252 -2.0340 0.9817
3.3570 2.4340 -2.0340 0.9817
3.1267 2.7235 -2.0340 0.9817
2.9704 -2.5589 -2.0339 0.9825
3.7838 -1.0267 -2.0339 0.9825
2.1036 -0.3736 -1.1084 0.9904
2.0749 -0.1800 -1.0804 0.9907
2.0736 0.1912 -1.0803 0.9907
3.7782 1.0473 -2.0339 0.9825
3.6698 1.3799 -2.0339 0.9825
3.3666 2.0094 -2.0340 0.9825
2.9564 2.5751 -2.0340 0.9825
2.8135 -2.4237 -2.0339 0.9832
3.0183 -2.1634 -2.0339 0.9832
3.1991 -1.8858 -2.0339 0.9832
3.3544 -1.5932 -2.0339 0.9832
3.4830 -1.2880 -2.0339 0.9832
1.8630 -0.5055 -1.0572 0.9912
1.8504 0.0050 -1.0135 0.9916
1.8502 0.1706 -1.0176 0.9916
1.8655 0.5171 -1.0603 0.9912
3.3457 1.6116 -2.0339 0.9832
3.1888 1.9033 -2.0339 0.9832
2.8003 2.4391 -2.0340 0.9832
2.8633 -2.0523 -2.0339 0.9839
3.0348 -1.7890 -2.0339 0.9839
1.7121 -0.4646 -1.0242 0.9918
1.7210 0.1587 -0.9978 0.9920
1.7139 0.3140 -1.0060 0.9920
1.7114 0.4744 -1.0254 0.9918
