ply
format ascii 1.0
element vertex 207
property float32 x
property float32 y
property float32 z
property float32 I
end_header
-13.0059 12.8433 3.2230 0.9284
3.7813 18.6729 2.9187 0.9258
1.9554 17.7595 2.7371 0.9303
-12.2864 12.1328 2.6453 0.9325
3.7578 18.5574 2.4656 0.9265
3.7735 18.6349 2.0417 0.9264
1.9916 18.0890 1.9542 0.9294
2.0918 18.9985 1.6180 0.9261
-12.1168 11.9652 1.4415 0.9339
1.9608 17.8091 1.1110 0.9307
-12.3982 14.6733 1.1912 0.9259
3.6757 18.1518 0.7303 0.9285
2.0602 18.7113 0.7423 0.9274
-12.5081 14.8034 0.7642 0.9254
3.7634 18.5846 0.3203 0.9269
2.0471 18.5925 0.3160 0.9279
3.6519 18.0343 -0.1036 0.9290
2.0099 18.2548 -0.1034 0.9292
2.1478 19.5070 -0.5526 0.9245
-1.9574 7.6377 -0.5781 0.9689
-1.2960 7.9926 -0.7774 0.9680
9.1012 14.5056 -2.0341 0.9333
7.7585 15.2660 -2.0341 0.9333
3.3987 16.7836 -2.0341 0.9333
0.3344 17.1208 -2.0341 0.9333
-0.5628 7.9565 -0.9475 0.9684
-1.2303 7.5876 -0.9131 0.9695
-8.5272 14.8489 -2.0340 0.9334
-9.8291 14.0209 -2.0340 0.9334
-12.1834 12.0311 -2.0339 0.9334
6.5043 12.7981 -2.0341 0.9437
4.1042 13.7568 -2.0341 0.9437
-0.5553 7.8517 -1.1153 0.9687
-1.2087 7.4547 -1.0700 0.9700
-1.8672 7.2859 -1.0657 0.9701
-4.8010 13.5288 -2.0340 0.9437
-5.9993 13.0416 -2.0340 0.9437
-7.1488 12.4485 -2.0340 0.9437
-8.2402 11.7544 -2.0340 0.9437
-9.2648 10.9649 -2.0339 0.9437
-11.8568 8.0914 -2.0339 0.9437
4.5806 11.4661 -2.0341 0.9512
0.2411 12.3447 -2.0340 0.9512
-1.8187 7.0963 -1.2068 0.9707
-2.6589 7.4924 -1.3097 0.9683
-5.1598 11.2168 -2.0340 0.9512
-6.1485 10.7067 -2.0340 0.9512
-7.0873 10.1097 -2.0340 0.9512
-9.5301 7.8490 -2.0339 0.9512
4.0147 10.0494 -2.0340 0.9569
3.0938 10.3700 -2.0340 0.9569
1.1843 10.7565 -2.0340 0.9569
0.2113 10.8195 -2.0340 0.9569
-1.1631 7.1730 -1.3659 0.9709
-1.8073 7.0521 -1.3684 0.9708
-5.3889 9.3839 -2.0340 0.9569
-6.9840 8.2655 -2.0339 0.9569
-8.9379 6.0995 -2.0339 0.9569
4.3597 8.5783 -2.0340 0.9614
2.7510 9.2210 -2.0340 0.9614
1.9098 9.4311 -2.0340 0.9614
1.0531 9.5647 -2.0340 0.9614
0.1879 9.6207 -2.0340 0.9614
-0.5239 7.4071 -1.5696 0.9701
-1.1579 7.1407 -1.5291 0.9709
-2.6368 7.4303 -1.6666 0.9683
-4.7918 8.3442 -2.0340 0.9614
-5.5235 7.8790 -2.0339 0.9614
-6.8465 6.7608 -2.0339 0.9614
3.9211 7.7153 -2.0340 0.9651
2.4743 8.2933 -2.0340 0.9651
1.7177 8.4823 -2.0340 0.9651
0.9471 8.6025 -2.0340 0.9651
-2.8944 8.1560 -2.0340 0.9651
-4.3098 7.5048 -2.0339 0.9651
-5.5855 6.6104 -2.0339 0.9651
-6.1578 6.0807 -2.0339 0.9651
4.1751 6.6544 -2.0340 0.9681
3.5592 7.0033 -2.0340 0.9681
2.9144 7.2952 -2.0340 0.9681
2.2459 7.5279 -2.0340 0.9681
0.1534 7.8542 -2.0340 0.9681
-1.2573 7.7544 -2.0340 0.9681
-2.6273 7.4033 -2.0340 0.9681
-3.2830 7.1367 -2.0340 0.9681
-4.5093 6.4324 -2.0339 0.9681
-5.0700 6.0003 -2.0339 0.9681
-6.4885 4.4279 -2.0339 0.9681
1.4260 7.0420 -2.0340 0.9706
-0.5069 7.1669 -2.0340 0.9706
-1.1500 7.0922 -2.0340 0.9706
-1.7837 6.9598 -2.0340 0.9706
-3.0026 6.5272 -2.0339 0.9706
-4.1242 5.8830 -2.0339 0.9706
-4.6370 5.4879 -2.0339 0.9706
-5.9344 4.0498 -2.0339 0.9706
3.5146 5.6016 -2.0340 0.9727
1.8905 6.3369 -2.0340 0.9727
1.3125 6.4813 -2.0340 0.9727
0.1291 6.6116 -2.0340 0.9727
-0.4665 6.5963 -2.0340 0.9727
-2.2116 6.2320 -2.0340 0.9727
-2.7636 6.0076 -2.0339 0.9727
-3.2931 5.7344 -2.0339 0.9727
-3.7959 5.4147 -2.0339 0.9727
-4.7052 4.6463 -2.0339 0.9727
-5.1043 4.2039 -2.0339 0.9727
-5.4620 3.7274 -2.0339 0.9727
3.2521 5.1832 -2.0340 0.9745
2.7723 5.4549 -2.0340 0.9745
2.2701 5.6823 -2.0340 0.9745
0.6697 6.0822 -2.0340 0.9745
0.1195 6.1178 -2.0340 0.9745
-0.4317 6.1037 -2.0340 0.9745
-0.9793 6.0400 -2.0340 0.9745
3.0229 4.8179 -2.0340 0.9761
2.1100 5.2818 -2.0340 0.9761
1.6261 5.4503 -2.0340 0.9761
0.6225 5.6535 -2.0340 0.9761
0.1111 5.6866 -2.0340 0.9761
-0.9103 5.6144 -2.0340 0.9761
-3.2649 4.6572 -2.0339 0.9761
-3.6708 4.3444 -2.0339 0.9761
-4.0469 3.9963 -2.0339 0.9761
-4.3902 3.6158 -2.0339 0.9761
2.8208 4.4959 -2.0340 0.9775
2.4047 4.7316 -2.0340 0.9775
1.9691 4.9289 -2.0340 0.9775
1.5174 5.0861 -2.0340 0.9775
1.0534 5.2020 -2.0340 0.9775
-0.3745 5.2943 -2.0340 0.9775
-0.8495 5.2391 -2.0340 0.9775
-1.3176 5.1414 -2.0339 0.9775
-1.7751 5.0019 -2.0339 0.9775
-2.2181 4.8218 -2.0339 0.9775
-2.6431 4.6026 -2.0339 0.9775
-3.0467 4.3459 -2.0339 0.9775
-3.4255 4.0540 -2.0339 0.9775
-3.7765 3.7292 -2.0339 0.9775
-4.0968 3.3741 -2.0339 0.9775
1.8437 4.6150 -2.0340 0.9787
1.4208 4.7623 -2.0340 0.9787
0.9863 4.8708 -2.0340 0.9787
0.5439 4.9398 -2.0340 0.9787
0.0970 4.9687 -2.0340 0.9787
-0.7954 4.9055 -2.0339 0.9788
-1.2337 4.8140 -2.0339 0.9788
-3.5360 3.4918 -2.0339 0.9788
-4.1048 2.8012 -2.0339 0.9788
2.4804 3.9533 -2.0340 0.9798
2.1145 4.1605 -2.0340 0.9798
0.5107 4.6390 -2.0340 0.9798
-1.1586 4.5209 -2.0339 0.9798
-1.5608 4.3982 -2.0339 0.9798
-1.9504 4.2398 -2.0339 0.9798
-2.3241 4.0470 -2.0339 0.9798
-2.6789 3.8214 -2.0339 0.9798
-3.0121 3.5647 -2.0339 0.9798
-3.6023 2.9669 -2.0339 0.9798
-3.8548 2.6306 -2.0339 0.9798
2.3354 3.7221 -2.0340 0.9808
1.2562 4.2107 -2.0340 0.9808
0.8721 4.3066 -2.0340 0.9808
0.4809 4.3677 -2.0340 0.9808
0.0858 4.3932 -2.0340 0.9808
-0.3100 4.3831 -2.0339 0.9808
-1.0908 4.2565 -2.0339 0.9808
-2.8359 3.3563 -2.0339 0.9808
-3.6294 2.4768 -2.0339 0.9808
1.1854 3.9734 -2.0340 0.9817
0.8229 4.0640 -2.0340 0.9817
-1.0294 4.0166 -2.0339 0.9817
-1.7329 3.7670 -2.0339 0.9817
-2.3802 3.3952 -2.0339 0.9817
-2.6761 3.1672 -2.0339 0.9817
-3.2006 2.6360 -2.0339 0.9817
1.7763 3.4952 -2.0340 0.9825
0.7782 3.8426 -2.0340 0.9825
0.4291 3.8971 -2.0339 0.9825
-0.2766 3.9108 -2.0339 0.9825
-0.6275 3.8701 -2.0339 0.9825
-1.3112 3.6948 -2.0339 0.9825
-2.2505 3.2103 -2.0339 0.9825
-2.7896 2.7547 -2.0339 0.9825
-3.2383 2.2099 -2.0339 0.9825
1.9737 3.1457 -2.0340 0.9832
1.3777 3.4486 -2.0340 0.9832
1.0617 3.5586 -2.0339 0.9832
0.7370 3.6397 -2.0339 0.9832
0.4064 3.6912 -2.0339 0.9832
0.0725 3.7129 -2.0339 0.9832
-1.8493 3.2203 -2.0339 0.9832
-2.1317 3.0407 -2.0339 0.9832
-2.3967 2.8365 -2.0339 0.9832
-2.6423 2.6093 -2.0339 0.9832
-2.8664 2.3608 -2.0339 0.9832
-3.0673 2.0932 -2.0339 0.9832
1.8723 2.9841 -2.0339 0.9839
1.5961 3.1406 -2.0339 0.9839
1.3069 3.2715 -2.0339 0.9839
0.6992 3.4528 -2.0339 0.9839
0.3855 3.5017 -2.0339 0.9839
0.0688 3.5222 -2.0339 0.9839
-0.5638 3.4774 -2.0339 0.9839
-1.7543 3.0549 -2.0339 0.9839
-2.5066 2.4753 -2.0339 0.9839
-2.9098 1.9857 -2.0339 0.9839
