ply
format ascii 1.0
element vertex 192
property float32 x
property float32 y
property float32 z
property float32 I
end_header
3.2226 18.6394 2.8978 0.9263
1.4498 17.5599 2.6992 0.9312
1.5295 18.5277 1.5738 0.9281
2.9897 17.2926 1.0882 0.9321
3.3311 19.2675 0.7710 0.9247
1.4918 18.0702 0.7150 0.9300
3.0832 17.8332 0.3057 0.9302
3.1658 18.3111 -0.1046 0.9284
3.1937 18.4721 -0.5279 0.9277
-0.7576 7.9271 -0.7645 0.9685
-1.4287 7.6724 -0.7493 0.9691
13.2182 10.8869 -2.0341 0.9333
9.8848 13.9835 -2.0341 0.9333
7.2579 15.5102 -2.0341 0.9333
2.9173 16.8739 -2.0341 0.9333
-0.1105 17.1236 -2.0341 0.9333
-0.7564 7.9144 -0.9444 0.9685
-1.4175 7.6118 -0.9197 0.9693
-2.0558 7.3441 -0.9059 0.9697
-6.0604 16.0151 -2.0340 0.9333
11.0813 9.1269 -2.0341 0.9437
9.2940 10.9416 -2.0341 0.9437
7.2141 12.4118 -2.0341 0.9437
6.0846 13.0028 -2.0341 0.9437
1.1812 14.3072 -2.0341 0.9437
-0.7164 7.4958 -1.0669 0.9700
-1.3738 7.3771 -1.0632 0.9701
-2.0395 7.2856 -1.0720 0.9699
-5.0807 13.4262 -2.0340 0.9437
-6.2516 12.9225 -2.0340 0.9437
-7.3733 12.3169 -2.0340 0.9437
7.9935 9.4105 -2.0341 0.9512
7.1272 10.0825 -2.0341 0.9512
5.2332 11.1833 -2.0341 0.9512
3.1745 11.9321 -2.0341 0.9512
2.1035 12.1666 -2.0341 0.9512
1.0159 12.3052 -2.0340 0.9512
-0.0796 12.3468 -2.0340 0.9512
-0.7056 7.3830 -1.2218 0.9704
-1.3635 7.3218 -1.2269 0.9703
-4.3698 11.5476 -2.0340 0.9512
-5.3769 11.1143 -2.0340 0.9512
-6.3416 10.5934 -2.0340 0.9512
8.3532 6.8799 -2.0340 0.9569
5.4380 9.3561 -2.0341 0.9569
4.5866 9.8016 -2.0340 0.9569
3.6991 10.1698 -2.0340 0.9569
1.8436 10.6634 -2.0340 0.9569
0.8904 10.7848 -2.0340 0.9569
-0.0698 10.8213 -2.0340 0.9569
-2.0125 7.1897 -1.4033 0.9701
-4.7126 9.7412 -2.0340 0.9569
6.2296 7.3340 -2.0340 0.9614
1.6393 9.4819 -2.0340 0.9614
0.7917 9.5899 -2.0340 0.9614
-2.0031 7.1560 -1.5708 0.9701
-3.4056 8.9996 -2.0340 0.9614
-4.1905 8.6619 -2.0340 0.9614
6.6804 5.5022 -2.0340 0.9651
5.6029 6.5961 -2.0340 0.9651
4.3490 7.4824 -2.0340 0.9651
2.2251 8.3636 -2.0340 0.9651
1.4744 8.5280 -2.0340 0.9651
-3.0630 8.0942 -2.0340 0.9651
-4.4451 7.4254 -2.0339 0.9651
5.5969 5.5126 -2.0340 0.9681
5.0858 5.9873 -2.0340 0.9681
3.9477 6.7919 -2.0340 0.9681
3.3296 7.1153 -2.0340 0.9681
2.6852 7.3826 -2.0340 0.9681
2.0198 7.5917 -2.0340 0.9681
1.3383 7.7410 -2.0340 0.9681
-0.0507 7.8556 -2.0340 0.9681
-0.7474 7.8201 -2.0340 0.9681
-2.1176 7.5648 -2.0340 0.9681
-2.7803 7.3472 -2.0340 0.9681
-4.0349 6.7401 -2.0339 0.9681
5.5460 4.5678 -2.0340 0.9706
4.6514 5.4760 -2.0340 0.9706
3.6105 6.2119 -2.0340 0.9706
3.0452 6.5077 -2.0340 0.9706
1.2240 7.0798 -2.0340 0.9706
-1.9368 6.9188 -2.0340 0.9706
-2.5429 6.7197 -2.0340 0.9706
-3.1289 6.4676 -2.0339 0.9706
-3.6903 6.1645 -2.0339 0.9706
5.1044 4.2042 -2.0340 0.9727
4.7114 4.6404 -2.0340 0.9727
3.8171 5.4000 -2.0340 0.9727
2.8028 5.9896 -2.0340 0.9727
1.7002 6.3906 -2.0340 0.9727
-0.0427 6.6127 -2.0340 0.9727
-1.2106 6.5011 -2.0340 0.9727
-1.7825 6.3680 -2.0340 0.9727
-2.3404 6.1848 -2.0339 0.9727
-3.3965 5.6738 -2.0339 0.9727
3.5321 4.9967 -2.0340 0.9745
2.5934 5.5422 -2.0340 0.9745
1.5732 5.9133 -2.0340 0.9745
0.5034 6.0982 -2.0340 0.9745
-0.0395 6.1188 -2.0340 0.9745
-1.6494 5.8924 -2.0340 0.9745
-2.1656 5.7228 -2.0339 0.9745
-2.6647 5.5081 -2.0339 0.9745
-3.1429 5.2500 -2.0339 0.9745
4.3904 3.6160 -2.0340 0.9761
4.0522 3.9912 -2.0340 0.9761
3.6822 4.3350 -2.0340 0.9761
3.2831 4.6445 -2.0340 0.9761
2.8582 4.9174 -2.0340 0.9761
1.9441 5.3451 -2.0340 0.9761
0.9690 5.6046 -2.0340 0.9761
0.4679 5.6684 -2.0340 0.9761
-0.5411 5.6619 -2.0340 0.9761
-1.5332 5.4771 -2.0339 0.9761
-2.0130 5.3195 -2.0339 0.9761
-2.4770 5.1200 -2.0339 0.9761
-2.9214 4.8800 -2.0339 0.9761
4.0969 3.3743 -2.0340 0.9775
3.4361 4.0452 -2.0340 0.9775
2.6671 4.5888 -2.0340 0.9775
2.2496 4.8073 -2.0340 0.9775
1.8143 4.9879 -2.0340 0.9775
0.9042 5.2300 -2.0340 0.9775
0.4367 5.2896 -2.0340 0.9775
-0.5050 5.2835 -2.0340 0.9775
-1.4307 5.1111 -2.0339 0.9775
-2.3114 4.7778 -2.0339 0.9775
-2.7261 4.5538 -2.0339 0.9775
3.8361 3.1595 -2.0340 0.9787
3.2173 3.7877 -2.0340 0.9787
2.4973 4.2966 -2.0340 0.9787
1.2777 4.8026 -2.0340 0.9787
0.4089 4.9528 -2.0340 0.9787
-0.4728 4.9471 -2.0340 0.9788
-0.9098 4.8856 -2.0339 0.9788
-1.3396 4.7857 -2.0339 0.9788
-2.5525 4.2639 -2.0339 0.9788
3.0214 3.5570 -2.0340 0.9798
1.9780 4.2271 -2.0340 0.9798
1.1999 4.5101 -2.0340 0.9798
-0.0301 4.6669 -2.0340 0.9798
-0.8544 4.5881 -2.0339 0.9798
-1.2580 4.4942 -2.0339 0.9798
-1.6517 4.3649 -2.0339 0.9798
-2.3971 4.0043 -2.0339 0.9798
3.3918 2.7936 -2.0340 0.9808
3.1306 3.0834 -2.0340 0.9808
2.8447 3.3490 -2.0340 0.9808
2.5364 3.5881 -2.0340 0.9808
1.8624 3.9799 -2.0340 0.9808
1.5020 4.1294 -2.0340 0.9808
1.1297 4.2464 -2.0340 0.9808
-0.8045 4.3198 -2.0339 0.9808
-1.1845 4.2314 -2.0339 0.9808
-1.9136 3.9554 -2.0339 0.9808
-2.2569 3.7701 -2.0339 0.9808
2.6844 3.1603 -2.0340 0.9817
2.0837 3.5849 -2.0340 0.9817
1.7574 3.7556 -2.0340 0.9817
1.0661 4.0071 -2.0340 0.9817
-0.0267 4.1464 -2.0339 0.9817
-0.7591 4.0764 -2.0339 0.9817
-1.4675 3.8781 -2.0339 0.9817
2.5382 2.9882 -2.0340 0.9825
2.2631 3.2015 -2.0340 0.9825
1.9702 3.3897 -2.0340 0.9825
1.6617 3.5511 -2.0340 0.9825
1.0080 3.7888 -2.0340 0.9825
-0.0253 3.9205 -2.0339 0.9825
-0.3730 3.9028 -2.0339 0.9825
-1.0568 3.7755 -2.0339 0.9825
-1.7074 3.5293 -2.0339 0.9825
-2.0137 3.3639 -2.0339 0.9825
2.6458 2.6059 -2.0340 0.9832
2.4042 2.8304 -2.0340 0.9832
0.3056 3.7010 -2.0339 0.9832
-0.0239 3.7135 -2.0339 0.9832
-0.3533 3.6967 -2.0339 0.9832
-1.3143 3.4732 -2.0339 0.9832
-1.9074 3.1862 -2.0339 0.9832
2.5099 2.4721 -2.0339 0.9839
2.2807 2.6850 -2.0340 0.9839
2.0335 2.8767 -2.0340 0.9839
1.7703 3.0458 -2.0339 0.9839
1.4931 3.1908 -2.0339 0.9839
1.2042 3.3107 -2.0339 0.9839
0.6002 3.4713 -2.0339 0.9839
0.2899 3.5109 -2.0339 0.9839
-0.0227 3.5228 -2.0339 0.9839
-1.5342 3.1712 -2.0339 0.9839
-1.8095 3.0226 -2.0339 0.9839
