ply
format ascii 1.0
element vertex 188
property float32 x
property float32 y
property float32 z
property float32 I
end_header
-12.6577 11.9843 2.2699 0.9321
-11.3135 12.7791 1.8327 0.9336
-11.7842 13.3109 1.5049 0.9311
-12.7075 12.0315 1.4814 0.9322
-11.9967 13.5509 1.1223 0.9300
-16.2241 5.3348 -1.2522 0.9338
-12.4259 -7.8442 -1.0774 0.9428
-16.1236 5.3018 -1.6295 0.9341
-11.3501 12.8205 -2.0339 0.9334
-14.3041 9.4109 -2.0339 0.9334
-15.0763 8.1161 -2.0339 0.9334
-15.7316 6.7584 -2.0338 0.9334
-16.2650 5.3483 -2.0338 0.9334
-17.1108 -0.5928 -2.0337 0.9334
-16.9922 -2.0956 -2.0337 0.9334
-16.3618 -5.0410 -2.0337 0.9334
-15.8548 -6.4607 -2.0337 0.9334
-15.2250 -7.8302 -2.0337 0.9334
-12.6431 -7.9813 -1.7760 0.9416
-9.5154 10.7481 -2.0339 0.9437
-10.4238 9.8693 -2.0339 0.9437
-11.2515 8.9141 -2.0339 0.9437
-11.9919 7.8897 -2.0339 0.9437
-12.6393 6.8042 -2.0339 0.9437
-13.1887 5.6660 -2.0339 0.9437
-13.9773 3.2669 -2.0338 0.9437
-14.3452 -0.4970 -2.0338 0.9437
-14.2457 -1.7569 -2.0338 0.9437
-14.0359 -3.0032 -2.0337 0.9437
-13.7172 -4.2262 -2.0337 0.9437
-13.2923 -5.4164 -2.0337 0.9437
-12.1372 -7.6620 -2.0337 0.9437
-8.1840 9.2442 -2.0339 0.9512
-8.9654 8.4884 -2.0339 0.9512
-10.3140 6.7858 -2.0339 0.9512
-10.8709 5.8522 -2.0339 0.9512
-11.3434 4.8732 -2.0339 0.9512
-11.7281 3.8565 -2.0338 0.9512
-12.3279 0.6595 -2.0338 0.9512
-12.3381 -0.4274 -2.0338 0.9512
-12.2526 -1.5111 -2.0338 0.9512
-11.4325 -4.6586 -2.0338 0.9512
-10.9784 -5.6462 -2.0337 0.9512
-10.4391 -6.5900 -2.0337 0.9512
-7.1729 8.1021 -2.0339 0.9569
-7.8577 7.4397 -2.0339 0.9569
-9.0398 5.9475 -2.0339 0.9569
-9.5279 5.1292 -2.0339 0.9569
-9.9421 4.2712 -2.0339 0.9569
-10.5365 2.4627 -2.0338 0.9569
-10.7123 1.5263 -2.0338 0.9569
-10.8049 0.5781 -2.0338 0.9569
-10.8138 -0.3746 -2.0338 0.9569
-10.3406 -3.1859 -2.0338 0.9569
-9.6221 -4.9487 -2.0338 0.9569
-6.3782 7.2045 -2.0339 0.9614
-6.9871 6.6154 -2.0339 0.9614
-8.0382 5.2885 -2.0339 0.9614
-8.4722 4.5609 -2.0339 0.9614
-8.8406 3.7980 -2.0339 0.9614
-9.5255 1.3572 -2.0338 0.9614
-9.6079 0.5140 -2.0338 0.9614
-9.6158 -0.3331 -2.0338 0.9614
-9.5492 -1.1777 -2.0338 0.9614
-9.1950 -2.8329 -2.0338 0.9614
-8.9101 -3.6308 -2.0338 0.9614
-8.5562 -4.4005 -2.0338 0.9614
-5.7365 6.4797 -2.0339 0.9651
-6.2843 5.9499 -2.0339 0.9651
-7.6200 4.1021 -2.0339 0.9651
-8.6414 0.4623 -2.0338 0.9651
-8.5886 -1.0592 -2.0338 0.9651
-8.2700 -2.5479 -2.0338 0.9651
-7.6955 -3.9578 -2.0338 0.9651
-5.7043 5.4008 -2.0339 0.9681
-7.7766 1.1080 -2.0338 0.9681
-7.8439 0.4196 -2.0338 0.9681
-7.8504 -0.2720 -2.0338 0.9681
-7.6812 -1.6435 -2.0338 0.9681
-7.5068 -2.3128 -2.0338 0.9681
-4.7624 5.3794 -2.0339 0.9706
-6.0020 3.9488 -2.0339 0.9706
-6.8250 2.2442 -2.0339 0.9706
-6.9958 1.6352 -2.0339 0.9706
-7.1741 0.3838 -2.0338 0.9706
-7.1800 -0.2488 -2.0338 0.9706
-6.8657 -2.1153 -2.0338 0.9706
-6.6530 -2.7111 -2.0338 0.9706
-6.0750 -3.8351 -2.0338 0.9706
-5.5242 3.6345 -2.0339 0.9727
-5.8225 3.1345 -2.0339 0.9727
-6.0756 2.6101 -2.0339 0.9727
-6.6030 0.3533 -2.0338 0.9727
-6.6085 -0.2290 -2.0338 0.9727
-6.5627 -0.8094 -2.0338 0.9727
-6.4660 -1.3835 -2.0338 0.9727
-4.4432 4.2068 -2.0339 0.9745
-5.1116 3.3630 -2.0339 0.9745
-5.6218 2.4151 -2.0339 0.9745
-5.8125 1.9112 -2.0339 0.9745
-6.1098 0.3269 -2.0339 0.9745
-6.0725 -0.7489 -2.0338 0.9745
-5.8473 -1.8015 -2.0338 0.9745
-5.4411 -2.7984 -2.0338 0.9745
-3.7701 4.2585 -2.0339 0.9761
-4.4580 3.5319 -2.0339 0.9761
-4.7514 3.1260 -2.0339 0.9761
-5.2257 2.2449 -2.0339 0.9761
-5.4029 1.7766 -2.0339 0.9761
-5.5382 1.2944 -2.0339 0.9761
-5.6305 0.8022 -2.0339 0.9761
-5.6793 0.3038 -2.0339 0.9761
-5.6839 -0.1969 -2.0338 0.9761
-5.5614 -1.1900 -2.0338 0.9761
-5.4352 -1.6746 -2.0338 0.9761
-5.2668 -2.1462 -2.0338 0.9761
-4.8092 -3.0360 -2.0338 0.9761
-3.8541 3.6490 -2.0339 0.9775
-4.6732 2.5158 -2.0339 0.9775
-4.8764 2.0949 -2.0339 0.9775
-5.0418 1.6578 -2.0339 0.9775
-5.2543 0.7486 -2.0339 0.9775
-5.2997 0.2835 -2.0339 0.9775
-5.3041 -0.1838 -2.0339 0.9775
-5.2674 -0.6496 -2.0338 0.9775
-4.9148 -2.0028 -2.0338 0.9775
-4.7196 -2.4273 -2.0338 0.9775
-4.4879 -2.8331 -2.0338 0.9775
-4.1516 2.7314 -2.0339 0.9788
-4.5660 1.9615 -2.0339 0.9788
-4.7207 1.5523 -2.0339 0.9788
-2.1189 0.4952 -0.8906 0.9906
-2.1113 0.3008 -0.8728 0.9908
-2.1219 0.1135 -0.8697 0.9909
-4.7491 -1.4632 -2.0338 0.9788
-4.6020 -1.8753 -2.0338 0.9788
-3.0935 3.4943 -2.0339 0.9798
-3.6580 2.8981 -2.0339 0.9798
-1.9177 0.1026 -0.8370 0.9917
-1.9048 -0.2349 -0.8364 0.9917
-2.0822 -0.6416 -0.9496 0.9905
-4.3217 -1.7610 -2.0338 0.9798
-3.9461 -2.4912 -2.0338 0.9798
-2.9126 3.2899 -2.0339 0.9808
-3.4441 2.7286 -2.0339 0.9808
-3.8689 2.0828 -2.0339 0.9808
-4.0371 1.7344 -2.0339 0.9808
-1.5848 0.3704 -0.7534 0.9929
-1.5939 0.0852 -0.7389 0.9930
-1.5853 -0.0550 -0.7343 0.9930
-1.5332 -0.4724 -0.7426 0.9930
-4.0689 -1.6581 -2.0338 0.9808
-3.7154 -2.3455 -2.0338 0.9808
-3.0109 2.8508 -2.0339 0.9817
-3.8096 1.6367 -2.0339 0.9817
-1.2822 0.4216 -0.6621 0.9940
-1.3495 0.1922 -0.6686 0.9939
-1.3498 0.0722 -0.6631 0.9940
-1.3459 -0.0467 -0.6606 0.9940
-1.3300 -0.2846 -0.6672 0.9940
-1.8858 -0.7685 -0.9989 0.9910
-3.6872 -1.8963 -2.0338 0.9817
-2.5988 2.9355 -2.0339 0.9825
-2.8469 2.6955 -2.0339 0.9825
-3.0730 2.4346 -2.0339 0.9825
-1.1957 0.1703 -0.6266 0.9946
-1.1991 0.0641 -0.6230 0.9946
-1.1973 -0.0415 -0.6215 0.9946
-1.1989 -0.1479 -0.6267 0.9946
-3.4863 -1.7931 -2.0339 0.9825
-3.3151 -2.0928 -2.0338 0.9825
-2.6966 2.5531 -2.0339 0.9832
-2.9107 2.3060 -2.0339 0.9832
-3.1023 2.0410 -2.0339 0.9832
-3.2698 1.7602 -2.0339 0.9832
-1.0040 0.4313 -0.5985 0.9950
-1.0306 0.3388 -0.5942 0.9951
-1.0494 0.2453 -0.5903 0.9951
-1.0734 0.1529 -0.5938 0.9951
-1.0801 -0.0375 -0.5919 0.9951
-1.0559 -0.2260 -0.5914 0.9951
-1.0343 -0.3187 -0.5928 0.9951
-3.1400 -1.9823 -2.0339 0.9832
-0.9311 0.4000 -0.5850 0.9953
-0.9520 0.3130 -0.5786 0.9954
-0.9900 0.0529 -0.5724 0.9954
-0.9722 -0.2080 -0.5740 0.9954
-2.9788 -1.8805 -2.0339 0.9839
