ply
format ascii 1.0
element vertex 180
property float32 x
property float32 y
property float32 z
property float32 I
end_header
-9.6481 -14.1429 -2.0337 0.9334
-4.2211 -16.5921 -2.0337 0.9334
-2.7570 -16.8972 -2.0337 0.9334
0.2232 -17.1194 -2.0337 0.9334
3.1968 -16.8200 -2.0337 0.9334
1.8191 -6.4424 -0.7952 0.9734
-9.0927 -11.1057 -2.0337 0.9437
-7.0230 -12.5177 -2.0337 0.9437
-5.9037 -13.0829 -2.0337 0.9437
-2.3113 -14.1661 -2.0337 0.9437
-1.0661 -14.3139 -2.0337 0.9437
0.1872 -14.3523 -2.0337 0.9437
1.7257 -6.1114 -0.8998 0.9747
2.3455 -6.1828 -0.9370 0.9736
7.3476 -12.3311 -2.0338 0.9437
9.3800 -10.8657 -2.0339 0.9437
-7.8205 -9.5520 -2.0337 0.9512
-6.9571 -10.1982 -2.0337 0.9512
-6.0404 -10.7664 -2.0337 0.9512
-5.0777 -11.2525 -2.0337 0.9512
-4.0763 -11.6528 -2.0337 0.9512
-3.0438 -11.9641 -2.0337 0.9512
-0.9170 -12.3112 -2.0338 0.9512
0.1610 -12.3443 -2.0338 0.9512
1.7553 -6.2163 -1.0641 0.9742
-6.8545 -8.3720 -2.0337 0.9569
-5.2942 -9.4364 -2.0337 0.9569
-1.7424 -10.6790 -2.0338 0.9569
2.0204 -10.6300 -2.0338 0.9569
1.7364 -6.1496 -1.2011 0.9743
2.2552 -5.9446 -1.1951 0.9745
2.7434 -5.6797 -1.1856 0.9747
6.3290 -8.7767 -2.0339 0.9569
-6.0951 -7.4445 -2.0338 0.9614
-4.7077 -8.3910 -2.0338 0.9614
-3.9575 -8.7699 -2.0338 0.9614
-2.3722 -9.3244 -2.0338 0.9614
2.2105 -5.8269 -1.3173 0.9748
5.6278 -7.8043 -2.0339 0.9614
-5.4820 -6.6957 -2.0338 0.9651
-4.8767 -7.1485 -2.0338 0.9651
-4.2341 -7.5469 -2.0338 0.9651
-2.8573 -8.1682 -2.0338 0.9651
-1.3935 -8.5407 -2.0338 0.9651
-0.6428 -8.6297 -2.0338 0.9651
1.6539 -5.8574 -1.4304 0.9753
2.2045 -5.8109 -1.4607 0.9748
2.8224 -5.8432 -1.5251 0.9737
5.0616 -7.0193 -2.0339 0.9651
-4.9761 -6.0778 -2.0338 0.9681
-4.4266 -6.4888 -2.0338 0.9681
-3.8434 -6.8504 -2.0338 0.9681
-3.2309 -7.1598 -2.0338 0.9681
-2.5937 -7.4144 -2.0338 0.9681
-1.9367 -7.6125 -2.0338 0.9681
0.1024 -7.8544 -2.0338 0.9681
0.7875 -7.8155 -2.0338 0.9681
2.1630 -5.7015 -1.5789 0.9751
5.1331 -5.9462 -2.0339 0.9681
-4.5512 -5.5588 -2.0338 0.9706
-4.0486 -5.9348 -2.0338 0.9706
-3.5152 -6.2654 -2.0338 0.9706
-2.9550 -6.5484 -2.0338 0.9706
-2.3722 -6.7813 -2.0338 0.9706
-1.7713 -6.9625 -2.0338 0.9706
-0.5337 -7.1645 -2.0338 0.9706
1.6613 -5.8835 -1.7307 0.9749
2.2289 -5.8754 -1.7789 0.9742
2.8687 -5.9392 -1.8672 0.9730
3.6775 -6.1719 -2.0339 0.9706
4.2022 -5.8274 -2.0339 0.9706
4.6948 -5.4384 -2.0339 0.9706
-3.7263 -5.4623 -2.0338 0.9727
-2.1834 -6.2415 -2.0338 0.9727
-1.6303 -6.4082 -2.0338 0.9727
-1.0648 -6.5261 -2.0338 0.9727
-0.4912 -6.5941 -2.0338 0.9727
0.6630 -6.5791 -2.0338 0.9727
1.2346 -6.4962 -2.0338 0.9727
1.7175 -6.0824 -1.9440 0.9739
2.3454 -6.1825 -2.0339 0.9727
2.8761 -5.9543 -2.0339 0.9727
3.3848 -5.6805 -2.0339 0.9727
3.8677 -5.3635 -2.0339 0.9727
-2.9937 -5.3360 -2.0338 0.9745
-2.5166 -5.5770 -2.0338 0.9745
-2.0203 -5.7754 -2.0338 0.9745
-1.5085 -5.9296 -2.0338 0.9745
-0.4545 -6.1016 -2.0338 0.9745
0.0798 -6.1180 -2.0338 0.9745
1.6627 -5.8883 -2.0338 0.9745
2.1703 -5.7208 -2.0339 0.9745
3.1320 -5.2563 -2.0339 0.9745
-3.6029 -4.4005 -2.0338 0.9761
-3.2051 -4.6982 -2.0338 0.9761
-1.8779 -5.3683 -2.0338 0.9761
-0.9159 -5.6131 -2.0338 0.9761
-0.4224 -5.6716 -2.0338 0.9761
1.5455 -5.4734 -2.0339 0.9761
2.0173 -5.3176 -2.0339 0.9761
2.4737 -5.1213 -2.0339 0.9761
2.9112 -4.8859 -2.0339 0.9761
3.3266 -4.6132 -2.0339 0.9761
3.7165 -4.3052 -2.0339 0.9761
-2.9909 -4.3842 -2.0338 0.9775
-2.5968 -4.6285 -2.0338 0.9775
-1.7524 -5.0096 -2.0338 0.9775
-0.8546 -5.2380 -2.0338 0.9775
-0.3942 -5.2926 -2.0338 0.9775
0.5321 -5.2806 -2.0338 0.9775
0.9910 -5.2140 -2.0339 0.9775
1.4422 -5.1076 -2.0339 0.9775
1.8825 -4.9622 -2.0339 0.9775
2.7167 -4.5593 -2.0339 0.9775
-2.8005 -4.1051 -2.0338 0.9788
-2.4315 -4.3338 -2.0338 0.9788
-0.8002 -4.9046 -2.0338 0.9788
-0.3691 -4.9557 -2.0338 0.9788
0.0648 -4.9690 -2.0338 0.9788
0.4983 -4.9444 -2.0338 0.9788
0.9279 -4.8820 -2.0339 0.9788
1.3504 -4.7824 -2.0339 0.9788
2.1614 -4.4748 -2.0339 0.9788
2.9066 -4.0308 -2.0339 0.9788
3.2473 -3.7617 -2.0339 0.9788
-2.2834 -4.0700 -2.0338 0.9798
-1.5409 -4.4050 -2.0338 0.9798
-0.3466 -4.6539 -2.0338 0.9798
0.0609 -4.6664 -2.0338 0.9798
0.4679 -4.6433 -2.0339 0.9798
1.6553 -4.3634 -2.0339 0.9798
2.3888 -4.0091 -2.0339 0.9798
3.0496 -3.5326 -2.0339 0.9798
-2.4761 -3.6297 -2.0338 0.9808
-1.8073 -4.0050 -2.0338 0.9808
-1.0833 -4.2582 -2.0338 0.9808
-0.7075 -4.3365 -2.0338 0.9808
1.9111 -3.9565 -2.0339 0.9808
2.8712 -3.3261 -2.0339 0.9808
-2.3366 -3.4252 -2.0338 0.9817
-1.7055 -3.7793 -2.0338 0.9817
-1.3691 -3.9137 -2.0338 0.9817
-1.0223 -4.0183 -2.0338 0.9817
-0.6677 -4.0922 -2.0338 0.9817
-0.3080 -4.1349 -2.0339 0.9817
0.4157 -4.1254 -2.0339 0.9817
0.7742 -4.0734 -2.0339 0.9817
1.8034 -3.7336 -2.0339 0.9817
2.7095 -3.1386 -2.0339 0.9817
-1.9183 -3.4191 -2.0338 0.9825
-1.6126 -3.5735 -2.0338 0.9825
-0.9666 -3.7995 -2.0338 0.9825
-0.6313 -3.8693 -2.0339 0.9825
-0.2912 -3.9097 -2.0339 0.9825
0.7320 -3.8516 -2.0339 0.9825
1.0654 -3.7730 -2.0339 0.9825
1.3906 -3.6656 -2.0339 0.9825
1.7052 -3.5303 -2.0339 0.9825
2.2931 -3.1800 -2.0339 0.9825
2.5619 -2.9677 -2.0339 0.9825
-1.8170 -3.2386 -2.0338 0.9832
-1.5274 -3.3848 -2.0338 0.9832
-1.2262 -3.5052 -2.0339 0.9832
-0.5980 -3.6650 -2.0339 0.9832
-0.2758 -3.7032 -2.0339 0.9832
0.3723 -3.6947 -2.0339 0.9832
0.6934 -3.6481 -2.0339 0.9832
1.0091 -3.5737 -2.0339 0.9832
1.3171 -3.4720 -2.0339 0.9832
1.6152 -3.3438 -2.0339 0.9832
1.9008 -3.1901 -2.0339 0.9832
2.4266 -2.8110 -2.0339 0.9832
-1.7237 -3.0722 -2.0339 0.9839
-1.4490 -3.2110 -2.0339 0.9839
-1.1632 -3.3252 -2.0339 0.9839
-0.5673 -3.4768 -2.0339 0.9839
-0.2617 -3.5130 -2.0339 0.9839
0.3532 -3.5050 -2.0339 0.9839
0.6577 -3.4608 -2.0339 0.9839
1.5322 -3.1721 -2.0339 0.9839
