ply
format ascii 1.0
element vertex 180
property float32 x
property float32 y
property float32 z
property float32 I
end_header
-11.8826 -8.1121 -0.7297 0.9440
-14.4924 9.1182 -2.0339 0.9334
-15.2475 7.7897 -2.0339 0.9334
-15.8811 6.3991 -2.0338 0.9334
-17.0867 -1.0838 -2.0337 0.9334
-16.9219 -2.6029 -2.0337 0.9334
-16.6223 -4.1012 -2.0337 0.9334
-16.1904 -5.5669 -2.0337 0.9334
-15.6295 -6.9882 -2.0337 0.9334
-11.4673 -7.8285 -1.6493 0.9456
-13.2227 -10.8751 -2.0337 0.9334
-11.0810 -13.0506 -2.0337 0.9334
-12.1498 7.6443 -2.0339 0.9437
-12.7828 6.5305 -2.0339 0.9437
-14.0550 2.9148 -2.0338 0.9437
-14.3490 0.3721 -2.0338 0.9437
-14.1868 -2.1822 -2.0338 0.9437
-13.5735 -4.6671 -2.0337 0.9437
-13.1033 -5.8587 -2.0337 0.9437
-12.5287 -7.0036 -2.0337 0.9437
-11.8544 -8.0927 -2.0337 0.9437
-11.0856 -9.1173 -2.0337 0.9437
-10.2285 -10.0694 -2.0337 0.9437
-9.2900 -10.9412 -2.0337 0.9437
-10.4498 6.5747 -2.0339 0.9512
-11.4512 4.6142 -2.0339 0.9512
-12.2638 1.4192 -2.0338 0.9512
-12.3414 0.3201 -2.0338 0.9512
-12.3207 -0.7815 -2.0338 0.9512
-11.6745 -4.0141 -2.0338 0.9512
-10.1959 -6.9605 -2.0337 0.9512
-8.7975 -8.6606 -2.0337 0.9512
-7.9903 -9.4105 -2.0337 0.9512
-9.1588 5.7624 -2.0339 0.9569
-10.3570 3.1331 -2.0338 0.9569
-10.5951 2.1972 -2.0338 0.9569
-10.5052 -2.5920 -2.0338 0.9569
-10.2322 -3.5183 -2.0338 0.9569
-9.4446 -5.2796 -2.0338 0.9569
-7.0032 -8.2480 -2.0337 0.9569
-8.1441 5.1240 -2.0339 0.9614
-8.5685 4.3774 -2.0339 0.9614
-8.9246 3.5961 -2.0339 0.9614
-9.2096 2.7860 -2.0339 0.9614
-9.4212 1.9538 -2.0338 0.9614
-9.5579 1.1061 -2.0338 0.9614
-9.6184 0.2495 -2.0338 0.9614
-9.6023 -0.6091 -2.0338 0.9614
-9.0987 -3.1285 -2.0338 0.9614
-8.7835 -3.9272 -2.0338 0.9614
-7.9463 -5.4248 -2.0338 0.9614
-6.8565 -6.7498 -2.0338 0.9614
-7.3248 4.6085 -2.0339 0.9651
-7.7065 3.9371 -2.0339 0.9651
-8.0268 3.2343 -2.0339 0.9651
-8.2831 2.5058 -2.0339 0.9651
-8.6508 0.2244 -2.0338 0.9651
-7.8999 -3.5322 -2.0338 0.9651
-6.6835 -5.4968 -2.0338 0.9651
-5.6009 -6.5965 -2.0338 0.9651
-6.9953 3.5738 -2.0339 0.9681
-7.5187 2.2745 -2.0339 0.9681
-7.6916 1.5951 -2.0339 0.9681
-7.8031 0.9030 -2.0338 0.9681
-7.7638 -1.1942 -2.0338 0.9681
-6.8564 -3.8328 -2.0338 0.9681
-6.4874 -4.4288 -2.0338 0.9681
-6.0811 3.8260 -2.0339 0.9706
-6.3979 3.2686 -2.0339 0.9706
-6.6638 2.6851 -2.0339 0.9706
-7.0347 1.4589 -2.0339 0.9706
-7.1368 0.8258 -2.0338 0.9706
-7.1700 -0.4548 -2.0338 0.9706
-7.1008 -1.0922 -2.0338 0.9706
-6.9751 -1.7210 -2.0338 0.9706
-6.7939 -2.3360 -2.0338 0.9706
-6.5585 -2.9324 -2.0338 0.9706
-5.5970 3.5214 -2.0339 0.9727
-6.1334 2.4713 -2.0339 0.9727
-6.3292 1.9147 -2.0339 0.9727
-6.4747 1.3428 -2.0339 0.9727
-6.6102 0.1714 -2.0338 0.9727
-6.5992 -0.4186 -2.0338 0.9727
-6.4198 -1.5840 -2.0338 0.9727
-6.2530 -2.1501 -2.0338 0.9727
-6.0364 -2.6990 -2.0338 0.9727
-5.7718 -3.2265 -2.0338 0.9727
-4.2798 -5.0405 -2.0338 0.9727
-5.1789 3.2584 -2.0339 0.9745
-5.9911 1.2424 -2.0339 0.9745
-6.0780 0.7034 -2.0339 0.9745
-6.1165 0.1586 -2.0338 0.9745
-6.0474 -0.9302 -2.0338 0.9745
-5.9404 -1.4657 -2.0338 0.9745
-5.7860 -1.9895 -2.0338 0.9745
-5.3407 -2.9854 -2.0338 0.9745
-5.0533 -3.4497 -2.0338 0.9745
-3.9601 -4.6640 -2.0338 0.9745
-5.0648 2.5875 -2.0339 0.9761
-5.2753 2.1256 -2.0339 0.9761
-5.4438 1.6468 -2.0339 0.9761
-5.5689 1.1549 -2.0339 0.9761
-5.6497 0.6538 -2.0339 0.9761
-5.6759 -0.3600 -2.0338 0.9761
-5.6212 -0.8646 -2.0338 0.9761
-5.5218 -1.3624 -2.0338 0.9761
-5.1920 -2.3214 -2.0338 0.9761
-4.9643 -2.7751 -2.0338 0.9761
-4.6971 -3.2066 -2.0338 0.9761
-4.3925 -3.6127 -2.0338 0.9761
-4.0530 -3.9899 -2.0338 0.9761
-3.6811 -4.3353 -2.0338 0.9761
-4.9227 1.9836 -2.0339 0.9775
-5.0800 1.5368 -2.0339 0.9775
-5.2721 0.6101 -2.0339 0.9775
-5.2966 -0.3360 -2.0339 0.9775
-5.1527 -1.2714 -2.0338 0.9775
-5.0188 -1.7257 -2.0338 0.9775
-4.6326 -2.5896 -2.0338 0.9775
-4.3832 -2.9923 -2.0338 0.9775
-4.0990 -3.3712 -2.0338 0.9775
-3.7821 -3.7233 -2.0338 0.9775
-4.4254 2.2609 -2.0339 0.9788
-2.1101 0.2441 -0.8694 0.9909
-2.1210 -0.1346 -0.8698 0.9909
-4.5365 -2.0284 -2.0338 0.9788
-4.1042 -2.8019 -2.0338 0.9788
-3.8380 -3.1566 -2.0338 0.9788
-3.2164 -3.7881 -2.0338 0.9788
-3.9500 2.4853 -2.0339 0.9798
-4.1559 2.1232 -2.0339 0.9798
-2.0654 0.6248 -0.9404 0.9906
-1.9069 0.2206 -0.8366 0.9917
-1.9168 -0.1216 -0.8370 0.9917
-1.9053 -0.4701 -0.8553 0.9915
-4.0734 -2.2771 -2.0338 0.9798
-3.8543 -2.6312 -2.0338 0.9798
-3.3257 -3.2739 -2.0338 0.9798
-4.0755 1.6422 -2.0339 0.9808
-1.5977 0.3313 -0.7553 0.9928
-1.6092 0.1862 -0.7498 0.9929
-1.5773 -0.3892 -0.7520 0.9929
-4.0111 -1.7935 -2.0338 0.9808
-3.6288 -2.4773 -2.0338 0.9808
-3.3935 -2.7910 -2.0338 0.9808
-3.5095 2.2081 -2.0339 0.9817
-1.7348 0.6990 -0.9174 0.9917
-1.2950 0.3917 -0.6636 0.9940
-1.3320 0.2762 -0.6673 0.9940
-1.3528 0.1565 -0.6680 0.9940
-1.3437 0.0348 -0.6593 0.9940
-1.3513 -0.0857 -0.6642 0.9940
-1.3472 -0.2073 -0.6686 0.9939
-1.2743 -0.4382 -0.6610 0.9940
-3.7851 -1.6924 -2.0338 0.9817
-3.6192 -2.0231 -2.0338 0.9817
-3.4244 -2.3378 -2.0338 0.9817
-3.2023 -2.6338 -2.0338 0.9817
-3.4913 1.7836 -2.0339 0.9825
-1.1961 0.0310 -0.6207 0.9946
-1.1933 -0.1836 -0.6263 0.9946
-1.1673 -0.2880 -0.6237 0.9946
-1.1365 -0.3908 -0.6235 0.9946
-3.2379 -2.2104 -2.0338 0.9825
-3.0279 -2.4903 -2.0338 0.9825
-2.7938 -2.7503 -2.0338 0.9825
-3.1431 1.9775 -2.0339 0.9832
-1.0775 0.1246 -0.5941 0.9951
-1.0792 0.0279 -0.5913 0.9951
-1.0275 -0.3533 -0.5951 0.9951
-2.8680 -2.3588 -2.0338 0.9832
-2.9818 1.8760 -2.0339 0.9839
-0.9097 0.4647 -0.5898 0.9953
-0.9375 0.3777 -0.5835 0.9953
-0.9559 0.2891 -0.5766 0.9954
-0.9899 0.0256 -0.5717 0.9954
-0.9898 -0.0628 -0.5726 0.9954
-0.9824 -0.1512 -0.5739 0.9954
-0.9495 -0.3265 -0.5797 0.9954
-0.9265 -0.4143 -0.5860 0.9953
