ply
format ascii 1.0
element vertex 228
property float32 x
property float32 y
property float32 z
property float32 I
end_header
-12.2884 13.1719 3.1764 0.9294
-11.8452 12.6969 2.6601 0.9321
-11.3123 12.1255 2.1595 0.9353
-11.5299 12.3588 1.8150 0.9343
-11.6552 12.4931 1.4464 0.9337
-12.0141 12.8779 1.0921 0.9319
-12.6770 13.5885 0.7328 0.9283
-12.1303 13.0024 -0.1001 0.9313
-12.0623 12.9295 -0.4979 0.9317
-17.1791 5.2262 -0.9106 0.9306
-16.6759 5.0731 -1.2780 0.9325
-1.6973 7.3833 -0.7273 0.9700
-16.3735 4.9811 -1.6431 0.9335
-1.6942 7.3698 -0.8983 0.9700
-6.6818 15.7659 -2.0340 0.9333
-8.0334 15.1218 -2.0340 0.9334
-9.3234 14.3622 -2.0340 0.9334
-15.2636 7.7580 -2.0339 0.9334
-15.8827 6.3951 -2.0338 0.9334
-16.7530 3.5333 -2.0338 0.9334
-17.0956 -0.9330 -2.0337 0.9334
-16.6722 -3.8939 -2.0337 0.9334
-1.6741 7.2829 -1.0588 0.9703
-4.4258 13.6562 -2.0340 0.9437
-5.6017 13.2173 -2.0340 0.9437
-6.7348 12.6773 -2.0340 0.9437
-7.8163 12.0405 -2.0340 0.9437
-9.7923 10.4963 -2.0339 0.9437
-10.6716 9.6008 -2.0339 0.9437
-11.4694 8.6319 -2.0339 0.9437
-12.7963 6.5040 -2.0339 0.9437
-13.3154 5.3613 -2.0338 0.9437
-14.0450 2.9622 -2.0338 0.9437
-14.2500 1.7240 -2.0338 0.9437
-14.3461 0.4727 -2.0338 0.9437
-14.3323 -0.7822 -2.0338 0.9437
-13.9774 -3.2645 -2.0337 0.9437
-5.7924 10.9035 -2.0340 0.9512
-6.7226 10.3558 -2.0340 0.9512
-8.4222 9.0277 -2.0339 0.9512
-9.8646 7.4241 -2.0339 0.9512
-11.0059 5.5940 -2.0339 0.9512
-11.4524 4.6112 -2.0339 0.9512
-11.8113 3.5932 -2.0338 0.9512
-12.0800 2.5478 -2.0338 0.9512
-12.3389 0.4066 -2.0338 0.9512
-12.2212 -1.7470 -2.0338 0.9512
-12.0218 -2.8078 -2.0338 0.9512
-2.3216 7.1635 -1.4154 0.9698
-4.2227 9.9634 -2.0340 0.9569
-7.3817 7.9123 -2.0339 0.9569
-8.0445 7.2372 -2.0339 0.9569
-8.6459 6.5069 -2.0339 0.9569
-9.1812 5.7268 -2.0339 0.9569
-9.6462 4.9029 -2.0339 0.9569
-10.3521 3.1493 -2.0338 0.9569
-10.5876 2.2330 -2.0338 0.9569
-10.7421 1.2996 -2.0338 0.9569
-10.8145 0.3563 -2.0338 0.9569
-10.8043 -0.5896 -2.0338 0.9569
-10.7114 -1.5311 -2.0338 0.9569
-2.3193 7.1563 -1.5902 0.9697
-3.7548 8.8595 -2.0340 0.9614
-4.5143 8.4976 -2.0340 0.9614
-5.2393 8.0708 -2.0339 0.9614
-5.9242 7.5822 -2.0339 0.9614
-7.1532 6.4354 -2.0339 0.9614
-7.6880 5.7860 -2.0339 0.9614
-8.9255 3.5938 -2.0339 0.9614
-9.4146 1.9856 -2.0338 0.9614
-9.6073 -0.5243 -2.0338 0.9614
-9.5247 -1.3615 -2.0338 0.9614
-9.3693 -2.1883 -2.0338 0.9614
-1.6672 7.2525 -1.7490 0.9699
-3.3771 7.9682 -2.0340 0.9651
-4.0602 7.6427 -2.0340 0.9651
-6.4337 5.7880 -2.0339 0.9651
-6.9146 5.2039 -2.0339 0.9651
-7.3427 4.5800 -2.0339 0.9651
-7.7146 3.9211 -2.0339 0.9651
-8.0276 3.2322 -2.0339 0.9651
-8.5911 1.0394 -2.0338 0.9651
-8.6408 -0.4716 -2.0338 0.9651
-8.4268 -1.9682 -2.0338 0.9651
-3.0654 7.2328 -2.0340 0.9681
-3.6854 6.9374 -2.0339 0.9681
-4.2773 6.5889 -2.0339 0.9681
-5.3587 5.7439 -2.0339 0.9681
-5.8399 5.2539 -2.0339 0.9681
-6.2764 4.7237 -2.0339 0.9681
-7.0027 3.5592 -2.0339 0.9681
-7.6861 1.6210 -2.0339 0.9681
-7.7982 0.9435 -2.0338 0.9681
-7.8509 0.2587 -2.0338 0.9681
-7.7760 -1.1115 -2.0338 0.9681
-7.6492 -1.7865 -2.0338 0.9681
-1.6096 7.0021 -2.0340 0.9706
-2.2151 6.8347 -2.0340 0.9706
-2.8036 6.6151 -2.0340 0.9706
-3.3707 6.3450 -2.0339 0.9706
-3.9121 6.0262 -2.0339 0.9706
-6.4047 3.2553 -2.0339 0.9706
-6.8734 2.0910 -2.0339 0.9706
-7.0298 1.4826 -2.0339 0.9706
-7.1736 -0.3915 -2.0338 0.9706
-7.1120 -1.0166 -2.0338 0.9706
-1.4814 6.4447 -2.0340 0.9727
-2.0387 6.2907 -2.0340 0.9727
-3.1024 5.8398 -2.0339 0.9727
-4.9160 4.4227 -2.0339 0.9727
-5.2835 3.9763 -2.0339 0.9727
-5.6106 3.4996 -2.0339 0.9727
-6.4702 1.3646 -2.0339 0.9727
-6.5646 0.7942 -2.0339 0.9727
-6.6089 0.2178 -2.0338 0.9727
-6.5458 -0.9357 -2.0338 0.9727
-6.4391 -1.5039 -2.0338 0.9727
-1.8865 5.8208 -2.0339 0.9745
-2.3877 5.6338 -2.0339 0.9745
-3.3317 5.1322 -2.0339 0.9745
-3.7672 4.8216 -2.0339 0.9745
-4.1739 4.4740 -2.0339 0.9745
-5.4546 2.7724 -2.0339 0.9745
-5.6759 2.2853 -2.0339 0.9745
-6.1152 0.2015 -2.0339 0.9745
-6.1095 -0.3335 -2.0338 0.9745
-1.2742 5.5431 -2.0340 0.9761
-2.2194 5.2367 -2.0339 0.9761
-3.0969 4.7705 -2.0339 0.9761
-3.5018 4.4818 -2.0339 0.9761
-3.8798 4.1588 -2.0339 0.9761
-4.5443 3.4201 -2.0339 0.9761
-5.2759 2.1243 -2.0339 0.9761
-5.4412 1.6553 -2.0339 0.9761
-5.5650 1.1737 -2.0339 0.9761
-5.6462 0.6831 -2.0339 0.9761
-5.6843 0.1873 -2.0339 0.9761
-5.6789 -0.3099 -2.0338 0.9761
-5.6301 -0.8048 -2.0338 0.9761
-2.0711 4.8867 -2.0339 0.9775
-2.4900 4.6872 -2.0339 0.9775
-2.8899 4.4517 -2.0339 0.9775
-3.6205 3.8808 -2.0339 0.9775
-3.9457 3.5497 -2.0339 0.9775
-4.2406 3.1915 -2.0339 0.9775
-4.7313 2.4048 -2.0339 0.9775
-5.2689 0.6375 -2.0339 0.9775
-1.1134 4.8433 -2.0339 0.9788
-3.0596 3.9160 -2.0339 0.9788
-3.3900 3.6338 -2.0339 0.9788
-3.6945 3.3237 -2.0339 0.9788
-3.9707 2.9883 -2.0339 0.9788
-4.4301 2.2517 -2.0339 0.9788
-2.1213 0.4474 -0.8873 0.9907
-2.1227 0.0699 -0.8693 0.9909
-2.1218 -0.1158 -0.8697 0.9909
-2.1189 -0.4949 -0.8906 0.9906
-1.4388 4.4396 -2.0339 0.9798
-1.8211 4.2969 -2.0339 0.9798
-2.1895 4.1214 -2.0339 0.9798
-3.9597 2.4699 -2.0339 0.9798
-4.1603 2.1146 -2.0339 0.9798
-4.3291 1.7430 -2.0339 0.9798
-2.0705 0.6299 -0.9432 0.9906
-1.9055 0.2305 -0.8365 0.9917
-1.9188 0.0632 -0.8367 0.9917
-1.9032 -0.2721 -0.8379 0.9916
-1.9009 -0.4440 -0.8507 0.9915
-0.9844 4.2823 -2.0339 0.9808
-1.3547 4.1800 -2.0339 0.9808
-2.0614 3.8804 -2.0339 0.9808
-2.3925 3.6855 -2.0339 0.9808
-2.9974 3.2129 -2.0339 0.9808
-3.5108 2.6422 -2.0339 0.9808
-3.7281 2.3254 -2.0339 0.9808
-3.9170 1.9909 -2.0339 0.9808
-4.0759 1.6412 -2.0339 0.9808
-1.5961 0.3366 -0.7551 0.9928
-1.6097 0.1947 -0.7505 0.9929
-1.5845 0.0522 -0.7338 0.9930
-1.5944 -0.0871 -0.7391 0.9930
-0.9289 4.0411 -2.0339 0.9817
-1.2784 3.9445 -2.0339 0.9817
-1.6180 3.8177 -2.0339 0.9817
-1.9453 3.6618 -2.0339 0.9817
-2.5529 3.2673 -2.0339 0.9817
-2.8285 3.0319 -2.0339 0.9817
-3.0825 2.7732 -2.0339 0.9817
-3.6963 1.8787 -2.0339 0.9817
-1.7339 0.6981 -0.9169 0.9917
-1.3310 0.2807 -0.6672 0.9940
-1.3524 0.1636 -0.6682 0.9939
-1.3235 -0.3091 -0.6667 0.9940
-1.2087 3.7296 -2.0339 0.9825
-2.1347 3.2884 -2.0339 0.9825
-2.4138 3.0894 -2.0339 0.9825
-2.6745 2.8667 -2.0339 0.9825
-2.9146 2.6222 -2.0339 0.9825
-3.3265 2.0749 -2.0339 0.9825
-3.4950 1.7764 -2.0339 0.9825
-1.1473 0.3490 -0.6221 0.9946
-1.1991 0.1450 -0.6266 0.9946
-1.1956 -0.1709 -0.6266 0.9946
-0.8320 3.6192 -2.0339 0.9832
-1.1449 3.5327 -2.0339 0.9832
-1.7422 3.2795 -2.0339 0.9832
-2.2863 2.9262 -2.0339 0.9832
-2.5332 2.7153 -2.0339 0.9832
-2.9671 2.2330 -2.0339 0.9832
-3.1508 1.9653 -2.0339 0.9832
-0.9803 0.4982 -0.6023 0.9950
-1.0350 0.3148 -0.5925 0.9951
-1.0768 0.1302 -0.5941 0.9951
-1.0733 -0.1535 -0.5938 0.9951
-1.0861 3.3512 -2.0339 0.9839
-1.3746 3.2436 -2.0339 0.9839
-1.6527 3.1111 -2.0339 0.9839
-1.9182 2.9548 -2.0339 0.9839
-2.4031 2.5759 -2.0339 0.9839
-2.6189 2.3562 -2.0339 0.9839
-2.8147 2.1184 -2.0339 0.9839
-2.9890 1.8644 -2.0339 0.9839
-0.9375 0.3775 -0.5835 0.9953
-0.9556 0.2907 -0.5767 0.9954
-0.9862 0.1193 -0.5736 0.9954
-0.9900 -0.0541 -0.5724 0.9954
-0.9838 -0.1407 -0.5738 0.9954
-0.9678 -0.2261 -0.5738 0.9954
