ply
format ascii 1.0
element vertex 200
property float32 x
property float32 y
property float32 z
property float32 I
end_header
-17.5247 4.8130 -1.3325 0.9297
-16.3308 6.0993 -1.6736 0.9323
-15.4408 7.3989 -2.0339 0.9334
-16.0396 5.9906 -2.0338 0.9334
-16.5103 4.5345 -2.0338 0.9334
-16.8491 3.0421 -2.0338 0.9334
-17.0523 -1.5321 -2.0337 0.9334
-16.8473 -3.0485 -2.0337 0.9334
-16.5077 -4.5406 -2.0337 0.9334
-11.2061 -8.1032 -1.6427 0.9458
-11.8677 -12.3395 -2.0337 0.9334
-8.1731 -15.0435 -2.0337 0.9334
-6.7973 -15.7133 -2.0337 0.9334
-13.4470 5.0223 -2.0338 0.9437
-14.2968 1.2789 -2.0338 0.9437
-14.2961 -1.2845 -2.0338 0.9437
-14.1243 -2.5558 -2.0338 0.9437
-13.8395 -3.8067 -2.0337 0.9437
-13.4443 -5.0272 -2.0337 0.9437
-12.3356 -7.3383 -2.0337 0.9437
-8.9862 -11.1921 -2.0337 0.9437
-11.5655 4.3195 -2.0338 0.9512
-11.9050 3.2696 -2.0338 0.9512
-12.1493 2.1935 -2.0338 0.9512
-12.2959 -1.1047 -2.0338 0.9512
-12.1481 -2.1982 -2.0338 0.9512
-11.9033 -3.2741 -2.0338 0.9512
-10.6098 -6.3116 -2.0337 0.9512
-10.0037 -7.2337 -2.0337 0.9512
-6.8385 -10.2780 -2.0337 0.9512
-5.8935 -10.8475 -2.0337 0.9512
-10.1367 3.7859 -2.0339 0.9569
-10.4342 2.8657 -2.0338 0.9569
-10.6483 1.9226 -2.0338 0.9569
-10.7774 0.9640 -2.0338 0.9569
-10.8204 -0.0021 -2.0338 0.9569
-10.7769 -0.9683 -2.0338 0.9569
-10.6473 -1.9267 -2.0338 0.9569
-10.4327 -2.8697 -2.0338 0.9569
-9.7560 -4.6795 -2.0338 0.9569
-9.2991 -5.5319 -2.0338 0.9569
-8.7680 -6.3401 -2.0338 0.9569
-7.5004 -7.7986 -2.0337 0.9569
-6.7741 -8.4371 -2.0337 0.9569
-5.1654 -9.5075 -2.0337 0.9569
-4.2959 -9.9308 -2.0338 0.9569
-8.6771 4.1579 -2.0339 0.9614
-9.0137 3.3665 -2.0339 0.9614
-9.4686 1.7096 -2.0338 0.9614
-9.5834 0.8572 -2.0338 0.9614
-9.6216 -0.0019 -2.0338 0.9614
-9.5829 -0.8610 -2.0338 0.9614
-9.4678 -1.7132 -2.0338 0.9614
-9.2769 -2.5517 -2.0338 0.9614
-6.0236 -7.5024 -2.0338 0.9614
-5.3297 -8.0103 -2.0338 0.9614
-7.8042 3.7396 -2.0339 0.9651
-8.1069 3.0278 -2.0339 0.9651
-8.5161 1.5376 -2.0338 0.9651
-8.6193 0.7710 -2.0338 0.9651
-8.6538 -0.0018 -2.0338 0.9651
-8.5154 -1.5409 -2.0338 0.9651
-7.8024 -3.7425 -2.0338 0.9651
-7.4371 -4.4243 -2.0338 0.9651
-7.0123 -5.0706 -2.0338 0.9651
-6.5315 -5.6765 -2.0338 0.9651
-5.4177 -6.7477 -2.0338 0.9651
-4.7936 -7.2045 -2.0338 0.9651
-7.0840 3.3945 -2.0339 0.9681
-7.5747 2.0804 -2.0339 0.9681
-7.7302 1.3957 -2.0338 0.9681
-7.8239 0.6999 -2.0338 0.9681
-7.8551 -0.0015 -2.0338 0.9681
-7.8236 -0.7029 -2.0338 0.9681
-7.7295 -1.3987 -2.0338 0.9681
-7.5737 -2.0833 -2.0338 0.9681
-7.3575 -2.7512 -2.0338 0.9681
-6.7508 -4.0160 -2.0338 0.9681
-6.3652 -4.6027 -2.0338 0.9681
-5.4450 -5.6615 -2.0338 0.9681
-4.9178 -6.1251 -2.0338 0.9681
-4.3512 -6.5397 -2.0338 0.9681
-3.7499 -6.9021 -2.0338 0.9681
-3.1187 -7.2094 -2.0338 0.9681
-6.7304 2.5137 -2.0339 0.9706
-6.9279 1.9027 -2.0339 0.9706
-7.0701 1.2765 -2.0339 0.9706
-7.1558 0.6401 -2.0338 0.9706
-6.4777 -3.1071 -2.0338 0.9706
-6.1743 -3.6730 -2.0338 0.9706
-6.3764 1.7512 -2.0339 0.9727
-6.5073 1.1749 -2.0339 0.9727
-6.5861 0.5891 -2.0339 0.9727
-6.5859 -0.5917 -2.0338 0.9727
-6.5067 -1.1774 -2.0338 0.9727
-6.3756 -1.7537 -2.0338 0.9727
-6.1935 -2.3160 -2.0338 0.9727
-5.9620 -2.8598 -2.0338 0.9727
-4.9909 -4.3375 -2.0338 0.9727
-4.1398 -5.1561 -2.0338 0.9727
-3.6629 -5.5051 -2.0338 0.9727
-3.1567 -5.8102 -2.0338 0.9727
-2.6253 -6.0688 -2.0338 0.9727
-6.0943 0.5451 -2.0339 0.9745
-6.0207 -1.0895 -2.0338 0.9745
-5.8994 -1.6227 -2.0338 0.9745
-5.5167 -2.6462 -2.0338 0.9745
-4.9580 -3.5852 -2.0338 0.9745
-3.8306 -4.7710 -2.0338 0.9745
-3.3893 -5.0940 -2.0338 0.9745
-2.9209 -5.3762 -2.0338 0.9745
-2.4292 -5.6156 -2.0338 0.9745
-5.4843 1.5062 -2.0339 0.9761
-5.5969 1.0105 -2.0339 0.9761
-5.6873 -0.0011 -2.0339 0.9761
-5.6646 -0.5090 -2.0338 0.9761
-4.8878 -2.9077 -2.0338 0.9761
-4.2927 -3.7307 -2.0338 0.9761
-3.5607 -4.4348 -2.0338 0.9761
-2.2580 -5.2199 -2.0338 0.9761
-4.7863 2.2935 -2.0339 0.9775
-4.9719 1.8569 -2.0339 0.9775
-5.2229 0.9430 -2.0339 0.9775
-5.2862 0.4729 -2.0339 0.9775
-5.2860 -0.4749 -2.0338 0.9775
-4.9711 -1.8588 -2.0338 0.9775
-4.7852 -2.2953 -2.0338 0.9775
-4.5611 -2.7134 -2.0338 0.9775
-4.3007 -3.1098 -2.0338 0.9775
-3.6789 -3.8252 -2.0338 0.9775
-2.9399 -4.4186 -2.0338 0.9775
-2.1071 -4.8710 -2.0338 0.9775
-4.6554 1.7387 -2.0339 0.9788
-2.1196 0.3827 -0.8815 0.9907
-2.1168 0.1893 -0.8698 0.9909
-2.1210 -0.0004 -0.8681 0.9909
-4.6546 -1.7405 -2.0338 0.9788
-4.0268 -2.9119 -2.0338 0.9788
-3.7508 -3.2598 -2.0338 0.9788
-3.1111 -3.8749 -2.0338 0.9788
-4.3718 1.6328 -2.0339 0.9798
-1.9129 0.1711 -0.8370 0.9917
-1.9847 -0.5460 -0.8971 0.9911
-3.7816 -2.7345 -2.0338 0.9798
-3.2350 -3.3635 -2.0338 0.9798
-2.9217 -3.6389 -2.0338 0.9798
-2.2279 -4.1006 -2.0338 0.9798
-3.9625 1.8987 -2.0339 0.9808
-4.1162 1.5374 -2.0339 0.9808
-1.5581 0.4279 -0.7479 0.9929
-1.6076 0.2902 -0.7562 0.9928
-1.6048 0.1435 -0.7458 0.9929
-1.6049 -0.1442 -0.7459 0.9929
-1.6075 -0.2909 -0.7562 0.9928
-4.1155 -1.5389 -2.0338 0.9808
-3.3164 -2.8822 -2.0338 0.9808
-2.4339 -3.6581 -2.0338 0.9808
-2.0976 -3.8608 -2.0338 0.9808
-1.7445 -4.0327 -2.0338 0.9808
-1.3401 0.2419 -0.6680 0.9940
-1.3343 -0.0003 -0.6545 0.9941
-1.3400 -0.2425 -0.6680 0.9940
-3.5634 -2.1198 -2.0338 0.9817
-3.3598 -2.4296 -2.0338 0.9817
-3.1295 -2.7198 -2.0338 0.9817
-2.8742 -2.9884 -2.0338 0.9817
-2.5959 -3.2331 -2.0338 0.9817
-1.9794 -3.6433 -2.0338 0.9817
-1.6462 -3.8055 -2.0338 0.9817
-3.5356 1.6942 -2.0339 0.9825
-1.1290 0.4216 -0.6252 0.9946
-1.1864 0.2142 -0.6254 0.9946
-1.2004 -0.1079 -0.6253 0.9946
-1.1863 -0.2147 -0.6254 0.9946
-1.1582 -0.3186 -0.6232 0.9946
-3.3693 -2.0044 -2.0338 0.9825
-2.9590 -2.5717 -2.0338 0.9825
-2.1717 -3.2640 -2.0338 0.9825
-1.8716 -3.4449 -2.0338 0.9825
-0.9889 0.4738 -0.6006 0.9950
-1.0652 0.1923 -0.5928 0.9951
-1.0801 0.0966 -0.5939 0.9951
-1.0800 -0.0971 -0.5939 0.9951
-1.0390 -0.2858 -0.5902 0.9951
-1.0203 -0.3816 -0.5966 0.9950
-2.5741 -2.6765 -2.0338 0.9832
-2.3248 -2.8956 -2.0338 0.9832
-2.0570 -3.0916 -2.0338 0.9832
-1.7727 -3.2630 -2.0338 0.9832
-1.4744 -3.4082 -2.0338 0.9832
-0.9591 0.2634 -0.5743 0.9954
-0.9784 0.1766 -0.5740 0.9954
-0.9889 -0.0002 -0.5709 0.9954
-0.9783 -0.1771 -0.5740 0.9954
-0.9437 -0.3529 -0.5817 0.9954
-3.0275 -1.8010 -2.0339 0.9839
-2.8546 -2.0642 -2.0339 0.9839
-2.4419 -2.5390 -2.0339 0.9839
-2.2055 -2.7469 -2.0339 0.9839
-1.9514 -2.9329 -2.0339 0.9839
