ply
format ascii 1.0
element vertex 193
property float32 x
property float32 y
property float32 z
property float32 I
end_header
-11.6089 -8.5790 -1.0584 0.9437
-16.1085 5.4940 -1.6340 0.9339
-12.9352 -7.9073 -1.4555 0.9409
-11.4322 -8.4485 -1.3647 0.9445
-14.2094 9.5533 -2.0339 0.9334
-14.9917 8.2713 -2.0339 0.9334
-15.6587 6.9258 -2.0338 0.9334
-16.2051 5.5270 -2.0338 0.9334
-16.6269 4.0857 -2.0338 0.9334
-16.9209 2.6130 -2.0338 0.9334
-17.0846 1.1203 -2.0338 0.9334
-16.7873 -3.3634 -2.0337 0.9334
-15.3337 -7.6152 -2.0337 0.9334
-13.0225 -7.9607 -1.8130 0.9404
-11.2916 -8.3445 -1.6678 0.9450
-12.8241 -11.3424 -2.0337 0.9334
-11.7809 -12.4225 -2.0337 0.9334
-11.1651 9.0221 -2.0339 0.9437
-11.9125 8.0091 -2.0339 0.9437
-12.5684 6.9343 -2.0339 0.9437
-13.1276 5.8063 -2.0339 0.9437
-13.5857 4.6336 -2.0338 0.9437
-14.1858 2.1907 -2.0338 0.9437
-14.3231 0.9392 -2.0338 0.9437
-14.0739 -2.8198 -2.0337 0.9437
-13.7726 -4.0421 -2.0337 0.9437
-12.8554 -6.3844 -2.0337 0.9437
-11.5433 -8.5305 -2.0337 0.9437
-10.7514 -9.5092 -2.0337 0.9437
-9.6029 7.7598 -2.0339 0.9512
-10.2458 6.8885 -2.0339 0.9512
-11.6849 3.9853 -2.0338 0.9512
-12.2011 1.8842 -2.0338 0.9512
-12.3191 0.8078 -2.0338 0.9512
-12.2708 -1.3552 -2.0338 0.9512
-11.8457 -3.4766 -2.0338 0.9512
-11.4955 -4.5012 -2.0338 0.9512
-10.5330 -6.4388 -2.0337 0.9512
-9.9283 -7.3371 -2.0337 0.9512
-9.2472 -8.1788 -2.0337 0.9512
-8.4164 6.8011 -2.0339 0.9569
-8.9800 6.0374 -2.0339 0.9569
-10.5079 2.5821 -2.0338 0.9569
-10.6937 1.6514 -2.0338 0.9569
-10.7972 0.7080 -2.0338 0.9569
-10.8177 -0.2408 -2.0338 0.9569
-7.4455 -7.8510 -2.0337 0.9569
-7.4840 6.0476 -2.0339 0.9614
-9.1067 3.1060 -2.0339 0.9614
-9.3438 2.2960 -2.0338 0.9614
-9.5090 1.4684 -2.0338 0.9614
-8.9592 -3.5081 -2.0338 0.9614
-8.6173 -4.2796 -2.0338 0.9614
-8.2091 -5.0183 -2.0338 0.9614
-7.7378 -5.7183 -2.0338 0.9614
-7.2070 -6.3743 -2.0338 0.9614
-7.9143 3.5005 -2.0339 0.9651
-8.4038 2.0651 -2.0339 0.9651
-8.4850 -1.7000 -2.0338 0.9651
-8.3034 -2.4370 -2.0338 0.9651
-8.0579 -3.1552 -2.0338 0.9651
-7.7504 -3.8491 -2.0338 0.9651
-7.3833 -4.5134 -2.0338 0.9651
-6.9594 -5.1431 -2.0338 0.9651
-6.4820 -5.7331 -2.0338 0.9651
-6.1099 4.9372 -2.0339 0.9681
-7.4347 2.5357 -2.0339 0.9681
-7.6282 1.8745 -2.0339 0.9681
-7.8383 0.5140 -2.0338 0.9681
-7.8532 -0.1749 -2.0338 0.9681
-7.8076 -0.8623 -2.0338 0.9681
-7.7020 -1.5431 -2.0338 0.9681
-7.3143 -2.8640 -2.0338 0.9681
-6.3172 -4.6684 -2.0338 0.9681
-5.5881 4.5156 -2.0339 0.9706
-6.2905 3.4707 -2.0339 0.9706
-6.7998 2.3192 -2.0339 0.9706
-6.9769 1.7144 -2.0339 0.9706
-7.1689 0.4701 -2.0338 0.9706
-7.0443 -1.4114 -2.0338 0.9706
-6.8935 -2.0232 -2.0338 0.9706
-6.6896 -2.6194 -2.0338 0.9706
-6.4345 -3.1956 -2.0338 0.9706
-5.7777 -4.2698 -2.0338 0.9706
-4.9436 -5.2129 -2.0338 0.9706
-5.1433 4.1561 -2.0339 0.9727
-6.0474 2.6747 -2.0339 0.9727
-6.4214 1.5779 -2.0339 0.9727
-6.5350 1.0092 -2.0339 0.9727
-6.5983 0.4327 -2.0338 0.9727
-6.5725 -0.7259 -2.0338 0.9727
-6.4836 -1.2990 -2.0338 0.9727
-5.9222 -2.9412 -2.0338 0.9727
-5.6418 -3.4488 -2.0338 0.9727
-5.3178 -3.9299 -2.0338 0.9727
-4.9530 -4.3807 -2.0338 0.9727
-5.0778 3.4139 -2.0339 0.9745
-5.9418 1.4601 -2.0339 0.9745
-6.0470 0.9338 -2.0339 0.9745
-6.1055 0.4003 -2.0339 0.9745
-5.9993 -1.2020 -2.0338 0.9745
-5.8709 -1.7231 -2.0338 0.9745
-5.6973 -2.2309 -2.0338 0.9745
-5.4799 -2.7215 -2.0338 0.9745
-4.9206 -3.6363 -2.0338 0.9745
-4.5831 -4.0536 -2.0338 0.9745
-4.7199 3.1733 -2.0339 0.9761
-5.2014 2.3006 -2.0339 0.9761
-5.3830 1.8359 -2.0339 0.9761
-5.5231 1.3572 -2.0339 0.9761
-5.6208 0.8680 -2.0339 0.9761
-5.6860 -0.1266 -2.0339 0.9761
-5.5765 -1.1173 -2.0338 0.9761
-5.4571 -1.6016 -2.0338 0.9761
-5.2958 -2.0737 -2.0338 0.9761
-3.9136 -4.1267 -2.0338 0.9761
-4.1281 3.3358 -2.0339 0.9775
-4.4045 2.9612 -2.0339 0.9775
-4.8538 2.1468 -2.0339 0.9775
-5.0232 1.7132 -2.0339 0.9775
-5.1540 1.2665 -2.0339 0.9775
-5.2959 0.3472 -2.0339 0.9775
-5.2752 -0.5826 -2.0338 0.9775
-5.2039 -1.0426 -2.0338 0.9775
-5.0925 -1.4946 -2.0338 0.9775
-4.7533 -2.3606 -2.0338 0.9775
-4.1241 2.7727 -2.0339 0.9788
-2.1596 0.5307 -0.9102 0.9904
-2.1145 0.3265 -0.8756 0.9908
-2.1208 0.1390 -0.8698 0.9909
-2.1116 -0.2333 -0.8695 0.9909
-2.1218 -0.4252 -0.8857 0.9907
-4.7682 -1.3995 -2.0338 0.9788
-4.6273 -1.8119 -2.0338 0.9788
-4.4507 -2.2104 -2.0338 0.9788
-3.4195 -3.6058 -2.0338 0.9788
-3.6298 2.9332 -2.0339 0.9798
-4.0862 2.2544 -2.0339 0.9798
-4.4170 1.5065 -2.0339 0.9798
-1.9043 0.2940 -0.8398 0.9916
-1.9188 -0.0428 -0.8365 0.9917
-1.9046 -0.3816 -0.8465 0.9916
-4.1796 -2.0758 -2.0338 0.9798
-3.9817 -2.4340 -2.0338 0.9798
-3.7530 -2.7735 -2.0338 0.9798
-3.4956 -3.0918 -2.0338 0.9798
-3.2113 -3.3862 -2.0338 0.9798
-3.8472 2.1226 -2.0339 0.9808
-4.0184 1.7773 -2.0339 0.9808
-1.7256 0.5885 -0.8439 0.9920
-1.5788 -0.0352 -0.7310 0.9931
-1.6006 -0.3207 -0.7556 0.9928
-4.0914 -1.6020 -2.0338 0.9808
-3.9352 -1.9544 -2.0338 0.9808
-3.5336 -2.6114 -2.0338 0.9808
-3.0235 -3.1882 -2.0338 0.9808
-3.2250 2.6061 -2.0339 0.9817
-3.4410 2.3135 -2.0339 0.9817
-1.3471 0.2080 -0.6686 0.9939
-1.3516 0.0886 -0.6644 0.9940
-1.2990 -0.3813 -0.6641 0.9940
-1.2543 -0.4912 -0.6607 0.9940
-3.7135 -1.8443 -2.0338 0.9817
-3.3345 -2.4642 -2.0338 0.9817
-3.1057 -2.7469 -2.0338 0.9817
-2.8531 -3.0085 -2.0338 0.9817
-3.0494 2.4641 -2.0339 0.9825
-1.1371 0.3878 -0.6233 0.9946
-1.1675 0.2869 -0.6237 0.9946
-1.1999 0.0787 -0.6238 0.9946
-1.1956 -0.0267 -0.6204 0.9946
-1.1998 -0.1325 -0.6262 0.9946
-1.1803 -0.2365 -0.6245 0.9946
-1.1237 -0.4401 -0.6261 0.9946
-3.5113 -1.7438 -2.0339 0.9825
-3.3450 -2.0448 -2.0338 0.9825
-3.1529 -2.3300 -2.0338 0.9825
-2.9366 -2.5973 -2.0338 0.9825
-0.9998 0.4422 -0.5988 0.9950
-1.0458 0.2569 -0.5898 0.9951
-1.0812 0.0709 -0.5935 0.9951
-1.0788 -0.0241 -0.5910 0.9951
-0.9835 -0.4885 -0.6015 0.9950
-2.5553 -2.6944 -2.0338 0.9832
-2.7400 2.2142 -2.0339 0.9839
-2.9235 1.9655 -2.0339 0.9839
-0.9278 0.4103 -0.5857 0.9953
-0.9823 0.1517 -0.5739 0.9954
-0.9872 -0.1091 -0.5734 0.9954
-0.9748 -0.1954 -0.5740 0.9954
-0.9400 -0.3681 -0.5829 0.9953
-2.6387 -2.3338 -2.0339 0.9839
-2.4240 -2.5561 -2.0339 0.9839
