ply
format ascii 1.0
element vertex 240
property float32 x
property float32 y
property float32 z
property float32 I
end_header
16.2781 -3.8233 -1.2260 0.9351
16.2202 -3.8096 -1.5996 0.9352
0.5137 -17.1131 -2.0337 0.9334
3.4801 -16.7637 -2.0337 0.9334
1.8679 -6.2133 -0.7707 0.9742
2.4591 -6.1680 -0.7888 0.9736
2.9748 -5.9043 -0.7853 0.9737
9.0083 -14.5604 -2.0338 0.9334
10.2441 -13.7192 -2.0338 0.9334
11.4020 -12.7734 -2.0339 0.9334
12.4728 -11.7302 -2.0339 0.9334
13.4486 -10.5977 -2.0339 0.9334
14.3219 -9.3843 -2.0339 0.9334
15.0861 -8.0993 -2.0339 0.9334
15.7352 -6.7525 -2.0340 0.9334
16.2644 -5.3543 -2.0340 0.9334
16.4655 -3.8672 -2.0091 0.9341
16.9478 -2.4462 -2.0340 0.9333
17.0967 -0.9586 -2.0340 0.9333
17.1153 0.5364 -2.0341 0.9333
17.0034 2.0273 -2.0341 0.9333
16.7619 3.5028 -2.0341 0.9333
0.4307 -14.3471 -2.0337 0.9437
2.9177 -14.0541 -2.0338 0.9437
1.8873 -6.2780 -0.9288 0.9739
3.0191 -5.9924 -0.9507 0.9733
7.5522 -12.2068 -2.0338 0.9437
8.5883 -11.5016 -2.0338 0.9437
9.5589 -10.7087 -2.0339 0.9437
10.4567 -9.8342 -2.0339 0.9437
11.2748 -8.8846 -2.0339 0.9437
12.0068 -7.8673 -2.0339 0.9437
12.6475 -6.7900 -2.0339 0.9437
13.1916 -5.6610 -2.0340 0.9437
14.3330 -0.8036 -2.0340 0.9437
14.2547 1.6996 -2.0340 0.9437
14.0521 2.9366 -2.0341 0.9437
1.4454 -12.2605 -2.0338 0.9512
2.5094 -12.0878 -2.0338 0.9512
1.8318 -6.0935 -1.0482 0.9745
2.3739 -5.9544 -1.0560 0.9743
7.3867 -9.8924 -2.0339 0.9512
9.6972 -7.6415 -2.0339 0.9512
11.3458 -4.8689 -2.0339 0.9512
12.0196 -2.8230 -2.0340 0.9512
12.2201 -1.7638 -2.0340 0.9512
12.0859 2.5257 -2.0340 0.9512
0.3247 -10.8154 -2.0338 0.9569
2.8513 -5.6593 -1.1911 0.9745
5.6931 -9.2019 -2.0338 0.9569
6.4741 -8.6702 -2.0339 0.9569
7.8825 -7.4132 -2.0339 0.9569
8.4991 -6.6974 -2.0339 0.9569
9.0510 -5.9306 -2.0339 0.9569
9.5339 -5.1185 -2.0339 0.9569
10.5346 -2.4743 -2.0340 0.9569
10.7103 -1.5459 -2.0340 0.9569
10.8043 -0.6058 -2.0340 0.9569
10.8161 0.3390 -2.0340 0.9569
10.5927 2.2136 -2.0340 0.9569
0.2887 -9.6172 -2.0338 0.9614
1.1265 -9.5554 -2.0338 0.9614
1.7984 -5.9823 -1.3204 0.9748
2.3346 -5.8559 -1.3326 0.9746
2.8315 -5.6200 -1.3302 0.9746
5.0624 -8.1824 -2.0339 0.9614
5.7568 -7.7097 -2.0339 0.9614
6.4075 -7.1781 -2.0339 0.9614
7.5575 -5.9554 -2.0339 0.9614
9.1397 -3.0088 -2.0339 0.9614
9.3674 -2.2001 -2.0340 0.9614
9.5237 -1.3746 -2.0340 0.9614
9.6177 0.3014 -2.0340 0.9614
9.4190 1.9684 -2.0340 0.9614
1.2935 -6.2311 -1.4957 0.9742
5.1777 -6.9341 -2.0339 0.9651
5.7629 -6.4560 -2.0339 0.9651
6.3041 -5.9288 -2.0339 0.9651
8.4250 -1.9788 -2.0340 0.9651
8.6501 0.2711 -2.0340 0.9651
0.9197 -7.8011 -2.0338 0.9681
2.2622 -5.6742 -1.5816 0.9751
4.1329 -6.6801 -2.0339 0.9681
4.6999 -6.2942 -2.0339 0.9681
6.5705 -4.3053 -2.0339 0.9681
6.9211 -3.7157 -2.0339 0.9681
7.2188 -3.0979 -2.0339 0.9681
7.6475 -1.7962 -2.0339 0.9681
7.8518 0.2461 -2.0340 0.9681
2.6606 -6.6736 -2.0338 0.9706
3.2327 -6.4161 -2.0339 0.9706
3.7800 -6.1096 -2.0339 0.9706
5.6430 -4.4468 -2.0339 0.9706
6.3300 -3.3984 -2.0339 0.9706
7.1813 0.2251 -2.0340 0.9706
7.1343 0.8506 -2.0340 0.9706
7.0329 1.4697 -2.0340 0.9706
0.1984 -6.6094 -2.0338 0.9727
0.7742 -6.5669 -2.0338 0.9727
1.3441 -6.4744 -2.0338 0.9727
2.9753 -5.9053 -2.0339 0.9727
4.8170 -4.5303 -2.0339 0.9727
5.1938 -4.0928 -2.0339 0.9727
5.5311 -3.6242 -2.0339 0.9727
6.0768 -2.6078 -2.0339 0.9727
6.2811 -2.0678 -2.0339 0.9727
6.4376 -1.5120 -2.0339 0.9727
6.6096 0.2072 -2.0340 0.9727
6.5664 0.7829 -2.0340 0.9727
6.4730 1.3527 -2.0340 0.9727
0.7164 -6.0765 -2.0338 0.9745
2.2659 -5.6836 -2.0339 0.9745
2.7530 -5.4643 -2.0339 0.9745
4.0746 -4.5647 -2.0339 0.9745
4.4572 -4.1919 -2.0339 0.9745
5.1179 -3.3535 -2.0339 0.9745
5.3910 -2.8943 -2.0339 0.9745
5.6229 -2.4130 -2.0339 0.9745
6.0561 -0.8741 -2.0339 0.9745
6.1093 -0.3425 -2.0339 0.9745
6.0759 0.7244 -2.0340 0.9745
0.1706 -5.6848 -2.0338 0.9761
1.1560 -5.5687 -2.0338 0.9761
2.9923 -4.8366 -2.0339 0.9761
3.7874 -4.2430 -2.0339 0.9761
5.0111 -2.6903 -2.0339 0.9761
5.2267 -2.2429 -2.0339 0.9761
5.4024 -1.7785 -2.0339 0.9761
5.5370 -1.3005 -2.0339 0.9761
5.6849 0.1782 -2.0340 0.9761
5.5675 1.1635 -2.0340 0.9761
0.1592 -5.3049 -2.0338 0.9775
1.0788 -5.1965 -2.0339 0.9775
2.3880 -4.7398 -2.0339 0.9775
2.7924 -4.5134 -2.0339 0.9775
3.1755 -4.2526 -2.0339 0.9775
3.5343 -3.9595 -2.0339 0.9775
3.8662 -3.6361 -2.0339 0.9775
4.1686 -3.2850 -2.0339 0.9775
4.4394 -2.9088 -2.0339 0.9775
4.6762 -2.5105 -2.0339 0.9775
5.0414 -1.6596 -2.0339 0.9775
5.1669 -1.2136 -2.0339 0.9775
5.2531 -0.7582 -2.0339 0.9775
5.2992 -0.2971 -2.0339 0.9775
5.3050 0.1662 -2.0339 0.9775
0.1491 -4.9672 -2.0338 0.9788
0.5818 -4.9352 -2.0339 0.9788
1.0101 -4.8657 -2.0339 0.9788
1.4307 -4.7590 -2.0339 0.9788
1.8404 -4.6161 -2.0339 0.9788
2.9733 -3.9819 -2.0339 0.9788
3.9032 -3.0758 -2.0339 0.9788
4.1568 -2.7236 -2.0339 0.9788
4.3785 -2.3507 -2.0339 0.9788
4.5668 -1.9598 -2.0339 0.9788
4.7204 -1.5540 -2.0339 0.9788
4.9186 -0.7100 -2.0339 0.9788
4.9672 0.1557 -2.0339 0.9787
4.9347 0.5884 -2.0339 0.9787
0.5464 -4.6347 -2.0339 0.9798
1.3435 -4.4692 -2.0339 0.9798
1.7283 -4.3350 -2.0339 0.9798
2.7922 -3.7394 -2.0339 0.9798
3.3996 -3.1972 -2.0339 0.9798
3.6656 -2.8885 -2.0339 0.9798
4.4329 -1.4593 -2.0339 0.9798
4.5434 -1.0671 -2.0339 0.9798
4.6191 -0.6667 -2.0339 0.9798
4.6647 0.1462 -2.0339 0.9798
4.5683 0.9546 -2.0340 0.9798
0.1318 -4.3919 -2.0339 0.9808
0.5144 -4.3637 -2.0339 0.9808
0.8931 -4.3021 -2.0339 0.9808
1.2650 -4.2079 -2.0339 0.9808
1.6272 -4.0815 -2.0339 0.9808
1.9770 -3.9240 -2.0339 0.9808
2.6289 -3.5207 -2.0339 0.9808
2.9260 -3.2780 -2.0339 0.9808
3.4512 -2.7196 -2.0339 0.9808
3.8714 -2.0784 -2.0339 0.9808
4.2776 -1.0047 -2.0339 0.9808
4.3489 -0.6278 -2.0339 0.9808
4.3871 -0.2460 -2.0339 0.9808
4.3919 0.1377 -2.0339 0.9808
4.3632 0.5202 -2.0339 0.9808
4.3012 0.8988 -2.0339 0.9808
0.1244 -4.1445 -2.0339 0.9817
0.4854 -4.1178 -2.0339 0.9817
0.8428 -4.0598 -2.0339 0.9817
1.1937 -3.9708 -2.0339 0.9817
1.5355 -3.8515 -2.0339 0.9817
2.1815 -3.5261 -2.0339 0.9817
2.4808 -3.3223 -2.0339 0.9817
2.7611 -3.0933 -2.0339 0.9817
3.0205 -2.8406 -2.0339 0.9817
3.8104 -1.6351 -2.0339 0.9817
3.9385 -1.2966 -2.0339 0.9817
4.0366 -0.9481 -2.0339 0.9817
4.1039 -0.5924 -2.0339 0.9817
4.1400 -0.2321 -2.0339 0.9817
4.1444 0.1299 -2.0339 0.9817
0.7969 -3.8387 -2.0339 0.9825
1.4519 -3.6418 -2.0339 0.9825
1.7640 -3.5012 -2.0339 0.9825
2.0627 -3.3340 -2.0339 0.9825
2.6108 -2.9248 -2.0339 0.9825
2.8560 -2.6859 -2.0339 0.9825
3.4543 -1.8545 -2.0339 0.9825
3.7240 -1.2260 -2.0339 0.9825
3.8168 -0.8964 -2.0339 0.9825
2.0955 -0.3025 -1.0983 0.9905
2.0783 -0.1165 -1.0799 0.9907
2.0764 0.0651 -1.0777 0.9907
2.0855 0.2486 -1.0896 0.9906
2.1078 0.4405 -1.1171 0.9903
0.7548 -3.6360 -2.0339 0.9832
1.0691 -3.5562 -2.0339 0.9832
1.3752 -3.4494 -2.0339 0.9832
2.2218 -2.9755 -2.0339 0.9832
2.4729 -2.7704 -2.0339 0.9832
2.9168 -2.2984 -2.0339 0.9832
3.1061 -2.0352 -2.0339 0.9832
3.4126 -1.4645 -2.0339 0.9832
1.8576 -0.4363 -1.0451 0.9913
1.8470 -0.2666 -1.0221 0.9915
1.8527 -0.1039 -1.0163 0.9916
1.8461 0.2201 -1.0183 0.9916
0.7161 -3.4492 -2.0339 0.9839
1.3046 -3.2723 -2.0339 0.9839
1.5850 -3.1461 -2.0339 0.9839
1.8534 -2.9958 -2.0339 0.9839
2.3459 -2.6281 -2.0339 0.9839
3.1038 -1.6664 -2.0339 0.9839
1.7685 -0.7589 -1.1111 0.9912
1.7237 -0.5675 -1.0477 0.9917
1.7147 -0.4028 -1.0169 0.9919
1.7136 -0.2474 -0.9996 0.9920
1.7243 0.0540 -0.9960 0.9921
1.7171 0.2047 -0.9984 0.9920
