ply
format ascii 1.0
element vertex 252
property float32 x
property float32 y
property float32 z
property float32 I
end_header
-12.9463 12.8706 3.2189 0.9285
3.2623 18.6282 2.8972 0.9263
1.5112 17.5407 2.6971 0.9312
-11.3610 13.4635 2.6987 0.9312
-12.3157 12.2436 2.6604 0.9321
3.2692 18.6677 2.4679 0.9264
1.5214 17.6603 2.3083 0.9310
-11.8443 11.7749 2.1749 0.9348
-11.3219 13.4172 1.8852 0.9318
-12.1246 12.0536 1.8359 0.9335
3.0797 17.5859 1.5114 0.9308
-5.1700 19.1437 1.6786 0.9235
-11.5916 13.7368 1.5215 0.9304
-12.1350 12.0639 1.4485 0.9336
1.5570 18.0731 1.1249 0.9299
-12.3857 14.6778 1.1909 0.9259
3.3688 19.2366 0.7701 0.9248
3.1176 17.8025 0.3053 0.9302
3.2293 18.4399 -0.5271 0.9278
-1.9992 7.4027 -0.7362 0.9697
12.1083 12.1093 -2.0341 0.9333
11.0048 13.1203 -2.0341 0.9333
9.8171 14.0310 -2.0341 0.9333
8.5545 14.8346 -2.0341 0.9333
7.2265 15.5249 -2.0341 0.9333
4.4155 16.5452 -2.0341 0.9333
1.4698 17.0609 -2.0341 0.9333
-9.8580 14.0006 -2.0340 0.9334
-12.1430 12.0720 -2.0339 0.9334
-13.1506 10.9654 -2.0339 0.9334
9.2257 10.9992 -2.0341 0.9437
7.1716 12.4365 -2.0341 0.9437
6.0582 13.0151 -2.0341 0.9437
2.4764 14.1407 -2.0341 0.9437
1.2322 14.3029 -2.0341 0.9437
-0.6725 7.5434 -1.0731 0.9699
-4.9386 13.4792 -2.0340 0.9437
-6.0966 12.9964 -2.0340 0.9437
-7.2080 12.4143 -2.0340 0.9437
-8.2645 11.7374 -2.0340 0.9437
-9.2576 10.9709 -2.0339 0.9437
-10.1802 10.1205 -2.0339 0.9437
-11.0248 9.1929 -2.0339 0.9437
-11.7854 8.1951 -2.0339 0.9437
-12.4558 7.1347 -2.0339 0.9437
8.7304 8.7312 -2.0341 0.9512
7.0784 10.1168 -2.0341 0.9512
2.1299 12.1620 -2.0341 0.9512
1.0598 12.3015 -2.0340 0.9512
-0.0184 12.3470 -2.0340 0.9512
-0.6579 7.3795 -1.2205 0.9704
-1.9379 7.1757 -1.2245 0.9703
-4.2475 11.5931 -2.0340 0.9512
-5.2435 11.1779 -2.0340 0.9512
-7.9623 9.4358 -2.0339 0.9512
-8.7557 8.7045 -2.0339 0.9512
-9.4823 7.9067 -2.0339 0.9512
-10.1364 7.0485 -2.0339 0.9512
5.4059 9.3746 -2.0341 0.9569
2.7904 10.4557 -2.0340 0.9569
1.8667 10.6594 -2.0340 0.9569
0.9289 10.7816 -2.0340 0.9569
-0.0161 10.8215 -2.0340 0.9569
-4.5957 9.7969 -2.0340 0.9569
-6.2299 8.8479 -2.0339 0.9569
-9.3895 5.3783 -2.0339 0.9569
5.5164 7.8844 -2.0340 0.9614
4.8070 8.3360 -2.0340 0.9614
3.2835 9.0451 -2.0340 0.9614
2.4811 9.2972 -2.0340 0.9614
-0.0143 9.6225 -2.0340 0.9614
-0.6622 7.4284 -1.5765 0.9700
-3.3104 9.0350 -2.0340 0.9614
-4.8316 8.3213 -2.0340 0.9614
-7.3900 6.1621 -2.0339 0.9614
-7.8998 5.4932 -2.0339 0.9614
6.1195 6.1199 -2.0340 0.9651
5.5617 6.6309 -2.0340 0.9651
4.9615 7.0912 -2.0340 0.9651
3.6522 7.8462 -2.0340 0.9651
2.9532 8.1351 -2.0340 0.9651
2.2315 8.3619 -2.0340 0.9651
1.4929 8.5248 -2.0340 0.9651
0.7428 8.6225 -2.0340 0.9651
-0.0129 8.6544 -2.0340 0.9651
-2.9773 8.1261 -2.0340 0.9651
-4.3455 7.4842 -2.0339 0.9651
-5.5812 6.6140 -2.0339 0.9651
-6.1373 6.1014 -2.0339 0.9651
-6.6466 5.5422 -2.0339 0.9651
-7.1050 4.9406 -2.0339 0.9651
5.0484 6.0189 -2.0340 0.9681
4.5036 6.4367 -2.0340 0.9681
3.3152 7.1220 -2.0340 0.9681
0.6743 7.8268 -2.0340 0.9681
-0.0117 7.8557 -2.0340 0.9681
-0.6976 7.8247 -2.0340 0.9681
-2.7025 7.3761 -2.0340 0.9681
-3.3362 7.1119 -2.0340 0.9681
-3.9445 6.7935 -2.0339 0.9681
-4.5225 6.4230 -2.0339 0.9681
-5.0661 6.0036 -2.0339 0.9681
-5.5709 5.5383 -2.0339 0.9681
-6.0332 5.0307 -2.0339 0.9681
4.1190 5.8870 -2.0340 0.9706
3.5892 6.2242 -2.0340 0.9706
1.8526 6.9420 -2.0340 0.9706
0.6167 7.1583 -2.0340 0.9706
-0.6380 7.1564 -2.0340 0.9706
-1.2604 7.0734 -2.0340 0.9706
-1.8732 6.9363 -2.0340 0.9706
-2.4718 6.7462 -2.0340 0.9706
-3.6076 6.2133 -2.0339 0.9706
-4.1363 5.8745 -2.0339 0.9706
-4.6335 5.4909 -2.0339 0.9706
-5.8986 4.1017 -2.0339 0.9706
-6.2342 3.5709 -2.0339 0.9706
4.6758 4.6762 -2.0340 0.9727
4.2497 5.0666 -2.0340 0.9727
3.3035 5.7287 -2.0340 0.9727
2.7906 5.9952 -2.0340 0.9727
1.7051 6.3893 -2.0340 0.9727
-0.0099 6.6128 -2.0340 0.9727
-1.1601 6.5102 -2.0340 0.9727
-1.7241 6.3841 -2.0340 0.9727
-2.8084 5.9868 -2.0339 0.9727
-3.8070 5.4069 -2.0339 0.9727
-4.2646 5.0538 -2.0339 0.9727
-4.6896 4.6621 -2.0339 0.9727
4.3266 4.3269 -2.0340 0.9745
1.5778 5.9121 -2.0340 0.9745
1.0555 6.0272 -2.0340 0.9745
0.5252 6.0963 -2.0340 0.9745
-0.5434 6.0948 -2.0340 0.9745
-1.0734 6.0240 -2.0340 0.9745
-1.5954 5.9072 -2.0340 0.9745
-2.5986 5.5396 -2.0339 0.9745
-3.5227 5.0030 -2.0339 0.9745
-5.0236 3.4932 -2.0339 0.9745
-5.3094 3.0412 -2.0339 0.9745
4.0217 4.0220 -2.0340 0.9761
3.6551 4.3578 -2.0340 0.9761
3.2606 4.6603 -2.0340 0.9761
2.8413 4.9272 -2.0340 0.9761
2.4002 5.1565 -2.0340 0.9761
1.4666 5.4954 -2.0340 0.9761
0.4882 5.6667 -2.0340 0.9761
-0.5051 5.6652 -2.0340 0.9761
-0.9978 5.5995 -2.0340 0.9761
-1.4829 5.4909 -2.0339 0.9761
-2.8559 4.9186 -2.0339 0.9761
-3.2744 4.6504 -2.0339 0.9761
-4.6695 3.2470 -2.0339 0.9761
-4.9352 2.8269 -2.0339 0.9761
3.4109 4.0666 -2.0340 0.9775
2.2398 4.8119 -2.0340 0.9775
1.8111 4.9890 -2.0340 0.9775
-0.0079 5.3075 -2.0340 0.9775
-0.9311 5.2252 -2.0340 0.9775
-1.3838 5.1240 -2.0339 0.9775
-2.2541 4.8051 -2.0339 0.9775
-2.6650 4.5899 -2.0339 0.9775
-3.0556 4.3397 -2.0339 0.9775
-4.0763 3.3990 -2.0339 0.9775
-4.3575 3.0300 -2.0339 0.9775
3.1937 3.8077 -2.0340 0.9787
2.4826 4.3052 -2.0340 0.9787
2.0972 4.5055 -2.0340 0.9787
1.2814 4.8016 -2.0340 0.9787
0.8572 4.8952 -2.0340 0.9787
0.4266 4.9513 -2.0340 0.9787
-0.4413 4.9500 -2.0340 0.9788
-0.8718 4.8926 -2.0339 0.9788
-2.1105 4.4991 -2.0339 0.9788
-2.4954 4.2977 -2.0339 0.9788
-3.8167 3.1826 -2.0339 0.9788
-4.0800 2.8371 -2.0339 0.9788
-4.3121 2.4700 -2.0339 0.9788
2.6755 3.8239 -2.0340 0.9798
1.9695 4.2311 -2.0340 0.9798
1.5925 4.3869 -2.0340 0.9798
1.2034 4.5092 -2.0340 0.9798
0.8050 4.5970 -2.0340 0.9798
-0.0070 4.6670 -2.0340 0.9798
-1.2168 4.5055 -2.0339 0.9798
-1.9820 4.2251 -2.0339 0.9798
-2.3434 4.0359 -2.0339 0.9798
-3.3096 3.2903 -2.0339 0.9798
-3.5843 2.9887 -2.0339 0.9798
-4.0496 2.3196 -2.0339 0.9798
3.1070 3.1072 -2.0340 0.9808
2.1950 3.8065 -2.0340 0.9808
1.4994 4.1304 -2.0340 0.9808
1.1330 4.2455 -2.0340 0.9808
0.7580 4.3282 -2.0340 0.9808
0.3771 4.3778 -2.0340 0.9808
-1.1456 4.2421 -2.0339 0.9808
-1.5117 4.1258 -2.0339 0.9808
-2.2064 3.7999 -2.0339 0.9808
-2.5296 3.5928 -2.0339 0.9808
-2.8337 3.3581 -2.0339 0.9808
-3.1161 3.0979 -2.0339 0.9808
-3.8128 2.1839 -2.0339 0.9808
2.9319 2.9321 -2.0340 0.9817
2.6647 3.1769 -2.0340 0.9817
1.4149 3.8976 -2.0340 0.9817
1.0692 4.0063 -2.0340 0.9817
0.3559 4.1312 -2.0339 0.9817
-0.3682 4.1301 -2.0339 0.9817
-1.4265 3.8933 -2.0339 0.9817
-2.0820 3.5858 -2.0339 0.9817
-2.3871 3.3903 -2.0339 0.9817
-3.4043 2.3672 -2.0339 0.9817
2.5195 3.0039 -2.0340 0.9825
2.2477 3.2124 -2.0340 0.9825
1.9586 3.3964 -2.0340 0.9825
1.3378 3.6853 -2.0340 0.9825
0.6763 3.8619 -2.0339 0.9825
-0.6878 3.8598 -2.0339 0.9825
-1.6650 3.5495 -2.0339 0.9825
-1.9686 3.3905 -2.0339 0.9825
-2.2571 3.2057 -2.0339 0.9825
-3.0111 2.5108 -2.0339 0.9825
-3.2188 2.2383 -2.0339 0.9825
-3.4020 1.9486 -2.0339 0.9825
2.6258 2.6260 -2.0340 0.9832
0.9575 3.5880 -2.0339 0.9832
0.6406 3.6579 -2.0339 0.9832
-0.0055 3.7136 -2.0339 0.9832
-0.3297 3.6989 -2.0339 0.9832
-0.9682 3.5851 -2.0339 0.9832
-1.2775 3.4869 -2.0339 0.9832
-1.5771 3.3620 -2.0339 0.9832
-2.1379 3.0364 -2.0339 0.9832
-2.3949 2.8381 -2.0339 0.9832
-2.6336 2.6181 -2.0339 0.9832
-3.2223 1.8457 -2.0339 0.9832
2.4910 2.4912 -2.0339 0.9839
2.0196 2.8865 -2.0340 0.9839
1.7599 3.0518 -2.0339 0.9839
1.4867 3.1938 -2.0339 0.9839
1.2021 3.3114 -2.0339 0.9839
0.9084 3.4038 -2.0339 0.9839
0.6077 3.4701 -2.0339 0.9839
0.3024 3.5099 -2.0339 0.9839
-0.0052 3.5229 -2.0339 0.9839
-1.4961 3.1894 -2.0339 0.9839
-1.7689 3.0465 -2.0339 0.9839
-2.2719 2.6923 -2.0339 0.9839
-2.4983 2.4837 -2.0339 0.9839
-2.8922 2.0112 -2.0339 0.9839
-1.1570 0.6627 -0.7698 0.9939
