ply
format ascii 1.0
element vertex 174
property float32 x
property float32 y
property float32 z
property float32 I
end_header
-11.7778 -8.4679 -0.7357 0.9436
-11.3097 -8.1314 -1.6546 0.9454
-9.3960 -14.3116 -2.0337 0.9334
-8.0471 -15.1113 -2.0337 0.9334
-5.1589 -16.3248 -2.0337 0.9334
-2.0977 -16.9917 -2.0337 0.9334
1.0337 -17.0896 -2.0337 0.9334
2.5930 -16.9235 -2.0337 0.9334
2.2795 -6.5419 -0.8229 0.9725
-11.6538 -8.3789 -2.0337 0.9437
-10.8383 -9.4100 -2.0337 0.9437
-8.9421 -11.2274 -2.0337 0.9437
-7.8773 -11.9984 -2.0337 0.9437
-4.3250 -13.6862 -2.0337 0.9437
-3.0546 -14.0246 -2.0337 0.9437
-1.7586 -14.2453 -2.0337 0.9437
0.8666 -14.3274 -2.0337 0.9437
2.1739 -14.1881 -2.0338 0.9437
1.6471 -6.6259 -0.9674 0.9728
2.1566 -6.1895 -0.9287 0.9739
2.6742 -5.8789 -0.9151 0.9742
-10.0234 -7.2066 -2.0337 0.9512
-8.5423 -8.9124 -2.0337 0.9512
-5.8026 -10.8964 -2.0337 0.9512
-4.7813 -11.3817 -2.0337 0.9512
-1.5126 -12.2523 -2.0338 0.9512
0.7454 -12.3229 -2.0338 0.9512
1.8698 -12.2030 -2.0338 0.9512
2.1039 -6.0381 -1.0534 0.9744
2.6694 -5.8684 -1.0621 0.9742
-7.4870 -7.8114 -2.0337 0.9569
-5.9382 -9.0449 -2.0337 0.9569
-5.0858 -9.5504 -2.0338 0.9569
-4.1906 -9.9756 -2.0338 0.9569
-3.2604 -10.3173 -2.0338 0.9569
-2.3027 -10.5723 -2.0338 0.9569
-1.3257 -10.7387 -2.0338 0.9569
0.6533 -10.8005 -2.0338 0.9569
1.6387 -10.6955 -2.0338 0.9569
1.5393 -6.1918 -1.1992 0.9744
2.0805 -5.9710 -1.1885 0.9746
2.6004 -5.7168 -1.1805 0.9748
-7.8119 -5.6166 -2.0338 0.9614
-7.2652 -6.3078 -2.0338 0.9614
-6.6576 -6.9460 -2.0338 0.9614
-5.9941 -7.5260 -2.0338 0.9614
-4.5223 -8.4923 -2.0338 0.9614
-3.7264 -8.8705 -2.0338 0.9614
-2.8992 -9.1742 -2.0338 0.9614
0.5809 -9.6040 -2.0338 0.9614
1.4572 -9.5106 -2.0338 0.9614
1.5450 -6.2149 -1.3537 0.9742
2.0373 -5.8472 -1.3089 0.9750
2.6182 -5.7558 -1.3366 0.9745
-4.7492 -7.2338 -2.0338 0.9651
-4.0675 -7.6380 -2.0338 0.9651
-3.3516 -7.9782 -2.0338 0.9651
-1.8416 -8.4554 -2.0338 0.9651
-1.0603 -8.5884 -2.0338 0.9651
-0.2700 -8.6494 -2.0338 0.9651
1.5060 -6.0581 -1.4671 0.9747
2.6480 -5.8213 -1.5030 0.9741
-6.3777 -4.5854 -2.0338 0.9681
-5.4353 -5.6708 -2.0338 0.9681
-4.8937 -6.1443 -2.0338 0.9681
-4.3110 -6.5663 -2.0338 0.9681
-3.6921 -6.9332 -2.0338 0.9681
-2.3669 -7.4899 -2.0338 0.9681
-0.2451 -7.8512 -2.0338 0.9681
0.4742 -7.8408 -2.0338 0.9681
1.4900 -5.9935 -1.5990 0.9748
2.6523 -5.8306 -1.6585 0.9739
-3.9428 -6.0056 -2.0338 0.9706
-2.1648 -6.8504 -2.0338 0.9706
-0.8803 -7.1302 -2.0338 0.9706
-0.2242 -7.1808 -2.0338 0.9706
0.4338 -7.1712 -2.0338 0.9706
1.0881 -7.1015 -2.0338 0.9706
1.4984 -6.0273 -1.7582 0.9745
-4.9930 -4.3350 -2.0338 0.9727
-2.5610 -6.0963 -2.0338 0.9727
-1.4072 -6.4609 -2.0338 0.9727
1.5504 -6.2363 -1.9765 0.9735
2.7379 -6.0190 -2.0339 0.9727
-4.9678 -3.5717 -2.0338 0.9745
-4.2338 -4.4171 -2.0338 0.9745
-3.8119 -4.7860 -2.0338 0.9745
-2.3697 -5.6410 -2.0338 0.9745
-1.8436 -5.8341 -2.0338 0.9745
-1.3021 -5.9784 -2.0338 0.9745
-0.1909 -6.1156 -2.0338 0.9745
1.4761 -5.9379 -2.0338 0.9745
2.5335 -5.5695 -2.0339 0.9745
-4.6177 -3.3200 -2.0338 0.9761
-4.2946 -3.7286 -2.0338 0.9761
-3.5432 -4.4487 -2.0338 0.9761
-2.6732 -5.0199 -2.0338 0.9761
-1.7138 -5.4230 -2.0338 0.9761
-0.6969 -5.6445 -2.0338 0.9761
-0.1775 -5.6846 -2.0338 0.9761
0.3434 -5.6770 -2.0338 0.9761
0.8614 -5.6218 -2.0338 0.9761
1.8713 -5.3707 -2.0339 0.9761
-3.6724 -3.8315 -2.0338 0.9775
-3.3064 -4.1514 -2.0338 0.9775
-2.4946 -4.6844 -2.0338 0.9775
-0.6503 -5.2673 -2.0338 0.9775
-0.1656 -5.3047 -2.0338 0.9775
1.7463 -5.0118 -2.0339 0.9775
-4.0347 -2.9009 -2.0338 0.9788
-3.7524 -3.2579 -2.0338 0.9788
-3.4386 -3.5876 -2.0338 0.9788
-2.3358 -4.3862 -2.0338 0.9788
-1.9246 -4.5815 -2.0338 0.9788
-1.4974 -4.7384 -2.0338 0.9788
-0.6089 -4.9320 -2.0338 0.9788
-0.1551 -4.9670 -2.0338 0.9788
1.6351 -4.6927 -2.0339 0.9788
-3.7890 -2.7242 -2.0338 0.9798
-3.5239 -3.0595 -2.0338 0.9798
-3.2292 -3.3691 -2.0338 0.9798
-2.1935 -4.1191 -2.0338 0.9798
-1.4062 -4.4498 -2.0338 0.9798
-0.5718 -4.6316 -2.0338 0.9798
-0.1456 -4.6645 -2.0338 0.9798
1.1259 -4.5290 -2.0339 0.9798
1.9323 -4.2480 -2.0339 0.9798
-3.0404 -3.1721 -2.0338 0.9808
-2.7374 -3.4369 -2.0338 0.9808
-2.0652 -3.8782 -2.0338 0.9808
-1.3240 -4.1896 -2.0338 0.9808
-0.9351 -4.2932 -2.0338 0.9808
-0.1371 -4.3917 -2.0339 0.9808
0.2653 -4.3859 -2.0339 0.9808
0.6655 -4.3432 -2.0339 0.9808
1.0601 -4.2641 -2.0339 0.9808
1.4457 -4.1492 -2.0339 0.9808
-3.3664 -2.4204 -2.0338 0.9817
-3.1309 -2.7183 -2.0338 0.9817
-2.2755 -3.4661 -2.0338 0.9817
-1.9489 -3.6597 -2.0338 0.9817
-1.6059 -3.8227 -2.0338 0.9817
-0.5080 -4.1151 -2.0338 0.9817
-0.1294 -4.1443 -2.0339 0.9817
0.6280 -4.0985 -2.0339 0.9817
1.0003 -4.0238 -2.0339 0.9817
1.3643 -3.9155 -2.0339 0.9817
-3.1831 -2.2886 -2.0338 0.9825
-2.7128 -2.8303 -2.0338 0.9825
-2.4424 -3.0667 -2.0338 0.9825
-1.1813 -3.7382 -2.0338 0.9825
-0.8344 -3.8307 -2.0339 0.9825
-0.4804 -3.8909 -2.0339 0.9825
-0.1224 -3.9186 -2.0339 0.9825
0.2367 -3.9133 -2.0339 0.9825
0.9458 -3.8047 -2.0339 0.9825
1.2900 -3.7022 -2.0339 0.9825
1.6233 -3.5687 -2.0339 0.9825
-3.0150 -2.1677 -2.0339 0.9832
-2.8040 -2.4345 -2.0338 0.9832
-1.4382 -3.4236 -2.0338 0.9832
-0.7903 -3.6284 -2.0339 0.9832
-0.4550 -3.6854 -2.0339 0.9832
0.2242 -3.7067 -2.0339 0.9832
0.5624 -3.6706 -2.0339 0.9832
1.5376 -3.3802 -2.0339 0.9832
-2.8602 -2.0564 -2.0339 0.9839
-2.6600 -2.3095 -2.0339 0.9839
-1.9334 -2.9448 -2.0339 0.9839
-0.4316 -3.4962 -2.0339 0.9839
-0.1099 -3.5211 -2.0339 0.9839
0.2127 -3.5163 -2.0339 0.9839
0.5335 -3.4821 -2.0339 0.9839
1.4586 -3.2066 -2.0339 0.9839
