ply
format ascii 1.0
element vertex 187
property float32 x
property float32 y
property float32 z
property float32 I
end_header
3.1683 -6.3482 -0.6811 0.9719
-10.1825 -13.7631 -2.0337 0.9334
-8.8801 -14.6373 -2.0337 0.9334
-4.5722 -16.4987 -2.0337 0.9334
-3.0429 -16.8480 -2.0337 0.9334
-1.4881 -17.0559 -2.0337 0.9334
3.1989 -16.8195 -2.0337 0.9334
2.4093 -6.1887 -0.7889 0.9736
9.0160 -14.5556 -2.0338 0.9334
11.5185 -12.6685 -2.0339 0.9334
12.6297 -11.5611 -2.0339 0.9334
-8.5368 -11.5386 -2.0337 0.9437
-7.4448 -12.2715 -2.0337 0.9437
-6.2904 -12.9014 -2.0337 0.9437
-5.0831 -13.4231 -2.0337 0.9437
-3.8332 -13.8320 -2.0337 0.9437
-1.2475 -14.2992 -2.0337 0.9437
1.3799 -14.2871 -2.0338 0.9437
2.6819 -14.1009 -2.0338 0.9437
1.7514 -6.0999 -0.8992 0.9747
2.3817 -6.1178 -0.9302 0.9738
2.9592 -5.9294 -0.9390 0.9736
9.6566 -10.6207 -2.0339 0.9437
-7.3424 -9.9243 -2.0337 0.9512
-6.4032 -10.5546 -2.0337 0.9512
-5.4103 -11.0965 -2.0337 0.9512
-2.1942 -12.1487 -2.0337 0.9512
-1.0730 -12.2986 -2.0338 0.9512
2.3180 -5.9541 -1.0526 0.9744
-6.4354 -8.6983 -2.0337 0.9569
-5.6122 -9.2508 -2.0337 0.9569
-4.7419 -9.7257 -2.0338 0.9569
1.0402 -10.7702 -2.0338 0.9569
2.0216 -10.6298 -2.0338 0.9569
1.7311 -6.0291 -1.1790 0.9748
2.3074 -5.9271 -1.1955 0.9744
5.6979 -9.1988 -2.0338 0.9569
7.2794 -8.0062 -2.0339 0.9569
8.6170 -6.5451 -2.0339 0.9569
-5.7225 -7.7347 -2.0338 0.9614
-4.2166 -8.6482 -2.0338 0.9614
-3.4073 -8.9979 -2.0338 0.9614
-2.5695 -9.2720 -2.0338 0.9614
-0.8363 -9.5851 -2.0338 0.9614
0.0446 -9.6214 -2.0338 0.9614
1.7213 -5.9951 -1.3184 0.9748
2.8043 -5.6188 -1.3274 0.9747
5.0667 -8.1797 -2.0339 0.9614
5.7941 -7.6817 -2.0339 0.9614
7.0974 -6.4969 -2.0339 0.9614
-5.1468 -6.9566 -2.0338 0.9651
-3.7925 -7.7783 -2.0338 0.9651
-1.5380 -8.5159 -2.0338 0.9651
-0.7521 -8.6209 -2.0338 0.9651
1.6780 -5.8441 -1.4290 0.9753
2.2491 -5.7772 -1.4570 0.9748
2.7968 -5.6039 -1.4720 0.9746
5.8217 -6.4030 -2.0339 0.9651
6.3834 -5.8433 -2.0339 0.9651
6.8915 -5.2346 -2.0339 0.9651
-4.0743 -6.7158 -2.0338 0.9681
-3.4425 -7.0605 -2.0338 0.9681
-2.7818 -7.3459 -2.0338 0.9681
-0.6827 -7.8253 -2.0338 0.9681
0.0364 -7.8550 -2.0338 0.9681
0.7552 -7.8187 -2.0338 0.9681
1.4677 -7.7168 -2.0338 0.9681
1.6882 -5.8799 -1.5839 0.9750
2.2070 -5.6689 -1.5751 0.9752
2.8497 -5.7099 -1.6523 0.9740
4.1364 -6.6779 -2.0339 0.9681
5.2845 -5.8121 -2.0339 0.9681
5.7943 -5.3040 -2.0339 0.9681
-4.2729 -5.7754 -2.0338 0.9706
-3.1485 -6.4575 -2.0338 0.9706
-2.5442 -6.7186 -2.0338 0.9706
1.6830 -5.8616 -1.7264 0.9750
2.5302 -6.4991 -1.9744 0.9714
3.2083 -6.4283 -2.0339 0.9706
-3.4297 -5.6533 -2.0338 0.9727
-2.8979 -5.9435 -2.0338 0.9727
-1.7659 -6.3722 -2.0338 0.9727
-0.5747 -6.5873 -2.0338 0.9727
0.6357 -6.5818 -2.0338 0.9727
1.2354 -6.4960 -2.0338 0.9727
2.9529 -5.9166 -2.0339 0.9727
3.9819 -5.2792 -2.0339 0.9727
4.4484 -4.8926 -2.0339 0.9727
-3.6390 -4.9187 -2.0338 0.9745
-2.6814 -5.4996 -2.0338 0.9745
-0.5318 -6.0954 -2.0338 0.9745
0.0283 -6.1185 -2.0338 0.9745
1.1432 -6.0108 -2.0338 0.9745
2.7323 -5.4747 -2.0339 0.9745
4.8725 -3.7010 -2.0339 0.9745
-2.0141 -5.3187 -2.0338 0.9761
-1.0109 -5.5968 -2.0338 0.9761
0.0263 -5.6873 -2.0338 0.9761
0.5468 -5.6610 -2.0338 0.9761
1.0627 -5.5872 -2.0338 0.9761
1.5696 -5.4665 -2.0339 0.9761
2.0633 -5.2999 -2.0339 0.9761
2.9949 -4.8351 -2.0339 0.9761
3.8261 -4.2081 -2.0339 0.9761
4.1952 -3.8403 -2.0339 0.9761
4.5291 -3.4402 -2.0339 0.9761
-3.1566 -4.2665 -2.0338 0.9775
-2.7528 -4.5375 -2.0338 0.9775
-2.3259 -4.7704 -2.0338 0.9775
-1.8795 -4.9633 -2.0338 0.9775
-0.9433 -5.2228 -2.0338 0.9775
-0.4613 -5.2872 -2.0338 0.9775
0.0246 -5.3072 -2.0338 0.9775
0.5102 -5.2827 -2.0338 0.9775
0.9916 -5.2138 -2.0339 0.9775
1.4646 -5.1012 -2.0339 0.9775
2.3700 -4.7488 -2.0339 0.9775
3.9148 -3.5836 -2.0339 0.9775
4.2264 -3.2103 -2.0339 0.9775
-2.9556 -3.9949 -2.0338 0.9788
-2.1779 -4.4668 -2.0338 0.9788
-1.7598 -4.6473 -2.0338 0.9788
-0.8832 -4.8903 -2.0338 0.9788
-0.4320 -4.9506 -2.0338 0.9788
0.0230 -4.9694 -2.0338 0.9788
0.4777 -4.9464 -2.0338 0.9788
3.6656 -3.3555 -2.0339 0.9788
-2.4205 -3.9899 -2.0338 0.9798
-0.8295 -4.5925 -2.0338 0.9798
0.0216 -4.6667 -2.0338 0.9798
0.4487 -4.6452 -2.0339 0.9798
1.2879 -4.4855 -2.0339 0.9798
1.6931 -4.3488 -2.0339 0.9798
3.1395 -3.4530 -2.0339 0.9798
3.7164 -2.8228 -2.0339 0.9798
-2.6133 -3.5322 -2.0338 0.9808
-1.5560 -4.1091 -2.0338 0.9808
-1.1734 -4.2343 -2.0338 0.9808
-0.3819 -4.3773 -2.0338 0.9808
0.0204 -4.3938 -2.0339 0.9808
0.4224 -4.3735 -2.0339 0.9808
0.8209 -4.3165 -2.0339 0.9808
1.2126 -4.2233 -2.0339 0.9808
1.5940 -4.0946 -2.0339 0.9808
1.9621 -3.9315 -2.0339 0.9808
2.3137 -3.7354 -2.0339 0.9808
2.6459 -3.5079 -2.0339 0.9808
-1.4684 -3.8776 -2.0338 0.9817
-0.7370 -4.0803 -2.0338 0.9817
0.0192 -4.1462 -2.0339 0.9817
1.1443 -3.9853 -2.0339 0.9817
1.5043 -3.8639 -2.0339 0.9817
1.8516 -3.7100 -2.0339 0.9817
2.1834 -3.5249 -2.0339 0.9817
-2.0335 -3.3519 -2.0338 0.9825
-1.7181 -3.5239 -2.0338 0.9825
-1.0470 -3.7781 -2.0338 0.9825
-0.3408 -3.9056 -2.0339 0.9825
0.0181 -3.9204 -2.0339 0.9825
0.3769 -3.9023 -2.0339 0.9825
1.0820 -3.7682 -2.0339 0.9825
1.4223 -3.6534 -2.0339 0.9825
2.8919 -2.6472 -2.0339 0.9825
3.1221 -2.3714 -2.0339 0.9825
-1.9261 -3.1749 -2.0338 0.9832
-1.6274 -3.3378 -2.0338 0.9832
-0.6600 -3.6543 -2.0339 0.9832
-0.3228 -3.6994 -2.0339 0.9832
0.0172 -3.7134 -2.0339 0.9832
0.3570 -3.6963 -2.0339 0.9832
0.6938 -3.6480 -2.0339 0.9832
1.3472 -3.4605 -2.0339 0.9832
1.6583 -3.3227 -2.0339 0.9832
2.2362 -2.9647 -2.0339 0.9832
-1.8272 -3.0119 -2.0339 0.9839
-1.5439 -3.1664 -2.0339 0.9839
-1.2476 -3.2945 -2.0339 0.9839
-0.9408 -3.3948 -2.0339 0.9839
-0.6261 -3.4667 -2.0339 0.9839
0.3387 -3.5064 -2.0339 0.9839
0.6582 -3.4607 -2.0339 0.9839
0.9721 -3.3860 -2.0339 0.9839
1.2780 -3.2828 -2.0339 0.9839
1.8551 -2.9948 -2.0339 0.9839
2.1214 -2.8125 -2.0339 0.9839
2.3699 -2.6065 -2.0339 0.9839
2.5986 -2.3787 -2.0339 0.9839
