ply
format ascii 1.0
element vertex 183
property float32 x
property float32 y
property float32 z
property float32 I
end_header
16.5501 -3.7772 -0.8609 0.9343
16.3128 -3.7231 -1.2268 0.9351
2.8284 -6.1287 -0.6480 0.9732
16.2717 -3.7137 -1.6023 0.9351
2.2925 -6.4605 -0.8143 0.9728
13.2989 -10.7850 -2.0339 0.9334
14.2279 -9.5262 -2.0339 0.9334
15.0382 -8.1879 -2.0339 0.9334
16.2763 -5.3178 -2.0340 0.9334
16.9722 -2.2704 -2.0340 0.9333
16.6628 3.9476 -2.0341 0.9333
2.1799 -6.1433 -0.9236 0.9740
2.7222 -5.8986 -0.9205 0.9741
7.1795 -12.4297 -2.0338 0.9437
10.2773 -10.0215 -2.0339 0.9437
11.1491 -9.0417 -2.0339 0.9437
13.1813 -5.6850 -2.0340 0.9437
13.6453 -4.4582 -2.0340 0.9437
13.9953 -3.1942 -2.0340 0.9437
14.3431 -0.5968 -2.0340 0.9437
14.3378 0.7149 -2.0340 0.9437
13.9691 3.3095 -2.0341 0.9437
1.6361 -6.4187 -1.0912 0.9735
2.1265 -5.9928 -1.0476 0.9746
2.6667 -5.7782 -1.0484 0.9745
7.1250 -10.0825 -2.0338 0.9512
10.2591 -6.8690 -2.0339 0.9512
11.7360 -3.8345 -2.0340 0.9512
12.0371 -2.7472 -2.0340 0.9512
12.3361 -0.5133 -2.0340 0.9512
12.3316 0.6149 -2.0340 0.9512
12.2240 1.7379 -2.0340 0.9512
12.0144 2.8464 -2.0340 0.9512
1.5967 -6.2642 -1.2151 0.9740
3.5198 -6.0939 -1.3227 0.9718
7.0254 -8.2300 -2.0339 0.9569
7.7473 -7.5544 -2.0339 0.9569
9.5036 -5.1745 -2.0339 0.9569
10.7137 1.5232 -2.0340 0.9569
10.5300 2.4947 -2.0340 0.9569
1.5870 -6.2258 -1.3581 0.9741
2.0926 -5.8972 -1.3227 0.9747
5.5529 -7.8578 -2.0339 0.9614
6.2470 -7.3182 -2.0339 0.9614
7.9954 -5.3533 -2.0339 0.9614
8.8354 -3.8107 -2.0339 0.9614
9.3811 -2.1410 -2.0340 0.9614
9.5373 -1.2759 -2.0340 0.9614
9.6141 -0.4000 -2.0340 0.9614
9.6105 0.4792 -2.0340 0.9614
9.5267 1.3544 -2.0340 0.9614
1.5329 -6.0136 -1.4585 0.9748
5.6186 -6.5820 -2.0339 0.9651
6.1959 -6.0417 -2.0339 0.9651
7.9466 -3.4273 -2.0339 0.9651
8.5779 -1.1475 -2.0340 0.9651
8.6469 -0.3597 -2.0340 0.9651
8.5682 1.2181 -2.0340 0.9651
2.6623 -5.7686 -1.6450 0.9741
4.5334 -6.4151 -2.0339 0.9681
7.7863 -1.0416 -2.0340 0.9681
7.8489 -0.3265 -2.0340 0.9681
7.8459 0.3912 -2.0340 0.9681
7.6441 1.8110 -2.0340 0.9681
1.5358 -6.0252 -1.7602 0.9745
4.1462 -5.8673 -2.0339 0.9706
4.6645 -5.4644 -2.0339 0.9706
5.1438 -5.0158 -2.0339 0.9706
5.5802 -4.5254 -2.0339 0.9706
6.8295 -2.2313 -2.0339 0.9706
7.1213 -0.9527 -2.0340 0.9706
7.1786 -0.2987 -2.0340 0.9706
7.1759 0.3578 -2.0340 0.9706
6.9913 1.6563 -2.0340 0.9706
1.6333 -6.4075 -2.0338 0.9727
3.8162 -5.4002 -2.0339 0.9727
4.2932 -5.0294 -2.0339 0.9727
4.7344 -4.6165 -2.0339 0.9727
5.1360 -4.1651 -2.0339 0.9727
5.4947 -3.6790 -2.0339 0.9727
5.8077 -3.1621 -2.0339 0.9727
6.0721 -2.6188 -2.0339 0.9727
6.2857 -2.0537 -2.0339 0.9727
6.4470 -1.4714 -2.0339 0.9727
6.5544 -0.8768 -2.0339 0.9727
6.5470 0.9308 -2.0340 0.9727
6.4348 1.5245 -2.0340 0.9727
3.0603 -5.2983 -2.0339 0.9745
5.8163 -1.9003 -2.0339 0.9745
6.0649 -0.8113 -2.0339 0.9745
6.1136 -0.2544 -2.0340 0.9745
6.1114 0.3047 -2.0340 0.9745
6.0580 0.8612 -2.0340 0.9745
5.9541 1.4106 -2.0340 0.9745
3.2823 -4.6447 -2.0339 0.9761
4.0720 -3.9707 -2.0339 0.9761
4.7260 -3.1643 -2.0339 0.9761
4.9952 -2.7197 -2.0339 0.9761
5.5451 -1.2655 -2.0339 0.9761
5.6828 -0.2364 -2.0339 0.9761
5.5345 1.3112 -2.0340 0.9761
3.0630 -4.3343 -2.0339 0.9775
4.1222 -3.3430 -2.0339 0.9775
4.8736 -2.1019 -2.0339 0.9775
5.3010 0.2643 -2.0339 0.9775
5.2548 0.7471 -2.0340 0.9775
5.1646 1.2236 -2.0340 0.9775
1.2275 -4.8154 -2.0339 0.9788
1.6618 -4.6833 -2.0339 0.9788
2.8680 -4.0584 -2.0339 0.9788
3.5579 -3.4694 -2.0339 0.9788
4.7239 -1.5434 -2.0339 0.9788
4.8450 -1.1058 -2.0339 0.9788
4.9258 -0.6590 -2.0339 0.9787
4.9654 -0.2066 -2.0339 0.9787
4.9635 0.2475 -2.0339 0.9787
4.9202 0.6995 -2.0340 0.9788
4.8358 1.1456 -2.0340 0.9787
1.5607 -4.3981 -2.0339 0.9798
2.3342 -4.0411 -2.0339 0.9798
2.6933 -3.8112 -2.0339 0.9798
3.8779 -2.5964 -2.0339 0.9798
4.0988 -2.2317 -2.0339 0.9798
4.2854 -1.8483 -2.0339 0.9798
4.4361 -1.4494 -2.0339 0.9798
4.6257 -0.6188 -2.0339 0.9798
4.6612 0.2324 -2.0339 0.9798
4.5413 1.0759 -2.0340 0.9798
2.5358 -3.5884 -2.0339 0.9808
2.8527 -3.3420 -2.0339 0.9808
3.1459 -3.0676 -2.0339 0.9808
3.8591 -2.1012 -2.0339 0.9808
4.0348 -1.7402 -2.0339 0.9808
4.1768 -1.3647 -2.0339 0.9808
4.2839 -0.9778 -2.0339 0.9808
4.3903 -0.1827 -2.0339 0.9808
4.3886 0.2188 -2.0339 0.9808
4.2757 1.0129 -2.0339 0.9808
1.0242 -4.0179 -2.0339 0.9817
2.0739 -3.5904 -2.0339 0.9817
2.9687 -2.8948 -2.0339 0.9817
3.4454 -2.3069 -2.0339 0.9817
3.6416 -1.9828 -2.0339 0.9817
3.8074 -1.6421 -2.0339 0.9817
3.9414 -1.2877 -2.0339 0.9817
4.1429 -0.1724 -2.0339 0.9817
4.1413 0.2065 -2.0339 0.9817
1.3111 -3.6948 -2.0339 0.9825
1.9609 -3.3949 -2.0339 0.9825
2.2625 -3.2018 -2.0339 0.9825
2.8070 -2.7371 -2.0339 0.9825
3.2578 -2.1812 -2.0339 0.9825
3.7268 -1.2176 -2.0339 0.9825
2.1358 -0.4875 -1.1365 0.9902
2.0781 0.1036 -1.0794 0.9907
2.0947 0.2978 -1.0976 0.9905
3.8151 0.9039 -2.0339 0.9825
0.9172 -3.5984 -2.0339 0.9832
1.2418 -3.4997 -2.0339 0.9832
1.5560 -3.3717 -2.0339 0.9832
2.1431 -3.0327 -2.0339 0.9832
2.4111 -2.8244 -2.0339 0.9832
2.6587 -2.5926 -2.0339 0.9832
3.2614 -1.7758 -2.0339 0.9832
3.4099 -1.4707 -2.0339 0.9832
1.8900 -0.6175 -1.0890 0.9910
1.8575 -0.4240 -1.0435 0.9913
1.8527 -0.0771 -1.0156 0.9916
1.8528 0.0924 -1.0160 0.9916
1.8576 0.4401 -1.0456 0.9913
1.4762 -3.1986 -2.0339 0.9839
1.7620 -3.0505 -2.0339 0.9839
2.2871 -2.6794 -2.0339 0.9839
2.5222 -2.4594 -2.0339 0.9839
2.7362 -2.2190 -2.0339 0.9839
2.9273 -1.9600 -2.0339 0.9839
3.0940 -1.6846 -2.0339 0.9839
1.7697 -0.7633 -1.1127 0.9911
1.7232 -0.5630 -1.0466 0.9917
1.7149 -0.3914 -1.0155 0.9919
1.7238 -0.0717 -0.9961 0.9921
1.7135 0.2436 -0.9992 0.9920
1.7147 0.4062 -1.0174 0.9919
