ply
format ascii 1.0
element vertex 164
property float32 x
property float32 y
property float32 z
property float32 I
end_header
2.6112 -6.1734 -0.6435 0.9734
-9.7975 -14.0399 -2.0337 0.9334
-5.6121 -16.1745 -2.0337 0.9334
0.5665 -17.1115 -2.0337 0.9334
3.6800 -16.7209 -2.0337 0.9334
2.1496 -6.7480 -0.8413 0.9719
9.4360 -14.2869 -2.0338 0.9334
10.7056 -13.3623 -2.0338 0.9334
-10.2241 -10.0739 -2.0337 0.9437
-8.2139 -11.7706 -2.0337 0.9437
-4.7049 -13.5603 -2.0337 0.9437
-0.8416 -14.3288 -2.0337 0.9437
1.7876 -14.2419 -2.0338 0.9437
3.2141 -5.9980 -0.9642 0.9729
-7.9627 -9.4338 -2.0337 0.9512
-7.0648 -10.1239 -2.0337 0.9512
-6.1073 -10.7286 -2.0337 0.9512
-2.9609 -11.9849 -2.0337 0.9512
-1.8502 -12.2059 -2.0337 0.9512
1.5374 -12.2494 -2.0338 0.9512
1.9228 -6.0361 -1.0436 0.9746
2.4607 -5.8176 -1.0406 0.9747
3.1798 -5.9340 -1.1091 0.9731
6.8039 -10.3018 -2.0338 0.9512
-7.7074 -7.5941 -2.0337 0.9569
-6.9791 -8.2684 -2.0337 0.9569
-6.1920 -8.8732 -2.0337 0.9569
-4.4686 -9.8543 -2.0338 0.9569
-2.5951 -10.5043 -2.0338 0.9569
1.3475 -10.7361 -2.0338 0.9569
1.4165 -6.4362 -1.2387 0.9735
1.8849 -5.9169 -1.1672 0.9750
-6.8535 -6.7528 -2.0338 0.9614
-6.2059 -7.3524 -2.0338 0.9614
-5.5060 -7.8902 -2.0338 0.9614
-2.3077 -9.3406 -2.0338 0.9614
-1.4420 -9.5128 -2.0338 0.9614
1.3943 -6.3353 -1.3712 0.9738
1.8682 -5.8646 -1.3010 0.9752
2.4640 -5.8254 -1.3370 0.9745
-6.1641 -6.0735 -2.0338 0.9651
-4.2810 -7.5204 -2.0338 0.9651
-3.5738 -7.8811 -2.0338 0.9651
-2.8366 -8.1754 -2.0338 0.9651
-2.0755 -8.4010 -2.0338 0.9651
-1.2969 -8.5559 -2.0338 0.9651
0.2863 -8.6489 -2.0338 0.9651
1.8466 -5.7966 -1.4298 0.9753
2.4752 -5.8516 -1.4932 0.9742
2.9730 -5.5480 -1.4793 0.9745
-5.0665 -6.0026 -2.0338 0.9681
-2.5748 -7.4210 -2.0338 0.9681
-0.4606 -7.8415 -2.0338 0.9681
0.9782 -7.7939 -2.0338 0.9681
1.3523 -6.1447 -1.6291 0.9743
1.8497 -5.8065 -1.5778 0.9751
2.5242 -5.9677 -1.6777 0.9736
3.1005 -5.7859 -1.6996 0.9732
4.9116 -6.1304 -2.0339 0.9681
-5.1175 -5.0422 -2.0338 0.9706
-2.3549 -6.7873 -2.0338 0.9706
0.2377 -7.1804 -2.0338 0.9706
1.4233 -6.4673 -1.8747 0.9728
3.3590 -6.2684 -2.0133 0.9709
3.9595 -5.9949 -2.0339 0.9706
-4.7101 -4.6409 -2.0338 0.9727
-3.2712 -5.7465 -2.0338 0.9727
-2.7308 -6.0221 -2.0338 0.9727
-0.9910 -6.5377 -2.0338 0.9727
0.2188 -6.6088 -2.0338 0.9727
0.8235 -6.5609 -2.0338 0.9727
1.4212 -6.4579 -2.0338 0.9727
2.5760 -6.0901 -2.0339 0.9727
3.1233 -5.8284 -2.0339 0.9727
4.1345 -5.1606 -2.0339 0.9727
-3.9465 -4.6756 -2.0338 0.9745
-3.5014 -5.0176 -2.0338 0.9745
-2.0056 -5.7804 -2.0338 0.9745
-1.4675 -5.9399 -2.0338 0.9745
-0.3587 -6.1080 -2.0338 0.9745
0.2025 -6.1152 -2.0338 0.9745
1.3151 -5.9756 -2.0338 0.9745
1.8572 -5.8299 -2.0339 0.9745
2.3836 -5.6353 -2.0339 0.9745
3.3720 -5.1056 -2.0339 0.9745
-4.0512 -3.9916 -2.0338 0.9761
-3.2547 -4.6640 -2.0338 0.9761
-2.8136 -4.9426 -2.0338 0.9761
-2.3488 -5.1797 -2.0338 0.9761
-1.8643 -5.3731 -2.0338 0.9761
-0.3335 -5.6776 -2.0338 0.9761
0.7083 -5.6431 -2.0338 0.9761
1.7263 -5.4191 -2.0339 0.9761
2.2156 -5.2381 -2.0339 0.9761
2.6863 -5.0130 -2.0339 0.9761
3.1344 -4.7458 -2.0339 0.9761
3.5561 -4.4386 -2.0339 0.9761
-3.7805 -3.7249 -2.0338 0.9775
-2.6256 -4.6123 -2.0338 0.9775
-0.7954 -5.2473 -2.0338 0.9775
0.1756 -5.3044 -2.0338 0.9775
0.6610 -5.2660 -2.0338 0.9775
1.1407 -5.1833 -2.0339 0.9775
1.6109 -5.0569 -2.0339 0.9775
2.0675 -4.8880 -2.0339 0.9775
3.3184 -4.1420 -2.0339 0.9775
-3.2053 -3.7975 -2.0338 0.9788
-2.8438 -4.0752 -2.0338 0.9788
-2.0523 -4.5258 -2.0338 0.9788
-1.6290 -4.6948 -2.0338 0.9788
-1.1919 -4.8243 -2.0338 0.9788
-0.7448 -4.9133 -2.0338 0.9788
0.1644 -4.9667 -2.0338 0.9788
0.6189 -4.9307 -2.0339 0.9788
1.0681 -4.8533 -2.0339 0.9788
1.5084 -4.7350 -2.0339 0.9788
3.1072 -3.8783 -2.0339 0.9788
-3.0101 -3.5662 -2.0338 0.9798
-2.6706 -3.8270 -2.0338 0.9798
-2.3087 -4.0557 -2.0338 0.9798
-1.9273 -4.2502 -2.0338 0.9798
-1.5297 -4.4089 -2.0338 0.9798
-1.1193 -4.5305 -2.0338 0.9798
-0.6994 -4.6141 -2.0338 0.9798
1.0030 -4.5577 -2.0339 0.9798
1.4164 -4.4466 -2.0339 0.9798
1.8180 -4.2981 -2.0339 0.9798
2.5720 -3.8942 -2.0339 0.9798
-2.5145 -3.6032 -2.0338 0.9808
-1.8146 -4.0016 -2.0338 0.9808
-1.0539 -4.2656 -2.0338 0.9808
-0.2577 -4.3863 -2.0338 0.9808
0.1454 -4.3915 -2.0339 0.9808
0.9444 -4.2912 -2.0339 0.9808
1.7117 -4.0468 -2.0339 0.9808
2.0754 -3.8729 -2.0339 0.9808
2.7473 -3.4291 -2.0339 0.9808
-2.6744 -3.1685 -2.0338 0.9817
-2.0512 -3.6034 -2.0338 0.9817
-1.7124 -3.7762 -2.0338 0.9817
-0.6214 -4.0995 -2.0338 0.9817
1.2585 -3.9507 -2.0339 0.9817
2.5925 -3.2359 -2.0339 0.9817
-2.7926 -2.7516 -2.0338 0.9825
-1.9395 -3.4071 -2.0338 0.9825
-1.2852 -3.7038 -2.0338 0.9825
-0.2299 -3.9137 -2.0339 0.9825
0.4882 -3.8900 -2.0339 0.9825
2.1606 -3.2714 -2.0339 0.9825
2.4513 -3.0597 -2.0339 0.9825
-2.6451 -2.6063 -2.0338 0.9832
-1.5336 -3.3820 -2.0338 0.9832
-0.5566 -3.6715 -2.0339 0.9832
-0.2178 -3.7071 -2.0339 0.9832
0.4624 -3.6845 -2.0339 0.9832
1.7539 -3.2731 -2.0339 0.9832
2.0466 -3.0987 -2.0339 0.9832
2.3219 -2.8981 -2.0339 0.9832
-2.5093 -2.4724 -2.0339 0.9839
-2.0159 -2.8889 -2.0339 0.9839
-1.4549 -3.2083 -2.0339 0.9839
-0.8449 -3.4199 -2.0339 0.9839
0.7572 -3.4404 -2.0339 0.9839
1.6639 -3.1051 -2.0339 0.9839
