ply
format ascii 1.0
element vertex 190
property float32 x
property float32 y
property float32 z
property float32 I
end_header
16.2795 -4.1519 -1.2319 0.9348
13.9203 8.7350 -1.2050 0.9362
14.0367 -9.8056 -2.0339 0.9334
14.8615 -8.5042 -2.0339 0.9334
15.5659 -7.1339 -2.0340 0.9334
16.1444 -5.7059 -2.0340 0.9334
16.5921 -4.2317 -2.0340 0.9334
17.0820 -1.1924 -2.0340 0.9333
17.1201 0.3479 -2.0341 0.9333
17.0197 1.8855 -2.0341 0.9333
16.4072 4.9026 -2.0341 0.9333
13.6282 10.3690 -2.0341 0.9333
11.5514 12.6416 -2.0341 0.9333
10.3683 13.6288 -2.0341 0.9333
12.4592 -7.1296 -2.0339 0.9437
13.9099 -3.5476 -2.0340 0.9437
14.1727 -2.2829 -2.0340 0.9437
14.2684 1.5807 -2.0340 0.9437
13.7549 4.1100 -2.0341 0.9437
12.7968 6.5065 -2.0341 0.9437
11.4250 8.6927 -2.0341 0.9437
10.5975 9.6846 -2.0341 0.9437
8.6921 11.4256 -2.0341 0.9437
10.1213 -7.0704 -2.0339 0.9512
10.7159 -6.1320 -2.0339 0.9512
11.2238 -5.1439 -2.0339 0.9512
11.6409 -4.1142 -2.0340 0.9512
12.3443 0.2509 -2.0340 0.9512
12.2718 1.3595 -2.0340 0.9512
11.8302 3.5349 -2.0340 0.9512
11.4646 4.5840 -2.0340 0.9512
10.4586 6.5628 -2.0341 0.9512
8.3289 9.1150 -2.0341 0.9512
8.8708 -6.1969 -2.0339 0.9569
9.3920 -5.3744 -2.0339 0.9569
10.2027 -3.6059 -2.0339 0.9569
10.3686 3.0981 -2.0340 0.9569
9.6463 4.9047 -2.0340 0.9569
9.1664 5.7519 -2.0340 0.9569
8.6123 6.5526 -2.0340 0.9569
6.5522 8.6127 -2.0341 0.9569
7.8880 -5.5103 -2.0339 0.9614
8.3514 -4.7790 -2.0339 0.9614
9.3238 -2.3779 -2.0340 0.9614
9.4999 -1.5302 -2.0340 0.9614
9.5991 -0.6700 -2.0340 0.9614
9.6205 0.1955 -2.0340 0.9614
8.9348 3.5725 -2.0340 0.9614
7.6580 5.8266 -2.0340 0.9614
7.1033 6.4914 -2.0340 0.9614
6.4910 7.1037 -2.0340 0.9614
7.8673 -3.6056 -2.0339 0.9651
8.1596 -2.8838 -2.0339 0.9651
8.5441 -1.3763 -2.0340 0.9651
8.6526 0.1759 -2.0340 0.9651
8.4813 1.7223 -2.0340 0.9651
8.0359 3.2131 -2.0340 0.9651
7.7146 3.9225 -2.0340 0.9651
5.8380 6.3890 -2.0340 0.9651
6.4397 -4.4986 -2.0339 0.9681
6.8180 -3.9015 -2.0339 0.9681
7.4066 -2.6177 -2.0339 0.9681
7.7556 -1.2493 -2.0340 0.9681
7.8366 -0.5470 -2.0340 0.9681
7.8540 0.1596 -2.0340 0.9681
7.8079 0.8650 -2.0340 0.9681
7.6986 1.5634 -2.0340 0.9681
5.7990 5.2995 -2.0340 0.9681
5.2992 5.7993 -2.0340 0.9681
4.7564 6.2522 -2.0340 0.9681
5.8898 -4.1145 -2.0339 0.9706
6.7741 -2.3942 -2.0339 0.9706
7.0934 -1.1426 -2.0339 0.9706
6.6714 2.6675 -2.0340 0.9706
6.4046 3.2563 -2.0340 0.9706
6.0859 3.8189 -2.0340 0.9706
5.7180 4.3505 -2.0340 0.9706
5.4209 -3.7869 -2.0339 0.9727
6.2348 -2.2036 -2.0339 0.9727
6.4077 -1.6342 -2.0339 0.9727
6.5286 -1.0516 -2.0339 0.9727
6.5968 -0.4605 -2.0340 0.9727
6.6114 0.1344 -2.0340 0.9727
5.8947 2.9971 -2.0340 0.9727
5.2628 4.0042 -2.0340 0.9727
4.4608 4.8818 -2.0340 0.9727
4.0039 5.2630 -2.0340 0.9727
5.3107 -3.0390 -2.0339 0.9745
5.7691 -2.0390 -2.0339 0.9745
5.9291 -1.5122 -2.0339 0.9745
6.0411 -0.9731 -2.0339 0.9745
5.9966 1.2177 -2.0340 0.9745
5.8628 1.7518 -2.0340 0.9745
5.4544 2.7733 -2.0340 0.9745
5.1830 3.2523 -2.0340 0.9745
3.7048 4.8699 -2.0340 0.9745
5.1704 -2.3697 -2.0339 0.9761
5.5112 -1.4056 -2.0339 0.9761
5.6153 -0.9045 -2.0339 0.9761
5.6865 0.1156 -2.0340 0.9761
5.6531 0.6263 -2.0340 0.9761
5.5739 1.1319 -2.0340 0.9761
5.4496 1.6283 -2.0340 0.9761
5.2812 2.1116 -2.0340 0.9761
4.8178 3.0231 -2.0340 0.9761
3.8367 4.1988 -2.0340 0.9761
3.4437 4.5267 -2.0340 0.9761
4.6066 -2.6360 -2.0339 0.9775
5.0042 -1.7686 -2.0339 0.9775
5.2400 -0.8440 -2.0339 0.9775
5.2753 0.5844 -2.0340 0.9775
5.2014 1.0562 -2.0340 0.9775
5.0854 1.5195 -2.0340 0.9775
4.9282 1.9705 -2.0340 0.9775
4.7312 2.4055 -2.0340 0.9775
4.4958 2.8211 -2.0340 0.9775
4.2240 3.2138 -2.0340 0.9775
3.9180 3.5805 -2.0340 0.9775
3.5803 3.9182 -2.0340 0.9775
3.2136 4.2242 -2.0340 0.9775
4.6856 -1.6560 -2.0339 0.9788
4.8155 -1.2281 -2.0339 0.9788
4.9576 -0.3461 -2.0339 0.9787
4.9686 0.1010 -2.0339 0.9787
4.8703 0.9890 -2.0340 0.9787
4.6145 1.8451 -2.0340 0.9787
4.4300 2.2524 -2.0340 0.9787
4.2095 2.6415 -2.0340 0.9787
3.9550 3.0092 -2.0340 0.9787
3.6686 3.3525 -2.0340 0.9787
3.0089 3.9552 -2.0340 0.9787
3.8259 -2.6726 -2.0339 0.9798
4.2426 -1.9444 -2.0339 0.9798
4.4002 -1.5552 -2.0339 0.9798
4.6660 0.0948 -2.0339 0.9798
4.6386 0.5139 -2.0339 0.9798
4.5736 0.9288 -2.0340 0.9798
3.9532 2.4806 -2.0340 0.9798
3.7142 2.8259 -2.0340 0.9798
3.1482 3.4453 -2.0340 0.9798
3.6021 -2.5163 -2.0339 0.9808
3.9945 -1.8307 -2.0339 0.9808
4.1429 -1.4642 -2.0339 0.9808
4.3932 0.0893 -2.0339 0.9808
4.3674 0.4838 -2.0339 0.9808
4.3062 0.8744 -2.0339 0.9808
3.9169 1.9915 -2.0340 0.9808
3.7220 2.3356 -2.0340 0.9808
3.4970 2.6607 -2.0340 0.9808
3.2436 2.9642 -2.0340 0.9808
2.6605 3.4971 -2.0340 0.9808
3.7694 -1.7275 -2.0339 0.9817
3.9095 -1.3817 -2.0339 0.9817
4.0179 -1.0247 -2.0339 0.9817
4.1213 0.4565 -2.0339 0.9817
4.0636 0.8252 -2.0339 0.9817
3.8501 1.5394 -2.0340 0.9817
3.2999 2.5107 -2.0340 0.9817
2.7971 3.0610 -2.0340 0.9817
2.5106 3.3001 -2.0340 0.9817
3.2140 -2.2452 -2.0339 0.9825
3.5641 -1.6334 -2.0339 0.9825
3.7990 -0.9689 -2.0339 0.9825
2.0780 -0.1451 -1.0806 0.9907
2.0814 0.2306 -1.0864 0.9906
2.1068 0.4278 -1.1153 0.9904
3.4948 1.7770 -2.0340 0.9825
2.8942 2.6449 -2.0340 0.9825
2.6447 2.8943 -2.0340 0.9825
2.3738 3.1204 -2.0340 0.9825
3.0443 -2.1266 -2.0339 0.9832
3.2232 -1.8444 -2.0339 0.9832
3.3759 -1.5472 -2.0339 0.9832
1.9979 -0.7061 -1.1606 0.9904
1.8571 -0.4736 -1.0497 0.9913
1.8521 -0.1293 -1.0169 0.9916
1.8519 0.0376 -1.0145 0.9916
1.8741 0.5600 -1.0713 0.9911
3.1456 1.9738 -2.0339 0.9832
2.7413 2.5052 -2.0340 0.9832
2.5050 2.7414 -2.0340 0.9832
2.2485 2.9555 -2.0340 0.9832
1.7840 -0.8177 -1.1330 0.9910
1.7141 -0.2761 -1.0024 0.9920
1.7246 0.0350 -0.9959 0.9921
1.7479 0.6989 -1.0868 0.9913
2.9841 1.8725 -2.0339 0.9839
2.8036 2.1331 -2.0339 0.9839
2.6006 2.3766 -2.0339 0.9839
2.1330 2.8038 -2.0340 0.9839
