ply
format ascii 1.0
element vertex 170
property float32 x
property float32 y
property float32 z
property float32 I
end_header
-11.6977 13.0901 3.0955 0.9312
-11.3524 12.7037 1.8295 0.9338
-12.8852 12.0028 1.8909 0.9316
-13.4738 12.5511 1.5588 0.9287
-14.4443 9.1942 -2.0339 0.9334
-16.3960 4.9319 -2.0338 0.9334
-16.7780 3.4122 -2.0338 0.9334
-17.0196 1.8639 -2.0338 0.9334
-17.0741 -1.2662 -2.0337 0.9334
-16.8867 -2.8220 -2.0337 0.9334
-16.5579 -4.3540 -2.0337 0.9334
-16.0904 -5.8495 -2.0337 0.9334
-15.4881 -7.2961 -2.0337 0.9334
-14.7561 -8.6815 -2.0337 0.9334
-10.5036 9.7844 -2.0339 0.9437
-12.1094 7.7081 -2.0339 0.9437
-13.7457 4.1347 -2.0338 0.9437
-14.2686 1.5626 -2.0338 0.9437
-14.3516 0.2516 -2.0338 0.9437
-14.3144 -1.0616 -2.0338 0.9437
-14.1573 -2.3659 -2.0338 0.9437
-13.8816 -3.6503 -2.0337 0.9437
-13.4897 -4.9041 -2.0337 0.9437
-12.9848 -6.1168 -2.0337 0.9437
-8.2268 9.2061 -2.0339 0.9512
-9.7655 7.5541 -2.0339 0.9512
-11.4480 4.6222 -2.0339 0.9512
-11.8225 3.5562 -2.0338 0.9512
-12.0980 2.4604 -2.0338 0.9512
-12.3436 0.2164 -2.0338 0.9512
-12.1765 -2.0349 -2.0338 0.9512
-11.9395 -3.1396 -2.0338 0.9512
-11.6024 -4.2179 -2.0338 0.9512
-11.1681 -5.2610 -2.0337 0.9512
-10.6403 -6.2600 -2.0337 0.9512
-7.2104 8.0687 -2.0339 0.9569
-8.5590 6.6208 -2.0339 0.9569
-9.6213 4.9516 -2.0339 0.9569
-10.7561 1.1780 -2.0338 0.9569
-10.8187 0.1896 -2.0338 0.9569
-10.6723 -1.7835 -2.0338 0.9569
-10.1691 -3.6969 -2.0338 0.9569
-9.7885 -4.6111 -2.0338 0.9569
-7.0406 6.5585 -2.0339 0.9614
-7.6107 5.8873 -2.0339 0.9614
-9.2140 2.7716 -2.0339 0.9614
-9.5645 1.0475 -2.0338 0.9614
-9.4900 -1.5859 -2.0338 0.9614
-8.7040 -4.1003 -2.0338 0.9614
-6.3323 5.8987 -2.0339 0.9651
-6.8451 5.2950 -2.0339 0.9651
-7.6947 3.9601 -2.0339 0.9651
-8.0245 3.2400 -2.0339 0.9651
-8.6524 0.1517 -2.0338 0.9651
-8.5353 -1.4264 -2.0338 0.9651
-8.3691 -2.2008 -2.0338 0.9651
-7.8284 -3.6878 -2.0338 0.9651
-5.2343 5.8574 -2.0339 0.9681
-6.2134 4.8064 -2.0339 0.9681
-6.9846 3.5946 -2.0339 0.9681
-7.2839 2.9410 -2.0339 0.9681
-7.8085 0.8551 -2.0338 0.9681
-7.8539 0.1377 -2.0338 0.9681
-7.8336 -0.5810 -2.0338 0.9681
-7.7476 -1.2947 -2.0338 0.9681
-4.7874 5.3572 -2.0339 0.9706
-5.2571 4.8971 -2.0339 0.9706
-5.6828 4.3959 -2.0339 0.9706
-6.8799 2.0695 -2.0339 0.9706
-7.0403 1.4318 -2.0339 0.9706
-7.1417 0.7821 -2.0338 0.9706
-7.0860 -1.1842 -2.0338 0.9706
-4.4062 4.9307 -2.0339 0.9727
-4.8386 4.5072 -2.0339 0.9727
-5.2304 4.0460 -2.0339 0.9727
-5.8796 3.0259 -2.0339 0.9727
-6.3322 1.9047 -2.0339 0.9727
-6.6114 0.1159 -2.0338 0.9727
-5.9818 -2.8179 -2.0338 0.9727
-4.0771 4.5625 -2.0339 0.9745
-5.8593 1.7625 -2.0339 0.9745
-6.1176 0.1072 -2.0338 0.9745
-6.1018 -0.4525 -2.0338 0.9745
-5.7503 -2.0905 -2.0338 0.9745
-5.5351 -2.6075 -2.0338 0.9745
-5.2736 -3.1026 -2.0338 0.9745
-3.7898 4.2409 -2.0339 0.9761
-4.4986 3.4799 -2.0339 0.9761
-4.7979 3.0541 -2.0339 0.9761
-5.0571 2.6026 -2.0339 0.9761
-5.2738 2.1293 -2.0339 0.9761
-5.4464 1.6383 -2.0339 0.9761
-5.6536 0.6191 -2.0339 0.9761
-5.6865 0.0997 -2.0339 0.9761
-5.6718 -0.4206 -2.0338 0.9761
-5.5004 -1.4464 -2.0338 0.9761
-3.5365 3.9575 -2.0339 0.9775
-4.1980 3.2474 -2.0339 0.9775
-4.4773 2.8499 -2.0339 0.9775
-4.7191 2.4287 -2.0339 0.9775
-5.0824 1.5288 -2.0339 0.9775
-5.2009 1.0577 -2.0339 0.9775
-5.2757 0.5778 -2.0339 0.9775
-5.2347 -0.8748 -2.0338 0.9775
-4.9879 -1.8133 -2.0338 0.9775
-4.8012 -2.2618 -2.0338 0.9775
-3.9307 3.0406 -2.0339 0.9788
-4.4187 2.2740 -2.0339 0.9788
-4.6080 1.8605 -2.0339 0.9788
-2.1217 0.4315 -0.8861 0.9907
-2.1196 -0.1572 -0.8699 0.9909
-2.1172 -0.3538 -0.8785 0.9908
-4.8060 -1.2638 -2.0338 0.9788
-4.6704 -1.6979 -2.0338 0.9788
-4.4955 -2.1177 -2.0338 0.9788
-4.2830 -2.5199 -2.0338 0.9788
-3.6914 2.8554 -2.0339 0.9798
-3.9369 2.5060 -2.0339 0.9798
-4.3274 1.7472 -2.0339 0.9798
-1.9043 0.3873 -0.8469 0.9916
-1.9187 0.0336 -0.8364 0.9917
-1.9154 -0.1421 -0.8371 0.9917
-1.9503 -0.5129 -0.8789 0.9912
-4.3859 -1.5945 -2.0338 0.9798
-4.2217 -1.9888 -2.0338 0.9798
-3.7067 2.3595 -2.0339 0.9808
-3.9069 2.0107 -2.0339 0.9808
-4.0743 1.6450 -2.0339 0.9808
-1.5386 0.4628 -0.7437 0.9929
-1.5761 0.0276 -0.7297 0.9931
-1.6112 -0.2693 -0.7562 0.9928
-1.8195 -0.6615 -0.8961 0.9915
-3.9749 -1.8725 -2.0338 0.9808
-3.7870 -2.2280 -2.0338 0.9808
-3.2796 2.5370 -2.0339 0.9817
-3.4979 2.2265 -2.0339 0.9817
-1.7372 0.7014 -0.9190 0.9917
-1.2957 0.3897 -0.6637 0.9940
-1.3330 0.2711 -0.6673 0.9940
-1.3532 0.1482 -0.6677 0.9940
-1.3412 0.0235 -0.6580 0.9940
-1.3440 -0.2246 -0.6684 0.9939
-1.3114 -0.3449 -0.6651 0.9940
-1.2634 -0.4593 -0.6594 0.9940
-3.7509 -1.7670 -2.0338 0.9817
-3.5736 -2.1025 -2.0338 0.9817
-2.8687 2.6723 -2.0339 0.9825
-3.1010 2.3988 -2.0339 0.9825
-1.1487 0.3455 -0.6223 0.9946
-1.1793 0.2398 -0.6243 0.9946
-1.1998 0.1314 -0.6262 0.9946
-1.1949 0.0209 -0.6200 0.9946
-1.1623 -0.3057 -0.6235 0.9946
-3.3790 -1.9880 -2.0338 0.9825
-3.1327 1.9941 -2.0339 0.9832
-1.0252 0.5276 -0.6315 0.9948
-1.0120 0.4086 -0.5978 0.9950
-1.0590 0.2153 -0.5919 0.9951
-1.0782 0.1180 -0.5941 0.9951
-1.0782 0.0189 -0.5906 0.9951
-1.0809 -0.0802 -0.5937 0.9951
-0.9914 -0.4671 -0.6002 0.9950
-3.2006 -1.8830 -2.0339 0.9832
-2.3474 2.6268 -2.0339 0.9839
-2.7864 2.1554 -2.0339 0.9839
-2.9718 1.8917 -2.0339 0.9839
-0.9873 0.1081 -0.5734 0.9954
-0.9805 -0.1639 -0.5739 0.9954
-0.9200 -0.4334 -0.5871 0.9953
-3.0362 -1.7863 -2.0339 0.9839
