ply
format ascii 1.0
element vertex 212
property float32 x
property float32 y
property float32 z
property float32 I
end_header
-12.3185 12.2547 2.6619 0.9321
-11.8409 11.7794 2.1750 0.9348
-12.1277 12.0648 1.8369 0.9335
-12.8607 12.7939 1.1249 0.9299
-11.9116 -7.9146 -1.0486 0.9443
-11.6966 -7.7718 -1.3482 0.9451
-12.1390 12.0760 -2.0339 0.9334
-13.1891 10.9190 -2.0339 0.9334
-14.1294 9.6712 -2.0339 0.9334
-16.2179 5.4895 -2.0338 0.9334
-17.0976 0.8988 -2.0338 0.9334
-16.9764 -2.2202 -2.0337 0.9334
-9.9362 -13.9420 -2.0337 0.9334
-11.0572 9.1540 -2.0339 0.9437
-12.5352 6.9943 -2.0339 0.9437
-14.3340 0.7536 -2.0338 0.9437
-14.3429 -0.5562 -2.0338 0.9437
-14.2324 -1.8614 -2.0338 0.9437
-13.6578 -4.4144 -2.0337 0.9437
-12.6292 -6.8206 -2.0337 0.9437
-11.9549 -7.9434 -2.0337 0.9437
-10.3140 -9.9819 -2.0337 0.9437
-9.3611 -10.8805 -2.0337 0.9437
-8.3303 -11.6886 -2.0337 0.9437
-8.7529 8.7074 -2.0339 0.9512
-12.0061 2.8757 -2.0338 0.9512
-12.3285 0.6481 -2.0338 0.9512
-12.3362 -0.4784 -2.0338 0.9512
-12.2412 -1.6010 -2.0338 0.9512
-11.7470 -3.7968 -2.0338 0.9512
-10.2823 -6.8321 -2.0337 0.9512
-9.6167 -7.7409 -2.0337 0.9512
-7.6714 7.6316 -2.0339 0.9569
-8.3352 6.9005 -2.0339 0.9569
-9.4493 5.2725 -2.0339 0.9569
-9.8905 4.3891 -2.0339 0.9569
-10.5229 2.5204 -2.0338 0.9569
-10.7088 1.5507 -2.0338 0.9569
-10.8055 0.5681 -2.0338 0.9569
-10.7289 -1.4032 -2.0338 0.9569
-10.5563 -2.3754 -2.0338 0.9569
-10.2958 -3.3277 -2.0338 0.9569
-9.0121 -5.9881 -2.0338 0.9569
-8.4287 -6.7847 -2.0338 0.9569
-7.7751 -7.5247 -2.0337 0.9569
-7.0568 -8.2022 -2.0337 0.9569
-6.2797 -8.8113 -2.0337 0.9569
-6.8215 6.7861 -2.0339 0.9614
-8.7948 3.9028 -2.0339 0.9614
-9.1139 3.0848 -2.0339 0.9614
-9.5224 1.3789 -2.0338 0.9614
-9.6143 -0.3729 -2.0338 0.9614
-9.5403 -1.2477 -2.0338 0.9614
-9.1552 -2.9591 -2.0338 0.9614
-8.8473 -3.7813 -2.0338 0.9614
-8.0137 -5.3247 -2.0338 0.9614
-6.9137 -6.6911 -2.0338 0.9614
-7.1414 4.8880 -2.0339 0.9651
-8.1971 2.7745 -2.0339 0.9651
-8.4158 2.0157 -2.0339 0.9651
-8.6418 0.4543 -2.0338 0.9651
-8.2342 -2.6614 -2.0338 0.9651
-7.9573 -3.4009 -2.0338 0.9651
-7.6141 -4.1121 -2.0338 0.9651
-6.7410 -5.4262 -2.0338 0.9651
-5.5691 5.5402 -2.0339 0.9681
-7.1801 3.1862 -2.0339 0.9681
-7.4406 2.5185 -2.0339 0.9681
-7.6391 1.8297 -2.0339 0.9681
-7.7741 1.1257 -2.0338 0.9681
-7.8443 0.4124 -2.0338 0.9681
-7.8492 -0.3044 -2.0338 0.9681
-7.7887 -1.0187 -2.0338 0.9681
-7.6634 -1.7244 -2.0338 0.9681
-7.4743 -2.4158 -2.0338 0.9681
-7.2230 -3.0871 -2.0338 0.9681
-6.9115 -3.7327 -2.0338 0.9681
-6.5424 -4.3471 -2.0338 0.9681
-5.1229 -5.9545 -2.0338 0.9681
-4.5589 -6.3967 -2.0338 0.9681
-5.5341 4.5816 -2.0339 0.9706
-5.9287 4.0580 -2.0339 0.9706
-6.2739 3.5007 -2.0339 0.9706
-6.5669 2.9142 -2.0339 0.9706
-6.9868 1.6735 -2.0339 0.9706
-7.1744 0.3772 -2.0338 0.9706
-7.1789 -0.2784 -2.0338 0.9706
-6.6061 -2.8235 -2.0338 0.9706
-5.5964 -4.5048 -2.0338 0.9706
-5.1624 -4.9962 -2.0338 0.9706
-4.6855 -5.4460 -2.0338 0.9706
-4.1696 -5.8504 -2.0338 0.9706
-5.0936 4.2169 -2.0339 0.9727
-6.4306 1.5403 -2.0339 0.9727
-6.6033 0.3471 -2.0338 0.9727
-6.4511 -1.4516 -2.0338 0.9727
-6.2919 -2.0336 -2.0338 0.9727
-4.3379 4.3154 -2.0339 0.9745
-4.7131 3.9019 -2.0339 0.9745
-5.3432 2.9813 -2.0339 0.9745
-5.7956 1.9617 -2.0339 0.9745
-5.9503 1.4252 -2.0339 0.9745
-6.1101 0.3212 -2.0339 0.9745
-6.0669 -0.7935 -2.0338 0.9745
-5.9693 -1.3432 -2.0338 0.9745
-5.8220 -1.8818 -2.0338 0.9745
-5.6262 -2.4046 -2.0338 0.9745
-5.0961 -3.3861 -2.0338 0.9745
-4.7662 -3.8366 -2.0338 0.9745
-4.3966 -4.2550 -2.0338 0.9745
-4.0321 4.0112 -2.0339 0.9761
-4.6934 3.2125 -2.0339 0.9761
-4.9666 2.7713 -2.0339 0.9761
-5.1986 2.3070 -2.0339 0.9761
-5.3872 1.8235 -2.0339 0.9761
-5.5310 1.3248 -2.0339 0.9761
-5.6287 0.8151 -2.0339 0.9761
-5.6831 -0.2204 -2.0338 0.9761
-5.6393 -0.7376 -2.0338 0.9761
-5.5486 -1.2486 -2.0338 0.9761
-5.0041 -2.7026 -2.0338 0.9761
-4.4303 -3.5662 -2.0338 0.9761
-4.0868 -3.9552 -2.0338 0.9761
-3.7093 -4.3113 -2.0338 0.9761
-3.3008 -4.6314 -2.0338 0.9761
-3.7627 3.7431 -2.0339 0.9775
-4.6347 2.5860 -2.0339 0.9775
-5.3000 0.2786 -2.0339 0.9775
-5.3033 -0.2057 -2.0339 0.9775
-5.2625 -0.6883 -2.0338 0.9775
-5.0500 -1.6322 -2.0338 0.9775
-4.8802 -2.0858 -2.0338 0.9775
-4.6697 -2.5220 -2.0338 0.9775
-4.1343 -3.3279 -2.0338 0.9775
-3.4614 -4.0232 -2.0338 0.9775
-3.0802 -4.3219 -2.0338 0.9775
-4.3396 2.4214 -2.0339 0.9788
-4.7071 1.5933 -2.0339 0.9788
-2.1375 0.5120 -0.8996 0.9905
-2.1120 0.3058 -0.8734 0.9908
-2.1220 0.1115 -0.8697 0.9909
-2.1078 -0.2757 -0.8700 0.9909
-2.1200 -0.4771 -0.8894 0.9907
-4.7285 -1.5283 -2.0338 0.9788
-4.5695 -1.9530 -2.0338 0.9788
-4.3724 -2.3614 -2.0338 0.9788
-4.1389 -2.7502 -2.0338 0.9788
-3.2410 -3.7670 -2.0338 0.9788
-2.8841 -4.0468 -2.0338 0.9788
-3.8511 2.6360 -2.0339 0.9798
-4.0754 2.2739 -2.0339 0.9798
-4.2657 1.8930 -2.0339 0.9798
-1.9034 0.2756 -0.8382 0.9916
-1.9026 -0.2489 -0.8362 0.9917
-4.4405 -1.4353 -2.0338 0.9798
-4.2912 -1.8341 -2.0338 0.9798
-4.1061 -2.2176 -2.0338 0.9798
-3.6353 -2.9263 -2.0338 0.9798
-3.1151 3.0989 -2.0339 0.9808
-3.3846 2.8021 -2.0339 0.9808
-3.6259 2.4818 -2.0339 0.9808
-3.8370 2.1410 -2.0339 0.9808
-4.0162 1.7823 -2.0339 0.9808
-1.6106 0.2332 -0.7533 0.9929
-1.5873 -0.0616 -0.7353 0.9930
-1.5894 -0.3577 -0.7541 0.9928
-1.6186 -0.5232 -0.7874 0.9925
-3.8660 -2.0879 -2.0338 0.9808
-2.5501 -3.5781 -2.0338 0.9808
-2.9396 2.9243 -2.0339 0.9817
-3.1939 2.6442 -2.0339 0.9817
-1.3212 0.3164 -0.6664 0.9940
-1.3491 0.1953 -0.6686 0.9939
-1.2850 -0.4154 -0.6625 0.9940
-3.8126 -1.6295 -2.0338 0.9817
-3.6482 -1.9703 -2.0338 0.9817
-2.4064 -3.3765 -2.0338 0.9817
-3.2353 2.2144 -2.0339 0.9825
-3.4236 1.9103 -2.0339 0.9825
-1.1060 0.4908 -0.6278 0.9946
-1.1693 0.2800 -0.6238 0.9946
-1.1952 0.1730 -0.6265 0.9946
-1.1991 0.0630 -0.6229 0.9946
-1.1409 -0.3688 -0.6220 0.9946
-3.4495 -1.8629 -2.0338 0.9825
-2.8171 -2.7264 -2.0338 0.9825
-2.5569 -2.9719 -2.0338 0.9825
-2.2754 -3.1926 -2.0338 0.9825
-2.8604 2.3681 -2.0339 0.9832
-3.0644 2.0975 -2.0339 0.9832
-0.9993 0.4434 -0.5988 0.9950
-1.0730 0.1553 -0.5938 0.9951
-1.0814 0.0568 -0.5931 0.9951
-1.0805 -0.0419 -0.5922 0.9951
-1.0523 -0.2368 -0.5908 0.9951
-1.0047 -0.4295 -0.5984 0.9950
-3.2674 -1.7646 -2.0339 0.9832
-3.0929 -2.0551 -2.0339 0.9832
-2.6684 -2.5825 -2.0338 0.9832
-2.1552 -3.0240 -2.0338 0.9832
-2.4975 2.4846 -2.0339 0.9839
-2.7136 2.2465 -2.0339 0.9839
-2.9070 1.9898 -2.0339 0.9839
-0.9274 0.4115 -0.5858 0.9953
-0.9504 0.3217 -0.5793 0.9954
-0.9663 0.2314 -0.5737 0.9954
-0.9836 0.1424 -0.5738 0.9954
-0.9900 0.0520 -0.5724 0.9954
-0.9316 -0.3982 -0.5849 0.9953
-2.9341 -1.9496 -2.0339 0.9839
-2.5314 -2.4499 -2.0339 0.9839
-2.2975 -2.6704 -2.0339 0.9839
