ply
format ascii 1.0
element vertex 172
property float32 x
property float32 y
property float32 z
property float32 I
end_header
2.6093 -6.1757 -0.6436 0.9734
-11.0816 -13.0500 -2.0337 0.9334
-5.6462 -16.1626 -2.0337 0.9334
-2.5944 -16.9230 -2.0337 0.9334
0.5450 -17.1122 -2.0337 0.9334
2.1145 -16.9899 -2.0337 0.9334
3.6662 -16.7239 -2.0337 0.9334
2.0187 -6.3504 -0.7915 0.9735
2.5694 -6.0813 -0.7842 0.9738
9.4365 -14.2866 -2.0338 0.9334
10.7090 -13.3596 -2.0338 0.9334
11.8909 -12.3196 -2.0339 0.9334
-9.2905 -10.9408 -2.0337 0.9437
-8.2464 -11.7479 -2.0337 0.9437
-7.1324 -12.4557 -2.0337 0.9437
-0.8627 -14.3275 -2.0337 0.9437
1.7728 -14.2437 -2.0338 0.9437
3.0736 -14.0208 -2.0338 0.9437
2.5118 -5.9449 -0.9144 0.9743
9.9688 -10.3283 -2.0339 0.9437
-7.0927 -10.1043 -2.0337 0.9512
-2.9837 -11.9792 -2.0337 0.9512
6.8043 -10.3015 -2.0338 0.9512
7.7218 -9.6331 -2.0339 0.9512
-7.0036 -8.2476 -2.0337 0.9569
-6.2164 -8.8560 -2.0337 0.9569
-4.4915 -9.8438 -2.0338 0.9569
-3.5684 -10.2148 -2.0338 0.9569
-2.6151 -10.4994 -2.0338 0.9569
-1.6396 -10.6952 -2.0338 0.9569
-0.6504 -10.8007 -2.0338 0.9569
0.3445 -10.8148 -2.0338 0.9569
1.3364 -10.7375 -2.0338 0.9569
1.8802 -5.9148 -1.1666 0.9751
2.4524 -5.8044 -1.1844 0.9747
-5.5278 -7.8750 -2.0338 0.9614
-3.9940 -8.7533 -2.0338 0.9614
-3.1730 -9.0831 -2.0338 0.9614
-1.4580 -9.5104 -2.0338 0.9614
0.3063 -9.6166 -2.0338 0.9614
1.1884 -9.5479 -2.0338 0.9614
1.8682 -5.8771 -1.3036 0.9751
2.4628 -5.8288 -1.3376 0.9745
5.3030 -8.0286 -2.0339 0.9614
-4.9717 -7.0828 -2.0338 0.9651
-4.3002 -7.5095 -2.0338 0.9651
-3.5922 -7.8728 -2.0338 0.9651
-1.3113 -8.5537 -2.0338 0.9651
-0.5202 -8.6380 -2.0338 0.9651
0.2755 -8.6493 -2.0338 0.9651
1.0688 -8.5874 -2.0338 0.9651
1.3443 -6.1321 -1.4754 0.9745
2.4732 -5.8534 -1.4934 0.9742
2.9720 -5.5487 -1.4793 0.9745
4.7695 -7.2209 -2.0339 0.9651
5.4127 -6.7524 -2.0339 0.9651
-4.5129 -6.4292 -2.0338 0.9681
-2.5905 -7.4155 -2.0338 0.9681
-1.8984 -7.6221 -2.0338 0.9681
-1.1903 -7.7643 -2.0338 0.9681
0.2501 -7.8511 -2.0338 0.9681
0.9702 -7.7950 -2.0338 0.9681
1.8587 -5.8471 -1.5886 0.9750
3.0940 -5.7764 -1.6966 0.9733
4.3294 -6.5545 -2.0339 0.9681
-4.1275 -5.8802 -2.0338 0.9706
-2.3693 -6.7823 -2.0338 0.9706
-1.7363 -6.9713 -2.0338 0.9706
-1.0887 -7.1013 -2.0338 0.9706
0.8873 -7.1293 -2.0338 0.9706
1.4195 -6.4753 -1.8766 0.9728
3.9596 -5.9948 -2.0339 0.9706
4.9895 -5.1694 -2.0339 0.9706
-4.2800 -5.0403 -2.0338 0.9727
-3.7990 -5.4121 -2.0338 0.9727
-3.2858 -5.7381 -2.0338 0.9727
-2.7449 -6.0157 -2.0338 0.9727
-2.1807 -6.2424 -2.0338 0.9727
0.2105 -6.6090 -2.0338 0.9727
1.4159 -6.4591 -2.0338 0.9727
1.8992 -5.9744 -1.9282 0.9741
2.5736 -6.0911 -2.0339 0.9727
3.1222 -5.8290 -2.0339 0.9727
3.6444 -5.5176 -2.0339 0.9727
4.5923 -4.7579 -2.0339 0.9727
-3.9604 -4.6638 -2.0338 0.9745
-3.0404 -5.3096 -2.0338 0.9745
-2.0178 -5.7762 -2.0338 0.9745
1.3102 -5.9767 -2.0338 0.9745
2.3814 -5.6362 -2.0339 0.9745
4.2493 -4.4025 -2.0339 0.9745
-3.2675 -4.6550 -2.0338 0.9761
-1.3746 -5.5187 -2.0338 0.9761
-0.3418 -5.6771 -2.0338 0.9761
1.7230 -5.4201 -2.0339 0.9761
2.6854 -5.0135 -2.0339 0.9761
3.1345 -4.7457 -2.0339 0.9761
3.9498 -4.0923 -2.0339 0.9761
-3.4353 -4.0454 -2.0338 0.9775
-3.0491 -4.3439 -2.0338 0.9775
-2.2031 -4.8284 -2.0338 0.9775
0.1689 -5.3046 -2.0338 0.9775
1.6079 -5.0579 -2.0339 0.9775
2.0656 -4.8889 -2.0339 0.9775
2.9251 -4.4285 -2.0339 0.9775
-2.4694 -4.3124 -2.0338 0.9788
-2.0628 -4.5210 -2.0338 0.9788
-1.6389 -4.6913 -2.0338 0.9788
-1.2011 -4.8221 -2.0338 0.9788
1.5055 -4.7359 -2.0339 0.9788
2.7389 -4.1466 -2.0339 0.9788
3.4512 -3.5756 -2.0339 0.9788
-3.0207 -3.5572 -2.0338 0.9798
-2.6812 -3.8196 -2.0338 0.9798
-1.5391 -4.4057 -2.0338 0.9798
-0.7072 -4.6129 -2.0338 0.9798
-0.2805 -4.6583 -2.0338 0.9798
0.5764 -4.6311 -2.0339 0.9798
0.9993 -4.5586 -2.0339 0.9798
1.8164 -4.2988 -2.0339 0.9798
2.2035 -4.1138 -2.0339 0.9798
2.5721 -3.8940 -2.0339 0.9798
2.9189 -3.6413 -2.0339 0.9798
-2.8441 -3.3492 -2.0338 0.9808
-2.1834 -3.8130 -2.0338 0.9808
-1.4491 -4.1480 -2.0338 0.9808
-0.6659 -4.3431 -2.0338 0.9808
0.1399 -4.3916 -2.0339 0.9808
0.9409 -4.2920 -2.0339 0.9808
1.3311 -4.1874 -2.0339 0.9808
1.7101 -4.0475 -2.0339 0.9808
2.4216 -3.6664 -2.0339 0.9808
2.7482 -3.4284 -2.0339 0.9808
-2.6838 -3.1605 -2.0338 0.9817
-2.3822 -3.3937 -2.0338 0.9817
-1.7212 -3.7722 -2.0338 0.9817
-1.3674 -3.9143 -2.0338 0.9817
-1.0021 -4.0234 -2.0338 0.9817
-0.6284 -4.0984 -2.0338 0.9817
0.1320 -4.1442 -2.0339 0.9817
1.6138 -3.8194 -2.0339 0.9817
1.9577 -3.6551 -2.0339 0.9817
2.2852 -3.4598 -2.0339 0.9817
2.5934 -3.2353 -2.0339 0.9817
-2.5377 -2.9884 -2.0338 0.9825
-1.9482 -3.4022 -2.0338 0.9825
-1.6274 -3.5667 -2.0338 0.9825
-0.5941 -3.8752 -2.0339 0.9825
0.1248 -3.9185 -2.0339 0.9825
0.4842 -3.8905 -2.0339 0.9825
0.8395 -3.8295 -2.0339 0.9825
1.1877 -3.7363 -2.0339 0.9825
1.8511 -3.4560 -2.0339 0.9825
2.4521 -3.0590 -2.0339 0.9825
2.7227 -2.8209 -2.0339 0.9825
-2.4036 -2.8306 -2.0338 0.9832
-2.1335 -3.0394 -2.0338 0.9832
-1.2247 -3.5057 -2.0339 0.9832
-0.8975 -3.6034 -2.0339 0.9832
0.4586 -3.6850 -2.0339 0.9832
1.1250 -3.5389 -2.0339 0.9832
1.4453 -3.4206 -2.0339 0.9832
1.7534 -3.2735 -2.0339 0.9832
2.3227 -2.8975 -2.0339 0.9832
-2.2802 -2.6852 -2.0339 0.9839
-2.0239 -2.8833 -2.0339 0.9839
-1.4623 -3.2049 -2.0339 0.9839
-1.1618 -3.3257 -2.0339 0.9839
0.4350 -3.4958 -2.0339 0.9839
1.0672 -3.3572 -2.0339 0.9839
1.6634 -3.1054 -2.0339 0.9839
2.4465 -2.5347 -2.0339 0.9839
