ply
format ascii 1.0
element vertex 187
property float32 x
property float32 y
property float32 z
property float32 I
end_header
16.7769 -3.3688 -1.2547 0.9337
16.5619 -3.3256 -1.6218 0.9344
2.3704 -16.9561 -2.0337 0.9334
3.8535 -16.6818 -2.0337 0.9334
2.1240 -6.5153 -0.8140 0.9728
2.5934 -6.0785 -0.7850 0.9737
8.0789 -15.0957 -2.0338 0.9334
9.3762 -14.3263 -2.0338 0.9334
11.7431 -12.4606 -2.0339 0.9334
14.5916 -8.9594 -2.0339 0.9334
15.3236 -7.6405 -2.0339 0.9334
16.4262 -4.8354 -2.0340 0.9334
16.7882 -3.3711 -2.0340 0.9334
1.9873 -14.2154 -2.0338 0.9437
1.5129 -6.5493 -0.9524 0.9732
2.5410 -5.9559 -0.9175 0.9742
3.2114 -6.0007 -0.9643 0.9729
7.8606 -12.0105 -2.0338 0.9437
9.8449 -10.4464 -2.0339 0.9437
12.2329 -7.5112 -2.0339 0.9437
12.8466 -6.4054 -2.0339 0.9437
13.3606 -5.2500 -2.0340 0.9437
14.3521 -0.3146 -2.0340 0.9437
1.5289 -6.6187 -1.1191 0.9728
1.9689 -6.0394 -1.0465 0.9746
2.5286 -5.9267 -1.0615 0.9742
6.7608 -10.3301 -2.0338 0.9512
7.6438 -9.6951 -2.0339 0.9512
8.4675 -8.9848 -2.0339 0.9512
9.2254 -8.2048 -2.0339 0.9512
11.4911 -4.5154 -2.0339 0.9512
12.2721 -1.3559 -2.0340 0.9512
12.3439 -0.2706 -2.0340 0.9512
1.9200 -5.8895 -1.1643 0.9751
2.5103 -5.8838 -1.2024 0.9743
5.9256 -9.0539 -2.0338 0.9569
7.4213 -7.8748 -2.0339 0.9569
8.6872 -6.4516 -2.0339 0.9569
9.2214 -5.6621 -2.0339 0.9569
9.6840 -4.8285 -2.0339 0.9569
10.0714 -3.9575 -2.0339 0.9569
10.3807 -3.0558 -2.0340 0.9569
10.6095 -2.1304 -2.0340 0.9569
10.7559 -1.1884 -2.0340 0.9569
1.4554 -6.3005 -1.3669 0.9739
1.9268 -5.9105 -1.3141 0.9749
3.0796 -5.7544 -1.3796 0.9737
5.2691 -8.0508 -2.0339 0.9614
7.1898 -6.3944 -2.0339 0.9614
8.1997 -5.0347 -2.0339 0.9614
8.6111 -4.2936 -2.0339 0.9614
8.9556 -3.5191 -2.0339 0.9614
9.2306 -2.7173 -2.0339 0.9614
9.6201 -0.2108 -2.0340 0.9614
1.4106 -6.1064 -1.4729 0.9746
1.8885 -5.7929 -1.4320 0.9753
2.4866 -5.8283 -1.4892 0.9743
6.4666 -5.7512 -2.0339 0.9651
6.9477 -5.1597 -2.0339 0.9651
8.0546 -3.1651 -2.0339 0.9651
1.0875 -7.7795 -2.0338 0.9681
1.3966 -6.0459 -1.6066 0.9747
3.0812 -5.7573 -1.6907 0.9734
4.3017 -6.5727 -2.0339 0.9681
4.8635 -6.1687 -2.0339 0.9681
5.3875 -5.7167 -2.0339 0.9681
5.8698 -5.2204 -2.0339 0.9681
6.3065 -4.6836 -2.0339 0.9681
7.3113 -2.8729 -2.0339 0.9681
7.5358 -2.2184 -2.0339 0.9681
7.8081 -0.8627 -2.0340 0.9681
7.8537 -0.1721 -2.0340 0.9681
2.8193 -6.6081 -2.0339 0.9706
3.3530 -6.2653 -2.0117 0.9709
3.9343 -6.0114 -2.0339 0.9706
4.9274 -5.2285 -2.0339 0.9706
5.3685 -4.7746 -2.0339 0.9706
5.7679 -4.2836 -2.0339 0.9706
6.4297 -3.2059 -2.0339 0.9706
6.8923 -2.0289 -2.0339 0.9706
7.0441 -1.4145 -2.0339 0.9706
7.1413 -0.7890 -2.0340 0.9706
7.1831 -0.1574 -2.0340 0.9706
0.9155 -6.5487 -2.0338 0.9727
1.9317 -5.9254 -1.9169 0.9743
3.1201 -5.8301 -2.0339 0.9727
3.6211 -5.5329 -2.0339 0.9727
4.5352 -4.8123 -2.0339 0.9727
4.9412 -4.3945 -2.0339 0.9727
5.3087 -3.9426 -2.0339 0.9727
5.6352 -3.4601 -2.0339 0.9727
6.3436 -1.8674 -2.0339 0.9727
6.4834 -1.3019 -2.0339 0.9727
6.5728 -0.7262 -2.0339 0.9727
0.8471 -6.0596 -2.0338 0.9745
2.4011 -5.6278 -2.0339 0.9745
2.8871 -5.3947 -2.0339 0.9745
4.5721 -4.0663 -2.0339 0.9745
4.9123 -3.6481 -2.0339 0.9745
5.2143 -3.2017 -2.0339 0.9745
6.0819 -0.6720 -2.0339 0.9745
1.2801 -5.5415 -2.0338 0.9761
2.6836 -5.0145 -2.0339 0.9761
3.1145 -4.7589 -2.0339 0.9761
3.5213 -4.4663 -2.0339 0.9761
3.9007 -4.1391 -2.0339 0.9761
4.2499 -3.7797 -2.0339 0.9761
4.8468 -2.9760 -2.0339 0.9761
5.0900 -2.5379 -2.0339 0.9761
5.2936 -2.0801 -2.0339 0.9761
5.5763 -1.1197 -2.0339 0.9761
0.7348 -5.2562 -2.0338 0.9775
1.6450 -5.0460 -2.0339 0.9775
2.0827 -4.8816 -2.0339 0.9775
2.5043 -4.6794 -2.0339 0.9775
3.6400 -3.8625 -2.0339 0.9775
4.2609 -3.1644 -2.0339 0.9775
4.9398 -1.9411 -2.0339 0.9775
5.0915 -1.4988 -2.0339 0.9775
5.2036 -1.0449 -2.0339 0.9775
5.2754 -0.5829 -2.0339 0.9775
1.5402 -4.7247 -2.0339 0.9788
1.9502 -4.5708 -2.0339 0.9788
2.3448 -4.3814 -2.0339 0.9788
3.0768 -3.9025 -2.0339 0.9788
3.7134 -3.3025 -2.0339 0.9788
3.9896 -2.9629 -2.0339 0.9788
4.2350 -2.6003 -2.0339 0.9788
4.4474 -2.2175 -2.0339 0.9788
4.6254 -1.8175 -2.0339 0.9788
4.7673 -1.4034 -2.0339 0.9788
4.8724 -0.9784 -2.0339 0.9788
4.9396 -0.5458 -2.0339 0.9788
1.4465 -4.4370 -2.0339 0.9798
2.2020 -4.1146 -2.0339 0.9798
2.5556 -3.9049 -2.0339 0.9798
2.8894 -3.6648 -2.0339 0.9798
3.9770 -2.4420 -2.0339 0.9798
4.1765 -2.0825 -2.0339 0.9798
4.4770 -1.3179 -2.0339 0.9798
4.6388 -0.5125 -2.0339 0.9798
0.6083 -4.3516 -2.0339 0.9808
0.9889 -4.2811 -2.0339 0.9808
1.7243 -4.0414 -2.0339 0.9808
2.7205 -3.4505 -2.0339 0.9808
3.7445 -2.2991 -2.0339 0.9808
4.3675 -0.4826 -2.0339 0.9808
0.5740 -4.1064 -2.0339 0.9817
0.9332 -4.0399 -2.0339 0.9817
1.2852 -3.9421 -2.0339 0.9817
1.6271 -3.8137 -2.0339 0.9817
1.9565 -3.6557 -2.0339 0.9817
3.7107 -1.8502 -2.0339 0.9817
3.8592 -1.5164 -2.0339 0.9817
4.0654 -0.8163 -2.0339 0.9817
4.1214 -0.4554 -2.0339 0.9817
4.1455 -0.0909 -2.0339 0.9817
0.5428 -3.8827 -2.0339 0.9825
1.5385 -3.6060 -2.0339 0.9825
1.8499 -3.4566 -2.0339 0.9825
2.1469 -3.2804 -2.0339 0.9825
2.6889 -2.8532 -2.0339 0.9825
2.9296 -2.6054 -2.0339 0.9825
3.3411 -2.0514 -2.0339 0.9825
3.5086 -1.7494 -2.0339 0.9825
3.7610 -1.1072 -2.0339 0.9825
2.1064 -0.4230 -1.1146 0.9904
2.0749 -0.0455 -1.0767 0.9907
0.5141 -3.6777 -2.0339 0.9832
1.4573 -3.4156 -2.0339 0.9832
2.0335 -3.1072 -2.0339 0.9832
2.2992 -2.9162 -2.0339 0.9832
2.9813 -2.2141 -2.0339 0.9832
3.3233 -1.6571 -2.0339 0.9832
1.8725 -0.5512 -1.0691 0.9911
1.8476 -0.2042 -1.0181 0.9916
1.8520 -0.0406 -1.0146 0.9916
1.0919 -3.3493 -2.0339 0.9839
1.3824 -3.2402 -2.0339 0.9839
1.9291 -2.9476 -2.0339 0.9839
2.8282 -2.1004 -2.0339 0.9839
3.0021 -1.8433 -2.0339 0.9839
1.7348 -0.6817 -1.0762 0.9914
1.7153 -0.5049 -1.0323 0.9918
1.7144 -0.3443 -1.0096 0.9920
1.7186 -0.1899 -0.9982 0.9920
1.7246 -0.0378 -0.9959 0.9921
