ply
format ascii 1.0
element vertex 185
property float32 x
property float32 y
property float32 z
property float32 I
end_header
2.3375 18.6963 3.3223 0.9263
2.1999 17.5956 2.7165 0.9308
4.0859 18.9674 2.5266 0.9247
2.2193 17.7515 2.3296 0.9304
2.3429 18.7398 1.5987 0.9270
3.8893 18.0548 0.7283 0.9287
2.2503 17.9992 0.7153 0.9300
3.8803 18.0132 0.3113 0.9289
2.2411 17.9255 0.3052 0.9303
13.9630 8.9198 -0.8403 0.9358
13.8029 8.8176 -1.2009 0.9364
13.6217 8.7018 -1.5518 0.9371
16.7213 3.6917 -2.0341 0.9333
16.3332 5.1437 -2.0341 0.9333
15.8195 6.5561 -2.0341 0.9333
15.1837 7.9179 -2.0341 0.9333
7.8401 15.2242 -2.0341 0.9333
3.6061 16.7403 -2.0341 0.9333
2.1244 16.9919 -2.0341 0.9333
14.2355 1.8539 -2.0340 0.9437
14.0182 3.0950 -2.0341 0.9437
13.2621 5.4962 -2.0341 0.9437
12.0981 7.7285 -2.0341 0.9437
11.3739 8.7595 -2.0341 0.9437
10.5621 9.7231 -2.0341 0.9437
9.6689 10.6117 -2.0341 0.9437
8.7012 11.4187 -2.0341 0.9437
7.6664 12.1376 -2.0341 0.9437
4.2420 13.7149 -2.0341 0.9437
3.0231 14.0340 -2.0341 0.9437
12.2436 1.5945 -2.0340 0.9512
11.7769 3.7088 -2.0340 0.9512
10.9480 5.7091 -2.0341 0.9512
10.4052 6.6470 -2.0341 0.9512
9.7824 7.5338 -2.0341 0.9512
8.3159 9.1269 -2.0341 0.9512
6.5937 10.4392 -2.0341 0.9512
4.6687 11.4305 -2.0341 0.9512
3.6485 11.7958 -2.0341 0.9512
2.6001 12.0703 -2.0341 0.9512
10.5670 2.3330 -2.0340 0.9569
10.3218 3.2506 -2.0340 0.9569
9.5953 5.0037 -2.0340 0.9569
9.1197 5.8258 -2.0340 0.9569
8.5737 6.6030 -2.0340 0.9569
7.2884 7.9992 -2.0341 0.9569
5.7790 9.1494 -2.0341 0.9569
4.9545 9.6209 -2.0341 0.9569
3.1977 10.3384 -2.0340 0.9569
1.3425 10.7379 -2.0340 0.9569
9.5419 1.2426 -2.0340 0.9614
9.1782 2.8904 -2.0340 0.9614
8.5322 4.4493 -2.0340 0.9614
7.6238 5.8714 -2.0340 0.9614
6.4809 7.1129 -2.0340 0.9614
5.8322 7.6537 -2.0340 0.9614
5.1387 8.1356 -2.0340 0.9614
2.8434 9.1929 -2.0340 0.9614
1.1938 9.5482 -2.0340 0.9614
8.4510 1.8658 -2.0340 0.9651
7.9951 3.3134 -2.0340 0.9651
6.8568 5.2807 -2.0340 0.9651
6.3674 5.8616 -2.0340 0.9651
5.8289 6.3973 -2.0340 0.9651
4.6217 7.3171 -2.0340 0.9651
3.2724 8.0120 -2.0340 0.9651
2.5573 8.2680 -2.0340 0.9651
1.0736 8.5876 -2.0340 0.9651
0.3165 8.6487 -2.0340 0.9651
7.6710 1.6936 -2.0340 0.9681
6.9656 3.6324 -2.0340 0.9681
6.6202 4.2291 -2.0340 0.9681
6.2239 4.7933 -2.0340 0.9681
4.7614 6.2484 -2.0340 0.9681
2.9704 7.2725 -2.0340 0.9681
2.3213 7.5050 -2.0340 0.9681
1.6543 7.6796 -2.0340 0.9681
0.9746 7.7951 -2.0340 0.9681
7.1247 0.9279 -2.0340 0.9706
7.0159 1.5490 -2.0340 0.9706
6.3707 3.3221 -2.0340 0.9706
6.0549 3.8679 -2.0340 0.9706
5.6924 4.3839 -2.0340 0.9706
5.2861 4.8662 -2.0340 0.9706
4.8391 5.3110 -2.0340 0.9706
3.8369 6.0746 -2.0340 0.9706
3.2895 6.3877 -2.0340 0.9706
2.7167 6.6515 -2.0340 0.9706
1.5130 7.0237 -2.0340 0.9706
0.8913 7.1294 -2.0340 0.9706
0.2628 7.1800 -2.0340 0.9706
6.4573 1.4256 -2.0340 0.9727
6.3075 1.9864 -2.0340 0.9727
6.1090 2.5318 -2.0340 0.9727
5.8636 3.0577 -2.0340 0.9727
5.2393 4.0349 -2.0340 0.9727
4.4539 4.8881 -2.0340 0.9727
4.0081 5.2598 -2.0340 0.9727
3.5314 5.5910 -2.0340 0.9727
1.3925 6.4646 -2.0340 0.9727
0.2419 6.6084 -2.0340 0.9727
6.0677 0.7902 -2.0340 0.9745
5.8364 1.8380 -2.0340 0.9745
4.8479 3.7336 -2.0340 0.9745
3.7087 4.8670 -2.0340 0.9745
2.8015 5.4400 -2.0340 0.9745
2.3137 5.6647 -2.0340 0.9745
0.7591 6.0717 -2.0340 0.9745
5.2544 2.1775 -2.0340 0.9761
5.0432 2.6299 -2.0340 0.9761
3.8307 4.2043 -2.0340 0.9761
3.4473 4.5240 -2.0340 0.9761
3.0374 4.8088 -2.0340 0.9761
1.1977 5.5602 -2.0340 0.9761
5.1828 1.1442 -2.0340 0.9775
4.7061 2.4541 -2.0340 0.9775
4.2050 3.2385 -2.0340 0.9775
3.9050 3.5948 -2.0340 0.9775
3.5747 3.9233 -2.0340 0.9775
2.8344 4.4874 -2.0340 0.9775
2.4300 4.7187 -2.0340 0.9775
2.0069 4.9136 -2.0340 0.9775
4.9280 0.6418 -2.0340 0.9787
4.5911 1.9026 -2.0340 0.9787
4.1881 2.6754 -2.0340 0.9787
3.3471 3.6735 -2.0340 0.9787
2.2753 4.4182 -2.0340 0.9787
0.1817 4.9663 -2.0340 0.9787
4.6279 0.6027 -2.0339 0.9798
4.5573 1.0062 -2.0340 0.9798
4.3114 1.7868 -2.0340 0.9798
4.1382 2.1579 -2.0340 0.9798
3.6975 2.8476 -2.0340 0.9798
2.8287 3.7121 -2.0340 0.9798
1.7647 4.3205 -2.0340 0.9798
1.3791 4.4586 -2.0340 0.9798
0.9828 4.5623 -2.0340 0.9798
0.5789 4.6309 -2.0340 0.9798
0.1707 4.6639 -2.0340 0.9798
4.2907 0.9473 -2.0339 0.9808
4.1912 1.3199 -2.0340 0.9808
3.8961 2.0318 -2.0340 0.9808
3.7030 2.3655 -2.0340 0.9808
3.4814 2.6811 -2.0340 0.9808
3.2329 2.9760 -2.0340 0.9808
2.6632 3.4950 -2.0340 0.9808
2.3465 3.7151 -2.0340 0.9808
1.6615 4.0679 -2.0340 0.9808
1.2984 4.1979 -2.0340 0.9808
0.5451 4.3601 -2.0340 0.9808
3.6766 1.9173 -2.0340 0.9817
3.2852 2.5301 -2.0340 0.9817
2.7927 3.0650 -2.0340 0.9817
2.2143 3.5057 -2.0340 0.9817
1.5679 3.8387 -2.0340 0.9817
0.8732 4.0535 -2.0340 0.9817
0.5144 4.1144 -2.0340 0.9817
3.7396 1.1777 -2.0339 0.9825
3.3040 2.1107 -2.0340 0.9825
3.1063 2.3922 -2.0340 0.9825
2.8845 2.6554 -2.0340 0.9825
2.0937 3.3148 -2.0340 0.9825
1.4825 3.6296 -2.0340 0.9825
1.1585 3.7455 -2.0340 0.9825
0.8256 3.8327 -2.0340 0.9825
0.4864 3.8904 -2.0339 0.9825
1.8573 0.4100 -1.0418 0.9914
1.8827 0.5929 -1.0811 0.9910
3.1296 1.9992 -2.0339 0.9832
2.9421 2.2659 -2.0340 0.9832
2.7322 2.5152 -2.0340 0.9832
2.5011 2.7450 -2.0340 0.9832
1.9832 3.1397 -2.0340 0.9832
1.7002 3.3015 -2.0340 0.9832
1.4042 3.4379 -2.0340 0.9832
0.7820 3.6303 -2.0339 0.9832
0.4607 3.6849 -2.0339 0.9832
1.7149 0.3786 -1.0140 0.9919
1.7206 0.5418 -1.0415 0.9917
1.7600 0.7294 -1.0999 0.9912
2.5919 2.3860 -2.0339 0.9839
2.1352 2.8021 -2.0340 0.9839
1.8813 2.9785 -2.0339 0.9839
1.3321 3.2613 -2.0339 0.9839
0.7419 3.4439 -2.0339 0.9839
