ply
format ascii 1.0
element vertex 170
property float32 x
property float32 y
property float32 z
property float32 I
end_header
-17.0089 -1.9553 -2.0337 0.9334
-16.3651 -5.0304 -2.0337 0.9334
-15.1701 -7.9360 -2.0337 0.9334
-13.4645 -10.5745 -2.0337 0.9334
-11.3054 -12.8568 -2.0337 0.9334
-10.0780 -13.8398 -2.0337 0.9334
-8.7656 -14.7061 -2.0337 0.9334
-7.3793 -15.4484 -2.0337 0.9334
-5.9308 -16.0604 -2.0337 0.9334
-4.4322 -16.5369 -2.0337 0.9334
-2.8963 -16.8739 -2.0337 0.9334
-14.0491 -2.9407 -2.0337 0.9437
-13.7200 -4.2173 -2.0337 0.9437
-12.7182 -6.6533 -2.0337 0.9437
-8.4491 -11.6029 -2.0337 0.9437
-3.7158 -13.8641 -2.0337 0.9437
-2.4280 -14.1466 -2.0337 0.9437
-1.1198 -14.3097 -2.0337 0.9437
-12.0835 -2.5293 -2.0338 0.9512
-10.9388 -5.7225 -2.0337 0.9512
-9.7089 -7.6250 -2.0337 0.9512
-6.3207 -10.6043 -2.0337 0.9512
-3.1959 -11.9244 -2.0337 0.9512
-2.0884 -12.1673 -2.0337 0.9512
-0.9631 -12.3077 -2.0338 0.9512
-10.7495 -1.2357 -2.0338 0.9569
-10.3426 -3.1792 -2.0338 0.9569
-10.0073 -4.1147 -2.0338 0.9569
-9.5875 -5.0155 -2.0338 0.9569
-7.1450 -8.1255 -2.0337 0.9569
-5.5399 -9.2943 -2.0337 0.9569
-0.8442 -10.7872 -2.0338 0.9569
0.1491 -10.8193 -2.0338 0.9569
-9.5586 -1.0988 -2.0338 0.9614
-8.8986 -3.6589 -2.0338 0.9614
-8.5254 -4.4599 -2.0338 0.9614
-7.5668 -5.9427 -2.0338 0.9614
-6.9896 -6.6119 -2.0338 0.9614
-5.6637 -7.7778 -2.0338 0.9614
-4.9261 -8.2646 -2.0338 0.9614
-2.4908 -9.2934 -2.0338 0.9614
-8.4701 -1.7729 -2.0338 0.9651
-8.2717 -2.5426 -2.0338 0.9651
-7.6678 -4.0113 -2.0338 0.9651
-6.8056 -5.3449 -2.0338 0.9651
-6.2865 -5.9468 -2.0338 0.9651
-5.7143 -6.4985 -2.0338 0.9651
-5.0940 -6.9954 -2.0338 0.9651
-4.4306 -7.4332 -2.0338 0.9651
-3.7299 -7.8084 -2.0338 0.9651
-2.2403 -8.3586 -2.0338 0.9651
-1.4639 -8.5289 -2.0338 0.9651
0.1193 -8.6528 -2.0338 0.9651
-7.8037 -0.8971 -2.0338 0.9681
-7.6884 -1.6093 -2.0338 0.9681
-6.1776 -4.8516 -2.0338 0.9681
-5.7063 -5.3979 -2.0338 0.9681
-5.1870 -5.8988 -2.0338 0.9681
-4.6239 -6.3498 -2.0338 0.9681
-3.3857 -7.0879 -2.0338 0.9681
-2.7211 -7.3686 -2.0338 0.9681
-1.3288 -7.7418 -2.0338 0.9681
-0.6129 -7.8311 -2.0338 0.9681
0.1082 -7.8543 -2.0338 0.9681
-7.1373 -0.8205 -2.0338 0.9706
-7.0319 -1.4719 -2.0338 0.9706
-6.8672 -2.1109 -2.0338 0.9706
-6.6445 -2.7321 -2.0338 0.9706
-6.3658 -3.3302 -2.0338 0.9706
-5.2191 -4.9370 -2.0338 0.9706
-4.7441 -5.3951 -2.0338 0.9706
-1.2153 -7.0807 -2.0338 0.9706
-0.5605 -7.1624 -2.0338 0.9706
-5.5531 -3.5897 -2.0338 0.9727
-4.8036 -4.5440 -2.0338 0.9727
-3.8924 -5.3453 -2.0338 0.9727
-3.3855 -5.6799 -2.0338 0.9727
-2.8501 -5.9666 -2.0338 0.9727
-2.2906 -6.2029 -2.0338 0.9727
-1.1186 -6.5171 -2.0338 0.9727
-0.5159 -6.5922 -2.0338 0.9727
0.0912 -6.6118 -2.0338 0.9727
-5.6588 -2.3268 -2.0338 0.9745
-5.1384 -3.3217 -2.0338 0.9745
-4.8119 -3.7791 -2.0338 0.9745
-4.0403 -4.5947 -2.0338 0.9745
-3.6017 -4.9461 -2.0338 0.9745
-2.6373 -5.5209 -2.0338 0.9745
-1.5840 -5.9099 -2.0338 0.9745
-1.0350 -6.0303 -2.0338 0.9745
-0.4774 -6.0999 -2.0338 0.9745
-5.6502 -0.6495 -2.0338 0.9761
-5.5667 -1.1652 -2.0338 0.9761
-5.4363 -1.6711 -2.0338 0.9761
-5.2600 -2.1628 -2.0338 0.9761
-5.0394 -2.6363 -2.0338 0.9761
-4.1316 -3.9083 -2.0338 0.9761
-3.7556 -4.2710 -2.0338 0.9761
-2.4514 -5.1319 -2.0338 0.9761
-1.9702 -5.3352 -2.0338 0.9761
-0.9621 -5.6054 -2.0338 0.9761
0.0784 -5.6868 -2.0338 0.9761
-5.1947 -1.0873 -2.0338 0.9775
-5.0730 -1.5594 -2.0338 0.9775
-4.9085 -2.0183 -2.0338 0.9775
-4.7026 -2.4601 -2.0338 0.9775
-3.8555 -3.6472 -2.0338 0.9775
-2.2876 -4.7889 -2.0338 0.9775
-1.8385 -4.9786 -2.0338 0.9775
-1.3740 -5.1263 -2.0338 0.9775
-0.4141 -5.2911 -2.0338 0.9775
-2.1103 -0.2426 -0.8694 0.9909
-4.4032 -2.3035 -2.0338 0.9788
-4.1733 -2.6978 -2.0338 0.9788
-3.9082 -3.0693 -2.0338 0.9788
-3.6101 -3.4150 -2.0338 0.9788
-3.2816 -3.7318 -2.0338 0.9788
-2.5444 -4.2686 -2.0338 0.9788
-0.3877 -4.9542 -2.0338 0.9788
-1.9039 -0.3985 -0.8477 0.9915
-3.6702 -2.8824 -2.0338 0.9798
-3.3902 -3.2070 -2.0338 0.9798
-3.0817 -3.5045 -2.0338 0.9798
-2.7471 -3.7725 -2.0338 0.9798
-2.3894 -4.0086 -2.0338 0.9798
-2.0115 -4.2110 -2.0338 0.9798
-1.6166 -4.3778 -2.0338 0.9798
-1.2081 -4.5077 -2.0338 0.9798
-0.7895 -4.5995 -2.0338 0.9798
-3.6900 -2.3854 -2.0338 0.9808
-2.2496 -3.7743 -2.0338 0.9808
-1.5221 -4.1218 -2.0338 0.9808
-1.1375 -4.2441 -2.0338 0.9808
-0.7433 -4.3305 -2.0338 0.9808
-0.3428 -4.3805 -2.0338 0.9808
0.0605 -4.3935 -2.0339 0.9808
-1.3529 -0.1555 -0.6680 0.9940
-1.3314 -0.2787 -0.6672 0.9940
-1.2927 -0.3974 -0.6634 0.9940
-3.6739 -1.9220 -2.0338 0.9817
-3.4821 -2.2510 -2.0338 0.9817
-3.2608 -2.5610 -2.0338 0.9817
-3.0121 -2.8493 -2.0338 0.9817
-2.7380 -3.1137 -2.0338 0.9817
-2.4407 -3.3518 -2.0338 0.9817
-1.4363 -3.8896 -2.0338 0.9817
-1.0734 -4.0049 -2.0338 0.9817
-0.3235 -4.1337 -2.0339 0.9817
-1.1995 -0.1379 -0.6264 0.9946
-1.1773 -0.2464 -0.6240 0.9946
-1.1175 -0.4595 -0.6268 0.9946
-3.4738 -1.8173 -2.0339 0.9825
-3.2924 -2.1283 -2.0338 0.9825
-3.0832 -2.4215 -2.0338 0.9825
-2.8480 -2.6942 -2.0338 0.9825
-1.3581 -3.6777 -2.0338 0.9825
-1.0149 -3.7868 -2.0338 0.9825
0.0540 -3.9201 -2.0339 0.9825
-1.0775 -0.1239 -0.5941 0.9951
-1.0573 -0.2213 -0.5916 0.9951
-1.1086 -0.5800 -0.6853 0.9943
-2.6976 -2.5519 -2.0338 0.9832
-1.6006 -3.3508 -2.0338 0.9832
-0.2898 -3.7021 -2.0339 0.9832
-0.9731 -0.2037 -0.5740 0.9954
-0.9552 -0.2937 -0.5770 0.9954
-2.5591 -2.4209 -2.0339 0.9839
-2.3262 -2.6455 -2.0339 0.9839
-2.0737 -2.8478 -2.0339 0.9839
-0.2748 -3.5120 -2.0339 0.9839
