ply
format ascii 1.0
element vertex 183
property float32 x
property float32 y
property float32 z
property float32 I
end_header
-11.3504 12.8282 2.6240 0.9330
-12.6637 11.9807 2.2701 0.9321
-12.8173 12.1259 1.8947 0.9315
-12.7109 12.0253 1.4812 0.9322
-11.9920 13.5532 1.1222 0.9300
-16.4883 5.3535 -0.8792 0.9329
-2.1033 7.2976 -0.9021 0.9699
-10.1653 13.7790 -2.0340 0.9334
-13.4321 10.6185 -2.0339 0.9334
-14.3203 9.3861 -2.0339 0.9334
-15.0957 8.0799 -2.0339 0.9334
-16.2848 5.2875 -2.0338 0.9334
-16.9622 2.3289 -2.0338 0.9334
-17.1067 -0.7026 -2.0337 0.9334
-16.9769 -2.2160 -2.0337 0.9334
-16.7136 -3.7120 -2.0337 0.9334
-5.1826 13.3872 -2.0340 0.9437
-6.3487 12.8751 -2.0340 0.9437
-8.5221 11.5517 -2.0340 0.9437
-9.5123 10.7508 -2.0339 0.9437
-12.0055 7.8689 -2.0339 0.9437
-12.6556 6.7738 -2.0339 0.9437
-14.2329 -1.8579 -2.0338 0.9437
-4.4574 11.5141 -2.0340 0.9512
-6.4203 10.5460 -2.0340 0.9512
-7.3297 9.9353 -2.0339 0.9512
-10.8849 5.8261 -2.0339 0.9512
-11.3584 4.8383 -2.0339 0.9512
-11.7424 3.8126 -2.0338 0.9512
-12.2309 1.6793 -2.0338 0.9512
-2.0305 7.0450 -1.3781 0.9706
-4.7857 9.7054 -2.0340 0.9569
-7.1706 8.1041 -2.0339 0.9569
-8.4888 6.7106 -2.0339 0.9569
-9.5402 5.1063 -2.0339 0.9569
-10.2917 3.3415 -2.0338 0.9569
-10.5473 2.4162 -2.0338 0.9569
-10.7199 1.4719 -2.0338 0.9569
-10.8112 -0.4440 -2.0338 0.9569
-10.5629 -2.3460 -2.0338 0.9569
-2.0103 6.9750 -1.5344 0.9708
-4.2555 8.6301 -2.0340 0.9614
-5.7123 7.7431 -2.0339 0.9614
-6.3761 7.2062 -2.0339 0.9614
-8.4832 4.5405 -2.0339 0.9614
-8.8522 3.7708 -2.0339 0.9614
-9.5322 1.3088 -2.0338 0.9614
-9.6135 -0.3949 -2.0338 0.9614
-9.3927 -2.0861 -2.0338 0.9614
-3.1244 8.0706 -2.0340 0.9651
-4.5003 7.3921 -2.0339 0.9651
-6.2866 5.9475 -2.0339 0.9651
-8.2309 2.6724 -2.0339 0.9651
-8.4353 1.9324 -2.0338 0.9651
-8.5733 1.1771 -2.0338 0.9651
-8.6439 0.4126 -2.0338 0.9651
-8.6464 -0.3551 -2.0338 0.9651
-8.5809 -1.1201 -2.0338 0.9651
-8.4478 -1.8762 -2.0338 0.9651
-4.0850 6.7099 -2.0339 0.9681
-5.7064 5.3986 -2.0339 0.9681
-6.1624 4.8715 -2.0339 0.9681
-7.6568 1.7540 -2.0339 0.9681
-7.7821 1.0685 -2.0338 0.9681
-7.8462 0.3745 -2.0338 0.9681
-1.9898 6.9037 -2.0340 0.9706
-2.5939 6.7002 -2.0340 0.9706
-3.7361 6.1369 -2.0339 0.9706
-4.2653 5.7816 -2.0339 0.9706
-4.7609 5.3807 -2.0339 0.9706
-5.6362 4.4555 -2.0339 0.9706
-6.3343 3.3904 -2.0339 0.9706
-6.6098 2.8156 -2.0339 0.9706
-6.8333 2.2187 -2.0339 0.9706
-7.0030 1.6043 -2.0339 0.9706
-7.1176 0.9772 -2.0339 0.9706
-7.1783 -0.2948 -2.0338 0.9706
-7.1239 -0.9299 -2.0338 0.9706
-2.9245 5.9309 -2.0339 0.9727
-3.4386 5.6483 -2.0339 0.9727
-3.9257 5.3213 -2.0339 0.9727
-5.1875 4.1008 -2.0339 0.9727
-5.5304 3.6249 -2.0339 0.9727
-5.8300 3.1204 -2.0339 0.9727
-6.2893 2.0420 -2.0339 0.9727
-6.6049 0.3153 -2.0338 0.9727
-6.5568 -0.8559 -2.0338 0.9727
-1.6946 5.8795 -2.0340 0.9745
-2.2090 5.7062 -2.0339 0.9745
-2.7061 5.4879 -2.0339 0.9745
-3.1818 5.2265 -2.0339 0.9745
-4.0546 4.5825 -2.0339 0.9745
-4.8000 3.7946 -2.0339 0.9745
-5.1174 3.3542 -2.0339 0.9745
-5.3945 2.8874 -2.0339 0.9745
-5.6292 2.3979 -2.0339 0.9745
-5.9641 1.3663 -2.0339 0.9745
-6.0617 0.8323 -2.0339 0.9745
-6.1134 -0.2511 -2.0338 0.9745
-1.5752 5.4652 -2.0339 0.9761
-2.0534 5.3040 -2.0339 0.9761
-2.9576 4.8581 -2.0339 0.9761
-3.3765 4.5769 -2.0339 0.9761
-4.4618 3.5271 -2.0339 0.9761
-4.7568 3.1178 -2.0339 0.9761
-5.0143 2.6839 -2.0339 0.9761
-5.2325 2.2289 -2.0339 0.9761
-5.4095 1.7563 -2.0339 0.9761
-5.6345 0.7736 -2.0339 0.9761
-5.6826 -0.2334 -2.0338 0.9761
-5.6395 -0.7362 -2.0338 0.9761
-5.5521 -1.2331 -2.0338 0.9761
-1.4699 5.0999 -2.0339 0.9775
-2.7599 4.5334 -2.0339 0.9775
-4.4389 2.9094 -2.0339 0.9775
-4.6793 2.5045 -2.0339 0.9775
-5.0479 1.6390 -2.0339 0.9775
-5.1733 1.1851 -2.0339 0.9775
-5.2580 0.7219 -2.0339 0.9775
-1.3763 4.7752 -2.0339 0.9788
-2.1978 4.4572 -2.0339 0.9788
-2.5842 4.2448 -2.0339 0.9788
-4.1563 2.7242 -2.0339 0.9788
-4.3814 2.3451 -2.0339 0.9788
-4.5720 1.9475 -2.0339 0.9788
-2.1098 0.2896 -0.8716 0.9908
-2.1223 0.1013 -0.8696 0.9909
-2.1226 -0.0872 -0.8695 0.9909
-2.1077 -0.2752 -0.8700 0.9909
-1.2925 4.4844 -2.0339 0.9798
-2.7706 3.7555 -2.0339 0.9798
-3.9032 2.5583 -2.0339 0.9798
-1.9022 0.2611 -0.8368 0.9917
-1.9186 -0.0788 -0.8368 0.9917
-1.9025 -0.4226 -0.8493 0.9915
-1.2169 4.2222 -2.0339 0.9808
-2.6086 3.5359 -2.0339 0.9808
-3.4470 2.7249 -2.0339 0.9808
-3.6749 2.4087 -2.0339 0.9808
-3.8739 2.0735 -2.0339 0.9808
-1.6231 0.5270 -0.7899 0.9925
-1.6106 0.2211 -0.7525 0.9929
-1.5915 0.0759 -0.7375 0.9930
-1.6104 -0.2102 -0.7517 0.9929
-1.5909 -0.3534 -0.7543 0.9928
-1.1483 3.9843 -2.0339 0.9817
-2.1561 3.5417 -2.0339 0.9817
-2.4616 3.3367 -2.0339 0.9817
-2.7476 3.1054 -2.0339 0.9817
-3.0121 2.8496 -2.0339 0.9817
-3.2527 2.5714 -2.0339 0.9817
-3.4679 2.2730 -2.0339 0.9817
-3.6556 1.9567 -2.0339 0.9817
-1.2843 0.4170 -0.6624 0.9940
-1.3251 0.3035 -0.6668 0.9940
-1.3487 0.0644 -0.6624 0.9940
-1.3275 -0.2949 -0.6670 0.9940
-1.0858 3.7672 -2.0339 0.9825
-1.4154 3.6562 -2.0339 0.9825
-2.3275 3.1549 -2.0339 0.9825
-2.8480 2.6944 -2.0339 0.9825
-3.0756 2.4313 -2.0339 0.9825
-3.4566 1.8501 -2.0339 0.9825
-1.1125 0.4738 -0.6273 0.9946
-1.1406 0.3703 -0.6221 0.9946
-1.1721 0.2685 -0.6238 0.9946
-1.1968 0.1643 -0.6267 0.9946
-1.1738 -0.2607 -0.6238 0.9946
-1.0284 3.5683 -2.0339 0.9832
-1.3406 3.4631 -2.0339 0.9832
-1.6423 3.3306 -2.0339 0.9832
-1.9310 3.1720 -2.0339 0.9832
-2.4608 2.7812 -2.0339 0.9832
-2.9132 2.3029 -2.0339 0.9832
-1.0052 0.4281 -0.5984 0.9950
-1.0510 0.2407 -0.5905 0.9951
-1.0743 0.1475 -0.5939 0.9951
-1.0754 -0.1404 -0.5940 0.9951
-1.0533 -0.2340 -0.5909 0.9951
-1.5580 3.1596 -2.0339 0.9839
-2.9463 1.9312 -2.0339 0.9839
-0.9689 0.2219 -0.5739 0.9954
-0.9900 0.0472 -0.5722 0.9954
