ply
format ascii 1.0
element vertex 193
property float32 x
property float32 y
property float32 z
property float32 I
end_header
2.7556 -6.1454 -0.6466 0.9733
-13.3902 -10.6683 -2.0337 0.9334
-12.4010 -11.8034 -2.0337 0.9334
-10.1435 -13.7919 -2.0337 0.9334
-8.8925 -14.6297 -2.0337 0.9334
-7.5728 -15.3545 -2.0337 0.9334
-4.7683 -16.4431 -2.0337 0.9334
-3.3052 -16.7985 -2.0337 0.9334
1.1913 -17.0794 -2.0337 0.9334
2.2710 -6.5540 -0.8239 0.9724
2.6769 -5.9698 -0.7772 0.9740
8.3509 -14.9470 -2.0338 0.9334
9.6320 -14.1556 -2.0338 0.9334
-9.4870 -10.7709 -2.0337 0.9437
-8.5041 -11.5627 -2.0337 0.9437
-5.1933 -13.3809 -2.0337 0.9437
-3.9976 -13.7854 -2.0337 0.9437
-2.7710 -14.0834 -2.0337 0.9437
0.9988 -14.3188 -2.0337 0.9437
2.2530 -14.1757 -2.0338 0.9437
1.6566 -6.6095 -0.9655 0.9728
7.0011 -12.5309 -2.0338 0.9437
-9.6554 -7.6927 -2.0337 0.9512
-8.1598 -9.2639 -2.0337 0.9512
-6.4123 -10.5492 -2.0337 0.9512
-5.4606 -11.0718 -2.0337 0.9512
-4.4668 -11.5088 -2.0337 0.9512
-3.4383 -11.8567 -2.0337 0.9512
-2.3833 -12.1130 -2.0337 0.9512
2.0925 -6.0390 -1.0529 0.9744
6.9452 -10.2070 -2.0338 0.9512
-8.4626 -6.7424 -2.0338 0.9569
-7.1518 -8.1195 -2.0337 0.9569
-6.4107 -8.7165 -2.0337 0.9569
-5.6201 -9.2460 -2.0337 0.9569
-4.7860 -9.7041 -2.0338 0.9569
-1.1480 -10.7591 -2.0338 0.9569
-0.1984 -10.8184 -2.0338 0.9569
1.6984 -10.6862 -2.0338 0.9569
2.0663 -5.9633 -1.1862 0.9746
6.0872 -8.9461 -2.0339 0.9569
-7.5251 -5.9954 -2.0338 0.9614
-6.9692 -6.6334 -2.0338 0.9614
-4.2558 -8.6290 -2.0338 0.9614
-2.6798 -9.2407 -2.0338 0.9614
-1.0209 -9.5672 -2.0338 0.9614
-0.1764 -9.6199 -2.0338 0.9614
0.6695 -9.5982 -2.0338 0.9614
1.5620 -6.2320 -1.3581 0.9741
2.0018 -5.7773 -1.2924 0.9753
3.2042 -5.7350 -1.3886 0.9735
5.4128 -7.9549 -2.0339 0.9614
-6.7681 -5.3923 -2.0338 0.9651
-5.7197 -6.4937 -2.0338 0.9651
-5.1271 -6.9712 -2.0338 0.9651
-4.4948 -7.3946 -2.0338 0.9651
-3.8277 -7.7610 -2.0338 0.9651
-2.4102 -8.3112 -2.0338 0.9651
-1.6706 -8.4908 -2.0338 0.9651
-0.9182 -8.6048 -2.0338 0.9651
-0.1586 -8.6522 -2.0338 0.9651
1.3583 -8.5464 -2.0338 0.9651
1.5186 -6.0587 -1.4680 0.9747
2.5781 -5.7495 -1.4809 0.9744
3.1528 -5.6431 -1.5192 0.9738
-5.6897 -5.4155 -2.0338 0.9681
-5.1919 -5.8945 -2.0338 0.9681
-4.0800 -6.7123 -2.0338 0.9681
-3.4745 -7.0447 -2.0338 0.9681
-2.8421 -7.3228 -2.0338 0.9681
-2.1877 -7.5442 -2.0338 0.9681
-1.5164 -7.7073 -2.0338 0.9681
-0.1440 -7.8537 -2.0338 0.9681
1.2330 -7.7577 -2.0338 0.9681
1.5017 -5.9915 -1.5993 0.9748
4.4191 -6.4944 -2.0339 0.9681
-5.6189 -4.4767 -2.0338 0.9706
-5.2039 -4.9531 -2.0338 0.9706
-4.7486 -5.3911 -2.0338 0.9706
-3.1778 -6.4432 -2.0338 0.9706
-0.7623 -7.1437 -2.0338 0.9706
-0.1317 -7.1831 -2.0338 0.9706
1.1277 -7.0953 -2.0338 0.9706
1.5109 -6.0279 -1.7592 0.9745
2.7242 -6.0753 -1.8849 0.9727
4.0417 -5.9398 -2.0339 0.9706
-5.1716 -4.1204 -2.0338 0.9727
-2.9248 -5.9303 -2.0338 0.9727
-2.3925 -6.1643 -2.0338 0.9727
1.0379 -6.5305 -2.0338 0.9727
1.6077 -6.4140 -2.0338 0.9727
2.0640 -5.9566 -1.9390 0.9740
2.7055 -6.0337 -2.0339 0.9727
3.2252 -5.7727 -2.0339 0.9727
-4.7854 -3.8126 -2.0338 0.9745
-4.4319 -4.2183 -2.0338 0.9745
-4.0442 -4.5914 -2.0338 0.9745
-3.6251 -4.9289 -2.0338 0.9745
-2.2138 -5.7040 -2.0338 0.9745
-1.7041 -5.8764 -2.0338 0.9745
-1.1812 -6.0034 -2.0338 0.9745
-0.6492 -6.0840 -2.0338 0.9745
0.4258 -6.1037 -2.0338 0.9745
0.9604 -6.0427 -2.0338 0.9745
1.4875 -5.9350 -2.0338 0.9745
2.5035 -5.5830 -2.0339 0.9745
2.9843 -5.3415 -2.0339 0.9745
3.4421 -5.0586 -2.0339 0.9745
-4.4482 -3.5440 -2.0338 0.9761
-4.1196 -3.9211 -2.0338 0.9761
-3.7591 -4.2678 -2.0338 0.9761
-3.3696 -4.5816 -2.0338 0.9761
-2.9541 -4.8599 -2.0338 0.9761
-2.0578 -5.3020 -2.0338 0.9761
-1.0980 -5.5804 -2.0338 0.9761
-0.1043 -5.6864 -2.0338 0.9761
1.3827 -5.5168 -2.0339 0.9761
2.7740 -4.9651 -2.0339 0.9761
3.1995 -4.7021 -2.0339 0.9761
-4.1509 -3.3071 -2.0338 0.9775
-2.7566 -4.5351 -2.0338 0.9775
-2.3476 -4.7598 -2.0338 0.9775
-1.9203 -4.9477 -2.0338 0.9775
-1.4781 -5.0972 -2.0338 0.9775
-1.0246 -5.2074 -2.0338 0.9775
-0.0973 -5.3064 -2.0338 0.9775
0.3693 -5.2944 -2.0338 0.9775
0.8330 -5.2415 -2.0338 0.9775
1.7377 -5.0148 -2.0339 0.9775
2.1715 -4.8428 -2.0339 0.9775
2.5886 -4.6332 -2.0339 0.9775
2.9857 -4.3879 -2.0339 0.9775
-3.8866 -3.0966 -2.0338 0.9788
-2.5812 -4.2464 -2.0338 0.9788
-1.3841 -4.7728 -2.0338 0.9788
-0.9594 -4.8759 -2.0338 0.9788
-0.5273 -4.9413 -2.0338 0.9788
0.3458 -4.9574 -2.0338 0.9788
1.2082 -4.8203 -2.0339 0.9788
1.6270 -4.6956 -2.0339 0.9788
2.0333 -4.5345 -2.0339 0.9788
-2.7649 -3.7594 -2.0338 0.9798
-2.0642 -4.1854 -2.0338 0.9798
-1.6885 -4.3506 -2.0338 0.9798
-1.2998 -4.4821 -2.0338 0.9798
-0.9010 -4.5790 -2.0338 0.9798
0.3247 -4.6555 -2.0339 0.9798
0.7325 -4.6089 -2.0339 0.9798
1.1346 -4.5268 -2.0339 0.9798
2.6254 -3.8584 -2.0339 0.9798
-3.4365 -2.7379 -2.0338 0.9808
-0.8483 -4.3112 -2.0338 0.9808
-0.4662 -4.3691 -2.0338 0.9808
0.3057 -4.3832 -2.0339 0.9808
0.6896 -4.3394 -2.0339 0.9808
1.4386 -4.1517 -2.0339 0.9808
1.7978 -4.0093 -2.0339 0.9808
2.1430 -3.8359 -2.0339 0.9808
-3.0033 -2.8586 -2.0338 0.9817
-2.7406 -3.1114 -2.0338 0.9817
-2.1536 -3.5431 -2.0338 0.9817
-1.8340 -3.7186 -2.0338 0.9817
-1.5002 -3.8654 -2.0338 0.9817
-0.8005 -4.0683 -2.0338 0.9817
-0.4400 -4.1229 -2.0339 0.9817
-0.0760 -4.1456 -2.0339 0.9817
0.6508 -4.0949 -2.0339 0.9817
1.0081 -4.0219 -2.0339 0.9817
1.3575 -3.9178 -2.0339 0.9817
2.3325 -3.4280 -2.0339 0.9817
-2.8397 -2.7029 -2.0338 0.9825
-2.5913 -2.9420 -2.0338 0.9825
-2.0363 -3.3501 -2.0338 0.9825
-0.7569 -3.8467 -2.0339 0.9825
0.2728 -3.9110 -2.0339 0.9825
0.9532 -3.8029 -2.0339 0.9825
-2.6898 -2.5602 -2.0338 0.9832
-2.2002 -2.9915 -2.0338 0.9832
-1.9288 -3.1732 -2.0338 0.9832
-1.3436 -3.4618 -2.0339 0.9832
-1.0343 -3.5665 -2.0339 0.9832
-0.3940 -3.6925 -2.0339 0.9832
-0.0681 -3.7128 -2.0339 0.9832
0.2584 -3.7044 -2.0339 0.9832
0.5829 -3.6674 -2.0339 0.9832
0.9029 -3.6020 -2.0339 0.9832
-2.7552 -2.1951 -2.0339 0.9839
-2.0871 -2.8379 -2.0339 0.9839
-0.9811 -3.3834 -2.0339 0.9839
-0.3738 -3.5029 -2.0339 0.9839
0.2451 -3.5143 -2.0339 0.9839
1.4413 -3.2144 -2.0339 0.9839
1.9818 -2.9125 -2.0339 0.9839
