ply
format ascii 1.0
element vertex 250
property float32 x
property float32 y
property float32 z
property float32 I
end_header
3.0982 18.6744 2.8999 0.9263
1.4329 18.6977 2.8728 0.9269
3.1339 18.8901 2.4935 0.9257
1.3384 17.4660 2.2811 0.9318
2.9034 17.5003 1.9049 0.9311
2.9243 17.6265 1.5125 0.9308
1.3816 18.0303 1.1213 0.9301
3.0076 18.1284 -0.1035 0.9291
16.4524 -4.4511 -1.2497 0.9339
17.8248 -3.1754 -1.3275 0.9300
13.2114 9.3333 -1.1860 0.9372
15.4914 -7.2944 -2.0340 0.9334
16.8579 -3.0031 -2.0340 0.9334
17.0583 1.4962 -2.0341 0.9333
14.7998 8.6143 -2.0341 0.9333
13.1853 9.3149 -1.9176 0.9370
13.0646 11.0707 -2.0341 0.9333
12.0420 12.1752 -2.0341 0.9333
10.9264 13.1856 -2.0341 0.9333
7.1104 15.5784 -2.0341 0.9333
4.2754 16.5820 -2.0341 0.9333
1.3084 17.0740 -2.0341 0.9333
13.4741 -4.9513 -2.0340 0.9437
14.3555 -0.0063 -2.0340 0.9437
14.3007 1.2544 -2.0340 0.9437
14.1354 2.5053 -2.0340 0.9437
13.8609 3.7369 -2.0341 0.9437
12.4073 7.2217 -2.0341 0.9437
10.0953 10.2070 -2.0341 0.9437
8.1539 11.8157 -2.0341 0.9437
7.0848 12.4861 -2.0341 0.9437
5.9610 13.0600 -2.0341 0.9437
4.7911 13.5329 -2.0341 0.9437
11.1700 -5.2596 -2.0339 0.9512
11.9181 -3.2244 -2.0340 0.9512
12.1554 -2.1654 -2.0340 0.9512
12.2986 -1.0896 -2.0340 0.9512
12.3468 -0.0054 -2.0340 0.9512
6.0934 10.7389 -2.0341 0.9512
3.0827 11.9562 -2.0341 0.9512
2.0209 12.1806 -2.0341 0.9512
0.9434 12.3110 -2.0340 0.9512
-0.1412 12.3462 -2.0340 0.9512
9.7900 -4.6098 -2.0339 0.9569
10.4457 -2.8260 -2.0340 0.9569
10.7791 -0.9550 -2.0340 0.9569
9.7946 4.6014 -2.0340 0.9569
9.3527 5.4438 -2.0340 0.9569
8.8385 6.2440 -2.0340 0.9569
8.2561 6.9961 -2.0340 0.9569
7.6098 7.6941 -2.0341 0.9569
5.3405 9.4121 -2.0341 0.9569
1.7712 10.6757 -2.0340 0.9569
-0.1238 10.8208 -2.0340 0.9569
9.0317 -3.3188 -2.0339 0.9614
9.2883 -2.5129 -2.0340 0.9614
9.6224 -0.0042 -2.0340 0.9614
9.4748 1.6793 -2.0340 0.9614
9.2908 2.5048 -2.0340 0.9614
9.0350 3.3110 -2.0340 0.9614
8.7093 4.0916 -2.0340 0.9614
8.3164 4.8406 -2.0340 0.9614
7.8592 5.5522 -2.0340 0.9614
6.1397 7.4093 -2.0340 0.9614
4.7488 8.3692 -2.0340 0.9614
3.9955 8.7539 -2.0340 0.9614
3.2114 9.0709 -2.0340 0.9614
0.7352 9.5944 -2.0340 0.9614
7.8296 -3.6867 -2.0339 0.9651
8.1232 -2.9849 -2.0339 0.9651
8.3539 -2.2601 -2.0339 0.9651
8.5202 -1.5178 -2.0340 0.9651
8.6213 0.7562 -2.0340 0.9651
7.8332 3.6800 -2.0340 0.9651
7.4798 4.3536 -2.0340 0.9651
7.0686 4.9937 -2.0340 0.9651
6.0859 6.1533 -2.0340 0.9651
5.5221 6.6639 -2.0340 0.9651
1.4165 8.5378 -2.0340 0.9651
0.6612 8.6292 -2.0340 0.9651
-0.0990 8.6539 -2.0340 0.9651
7.8250 -0.6933 -2.0340 0.9681
7.8257 0.6864 -2.0340 0.9681
7.7352 1.3710 -2.0340 0.9681
7.5849 2.0449 -2.0340 0.9681
7.3761 2.7031 -2.0340 0.9681
7.1102 3.3403 -2.0340 0.9681
6.7895 3.9518 -2.0340 0.9681
6.4162 4.5328 -2.0340 0.9681
5.5243 5.5854 -2.0340 0.9681
3.2619 7.1466 -2.0340 0.9681
2.6218 7.4054 -2.0340 0.9681
0.6002 7.8328 -2.0340 0.9681
6.5001 -3.0607 -2.0339 0.9706
6.9354 -1.8763 -2.0339 0.9706
7.1567 -0.6341 -2.0340 0.9706
7.1848 -0.0031 -2.0340 0.9706
7.1573 0.6278 -2.0340 0.9706
7.0746 1.2539 -2.0340 0.9706
6.9372 1.8703 -2.0340 0.9706
6.7462 2.4722 -2.0340 0.9706
6.2096 3.6143 -2.0340 0.9706
5.8682 4.1457 -2.0340 0.9706
5.0525 5.1084 -2.0340 0.9706
3.5458 6.2490 -2.0340 0.9706
1.7938 6.9573 -2.0340 0.9706
6.2070 -2.2808 -2.0339 0.9727
6.5103 -1.1597 -2.0339 0.9727
6.6129 -0.0029 -2.0340 0.9727
6.3849 1.7214 -2.0340 0.9727
5.4011 3.8156 -2.0340 0.9727
5.0451 4.2752 -2.0340 0.9727
4.6502 4.7017 -2.0340 0.9727
4.2194 5.0919 -2.0340 0.9727
3.7560 5.4428 -2.0340 0.9727
1.0823 6.5237 -2.0340 0.9727
5.5358 -2.6066 -2.0339 0.9745
5.9065 -1.5980 -2.0339 0.9745
6.0240 -1.0731 -2.0339 0.9745
6.0950 -0.5400 -2.0339 0.9745
6.0955 0.5346 -2.0340 0.9745
5.7453 2.1054 -2.0340 0.9745
5.2884 3.0781 -2.0340 0.9745
4.6683 3.9558 -2.0340 0.9745
3.9043 4.7116 -2.0340 0.9745
3.4754 5.0362 -2.0340 0.9745
3.0197 5.3219 -2.0340 0.9745
2.0421 5.7681 -2.0340 0.9745
1.5277 5.9252 -2.0340 0.9745
-0.0700 6.1185 -2.0340 0.9745
5.1457 -2.4229 -2.0339 0.9761
5.3386 -1.9617 -2.0339 0.9761
5.5995 -0.9975 -2.0339 0.9761
5.6659 0.4970 -2.0340 0.9761
5.3404 1.9571 -2.0340 0.9761
5.1479 2.4185 -2.0340 0.9761
3.6291 4.3795 -2.0340 0.9761
3.2305 4.6813 -2.0340 0.9761
2.8069 4.9468 -2.0340 0.9761
2.3617 5.1742 -2.0340 0.9761
1.4200 5.5076 -2.0340 0.9761
0.4346 5.6711 -2.0340 0.9761
5.1234 -1.3861 -2.0339 0.9775
5.2253 -0.9309 -2.0339 0.9775
5.2868 -0.4684 -2.0339 0.9775
5.2262 0.9262 -2.0340 0.9775
5.1246 1.3816 -2.0340 0.9775
4.9835 1.8263 -2.0340 0.9775
4.8039 2.2568 -2.0340 0.9775
4.3350 3.0625 -2.0340 0.9775
4.0493 3.4313 -2.0340 0.9775
3.7323 3.7737 -2.0340 0.9775
3.3866 4.0868 -2.0340 0.9775
3.0146 4.3684 -2.0340 0.9775
2.2039 4.8284 -2.0340 0.9775
1.7713 5.0033 -2.0340 0.9775
1.3252 5.1395 -2.0340 0.9775
-0.0607 5.3072 -2.0340 0.9775
4.4961 -2.1171 -2.0339 0.9788
4.6646 -1.7141 -2.0339 0.9788
4.9502 -0.4386 -2.0339 0.9788
4.9696 -0.0022 -2.0339 0.9787
4.8934 0.8673 -2.0340 0.9787
4.7983 1.2936 -2.0340 0.9787
3.7915 3.2129 -2.0340 0.9787
3.4947 3.5334 -2.0340 0.9787
2.8227 4.0903 -2.0340 0.9787
2.4525 4.3223 -2.0340 0.9787
2.0635 4.5210 -2.0340 0.9787
1.6586 4.6848 -2.0340 0.9787
0.8134 4.9027 -2.0340 0.9787
-0.0569 4.9693 -2.0340 0.9788
4.3805 -1.6097 -2.0339 0.9798
4.5050 -1.2188 -2.0339 0.9798
4.2241 1.9844 -2.0340 0.9798
4.0335 2.3477 -2.0340 0.9798
3.8118 2.6929 -2.0340 0.9798
3.5606 3.0172 -2.0340 0.9798
3.2819 3.3182 -2.0340 0.9798
2.6507 3.8412 -2.0340 0.9798
2.3032 4.0591 -2.0340 0.9798
1.9379 4.2457 -2.0340 0.9798
0.7638 4.6040 -2.0340 0.9798
-0.0534 4.6667 -2.0340 0.9798
4.1243 -1.5156 -2.0339 0.9808
4.2416 -1.1475 -2.0339 0.9808
4.3259 -0.7706 -2.0339 0.9808
4.3769 -0.3878 -2.0339 0.9808
4.2426 1.1438 -2.0339 0.9808
4.1257 1.5119 -2.0340 0.9808
3.9771 1.8684 -2.0340 0.9808
3.3523 2.8407 -2.0340 0.9808
3.0900 3.1241 -2.0340 0.9808
2.1685 3.8217 -2.0340 0.9808
1.8245 3.9974 -2.0340 0.9808
1.4664 4.1421 -2.0340 0.9808
3.8920 -1.4301 -2.0339 0.9817
4.1306 0.3623 -2.0339 0.9817
4.0829 0.7236 -2.0339 0.9817
3.8933 1.4268 -2.0339 0.9817
3.5836 2.0859 -2.0340 0.9817
3.3866 2.3925 -2.0340 0.9817
3.1635 2.6807 -2.0340 0.9817
2.9159 2.9481 -2.0340 0.9817
2.6457 3.1928 -2.0340 0.9817
2.3551 3.4127 -2.0340 0.9817
2.0463 3.6064 -2.0340 0.9817
1.3838 3.9087 -2.0340 0.9817
1.0352 4.0152 -2.0340 0.9817
0.6787 4.0906 -2.0340 0.9817
-0.0475 4.1462 -2.0339 0.9817
3.6800 -1.3523 -2.0339 0.9825
2.1037 -0.3748 -1.1085 0.9904
2.0745 -0.1838 -1.0804 0.9907
3.5486 1.6671 -2.0339 0.9825
2.9912 2.5347 -2.0340 0.9825
2.5016 3.0189 -2.0340 0.9825
2.2268 3.2269 -2.0340 0.9825
1.9349 3.4100 -2.0340 0.9825
1.6279 3.5667 -2.0340 0.9825
-0.0449 3.9204 -2.0339 0.9825
3.3597 -1.5820 -2.0339 0.9832
3.4857 -1.2808 -2.0339 0.9832
1.8626 -0.5039 -1.0568 0.9912
1.8534 -0.3302 -1.0311 0.9915
1.8505 -0.1640 -1.0175 0.9916
1.8506 0.1623 -1.0175 0.9916
1.8533 0.3285 -1.0309 0.9915
3.4868 1.2778 -2.0339 0.9832
3.0331 2.1427 -2.0340 0.9832
2.8332 2.4008 -2.0340 0.9832
2.3695 2.8594 -2.0340 0.9832
1.8327 3.2299 -2.0340 0.9832
1.2394 3.5007 -2.0340 0.9832
0.9271 3.5960 -2.0339 0.9832
0.6079 3.6635 -2.0339 0.9832
-0.0425 3.7133 -2.0339 0.9832
1.7210 -0.6324 -1.0586 0.9916
1.7122 -0.4633 -1.0241 0.9918
1.7141 -0.3054 -1.0052 0.9920
1.7214 -0.1525 -0.9977 0.9920
1.7212 0.6308 -1.0584 0.9916
3.0447 1.7722 -2.0339 0.9839
2.8773 2.0327 -2.0339 0.9839
2.6877 2.2775 -2.0339 0.9839
2.4773 2.5047 -2.0339 0.9839
2.0009 2.8995 -2.0340 0.9839
1.1757 3.3209 -2.0339 0.9839
0.5766 3.4754 -2.0339 0.9839
0.2692 3.5126 -2.0339 0.9839
