ply
format ascii 1.0
element vertex 183
property float32 x
property float32 y
property float32 z
property float32 I
end_header
-12.9169 -8.2932 -0.7785 0.9404
-16.2243 5.5721 -1.2578 0.9335
-16.0867 5.5248 -1.6329 0.9339
-15.6270 6.9969 -2.0338 0.9334
-16.1933 5.5615 -2.0338 0.9334
-16.6281 4.0808 -2.0338 0.9334
-17.1135 -0.5104 -2.0337 0.9334
-16.9979 -2.0491 -2.0337 0.9334
-16.3546 -5.0642 -2.0337 0.9334
-15.8321 -6.5161 -2.0337 0.9334
-13.5154 -10.5093 -2.0337 0.9334
-11.4114 -12.7627 -2.0337 0.9334
-10.2160 -13.7383 -2.0337 0.9334
-8.9375 -14.6023 -2.0337 0.9334
-13.1011 5.8659 -2.0339 0.9437
-13.5759 4.6625 -2.0338 0.9437
-14.1917 2.1522 -2.0338 0.9437
-14.2505 -1.7179 -2.0338 0.9437
-13.2732 -5.4629 -2.0337 0.9437
-12.0782 -7.7547 -2.0337 0.9437
-10.4916 -9.7950 -2.0337 0.9437
-11.9900 2.9426 -2.0338 0.9512
-12.2061 1.8511 -2.0338 0.9512
-12.3400 -0.3680 -2.0338 0.9512
-12.0738 -2.5751 -2.0338 0.9512
-10.3884 -6.6698 -2.0337 0.9512
-9.7456 -7.5780 -2.0337 0.9512
-9.0237 -8.4246 -2.0337 0.9512
-8.2285 -9.2029 -2.0337 0.9512
-6.4447 -10.5294 -2.0337 0.9512
-10.2338 3.5147 -2.0339 0.9569
-10.8155 -0.3226 -2.0338 0.9569
-10.5822 -2.2570 -2.0338 0.9569
-10.3361 -3.2006 -2.0338 0.9569
-10.0059 -4.1182 -2.0338 0.9569
-9.5944 -5.0023 -2.0338 0.9569
-9.1050 -5.8458 -2.0338 0.9569
-7.9090 -7.3839 -2.0338 0.9569
-6.4565 -8.6826 -2.0337 0.9569
-5.6486 -9.2287 -2.0337 0.9569
-8.7818 3.9320 -2.0339 0.9614
-9.1000 3.1254 -2.0339 0.9614
-9.3445 2.2933 -2.0338 0.9614
-9.5129 1.4426 -2.0338 0.9614
-9.6041 0.5803 -2.0338 0.9614
-9.1910 -2.8460 -2.0338 0.9614
-8.8974 -3.6619 -2.0338 0.9614
-8.5315 -4.4481 -2.0338 0.9614
-8.0963 -5.1982 -2.0338 0.9614
-7.0328 -6.5659 -2.0338 0.9614
-5.7412 -7.7207 -2.0338 0.9614
-5.0228 -8.2063 -2.0338 0.9614
-7.8983 3.5364 -2.0339 0.9651
-8.4044 2.0626 -2.0339 0.9651
-8.5559 1.2975 -2.0338 0.9651
-8.6380 0.5219 -2.0338 0.9651
-8.6499 -0.2580 -2.0338 0.9651
-7.6732 -4.0007 -2.0338 0.9651
-6.3254 -5.9054 -2.0338 0.9651
-5.1637 -6.9441 -2.0338 0.9651
-4.5175 -7.3808 -2.0338 0.9651
-7.6289 1.8722 -2.0339 0.9681
-7.7663 1.1778 -2.0338 0.9681
-7.6823 -1.6385 -2.0338 0.9681
-6.2010 -4.8218 -2.0338 0.9681
-5.7416 -5.3604 -2.0338 0.9681
-4.1006 -6.6997 -2.0338 0.9681
-6.5572 2.9360 -2.0339 0.9706
-6.9773 1.7124 -2.0339 0.9706
-7.1713 0.4333 -2.0338 0.9706
-7.1812 -0.2142 -2.0338 0.9706
-7.1327 -0.8599 -2.0338 0.9706
-7.0262 -1.4985 -2.0338 0.9706
-6.8628 -2.1251 -2.0338 0.9706
-6.6435 -2.7343 -2.0338 0.9706
-6.0454 -3.8815 -2.0338 0.9706
-5.6714 -4.4100 -2.0338 0.9706
-4.7886 -5.3556 -2.0338 0.9706
-4.2870 -5.7650 -2.0338 0.9706
-6.0352 2.7022 -2.0339 0.9727
-6.2540 2.1479 -2.0339 0.9727
-6.6004 0.3988 -2.0338 0.9727
-6.6095 -0.1971 -2.0338 0.9727
-6.3164 -1.9559 -2.0338 0.9727
-6.1146 -2.5167 -2.0338 0.9727
-5.5642 -3.5725 -2.0338 0.9727
-3.4519 -5.6398 -2.0338 0.9727
-5.5844 2.5004 -2.0339 0.9745
-5.9423 1.4583 -2.0339 0.9745
-6.0494 0.9174 -2.0339 0.9745
-5.9839 -1.2763 -2.0338 0.9745
-5.8447 -1.8098 -2.0338 0.9745
-5.6580 -2.3287 -2.0338 0.9745
-5.4254 -2.8287 -2.0338 0.9745
-5.1487 -3.3057 -2.0338 0.9745
-4.0782 -4.5611 -2.0338 0.9745
-5.3791 1.8474 -2.0339 0.9761
-5.5235 1.3556 -2.0339 0.9761
-5.6231 0.8528 -2.0339 0.9761
-5.6770 0.3430 -2.0339 0.9761
-5.6849 -0.1696 -2.0338 0.9761
-5.0430 -2.6293 -2.0338 0.9761
-4.7858 -3.0727 -2.0338 0.9761
-4.1572 -3.8812 -2.0338 0.9761
-3.3937 -4.5638 -2.0338 0.9761
-5.2691 -0.6352 -2.0338 0.9775
-5.1905 -1.1070 -2.0338 0.9775
-4.7060 -2.4536 -2.0338 0.9775
-4.1897 -3.2578 -2.0338 0.9775
-3.8794 -3.6218 -2.0338 0.9775
-3.5375 -3.9564 -2.0338 0.9775
-2.7706 -4.5267 -2.0338 0.9775
-4.7000 1.6142 -2.0339 0.9788
-2.1586 0.5297 -0.9097 0.9904
-2.1137 0.3205 -0.8750 0.9908
-2.1213 0.1281 -0.8698 0.9909
-2.1227 -0.0633 -0.8692 0.9909
-2.1086 -0.2542 -0.8693 0.9909
-2.1211 -0.4524 -0.8877 0.9907
-4.7470 -1.4699 -2.0338 0.9788
-4.1816 -2.6848 -2.0338 0.9788
-3.9229 -3.0504 -2.0338 0.9788
-3.6323 -3.3912 -2.0338 0.9788
-3.3123 -3.7045 -2.0338 0.9788
-2.5942 -4.2385 -2.0338 0.9788
-4.2594 1.9071 -2.0339 0.9798
-1.9017 0.4667 -0.8534 0.9915
-1.9041 0.2887 -0.8393 0.9916
-1.9189 -0.0573 -0.8366 0.9917
-1.9056 -0.2297 -0.8365 0.9917
-1.9035 -0.4060 -0.8482 0.9915
-2.0870 -0.6463 -0.9521 0.9905
-4.3155 -1.7762 -2.0338 0.9798
-4.1380 -2.1575 -2.0338 0.9798
-3.9270 -2.5213 -2.0338 0.9798
-3.6840 -2.8646 -2.0338 0.9798
-3.4112 -3.1847 -2.0338 0.9798
-4.0103 1.7956 -2.0339 0.9808
-1.7458 0.5996 -0.8544 0.9919
-1.5781 0.3873 -0.7522 0.9929
-1.6104 0.2442 -0.7540 0.9928
-1.5965 0.0964 -0.7403 0.9930
-1.6097 -0.1941 -0.7505 0.9929
-1.5321 -0.4744 -0.7424 0.9930
-4.0632 -1.6723 -2.0338 0.9808
-3.8961 -2.0313 -2.0338 0.9808
-3.4686 -2.6971 -2.0338 0.9808
-3.2117 -2.9985 -2.0338 0.9808
-2.2938 -3.7476 -2.0338 0.9808
-3.7843 1.6944 -2.0339 0.9817
-1.2745 0.4377 -0.6610 0.9940
-1.3189 0.3237 -0.6662 0.9940
-1.3509 0.0816 -0.6639 0.9940
-1.3447 -0.0401 -0.6599 0.9940
-1.3302 -0.2837 -0.6672 0.9940
-1.2916 -0.4000 -0.6633 0.9940
-3.8342 -1.5781 -2.0338 0.9817
-3.4890 -2.2401 -2.0338 0.9817
-2.4742 -3.3272 -2.0338 0.9817
-1.1366 0.3903 -0.6234 0.9946
-1.1677 0.2865 -0.6237 0.9946
-1.1967 -0.0357 -0.6211 0.9946
-1.1991 -0.1446 -0.6266 0.9946
-1.1174 -0.4599 -0.6269 0.9946
-3.4763 -1.8125 -2.0339 0.9825
-0.9981 0.4469 -0.5990 0.9950
-1.0716 0.1625 -0.5937 0.9951
-1.0813 0.0653 -0.5933 0.9951
-1.0796 -0.0322 -0.5916 0.9951
-1.0561 -0.2253 -0.5914 0.9951
-1.0341 -0.3202 -0.5929 0.9951
-1.0756 -0.5608 -0.6644 0.9945
-3.1248 -2.0062 -2.0339 0.9832
-2.9314 -2.2794 -2.0338 0.9832
-2.7143 -2.5341 -2.0338 0.9832
-2.2159 -2.9798 -2.0338 0.9832
-1.9386 -3.1673 -2.0338 0.9832
-0.9264 0.4147 -0.5860 0.9953
-0.9827 0.1490 -0.5739 0.9954
-0.9898 0.0598 -0.5725 0.9954
-0.9549 -0.2957 -0.5771 0.9954
-0.9068 -0.4729 -0.5905 0.9953
-2.3480 -2.6261 -2.0339 0.9839
