ply
format ascii 1.0
element vertex 176
property float32 x
property float32 y
property float32 z
property float32 I
end_header
-11.8920 -8.0729 -0.7289 0.9441
-11.5823 -7.8627 -1.3440 0.9453
-16.9537 -2.3870 -2.0337 0.9334
-14.9827 -8.2844 -2.0337 0.9334
-11.4858 -7.7972 -1.6490 0.9456
-13.2291 -10.8673 -2.0337 0.9334
-12.1832 -12.0282 -2.0337 0.9334
-8.4754 -14.8753 -2.0337 0.9334
-7.0838 -15.5862 -2.0337 0.9334
-5.6332 -16.1671 -2.0337 0.9334
-14.3368 -0.6969 -2.0338 0.9437
-14.2134 -2.0012 -2.0338 0.9437
-13.9717 -3.2888 -2.0337 0.9437
-13.1420 -5.7712 -2.0337 0.9437
-11.8754 -8.0617 -2.0337 0.9437
-10.2140 -10.0841 -2.0337 0.9437
-8.2130 -11.7713 -2.0337 0.9437
-7.1055 -12.4711 -2.0337 0.9437
-5.9388 -13.0670 -2.0337 0.9437
-3.4673 -13.9283 -2.0337 0.9437
-12.2248 -1.7212 -2.0338 0.9512
-11.7089 -3.9125 -2.0338 0.9512
-11.3034 -4.9638 -2.0337 0.9512
-10.2140 -6.9338 -2.0337 0.9512
-9.5392 -7.8362 -2.0337 0.9512
-8.7850 -8.6733 -2.0337 0.9512
-7.9577 -9.4382 -2.0337 0.9512
-7.0639 -10.1244 -2.0337 0.9512
-1.8775 -12.2017 -2.0337 0.9512
-10.7146 -1.5086 -2.0338 0.9569
-10.5324 -2.4792 -2.0338 0.9569
-10.2625 -3.4292 -2.0338 0.9569
-9.9070 -4.3506 -2.0338 0.9569
-9.4690 -5.2357 -2.0338 0.9569
-8.9522 -6.0772 -2.0338 0.9569
-5.3564 -9.4012 -2.0337 0.9569
-1.6455 -10.6943 -2.0338 0.9569
-9.6102 -0.4672 -2.0338 0.9614
-9.3655 -2.2046 -2.0338 0.9614
-9.1255 -3.0493 -2.0338 0.9614
-8.4200 -4.6557 -2.0338 0.9614
-7.9604 -5.4040 -2.0338 0.9614
-7.4345 -6.1073 -2.0338 0.9614
-4.7630 -8.3597 -2.0338 0.9614
-3.9810 -8.7592 -2.0338 0.9614
-2.3242 -9.3365 -2.0338 0.9614
-1.4633 -9.5095 -2.0338 0.9614
-8.5691 -1.2065 -2.0338 0.9651
-8.2075 -2.7425 -2.0338 0.9651
-7.5730 -4.1874 -2.0338 0.9651
-5.5780 -6.6158 -2.0338 0.9651
-3.5805 -7.8781 -2.0338 0.9651
-2.8473 -8.1717 -2.0338 0.9651
-1.3160 -8.5530 -2.0338 0.9651
-7.6461 -1.7998 -2.0338 0.9681
-6.4990 -4.4119 -2.0338 0.9681
-6.0696 -4.9860 -2.0338 0.9681
-4.4946 -6.4420 -2.0338 0.9681
-3.2501 -7.1510 -2.0338 0.9681
-2.5846 -7.4176 -2.0338 0.9681
-1.8975 -7.6224 -2.0338 0.9681
-1.1946 -7.7637 -2.0338 0.9681
-0.4818 -7.8403 -2.0338 0.9681
-7.1759 -0.3489 -2.0338 0.9706
-7.1141 -1.0017 -2.0338 0.9706
-6.8139 -2.2769 -2.0338 0.9706
-6.2872 -3.4764 -2.0338 0.9706
-5.9440 -4.0351 -2.0338 0.9706
-5.1124 -5.0474 -2.0338 0.9706
-4.6309 -5.4925 -2.0338 0.9706
-4.1109 -5.8919 -2.0338 0.9706
-2.9726 -6.5404 -2.0338 0.9706
-1.7354 -6.9715 -2.0338 0.9706
-1.0926 -7.1007 -2.0338 0.9706
-0.4406 -7.1708 -2.0338 0.9706
-6.5478 -0.9219 -2.0338 0.9727
-6.4364 -1.5151 -2.0338 0.9727
-5.4709 -3.7139 -2.0338 0.9727
-5.1094 -4.1972 -2.0338 0.9727
-4.2623 -5.0553 -2.0338 0.9727
-3.2734 -5.7453 -2.0338 0.9727
-2.7360 -6.0198 -2.0338 0.9727
-1.5973 -6.4165 -2.0338 0.9727
-6.1113 -0.2971 -2.0338 0.9745
-5.9557 -1.4019 -2.0338 0.9745
-5.3545 -2.9606 -2.0338 0.9745
-5.0622 -3.4365 -2.0338 0.9745
-4.7278 -3.8837 -2.0338 0.9745
-3.9439 -4.6777 -2.0338 0.9745
-3.5010 -5.0179 -2.0338 0.9745
-2.5316 -5.5702 -2.0338 0.9745
-2.0132 -5.7778 -2.0338 0.9745
-1.4780 -5.9373 -2.0338 0.9745
-5.6318 -0.7929 -2.0338 0.9761
-5.5361 -1.3031 -2.0338 0.9761
-5.2073 -2.2868 -2.0338 0.9761
-4.9771 -2.7520 -2.0338 0.9761
-4.3946 -3.6101 -2.0338 0.9761
-0.8649 -5.6212 -2.0338 0.9761
-0.3488 -5.6766 -2.0338 0.9761
-5.3010 -0.2577 -2.0339 0.9775
-5.1661 -1.2161 -2.0338 0.9775
-5.0337 -1.6820 -2.0338 0.9775
-4.3911 -2.9809 -2.0338 0.9775
-4.1010 -3.3688 -2.0338 0.9775
-3.4210 -4.0575 -2.0338 0.9775
-3.0368 -4.3525 -2.0338 0.9775
-2.1959 -4.8316 -2.0338 0.9775
-1.7463 -5.0117 -2.0338 0.9775
-1.2820 -5.1501 -2.0338 0.9775
-2.1223 -0.1032 -0.8696 0.9909
-2.1109 -0.2972 -0.8724 0.9908
-2.1229 -0.4997 -0.8926 0.9906
-4.5500 -1.9981 -2.0338 0.9788
-4.3488 -2.4046 -2.0338 0.9788
-3.8398 -3.1544 -2.0338 0.9788
-3.2032 -3.7992 -2.0338 0.9788
-1.2004 -4.8222 -2.0338 0.9788
-0.3048 -4.9600 -2.0338 0.9788
-1.9029 -0.2680 -0.8375 0.9916
-1.9005 -0.4474 -0.8509 0.9915
-4.2729 -1.8764 -2.0338 0.9798
-3.8611 -2.6211 -2.0338 0.9798
-3.3210 -3.2787 -2.0338 0.9798
-1.5355 -4.4069 -2.0338 0.9798
-0.7097 -4.6125 -2.0338 0.9798
-1.5918 -0.0774 -0.7377 0.9930
-1.6106 -0.2268 -0.7529 0.9929
-1.5839 -0.3729 -0.7532 0.9929
-3.6353 -2.4679 -2.0338 0.9808
-3.1268 -3.0870 -2.0338 0.9808
-2.8323 -3.3592 -2.0338 0.9808
-2.5141 -3.6034 -2.0338 0.9808
-1.8180 -4.0001 -2.0338 0.9808
-1.4457 -4.1492 -2.0338 0.9808
-1.0614 -4.2637 -2.0338 0.9808
-0.6682 -4.3428 -2.0338 0.9808
-1.3498 -0.1901 -0.6686 0.9939
-1.3228 -0.3114 -0.6666 0.9940
-3.7963 -1.6671 -2.0338 0.9817
-3.2039 -2.6319 -2.0338 0.9817
-2.9505 -2.9130 -2.0338 0.9817
-2.3725 -3.4004 -2.0338 0.9817
-1.7156 -3.7747 -2.0338 0.9817
-1.3643 -3.9154 -2.0338 0.9817
-0.6306 -4.0981 -2.0338 0.9817
-0.2543 -4.1385 -2.0339 0.9817
-1.1988 -0.0583 -0.6226 0.9946
-1.1961 -0.1684 -0.6266 0.9946
-1.1077 -0.4865 -0.6276 0.9946
-3.2436 -2.2020 -2.0338 0.9825
-3.0293 -2.4885 -2.0338 0.9825
-2.7898 -2.7544 -2.0338 0.9825
-2.5271 -2.9973 -2.0338 0.9825
-1.9408 -3.4064 -2.0338 0.9825
-0.9470 -3.8044 -2.0338 0.9825
-0.5962 -3.8749 -2.0339 0.9825
-1.0812 -0.0526 -0.5929 0.9951
-1.0737 -0.1512 -0.5939 0.9951
-1.0295 -0.3440 -0.5945 0.9951
-3.2497 -1.7969 -2.0339 0.9832
-3.0723 -2.0857 -2.0339 0.9832
-2.6425 -2.6089 -2.0338 0.9832
-2.3936 -2.8390 -2.0338 0.9832
-2.1248 -3.0454 -2.0338 0.9832
-1.2219 -3.5067 -2.0339 0.9832
-0.9900 -0.0482 -0.5723 0.9954
-0.9841 -0.1386 -0.5738 0.9954
-0.9673 -0.2277 -0.5738 0.9954
-0.9511 -0.3179 -0.5790 0.9954
-2.9146 -1.9786 -2.0339 0.9839
-2.2707 -2.6932 -2.0339 0.9839
-1.7439 -3.0608 -2.0339 0.9839
-1.4576 -3.2071 -2.0339 0.9839
-1.1591 -3.3266 -2.0339 0.9839
-0.2161 -3.5161 -2.0339 0.9839
