ply
format ascii 1.0
element vertex 200
property float32 x
property float32 y
property float32 z
property float32 I
end_header
-12.3112 13.1614 3.1778 0.9294
-11.8515 12.6699 2.6578 0.9322
-10.8739 13.8686 2.2949 0.9314
-11.6435 12.4475 1.4429 0.9339
-12.0001 12.8287 1.0893 0.9320
-12.1107 12.9470 -0.8991 0.9315
-1.7675 7.5662 -0.5697 0.9693
-16.3459 4.9887 -1.6407 0.9336
-6.7260 15.7471 -2.0340 0.9333
-8.0702 15.1022 -2.0340 0.9334
-11.6970 12.5047 -2.0339 0.9334
-12.7402 11.4398 -2.0339 0.9334
-15.2624 7.7604 -2.0339 0.9334
-15.8794 6.4033 -2.0338 0.9334
-16.3760 4.9979 -2.0338 0.9334
-7.8411 12.0244 -2.0340 0.9437
-8.8573 11.2967 -2.0340 0.9437
-9.8062 10.4834 -2.0339 0.9437
-10.6808 9.5906 -2.0339 0.9437
-11.4745 8.6252 -2.0339 0.9437
-12.7954 6.5060 -2.0339 0.9437
-13.3126 5.3683 -2.0338 0.9437
-14.0413 2.9799 -2.0338 0.9437
-14.3450 0.5014 -2.0338 0.9437
-14.3342 -0.7482 -2.0338 0.9437
-1.0392 7.2485 -1.2063 0.9708
-1.6641 7.1236 -1.2051 0.9708
-2.5388 7.7496 -1.3434 0.9675
-4.8497 11.3543 -2.0340 0.9512
-5.8189 10.8894 -2.0340 0.9512
-6.7440 10.3419 -2.0340 0.9512
-7.6179 9.7160 -2.0339 0.9512
-8.4342 9.0165 -2.0339 0.9512
-11.0051 5.5957 -2.0339 0.9512
-11.4500 4.6172 -2.0339 0.9512
-11.8081 3.6037 -2.0338 0.9512
-12.3287 -0.6435 -2.0338 0.9512
-1.0307 7.1892 -1.3651 0.9709
-2.3451 7.1584 -1.4159 0.9698
-4.2505 9.9515 -2.0340 0.9569
-5.9108 9.0642 -2.0340 0.9569
-6.6768 8.5156 -2.0339 0.9569
-8.0514 7.2296 -2.0339 0.9569
-8.6497 6.5018 -2.0339 0.9569
-9.1824 5.7248 -2.0339 0.9569
-9.6454 4.9044 -2.0339 0.9569
-10.3493 3.1586 -2.0338 0.9569
-10.5848 2.2464 -2.0338 0.9569
-10.8056 -0.5641 -2.0338 0.9569
-1.0397 7.2520 -1.5486 0.9705
-2.3495 7.1719 -1.5953 0.9696
-4.5350 8.4866 -2.0340 0.9614
-5.9370 7.5722 -2.0339 0.9614
-6.5731 7.0270 -2.0339 0.9614
-7.1594 6.4286 -2.0339 0.9614
-8.9236 3.5984 -2.0339 0.9614
-9.2027 2.8086 -2.0339 0.9614
-9.5501 1.1712 -2.0338 0.9614
-9.6085 -0.5015 -2.0338 0.9614
-1.0454 7.2911 -1.7311 0.9702
-3.3994 7.9587 -2.0340 0.9651
-4.7271 7.2491 -2.0339 0.9651
-5.9119 6.3201 -2.0339 0.9651
-6.4392 5.7819 -2.0339 0.9651
-7.7140 3.9223 -2.0339 0.9651
-8.0259 3.2364 -2.0339 0.9651
-8.4653 1.7965 -2.0338 0.9651
-8.6419 -0.4511 -2.0338 0.9651
-3.0857 7.2242 -2.0340 0.9681
-3.7023 6.9284 -2.0339 0.9681
-5.8449 5.2483 -2.0339 0.9681
-6.6660 4.1559 -2.0339 0.9681
-7.0021 3.5603 -2.0339 0.9681
-7.2852 2.9378 -2.0339 0.9681
-7.8504 0.2744 -2.0338 0.9681
-7.8445 -0.4095 -2.0338 0.9681
-1.6344 6.9964 -2.0340 0.9706
-2.2368 6.8277 -2.0340 0.9706
-4.4330 5.6540 -2.0339 0.9706
-4.9080 5.2469 -2.0339 0.9706
-5.3458 4.8001 -2.0339 0.9706
-6.4042 3.2563 -2.0339 0.9706
-6.6631 2.6869 -2.0339 0.9706
-6.8715 2.0971 -2.0339 0.9706
-7.0279 1.4915 -2.0339 0.9706
-7.1309 0.8746 -2.0338 0.9706
-7.1800 0.2510 -2.0338 0.9706
-0.9385 6.5459 -2.0340 0.9727
-1.5043 6.4394 -2.0340 0.9727
-3.1166 5.8323 -2.0339 0.9727
-4.0801 5.2039 -2.0339 0.9727
-5.8944 2.9971 -2.0339 0.9727
-6.3245 1.9302 -2.0339 0.9727
-6.4684 1.3728 -2.0339 0.9727
-2.4035 5.6271 -2.0339 0.9745
-2.8838 5.3967 -2.0339 0.9745
-3.3423 5.1253 -2.0339 0.9745
-3.7754 4.8152 -2.0339 0.9745
-4.1799 4.4685 -2.0339 0.9745
-5.4541 2.7732 -2.0339 0.9745
-5.6746 2.2883 -2.0339 0.9745
-5.8521 1.7860 -2.0339 0.9745
-6.1148 0.2137 -2.0339 0.9745
-2.2341 5.2305 -2.0339 0.9761
-3.1067 4.7641 -2.0339 0.9761
-3.5093 4.4759 -2.0339 0.9761
-4.2319 3.7999 -2.0339 0.9761
-4.5464 3.4174 -2.0339 0.9761
-4.8264 3.0090 -2.0339 0.9761
-5.0698 2.5778 -2.0339 0.9761
-5.6839 0.1987 -2.0339 0.9761
-1.6523 5.0438 -2.0339 0.9775
-2.0848 4.8809 -2.0339 0.9775
-3.2748 4.1767 -2.0339 0.9775
-4.2425 3.1890 -2.0339 0.9775
-4.5038 2.8079 -2.0339 0.9775
-5.1917 1.1018 -2.0339 0.9775
-5.2679 0.6460 -2.0339 0.9775
-5.3040 0.1854 -2.0339 0.9775
-0.7052 4.9193 -2.0339 0.9788
-1.1305 4.8393 -2.0339 0.9788
-1.5471 4.7226 -2.0339 0.9788
-1.9520 4.5702 -2.0339 0.9788
-2.3421 4.3830 -2.0339 0.9788
-2.7145 4.1627 -2.0339 0.9788
-3.0663 3.9108 -2.0339 0.9788
-3.3948 3.6293 -2.0339 0.9788
-3.6976 3.3202 -2.0339 0.9788
-4.2170 2.6291 -2.0339 0.9788
-4.4297 2.2524 -2.0339 0.9788
-4.6089 1.8585 -2.0339 0.9788
-4.7530 1.4506 -2.0339 0.9788
-2.1212 0.4501 -0.8875 0.9907
-2.1220 -0.1108 -0.8697 0.9909
-0.6623 4.6197 -2.0339 0.9798
-1.0617 4.5446 -2.0339 0.9798
-1.4529 4.4350 -2.0339 0.9798
-2.5492 3.9092 -2.0339 0.9798
-2.8795 3.6726 -2.0339 0.9798
-3.1881 3.4082 -2.0339 0.9798
-3.4725 3.1180 -2.0339 0.9798
-3.9602 2.4690 -2.0339 0.9798
-4.1600 2.1152 -2.0339 0.9798
-2.0735 0.6328 -0.9448 0.9906
-1.9050 0.2336 -0.8364 0.9917
-1.9187 0.0670 -0.8367 0.9917
-0.9996 4.2788 -2.0339 0.9808
-1.7260 4.0408 -2.0339 0.9808
-2.0709 3.8754 -2.0339 0.9808
-2.4002 3.6806 -2.0339 0.9808
-3.2694 2.9357 -2.0339 0.9808
-3.7286 2.3246 -2.0339 0.9808
-3.9167 1.9915 -2.0339 0.9808
-4.0750 1.6433 -2.0339 0.9808
-1.5354 0.4686 -0.7431 0.9929
-1.5955 0.3386 -0.7550 0.9928
-1.5855 0.0554 -0.7343 0.9930
-2.5584 3.2630 -2.0339 0.9817
-2.8325 3.0281 -2.0339 0.9817
-3.5186 2.1937 -2.0339 0.9817
-1.7357 0.6999 -0.9180 0.9917
-1.3305 0.2823 -0.6672 0.9940
-1.3522 0.1658 -0.6683 0.9939
-1.3460 0.0470 -0.6606 0.9940
-1.3496 -0.0705 -0.6629 0.9940
-0.8919 3.8178 -2.0339 0.9825
-1.2205 3.7258 -2.0339 0.9825
-1.5400 3.6055 -2.0339 0.9825
-1.8478 3.4578 -2.0339 0.9825
-2.1415 3.2840 -2.0339 0.9825
-2.4190 3.0853 -2.0339 0.9825
-3.1339 2.3557 -2.0339 0.9825
-3.4947 1.7769 -2.0339 0.9825
-1.1201 0.4516 -0.6266 0.9946
-1.1470 0.3500 -0.6221 0.9946
-1.1990 0.1470 -0.6267 0.9946
-1.1991 -0.0626 -0.6229 0.9946
-0.5270 3.6760 -2.0339 0.9832
-1.1561 3.5290 -2.0339 0.9832
-1.4587 3.4151 -2.0339 0.9832
-2.0284 3.1106 -2.0339 0.9832
-2.2913 2.9223 -2.0339 0.9832
-3.1512 1.9646 -2.0339 0.9832
-0.9802 0.4984 -0.6023 0.9950
-1.0122 0.4081 -0.5978 0.9950
-1.0348 0.3158 -0.5926 0.9951
-1.0766 0.1320 -0.5940 0.9951
-1.0814 -0.0565 -0.5931 0.9951
-0.5000 3.4872 -2.0339 0.9839
-0.8014 3.4305 -2.0339 0.9839
-1.0967 3.3478 -2.0339 0.9839
-1.6603 3.1071 -2.0339 0.9839
-2.4065 2.5727 -2.0339 0.9839
-2.6212 2.3537 -2.0339 0.9839
-2.9894 1.8638 -2.0339 0.9839
-0.9374 0.3780 -0.5836 0.9953
-0.9555 0.2916 -0.5768 0.9954
-0.9861 0.1209 -0.5736 0.9954
-0.9900 0.0346 -0.5719 0.9954
-0.9900 -0.0517 -0.5724 0.9954
