ply
format ascii 1.0
element vertex 173
property float32 x
property float32 y
property float32 z
property float32 I
end_header
17.1066 -0.7615 -2.0340 0.9333
16.9664 2.3164 -2.0341 0.9333
16.6893 3.8335 -2.0341 0.9333
15.7324 6.7623 -2.0341 0.9333
11.2192 12.9374 -2.0341 0.9333
8.7191 14.7385 -2.0341 0.9333
5.9368 16.0623 -2.0341 0.9333
4.4677 16.5312 -2.0341 0.9333
14.3413 -0.6384 -2.0340 0.9437
14.3407 0.6544 -2.0340 0.9437
13.6456 4.4596 -2.0341 0.9437
11.9597 7.9410 -2.0341 0.9437
11.1968 8.9848 -2.0341 0.9437
10.3431 9.9557 -2.0341 0.9437
4.9770 13.4656 -2.0341 0.9437
3.7454 13.8588 -2.0341 0.9437
12.3346 -0.5491 -2.0340 0.9512
12.3341 0.5629 -2.0340 0.9512
12.2334 1.6702 -2.0340 0.9512
12.0336 2.7641 -2.0340 0.9512
11.7362 3.8355 -2.0340 0.9512
11.3436 4.8759 -2.0341 0.9512
10.8589 5.8766 -2.0341 0.9512
9.6301 7.7275 -2.0341 0.9512
8.0894 9.3282 -2.0341 0.9512
6.2868 10.6269 -2.0341 0.9512
3.2213 11.9195 -2.0341 0.9512
10.8107 -0.4812 -2.0340 0.9569
10.7220 1.4639 -2.0340 0.9569
9.9420 4.2735 -2.0340 0.9569
9.5173 5.1506 -2.0340 0.9569
7.7967 7.5047 -2.0341 0.9569
7.0899 8.1757 -2.0341 0.9569
6.3256 8.7804 -2.0341 0.9569
2.8233 10.4468 -2.0340 0.9569
9.5354 -1.2910 -2.0340 0.9614
9.6124 0.4387 -2.0340 0.9614
9.5340 1.3017 -2.0340 0.9614
9.3783 2.1542 -2.0340 0.9614
9.1465 2.9892 -2.0340 0.9614
8.8405 3.7999 -2.0340 0.9614
8.0164 5.3227 -2.0340 0.9614
7.5051 6.0224 -2.0340 0.9614
6.3044 7.2698 -2.0340 0.9614
8.5761 -1.1612 -2.0340 0.9651
8.6458 -0.3849 -2.0340 0.9651
8.6454 0.3945 -2.0340 0.9651
8.4348 1.9374 -2.0340 0.9651
7.9511 3.4177 -2.0340 0.9651
7.2100 4.7872 -2.0340 0.9651
5.6701 6.5385 -2.0340 0.9651
5.0589 7.0221 -2.0340 0.9651
4.4066 7.4487 -2.0340 0.9651
3.0004 8.1178 -2.0340 0.9651
7.8479 -0.3494 -2.0340 0.9681
7.8475 0.3581 -2.0340 0.9681
7.7835 1.0627 -2.0340 0.9681
7.6564 1.7587 -2.0340 0.9681
7.4671 2.4403 -2.0340 0.9681
7.2173 3.1022 -2.0340 0.9681
6.5445 4.3454 -2.0340 0.9681
6.1271 4.9166 -2.0340 0.9681
5.6599 5.4479 -2.0340 0.9681
5.1468 5.9350 -2.0340 0.9681
3.3754 7.0937 -2.0340 0.9681
2.0495 7.5837 -2.0340 0.9681
6.6009 2.8373 -2.0340 0.9706
6.3189 3.4197 -2.0340 0.9706
5.9856 3.9743 -2.0340 0.9706
5.6038 4.4967 -2.0340 0.9706
4.7073 5.4281 -2.0340 0.9706
4.1998 5.8296 -2.0340 0.9706
3.6583 6.1838 -2.0340 0.9706
6.6060 0.3015 -2.0340 0.9727
6.5521 0.8946 -2.0340 0.9727
6.4450 1.4804 -2.0340 0.9727
6.0754 2.6114 -2.0340 0.9727
5.8159 3.1474 -2.0340 0.9727
5.1577 4.1387 -2.0340 0.9727
4.3325 4.9960 -2.0340 0.9727
3.8655 5.3655 -2.0340 0.9727
3.3671 5.6915 -2.0340 0.9727
2.8413 5.9714 -2.0340 0.9727
2.2926 6.2028 -2.0340 0.9727
6.0627 0.8278 -2.0340 0.9745
5.8162 1.9008 -2.0340 0.9745
4.7725 3.8296 -2.0340 0.9745
3.1155 5.2664 -2.0340 0.9745
2.6291 5.5254 -2.0340 0.9745
2.1214 5.7395 -2.0340 0.9745
5.6821 -0.2529 -2.0339 0.9761
5.6818 0.2593 -2.0340 0.9761
5.6354 0.7694 -2.0340 0.9761
5.5434 1.2733 -2.0340 0.9761
5.4063 1.7668 -2.0340 0.9761
4.7384 3.1461 -2.0340 0.9761
4.4361 3.5597 -2.0340 0.9761
2.8960 4.8953 -2.0340 0.9761
1.4839 5.4907 -2.0340 0.9761
5.2596 -0.7121 -2.0339 0.9775
5.3023 -0.2360 -2.0339 0.9775
5.3021 0.2420 -2.0339 0.9775
5.2588 0.7180 -2.0340 0.9775
5.0450 1.6488 -2.0340 0.9775
4.8762 2.0960 -2.0340 0.9775
4.6679 2.5262 -2.0340 0.9775
3.8240 3.6808 -2.0340 0.9775
3.4773 4.0098 -2.0340 0.9775
2.7024 4.5681 -2.0340 0.9775
1.8400 4.9784 -2.0340 0.9775
1.3847 5.1238 -2.0340 0.9775
4.9647 -0.2210 -2.0339 0.9787
4.9645 0.2265 -2.0339 0.9788
4.1402 2.7489 -2.0340 0.9787
3.8761 3.1103 -2.0340 0.9787
3.5805 3.4464 -2.0340 0.9787
2.9050 4.0323 -2.0340 0.9787
1.7229 4.6615 -2.0340 0.9787
1.2966 4.7976 -2.0340 0.9787
4.6241 0.6313 -2.0339 0.9798
4.5486 1.0448 -2.0340 0.9798
4.2877 1.8430 -2.0340 0.9798
3.8880 2.5815 -2.0340 0.9798
3.3625 3.2365 -2.0340 0.9798
3.0577 3.5259 -2.0340 0.9798
2.7280 3.7866 -2.0340 0.9798
1.6180 4.3775 -2.0340 0.9798
4.3543 -0.5896 -2.0339 0.9808
4.3897 -0.1954 -2.0339 0.9808
4.3895 0.2003 -2.0339 0.9808
4.3537 0.5944 -2.0339 0.9808
3.8645 2.0914 -2.0340 0.9808
3.6607 2.4306 -2.0340 0.9808
3.4271 2.7501 -2.0340 0.9808
3.1658 3.0472 -2.0340 0.9808
2.2373 3.7819 -2.0340 0.9808
1.8880 3.9678 -2.0340 0.9808
1.1464 4.2419 -2.0340 0.9808
4.1424 -0.1844 -2.0339 0.9817
4.1421 0.1890 -2.0339 0.9817
4.1084 0.5609 -2.0339 0.9817
2.9875 2.8755 -2.0340 0.9817
2.7166 3.1327 -2.0340 0.9817
2.4238 3.3644 -2.0340 0.9817
2.1112 3.5688 -2.0340 0.9817
1.7816 3.7443 -2.0340 0.9817
1.4375 3.8893 -2.0340 0.9817
2.0923 -0.2833 -1.0953 0.9905
2.0778 -0.0925 -1.0790 0.9907
2.0927 0.2857 -1.0957 0.9905
3.0579 2.4537 -2.0340 0.9825
2.8247 2.7189 -2.0340 0.9825
2.5686 2.9620 -2.0340 0.9825
1.9963 3.3744 -2.0340 0.9825
1.6846 3.5403 -2.0340 0.9825
1.0229 3.7848 -2.0340 0.9825
1.8900 0.6177 -1.0891 0.9910
3.4118 1.4665 -2.0339 0.9832
3.2661 1.7675 -2.0339 0.9832
2.8964 2.3242 -2.0340 0.9832
2.6756 2.5753 -2.0340 0.9832
2.4330 2.8056 -2.0340 0.9832
2.1707 3.0131 -2.0340 0.9832
1.5956 3.3533 -2.0340 0.9832
0.9688 3.5850 -2.0339 0.9832
1.7138 0.2340 -0.9987 0.9920
1.7689 0.7603 -1.1116 0.9911
2.9349 1.9487 -2.0339 0.9839
2.5382 2.4431 -2.0339 0.9839
2.3080 2.6615 -2.0340 0.9839
1.7937 3.0320 -2.0339 0.9839
1.2213 3.3044 -2.0339 0.9839
0.9191 3.4009 -2.0339 0.9839
