ply
format ascii 1.0
element vertex 192
property float32 x
property float32 y
property float32 z
property float32 I
end_header
2.5374 18.9106 3.3643 0.9254
2.4400 18.1851 2.3893 0.9287
3.9978 17.8104 0.7198 0.9295
2.4723 18.4261 0.7331 0.9283
4.0484 18.0359 0.3122 0.9287
2.3857 17.7803 0.3030 0.9307
13.8800 8.7634 -1.2036 0.9363
13.7613 8.6885 -1.5624 0.9367
16.9880 2.1526 -2.0341 0.9333
16.3547 5.0751 -2.0341 0.9333
13.6263 10.3714 -2.0341 0.9333
12.6687 11.5217 -2.0341 0.9333
11.6143 12.5838 -2.0341 0.9333
9.2482 14.4124 -2.0341 0.9333
6.6000 15.8014 -2.0341 0.9333
5.1950 16.3172 -2.0341 0.9333
3.7505 16.7085 -2.0341 0.9333
2.2773 16.9720 -2.0341 0.9333
14.2418 1.8046 -2.0340 0.9437
14.0299 3.0412 -2.0341 0.9437
13.7108 4.2547 -2.0341 0.9437
13.2871 5.4356 -2.0341 0.9437
12.7618 6.5750 -2.0341 0.9437
12.1390 7.6642 -2.0341 0.9437
10.6207 9.6591 -2.0341 0.9437
8.7785 11.3594 -2.0341 0.9437
5.5330 13.2470 -2.0341 0.9437
3.1442 14.0074 -2.0341 0.9437
12.2490 1.5521 -2.0340 0.9512
12.0668 2.6157 -2.0340 0.9512
11.7923 3.6593 -2.0340 0.9512
9.8250 7.4782 -2.0341 0.9512
9.1345 8.3075 -2.0341 0.9512
8.3743 9.0733 -2.0341 0.9512
7.5501 9.7699 -2.0341 0.9512
6.6683 10.3918 -2.0341 0.9512
2.7042 12.0474 -2.0341 0.9512
10.8134 0.4178 -2.0340 0.9569
10.7356 1.3603 -2.0340 0.9569
10.5759 2.2925 -2.0340 0.9569
9.6199 4.9563 -2.0340 0.9569
8.6111 6.5542 -2.0340 0.9569
8.0059 7.2811 -2.0341 0.9569
5.0268 9.5833 -2.0341 0.9569
4.1708 9.9856 -2.0340 0.9569
3.2830 10.3116 -2.0340 0.9569
1.4391 10.7255 -2.0340 0.9569
9.6153 0.3715 -2.0340 0.9614
9.5461 1.2096 -2.0340 0.9614
9.1902 2.8518 -2.0340 0.9614
8.9062 3.6434 -2.0340 0.9614
8.5540 4.4071 -2.0340 0.9614
7.6570 5.8280 -2.0340 0.9614
6.5264 7.0712 -2.0340 0.9614
5.8841 7.6140 -2.0340 0.9614
4.4698 8.5215 -2.0340 0.9614
3.7087 8.8792 -2.0340 0.9614
2.1075 9.3890 -2.0340 0.9614
8.6479 0.3341 -2.0340 0.9651
8.2657 2.5649 -2.0340 0.9651
7.6934 3.9637 -2.0340 0.9651
7.3180 4.6204 -2.0340 0.9651
5.2921 6.8480 -2.0340 0.9651
4.0201 7.6642 -2.0340 0.9651
3.3355 7.9859 -2.0340 0.9651
2.6255 8.2467 -2.0340 0.9651
1.8955 8.4444 -2.0340 0.9651
1.1509 8.5776 -2.0340 0.9651
7.8498 0.3033 -2.0340 0.9681
7.5028 2.3282 -2.0340 0.9681
7.2709 2.9744 -2.0340 0.9681
6.6426 4.1939 -2.0340 0.9681
6.2511 4.7579 -2.0340 0.9681
4.2426 6.6117 -2.0340 0.9681
3.0277 7.2489 -2.0340 0.9681
1.7205 7.6651 -2.0340 0.9681
7.1795 0.2774 -2.0340 0.9706
6.8621 2.1294 -2.0340 0.9706
6.3870 3.2906 -2.0340 0.9706
6.0754 3.8358 -2.0340 0.9706
5.7172 4.3516 -2.0340 0.9706
5.3154 4.8342 -2.0340 0.9706
4.3934 5.6851 -2.0340 0.9706
6.5604 0.8313 -2.0340 0.9727
6.4628 1.4009 -2.0340 0.9727
6.3158 1.9598 -2.0340 0.9727
5.8786 3.0287 -2.0340 0.9727
4.8923 4.4493 -2.0340 0.9727
3.0718 5.8562 -2.0340 0.9727
1.4483 6.4524 -2.0340 0.9727
6.1143 0.2362 -2.0340 0.9745
6.0704 0.7692 -2.0340 0.9745
5.9800 1.2963 -2.0340 0.9745
4.8690 3.7060 -2.0340 0.9745
4.5268 4.1170 -2.0340 0.9745
2.8423 5.4188 -2.0340 0.9745
2.3584 5.6463 -2.0340 0.9745
1.8563 5.8306 -2.0340 0.9745
1.3401 5.9704 -2.0340 0.9745
0.8137 6.0646 -2.0340 0.9745
5.6426 0.7150 -2.0340 0.9761
5.5586 1.2049 -2.0340 0.9761
5.4322 1.6856 -2.0340 0.9761
5.2643 2.1535 -2.0340 0.9761
4.8094 3.0365 -2.0340 0.9761
4.2078 3.8268 -2.0340 0.9761
3.4780 4.5005 -2.0340 0.9761
3.0717 4.7870 -2.0340 0.9761
2.6420 5.0369 -2.0340 0.9761
2.1921 5.2483 -2.0340 0.9761
1.2457 5.5496 -2.0340 0.9761
0.7564 5.6372 -2.0340 0.9761
5.2654 0.6672 -2.0340 0.9775
4.9125 2.0096 -2.0340 0.9775
4.2234 3.2146 -2.0340 0.9775
3.9266 3.5711 -2.0340 0.9775
3.5998 3.9003 -2.0340 0.9775
3.2455 4.1997 -2.0340 0.9775
2.0456 4.8975 -2.0340 0.9775
1.6102 5.0575 -2.0340 0.9775
1.1625 5.1788 -2.0340 0.9775
4.9302 0.6247 -2.0339 0.9787
4.8568 1.0528 -2.0340 0.9788
4.4179 2.2761 -2.0340 0.9787
4.2022 2.6531 -2.0340 0.9787
3.9545 3.0099 -2.0340 0.9787
3.0389 3.9323 -2.0340 0.9787
1.9154 4.5857 -2.0340 0.9787
1.5077 4.7355 -2.0340 0.9787
0.6609 4.9255 -2.0340 0.9787
4.6300 0.5867 -2.0339 0.9798
4.3196 1.7671 -2.0340 0.9798
4.1487 2.1375 -2.0340 0.9798
3.9463 2.4915 -2.0340 0.9798
3.7137 2.8266 -2.0340 0.9798
3.4527 3.1401 -2.0340 0.9798
2.8538 3.6928 -2.0340 0.9798
2.5205 3.9279 -2.0340 0.9798
2.1679 4.1330 -2.0340 0.9798
1.4159 4.4471 -2.0340 0.9798
1.0221 4.5537 -2.0340 0.9798
0.6206 4.6255 -2.0340 0.9798
4.3908 0.1696 -2.0339 0.9808
4.0670 1.6637 -2.0340 0.9808
3.7155 2.3459 -2.0340 0.9808
2.9802 3.2290 -2.0340 0.9808
2.6869 3.4769 -2.0340 0.9808
2.0411 3.8912 -2.0340 0.9808
1.6936 4.0546 -2.0340 0.9808
0.9623 4.2874 -2.0340 0.9808
4.1434 0.1601 -2.0339 0.9817
3.9602 1.2289 -2.0339 0.9817
3.8378 1.5700 -2.0340 0.9817
3.5062 2.2137 -2.0340 0.9817
3.2995 2.5113 -2.0340 0.9817
2.5355 3.2810 -2.0340 0.9817
2.2394 3.4898 -2.0340 0.9817
1.9261 3.6720 -2.0340 0.9817
1.2579 3.9511 -2.0340 0.9817
2.0772 0.0802 -1.0784 0.9907
2.0888 0.2647 -1.0923 0.9906
2.1096 0.4573 -1.1198 0.9903
3.7445 1.1620 -2.0339 0.9825
3.6287 1.4845 -2.0339 0.9825
3.4853 1.7956 -2.0340 0.9825
3.3152 2.0931 -2.0340 0.9825
2.9005 2.6379 -2.0340 0.9825
2.1174 3.2997 -2.0340 0.9825
1.8212 3.4720 -2.0340 0.9825
0.8587 3.8254 -2.0340 0.9825
0.5214 3.8858 -2.0339 0.9825
1.8527 0.0716 -1.0155 0.9916
1.8572 0.4026 -1.0408 0.9914
1.8798 0.5833 -1.0780 0.9911
3.4371 1.4061 -2.0339 0.9832
3.3012 1.7008 -2.0339 0.9832
3.1401 1.9826 -2.0339 0.9832
2.9550 2.2492 -2.0340 0.9832
2.7473 2.4986 -2.0340 0.9832
2.0056 3.1255 -2.0340 0.9832
1.7250 3.2886 -2.0340 0.9832
1.4313 3.4267 -2.0340 0.9832
1.1266 3.5386 -2.0339 0.9832
0.8133 3.6234 -2.0339 0.9832
0.4939 3.6806 -2.0339 0.9832
1.7240 0.0666 -0.9961 0.9921
1.7568 0.7187 -1.0958 0.9913
3.1317 1.6135 -2.0339 0.9839
1.9026 2.9650 -2.0340 0.9839
1.3578 3.2507 -2.0339 0.9839
0.7716 3.4374 -2.0339 0.9839
0.4685 3.4916 -2.0339 0.9839
