ply
format ascii 1.0
element vertex 193
property float32 x
property float32 y
property float32 z
property float32 I
end_header
-11.6769 13.3897 2.7217 0.9306
-13.2795 12.7189 2.8169 0.9283
-11.4110 13.0847 2.2608 0.9324
-12.7632 12.2242 1.8977 0.9314
-11.6593 13.3694 1.5017 0.9313
-12.5310 14.3690 1.1823 0.9264
-13.0806 12.5283 1.1232 0.9300
-12.0058 -7.9167 -1.0544 0.9440
-11.7437 -7.7438 -1.3505 0.9450
-12.3658 11.8436 -2.0339 0.9334
-14.2820 9.4443 -2.0339 0.9334
-15.0712 8.1256 -2.0339 0.9334
-16.2798 5.3030 -2.0338 0.9334
-16.6896 3.8220 -2.0338 0.9334
-17.1035 0.7795 -2.0338 0.9334
-17.1043 -0.7572 -2.0337 0.9334
-16.9674 -2.2878 -2.0337 0.9334
-16.2858 -5.2814 -2.0337 0.9334
-9.4349 10.8188 -2.0339 0.9437
-10.3668 9.9291 -2.0339 0.9437
-11.9734 7.9177 -2.0339 0.9437
-12.6350 6.8122 -2.0339 0.9437
-13.1948 5.6518 -2.0339 0.9437
-13.6483 4.4458 -2.0338 0.9437
-13.9918 3.2041 -2.0338 0.9437
-14.3389 0.6535 -2.0338 0.9437
-13.9955 -3.1857 -2.0337 0.9437
-11.9827 -7.9014 -2.0337 0.9437
-9.6461 7.7059 -2.0339 0.9512
-12.2328 1.6657 -2.0338 0.9512
-12.3327 0.5621 -2.0338 0.9512
-12.3334 -0.5460 -2.0338 0.9512
-12.2347 -1.6497 -2.0338 0.9512
-11.7432 -3.8083 -2.0338 0.9512
-11.3545 -4.8459 -2.0337 0.9512
-10.8741 -5.8445 -2.0337 0.9512
-7.1122 8.1554 -2.0339 0.9569
-7.8148 7.4848 -2.0339 0.9569
-9.9466 4.2605 -2.0339 0.9569
-10.7215 1.4599 -2.0338 0.9569
-10.8092 0.4927 -2.0338 0.9569
-10.8098 -0.4785 -2.0338 0.9569
-10.7232 -1.4459 -2.0338 0.9569
-10.5504 -2.4015 -2.0338 0.9569
-10.2925 -3.3379 -2.0338 0.9569
-9.9518 -4.2473 -2.0338 0.9569
-9.5308 -5.1225 -2.0338 0.9569
-9.0331 -5.9564 -2.0338 0.9569
-6.9490 6.6555 -2.0339 0.9614
-7.5177 6.0056 -2.0339 0.9614
-8.0259 5.3073 -2.0339 0.9614
-8.4694 4.5662 -2.0339 0.9614
-9.3789 2.1478 -2.0338 0.9614
-9.5337 1.2982 -2.0338 0.9614
-9.6117 0.4381 -2.0338 0.9614
-9.5353 -1.2857 -2.0338 0.9614
-9.3815 -2.1355 -2.0338 0.9614
-8.4749 -4.5550 -2.0338 0.9614
-6.2499 5.9860 -2.0339 0.9651
-6.7614 5.4014 -2.0339 0.9651
-7.2184 4.7734 -2.0339 0.9651
-7.6174 4.1069 -2.0339 0.9651
-7.9549 3.4073 -2.0339 0.9651
-8.2283 2.6803 -2.0339 0.9651
-8.6448 0.3940 -2.0338 0.9651
-8.5761 -1.1564 -2.0338 0.9651
-8.4378 -1.9207 -2.0338 0.9651
-8.2316 -2.6695 -2.0338 0.9651
-7.6224 -4.0968 -2.0338 0.9651
-7.2243 -4.7638 -2.0338 0.9651
-5.6731 5.4336 -2.0339 0.9681
-6.1374 4.9030 -2.0339 0.9681
-6.5523 4.3329 -2.0339 0.9681
-7.2207 3.0929 -2.0339 0.9681
-7.4689 2.4329 -2.0339 0.9681
-7.8470 0.3576 -2.0338 0.9681
-7.8474 -0.3474 -2.0338 0.9681
-7.7846 -1.0497 -2.0338 0.9681
-7.6591 -1.7434 -2.0338 0.9681
-7.4720 -2.4232 -2.0338 0.9681
-7.2246 -3.0834 -2.0338 0.9681
-6.9189 -3.7187 -2.0338 0.9681
-4.7221 5.4148 -2.0339 0.9706
-5.1887 4.9696 -2.0339 0.9706
-5.6133 4.4843 -2.0339 0.9706
-6.3239 3.4096 -2.0339 0.9706
-6.8311 2.2252 -2.0339 0.9706
-7.1187 0.9693 -2.0339 0.9706
-7.1769 0.3271 -2.0338 0.9706
-7.1773 -0.3178 -2.0338 0.9706
-7.1199 -0.9600 -2.0338 0.9706
-7.0051 -1.5946 -2.0338 0.9706
-6.8339 -2.2162 -2.0338 0.9706
-6.6076 -2.8201 -2.0338 0.9706
-6.3282 -3.4012 -2.0338 0.9706
-5.1664 4.1273 -2.0339 0.9727
-5.8205 3.1381 -2.0339 0.9727
-6.2873 2.0481 -2.0339 0.9727
-6.4456 1.4760 -2.0339 0.9727
-6.5531 -0.8836 -2.0338 0.9727
-6.2899 -2.0398 -2.0338 0.9727
-6.0816 -2.5956 -2.0338 0.9727
-4.0216 4.6115 -2.0339 0.9745
-4.4189 4.2323 -2.0339 0.9745
-4.7806 3.8190 -2.0339 0.9745
-5.6244 2.4091 -2.0339 0.9745
-5.8178 1.8951 -2.0339 0.9745
-5.9643 1.3658 -2.0339 0.9745
-6.1123 0.2786 -2.0339 0.9745
-5.9659 -1.3580 -2.0338 0.9745
-5.6274 -2.4017 -2.0338 0.9745
-5.1080 -3.3682 -2.0338 0.9745
-3.7382 4.2865 -2.0339 0.9761
-4.7441 3.1371 -2.0339 0.9761
-5.4078 1.7615 -2.0339 0.9761
-5.5439 1.2696 -2.0339 0.9761
-5.6815 0.2589 -2.0339 0.9761
-5.6364 -0.7600 -2.0338 0.9761
-5.5455 -1.2623 -2.0338 0.9761
-5.2308 -2.2325 -2.0338 0.9761
-4.7480 -3.1308 -2.0338 0.9761
-3.8330 3.6712 -2.0339 0.9775
-4.1467 3.3126 -2.0339 0.9775
-4.4270 2.9275 -2.0339 0.9775
-5.0464 1.6438 -2.0339 0.9775
-5.1734 1.1847 -2.0339 0.9775
-5.2588 0.7161 -2.0339 0.9775
-5.3021 -0.2347 -2.0339 0.9775
-5.2597 -0.7092 -2.0338 0.9775
-5.0484 -1.6372 -2.0338 0.9775
-4.8813 -2.0833 -2.0338 0.9775
-4.6748 -2.5125 -2.0338 0.9775
-4.4307 -2.9216 -2.0338 0.9775
-4.5680 1.9566 -2.0339 0.9788
-2.1095 0.2872 -0.8713 0.9908
-2.1225 -0.0940 -0.8695 0.9909
-4.3772 -2.3526 -2.0338 0.9788
-4.1486 -2.7356 -2.0338 0.9788
-3.3704 3.2280 -2.0339 0.9798
-3.6462 2.9128 -2.0339 0.9798
-4.1079 2.2147 -2.0339 0.9798
-1.9016 0.4354 -0.8502 0.9915
-1.9183 0.0874 -0.8369 0.9917
-1.9016 -0.2564 -0.8363 0.9917
-1.9018 -0.4329 -0.8500 0.9915
-4.4391 -1.4396 -2.0338 0.9798
-4.2921 -1.8319 -2.0338 0.9798
-4.1106 -2.2093 -2.0338 0.9798
-3.8959 -2.5690 -2.0338 0.9798
-3.1733 3.0393 -2.0339 0.9808
-3.4330 2.7425 -2.0339 0.9808
-3.8676 2.0852 -2.0339 0.9808
-4.0390 1.7300 -2.0339 0.9808
-1.6105 -0.2172 -0.7522 0.9929
-1.5881 -0.3615 -0.7539 0.9928
-1.6219 -0.5260 -0.7892 0.9925
-4.0412 -1.7247 -2.0338 0.9808
-3.6681 -2.4188 -2.0338 0.9808
-2.7253 3.1250 -2.0339 0.9817
-3.2396 2.5880 -2.0339 0.9817
-3.6497 1.9678 -2.0339 0.9817
-1.3505 0.1838 -0.6686 0.9939
-1.3483 0.0614 -0.6621 0.9940
-1.3507 -0.1821 -0.6685 0.9939
-1.3256 -0.3018 -0.6669 0.9940
-1.2845 -0.4166 -0.6624 0.9940
-3.6522 -1.9629 -2.0338 0.9817
-2.5768 2.9548 -2.0339 0.9825
-2.8314 2.7118 -2.0339 0.9825
-3.2702 2.1625 -2.0339 0.9825
-3.4509 1.8606 -2.0339 0.9825
-1.1116 0.4761 -0.6274 0.9946
-1.1404 0.3714 -0.6222 0.9946
-1.1970 0.1629 -0.6267 0.9946
-1.1972 -0.1615 -0.6267 0.9946
-3.4532 -1.8560 -2.0338 0.9825
-3.2729 -2.1582 -2.0338 0.9825
-2.4407 2.7988 -2.0339 0.9832
-1.0044 0.4302 -0.5985 0.9950
-1.0312 0.3359 -0.5940 0.9951
-1.0510 0.2406 -0.5905 0.9951
-1.0809 -0.0479 -0.5926 0.9951
-1.0747 -0.1449 -0.5939 0.9951
-3.1000 -2.0442 -2.0339 0.9832
-2.3154 2.6550 -2.0339 0.9839
-2.5441 2.4367 -2.0339 0.9839
-2.9384 1.9431 -2.0339 0.9839
-0.9314 0.3989 -0.5850 0.9953
-0.9525 0.3102 -0.5784 0.9954
-0.9689 0.2219 -0.5739 0.9954
-0.9900 0.0451 -0.5722 0.9954
-0.9693 -0.2207 -0.5739 0.9954
-0.9318 -0.3977 -0.5849 0.9953
