ply
format ascii 1.0
element vertex 208
property float32 x
property float32 y
property float32 z
property float32 I
end_header
-12.8484 12.9155 3.2123 0.9287
-12.3646 12.4292 2.6858 0.9315
-10.9811 13.2774 2.2437 0.9329
-12.1774 12.2409 1.8541 0.9329
-4.5805 19.3746 1.6853 0.9232
-12.1655 12.2290 1.4602 0.9331
-12.1958 14.7462 1.1866 0.9262
-12.4565 15.0614 0.7707 0.9247
-16.3968 5.6005 -0.8787 0.9330
-1.7885 7.5648 -0.5700 0.9693
-16.2665 5.5560 -1.2603 0.9334
-1.7533 7.4159 -0.7316 0.9698
-5.4502 16.2330 -2.0340 0.9333
-6.9149 15.6650 -2.0340 0.9334
-8.3214 14.9653 -2.0340 0.9334
-10.9128 13.1948 -2.0340 0.9334
-12.0759 12.1390 -2.0339 0.9334
-15.6275 6.9958 -2.0338 0.9334
-16.2026 5.5342 -2.0338 0.9334
-16.9402 2.4839 -2.0338 0.9334
-17.0964 0.9210 -2.0338 0.9334
-16.9771 -2.2149 -2.0337 0.9334
-16.7026 -3.7614 -2.0337 0.9334
-2.5973 7.7359 -1.1562 0.9676
-5.7971 13.1328 -2.0340 0.9437
-8.0966 11.8538 -2.0340 0.9437
-10.1239 10.1768 -2.0339 0.9437
-11.8111 8.1579 -2.0339 0.9437
-12.5089 7.0411 -2.0339 0.9437
-13.1014 5.8650 -2.0339 0.9437
-13.5837 4.6396 -2.0338 0.9437
-13.9516 3.3752 -2.0338 0.9437
-14.3331 0.7721 -2.0338 0.9437
-14.3434 -0.5447 -2.0338 0.9437
-14.2330 -1.8569 -2.0338 0.9437
-14.0029 -3.1535 -2.0337 0.9437
-3.9298 11.7046 -2.0340 0.9512
-6.0000 10.7906 -2.0340 0.9512
-6.9637 10.1953 -2.0340 0.9512
-7.8686 9.5141 -2.0339 0.9512
-9.4729 7.9180 -2.0339 0.9512
-10.1586 7.0165 -2.0339 0.9512
-10.7587 6.0559 -2.0339 0.9512
-11.9996 2.9030 -2.0338 0.9512
-12.2151 1.7911 -2.0338 0.9512
-12.3277 0.6640 -2.0338 0.9512
-12.3366 -0.4685 -2.0338 0.9512
-12.2417 -1.5971 -2.0338 0.9512
-1.6793 7.1034 -1.3720 0.9707
-2.4161 7.1960 -1.4268 0.9696
-5.2588 9.4575 -2.0340 0.9569
-6.1034 8.9356 -2.0339 0.9569
-6.8965 8.3387 -2.0339 0.9569
-7.6316 7.6715 -2.0339 0.9569
-8.9035 6.1496 -2.0339 0.9569
-10.8047 0.5820 -2.0338 0.9569
-10.7294 -1.3998 -2.0338 0.9569
-10.5559 -2.3772 -2.0338 0.9569
-1.7047 7.2104 -1.5661 0.9702
-3.8858 8.8028 -2.0340 0.9614
-4.6761 8.4096 -2.0340 0.9614
-5.4271 7.9456 -2.0339 0.9614
-7.3827 6.1709 -2.0339 0.9614
-9.3520 2.2625 -2.0338 0.9614
-9.6077 0.5175 -2.0338 0.9614
-9.6146 -0.3651 -2.0338 0.9614
-9.5407 -1.2447 -2.0338 0.9614
-2.5100 7.4758 -1.8534 0.9681
-5.5155 6.6689 -2.0339 0.9651
-7.1206 4.9182 -2.0339 0.9651
-7.5414 4.2449 -2.0339 0.9651
-7.8986 3.5359 -2.0339 0.9651
-8.1893 2.7971 -2.0339 0.9651
-8.4112 2.0348 -2.0339 0.9651
-8.5622 1.2554 -2.0338 0.9651
-8.6475 -0.3284 -2.0338 0.9651
-8.5809 -1.1195 -2.0338 0.9651
-8.4421 -1.9012 -2.0338 0.9651
-1.8074 7.6449 -2.0340 0.9681
-2.5004 7.4471 -2.0340 0.9681
-3.1723 7.1866 -2.0340 0.9681
-5.5402 5.5691 -2.0339 0.9681
-6.0272 5.0379 -2.0339 0.9681
-6.4635 4.4643 -2.0339 0.9681
-7.1696 3.2096 -2.0339 0.9681
-7.6350 1.8471 -2.0339 0.9681
-7.7720 1.1396 -2.0338 0.9681
-7.7891 -1.0162 -2.0338 0.9681
-7.6631 -1.7258 -2.0338 0.9681
-2.2868 6.8111 -2.0340 0.9706
-2.9014 6.5729 -2.0339 0.9706
-5.0670 5.0935 -2.0339 0.9706
-5.5125 4.6077 -2.0339 0.9706
-5.9115 4.0831 -2.0339 0.9706
-7.1084 1.0422 -2.0339 0.9706
-7.1739 0.3864 -2.0338 0.9706
-7.1791 -0.2726 -2.0338 0.9706
-7.1239 -0.9294 -2.0338 0.9706
-7.0087 -1.5784 -2.0338 0.9706
-1.5214 6.4354 -2.0340 0.9727
-3.2136 5.7794 -2.0339 0.9727
-3.7297 5.4605 -2.0339 0.9727
-4.2144 5.0957 -2.0339 0.9727
-4.6636 4.6880 -2.0339 0.9727
-5.4409 3.7580 -2.0339 0.9727
-5.7624 3.2436 -2.0339 0.9727
-6.0354 2.7018 -2.0339 0.9727
-6.2575 2.1373 -2.0339 0.9727
-6.5425 0.9593 -2.0339 0.9727
-6.6077 -0.2510 -2.0338 0.9727
-1.9476 5.8006 -2.0339 0.9745
-2.4709 5.5978 -2.0339 0.9745
-4.3153 4.3379 -2.0339 0.9745
-5.7902 1.9777 -2.0339 0.9745
-5.9471 1.4387 -2.0339 0.9745
-6.0539 0.8877 -2.0339 0.9745
-6.1141 -0.2322 -2.0338 0.9745
-6.0671 -0.7915 -2.0338 0.9745
-1.8103 5.3918 -2.0339 0.9761
-2.2968 5.2032 -2.0339 0.9761
-2.7640 4.9708 -2.0339 0.9761
-3.6248 4.3828 -2.0339 0.9761
-4.9562 2.7898 -2.0339 0.9761
-5.1911 2.3238 -2.0339 0.9761
-5.3821 1.8383 -2.0339 0.9761
-5.6396 -0.7358 -2.0338 0.9761
-2.5793 4.6386 -2.0339 0.9775
-2.9936 4.3827 -2.0339 0.9775
-3.3825 4.0899 -2.0339 0.9775
-3.7432 3.7627 -2.0339 0.9775
-4.6250 2.6034 -2.0339 0.9775
-5.0225 1.7154 -2.0339 0.9775
-5.1585 1.2479 -2.0339 0.9775
-5.2511 0.7700 -2.0339 0.9775
-5.3034 -0.2014 -2.0339 0.9775
-5.2627 -0.6866 -2.0338 0.9775
-5.1776 -1.1660 -2.0338 0.9775
-1.1434 4.8363 -2.0339 0.9788
-1.5818 4.7111 -2.0339 0.9788
-2.0069 4.5463 -2.0339 0.9788
-2.4150 4.3433 -2.0339 0.9788
-3.1672 3.8295 -2.0339 0.9788
-3.5048 3.5231 -2.0339 0.9788
-4.0889 2.8242 -2.0339 0.9788
-4.5357 2.0305 -2.0339 0.9788
-4.7027 1.6062 -2.0339 0.9788
-2.1461 0.5191 -0.9037 0.9905
-2.1125 0.3097 -0.8738 0.9908
-2.1227 -0.0806 -0.8694 0.9909
-2.1077 -0.2750 -0.8699 0.9909
-2.1200 -0.4775 -0.8894 0.9907
-1.8846 4.2695 -2.0339 0.9798
-2.2680 4.0788 -2.0339 0.9798
-2.6322 3.8538 -2.0339 0.9798
-3.8399 2.6522 -2.0339 0.9798
-4.2595 1.9068 -2.0339 0.9798
-1.8994 0.4595 -0.8517 0.9915
-1.9036 0.2791 -0.8385 0.9916
-1.9177 0.1033 -0.8370 0.9917
-1.9187 -0.0729 -0.8368 0.9917
-1.9027 -0.2483 -0.8362 0.9917
-1.9021 -0.4284 -0.8497 0.9915
-1.7745 4.0198 -2.0339 0.9808
-2.1354 3.8403 -2.0339 0.9808
-2.4783 3.6284 -2.0339 0.9808
-3.3714 2.8180 -2.0339 0.9808
-3.8290 2.1553 -2.0339 0.9808
-1.7298 0.5908 -0.8461 0.9920
-1.6106 0.2361 -0.7535 0.9929
-1.5941 0.0858 -0.7390 0.9930
-1.5870 -0.0603 -0.7351 0.9930
-1.5893 -0.3579 -0.7541 0.9928
-0.9540 4.0352 -2.0339 0.9817
-2.3386 3.4239 -2.0339 0.9817
-3.1814 2.6592 -2.0339 0.9817
-3.4117 2.3564 -2.0339 0.9817
-3.7844 1.6942 -2.0339 0.9817
-1.3487 0.1977 -0.6687 0.9939
-1.3467 -0.0512 -0.6611 0.9940
-1.3513 -0.1763 -0.6685 0.9939
-1.3264 -0.2987 -0.6669 0.9940
-1.2479 3.7167 -2.0339 0.9825
-1.9053 3.4265 -2.0339 0.9825
-2.2113 3.2374 -2.0339 0.9825
-3.2258 2.2281 -2.0339 0.9825
-3.4165 1.9231 -2.0339 0.9825
-1.1370 0.3883 -0.6233 0.9946
-1.1686 0.2827 -0.6238 0.9946
-1.1949 0.1752 -0.6265 0.9946
-0.8544 3.6139 -2.0339 0.9832
-1.1820 3.5204 -2.0339 0.9832
-1.4996 3.3973 -2.0339 0.9832
-2.3667 2.8616 -2.0339 0.9832
-3.2360 1.8215 -2.0339 0.9832
-1.0280 0.3511 -0.5950 0.9951
-1.0468 0.2532 -0.5898 0.9951
-1.0726 0.1572 -0.5938 0.9951
-1.0814 0.0582 -0.5931 0.9951
-1.0804 -0.0411 -0.5922 0.9951
-1.0754 -0.1403 -0.5940 0.9951
-1.4226 3.2228 -2.0339 0.9839
-2.7029 2.2593 -2.0339 0.9839
-2.8986 2.0021 -2.0339 0.9839
-0.9499 0.3244 -0.5795 0.9954
-0.9657 0.2336 -0.5736 0.9954
-0.9900 0.0533 -0.5724 0.9954
-0.9900 -0.0376 -0.5720 0.9954
-0.9853 -0.1286 -0.5737 0.9954
