ply
format ascii 1.0
element vertex 181
property float32 x
property float32 y
property float32 z
property float32 I
end_header
2.4667 -6.1424 -0.6355 0.9738
-6.8681 -15.6824 -2.0337 0.9334
-4.0063 -16.6452 -2.0337 0.9334
-2.5229 -16.9338 -2.0337 0.9334
-1.0199 -17.0904 -2.0337 0.9334
1.9984 -17.0039 -2.0337 0.9334
3.4900 -16.7616 -2.0337 0.9334
3.0460 -5.9940 -0.7987 0.9733
9.0726 -14.5204 -2.0338 0.9334
10.3177 -13.6639 -2.0338 0.9334
11.4826 -12.7010 -2.0339 0.9334
13.5355 -10.4865 -2.0339 0.9334
14.4076 -9.2522 -2.0339 0.9334
-2.1151 -14.1967 -2.0337 0.9437
-0.8550 -14.3280 -2.0337 0.9437
1.6754 -14.2555 -2.0338 0.9437
2.9260 -14.0523 -2.0338 0.9437
2.4102 -6.0018 -0.9164 0.9742
3.0501 -6.0021 -0.9539 0.9732
7.6061 -12.1734 -2.0338 0.9437
-2.8888 -12.0025 -2.0337 0.9512
-0.7354 -12.3234 -2.0338 0.9512
0.3542 -12.3403 -2.0338 0.9512
1.4410 -12.2611 -2.0338 0.9512
2.5166 -12.0863 -2.0338 0.9512
2.9723 -5.8491 -1.0808 0.9738
7.4397 -9.8525 -2.0339 0.9512
9.0550 -8.3925 -2.0339 0.9512
9.7598 -7.5613 -2.0339 0.9512
10.3886 -6.6713 -2.0339 0.9512
-2.5320 -10.5198 -2.0338 0.9569
-1.5945 -10.7020 -2.0338 0.9569
-0.6445 -10.8010 -2.0338 0.9569
1.2630 -10.7464 -2.0338 0.9569
2.2057 -10.5932 -2.0338 0.9569
1.8155 -6.0056 -1.1793 0.9748
2.3711 -5.9045 -1.1959 0.9744
2.9420 -5.7895 -1.2206 0.9739
5.7337 -9.1766 -2.0338 0.9569
-3.8597 -8.8133 -2.0338 0.9614
-2.2514 -9.3543 -2.0338 0.9614
-0.5731 -9.6044 -2.0338 0.9614
0.2760 -9.6176 -2.0338 0.9614
1.3271 -6.3735 -1.3761 0.9737
2.3441 -5.8371 -1.3296 0.9746
2.8566 -5.6212 -1.3328 0.9746
5.0985 -8.1599 -2.0339 0.9614
7.0570 -6.5407 -2.0339 0.9614
7.6063 -5.8929 -2.0339 0.9614
8.0964 -5.1993 -2.0339 0.9614
-1.2752 -8.5591 -2.0338 0.9651
0.2483 -8.6501 -2.0338 0.9651
2.2854 -5.6909 -1.4413 0.9751
4.5856 -7.3391 -2.0339 0.9651
-3.1511 -7.1952 -2.0338 0.9681
-2.5044 -7.4451 -2.0338 0.9681
-1.1575 -7.7693 -2.0338 0.9681
0.2254 -7.8518 -2.0338 0.9681
0.9169 -7.8014 -2.0338 0.9681
1.2841 -6.1675 -1.6311 0.9743
2.9174 -5.7409 -1.6673 0.9737
4.1624 -6.6618 -2.0339 0.9681
5.2680 -5.8270 -2.0339 0.9681
5.7613 -5.3398 -2.0339 0.9681
6.2098 -4.8110 -2.0339 0.9681
6.6099 -4.2447 -2.0339 0.9681
-2.8821 -6.5808 -2.0338 0.9706
-2.2905 -6.8094 -2.0338 0.9706
-1.0587 -7.1058 -2.0338 0.9706
0.2061 -7.1814 -2.0338 0.9706
1.4645 -7.0335 -2.0338 0.9706
3.2127 -6.3220 -2.0075 0.9709
4.3294 -5.7335 -2.0339 0.9706
4.8181 -5.3294 -2.0339 0.9706
5.2693 -4.8838 -2.0339 0.9706
5.6795 -4.4002 -2.0339 0.9706
6.0454 -3.8822 -2.0339 0.9706
-1.5473 -6.4288 -2.0338 0.9727
-0.3939 -6.6006 -2.0338 0.9727
0.1897 -6.6097 -2.0338 0.9727
2.4642 -6.1362 -2.0339 0.9727
2.9957 -5.8950 -2.0339 0.9727
3.5039 -5.6079 -2.0339 0.9727
3.9847 -5.2771 -2.0339 0.9727
5.5641 -3.5732 -2.0339 0.9727
-2.4545 -5.6046 -2.0338 0.9745
-1.9507 -5.7992 -2.0338 0.9745
-1.4318 -5.9486 -2.0338 0.9745
-0.3645 -6.1077 -2.0338 0.9745
0.1755 -6.1161 -2.0338 0.9745
0.7142 -6.0767 -2.0338 0.9745
1.2473 -5.9901 -2.0338 0.9745
2.2802 -5.6779 -2.0339 0.9745
4.1034 -4.5388 -2.0339 0.9745
4.4876 -4.1593 -2.0339 0.9745
4.8369 -3.7474 -2.0339 0.9745
5.1486 -3.3063 -2.0339 0.9745
-2.2816 -5.2096 -2.0338 0.9761
-1.3309 -5.5294 -2.0338 0.9761
-0.8381 -5.6253 -2.0338 0.9761
-0.3388 -5.6772 -2.0338 0.9761
0.1632 -5.6850 -2.0338 0.9761
0.6638 -5.6485 -2.0338 0.9761
1.1594 -5.5680 -2.0338 0.9761
1.6459 -5.4441 -2.0339 0.9761
2.1195 -5.2777 -2.0339 0.9761
2.5766 -5.0703 -2.0339 0.9761
4.1714 -3.8662 -2.0339 0.9761
4.4961 -3.4833 -2.0339 0.9761
4.7857 -3.0733 -2.0339 0.9761
-2.1291 -4.8615 -2.0338 0.9775
-1.6921 -5.0303 -2.0338 0.9775
-1.2420 -5.1599 -2.0338 0.9775
-0.7821 -5.2493 -2.0338 0.9775
-0.3162 -5.2979 -2.0338 0.9775
0.1522 -5.3051 -2.0338 0.9775
0.6195 -5.2710 -2.0338 0.9775
1.0819 -5.1959 -2.0339 0.9775
1.5358 -5.0802 -2.0339 0.9775
1.9779 -4.9250 -2.0339 0.9775
2.4044 -4.7315 -2.0339 0.9775
4.1956 -3.2505 -2.0339 0.9775
4.4659 -2.8679 -2.0339 0.9775
-1.9935 -4.5520 -2.0338 0.9788
-1.5844 -4.7100 -2.0338 0.9788
-1.1629 -4.8314 -2.0338 0.9788
-0.7323 -4.9151 -2.0338 0.9788
0.5800 -4.9354 -2.0339 0.9788
4.1816 -2.6853 -2.0339 0.9788
-1.8721 -4.2748 -2.0338 0.9798
-1.4879 -4.4232 -2.0338 0.9798
0.1339 -4.6648 -2.0338 0.9798
1.7391 -4.3306 -2.0339 0.9798
2.8123 -3.7244 -2.0339 0.9798
3.1297 -3.4618 -2.0339 0.9798
3.4228 -3.1724 -2.0339 0.9798
3.9269 -2.5218 -2.0339 0.9798
-0.6475 -4.3459 -2.0338 0.9808
0.8957 -4.3016 -2.0339 0.9808
1.6374 -4.0774 -2.0339 0.9808
1.9906 -3.9171 -2.0339 0.9808
2.3283 -3.7263 -2.0339 0.9808
2.6478 -3.5066 -2.0339 0.9808
3.2227 -2.9869 -2.0339 0.9808
3.4735 -2.6911 -2.0339 0.9808
3.6973 -2.3743 -2.0339 0.9808
-1.3220 -3.9299 -2.0338 0.9817
-0.6110 -4.1010 -2.0338 0.9817
0.4840 -4.1180 -2.0339 0.9817
0.8452 -4.0592 -2.0339 0.9817
1.5452 -3.8477 -2.0339 0.9817
2.1970 -3.5164 -2.0339 0.9817
2.7807 -3.0757 -2.0339 0.9817
3.0411 -2.8186 -2.0339 0.9817
3.4890 -2.2405 -2.0339 0.9817
-1.5727 -3.5912 -2.0338 0.9825
-1.2500 -3.7159 -2.0338 0.9825
-0.5777 -3.8777 -2.0339 0.9825
-0.2336 -3.9135 -2.0339 0.9825
0.1125 -3.9189 -2.0339 0.9825
1.1345 -3.7528 -2.0339 0.9825
1.4610 -3.6381 -2.0339 0.9825
2.3625 -3.1287 -2.0339 0.9825
2.8754 -2.6651 -2.0339 0.9825
3.0993 -2.4011 -2.0339 0.9825
-0.5472 -3.6729 -2.0339 0.9832
-0.2212 -3.7069 -2.0339 0.9832
0.1065 -3.7119 -2.0339 0.9832
0.4334 -3.6881 -2.0339 0.9832
0.7570 -3.6355 -2.0339 0.9832
1.0746 -3.5546 -2.0339 0.9832
2.4904 -2.7546 -2.0339 0.9832
-1.4132 -3.2269 -2.0339 0.9839
-1.1231 -3.3389 -2.0339 0.9839
-0.5191 -3.4843 -2.0339 0.9839
0.1010 -3.5213 -2.0339 0.9839
0.4112 -3.4987 -2.0339 0.9839
1.3128 -3.2690 -2.0339 0.9839
1.5960 -3.1405 -2.0339 0.9839
2.3625 -2.6132 -2.0339 0.9839
2.7848 -2.1575 -2.0339 0.9839
