ply
format ascii 1.0
element vertex 194
property float32 x
property float32 y
property float32 z
property float32 I
end_header
16.4726 -3.5294 -1.2352 0.9347
2.4493 -6.1970 -0.6397 0.9736
16.3699 -3.5074 -1.6073 0.9349
2.4431 -6.1815 -0.7895 0.9736
9.0248 -14.5501 -2.0338 0.9334
12.5581 -11.6389 -2.0339 0.9334
13.5472 -10.4714 -2.0339 0.9334
14.4280 -9.2203 -2.0339 0.9334
15.8381 -6.5076 -2.0340 0.9334
16.7432 -3.5874 -2.0340 0.9334
16.9969 -2.0783 -2.0340 0.9333
2.4171 -6.1154 -0.9317 0.9738
7.5661 -12.1982 -2.0338 0.9437
9.6149 -10.6585 -2.0339 0.9437
10.5282 -9.7576 -2.0339 0.9437
11.3573 -8.7788 -2.0339 0.9437
12.0958 -7.7299 -2.0339 0.9437
14.0367 -3.0075 -2.0340 0.9437
14.2019 2.0957 -2.0340 0.9437
2.4237 -12.1052 -2.0338 0.9512
1.7849 -6.0477 -1.0388 0.9748
2.9177 -5.8043 -1.0702 0.9740
6.5075 -10.4915 -2.0338 0.9512
9.7682 -7.5505 -2.0339 0.9512
10.4034 -6.6484 -2.0339 0.9512
10.9554 -5.6931 -2.0339 0.9512
12.0727 -2.5867 -2.0340 0.9512
12.2554 -1.4986 -2.0340 0.9512
12.3268 0.7048 -2.0340 0.9512
12.2147 1.8025 -2.0340 0.9512
1.7804 -6.0322 -1.1822 0.9747
5.7035 -9.1954 -2.0338 0.9569
6.5017 -8.6496 -2.0339 0.9569
7.2480 -8.0346 -2.0339 0.9569
7.9364 -7.3555 -2.0339 0.9569
8.5614 -6.6177 -2.0339 0.9569
10.8038 0.6177 -2.0340 0.9569
10.7055 1.5798 -2.0340 0.9569
1.7357 -5.8810 -1.2961 0.9752
5.0716 -8.1766 -2.0339 0.9614
5.7814 -7.6913 -2.0339 0.9614
6.4450 -7.1445 -2.0339 0.9614
7.6129 -5.8845 -2.0339 0.9614
8.1079 -5.1814 -2.0339 0.9614
8.5381 -4.4369 -2.0339 0.9614
9.1912 -2.8478 -2.0339 0.9614
9.5512 -1.1679 -2.0340 0.9614
9.6173 -0.3106 -2.0340 0.9614
1.2519 -6.2527 -1.4987 0.9741
1.7229 -5.8373 -1.4304 0.9753
2.8175 -5.6050 -1.4744 0.9746
4.5614 -7.3541 -2.0339 0.9651
5.1998 -6.9176 -2.0339 0.9651
6.3471 -5.8826 -2.0339 0.9651
6.8470 -5.2925 -2.0339 0.9651
7.2922 -4.6601 -2.0339 0.9651
8.5618 1.2634 -2.0340 0.9651
1.5421 -7.7022 -2.0338 0.9681
2.2398 -5.6671 -1.5778 0.9751
2.8407 -5.6511 -1.6376 0.9742
4.1405 -6.6754 -2.0339 0.9681
5.7614 -5.3397 -2.0339 0.9681
6.9705 -3.6223 -2.0339 0.9681
7.2661 -2.9855 -2.0339 0.9681
7.5036 -2.3249 -2.0339 0.9681
7.6813 -1.6458 -2.0339 0.9681
7.7716 1.1468 -2.0340 0.9681
1.4104 -7.0445 -2.0338 0.9706
1.7450 -5.9121 -1.7451 0.9747
2.6407 -6.6815 -2.0338 0.9706
3.7869 -6.1054 -2.0339 0.9706
4.3169 -5.7429 -2.0339 0.9706
4.8123 -5.3346 -2.0339 0.9706
5.2694 -4.8838 -2.0339 0.9706
5.6844 -4.3938 -2.0339 0.9706
6.0539 -3.8688 -2.0339 0.9706
6.3752 -3.3129 -2.0339 0.9706
6.8629 -2.1264 -2.0339 0.9706
7.0253 -1.5053 -2.0339 0.9706
7.1316 -0.8721 -2.0340 0.9706
7.1731 0.4101 -2.0340 0.9706
7.1079 1.0489 -2.0340 0.9706
2.4305 -6.1496 -2.0339 0.9727
2.9699 -5.9080 -2.0339 0.9727
3.4854 -5.6194 -2.0339 0.9727
4.4292 -4.9100 -2.0339 0.9727
4.8499 -4.4950 -2.0339 0.9727
5.2319 -4.0441 -2.0339 0.9727
5.8677 -3.0492 -2.0339 0.9727
6.1165 -2.5132 -2.0339 0.9727
6.4660 -1.3854 -2.0339 0.9727
6.5639 -0.8026 -2.0339 0.9727
2.2490 -5.6903 -2.0339 0.9745
2.7480 -5.4668 -2.0339 0.9745
3.6764 -4.8910 -2.0339 0.9745
4.0984 -4.5433 -2.0339 0.9745
5.6597 -2.3255 -2.0339 0.9745
6.1157 -0.1975 -2.0340 0.9745
6.1089 0.3493 -2.0340 0.9745
6.0534 0.8933 -2.0340 0.9745
1.1166 -5.5767 -2.0338 0.9761
2.5544 -5.0815 -2.0339 0.9761
2.9979 -4.8332 -2.0339 0.9761
3.4173 -4.5463 -2.0339 0.9761
4.1714 -3.8662 -2.0339 0.9761
5.0468 -2.6226 -2.0339 0.9761
5.2609 -2.1616 -2.0339 0.9761
5.4328 -1.6833 -2.0339 0.9761
5.6456 -0.6903 -2.0339 0.9761
5.6784 0.3247 -2.0340 0.9761
5.6268 0.8303 -2.0340 0.9761
1.5023 -5.0902 -2.0339 0.9775
1.9508 -4.9358 -2.0339 0.9775
3.5550 -3.9408 -2.0339 0.9775
3.8927 -3.6077 -2.0339 0.9775
4.4722 -2.8580 -2.0339 0.9775
5.1897 -1.1119 -2.0339 0.9775
5.2683 -0.6442 -2.0339 0.9775
5.2989 0.3030 -2.0339 0.9775
5.2507 0.7748 -2.0340 0.9775
0.9756 -4.8727 -2.0339 0.9788
1.4067 -4.7662 -2.0339 0.9788
2.2319 -4.4400 -2.0339 0.9788
2.6194 -4.2231 -2.0339 0.9788
2.9859 -3.9724 -2.0339 0.9788
3.3287 -3.6899 -2.0339 0.9788
3.6448 -3.3780 -2.0339 0.9788
3.9318 -3.0392 -2.0339 0.9788
4.1875 -2.6761 -2.0339 0.9788
4.4097 -2.2915 -2.0339 0.9788
4.7470 -1.4708 -2.0339 0.9788
4.9671 -0.1604 -2.0339 0.9787
4.9615 0.2837 -2.0339 0.9788
4.9164 0.7255 -2.0340 0.9787
0.9162 -4.5760 -2.0339 0.9798
2.4598 -3.9659 -2.0339 0.9798
2.8041 -3.7304 -2.0339 0.9798
3.1260 -3.4652 -2.0339 0.9798
3.4228 -3.1723 -2.0339 0.9798
3.9325 -2.5131 -2.0339 0.9798
4.5634 -0.9778 -2.0339 0.9798
4.6325 -0.5665 -2.0339 0.9798
4.6594 0.2664 -2.0339 0.9798
4.6170 0.6813 -2.0339 0.9798
1.2438 -4.2142 -2.0339 0.9808
1.6151 -4.0863 -2.0339 0.9808
1.9734 -3.9258 -2.0339 0.9808
2.3160 -3.7340 -2.0339 0.9808
2.9431 -3.2626 -2.0339 0.9808
3.2227 -2.9868 -2.0339 0.9808
3.4765 -2.6872 -2.0339 0.9808
3.8990 -2.0261 -2.0339 0.9808
4.1972 -1.3005 -2.0339 0.9808
4.3616 -0.5333 -2.0339 0.9808
4.3918 -0.1418 -2.0339 0.9808
4.3470 0.6414 -2.0339 0.9808
0.8140 -4.0656 -2.0339 0.9817
1.1737 -3.9768 -2.0339 0.9817
2.7773 -3.0788 -2.0339 0.9817
3.0411 -2.8186 -2.0339 0.9817
3.8353 -1.5759 -2.0339 0.9817
3.9607 -1.2272 -2.0339 0.9817
4.0544 -0.8687 -2.0339 0.9817
4.1158 -0.5033 -2.0339 0.9817
4.1443 -0.1338 -2.0339 0.9817
4.1021 0.6053 -2.0339 0.9817
1.1098 -3.7601 -2.0339 0.9825
1.4410 -3.6461 -2.0339 0.9825
1.7608 -3.5028 -2.0339 0.9825
2.8755 -2.6650 -2.0339 0.9825
3.6264 -1.4900 -2.0339 0.9825
3.7450 -1.1604 -2.0339 0.9825
2.0869 -0.2552 -1.0907 0.9906
2.0783 0.1188 -1.0800 0.9907
2.0965 0.3094 -1.0994 0.9905
0.7290 -3.6412 -2.0339 0.9832
1.3649 -3.4535 -2.0339 0.9832
1.6678 -3.3179 -2.0339 0.9832
2.2313 -2.9684 -2.0339 0.9832
2.7236 -2.5243 -2.0339 0.9832
2.9381 -2.2711 -2.0339 0.9832
3.4349 -1.4113 -2.0339 0.9832
1.8795 -0.5823 -1.0777 0.9911
1.8571 -0.3979 -1.0402 0.9914
1.8526 0.1059 -1.0163 0.9916
1.8477 0.2726 -1.0230 0.9915
0.6916 -3.4542 -2.0339 0.9839
1.2948 -3.2762 -2.0339 0.9839
1.8569 -2.9937 -2.0339 0.9839
2.9685 -1.8970 -2.0339 0.9839
1.7193 -0.5328 -1.0392 0.9917
1.7148 -0.3674 -1.0125 0.9919
1.7166 -0.2099 -0.9985 0.9920
1.7234 0.0985 -0.9966 0.9921
