ply
format ascii 1.0
element vertex 210
property float32 x
property float32 y
property float32 z
property float32 I
end_header
-14.9684 -8.3102 -2.0337 0.9334
-11.4882 -7.7930 -1.6490 0.9456
-13.2554 -10.8353 -2.0337 0.9334
-12.2371 -11.9733 -2.0337 0.9334
-8.6343 -14.7836 -2.0337 0.9334
-7.2825 -15.4943 -2.0337 0.9334
-4.4165 -16.5411 -2.0337 0.9334
3.1532 -16.8282 -2.0337 0.9334
1.8146 -6.4449 -0.7953 0.9734
2.3182 -6.0905 -0.7741 0.9741
2.8622 -5.8814 -0.7770 0.9740
-11.1130 -9.0839 -2.0337 0.9437
-7.2387 -12.3942 -2.0337 0.9437
-6.1055 -12.9899 -2.0337 0.9437
-4.9237 -13.4824 -2.0337 0.9437
1.3759 -14.2875 -2.0338 0.9437
1.7223 -6.1168 -0.9004 0.9747
2.3560 -6.1900 -0.9384 0.9736
2.8577 -5.8722 -0.9253 0.9740
7.4065 -12.2958 -2.0338 0.9437
-11.2845 -5.0067 -2.0337 0.9512
-10.2164 -6.9302 -2.0337 0.9512
-9.5582 -7.8130 -2.0337 0.9512
-8.0195 -9.3857 -2.0337 0.9512
-6.2261 -10.6602 -2.0337 0.9512
-4.2348 -11.5962 -2.0337 0.9512
-3.1846 -11.9274 -2.0337 0.9512
-2.1091 -12.1637 -2.0337 0.9512
0.0837 -12.3451 -2.0338 0.9512
1.1834 -12.2886 -2.0338 0.9512
2.2738 -12.1343 -2.0338 0.9512
1.7511 -6.2192 -1.0644 0.9741
2.2708 -5.9661 -1.0516 0.9745
2.8735 -5.9046 -1.0818 0.9737
6.3702 -10.5754 -2.0338 0.9512
-9.8904 -4.3882 -2.0338 0.9569
-9.4600 -5.2520 -2.0338 0.9569
-8.9543 -6.0741 -2.0338 0.9569
-8.3774 -6.8479 -2.0338 0.9569
-5.4569 -9.3433 -2.0337 0.9569
-4.6026 -9.7924 -2.0338 0.9569
-3.7117 -10.1636 -2.0338 0.9569
-1.8486 -10.6611 -2.0338 0.9569
0.0733 -10.8200 -2.0338 0.9569
1.9929 -10.6353 -2.0338 0.9569
2.2644 -5.9492 -1.1965 0.9744
-8.4120 -4.6702 -2.0338 0.9614
-7.9623 -5.4012 -2.0338 0.9614
-6.8771 -6.7288 -2.0338 0.9614
-5.5734 -7.8427 -2.0338 0.9614
-4.8523 -8.3082 -2.0338 0.9614
-3.3005 -9.0376 -2.0338 0.9614
-1.6437 -9.4800 -2.0338 0.9614
-0.7925 -9.5888 -2.0338 0.9614
0.0652 -9.6213 -2.0338 0.9614
0.9223 -9.5773 -2.0338 0.9614
1.6805 -5.9684 -1.3106 0.9750
3.6043 -5.9836 -1.4766 0.9718
-7.5658 -4.2004 -2.0338 0.9651
-7.1614 -4.8579 -2.0338 0.9651
-6.7000 -5.4767 -2.0338 0.9651
-4.3642 -7.4724 -2.0338 0.9651
-2.9685 -8.1285 -2.0338 0.9651
-1.4784 -8.5264 -2.0338 0.9651
1.6506 -5.8621 -1.4313 0.9753
3.6083 -5.9903 -1.6435 0.9717
-6.8676 -3.8128 -2.0338 0.9681
-5.6145 -5.4935 -2.0338 0.9681
-5.1026 -5.9719 -2.0338 0.9681
-4.5502 -6.4029 -2.0338 0.9681
-3.9615 -6.7829 -2.0338 0.9681
-3.3413 -7.1089 -2.0338 0.9681
-0.6470 -7.8284 -2.0338 0.9681
1.6509 -5.8634 -1.5772 0.9751
2.7309 -5.6116 -1.6159 0.9745
4.0531 -6.7288 -2.0339 0.9681
-6.2812 -3.4872 -2.0338 0.9706
-5.9454 -4.0330 -2.0338 0.9706
-5.1351 -5.0244 -2.0338 0.9706
-0.5917 -7.1599 -2.0338 0.9706
0.0487 -7.1841 -2.0338 0.9706
2.4614 -6.4669 -1.9589 0.9716
2.8685 -5.8943 -1.8557 0.9731
3.7070 -6.1542 -2.0339 0.9706
-5.4721 -3.7120 -2.0338 0.9727
-4.7263 -4.6244 -2.0338 0.9727
-4.2954 -5.0272 -2.0338 0.9727
-3.8303 -5.3899 -2.0338 0.9727
-3.3348 -5.7098 -2.0338 0.9727
-2.8127 -5.9843 -2.0338 0.9727
-2.2683 -6.2111 -2.0338 0.9727
-1.7058 -6.3886 -2.0338 0.9727
2.8936 -5.9458 -2.0339 0.9727
3.4119 -5.6643 -2.0339 0.9727
-5.3494 -2.9699 -2.0338 0.9745
-5.0634 -3.4347 -2.0338 0.9745
-4.7372 -3.8723 -2.0338 0.9745
-4.3733 -4.2790 -2.0338 0.9745
-2.6027 -5.5373 -2.0338 0.9745
-1.5784 -5.9114 -2.0338 0.9745
-0.5039 -6.0977 -2.0338 0.9745
0.5865 -6.0904 -2.0338 0.9745
1.6583 -5.8896 -2.0338 0.9745
3.1571 -5.2413 -2.0339 0.9745
-4.7066 -3.1927 -2.0338 0.9761
-4.4034 -3.5994 -2.0338 0.9761
-4.0651 -3.9775 -2.0338 0.9761
-3.6945 -4.3239 -2.0338 0.9761
-3.2945 -4.6359 -2.0338 0.9761
-2.4192 -5.1471 -2.0338 0.9761
-1.9509 -5.3422 -2.0338 0.9761
-0.9716 -5.6037 -2.0338 0.9761
-0.4684 -5.6680 -2.0338 0.9761
0.0385 -5.6872 -2.0338 0.9761
1.0475 -5.5901 -2.0338 0.9761
2.0232 -5.3154 -2.0339 0.9761
2.9346 -4.8719 -2.0339 0.9761
-4.8512 -2.1524 -2.0338 0.9775
-4.6401 -2.5761 -2.0338 0.9775
-4.3921 -2.9793 -2.0338 0.9775
-3.0743 -4.3261 -2.0338 0.9775
-2.6766 -4.5828 -2.0338 0.9775
-2.2576 -4.8031 -2.0338 0.9775
-1.8205 -4.9852 -2.0338 0.9775
-0.4371 -5.2893 -2.0338 0.9775
0.0359 -5.3072 -2.0338 0.9775
0.5087 -5.2829 -2.0338 0.9775
0.9775 -5.2165 -2.0339 0.9775
1.4384 -5.1087 -2.0339 0.9775
1.8880 -4.9602 -2.0339 0.9775
2.3224 -4.7722 -2.0339 0.9775
2.7384 -4.5463 -2.0339 0.9775
-4.5424 -2.0154 -2.0338 0.9788
-4.3447 -2.4121 -2.0338 0.9788
-4.1125 -2.7896 -2.0338 0.9788
-3.2281 -3.7781 -2.0338 0.9788
-2.1138 -4.4974 -2.0338 0.9788
-1.2820 -4.8012 -2.0338 0.9788
0.0336 -4.9693 -2.0338 0.9788
1.3469 -4.7834 -2.0339 0.9788
1.7678 -4.6444 -2.0339 0.9788
2.1746 -4.4684 -2.0339 0.9788
-3.8620 -2.6198 -2.0338 0.9798
-3.6132 -2.9535 -2.0338 0.9798
-2.7033 -3.8040 -2.0338 0.9798
-2.3536 -4.0298 -2.0338 0.9798
-1.6009 -4.3836 -2.0338 0.9798
-1.2039 -4.5088 -2.0338 0.9798
-0.3844 -4.6509 -2.0338 0.9798
0.4473 -4.6453 -2.0339 0.9798
0.8595 -4.5870 -2.0339 0.9798
1.2648 -4.4921 -2.0339 0.9798
1.6601 -4.3616 -2.0339 0.9798
2.0421 -4.1963 -2.0339 0.9798
-4.0163 -1.7820 -2.0338 0.9808
-3.8415 -2.1328 -2.0338 0.9808
-3.6361 -2.4666 -2.0338 0.9808
-3.4019 -2.7808 -2.0338 0.9808
-2.5452 -3.5816 -2.0338 0.9808
-1.8690 -3.9765 -2.0338 0.9808
-1.5073 -4.1272 -2.0338 0.9808
-1.1335 -4.2452 -2.0338 0.9808
-0.7507 -4.3293 -2.0338 0.9808
-0.3619 -4.3789 -2.0338 0.9808
0.8092 -4.3187 -2.0339 0.9808
1.1909 -4.2294 -2.0339 0.9808
1.9227 -3.9509 -2.0339 0.9808
-3.4313 -2.3276 -2.0338 0.9817
-3.2102 -2.6241 -2.0338 0.9817
-2.9636 -2.8997 -2.0338 0.9817
-2.6934 -3.1523 -2.0338 0.9817
-1.7637 -3.7525 -2.0338 0.9817
0.0280 -4.1462 -2.0339 0.9817
1.1237 -3.9911 -2.0339 0.9817
1.8144 -3.7283 -2.0339 0.9817
2.1394 -3.5518 -2.0339 0.9817
-1.1061 -0.4908 -0.6277 0.9946
-3.2444 -2.2008 -2.0338 0.9825
-3.0354 -2.4812 -2.0338 0.9825
-2.8022 -2.7418 -2.0338 0.9825
-2.2710 -3.1957 -2.0338 0.9825
-1.9772 -3.3854 -2.0338 0.9825
-1.3448 -3.6826 -2.0338 0.9825
-1.0113 -3.7878 -2.0338 0.9825
0.3758 -3.9024 -2.0339 0.9825
0.7220 -3.8534 -2.0339 0.9825
1.0625 -3.7738 -2.0339 0.9825
1.3946 -3.6641 -2.0339 0.9825
1.7156 -3.5252 -2.0339 0.9825
-3.0730 -2.0846 -2.0339 0.9832
-2.8750 -2.3502 -2.0338 0.9832
-2.4122 -2.8232 -2.0338 0.9832
-1.8728 -3.2066 -2.0338 0.9832
-0.9580 -3.5878 -2.0339 0.9832
-0.6344 -3.6588 -2.0339 0.9832
-0.3059 -3.7008 -2.0339 0.9832
1.0065 -3.5745 -2.0339 0.9832
1.6250 -3.3390 -2.0339 0.9832
-0.8971 -0.4981 -0.5924 0.9953
-2.9153 -1.9776 -2.0339 0.9839
-2.5179 -2.4637 -2.0339 0.9839
-2.2884 -2.6782 -2.0339 0.9839
-2.0406 -2.8715 -2.0339 0.9839
-1.7766 -3.0420 -2.0339 0.9839
-1.4985 -3.1882 -2.0339 0.9839
-1.2084 -3.3090 -2.0339 0.9839
-0.9087 -3.4035 -2.0339 0.9839
0.0239 -3.5227 -2.0339 0.9839
0.6488 -3.4625 -2.0339 0.9839
1.5415 -3.1676 -2.0339 0.9839
