ply
format ascii 1.0
element vertex 191
property float32 x
property float32 y
property float32 z
property float32 I
end_header
-16.4714 5.6035 -0.8823 0.9327
-16.2347 5.5230 -1.2574 0.9335
-16.0796 5.4702 -1.6306 0.9340
-12.8080 -7.7851 -1.4390 0.9415
-16.2094 5.5144 -2.0338 0.9334
-16.9211 2.6111 -2.0338 0.9334
-17.0843 1.1239 -2.0338 0.9334
-17.0192 -1.8646 -2.0337 0.9334
-16.7913 -3.3431 -2.0337 0.9334
-16.4352 -4.7961 -2.0337 0.9334
-15.3504 -7.5815 -2.0337 0.9334
-13.0107 -7.9083 -1.8086 0.9405
-11.2487 -8.2632 -1.6580 0.9453
-11.8246 -12.3809 -2.0337 0.9334
-10.6986 -13.3659 -2.0337 0.9334
-9.4909 -14.2489 -2.0337 0.9334
-13.5894 4.6230 -2.0338 0.9437
-14.3229 0.9423 -2.0338 0.9437
-13.7788 -4.0209 -2.0337 0.9437
-12.2653 -7.4553 -2.0337 0.9437
-10.7816 -9.4748 -2.0337 0.9437
-8.9694 -11.2056 -2.0337 0.9437
-11.2963 4.9814 -2.0339 0.9512
-12.2013 1.8828 -2.0338 0.9512
-12.3426 -0.2681 -2.0338 0.9512
-11.5038 -4.4797 -2.0338 0.9512
-11.0688 -5.4668 -2.0337 0.9512
-8.5264 -8.9277 -2.0337 0.9512
-7.7145 -9.6379 -2.0337 0.9512
-6.8437 -10.2745 -2.0337 0.9512
-5.9206 -10.8327 -2.0337 0.9512
-9.9007 4.3660 -2.0339 0.9569
-10.5091 2.5774 -2.0338 0.9569
-10.6939 1.6502 -2.0338 0.9569
-10.7971 0.7103 -2.0338 0.9569
-10.8178 -0.2349 -2.0338 0.9569
-7.4731 -7.8248 -2.0337 0.9569
-6.7615 -8.4473 -2.0337 0.9569
-5.1892 -9.4945 -2.0337 0.9569
-8.8039 3.8823 -2.0339 0.9614
-9.1091 3.0989 -2.0339 0.9614
-9.3448 2.2919 -2.0338 0.9614
-9.5091 1.4673 -2.0338 0.9614
-9.6009 0.6316 -2.0338 0.9614
-9.6193 -0.2089 -2.0338 0.9614
-9.4363 -1.8787 -2.0338 0.9614
-9.2362 -2.6953 -2.0338 0.9614
-8.2218 -4.9975 -2.0338 0.9614
-5.3338 -8.0076 -2.0338 0.9614
-4.6144 -8.4427 -2.0338 0.9614
-8.1927 2.7871 -2.0339 0.9651
-8.5526 1.3197 -2.0338 0.9651
-8.6351 0.5680 -2.0338 0.9651
-8.4871 -1.6898 -2.0338 0.9651
-8.3071 -2.4242 -2.0338 0.9651
-7.7589 -3.8321 -2.0338 0.9651
-7.3947 -4.4947 -2.0338 0.9651
-6.9741 -5.1231 -2.0338 0.9651
-6.5002 -5.7124 -2.0338 0.9651
-5.4076 -6.7559 -2.0338 0.9651
-4.7972 -7.2021 -2.0338 0.9651
-4.1502 -7.5934 -2.0338 0.9651
-7.1875 3.1695 -2.0339 0.9681
-7.8083 -0.8555 -2.0338 0.9681
-7.5405 -2.2005 -2.0338 0.9681
-7.3196 -2.8503 -2.0338 0.9681
-7.0429 -3.4784 -2.0338 0.9681
-6.3305 -4.6503 -2.0338 0.9681
-5.9004 -5.1852 -2.0338 0.9681
-5.4252 -5.6805 -2.0338 0.9681
-4.9086 -6.1324 -2.0338 0.9681
-4.3545 -6.5375 -2.0338 0.9681
-3.7672 -6.8927 -2.0338 0.9681
-6.9776 1.7113 -2.0339 0.9706
-7.1004 1.0956 -2.0339 0.9706
-7.1416 -0.7824 -2.0338 0.9706
-7.0459 -1.4029 -2.0338 0.9706
-6.1391 -3.7316 -2.0338 0.9706
-5.7899 -4.2532 -2.0338 0.9706
-5.3965 -4.7424 -2.0338 0.9706
-4.4895 -5.6087 -2.0338 0.9706
-3.9827 -5.9792 -2.0338 0.9706
-3.4455 -6.3041 -2.0338 0.9706
-6.5982 0.4341 -2.0338 0.9727
-6.6108 -0.1436 -2.0338 0.9727
-6.5731 -0.7202 -2.0338 0.9727
-5.9287 -2.9282 -2.0338 0.9727
-5.6504 -3.4345 -2.0338 0.9727
-5.3290 -3.9146 -2.0338 0.9727
-4.9670 -4.3649 -2.0338 0.9727
-4.1321 -5.1622 -2.0338 0.9727
-5.5985 2.4688 -2.0339 0.9745
-5.7926 1.9706 -2.0339 0.9745
-6.1054 0.4016 -2.0339 0.9745
-6.1171 -0.1329 -2.0338 0.9745
-5.8735 -1.7140 -2.0338 0.9745
-5.7014 -2.2202 -2.0338 0.9745
-5.2284 -3.1780 -2.0338 0.9745
-4.5960 -4.0389 -2.0338 0.9745
-4.2258 -4.4247 -2.0338 0.9745
-3.3919 -5.0922 -2.0338 0.9745
-5.5237 1.3547 -2.0339 0.9761
-5.5779 -1.1106 -2.0338 0.9761
-5.4596 -1.5933 -2.0338 0.9761
-5.2997 -2.0638 -2.0338 0.9761
-4.8600 -2.9541 -2.0338 0.9761
-4.5836 -3.3670 -2.0338 0.9761
-3.9281 -4.1129 -2.0338 0.9761
-3.1529 -4.7334 -2.0338 0.9761
-4.8562 2.1414 -2.0339 0.9775
-5.0246 1.7093 -2.0339 0.9775
-5.2452 0.8094 -2.0339 0.9775
-5.3060 -0.1153 -2.0339 0.9775
-4.5352 -2.7566 -2.0338 0.9775
-4.2773 -3.1420 -2.0338 0.9775
-3.9866 -3.5034 -2.0338 0.9775
-3.6655 -3.8380 -2.0338 0.9775
-2.5454 -4.6571 -2.0338 0.9775
-4.5470 2.0051 -2.0339 0.9788
-2.1144 0.3262 -0.8756 0.9908
-2.1225 -0.0461 -0.8689 0.9909
-2.1219 -0.4225 -0.8855 0.9907
-4.7704 -1.3921 -2.0338 0.9788
-4.2464 -2.5811 -2.0338 0.9788
-4.0049 -2.9420 -2.0338 0.9788
-3.4322 -3.5937 -2.0338 0.9788
-3.1054 -3.8796 -2.0338 0.9788
-2.7548 -4.1359 -2.0338 0.9788
-2.3833 -4.3606 -2.0338 0.9788
-4.2700 1.8830 -2.0339 0.9798
-4.4182 1.5030 -2.0339 0.9798
-1.9013 0.4663 -0.8532 0.9915
-1.9043 0.2938 -0.8397 0.9916
-1.9165 0.1261 -0.8371 0.9917
-1.9046 -0.3792 -0.8464 0.9916
-4.3486 -1.6934 -2.0338 0.9798
-3.9879 -2.4239 -2.0338 0.9798
-3.2232 -3.3749 -2.0338 0.9798
-2.9162 -3.6433 -2.0338 0.9798
-2.5871 -3.8840 -2.0338 0.9798
-4.0204 1.7729 -2.0339 0.9808
-1.6103 0.2485 -0.7542 0.9928
-1.5785 -0.0343 -0.7308 0.9931
-1.6084 -0.1762 -0.7490 0.9929
-3.9395 -1.9457 -2.0338 0.9808
-3.3005 -2.9004 -2.0338 0.9808
-2.7457 -3.4303 -2.0338 0.9808
-2.1073 -3.8555 -2.0338 0.9808
-3.7938 1.6730 -2.0339 0.9817
-1.3189 0.3235 -0.6662 0.9940
-1.3516 0.0889 -0.6644 0.9940
-1.3425 -0.0292 -0.6587 0.9940
-1.3532 -0.1483 -0.6677 0.9940
-1.3342 -0.2657 -0.6673 0.9940
-1.2997 -0.3793 -0.6641 0.9940
-1.2550 -0.4887 -0.6606 0.9940
-3.1145 -2.7370 -2.0338 0.9817
-2.8637 -2.9985 -2.0338 0.9817
-2.5910 -3.2370 -2.0338 0.9817
-2.2985 -3.4508 -2.0338 0.9817
-1.9885 -3.6383 -2.0338 0.9817
-1.1999 0.0789 -0.6238 0.9946
-1.1955 -0.0260 -0.6204 0.9946
-1.1998 -0.1315 -0.6262 0.9946
-1.1521 -0.3363 -0.6226 0.9946
-1.1244 -0.4379 -0.6260 0.9946
-2.9449 -2.5879 -2.0338 0.9825
-2.7077 -2.8352 -2.0338 0.9825
-1.8802 -3.4402 -2.0338 0.9825
-1.0282 0.3498 -0.5949 0.9951
-1.0459 0.2565 -0.5898 0.9951
-1.0711 0.1653 -0.5936 0.9951
-1.0812 0.0711 -0.5935 0.9951
-1.0788 -0.0235 -0.5910 0.9951
-1.0782 -0.1182 -0.5941 0.9951
-1.0602 -0.2111 -0.5921 0.9951
-1.0161 -0.3957 -0.5973 0.9950
-0.9844 -0.4862 -0.6013 0.9950
-3.1732 -1.9288 -2.0339 0.9832
-2.7894 -2.4513 -2.0338 0.9832
-2.5647 -2.6854 -2.0338 0.9832
-2.3205 -2.8991 -2.0338 0.9832
-0.9281 0.4093 -0.5857 0.9953
-0.9501 0.3232 -0.5794 0.9954
-0.9648 0.2366 -0.5736 0.9954
-0.9823 0.1515 -0.5739 0.9954
-0.9751 -0.1942 -0.5740 0.9954
-0.9572 -0.2794 -0.5757 0.9954
-2.6461 -2.3254 -2.0339 0.9839
-2.4330 -2.5475 -2.0339 0.9839
-1.9529 -2.9319 -2.0339 0.9839
