ply
format ascii 1.0
element vertex 191
property float32 x
property float32 y
property float32 z
property float32 I
end_header
-12.4468 -7.8377 -1.0785 0.9427
-11.5408 -8.8361 -1.3954 0.9433
-17.1197 -0.2258 -2.0338 0.9334
-15.2602 -7.7614 -2.0337 0.9334
-12.6461 -7.9632 -1.7752 0.9416
-12.5862 -11.6059 -2.0337 0.9334
-8.9706 -14.5820 -2.0337 0.9334
-7.6012 -15.3404 -2.0337 0.9334
-6.1684 -15.9706 -2.0337 0.9334
-4.6839 -16.4673 -2.0337 0.9334
-14.3525 -0.1893 -2.0338 0.9437
-12.7937 -6.5069 -2.0337 0.9437
-12.1459 -7.6482 -2.0337 0.9437
-10.5519 -9.7300 -2.0337 0.9437
-8.6059 -11.4871 -2.0337 0.9437
-7.5207 -12.2252 -2.0337 0.9437
-5.1713 -13.3893 -2.0337 0.9437
-3.9268 -13.8058 -2.0337 0.9437
-2.6495 -14.1068 -2.0337 0.9437
-1.3499 -14.2898 -2.0337 0.9437
-12.2779 -1.2896 -2.0338 0.9512
-11.8384 -3.5016 -2.0338 0.9512
-11.0038 -5.5966 -2.0337 0.9512
-10.4466 -6.5782 -2.0337 0.9512
-8.2733 -9.1627 -2.0337 0.9512
-6.4685 -10.5148 -2.0337 0.9512
-4.4479 -11.5161 -2.0337 0.9512
-2.2788 -12.1331 -2.0337 0.9512
-10.7873 0.8461 -2.0338 0.9569
-10.8194 -0.1427 -2.0338 0.9569
-10.7611 -1.1303 -2.0338 0.9569
-10.6129 -2.1085 -2.0338 0.9569
-10.3759 -3.0690 -2.0338 0.9569
-9.1561 -5.7655 -2.0338 0.9569
-8.5912 -6.5777 -2.0338 0.9569
-7.9545 -7.3349 -2.0338 0.9569
-7.2512 -8.0308 -2.0337 0.9569
-6.4875 -8.6595 -2.0337 0.9569
-5.6694 -9.2158 -2.0337 0.9569
-2.9602 -10.4073 -2.0338 0.9569
-1.9973 -10.6343 -2.0338 0.9569
-1.0177 -10.7723 -2.0338 0.9569
-9.6208 -0.1269 -2.0338 0.9614
-9.5689 -1.0051 -2.0338 0.9614
-8.9385 -3.5602 -2.0338 0.9614
-6.4479 -7.1411 -2.0338 0.9614
-5.7687 -7.7002 -2.0338 0.9614
-5.0413 -8.1949 -2.0338 0.9614
-4.2718 -8.6211 -2.0338 0.9614
-1.7760 -9.4561 -2.0338 0.9614
-0.9049 -9.5788 -2.0338 0.9614
-8.6529 -0.1141 -2.0338 0.9651
-8.6063 -0.9040 -2.0338 0.9651
-8.0394 -3.2021 -2.0338 0.9651
-7.7133 -3.9230 -2.0338 0.9651
-6.3617 -5.8662 -2.0338 0.9651
-5.7994 -6.4228 -2.0338 0.9651
-2.3675 -8.3234 -2.0338 0.9651
-7.8544 -0.1036 -2.0338 0.9681
-7.7045 -1.5307 -2.0338 0.9681
-7.0015 -3.5610 -2.0338 0.9681
-6.2369 -4.7752 -2.0338 0.9681
-5.2642 -5.8301 -2.0338 0.9681
-4.1158 -6.6904 -2.0338 0.9681
-3.4875 -7.0383 -2.0338 0.9681
-2.8301 -7.3274 -2.0338 0.9681
-1.4500 -7.7200 -2.0338 0.9681
-7.1837 -0.0948 -2.0338 0.9706
-7.1450 -0.7505 -2.0338 0.9706
-7.0465 -1.3999 -2.0338 0.9706
-6.8892 -2.0377 -2.0338 0.9706
-6.6743 -2.6584 -2.0338 0.9706
-6.4036 -3.2569 -2.0338 0.9706
-6.0794 -3.8281 -2.0338 0.9706
-4.8146 -5.3322 -2.0338 0.9706
-4.3075 -5.7497 -2.0338 0.9706
-3.1897 -6.4373 -2.0338 0.9706
-2.5884 -6.7017 -2.0338 0.9706
-1.9655 -6.9102 -2.0338 0.9706
-1.3261 -7.0608 -2.0338 0.9706
-6.5922 0.5171 -2.0338 0.9727
-6.6119 -0.0872 -2.0338 0.9727
-6.4856 -1.2885 -2.0338 0.9727
-4.8611 -4.4825 -2.0338 0.9727
-1.2205 -6.4987 -2.0338 0.9727
-6.0998 0.4784 -2.0339 0.9745
-5.8672 -1.7354 -2.0338 0.9745
-5.4536 -2.7738 -2.0338 0.9745
-5.1775 -3.2603 -2.0338 0.9745
-4.8582 -3.7196 -2.0338 0.9745
-3.2059 -5.2113 -2.0338 0.9745
-2.2045 -5.7076 -2.0338 0.9745
-1.6739 -5.8851 -2.0338 0.9745
-1.1295 -6.0134 -2.0338 0.9745
-0.5755 -6.0914 -2.0338 0.9745
-5.6700 0.4447 -2.0339 0.9761
-5.6562 -0.5941 -2.0338 0.9761
-5.4538 -1.6131 -2.0338 0.9761
-5.2836 -2.1045 -2.0338 0.9761
-5.0693 -2.5783 -2.0338 0.9761
-4.8127 -3.0305 -2.0338 0.9761
-4.1811 -3.8554 -2.0338 0.9761
-3.8114 -4.2212 -2.0338 0.9761
-3.4100 -4.5517 -2.0338 0.9761
-2.5251 -5.0960 -2.0338 0.9761
-2.0491 -5.3054 -2.0338 0.9761
-1.5559 -5.4704 -2.0338 0.9761
-1.0498 -5.5896 -2.0338 0.9761
-5.2911 0.4150 -2.0339 0.9775
-5.2782 -0.5544 -2.0338 0.9775
-5.2055 -1.0342 -2.0338 0.9775
-5.0893 -1.5053 -2.0338 0.9775
-3.5568 -3.9391 -2.0338 0.9775
-3.1821 -4.2475 -2.0338 0.9775
-2.3564 -4.7555 -2.0338 0.9775
-0.9797 -5.2161 -2.0338 0.9775
-2.1189 0.1662 -0.8699 0.9909
-2.1218 -0.4216 -0.8854 0.9907
-4.7653 -1.4095 -2.0338 0.9788
-4.2051 -2.6479 -2.0338 0.9788
-3.9457 -3.0210 -2.0338 0.9788
-3.3303 -3.6883 -2.0338 0.9788
-2.9795 -3.9771 -2.0338 0.9788
-2.6038 -4.2326 -2.0338 0.9788
-2.2063 -4.4527 -2.0338 0.9788
-1.7904 -4.6356 -2.0338 0.9788
-1.3595 -4.7798 -2.0338 0.9788
-0.9173 -4.8840 -2.0338 0.9788
-0.4673 -4.9474 -2.0338 0.9788
-1.9186 -0.0253 -0.8362 0.9917
-1.9046 -0.3784 -0.8463 0.9916
-4.3355 -1.7269 -2.0338 0.9798
-4.1596 -2.1156 -2.0338 0.9798
-3.9490 -2.4867 -2.0338 0.9798
-3.7054 -2.8370 -2.0338 0.9798
-3.4308 -3.1636 -2.0338 0.9798
-2.7981 -3.7349 -2.0338 0.9798
-2.4452 -3.9748 -2.0338 0.9798
-1.6814 -4.3533 -2.0338 0.9798
-1.2767 -4.4887 -2.0338 0.9798
-0.4389 -4.6461 -2.0338 0.9798
-1.6020 0.1256 -0.7438 0.9929
-1.6077 -0.1689 -0.7483 0.9929
-1.5421 -0.4562 -0.7444 0.9929
-4.0820 -1.6259 -2.0338 0.9808
-3.7180 -2.3413 -2.0338 0.9808
-2.3023 -3.7424 -2.0338 0.9808
-1.9508 -3.9370 -2.0338 0.9808
-0.8111 -4.3184 -2.0338 0.9808
-1.3529 0.1061 -0.6656 0.9940
-3.5086 -2.2094 -2.0338 0.9817
-2.7787 -3.0774 -2.0338 0.9817
-2.4860 -3.3183 -2.0338 0.9817
-1.8409 -3.7152 -2.0338 0.9817
-0.7654 -4.0751 -2.0338 0.9817
-0.3900 -4.1279 -2.0339 0.9817
-1.2004 0.0941 -0.6246 0.9946
-1.1506 -0.3404 -0.6225 0.9946
-1.1216 -0.4468 -0.6264 0.9946
-3.4944 -1.7773 -2.0339 0.9825
-2.8821 -2.6577 -2.0338 0.9825
-2.6273 -2.9098 -2.0338 0.9825
-2.3506 -3.1376 -2.0338 0.9825
-2.0542 -3.3392 -2.0338 0.9825
-1.0726 -3.7709 -2.0338 0.9825
-0.7237 -3.8531 -2.0339 0.9825
-0.3688 -3.9031 -2.0339 0.9825
-1.0807 0.0847 -0.5938 0.9951
-1.0362 -0.3065 -0.5919 0.9951
-1.0136 -0.4038 -0.5976 0.9950
-0.9802 -0.4986 -0.6023 0.9950
-3.1423 -1.9787 -2.0339 0.9832
-2.9484 -2.2574 -2.0338 0.9832
-2.7299 -2.5173 -2.0338 0.9832
-2.4886 -2.7561 -2.0338 0.9832
-2.2265 -2.9719 -2.0338 0.9832
-1.9457 -3.1629 -2.0338 0.9832
-1.3380 -3.4640 -2.0339 0.9832
-1.0159 -3.5718 -2.0339 0.9832
-0.6855 -3.6496 -2.0339 0.9832
-0.9893 0.0776 -0.5729 0.9954
-0.9895 -0.0131 -0.5713 0.9954
-0.9567 -0.2830 -0.5760 0.9954
-0.9385 -0.3738 -0.5833 0.9953
-2.5897 -2.3880 -2.0339 0.9839
-2.1121 -2.8193 -2.0339 0.9839
-1.8458 -3.0004 -2.0339 0.9839
-1.5641 -3.1565 -2.0339 0.9839
-1.2692 -3.2862 -2.0339 0.9839
-0.9638 -3.3884 -2.0339 0.9839
-0.3313 -3.5071 -2.0339 0.9839
