ply
format ascii 1.0
element vertex 206
property float32 x
property float32 y
property float32 z
property float32 I
end_header
1.1970 18.5619 2.8495 0.9275
1.2255 19.0040 2.4799 0.9261
-11.3317 12.3713 2.1847 0.9346
-11.5794 12.6417 1.4512 0.9335
1.2125 18.8030 1.1684 0.9273
-11.8235 12.9083 0.6902 0.9323
-12.0195 13.1223 0.3006 0.9313
-17.2541 5.1850 -0.9137 0.9304
-16.6119 4.9921 -1.2718 0.9328
-1.5531 7.4976 -0.7351 0.9697
-16.5548 4.9749 -1.6596 0.9329
-0.4307 17.1186 -2.0341 0.9333
-0.8846 7.6782 -0.9181 0.9693
-1.5398 7.4336 -0.9018 0.9699
-6.4048 15.8805 -2.0340 0.9333
-9.1312 14.4852 -2.0340 0.9334
-11.5654 12.6266 -2.0339 0.9334
-13.6295 10.3640 -2.0339 0.9334
-15.8911 6.3743 -2.0338 0.9334
-16.3973 4.9276 -2.0338 0.9334
-16.7721 3.4414 -2.0338 0.9334
-17.0125 1.9276 -2.0338 0.9334
0.9238 14.3261 -2.0341 0.9437
-0.3610 14.3512 -2.0341 0.9437
-0.8584 7.4504 -1.0626 0.9702
-1.4909 7.1970 -1.0414 0.9707
-5.3694 13.3133 -2.0340 0.9437
-9.6959 10.5854 -2.0339 0.9437
-10.6036 9.6759 -2.0339 0.9437
-12.1575 7.6320 -2.0339 0.9437
-12.7912 6.5141 -2.0339 0.9437
-13.7468 4.1311 -2.0338 0.9437
-14.2626 1.6160 -2.0338 0.9437
-0.3105 12.3431 -2.0340 0.9512
-0.8559 7.4291 -1.2320 0.9701
-1.4983 7.2332 -1.2169 0.9705
-2.1907 7.2403 -1.2462 0.9698
-4.6181 11.4505 -2.0340 0.9512
-5.6236 10.9915 -2.0340 0.9512
-6.5840 10.4445 -2.0340 0.9512
-9.1200 8.3221 -2.0339 0.9512
-9.8277 7.4730 -2.0339 0.9512
-11.0015 5.6026 -2.0339 0.9512
-11.4584 4.5963 -2.0339 0.9512
-11.8235 3.5531 -2.0338 0.9512
-12.0938 2.4814 -2.0338 0.9512
-12.2671 1.3899 -2.0338 0.9512
0.6964 10.7991 -2.0340 0.9569
-0.2721 10.8181 -2.0340 0.9569
-0.8397 7.2884 -1.3790 0.9706
-1.5049 7.2648 -1.3945 0.9703
-2.1721 7.1788 -1.4098 0.9699
-9.1646 5.7532 -2.0339 0.9569
-9.6424 4.9105 -2.0339 0.9569
-10.0428 4.0284 -2.0339 0.9569
-10.3628 3.1141 -2.0338 0.9569
-10.5997 2.1749 -2.0338 0.9569
0.6192 9.6026 -2.0340 0.9614
-0.2420 9.6195 -2.0340 0.9614
-0.8427 7.3145 -1.5564 0.9703
-2.1037 6.9529 -1.5355 0.9707
-4.3828 8.5662 -2.0340 0.9614
-5.8386 7.6483 -2.0339 0.9614
-7.6592 5.8241 -2.0339 0.9614
-8.5741 4.3664 -2.0339 0.9614
-9.2147 2.7691 -2.0339 0.9614
-9.4254 1.9339 -2.0338 0.9614
0.5569 8.6365 -2.0340 0.9651
-0.2177 8.6517 -2.0340 0.9651
-0.8410 7.2998 -1.7270 0.9703
-1.5443 7.4553 -1.7894 0.9692
-2.1898 7.2375 -1.7771 0.9694
-3.2370 8.0261 -2.0340 0.9651
-4.6151 7.3210 -2.0339 0.9651
-5.2512 6.8789 -2.0339 0.9651
-6.3927 5.8333 -2.0339 0.9651
-6.8886 5.2382 -2.0339 0.9651
-7.3295 4.6011 -2.0339 0.9651
-7.7116 3.9272 -2.0339 0.9651
-8.2877 2.4905 -2.0339 0.9651
-2.2750 7.5190 -2.0340 0.9681
-2.9383 7.2854 -2.0340 0.9681
-3.5781 6.9934 -2.0339 0.9681
-4.7666 6.2440 -2.0339 0.9681
-5.3059 5.7927 -2.0339 0.9681
-7.2906 2.9244 -2.0339 0.9681
-7.8052 0.8844 -2.0338 0.9681
0.4623 7.1700 -2.0340 0.9706
-2.0807 6.8769 -2.0340 0.9706
-2.6873 6.6632 -2.0340 0.9706
-3.2725 6.3962 -2.0339 0.9706
-4.8528 5.2980 -2.0339 0.9706
-5.3071 4.8428 -2.0339 0.9706
-5.7190 4.3488 -2.0339 0.9706
-6.0849 3.8199 -2.0339 0.9706
-6.4021 3.2603 -2.0339 0.9706
-6.8804 2.0677 -2.0339 0.9706
-7.0378 1.4440 -2.0339 0.9706
0.4255 6.5992 -2.0340 0.9727
-0.7568 6.5694 -2.0340 0.9727
-1.3413 6.4754 -2.0340 0.9727
-3.0120 5.8870 -2.0339 0.9727
-5.6005 3.5158 -2.0339 0.9727
-5.8925 3.0008 -2.0339 0.9727
-6.1372 2.4618 -2.0339 0.9727
-6.3327 1.9031 -2.0339 0.9727
-6.4775 1.3291 -2.0339 0.9727
0.3937 6.1062 -2.0340 0.9745
-0.1539 6.1170 -2.0340 0.9745
-0.7003 6.0787 -2.0340 0.9745
-1.2411 5.9917 -2.0340 0.9745
-1.7720 5.8567 -2.0340 0.9745
-2.2887 5.6747 -2.0339 0.9745
-3.7128 4.8636 -2.0339 0.9745
-4.5198 4.1244 -2.0339 0.9745
-5.4523 2.7766 -2.0339 0.9745
-5.8598 1.7609 -2.0339 0.9745
-6.0796 0.6888 -2.0339 0.9745
-0.6510 5.6503 -2.0340 0.9761
-2.1274 5.2748 -2.0339 0.9761
-2.5906 5.0634 -2.0339 0.9761
-3.4511 4.5208 -2.0339 0.9761
-3.8416 4.1941 -2.0339 0.9761
-4.5273 3.4426 -2.0339 0.9761
-5.2786 2.1174 -2.0339 0.9761
-5.4468 1.6368 -2.0339 0.9761
-5.5713 1.1431 -2.0339 0.9761
-5.6512 0.6403 -2.0339 0.9761
0.3415 5.2966 -2.0340 0.9775
-0.1335 5.3059 -2.0340 0.9775
-1.0766 5.1972 -2.0339 0.9775
-2.4175 4.7250 -2.0339 0.9775
-3.5849 3.9138 -2.0339 0.9775
-3.9205 3.5775 -2.0339 0.9775
-4.7294 2.4085 -2.0339 0.9775
-5.1990 1.0667 -2.0339 0.9775
-5.2736 0.5975 -2.0339 0.9775
0.3198 4.9594 -2.0340 0.9787
-1.8588 4.6089 -2.0339 0.9788
-2.2635 4.4241 -2.0339 0.9788
-3.0155 3.9501 -2.0339 0.9788
-3.3566 3.6646 -2.0339 0.9788
-3.6709 3.3497 -2.0339 0.9788
-4.6122 1.8501 -2.0339 0.9788
-4.7592 1.4302 -2.0339 0.9788
-2.1108 0.2391 -0.8694 0.9909
0.3003 4.6573 -2.0340 0.9798
-0.1173 4.6655 -2.0340 0.9798
-0.5342 4.6363 -2.0339 0.9798
-0.9467 4.5699 -2.0339 0.9798
-1.3516 4.4670 -2.0339 0.9798
-1.7456 4.3282 -2.0339 0.9798
-2.1257 4.1547 -2.0339 0.9798
-2.8318 3.7096 -2.0339 0.9798
-3.1522 3.4414 -2.0339 0.9798
-3.4473 3.1457 -2.0339 0.9798
-3.7148 2.8248 -2.0339 0.9798
-3.9526 2.4813 -2.0339 0.9798
-2.0594 0.6188 -0.9372 0.9907
-1.9042 0.3907 -0.8472 0.9916
-1.9075 0.2161 -0.8367 0.9917
-0.1105 4.3927 -2.0339 0.9808
-2.3432 3.7171 -2.0339 0.9808
-2.9679 3.2402 -2.0339 0.9808
-3.2457 2.9618 -2.0339 0.9808
-3.7214 2.3362 -2.0339 0.9808
-4.0781 1.6358 -2.0339 0.9808
-1.5387 0.4624 -0.7437 0.9929
0.2668 4.1379 -2.0339 0.9817
-0.8411 4.0603 -2.0339 0.9817
-2.2112 3.5076 -2.0339 0.9817
-1.2959 0.3894 -0.6637 0.9940
-1.3530 0.1533 -0.6679 0.9940
-0.0986 3.9194 -2.0339 0.9825
-0.4487 3.8948 -2.0339 0.9825
-1.4665 3.6360 -2.0339 0.9825
-1.7857 3.4903 -2.0339 0.9825
-2.0907 3.3166 -2.0339 0.9825
-2.6481 2.8911 -2.0339 0.9825
-2.8961 2.6427 -2.0339 0.9825
-3.4936 1.7792 -2.0339 0.9825
-1.1208 0.4495 -0.6265 0.9946
-1.1488 0.3452 -0.6223 0.9946
-1.1787 0.2418 -0.6242 0.9946
-1.1996 0.1359 -0.6263 0.9946
-0.0934 3.7124 -2.0339 0.9832
-1.0754 3.5544 -2.0339 0.9832
-1.6914 3.3060 -2.0339 0.9832
-1.9803 3.1414 -2.0339 0.9832
-2.2533 2.9517 -2.0339 0.9832
-2.5082 2.7384 -2.0339 0.9832
-3.1451 1.9744 -2.0339 0.9832
-0.9800 0.4990 -0.6023 0.9950
-1.0355 0.3112 -0.5922 0.9951
-1.0585 0.2171 -0.5918 0.9951
-1.0778 0.1221 -0.5941 0.9951
0.2267 3.5156 -2.0339 0.9839
-0.4032 3.4997 -2.0339 0.9839
-1.0202 3.3719 -2.0339 0.9839
-1.3177 3.2671 -2.0339 0.9839
-1.8786 2.9801 -2.0339 0.9839
-2.1376 2.8002 -2.0339 0.9839
-2.8042 2.1323 -2.0339 0.9839
-2.9836 1.8730 -2.0339 0.9839
-0.9739 0.1998 -0.5740 0.9954
-0.9870 0.1118 -0.5735 0.9954
