ply
format ascii 1.0
element vertex 181
property float32 x
property float32 y
property float32 z
property float32 I
end_header
-11.3403 12.8489 2.6254 0.9330
-12.8095 12.1400 1.8951 0.9315
-11.9707 13.5630 1.1218 0.9301
-16.4903 5.3377 -0.8790 0.9329
-0.7722 7.7457 -0.9246 0.9691
-1.4219 7.4544 -0.9015 0.9699
-2.0760 7.2857 -0.8999 0.9699
-8.8755 14.6433 -2.0340 0.9334
-12.4279 11.7784 -2.0339 0.9334
-13.4266 10.6257 -2.0339 0.9334
-15.0973 8.0771 -2.0339 0.9334
-15.7559 6.7014 -2.0338 0.9334
-16.2896 5.2727 -2.0338 0.9334
-17.1034 0.7826 -2.0338 0.9334
-0.7467 7.4890 -1.0664 0.9701
-1.4067 7.3751 -1.0638 0.9701
-2.0819 7.3062 -1.0764 0.9698
-6.3189 12.8897 -2.0340 0.9437
-9.4990 10.7626 -2.0339 0.9437
-12.0042 7.8710 -2.0339 0.9437
-12.6569 6.7714 -2.0339 0.9437
-13.2092 5.6182 -2.0338 0.9437
-13.9957 3.1876 -2.0338 0.9437
-14.2236 1.9295 -2.0338 0.9437
-0.7494 7.5163 -1.2444 0.9698
-2.0687 7.2601 -1.2436 0.9699
-5.4347 11.0862 -2.0340 0.9512
-6.3996 10.5585 -2.0340 0.9512
-7.3138 9.9471 -2.0339 0.9512
-8.1699 9.2567 -2.0339 0.9512
-8.9612 8.4929 -2.0339 0.9512
-9.6813 7.6617 -2.0339 0.9512
-10.8860 5.8240 -2.0339 0.9512
-11.7459 3.8020 -2.0338 0.9512
-12.0375 2.7416 -2.0338 0.9512
-1.3694 7.1793 -1.3738 0.9707
-2.0386 7.1546 -1.3983 0.9702
-4.7632 9.7165 -2.0340 0.9569
-5.6090 9.2540 -2.0340 0.9569
-6.4102 8.7181 -2.0339 0.9569
-7.1605 8.1130 -2.0339 0.9569
-7.8540 7.4436 -2.0339 0.9569
-9.0491 5.9334 -2.0339 0.9569
-9.5411 5.1045 -2.0339 0.9569
-9.9574 4.2352 -2.0339 0.9569
-10.5503 2.4029 -2.0338 0.9569
-0.7288 7.3101 -1.5529 0.9704
-3.4499 8.9826 -2.0340 0.9614
-4.2355 8.6399 -2.0340 0.9614
-4.9875 8.2287 -2.0339 0.9614
-6.9839 6.6189 -2.0339 0.9614
-8.0465 5.2760 -2.0339 0.9614
-8.8542 3.7660 -2.0339 0.9614
-9.3815 2.1367 -2.0338 0.9614
-9.5344 1.2934 -2.0338 0.9614
-0.7266 7.2879 -1.7213 0.9704
-1.5130 7.9323 -1.8979 0.9674
-3.1029 8.0790 -2.0340 0.9651
-3.8094 7.7708 -2.0340 0.9651
-4.4858 7.4009 -2.0339 0.9651
-5.1265 6.9723 -2.0339 0.9651
-6.2813 5.9530 -2.0339 0.9651
-7.6305 4.0823 -2.0339 0.9651
-7.9635 3.3871 -2.0339 0.9651
-8.5752 1.1632 -2.0338 0.9651
-2.1527 7.5549 -2.0340 0.9681
-2.8164 7.3334 -2.0340 0.9681
-3.4579 7.0536 -2.0339 0.9681
-4.0718 6.7179 -2.0339 0.9681
-4.6534 6.3288 -2.0339 0.9681
-6.1598 4.8748 -2.0339 0.9681
-6.5692 4.3073 -2.0339 0.9681
-6.9264 3.7056 -2.0339 0.9681
-7.6591 1.7444 -2.0339 0.9681
-7.7839 1.0559 -2.0338 0.9681
-7.8469 0.3590 -2.0338 0.9681
-0.7128 7.1494 -2.0340 0.9706
-1.9689 6.9097 -2.0340 0.9706
-2.5759 6.7071 -2.0340 0.9706
-3.7241 6.1442 -2.0339 0.9706
-4.2561 5.7884 -2.0339 0.9706
-5.2147 4.9422 -2.0339 0.9706
-5.6338 4.4585 -2.0339 0.9706
-6.3349 3.3891 -2.0339 0.9706
-6.6113 2.8120 -2.0339 0.9706
-7.0050 1.5954 -2.0339 0.9706
-7.1192 0.9657 -2.0339 0.9706
-7.1768 0.3284 -2.0338 0.9706
-1.2390 6.4957 -2.0340 0.9727
-3.9172 5.3276 -2.0339 0.9727
-4.7996 4.5488 -2.0339 0.9727
-5.1853 4.1036 -2.0339 0.9727
-5.8306 3.1193 -2.0339 0.9727
-6.4473 1.4684 -2.0339 0.9727
-6.6055 0.3022 -2.0338 0.9727
-1.1464 6.0105 -2.0340 0.9745
-3.1716 5.2327 -2.0339 0.9745
-4.0489 4.5875 -2.0339 0.9745
-5.3951 2.8864 -2.0339 0.9745
-5.6305 2.3948 -2.0339 0.9745
-5.9658 1.3588 -2.0339 0.9745
-6.1122 0.2797 -2.0339 0.9745
-1.0656 5.5869 -2.0340 0.9761
-2.0392 5.3095 -2.0339 0.9761
-4.4599 3.5295 -2.0339 0.9761
-4.7562 3.1186 -2.0339 0.9761
-5.2337 2.2261 -2.0339 0.9761
-0.5265 5.2814 -2.0340 0.9775
-0.9944 5.2135 -2.0340 0.9775
-1.9029 4.9546 -2.0339 0.9775
-2.3362 4.7657 -2.0339 0.9775
-4.6797 2.5037 -2.0339 0.9775
-5.0494 1.6344 -2.0339 0.9775
-5.1748 1.1786 -2.0339 0.9775
-5.3018 0.2426 -2.0339 0.9775
-1.3619 4.7794 -2.0339 0.9788
-2.5759 4.2499 -2.0339 0.9788
-3.8968 3.0839 -2.0339 0.9788
-4.3818 2.3443 -2.0339 0.9788
-4.5730 1.9450 -2.0339 0.9788
-2.1197 0.4827 -0.8898 0.9906
-0.4630 4.6440 -2.0339 0.9798
-0.8744 4.5843 -2.0339 0.9798
-1.2789 4.4883 -2.0339 0.9798
-1.6732 4.3567 -2.0339 0.9798
-2.7646 3.7599 -2.0339 0.9798
-3.3873 3.2103 -2.0339 0.9798
-3.6595 2.8961 -2.0339 0.9798
-3.9027 2.5589 -2.0339 0.9798
-4.1149 2.2015 -2.0339 0.9798
-1.9017 0.4331 -0.8500 0.9915
-2.2775 3.7577 -2.0339 0.9808
-2.6029 3.5401 -2.0339 0.9808
-2.9076 3.2944 -2.0339 0.9808
-3.4455 2.7268 -2.0339 0.9808
-3.6745 2.4093 -2.0339 0.9808
-4.0434 1.7198 -2.0339 0.9808
-1.6200 0.5244 -0.7882 0.9925
-1.5906 0.0727 -0.7370 0.9930
-0.4114 4.1260 -2.0339 0.9817
-0.7769 4.0730 -2.0339 0.9817
-1.1363 3.9877 -2.0339 0.9817
-1.4866 3.8708 -2.0339 0.9817
-1.8252 3.7231 -2.0339 0.9817
-2.1493 3.5459 -2.0339 0.9817
-2.7438 3.1088 -2.0339 0.9817
-3.0095 2.8522 -2.0339 0.9817
-3.2514 2.5731 -2.0339 0.9817
-3.4675 2.2736 -2.0339 0.9817
-3.6560 1.9560 -2.0339 0.9817
-3.8155 1.6229 -2.0339 0.9817
-1.2848 0.4158 -0.6624 0.9940
-1.3255 0.3019 -0.6669 0.9940
-1.3484 0.0617 -0.6621 0.9940
-1.4056 3.6599 -2.0339 0.9825
-1.7258 3.5203 -2.0339 0.9825
-2.3225 3.1586 -2.0339 0.9825
-2.5943 2.9394 -2.0339 0.9825
-1.1971 0.1623 -0.6267 0.9946
-1.1985 0.0548 -0.6224 0.9946
-0.3684 3.6953 -2.0339 0.9832
-1.0176 3.5714 -2.0339 0.9832
-1.6346 3.3344 -2.0339 0.9832
-1.9249 3.1757 -2.0339 0.9832
-2.1998 2.9918 -2.0339 0.9832
-2.4573 2.7842 -2.0339 0.9832
-2.9120 2.3045 -2.0339 0.9832
-1.0316 0.3339 -0.5939 0.9951
-1.0514 0.2394 -0.5906 0.9951
-1.0811 0.0494 -0.5927 0.9951
-0.3495 3.5055 -2.0339 0.9839
-0.6601 3.4605 -2.0339 0.9839
-0.9654 3.3880 -2.0339 0.9839
-1.8260 3.0127 -2.0339 0.9839
-2.0868 2.8382 -2.0339 0.9839
-2.3311 2.6412 -2.0339 0.9839
-2.5569 2.4233 -2.0339 0.9839
-2.9460 1.9317 -2.0339 0.9839
-0.9030 0.4831 -0.5913 0.9953
-0.9847 0.1335 -0.5737 0.9954
-0.9900 0.0453 -0.5722 0.9954
