ply
format ascii 1.0
element vertex 183
property float32 x
property float32 y
property float32 z
property float32 I
end_header
-12.9148 12.8851 3.2168 0.9286
-11.2384 13.4871 2.6894 0.9314
2.4120 18.1711 2.3870 0.9287
-11.0413 13.2505 2.2460 0.9328
2.3529 17.7259 1.9201 0.9306
-11.2594 13.5122 1.8887 0.9317
-12.1414 12.1134 1.8417 0.9333
-4.6306 19.3030 1.6804 0.9234
-12.1448 12.1167 1.4523 0.9335
2.3179 17.4627 1.0924 0.9318
-4.6216 19.2652 0.7812 0.9238
-1.8012 7.5083 -0.7413 0.9694
5.3162 16.2782 -2.0341 0.9333
3.8008 16.6971 -2.0341 0.9333
2.2532 16.9753 -2.0341 0.9333
-1.7687 7.3728 -0.9006 0.9699
-5.5049 16.2145 -2.0340 0.9333
-6.9688 15.6411 -2.0340 0.9334
-9.7086 14.1046 -2.0340 0.9334
-10.9613 13.1545 -2.0340 0.9334
-12.1215 12.0935 -2.0339 0.9334
-13.1795 10.9306 -2.0339 0.9334
6.8747 12.6029 -2.0341 0.9437
4.4569 13.6467 -2.0341 0.9437
1.8890 14.2311 -2.0341 0.9437
0.5757 14.3443 -2.0341 0.9437
-0.7424 14.3365 -2.0341 0.9437
-4.6150 13.5934 -2.0340 0.9437
-10.1621 10.1387 -2.0339 0.9437
1.6246 12.2397 -2.0341 0.9512
0.4952 12.3371 -2.0340 0.9512
-1.7218 7.1771 -1.2159 0.9705
-5.0248 11.2779 -2.0340 0.9512
-6.0380 10.7694 -2.0340 0.9512
-7.0004 10.1701 -2.0340 0.9512
-8.7402 8.7201 -2.0339 0.9512
-9.5031 7.8816 -2.0339 0.9512
1.4239 10.7275 -2.0340 0.9569
-0.4007 7.7371 -1.4562 0.9690
-1.7138 7.1437 -1.3808 0.9705
-2.4396 7.1857 -1.4264 0.9696
-5.2921 9.4388 -2.0340 0.9569
-6.1355 8.9136 -2.0339 0.9569
-6.9271 8.3132 -2.0339 0.9569
-7.6604 7.6427 -2.0339 0.9569
-8.3291 6.9078 -2.0339 0.9569
4.6080 8.4476 -2.0340 0.9614
3.8138 8.8346 -2.0340 0.9614
2.9873 9.1471 -2.0340 0.9614
0.3859 9.6148 -2.0340 0.9614
-0.3936 7.6001 -1.6087 0.9694
-1.7207 7.1728 -1.5592 0.9703
-2.4530 7.2250 -1.6128 0.9693
-3.9161 8.7894 -2.0340 0.9614
-4.7057 8.3931 -2.0340 0.9614
-5.4557 7.9260 -2.0339 0.9614
-6.1596 7.3922 -2.0339 0.9614
-7.4063 6.1425 -2.0339 0.9614
-7.9384 5.4373 -2.0339 0.9614
4.1444 7.5977 -2.0340 0.9651
2.6868 8.2269 -2.0340 0.9651
1.1388 8.5792 -2.0340 0.9651
-0.4476 8.6428 -2.0340 0.9651
-4.2323 7.5487 -2.0339 0.9651
-5.5400 6.6485 -2.0339 0.9651
-6.6612 5.5246 -2.0339 0.9651
2.4388 7.4676 -2.0340 0.9681
1.7436 7.6598 -2.0340 0.9681
-0.4063 7.8452 -2.0340 0.9681
-1.1241 7.7748 -2.0340 0.9681
-1.8325 7.6389 -2.0340 0.9681
-3.1971 7.1756 -2.0340 0.9681
-3.8418 6.8521 -2.0339 0.9681
-5.0287 6.0349 -2.0339 0.9681
-5.5611 5.5482 -2.0339 0.9681
-6.0464 5.0147 -2.0339 0.9681
-6.4809 4.4390 -2.0339 0.9681
2.2305 6.8299 -2.0340 0.9706
1.5947 7.0057 -2.0340 0.9706
0.2881 7.1791 -2.0340 0.9706
-0.3716 7.1752 -2.0340 0.9706
-2.3098 6.8034 -2.0340 0.9706
-3.5137 6.2669 -2.0339 0.9706
-5.5301 4.5865 -2.0339 0.9706
-5.9275 4.0599 -2.0339 0.9706
3.1668 5.8054 -2.0340 0.9727
1.4677 6.4479 -2.0340 0.9727
0.8702 6.5554 -2.0340 0.9727
-3.2339 5.7680 -2.0339 0.9727
-4.2331 5.0802 -2.0339 0.9727
-4.6812 4.6705 -2.0339 0.9727
2.9302 5.3718 -2.0340 0.9745
0.8051 6.0657 -2.0340 0.9745
0.2454 6.1140 -2.0340 0.9745
-2.4903 5.5892 -2.0339 0.9745
-3.9170 4.7007 -2.0339 0.9745
-5.0481 3.4576 -2.0339 0.9745
1.2624 5.5458 -2.0340 0.9761
-0.8139 5.6291 -2.0340 0.9761
-1.8285 5.3857 -2.0339 0.9761
-2.7815 4.9611 -2.0339 0.9761
-3.2248 4.6850 -2.0339 0.9761
-4.0264 4.0171 -2.0339 0.9761
-4.6924 3.2139 -2.0339 0.9761
2.1036 4.8730 -2.0340 0.9775
1.6478 5.0453 -2.0340 0.9775
0.6984 5.2614 -2.0340 0.9775
0.2128 5.3033 -2.0340 0.9775
-0.2745 5.3004 -2.0340 0.9775
-3.3976 4.0774 -2.0339 0.9775
-3.7573 3.7486 -2.0339 0.9775
-4.0852 3.3881 -2.0339 0.9775
-4.3788 2.9991 -2.0339 0.9775
2.3799 4.3628 -2.0340 0.9787
1.5429 4.7241 -2.0340 0.9787
1.1030 4.8457 -2.0340 0.9787
0.6539 4.9265 -2.0340 0.9787
0.1993 4.9657 -2.0340 0.9787
-1.5977 4.7058 -2.0339 0.9788
-2.0225 4.5394 -2.0339 0.9788
-3.1813 3.8178 -2.0339 0.9788
-3.5180 3.5099 -2.0339 0.9788
-4.1000 2.8082 -2.0339 0.9788
2.2349 4.0971 -2.0340 0.9798
1.4489 4.4364 -2.0340 0.9798
0.6141 4.6264 -2.0340 0.9798
0.1871 4.6632 -2.0340 0.9798
-0.2414 4.6607 -2.0340 0.9798
-1.0887 4.5382 -2.0339 0.9798
-1.8993 4.2629 -2.0339 0.9798
-3.5922 2.9792 -2.0339 0.9798
2.1043 3.8575 -2.0340 0.9808
1.7415 4.0342 -2.0340 0.9808
1.3641 4.1770 -2.0340 0.9808
0.9752 4.2845 -2.0340 0.9808
0.5782 4.3559 -2.0340 0.9808
-0.2272 4.3882 -2.0339 0.9808
-1.4126 4.1608 -2.0339 0.9808
-2.8129 3.3756 -2.0339 0.9808
-3.1106 3.1034 -2.0339 0.9808
1.9857 3.6401 -2.0340 0.9817
1.2873 3.9416 -2.0340 0.9817
0.9204 4.0431 -2.0340 0.9817
0.5456 4.1104 -2.0340 0.9817
0.1663 4.1431 -2.0339 0.9817
-0.2144 4.1409 -2.0339 0.9817
-0.9673 4.0321 -2.0339 0.9817
-1.6875 3.7875 -2.0339 0.9817
-2.0278 3.6168 -2.0339 0.9817
-2.3510 3.4155 -2.0339 0.9817
-2.9354 2.9286 -2.0339 0.9817
-3.1916 2.6470 -2.0339 0.9817
-3.4209 2.3431 -2.0339 0.9817
1.5539 3.5996 -2.0340 0.9825
0.5159 3.8865 -2.0339 0.9825
-0.2028 3.9154 -2.0339 0.9825
-0.5610 3.8803 -2.0339 0.9825
-1.2604 3.7125 -2.0339 0.9825
-2.5098 3.0120 -2.0339 0.9825
-2.7754 2.7691 -2.0339 0.9825
-3.0177 2.5028 -2.0339 0.9825
-3.2346 2.2154 -2.0339 0.9825
1.7783 3.2601 -2.0340 0.9832
1.1529 3.5301 -2.0339 0.9832
0.8243 3.6209 -2.0339 0.9832
0.4887 3.6813 -2.0339 0.9832
0.1489 3.7106 -2.0339 0.9832
-0.1921 3.7086 -2.0339 0.9832
-1.1939 3.5164 -2.0339 0.9832
-1.5113 3.3921 -2.0339 0.9832
-2.1055 3.0589 -2.0339 0.9832
-2.6289 2.6228 -2.0339 0.9832
-3.0637 2.0985 -2.0339 0.9832
1.3963 3.2344 -2.0339 0.9839
0.4635 3.4922 -2.0339 0.9839
0.1413 3.5200 -2.0339 0.9839
-0.1822 3.5181 -2.0339 0.9839
-0.8218 3.4257 -2.0339 0.9839
-1.1325 3.3359 -2.0339 0.9839
-1.7229 3.0728 -2.0339 0.9839
-1.9974 2.9018 -2.0339 0.9839
-2.2551 2.7064 -2.0339 0.9839
-2.9064 1.9907 -2.0339 0.9839
