ply
format ascii 1.0
element vertex 196
property float32 x
property float32 y
property float32 z
property float32 I
end_header
-12.6952 12.9856 3.2021 0.9289
-12.3649 12.6479 2.7097 0.9309
-11.2259 13.7980 2.3163 0.9308
-11.4835 14.1146 1.9539 0.9294
-11.8505 12.1216 1.4350 0.9342
-1.0800 7.8762 -0.7632 0.9686
-1.7050 7.3682 -0.7261 0.9701
0.7867 17.1060 -2.0341 0.9333
-0.7731 17.1065 -2.0341 0.9333
-1.0367 7.5600 -0.9064 0.9697
-1.6979 7.3375 -0.8946 0.9701
-6.8196 15.7068 -2.0340 0.9334
-8.2204 15.0209 -2.0340 0.9334
-10.8062 13.2822 -2.0340 0.9334
-13.0341 11.1036 -2.0339 0.9334
-14.8302 8.5575 -2.0339 0.9334
-16.5893 4.2361 -2.0338 0.9334
-16.9057 2.7091 -2.0338 0.9334
-17.1164 -0.3995 -2.0337 0.9334
-4.4954 13.6334 -2.0340 0.9437
-6.8916 12.5928 -2.0340 0.9437
-8.0087 11.9134 -2.0340 0.9437
-9.0595 11.1352 -2.0339 0.9437
-10.0349 10.2646 -2.0339 0.9437
-13.0342 6.0132 -2.0339 0.9437
-13.5271 4.8022 -2.0338 0.9437
-0.5574 12.3344 -2.0340 0.9512
-1.6489 7.1262 -1.2050 0.9708
-7.7918 9.5771 -2.0339 0.9512
-9.3983 8.0063 -2.0339 0.9512
-10.6935 6.1704 -2.0339 0.9512
-11.9620 3.0545 -2.0338 0.9512
-12.3172 0.8361 -2.0338 0.9512
-1.0021 7.3076 -1.3864 0.9704
-2.3744 7.2009 -1.4252 0.9696
-6.0372 8.9805 -2.0339 0.9569
-6.8292 8.3939 -2.0339 0.9569
-7.5646 7.7376 -2.0339 0.9569
-8.2372 7.0172 -2.0339 0.9569
-9.8255 4.5329 -2.0339 0.9569
-10.4841 2.6772 -2.0338 0.9569
-10.6841 1.7121 -2.0338 0.9569
-10.7955 0.7329 -2.0338 0.9569
-0.3451 7.6362 -1.6158 0.9692
-1.6754 7.2404 -1.5709 0.9701
-3.8322 8.8263 -2.0340 0.9614
-4.6194 8.4409 -2.0340 0.9614
-6.0726 7.4639 -2.0339 0.9614
-7.8619 5.5473 -2.0339 0.9614
-8.7369 4.0307 -2.0339 0.9614
-9.5005 1.5224 -2.0338 0.9614
-9.5996 0.6516 -2.0338 0.9614
-9.6189 -0.2245 -2.0338 0.9614
0.3976 8.6453 -2.0340 0.9651
-0.9914 7.2299 -1.7151 0.9705
-3.4467 7.9383 -2.0340 0.9651
-6.5877 5.6120 -2.0339 0.9651
-7.0710 4.9893 -2.0339 0.9651
-7.8580 3.6252 -2.0339 0.9651
-8.1552 2.8951 -2.0339 0.9651
-8.5448 1.3692 -2.0338 0.9651
-8.6514 -0.2020 -2.0338 0.9651
0.3609 7.8474 -2.0340 0.9681
-0.3546 7.8477 -2.0340 0.9681
-1.0029 7.3136 -1.9113 0.9700
-2.4600 7.4605 -2.0340 0.9681
-3.1286 7.2057 -2.0340 0.9681
-3.7713 6.8911 -2.0339 0.9681
-4.9576 6.0935 -2.0339 0.9681
-5.9797 5.0941 -2.0339 0.9681
-7.1329 3.2906 -2.0339 0.9681
-7.4026 2.6280 -2.0339 0.9681
-7.6110 1.9435 -2.0339 0.9681
-7.8530 -0.1833 -2.0338 0.9681
-0.3244 7.1775 -2.0340 0.9706
-0.9761 7.1182 -2.0340 0.9706
-5.0225 5.1374 -2.0339 0.9706
-5.8704 4.1421 -2.0339 0.9706
-6.7704 2.4035 -2.0339 0.9706
-6.9611 1.7775 -2.0339 0.9706
-7.1679 0.4866 -2.0338 0.9706
-0.2986 6.6061 -2.0340 0.9727
-0.8984 6.5515 -2.0340 0.9727
-2.6336 6.0657 -2.0339 0.9727
-3.1746 5.8009 -2.0339 0.9727
-4.1733 5.1295 -2.0339 0.9727
-6.2315 2.2122 -2.0339 0.9727
-6.4069 1.6360 -2.0339 0.9727
-6.5292 1.0463 -2.0339 0.9727
-6.6106 -0.1543 -2.0338 0.9727
0.2811 6.1125 -2.0340 0.9745
-0.8313 6.0622 -2.0340 0.9745
-1.9161 5.8111 -2.0339 0.9745
-2.4369 5.6126 -2.0339 0.9745
-3.4137 5.0780 -2.0339 0.9745
-5.5559 2.5631 -2.0339 0.9745
-5.7661 2.0470 -2.0339 0.9745
-6.0415 0.9681 -2.0339 0.9745
-6.1169 -0.1428 -2.0338 0.9745
0.2613 5.6817 -2.0340 0.9761
-1.7811 5.4016 -2.0339 0.9761
-2.7305 4.9893 -2.0339 0.9761
-3.5894 4.4119 -2.0339 0.9761
-3.9760 4.0669 -2.0339 0.9761
-4.3295 3.6883 -2.0339 0.9761
-4.6471 3.2790 -2.0339 0.9761
-5.3597 1.9028 -2.0339 0.9761
-5.5106 1.4072 -2.0339 0.9761
-5.6858 -0.1327 -2.0339 0.9761
-0.2396 5.3021 -2.0340 0.9775
-0.7211 5.2583 -2.0340 0.9775
-1.1965 5.1709 -2.0339 0.9775
-1.6621 5.0405 -2.0339 0.9775
-2.9611 4.4047 -2.0339 0.9775
-3.3495 4.1170 -2.0339 0.9775
-3.7102 3.7951 -2.0339 0.9775
-4.0402 3.4418 -2.0339 0.9775
-5.1423 1.3131 -2.0339 0.9775
-5.3059 -0.1239 -2.0339 0.9775
-1.1204 4.8417 -2.0339 0.9788
-1.9792 4.5585 -2.0339 0.9788
-2.7725 4.1243 -2.0339 0.9788
-3.1363 3.8549 -2.0339 0.9788
-3.4740 3.5535 -2.0339 0.9788
-4.0605 2.8651 -2.0339 0.9788
-2.1946 0.5604 -0.9270 0.9903
-2.1205 0.1439 -0.8699 0.9909
0.2144 4.6620 -2.0340 0.9798
-0.2107 4.6622 -2.0340 0.9798
-0.6340 4.6237 -2.0339 0.9798
-1.0521 4.5468 -2.0339 0.9798
-1.4614 4.4322 -2.0339 0.9798
-1.8587 4.2808 -2.0339 0.9798
-2.6037 3.8731 -2.0339 0.9798
-2.9453 3.6201 -2.0339 0.9798
-3.5525 3.0264 -2.0339 0.9798
-4.0422 2.3324 -2.0339 0.9798
-1.9291 0.4926 -0.8677 0.9914
-1.9047 0.3052 -0.8407 0.9916
-1.9189 -0.0448 -0.8365 0.9917
-0.5970 4.3533 -2.0339 0.9808
-0.9906 4.2809 -2.0339 0.9808
-2.1095 3.8545 -2.0339 0.9808
-2.7730 3.4084 -2.0339 0.9808
-3.3448 2.8494 -2.0339 0.9808
-3.5902 2.5333 -2.0339 0.9808
-3.8058 2.1961 -2.0339 0.9808
-3.9898 1.8406 -2.0339 0.9808
-1.8050 0.6408 -0.8866 0.9916
-1.5989 0.1085 -0.7418 0.9930
-0.1871 4.1422 -2.0339 0.9817
-0.5634 4.1080 -2.0339 0.9817
-2.3133 3.4411 -2.0339 0.9817
-2.6168 3.2164 -2.0339 0.9817
-3.1563 2.6889 -2.0339 0.9817
-3.3879 2.3905 -2.0339 0.9817
-3.5914 2.0723 -2.0339 0.9817
-3.7650 1.7370 -2.0339 0.9817
-1.3457 0.2156 -0.6685 0.9939
-1.3429 -0.0314 -0.6589 0.9940
-0.1770 3.9166 -2.0339 0.9825
-0.5326 3.8843 -2.0339 0.9825
-1.2277 3.7234 -2.0339 0.9825
-1.5614 3.5962 -2.0339 0.9825
-1.8822 3.4393 -2.0339 0.9825
-2.4743 3.0412 -2.0339 0.9825
-2.7407 2.8034 -2.0339 0.9825
-3.2034 2.2603 -2.0339 0.9825
-3.5599 1.6423 -2.0339 0.9825
-1.1647 0.2974 -0.6236 0.9946
-1.1958 -0.0279 -0.6205 0.9946
0.1706 3.7096 -2.0339 0.9832
-1.4789 3.4063 -2.0339 0.9832
-1.7828 3.2576 -2.0339 0.9832
-2.3436 2.8806 -2.0339 0.9832
-2.5960 2.6554 -2.0339 0.9832
-2.8268 2.4082 -2.0339 0.9832
-3.0342 2.1410 -2.0339 0.9832
-3.2164 1.8560 -2.0339 0.9832
-0.9943 0.4587 -0.5997 0.9950
-1.0250 0.3638 -0.5957 0.9951
-1.0432 0.2663 -0.5897 0.9951
-1.0699 0.1714 -0.5935 0.9951
-1.0789 -0.0252 -0.5911 0.9951
0.1618 3.5191 -2.0339 0.9839
-0.1590 3.5193 -2.0339 0.9839
-0.4786 3.4902 -2.0339 0.9839
-1.4030 3.2314 -2.0339 0.9839
-1.6912 3.0903 -2.0339 0.9839
-1.9654 2.9236 -2.0339 0.9839
-2.2232 2.7327 -2.0339 0.9839
-2.6817 2.2845 -2.0339 0.9839
-2.8784 2.0310 -2.0339 0.9839
-0.9227 0.4256 -0.5867 0.9953
-0.9621 0.2456 -0.5733 0.9954
-0.9815 0.1572 -0.5739 0.9954
