ply
format ascii 1.0
element vertex 189
property float32 x
property float32 y
property float32 z
property float32 I
end_header
-11.5023 12.5134 2.6038 0.9335
-11.3462 12.3434 2.1833 0.9346
-12.9725 11.8443 1.8863 0.9318
-4.2942 19.3594 1.2297 0.9236
-12.3188 13.4016 1.1288 0.9296
-12.0080 13.0636 -0.0999 0.9315
-16.9801 5.2978 -0.9021 0.9312
-16.4884 5.1444 -1.2664 0.9331
-12.0180 13.0744 -1.7049 0.9311
-1.6457 7.4190 -0.9027 0.9699
-5.1550 16.3292 -2.0340 0.9333
-7.9193 15.1819 -2.0340 0.9334
-10.4416 13.5708 -2.0340 0.9334
-12.6448 11.5451 -2.0339 0.9334
-14.4616 9.1668 -2.0339 0.9334
-15.2073 7.8678 -2.0339 0.9334
-16.7276 3.6516 -2.0338 0.9334
-1.6102 7.2593 -1.0536 0.9704
-2.3064 7.3057 -1.0855 0.9695
-7.7260 12.0987 -2.0340 0.9437
-8.7537 11.3771 -2.0340 0.9437
-10.6008 9.6789 -2.0339 0.9437
-14.0238 3.0613 -2.0338 0.9437
-14.2376 1.8240 -2.0338 0.9437
-1.5826 7.1345 -1.2039 0.9708
-4.7317 11.4040 -2.0340 0.9512
-5.7102 10.9468 -2.0340 0.9512
-6.6450 10.4058 -2.0340 0.9512
-7.5289 9.7852 -2.0339 0.9512
-9.1176 8.3246 -2.0339 0.9512
-9.8102 7.4959 -2.0339 0.9512
-10.9654 5.6731 -2.0339 0.9512
-11.4191 4.6930 -2.0339 0.9512
-12.0617 2.6330 -2.0338 0.9512
-12.3315 -0.5874 -2.0338 0.9512
-1.6118 7.2665 -1.3990 0.9702
-4.1471 9.9951 -2.0340 0.9569
-5.0047 9.5943 -2.0340 0.9569
-5.8240 9.1202 -2.0340 0.9569
-7.9911 7.2962 -2.0339 0.9569
-8.5982 6.5698 -2.0339 0.9569
-9.1394 5.7932 -2.0339 0.9569
-10.0084 4.1133 -2.0339 0.9569
-10.5716 2.3077 -2.0338 0.9569
-10.7328 1.3750 -2.0338 0.9569
-10.8118 0.4317 -2.0338 0.9569
-1.6141 7.2764 -1.5755 0.9700
-2.2608 7.1614 -1.5874 0.9698
-4.4502 8.5313 -2.0340 0.9614
-5.8677 7.6261 -2.0339 0.9614
-7.6456 5.8419 -2.0339 0.9614
-8.5459 4.4213 -2.0339 0.9614
-8.8995 3.6575 -2.0339 0.9614
-9.4004 2.0521 -2.0338 0.9614
-9.5437 1.2227 -2.0338 0.9614
-9.6139 0.3839 -2.0338 0.9614
-5.2774 6.8589 -2.0339 0.9651
-5.8566 6.3714 -2.0339 0.9651
-6.3910 5.8351 -2.0339 0.9651
-7.3093 4.6331 -2.0339 0.9651
-7.6862 3.9766 -2.0339 0.9651
-8.2611 2.5775 -2.0339 0.9651
-8.4547 1.8456 -2.0338 0.9651
-1.7011 7.6692 -2.0340 0.9681
-3.6331 6.9649 -2.0339 0.9681
-4.2279 6.6207 -2.0339 0.9681
-4.7903 6.2259 -2.0339 0.9681
-5.8011 5.2966 -2.0339 0.9681
-6.6347 4.2055 -2.0339 0.9681
-6.9769 3.6096 -2.0339 0.9681
-7.2656 2.9860 -2.0339 0.9681
-7.6745 1.6753 -2.0339 0.9681
-7.8462 -0.3738 -2.0338 0.9681
-1.5559 7.0143 -2.0340 0.9706
-2.1629 6.8514 -2.0340 0.9706
-3.3229 6.3701 -2.0339 0.9706
-4.3812 5.6942 -2.0339 0.9706
-4.8621 5.2895 -2.0339 0.9706
-5.7088 4.3621 -2.0339 0.9706
-6.0682 3.8464 -2.0339 0.9706
-6.3811 3.3013 -2.0339 0.9706
-6.6451 2.7310 -2.0339 0.9706
-6.8584 2.1398 -2.0339 0.9706
-7.1261 0.9129 -2.0338 0.9706
-7.1762 -0.3418 -2.0338 0.9706
-1.4320 6.4559 -2.0340 0.9727
-3.5590 5.5733 -2.0339 0.9727
-4.0325 5.2409 -2.0339 0.9727
-6.1161 2.5136 -2.0339 0.9727
-6.3124 1.9695 -2.0339 0.9727
-6.5588 0.8403 -2.0339 0.9727
-6.6049 -0.3146 -2.0338 0.9727
-1.3250 5.9737 -2.0340 0.9745
-3.2932 5.1570 -2.0339 0.9745
-3.7313 4.8495 -2.0339 0.9745
-5.1679 3.2758 -2.0339 0.9745
-5.4345 2.8116 -2.0339 0.9745
-5.8409 1.8224 -2.0339 0.9745
-6.1137 0.2441 -2.0339 0.9745
-6.1116 -0.2911 -2.0338 0.9745
-1.2317 5.5527 -2.0340 0.9761
-2.1797 5.2534 -2.0339 0.9761
-2.6304 5.0428 -2.0339 0.9761
-3.8490 4.1873 -2.0339 0.9761
-4.2002 3.8349 -2.0339 0.9761
-4.8037 3.0450 -2.0339 0.9761
-5.0514 2.6135 -2.0339 0.9761
-5.5566 1.2130 -2.0339 0.9761
-5.6829 0.2269 -2.0339 0.9761
-5.6809 -0.2706 -2.0338 0.9761
-1.1493 5.1816 -2.0339 0.9775
-2.4546 4.7058 -2.0339 0.9775
-3.2365 4.2064 -2.0339 0.9775
-3.5918 3.9075 -2.0339 0.9775
-3.9195 3.5786 -2.0339 0.9775
-4.2172 3.2224 -2.0339 0.9775
-4.7139 2.4388 -2.0339 0.9775
-4.9089 2.0175 -2.0339 0.9775
-5.0665 1.5808 -2.0339 0.9775
-5.1852 1.1319 -2.0339 0.9775
-5.2643 0.6744 -2.0339 0.9775
-5.3031 0.2117 -2.0339 0.9775
-5.3013 -0.2525 -2.0339 0.9775
-1.4961 4.7391 -2.0339 0.9788
-3.3631 3.6587 -2.0339 0.9788
-3.6700 3.3508 -2.0339 0.9788
-3.9488 3.0172 -2.0339 0.9788
-4.5964 1.8890 -2.0339 0.9788
-2.1070 0.2699 -0.8694 0.9909
-2.1226 0.0847 -0.8694 0.9909
-2.1223 -0.1011 -0.8696 0.9909
-1.0107 4.5562 -2.0339 0.9798
-1.4050 4.4504 -2.0339 0.9798
-2.1584 4.1378 -2.0339 0.9798
-2.8459 3.6987 -2.0339 0.9798
-3.1582 3.4359 -2.0339 0.9798
-3.4464 3.1467 -2.0339 0.9798
-3.7082 2.8335 -2.0339 0.9798
-1.9030 0.4154 -0.8489 0.9915
-1.9034 0.2438 -0.8363 0.9917
-1.9186 0.0766 -0.8368 0.9917
-0.9515 4.2898 -2.0339 0.9808
-1.3228 4.1902 -2.0339 0.9808
-2.3649 3.7033 -2.0339 0.9808
-2.6795 3.4825 -2.0339 0.9808
-2.9736 3.2350 -2.0339 0.9808
-3.2449 2.9627 -2.0339 0.9808
-3.4914 2.6678 -2.0339 0.9808
-3.7112 2.3524 -2.0339 0.9808
-3.9026 2.0191 -2.0339 0.9808
-1.5914 -0.0758 -0.7375 0.9930
-0.8979 4.0481 -2.0339 0.9817
-1.5891 3.8298 -2.0339 0.9817
-2.2316 3.4946 -2.0339 0.9817
-2.8061 3.0527 -2.0339 0.9817
-3.5021 2.2199 -2.0339 0.9817
-3.6827 1.9053 -2.0339 0.9817
-3.8351 1.5761 -2.0339 0.9817
-1.3287 0.2900 -0.6671 0.9940
-1.3471 0.0537 -0.6613 0.9940
-1.3487 -0.0643 -0.6623 0.9940
-1.8132 3.4761 -2.0339 0.9825
-2.3908 3.1073 -2.0339 0.9825
-2.6532 2.8864 -2.0339 0.9825
-3.1153 2.3803 -2.0339 0.9825
-3.3113 2.0990 -2.0339 0.9825
-3.4821 1.8015 -2.0339 0.9825
-1.1442 0.3570 -0.6218 0.9946
-1.1747 0.2564 -0.6238 0.9946
-1.1984 0.1535 -0.6268 0.9946
-1.1979 0.0478 -0.6219 0.9946
-1.1987 -0.0571 -0.6225 0.9946
-1.1179 3.5413 -2.0339 0.9832
-1.7175 3.2925 -2.0339 0.9832
-1.9986 3.1298 -2.0339 0.9832
-2.5131 2.7340 -2.0339 0.9832
-2.7424 2.5039 -2.0339 0.9832
-3.1364 1.9881 -2.0339 0.9832
-1.0337 0.3225 -0.5931 0.9951
-1.0545 0.2302 -0.5912 0.9951
-1.0806 0.0431 -0.5923 0.9951
-1.0605 3.3594 -2.0339 0.9839
-1.3500 3.2539 -2.0339 0.9839
-1.8960 2.9691 -2.0339 0.9839
-2.9754 1.8860 -2.0339 0.9839
-0.9080 0.4697 -0.5902 0.9953
-0.9713 0.2120 -0.5740 0.9954
-0.9855 0.1262 -0.5736 0.9954
-0.9900 -0.0472 -0.5722 0.9954
