ply
format ascii 1.0
element vertex 215
property float32 x
property float32 y
property float32 z
property float32 I
end_header
16.3807 -4.3002 -1.2418 0.9343
16.1026 -4.2272 -1.5983 0.9353
2.2820 -6.5383 -0.8226 0.9725
2.7168 -6.0073 -0.7832 0.9738
8.4131 -14.9120 -2.0338 0.9334
10.9190 -13.1885 -2.0338 0.9334
14.0103 -9.8434 -2.0339 0.9334
14.8293 -8.5603 -2.0339 0.9334
16.1103 -5.8015 -2.0340 0.9334
16.5620 -4.3478 -2.0340 0.9334
16.8829 -2.8596 -2.0340 0.9334
17.0703 -1.3488 -2.0340 0.9333
17.1228 0.1726 -2.0340 0.9333
16.4718 4.6810 -2.0341 0.9333
2.1591 -6.1863 -0.9284 0.9739
2.6649 -5.8925 -0.9163 0.9742
9.1541 -11.0567 -2.0339 0.9437
10.1000 -10.2001 -2.0339 0.9437
10.9662 -9.2628 -2.0339 0.9437
11.7455 -8.2523 -2.0339 0.9437
12.4322 -7.1765 -2.0339 0.9437
13.0206 -6.0440 -2.0339 0.9437
13.8848 -3.6450 -2.0340 0.9437
14.1538 -2.3974 -2.0340 0.9437
14.3109 -1.1308 -2.0340 0.9437
14.3548 0.1447 -2.0340 0.9437
14.1029 2.6823 -2.0341 0.9437
1.5860 -6.2935 -1.0692 0.9740
2.1060 -6.0340 -1.0528 0.9744
6.9975 -10.1713 -2.0338 0.9512
7.8733 -9.5097 -2.0339 0.9512
9.4318 -7.9667 -2.0339 0.9512
10.1021 -7.0976 -2.0339 0.9512
10.6927 -6.1724 -2.0339 0.9512
11.9420 -3.1350 -2.0340 0.9512
12.3084 -0.9726 -2.0340 0.9512
2.0837 -5.9701 -1.1885 0.9746
2.5818 -5.7086 -1.1776 0.9748
3.6228 -6.4213 -1.3858 0.9704
6.1330 -8.9147 -2.0339 0.9569
7.6136 -7.6891 -2.0339 0.9569
8.2665 -6.9825 -2.0339 0.9569
8.8541 -6.2207 -2.0339 0.9569
9.3716 -5.4098 -2.0339 0.9569
10.7877 -0.8524 -2.0340 0.9569
10.8209 0.1091 -2.0340 0.9569
10.7685 1.0697 -2.0340 0.9569
10.6309 2.0220 -2.0340 0.9569
10.4094 2.9581 -2.0340 0.9569
3.2408 -5.7442 -1.3941 0.9734
6.1361 -7.4114 -2.0339 0.9614
6.7701 -6.8372 -2.0339 0.9614
7.3507 -6.2089 -2.0339 0.9614
7.8731 -5.5315 -2.0339 0.9614
8.7277 -4.0513 -2.0339 0.9614
9.3069 -2.4432 -2.0340 0.9614
9.5925 -0.7580 -2.0340 0.9614
9.5754 0.9512 -2.0340 0.9614
9.2561 2.6304 -2.0340 0.9614
1.5269 -6.0592 -1.4686 0.9747
2.5867 -5.7196 -1.4753 0.9745
4.9049 -7.1296 -2.0339 0.9651
5.5188 -6.6658 -2.0339 0.9651
6.6112 -5.5843 -2.0339 0.9651
7.0811 -4.9751 -2.0339 0.9651
8.1423 -2.9322 -2.0339 0.9651
8.5328 -1.4453 -2.0340 0.9651
8.6274 -0.6817 -2.0340 0.9651
8.6539 0.0872 -2.0340 0.9651
8.6120 0.8555 -2.0340 0.9651
8.5020 1.6170 -2.0340 0.9651
1.5096 -5.9902 -1.5995 0.9748
3.2757 -5.8062 -1.7261 0.9728
4.4523 -6.4717 -2.0339 0.9681
5.0095 -6.0507 -2.0339 0.9681
5.5271 -5.5819 -2.0339 0.9681
6.4276 -4.5159 -2.0339 0.9681
7.1253 -3.3075 -2.0339 0.9681
7.7453 -1.3119 -2.0340 0.9681
7.8312 -0.6188 -2.0340 0.9681
7.7173 1.4678 -2.0340 0.9681
2.0902 -5.9887 -1.7956 0.9740
2.7392 -6.0568 -1.8818 0.9727
4.0721 -5.9190 -2.0339 0.9706
4.5817 -5.5340 -2.0339 0.9706
5.0551 -5.1052 -2.0339 0.9706
5.4886 -4.6361 -2.0339 0.9706
5.8787 -4.1303 -2.0339 0.9706
6.5168 -3.0250 -2.0339 0.9706
6.7598 -2.4343 -2.0339 0.9706
7.1625 -0.5660 -2.0340 0.9706
7.1496 0.7103 -2.0340 0.9706
7.0583 1.3424 -2.0340 0.9706
1.5243 -6.0487 -1.9186 0.9742
3.2492 -5.7591 -2.0339 0.9727
3.7479 -5.4478 -2.0339 0.9727
4.2170 -5.0935 -2.0339 0.9727
4.6527 -4.6988 -2.0339 0.9727
5.4107 -3.8015 -2.0339 0.9727
5.7270 -3.3059 -2.0339 0.9727
6.2216 -2.2405 -2.0339 0.9727
6.3960 -1.6791 -2.0339 0.9727
6.5200 -1.1044 -2.0339 0.9727
6.5923 -0.5209 -2.0340 0.9727
6.4964 1.2356 -2.0340 0.9727
1.4952 -5.9331 -2.0338 0.9745
2.0162 -5.7768 -2.0339 0.9745
3.4680 -5.0409 -2.0339 0.9745
3.9020 -4.7130 -2.0339 0.9745
4.6744 -3.9483 -2.0339 0.9745
5.2992 -3.0590 -2.0339 0.9745
5.7569 -2.0731 -2.0339 0.9745
6.0999 -0.4820 -2.0339 0.9745
6.1186 0.0617 -2.0340 0.9745
6.0889 0.6049 -2.0340 0.9745
6.0112 1.1433 -2.0340 0.9745
5.8859 1.6727 -2.0340 0.9745
1.3898 -5.5150 -2.0339 0.9761
1.8741 -5.3698 -2.0339 0.9761
2.3437 -5.1821 -2.0339 0.9761
2.7946 -4.9535 -2.0339 0.9761
3.2236 -4.6857 -2.0339 0.9761
3.6270 -4.3809 -2.0339 0.9761
4.3450 -3.6701 -2.0339 0.9761
4.9258 -2.8434 -2.0339 0.9761
5.1589 -2.3947 -2.0339 0.9761
5.5012 -1.4442 -2.0339 0.9761
5.6700 -0.4480 -2.0339 0.9761
5.6598 0.5622 -2.0340 0.9761
1.2969 -5.1464 -2.0339 0.9775
2.1870 -4.8358 -2.0339 0.9775
3.0081 -4.3726 -2.0339 0.9775
3.3846 -4.0881 -2.0339 0.9775
3.7343 -3.7713 -2.0339 0.9775
4.0545 -3.4248 -2.0339 0.9775
4.3427 -3.0512 -2.0339 0.9775
4.5966 -2.6534 -2.0339 0.9775
4.8141 -2.2347 -2.0339 0.9775
5.1336 -1.3476 -2.0339 0.9775
5.2911 -0.4181 -2.0339 0.9775
5.3073 0.0535 -2.0339 0.9775
5.2141 0.9917 -2.0340 0.9775
2.0477 -4.5279 -2.0339 0.9788
2.8166 -4.0942 -2.0339 0.9788
3.4966 -3.5312 -2.0339 0.9788
4.0663 -2.8569 -2.0339 0.9788
4.3039 -2.4845 -2.0339 0.9788
4.8068 -1.2619 -2.0339 0.9788
4.8998 -0.8299 -2.0339 0.9788
4.9542 -0.3915 -2.0339 0.9788
4.8822 0.9286 -2.0340 0.9787
4.7804 1.3585 -2.0340 0.9787
1.9231 -4.2522 -2.0339 0.9798
2.6451 -3.8448 -2.0339 0.9798
2.9761 -3.5947 -2.0339 0.9798
3.2837 -3.3162 -2.0339 0.9798
3.8187 -2.6829 -2.0339 0.9798
4.2331 -1.9650 -2.0339 0.9798
4.5140 -1.1850 -2.0339 0.9798
4.6525 -0.3677 -2.0339 0.9798
4.5848 0.8720 -2.0339 0.9798
4.4893 1.2758 -2.0340 0.9798
2.4904 -3.6200 -2.0339 0.9808
2.8021 -3.3845 -2.0339 0.9808
3.0916 -3.1223 -2.0339 0.9808
3.5954 -2.5260 -2.0339 0.9808
3.8055 -2.1967 -2.0339 0.9808
4.2500 -1.1157 -2.0339 0.9808
4.3167 0.8210 -2.0339 0.9808
4.2268 1.2012 -2.0340 0.9808
1.3663 -3.9148 -2.0339 0.9817
1.7086 -3.7779 -2.0339 0.9817
2.0374 -3.6112 -2.0339 0.9817
2.3501 -3.4160 -2.0339 0.9817
2.6442 -3.1938 -2.0339 0.9817
3.1676 -2.6756 -2.0339 0.9817
3.3928 -2.3837 -2.0339 0.9817
3.9012 -1.4049 -2.0339 0.9817
4.0106 -1.0529 -2.0339 0.9817
4.1336 -0.3267 -2.0339 0.9817
4.0735 0.7747 -2.0339 0.9817
0.9580 -3.8016 -2.0339 0.9825
1.2919 -3.7015 -2.0339 0.9825
1.6155 -3.5722 -2.0339 0.9825
2.2221 -3.2300 -2.0339 0.9825
2.5002 -3.0199 -2.0339 0.9825
2.7586 -2.7859 -2.0339 0.9825
2.9951 -2.5299 -2.0339 0.9825
2.0725 0.0209 -1.0752 0.9907
3.7713 1.0718 -2.0339 0.9825
0.9074 -3.6009 -2.0339 0.9832
1.2237 -3.5061 -2.0339 0.9832
1.5302 -3.3835 -2.0339 0.9832
1.8247 -3.2343 -2.0339 0.9832
2.3682 -2.8604 -2.0339 0.9832
2.6129 -2.6387 -2.0339 0.9832
3.0386 -2.1348 -2.0339 0.9832
1.8590 -0.4880 -1.0527 0.9913
1.8520 -0.3137 -1.0288 0.9915
1.8514 -0.1463 -1.0172 0.9916
1.8493 0.1837 -1.0178 0.9916
1.8550 0.3528 -1.0342 0.9914
1.8684 0.5310 -1.0639 0.9912
1.1608 -3.3261 -2.0339 0.9839
1.4516 -3.2098 -2.0339 0.9839
1.9967 -2.9023 -2.0339 0.9839
2.4787 -2.5033 -2.0339 0.9839
3.0510 -1.7612 -2.0339 0.9839
3.1954 -1.4832 -2.0339 0.9839
1.7130 -0.4497 -1.0225 0.9919
1.7142 -0.2904 -1.0038 0.9920
1.7246 0.0174 -0.9958 0.9921
1.7201 0.1709 -0.9980 0.9920
1.7138 0.3259 -1.0072 0.9920
1.7123 0.4866 -1.0277 0.9918
