ply
format ascii 1.0
element vertex 199
property float32 x
property float32 y
property float32 z
property float32 I
end_header
16.1081 -4.2075 -1.5983 0.9353
1.4559 -17.0589 -2.0337 0.9334
1.7486 -6.5501 -0.8053 0.9731
2.3448 -6.4485 -0.8151 0.9727
2.7621 -5.9192 -0.7759 0.9740
8.5740 -14.8202 -2.0338 0.9334
12.1397 -12.0746 -2.0339 0.9334
13.1527 -10.9627 -2.0339 0.9334
14.0641 -9.7664 -2.0339 0.9334
14.8670 -8.4946 -2.0339 0.9334
16.5673 -4.3275 -2.0340 0.9334
16.8833 -2.8570 -2.0340 0.9334
1.2206 -14.3016 -2.0338 0.9437
1.7219 -6.4502 -0.9459 0.9734
2.7582 -5.9108 -0.9242 0.9740
7.1880 -12.4247 -2.0338 0.9437
9.2498 -10.9768 -2.0339 0.9437
11.7907 -8.1877 -2.0339 0.9437
12.4638 -7.1214 -2.0339 0.9437
13.0408 -6.0003 -2.0339 0.9437
13.5172 -4.8327 -2.0340 0.9437
13.8892 -3.6279 -2.0340 0.9437
14.1541 -2.3951 -2.0340 0.9437
14.3551 0.1164 -2.0340 0.9437
-0.0336 -12.3453 -2.0338 0.9512
2.1252 -12.1612 -2.0338 0.9512
2.7295 -5.8491 -1.0633 0.9742
7.0963 -10.1027 -2.0338 0.9512
10.1409 -7.0421 -2.0339 0.9512
10.7199 -6.1251 -2.0339 0.9512
11.6258 -4.1565 -2.0340 0.9512
12.3075 -0.9837 -2.0340 0.9512
12.3464 0.1001 -2.0340 0.9512
-0.0295 -10.8202 -2.0338 0.9569
0.9202 -10.7811 -2.0338 0.9569
1.6128 -6.0414 -1.1753 0.9749
2.1454 -5.9003 -1.1801 0.9748
2.6729 -5.7278 -1.1881 0.9746
3.5234 -6.0903 -1.3225 0.9718
6.9727 -8.2746 -2.0339 0.9569
7.6720 -7.6308 -2.0339 0.9569
9.3955 -5.3683 -2.0339 0.9569
10.1895 -3.6430 -2.0339 0.9569
10.7869 -0.8622 -2.0340 0.9569
2.7105 -5.8084 -1.3549 0.9741
3.3124 -5.7255 -1.3982 0.9733
5.5306 -7.8735 -2.0339 0.9614
6.2002 -7.3579 -2.0339 0.9614
6.8220 -6.7854 -2.0339 0.9614
7.3912 -6.1606 -2.0339 0.9614
7.9034 -5.4883 -2.0339 0.9614
8.7413 -4.0220 -2.0339 0.9614
9.0605 -3.2394 -2.0339 0.9614
9.5918 -0.7667 -2.0340 0.9614
0.7359 -8.6223 -2.0338 0.9651
1.4898 -8.5245 -2.0338 0.9651
1.5877 -5.9474 -1.4467 0.9750
2.0789 -5.7175 -1.4298 0.9753
3.3498 -5.7902 -1.5721 0.9729
5.5765 -6.6177 -2.0339 0.9651
6.1357 -6.1028 -2.0339 0.9651
6.6477 -5.5408 -2.0339 0.9651
7.8618 -3.6174 -2.0339 0.9651
8.1491 -2.9135 -2.0339 0.9651
8.3733 -2.1871 -2.0339 0.9651
8.5330 -1.4439 -2.0340 0.9651
8.6268 -0.6895 -2.0340 0.9651
1.3523 -7.7379 -2.0338 0.9681
1.5733 -5.8934 -1.5793 0.9751
3.3971 -5.8721 -1.7565 0.9724
4.5152 -6.4280 -2.0339 0.9681
5.5695 -5.5396 -2.0339 0.9681
6.0341 -5.0295 -2.0339 0.9681
6.8206 -3.8971 -2.0339 0.9681
7.6006 -1.9853 -2.0339 0.9681
7.7455 -1.3107 -2.0340 0.9681
7.8307 -0.6259 -2.0340 0.9681
7.8554 0.0637 -2.0340 0.9681
0.6109 -7.1583 -2.0338 0.9706
1.2368 -7.0771 -2.0338 0.9706
2.1718 -5.9730 -1.7992 0.9739
3.5977 -6.2187 -2.0339 0.9706
4.1296 -5.8791 -2.0339 0.9706
6.2381 -3.5643 -2.0339 0.9706
6.7653 -2.4188 -2.0339 0.9706
7.1620 -0.5724 -2.0340 0.9706
7.1846 0.0582 -2.0340 0.9706
-0.0180 -6.6124 -2.0338 0.9727
0.5623 -6.5884 -2.0338 0.9727
1.7055 -6.3887 -2.0338 0.9727
2.2596 -6.2144 -2.0339 0.9727
2.7962 -5.9922 -2.0339 0.9727
4.2611 -5.0566 -2.0339 0.9727
6.3981 -1.6712 -2.0339 0.9727
6.5918 -0.5269 -2.0340 0.9727
6.6126 0.0536 -2.0340 0.9727
-0.0167 -6.1185 -2.0338 0.9745
0.5203 -6.0964 -2.0338 0.9745
1.0533 -6.0272 -2.0338 0.9745
1.5782 -5.9116 -2.0338 0.9745
3.0640 -5.2962 -2.0339 0.9745
3.5170 -5.0069 -2.0339 0.9745
4.7002 -3.9176 -2.0339 0.9745
5.7617 -2.0600 -2.0339 0.9745
6.1187 0.0496 -2.0340 0.9745
0.4837 -5.6668 -2.0338 0.9761
1.9435 -5.3450 -2.0339 0.9761
3.2691 -4.6541 -2.0339 0.9761
4.9383 -2.8216 -2.0339 0.9761
5.1669 -2.3774 -2.0339 0.9761
5.3556 -1.9148 -2.0339 0.9761
5.5030 -1.4374 -2.0339 0.9761
5.6079 -0.9490 -2.0339 0.9761
5.6696 -0.4532 -2.0339 0.9761
5.6875 0.0461 -2.0339 0.9761
-0.0145 -5.3073 -2.0338 0.9775
0.9136 -5.2281 -2.0338 0.9775
2.2443 -4.8095 -2.0339 0.9775
3.0507 -4.3430 -2.0339 0.9775
3.4200 -4.0586 -2.0339 0.9775
3.7630 -3.7428 -2.0339 0.9775
4.0769 -3.3982 -2.0339 0.9775
4.3595 -3.0273 -2.0339 0.9775
4.9977 -1.7868 -2.0339 0.9775
5.1352 -1.3414 -2.0339 0.9775
5.2907 -0.4229 -2.0339 0.9775
5.3074 0.0430 -2.0339 0.9775
0.4225 -4.9514 -2.0338 0.9788
0.8555 -4.8952 -2.0339 0.9788
1.2817 -4.8013 -2.0339 0.9788
2.1015 -4.5033 -2.0339 0.9788
2.4885 -4.3015 -2.0339 0.9788
2.8564 -4.0665 -2.0339 0.9788
3.2023 -3.8002 -2.0339 0.9788
3.8173 -3.1818 -2.0339 0.9788
4.0819 -2.8346 -2.0339 0.9788
4.3149 -2.4654 -2.0339 0.9788
4.5146 -2.0772 -2.0339 0.9788
4.6795 -1.6731 -2.0339 0.9788
4.9538 -0.3960 -2.0339 0.9788
4.9695 0.0403 -2.0339 0.9787
-0.0127 -4.6667 -2.0338 0.9798
0.3968 -4.6499 -2.0339 0.9798
0.8034 -4.5971 -2.0339 0.9798
1.9734 -4.2290 -2.0339 0.9798
2.3370 -4.0395 -2.0339 0.9798
3.0073 -3.5687 -2.0339 0.9798
3.3088 -3.2911 -2.0339 0.9798
3.5848 -2.9880 -2.0339 0.9798
3.8333 -2.6619 -2.0339 0.9798
4.0521 -2.3153 -2.0339 0.9798
4.6015 -0.7787 -2.0339 0.9798
4.6668 0.0378 -2.0339 0.9798
-0.0120 -4.3939 -2.0339 0.9808
1.5014 -4.1294 -2.0339 0.9808
2.5256 -3.5955 -2.0339 0.9808
2.8314 -3.3600 -2.0339 0.9808
3.9918 -1.8367 -2.0339 0.9808
4.1375 -1.4793 -2.0339 0.9808
4.3801 -0.3501 -2.0339 0.9808
-0.0113 -4.1463 -2.0339 0.9817
1.4169 -3.8967 -2.0339 0.9817
2.0763 -3.5890 -2.0339 0.9817
2.6718 -3.1707 -2.0339 0.9817
2.9398 -2.9240 -2.0339 0.9817
3.1851 -2.6548 -2.0339 0.9817
3.4057 -2.3650 -2.0339 0.9817
3.9044 -1.3959 -2.0339 0.9817
4.0884 -0.6918 -2.0339 0.9817
4.1333 -0.3304 -2.0339 0.9817
4.1463 0.0336 -2.0339 0.9817
-0.0107 -3.9205 -2.0339 0.9825
0.3334 -3.9063 -2.0339 0.9825
1.0112 -3.7879 -2.0339 0.9825
1.3397 -3.6845 -2.0339 0.9825
1.6579 -3.5527 -2.0339 0.9825
3.4041 -1.9450 -2.0339 0.9825
3.6917 -1.3199 -2.0339 0.9825
3.7934 -0.9908 -2.0339 0.9825
-0.0101 -3.7134 -2.0339 0.9832
0.3158 -3.7000 -2.0339 0.9832
0.6393 -3.6580 -2.0339 0.9832
1.8596 -3.2143 -2.0339 0.9832
2.1345 -3.0387 -2.0339 0.9832
3.0502 -2.1181 -2.0339 0.9832
3.2244 -1.8423 -2.0339 0.9832
2.0323 -0.7266 -1.1821 0.9902
1.8509 0.0150 -1.0138 0.9916
0.9086 -3.4036 -2.0339 0.9839
1.4897 -3.1923 -2.0339 0.9839
1.7641 -3.0493 -2.0339 0.9839
2.0249 -2.8827 -2.0339 0.9839
2.2700 -2.6939 -2.0339 0.9839
2.8936 -2.0093 -2.0339 0.9839
3.0587 -1.7477 -2.0339 0.9839
1.7850 -0.8213 -1.1344 0.9910
1.7237 -0.6163 -1.0568 0.9916
1.7132 -0.4475 -1.0223 0.9919
1.7246 0.0140 -0.9957 0.9921
