ply
format ascii 1.0
element vertex 188
property float32 x
property float32 y
property float32 z
property float32 I
end_header
17.1270 -3.6391 -0.8880 0.9323
16.5593 -3.5185 -1.2413 0.9344
16.3627 -3.4767 -1.6060 0.9350
0.5124 -17.1132 -2.0337 0.9334
2.0275 -17.0005 -2.0337 0.9334
3.5266 -16.7539 -2.0337 0.9334
2.4421 -6.0268 -0.7724 0.9741
3.0699 -5.9877 -0.7993 0.9733
9.1316 -14.4834 -2.0338 0.9334
12.6215 -11.5702 -2.0339 0.9334
14.4668 -9.1595 -2.0339 0.9334
15.2220 -7.8410 -2.0339 0.9334
16.7493 -3.5589 -2.0340 0.9334
16.9991 -2.0600 -2.0340 0.9333
1.6998 -14.2527 -2.0338 0.9437
1.9099 -6.2578 -0.9270 0.9739
2.4213 -5.9753 -0.9135 0.9743
3.0752 -5.9979 -0.9550 0.9731
8.7019 -11.4159 -2.0338 0.9437
10.5813 -9.6999 -2.0339 0.9437
12.1282 -7.6789 -2.0339 0.9437
12.7613 -6.5736 -2.0339 0.9437
14.0418 -2.9836 -2.0340 0.9437
14.3482 -0.4569 -2.0340 0.9437
0.3695 -12.3398 -2.0338 0.9512
2.5430 -12.0808 -2.0338 0.9512
6.5844 -10.4434 -2.0338 0.9512
8.3254 -9.1166 -2.0339 0.9512
9.8046 -7.5032 -2.0339 0.9512
11.8019 -3.6266 -2.0340 0.9512
12.3406 -0.3929 -2.0340 0.9512
0.3238 -10.8154 -2.0338 0.9569
1.2813 -10.7442 -2.0338 0.9569
1.3877 -6.5930 -1.2664 0.9730
1.8405 -6.0303 -1.1851 0.9747
2.3818 -5.8779 -1.1921 0.9745
2.9803 -5.8129 -1.2278 0.9738
8.5933 -6.5762 -2.0339 0.9569
9.1425 -5.7885 -2.0339 0.9569
10.3438 -3.1786 -2.0340 0.9569
10.7427 -1.3019 -2.0340 0.9569
0.2880 -9.6172 -2.0338 0.9614
1.1394 -9.5539 -2.0338 0.9614
1.8248 -5.9786 -1.3213 0.9748
2.3559 -5.8138 -1.3260 0.9747
6.4884 -7.1051 -2.0339 0.9614
8.1296 -5.1472 -2.0339 0.9614
8.9109 -3.6306 -2.0339 0.9614
9.1978 -2.8264 -2.0339 0.9614
0.2590 -8.6498 -2.0338 0.9651
1.3119 -6.2325 -1.4969 0.9742
1.8023 -5.9054 -1.4511 0.9749
2.2994 -5.6744 -1.4390 0.9752
2.8894 -5.6355 -1.4884 0.9743
4.6154 -7.3204 -2.0339 0.9651
5.2462 -6.8824 -2.0339 0.9651
5.8357 -6.3903 -2.0339 0.9651
7.3118 -4.6294 -2.0339 0.9651
7.6934 -3.9630 -2.0339 0.9651
8.0145 -3.2654 -2.0339 0.9651
8.2725 -2.5420 -2.0339 0.9651
8.4653 -1.7987 -2.0340 0.9651
8.5914 -1.0412 -2.0340 0.9651
8.6500 -0.2754 -2.0340 0.9651
0.2351 -7.8515 -2.0338 0.9681
1.2970 -6.1617 -1.6303 0.9743
2.9653 -5.7836 -1.6828 0.9735
4.7620 -6.2473 -2.0339 0.9681
5.2971 -5.8006 -2.0339 0.9681
6.2383 -4.7739 -2.0339 0.9681
6.6370 -4.2021 -2.0339 0.9681
6.9834 -3.5972 -2.0339 0.9681
7.2749 -2.9640 -2.0339 0.9681
7.5090 -2.3075 -2.0339 0.9681
7.8517 -0.2500 -2.0340 0.9681
1.8062 -5.9180 -1.7516 0.9746
3.1179 -6.0813 -1.9347 0.9720
6.0702 -3.8433 -2.0339 0.9706
6.8678 -2.1104 -2.0339 0.9706
0.1979 -6.6095 -2.0338 0.9727
0.7830 -6.5659 -2.0338 0.9727
1.3620 -6.4706 -2.0338 0.9727
1.8429 -6.0380 -1.9417 0.9739
3.5266 -5.5936 -2.0339 0.9727
4.0087 -5.2590 -2.0339 0.9727
4.4591 -4.8829 -2.0339 0.9727
4.8745 -4.4684 -2.0339 0.9727
5.8786 -3.0281 -2.0339 0.9727
6.1239 -2.4951 -2.0339 0.9727
6.3211 -1.9424 -2.0339 0.9727
6.5647 -0.7956 -2.0339 0.9727
0.1831 -6.1158 -2.0338 0.9745
1.2603 -5.9874 -2.0338 0.9745
3.7093 -4.8661 -2.0339 0.9745
4.1261 -4.5182 -2.0339 0.9745
4.5104 -4.1346 -2.0339 0.9745
4.8591 -3.7185 -2.0339 0.9745
5.1697 -3.2732 -2.0339 0.9745
5.4395 -2.8020 -2.0339 0.9745
6.0745 -0.7361 -2.0339 0.9745
6.1158 -0.1948 -2.0340 0.9745
0.1702 -5.6848 -2.0338 0.9761
0.6735 -5.6474 -2.0338 0.9761
1.6602 -5.4397 -2.0339 0.9761
2.1360 -5.2711 -2.0339 0.9761
2.5948 -5.0610 -2.0339 0.9761
3.0333 -4.8111 -2.0339 0.9761
4.1925 -3.8433 -2.0339 0.9761
4.5167 -3.4565 -2.0339 0.9761
4.8054 -3.0425 -2.0339 0.9761
5.0562 -2.6045 -2.0339 0.9761
5.2672 -2.1460 -2.0339 0.9761
5.6464 -0.6843 -2.0339 0.9761
5.6848 -0.1810 -2.0339 0.9761
0.1588 -5.3049 -2.0338 0.9775
0.6285 -5.2699 -2.0338 0.9775
1.5493 -5.0762 -2.0339 0.9775
1.9932 -4.9188 -2.0339 0.9775
2.4214 -4.7228 -2.0339 0.9775
2.8306 -4.4895 -2.0339 0.9775
3.2174 -4.2209 -2.0339 0.9775
3.9123 -3.5864 -2.0339 0.9775
4.7183 -2.4305 -2.0339 0.9775
4.9152 -2.0026 -2.0339 0.9775
5.1916 -1.1031 -2.0339 0.9775
5.3049 -0.1689 -2.0339 0.9775
0.5885 -4.9344 -2.0339 0.9788
1.8663 -4.6057 -2.0339 0.9788
2.2673 -4.4221 -2.0339 0.9788
2.6504 -4.2037 -2.0339 0.9788
3.6632 -3.3581 -2.0339 0.9788
3.9465 -3.0201 -2.0339 0.9788
4.1988 -2.6584 -2.0339 0.9788
4.4179 -2.2757 -2.0339 0.9788
4.6022 -1.8751 -2.0339 0.9788
4.9671 -0.1582 -2.0339 0.9788
0.9612 -4.5667 -2.0339 0.9798
2.4889 -3.9477 -2.0339 0.9798
2.8291 -3.7115 -2.0339 0.9798
3.7062 -2.8362 -2.0339 0.9798
4.1489 -2.1371 -2.0339 0.9798
4.3220 -1.7609 -2.0339 0.9798
4.4611 -1.3709 -2.0339 0.9798
4.5650 -0.9700 -2.0339 0.9798
4.6331 -0.5615 -2.0339 0.9798
0.1315 -4.3919 -2.0339 0.9808
0.5203 -4.3630 -2.0339 0.9808
0.9050 -4.2997 -2.0339 0.9808
1.2827 -4.2025 -2.0339 0.9808
2.6637 -3.4945 -2.0339 0.9808
2.9630 -3.2446 -2.0339 0.9808
4.0693 -1.6579 -2.0339 0.9808
4.2981 -0.9133 -2.0339 0.9808
4.3918 -0.1399 -2.0339 0.9808
0.4910 -4.1171 -2.0339 0.9817
0.8541 -4.0574 -2.0339 0.9817
1.2104 -3.9657 -2.0339 0.9817
1.8917 -3.6897 -2.0339 0.9817
2.2113 -3.5074 -2.0339 0.9817
2.5136 -3.2976 -2.0339 0.9817
2.7960 -3.0618 -2.0339 0.9817
3.2929 -2.5199 -2.0339 0.9817
3.5033 -2.2181 -2.0339 0.9817
0.8076 -3.8364 -2.0339 0.9825
1.1444 -3.7497 -2.0339 0.9825
1.4723 -3.6336 -2.0339 0.9825
1.7887 -3.4887 -2.0339 0.9825
3.3125 -2.0973 -2.0339 0.9825
3.4854 -1.7953 -2.0339 0.9825
3.6308 -1.4793 -2.0339 0.9825
2.1083 -0.4480 -1.1182 0.9903
2.0864 -0.2529 -1.0903 0.9906
2.0764 -0.0661 -1.0778 0.9907
0.1111 -3.7118 -2.0339 0.9832
0.7649 -3.6338 -2.0339 0.9832
1.0841 -3.5517 -2.0339 0.9832
1.3946 -3.4417 -2.0339 0.9832
1.9805 -3.1413 -2.0339 0.9832
2.2512 -2.9533 -2.0339 0.9832
3.3013 -1.7005 -2.0339 0.9832
1.8778 -0.5770 -1.0759 0.9911
0.1054 -3.5212 -2.0339 0.9839
0.4171 -3.4980 -2.0339 0.9839
1.0284 -3.3694 -2.0339 0.9839
2.9764 -1.8845 -2.0339 0.9839
3.1318 -1.6132 -2.0339 0.9839
1.7148 -0.3644 -1.0121 0.9919
1.7243 -0.0549 -0.9960 0.9921
