ply
format ascii 1.0
element vertex 173
property float32 x
property float32 y
property float32 z
property float32 I
end_header
2.2984 -6.2287 -0.7887 0.9736
9.9863 -13.9079 -2.0338 0.9334
11.1927 -12.9571 -2.0339 0.9334
12.3090 -11.9020 -2.0339 0.9334
15.0318 -8.1996 -2.0339 0.9334
15.7063 -6.8195 -2.0340 0.9334
16.2545 -5.3845 -2.0340 0.9334
-2.6393 -14.1087 -2.0337 0.9437
1.2084 -14.3027 -2.0338 0.9437
2.2773 -6.1717 -0.9321 0.9738
7.2935 -12.3632 -2.0338 0.9437
10.3194 -9.9782 -2.0339 0.9437
13.6269 -4.5141 -2.0340 0.9437
-1.1734 -12.2895 -2.0338 0.9512
-0.0673 -12.3452 -2.0338 0.9512
2.1376 -12.1590 -2.0338 0.9512
1.6609 -6.1503 -1.0495 0.9745
2.2254 -6.0309 -1.0590 0.9743
2.7805 -5.8570 -1.0681 0.9741
6.2730 -10.6334 -2.0338 0.9512
8.8755 -8.5820 -2.0339 0.9512
9.6090 -7.7521 -2.0339 0.9512
10.2651 -6.8598 -2.0339 0.9512
11.7202 -3.8825 -2.0340 0.9512
-1.0285 -10.7712 -2.0338 0.9569
-0.0590 -10.8201 -2.0338 0.9569
0.9109 -10.7819 -2.0338 0.9569
1.8735 -10.6569 -2.0338 0.9569
2.7095 -5.7071 -1.1875 0.9746
7.7790 -7.5218 -2.0339 0.9569
8.9969 -6.0123 -2.0339 0.9569
9.9258 -4.3097 -2.0339 0.9569
-1.7692 -9.4574 -2.0338 0.9614
-0.9145 -9.5779 -2.0338 0.9614
1.6659 -9.4763 -2.0338 0.9614
1.6596 -6.1455 -1.3456 0.9743
2.1314 -5.7761 -1.3014 0.9751
5.6120 -7.8158 -2.0339 0.9614
6.2898 -7.2814 -2.0339 0.9614
7.4887 -6.0416 -2.0339 0.9614
8.0002 -5.3462 -2.0339 0.9614
8.4471 -4.6078 -2.0339 0.9614
8.8261 -3.8322 -2.0339 0.9614
2.1107 -5.7200 -1.4329 0.9753
2.7315 -5.7536 -1.4969 0.9742
6.2213 -6.0156 -2.0339 0.9651
6.7354 -5.4339 -2.0339 0.9651
8.2152 -2.7214 -2.0339 0.9651
-0.0429 -7.8550 -2.0338 0.9681
1.3601 -7.7364 -2.0338 0.9681
1.5876 -5.8789 -1.5767 0.9752
2.1536 -5.8361 -1.6107 0.9746
2.6646 -5.6128 -1.6087 0.9747
5.6471 -5.4604 -2.0339 0.9681
6.5312 -4.3647 -2.0339 0.9681
6.8962 -3.7617 -2.0339 0.9681
7.4570 -2.4703 -2.0339 0.9681
1.2439 -7.0758 -2.0338 0.9706
3.6505 -6.1879 -2.0339 0.9706
4.1904 -5.8359 -2.0339 0.9706
4.6965 -5.4369 -2.0339 0.9706
5.1649 -4.9941 -2.0339 0.9706
5.9735 -3.9919 -2.0339 0.9706
6.5903 -2.8614 -2.0339 0.9706
6.8203 -2.2593 -2.0339 0.9706
-0.6285 -6.5824 -2.0338 0.9727
0.5566 -6.5890 -2.0338 0.9727
2.8359 -5.9735 -2.0339 0.9727
3.3598 -5.6953 -2.0339 0.9727
4.3227 -5.0041 -2.0339 0.9727
4.7537 -4.5966 -2.0339 0.9727
5.1466 -4.1521 -2.0339 0.9727
5.4980 -3.6741 -2.0339 0.9727
5.8052 -3.1666 -2.0339 0.9727
6.0657 -2.6336 -2.0339 0.9727
-0.5816 -6.0908 -2.0338 0.9745
0.5151 -6.0968 -2.0338 0.9745
1.0594 -6.0262 -2.0338 0.9745
2.1182 -5.7403 -2.0339 0.9745
3.9998 -4.6303 -2.0339 0.9745
4.7621 -3.8420 -2.0339 0.9745
5.0873 -3.3997 -2.0339 0.9745
5.3716 -2.9301 -2.0339 0.9745
5.6126 -2.4369 -2.0339 0.9745
5.8084 -1.9242 -2.0339 0.9745
-1.0458 -5.5904 -2.0338 0.9761
0.9848 -5.6015 -2.0338 0.9761
1.4828 -5.4907 -2.0339 0.9761
1.9689 -5.3358 -2.0339 0.9761
2.4392 -5.1378 -2.0339 0.9761
2.8898 -4.8986 -2.0339 0.9761
3.3172 -4.6199 -2.0339 0.9761
3.7179 -4.3040 -2.0339 0.9761
4.0887 -3.9535 -2.0339 0.9761
4.4266 -3.5712 -2.0339 0.9761
4.7288 -3.1601 -2.0339 0.9761
4.9930 -2.7236 -2.0339 0.9761
5.2171 -2.2652 -2.0339 0.9761
-0.9759 -5.2168 -2.0338 0.9775
-0.0290 -5.3072 -2.0338 0.9775
0.4468 -5.2884 -2.0338 0.9775
1.3837 -5.1238 -2.0339 0.9775
2.2762 -4.7945 -2.0339 0.9775
3.4695 -4.0164 -2.0339 0.9775
4.6593 -2.5416 -2.0339 0.9775
4.8684 -2.1138 -2.0339 0.9775
5.0383 -1.6690 -2.0339 0.9775
-0.9138 -4.8846 -2.0338 0.9788
-0.4723 -4.9469 -2.0338 0.9788
-0.0271 -4.9693 -2.0338 0.9788
1.7204 -4.6621 -2.0339 0.9788
2.1312 -4.4892 -2.0339 0.9788
2.5250 -4.2802 -2.0339 0.9788
3.2485 -3.7607 -2.0339 0.9788
3.5725 -3.4544 -2.0339 0.9788
3.8677 -3.1204 -2.0339 0.9788
4.1319 -2.7612 -2.0339 0.9788
4.3627 -2.3798 -2.0339 0.9788
4.7175 -1.5628 -2.0339 0.9788
-0.8582 -4.5872 -2.0338 0.9798
-0.4436 -4.6456 -2.0338 0.9798
1.2167 -4.5054 -2.0339 0.9798
1.6155 -4.3782 -2.0339 0.9798
2.0015 -4.2158 -2.0339 0.9798
2.3712 -4.0195 -2.0339 0.9798
2.7219 -3.7908 -2.0339 0.9798
3.3550 -3.2440 -2.0339 0.9798
3.6322 -2.9303 -2.0339 0.9798
3.8802 -2.5930 -2.0339 0.9798
4.0970 -2.2349 -2.0339 0.9798
4.2808 -1.8587 -2.0339 0.9798
-0.8080 -4.3189 -2.0338 0.9808
0.7608 -4.3275 -2.0339 0.9808
1.8845 -3.9693 -2.0339 0.9808
2.2326 -3.7844 -2.0339 0.9808
2.5627 -3.5691 -2.0339 0.9808
2.8723 -3.3251 -2.0339 0.9808
3.6533 -2.4414 -2.0339 0.9808
3.8575 -2.1041 -2.0339 0.9808
4.0305 -1.7500 -2.0339 0.9808
4.1711 -1.3818 -2.0339 0.9808
-0.7625 -4.0756 -2.0338 0.9817
0.7179 -4.0837 -2.0339 0.9817
2.1068 -3.5712 -2.0339 0.9817
2.4183 -3.3680 -2.0339 0.9817
2.7105 -3.1378 -2.0339 0.9817
2.9808 -2.8822 -2.0339 0.9817
3.2271 -2.6035 -2.0339 0.9817
-0.7209 -3.8536 -2.0339 0.9825
-0.0214 -3.9204 -2.0339 0.9825
0.3300 -3.9066 -2.0339 0.9825
0.6788 -3.8613 -2.0339 0.9825
2.2866 -3.1846 -2.0339 0.9825
3.2597 -2.1784 -2.0339 0.9825
3.4418 -1.8775 -2.0339 0.9825
3.5962 -1.5615 -2.0339 0.9825
3.7217 -1.2329 -2.0339 0.9825
-0.0203 -3.7134 -2.0339 0.9832
0.3126 -3.7003 -2.0339 0.9832
0.9682 -3.5850 -2.0339 0.9832
1.2855 -3.4839 -2.0339 0.9832
1.8869 -3.1984 -2.0339 0.9832
3.0876 -2.0633 -2.0339 0.9832
3.2601 -1.7783 -2.0339 0.9832
3.4064 -1.4790 -2.0339 0.9832
1.8926 -0.6270 -1.0920 0.9909
-0.6478 -3.4627 -2.0339 0.9839
-0.0192 -3.5227 -2.0339 0.9839
0.6100 -3.4696 -2.0339 0.9839
1.2195 -3.3050 -2.0339 0.9839
1.5108 -3.1824 -2.0339 0.9839
2.5325 -2.4488 -2.0339 0.9839
1.7241 -0.5712 -1.0486 0.9916
