ply
format ascii 1.0
element vertex 187
property float32 x
property float32 y
property float32 z
property float32 I
end_header
-11.8624 12.6228 2.6536 0.9323
-11.4580 12.1924 2.1788 0.9347
-11.5395 12.2790 1.8094 0.9345
-4.5799 19.3755 1.6854 0.9232
-12.1566 12.9357 -0.4999 0.9314
-1.7881 7.5646 -0.5699 0.9693
-1.7399 7.3609 -0.8985 0.9700
-6.7657 15.7301 -2.0340 0.9334
-10.5970 13.4498 -2.0340 0.9334
-11.7259 12.4776 -2.0339 0.9334
-12.7661 11.4108 -2.0339 0.9334
-16.3861 4.9648 -2.0338 0.9334
-16.7555 3.5215 -2.0338 0.9334
-17.1118 0.5662 -2.0338 0.9334
-0.8326 14.3315 -2.0341 0.9437
-1.0725 7.3407 -1.0511 0.9705
-6.7968 12.6442 -2.0340 0.9437
-10.7025 9.5663 -2.0339 0.9437
-12.1975 7.5679 -2.0339 0.9437
-12.8091 6.4788 -2.0339 0.9437
-13.7374 4.1623 -2.0338 0.9437
-14.0471 2.9523 -2.0338 0.9437
-14.2505 1.7200 -2.0338 0.9437
-1.0545 7.2175 -1.2016 0.9709
-1.7087 7.2287 -1.2237 0.9703
-2.5495 7.7153 -1.3386 0.9676
-6.7690 10.3255 -2.0340 0.9512
-8.4550 8.9969 -2.0339 0.9512
-9.8854 7.3964 -2.0339 0.9512
-10.4909 6.5090 -2.0339 0.9512
-11.0169 5.5724 -2.0339 0.9512
-11.8154 3.5799 -2.0338 0.9512
-12.0818 2.5392 -2.0338 0.9512
-1.0486 7.1767 -1.3633 0.9709
-1.6807 7.1105 -1.3733 0.9707
-2.3793 7.2003 -1.4253 0.9696
-4.2757 9.9408 -2.0340 0.9569
-5.9327 9.0498 -2.0340 0.9569
-7.4104 7.8854 -2.0339 0.9569
-8.0678 7.2113 -2.0339 0.9569
-9.1948 5.7049 -2.0339 0.9569
-10.0438 4.0260 -2.0339 0.9569
-10.7425 1.2966 -2.0338 0.9569
-1.0609 7.2612 -1.5512 0.9704
-1.7045 7.2109 -1.5662 0.9702
-2.3741 7.1846 -1.5994 0.9695
-3.8019 8.8394 -2.0340 0.9614
-4.5559 8.4754 -2.0340 0.9614
-5.2754 8.0472 -2.0339 0.9614
-5.9550 7.5581 -2.0339 0.9614
-6.5895 7.0117 -2.0339 0.9614
-7.7042 5.7644 -2.0339 0.9614
-8.1761 5.0728 -2.0339 0.9614
-8.5861 4.3428 -2.0339 0.9614
-9.2084 2.7900 -2.0339 0.9614
-0.4402 7.5755 -1.7834 0.9693
-3.4195 7.9501 -2.0340 0.9651
-4.0976 7.6227 -2.0340 0.9651
-4.7447 7.2376 -2.0339 0.9651
-5.3559 6.7977 -2.0339 0.9651
-6.4523 5.7672 -2.0339 0.9651
-7.3536 4.5625 -2.0339 0.9651
-7.7223 3.9059 -2.0339 0.9651
-8.0326 3.2198 -2.0339 0.9651
-8.2820 2.5094 -2.0339 0.9651
-8.4688 1.7799 -2.0338 0.9651
-8.5914 1.0369 -2.0338 0.9651
-8.6489 0.2862 -2.0338 0.9651
-1.8071 7.6450 -2.0340 0.9681
-2.4648 7.4589 -2.0340 0.9681
-3.1039 7.2164 -2.0340 0.9681
-4.3068 6.5696 -2.0339 0.9681
-4.8616 6.1704 -2.0339 0.9681
-6.2897 4.7061 -2.0339 0.9681
-6.6749 4.1414 -2.0339 0.9681
-7.0096 3.5455 -2.0339 0.9681
-7.2913 2.9227 -2.0339 0.9681
-7.8508 0.2597 -2.0338 0.9681
-1.6527 6.9921 -2.0340 0.9706
-2.8388 6.6001 -2.0339 0.9706
-4.4464 5.6435 -2.0339 0.9706
-5.3566 4.7879 -2.0339 0.9706
-5.7526 4.3042 -2.0339 0.9706
-6.1049 3.7878 -2.0339 0.9706
-6.6686 2.6731 -2.0339 0.9706
-7.0308 1.4777 -2.0339 0.9706
-7.1326 0.8609 -2.0338 0.9706
-0.3835 6.6017 -2.0340 0.9727
-0.9559 6.5434 -2.0340 0.9727
-2.6128 6.0747 -2.0339 0.9727
-3.1310 5.8246 -2.0339 0.9727
-3.6254 5.5303 -2.0339 0.9727
-4.0925 5.1942 -2.0339 0.9727
-4.9302 4.4068 -2.0339 0.9727
-5.2946 3.9615 -2.0339 0.9727
-5.6189 3.4862 -2.0339 0.9727
-5.9007 2.9846 -2.0339 0.9727
-6.1377 2.4603 -2.0339 0.9727
-6.5648 0.7923 -2.0339 0.9727
-6.6088 0.2187 -2.0338 0.9727
-1.4075 5.9548 -2.0340 0.9745
-3.3546 5.1172 -2.0339 0.9745
-4.5620 4.0777 -2.0339 0.9745
-4.8992 3.6656 -2.0339 0.9745
-5.1993 3.2259 -2.0339 0.9745
-5.4600 2.7617 -2.0339 0.9745
-5.8557 1.7742 -2.0339 0.9745
-5.9878 1.2584 -2.0339 0.9745
-0.8222 5.6279 -2.0340 0.9761
-1.7846 5.4004 -2.0339 0.9761
-2.2473 5.2248 -2.0339 0.9761
-2.6929 5.0097 -2.0339 0.9761
-3.1182 4.7566 -2.0339 0.9761
-3.5199 4.4675 -2.0339 0.9761
-4.2405 3.7903 -2.0339 0.9761
-5.0752 2.5670 -2.0339 0.9761
-5.2791 2.1161 -2.0339 0.9761
-5.6464 0.6815 -2.0339 0.9761
-0.3079 5.2986 -2.0340 0.9775
-1.6653 5.0395 -2.0339 0.9775
-2.0971 4.8756 -2.0339 0.9775
-2.5129 4.6749 -2.0339 0.9775
-3.6346 3.8676 -2.0339 0.9775
-4.2495 3.1796 -2.0339 0.9775
-4.7361 2.3955 -2.0339 0.9775
-5.0793 1.5390 -2.0339 0.9775
-5.1939 1.0916 -2.0339 0.9775
-5.2691 0.6360 -2.0339 0.9775
-0.2882 4.9612 -2.0340 0.9788
-0.7184 4.9174 -2.0339 0.9788
-3.0755 3.9035 -2.0339 0.9788
-4.2227 2.6200 -2.0339 0.9788
-4.6127 1.8490 -2.0339 0.9788
-4.7560 1.4410 -2.0339 0.9788
-2.1086 0.2545 -0.8693 0.9909
-0.2707 4.6591 -2.0340 0.9798
-2.5586 3.9030 -2.0339 0.9798
-3.7367 2.7959 -2.0339 0.9798
-4.3318 1.7364 -2.0339 0.9798
-2.0668 0.6262 -0.9412 0.9906
-1.9038 0.4001 -0.8478 0.9915
-1.9055 0.2300 -0.8365 0.9917
-1.9188 0.0635 -0.8367 0.9917
-0.2548 4.3866 -2.0339 0.9808
-0.6352 4.3479 -2.0339 0.9808
-1.0108 4.2762 -2.0339 0.9808
-1.7362 4.0365 -2.0339 0.9808
-2.0805 3.8703 -2.0339 0.9808
-2.7193 3.4514 -2.0339 0.9808
-3.2760 2.9282 -2.0339 0.9808
-3.5182 2.6324 -2.0339 0.9808
-3.9209 1.9832 -2.0339 0.9808
-4.0784 1.6348 -2.0339 0.9808
-1.5370 0.4656 -0.7434 0.9929
-1.5964 0.3355 -0.7551 0.9928
-1.6097 0.1942 -0.7505 0.9929
-1.5845 0.0524 -0.7339 0.9930
-0.2405 4.1395 -2.0339 0.9817
-1.3010 3.9370 -2.0339 0.9817
-1.6383 3.8090 -2.0339 0.9817
-2.2733 3.4677 -2.0339 0.9817
-2.8396 3.0215 -2.0339 0.9817
-3.5233 2.1860 -2.0339 0.9817
-1.3312 0.2797 -0.6672 0.9940
-1.3524 0.1632 -0.6682 0.9939
-0.5668 3.8794 -2.0339 0.9825
-1.2302 3.7226 -2.0339 0.9825
-1.5491 3.6016 -2.0339 0.9825
-2.9231 2.6127 -2.0339 0.9825
-3.3314 2.0670 -2.0339 0.9825
-1.1478 0.3477 -0.6222 0.9946
-1.1991 0.1447 -0.6266 0.9946
-0.2154 3.7073 -2.0339 0.9832
-0.5368 3.6746 -2.0339 0.9832
-1.7582 3.2709 -2.0339 0.9832
-2.0360 3.1057 -2.0339 0.9832
-2.5431 2.7061 -2.0339 0.9832
-2.9733 2.2247 -2.0339 0.9832
-1.0352 0.3136 -0.5924 0.9951
-1.0570 0.2221 -0.5916 0.9951
-1.0800 0.0357 -0.5918 0.9951
-0.8104 3.4284 -2.0339 0.9839
-1.3920 3.2362 -2.0339 0.9839
-1.9314 2.9462 -2.0339 0.9839
-2.1802 2.7671 -2.0339 0.9839
-2.4125 2.5671 -2.0339 0.9839
-0.9900 0.0327 -0.5719 0.9954
