ply
format ascii 1.0
element vertex 226
property float32 x
property float32 y
property float32 z
property float32 I
end_header
2.4154 18.6530 3.3165 0.9264
2.2788 17.5977 2.7184 0.9307
2.2814 17.6179 2.3134 0.9308
2.3904 18.4602 1.9988 0.9278
3.9749 17.8586 0.7214 0.9294
2.4261 18.7358 0.3191 0.9272
14.7338 8.8258 -1.6489 0.9333
13.1588 9.5929 -1.5634 0.9367
17.0512 -1.5719 -2.0340 0.9333
15.4234 7.4402 -2.0341 0.9333
14.6903 8.7998 -2.0341 0.9333
13.2538 9.6622 -1.9483 0.9361
10.6363 13.4207 -2.0341 0.9333
9.3837 14.3245 -2.0341 0.9333
6.6602 15.7761 -2.0341 0.9333
5.2115 16.3120 -2.0341 0.9333
3.7204 16.7152 -2.0341 0.9333
-1.0854 7.5960 -0.9115 0.9696
14.2948 -1.3178 -2.0340 0.9437
14.1270 2.5527 -2.0341 0.9437
13.8395 3.8153 -2.0341 0.9437
11.6007 8.4570 -2.0341 0.9437
10.7914 9.4679 -2.0341 0.9437
9.8944 10.4018 -2.0341 0.9437
8.9169 11.2511 -2.0341 0.9437
6.7526 12.6688 -2.0341 0.9437
1.8436 14.2370 -2.0341 0.9437
-1.0544 7.3791 -1.0562 0.9703
12.2946 -1.1334 -2.0340 0.9512
12.2986 1.0917 -2.0340 0.9512
12.1502 2.1955 -2.0340 0.9512
11.9030 3.2814 -2.0340 0.9512
11.5589 4.3407 -2.0340 0.9512
11.1208 5.3646 -2.0341 0.9512
10.5922 6.3449 -2.0341 0.9512
9.9774 7.2736 -2.0341 0.9512
9.2814 8.1431 -2.0341 0.9512
8.5099 8.9463 -2.0341 0.9512
6.7659 10.3284 -2.0341 0.9512
5.8077 10.8961 -2.0341 0.9512
2.6826 12.0522 -2.0341 0.9512
1.5857 12.2449 -2.0341 0.9512
-0.6379 12.3305 -2.0340 0.9512
-1.0364 7.2540 -1.2072 0.9707
10.7757 -0.9934 -2.0340 0.9569
10.8214 -0.0184 -2.0340 0.9569
10.7791 0.9568 -2.0340 0.9569
9.2835 5.5610 -2.0340 0.9569
5.9300 9.0523 -2.0341 0.9569
4.2089 9.9696 -2.0340 0.9569
3.2934 10.3083 -2.0340 0.9569
1.3897 10.7320 -2.0340 0.9569
-1.0309 7.2150 -1.3699 0.9708
9.6224 -0.0163 -2.0340 0.9614
9.4692 1.7111 -2.0340 0.9614
9.0083 3.3829 -2.0340 0.9614
8.2549 4.9448 -2.0340 0.9614
7.2333 6.3462 -2.0340 0.9614
6.6320 6.9722 -2.0340 0.9614
5.2729 8.0493 -2.0340 0.9614
3.7426 8.8650 -2.0340 0.9614
0.3708 9.6154 -2.0340 0.9614
-0.3932 7.6002 -1.6087 0.9694
8.6178 -0.7945 -2.0340 0.9651
8.6543 -0.0147 -2.0340 0.9651
8.5165 1.5389 -2.0340 0.9651
8.3432 2.3001 -2.0340 0.9651
5.9648 6.2708 -2.0340 0.9651
5.3755 6.7827 -2.0340 0.9651
4.0708 7.6374 -2.0340 0.9651
2.6339 8.2440 -2.0340 0.9651
1.8803 8.4478 -2.0340 0.9651
0.3335 8.6480 -2.0340 0.9651
-1.0414 7.2887 -1.7304 0.9702
7.8225 -0.7211 -2.0340 0.9681
7.7305 1.3969 -2.0340 0.9681
7.0755 3.4132 -2.0340 0.9681
5.9052 5.1810 -2.0340 0.9681
3.6951 6.9325 -2.0340 0.9681
2.3908 7.4832 -2.0340 0.9681
1.0088 7.7907 -2.0340 0.9681
-1.1112 7.7767 -2.0340 0.9681
7.1567 0.6353 -2.0340 0.9706
6.9265 1.9095 -2.0340 0.9706
6.1636 3.6921 -2.0340 0.9706
5.8059 4.2325 -2.0340 0.9706
4.4627 5.6309 -2.0340 0.9706
3.9371 6.0102 -2.0340 0.9706
3.3795 6.3405 -2.0340 0.9706
2.7944 6.6192 -2.0340 0.9706
2.1866 6.8441 -2.0340 0.9706
1.5610 7.0132 -2.0340 0.9706
0.2768 7.1795 -2.0340 0.9706
-0.3712 7.1752 -2.0340 0.9706
6.5849 -0.6071 -2.0340 0.9727
6.6128 -0.0112 -2.0340 0.9727
6.1908 2.3248 -2.0340 0.9727
4.9709 4.3612 -2.0340 0.9727
4.5577 4.7914 -2.0340 0.9727
4.1074 5.1826 -2.0340 0.9727
3.6237 5.5317 -2.0340 0.9727
3.1105 5.8357 -2.0340 0.9727
2.0125 6.2992 -2.0340 0.9727
0.2548 6.6079 -2.0340 0.9727
-0.3417 6.6040 -2.0340 0.9727
-0.9354 6.5463 -2.0340 0.9727
6.1189 -0.0104 -2.0340 0.9745
5.8989 1.6262 -2.0340 0.9745
5.7284 2.1512 -2.0340 0.9745
5.5113 2.6586 -2.0340 0.9745
4.9446 3.6046 -2.0340 0.9745
4.5996 4.0355 -2.0340 0.9745
3.8006 4.7955 -2.0340 0.9745
3.3530 5.1185 -2.0340 0.9745
2.8781 5.3998 -2.0340 0.9745
2.3799 5.6372 -2.0340 0.9745
1.3295 5.9728 -2.0340 0.9745
0.7858 6.0683 -2.0340 0.9745
0.2358 6.1144 -2.0340 0.9745
5.6877 -0.0096 -2.0339 0.9761
5.6654 0.5029 -2.0340 0.9761
5.5971 1.0114 -2.0340 0.9761
5.1229 2.4712 -2.0340 0.9761
4.8793 2.9228 -2.0340 0.9761
3.5327 4.4576 -2.0340 0.9761
2.6753 5.0193 -2.0340 0.9761
0.7304 5.6406 -2.0340 0.9761
-0.2938 5.6801 -2.0340 0.9761
-0.8045 5.6305 -2.0340 0.9761
5.2852 -0.4872 -2.0339 0.9775
5.3075 -0.0090 -2.0339 0.9775
5.2868 0.4693 -2.0340 0.9775
5.2230 0.9437 -2.0340 0.9775
5.1167 1.4106 -2.0340 0.9775
4.5532 2.7274 -2.0340 0.9775
3.9897 3.5004 -2.0340 0.9775
3.6581 3.8457 -2.0340 0.9775
2.4965 4.6838 -2.0340 0.9775
1.6152 5.0558 -2.0340 0.9775
0.2045 5.3036 -2.0340 0.9775
-0.2742 5.3005 -2.0340 0.9775
-0.7507 5.2542 -2.0340 0.9775
4.9696 -0.0085 -2.0339 0.9788
4.9502 0.4394 -2.0339 0.9787
4.6525 1.7471 -2.0340 0.9787
4.4761 2.1592 -2.0340 0.9787
4.2633 2.5538 -2.0340 0.9787
4.0159 2.9276 -2.0340 0.9787
3.7357 3.2775 -2.0340 0.9787
1.9329 4.5784 -2.0340 0.9787
1.0797 4.8510 -2.0340 0.9787
0.1915 4.9660 -2.0340 0.9787
-0.2568 4.9630 -2.0340 0.9788
4.6487 0.4126 -2.0339 0.9798
4.5926 0.8299 -2.0339 0.9798
4.4992 1.2403 -2.0340 0.9798
4.3691 1.6407 -2.0340 0.9798
4.2035 2.0277 -2.0340 0.9798
4.0037 2.3982 -2.0340 0.9798
3.7713 2.7493 -2.0340 0.9798
2.5575 3.9039 -2.0340 0.9798
2.1952 4.1185 -2.0340 0.9798
1.0140 4.5555 -2.0340 0.9798
0.5993 4.6283 -2.0340 0.9798
-0.2411 4.6607 -2.0340 0.9798
4.3941 -0.0075 -2.0339 0.9808
4.3240 0.7813 -2.0339 0.9808
3.9577 1.9091 -2.0340 0.9808
3.7696 2.2580 -2.0340 0.9808
2.0668 3.8776 -2.0340 0.9808
0.9547 4.2891 -2.0340 0.9808
0.5643 4.3577 -2.0340 0.9808
0.1693 4.3908 -2.0340 0.9808
-0.2270 4.3882 -2.0339 0.9808
-0.6215 4.3499 -2.0339 0.9808
4.1465 -0.0070 -2.0339 0.9817
4.0804 0.7373 -2.0339 0.9817
3.8818 1.4577 -2.0340 0.9817
3.5571 2.1308 -2.0340 0.9817
3.3507 2.4427 -2.0340 0.9817
3.1169 2.7346 -2.0340 0.9817
2.2722 3.4686 -2.0340 0.9817
1.9504 3.6592 -2.0340 0.9817
1.6127 3.8200 -2.0340 0.9817
1.2619 3.9498 -2.0340 0.9817
0.5325 4.1121 -2.0340 0.9817
0.1598 4.1434 -2.0339 0.9817
2.0704 -0.0035 -1.0741 0.9907
2.1041 0.3802 -1.1092 0.9904
3.7796 1.0420 -2.0339 0.9825
3.5312 1.7035 -2.0339 0.9825
3.1682 2.3096 -2.0340 0.9825
2.7021 2.8407 -2.0340 0.9825
2.4352 3.0727 -2.0340 0.9825
2.1484 3.2796 -2.0340 0.9825
1.1932 3.7346 -2.0340 0.9825
0.8518 3.8270 -2.0340 0.9825
0.1511 3.9177 -2.0339 0.9825
-0.2025 3.9154 -2.0339 0.9825
-0.5546 3.8812 -2.0339 0.9825
1.8502 -0.1706 -1.0176 0.9916
1.8504 -0.0032 -1.0135 0.9916
1.8505 0.1642 -1.0175 0.9916
1.8538 0.3350 -1.0318 0.9914
1.8648 0.5141 -1.0595 0.9912
3.4766 1.3055 -2.0339 0.9832
3.1857 1.9083 -2.0339 0.9832
3.0009 2.1876 -2.0340 0.9832
2.7915 2.4491 -2.0340 0.9832
2.0350 3.1064 -2.0340 0.9832
1.7468 3.2772 -2.0340 0.9832
1.4443 3.4212 -2.0340 0.9832
0.8068 3.6249 -2.0339 0.9832
1.7210 -0.1587 -0.9978 0.9920
1.7245 -0.0029 -0.9956 0.9921
1.7116 0.4718 -1.0251 0.9918
1.7187 0.6454 -1.0599 0.9916
3.1730 1.5306 -2.0339 0.9839
3.0222 1.8104 -2.0339 0.9839
2.8468 2.0753 -2.0339 0.9839
2.4280 2.5525 -2.0339 0.9839
1.9304 2.9469 -2.0340 0.9839
1.3702 3.2455 -2.0339 0.9839
0.4524 3.4937 -2.0339 0.9839
0.1358 3.5203 -2.0339 0.9839
-0.1820 3.5181 -2.0339 0.9839
