ply
format ascii 1.0
element vertex 181
property float32 x
property float32 y
property float32 z
property float32 I
end_header
2.8544 18.8453 3.3608 0.9255
2.6939 17.7858 2.7558 0.9298
1.1608 18.5686 2.8502 0.9275
2.6676 17.6123 1.9128 0.9308
2.6727 17.6461 0.7037 0.9310
2.7181 17.9457 0.3066 0.9300
2.9313 19.3534 -0.1102 0.9247
14.7821 8.8929 -1.2649 0.9332
-1.5399 7.5487 -0.7396 0.9695
15.9911 6.1255 -2.0341 0.9333
15.3917 7.5055 -2.0341 0.9333
14.6736 8.8276 -2.0341 0.9333
12.9039 11.2577 -2.0341 0.9333
11.8659 12.3469 -2.0341 0.9333
9.5240 14.2316 -2.0341 0.9333
5.4857 16.2219 -2.0341 0.9333
4.0407 16.6407 -2.0341 0.9333
2.5645 16.9311 -2.0341 0.9333
1.0684 17.0907 -2.0341 0.9333
-0.8522 7.4866 -0.8950 0.9701
12.9035 6.2922 -2.0341 0.9437
9.0007 11.1841 -2.0341 0.9437
7.9843 11.9310 -2.0341 0.9437
4.5989 13.5994 -2.0341 0.9437
3.3875 13.9506 -2.0341 0.9437
2.1499 14.1940 -2.0341 0.9437
0.8957 14.3279 -2.0341 0.9437
-0.3654 14.3511 -2.0341 0.9437
-1.4671 7.1922 -1.0401 0.9708
11.0979 5.4117 -2.0341 0.9512
9.9806 7.2691 -2.0341 0.9512
9.3041 8.1171 -2.0341 0.9512
2.9135 11.9985 -2.0341 0.9512
-0.3143 12.3430 -2.0340 0.9512
-0.8454 7.4264 -1.2313 0.9702
-1.4943 7.3250 -1.2316 0.9701
10.1055 3.8710 -2.0340 0.9569
9.2729 5.5786 -2.0340 0.9569
8.1545 7.1142 -2.0340 0.9569
5.2059 9.4872 -2.0341 0.9569
4.3531 9.9075 -2.0340 0.9569
3.4667 10.2513 -2.0340 0.9569
1.6206 10.6995 -2.0340 0.9569
0.6752 10.8004 -2.0340 0.9569
-0.8287 7.2799 -1.3772 0.9706
-1.4735 7.2234 -1.3857 0.9704
8.9859 3.4421 -2.0340 0.9614
6.0330 7.4965 -2.0340 0.9614
4.6291 8.4360 -2.0340 0.9614
3.0826 9.1155 -2.0340 0.9614
1.4410 9.5140 -2.0340 0.9614
0.6004 9.6038 -2.0340 0.9614
-0.8328 7.3158 -1.5564 0.9703
-1.4518 7.1167 -1.5353 0.9707
6.9957 5.0952 -2.0340 0.9651
6.5216 5.6896 -2.0340 0.9651
5.9970 6.2400 -2.0340 0.9651
5.4261 6.7423 -2.0340 0.9651
4.8134 7.1926 -2.0340 0.9651
3.4814 7.9235 -2.0340 0.9651
2.7725 8.1985 -2.0340 0.9651
1.2961 8.5569 -2.0340 0.9651
-1.5024 7.3648 -1.7665 0.9696
6.7315 4.0496 -2.0340 0.9681
5.9196 5.1644 -2.0340 0.9681
4.9253 6.1200 -2.0340 0.9681
4.3691 6.5287 -2.0340 0.9681
1.8537 7.6339 -2.0340 0.9681
1.1764 7.7672 -2.0340 0.9681
-0.8428 7.4040 -1.9294 0.9697
-1.5702 7.6971 -2.0340 0.9681
6.1566 3.7038 -2.0340 0.9706
5.4141 4.7234 -2.0340 0.9706
4.5047 5.5974 -2.0340 0.9706
3.9960 5.9712 -2.0340 0.9706
3.4564 6.2989 -2.0340 0.9706
2.3016 6.8062 -2.0340 0.9706
0.4482 7.1708 -2.0340 0.9706
-0.1829 7.1825 -2.0340 0.9706
6.1753 2.3655 -2.0340 0.9727
5.9439 2.8984 -2.0340 0.9727
4.5823 4.7680 -2.0340 0.9727
4.1461 5.1518 -2.0340 0.9727
3.1812 5.7974 -2.0340 0.9727
2.6601 6.0543 -2.0340 0.9727
1.5604 6.4262 -2.0340 0.9727
0.4126 6.6000 -2.0340 0.9727
-0.1683 6.6107 -2.0340 0.9727
-1.3218 6.4794 -2.0340 0.9727
5.7141 2.1888 -2.0340 0.9745
5.4999 2.6819 -2.0340 0.9745
5.2432 3.1543 -2.0340 0.9745
4.6109 4.0226 -2.0340 0.9745
4.2400 4.4118 -2.0340 0.9745
3.8364 4.7670 -2.0340 0.9745
3.4032 5.0853 -2.0340 0.9745
1.9602 5.7965 -2.0340 0.9745
0.9163 6.0499 -2.0340 0.9745
0.3818 6.1070 -2.0340 0.9745
-0.1557 6.1170 -2.0340 0.9745
-0.6921 6.0796 -2.0340 0.9745
5.3114 2.0346 -2.0340 0.9761
3.9412 4.1009 -2.0340 0.9761
3.5660 4.4310 -2.0340 0.9761
2.2879 5.2073 -2.0340 0.9761
1.8220 5.3880 -2.0340 0.9761
1.3421 5.5271 -2.0340 0.9761
0.3548 5.6766 -2.0340 0.9761
-0.1447 5.6859 -2.0340 0.9761
4.9564 1.8986 -2.0340 0.9775
4.7707 2.3263 -2.0340 0.9775
3.3277 4.1349 -2.0340 0.9775
1.7003 5.0279 -2.0340 0.9775
1.2524 5.1577 -2.0340 0.9775
0.7948 5.2477 -2.0340 0.9775
0.3312 5.2972 -2.0340 0.9775
-0.6003 5.2735 -2.0340 0.9775
4.6408 1.7777 -2.0340 0.9787
4.4669 2.1782 -2.0340 0.9787
2.7639 4.1302 -2.0340 0.9787
1.9991 4.5499 -2.0340 0.9787
1.1727 4.8293 -2.0340 0.9787
0.7442 4.9136 -2.0340 0.9787
0.3100 4.9600 -2.0340 0.9787
-0.1265 4.9680 -2.0340 0.9787
-0.5621 4.9377 -2.0340 0.9788
-0.9933 4.8693 -2.0339 0.9788
4.3582 1.6694 -2.0340 0.9798
3.7725 2.7476 -2.0340 0.9798
2.5956 3.8786 -2.0340 0.9798
2.2452 4.0915 -2.0340 0.9798
1.8773 4.2728 -2.0340 0.9798
1.4951 4.4210 -2.0340 0.9798
-0.1188 4.6654 -2.0340 0.9798
-0.9328 4.5728 -2.0339 0.9798
3.9495 1.9259 -2.0340 0.9808
3.7652 2.2652 -2.0340 0.9808
3.5519 2.5869 -2.0340 0.9808
3.0448 3.1682 -2.0340 0.9808
2.7549 3.4232 -2.0340 0.9808
0.6580 4.3445 -2.0340 0.9808
-0.1118 4.3926 -2.0339 0.9808
-0.4970 4.3659 -2.0339 0.9808
-0.8783 4.3054 -2.0339 0.9808
3.8721 1.4832 -2.0340 0.9817
2.8732 2.9896 -2.0340 0.9817
2.3061 3.4461 -2.0340 0.9817
1.9948 3.6352 -2.0340 0.9817
0.9784 4.0294 -2.0340 0.9817
0.2587 4.1384 -2.0339 0.9817
-0.8287 4.0628 -2.0339 0.9817
3.6612 1.4025 -2.0339 0.9825
3.5240 1.7184 -2.0340 0.9825
2.9543 2.5775 -2.0340 0.9825
2.7168 2.8268 -2.0340 0.9825
1.8861 3.4372 -2.0340 0.9825
-0.0998 3.9193 -2.0339 0.9825
-0.4434 3.8954 -2.0339 0.9825
3.4679 1.3284 -2.0339 0.9832
3.3379 1.6277 -2.0339 0.9832
3.1821 1.9144 -2.0339 0.9832
3.0018 2.1863 -2.0340 0.9832
2.7984 2.4413 -2.0340 0.9832
2.3283 2.8931 -2.0340 0.9832
1.4938 3.3999 -2.0340 0.9832
1.1896 3.5179 -2.0340 0.9832
0.5561 3.6717 -2.0339 0.9832
-0.0945 3.7124 -2.0339 0.9832
-0.4200 3.6897 -2.0339 0.9832
-0.7422 3.6386 -2.0339 0.9832
1.7164 0.6574 -1.0612 0.9915
3.0187 1.8161 -2.0339 0.9839
2.6546 2.3160 -2.0339 0.9839
1.9593 2.9278 -2.0340 0.9839
1.6948 3.0885 -2.0339 0.9839
1.4171 3.2253 -2.0339 0.9839
1.1286 3.3372 -2.0339 0.9839
0.8313 3.4234 -2.0339 0.9839
0.5275 3.4832 -2.0339 0.9839
-0.3984 3.5002 -2.0339 0.9839
-0.7041 3.4518 -2.0339 0.9839
