ply
format ascii 1.0
element vertex 171
property float32 x
property float32 y
property float32 z
property float32 I
end_header
-11.7511 13.0792 3.1003 0.9311
-11.2523 12.5241 2.1925 0.9343
-11.3748 12.6603 1.8276 0.9338
-12.8775 12.0168 1.8914 0.9316
-11.7339 13.0600 1.4863 0.9319
-12.7707 11.9173 1.4787 0.9323
-12.1226 13.4927 1.1248 0.9299
-16.5061 5.3033 -0.8792 0.9329
-16.4137 5.2736 -1.2641 0.9332
-0.8942 7.6730 -0.7416 0.9694
-0.4797 17.1172 -2.0341 0.9333
-1.5377 7.4326 -0.9016 0.9699
-2.2057 7.3378 -0.9102 0.9696
-6.3512 15.9020 -2.0340 0.9333
-10.2802 13.6935 -2.0340 0.9334
-11.4437 12.7370 -2.0339 0.9334
-13.4966 10.5365 -2.0339 0.9334
-15.1325 8.0106 -2.0339 0.9334
-15.7779 6.6497 -2.0338 0.9334
-16.9658 2.3025 -2.0338 0.9334
-0.4022 14.3501 -2.0341 0.9437
-1.4887 7.1959 -1.0412 0.9707
-2.2130 7.3621 -1.0892 0.9694
-6.4755 12.8118 -2.0340 0.9437
-9.5938 10.6781 -2.0339 0.9437
-12.0473 7.8047 -2.0339 0.9437
-13.2275 5.5748 -2.0338 0.9437
-0.3459 12.3421 -2.0340 0.9512
-0.8661 7.4318 -1.2326 0.9701
-1.4982 7.2415 -1.2182 0.9705
-4.5795 11.4660 -2.0340 0.9512
-5.5694 11.0191 -2.0340 0.9512
-6.5162 10.4870 -2.0340 0.9512
-8.2515 9.1840 -2.0339 0.9512
-9.0266 8.4233 -2.0339 0.9512
-1.5035 7.2676 -1.3950 0.9702
-4.8813 9.6577 -2.0340 0.9569
-7.2320 8.0494 -2.0339 0.9569
-7.9114 7.3826 -2.0339 0.9569
-9.0816 5.8834 -2.0339 0.9569
-10.7222 1.4552 -2.0338 0.9569
-0.2696 9.6187 -2.0340 0.9614
-1.4738 7.1236 -1.5377 0.9707
-2.0884 6.9478 -1.5335 0.9708
-3.5690 8.9360 -2.0340 0.9614
-6.4308 7.1575 -2.0339 0.9614
-7.5845 5.9210 -2.0339 0.9614
-8.0754 5.2316 -2.0339 0.9614
-8.8665 3.7369 -2.0339 0.9614
-1.5422 7.4543 -1.7890 0.9692
-2.1745 7.2339 -1.7753 0.9694
-3.2100 8.0370 -2.0340 0.9651
-5.7838 6.4375 -2.0339 0.9651
-7.9746 3.3610 -2.0339 0.9651
-1.5915 7.6928 -2.0340 0.9681
-2.9137 7.2953 -2.0340 0.9681
-3.5436 7.0110 -2.0339 0.9681
-4.1459 6.6724 -2.0339 0.9681
-4.7162 6.2822 -2.0339 0.9681
-5.2500 5.8434 -2.0339 0.9681
-5.7432 5.3594 -2.0339 0.9681
-6.1920 4.8339 -2.0339 0.9681
-6.5928 4.2710 -2.0339 0.9681
-6.9425 3.6751 -2.0339 0.9681
-7.2386 3.0508 -2.0339 0.9681
-7.4787 2.4029 -2.0339 0.9681
-7.6609 1.7363 -2.0339 0.9681
-7.7839 1.0563 -2.0338 0.9681
-0.2013 7.1820 -2.0340 0.9706
-1.4556 7.0358 -2.0340 0.9706
-3.7919 6.1026 -2.0339 0.9706
-4.8017 5.3444 -2.0339 0.9706
-6.0298 3.9063 -2.0339 0.9706
-6.3496 3.3613 -2.0339 0.9706
-6.6205 2.7903 -2.0339 0.9706
-6.8400 2.1977 -2.0339 0.9706
-0.1853 6.6102 -2.0340 0.9727
-0.7654 6.5684 -2.0340 0.9727
-3.4900 5.6168 -2.0339 0.9727
-3.9701 5.2883 -2.0339 0.9727
-4.4195 4.9189 -2.0339 0.9727
-5.2123 4.0692 -2.0339 0.9727
-5.5498 3.5954 -2.0339 0.9727
-6.2955 2.0227 -2.0339 0.9727
-6.5524 0.8892 -2.0339 0.9727
-0.1714 6.1165 -2.0340 0.9745
-0.7083 6.0778 -2.0340 0.9745
-1.7614 5.8599 -2.0340 0.9745
-3.2293 5.1972 -2.0339 0.9745
-4.8231 3.7653 -2.0339 0.9745
-5.9672 1.3525 -2.0339 0.9745
-6.0630 0.8228 -2.0339 0.9745
-0.1593 5.6854 -2.0340 0.9761
-1.1523 5.5697 -2.0340 0.9761
-2.1096 5.2819 -2.0339 0.9761
-2.5656 5.0761 -2.0339 0.9761
-3.0018 4.8310 -2.0339 0.9761
-3.4146 4.5485 -2.0339 0.9761
-4.1582 3.8803 -2.0339 0.9761
-4.4832 3.4999 -2.0339 0.9761
-0.1487 5.3054 -2.0340 0.9775
-0.6143 5.2719 -2.0340 0.9775
-2.3942 4.7368 -2.0339 0.9775
-2.8011 4.5081 -2.0339 0.9775
-3.5471 3.9480 -2.0339 0.9775
-4.4544 2.8857 -2.0339 0.9775
-4.8907 2.0612 -2.0339 0.9775
-5.0529 1.6235 -2.0339 0.9775
-5.1761 1.1731 -2.0339 0.9775
-5.2591 0.7137 -2.0339 0.9775
-0.1392 4.9677 -2.0340 0.9787
-2.6228 4.2211 -2.0339 0.9788
-3.9172 3.0581 -2.0339 0.9788
-4.1707 2.7020 -2.0339 0.9788
-4.3921 2.3250 -2.0339 0.9788
-4.5793 1.9300 -2.0339 0.9788
-2.1198 0.4804 -0.8896 0.9906
-2.4630 3.9640 -2.0339 0.9798
-3.1190 3.4715 -2.0339 0.9798
-3.6786 2.8718 -2.0339 0.9798
-3.9168 2.5374 -2.0339 0.9798
-4.3005 1.8125 -2.0339 0.9798
-1.9019 0.4310 -0.8499 0.9915
-1.9018 0.2581 -0.8365 0.9917
-0.1231 4.3923 -2.0339 0.9808
-1.2649 4.2080 -2.0339 0.9808
-1.6298 4.0806 -2.0339 0.9808
-1.9821 3.9216 -2.0339 0.9808
-2.3190 3.7322 -2.0339 0.9808
-2.6380 3.5140 -2.0339 0.9808
-3.2125 2.9978 -2.0339 0.9808
-3.6877 2.3890 -2.0339 0.9808
-3.8834 2.0557 -2.0339 0.9808
-1.1936 3.9709 -2.0339 0.9817
-1.5380 3.8507 -2.0339 0.9817
-1.8704 3.7006 -2.0339 0.9817
-2.4894 3.3160 -2.0339 0.9817
-2.7711 3.0844 -2.0339 0.9817
-3.0315 2.8289 -2.0339 0.9817
-3.2683 2.5515 -2.0339 0.9817
-3.4799 2.2544 -2.0339 0.9817
-3.8209 1.6103 -2.0339 0.9817
-1.3259 0.3005 -0.6669 0.9940
-1.3506 0.1833 -0.6686 0.9939
-0.1098 3.9191 -2.0339 0.9825
-0.4538 3.8943 -2.0339 0.9825
-1.7685 3.4990 -2.0339 0.9825
-2.0692 3.3301 -2.0339 0.9825
-2.3538 3.1353 -2.0339 0.9825
-2.6202 2.9164 -2.0339 0.9825
-2.8664 2.6748 -2.0339 0.9825
-1.1141 0.4695 -0.6272 0.9946
-1.1727 0.2658 -0.6238 0.9946
-1.6751 3.3142 -2.0339 0.9832
-1.9599 3.1542 -2.0339 0.9832
-2.7150 2.5335 -2.0339 0.9832
-3.1166 2.0191 -2.0339 0.9832
-1.0066 0.4242 -0.5983 0.9950
-1.0518 0.2384 -0.5907 0.9951
-1.0745 0.1458 -0.5939 0.9951
-0.0987 3.5215 -2.0339 0.9839
-0.4078 3.4992 -2.0339 0.9839
-0.7137 3.4498 -2.0339 0.9839
-1.0141 3.3737 -2.0339 0.9839
-1.3066 3.2716 -2.0339 0.9839
-2.3544 2.6205 -2.0339 0.9839
-2.7768 2.1678 -2.0339 0.9839
-2.9566 1.9154 -2.0339 0.9839
-0.9046 0.4788 -0.5909 0.9953
-0.9532 0.3062 -0.5780 0.9954
-0.9695 0.2197 -0.5739 0.9954
