ply
format ascii 1.0
element vertex 191
property float32 x
property float32 y
property float32 z
property float32 I
end_header
-12.4460 13.0998 3.1861 0.9292
-11.4247 12.0248 1.7811 0.9354
-11.4384 12.0391 1.4058 0.9355
-17.6382 5.0363 -0.9303 0.9292
-1.7489 7.5725 -0.5699 0.9693
-17.2725 4.9319 -1.3171 0.9305
-1.7027 7.3727 -0.7264 0.9701
-1.6968 7.3471 -0.8957 0.9701
-5.3177 16.2769 -2.0340 0.9333
-8.1098 15.0810 -2.0340 0.9334
-10.6465 13.4106 -2.0340 0.9334
-13.8012 10.1340 -2.0339 0.9334
-14.6456 8.8700 -2.0339 0.9334
-16.8155 3.2222 -2.0338 0.9334
-16.8858 -2.8275 -2.0337 0.9334
-1.6827 7.2861 -1.0595 0.9702
-5.6507 13.1964 -2.0340 0.9437
-6.7988 12.6431 -2.0340 0.9437
-9.8874 10.4068 -2.0339 0.9437
-11.5704 8.4960 -2.0339 0.9437
-12.2782 7.4362 -2.0339 0.9437
-12.8892 6.3179 -2.0339 0.9437
-13.3987 5.1497 -2.0338 0.9437
-13.8025 3.9411 -2.0338 0.9437
-14.0975 2.7014 -2.0338 0.9437
-14.3528 0.1681 -2.0338 0.9437
-1.6440 7.1185 -1.2036 0.9708
-7.6767 9.6697 -2.0339 0.9512
-11.0858 5.4339 -2.0339 0.9512
-11.5239 4.4292 -2.0339 0.9512
-11.8713 3.3897 -2.0338 0.9512
-12.1251 2.3234 -2.0338 0.9512
-12.1759 -2.0388 -2.0338 0.9512
-5.1251 9.5306 -2.0340 0.9569
-5.9501 9.0384 -2.0340 0.9569
-6.7282 8.4750 -2.0339 0.9569
-8.1197 7.1528 -2.0339 0.9569
-9.2556 5.6056 -2.0339 0.9569
-10.4047 2.9709 -2.0338 0.9569
-10.7658 1.0858 -2.0338 0.9569
-10.8196 0.1267 -2.0338 0.9569
-10.7882 -0.8334 -2.0338 0.9569
-1.6723 7.2408 -1.5708 0.9701
-3.7877 8.8455 -2.0340 0.9614
-5.2909 8.0370 -2.0339 0.9614
-5.9828 7.5361 -2.0339 0.9614
-6.6275 6.9757 -2.0339 0.9614
-8.6398 4.2349 -2.0339 0.9614
-8.9813 3.4520 -2.0339 0.9614
-9.2520 2.6418 -2.0339 0.9614
-9.4498 1.8108 -2.0338 0.9614
-9.6209 0.1127 -2.0338 0.9614
-9.5930 -0.7411 -2.0338 0.9614
-1.6762 7.2579 -1.7507 0.9699
-2.4148 7.3914 -1.8275 0.9686
-4.0988 7.6221 -2.0340 0.9651
-4.7586 7.2285 -2.0339 0.9651
-5.3809 6.7779 -2.0339 0.9651
-5.9608 6.2739 -2.0339 0.9651
-6.9755 5.1220 -2.0339 0.9651
-8.0778 3.1047 -2.0339 0.9651
-8.6101 0.8684 -2.0338 0.9651
-8.6531 0.1013 -2.0338 0.9651
-8.6280 -0.6665 -2.0338 0.9651
-1.7677 7.6542 -2.0340 0.9681
-2.4396 7.4672 -2.0340 0.9681
-3.0922 7.2214 -2.0340 0.9681
-4.8843 6.1524 -2.0339 0.9681
-5.4107 5.6949 -2.0339 0.9681
-5.8945 5.1926 -2.0339 0.9681
-6.3317 4.6493 -2.0339 0.9681
-6.7191 4.0694 -2.0339 0.9681
-7.0535 3.4574 -2.0339 0.9681
-7.5534 2.1567 -2.0339 0.9681
-7.8155 0.7882 -2.0338 0.9681
-7.8545 0.0920 -2.0338 0.9681
-7.8318 -0.6050 -2.0338 0.9681
-7.7472 -1.2972 -2.0338 0.9681
-1.6168 7.0005 -2.0340 0.9706
-2.8282 6.6047 -2.0340 0.9706
-3.9506 6.0011 -2.0339 0.9706
-4.9486 5.2086 -2.0339 0.9706
-5.3911 4.7491 -2.0339 0.9706
-6.1453 3.7219 -2.0339 0.9706
-6.7062 2.5775 -2.0339 0.9706
-6.9083 1.9726 -2.0339 0.9706
-7.1839 0.0841 -2.0338 0.9706
-7.1630 -0.5534 -2.0338 0.9706
-7.0857 -1.1865 -2.0338 0.9706
-1.4880 6.4432 -2.0340 0.9727
-2.0536 6.2858 -2.0340 0.9727
-2.6030 6.0789 -2.0339 0.9727
-3.6361 5.5233 -2.0339 0.9727
-4.1116 5.1790 -2.0339 0.9727
-4.9620 4.3711 -2.0339 0.9727
-5.6561 3.4256 -2.0339 0.9727
-5.9376 2.9104 -2.0339 0.9727
-6.3584 1.8155 -2.0339 0.9727
-6.5928 -0.5093 -2.0338 0.9727
-1.3769 5.9620 -2.0340 0.9745
-1.9002 5.8163 -2.0339 0.9745
-2.8980 5.3890 -2.0339 0.9745
-3.3645 5.1108 -2.0339 0.9745
-4.5913 4.0446 -2.0339 0.9745
-4.9319 3.6214 -2.0339 0.9745
-5.2336 3.1697 -2.0339 0.9745
-5.7113 2.1951 -2.0339 0.9745
-6.0877 0.6140 -2.0339 0.9745
-6.1004 -0.4713 -2.0338 0.9745
-6.0345 -1.0105 -2.0338 0.9745
-1.2798 5.5418 -2.0340 0.9761
-2.2388 5.2284 -2.0339 0.9761
-2.6937 5.0093 -2.0339 0.9761
-4.2678 3.7596 -2.0339 0.9761
-4.8648 2.9463 -2.0339 0.9761
-5.3088 2.0404 -2.0339 0.9761
-5.6587 0.5707 -2.0339 0.9761
-5.6870 0.0666 -2.0339 0.9761
-1.1943 5.1714 -2.0339 0.9775
-1.6482 5.0451 -2.0339 0.9775
-2.5137 4.6745 -2.0339 0.9775
-3.3000 4.1568 -2.0339 0.9775
-3.9825 3.5083 -2.0339 0.9775
-4.5397 2.7494 -2.0339 0.9775
-5.1034 1.4572 -2.0339 0.9775
-5.3069 0.0621 -2.0339 0.9775
-5.2915 -0.4088 -2.0339 0.9775
-5.2344 -0.8765 -2.0338 0.9775
-1.5433 4.7239 -2.0339 0.9788
-1.9562 4.5684 -2.0339 0.9788
-3.0900 3.8922 -2.0339 0.9788
-3.7289 3.2849 -2.0339 0.9788
-4.0056 2.9413 -2.0339 0.9788
-4.4623 2.1872 -2.0339 0.9788
-2.1220 0.0248 -0.8686 0.9909
-2.1191 -0.1637 -0.8699 0.9909
-2.1173 -0.3546 -0.8786 0.9908
-1.4493 4.4362 -2.0339 0.9798
-1.8371 4.2901 -2.0339 0.9798
-2.2103 4.1103 -2.0339 0.9798
-2.9018 3.6551 -2.0339 0.9798
-3.5019 3.0849 -2.0339 0.9798
-3.9918 2.4176 -2.0339 0.9798
-4.3561 1.6743 -2.0339 0.9798
-1.9050 0.3650 -0.8453 0.9916
-1.9105 0.1927 -0.8369 0.9917
-1.9186 0.0224 -0.8362 0.9917
-0.9887 4.2813 -2.0339 0.9808
-2.0811 3.8699 -2.0339 0.9808
-2.7321 3.4414 -2.0339 0.9808
-3.0265 3.1855 -2.0339 0.9808
-3.5417 2.6006 -2.0339 0.9808
-1.5498 0.4425 -0.7461 0.9929
-1.6039 0.3073 -0.7559 0.9928
-1.5727 0.0184 -0.7280 0.9931
-1.6112 -0.2698 -0.7562 0.9928
-0.9330 4.0401 -2.0339 0.9817
-1.9638 3.6519 -2.0339 0.9817
-2.5781 3.2475 -2.0339 0.9817
-1.3527 -0.1045 -0.6655 0.9940
-1.8568 3.4530 -2.0339 0.9825
-2.1557 3.2747 -2.0339 0.9825
-2.4377 3.0706 -2.0339 0.9825
-2.7004 2.8422 -2.0339 0.9825
-3.1601 2.3204 -2.0339 0.9825
-3.5204 1.7256 -2.0339 0.9825
-1.1259 0.4327 -0.6257 0.9946
-1.2004 -0.0928 -0.6246 0.9946
-1.1532 3.5299 -2.0339 0.9832
-1.7587 3.2706 -2.0339 0.9832
-2.0419 3.1017 -2.0339 0.9832
-2.3090 2.9084 -2.0339 0.9832
-2.7865 2.4547 -2.0339 0.9832
-2.9932 2.1979 -2.0339 0.9832
-0.9855 0.4830 -0.6012 0.9950
-1.0623 0.2035 -0.5924 0.9951
-1.0774 0.0126 -0.5902 0.9951
-1.0808 -0.0835 -0.5937 0.9951
-0.7927 3.4325 -2.0339 0.9839
-1.0940 3.3487 -2.0339 0.9839
-1.9371 2.9425 -2.0339 0.9839
-2.1904 2.7591 -2.0339 0.9839
-2.6434 2.3287 -2.0339 0.9839
-2.8395 2.0850 -2.0339 0.9839
-3.0132 1.8250 -2.0339 0.9839
-0.9416 0.3619 -0.5824 0.9954
-0.9580 0.2735 -0.5752 0.9954
-0.9764 0.1871 -0.5740 0.9954
-0.9895 0.0115 -0.5713 0.9954
-0.9893 -0.0765 -0.5729 0.9954
-0.9805 -0.1642 -0.5739 0.9954
