ply
format ascii 1.0
element vertex 208
property float32 x
property float32 y
property float32 z
property float32 I
end_header
-8.9941 -14.5675 -2.0337 0.9334
-6.3326 -15.9062 -2.0337 0.9334
-4.9246 -16.3970 -2.0337 0.9334
-2.0074 -17.0026 -2.0337 0.9334
0.9706 -17.0933 -2.0337 0.9334
2.4542 -16.9442 -2.0337 0.9334
2.6007 -6.0632 -0.7837 0.9738
11.7172 -12.4849 -2.0339 0.9334
13.7045 -10.2648 -2.0339 0.9334
14.5458 -9.0335 -2.0339 0.9334
-5.3090 -13.3354 -2.0337 0.9437
-4.1286 -13.7468 -2.0337 0.9437
-1.6829 -14.2544 -2.0337 0.9437
-0.4363 -14.3469 -2.0337 0.9437
2.0576 -14.2054 -2.0338 0.9437
2.0370 -6.1867 -0.9229 0.9740
8.8752 -11.2818 -2.0339 0.9437
9.8232 -10.4668 -2.0339 0.9437
10.6968 -9.5725 -2.0339 0.9437
11.4892 -8.6055 -2.0339 0.9437
12.1945 -7.5733 -2.0339 0.9437
-6.4855 -10.5043 -2.0337 0.9512
-5.5469 -11.0288 -2.0337 0.9512
-4.5662 -11.4696 -2.0337 0.9512
1.5193 -6.4607 -1.0934 0.9735
1.9802 -6.0139 -1.0431 0.9747
2.5367 -5.9139 -1.0601 0.9743
3.1826 -5.9335 -1.1092 0.9731
6.7601 -10.3306 -2.0338 0.9512
7.6334 -9.7033 -2.0339 0.9512
8.4487 -9.0024 -2.0339 0.9512
9.2001 -8.2331 -2.0339 0.9512
9.8817 -7.4014 -2.0339 0.9512
-5.6843 -9.2067 -2.0337 0.9569
-4.8617 -9.6664 -2.0338 0.9569
-4.0022 -10.0527 -2.0338 0.9569
-3.1123 -10.3629 -2.0338 0.9569
-2.1988 -10.5944 -2.0338 0.9569
1.9593 -5.9506 -1.1775 0.9748
2.5198 -5.8744 -1.2014 0.9743
3.1175 -5.8122 -1.2397 0.9735
6.6904 -8.5045 -2.0339 0.9569
7.4050 -7.8902 -2.0339 0.9569
8.6608 -6.4871 -2.0339 0.9569
9.1925 -5.7089 -2.0339 0.9569
-5.0546 -8.1867 -2.0338 0.9614
-4.3230 -8.5954 -2.0338 0.9614
-1.1281 -9.5551 -2.0338 0.9614
1.3792 -9.5222 -2.0338 0.9614
2.4987 -5.8254 -1.3399 0.9744
3.0862 -5.7537 -1.3801 0.9737
5.9491 -7.5623 -2.0339 0.9614
6.5846 -7.0160 -2.0339 0.9614
8.1741 -5.0764 -2.0339 0.9614
-4.5461 -7.3632 -2.0338 0.9651
-3.8882 -7.7308 -2.0338 0.9651
-3.2008 -8.0398 -2.0338 0.9651
-2.4891 -8.2879 -2.0338 0.9651
-1.7586 -8.4730 -2.0338 0.9651
0.4906 -8.6398 -2.0338 0.9651
1.4589 -6.2043 -1.4979 0.9742
2.4937 -5.8138 -1.4868 0.9743
5.3506 -6.8016 -2.0339 0.9651
5.9222 -6.3102 -2.0339 0.9651
6.4488 -5.7710 -2.0339 0.9651
7.3517 -4.5657 -2.0339 0.9651
-3.5295 -7.0174 -2.0338 0.9681
-1.5962 -7.6911 -2.0338 0.9681
-0.9210 -7.8009 -2.0338 0.9681
1.1260 -7.7740 -2.0338 0.9681
4.8568 -6.1739 -2.0339 0.9681
-3.7742 -6.1130 -2.0338 0.9706
-2.6573 -6.6747 -2.0338 0.9706
-2.0665 -6.8806 -2.0338 0.9706
-0.8423 -7.1347 -2.0338 0.9706
-0.2184 -7.1810 -2.0338 0.9706
0.4073 -7.1728 -2.0338 0.9706
1.0298 -7.1101 -2.0338 0.9706
3.3634 -6.2707 -2.0144 0.9709
3.9339 -6.0117 -2.0339 0.9706
4.4421 -5.6466 -2.0339 0.9706
4.9166 -5.2387 -2.0339 0.9706
5.7504 -4.3071 -2.0339 0.9706
6.1034 -3.7904 -2.0339 0.9706
-3.4738 -5.6263 -2.0338 0.9727
-2.9711 -5.9073 -2.0338 0.9727
-2.4458 -6.1434 -2.0338 0.9727
-1.9020 -6.3329 -2.0338 0.9727
-1.3437 -6.4744 -2.0338 0.9727
-0.7753 -6.5668 -2.0338 0.9727
1.4788 -6.2884 -1.9869 0.9733
4.0885 -5.1972 -2.0339 0.9727
4.9276 -4.4097 -2.0339 0.9727
5.6175 -3.4887 -2.0339 0.9727
-3.2144 -5.2061 -2.0338 0.9745
-2.7492 -5.4661 -2.0338 0.9745
-2.2631 -5.6846 -2.0338 0.9745
-1.2434 -5.9908 -2.0338 0.9745
1.9136 -5.8117 -2.0339 0.9745
2.8921 -5.3920 -2.0339 0.9745
3.7831 -4.8089 -2.0339 0.9745
5.1979 -3.2281 -2.0339 0.9745
-2.5554 -5.0809 -2.0338 0.9761
-2.1037 -5.2840 -2.0338 0.9761
-0.6669 -5.6481 -2.0338 0.9761
-0.1729 -5.6847 -2.0338 0.9761
0.8152 -5.6287 -2.0338 0.9761
1.3019 -5.5364 -2.0338 0.9761
1.7787 -5.4021 -2.0339 0.9761
3.8921 -4.1471 -2.0339 0.9761
4.2382 -3.7928 -2.0339 0.9761
4.8316 -3.0006 -2.0339 0.9761
-2.7882 -4.5158 -2.0338 0.9775
-2.3847 -4.7413 -2.0338 0.9775
-1.9630 -4.9309 -2.0338 0.9775
-1.5266 -5.0830 -2.0338 0.9775
-1.0785 -5.1965 -2.0338 0.9775
-0.6223 -5.2707 -2.0338 0.9775
-0.1613 -5.3048 -2.0338 0.9775
0.3009 -5.2987 -2.0338 0.9775
0.7607 -5.2525 -2.0338 0.9775
1.2149 -5.1664 -2.0339 0.9775
2.0921 -4.8776 -2.0339 0.9775
3.9550 -3.5393 -2.0339 0.9775
4.2480 -3.1818 -2.0339 0.9775
-1.0099 -4.8657 -2.0338 0.9788
0.2817 -4.9614 -2.0338 0.9788
0.7123 -4.9181 -2.0339 0.9788
2.3489 -4.3793 -2.0339 0.9788
2.7211 -4.1583 -2.0339 0.9788
3.0726 -3.9057 -2.0339 0.9788
3.4008 -3.6236 -2.0339 0.9788
3.9775 -2.9792 -2.0339 0.9788
-2.4516 -3.9708 -2.0338 0.9798
-1.7262 -4.3358 -2.0338 0.9798
-1.3423 -4.4695 -2.0338 0.9798
-0.9484 -4.5694 -2.0338 0.9798
0.2646 -4.6593 -2.0339 0.9798
0.6689 -4.6186 -2.0339 0.9798
1.4595 -4.4327 -2.0339 0.9798
1.8397 -4.2889 -2.0339 0.9798
2.5554 -3.9050 -2.0339 0.9798
2.8854 -3.6679 -2.0339 0.9798
3.1937 -3.4029 -2.0339 0.9798
3.9646 -2.4622 -2.0339 0.9798
-2.3084 -3.7387 -2.0338 0.9808
-1.6252 -4.0822 -2.0338 0.9808
-1.2639 -4.2082 -2.0338 0.9808
-0.8929 -4.3022 -2.0338 0.9808
-0.5152 -4.3636 -2.0338 0.9808
-0.1336 -4.3918 -2.0339 0.9808
0.6298 -4.3485 -2.0339 0.9808
1.3742 -4.1735 -2.0339 0.9808
1.7321 -4.0381 -2.0339 0.9808
2.4059 -3.6767 -2.0339 0.9808
2.7167 -3.4534 -2.0339 0.9808
3.2743 -2.9302 -2.0339 0.9808
3.5168 -2.6342 -2.0339 0.9808
3.7328 -2.3181 -2.0339 0.9808
-1.8630 -3.7042 -2.0338 0.9817
-1.1927 -3.9711 -2.0338 0.9817
-0.8426 -4.0598 -2.0338 0.9817
-0.4862 -4.1177 -2.0339 0.9817
0.2350 -4.1396 -2.0339 0.9817
0.5943 -4.1035 -2.0339 0.9817
0.9491 -4.0362 -2.0339 0.9817
1.6345 -3.8106 -2.0339 0.9817
2.2704 -3.4695 -2.0339 0.9817
3.3187 -2.4857 -2.0339 0.9817
-1.7616 -3.5024 -2.0338 0.9825
-1.1277 -3.7548 -2.0338 0.9825
-0.1192 -3.9187 -2.0339 0.9825
0.2223 -3.9142 -2.0339 0.9825
1.5454 -3.6030 -2.0339 0.9825
1.8531 -3.4549 -2.0339 0.9825
2.6829 -2.8587 -2.0339 0.9825
2.9216 -2.6145 -2.0339 0.9825
3.1379 -2.3504 -2.0339 0.9825
3.3306 -2.0684 -2.0339 0.9825
-1.9509 -3.1597 -2.0338 0.9832
-1.6685 -3.3175 -2.0338 0.9832
-1.0681 -3.5565 -2.0339 0.9832
-0.7546 -3.6359 -2.0339 0.9832
-0.4354 -3.6878 -2.0339 0.9832
-0.1129 -3.7117 -2.0339 0.9832
0.2105 -3.7075 -2.0339 0.9832
0.5323 -3.6751 -2.0339 0.9832
1.1614 -3.5272 -2.0339 0.9832
1.4639 -3.4128 -2.0339 0.9832
1.7552 -3.2725 -2.0339 0.9832
2.0334 -3.1073 -2.0339 0.9832
2.2961 -2.9186 -2.0339 0.9832
2.5413 -2.7078 -2.0339 0.9832
2.7672 -2.4764 -2.0339 0.9832
2.9722 -2.2262 -2.0339 0.9832
-1.8507 -2.9975 -2.0339 0.9839
-1.3030 -3.2729 -2.0339 0.9839
-0.7159 -3.4493 -2.0339 0.9839
-0.4130 -3.4984 -2.0339 0.9839
-0.1071 -3.5211 -2.0339 0.9839
0.5050 -3.4864 -2.0339 0.9839
1.1017 -3.3461 -2.0339 0.9839
1.6652 -3.1044 -2.0339 0.9839
1.9289 -2.9478 -2.0339 0.9839
2.1782 -2.7687 -2.0339 0.9839
2.4108 -2.5687 -2.0339 0.9839
2.6252 -2.3493 -2.0339 0.9839
2.9927 -1.8586 -2.0339 0.9839
