ply
format ascii 1.0
element vertex 217
property float32 x
property float32 y
property float32 z
property float32 I
end_header
2.7516 18.8152 3.3529 0.9257
2.5734 17.5968 2.7244 0.9306
2.6392 18.0470 0.7192 0.9296
2.7231 18.6203 -0.5299 0.9275
14.7707 8.8953 -1.2643 0.9332
13.4991 9.8508 -1.2253 0.9352
2.7073 18.5130 -1.3719 0.9277
14.5859 8.7840 -1.6346 0.9339
13.1525 9.5979 -1.5632 0.9367
-0.9224 7.6592 -0.7406 0.9695
15.9939 6.1180 -2.0341 0.9333
14.6695 8.8344 -2.0341 0.9333
13.8328 10.0943 -2.0341 0.9333
11.8430 12.3689 -2.0341 0.9333
3.9634 16.6593 -2.0341 0.9333
-0.5393 17.1155 -2.0341 0.9333
14.1011 2.6921 -2.0341 0.9437
13.8086 3.9259 -2.0341 0.9437
13.4084 5.1290 -2.0341 0.9437
12.2981 7.4062 -2.0341 0.9437
11.5966 8.4625 -2.0341 0.9437
9.9285 10.3693 -2.0341 0.9437
7.9511 11.9531 -2.0341 0.9437
6.8654 12.6081 -2.0341 0.9437
5.7260 13.1647 -2.0341 0.9437
2.0773 14.2048 -2.0341 0.9437
0.8158 14.3326 -2.0341 0.9437
-0.4521 14.3487 -2.0341 0.9437
-0.8945 7.4273 -1.0600 0.9702
12.1279 2.3154 -2.0340 0.9512
11.8764 3.3765 -2.0340 0.9512
11.0980 5.4117 -2.0341 0.9512
10.5772 6.3698 -2.0341 0.9512
9.9739 7.2784 -2.0341 0.9512
9.2928 8.1301 -2.0341 0.9512
7.7189 9.6371 -2.0341 0.9512
6.8385 10.2805 -2.0341 0.9512
4.9248 11.3225 -2.0341 0.9512
2.8578 12.0119 -2.0341 0.9512
1.7867 12.2171 -2.0341 0.9512
0.7016 12.3271 -2.0340 0.9512
-0.3888 12.3409 -2.0340 0.9512
-0.8882 7.3761 -1.2239 0.9703
10.4091 2.9593 -2.0340 0.9569
10.1073 3.8663 -2.0340 0.9569
9.2703 5.5828 -2.0340 0.9569
8.7416 6.3791 -2.0340 0.9569
8.1446 7.1255 -2.0340 0.9569
7.4841 7.8164 -2.0341 0.9569
6.7652 8.4463 -2.0341 0.9569
5.9936 9.0103 -2.0341 0.9569
5.1751 9.5040 -2.0341 0.9569
4.3163 9.9236 -2.0340 0.9569
3.4238 10.2657 -2.0340 0.9569
2.5047 10.5278 -2.0340 0.9569
0.6150 10.8040 -2.0340 0.9569
-0.8816 7.3208 -1.3860 0.9704
9.4518 1.8045 -2.0340 0.9614
8.9875 3.4379 -2.0340 0.9614
8.2432 4.9643 -2.0340 0.9614
7.7730 5.6723 -2.0340 0.9614
7.2422 6.3360 -2.0340 0.9614
6.0156 7.5105 -2.0340 0.9614
4.6017 8.4510 -2.0340 0.9614
3.8380 8.8241 -2.0340 0.9614
3.0445 9.1283 -2.0340 0.9614
2.2271 9.3613 -2.0340 0.9614
1.3924 9.5213 -2.0340 0.9614
0.5468 9.6070 -2.0340 0.9614
8.3246 2.3667 -2.0340 0.9651
8.0833 3.0920 -2.0340 0.9651
7.7789 3.7932 -2.0340 0.9651
7.4139 4.4648 -2.0340 0.9651
6.5136 5.6986 -2.0340 0.9651
5.9854 6.2511 -2.0340 0.9651
4.7933 7.2059 -2.0340 0.9651
3.4520 7.9363 -2.0340 0.9651
2.7382 8.2100 -2.0340 0.9651
0.4918 8.6405 -2.0340 0.9651
-0.2725 8.6501 -2.0340 0.9651
7.5563 2.1483 -2.0340 0.9681
6.7297 4.0528 -2.0340 0.9681
6.3458 4.6308 -2.0340 0.9681
5.9125 5.1727 -2.0340 0.9681
4.3509 6.5409 -2.0340 0.9681
3.7568 6.8993 -2.0340 0.9681
3.1333 7.2039 -2.0340 0.9681
2.4854 7.4523 -2.0340 0.9681
1.8182 7.6425 -2.0340 0.9681
0.4464 7.8430 -2.0340 0.9681
-0.2474 7.8518 -2.0340 0.9681
7.0573 1.3473 -2.0340 0.9706
6.9110 1.9648 -2.0340 0.9706
6.7107 2.5670 -2.0340 0.9706
6.1550 3.7067 -2.0340 0.9706
5.8039 4.2353 -2.0340 0.9706
4.4917 5.6078 -2.0340 0.9706
2.8658 6.5887 -2.0340 0.9706
2.2732 6.8158 -2.0340 0.9706
1.0396 7.1093 -2.0340 0.9706
0.4083 7.1732 -2.0340 0.9706
-0.2262 7.1813 -2.0340 0.9706
6.4955 1.2401 -2.0340 0.9727
5.9439 2.8984 -2.0340 0.9727
5.6650 3.4116 -2.0340 0.9727
4.9770 4.3543 -2.0340 0.9727
4.1341 5.1614 -2.0340 0.9727
3.1624 5.8078 -2.0340 0.9727
2.0922 6.2732 -2.0340 0.9727
1.5305 6.4333 -2.0340 0.9727
0.9569 6.5433 -2.0340 0.9727
-0.2082 6.6096 -2.0340 0.9727
5.8857 1.6733 -2.0340 0.9745
5.4999 2.6819 -2.0340 0.9745
5.2418 3.1568 -2.0340 0.9745
4.9429 3.6070 -2.0340 0.9745
4.6053 4.0290 -2.0340 0.9745
4.2318 4.4197 -2.0340 0.9745
2.9262 5.3739 -2.0340 0.9745
0.8854 6.0546 -2.0340 0.9745
0.3477 6.1090 -2.0340 0.9745
-0.1927 6.1159 -2.0340 0.9745
-0.7316 6.0750 -2.0340 0.9745
5.4709 1.5554 -2.0340 0.9761
4.8724 2.9343 -2.0340 0.9761
4.5945 3.3528 -2.0340 0.9761
3.9336 4.1082 -2.0340 0.9761
3.5557 4.4393 -2.0340 0.9761
3.1501 4.7357 -2.0340 0.9761
2.7200 4.9952 -2.0340 0.9761
1.7995 5.3956 -2.0340 0.9761
0.8230 5.6278 -2.0340 0.9761
0.3232 5.6785 -2.0340 0.9761
-0.6800 5.6469 -2.0340 0.9761
5.1053 1.4514 -2.0340 0.9775
4.7707 2.3263 -2.0340 0.9775
4.5468 2.7381 -2.0340 0.9775
3.9946 3.4948 -2.0340 0.9775
2.9396 4.4192 -2.0340 0.9775
2.5382 4.6614 -2.0340 0.9775
2.1170 4.8671 -2.0340 0.9775
1.2284 5.1635 -2.0340 0.9775
-0.1671 5.3049 -2.0340 0.9775
-0.6346 5.2695 -2.0340 0.9775
4.7802 1.3590 -2.0340 0.9787
4.4669 2.1782 -2.0340 0.9787
3.1068 3.8788 -2.0340 0.9787
2.7525 4.1379 -2.0340 0.9787
2.3766 4.3646 -2.0340 0.9787
1.5723 4.7144 -2.0340 0.9787
1.1502 4.8347 -2.0340 0.9787
0.2824 4.9616 -2.0340 0.9787
-0.1565 4.9672 -2.0340 0.9787
4.5842 0.8752 -2.0339 0.9798
4.4891 1.2763 -2.0340 0.9798
4.1948 2.0455 -2.0340 0.9798
3.5125 3.0730 -2.0340 0.9798
2.9176 3.6426 -2.0340 0.9798
2.2318 4.0988 -2.0340 0.9798
1.8615 4.2797 -2.0340 0.9798
1.4766 4.4272 -2.0340 0.9798
-0.5580 4.6335 -2.0339 0.9798
4.2266 1.2016 -2.0340 0.9808
3.9496 1.9259 -2.0340 0.9808
3.7642 2.2669 -2.0340 0.9808
3.5495 2.5902 -2.0340 0.9808
3.3071 2.8933 -2.0340 0.9808
2.7470 3.4296 -2.0340 0.9808
2.4336 3.6586 -2.0340 0.9808
2.1014 3.8591 -2.0340 0.9808
1.3902 4.1683 -2.0340 0.9808
-0.1384 4.3919 -2.0339 0.9808
-0.5254 4.3625 -2.0339 0.9808
3.9884 1.1339 -2.0339 0.9817
3.8729 1.4814 -2.0340 0.9817
3.5521 2.1391 -2.0340 0.9817
3.1207 2.7303 -2.0340 0.9817
2.8677 2.9950 -2.0340 0.9817
2.2966 3.4525 -2.0340 0.9817
0.2356 4.1397 -2.0339 0.9817
-0.1305 4.1444 -2.0339 0.9817
-0.4958 4.1167 -2.0339 0.9817
3.7712 1.0721 -2.0339 0.9825
3.5240 1.7184 -2.0340 0.9825
3.3586 2.0226 -2.0340 0.9825
3.1671 2.3111 -2.0340 0.9825
2.4511 3.0601 -2.0340 0.9825
2.1715 3.2644 -2.0340 0.9825
1.8750 3.4433 -2.0340 0.9825
1.2404 3.7192 -2.0340 0.9825
0.9075 3.8142 -2.0340 0.9825
0.2228 3.9143 -2.0339 0.9825
-0.1235 3.9187 -2.0339 0.9825
-0.4688 3.8925 -2.0339 0.9825
1.8551 0.3541 -1.0344 0.9914
3.4685 1.3268 -2.0339 0.9832
3.3379 1.6276 -2.0339 0.9832
3.1812 1.9158 -2.0339 0.9832
2.5683 2.6823 -2.0340 0.9832
2.0568 3.0920 -2.0340 0.9832
1.7759 3.2614 -2.0340 0.9832
0.5373 3.6745 -2.0339 0.9832
-0.1170 3.7117 -2.0339 0.9832
1.7138 0.3272 -1.0073 0.9920
1.7123 0.4868 -1.0278 0.9918
1.7165 0.6566 -1.0611 0.9915
3.1665 1.5441 -2.0339 0.9839
3.0179 1.8175 -2.0339 0.9839
2.6514 2.3196 -2.0339 0.9839
2.4364 2.5446 -2.0339 0.9839
2.2024 2.7496 -2.0340 0.9839
1.9511 2.9332 -2.0340 0.9839
1.6847 3.0939 -2.0339 0.9839
1.1146 3.3419 -2.0339 0.9839
0.5097 3.4858 -2.0339 0.9839
0.2002 3.5172 -2.0339 0.9839
-0.1109 3.5211 -2.0339 0.9839
