ply
format ascii 1.0
element vertex 175
property float32 x
property float32 y
property float32 z
property float32 I
end_header
1.8872 -6.1958 -0.7694 0.9742
2.4571 -6.0332 -0.7738 0.9741
3.0972 -5.9804 -0.8000 0.9732
11.6855 -12.5146 -2.0339 0.9334
12.7757 -11.3998 -2.0339 0.9334
13.7599 -10.1904 -2.0339 0.9334
14.6300 -8.8964 -2.0339 0.9334
16.0002 -6.0985 -2.0340 0.9334
16.8406 -3.0986 -2.0340 0.9334
17.0529 -1.5537 -2.0340 0.9333
17.1237 0.0040 -2.0340 0.9333
17.0524 1.5618 -2.0341 0.9333
16.8397 3.1066 -2.0341 0.9333
1.9070 -6.2609 -0.9273 0.9739
7.7334 -12.0929 -2.0338 0.9437
12.2651 -7.4584 -2.0339 0.9437
12.8929 -6.3117 -2.0339 0.9437
13.8233 -3.8713 -2.0340 0.9437
14.2962 -1.3026 -2.0340 0.9437
3.0385 -5.8671 -1.0885 0.9736
6.6514 -10.4009 -2.0338 0.9512
8.4259 -9.0237 -2.0339 0.9512
9.2120 -8.2199 -2.0339 0.9512
9.9216 -7.3478 -2.0339 0.9512
10.5490 -6.4148 -2.0339 0.9512
11.0889 -5.4286 -2.0339 0.9512
11.5368 -4.3973 -2.0340 0.9512
11.8891 -3.3296 -2.0340 0.9512
12.3469 0.0029 -2.0340 0.9512
12.1421 2.2400 -2.0340 0.9512
2.3859 -5.8585 -1.1890 0.9746
6.6348 -8.5479 -2.0339 0.9569
8.0739 -7.2043 -2.0339 0.9569
8.6959 -6.4400 -2.0339 0.9569
9.7189 -4.7579 -2.0339 0.9569
10.1115 -3.8540 -2.0339 0.9569
10.4203 -2.9182 -2.0340 0.9569
10.6426 -1.9582 -2.0340 0.9569
10.7764 0.9870 -2.0340 0.9569
1.8237 -5.9878 -1.3231 0.9747
5.1838 -8.1060 -2.0339 0.9614
5.8997 -7.6009 -2.0339 0.9614
6.5668 -7.0327 -2.0339 0.9614
7.1794 -6.4062 -2.0339 0.9614
7.7324 -5.7265 -2.0339 0.9614
8.2214 -4.9994 -2.0339 0.9614
8.6421 -4.2307 -2.0339 0.9614
9.2658 -2.5949 -2.0340 0.9614
9.5827 -0.8731 -2.0340 0.9614
9.6224 0.0023 -2.0340 0.9614
9.4629 1.7457 -2.0340 0.9614
2.3085 -5.6682 -1.4384 0.9752
4.6623 -7.2906 -2.0339 0.9651
5.9062 -6.3252 -2.0339 0.9651
8.0867 -3.0823 -2.0339 0.9651
8.3336 -2.3339 -2.0339 0.9651
5.3611 -5.7415 -2.0339 0.9681
6.3127 -4.6751 -2.0339 0.9681
7.0554 -3.4540 -2.0339 0.9681
7.7259 -1.4215 -2.0340 0.9681
7.8232 -0.7128 -2.0340 0.9681
1.8038 -5.9221 -1.7525 0.9746
2.4941 -6.1239 -1.8719 0.9729
3.0730 -5.9337 -1.8917 0.9726
3.8706 -6.0527 -2.0339 0.9706
4.4052 -5.6754 -2.0339 0.9706
5.3607 -4.7834 -2.0339 0.9706
6.4529 -3.1590 -2.0339 0.9706
6.9185 -1.9376 -2.0339 0.9706
7.0661 -1.3001 -2.0339 0.9706
7.1848 0.0017 -2.0340 0.9706
7.1549 0.6553 -2.0340 0.9706
7.0656 1.3035 -2.0340 0.9706
3.5625 -5.5708 -2.0339 0.9727
4.0546 -5.2237 -2.0339 0.9727
4.5130 -4.8332 -2.0339 0.9727
4.9339 -4.4026 -2.0339 0.9727
5.9392 -2.9075 -2.0339 0.9727
6.5036 -1.1967 -2.0339 0.9727
2.8138 -5.4332 -2.0339 0.9745
3.2964 -5.1547 -2.0339 0.9745
4.1759 -4.4722 -2.0339 0.9745
5.2280 -3.1792 -2.0339 0.9745
5.7176 -2.1793 -2.0339 0.9745
6.0179 -1.1073 -2.0339 0.9745
6.0936 -0.5552 -2.0339 0.9745
2.1452 -5.2673 -2.0339 0.9761
3.0641 -4.7915 -2.0339 0.9761
3.4873 -4.4929 -2.0339 0.9761
3.8816 -4.1570 -2.0339 0.9761
5.1083 -2.5008 -2.0339 0.9761
5.3146 -2.0257 -2.0339 0.9761
5.4769 -1.5338 -2.0339 0.9761
5.5938 -1.0292 -2.0339 0.9761
5.6877 0.0013 -2.0339 0.9761
5.6640 0.5187 -2.0340 0.9761
5.5933 1.0319 -2.0340 0.9761
1.5464 -5.0770 -2.0339 0.9775
2.0019 -4.9153 -2.0339 0.9775
2.8594 -4.4713 -2.0339 0.9775
3.6222 -3.8792 -2.0339 0.9775
3.9601 -3.5336 -2.0339 0.9775
4.2651 -3.1587 -2.0339 0.9775
4.5349 -2.7576 -2.0339 0.9775
5.1109 -1.4313 -2.0339 0.9775
5.2199 -0.9604 -2.0339 0.9775
5.2857 -0.4816 -2.0339 0.9775
5.3075 0.0012 -2.0339 0.9775
5.2195 0.9629 -2.0340 0.9775
1.4480 -4.7538 -2.0339 0.9788
2.6773 -4.1866 -2.0339 0.9788
3.7080 -3.3087 -2.0339 0.9788
3.9936 -2.9576 -2.0339 0.9788
4.2461 -2.5821 -2.0339 0.9788
4.6437 -1.7700 -2.0339 0.9788
4.7855 -1.3402 -2.0339 0.9788
4.9491 -0.4509 -2.0339 0.9788
4.9696 0.0012 -2.0339 0.9787
4.9489 0.4533 -2.0339 0.9787
4.8872 0.9016 -2.0340 0.9787
1.3598 -4.4643 -2.0339 0.9798
1.7602 -4.3221 -2.0339 0.9798
2.1461 -4.1441 -2.0339 0.9798
2.5143 -3.9316 -2.0339 0.9798
2.8615 -3.6866 -2.0339 0.9798
3.1850 -3.4110 -2.0339 0.9798
3.4822 -3.1071 -2.0339 0.9798
3.7504 -2.7775 -2.0339 0.9798
3.9875 -2.4248 -2.0339 0.9798
4.1916 -2.0520 -2.0339 0.9798
4.3609 -1.6622 -2.0339 0.9798
4.5900 -0.8445 -2.0339 0.9798
4.6670 0.0011 -2.0339 0.9798
4.6475 0.4256 -2.0339 0.9798
4.5896 0.8467 -2.0339 0.9798
1.2802 -4.2033 -2.0339 0.9808
1.6573 -4.0693 -2.0339 0.9808
2.3672 -3.7017 -2.0339 0.9808
3.9465 -1.9320 -2.0339 0.9808
4.3758 0.4008 -2.0339 0.9808
4.3212 0.7971 -2.0339 0.9808
1.9068 -3.6819 -2.0339 0.9817
3.7241 -1.8232 -2.0339 0.9817
3.8746 -1.4768 -2.0339 0.9817
4.1292 0.3782 -2.0339 0.9817
4.0777 0.7522 -2.0339 0.9817
1.1423 -3.7504 -2.0339 0.9825
2.1122 -3.3029 -2.0339 0.9825
3.3499 -2.0370 -2.0339 0.9825
3.6635 -1.3963 -2.0339 0.9825
2.0739 -0.1890 -1.0803 0.9907
2.0700 0.0005 -1.0739 0.9907
2.1046 0.3882 -1.1102 0.9904
1.0820 -3.5523 -2.0339 0.9832
1.7077 -3.2975 -2.0339 0.9832
2.0006 -3.1285 -2.0339 0.9832
2.2770 -2.9335 -2.0339 0.9832
2.5344 -2.7142 -2.0339 0.9832
2.7708 -2.4724 -2.0339 0.9832
2.9843 -2.2101 -2.0339 0.9832
3.1729 -1.9295 -2.0339 0.9832
1.8503 -0.1686 -1.0176 0.9916
1.8504 0.0004 -1.0134 0.9916
1.8502 0.1694 -1.0176 0.9916
1.8543 0.3421 -1.0328 0.9914
1.0264 -3.3699 -2.0339 0.9839
1.8979 -2.9678 -2.0339 0.9839
2.4043 -2.5748 -2.0339 0.9839
2.6286 -2.3454 -2.0339 0.9839
2.8310 -2.0966 -2.0339 0.9839
3.1641 -1.5490 -2.0339 0.9839
1.7111 -0.4792 -1.0259 0.9918
1.7139 -0.3154 -1.0061 0.9920
1.7211 -0.1568 -0.9978 0.9920
1.7245 0.0004 -0.9956 0.9921
