ply
format ascii 1.0
element vertex 204
property float32 x
property float32 y
property float32 z
property float32 I
end_header
-11.2077 12.6100 2.1969 0.9342
-12.6795 11.9717 2.2708 0.9321
-11.3298 12.7475 1.8314 0.9337
-12.8260 12.1101 1.8942 0.9315
-12.7196 12.0096 1.4809 0.9322
-12.0302 13.5354 1.1229 0.9300
-16.5000 5.4519 -0.8813 0.9328
-16.2104 5.3562 -1.2518 0.9338
-1.5411 7.5441 -0.7392 0.9695
-16.0861 5.3152 -1.6265 0.9342
-0.4533 17.1180 -2.0341 0.9333
-0.8822 7.7056 -0.9213 0.9692
-1.5401 7.5392 -0.9140 0.9695
-6.2962 15.9239 -2.0340 0.9333
-7.6638 15.3125 -2.0340 0.9334
-10.2130 13.7437 -2.0340 0.9334
-11.3750 12.7984 -2.0339 0.9334
-12.4500 11.7550 -2.0339 0.9334
-13.4296 10.6218 -2.0339 0.9334
-14.3064 9.4072 -2.0339 0.9334
-16.6644 3.9302 -2.0338 0.9334
-16.9439 2.4586 -2.0338 0.9334
-0.8534 7.4539 -1.0630 0.9701
-2.1901 7.3655 -1.0888 0.9694
-5.2784 13.3497 -2.0340 0.9437
-6.4250 12.8372 -2.0340 0.9437
-10.4375 9.8549 -2.0339 0.9437
-11.2588 8.9048 -2.0339 0.9437
-11.9939 7.8867 -2.0339 0.9437
-12.6372 6.8081 -2.0339 0.9437
-13.9708 3.2949 -2.0338 0.9437
-0.8504 7.4277 -1.2316 0.9701
-1.4960 7.3234 -1.2314 0.9702
-4.5398 11.4818 -2.0340 0.9512
-5.5259 11.0410 -2.0340 0.9512
-6.4698 10.5156 -2.0340 0.9512
-7.3641 9.9099 -2.0339 0.9512
-8.9771 8.4760 -2.0339 0.9512
-10.3158 6.7832 -2.0339 0.9512
-10.8691 5.8555 -2.0339 0.9512
-11.3392 4.8831 -2.0339 0.9512
-12.0161 2.8339 -2.0338 0.9512
-12.2177 1.7728 -2.0338 0.9512
-0.2864 10.8177 -2.0340 0.9569
-1.4750 7.2206 -1.3852 0.9705
-2.1354 7.1813 -1.4082 0.9700
-4.8432 9.6769 -2.0340 0.9569
-6.4543 8.6855 -2.0339 0.9569
-7.1887 8.0881 -2.0339 0.9569
-8.4871 6.7126 -2.0339 0.9569
-9.0413 5.9451 -2.0339 0.9569
-10.2743 3.3948 -2.0339 0.9569
-10.5316 2.4838 -2.0338 0.9569
-10.7084 1.5538 -2.0338 0.9569
-0.2547 9.6191 -2.0340 0.9614
-0.8376 7.3162 -1.5566 0.9703
-2.0648 6.9441 -1.5314 0.9708
-5.0422 8.1954 -2.0339 0.9614
-5.7392 7.7232 -2.0339 0.9614
-7.5468 5.9689 -2.0339 0.9614
-8.0396 5.2865 -2.0339 0.9614
-8.8372 3.8057 -2.0339 0.9614
-9.3648 2.2087 -2.0338 0.9614
-9.5220 1.3816 -2.0338 0.9614
-0.8332 7.2769 -1.7214 0.9704
-1.5207 7.4441 -1.7857 0.9693
-2.1422 7.2044 -1.7665 0.9696
-3.8734 7.7391 -2.0340 0.9651
-5.1618 6.9463 -2.0339 0.9651
-6.2925 5.9412 -2.0339 0.9651
-6.7876 5.3685 -2.0339 0.9651
-7.2308 4.7546 -2.0339 0.9651
-7.6187 4.1044 -2.0339 0.9651
-8.2169 2.7150 -2.0339 0.9651
-0.8481 7.4076 -1.9305 0.9697
-2.2389 7.5298 -2.0340 0.9681
-2.8885 7.3053 -2.0340 0.9681
-3.5159 7.0248 -2.0339 0.9681
-4.1164 6.6906 -2.0339 0.9681
-5.2186 5.8715 -2.0339 0.9681
-5.7118 5.3929 -2.0339 0.9681
-6.5635 4.3159 -2.0339 0.9681
-6.9156 3.7256 -2.0339 0.9681
-7.6454 1.8031 -2.0339 0.9681
-0.1902 7.1823 -2.0340 0.9706
-0.8173 7.1382 -2.0340 0.9706
-1.4380 7.0394 -2.0340 0.9706
-2.0478 6.8868 -2.0340 0.9706
-2.6418 6.6814 -2.0340 0.9706
-3.7649 6.1193 -2.0339 0.9706
-5.2240 4.9324 -2.0339 0.9706
-5.6351 4.4569 -2.0339 0.9706
-6.0030 3.9473 -2.0339 0.9706
-6.3250 3.4075 -2.0339 0.9706
-6.5986 2.8416 -2.0339 0.9706
-6.8217 2.2540 -2.0339 0.9706
-6.9925 1.6492 -2.0339 0.9706
-0.1750 6.6105 -2.0340 0.9727
-0.7521 6.5699 -2.0340 0.9727
-1.8847 6.3385 -2.0340 0.9727
-3.4652 5.6321 -2.0339 0.9727
-3.9441 5.3077 -2.0339 0.9727
-4.3929 4.9426 -2.0339 0.9727
-4.8081 4.5397 -2.0339 0.9727
-5.1865 4.1021 -2.0339 0.9727
-5.5251 3.6331 -2.0339 0.9727
-5.8215 3.1363 -2.0339 0.9727
-6.0733 2.6154 -2.0339 0.9727
-6.2786 2.0746 -2.0339 0.9727
-6.4359 1.5179 -2.0339 0.9727
-0.1620 6.1168 -2.0340 0.9745
-1.7439 5.8651 -2.0340 0.9745
-3.2064 5.2114 -2.0339 0.9745
-4.4490 4.2007 -2.0339 0.9745
-5.1125 3.3617 -2.0339 0.9745
-1.6210 5.4517 -2.0339 0.9761
-2.0913 5.2892 -2.0339 0.9761
-2.5456 5.0862 -2.0339 0.9761
-2.9804 4.8442 -2.0339 0.9761
-4.4609 3.5282 -2.0339 0.9761
-5.0071 2.6975 -2.0339 0.9761
-5.4003 1.7844 -2.0339 0.9761
-5.5355 1.3055 -2.0339 0.9761
-5.6285 0.8167 -2.0339 0.9761
-0.1405 5.3057 -2.0340 0.9775
-1.0623 5.2002 -2.0339 0.9775
-1.5127 5.0874 -2.0339 0.9775
-1.9516 4.9357 -2.0339 0.9775
-2.3755 4.7462 -2.0339 0.9775
-2.7812 4.5204 -2.0339 0.9775
-3.5259 3.9671 -2.0339 0.9775
-4.4346 2.9160 -2.0339 0.9775
-4.6725 2.5172 -2.0339 0.9775
-5.0394 1.6651 -2.0339 0.9775
-5.2523 0.7621 -2.0339 0.9775
-0.1316 4.9679 -2.0340 0.9788
-0.5652 4.9374 -2.0340 0.9788
-0.9946 4.8691 -2.0339 0.9788
-1.4164 4.7635 -2.0339 0.9788
-1.8273 4.6214 -2.0339 0.9788
-2.9641 3.9888 -2.0339 0.9788
-3.8978 3.0828 -2.0339 0.9788
-4.3750 2.3570 -2.0339 0.9788
-4.7186 1.5591 -2.0339 0.9788
-2.1245 0.5010 -0.8934 0.9906
-0.1236 4.6653 -2.0340 0.9798
-0.9341 4.5725 -2.0339 0.9798
-1.3301 4.4734 -2.0339 0.9798
-1.7160 4.3400 -2.0339 0.9798
-2.0888 4.1734 -2.0339 0.9798
-2.4455 3.9749 -2.0339 0.9798
-3.1003 3.4883 -2.0339 0.9798
-3.6604 2.8951 -2.0339 0.9798
-3.8994 2.5640 -2.0339 0.9798
-4.1085 2.2134 -2.0339 0.9798
-1.9666 3.9293 -2.0339 0.9808
-2.9190 3.2843 -2.0339 0.9808
-3.1949 3.0166 -2.0339 0.9808
-3.8683 2.0840 -2.0339 0.9808
-1.6406 0.5421 -0.7998 0.9924
-1.5837 0.3735 -0.7532 0.9929
-1.6106 0.2337 -0.7533 0.9929
-0.1098 4.1450 -2.0339 0.9817
-1.8558 3.7079 -2.0339 0.9817
-2.4731 3.3281 -2.0339 0.9817
-3.2521 2.5722 -2.0339 0.9817
-3.4645 2.2781 -2.0339 0.9817
-3.6503 1.9666 -2.0339 0.9817
-3.8082 1.6400 -2.0339 0.9817
-1.3226 0.3119 -0.6666 0.9940
-0.7846 3.8413 -2.0339 0.9825
-1.1174 3.7580 -2.0339 0.9825
-1.4416 3.6459 -2.0339 0.9825
-2.0544 3.3392 -2.0339 0.9825
-2.3384 3.1468 -2.0339 0.9825
-2.6045 2.9304 -2.0339 0.9825
-2.8507 2.6915 -2.0339 0.9825
-3.2758 2.1540 -2.0339 0.9825
-3.4515 1.8595 -2.0339 0.9825
-1.1394 0.3764 -0.6225 0.9946
-1.1703 0.2760 -0.6238 0.9946
-1.1952 0.1734 -0.6265 0.9946
-0.0983 3.7123 -2.0339 0.9832
-0.4224 3.6895 -2.0339 0.9832
-1.0584 3.5595 -2.0339 0.9832
-1.6620 3.3208 -2.0339 0.9832
-1.9459 3.1629 -2.0339 0.9832
-2.2149 2.9806 -2.0339 0.9832
-2.4670 2.7756 -2.0339 0.9832
-1.0303 0.3404 -0.5943 0.9951
-1.0487 0.2473 -0.5901 0.9951
-1.0729 0.1556 -0.5938 0.9951
-0.0932 3.5216 -2.0339 0.9839
-0.4007 3.5000 -2.0339 0.9839
-0.7050 3.4516 -2.0339 0.9839
-1.0040 3.3767 -2.0339 0.9839
-1.2954 3.2761 -2.0339 0.9839
-1.5767 3.1503 -2.0339 0.9839
-2.7630 2.1854 -2.0339 0.9839
-2.9434 1.9355 -2.0339 0.9839
-0.9020 0.4859 -0.5915 0.9953
-0.9308 0.4008 -0.5851 0.9953
-0.9672 0.2281 -0.5738 0.9954
-0.9836 0.1427 -0.5738 0.9954
