ply
format ascii 1.0
element vertex 180
property float32 x
property float32 y
property float32 z
property float32 I
end_header
2.8218 -6.1350 -0.6483 0.9732
-4.5423 -16.5070 -2.0337 0.9334
-3.0832 -16.8407 -2.0337 0.9334
-0.1056 -17.1205 -2.0337 0.9334
2.3202 -6.4837 -0.8180 0.9726
2.7413 -5.9598 -0.7792 0.9739
8.4859 -14.8708 -2.0338 0.9334
9.7523 -14.0729 -2.0338 0.9334
14.7949 -8.6195 -2.0339 0.9334
-3.8081 -13.8390 -2.0337 0.9437
-2.5848 -14.1187 -2.0337 0.9437
1.1655 -14.3062 -2.0338 0.9437
2.1905 -6.1214 -0.9212 0.9741
2.7166 -5.9063 -0.9211 0.9741
7.1143 -12.4671 -2.0338 0.9437
9.1753 -11.0391 -2.0339 0.9437
10.1045 -10.1956 -2.0339 0.9437
11.7247 -8.2818 -2.0339 0.9437
-4.3024 -11.5712 -2.0337 0.9512
-3.2753 -11.9028 -2.0337 0.9512
-2.2232 -12.1434 -2.0337 0.9512
-0.0762 -12.3451 -2.0338 0.9512
1.0024 -12.3047 -2.0338 0.9512
2.0733 -12.1701 -2.0338 0.9512
1.6556 -6.3204 -1.0763 0.9739
2.6651 -5.7944 -1.0507 0.9745
6.1189 -10.7228 -2.0338 0.9512
7.0321 -10.1474 -2.0338 0.9512
7.8915 -9.4946 -2.0339 0.9512
9.4234 -7.9765 -2.0339 0.9512
10.6679 -6.2151 -2.0339 0.9512
-3.7709 -10.1418 -2.0338 0.9569
-1.9486 -10.6433 -2.0338 0.9569
-1.0115 -10.7728 -2.0338 0.9569
0.8786 -10.7846 -2.0338 0.9569
1.8172 -10.6667 -2.0338 0.9569
1.5926 -6.0799 -1.1813 0.9747
2.6601 -5.7834 -1.1965 0.9744
6.1634 -8.8938 -2.0339 0.9569
7.6170 -7.6857 -2.0339 0.9569
8.2592 -6.9911 -2.0339 0.9569
8.8384 -6.2430 -2.0339 0.9569
9.3499 -5.4473 -2.0339 0.9569
-3.3532 -9.0182 -2.0338 0.9614
-2.5527 -9.2766 -2.0338 0.9614
-1.7327 -9.4641 -2.0338 0.9614
-0.8995 -9.5793 -2.0338 0.9614
-0.0593 -9.6213 -2.0338 0.9614
0.7812 -9.5898 -2.0338 0.9614
1.6159 -9.4850 -2.0338 0.9614
1.6215 -6.1903 -1.3527 0.9742
2.6281 -5.7139 -1.3294 0.9746
6.7731 -6.8342 -2.0339 0.9614
7.3442 -6.2165 -2.0339 0.9614
7.8591 -5.5513 -2.0339 0.9614
8.3141 -4.8437 -2.0339 0.9614
-3.0159 -8.1110 -2.0338 0.9651
-2.2959 -8.3435 -2.0338 0.9651
-1.5584 -8.5121 -2.0338 0.9651
-0.0534 -8.6535 -2.0338 0.9651
1.4533 -8.5308 -2.0338 0.9651
1.5584 -5.9493 -1.4454 0.9750
2.0425 -5.7078 -1.4248 0.9754
3.2894 -5.7645 -1.5598 0.9731
5.5316 -6.6552 -2.0339 0.9651
6.0917 -6.1467 -2.0339 0.9651
6.6054 -5.5912 -2.0339 0.9651
7.0685 -4.9929 -2.0339 0.9651
-2.7375 -7.3625 -2.0338 0.9681
-2.0840 -7.5735 -2.0338 0.9681
-1.4146 -7.7266 -2.0338 0.9681
2.0588 -5.7535 -1.5822 0.9751
2.6880 -5.8443 -1.6656 0.9738
5.0211 -6.0410 -2.0339 0.9681
5.9958 -5.0752 -2.0339 0.9681
6.4162 -4.5321 -2.0339 0.9681
6.7875 -3.9544 -2.0339 0.9681
-2.5038 -6.7338 -2.0338 0.9706
-1.2938 -7.0668 -2.0338 0.9706
-0.6716 -7.1528 -2.0338 0.9706
-0.0443 -7.1841 -2.0338 0.9706
0.5834 -7.1606 -2.0338 0.9706
1.5800 -6.0316 -1.7651 0.9744
2.7045 -5.8799 -1.8322 0.9735
4.5923 -5.5252 -2.0339 0.9706
5.0573 -5.1030 -2.0339 0.9706
5.4837 -4.6418 -2.0339 0.9706
5.8682 -4.1451 -2.0339 0.9706
-2.3045 -6.1978 -2.0338 0.9727
-0.6182 -6.5834 -2.0338 0.9727
-0.0408 -6.6123 -2.0338 0.9727
3.2773 -5.7432 -2.0339 0.9727
4.2268 -5.0853 -2.0339 0.9727
4.6548 -4.6968 -2.0339 0.9727
5.0472 -4.2723 -2.0339 0.9727
5.4011 -3.8151 -2.0339 0.9727
5.7137 -3.3288 -2.0339 0.9727
-1.1019 -6.0185 -2.0338 0.9745
-0.5720 -6.0918 -2.0338 0.9745
-0.0377 -6.1184 -2.0338 0.9745
0.4968 -6.0983 -2.0338 0.9745
3.4851 -5.0291 -2.0339 0.9745
3.9111 -4.7055 -2.0339 0.9745
4.6702 -3.9532 -2.0339 0.9745
-1.0242 -5.5944 -2.0338 0.9761
-0.5317 -5.6625 -2.0338 0.9761
0.9552 -5.6066 -2.0338 0.9761
1.9162 -5.3549 -2.0339 0.9761
3.2395 -4.6747 -2.0339 0.9761
3.6354 -4.3739 -2.0339 0.9761
-1.4081 -5.1171 -2.0338 0.9775
-0.9558 -5.2205 -2.0338 0.9775
-0.0327 -5.3072 -2.0338 0.9775
0.4309 -5.2898 -2.0338 0.9775
2.2178 -4.8217 -2.0339 0.9775
3.0230 -4.3623 -2.0339 0.9775
3.3925 -4.0816 -2.0339 0.9775
4.3350 -3.0621 -2.0339 0.9775
-1.7319 -4.6578 -2.0338 0.9788
-1.3184 -4.7913 -2.0338 0.9788
-0.0307 -4.9693 -2.0338 0.9788
0.8345 -4.8988 -2.0339 0.9788
1.2593 -4.8072 -2.0339 0.9788
2.0766 -4.5148 -2.0339 0.9788
3.1765 -3.8217 -2.0339 0.9788
3.7931 -3.2107 -2.0339 0.9788
4.0591 -2.8671 -2.0339 0.9788
4.2940 -2.5017 -2.0339 0.9788
-1.6264 -4.3742 -2.0338 0.9798
-0.8404 -4.5904 -2.0338 0.9798
-0.4363 -4.6463 -2.0338 0.9798
0.3789 -4.6514 -2.0339 0.9798
0.7837 -4.6005 -2.0339 0.9798
2.3130 -4.0533 -2.0339 0.9798
2.6581 -3.8358 -2.0339 0.9798
2.9830 -3.5890 -2.0339 0.9798
3.5621 -3.0152 -2.0339 0.9798
-1.5313 -4.1184 -2.0338 0.9808
-0.0271 -4.3938 -2.0339 0.9808
0.3568 -4.3794 -2.0339 0.9808
1.4804 -4.1370 -2.0339 0.9808
1.8361 -3.9919 -2.0339 0.9808
2.1777 -3.8163 -2.0339 0.9808
2.5027 -3.6115 -2.0339 0.9808
3.3538 -2.8388 -2.0339 0.9808
3.7967 -2.2119 -2.0339 0.9808
-1.4450 -3.8864 -2.0338 0.9817
-0.7467 -4.0785 -2.0338 0.9817
-0.0256 -4.1462 -2.0339 0.9817
0.6963 -4.0874 -2.0339 0.9817
1.0507 -4.0110 -2.0339 0.9817
1.3970 -3.9039 -2.0339 0.9817
2.0550 -3.6013 -2.0339 0.9817
2.6504 -3.1887 -2.0339 0.9817
-1.0402 -3.7800 -2.0338 0.9825
-0.0242 -3.9204 -2.0339 0.9825
0.3183 -3.9075 -2.0339 0.9825
0.6584 -3.8648 -2.0339 0.9825
1.9431 -3.4051 -2.0339 0.9825
2.2330 -3.2224 -2.0339 0.9825
2.5060 -3.0150 -2.0339 0.9825
3.3876 -1.9736 -2.0339 0.9825
-0.3471 -3.6972 -2.0339 0.9832
0.3015 -3.7012 -2.0339 0.9832
1.2511 -3.4963 -2.0339 0.9832
1.8405 -3.2253 -2.0339 0.9832
2.3737 -2.8558 -2.0339 0.9832
2.6141 -2.6376 -2.0339 0.9832
3.0332 -2.1425 -2.0339 0.9832
3.2087 -1.8694 -2.0339 0.9832
-0.6344 -3.4652 -2.0339 0.9839
-0.3293 -3.5073 -2.0339 0.9839
0.2860 -3.5112 -2.0339 0.9839
1.4721 -3.2004 -2.0339 0.9839
1.7460 -3.0597 -2.0339 0.9839
2.0066 -2.8955 -2.0339 0.9839
2.2518 -2.7092 -2.0339 0.9839
2.6889 -2.2760 -2.0339 0.9839
2.8774 -2.0325 -2.0339 0.9839
3.0439 -1.7734 -2.0339 0.9839
