ply
format ascii 1.0
element vertex 192
property float32 x
property float32 y
property float32 z
property float32 I
end_header
-11.4988 12.5207 2.6043 0.9335
-11.4654 12.4843 1.8201 0.9341
-17.1560 5.1801 -0.9088 0.9307
-11.9988 13.0652 -1.3007 0.9313
-16.6394 5.0242 -1.2744 0.9327
-12.0104 13.0778 -1.7047 0.9311
-16.4857 4.9777 -1.6533 0.9331
-1.5684 7.4235 -0.9013 0.9699
-2.3339 7.6174 -0.9464 0.9684
-6.4535 15.8607 -2.0340 0.9333
-7.8393 15.2234 -2.0340 0.9334
-9.1630 14.4652 -2.0340 0.9334
-11.5820 12.6114 -2.0339 0.9334
-12.6582 11.5304 -2.0339 0.9334
-13.6340 10.3580 -2.0339 0.9334
-14.5016 9.1034 -2.0339 0.9334
-15.2541 7.7767 -2.0339 0.9334
-15.8855 6.3882 -2.0338 0.9334
-16.3908 4.9491 -2.0338 0.9334
-17.1154 0.4434 -2.0338 0.9334
-17.0868 -1.0816 -2.0337 0.9334
-2.2386 7.3061 -1.0827 0.9696
-9.7098 10.5727 -2.0339 0.9437
-12.1575 7.6320 -2.0339 0.9437
-12.7884 6.5196 -2.0339 0.9437
-14.0560 2.9097 -2.0338 0.9437
-14.2591 1.6472 -2.0338 0.9437
-14.3489 0.3717 -2.0338 0.9437
-14.3250 -0.9068 -2.0338 0.9437
-1.5394 7.2864 -1.2269 0.9703
-5.6525 10.9767 -2.0340 0.9512
-6.6069 10.4300 -2.0340 0.9512
-7.5088 9.8006 -2.0339 0.9512
-9.8309 7.4687 -2.0339 0.9512
-11.4544 4.6063 -2.0339 0.9512
-12.2641 1.4168 -2.0338 0.9512
-12.3414 0.3197 -2.0338 0.9512
-2.1952 7.1644 -1.4084 0.9700
-5.7907 9.1414 -2.0340 0.9569
-7.3195 7.9699 -2.0339 0.9569
-7.9996 7.2869 -2.0339 0.9569
-8.6163 6.5460 -2.0339 0.9569
-10.0393 4.0372 -2.0339 0.9569
-10.3586 3.1277 -2.0338 0.9569
-10.5959 2.1934 -2.0338 0.9569
-10.7489 1.2417 -2.0338 0.9569
-10.8168 0.2802 -2.0338 0.9569
-10.7987 -0.6836 -2.0338 0.9569
-3.6265 8.9128 -2.0340 0.9614
-5.1491 8.1286 -2.0339 0.9614
-5.8520 7.6381 -2.0339 0.9614
-7.6617 5.8207 -2.0339 0.9614
-8.1493 5.1158 -2.0339 0.9614
-8.5721 4.3701 -2.0339 0.9614
-8.9270 3.5899 -2.0339 0.9614
-9.4220 1.9504 -2.0338 0.9614
-9.5581 1.1042 -2.0338 0.9614
-9.6023 -0.6078 -2.0338 0.9614
-3.2616 8.0162 -2.0340 0.9651
-4.6311 7.3109 -2.0339 0.9651
-5.8538 6.3740 -2.0339 0.9651
-7.7099 3.9305 -2.0339 0.9651
-8.0290 3.2288 -2.0339 0.9651
-8.2845 2.5014 -2.0339 0.9651
-8.6508 0.2241 -2.0338 0.9651
-8.6364 -0.5467 -2.0338 0.9651
-2.9606 7.2763 -2.0340 0.9681
-3.5964 6.9840 -2.0339 0.9681
-4.7775 6.2357 -2.0339 0.9681
-5.8073 5.2898 -2.0339 0.9681
-6.2550 4.7520 -2.0339 0.9681
-6.6531 4.1765 -2.0339 0.9681
-7.5200 2.2706 -2.0339 0.9681
-7.6921 1.5923 -2.0339 0.9681
-7.8394 -0.4963 -2.0338 0.9681
-1.4851 7.0296 -2.0340 0.9706
-2.7078 6.6550 -2.0340 0.9706
-3.8447 6.0694 -2.0339 0.9706
-4.3696 5.7032 -2.0339 0.9706
-5.7209 4.3462 -2.0339 0.9706
-6.0849 3.8198 -2.0339 0.9706
-6.4007 3.2631 -2.0339 0.9706
-6.8777 2.0767 -2.0339 0.9706
-7.0353 1.4563 -2.0339 0.9706
-7.1369 0.8245 -2.0338 0.9706
-7.1819 0.1860 -2.0338 0.9706
-7.1700 -0.4538 -2.0338 0.9706
-1.3668 6.4700 -2.0340 0.9727
-1.9372 6.3227 -2.0340 0.9727
-2.4922 6.1252 -2.0339 0.9727
-3.5386 5.5863 -2.0339 0.9727
-4.4729 4.8704 -2.0339 0.9727
-5.2654 4.0002 -2.0339 0.9727
-6.1350 2.4671 -2.0339 0.9727
-6.4752 1.3404 -2.0339 0.9727
-6.5688 0.7588 -2.0339 0.9727
-6.5992 -0.4178 -2.0338 0.9727
-2.3061 5.6676 -2.0339 0.9745
-4.8721 3.7015 -2.0339 0.9745
-5.4512 2.7790 -2.0339 0.9745
-5.6768 2.2829 -2.0339 0.9745
-6.0782 0.7021 -2.0339 0.9745
-6.1165 0.1584 -2.0338 0.9745
-2.6039 5.0565 -2.0339 0.9761
-3.0436 4.8047 -2.0339 0.9761
-4.2046 3.8300 -2.0339 0.9761
-4.5288 3.4406 -2.0339 0.9761
-4.8170 3.0239 -2.0339 0.9761
-5.0670 2.5832 -2.0339 0.9761
-5.2768 2.1220 -2.0339 0.9761
-5.5693 1.1529 -2.0339 0.9761
-5.6855 0.1473 -2.0339 0.9761
-5.6760 -0.3593 -2.0338 0.9761
-1.0971 5.1929 -2.0339 0.9775
-1.5548 5.0746 -2.0339 0.9775
-2.8401 4.4837 -2.0339 0.9775
-3.5900 3.9090 -2.0339 0.9775
-4.2261 3.2107 -2.0339 0.9775
-4.4951 2.8218 -2.0339 0.9775
-4.7284 2.4106 -2.0339 0.9775
-5.0808 1.5341 -2.0339 0.9775
-5.2722 0.6090 -2.0339 0.9775
-5.3055 0.1374 -2.0339 0.9775
-5.2967 -0.3353 -2.0339 0.9775
-1.4559 4.7516 -2.0339 0.9788
-3.3614 3.6602 -2.0339 0.9788
-3.6739 3.3465 -2.0339 0.9788
-3.9571 3.0062 -2.0339 0.9788
-4.7573 1.4364 -2.0339 0.9788
-2.1216 0.4391 -0.8867 0.9907
-2.1102 0.2437 -0.8694 0.9909
-2.1227 0.0550 -0.8691 0.9909
-0.9646 4.5662 -2.0339 0.9798
-1.3672 4.4622 -2.0339 0.9798
-1.7589 4.3228 -2.0339 0.9798
-2.1366 4.1491 -2.0339 0.9798
-2.8383 3.7046 -2.0339 0.9798
-3.4501 3.1427 -2.0339 0.9798
-4.1577 2.1196 -2.0339 0.9798
-2.0637 0.6231 -0.9395 0.9906
-1.9070 0.2203 -0.8366 0.9917
-1.9189 0.0497 -0.8366 0.9917
-1.9168 -0.1214 -0.8370 0.9917
-1.2872 4.2013 -2.0339 0.9808
-1.6561 4.0700 -2.0339 0.9808
-2.0116 3.9065 -2.0339 0.9808
-2.3513 3.7119 -2.0339 0.9808
-2.6723 3.4879 -2.0339 0.9808
-2.9721 3.2363 -2.0339 0.9808
-3.2483 2.9589 -2.0339 0.9808
-3.4988 2.6581 -2.0339 0.9808
-3.7214 2.3362 -2.0339 0.9808
-3.9146 1.9957 -2.0339 0.9808
-1.6092 0.1859 -0.7498 0.9929
-1.5808 0.0409 -0.7320 0.9931
-1.2146 3.9646 -2.0339 0.9817
-2.5218 3.2914 -2.0339 0.9817
-2.8046 3.0539 -2.0339 0.9817
-1.7324 0.6966 -0.9159 0.9917
-1.2952 0.3911 -0.6637 0.9940
-1.3513 -0.0856 -0.6642 0.9940
-0.8104 3.8359 -2.0339 0.9825
-1.1486 3.7486 -2.0339 0.9825
-1.4775 3.6315 -2.0339 0.9825
-2.8984 2.6401 -2.0339 0.9825
-3.1218 2.3717 -2.0339 0.9825
-3.3205 2.0845 -2.0339 0.9825
-3.4928 1.7807 -2.0339 0.9825
-1.1205 0.4505 -0.6265 0.9946
-1.1780 0.2438 -0.6241 0.9946
-1.1995 0.1385 -0.6264 0.9946
-1.1998 -0.0760 -0.6237 0.9946
-1.0879 3.5506 -2.0339 0.9832
-1.3996 3.4397 -2.0339 0.9832
-1.7001 3.3015 -2.0339 0.9832
-1.9872 3.1371 -2.0339 0.9832
-2.2585 2.9478 -2.0339 0.9832
-2.5119 2.7351 -2.0339 0.9832
-2.7453 2.5007 -2.0339 0.9832
-1.0579 0.2190 -0.5917 0.9951
-1.0775 0.1244 -0.5941 0.9951
-0.7282 3.4468 -2.0339 0.9839
-1.3277 3.2631 -2.0339 0.9839
-1.6129 3.1320 -2.0339 0.9839
-1.8852 2.9760 -2.0339 0.9839
-2.3829 2.5946 -2.0339 0.9839
-2.8051 2.1311 -2.0339 0.9839
-2.9836 1.8730 -2.0339 0.9839
-0.9377 0.3770 -0.5835 0.9953
-0.9868 0.1140 -0.5735 0.9954
-0.9899 0.0256 -0.5717 0.9954
-0.9898 -0.0627 -0.5726 0.9954
