ply
format ascii 1.0
element vertex 192
property float32 x
property float32 y
property float32 z
property float32 I
end_header
16.7018 -4.2788 -0.8744 0.9333
2.8275 -6.1295 -0.6481 0.9732
2.7455 -5.9516 -0.7786 0.9739
9.8053 -14.0361 -2.0338 0.9334
11.0113 -13.1116 -2.0338 0.9334
14.0745 -9.7514 -2.0339 0.9334
14.8838 -8.4652 -2.0339 0.9334
15.5759 -7.1123 -2.0340 0.9334
16.1453 -5.7033 -2.0340 0.9334
17.0777 -1.2529 -2.0340 0.9333
2.3700 -14.1567 -2.0338 0.9437
1.7006 -6.5333 -0.9565 0.9731
2.1897 -6.1231 -0.9214 0.9741
2.7215 -5.8996 -0.9206 0.9741
8.2205 -11.7673 -2.0338 0.9437
10.1698 -10.1305 -2.0339 0.9437
11.0280 -9.1890 -2.0339 0.9437
11.7993 -8.1751 -2.0339 0.9437
12.4779 -7.0968 -2.0339 0.9437
13.0580 -5.9626 -2.0339 0.9437
13.5354 -4.7814 -2.0340 0.9437
13.9061 -3.5625 -2.0340 0.9437
14.1674 -2.3156 -2.0340 0.9437
14.3170 -1.0503 -2.0340 0.9437
0.9509 -12.3088 -2.0338 0.9512
2.0384 -12.1760 -2.0338 0.9512
1.6599 -6.3769 -1.0855 0.9736
6.1450 -10.7078 -2.0338 0.9512
8.7468 -8.7131 -2.0339 0.9512
9.4850 -7.9033 -2.0339 0.9512
10.1484 -7.0313 -2.0339 0.9512
10.7320 -6.1039 -2.0339 0.9512
11.6415 -4.1124 -2.0340 0.9512
11.9604 -3.0641 -2.0340 0.9512
12.1850 -1.9916 -2.0340 0.9512
12.3137 -0.9034 -2.0340 0.9512
1.7866 -10.6718 -2.0338 0.9569
2.1227 -5.9358 -1.1849 0.9747
3.5054 -6.1082 -1.3237 0.9717
8.8946 -6.1626 -2.0339 0.9569
9.4061 -5.3498 -2.0339 0.9569
10.4827 -2.6855 -2.0340 0.9569
10.7923 -0.7918 -2.0340 0.9569
0.7410 -9.5930 -2.0338 0.9614
1.5887 -9.4895 -2.0338 0.9614
1.6241 -6.2393 -1.3628 0.9740
2.0802 -5.8171 -1.3059 0.9751
2.6307 -5.7028 -1.3275 0.9747
6.1879 -7.3682 -2.0339 0.9614
8.3639 -4.7571 -2.0339 0.9614
9.3213 -2.3880 -2.0340 0.9614
9.5966 -0.7040 -2.0340 0.9614
0.6665 -8.6280 -2.0338 0.9651
1.4289 -8.5349 -2.0338 0.9651
2.0411 -5.7076 -1.4246 0.9754
2.6829 -5.8161 -1.5053 0.9740
3.3067 -5.7620 -1.5614 0.9731
4.9559 -7.0943 -2.0339 0.9651
6.6485 -5.5398 -2.0339 0.9651
7.1135 -4.9286 -2.0339 0.9651
7.5225 -4.2785 -2.0339 0.9651
7.8723 -3.5947 -2.0339 0.9651
8.3835 -2.1477 -2.0339 0.9651
1.5714 -6.0366 -1.6151 0.9746
2.6606 -5.7677 -1.6446 0.9741
4.4986 -6.4396 -2.0339 0.9681
5.0518 -6.0154 -2.0339 0.9681
5.5653 -5.5438 -2.0339 0.9681
6.0349 -5.0286 -2.0339 0.9681
6.4570 -4.4737 -2.0339 0.9681
6.8283 -3.8836 -2.0339 0.9681
7.4070 -2.6165 -2.0339 0.9681
7.6098 -1.9495 -2.0339 0.9681
7.7527 -1.2671 -2.0340 0.9681
7.8346 -0.5747 -2.0340 0.9681
0.5534 -7.1630 -2.0338 0.9706
2.1465 -6.0023 -1.8046 0.9738
3.5760 -6.2312 -2.0339 0.9706
4.1144 -5.8897 -2.0339 0.9706
5.0901 -5.0704 -2.0339 0.9706
6.5355 -2.9843 -2.0339 0.9706
6.7745 -2.3931 -2.0339 0.9706
0.5093 -6.5928 -2.0338 0.9727
1.6657 -6.3992 -2.0338 0.9727
2.2266 -6.2263 -2.0338 0.9727
2.7698 -6.0044 -2.0339 0.9727
4.2526 -5.0637 -2.0339 0.9727
4.6848 -4.6668 -2.0339 0.9727
5.0802 -4.2330 -2.0339 0.9727
5.4355 -3.7660 -2.0339 0.9727
6.0153 -2.7467 -2.0339 0.9727
6.4059 -1.6411 -2.0339 0.9727
1.0102 -6.0346 -2.0338 0.9745
1.5413 -5.9213 -2.0338 0.9745
2.5630 -5.5560 -2.0339 0.9745
3.5040 -5.0160 -2.0339 0.9745
3.9350 -4.6855 -2.0339 0.9745
4.7007 -3.9169 -2.0339 0.9745
5.3187 -3.0251 -2.0339 0.9745
5.7695 -2.0381 -2.0339 0.9745
5.9274 -1.5185 -2.0339 0.9745
1.9151 -5.3553 -2.0339 0.9761
2.3823 -5.1644 -2.0339 0.9761
3.2571 -4.6624 -2.0339 0.9761
3.6577 -4.3553 -2.0339 0.9761
4.0294 -4.0139 -2.0339 0.9761
4.3695 -3.6408 -2.0339 0.9761
4.6751 -3.2391 -2.0339 0.9761
4.9439 -2.8119 -2.0339 0.9761
5.1737 -2.3624 -2.0339 0.9761
5.3629 -1.8944 -2.0339 0.9761
5.5097 -1.4115 -2.0339 0.9761
5.6724 -0.4162 -2.0339 0.9761
0.4087 -5.2915 -2.0338 0.9775
1.3370 -5.1362 -2.0339 0.9775
2.6417 -4.6032 -2.0339 0.9775
3.0394 -4.3509 -2.0339 0.9775
3.4132 -4.0643 -2.0339 0.9775
3.7602 -3.7456 -2.0339 0.9775
4.3626 -3.0226 -2.0339 0.9775
4.6135 -2.6239 -2.0339 0.9775
4.8280 -2.2046 -2.0339 0.9775
5.0044 -1.7679 -2.0339 0.9775
5.2380 -0.8562 -2.0339 0.9775
5.2933 -0.3883 -2.0339 0.9775
0.3827 -4.9547 -2.0338 0.9788
1.2518 -4.8092 -2.0339 0.9788
4.3197 -2.4569 -2.0339 0.9788
4.6858 -1.6553 -2.0339 0.9788
4.8141 -1.2333 -2.0339 0.9788
4.9045 -0.8016 -2.0339 0.9788
1.1756 -4.5163 -2.0339 0.9798
1.9548 -4.2376 -2.0339 0.9798
2.3229 -4.0477 -2.0339 0.9798
2.6726 -3.8258 -2.0339 0.9798
3.3063 -3.2936 -2.0339 0.9798
3.5853 -2.9875 -2.0339 0.9798
4.0567 -2.3073 -2.0339 0.9798
4.2453 -1.9385 -2.0339 0.9798
4.5210 -1.1582 -2.0339 0.9798
4.6058 -0.7528 -2.0339 0.9798
4.6545 -0.3415 -2.0339 0.9798
0.3384 -4.3808 -2.0339 0.9808
0.7255 -4.3336 -2.0339 0.9808
1.1068 -4.2522 -2.0339 0.9808
1.8405 -3.9899 -2.0339 0.9808
2.5163 -3.6021 -2.0339 0.9808
3.9970 -1.8252 -2.0339 0.9808
4.2566 -1.0905 -2.0339 0.9808
4.3365 -0.7088 -2.0339 0.9808
4.3823 -0.3215 -2.0339 0.9808
0.3193 -4.1340 -2.0339 0.9817
1.0445 -4.0126 -2.0339 0.9817
1.3962 -3.9042 -2.0339 0.9817
1.7368 -3.7650 -2.0339 0.9817
2.3745 -3.3991 -2.0339 0.9817
2.9377 -2.9262 -2.0339 0.9817
3.1855 -2.6543 -2.0339 0.9817
3.4083 -2.3614 -2.0339 0.9817
3.6043 -2.0499 -2.0339 0.9817
3.7718 -1.7223 -2.0339 0.9817
3.9096 -1.3811 -2.0339 0.9817
4.1354 -0.3034 -2.0339 0.9817
0.3020 -3.9088 -2.0339 0.9825
0.6473 -3.8667 -2.0339 0.9825
0.9876 -3.7941 -2.0339 0.9825
1.3201 -3.6916 -2.0339 0.9825
1.9514 -3.4004 -2.0339 0.9825
2.5213 -3.0023 -2.0339 0.9825
3.4079 -1.9383 -2.0339 0.9825
3.5664 -1.6285 -2.0339 0.9825
3.7980 -0.9730 -2.0339 0.9825
0.6131 -3.6625 -2.0339 0.9832
0.9355 -3.5937 -2.0339 0.9832
1.2504 -3.4966 -2.0339 0.9832
1.5554 -3.3720 -2.0339 0.9832
1.8483 -3.2208 -2.0339 0.9832
2.3882 -2.8437 -2.0339 0.9832
2.6310 -2.6208 -2.0339 0.9832
2.8529 -2.3772 -2.0339 0.9832
3.2280 -1.8359 -2.0339 0.9832
1.9964 -0.7053 -1.1597 0.9904
1.8570 -0.4758 -1.0499 0.9913
1.8510 -0.3026 -1.0272 0.9915
0.2713 -3.5123 -2.0339 0.9839
1.1862 -3.3171 -2.0339 0.9839
1.7534 -3.0554 -2.0339 0.9839
2.0175 -2.8879 -2.0339 0.9839
2.4958 -2.4862 -2.0339 0.9839
2.8957 -2.0063 -2.0339 0.9839
1.7247 -0.6093 -1.0561 0.9916
1.7142 -0.2802 -1.0028 0.9920
