ply
format ascii 1.0
element vertex 189
property float32 x
property float32 y
property float32 z
property float32 I
end_header
-11.8644 -8.1890 -0.7311 0.9439
-11.6355 -8.0311 -1.0366 0.9449
-15.5860 -7.0846 -2.0337 0.9334
-11.4311 -7.8900 -1.6499 0.9456
-12.1515 -12.0602 -2.0337 0.9334
-11.0347 -13.0898 -2.0337 0.9334
-4.3463 -16.5597 -2.0337 0.9334
-2.8615 -16.8798 -2.0337 0.9334
0.1639 -17.1200 -2.0337 0.9334
1.6807 -17.0382 -2.0337 0.9334
3.1842 -16.8223 -2.0337 0.9334
-13.5419 -4.7580 -2.0337 0.9437
-13.0668 -5.9395 -2.0337 0.9437
-12.4889 -7.0743 -2.0337 0.9437
-11.8127 -8.1534 -2.0337 0.9437
-11.0436 -9.1682 -2.0337 0.9437
-6.0378 -13.0215 -2.0337 0.9437
-4.8599 -13.5055 -2.0337 0.9437
-3.6438 -13.8832 -2.0337 0.9437
-2.3990 -14.1515 -2.0337 0.9437
-1.1352 -14.3085 -2.0337 0.9437
0.1374 -14.3529 -2.0337 0.9437
1.4090 -14.2843 -2.0338 0.9437
2.6695 -14.1033 -2.0338 0.9437
-11.6473 -4.0924 -2.0338 0.9512
-11.2387 -5.1086 -2.0337 0.9512
-10.7416 -6.0846 -2.0337 0.9512
-10.1601 -7.0127 -2.0337 0.9512
-6.1653 -10.6954 -2.0337 0.9512
-5.1931 -11.1998 -2.0337 0.9512
-4.1800 -11.6160 -2.0337 0.9512
-3.1340 -11.9408 -2.0337 0.9512
0.1182 -12.3448 -2.0338 0.9512
1.2119 -12.2858 -2.0338 0.9512
2.2961 -12.1301 -2.0338 0.9512
-10.2084 -3.5868 -2.0338 0.9569
-9.8503 -4.4774 -2.0338 0.9569
-9.4146 -5.3329 -2.0338 0.9569
-8.9049 -6.1463 -2.0338 0.9569
-8.3251 -6.9114 -2.0338 0.9569
-7.6797 -7.6221 -2.0337 0.9569
-6.9739 -8.2727 -2.0337 0.9569
-4.5516 -9.8162 -2.0338 0.9569
-3.6636 -10.1810 -2.0338 0.9569
-1.8084 -10.6680 -2.0338 0.9569
1.0622 -10.7680 -2.0338 0.9569
2.0124 -10.6316 -2.0338 0.9569
-8.7591 -3.9814 -2.0338 0.9614
-8.3716 -4.7421 -2.0338 0.9614
-7.4028 -6.1457 -2.0338 0.9614
-6.8289 -6.7776 -2.0338 0.9614
-6.2013 -7.3563 -2.0338 0.9614
-5.5250 -7.8770 -2.0338 0.9614
-4.8050 -8.3356 -2.0338 0.9614
-2.4425 -9.3062 -2.0338 0.9614
-0.7610 -9.5914 -2.0338 0.9614
0.0921 -9.6211 -2.0338 0.9614
0.9445 -9.5751 -2.0338 0.9614
1.7895 -9.4537 -2.0338 0.9614
-8.1643 -2.8686 -2.0338 0.9651
-7.1219 -4.9156 -2.0338 0.9651
-6.6582 -5.5275 -2.0338 0.9651
-5.5775 -6.6163 -2.0338 0.9651
-4.3216 -7.4971 -2.0338 0.9651
-2.9300 -8.1424 -2.0338 0.9651
-2.1969 -8.3701 -2.0338 0.9651
-1.4463 -8.5319 -2.0338 0.9651
-0.6844 -8.6265 -2.0338 0.9651
0.0829 -8.6533 -2.0338 0.9651
0.8495 -8.6119 -2.0338 0.9651
1.6095 -8.5027 -2.0338 0.9651
-7.4109 -2.6039 -2.0338 0.9681
-6.8347 -3.8715 -2.0338 0.9681
-6.4646 -4.4620 -2.0338 0.9681
-6.0437 -5.0174 -2.0338 0.9681
-5.0629 -6.0057 -2.0338 0.9681
-3.3043 -7.1262 -2.0338 0.9681
-1.3129 -7.7445 -2.0338 0.9681
0.7711 -7.8171 -2.0338 0.9681
1.4609 -7.7181 -2.0338 0.9681
-6.7780 -2.3815 -2.0338 0.9706
-6.5403 -2.9729 -2.0338 0.9706
-6.2511 -3.5409 -2.0338 0.9706
-5.9126 -4.0810 -2.0338 0.9706
-5.5276 -4.5890 -2.0338 0.9706
-5.0991 -5.0608 -2.0338 0.9706
-4.6305 -5.4929 -2.0338 0.9706
-4.1254 -5.8817 -2.0338 0.9706
-3.5879 -6.2242 -2.0338 0.9706
-1.8238 -6.9489 -2.0338 0.9706
-1.2008 -7.0832 -2.0338 0.9706
0.7052 -7.1496 -2.0338 0.9706
1.3361 -7.0590 -2.0338 0.9706
-5.4419 -3.7561 -2.0338 0.9727
-4.2619 -5.0556 -2.0338 0.9727
-3.3023 -5.7287 -2.0338 0.9727
-1.6787 -6.3957 -2.0338 0.9727
-0.5230 -6.5917 -2.0338 0.9727
0.0633 -6.6121 -2.0338 0.9727
0.6491 -6.5805 -2.0338 0.9727
1.2298 -6.4971 -2.0338 0.9727
-5.7725 -2.0282 -2.0338 0.9745
-5.5700 -2.5319 -2.0338 0.9745
-3.5134 -5.0091 -2.0338 0.9745
-2.5738 -5.5508 -2.0338 0.9745
-2.0717 -5.7571 -2.0338 0.9745
0.6006 -6.0890 -2.0338 0.9745
1.1379 -6.0118 -2.0338 0.9745
-5.1775 -2.3535 -2.0338 0.9761
-4.6807 -3.2307 -2.0338 0.9761
-4.3759 -3.6328 -2.0338 0.9761
-4.0366 -4.0063 -2.0338 0.9761
-3.6657 -4.3484 -2.0338 0.9761
-3.2659 -4.6561 -2.0338 0.9761
-2.8404 -4.9273 -2.0338 0.9761
-1.4438 -5.5010 -2.0338 0.9761
-0.9505 -5.6074 -2.0338 0.9761
1.0577 -5.5882 -2.0338 0.9761
-4.0834 -3.3900 -2.0338 0.9775
-2.6505 -4.5980 -2.0338 0.9775
-1.3473 -5.1334 -2.0338 0.9775
-0.8870 -5.2326 -2.0338 0.9775
0.0508 -5.3070 -2.0338 0.9775
-4.3239 -2.4492 -2.0338 0.9788
-4.0897 -2.8228 -2.0338 0.9788
-3.5271 -3.5006 -2.0338 0.9788
-3.2029 -3.7995 -2.0338 0.9788
-2.0904 -4.5083 -2.0338 0.9788
-1.6826 -4.6759 -2.0338 0.9788
0.0475 -4.9692 -2.0338 0.9788
0.4878 -4.9454 -2.0338 0.9788
0.9242 -4.8827 -2.0339 0.9788
-4.4029 -1.5470 -2.0338 0.9798
-4.0605 -2.3001 -2.0338 0.9798
-3.5906 -2.9809 -2.0338 0.9798
-3.3123 -3.2874 -2.0338 0.9798
-3.0079 -3.5680 -2.0338 0.9798
-2.6798 -3.8206 -2.0338 0.9798
-1.5802 -4.3911 -2.0338 0.9798
-1.1848 -4.5139 -2.0338 0.9798
0.0446 -4.6665 -2.0338 0.9798
-1.7989 -0.6321 -0.8826 0.9916
-4.0000 -1.8182 -2.0338 0.9808
-3.8231 -2.1656 -2.0338 0.9808
-3.3806 -2.8066 -2.0338 0.9808
-2.5231 -3.5972 -2.0338 0.9808
-2.1943 -3.8067 -2.0338 0.9808
-1.1154 -4.2499 -2.0338 0.9808
0.4313 -4.3727 -2.0339 0.9808
0.8172 -4.3172 -2.0339 0.9808
-3.7746 -1.7158 -2.0338 0.9817
-3.1902 -2.6485 -2.0338 0.9817
-2.9429 -2.9208 -2.0338 0.9817
-2.6725 -3.1701 -2.0338 0.9817
-2.3809 -3.3945 -2.0338 0.9817
-1.7442 -3.7616 -2.0338 0.9817
-1.4039 -3.9014 -2.0338 0.9817
-1.0526 -4.0105 -2.0338 0.9817
0.0396 -4.1461 -2.0339 0.9817
0.7711 -4.0740 -2.0339 0.9817
-1.1347 -0.3987 -0.6239 0.9946
-3.4112 -1.9323 -2.0338 0.9825
-3.0164 -2.5042 -2.0338 0.9825
-2.7826 -2.7617 -2.0338 0.9825
-2.2513 -3.2096 -2.0338 0.9825
-1.9579 -3.3965 -2.0338 0.9825
-1.3275 -3.6889 -2.0338 0.9825
0.3848 -3.9016 -2.0339 0.9825
0.7291 -3.8521 -2.0339 0.9825
-3.2311 -1.8302 -2.0339 0.9832
-3.0561 -2.1094 -2.0339 0.9832
-2.8571 -2.3719 -2.0338 0.9832
-2.6356 -2.6159 -2.0338 0.9832
-2.1324 -3.0402 -2.0338 0.9832
-1.8545 -3.2172 -2.0338 0.9832
-1.2573 -3.4941 -2.0339 0.9832
-0.6207 -3.6612 -2.0339 0.9832
-0.9245 -0.4203 -0.5863 0.9953
-2.8992 -2.0011 -2.0339 0.9839
-2.7104 -2.2502 -2.0339 0.9839
-2.2705 -2.6934 -2.0339 0.9839
-2.0229 -2.8841 -2.0339 0.9839
-1.4819 -3.1959 -2.0339 0.9839
-1.1928 -3.3147 -2.0339 0.9839
-0.8943 -3.4073 -2.0339 0.9839
-0.5888 -3.4732 -2.0339 0.9839
-0.2787 -3.5117 -2.0339 0.9839
0.0337 -3.5226 -2.0339 0.9839
0.3458 -3.5058 -2.0339 0.9839
