ply
format ascii 1.0
element vertex 201
property float32 x
property float32 y
property float32 z
property float32 I
end_header
2.8509 18.8443 3.3606 0.9255
2.6908 17.7856 2.7557 0.9298
1.1498 18.5707 2.8504 0.9275
2.8664 18.9474 2.0578 0.9258
2.6345 17.4141 1.4909 0.9317
2.6697 17.6465 0.7037 0.9310
2.7154 17.9489 0.3066 0.9300
2.8150 18.6074 -0.9544 0.9274
14.6964 8.7603 -1.2545 0.9337
2.7995 18.5043 -1.3722 0.9277
2.7927 18.4596 -1.7924 0.9277
17.0450 1.6410 -2.0341 0.9333
16.4917 4.6104 -2.0341 0.9333
16.0209 6.0470 -2.0341 0.9333
15.4252 7.4365 -2.0341 0.9333
11.9003 12.3137 -2.0341 0.9333
9.5516 14.2131 -2.0341 0.9333
6.9057 15.6702 -2.0341 0.9333
5.4967 16.2182 -2.0341 0.9333
4.0448 16.6397 -2.0341 0.9333
14.2896 1.3757 -2.0340 0.9437
14.1126 2.6307 -2.0341 0.9437
13.4310 5.0695 -2.0341 0.9437
12.9316 6.2343 -2.0341 0.9437
12.3314 7.3505 -2.0341 0.9437
11.6351 8.4095 -2.0341 0.9437
8.0075 11.9154 -2.0341 0.9437
5.7893 13.1370 -2.0341 0.9437
2.1474 14.1944 -2.0341 0.9437
0.8871 14.3284 -2.0341 0.9437
11.8911 3.3243 -2.0340 0.9512
11.5516 4.3601 -2.0340 0.9512
10.6059 6.3220 -2.0341 0.9512
10.0070 7.2328 -2.0341 0.9512
9.3301 8.0872 -2.0341 0.9512
8.5805 8.8786 -2.0341 0.9512
7.7640 9.6007 -2.0341 0.9512
6.8870 10.2481 -2.0341 0.9512
5.9563 10.8155 -2.0341 0.9512
4.9792 11.2987 -2.0341 0.9512
2.9165 11.9978 -2.0341 0.9512
1.8470 12.2082 -2.0341 0.9512
0.7630 12.3234 -2.0340 0.9512
10.7716 1.0370 -2.0340 0.9569
10.6382 1.9830 -2.0340 0.9569
10.4220 2.9136 -2.0340 0.9569
8.7706 6.3392 -2.0340 0.9569
7.5204 7.7816 -2.0341 0.9569
4.3640 9.9027 -2.0340 0.9569
2.5561 10.5154 -2.0340 0.9569
1.6187 10.6998 -2.0340 0.9569
0.6687 10.8009 -2.0340 0.9569
9.4596 1.7633 -2.0340 0.9614
9.0026 3.3980 -2.0340 0.9614
8.6679 4.1788 -2.0340 0.9614
8.2655 4.9270 -2.0340 0.9614
7.7988 5.6368 -2.0340 0.9614
7.2713 6.3027 -2.0340 0.9614
6.6871 6.9194 -2.0340 0.9614
4.6420 8.4289 -2.0340 0.9614
3.8805 8.8055 -2.0340 0.9614
2.2729 9.3503 -2.0340 0.9614
1.4393 9.5143 -2.0340 0.9614
8.3349 2.3301 -2.0340 0.9651
8.0969 3.0562 -2.0340 0.9651
7.7959 3.7583 -2.0340 0.9651
6.0143 6.2233 -2.0340 0.9651
5.4420 6.7295 -2.0340 0.9651
4.1749 7.5810 -2.0340 0.9651
2.7779 8.1966 -2.0340 0.9651
2.0443 8.4096 -2.0340 0.9651
1.2946 8.5571 -2.0340 0.9651
7.3496 2.7741 -2.0340 0.9681
7.0764 3.4115 -2.0340 0.9681
6.7479 4.0223 -2.0340 0.9681
5.9362 5.1454 -2.0340 0.9681
5.4593 5.6489 -2.0340 0.9681
4.3818 6.5203 -2.0340 0.9681
3.7896 6.8813 -2.0340 0.9681
3.1680 7.1887 -2.0340 0.9681
2.5216 7.4401 -2.0340 0.9681
1.1751 7.7674 -2.0340 0.9681
0.4855 7.8407 -2.0340 0.9681
7.0632 1.3166 -2.0340 0.9706
6.9196 1.9344 -2.0340 0.9706
6.4721 3.1201 -2.0340 0.9706
6.1716 3.6788 -2.0340 0.9706
4.0076 5.9634 -2.0340 0.9706
3.4660 6.2936 -2.0340 0.9706
2.8974 6.5748 -2.0340 0.9706
2.3062 6.8047 -2.0340 0.9706
1.0748 7.1040 -2.0340 0.9706
0.4439 7.1711 -2.0340 0.9706
6.5824 0.6337 -2.0340 0.9727
6.5009 1.2118 -2.0340 0.9727
6.1868 2.3352 -2.0340 0.9727
5.3596 3.8737 -2.0340 0.9727
4.5955 4.7552 -2.0340 0.9727
3.6885 5.4887 -2.0340 0.9727
3.1901 5.7926 -2.0340 0.9727
2.6668 6.0514 -2.0340 0.9727
2.1226 6.2629 -2.0340 0.9727
1.5620 6.4258 -2.0340 0.9727
0.4087 6.6002 -2.0340 0.9727
6.0907 0.5864 -2.0340 0.9745
6.0154 1.1213 -2.0340 0.9745
5.2561 3.1330 -2.0340 0.9745
3.4130 5.0787 -2.0340 0.9745
2.4675 5.5994 -2.0340 0.9745
1.9641 5.7952 -2.0340 0.9745
0.9153 6.0501 -2.0340 0.9745
0.3781 6.1072 -2.0340 0.9745
5.6615 0.5450 -2.0340 0.9761
5.5914 1.0422 -2.0340 0.9761
5.1234 2.4700 -2.0340 0.9761
4.8856 2.9122 -2.0340 0.9761
4.2979 3.7254 -2.0340 0.9761
3.9526 4.0899 -2.0340 0.9761
3.1725 4.7208 -2.0340 0.9761
1.8257 5.3867 -2.0340 0.9761
0.8508 5.6237 -2.0340 0.9761
5.2831 0.5086 -2.0340 0.9775
5.2177 0.9726 -2.0340 0.9775
5.1116 1.4290 -2.0340 0.9775
3.3374 4.1270 -2.0340 0.9775
2.5604 4.6492 -2.0340 0.9775
2.1404 4.8569 -2.0340 0.9775
1.2537 5.1574 -2.0340 0.9775
0.7939 5.2479 -2.0340 0.9775
0.3280 5.2974 -2.0340 0.9775
4.8855 0.9107 -2.0340 0.9787
4.4766 2.1581 -2.0340 0.9787
4.2688 2.5446 -2.0340 0.9787
3.7553 3.2550 -2.0340 0.9787
3.1250 3.8642 -2.0340 0.9787
1.5952 4.7067 -2.0340 0.9787
1.1739 4.8290 -2.0340 0.9787
0.7434 4.9137 -2.0340 0.9787
4.5880 0.8552 -2.0339 0.9798
4.4946 1.2565 -2.0340 0.9798
4.2040 2.0267 -2.0340 0.9798
4.0088 2.3896 -2.0340 0.9798
3.5266 3.0568 -2.0340 0.9798
3.2433 3.3559 -2.0340 0.9798
2.9346 3.6289 -2.0340 0.9798
2.6032 3.8736 -2.0340 0.9798
0.6981 4.6145 -2.0340 0.9798
4.3739 0.4211 -2.0339 0.9808
4.3196 0.8052 -2.0339 0.9808
4.2318 1.1830 -2.0340 0.9808
3.9581 1.9082 -2.0340 0.9808
3.7744 2.2499 -2.0340 0.9808
3.5613 2.5740 -2.0340 0.9808
3.3204 2.8780 -2.0340 0.9808
3.0536 3.1597 -2.0340 0.9808
2.7630 3.4167 -2.0340 0.9808
1.7720 4.0210 -2.0340 0.9808
1.0379 4.2697 -2.0340 0.9808
0.6573 4.3446 -2.0340 0.9808
4.1274 0.3973 -2.0339 0.9817
4.0763 0.7598 -2.0339 0.9817
3.7351 1.8007 -2.0340 0.9817
3.5617 2.1231 -2.0340 0.9817
3.1333 2.7159 -2.0340 0.9817
2.8815 2.9816 -2.0340 0.9817
1.6721 3.7944 -2.0340 0.9817
0.6202 4.0998 -2.0340 0.9817
0.2562 4.1386 -2.0339 0.9817
2.0736 0.1996 -1.0807 0.9907
2.1048 0.3923 -1.1107 0.9904
3.7759 1.0555 -2.0339 0.9825
3.6680 1.3845 -2.0339 0.9825
3.5316 1.7026 -2.0339 0.9825
3.1776 2.2966 -2.0340 0.9825
2.9626 2.5679 -2.0340 0.9825
2.1868 3.2541 -2.0340 0.9825
1.8913 3.4343 -2.0340 0.9825
1.5811 3.5877 -2.0340 0.9825
1.2585 3.7132 -2.0340 0.9825
0.9261 3.8097 -2.0340 0.9825
0.5865 3.8765 -2.0339 0.9825
0.2423 3.9131 -2.0339 0.9825
1.8496 0.1780 -1.0177 0.9916
1.8665 0.5218 -1.0615 0.9912
3.3452 1.6127 -2.0339 0.9832
3.0098 2.1754 -2.0340 0.9832
2.3351 2.8876 -2.0340 0.9832
0.5555 3.6718 -2.0339 0.9832
0.2295 3.7065 -2.0339 0.9832
1.7205 0.1656 -0.9979 0.9920
1.7138 0.3194 -1.0065 0.9920
1.7111 0.4783 -1.0258 0.9918
3.1734 1.5299 -2.0339 0.9839
3.0261 1.8038 -2.0339 0.9839
2.8552 2.0636 -2.0339 0.9839
2.6621 2.3074 -2.0339 0.9839
2.4482 2.5332 -2.0339 0.9839
1.9650 2.9240 -2.0340 0.9839
1.6995 3.0859 -2.0339 0.9839
1.4207 3.2237 -2.0339 0.9839
1.1308 3.3365 -2.0339 0.9839
