ply
format ascii 1.0
element vertex 178
property float32 x
property float32 y
property float32 z
property float32 I
end_header
16.5533 -3.7995 -0.8613 0.9342
16.2904 -3.7391 -1.2255 0.9352
1.9147 -17.0135 -2.0337 0.9334
3.4039 -16.7793 -2.0337 0.9334
1.8455 -6.2245 -0.7712 0.9742
2.4427 -6.1819 -0.7896 0.9736
2.9662 -5.9215 -0.7867 0.9737
8.9853 -14.5746 -2.0338 0.9334
11.4006 -12.7746 -2.0339 0.9334
12.4802 -11.7223 -2.0339 0.9334
13.4632 -10.5792 -2.0339 0.9334
15.1091 -8.0562 -2.0339 0.9334
15.7593 -6.6960 -2.0340 0.9334
16.2874 -5.2838 -2.0340 0.9334
16.4154 -3.7678 -2.0006 0.9344
16.9617 -2.3478 -2.0340 0.9333
17.1026 -0.8467 -2.0340 0.9333
1.6053 -14.2636 -2.0338 0.9437
2.8538 -14.0671 -2.0338 0.9437
2.4164 -6.1155 -0.9317 0.9738
7.5329 -12.2188 -2.0338 0.9437
8.5786 -11.5089 -2.0338 0.9437
9.5577 -10.7097 -2.0339 0.9437
10.4629 -9.8275 -2.0339 0.9437
12.6668 -6.7540 -2.0339 0.9437
13.2119 -5.6136 -2.0340 0.9437
14.2198 -1.9682 -2.0340 0.9437
14.3379 -0.7098 -2.0340 0.9437
1.3807 -12.2680 -2.0338 0.9512
1.7916 -6.0429 -1.0383 0.9748
2.9129 -5.8151 -1.0714 0.9740
8.2205 -9.2113 -2.0339 0.9512
11.7440 -3.8099 -2.0340 0.9512
12.0337 -2.7621 -2.0340 0.9512
12.2302 -1.6929 -2.0340 0.9512
12.3317 -0.6105 -2.0340 0.9512
1.2101 -10.7524 -2.0338 0.9569
1.7896 -6.0361 -1.1834 0.9747
2.3224 -5.8776 -1.1879 0.9746
5.6785 -9.2108 -2.0338 0.9569
7.2049 -8.0733 -2.0339 0.9569
8.5084 -6.6857 -2.0339 0.9569
9.0635 -5.9114 -2.0339 0.9569
9.9594 -4.2317 -2.0339 0.9569
10.2930 -3.3392 -2.0340 0.9569
10.5470 -2.4208 -2.0340 0.9569
10.7191 -1.4837 -2.0340 0.9569
10.8081 -0.5351 -2.0340 0.9569
1.0761 -9.5612 -2.0338 0.9614
2.3230 -5.8790 -1.3362 0.9745
6.4067 -7.1788 -2.0339 0.9614
7.0134 -6.5875 -2.0339 0.9614
7.5657 -5.9450 -2.0339 0.9614
8.0594 -5.2565 -2.0339 0.9614
8.8559 -3.7628 -2.0339 0.9614
1.2658 -6.2395 -1.4963 0.9742
1.7301 -5.8354 -1.4304 0.9753
5.1718 -6.9385 -2.0339 0.9651
6.3078 -5.9248 -2.0339 0.9651
7.2486 -4.7277 -2.0339 0.9651
7.6364 -4.0718 -2.0339 0.9651
8.2319 -2.6705 -2.0339 0.9651
8.4349 -1.9361 -2.0340 0.9651
1.2606 -6.2138 -1.6416 0.9741
1.7470 -5.8922 -1.5912 0.9749
2.8451 -5.6797 -1.6448 0.9741
4.1223 -6.6867 -2.0339 0.9681
6.5796 -4.2914 -2.0339 0.9681
6.9316 -3.6960 -2.0339 0.9681
7.2299 -3.0719 -2.0339 0.9681
7.7814 -1.0771 -2.0340 0.9681
7.8460 -0.3884 -2.0340 0.9681
0.8035 -7.1393 -2.0338 0.9706
1.4284 -7.0409 -2.0338 0.9706
2.6402 -6.6817 -2.0338 0.9706
5.2368 -4.9187 -2.0339 0.9706
5.6491 -4.4390 -2.0339 0.9706
6.0177 -3.9249 -2.0339 0.9706
6.3397 -3.3804 -2.0339 0.9706
6.6125 -2.8096 -2.0339 0.9706
7.1169 -0.9851 -2.0340 0.9706
7.1760 -0.3553 -2.0340 0.9706
1.3146 -6.4804 -2.0338 0.9727
2.9616 -5.9122 -2.0339 0.9727
3.9519 -5.3018 -2.0339 0.9727
4.4029 -4.9336 -2.0339 0.9727
4.8198 -4.5272 -2.0339 0.9727
5.1995 -4.0857 -2.0339 0.9727
6.2900 -2.0406 -2.0339 0.9727
6.4452 -1.4794 -2.0339 0.9727
1.2164 -5.9964 -2.0338 0.9745
2.2485 -5.6905 -2.0339 0.9745
2.7404 -5.4707 -2.0339 0.9745
3.6567 -4.9058 -2.0339 0.9745
4.4599 -4.1890 -2.0339 0.9745
5.1250 -3.3427 -2.0339 0.9745
5.6316 -2.3928 -2.0339 0.9745
5.8202 -1.8882 -2.0339 0.9745
5.9638 -1.3689 -2.0339 0.9745
6.1114 -0.3026 -2.0339 0.9745
0.6361 -5.6517 -2.0338 0.9761
2.0900 -5.2895 -2.0339 0.9761
2.5472 -5.0851 -2.0339 0.9761
2.9847 -4.8414 -2.0339 0.9761
4.1455 -3.8938 -2.0339 0.9761
4.4720 -3.5141 -2.0339 0.9761
4.7638 -3.1071 -2.0339 0.9761
5.0187 -2.6760 -2.0339 0.9761
5.2347 -2.2242 -2.0339 0.9761
5.5435 -1.2724 -2.0339 0.9761
0.5936 -5.2740 -2.0338 0.9775
1.0552 -5.2013 -2.0339 0.9775
1.5086 -5.0884 -2.0339 0.9775
2.3770 -4.7453 -2.0339 0.9775
2.7852 -4.5178 -2.0339 0.9775
3.1719 -4.2553 -2.0339 0.9775
4.1732 -3.2792 -2.0339 0.9775
4.4455 -2.8994 -2.0339 0.9775
5.1730 -1.1874 -2.0339 0.9775
0.9880 -4.8702 -2.0339 0.9788
1.4126 -4.7645 -2.0339 0.9788
1.8262 -4.6217 -2.0339 0.9788
2.9699 -3.9844 -2.0339 0.9788
3.3089 -3.7077 -2.0339 0.9788
3.9075 -3.0705 -2.0339 0.9788
4.7271 -1.5335 -2.0339 0.9788
4.8437 -1.1118 -2.0339 0.9788
0.5219 -4.6375 -2.0339 0.9798
2.4491 -3.9725 -2.0339 0.9798
3.1074 -3.4819 -2.0339 0.9798
3.6696 -2.8834 -2.0339 0.9798
4.4392 -1.4401 -2.0339 0.9798
4.6229 -0.6399 -2.0339 0.9798
4.6613 -0.2308 -2.0339 0.9798
1.6147 -4.0865 -2.0339 0.9808
1.9679 -3.9286 -2.0339 0.9808
2.3059 -3.7402 -2.0339 0.9808
2.6259 -3.5229 -2.0339 0.9808
3.4550 -2.7148 -2.0339 0.9808
3.6804 -2.4004 -2.0339 0.9808
3.8773 -2.0674 -2.0339 0.9808
4.0441 -1.7183 -2.0339 0.9808
4.1796 -1.3559 -2.0339 0.9808
4.3887 -0.2173 -2.0339 0.9808
0.4637 -4.1203 -2.0339 0.9817
0.8243 -4.0636 -2.0339 0.9817
1.1786 -3.9753 -2.0339 0.9817
1.5237 -3.8562 -2.0339 0.9817
1.8570 -3.7072 -2.0339 0.9817
2.1760 -3.5295 -2.0339 0.9817
3.0223 -2.8387 -2.0339 0.9817
3.2603 -2.5619 -2.0339 0.9817
3.4730 -2.2652 -2.0339 0.9817
4.0414 -0.9276 -2.0339 0.9817
1.7559 -3.5053 -2.0339 0.9825
2.0574 -3.3373 -2.0339 0.9825
2.6105 -2.9251 -2.0339 0.9825
3.4595 -1.8446 -2.0339 0.9825
3.6084 -1.5332 -2.0339 0.9825
2.0781 -0.1029 -1.0794 0.9907
0.4153 -3.6902 -2.0339 0.9832
0.7383 -3.6393 -2.0339 0.9832
1.0555 -3.5603 -2.0339 0.9832
2.2193 -2.9774 -2.0339 0.9832
2.7067 -2.5424 -2.0339 0.9832
2.9199 -2.2944 -2.0339 0.9832
1.8886 -0.6127 -1.0875 0.9910
1.8576 -0.4264 -1.0438 0.9913
1.8455 -0.2555 -1.0204 0.9915
1.8528 -0.0917 -1.0160 0.9916
0.7004 -3.4524 -2.0339 0.9839
1.0013 -3.3775 -2.0339 0.9839
1.5778 -3.1497 -2.0339 0.9839
1.8487 -2.9987 -2.0339 0.9839
2.3456 -2.6284 -2.0339 0.9839
2.7700 -2.1766 -2.0339 0.9839
3.1086 -1.6575 -2.0339 0.9839
1.7149 -0.3936 -1.0158 0.9919
