ply
format ascii 1.0
element vertex 182
property float32 x
property float32 y
property float32 z
property float32 I
end_header
-12.0071 -7.9103 -1.0543 0.9440
-11.7424 -7.7359 -1.3500 0.9451
-16.9852 -2.1519 -2.0337 0.9334
-16.7181 -3.6916 -2.0337 0.9334
-16.3118 -5.2004 -2.0337 0.9334
-15.7696 -6.6660 -2.0337 0.9334
-11.7949 -7.7706 -1.6778 0.9447
-13.3784 -10.6830 -2.0337 0.9334
-11.2159 -12.9348 -2.0337 0.9334
-9.9899 -13.9036 -2.0337 0.9334
-7.2990 -15.4865 -2.0337 0.9334
-4.3654 -16.5546 -2.0337 0.9334
-2.8379 -16.8838 -2.0337 0.9334
-14.3308 0.8118 -2.0338 0.9437
-14.3451 -0.4983 -2.0338 0.9437
-14.0159 -3.0949 -2.0337 0.9437
-13.6753 -4.3599 -2.0337 0.9437
-12.6560 -6.7707 -2.0337 0.9437
-11.9860 -7.8964 -2.0337 0.9437
-11.2161 -8.9563 -2.0337 0.9437
-10.3527 -9.9417 -2.0337 0.9437
-9.4031 -10.8442 -2.0337 0.9437
-6.1192 -12.9834 -2.0337 0.9437
-4.9100 -13.4874 -2.0337 0.9437
-3.6598 -13.8789 -2.0337 0.9437
-2.3792 -14.1548 -2.0337 0.9437
-12.3258 0.6982 -2.0338 0.9512
-11.3711 -4.8067 -2.0337 0.9512
-9.6469 -7.7033 -2.0337 0.9512
-8.9043 -8.5508 -2.0337 0.9512
-6.2594 -10.6406 -2.0337 0.9512
-5.2632 -11.1670 -2.0337 0.9512
-4.2230 -11.6004 -2.0337 0.9512
-2.0463 -12.1745 -2.0337 0.9512
-10.8031 0.6120 -2.0338 0.9569
-10.8138 -0.3756 -2.0338 0.9569
-10.7345 -1.3600 -2.0338 0.9569
-10.5657 -2.3331 -2.0338 0.9569
-10.3090 -3.2867 -2.0338 0.9569
-8.4552 -6.7517 -2.0338 0.9569
-6.3136 -8.7870 -2.0337 0.9569
-5.4861 -9.3261 -2.0337 0.9569
-4.6130 -9.7875 -2.0338 0.9569
-3.7014 -10.1673 -2.0338 0.9569
-2.7590 -10.4625 -2.0338 0.9569
-9.6062 0.5441 -2.0338 0.9614
-9.3952 -2.0746 -2.0338 0.9614
-8.8622 -3.7462 -2.0338 0.9614
-8.0345 -5.2932 -2.0338 0.9614
-7.5184 -6.0037 -2.0338 0.9614
-6.9398 -6.6642 -2.0338 0.9614
-6.3032 -7.2692 -2.0338 0.9614
-4.8784 -8.2929 -2.0338 0.9614
-4.1019 -8.7032 -2.0338 0.9614
-8.4500 -1.8659 -2.0338 0.9651
-7.9707 -3.3693 -2.0338 0.9651
-7.6303 -4.0821 -2.0338 0.9651
-7.2263 -4.7607 -2.0338 0.9651
-6.7621 -5.3997 -2.0338 0.9651
-4.3877 -7.4587 -2.0338 0.9651
-2.9602 -8.1315 -2.0338 0.9651
-1.4344 -8.5339 -2.0338 0.9651
-7.8504 -0.2727 -2.0338 0.9681
-7.7928 -0.9873 -2.0338 0.9681
-6.9262 -3.7054 -2.0338 0.9681
-5.1460 -5.9346 -2.0338 0.9681
-4.5834 -6.3791 -2.0338 0.9681
-3.3488 -7.1054 -2.0338 0.9681
-1.3020 -7.7464 -2.0338 0.9681
-7.1728 0.4063 -2.0338 0.9706
-7.1273 -0.9030 -2.0338 0.9706
-7.0153 -1.5491 -2.0338 0.9706
-6.8448 -2.1823 -2.0338 0.9706
-6.6173 -2.7973 -2.0338 0.9706
-6.3348 -3.3889 -2.0338 0.9706
-5.1818 -4.9761 -2.0338 0.9706
-4.1921 -5.8344 -2.0338 0.9706
-3.6427 -6.1923 -2.0338 0.9706
-3.0629 -6.4986 -2.0338 0.9706
-1.8318 -6.9468 -2.0338 0.9706
-1.1909 -7.0849 -2.0338 0.9706
-6.6018 0.3739 -2.0338 0.9727
-6.5599 -0.8311 -2.0338 0.9727
-6.4568 -1.4258 -2.0338 0.9727
-6.2999 -2.0086 -2.0338 0.9727
-6.0905 -2.5746 -2.0338 0.9727
-5.8305 -3.1192 -2.0338 0.9727
-4.7694 -4.5800 -2.0338 0.9727
-3.3527 -5.6994 -2.0338 0.9727
-1.6860 -6.3938 -2.0338 0.9727
-6.1088 0.3460 -2.0339 0.9745
-6.1148 -0.2124 -2.0338 0.9745
-5.8294 -1.8586 -2.0338 0.9745
-5.6357 -2.3823 -2.0338 0.9745
-4.7812 -3.8179 -2.0338 0.9745
-4.4132 -4.2379 -2.0338 0.9745
-2.6085 -5.5346 -2.0338 0.9745
-2.0930 -5.7494 -2.0338 0.9745
-1.5602 -5.9163 -2.0338 0.9745
-1.0142 -6.0339 -2.0338 0.9745
-5.6783 0.3216 -2.0339 0.9761
-5.2385 -2.2144 -2.0338 0.9761
-5.0148 -2.6828 -2.0338 0.9761
-4.7493 -3.1289 -2.0338 0.9761
-4.1021 -3.9393 -2.0338 0.9761
-3.3186 -4.6187 -2.0338 0.9761
-1.4502 -5.4994 -2.0338 0.9761
-0.9427 -5.6087 -2.0338 0.9761
-5.2988 0.3001 -2.0339 0.9775
-5.3041 -0.1842 -2.0339 0.9775
-5.2652 -0.6671 -2.0338 0.9775
-5.1824 -1.1444 -2.0338 0.9775
-5.0565 -1.6121 -2.0338 0.9775
-4.8884 -2.0664 -2.0338 0.9775
-4.6796 -2.5035 -2.0338 0.9775
-4.4319 -2.9198 -2.0338 0.9775
-4.1472 -3.3117 -2.0338 0.9775
-3.0968 -4.3100 -2.0338 0.9775
-1.3533 -5.1318 -2.0338 0.9775
-2.1227 -0.0738 -0.8693 0.9909
-2.1205 -0.4683 -0.8888 0.9907
-4.7346 -1.5095 -2.0338 0.9788
-4.5772 -1.9349 -2.0338 0.9788
-3.8832 -3.1009 -2.0338 0.9788
-3.5843 -3.4420 -2.0338 0.9788
-3.2556 -3.7545 -2.0338 0.9788
-2.5196 -4.2832 -2.0338 0.9788
-1.2671 -4.8051 -2.0338 0.9788
-0.8237 -4.9007 -2.0338 0.9788
-4.4462 -1.4176 -2.0338 0.9798
-3.6467 -2.9120 -2.0338 0.9798
-2.3662 -4.0224 -2.0338 0.9798
-1.9896 -4.2214 -2.0338 0.9798
-1.5964 -4.3852 -2.0338 0.9798
-1.1899 -4.5125 -2.0338 0.9798
-0.7736 -4.6022 -2.0338 0.9798
-1.5952 0.0903 -0.7396 0.9930
-1.5854 -0.0551 -0.7343 0.9930
-1.6102 -0.2040 -0.7513 0.9929
-1.5915 -0.3515 -0.7544 0.9928
-3.8743 -2.0727 -2.0338 0.9808
-3.6691 -2.4172 -2.0338 0.9808
-2.8785 -3.3197 -2.0338 0.9808
-1.8733 -3.9745 -2.0338 0.9808
-1.5031 -4.1288 -2.0338 0.9808
-1.1204 -4.2486 -2.0338 0.9808
-1.3459 -0.0468 -0.6606 0.9940
-1.3279 -0.2932 -0.6671 0.9940
-1.2872 -0.4104 -0.6627 0.9940
-3.4624 -2.2811 -2.0338 0.9817
-2.9906 -2.8719 -2.0338 0.9817
-2.7163 -3.1326 -2.0338 0.9817
-1.0573 -4.0093 -2.0338 0.9817
-1.1994 0.0679 -0.6232 0.9946
-1.1986 -0.1519 -0.6268 0.9946
-3.4568 -1.8494 -2.0338 0.9825
-3.2738 -2.1568 -2.0338 0.9825
-2.5684 -2.9620 -2.0338 0.9825
-1.9878 -3.3792 -2.0338 0.9825
-1.6714 -3.5463 -2.0338 0.9825
-1.3411 -3.6839 -2.0338 0.9825
-0.6498 -3.8662 -2.0339 0.9825
-1.0801 -0.0376 -0.5920 0.9951
-1.0760 -0.1363 -0.5940 0.9951
-1.0325 -0.3292 -0.5935 0.9951
-2.9018 -2.3171 -2.0338 0.9832
-2.4327 -2.8056 -2.0338 0.9832
-2.1668 -3.0157 -2.0338 0.9832
-0.9469 -3.5907 -2.0339 0.9832
-0.9899 0.0560 -0.5725 0.9954
-0.9900 -0.0344 -0.5719 0.9954
-0.9857 -0.1249 -0.5736 0.9954
-0.9536 -0.3040 -0.5778 0.9954
-0.9328 -0.3943 -0.5847 0.9953
-2.9417 -1.9380 -2.0339 0.9839
-2.7527 -2.1982 -2.0339 0.9839
-2.3078 -2.6615 -2.0339 0.9839
-2.0555 -2.8609 -2.0339 0.9839
-1.7862 -3.0363 -2.0339 0.9839
-1.5019 -3.1866 -2.0339 0.9839
-1.2051 -3.3102 -2.0339 0.9839
-0.8982 -3.4063 -2.0339 0.9839
