ply
format ascii 1.0
element vertex 175
property float32 x
property float32 y
property float32 z
property float32 I
end_header
2.6661 18.8089 3.3497 0.9257
2.6809 18.9135 2.9264 0.9256
0.9089 18.5855 2.4231 0.9277
2.4869 17.5450 1.9028 0.9312
2.4694 17.4221 1.4896 0.9318
2.4631 17.3773 0.6921 0.9322
2.6489 18.6882 -0.1063 0.9273
2.6496 18.6935 -0.5316 0.9272
13.6247 9.3715 -0.8386 0.9359
16.2184 5.4952 -2.0341 0.9333
14.9403 8.3682 -2.0341 0.9333
13.3033 9.1504 -1.9180 0.9370
6.9299 15.6595 -2.0341 0.9333
2.4032 16.9547 -2.0341 0.9333
0.8364 17.1036 -2.0341 0.9333
11.8281 8.1358 -2.0341 0.9437
11.0312 9.1874 -2.0341 0.9437
10.1412 10.1614 -2.0341 0.9437
6.9905 12.5392 -2.0341 0.9437
0.7012 14.3387 -2.0341 0.9437
-1.0062 7.4067 -1.0591 0.9703
11.6940 3.9622 -2.0340 0.9512
11.2808 5.0192 -2.0341 0.9512
9.4877 7.9018 -2.0341 0.9512
2.8479 12.0143 -2.0341 0.9512
1.7328 12.2249 -2.0341 0.9512
0.6031 12.3323 -2.0340 0.9512
-0.5317 12.3355 -2.0340 0.9512
-0.9923 7.3047 -1.2144 0.9706
9.8871 4.3991 -2.0340 0.9569
9.4415 5.2882 -2.0340 0.9569
8.9161 6.1328 -2.0340 0.9569
7.6444 7.6597 -2.0341 0.9569
6.1150 8.9284 -2.0341 0.9569
5.2694 9.4521 -2.0341 0.9569
4.3794 9.8959 -2.0340 0.9569
3.4523 10.2562 -2.0340 0.9569
2.4961 10.5298 -2.0340 0.9569
1.5187 10.7145 -2.0340 0.9569
0.5286 10.8086 -2.0340 0.9569
8.7916 3.9116 -2.0340 0.9614
8.3954 4.7023 -2.0340 0.9614
7.9282 5.4532 -2.0340 0.9614
6.7975 6.8110 -2.0340 0.9614
6.1434 7.4063 -2.0340 0.9614
5.4375 7.9391 -2.0340 0.9614
3.8941 8.7995 -2.0340 0.9614
3.0697 9.1198 -2.0340 0.9614
1.3504 9.5273 -2.0340 0.9614
0.4700 9.6111 -2.0340 0.9614
-0.3348 7.7679 -1.6435 0.9687
-0.9838 7.2422 -1.5449 0.9706
8.1968 2.7773 -2.0340 0.9651
7.9071 3.5181 -2.0340 0.9651
7.5508 4.2292 -2.0340 0.9651
7.1306 4.9046 -2.0340 0.9651
6.6502 5.5386 -2.0340 0.9651
4.8904 7.1404 -2.0340 0.9651
1.9961 8.4212 -2.0340 0.9651
-0.9835 7.2395 -1.7171 0.9704
7.4403 2.5209 -2.0340 0.9681
6.8539 3.8389 -2.0340 0.9681
6.4725 4.4520 -2.0340 0.9681
5.5493 5.5604 -2.0340 0.9681
5.0154 6.0465 -2.0340 0.9681
4.4391 6.4814 -2.0340 0.9681
3.1791 7.1838 -2.0340 0.9681
0.3837 7.8463 -2.0340 0.9681
-0.9951 7.3248 -1.9140 0.9699
5.9198 4.0718 -2.0340 0.9706
5.5209 4.5981 -2.0340 0.9706
4.0600 5.9279 -2.0340 0.9706
2.9076 6.5703 -2.0340 0.9706
2.2921 6.8095 -2.0340 0.9706
1.6572 6.9912 -2.0340 0.9706
1.0083 7.1137 -2.0340 0.9706
-0.3094 7.1782 -2.0340 0.9706
-0.9671 7.1194 -2.0340 0.9706
6.2631 2.1221 -2.0340 0.9727
5.7695 3.2315 -2.0340 0.9727
4.6714 4.6807 -2.0340 0.9727
3.2200 5.7760 -2.0340 0.9727
2.6762 6.0472 -2.0340 0.9727
2.1096 6.2674 -2.0340 0.9727
1.5253 6.4346 -2.0340 0.9727
0.9280 6.5475 -2.0340 0.9727
-0.8902 6.5526 -2.0340 0.9727
5.7954 1.9636 -2.0340 0.9745
5.5906 2.4874 -2.0340 0.9745
4.7018 3.9159 -2.0340 0.9745
3.9066 4.7097 -2.0340 0.9745
3.4577 5.0484 -2.0340 0.9745
1.9521 5.7993 -2.0340 0.9745
0.8587 6.0584 -2.0340 0.9745
-0.8237 6.0632 -2.0340 0.9745
5.3869 1.8252 -2.0340 0.9761
5.1966 2.3121 -2.0340 0.9761
4.3705 3.6399 -2.0340 0.9761
4.0179 4.0258 -2.0340 0.9761
3.2139 4.6926 -2.0340 0.9761
2.7696 4.9679 -2.0340 0.9761
2.3018 5.2012 -2.0340 0.9761
0.2778 5.6809 -2.0340 0.9761
-0.2450 5.6824 -2.0340 0.9761
5.0269 1.7032 -2.0340 0.9775
4.8493 2.1576 -2.0340 0.9775
4.3730 3.0079 -2.0340 0.9775
4.0784 3.3967 -2.0340 0.9775
3.7493 3.7568 -2.0340 0.9775
2.9992 4.3790 -2.0340 0.9775
2.5844 4.6359 -2.0340 0.9775
2.1479 4.8536 -2.0340 0.9775
1.6932 5.0303 -2.0340 0.9775
0.7449 5.2551 -2.0340 0.9775
-0.2286 5.3026 -2.0340 0.9775
-0.7145 5.2592 -2.0340 0.9775
4.3359 2.4285 -2.0340 0.9787
4.0946 2.8163 -2.0340 0.9787
3.8187 3.1804 -2.0340 0.9787
3.5106 3.5176 -2.0340 0.9787
3.1728 3.8251 -2.0340 0.9787
2.8082 4.1002 -2.0340 0.9787
2.4199 4.3407 -2.0340 0.9787
0.6975 4.9205 -2.0340 0.9787
0.2427 4.9637 -2.0340 0.9787
-0.2140 4.9650 -2.0340 0.9787
3.2968 3.3034 -2.0340 0.9798
2.6372 3.8505 -2.0340 0.9798
1.8887 4.2678 -2.0340 0.9798
0.6550 4.6208 -2.0340 0.9798
-0.2010 4.6626 -2.0340 0.9798
-0.6282 4.6245 -2.0339 0.9798
3.8337 2.1473 -2.0340 0.9808
2.8054 3.3820 -2.0340 0.9808
2.4830 3.6253 -2.0340 0.9808
2.1396 3.8380 -2.0340 0.9808
1.7782 4.0182 -2.0340 0.9808
-0.5915 4.3540 -2.0339 0.9808
3.9272 1.3306 -2.0339 0.9817
3.7885 1.6856 -2.0340 0.9817
3.4164 2.3499 -2.0340 0.9817
3.1862 2.6536 -2.0340 0.9817
2.9291 2.9349 -2.0340 0.9817
2.6472 3.1915 -2.0340 0.9817
2.3430 3.4210 -2.0340 0.9817
0.5820 4.1054 -2.0340 0.9817
3.7133 1.2582 -2.0339 0.9825
3.5821 1.5938 -2.0339 0.9825
3.0126 2.5091 -2.0340 0.9825
1.5866 3.5853 -2.0340 0.9825
0.5502 3.8818 -2.0339 0.9825
0.1915 3.9159 -2.0339 0.9825
-0.1689 3.9170 -2.0339 0.9825
-0.5277 3.8849 -2.0339 0.9825
1.9011 0.6441 -1.0994 0.9909
3.2400 1.8147 -2.0339 0.9832
3.0597 2.1045 -2.0340 0.9832
2.8536 2.3766 -2.0340 0.9832
2.6233 2.6285 -2.0340 0.9832
2.3709 2.8583 -2.0340 0.9832
2.0984 3.0639 -2.0340 0.9832
1.5028 3.3959 -2.0340 0.9832
1.1847 3.5196 -2.0340 0.9832
0.1814 3.7091 -2.0339 0.9832
-0.1599 3.7101 -2.0339 0.9832
-0.4998 3.6798 -2.0339 0.9832
1.7255 0.5846 -1.0519 0.9916
2.9026 1.9965 -2.0339 0.9839
2.7070 2.2545 -2.0339 0.9839
2.2491 2.7115 -2.0340 0.9839
1.7154 3.0770 -2.0339 0.9839
1.4257 3.2215 -2.0339 0.9839
0.8126 3.4279 -2.0339 0.9839
0.4944 3.4880 -2.0339 0.9839
-0.4742 3.4908 -2.0339 0.9839
