ply
format ascii 1.0
element vertex 198
property float32 x
property float32 y
property float32 z
property float32 I
end_header
3.5254 18.5524 3.3298 0.9262
1.8186 18.6340 3.3013 0.9268
3.6277 19.0909 2.5305 0.9246
3.5287 18.5703 2.0298 0.9268
1.7664 18.0997 1.9528 0.9295
3.3490 17.6245 1.1125 0.9306
3.6821 19.3777 0.7778 0.9241
1.9322 19.7982 0.3360 0.9235
11.4295 12.7521 -2.0341 0.9333
10.2302 13.7328 -2.0341 0.9333
8.9473 14.6011 -2.0341 0.9333
7.5911 15.3499 -2.0341 0.9333
6.1728 15.9731 -2.0341 0.9333
4.7040 16.4655 -2.0341 0.9333
0.1163 17.1236 -2.0341 0.9333
-0.6752 8.0476 -0.9593 0.9680
-1.3355 7.5882 -0.9152 0.9694
-5.9550 16.0546 -2.0340 0.9333
-7.3815 15.4506 -2.0340 0.9334
-8.7475 14.7201 -2.0340 0.9334
-10.0419 13.8692 -2.0340 0.9334
9.5817 10.6905 -2.0341 0.9437
6.3639 12.8684 -2.0341 0.9437
0.0975 14.3554 -2.0341 0.9437
-1.3048 7.4144 -1.0667 0.9700
-1.9672 7.2575 -1.0654 0.9701
-7.3334 12.3406 -2.0340 0.9437
8.2410 9.1946 -2.0341 0.9512
4.4509 11.5171 -2.0341 0.9512
3.3918 11.8722 -2.0341 0.9512
2.3050 12.1301 -2.0341 0.9512
0.0838 12.3467 -2.0340 0.9512
-0.6214 7.4055 -1.2243 0.9703
-1.9466 7.1812 -1.2257 0.9703
-4.2938 11.5761 -2.0340 0.9512
-5.3223 11.1406 -2.0340 0.9512
-6.3073 10.6139 -2.0340 0.9512
-7.2407 10.0004 -2.0340 0.9512
7.9214 7.3729 -2.0341 0.9569
7.2227 8.0586 -2.0341 0.9569
6.4649 8.6783 -2.0341 0.9569
5.6541 9.2271 -2.0341 0.9569
1.0511 10.7704 -2.0340 0.9569
-0.6366 7.5868 -1.4310 0.9695
-3.7633 10.1458 -2.0340 0.9569
-5.5281 9.3026 -2.0340 0.9569
-6.3462 8.7648 -2.0339 0.9569
7.0437 6.5560 -2.0340 0.9614
5.0277 8.2047 -2.0340 0.9614
4.2656 8.6255 -2.0340 0.9614
2.6433 9.2524 -2.0340 0.9614
0.9346 9.5771 -2.0340 0.9614
-0.6239 7.4355 -1.5772 0.9700
-1.2582 7.1494 -1.5345 0.9708
-3.3464 9.0217 -2.0340 0.9614
-4.9156 8.2719 -2.0340 0.9614
-5.6430 7.7937 -2.0339 0.9614
5.7763 6.4448 -2.0340 0.9651
3.8365 7.7577 -2.0340 0.9651
3.1197 8.0727 -2.0340 0.9651
-1.2923 7.3428 -1.7523 0.9698
-3.0097 8.1141 -2.0340 0.9651
-3.7307 7.8089 -2.0340 0.9651
-4.4211 7.4397 -2.0339 0.9651
-5.0754 7.0097 -2.0339 0.9651
5.7505 5.3522 -2.0340 0.9681
5.2432 5.8500 -2.0340 0.9681
4.1045 6.6982 -2.0340 0.9681
3.4824 7.0417 -2.0340 0.9681
2.8318 7.3277 -2.0340 0.9681
2.1580 7.5536 -2.0340 0.9681
1.4665 7.7177 -2.0340 0.9681
0.0533 7.8555 -2.0340 0.9681
-0.6568 7.8282 -2.0340 0.9681
-1.3616 7.7368 -2.0340 0.9681
-2.0552 7.5820 -2.0340 0.9681
-3.3864 7.0882 -2.0340 0.9681
5.2594 4.8951 -2.0340 0.9706
4.7954 5.3504 -2.0340 0.9706
4.2923 5.7619 -2.0340 0.9706
3.1850 6.4404 -2.0340 0.9706
1.9737 6.9085 -2.0340 0.9706
0.6979 7.1509 -2.0340 0.9706
-0.6007 7.1596 -2.0340 0.9706
-1.8796 6.9345 -2.0340 0.9706
-3.6704 6.1764 -2.0339 0.9706
-4.2135 5.8194 -2.0339 0.9706
4.8407 4.5054 -2.0340 0.9727
4.4137 4.9244 -2.0340 0.9727
3.9506 5.3031 -2.0340 0.9727
3.4552 5.6385 -2.0340 0.9727
2.9314 5.9277 -2.0340 0.9727
2.3837 6.1683 -2.0340 0.9727
0.6423 6.5816 -2.0340 0.9727
-0.5529 6.5897 -2.0340 0.9727
-2.2997 6.2000 -2.0340 0.9727
-2.8506 5.9668 -2.0339 0.9727
-3.3782 5.6847 -2.0339 0.9727
-3.8781 5.3562 -2.0339 0.9727
4.4791 4.1689 -2.0340 0.9745
3.6555 4.9071 -2.0340 0.9745
1.1423 6.0114 -2.0340 0.9745
-1.0605 6.0263 -2.0340 0.9745
-2.6377 5.5211 -2.0339 0.9745
-3.1259 5.2601 -2.0339 0.9745
-3.5884 4.9561 -2.0339 0.9745
4.1634 3.8751 -2.0340 0.9761
3.7962 4.2355 -2.0340 0.9761
3.3979 4.5612 -2.0340 0.9761
2.9718 4.8496 -2.0340 0.9761
2.5213 5.0983 -2.0340 0.9761
1.5625 5.4689 -2.0340 0.9761
0.5525 5.6608 -2.0340 0.9761
0.0386 5.6876 -2.0340 0.9761
-0.4755 5.6678 -2.0340 0.9761
-1.4880 5.4895 -2.0339 0.9761
-1.9780 5.3326 -2.0339 0.9761
-2.4518 5.1320 -2.0339 0.9761
-2.9056 4.8894 -2.0339 0.9761
-3.3355 4.6068 -2.0339 0.9761
2.3529 4.7576 -2.0340 0.9775
1.9133 4.9508 -2.0340 0.9775
0.9908 5.2143 -2.0340 0.9775
0.0360 5.3074 -2.0340 0.9775
-0.9199 5.2272 -2.0340 0.9775
-1.3886 5.1227 -2.0339 0.9775
-2.2880 4.7890 -2.0339 0.9775
-2.7114 4.5627 -2.0339 0.9775
-3.1126 4.2989 -2.0339 0.9775
3.3170 3.7008 -2.0340 0.9787
2.9689 3.9854 -2.0340 0.9787
2.5966 4.2374 -2.0340 0.9787
1.7914 4.6356 -2.0340 0.9787
1.3652 4.7785 -2.0340 0.9787
0.0337 4.9695 -2.0340 0.9787
-1.7282 4.6594 -2.0339 0.9788
-2.1423 4.4841 -2.0339 0.9788
-2.5387 4.2722 -2.0339 0.9788
-2.9145 4.0252 -2.0339 0.9788
3.1149 3.4754 -2.0340 0.9798
2.7881 3.7427 -2.0340 0.9798
2.4385 3.9793 -2.0340 0.9798
1.2821 4.4875 -2.0340 0.9798
0.8712 4.5849 -2.0340 0.9798
-0.3902 4.6506 -2.0339 0.9798
-0.8089 4.5963 -2.0339 0.9798
-1.2209 4.5044 -2.0339 0.9798
-1.6230 4.3756 -2.0339 0.9798
3.2165 2.9937 -2.0340 0.9808
2.9328 3.2721 -2.0340 0.9808
1.9479 3.9388 -2.0340 0.9808
1.5839 4.0987 -2.0340 0.9808
0.8203 4.3168 -2.0340 0.9808
0.4268 4.3733 -2.0340 0.9808
-0.7616 4.3275 -2.0339 0.9808
-1.1495 4.2410 -2.0339 0.9808
-1.5281 4.1197 -2.0339 0.9808
-1.8942 3.9648 -2.0339 0.9808
-2.2447 3.7773 -2.0339 0.9808
-2.5769 3.5590 -2.0339 0.9808
3.0352 2.8250 -2.0340 0.9817
2.7675 3.0878 -2.0340 0.9817
2.4771 3.3252 -2.0340 0.9817
2.1665 3.5355 -2.0340 0.9817
1.8381 3.7168 -2.0340 0.9817
1.4947 3.8677 -2.0340 0.9817
0.0281 4.1464 -2.0339 0.9817
-1.4420 3.8876 -2.0339 0.9817
-1.7875 3.7414 -2.0339 0.9817
-2.1182 3.5645 -2.0339 0.9817
2.8699 2.6712 -2.0340 0.9825
2.6168 2.9196 -2.0340 0.9825
1.7380 3.5144 -2.0340 0.9825
1.4133 3.6571 -2.0340 0.9825
1.0770 3.7698 -2.0340 0.9825
0.7319 3.8517 -2.0339 0.9825
-0.6795 3.8613 -2.0339 0.9825
-1.0257 3.7840 -2.0339 0.9825
-2.0029 3.3704 -2.0339 0.9825
2.2186 2.9781 -2.0340 0.9832
1.0201 3.5707 -2.0339 0.9832
0.6932 3.6483 -2.0339 0.9832
0.3607 3.6960 -2.0339 0.9832
-0.3105 3.7005 -2.0339 0.9832
-0.9715 3.5842 -2.0339 0.9832
-1.2914 3.4818 -2.0339 0.9832
2.5787 2.4002 -2.0339 0.9839
1.8407 3.0038 -2.0339 0.9839
1.5617 3.1579 -2.0339 0.9839
1.2699 3.2861 -2.0339 0.9839
0.9678 3.3874 -2.0339 0.9839
0.6577 3.4609 -2.0339 0.9839
0.3422 3.5062 -2.0339 0.9839
-0.2946 3.5105 -2.0339 0.9839
-0.6106 3.4696 -2.0339 0.9839
-1.5186 3.1787 -2.0339 0.9839
-1.7997 3.0284 -2.0339 0.9839
-2.0660 2.8534 -2.0339 0.9839
