ply
format ascii 1.0
element vertex 171
property float32 x
property float32 y
property float32 z
property float32 I
end_header
-11.8557 -8.2256 -0.7318 0.9438
-11.6408 -8.0765 -1.0388 0.9448
-11.5153 -7.9895 -1.3456 0.9452
-16.1252 -5.7527 -2.0337 0.9334
-11.4139 -7.9191 -1.6502 0.9456
-11.0339 -13.0905 -2.0337 0.9334
-9.8412 -14.0092 -2.0337 0.9334
-8.5725 -14.8196 -2.0337 0.9334
-7.2375 -15.5154 -2.0337 0.9334
-5.8465 -16.0912 -2.0337 0.9334
-4.4104 -16.5427 -2.0337 0.9334
1.5610 -17.0496 -2.0337 0.9334
-11.7929 -8.1820 -2.0337 0.9437
-11.0285 -9.1864 -2.0337 0.9437
-10.1788 -10.1196 -2.0337 0.9437
-7.1869 -12.4243 -2.0337 0.9437
0.0480 -14.3534 -2.0337 0.9437
1.3087 -14.2938 -2.0338 0.9437
-11.9470 -3.1107 -2.0338 0.9512
-11.2181 -5.1535 -2.0337 0.9512
-10.7220 -6.1191 -2.0337 0.9512
-9.4855 -7.9011 -2.0337 0.9512
-8.7548 -8.7039 -2.0337 0.9512
-7.9562 -9.4393 -2.0337 0.9512
-7.0963 -10.1017 -2.0337 0.9512
-6.1814 -10.6861 -2.0337 0.9512
-4.2158 -11.6030 -2.0337 0.9512
-3.1802 -11.9286 -2.0337 0.9512
-2.1200 -12.1619 -2.0337 0.9512
-1.0434 -12.3012 -2.0338 0.9512
0.0412 -12.3453 -2.0338 0.9512
-10.4711 -2.7264 -2.0338 0.9569
-10.1911 -3.6357 -2.0338 0.9569
-8.3137 -6.9251 -2.0338 0.9569
-7.6732 -7.6286 -2.0337 0.9569
-6.9734 -8.2732 -2.0337 0.9569
-6.2196 -8.8538 -2.0337 0.9569
-5.4178 -9.3660 -2.0337 0.9569
-3.6950 -10.1696 -2.0338 0.9569
0.0361 -10.8202 -2.0338 0.9569
-9.3111 -2.4243 -2.0338 0.9614
-8.7430 -4.0165 -2.0338 0.9614
-7.9051 -5.4847 -2.0338 0.9614
-7.3927 -6.1579 -2.0338 0.9614
-6.8232 -6.7835 -2.0338 0.9614
-6.2009 -7.3567 -2.0338 0.9614
-4.8176 -8.3284 -2.0338 0.9614
0.0321 -9.6214 -2.0338 0.9614
0.8772 -9.5815 -2.0338 0.9614
-5.5771 -6.6166 -2.0338 0.9651
-4.3330 -7.4906 -2.0338 0.9651
-2.2292 -8.3615 -2.0338 0.9651
-1.4861 -8.5250 -2.0338 0.9651
-0.7314 -8.6227 -2.0338 0.9651
0.0289 -8.6536 -2.0338 0.9651
-7.3983 -2.6394 -2.0338 0.9681
-6.4537 -4.4777 -2.0338 0.9681
-5.5705 -5.5381 -2.0338 0.9681
-5.0624 -6.0060 -2.0338 0.9681
-3.9332 -6.7993 -2.0338 0.9681
-3.3206 -7.1186 -2.0338 0.9681
-2.0235 -7.5899 -2.0338 0.9681
-1.3489 -7.7383 -2.0338 0.9681
-0.6639 -7.8270 -2.0338 0.9681
0.0262 -7.8551 -2.0338 0.9681
-6.9525 -1.8103 -2.0338 0.9706
-6.5283 -2.9991 -2.0338 0.9706
-6.2396 -3.5610 -2.0338 0.9706
-4.1297 -5.8787 -2.0338 0.9706
-3.0370 -6.5107 -2.0338 0.9706
-1.2337 -7.0775 -2.0338 0.9706
0.6550 -7.1544 -2.0338 0.9706
-6.0086 -2.7603 -2.0338 0.9727
-4.6893 -4.6620 -2.0338 0.9727
-3.8009 -5.4107 -2.0338 0.9727
-1.1355 -6.5141 -2.0338 0.9727
0.0221 -6.6123 -2.0338 0.9727
-5.9211 -1.5417 -2.0338 0.9745
-5.5599 -2.5542 -2.0338 0.9745
-5.3140 -3.0327 -2.0338 0.9745
-4.7012 -3.9160 -2.0338 0.9745
-4.3390 -4.3138 -2.0338 0.9745
-3.0636 -5.2962 -2.0338 0.9745
-2.0895 -5.7507 -2.0338 0.9745
0.5579 -6.0931 -2.0338 0.9745
-5.3566 -1.9110 -2.0338 0.9761
-5.1680 -2.3742 -2.0338 0.9761
-4.9395 -2.8190 -2.0338 0.9761
-4.6728 -3.2421 -2.0338 0.9761
-4.3699 -3.6400 -2.0338 0.9761
-4.0333 -4.0098 -2.0338 0.9761
-3.2692 -4.6538 -2.0338 0.9761
-1.4651 -5.4954 -2.0338 0.9761
0.5185 -5.6637 -2.0338 0.9761
-4.9987 -1.7833 -2.0338 0.9775
-4.8227 -2.2155 -2.0338 0.9775
-4.6094 -2.6306 -2.0338 0.9775
-3.0507 -4.3428 -2.0338 0.9775
-2.6574 -4.5940 -2.0338 0.9775
-1.8124 -4.9882 -2.0338 0.9775
-0.9114 -5.2284 -2.0338 0.9775
-0.4486 -5.2883 -2.0338 0.9775
0.0177 -5.3073 -2.0338 0.9775
0.4839 -5.2852 -2.0338 0.9775
-4.8090 -1.2521 -2.0338 0.9788
-4.6804 -1.6698 -2.0338 0.9788
-4.5157 -2.0745 -2.0338 0.9788
-4.0829 -2.8327 -2.0338 0.9788
-3.5241 -3.5036 -2.0338 0.9788
-3.2027 -3.7996 -2.0338 0.9788
-2.8565 -4.0663 -2.0338 0.9788
-2.4883 -4.3015 -2.0338 0.9788
-2.1008 -4.5035 -2.0338 0.9788
-1.6970 -4.6706 -2.0338 0.9788
-1.9430 -0.5060 -0.8751 0.9913
-4.3954 -1.5681 -2.0338 0.9798
-4.2406 -1.9481 -2.0338 0.9798
-3.3095 -3.2903 -2.0338 0.9798
-2.6826 -3.8187 -2.0338 0.9798
-0.8014 -4.5974 -2.0338 0.9798
-0.3945 -4.6501 -2.0338 0.9798
0.4255 -4.6473 -2.0339 0.9798
-3.6100 -2.5047 -2.0338 0.9808
-3.3761 -2.8122 -2.0338 0.9808
-2.8318 -3.3596 -2.0338 0.9808
-2.5257 -3.5954 -2.0338 0.9808
-2.2001 -3.8034 -2.0338 0.9808
-1.5005 -4.1297 -2.0338 0.9808
-0.7545 -4.3286 -2.0338 0.9808
-0.3713 -4.3781 -2.0338 0.9808
0.0146 -4.3939 -2.0339 0.9808
0.4006 -4.3756 -2.0339 0.9808
-1.3125 -0.3418 -0.6653 0.9940
-3.6011 -2.0552 -2.0338 0.9817
-3.1858 -2.6537 -2.0338 0.9817
-2.9404 -2.9233 -2.0338 0.9817
-2.0761 -3.5891 -2.0338 0.9817
-1.4159 -3.8970 -2.0338 0.9817
-1.0681 -4.0064 -2.0338 0.9817
-0.3505 -4.1315 -2.0339 0.9817
-1.1631 -0.3029 -0.6235 0.9946
-1.2633 -0.5804 -0.7212 0.9938
-3.4049 -1.9432 -2.0338 0.9825
-2.7802 -2.7641 -2.0338 0.9825
-1.9630 -3.3936 -2.0338 0.9825
-1.3388 -3.6848 -2.0338 0.9825
-1.0099 -3.7882 -2.0338 0.9825
-0.6733 -3.8622 -2.0339 0.9825
0.0131 -3.9204 -2.0339 0.9825
0.3575 -3.9042 -2.0339 0.9825
-1.0418 -0.2713 -0.5896 0.9951
-3.0510 -2.1168 -2.0339 0.9832
-2.6334 -2.6181 -2.0338 0.9832
-2.3932 -2.8393 -2.0338 0.9832
-2.1346 -3.0386 -2.0338 0.9832
-1.8594 -3.2144 -2.0338 0.9832
-1.5698 -3.3653 -2.0338 0.9832
-1.2681 -3.4902 -2.0339 0.9832
-0.3139 -3.7002 -2.0339 0.9832
0.0124 -3.7134 -2.0339 0.9832
-0.9232 -0.4242 -0.5866 0.9953
-1.1439 -0.6529 -0.7604 0.9939
-2.8943 -2.0081 -2.0339 0.9839
-2.7067 -2.2546 -2.0339 0.9839
-2.4982 -2.4837 -2.0339 0.9839
-2.2703 -2.6936 -2.0339 0.9839
-1.4892 -3.1925 -2.0339 0.9839
-1.2030 -3.3110 -2.0339 0.9839
-0.9075 -3.4039 -2.0339 0.9839
-0.2978 -3.5102 -2.0339 0.9839
0.3212 -3.5081 -2.0339 0.9839
