ply
format ascii 1.0
element vertex 187
property float32 x
property float32 y
property float32 z
property float32 I
end_header
-11.3355 13.4684 2.6968 0.9312
-12.2873 12.1359 2.6457 0.9325
-11.1219 13.2145 2.2492 0.9327
-11.8779 11.7316 2.1740 0.9349
-11.2899 13.4142 1.8827 0.9319
-12.0940 11.9449 1.8253 0.9339
-4.6959 19.2098 1.6740 0.9237
-11.5696 13.7464 1.5210 0.9304
-12.1172 11.9679 1.4417 0.9339
-12.9024 12.7434 1.1245 0.9299
-12.5187 14.8741 0.7666 0.9251
-1.8259 7.4694 -0.7382 0.9696
-1.7942 7.3396 -0.8975 0.9700
-7.0400 15.6092 -2.0340 0.9334
-11.0258 13.1004 -2.0340 0.9334
-13.2358 10.8624 -2.0339 0.9334
-14.1774 9.6007 -2.0339 0.9334
-14.9991 8.2579 -2.0339 0.9334
-16.2562 5.3749 -2.0338 0.9334
-17.1051 0.7428 -2.0338 0.9334
-1.1016 7.4001 -1.0601 0.9702
-1.7768 7.2687 -1.0602 0.9702
-5.9019 13.0860 -2.0340 0.9437
-7.0788 12.4885 -2.0340 0.9437
-9.2435 10.9828 -2.0339 0.9437
-10.2131 10.0873 -2.0339 0.9437
-11.0963 9.1065 -2.0339 0.9437
-11.8857 8.0488 -2.0339 0.9437
-13.6285 4.5062 -2.0338 0.9437
-14.2226 1.9372 -2.0338 0.9437
-1.0771 7.2359 -1.2052 0.9708
-1.7384 7.1114 -1.2060 0.9708
-2.5271 7.3365 -1.2783 0.9690
-5.0761 11.2549 -2.0340 0.9512
-6.0883 10.7410 -2.0340 0.9512
-7.9502 9.4461 -2.0339 0.9512
-9.5437 7.8324 -2.0339 0.9512
-10.2227 6.9227 -2.0339 0.9512
-10.8152 5.9545 -2.0339 0.9512
-11.3163 4.9359 -2.0339 0.9512
-12.2327 1.6662 -2.0338 0.9512
-12.3339 0.5356 -2.0338 0.9512
-1.0664 7.1642 -1.3614 0.9710
-1.7677 7.2312 -1.3992 0.9702
-4.4489 9.8644 -2.0340 0.9569
-6.1782 8.8841 -2.0339 0.9569
-6.9680 8.2790 -2.0339 0.9569
-7.6989 7.6040 -2.0339 0.9569
-8.9597 6.0674 -2.0339 0.9569
-9.4791 5.2188 -2.0339 0.9569
-10.5421 2.4389 -2.0338 0.9569
-10.7215 1.4604 -2.0338 0.9569
-1.0777 7.2393 -1.5471 0.9705
-1.7368 7.1046 -1.5460 0.9705
-2.5126 7.2946 -1.6308 0.9689
-3.9561 8.7715 -2.0340 0.9614
-4.7449 8.3710 -2.0340 0.9614
-5.4937 7.8998 -2.0339 0.9614
-7.4379 6.1042 -2.0339 0.9614
-7.9671 5.3952 -2.0339 0.9614
-8.4289 4.6406 -2.0339 0.9614
-9.3741 2.1687 -2.0338 0.9614
-9.5336 1.2986 -2.0338 0.9614
-1.7652 7.2208 -1.7470 0.9699
-3.5581 7.8890 -2.0340 0.9651
-4.9410 7.1051 -2.0339 0.9651
-5.5727 6.6212 -2.0339 0.9651
-7.1656 4.8524 -2.0339 0.9651
-7.5809 4.1738 -2.0339 0.9651
-8.5746 1.1679 -2.0338 0.9651
-8.6456 0.3754 -2.0338 0.9651
-2.5583 7.4274 -2.0340 0.9681
-3.8737 6.8340 -2.0339 0.9681
-5.5889 5.5201 -2.0339 0.9681
-6.0723 4.9834 -2.0339 0.9681
-7.4581 2.4659 -2.0339 0.9681
-7.6530 1.7705 -2.0339 0.9681
-7.7833 1.0601 -2.0338 0.9681
-7.8477 0.3408 -2.0338 0.9681
-4.1020 5.8986 -2.0339 0.9706
-4.6264 5.4969 -2.0339 0.9706
-5.1117 5.0487 -2.0339 0.9706
-6.8213 2.2554 -2.0339 0.9706
-6.9996 1.6193 -2.0339 0.9706
-7.1186 0.9696 -2.0339 0.9706
-0.9736 6.5407 -2.0340 0.9727
-1.5703 6.4237 -2.0340 0.9727
-2.1536 6.2523 -2.0340 0.9727
-2.7187 6.0280 -2.0339 0.9727
-3.2609 5.7528 -2.0339 0.9727
-3.7754 5.4290 -2.0339 0.9727
-4.7048 4.6468 -2.0339 0.9727
-5.4753 3.7078 -2.0339 0.9727
-6.2782 2.0758 -2.0339 0.9727
-6.4423 1.4904 -2.0339 0.9727
-6.5519 0.8924 -2.0339 0.9727
-0.9009 6.0522 -2.0340 0.9745
-1.4529 5.9439 -2.0340 0.9745
-1.9927 5.7853 -2.0339 0.9745
-3.4935 5.0235 -2.0339 0.9745
-4.3534 4.2997 -2.0339 0.9745
-5.0663 3.4309 -2.0339 0.9745
-5.3600 2.9510 -2.0339 0.9745
-5.6084 2.4462 -2.0339 0.9745
-0.8374 5.6257 -2.0340 0.9761
-1.3506 5.5250 -2.0340 0.9761
-2.3384 5.1847 -2.0339 0.9761
-2.8046 4.9480 -2.0339 0.9761
-3.2473 4.6695 -2.0339 0.9761
-4.3965 3.6081 -2.0339 0.9761
-5.3999 1.7854 -2.0339 0.9761
-5.6354 0.7676 -2.0339 0.9761
-1.2603 5.1557 -2.0339 0.9775
-1.7285 5.0182 -2.0339 0.9775
-2.1821 4.8382 -2.0339 0.9775
-2.6172 4.6173 -2.0339 0.9775
-3.0302 4.3574 -2.0339 0.9775
-4.3946 2.9759 -2.0339 0.9775
-4.6493 2.5597 -2.0339 0.9775
-4.8648 2.1219 -2.0339 0.9775
-5.0391 1.6661 -2.0339 0.9775
-5.2587 0.7163 -2.0339 0.9775
-5.3023 0.2303 -2.0339 0.9775
-1.1801 4.8275 -2.0339 0.9788
-1.6185 4.6987 -2.0339 0.9788
-2.0432 4.5302 -2.0339 0.9788
-2.4506 4.3233 -2.0339 0.9788
-2.8373 4.0800 -2.0339 0.9788
-3.2000 3.8021 -2.0339 0.9788
-3.8415 3.1526 -2.0339 0.9788
-4.1148 2.7865 -2.0339 0.9788
-4.3533 2.3968 -2.0339 0.9788
-2.1192 0.4903 -0.8903 0.9906
-2.1225 0.0921 -0.8695 0.9909
-0.6871 4.6161 -2.0339 0.9798
-1.1082 4.5335 -2.0339 0.9798
-1.9187 4.2543 -2.0339 0.9798
-2.3013 4.0600 -2.0339 0.9798
-2.6645 3.8315 -2.0339 0.9798
-3.0052 3.5706 -2.0339 0.9798
-3.6075 2.9606 -2.0339 0.9798
-3.8642 2.6168 -2.0339 0.9798
-1.9184 0.0833 -0.8369 0.9917
-0.6470 4.3462 -2.0339 0.9808
-1.4310 4.1545 -2.0339 0.9808
-1.8065 4.0055 -2.0339 0.9808
-2.1668 3.8226 -2.0339 0.9808
-2.5087 3.6075 -2.0339 0.9808
-2.8294 3.3618 -2.0339 0.9808
-3.1262 3.0877 -2.0339 0.9808
-3.8491 2.1192 -2.0339 0.9808
-1.6106 0.2193 -0.7524 0.9929
-1.5895 0.0690 -0.7365 0.9930
-0.6105 4.1013 -2.0339 0.9817
-1.7047 3.7798 -2.0339 0.9817
-2.0447 3.6072 -2.0339 0.9817
-2.3673 3.4042 -2.0339 0.9817
-2.6700 3.1724 -2.0339 0.9817
-2.9501 2.9137 -2.0339 0.9817
-1.2813 0.4236 -0.6620 0.9940
-1.2768 3.7069 -2.0339 0.9825
-1.6119 3.5739 -2.0339 0.9825
-1.9332 3.4107 -2.0339 0.9825
-2.2384 3.2188 -2.0339 0.9825
-2.5246 2.9996 -2.0339 0.9825
-2.7894 2.7550 -2.0339 0.9825
-3.0306 2.4872 -2.0339 0.9825
-1.1088 0.4836 -0.6276 0.9946
-1.1394 0.3767 -0.6226 0.9946
-1.1970 0.1630 -0.6267 0.9946
-1.2094 3.5111 -2.0339 0.9832
-1.8312 3.2306 -2.0339 0.9832
-2.6421 2.6095 -2.0339 0.9832
-2.8705 2.3558 -2.0339 0.9832
-3.0748 2.0822 -2.0339 0.9832
-3.2530 1.7910 -2.0339 0.9832
-1.0302 0.3406 -0.5943 0.9951
-1.0502 0.2429 -0.5904 0.9951
-1.0745 0.1463 -0.5939 0.9951
-0.5187 3.4845 -2.0339 0.9839
-1.1473 3.3308 -2.0339 0.9839
-1.4483 3.2113 -2.0339 0.9839
-2.5064 2.4755 -2.0339 0.9839
-2.9169 1.9753 -2.0339 0.9839
-0.8985 0.4946 -0.5922 0.9953
-0.9294 0.4054 -0.5854 0.9953
-0.9517 0.3146 -0.5787 0.9954
