ply
format ascii 1.0
element vertex 258
property float32 x
property float32 y
property float32 z
property float32 I
end_header
2.1648 18.4319 3.2724 0.9274
-12.9386 12.8742 3.2184 0.9285
2.0725 17.6463 2.7219 0.9306
-11.2919 13.4768 2.6935 0.9313
3.8709 18.3962 2.4480 0.9270
-11.0857 13.2307 2.2477 0.9327
-12.1287 12.0682 1.8373 0.9335
3.6994 17.5814 1.5209 0.9304
2.2060 18.7837 1.6010 0.9269
-11.5316 13.7629 1.5200 0.9305
-12.1373 12.0769 1.4494 0.9336
3.7565 17.8528 1.1313 0.9295
-12.3185 14.7020 1.1894 0.9260
-12.8595 12.7954 1.1249 0.9299
3.8487 18.2909 0.7370 0.9279
2.1259 18.1014 0.7187 0.9296
-12.5308 14.9553 0.7693 0.9249
3.8047 18.0819 0.3121 0.9287
3.7818 17.9731 -0.1034 0.9292
2.2874 19.4768 -0.5522 0.9245
-1.8382 7.3515 -0.7275 0.9700
13.7399 10.2205 -2.0341 0.9333
9.2310 14.4234 -2.0341 0.9333
7.8900 15.1985 -2.0341 0.9333
6.4844 15.8492 -2.0341 0.9333
5.0257 16.3702 -2.0341 0.9333
-1.0961 17.0888 -2.0341 0.9333
-1.1864 7.6159 -0.9156 0.9694
-1.8358 7.3422 -0.8990 0.9700
-7.0755 15.5931 -2.0340 0.9334
-8.4554 14.8899 -2.0340 0.9334
-9.7661 14.0649 -2.0340 0.9334
-12.1377 12.0773 -2.0339 0.9334
-13.1792 10.9310 -2.0339 0.9334
-14.1128 9.6953 -2.0339 0.9334
9.7886 10.5015 -2.0341 0.9437
8.7996 11.3430 -2.0341 0.9437
7.7387 12.0917 -2.0341 0.9437
6.6145 12.7415 -2.0341 0.9437
4.2133 13.7238 -2.0341 0.9437
1.6746 14.2579 -2.0341 0.9437
-0.9188 14.3263 -2.0341 0.9437
-1.1573 7.4294 -1.0654 0.9701
-1.8230 7.2908 -1.0648 0.9701
-4.7263 13.5551 -2.0340 0.9437
-8.1874 11.7912 -2.0340 0.9437
-11.8316 8.1281 -2.0339 0.9437
8.4188 9.0320 -2.0341 0.9512
5.6889 10.9586 -2.0341 0.9512
2.5424 12.0826 -2.0341 0.9512
1.4402 12.2628 -2.0340 0.9512
0.3263 12.3427 -2.0340 0.9512
-1.7766 7.1054 -1.2066 0.9707
-2.5627 7.3499 -1.2823 0.9689
-5.1017 11.2433 -2.0340 0.9512
-6.0967 10.7363 -2.0340 0.9512
-7.9293 9.4636 -2.0339 0.9512
-8.7520 8.7083 -2.0339 0.9512
-10.1762 6.9909 -2.0339 0.9512
8.6828 6.4588 -2.0340 0.9569
8.0637 7.2170 -2.0341 0.9569
7.3786 7.9161 -2.0341 0.9569
5.8334 9.1148 -2.0341 0.9569
-0.4774 7.4432 -1.4019 0.9701
-1.1138 7.1501 -1.3602 0.9710
-1.7988 7.1940 -1.3938 0.9703
-6.9497 8.2944 -2.0339 0.9569
-8.9189 6.1272 -2.0339 0.9569
-9.4361 5.2962 -2.0339 0.9569
6.5611 7.0390 -2.0340 0.9614
5.8982 7.6030 -2.0340 0.9614
5.1871 8.1049 -2.0340 0.9614
4.4335 8.5404 -2.0340 0.9614
3.6437 8.9061 -2.0340 0.9614
2.8241 9.1988 -2.0340 0.9614
1.9814 9.4164 -2.0340 0.9614
-1.7720 7.0869 -1.5441 0.9706
-3.9760 8.7624 -2.0340 0.9614
-5.4880 7.9037 -2.0339 0.9614
-6.1797 7.3754 -2.0339 0.9614
-6.8208 6.7868 -2.0339 0.9614
-7.4061 6.1427 -2.0339 0.9614
-7.9308 5.4484 -2.0339 0.9614
-8.3906 4.7094 -2.0339 0.9614
6.9440 5.1654 -2.0340 0.9651
5.9011 6.3308 -2.0340 0.9651
4.6653 7.2895 -2.0340 0.9651
3.2771 8.0101 -2.0340 0.9651
1.7820 8.4690 -2.0340 0.9651
1.0095 8.5954 -2.0340 0.9651
-1.1402 7.3197 -1.7411 0.9700
-2.8493 8.1718 -2.0340 0.9651
-3.5761 7.8809 -2.0340 0.9651
-5.5580 6.6334 -2.0339 0.9651
-6.1346 6.1041 -2.0339 0.9651
-7.1330 4.9003 -2.0339 0.9651
6.3032 4.6887 -2.0340 0.9681
5.3564 5.7465 -2.0340 0.9681
4.8153 6.2070 -2.0340 0.9681
4.2347 6.6167 -2.0340 0.9681
2.9747 7.2708 -2.0340 0.9681
0.9163 7.8021 -2.0340 0.9681
-0.5028 7.8396 -2.0340 0.9681
-1.1501 7.3830 -1.9346 0.9696
-1.9055 7.6210 -2.0340 0.9681
-2.5864 7.4177 -2.0340 0.9681
-3.2460 7.1536 -2.0340 0.9681
-4.4804 6.4525 -2.0339 0.9681
-5.0451 6.0212 -2.0339 0.9681
-5.5685 5.5407 -2.0339 0.9681
-6.0463 5.0149 -2.0339 0.9681
5.7649 4.2882 -2.0340 0.9706
4.4040 5.6769 -2.0340 0.9706
3.8730 6.0517 -2.0340 0.9706
3.3104 6.3769 -2.0340 0.9706
2.7206 6.6499 -2.0340 0.9706
2.1086 6.8685 -2.0340 0.9706
1.4794 7.0309 -2.0340 0.9706
0.1899 7.1823 -2.0340 0.9706
-0.4599 7.1701 -2.0340 0.9706
-1.1059 7.0992 -2.0340 0.9706
-1.7428 6.9702 -2.0340 0.9706
-2.9688 6.5427 -2.0339 0.9706
-4.0978 5.9015 -2.0339 0.9706
-4.6142 5.5071 -2.0339 0.9706
-5.5300 4.5866 -2.0339 0.9706
-5.9218 4.0682 -2.0339 0.9706
4.5089 4.8373 -2.0340 0.9727
4.0534 5.2250 -2.0340 0.9727
3.5647 5.5699 -2.0340 0.9727
3.0469 5.8692 -2.0340 0.9727
0.1747 6.6105 -2.0340 0.9727
-1.6040 6.4153 -2.0340 0.9727
-2.7325 6.0218 -2.0339 0.9727
-3.2654 5.7503 -2.0339 0.9727
-3.7716 5.4317 -2.0339 0.9727
-4.2469 5.0687 -2.0339 0.9727
-5.0898 4.2215 -2.0339 0.9727
-5.7664 3.2365 -2.0339 0.9727
4.9096 3.6521 -2.0340 0.9745
3.7506 4.8347 -2.0340 0.9745
3.2984 5.1538 -2.0340 0.9745
2.8193 5.4308 -2.0340 0.9745
1.7958 5.8495 -2.0340 0.9745
0.1617 6.1168 -2.0340 0.9745
-0.9418 6.0460 -2.0340 0.9745
-1.4843 5.9361 -2.0340 0.9745
-2.0145 5.7777 -2.0339 0.9745
-3.9297 4.6901 -2.0339 0.9745
-4.3374 4.3158 -2.0339 0.9745
-5.0433 3.4646 -2.0339 0.9745
4.5636 3.3947 -2.0340 0.9761
4.2382 3.7931 -2.0340 0.9761
3.0660 4.7906 -2.0340 0.9761
1.6693 5.4373 -2.0340 0.9761
1.1712 5.5658 -2.0340 0.9761
0.6634 5.6489 -2.0340 0.9761
-0.3641 5.6760 -2.0340 0.9761
-2.3502 5.1793 -2.0339 0.9761
-4.3777 3.6310 -2.0339 0.9761
4.2586 3.1678 -2.0340 0.9775
3.9550 3.5396 -2.0340 0.9775
3.6189 3.8825 -2.0340 0.9775
2.8611 4.4704 -2.0340 0.9775
2.4455 4.7107 -2.0340 0.9775
2.0098 4.9123 -2.0340 0.9775
1.0929 5.1938 -2.0340 0.9775
-1.7474 5.0116 -2.0339 0.9775
-2.6209 4.6153 -2.0339 0.9775
-3.4086 4.0682 -2.0339 0.9775
-4.0852 3.3883 -2.0339 0.9775
-4.3746 3.0053 -2.0339 0.9775
-4.6282 2.5977 -2.0339 0.9775
3.3886 3.6354 -2.0340 0.9787
2.6789 4.1859 -2.0340 0.9787
2.2897 4.4108 -2.0340 0.9787
1.8819 4.5996 -2.0340 0.9787
0.1313 4.9679 -2.0340 0.9787
-1.2055 4.8212 -2.0339 0.9788
-1.6361 4.6925 -2.0339 0.9788
-2.0535 4.5255 -2.0339 0.9788
-2.4540 4.3214 -2.0339 0.9788
-3.1916 3.8092 -2.0339 0.9788
-4.0961 2.8140 -2.0339 0.9788
-4.3336 2.4323 -2.0339 0.9788
3.7446 2.7855 -2.0340 0.9798
3.4776 3.1124 -2.0340 0.9798
3.1821 3.4139 -2.0340 0.9798
2.5158 3.9309 -2.0340 0.9798
0.1234 4.6654 -2.0340 0.9798
-1.5365 4.4067 -2.0339 0.9798
-2.3045 4.0582 -2.0339 0.9798
-2.9972 3.5772 -2.0339 0.9798
-3.5921 2.9793 -2.0339 0.9798
-3.8466 2.6426 -2.0339 0.9798
3.5257 2.6226 -2.0340 0.9808
2.6934 3.4719 -2.0340 0.9808
2.3687 3.7010 -2.0340 0.9808
1.2896 4.2006 -2.0340 0.9808
-0.6763 4.3417 -2.0339 0.9808
-1.0659 4.2628 -2.0339 0.9808
-1.4467 4.1491 -2.0339 0.9808
-2.5061 3.6092 -2.0339 0.9808
-2.8220 3.3680 -2.0339 0.9808
-3.1148 3.0992 -2.0339 0.9808
-3.6217 2.4880 -2.0339 0.9808
-3.8316 2.1506 -2.0339 0.9808
3.3270 2.4748 -2.0340 0.9817
3.0898 2.7653 -2.0340 0.9817
2.8272 3.0332 -2.0340 0.9817
2.5416 3.2762 -2.0340 0.9817
2.2352 3.4925 -2.0340 0.9817
1.9105 3.6802 -2.0340 0.9817
1.5701 3.8377 -2.0340 0.9817
0.8538 4.0576 -2.0340 0.9817
0.1096 4.1450 -2.0339 0.9817
-2.3649 3.4059 -2.0339 0.9817
-2.6630 3.1783 -2.0339 0.9817
-3.1914 2.6471 -2.0339 0.9817
-3.4176 2.3479 -2.0339 0.9817
-3.6158 2.0294 -2.0339 0.9817
2.9214 2.6147 -2.0340 0.9825
2.6732 2.8680 -2.0340 0.9825
1.8064 3.4797 -2.0340 0.9825
1.4846 3.6287 -2.0340 0.9825
1.1506 3.7480 -2.0340 0.9825
0.8073 3.8366 -2.0340 0.9825
0.4573 3.8939 -2.0339 0.9825
0.1036 3.9193 -2.0339 0.9825
-0.6034 3.8739 -2.0339 0.9825
-1.2908 3.7020 -2.0339 0.9825
-1.6200 3.5702 -2.0339 0.9825
-2.5179 3.0051 -2.0339 0.9825
-3.2314 2.2200 -2.0339 0.9825
-3.4188 1.9189 -2.0339 0.9825
2.9796 2.2164 -2.0340 0.9832
2.0018 3.1278 -2.0340 0.9832
0.7646 3.6340 -2.0339 0.9832
0.4332 3.6882 -2.0339 0.9832
0.0981 3.7123 -2.0339 0.9832
-0.5715 3.6693 -2.0339 0.9832
-0.9008 3.6026 -2.0339 0.9832
-1.5345 3.3817 -2.0339 0.9832
-2.1180 3.0503 -2.0339 0.9832
-2.3850 2.8465 -2.0339 0.9832
-2.6324 2.6193 -2.0339 0.9832
-3.0608 2.1028 -2.0339 0.9832
2.8266 2.1026 -2.0339 0.9839
2.6251 2.3494 -2.0339 0.9839
2.4021 2.5770 -2.0339 0.9839
1.8991 2.9672 -2.0340 0.9839
1.3339 3.2605 -2.0339 0.9839
1.0339 3.3677 -2.0339 0.9839
-0.8545 3.4176 -2.0339 0.9839
-1.1598 3.3264 -2.0339 0.9839
-1.4557 3.2080 -2.0339 0.9839
-2.4972 2.4848 -2.0339 0.9839
-2.7115 2.2490 -2.0339 0.9839
