ply
format ascii 1.0
element vertex 214
property float32 x
property float32 y
property float32 z
property float32 I
end_header
2.5741 17.5932 2.7239 0.9306
-11.4063 12.7127 2.6165 0.9332
2.6218 17.9194 2.3583 0.9296
-12.7557 11.9273 2.2741 0.9320
2.8449 19.4445 2.1102 0.9240
-11.3691 12.6712 1.8281 0.9338
-12.8686 12.0329 1.8918 0.9316
-12.7620 11.9331 1.4790 0.9323
2.5091 17.1497 1.0748 0.9329
-12.1110 13.4980 1.1245 0.9299
2.6216 17.9184 0.3059 0.9301
2.7019 18.4670 -0.1051 0.9281
2.7243 18.6201 -0.5299 0.9275
2.7085 18.5118 -1.3718 0.9277
-0.9066 7.6670 -0.7412 0.9695
-1.5579 7.4793 -0.7335 0.9698
6.7984 15.7170 -2.0341 0.9333
5.3964 16.2518 -2.0341 0.9333
3.9529 16.6618 -2.0341 0.9333
0.9862 17.0956 -2.0341 0.9333
-0.5142 17.1162 -2.0341 0.9333
-0.9087 7.6851 -0.9192 0.9693
-1.5492 7.4379 -0.9025 0.9699
-7.7292 15.2796 -2.0340 0.9334
-9.0371 14.5441 -2.0340 0.9334
-10.2755 13.6970 -2.0340 0.9334
-12.5068 11.6946 -2.0339 0.9334
-13.4824 10.5546 -2.0339 0.9334
-15.1164 8.0411 -2.0339 0.9334
4.5241 13.6245 -2.0341 0.9437
-0.4311 14.3493 -2.0341 0.9437
-0.8773 7.4199 -1.0586 0.9703
-2.2207 7.3609 -1.0894 0.9694
-5.3335 13.3278 -2.0340 0.9437
-7.5762 12.1930 -2.0340 0.9437
-9.5866 10.6845 -2.0339 0.9437
-12.6729 6.7414 -2.0339 0.9437
5.8752 10.8598 -2.0341 0.9512
4.9019 11.3325 -2.0341 0.9512
1.7875 12.2170 -2.0341 0.9512
0.7111 12.3265 -2.0340 0.9512
-0.8707 7.3643 -1.2216 0.9704
-7.4091 9.8762 -2.0339 0.9512
-8.2453 9.1896 -2.0339 0.9512
-9.7216 7.6105 -2.0339 0.9512
-10.3505 6.7301 -2.0339 0.9512
-10.8998 5.7981 -2.0339 0.9512
5.1493 9.5180 -2.0341 0.9569
4.2962 9.9323 -2.0340 0.9569
3.4102 10.2703 -2.0340 0.9569
0.6233 10.8036 -2.0340 0.9569
-0.8640 7.3072 -1.3830 0.9705
-1.5106 7.2527 -1.3925 0.9703
-5.7111 9.1913 -2.0340 0.9569
-7.9039 7.3906 -2.0339 0.9569
-0.8641 7.3078 -1.5555 0.9704
-1.5282 7.3370 -1.5842 0.9698
-3.5750 8.9336 -2.0340 0.9614
-5.0784 8.1730 -2.0339 0.9614
-5.7743 7.6970 -2.0339 0.9614
-6.4260 7.1619 -2.0339 0.9614
-7.0282 6.5718 -2.0339 0.9614
-7.5766 5.9312 -2.0339 0.9614
-8.0666 5.2451 -2.0339 0.9614
-8.4948 4.5188 -2.0339 0.9614
4.1181 7.6120 -2.0340 0.9651
2.7273 8.2136 -2.0340 0.9651
-1.5670 7.5233 -1.8061 0.9689
-2.1864 7.2473 -1.7791 0.9694
-3.2154 8.0348 -2.0340 0.9651
-4.5675 7.3508 -2.0339 0.9651
-5.7795 6.4414 -2.0339 0.9651
-6.3212 5.9106 -2.0339 0.9651
-6.8143 5.3346 -2.0339 0.9651
-7.2551 4.7175 -2.0339 0.9651
3.7380 6.9095 -2.0340 0.9681
3.1188 7.2102 -2.0340 0.9681
2.4756 7.4555 -2.0340 0.9681
1.8134 7.6436 -2.0340 0.9681
1.1373 7.7730 -2.0340 0.9681
-2.2689 7.5208 -2.0340 0.9681
-3.5459 7.0097 -2.0339 0.9681
-4.1459 6.6724 -2.0339 0.9681
-4.7141 6.2838 -2.0339 0.9681
-5.2461 5.8469 -2.0339 0.9681
-5.7378 5.3652 -2.0339 0.9681
-6.1855 4.8422 -2.0339 0.9681
3.4188 6.3194 -2.0340 0.9706
2.8525 6.5944 -2.0340 0.9706
1.6585 6.9908 -2.0340 0.9706
1.0402 7.1092 -2.0340 0.9706
0.4138 7.1729 -2.0340 0.9706
-0.2157 7.1816 -2.0340 0.9706
-1.4650 7.0338 -2.0340 0.9706
-2.6694 6.6705 -2.0340 0.9706
-3.2431 6.4111 -2.0339 0.9706
-3.7919 6.1026 -2.0339 0.9706
-4.3116 5.7471 -2.0339 0.9706
-4.7981 5.3476 -2.0339 0.9706
-5.6572 4.4287 -2.0339 0.9706
-6.0232 3.9164 -2.0339 0.9706
3.1466 5.8163 -2.0340 0.9727
1.5265 6.4343 -2.0340 0.9727
0.3809 6.6019 -2.0340 0.9727
-2.4569 6.1394 -2.0339 0.9727
-3.9683 5.2896 -2.0339 0.9727
-4.4161 4.9219 -2.0339 0.9727
-4.8300 4.5164 -2.0339 0.9727
-5.2069 4.0762 -2.0339 0.9727
-5.8380 3.1055 -2.0339 0.9727
2.9116 5.3819 -2.0340 0.9745
2.4293 5.6161 -2.0340 0.9745
0.8858 6.0545 -2.0340 0.9745
0.3524 6.1088 -2.0340 0.9745
-0.1837 6.1162 -2.0340 0.9745
-1.2477 5.9903 -2.0340 0.9745
-3.2293 5.1972 -2.0339 0.9745
-5.1297 3.3355 -2.0339 0.9745
-5.4019 2.8736 -2.0339 0.9745
2.7064 5.0026 -2.0340 0.9761
1.7924 5.3979 -2.0340 0.9761
0.3275 5.6783 -2.0340 0.9761
-0.1708 5.6851 -2.0340 0.9761
-1.1598 5.5682 -2.0340 0.9761
-2.5673 5.0752 -2.0339 0.9761
-3.0018 4.8310 -2.0339 0.9761
-4.1543 3.8846 -2.0339 0.9761
-4.7682 3.1004 -2.0339 0.9761
-5.0212 2.6711 -2.0339 0.9761
2.1071 4.8714 -2.0340 0.9775
1.2252 5.1643 -2.0340 0.9775
-1.5330 5.0813 -2.0339 0.9775
-1.9719 4.9276 -2.0339 0.9775
-2.8011 4.5081 -2.0339 0.9775
-3.1850 4.2456 -2.0339 0.9775
-3.5445 3.9504 -2.0339 0.9775
-3.8767 3.6249 -2.0339 0.9775
-4.1791 3.2716 -2.0339 0.9775
-4.6857 2.4925 -2.0339 0.9775
1.9730 4.5612 -2.0340 0.9787
1.5661 4.7165 -2.0340 0.9787
1.1472 4.8355 -2.0340 0.9787
0.2862 4.9614 -2.0340 0.9787
-1.0133 4.8652 -2.0339 0.9788
-1.8464 4.6139 -2.0339 0.9788
-2.2432 4.4345 -2.0339 0.9788
-2.6228 4.2211 -2.0339 0.9788
-3.6299 3.3942 -2.0339 0.9788
-3.9130 3.0633 -2.0339 0.9788
2.2207 4.1048 -2.0340 0.9798
1.0773 4.5410 -2.0340 0.9798
0.6756 4.6178 -2.0340 0.9798
-0.1401 4.6649 -2.0340 0.9798
-0.5480 4.6347 -2.0339 0.9798
-0.9516 4.5689 -2.0339 0.9798
-1.3480 4.4680 -2.0339 0.9798
-2.4630 3.9640 -2.0339 0.9798
-2.8006 3.7332 -2.0339 0.9798
-3.1167 3.4736 -2.0339 0.9798
-3.9125 2.5440 -2.0339 0.9798
-4.1201 2.1917 -2.0339 0.9798
2.0909 3.8648 -2.0340 0.9808
-0.5159 4.3637 -2.0339 0.9808
-0.8960 4.3017 -2.0339 0.9808
-2.3190 3.7322 -2.0339 0.9808
-2.6368 3.5149 -2.0339 0.9808
-2.9345 3.2705 -2.0339 0.9808
-3.6837 2.3952 -2.0339 0.9808
1.6463 3.8057 -2.0340 0.9817
0.6003 4.1028 -2.0340 0.9817
-0.1245 4.1446 -2.0339 0.9817
-0.8455 4.0593 -2.0339 0.9817
-1.5405 3.8496 -2.0339 0.9817
-1.8716 3.7000 -2.0339 0.9817
-2.4883 3.3168 -2.0339 0.9817
-3.0287 2.8319 -2.0339 0.9817
-3.2649 2.5559 -2.0339 0.9817
-3.4761 2.2603 -2.0339 0.9817
-3.6607 1.9473 -2.0339 0.9817
1.8655 3.4484 -2.0340 0.9825
0.9050 3.8147 -2.0340 0.9825
0.5676 3.8793 -2.0339 0.9825
0.2258 3.9141 -2.0339 0.9825
-0.7995 3.8382 -2.0339 0.9825
-1.4566 3.6399 -2.0339 0.9825
-2.0692 3.3301 -2.0339 0.9825
-2.3528 3.1361 -2.0339 0.9825
-3.2868 2.1372 -2.0339 0.9825
-3.4612 1.8412 -2.0339 0.9825
1.7670 3.2662 -2.0340 0.9832
1.4743 3.4084 -2.0340 0.9832
1.1703 3.5244 -2.0340 0.9832
0.8573 3.6133 -2.0339 0.9832
0.2139 3.7074 -2.0339 0.9832
-0.1115 3.7119 -2.0339 0.9832
-1.0726 3.5553 -2.0339 0.9832
-1.6762 3.3137 -2.0339 0.9832
-1.9599 3.1542 -2.0339 0.9832
-2.2285 2.9705 -2.0339 0.9832
-2.7125 2.5363 -2.0339 0.9832
-3.1132 2.0243 -2.0339 0.9832
-3.2785 1.7440 -2.0339 0.9832
1.6763 3.0985 -2.0339 0.9839
1.3986 3.2334 -2.0339 0.9839
1.1102 3.3434 -2.0339 0.9839
0.8132 3.4277 -2.0339 0.9839
0.5100 3.4858 -2.0339 0.9839
0.2029 3.5170 -2.0339 0.9839
-0.1058 3.5213 -2.0339 0.9839
-0.4136 3.4985 -2.0339 0.9839
-1.3088 3.2707 -2.0339 0.9839
-1.8593 2.9922 -2.0339 0.9839
-2.9534 1.9204 -2.0339 0.9839
-0.9039 0.4808 -0.5911 0.9953
