ply
format ascii 1.0
element vertex 170
property float32 x
property float32 y
property float32 z
property float32 I
end_header
16.5918 -3.6732 -0.8618 0.9342
16.3826 -3.6269 -1.2303 0.9349
2.8968 -6.0644 -0.6452 0.9734
-0.1373 -17.1203 -2.0337 0.9334
2.3080 -6.2282 -0.7890 0.9736
2.8033 -5.8687 -0.7726 0.9741
8.7493 -14.7174 -2.0338 0.9334
11.2618 -12.8970 -2.0339 0.9334
14.3150 -9.3949 -2.0339 0.9334
15.1075 -8.0593 -2.0339 0.9334
15.7757 -6.6574 -2.0340 0.9334
16.3142 -5.2007 -2.0340 0.9334
16.7184 -3.7012 -2.0340 0.9334
2.8258 -5.9158 -0.9289 0.9739
9.4415 -10.8124 -2.0339 0.9437
14.2396 -1.8202 -2.0340 0.9437
-0.0990 -12.3450 -2.0338 0.9512
2.1305 -12.1603 -2.0338 0.9512
1.6634 -6.1497 -1.0495 0.9745
2.7946 -5.8505 -1.0681 0.9741
7.2445 -9.9970 -2.0339 0.9512
8.1205 -9.2996 -2.0339 0.9512
10.8933 -5.8112 -2.0339 0.9512
12.0548 -2.6687 -2.0340 0.9512
12.2471 -1.5655 -2.0340 0.9512
-0.0868 -10.8199 -2.0338 0.9569
2.1714 -5.8595 -1.1746 0.9749
2.7207 -5.6957 -1.1864 0.9746
3.5116 -5.9070 -1.2917 0.9724
8.4714 -6.7325 -2.0339 0.9569
9.0466 -5.9373 -2.0339 0.9569
10.7339 -1.3721 -2.0340 0.9569
0.7949 -9.5887 -2.0338 0.9614
2.1342 -5.7589 -1.2982 0.9752
2.7087 -5.6707 -1.3284 0.9746
3.5013 -5.8896 -1.4483 0.9724
6.9594 -6.6445 -2.0339 0.9614
8.0443 -5.2795 -2.0339 0.9614
8.4896 -4.5289 -2.0339 0.9614
-0.0695 -8.6534 -2.0338 0.9651
0.7149 -8.6241 -2.0338 0.9651
1.4934 -8.5239 -2.0338 0.9651
2.1772 -5.8751 -1.4725 0.9746
2.7116 -5.6767 -1.4785 0.9745
6.2593 -5.9760 -2.0339 0.9651
6.7750 -5.3844 -2.0339 0.9651
7.6355 -4.0733 -2.0339 0.9651
7.9733 -3.3647 -2.0339 0.9651
-0.0630 -7.8548 -2.0338 0.9681
2.1739 -5.8660 -1.6198 0.9745
2.6770 -5.6042 -1.6081 0.9747
4.0141 -6.7522 -2.0339 0.9681
4.6094 -6.3607 -2.0339 0.9681
5.1668 -5.9170 -2.0339 0.9681
6.1498 -4.8874 -2.0339 0.9681
6.5674 -4.3102 -2.0339 0.9681
6.9309 -3.6974 -2.0339 0.9681
7.4844 -2.3859 -2.0339 0.9681
7.7922 -0.9961 -2.0340 0.9681
1.2398 -7.0766 -2.0338 0.9706
2.1958 -5.9253 -1.7889 0.9741
2.8464 -5.9589 -1.8695 0.9729
4.2158 -5.8176 -2.0339 0.9706
4.7255 -5.4117 -2.0339 0.9706
6.0065 -3.9421 -2.0339 0.9706
6.3391 -3.3817 -2.0339 0.9706
6.6194 -2.7934 -2.0339 0.9706
6.8453 -2.1822 -2.0339 0.9706
7.0150 -1.5530 -2.0339 0.9706
7.1268 -0.9110 -2.0340 0.9706
0.5462 -6.5898 -2.0338 0.9727
1.1411 -6.5132 -2.0338 0.9727
1.7266 -6.3830 -2.0338 0.9727
2.2978 -6.2004 -2.0339 0.9727
3.8802 -5.3545 -2.0339 0.9727
4.7828 -4.5663 -2.0339 0.9727
5.5284 -3.6283 -2.0339 0.9727
6.0925 -2.5711 -2.0339 0.9727
6.3004 -2.0085 -2.0339 0.9727
6.4564 -1.4294 -2.0339 0.9727
-0.0491 -6.1183 -2.0338 0.9745
3.5904 -4.9545 -2.0339 0.9745
4.0245 -4.6089 -2.0339 0.9745
4.4255 -4.2253 -2.0339 0.9745
5.1155 -3.3573 -2.0339 0.9745
5.6374 -2.3790 -2.0339 0.9745
6.0695 -0.7759 -2.0339 0.9745
-0.0456 -5.6872 -2.0338 0.9761
0.4698 -5.6679 -2.0338 0.9761
0.9814 -5.6021 -2.0338 0.9761
2.4514 -5.1320 -2.0339 0.9761
2.9063 -4.8888 -2.0339 0.9761
3.3373 -4.6054 -2.0339 0.9761
3.7409 -4.2841 -2.0339 0.9761
4.1137 -3.9275 -2.0339 0.9761
4.4526 -3.5387 -2.0339 0.9761
4.7549 -3.1207 -2.0339 0.9761
5.0182 -2.6771 -2.0339 0.9761
5.4189 -1.7275 -2.0339 0.9761
5.5532 -1.2294 -2.0339 0.9761
5.6418 -0.7212 -2.0339 0.9761
-0.0426 -5.3071 -2.0338 0.9775
0.9159 -5.2277 -2.0338 0.9775
1.8443 -4.9766 -2.0339 0.9775
2.7121 -4.5621 -2.0339 0.9775
3.1143 -4.2976 -2.0339 0.9775
3.4909 -3.9978 -2.0339 0.9775
3.8387 -3.6650 -2.0339 0.9775
4.1550 -3.3022 -2.0339 0.9775
4.4371 -2.9121 -2.0339 0.9775
4.6828 -2.4981 -2.0339 0.9775
4.8899 -2.0636 -2.0339 0.9775
5.0568 -1.6121 -2.0339 0.9775
5.1821 -1.1472 -2.0339 0.9775
0.4105 -4.9524 -2.0338 0.9788
1.2975 -4.7970 -2.0339 0.9788
1.7268 -4.6598 -2.0339 0.9788
2.9160 -4.0240 -2.0339 0.9788
3.2686 -3.7432 -2.0339 0.9788
3.8905 -3.0919 -2.0339 0.9788
4.1547 -2.7267 -2.0339 0.9788
4.7348 -1.5094 -2.0339 0.9788
-0.0374 -4.6666 -2.0338 0.9798
0.3855 -4.6508 -2.0339 0.9798
1.2185 -4.5049 -2.0339 0.9798
2.0115 -4.2111 -2.0339 0.9798
2.3848 -4.0115 -2.0339 0.9798
2.7384 -3.7789 -2.0339 0.9798
3.3754 -3.2227 -2.0339 0.9798
3.9017 -2.5606 -2.0339 0.9798
4.5566 -1.0088 -2.0339 0.9798
4.6293 -0.5918 -2.0339 0.9798
0.3630 -4.3789 -2.0339 0.9808
0.7582 -4.3280 -2.0339 0.9808
1.5268 -4.1201 -2.0339 0.9808
1.8939 -3.9648 -2.0339 0.9808
2.2453 -3.7769 -2.0339 0.9808
2.8901 -3.3097 -2.0339 0.9808
3.1781 -3.0342 -2.0339 0.9808
3.6735 -2.4109 -2.0339 0.9808
4.0483 -1.7084 -2.0339 0.9808
4.2902 -0.9498 -2.0339 0.9808
4.3586 -0.5572 -2.0339 0.9808
-0.0333 -4.1462 -2.0339 0.9817
0.3425 -4.1321 -2.0339 0.9817
2.7272 -3.1232 -2.0339 0.9817
3.6584 -1.9516 -2.0339 0.9817
3.8202 -1.6121 -2.0339 0.9817
4.0484 -0.8963 -2.0339 0.9817
4.1130 -0.5258 -2.0339 0.9817
2.0034 -3.3700 -2.0339 0.9825
3.0693 -2.4393 -2.0339 0.9825
3.6121 -1.5243 -2.0339 0.9825
2.1163 -0.4685 -1.1245 0.9903
2.0893 -0.2671 -1.0927 0.9906
1.6005 -3.3508 -2.0339 0.9832
1.8976 -3.1920 -2.0339 0.9832
2.1790 -3.0070 -2.0339 0.9832
2.9072 -2.3105 -2.0339 0.9832
3.1046 -2.0376 -2.0339 0.9832
1.8445 -0.2358 -1.0184 0.9916
0.6079 -3.4699 -2.0339 0.9839
1.2241 -3.3033 -2.0339 0.9839
1.5184 -3.1788 -2.0339 0.9839
1.8002 -3.0281 -2.0339 0.9839
2.0671 -2.8526 -2.0339 0.9839
2.3171 -2.6535 -2.0339 0.9839
2.5480 -2.4327 -2.0339 0.9839
3.1082 -1.6581 -2.0339 0.9839
1.7149 -0.3797 -1.0141 0.9919
