ply
format ascii 1.0
element vertex 169
property float32 x
property float32 y
property float32 z
property float32 I
end_header
-12.1932 -8.0400 -0.7407 0.9432
-12.0059 -7.9164 -1.0544 0.9440
-16.7219 -3.6744 -2.0337 0.9334
-16.3153 -5.1895 -2.0337 0.9334
-15.7717 -6.6611 -2.0337 0.9334
-13.3703 -10.6932 -2.0337 0.9334
-11.1969 -12.9513 -2.0337 0.9334
-8.6484 -14.7755 -2.0337 0.9334
-5.8100 -16.1045 -2.0337 0.9334
-4.3115 -16.5688 -2.0337 0.9334
-14.0191 -3.0805 -2.0337 0.9437
-13.6782 -4.3507 -2.0337 0.9437
-12.6558 -6.7712 -2.0337 0.9437
-8.3539 -11.6717 -2.0337 0.9437
-2.3280 -14.1634 -2.0337 0.9437
-1.0218 -14.3171 -2.0337 0.9437
-12.2496 -1.5347 -2.0338 0.9512
-11.7645 -3.7420 -2.0338 0.9512
-9.6411 -7.7106 -2.0337 0.9512
-8.8948 -8.5607 -2.0337 0.9512
-8.0739 -9.3389 -2.0337 0.9512
-7.1852 -10.0387 -2.0337 0.9512
-3.1089 -11.9473 -2.0337 0.9512
-0.8788 -12.3140 -2.0338 0.9512
-10.3112 -3.2797 -2.0338 0.9569
-9.9677 -4.2098 -2.0338 0.9569
-9.5405 -5.1044 -2.0338 0.9569
-8.4501 -6.7581 -2.0338 0.9569
-7.7960 -7.5032 -2.0337 0.9569
-7.0764 -8.1852 -2.0337 0.9569
-6.2975 -8.7986 -2.0337 0.9569
-4.5880 -9.7992 -2.0338 0.9569
-0.7703 -10.7927 -2.0338 0.9569
-9.5469 -1.1961 -2.0338 0.9614
-9.3973 -2.0649 -2.0338 0.9614
-9.1688 -2.9164 -2.0338 0.9614
-8.4835 -4.5389 -2.0338 0.9614
-7.5139 -6.0094 -2.0338 0.9614
-4.8602 -8.3036 -2.0338 0.9614
-4.0798 -8.7136 -2.0338 0.9614
-3.2651 -9.0504 -2.0338 0.9614
-2.4230 -9.3114 -2.0338 0.9614
-1.5605 -9.4941 -2.0338 0.9614
0.1964 -9.6195 -2.0338 0.9614
-8.2465 -2.6231 -2.0338 0.9651
-7.9718 -3.3668 -2.0338 0.9651
-6.7580 -5.4049 -2.0338 0.9651
-2.9366 -8.1400 -2.0338 0.9651
-2.1792 -8.3747 -2.0338 0.9651
-1.4035 -8.5390 -2.0338 0.9651
-0.6160 -8.6317 -2.0338 0.9651
0.1766 -8.6518 -2.0338 0.9651
-7.6720 -1.6858 -2.0338 0.9681
-7.4854 -2.3810 -2.0338 0.9681
-6.5577 -4.3240 -2.0338 0.9681
-6.1344 -4.9061 -2.0338 0.9681
-5.1372 -5.9422 -2.0338 0.9681
-4.5718 -6.3874 -2.0338 0.9681
-2.6656 -7.3888 -2.0338 0.9681
0.1603 -7.8534 -2.0338 0.9681
-6.8463 -2.1776 -2.0338 0.9706
-6.3346 -3.3892 -2.0338 0.9706
-4.6985 -5.4347 -2.0338 0.9706
-3.6291 -6.2002 -2.0338 0.9706
-3.0463 -6.5064 -2.0338 0.9706
0.1466 -7.1828 -2.0338 0.9706
-6.5611 -0.8220 -2.0338 0.9727
-6.4583 -1.4191 -2.0338 0.9727
-6.0914 -2.5726 -2.0338 0.9727
-5.5203 -3.6400 -2.0338 0.9727
-5.1640 -4.1300 -2.0338 0.9727
-4.7643 -4.5853 -2.0338 0.9727
-4.3246 -5.0021 -2.0338 0.9727
-3.8485 -5.3770 -2.0338 0.9727
-3.3402 -5.7066 -2.0338 0.9727
-2.8038 -5.9885 -2.0338 0.9727
-2.2439 -6.2200 -2.0338 0.9727
-1.0725 -6.5248 -2.0338 0.9727
-0.4708 -6.5956 -2.0338 0.9727
-5.9760 -1.3131 -2.0338 0.9745
-5.6364 -2.3805 -2.0338 0.9745
-5.3948 -2.8864 -2.0338 0.9745
-4.4084 -4.2429 -2.0338 0.9745
-3.0907 -5.2804 -2.0338 0.9745
-2.0763 -5.7554 -2.0338 0.9745
-1.5408 -5.9213 -2.0338 0.9745
-5.5548 -1.2206 -2.0338 0.9761
-5.2392 -2.2128 -2.0338 0.9761
-5.0147 -2.6830 -2.0338 0.9761
-4.7480 -3.1308 -2.0338 0.9761
-4.0978 -3.9438 -2.0338 0.9761
-3.7196 -4.3024 -2.0338 0.9761
-2.8730 -4.9083 -2.0338 0.9761
-1.9300 -5.3498 -2.0338 0.9761
-0.9224 -5.6120 -2.0338 0.9761
-5.0576 -1.6087 -2.0338 0.9775
-4.4307 -2.9215 -2.0338 0.9775
-4.1447 -3.3148 -2.0338 0.9775
-3.8239 -3.6803 -2.0338 0.9775
-3.0890 -4.3157 -2.0338 0.9775
-2.2505 -4.8065 -2.0338 0.9775
-1.8011 -4.9923 -2.0338 0.9775
-0.3778 -5.2938 -2.0338 0.9775
0.1083 -5.3062 -2.0338 0.9775
-2.1206 -0.4660 -0.8886 0.9907
-4.3816 -2.3443 -2.0338 0.9788
-4.1486 -2.7355 -2.0338 0.9788
-3.5805 -3.4460 -2.0338 0.9788
-3.2500 -3.7593 -2.0338 0.9788
-2.8923 -4.0409 -2.0338 0.9788
-2.5103 -4.2887 -2.0338 0.9788
-1.2515 -4.8092 -2.0338 0.9788
-0.3538 -4.9568 -2.0338 0.9788
-1.9042 -0.2386 -0.8364 0.9917
-3.3624 -3.2361 -2.0338 0.9798
-3.0521 -3.5303 -2.0338 0.9798
-2.3574 -4.0275 -2.0338 0.9798
-1.9788 -4.2264 -2.0338 0.9798
-1.5837 -4.3898 -2.0338 0.9798
-0.3323 -4.6549 -2.0338 0.9798
-4.0477 -1.7095 -2.0338 0.9808
-3.4314 -2.7443 -2.0338 0.9808
-3.1658 -3.0469 -2.0338 0.9808
-2.8736 -3.3239 -2.0338 0.9808
-2.5573 -3.5729 -2.0338 0.9808
-2.2195 -3.7921 -2.0338 0.9808
-1.4911 -4.1331 -2.0338 0.9808
-0.3128 -4.3827 -2.0338 0.9808
0.0896 -4.3930 -2.0339 0.9808
-1.3519 -0.1694 -0.6683 0.9939
-1.3282 -0.2919 -0.6671 0.9940
-3.8196 -1.6132 -2.0338 0.9817
-3.6559 -1.9560 -2.0338 0.9817
-3.2380 -2.5897 -2.0338 0.9817
-2.7117 -3.1366 -2.0338 0.9817
-1.7582 -3.7551 -2.0338 0.9817
-1.0442 -4.0127 -2.0338 0.9817
0.0846 -4.1454 -2.0339 0.9817
-1.1137 -0.4704 -0.6272 0.9946
-3.0617 -2.4487 -2.0338 0.9825
-2.8247 -2.7186 -2.0338 0.9825
-1.9804 -3.3835 -2.0338 0.9825
-1.6624 -3.5506 -2.0338 0.9825
-1.3304 -3.6878 -2.0338 0.9825
-0.6359 -3.8686 -2.0339 0.9825
-0.2791 -3.9105 -2.0339 0.9825
0.0800 -3.9197 -2.0339 0.9825
-1.0540 -0.2316 -0.5911 0.9951
-1.0063 -0.4251 -0.5983 0.9950
-3.2742 -1.7518 -2.0339 0.9832
-2.9000 -2.3194 -2.0338 0.9832
-2.4286 -2.8092 -2.0338 0.9832
-2.1613 -3.0196 -2.0338 0.9832
-1.5746 -3.3630 -2.0338 0.9832
-1.2602 -3.4931 -2.0339 0.9832
-0.9352 -3.5938 -2.0339 0.9832
-0.2644 -3.7040 -2.0339 0.9832
-0.9858 -0.1235 -0.5736 0.9954
-0.9537 -0.3034 -0.5778 0.9954
-0.9329 -0.3940 -0.5847 0.9953
-0.9030 -0.4832 -0.5913 0.9953
-2.9409 -1.9392 -2.0339 0.9839
-2.5381 -2.4428 -2.0339 0.9839
-2.3039 -2.6649 -2.0339 0.9839
-2.0503 -2.8646 -2.0339 0.9839
-1.7795 -3.0402 -2.0339 0.9839
-0.8871 -3.4092 -2.0339 0.9839
-0.5714 -3.4761 -2.0339 0.9839
-0.2508 -3.5138 -2.0339 0.9839
