ply
format ascii 1.0
element vertex 241
property float32 x
property float32 y
property float32 z
property float32 I
end_header
3.2683 18.6086 3.3314 0.9261
1.4812 17.6173 2.3022 0.9312
-11.2023 12.6203 2.1975 0.9342
-12.7081 11.9550 2.2720 0.9320
3.0409 17.3143 1.8877 0.9317
-12.8420 12.0810 1.8933 0.9315
3.0820 17.5484 1.5083 0.9310
1.5529 18.4702 1.5691 0.9283
-12.7355 11.9808 1.4802 0.9322
3.0183 17.1855 1.0820 0.9325
-12.0191 13.5405 1.1227 0.9300
3.3775 19.2309 0.7699 0.9248
1.5238 18.1245 0.7172 0.9298
3.2390 18.4421 -0.5272 0.9278
-16.3498 5.1468 -1.2568 0.9336
-1.4442 7.6721 -0.7495 0.9691
-2.1023 7.4215 -0.7405 0.9695
-0.1045 17.1237 -2.0341 0.9333
-1.4209 7.5480 -0.9123 0.9695
-2.0934 7.3898 -0.9123 0.9695
-6.1286 15.9892 -2.0340 0.9333
-7.5404 15.3736 -2.0340 0.9334
-10.1702 13.7754 -2.0340 0.9334
-12.4714 11.7323 -2.0339 0.9334
-13.4750 10.5641 -2.0339 0.9334
-15.1480 7.9814 -2.0339 0.9334
-16.3316 5.1411 -2.0338 0.9334
-16.7273 3.6527 -2.0338 0.9334
-16.9878 2.1348 -2.0338 0.9334
-17.1107 0.5997 -2.0338 0.9334
-16.9414 -2.4726 -2.0337 0.9334
2.4834 14.1395 -2.0341 0.9437
-0.0876 14.3555 -2.0341 0.9437
-0.7223 7.4945 -1.0668 0.9700
-1.3887 7.3773 -1.0636 0.9701
-2.0559 7.2574 -1.0688 0.9700
-6.3215 12.8885 -2.0340 0.9437
-8.5262 11.5486 -2.0340 0.9437
-9.5294 10.7357 -2.0339 0.9437
-12.0469 7.8054 -2.0339 0.9437
-12.6995 6.6912 -2.0339 0.9437
-13.2493 5.5230 -2.0338 0.9437
-13.6918 4.3101 -2.0338 0.9437
-14.2419 1.7897 -2.0338 0.9437
-14.3321 -0.7883 -2.0338 0.9437
2.1359 12.1610 -2.0341 0.9512
1.0345 12.3036 -2.0340 0.9512
-0.7115 7.3823 -1.2218 0.9704
-2.0539 7.2506 -1.2415 0.9699
-4.4189 11.5289 -2.0340 0.9512
-6.4110 10.5516 -2.0340 0.9512
-7.3332 9.9327 -2.0339 0.9512
-9.7163 7.6173 -2.0339 0.9512
-10.9226 5.7551 -2.0339 0.9512
-11.7762 3.7070 -2.0338 0.9512
-12.2493 1.5393 -2.0338 0.9512
-12.3380 0.4324 -2.0338 0.9512
-12.3268 -0.6780 -2.0338 0.9512
-12.2160 -1.7830 -2.0338 0.9512
1.8720 10.6584 -2.0340 0.9569
0.9067 10.7835 -2.0340 0.9569
-0.7211 7.4819 -1.4128 0.9699
-1.3647 7.2499 -1.3866 0.9704
-4.7652 9.7155 -2.0340 0.9569
-7.1835 8.0927 -2.0339 0.9569
-8.5158 6.6762 -2.0339 0.9569
-9.0813 5.8839 -2.0339 0.9569
-9.9877 4.1634 -2.0339 0.9569
-10.3213 3.2491 -2.0338 0.9569
-10.7360 1.3492 -2.0338 0.9569
-10.8039 -0.5943 -2.0338 0.9569
1.6645 9.4775 -2.0340 0.9614
-0.0587 9.6223 -2.0340 0.9614
-0.7043 7.3073 -1.5518 0.9704
-4.9964 8.2233 -2.0339 0.9614
-7.0083 6.5930 -2.0339 0.9614
-7.5724 5.9365 -2.0339 0.9614
-8.0752 5.2320 -2.0339 0.9614
-9.4002 2.0527 -2.0338 0.9614
-9.6157 0.3370 -2.0338 0.9614
-9.5207 -1.3896 -2.0338 0.9614
-0.0529 8.6543 -2.0340 0.9651
-1.9901 7.0252 -1.7160 0.9704
-4.4938 7.3960 -2.0339 0.9651
-7.6562 4.0340 -2.0339 0.9651
-7.9877 3.3297 -2.0339 0.9651
-8.2545 2.5985 -2.0339 0.9651
0.6581 7.8281 -2.0340 0.9681
-0.0480 7.8555 -2.0340 0.9681
-0.7536 7.8195 -2.0340 0.9681
-2.1411 7.5582 -2.0340 0.9681
-3.4593 7.0529 -2.0339 0.9681
-4.6658 6.3197 -2.0339 0.9681
-5.7216 5.3825 -2.0339 0.9681
-6.1821 4.8466 -2.0339 0.9681
-6.5925 4.2714 -2.0339 0.9681
-7.6743 1.6758 -2.0339 0.9681
-7.7939 0.9794 -2.0338 0.9681
-7.8503 0.2751 -2.0338 0.9681
-7.8433 -0.4314 -2.0338 0.9681
-7.7727 -1.1345 -2.0338 0.9681
1.2429 7.0766 -2.0340 0.9706
-0.6893 7.1517 -2.0340 0.9706
-1.3291 7.0608 -2.0340 0.9706
-1.9582 6.9128 -2.0340 0.9706
-3.1639 6.4506 -2.0339 0.9706
-3.7307 6.1402 -2.0339 0.9706
-4.7695 5.3732 -2.0339 0.9706
-5.6541 4.4327 -2.0339 0.9706
-6.0296 3.9067 -2.0339 0.9706
-6.3561 3.3490 -2.0339 0.9706
-7.0190 1.5327 -2.0339 0.9706
-7.1283 0.8958 -2.0338 0.9706
-7.1735 -0.3946 -2.0338 0.9706
-7.1090 -1.0376 -2.0338 0.9706
1.1439 6.5132 -2.0340 0.9727
0.5540 6.5896 -2.0340 0.9727
-0.0404 6.6127 -2.0340 0.9727
-1.2233 6.4987 -2.0340 0.9727
-1.8023 6.3624 -2.0340 0.9727
-2.3668 6.1747 -2.0339 0.9727
-3.4337 5.6513 -2.0339 0.9727
-5.5495 3.5957 -2.0339 0.9727
-5.8502 3.0824 -2.0339 0.9727
-6.1035 2.5443 -2.0339 0.9727
-6.3074 1.9855 -2.0339 0.9727
-6.6024 -0.3632 -2.0338 0.9727
-6.5431 -0.9550 -2.0338 0.9727
-0.0373 6.1188 -2.0340 0.9745
-1.1319 6.0133 -2.0340 0.9745
-1.6677 5.8872 -2.0340 0.9745
-2.1900 5.7135 -2.0339 0.9745
-2.6945 5.4936 -2.0339 0.9745
-3.1772 5.2293 -2.0339 0.9745
-3.6343 4.9226 -2.0339 0.9745
-4.8154 3.7751 -2.0339 0.9745
-5.1350 3.3271 -2.0339 0.9745
-5.4132 2.8522 -2.0339 0.9745
-5.6476 2.3542 -2.0339 0.9745
-5.8363 1.8372 -2.0339 0.9745
-6.1148 0.2143 -2.0339 0.9745
-6.1093 -0.3361 -2.0338 0.9745
0.9839 5.6020 -2.0340 0.9761
0.4765 5.6677 -2.0340 0.9761
-1.0521 5.5895 -2.0340 0.9761
-2.0356 5.3109 -2.0339 0.9761
-2.5046 5.1065 -2.0339 0.9761
-3.3782 4.5756 -2.0339 0.9761
-3.7757 4.2536 -2.0339 0.9761
-4.1426 3.8971 -2.0339 0.9761
-5.2496 2.1883 -2.0339 0.9761
-5.5565 1.2133 -2.0339 0.9761
-5.6430 0.7091 -2.0339 0.9761
-5.6788 -0.3124 -2.0338 0.9761
0.9182 5.2276 -2.0340 0.9775
-0.5092 5.2831 -2.0340 0.9775
-1.4466 5.1066 -2.0339 0.9775
-2.3372 4.7652 -2.0339 0.9775
-4.6955 2.4740 -2.0339 0.9775
-5.1851 1.1322 -2.0339 0.9775
-5.2659 0.6617 -2.0339 0.9775
-5.3040 0.1859 -2.0339 0.9775
0.4164 4.9522 -2.0340 0.9787
-0.0304 4.9696 -2.0340 0.9787
-0.4768 4.9467 -2.0340 0.9787
-2.9517 3.9980 -2.0339 0.9788
-3.9109 3.0660 -2.0339 0.9788
-4.1706 2.7022 -2.0339 0.9788
-4.3965 2.3165 -2.0339 0.9788
-4.7401 1.4921 -2.0339 0.9788
-2.1207 0.4631 -0.8884 0.9907
-2.1218 -0.1167 -0.8697 0.9909
0.8073 4.5966 -2.0340 0.9798
0.3910 4.6506 -2.0340 0.9798
-0.4477 4.6454 -2.0339 0.9798
-1.2720 4.4903 -2.0339 0.9798
-3.3991 3.1977 -2.0339 0.9798
-3.6727 2.8794 -2.0339 0.9798
-4.1288 2.1754 -2.0339 0.9798
-4.3075 1.7956 -2.0339 0.9798
-1.9176 -0.1055 -0.8370 0.9917
-0.0268 4.3940 -2.0339 0.9808
-0.8129 4.3182 -2.0339 0.9808
-1.1976 4.2277 -2.0339 0.9808
-1.5727 4.1029 -2.0339 0.9808
-1.9350 3.9450 -2.0339 0.9808
-2.2816 3.7552 -2.0339 0.9808
-3.4580 2.7110 -2.0339 0.9808
-1.5282 0.4810 -0.7416 0.9930
-1.6101 0.2023 -0.7511 0.9929
-1.6106 -0.2351 -0.7534 0.9929
0.7173 4.0840 -2.0340 0.9817
0.3474 4.1319 -2.0339 0.9817
-0.0253 4.1464 -2.0339 0.9817
-0.3978 4.1273 -2.0339 0.9817
-0.7671 4.0749 -2.0339 0.9817
-1.1301 3.9895 -2.0339 0.9817
-1.4840 3.8718 -2.0339 0.9817
-2.1531 3.5436 -2.0339 0.9817
-3.0200 2.8411 -2.0339 0.9817
-3.4798 2.2546 -2.0339 0.9817
-3.6683 1.9328 -2.0339 0.9817
-3.8271 1.5954 -2.0339 0.9817
-1.3519 0.1699 -0.6684 0.9939
-1.3460 0.0471 -0.6607 0.9940
-1.3488 -0.1969 -0.6687 0.9939
0.3285 3.9069 -2.0339 0.9825
-0.0239 3.9205 -2.0339 0.9825
-0.3761 3.9025 -2.0339 0.9825
-1.7265 3.5200 -2.0339 0.9825
-2.0358 3.3506 -2.0339 0.9825
-2.8555 2.6864 -2.0339 0.9825
-3.0854 2.4189 -2.0339 0.9825
-3.4685 1.8275 -2.0339 0.9825
-1.1156 0.4650 -0.6270 0.9946
-1.1430 0.3598 -0.6217 0.9946
-1.1950 -0.1745 -0.6265 0.9946
0.3111 3.7005 -2.0339 0.9832
-0.0227 3.7135 -2.0339 0.9832
-1.3291 3.4675 -2.0339 0.9832
-1.6353 3.3341 -2.0339 0.9832
-2.4652 2.7772 -2.0339 0.9832
-2.7047 2.5445 -2.0339 0.9832
-3.1165 2.0192 -2.0339 0.9832
-1.1866 0.6252 -0.7346 0.9939
-1.0332 0.3252 -0.5933 0.9951
-1.0802 0.0378 -0.5920 0.9951
-1.0814 -0.0595 -0.5932 0.9951
-1.0727 -0.1566 -0.5938 0.9951
-0.0215 3.5228 -2.0339 0.9839
-1.8293 3.0107 -2.0339 0.9839
-2.0924 2.8341 -2.0339 0.9839
-2.3386 2.6346 -2.0339 0.9839
-2.5659 2.4138 -2.0339 0.9839
-2.7724 2.1735 -2.0339 0.9839
-0.9053 0.4770 -0.5908 0.9953
-0.9342 0.3894 -0.5843 0.9953
-0.9541 0.3003 -0.5775 0.9954
-0.9713 0.2121 -0.5740 0.9954
-0.9858 0.1238 -0.5736 0.9954
-0.9834 -0.1436 -0.5738 0.9954
