ply
format ascii 1.0
element vertex 173
property float32 x
property float32 y
property float32 z
property float32 I
end_header
16.5549 -3.8109 -0.8615 0.9342
16.2846 -3.7486 -1.2253 0.9352
16.1390 -3.7151 -1.5899 0.9356
2.8042 -16.8898 -2.0337 0.9334
1.6951 -6.4947 -0.7973 0.9733
2.7630 -5.9175 -0.7758 0.9740
9.9258 -13.9512 -2.0338 0.9334
11.1496 -12.9941 -2.0339 0.9334
12.2817 -11.9301 -2.0339 0.9334
15.0384 -8.1875 -2.0339 0.9334
15.7188 -6.7907 -2.0340 0.9334
16.2698 -5.3379 -2.0340 0.9334
17.1065 -0.7654 -2.0340 0.9333
17.1056 0.7884 -2.0341 0.9333
2.3509 -14.1598 -2.0338 0.9437
1.7037 -6.5279 -0.9559 0.9731
9.3474 -10.8938 -2.0339 0.9437
11.1608 -9.0273 -2.0339 0.9437
11.9333 -7.9785 -2.0339 0.9437
12.6075 -6.8640 -2.0339 0.9437
13.1779 -5.6930 -2.0339 0.9437
13.6398 -4.4751 -2.0340 0.9437
13.9894 -3.2203 -2.0340 0.9437
14.2238 -1.9390 -2.0340 0.9437
14.3404 0.6610 -2.0340 0.9437
2.0220 -12.1788 -2.0338 0.9512
1.6581 -6.3531 -1.0817 0.9737
2.1887 -6.0700 -1.0630 0.9742
2.7319 -5.8508 -1.0638 0.9742
6.2157 -10.6669 -2.0338 0.9512
7.1571 -10.0597 -2.0338 0.9512
8.8559 -8.6023 -2.0339 0.9512
9.5992 -7.7642 -2.0339 0.9512
10.2636 -6.8622 -2.0339 0.9512
10.8434 -5.9036 -2.0339 0.9512
12.0320 -2.7697 -2.0340 0.9512
12.2336 -1.6677 -2.0340 0.9512
1.6224 -6.2164 -1.2076 0.9742
2.1339 -5.9181 -1.1825 0.9747
3.5395 -6.0743 -1.3214 0.9718
7.7618 -7.5396 -2.0339 0.9569
8.9955 -6.0144 -2.0339 0.9569
9.5037 -5.1742 -2.0339 0.9569
9.9337 -4.2915 -2.0339 0.9569
10.7221 -1.4616 -2.0340 0.9569
10.8105 -0.4837 -2.0340 0.9569
10.8099 0.4982 -2.0340 0.9569
1.6159 -6.1916 -1.3526 0.9742
2.7114 -5.8069 -1.3547 0.9741
3.3552 -5.7580 -1.4087 0.9731
6.9018 -6.7042 -2.0339 0.9614
8.4508 -4.6010 -2.0339 0.9614
9.1427 -2.9996 -2.0339 0.9614
9.5342 -1.2997 -2.0340 0.9614
9.6122 0.4430 -2.0340 0.9614
1.4174 -8.5368 -2.0338 0.9651
5.0168 -7.0514 -2.0339 0.9651
6.2075 -6.0298 -2.0339 0.9651
7.1942 -4.8100 -2.0339 0.9651
7.6006 -4.1381 -2.0339 0.9651
8.4337 -1.9414 -2.0340 0.9651
8.5750 -1.1689 -2.0340 0.9651
8.6457 -0.3868 -2.0340 0.9651
2.0664 -5.7309 -1.5773 0.9751
2.6360 -5.6455 -1.6132 0.9746
5.6346 -5.4733 -2.0339 0.9681
6.5302 -4.3661 -2.0339 0.9681
7.6554 -1.7622 -2.0339 0.9681
7.7836 -1.0611 -2.0340 0.9681
7.8473 0.3617 -2.0340 0.9681
1.1767 -7.0873 -2.0338 0.9706
1.5741 -6.0312 -1.7646 0.9744
2.7599 -5.9109 -1.8467 0.9732
4.1649 -5.8541 -2.0339 0.9706
5.5860 -4.5182 -2.0339 0.9706
5.9726 -3.9933 -2.0339 0.9706
6.8267 -2.2398 -2.0339 0.9706
7.1189 -0.9704 -2.0340 0.9706
1.6698 -6.3981 -2.0338 0.9727
2.7976 -5.9915 -2.0339 0.9727
3.8334 -5.3880 -2.0339 0.9727
4.7432 -4.6074 -2.0339 0.9727
5.1413 -4.1585 -2.0339 0.9727
6.2832 -2.0615 -2.0339 0.9727
6.5522 -0.8932 -2.0339 0.9727
6.6062 -0.2956 -2.0340 0.9727
2.5886 -5.5440 -2.0339 0.9745
3.0805 -5.2866 -2.0339 0.9745
3.9845 -4.6436 -2.0339 0.9745
4.7573 -3.8479 -2.0339 0.9745
5.6171 -2.4266 -2.0339 0.9745
6.0628 -0.8265 -2.0339 0.9745
6.1128 -0.2735 -2.0339 0.9745
0.9315 -5.6106 -2.0338 0.9761
1.4362 -5.5031 -2.0339 0.9761
3.2971 -4.6343 -2.0339 0.9761
3.7036 -4.3163 -2.0339 0.9761
4.4221 -3.5768 -2.0339 0.9761
5.4042 -1.7731 -2.0339 0.9761
5.6817 0.2619 -2.0340 0.9761
0.8693 -5.2356 -2.0338 0.9775
2.2454 -4.8089 -2.0339 0.9775
2.6721 -4.5856 -2.0339 0.9775
3.0768 -4.3246 -2.0339 0.9775
3.4561 -4.0279 -2.0339 0.9775
3.8070 -3.6980 -2.0339 0.9775
4.6614 -2.5379 -2.0339 0.9775
4.8723 -2.1049 -2.0339 0.9775
5.0430 -1.6546 -2.0339 0.9775
5.2589 -0.7169 -2.0339 0.9775
5.3022 -0.2373 -2.0339 0.9775
1.2549 -4.8084 -2.0339 0.9788
3.5646 -3.4626 -2.0339 0.9788
4.8430 -1.1148 -2.0339 0.9788
4.9646 -0.2221 -2.0339 0.9788
0.7644 -4.6037 -2.0339 0.9798
1.1785 -4.5155 -2.0339 0.9798
1.9744 -4.2286 -2.0339 0.9798
2.3496 -4.0321 -2.0339 0.9798
4.0988 -2.2316 -2.0339 0.9798
4.2842 -1.8509 -2.0339 0.9798
4.5480 -1.0470 -2.0339 0.9798
4.6242 -0.6304 -2.0339 0.9798
4.6623 -0.2086 -2.0339 0.9798
0.7196 -4.3346 -2.0339 0.9808
1.1096 -4.2515 -2.0339 0.9808
1.4904 -4.1334 -2.0339 0.9808
1.8589 -3.9813 -2.0339 0.9808
2.2122 -3.7964 -2.0339 0.9808
2.5472 -3.5803 -2.0339 0.9808
2.8612 -3.3346 -2.0339 0.9808
3.1518 -3.0616 -2.0339 0.9808
3.4164 -2.7633 -2.0339 0.9808
3.6528 -2.4422 -2.0339 0.9808
3.8591 -2.1011 -2.0339 0.9808
4.0337 -1.7426 -2.0339 0.9808
4.2821 -0.9857 -2.0339 0.9808
4.3896 -0.1964 -2.0339 0.9808
4.3894 0.2023 -2.0339 0.9808
0.6791 -4.0903 -2.0339 0.9817
1.0471 -4.0119 -2.0339 0.9817
1.4064 -3.9005 -2.0339 0.9817
2.0875 -3.5825 -2.0339 0.9817
2.4037 -3.3785 -2.0339 0.9817
2.9742 -2.8891 -2.0339 0.9817
3.2239 -2.6076 -2.0339 0.9817
4.0408 -0.9302 -2.0339 0.9817
4.1085 -0.5601 -2.0339 0.9817
4.1421 0.1909 -2.0339 0.9817
0.6421 -3.8676 -2.0339 0.9825
3.0483 -2.4655 -2.0339 0.9825
3.2593 -2.1791 -2.0339 0.9825
3.4434 -1.8747 -2.0339 0.9825
3.7252 -1.2222 -2.0339 0.9825
2.1430 -0.4933 -1.1408 0.9901
2.0926 -0.2853 -1.0956 0.9905
0.6082 -3.6633 -2.0339 0.9832
1.5711 -3.3648 -2.0339 0.9832
1.8696 -3.2085 -2.0339 0.9832
2.1527 -3.0258 -2.0339 0.9832
2.4182 -2.8182 -2.0339 0.9832
2.8873 -2.3354 -2.0339 0.9832
3.4090 -1.4727 -2.0339 0.9832
1.8908 -0.6204 -1.0899 0.9910
1.8576 -0.4276 -1.0440 0.9913
0.8896 -3.4086 -2.0339 0.9839
1.7736 -3.0438 -2.0339 0.9839
2.0423 -2.8704 -2.0339 0.9839
2.2940 -2.6735 -2.0339 0.9839
2.9286 -1.9580 -2.0339 0.9839
3.0940 -1.6845 -2.0339 0.9839
1.7235 -0.5655 -1.0472 0.9917
1.7236 -0.0771 -0.9961 0.9921
