ply
format ascii 1.0
element vertex 186
property float32 x
property float32 y
property float32 z
property float32 I
end_header
2.8331 18.8391 3.3592 0.9255
1.1275 18.5749 2.8508 0.9275
2.7045 17.9842 2.3682 0.9293
2.6198 17.4210 1.4913 0.9317
2.6491 17.6158 1.1046 0.9311
1.1361 18.7169 1.1628 0.9276
2.6541 17.6488 0.7037 0.9310
2.7920 18.5657 -0.9521 0.9276
13.4739 9.6959 -1.2171 0.9356
2.7814 18.4955 -1.3714 0.9277
14.8296 8.7913 -1.6551 0.9331
16.5073 4.5544 -2.0341 0.9333
16.0394 5.9978 -2.0341 0.9333
15.4455 7.3942 -2.0341 0.9333
13.2661 9.5464 -1.9414 0.9363
12.9596 11.1935 -2.0341 0.9333
6.9073 15.6695 -2.0341 0.9333
5.4930 16.2194 -2.0341 0.9333
4.0356 16.6419 -2.0341 0.9333
13.4465 5.0282 -2.0341 0.9437
12.9486 6.1988 -2.0341 0.9437
12.3491 7.3208 -2.0341 0.9437
10.8645 9.3839 -2.0341 0.9437
9.9912 10.3089 -2.0341 0.9437
9.0394 11.1529 -2.0341 0.9437
8.0166 11.9093 -2.0341 0.9437
5.7907 13.1363 -2.0341 0.9437
4.6051 13.5974 -2.0341 0.9437
0.8698 14.3295 -2.0341 0.9437
11.9023 3.2838 -2.0340 0.9512
11.5650 4.3246 -2.0340 0.9512
10.0220 7.2120 -2.0341 0.9512
7.7745 9.5922 -2.0341 0.9512
4.9804 11.2982 -2.0341 0.9512
1.8362 12.2098 -2.0341 0.9512
0.7480 12.3244 -2.0340 0.9512
10.7758 0.9933 -2.0340 0.9569
10.1361 3.7903 -2.0340 0.9569
8.1897 7.0737 -2.0340 0.9569
7.5314 7.7709 -2.0341 0.9569
5.2245 9.4770 -2.0341 0.9569
4.3651 9.9023 -2.0340 0.9569
2.5503 10.5168 -2.0340 0.9569
9.5818 0.8833 -2.0340 0.9614
5.3734 7.9826 -2.0340 0.9614
4.6456 8.4269 -2.0340 0.9614
1.4310 9.5156 -2.0340 0.9614
8.6179 0.7944 -2.0340 0.9651
8.3428 2.3018 -2.0340 0.9651
7.4447 4.4134 -2.0340 0.9651
7.0248 5.0551 -2.0340 0.9651
6.5497 5.6571 -2.0340 0.9651
6.0232 6.2147 -2.0340 0.9651
3.4909 7.9193 -2.0340 0.9651
2.7761 8.1972 -2.0340 0.9651
1.2870 8.5582 -2.0340 0.9651
0.5243 8.6386 -2.0340 0.9651
7.8225 0.7211 -2.0340 0.9681
7.0857 3.3921 -2.0340 0.9681
6.7576 4.0060 -2.0340 0.9681
5.9452 5.1350 -2.0340 0.9681
4.9464 6.1030 -2.0340 0.9681
3.1687 7.1884 -2.0340 0.9681
2.5200 7.4407 -2.0340 0.9681
1.8513 7.6345 -2.0340 0.9681
1.1682 7.7684 -2.0340 0.9681
7.1545 0.6595 -2.0340 0.9706
7.0680 1.2903 -2.0340 0.9706
6.9261 1.9109 -2.0340 0.9706
6.7297 2.5165 -2.0340 0.9706
6.1805 3.6639 -2.0340 0.9706
5.8319 4.1967 -2.0340 0.9706
2.8981 6.5745 -2.0340 0.9706
2.3047 6.8052 -2.0340 0.9706
1.6932 6.9825 -2.0340 0.9706
0.4353 7.1716 -2.0340 0.9706
6.5849 0.6070 -2.0340 0.9727
6.5054 1.1875 -2.0340 0.9727
6.1940 2.3162 -2.0340 0.9727
5.9646 2.8554 -2.0340 0.9727
5.6884 3.3722 -2.0340 0.9727
5.0046 4.3226 -2.0340 0.9727
3.1926 5.7912 -2.0340 0.9727
1.5584 6.4266 -2.0340 0.9727
0.9834 6.5393 -2.0340 0.9727
6.0195 1.0988 -2.0340 0.9745
5.8986 1.6274 -2.0340 0.9745
5.7313 2.1432 -2.0340 0.9745
5.5191 2.6421 -2.0340 0.9745
5.2636 3.1204 -2.0340 0.9745
4.9667 3.5741 -2.0340 0.9745
4.2586 4.3939 -2.0340 0.9745
3.4169 5.0761 -2.0340 0.9745
2.4682 5.5991 -2.0340 0.9745
1.9628 5.7956 -2.0340 0.9745
5.6637 0.5221 -2.0340 0.9761
5.5952 1.0214 -2.0340 0.9761
5.3274 1.9921 -2.0340 0.9761
5.1302 2.4559 -2.0340 0.9761
4.6167 3.3222 -2.0340 0.9761
4.3045 3.7178 -2.0340 0.9761
3.9584 4.0843 -2.0340 0.9761
3.1761 4.7184 -2.0340 0.9761
2.7459 4.9810 -2.0340 0.9761
2.2942 5.2046 -2.0340 0.9761
0.8458 5.6245 -2.0340 0.9761
0.3446 5.6773 -2.0340 0.9761
5.2213 0.9531 -2.0340 0.9775
4.7873 2.2918 -2.0340 0.9775
4.5657 2.7066 -2.0340 0.9775
3.3420 4.1233 -2.0340 0.9775
2.9638 4.4030 -2.0340 0.9775
2.1409 4.8567 -2.0340 0.9775
1.2509 5.1581 -2.0340 0.9775
0.7893 5.2486 -2.0340 0.9775
0.3216 5.2978 -2.0340 0.9775
4.9486 0.4562 -2.0339 0.9788
4.7907 1.3217 -2.0340 0.9787
4.6549 1.7406 -2.0340 0.9787
4.4825 2.1459 -2.0340 0.9787
4.2750 2.5343 -2.0340 0.9787
4.0338 2.9028 -2.0340 0.9787
3.7610 3.2485 -2.0340 0.9787
3.1292 3.8608 -2.0340 0.9787
2.7752 4.1227 -2.0340 0.9787
1.5941 4.7071 -2.0340 0.9787
1.1712 4.8297 -2.0340 0.9787
0.7390 4.9144 -2.0340 0.9788
0.3011 4.9605 -2.0340 0.9787
4.5911 0.8381 -2.0339 0.9798
4.3714 1.6346 -2.0340 0.9798
4.2095 2.0152 -2.0340 0.9798
3.7882 2.7260 -2.0340 0.9798
3.2480 3.3513 -2.0340 0.9798
2.2531 4.0871 -2.0340 0.9798
1.8825 4.2705 -2.0340 0.9798
1.4970 4.4204 -2.0340 0.9798
1.0999 4.5355 -2.0340 0.9798
0.6941 4.6151 -2.0340 0.9798
0.2828 4.6584 -2.0340 0.9798
4.1157 1.5390 -2.0340 0.9808
3.9633 1.8973 -2.0340 0.9808
3.7798 2.2408 -2.0340 0.9808
3.5666 2.5666 -2.0340 0.9808
3.3254 2.8722 -2.0340 0.9808
2.7668 3.4137 -2.0340 0.9808
1.7724 4.0208 -2.0340 0.9808
1.0355 4.2703 -2.0340 0.9808
4.1290 0.3806 -2.0339 0.9817
4.0791 0.7446 -2.0339 0.9817
3.3657 2.4220 -2.0340 0.9817
2.8858 2.9775 -2.0340 0.9817
2.6109 3.2213 -2.0340 0.9817
2.0019 3.6312 -2.0340 0.9817
1.3301 3.9274 -2.0340 0.9817
0.2512 4.1389 -2.0339 0.9817
2.1043 0.3841 -1.1097 0.9904
3.7794 1.0428 -2.0339 0.9825
3.6723 1.3732 -2.0339 0.9825
3.3726 1.9993 -2.0340 0.9825
3.1824 2.2900 -2.0340 0.9825
2.9671 2.5627 -2.0340 0.9825
2.1893 3.2524 -2.0340 0.9825
1.5814 3.5876 -2.0340 0.9825
0.9239 3.8102 -2.0340 0.9825
0.5830 3.8770 -2.0339 0.9825
1.8541 0.3384 -1.0323 0.9914
1.8650 0.5145 -1.0596 0.9912
3.0143 2.1691 -2.0340 0.9832
2.8104 2.4274 -2.0340 0.9832
2.3383 2.8850 -2.0340 0.9832
2.0737 3.0807 -2.0340 0.9832
1.7929 3.2521 -2.0340 0.9832
1.4979 3.3981 -2.0340 0.9832
0.8752 3.6090 -2.0339 0.9832
1.7210 0.1586 -0.9978 0.9920
1.7139 0.3129 -1.0059 0.9920
1.7116 0.4722 -1.0251 0.9918
1.7191 0.6428 -1.0597 0.9916
3.0304 1.7965 -2.0339 0.9839
2.8595 2.0577 -2.0339 0.9839
2.6661 2.3028 -2.0339 0.9839
2.2182 2.7368 -2.0340 0.9839
1.9673 2.9225 -2.0340 0.9839
1.4210 3.2236 -2.0339 0.9839
0.5239 3.4837 -2.0339 0.9839
