ply
format ascii 1.0
element vertex 211
property float32 x
property float32 y
property float32 z
property float32 I
end_header
3.1041 18.6579 3.3351 0.9261
-12.2981 13.1675 3.1770 0.9294
1.3691 18.6586 2.8661 0.9271
2.9099 17.4915 1.9041 0.9311
-11.6598 12.4840 1.4461 0.9337
2.9203 17.5537 1.1035 0.9312
-12.0081 12.8570 1.0909 0.9319
1.4018 19.1047 0.7553 0.9262
2.9820 17.9245 0.3069 0.9299
-12.0945 12.9493 -0.8986 0.9315
-0.8518 7.7129 -0.7450 0.9693
7.2892 15.4955 -2.0341 0.9333
5.8410 16.0974 -2.0341 0.9333
4.3439 16.5642 -2.0341 0.9333
2.8103 16.8920 -2.0341 0.9333
1.2531 17.0782 -2.0341 0.9333
-0.3145 17.1211 -2.0341 0.9333
-1.5407 7.5387 -0.9140 0.9695
-2.2128 7.3293 -0.9094 0.9696
-6.4280 15.8711 -2.0340 0.9333
-7.8530 15.2163 -2.0340 0.9334
-9.2120 14.4339 -2.0340 0.9334
-10.4937 13.5305 -2.0340 0.9334
4.8968 13.4951 -2.0341 0.9437
2.3560 14.1613 -2.0341 0.9437
1.0505 14.3174 -2.0341 0.9437
-0.2637 14.3533 -2.0341 0.9437
-0.8228 7.4506 -1.0621 0.9702
-2.2223 7.3607 -1.0894 0.9694
-6.5835 12.7566 -2.0340 0.9437
-9.7982 10.4908 -2.0339 0.9437
-13.4267 5.0762 -2.0338 0.9437
4.2116 11.6067 -2.0341 0.9512
3.1321 11.9433 -2.0341 0.9512
2.0263 12.1797 -2.0341 0.9512
-0.8193 7.4196 -1.2297 0.9702
-1.4961 7.3203 -1.2309 0.9702
-2.1863 7.2413 -1.2461 0.9698
-4.6348 11.4437 -2.0340 0.9512
-5.6623 10.9717 -2.0340 0.9512
-6.6423 10.4075 -2.0340 0.9512
-8.4273 9.0229 -2.0339 0.9512
-9.2173 8.2141 -2.0339 0.9512
-9.9300 7.3363 -2.0339 0.9512
-10.5595 6.3971 -2.0339 0.9512
-11.1004 5.4042 -2.0339 0.9512
2.7451 10.4677 -2.0340 0.9569
1.7760 10.6749 -2.0340 0.9569
-2.1675 7.1791 -1.4096 0.9699
-4.9628 9.6161 -2.0340 0.9569
-6.6317 8.5508 -2.0339 0.9569
-8.7032 6.4300 -2.0339 0.9569
-10.1214 3.8266 -2.0339 0.9569
1.5791 9.4921 -2.0340 0.9614
-0.1768 9.6209 -2.0340 0.9614
-0.8060 7.2981 -1.5521 0.9704
-2.0994 6.9537 -1.5354 0.9707
-3.6122 8.9186 -2.0340 0.9614
-6.5678 7.0320 -2.0339 0.9614
-7.1835 6.4016 -2.0339 0.9614
-8.2296 4.9856 -2.0339 0.9614
-8.6511 4.2117 -2.0339 0.9614
-9.0001 3.4026 -2.0339 0.9614
3.6839 7.8313 -2.0340 0.9651
2.9520 8.1355 -2.0340 0.9651
-0.1590 8.6530 -2.0340 0.9651
-0.8062 7.3005 -1.7262 0.9703
-2.1873 7.2448 -1.7786 0.9694
-3.2488 8.0214 -2.0340 0.9651
-4.6559 7.2951 -2.0339 0.9651
-5.3037 6.8385 -2.0339 0.9651
-6.4609 5.7576 -2.0339 0.9651
-7.4017 4.4840 -2.0339 0.9651
3.3439 7.1086 -2.0340 0.9681
1.2892 7.7492 -2.0340 0.9681
0.5748 7.8347 -2.0340 0.9681
-0.1443 7.8544 -2.0340 0.9681
-1.5730 7.6965 -2.0340 0.9681
-2.9490 7.2811 -2.0340 0.9681
-3.6027 6.9807 -2.0339 0.9681
2.4507 6.7540 -2.0340 0.9706
-0.7886 7.1414 -2.0340 0.9706
-2.6971 6.6593 -2.0340 0.9706
-3.8653 6.0563 -2.0339 0.9706
-5.3638 4.7800 -2.0339 0.9706
-6.1448 3.7226 -2.0339 0.9706
-6.7202 2.5407 -2.0339 0.9706
2.8148 5.9839 -2.0340 0.9727
2.2557 6.2163 -2.0340 0.9727
1.6775 6.3966 -2.0340 0.9727
1.0852 6.5232 -2.0340 0.9727
-0.1214 6.6117 -2.0340 0.9727
-0.7259 6.5729 -2.0340 0.9727
-1.3241 6.4789 -2.0340 0.9727
-2.4824 6.1291 -2.0339 0.9727
-4.9368 4.3994 -2.0339 0.9727
-5.3186 3.9293 -2.0339 0.9727
-5.6557 3.4263 -2.0339 0.9727
-6.1852 2.3384 -2.0339 0.9727
2.6046 5.5370 -2.0340 0.9745
1.5521 5.9188 -2.0340 0.9745
1.0042 6.0360 -2.0340 0.9745
0.4477 6.1025 -2.0340 0.9745
-0.6716 6.0819 -2.0340 0.9745
-1.2252 5.9950 -2.0340 0.9745
-1.7685 5.8577 -2.0340 0.9745
-2.8062 5.4374 -2.0339 0.9745
-4.1765 4.4717 -2.0339 0.9745
-5.2333 3.1704 -2.0339 0.9745
-5.5013 2.6783 -2.0339 0.9745
-5.7233 2.1638 -2.0339 0.9745
2.4211 5.1467 -2.0340 0.9761
1.9400 5.3466 -2.0340 0.9761
-0.6243 5.6533 -2.0340 0.9761
-2.1351 5.2716 -2.0339 0.9761
-3.0599 4.7944 -2.0339 0.9761
-3.4856 4.4943 -2.0339 0.9761
-3.8821 4.1566 -2.0339 0.9761
-4.5745 3.3796 -2.0339 0.9761
-5.1137 2.4896 -2.0339 0.9761
-5.3200 2.0113 -2.0339 0.9761
2.2593 4.8027 -2.0340 0.9775
1.3464 5.1340 -2.0340 0.9775
-1.0628 5.2000 -2.0339 0.9775
-1.5340 5.0810 -2.0339 0.9775
-1.9924 4.9193 -2.0339 0.9775
-2.4341 4.7164 -2.0339 0.9775
-2.8554 4.4740 -2.0339 0.9775
-4.7719 2.3232 -2.0339 0.9775
-4.9644 1.8769 -2.0339 0.9775
1.2607 4.8071 -2.0340 0.9787
0.8156 4.9023 -2.0340 0.9787
0.3636 4.9563 -2.0340 0.9788
-0.9951 4.8690 -2.0339 0.9788
-1.4363 4.7575 -2.0339 0.9788
-1.8656 4.6061 -2.0339 0.9788
-2.2791 4.4161 -2.0339 0.9788
-2.6736 4.1891 -2.0339 0.9788
-3.0456 3.9269 -2.0339 0.9788
-3.3921 3.6318 -2.0339 0.9788
-3.7101 3.3063 -2.0339 0.9788
-4.4681 2.1753 -2.0339 0.9788
1.9866 4.2231 -2.0340 0.9798
1.1839 4.5144 -2.0340 0.9798
0.7659 4.6037 -2.0340 0.9798
-0.5123 4.6388 -2.0339 0.9798
-0.9345 4.5724 -2.0339 0.9798
-1.7519 4.3256 -2.0339 0.9798
-2.1404 4.1472 -2.0339 0.9798
-3.9915 2.4181 -2.0339 0.9798
-4.3653 1.6504 -2.0339 0.9798
1.8704 3.9761 -2.0340 0.9808
1.4988 4.1306 -2.0340 0.9808
0.7211 4.3345 -2.0340 0.9808
-0.0807 4.3933 -2.0339 0.9808
-0.4823 4.3675 -2.0339 0.9808
-0.8798 4.3050 -2.0339 0.9808
-1.2700 4.2065 -2.0339 0.9808
-2.3639 3.7040 -2.0339 0.9808
-2.9992 3.2112 -2.0339 0.9808
-3.7581 2.2767 -2.0339 0.9808
-4.1100 1.5538 -2.0339 0.9808
1.0518 4.0109 -2.0340 0.9817
0.3034 4.1354 -2.0339 0.9817
-0.4551 4.1214 -2.0339 0.9817
-1.5566 3.8432 -2.0339 0.9817
-1.9016 3.6846 -2.0339 0.9817
-2.2307 3.4952 -2.0339 0.9817
-2.5411 3.2765 -2.0339 0.9817
-3.7280 1.8150 -2.0339 0.9817
-1.2586 0.4758 -0.6600 0.9940
1.6689 3.5477 -2.0340 0.9825
1.3373 3.6855 -2.0340 0.9825
0.9946 3.7924 -2.0340 0.9825
0.6434 3.8675 -2.0339 0.9825
0.2869 3.9101 -2.0339 0.9825
-0.4304 3.8969 -2.0339 0.9825
-0.7850 3.8412 -2.0339 0.9825
-1.4718 3.6338 -2.0339 0.9825
-1.7980 3.4839 -2.0339 0.9825
-2.1092 3.3048 -2.0339 0.9825
-2.4027 3.0980 -2.0339 0.9825
-3.1533 2.3297 -2.0339 0.9825
-3.3532 2.0314 -2.0339 0.9825
1.5808 3.3604 -2.0340 0.9832
1.2667 3.4909 -2.0340 0.9832
0.9421 3.5921 -2.0339 0.9832
-0.0682 3.7129 -2.0339 0.9832
-0.4076 3.6911 -2.0339 0.9832
-0.7436 3.6384 -2.0339 0.9832
-1.0733 3.5551 -2.0339 0.9832
-1.3940 3.4420 -2.0339 0.9832
-1.7031 3.3000 -2.0339 0.9832
-2.2758 2.9344 -2.0339 0.9832
-2.7724 2.4706 -2.0339 0.9832
-2.9868 2.2067 -2.0339 0.9832
-0.9866 0.4803 -0.6010 0.9950
-1.0192 0.3853 -0.5968 0.9950
1.2017 3.3116 -2.0339 0.9839
0.8936 3.4076 -2.0339 0.9839
0.5781 3.4751 -2.0339 0.9839
-0.0647 3.5223 -2.0339 0.9839
-0.7054 3.4515 -2.0339 0.9839
-1.0182 3.3725 -2.0339 0.9839
-1.3225 3.2652 -2.0339 0.9839
-1.6156 3.1305 -2.0339 0.9839
-1.8952 2.9696 -2.0339 0.9839
-2.4046 2.5746 -2.0339 0.9839
-3.0130 1.8253 -2.0339 0.9839
-0.9161 0.4459 -0.5882 0.9953
-0.9429 0.3564 -0.5820 0.9954
