ply
format ascii 1.0
element vertex 226
property float32 x
property float32 y
property float32 z
property float32 I
end_header
13.5736 9.4662 -0.8392 0.9359
13.3690 9.3235 -1.1951 0.9367
16.3400 -4.3685 -1.6238 0.9343
13.1261 9.1540 -1.5363 0.9377
15.5262 -7.2201 -2.0340 0.9334
16.5422 -4.4225 -2.0340 0.9334
16.8641 -2.9681 -2.0340 0.9334
17.1236 -0.0030 -2.0340 0.9333
16.8657 2.9623 -2.0341 0.9333
16.5445 4.4170 -2.0341 0.9333
16.0981 5.8382 -2.0341 0.9333
14.8441 8.5377 -2.0341 0.9333
13.3380 9.3018 -1.9316 0.9366
9.8624 13.9993 -2.0341 0.9333
12.4409 -7.1613 -2.0339 0.9437
14.1380 -2.4883 -2.0340 0.9437
14.3009 -1.2502 -2.0340 0.9437
14.3555 -0.0025 -2.0340 0.9437
14.1393 2.4835 -2.0340 0.9437
13.8700 3.7029 -2.0341 0.9437
13.0194 6.0488 -2.0341 0.9437
12.4444 7.1575 -2.0341 0.9437
11.7753 8.2120 -2.0341 0.9437
10.1754 10.1271 -2.0341 0.9437
8.2681 11.7361 -2.0341 0.9437
11.1952 -5.2061 -2.0339 0.9512
11.6053 -4.2134 -2.0340 0.9512
11.9277 -3.1888 -2.0340 0.9512
12.3004 1.0709 -2.0340 0.9512
11.6073 4.2095 -2.0340 0.9512
11.1976 5.2024 -2.0341 0.9512
10.1276 7.0629 -2.0341 0.9512
9.4754 7.9164 -2.0341 0.9512
8.7516 8.7100 -2.0341 0.9512
9.3782 -5.3983 -2.0339 0.9569
9.8120 -4.5629 -2.0339 0.9569
10.1715 -3.6929 -2.0339 0.9569
10.4541 -2.7949 -2.0340 0.9569
10.6575 -1.8757 -2.0340 0.9569
10.7802 -0.9424 -2.0340 0.9569
10.8213 -0.0019 -2.0340 0.9569
10.7806 0.9386 -2.0340 0.9569
10.6583 1.8720 -2.0340 0.9569
9.3807 5.3954 -2.0340 0.9569
8.8763 6.1903 -2.0340 0.9569
8.3047 6.9383 -2.0340 0.9569
7.6703 7.6338 -2.0341 0.9569
6.2325 8.8467 -2.0341 0.9569
5.4400 9.3549 -2.0341 0.9569
9.4767 -1.6679 -2.0340 0.9614
9.5858 -0.8379 -2.0340 0.9614
9.6224 -0.0017 -2.0340 0.9614
9.5862 0.8346 -2.0340 0.9614
9.2970 2.4820 -2.0340 0.9614
8.7267 4.0545 -2.0340 0.9614
6.8204 6.7880 -2.0340 0.9614
8.1346 -2.9534 -2.0339 0.9651
8.5233 -1.5001 -2.0340 0.9651
8.6544 -0.0015 -2.0340 0.9651
8.6218 0.7507 -2.0340 0.9651
8.5239 1.4972 -2.0340 0.9651
8.3616 2.2323 -2.0340 0.9651
8.1360 2.9506 -2.0340 0.9651
7.8488 3.6465 -2.0340 0.9651
7.0987 4.9506 -2.0340 0.9651
6.6416 5.5488 -2.0340 0.9651
4.9844 7.0751 -2.0340 0.9651
4.3506 7.4815 -2.0340 0.9651
6.8081 -3.9189 -2.0339 0.9681
7.1230 -3.3124 -2.0339 0.9681
7.7367 -1.3617 -2.0340 0.9681
7.8258 -0.6841 -2.0340 0.9681
7.8261 0.6814 -2.0340 0.9681
7.7373 1.3590 -2.0340 0.9681
7.5900 2.0263 -2.0340 0.9681
6.8098 3.9167 -2.0340 0.9681
6.4436 4.4937 -2.0340 0.9681
5.5681 5.5416 -2.0340 0.9681
5.0654 6.0046 -2.0340 0.9681
3.9491 6.7910 -2.0340 0.9681
6.2267 -3.5843 -2.0339 0.9706
6.5147 -3.0296 -2.0339 0.9706
6.7534 -2.4519 -2.0339 0.9706
6.9410 -1.8556 -2.0339 0.9706
7.0760 -1.2454 -2.0339 0.9706
7.1575 -0.6257 -2.0340 0.9706
7.1578 0.6232 -2.0340 0.9706
6.7544 2.4496 -2.0340 0.9706
6.5160 3.0273 -2.0340 0.9706
5.8933 4.1099 -2.0340 0.9706
5.5138 4.6066 -2.0340 0.9706
5.0926 5.0684 -2.0340 0.9706
4.6328 5.4918 -2.0340 0.9706
3.6118 6.2111 -2.0340 0.9706
5.7310 -3.2989 -2.0339 0.9727
5.9961 -2.7883 -2.0339 0.9727
6.3884 -1.7079 -2.0339 0.9727
6.5127 -1.1463 -2.0339 0.9727
6.5877 -0.5759 -2.0340 0.9727
6.6129 -0.0012 -2.0340 0.9727
6.5879 0.5736 -2.0340 0.9727
6.5132 1.1440 -2.0340 0.9727
6.2167 2.2546 -2.0340 0.9727
5.9972 2.7863 -2.0340 0.9727
5.7323 3.2970 -2.0340 0.9727
5.0748 4.2398 -2.0340 0.9727
4.2640 5.0546 -2.0340 0.9727
3.8086 5.4061 -2.0340 0.9727
3.3243 5.7166 -2.0340 0.9727
5.5482 -2.5801 -2.0339 0.9745
5.7515 -2.0881 -2.0339 0.9745
6.0262 -1.0606 -2.0339 0.9745
6.0957 -0.5329 -2.0339 0.9745
6.0959 0.5307 -2.0340 0.9745
6.0267 1.0585 -2.0340 0.9745
5.7523 2.0862 -2.0340 0.9745
5.5493 2.5782 -2.0340 0.9745
5.3042 3.0508 -2.0340 0.9745
4.6958 3.9232 -2.0340 0.9745
4.3371 4.3164 -2.0340 0.9745
3.9455 4.6771 -2.0340 0.9745
3.5241 5.0023 -2.0340 0.9745
3.0760 5.2896 -2.0340 0.9745
5.3462 -1.9410 -2.0339 0.9761
5.4946 -1.4690 -2.0339 0.9761
5.6663 0.4933 -2.0340 0.9761
5.6020 0.9839 -2.0340 0.9761
5.4953 1.4671 -2.0340 0.9761
5.1582 2.3965 -2.0340 0.9761
4.9304 2.8357 -2.0340 0.9761
4.0314 4.0122 -2.0340 0.9761
3.6675 4.3475 -2.0340 0.9761
2.8592 4.9168 -2.0340 0.9761
4.5998 -2.6478 -2.0339 0.9775
4.8126 -2.2380 -2.0339 0.9775
4.9889 -1.8112 -2.0339 0.9775
5.1275 -1.3708 -2.0339 0.9775
5.2272 -0.9200 -2.0339 0.9775
5.2275 0.9182 -2.0340 0.9775
4.8134 2.2363 -2.0340 0.9775
4.6009 2.6462 -2.0340 0.9775
4.3535 3.0361 -2.0340 0.9775
4.0732 3.4029 -2.0340 0.9775
3.7620 3.7441 -2.0340 0.9775
3.4223 4.0569 -2.0340 0.9775
3.0568 4.3390 -2.0340 0.9775
4.5062 -2.0955 -2.0339 0.9788
4.6713 -1.6960 -2.0339 0.9788
4.8010 -1.2836 -2.0339 0.9788
4.8944 -0.8614 -2.0339 0.9787
4.9508 -0.4328 -2.0339 0.9787
4.9696 -0.0009 -2.0339 0.9787
4.8015 1.2819 -2.0340 0.9787
4.5070 2.0939 -2.0340 0.9787
4.3080 2.4777 -2.0340 0.9787
3.8138 3.1863 -2.0340 0.9787
3.5225 3.5057 -2.0340 0.9787
3.2044 3.7986 -2.0340 0.9787
2.4982 4.2961 -2.0340 0.9787
4.0447 -2.3282 -2.0339 0.9798
4.5086 -1.2054 -2.0339 0.9798
4.5963 -0.8090 -2.0339 0.9798
4.6493 -0.4065 -2.0339 0.9798
4.6670 -0.0008 -2.0339 0.9798
4.6494 0.4048 -2.0339 0.9798
4.5966 0.8073 -2.0339 0.9798
4.5091 1.2038 -2.0340 0.9798
4.0456 2.3268 -2.0340 0.9798
3.8280 2.6696 -2.0340 0.9798
3.5816 2.9923 -2.0340 0.9798
3.3079 3.2922 -2.0340 0.9798
3.0093 3.5673 -2.0340 0.9798
2.3461 4.0345 -2.0340 0.9798
3.8082 -2.1921 -2.0339 0.9808
3.9843 -1.8528 -2.0339 0.9808
4.3275 -0.7617 -2.0339 0.9808
4.3774 -0.3827 -2.0339 0.9808
4.3279 0.7601 -2.0339 0.9808
4.2454 1.1334 -2.0339 0.9808
3.9850 1.8514 -2.0340 0.9808
3.6042 2.5135 -2.0340 0.9808
3.3721 2.8173 -2.0340 0.9808
3.1145 3.0997 -2.0340 0.9808
2.8333 3.3586 -2.0340 0.9808
3.7598 -1.7484 -2.0339 0.9817
4.0058 -1.0710 -2.0339 0.9817
4.0837 -0.7188 -2.0339 0.9817
4.1307 -0.3611 -2.0339 0.9817
4.0839 0.7173 -2.0339 0.9817
4.0062 1.0696 -2.0339 0.9817
3.7605 1.7471 -2.0340 0.9817
3.5944 2.0673 -2.0340 0.9817
3.1821 2.6585 -2.0340 0.9817
2.3881 3.3898 -2.0340 0.9817
2.0844 3.5845 -2.0340 0.9817
3.3979 -1.9559 -2.0339 0.9825
3.5550 -1.6532 -2.0339 0.9825
3.6853 -1.3379 -2.0339 0.9825
3.7876 -1.0126 -2.0339 0.9825
2.1034 -0.3702 -1.1079 0.9904
2.0700 -0.0004 -1.0738 0.9907
2.0748 0.1806 -1.0804 0.9907
3.7880 1.0113 -2.0339 0.9825
3.5557 1.6520 -2.0339 0.9825
3.3986 1.9547 -2.0340 0.9825
3.2159 2.2427 -2.0340 0.9825
3.0088 2.5137 -2.0340 0.9825
2.7789 2.7657 -2.0340 0.9825
2.5280 2.9968 -2.0340 0.9825
2.2580 3.2051 -2.0340 0.9825
1.8503 -0.0004 -1.0134 0.9916
3.2191 1.8515 -2.0339 0.9832
2.8499 2.3810 -2.0340 0.9832
2.6321 2.6196 -2.0340 0.9832
2.3945 2.8385 -2.0340 0.9832
2.1388 3.0359 -2.0340 0.9832
1.8668 3.2103 -2.0340 0.9832
3.0532 -1.7575 -2.0339 0.9839
1.7141 -0.3017 -1.0048 0.9920
1.7245 -0.0003 -0.9956 0.9921
1.7215 0.1499 -0.9977 0.9921
1.7126 0.4572 -1.0234 0.9918
2.8896 2.0152 -2.0339 0.9839
2.7035 2.2587 -2.0339 0.9839
2.2716 2.6927 -2.0340 0.9839
1.7710 3.0454 -2.0339 0.9839
