ply
format ascii 1.0
element vertex 181
property float32 x
property float32 y
property float32 z
property float32 I
end_header
2.7239 -6.1647 -0.6470 0.9733
-10.7556 -13.3200 -2.0337 0.9334
-8.1587 -15.0513 -2.0337 0.9334
-6.7529 -15.7324 -2.0337 0.9334
-5.2907 -16.2825 -2.0337 0.9334
-3.7845 -16.6971 -2.0337 0.9334
-2.2468 -16.9726 -2.0337 0.9334
0.8718 -17.0986 -2.0337 0.9334
2.4268 -16.9481 -2.0337 0.9334
3.9616 -16.6565 -2.0337 0.9334
2.1816 -6.4792 -0.8121 0.9728
2.6416 -5.9786 -0.7764 0.9740
9.6481 -14.1446 -2.0338 0.9334
10.8974 -13.2064 -2.0338 0.9334
-9.9976 -10.2987 -2.0337 0.9437
-5.6613 -13.1896 -2.0337 0.9437
-4.4355 -13.6508 -2.0337 0.9437
-3.1728 -13.9983 -2.0337 0.9437
2.0346 -14.2087 -2.0338 0.9437
2.0914 -6.2114 -0.9286 0.9739
6.9740 -12.5461 -2.0338 0.9437
-8.5989 -8.8579 -2.0337 0.9512
-7.7556 -9.6048 -2.0337 0.9512
-5.8831 -10.8532 -2.0337 0.9512
-4.8693 -11.3443 -2.0337 0.9512
-0.4978 -12.3353 -2.0338 0.9512
0.6287 -12.3294 -2.0338 0.9512
1.5353 -6.4550 -1.0931 0.9735
2.0056 -5.9566 -1.0354 0.9748
2.5835 -5.8470 -1.0531 0.9744
7.8577 -9.5226 -2.0339 0.9512
-7.5366 -7.7636 -2.0337 0.9569
-6.7976 -8.4183 -2.0337 0.9569
-6.0019 -9.0028 -2.0337 0.9569
-4.2678 -9.9429 -2.0338 0.9569
-2.3918 -10.5525 -2.0338 0.9569
-1.4200 -10.7266 -2.0338 0.9569
0.5510 -10.8062 -2.0338 0.9569
1.5337 -10.7111 -2.0338 0.9569
1.4788 -6.2177 -1.2013 0.9743
2.0114 -5.9739 -1.1848 0.9747
3.2418 -5.8319 -1.2541 0.9732
6.8870 -8.3461 -2.0339 0.9569
-6.7017 -6.9035 -2.0338 0.9614
-6.0445 -7.4857 -2.0338 0.9614
-5.3370 -8.0055 -2.0338 0.9614
-4.5851 -8.4586 -2.0338 0.9614
-3.7950 -8.8413 -2.0338 0.9614
-2.9732 -9.1504 -2.0338 0.9614
-2.1268 -9.3834 -2.0338 0.9614
-1.2626 -9.5383 -2.0338 0.9614
-0.3880 -9.6137 -2.0338 0.9614
1.3638 -9.5245 -2.0338 0.9614
1.9763 -5.8696 -1.3092 0.9750
3.1514 -5.6692 -1.3711 0.9738
5.4219 -7.9487 -2.0339 0.9614
-5.4365 -6.7327 -2.0338 0.9651
-4.1238 -7.6077 -2.0338 0.9651
-3.4132 -7.9520 -2.0338 0.9651
-1.1356 -8.5788 -2.0338 0.9651
0.4407 -8.6425 -2.0338 0.9651
1.4689 -6.1757 -1.4919 0.9743
2.5603 -5.7945 -1.4888 0.9743
5.5079 -6.6749 -2.0339 0.9651
-5.4713 -5.6361 -2.0338 0.9681
-4.9348 -6.1113 -2.0338 0.9681
-3.7433 -6.9057 -2.0338 0.9681
-3.0982 -7.2181 -2.0338 0.9681
-2.4274 -7.4705 -2.0338 0.9681
-1.7364 -7.6607 -2.0338 0.9681
-1.0309 -7.7871 -2.0338 0.9681
1.1134 -7.7758 -2.0338 0.9681
1.4286 -6.0067 -1.5986 0.9748
4.4264 -6.4894 -2.0339 0.9681
-5.0041 -5.1548 -2.0338 0.9706
-3.4236 -6.3160 -2.0338 0.9706
-2.2201 -6.8326 -2.0338 0.9706
-1.5880 -7.0066 -2.0338 0.9706
-0.9428 -7.1221 -2.0338 0.9706
0.3658 -7.1750 -2.0338 0.9706
3.4906 -6.2795 -2.0339 0.9706
-4.6057 -4.7445 -2.0338 0.9727
-4.1541 -5.1446 -2.0338 0.9727
-3.6679 -5.5018 -2.0338 0.9727
-3.1511 -5.8132 -2.0338 0.9727
-2.6081 -6.0763 -2.0338 0.9727
-2.0434 -6.2887 -2.0338 0.9727
-0.8677 -6.5552 -2.0338 0.9727
-0.2666 -6.6070 -2.0338 0.9727
-2.4133 -5.6224 -2.0338 0.9745
-1.3525 -5.9672 -2.0338 0.9745
-0.2467 -6.1136 -2.0338 0.9745
0.3115 -6.1106 -2.0338 0.9745
0.8673 -6.0568 -2.0338 0.9745
1.4158 -5.9525 -2.0338 0.9745
2.4729 -5.5966 -2.0339 0.9745
2.9728 -5.3479 -2.0339 0.9745
3.4479 -5.0547 -2.0339 0.9745
-3.9614 -4.0808 -2.0338 0.9761
-3.1548 -4.7321 -2.0338 0.9761
-2.2433 -5.2262 -2.0338 0.9761
-1.2572 -5.5466 -2.0338 0.9761
-0.2293 -5.6827 -2.0338 0.9761
0.2896 -5.6800 -2.0338 0.9761
0.8062 -5.6300 -2.0338 0.9761
1.8148 -5.3901 -2.0339 0.9761
-3.3342 -4.1292 -2.0338 0.9775
-2.5292 -4.6658 -2.0338 0.9775
-2.0934 -4.8770 -2.0338 0.9775
-1.6401 -5.0475 -2.0338 0.9775
-0.6965 -5.2614 -2.0338 0.9775
-0.2140 -5.3030 -2.0338 0.9775
0.2702 -5.3004 -2.0338 0.9775
0.7523 -5.2537 -2.0338 0.9775
1.6936 -5.0299 -2.0339 0.9775
2.1450 -4.8546 -2.0339 0.9775
2.5786 -4.6389 -2.0339 0.9775
3.3779 -4.0937 -2.0339 0.9775
-3.4613 -3.5656 -2.0338 0.9788
-2.7565 -4.1347 -2.0338 0.9788
-2.3681 -4.3688 -2.0338 0.9788
-1.5357 -4.7261 -2.0338 0.9788
-0.6521 -4.9264 -2.0338 0.9788
0.2530 -4.9630 -2.0338 0.9788
1.1499 -4.8346 -2.0339 0.9788
1.5857 -4.7096 -2.0339 0.9788
2.0084 -4.5455 -2.0339 0.9788
2.8003 -4.1054 -2.0339 0.9788
3.1629 -3.8330 -2.0339 0.9788
-3.2506 -3.3485 -2.0338 0.9798
-2.5887 -3.8829 -2.0338 0.9798
-1.8407 -4.2884 -2.0338 0.9798
-0.6125 -4.6264 -2.0338 0.9798
0.2376 -4.6607 -2.0339 0.9798
1.0798 -4.5401 -2.0339 0.9798
1.4892 -4.4228 -2.0339 0.9798
2.2673 -4.0790 -2.0339 0.9798
-2.7604 -3.4185 -2.0338 0.9808
-2.0939 -3.8629 -2.0338 0.9808
-1.7330 -4.0376 -2.0338 0.9808
-1.3578 -4.1788 -2.0338 0.9808
-0.9713 -4.2852 -2.0338 0.9808
-0.1772 -4.3903 -2.0338 0.9808
0.6228 -4.3495 -2.0339 0.9808
2.1348 -3.8404 -2.0339 0.9808
-2.8880 -2.9750 -2.0338 0.9817
-2.6049 -3.2259 -2.0338 0.9817
-1.9759 -3.6452 -2.0338 0.9817
-1.2813 -3.9434 -2.0338 0.9817
-0.9165 -4.0437 -2.0338 0.9817
-0.5441 -4.1104 -2.0338 0.9817
0.5877 -4.1045 -2.0339 0.9817
0.9594 -4.0338 -2.0339 0.9817
1.6757 -3.7926 -2.0339 0.9817
2.6390 -3.1981 -2.0339 0.9817
-2.7307 -2.8130 -2.0338 0.9825
-2.4630 -3.0502 -2.0338 0.9825
-1.8683 -3.4467 -2.0338 0.9825
-1.5463 -3.6026 -2.0338 0.9825
-1.2116 -3.7286 -2.0338 0.9825
-0.5145 -3.8866 -2.0339 0.9825
0.1996 -3.9154 -2.0339 0.9825
0.5557 -3.8809 -2.0339 0.9825
1.2510 -3.7155 -2.0339 0.9825
1.5845 -3.5860 -2.0339 0.9825
2.4952 -3.0240 -2.0339 0.9825
-2.3329 -2.8891 -2.0338 0.9832
-1.7696 -3.2646 -2.0338 0.9832
-1.4647 -3.4124 -2.0338 0.9832
-0.8209 -3.6216 -2.0339 0.9832
-0.4873 -3.6813 -2.0339 0.9832
0.8592 -3.6127 -2.0339 0.9832
1.5008 -3.3967 -2.0339 0.9832
1.8042 -3.2457 -2.0339 0.9832
2.3635 -2.8643 -2.0339 0.9832
-2.4537 -2.5276 -2.0339 0.9839
-2.2131 -2.7408 -2.0339 0.9839
-1.9541 -2.9311 -2.0339 0.9839
-1.0887 -3.3503 -2.0339 0.9839
-0.7787 -3.4356 -2.0339 0.9839
-0.1421 -3.5199 -2.0339 0.9839
