ply
format ascii 1.0
element vertex 208
property float32 x
property float32 y
property float32 z
property float32 I
end_header
3.6747 18.4214 3.3122 0.9265
2.0130 18.8761 3.3472 0.9258
-13.1588 12.7733 3.2336 0.9282
3.7509 18.8039 2.9374 0.9253
1.9131 17.9389 2.7637 0.9296
-11.5345 13.4301 2.7121 0.9309
1.8630 17.4692 2.2878 0.9316
-11.1866 13.0249 1.8437 0.9333
3.5273 17.6824 1.5264 0.9302
2.0123 18.8702 1.6065 0.9266
3.4918 17.5050 1.1069 0.9310
-12.5540 14.6171 1.1948 0.9257
3.6227 18.1612 0.7302 0.9285
2.0167 18.9109 0.7499 0.9267
3.7195 18.6461 0.3212 0.9268
1.9799 18.5662 0.3154 0.9280
3.5962 18.0282 -0.1035 0.9291
-1.9862 7.5772 -0.5744 0.9691
-1.3292 7.9473 -0.7736 0.9681
-1.9516 7.4450 -0.7389 0.9695
9.0889 14.5133 -2.0341 0.9333
7.7378 15.2765 -2.0341 0.9333
4.8564 16.4212 -2.0341 0.9333
3.3499 16.7934 -2.0341 0.9333
1.8159 17.0276 -2.0341 0.9333
0.2670 17.1219 -2.0341 0.9333
-1.2594 7.5303 -0.9069 0.9697
-5.8235 16.1028 -2.0340 0.9333
-7.2573 15.5093 -2.0340 0.9334
-8.6314 14.7885 -2.0340 0.9334
-9.9346 13.9463 -2.0340 0.9334
-11.1562 12.9896 -2.0340 0.9334
-12.2862 11.9261 -2.0339 0.9334
-13.3152 10.7649 -2.0339 0.9334
6.4869 12.8069 -2.0341 0.9437
1.5223 14.2749 -2.0341 0.9437
0.2238 14.3541 -2.0341 0.9437
-0.5881 7.8198 -1.1111 0.9688
-1.2494 7.4705 -1.0732 0.9699
-7.2361 12.3980 -2.0340 0.9437
-9.3528 10.8898 -2.0339 0.9437
-11.1629 9.0248 -2.0339 0.9437
6.5534 10.4646 -2.0341 0.9512
3.5016 11.8403 -2.0341 0.9512
1.3093 12.2775 -2.0340 0.9512
0.1925 12.3455 -2.0340 0.9512
-6.2236 10.6632 -2.0340 0.9512
-7.1633 10.0560 -2.0340 0.9512
2.1170 10.6125 -2.0340 0.9569
1.1475 10.7605 -2.0340 0.9569
-0.5760 7.6587 -1.4436 0.9692
-1.2175 7.2797 -1.3873 0.9704
-1.8414 7.0247 -1.3650 0.9709
-3.6802 10.1763 -2.0340 0.9569
-5.4547 9.3458 -2.0340 0.9569
-6.2784 8.8135 -2.0339 0.9569
-7.0504 8.2090 -2.0339 0.9569
-7.7645 7.5370 -2.0339 0.9569
-8.4149 6.8031 -2.0339 0.9569
-8.9961 6.0134 -2.0339 0.9569
5.1073 8.1554 -2.0340 0.9614
3.5531 8.9426 -2.0340 0.9614
2.7289 9.2275 -2.0340 0.9614
1.0204 9.5683 -2.0340 0.9614
0.1500 9.6213 -2.0340 0.9614
-0.5564 7.3984 -1.5683 0.9701
-1.1924 7.1298 -1.5280 0.9709
-3.2725 9.0488 -2.0340 0.9614
-4.0782 8.7154 -2.0340 0.9614
-6.9043 6.7019 -2.0339 0.9614
-7.4826 6.0494 -2.0339 0.9614
4.5935 7.3349 -2.0340 0.9651
3.1956 8.0429 -2.0340 0.9651
0.1349 8.6534 -2.0340 0.9651
-0.5584 7.4245 -1.7499 0.9699
-1.2217 7.3049 -1.7407 0.9700
-1.8972 7.2376 -1.7585 0.9697
-3.6679 7.8386 -2.0340 0.9651
-4.3624 7.4743 -2.0339 0.9651
-5.6386 6.5651 -2.0339 0.9651
-6.2097 6.0277 -2.0339 0.9651
-6.7298 5.4408 -2.0339 0.9651
-7.1946 4.8092 -2.0339 0.9651
3.5496 7.0081 -2.0340 0.9681
2.9007 7.3006 -2.0340 0.9681
2.2279 7.5332 -2.0340 0.9681
0.8330 7.8114 -2.0340 0.9681
0.1225 7.8547 -2.0340 0.9681
-1.9919 7.5989 -2.0340 0.9681
-3.3294 7.1151 -2.0340 0.9681
-4.5577 6.3981 -2.0339 0.9681
-5.1182 5.9593 -2.0339 0.9681
-6.5307 4.3654 -2.0339 0.9681
3.8134 6.0894 -2.0340 0.9706
3.2465 6.4096 -2.0340 0.9706
2.6530 6.6772 -2.0340 0.9706
1.4055 7.0461 -2.0340 0.9706
0.7619 7.1444 -2.0340 0.9706
0.1120 7.1840 -2.0340 0.9706
-0.5388 7.1646 -2.0340 0.9706
-1.8218 6.9500 -2.0340 0.9706
-3.6216 6.2051 -2.0339 0.9706
-4.6811 5.4504 -2.0339 0.9706
-5.1553 5.0042 -2.0339 0.9706
-5.5871 4.5169 -2.0339 0.9706
-5.9730 3.9926 -2.0339 0.9706
3.5099 5.6046 -2.0340 0.9727
2.9881 5.8994 -2.0340 0.9727
1.2936 6.4851 -2.0340 0.9727
0.1031 6.6121 -2.0340 0.9727
-3.3333 5.7111 -2.0339 0.9727
-3.8366 5.3859 -2.0339 0.9727
-4.3084 5.0165 -2.0339 0.9727
2.7649 5.4587 -2.0340 0.9745
2.2594 5.6866 -2.0340 0.9745
1.7353 5.8678 -2.0340 0.9745
1.1970 6.0007 -2.0340 0.9745
-0.4588 6.1017 -2.0340 0.9745
-1.0094 6.0351 -2.0340 0.9745
-1.5515 5.9189 -2.0340 0.9745
-2.0810 5.7541 -2.0339 0.9745
-4.7582 3.8469 -2.0339 0.9745
-5.0869 3.4003 -2.0339 0.9745
1.6130 5.4542 -2.0340 0.9761
1.1127 5.5778 -2.0340 0.9761
0.6031 5.6556 -2.0340 0.9761
0.0887 5.6870 -2.0340 0.9761
-0.4265 5.6717 -2.0340 0.9761
-0.9382 5.6097 -2.0340 0.9761
-1.9343 5.3486 -2.0339 0.9761
-2.4106 5.1515 -2.0339 0.9761
-2.8670 4.9121 -2.0339 0.9761
-3.7057 4.3147 -2.0339 0.9761
-4.4229 3.5757 -2.0339 0.9761
2.8171 4.4983 -2.0340 0.9775
2.3983 4.7349 -2.0340 0.9775
1.9598 4.9325 -2.0340 0.9775
-0.8755 5.2348 -2.0340 0.9775
-2.6754 4.5838 -2.0339 0.9775
-3.0793 4.3228 -2.0339 0.9775
-3.4580 4.0263 -2.0339 0.9775
-3.8083 3.6967 -2.0339 0.9775
-4.1273 3.3368 -2.0339 0.9775
1.8350 4.6185 -2.0340 0.9787
0.5270 4.9417 -2.0340 0.9787
0.0775 4.9690 -2.0340 0.9787
-1.6901 4.6734 -2.0339 0.9788
-2.1062 4.5012 -2.0339 0.9788
-2.5050 4.2920 -2.0339 0.9788
-2.8833 4.0476 -2.0339 0.9788
-3.8645 3.1243 -2.0339 0.9788
2.4771 3.9554 -2.0340 0.9798
-0.7698 4.6030 -2.0339 0.9798
-1.1834 4.5144 -2.0339 0.9798
-1.5872 4.3887 -2.0339 0.9798
-1.9779 4.2270 -2.0339 0.9798
-2.7077 3.8011 -2.0339 0.9798
-3.3487 3.2505 -2.0339 0.9798
2.3322 3.7241 -2.0340 0.9808
1.2461 4.2137 -2.0340 0.9808
0.8596 4.3092 -2.0340 0.9808
-0.3295 4.3817 -2.0339 0.9808
-0.7248 4.3338 -2.0339 0.9808
-1.1142 4.2504 -2.0339 0.9808
-1.4943 4.1321 -2.0339 0.9808
-2.5493 3.5788 -2.0339 0.9808
-3.1529 3.0605 -2.0339 0.9808
1.5311 3.8535 -2.0340 0.9817
0.8112 4.0664 -2.0340 0.9817
0.4397 4.1231 -2.0340 0.9817
0.0646 4.1460 -2.0339 0.9817
-0.6839 4.0896 -2.0339 0.9817
-1.0514 4.0109 -2.0339 0.9817
-1.4101 3.8993 -2.0339 0.9817
-3.4471 2.3042 -2.0339 0.9817
1.4477 3.6436 -2.0340 0.9825
1.1119 3.7597 -2.0340 0.9825
0.7670 3.8449 -2.0340 0.9825
0.0611 3.9202 -2.0339 0.9825
-0.2940 3.9096 -2.0339 0.9825
-0.9941 3.7925 -2.0339 0.9825
-1.9763 3.3860 -2.0339 0.9825
-2.2747 3.1932 -2.0339 0.9825
-2.8132 2.7307 -2.0339 0.9825
-3.0488 2.4648 -2.0339 0.9825
-3.2594 2.1787 -2.0339 0.9825
1.9710 3.1473 -2.0340 0.9832
1.3712 3.4512 -2.0340 0.9832
0.3938 3.6927 -2.0339 0.9832
0.0579 3.7131 -2.0339 0.9832
-0.2785 3.7031 -2.0339 0.9832
-0.9416 3.5922 -2.0339 0.9832
-1.2629 3.4922 -2.0339 0.9832
-1.8719 3.2072 -2.0339 0.9832
-2.1546 3.0246 -2.0339 0.9832
-2.6646 2.5865 -2.0339 0.9832
-2.8878 2.3347 -2.0339 0.9832
-3.0873 2.0637 -2.0339 0.9832
1.8698 2.9857 -2.0339 0.9839
1.5918 3.1427 -2.0339 0.9839
0.9991 3.3782 -2.0339 0.9839
0.6892 3.4548 -2.0339 0.9839
0.3736 3.5030 -2.0339 0.9839
0.0549 3.5224 -2.0339 0.9839
-0.2641 3.5129 -2.0339 0.9839
-1.4930 3.1908 -2.0339 0.9839
-1.7758 3.0425 -2.0339 0.9839
-2.5278 2.4537 -2.0339 0.9839
