ply
format ascii 1.0
element vertex 181
property float32 x
property float32 y
property float32 z
property float32 I
end_header
-11.9227 -7.9557 -1.0509 0.9441
-11.6794 -7.7933 -1.3480 0.9451
-16.9677 -2.2852 -2.0337 0.9334
-16.2746 -5.3156 -2.0337 0.9334
-15.7248 -6.7711 -2.0337 0.9334
-11.6132 -7.7492 -1.6584 0.9453
-13.3196 -10.7563 -2.0337 0.9334
-12.2880 -11.9211 -2.0337 0.9334
-11.1551 -12.9874 -2.0337 0.9334
-8.6228 -14.7904 -2.0337 0.9334
-13.9925 -3.1994 -2.0337 0.9437
-13.1832 -5.6766 -2.0337 0.9437
-11.9393 -7.9668 -2.0337 0.9437
-11.1667 -9.0178 -2.0337 0.9437
-10.3020 -9.9943 -2.0337 0.9437
-9.3521 -10.8882 -2.0337 0.9437
-7.2291 -12.3998 -2.0337 0.9437
-4.8679 -13.5027 -2.0337 0.9437
-3.6219 -13.8889 -2.0337 0.9437
-12.3314 0.5917 -2.0338 0.9512
-12.2350 -1.6478 -2.0338 0.9512
-11.3388 -4.8825 -2.0337 0.9512
-10.8487 -5.8916 -2.0337 0.9512
-9.6045 -7.7561 -2.0337 0.9512
-8.0437 -9.3649 -2.0337 0.9512
-4.1868 -11.6135 -2.0337 0.9512
-3.1152 -11.9457 -2.0337 0.9512
-2.0179 -12.1792 -2.0337 0.9512
-10.8080 0.5186 -2.0338 0.9569
-10.8104 -0.4648 -2.0338 0.9569
-10.7235 -1.4443 -2.0338 0.9569
-10.5480 -2.4118 -2.0338 0.9569
-9.0004 -6.0057 -2.0338 0.9569
-8.4180 -6.7980 -2.0338 0.9569
-7.7661 -7.5341 -2.0337 0.9569
-6.2757 -8.8142 -2.0337 0.9569
-5.4496 -9.3475 -2.0337 0.9569
-4.5785 -9.8036 -2.0338 0.9569
-3.6695 -10.1789 -2.0338 0.9569
-1.7686 -10.6746 -2.0338 0.9569
-9.6106 0.4611 -2.0338 0.9614
-9.6127 -0.4133 -2.0338 0.9614
-8.8370 -3.8052 -2.0338 0.9614
-6.9057 -6.6995 -2.0338 0.9614
-6.2690 -7.2987 -2.0338 0.9614
-4.8459 -8.3120 -2.0338 0.9614
-4.0713 -8.7176 -2.0338 0.9614
-3.2630 -9.0512 -2.0338 0.9614
-8.6438 0.4147 -2.0338 0.9651
-8.6457 -0.3717 -2.0338 0.9651
-8.4359 -1.9289 -2.0338 0.9651
-7.6045 -4.1298 -2.0338 0.9651
-7.1982 -4.8031 -2.0338 0.9651
-6.7324 -5.4368 -2.0338 0.9651
-4.3584 -7.4758 -2.0338 0.9651
-2.9348 -8.1407 -2.0338 0.9651
-2.1836 -8.3736 -2.0338 0.9651
-1.4145 -8.5372 -2.0338 0.9651
-7.8479 -0.3374 -2.0338 0.9681
-7.6575 -1.7509 -2.0338 0.9681
-7.4668 -2.4388 -2.0338 0.9681
-7.2146 -3.1066 -2.0338 0.9681
-6.9028 -3.7487 -2.0338 0.9681
-6.5339 -4.3599 -2.0338 0.9681
-5.1180 -5.9587 -2.0338 0.9681
-1.9821 -7.6008 -2.0338 0.9681
-7.1761 0.3443 -2.0338 0.9706
-7.1777 -0.3086 -2.0338 0.9706
-7.1200 -0.9589 -2.0338 0.9706
-6.5985 -2.8413 -2.0338 0.9706
-5.5893 -4.5137 -2.0338 0.9706
-4.6810 -5.4499 -2.0338 0.9706
-4.1669 -5.8523 -2.0338 0.9706
-3.0400 -6.5094 -2.0338 0.9706
-2.4365 -6.7584 -2.0338 0.9706
-1.8129 -6.9518 -2.0338 0.9706
-6.6063 -0.2840 -2.0338 0.9727
-6.2856 -2.0530 -2.0338 0.9727
-6.0732 -2.6152 -2.0338 0.9727
-4.3084 -5.0161 -2.0338 0.9727
-3.8352 -5.3865 -2.0338 0.9727
-2.7980 -5.9912 -2.0338 0.9727
-2.2426 -6.2205 -2.0338 0.9727
-1.6686 -6.3984 -2.0338 0.9727
-1.0808 -6.5235 -2.0338 0.9727
-6.0638 -0.8167 -2.0338 0.9745
-5.9646 -1.3638 -2.0338 0.9745
-5.0895 -3.3960 -2.0338 0.9745
-4.7602 -3.8441 -2.0338 0.9745
-4.3915 -4.2604 -2.0338 0.9745
-3.5487 -4.9842 -2.0338 0.9745
-3.0817 -5.2858 -2.0338 0.9745
-2.5890 -5.5437 -2.0338 0.9745
-2.0751 -5.7559 -2.0338 0.9745
-5.6809 0.2726 -2.0339 0.9761
-5.6364 -0.7591 -2.0338 0.9761
-4.9979 -2.7142 -2.0338 0.9761
-4.7308 -3.1568 -2.0338 0.9761
-3.7057 -4.3144 -2.0338 0.9761
-2.8645 -4.9133 -2.0338 0.9761
-0.9296 -5.6109 -2.0338 0.9761
-5.3024 -0.2279 -2.0339 0.9775
-5.2598 -0.7084 -2.0338 0.9775
-5.1737 -1.1829 -2.0338 0.9775
-5.0450 -1.6478 -2.0338 0.9775
-4.6639 -2.5329 -2.0338 0.9775
-3.8092 -3.6954 -2.0338 0.9775
-3.0782 -4.3233 -2.0338 0.9775
-2.6730 -4.5849 -2.0338 0.9775
-4.7238 -1.5429 -2.0338 0.9788
-4.5642 -1.9654 -2.0338 0.9788
-4.3669 -2.3716 -2.0338 0.9788
-4.1336 -2.7582 -2.0338 0.9788
-3.8661 -3.1221 -2.0338 0.9788
-2.1028 -4.5025 -2.0338 0.9788
-1.6854 -4.6749 -2.0338 0.9788
-1.2540 -4.8086 -2.0338 0.9788
-0.8123 -4.9026 -2.0338 0.9788
-1.9182 0.0920 -0.8369 0.9917
-1.9184 -0.0825 -0.8369 0.9917
-1.9016 -0.4348 -0.8501 0.9915
-4.4361 -1.4489 -2.0338 0.9798
-4.2863 -1.8456 -2.0338 0.9798
-4.1009 -2.2271 -2.0338 0.9798
-3.8818 -2.5903 -2.0338 0.9798
-3.6307 -2.9320 -2.0338 0.9798
-3.0407 -3.5401 -2.0338 0.9798
-2.3505 -4.0316 -2.0338 0.9798
-1.9748 -4.2284 -2.0338 0.9798
-1.5827 -4.3902 -2.0338 0.9798
-1.1776 -4.5157 -2.0338 0.9798
-0.7628 -4.6040 -2.0338 0.9798
-1.5916 0.0763 -0.7376 0.9930
-1.5893 -0.0684 -0.7364 0.9930
-1.6105 -0.2169 -0.7522 0.9929
-1.5876 -0.3630 -0.7538 0.9928
-1.6289 -0.5321 -0.7932 0.9925
-4.0356 -1.7378 -2.0338 0.9808
-3.8612 -2.0969 -2.0338 0.9808
-3.6548 -2.4388 -2.0338 0.9808
-3.1537 -3.0595 -2.0338 0.9808
-1.4902 -4.1335 -2.0338 0.9808
-0.7182 -4.3348 -2.0338 0.9808
-1.3478 -0.0580 -0.6617 0.9940
-1.3507 -0.1820 -0.6685 0.9939
-3.8082 -1.6398 -2.0338 0.9817
-3.6436 -1.9788 -2.0338 0.9817
-3.2258 -2.6050 -2.0338 0.9817
-2.9760 -2.8871 -2.0338 0.9817
-2.4049 -3.3776 -2.0338 0.9817
-2.0883 -3.5820 -2.0338 0.9817
-1.7545 -3.7568 -2.0338 0.9817
-0.6777 -4.0905 -2.0338 0.9817
-1.1722 -0.2680 -0.6238 0.9946
-1.1109 -0.4784 -0.6274 0.9946
-3.2611 -2.1760 -2.0338 0.9825
-2.2739 -3.1937 -2.0338 0.9825
-1.6590 -3.5522 -2.0338 0.9825
-1.3296 -3.6881 -2.0338 0.9825
-0.6409 -3.8678 -2.0339 0.9825
-1.0812 0.0518 -0.5929 0.9951
-1.0809 -0.0465 -0.5925 0.9951
-1.0747 -0.1448 -0.5939 0.9951
-1.0511 -0.2404 -0.5906 0.9951
-1.0310 -0.3368 -0.5940 0.9951
-1.0037 -0.4322 -0.5985 0.9950
-3.2632 -1.7722 -2.0339 0.9832
-3.0889 -2.0611 -2.0339 0.9832
-2.6653 -2.5857 -2.0338 0.9832
-2.4195 -2.8170 -2.0338 0.9832
-1.8703 -3.2080 -2.0338 0.9832
-0.9371 -3.5933 -2.0339 0.9832
-0.6070 -3.6635 -2.0339 0.9832
-0.9900 -0.0426 -0.5721 0.9954
-0.9848 -0.1327 -0.5737 0.9954
-0.9690 -0.2216 -0.5739 0.9954
-0.9308 -0.4008 -0.5851 0.9953
-2.9303 -1.9553 -2.0339 0.9839
-2.2953 -2.6723 -2.0339 0.9839
-1.7743 -3.0433 -2.0339 0.9839
-1.1947 -3.3140 -2.0339 0.9839
