ply
format ascii 1.0
element vertex 201
property float32 x
property float32 y
property float32 z
property float32 I
end_header
-12.4637 -7.8285 -1.0792 0.9427
-11.2328 -8.5262 -1.3539 0.9449
-15.8742 -6.4130 -2.0337 0.9334
-12.6492 -7.9449 -1.7743 0.9416
-11.2384 -8.5305 -1.6760 0.9448
-11.6027 -12.5891 -2.0337 0.9334
-10.4454 -13.5647 -2.0337 0.9334
-7.8955 -15.1911 -2.0337 0.9334
-3.6358 -16.7301 -2.0337 0.9334
-2.1439 -16.9859 -2.0337 0.9334
3.8735 -16.6772 -2.0337 0.9334
2.1370 -6.5215 -0.8152 0.9727
-13.3084 -5.3765 -2.0337 0.9437
-12.7815 -6.5309 -2.0337 0.9437
-12.1546 -7.6343 -2.0337 0.9437
-10.6216 -9.6539 -2.0337 0.9437
-9.7274 -10.5543 -2.0337 0.9437
-7.7184 -12.1013 -2.0337 0.9437
-6.6194 -12.7357 -2.0337 0.9437
-5.4686 -13.2707 -2.0337 0.9437
-4.2751 -13.7019 -2.0337 0.9437
-1.7973 -14.2405 -2.0337 0.9437
0.7365 -14.3347 -2.0337 0.9437
1.5203 -6.5458 -0.9522 0.9732
2.0192 -6.1621 -0.9188 0.9741
-9.8332 -7.4639 -2.0337 0.9512
-7.5320 -9.7812 -2.0337 0.9512
-6.6386 -10.4083 -2.0337 0.9512
-1.5459 -12.2481 -2.0338 0.9512
0.6334 -12.3291 -2.0338 0.9512
1.5350 -6.6092 -1.1178 0.9729
-10.0325 -4.0530 -2.0338 0.9569
-9.6352 -4.9233 -2.0338 0.9569
-8.0070 -7.2776 -2.0338 0.9569
-7.3329 -7.9563 -2.0337 0.9569
-6.6015 -8.5729 -2.0337 0.9569
-2.2978 -10.5734 -2.0338 0.9569
1.5075 -10.7148 -2.0338 0.9569
1.4745 -6.3487 -1.2251 0.9738
-8.9210 -3.6040 -2.0338 0.9614
-8.5678 -4.3779 -2.0338 0.9614
-8.1476 -5.1175 -2.0338 0.9614
-7.1199 -6.4713 -2.0338 0.9614
-5.8702 -7.6232 -2.0338 0.9614
-5.1739 -8.1119 -2.0338 0.9614
-4.4371 -8.5371 -2.0338 0.9614
-2.8657 -9.1848 -2.0338 0.9614
-1.2048 -9.5457 -2.0338 0.9614
0.4937 -9.6089 -2.0338 0.9614
1.3405 -9.5277 -2.0338 0.9614
1.4624 -6.2966 -1.3664 0.9739
-8.0236 -3.2415 -2.0338 0.9651
-7.3280 -4.6027 -2.0338 0.9651
-6.8928 -5.2319 -2.0338 0.9651
-6.4037 -5.8203 -2.0338 0.9651
-5.8646 -6.3632 -2.0338 0.9651
-3.9909 -7.6784 -2.0338 0.9651
-2.5774 -8.2608 -2.0338 0.9651
-0.3210 -8.6477 -2.0338 0.9651
0.4440 -8.6423 -2.0338 0.9651
1.2056 -8.5693 -2.0338 0.9651
1.4177 -6.1037 -1.4727 0.9746
1.8995 -5.7970 -1.4337 0.9752
-7.2832 -2.9423 -2.0338 0.9681
-6.2567 -4.7491 -2.0338 0.9681
-5.8128 -5.2832 -2.0338 0.9681
-5.3234 -5.7760 -2.0338 0.9681
-4.7924 -6.2236 -2.0338 0.9681
-1.6681 -7.6759 -2.0338 0.9681
-0.9836 -7.7932 -2.0338 0.9681
-0.2915 -7.8496 -2.0338 0.9681
0.4030 -7.8447 -2.0338 0.9681
1.0943 -7.7785 -2.0338 0.9681
1.4024 -6.0379 -1.6049 0.9747
-6.0837 -3.8212 -2.0338 0.9706
-5.7224 -4.3436 -2.0338 0.9706
-4.8688 -5.2828 -2.0338 0.9706
-4.3832 -5.6921 -2.0338 0.9706
-3.8633 -6.0571 -2.0338 0.9706
-2.7372 -6.6423 -2.0338 0.9706
-2.1398 -6.8582 -2.0338 0.9706
-1.5257 -7.0204 -2.0338 0.9706
1.0009 -7.1143 -2.0338 0.9706
1.4383 -6.1927 -1.7998 0.9739
-5.5995 -3.5170 -2.0338 0.9727
-5.2670 -3.9979 -2.0338 0.9727
-4.4812 -4.8622 -2.0338 0.9727
-4.0343 -5.2390 -2.0338 0.9727
-3.5557 -5.5749 -2.0338 0.9727
-2.5193 -6.1136 -2.0338 0.9727
-1.4043 -6.4616 -2.0338 0.9727
-0.8280 -6.5604 -2.0338 0.9727
-0.2454 -6.6079 -2.0338 0.9727
0.3393 -6.6037 -2.0338 0.9727
0.9212 -6.5479 -2.0338 0.9727
1.4960 -6.4410 -2.0338 0.9727
-5.6730 -2.2919 -2.0338 0.9745
-5.4484 -2.7840 -2.0338 0.9745
-5.1813 -3.2544 -2.0338 0.9745
-4.8736 -3.6993 -2.0338 0.9745
-1.8224 -5.8408 -2.0338 0.9745
-1.2994 -5.9790 -2.0338 0.9745
-0.7662 -6.0704 -2.0338 0.9745
0.3139 -6.1105 -2.0338 0.9745
0.8524 -6.0589 -2.0338 0.9745
1.3843 -5.9600 -2.0338 0.9745
1.9053 -5.8144 -2.0339 0.9745
-5.2732 -2.1303 -2.0338 0.9761
-5.0645 -2.5878 -2.0338 0.9761
-4.5301 -3.4386 -2.0338 0.9761
-4.2087 -3.8253 -2.0338 0.9761
-3.8543 -4.1820 -2.0338 0.9761
-3.4699 -4.5061 -2.0338 0.9761
-3.0584 -4.7950 -2.0338 0.9761
-2.6229 -5.0464 -2.0338 0.9761
-0.7122 -5.6426 -2.0338 0.9761
0.2918 -5.6799 -2.0338 0.9761
0.7923 -5.6319 -2.0338 0.9761
1.2867 -5.5399 -2.0338 0.9761
1.7710 -5.4047 -2.0339 0.9761
-4.7260 -2.4148 -2.0338 0.9775
-4.4943 -2.8228 -2.0338 0.9775
-4.2273 -3.2088 -2.0338 0.9775
-3.5968 -3.9026 -2.0338 0.9775
-2.8539 -4.4746 -2.0338 0.9775
-1.5807 -5.0664 -2.0338 0.9775
-0.6646 -5.2655 -2.0338 0.9775
0.2723 -5.3003 -2.0338 0.9775
0.7394 -5.2555 -2.0338 0.9775
1.2007 -5.1697 -2.0339 0.9775
-4.6075 -1.8614 -2.0338 0.9788
-4.2081 -2.6431 -2.0338 0.9788
-3.9582 -3.0045 -2.0338 0.9788
-3.6773 -3.3423 -2.0338 0.9788
-2.6723 -4.1897 -2.0338 0.9788
-1.8934 -4.5946 -2.0338 0.9788
-1.4802 -4.7438 -2.0338 0.9788
-0.6223 -4.9303 -2.0338 0.9788
0.6923 -4.9210 -2.0339 0.9788
1.1243 -4.8406 -2.0339 0.9788
1.5474 -4.7224 -2.0339 0.9788
-4.1557 -2.1234 -2.0338 0.9798
-3.9518 -2.4822 -2.0338 0.9798
-2.5095 -3.9346 -2.0338 0.9798
-0.9911 -4.5603 -2.0338 0.9798
-0.5844 -4.6300 -2.0338 0.9798
0.2394 -4.6606 -2.0339 0.9798
1.4532 -4.4348 -2.0339 0.9798
-4.0739 -1.6458 -2.0338 0.9808
-3.4998 -2.6565 -2.0338 0.9808
-3.2515 -2.9553 -2.0338 0.9808
-2.6808 -3.4813 -2.0338 0.9808
-2.3628 -3.7045 -2.0338 0.9808
-2.0263 -3.8987 -2.0338 0.9808
-1.3087 -4.1945 -2.0338 0.9808
-0.1630 -4.3908 -2.0338 0.9808
0.6121 -4.3510 -2.0339 0.9808
0.9940 -4.2800 -2.0339 0.9808
1.3682 -4.1754 -2.0339 0.9808
-3.5111 -2.2053 -2.0338 0.9817
-2.8100 -3.0489 -2.0338 0.9817
-2.5297 -3.2852 -2.0338 0.9817
-2.2296 -3.4958 -2.0338 0.9817
-1.5798 -3.8336 -2.0338 0.9817
-1.2350 -3.9581 -2.0338 0.9817
-0.8805 -4.0517 -2.0338 0.9817
-0.5192 -4.1137 -2.0338 0.9817
0.2127 -4.1409 -2.0339 0.9817
1.2911 -3.9402 -2.0339 0.9817
-3.3199 -2.0852 -2.0338 0.9825
-2.9011 -2.6369 -2.0338 0.9825
-2.6569 -2.8828 -2.0338 0.9825
-2.3920 -3.1062 -2.0338 0.9825
-2.1082 -3.3054 -2.0338 0.9825
-1.8080 -3.4787 -2.0338 0.9825
-1.1677 -3.7425 -2.0338 0.9825
-0.8326 -3.8311 -2.0339 0.9825
-0.1455 -3.9178 -2.0339 0.9825
0.2011 -3.9153 -2.0339 0.9825
-1.0120 -0.4089 -0.5978 0.9950
-2.9578 -2.2451 -2.0338 0.9832
-2.7480 -2.4976 -2.0338 0.9832
-2.5166 -2.7306 -2.0338 0.9832
-2.2656 -2.9422 -2.0338 0.9832
-1.9969 -3.1308 -2.0338 0.9832
-1.4148 -3.4333 -2.0338 0.9832
-1.1061 -3.5449 -2.0339 0.9832
-0.4650 -3.6842 -2.0339 0.9832
0.1905 -3.7086 -2.0339 0.9832
0.5174 -3.6772 -2.0339 0.9832
-0.9372 -0.3787 -0.5836 0.9953
-0.9097 -0.4649 -0.5898 0.9953
-2.9831 -1.8737 -2.0339 0.9839
-2.8059 -2.1299 -2.0339 0.9839
-1.6246 -3.1258 -2.0339 0.9839
-1.0492 -3.3629 -2.0339 0.9839
-0.7481 -3.4424 -2.0339 0.9839
-0.4412 -3.4950 -2.0339 0.9839
0.1807 -3.5181 -2.0339 0.9839
0.4907 -3.4884 -2.0339 0.9839
1.0970 -3.3476 -2.0339 0.9839
