ply
format ascii 1.0
element vertex 205
property float32 x
property float32 y
property float32 z
property float32 I
end_header
2.8204 18.8353 3.3582 0.9256
2.6629 17.7839 2.7548 0.9298
2.8878 19.2864 2.0941 0.9245
2.6086 17.4215 1.4912 0.9317
2.6386 17.6217 1.1049 0.9311
2.6429 17.6504 0.7037 0.9310
2.8014 18.7094 -0.1065 0.9271
2.8068 18.7451 -0.5337 0.9270
2.7790 18.5593 -0.9517 0.9276
14.6946 8.7607 -1.2544 0.9337
2.7688 18.4912 -1.3709 0.9278
13.1933 9.5401 -1.5631 0.9367
-0.8995 7.6704 -0.7414 0.9694
15.4257 7.4354 -2.0341 0.9333
13.2799 9.6027 -1.9467 0.9361
12.9359 11.2208 -2.0341 0.9333
11.8941 12.3197 -2.0341 0.9333
9.5403 14.2207 -2.0341 0.9333
8.2468 15.0079 -2.0341 0.9333
6.8887 15.6777 -2.0341 0.9333
4.0220 16.6452 -2.0341 0.9333
1.0298 17.0931 -2.0341 0.9333
-0.4842 17.1171 -2.0341 0.9333
-0.9010 7.6829 -0.9189 0.9693
-1.5479 7.4372 -0.9024 0.9699
12.9320 6.2334 -2.0341 0.9437
12.3309 7.3514 -2.0341 0.9437
9.0200 11.1686 -2.0341 0.9437
7.9980 11.9218 -2.0341 0.9437
6.9136 12.5817 -2.0341 0.9437
5.7750 13.1432 -2.0341 0.9437
2.1259 14.1977 -2.0341 0.9437
-0.4059 14.3500 -2.0341 0.9437
-0.8697 7.4166 -1.0581 0.9703
-1.4986 7.2009 -1.0422 0.9707
10.6054 6.3228 -2.0341 0.9512
10.0054 7.2349 -2.0341 0.9512
8.5760 8.8829 -2.0341 0.9512
6.8789 10.2536 -2.0341 0.9512
5.9462 10.8212 -2.0341 0.9512
4.9670 11.3041 -2.0341 0.9512
2.9000 12.0017 -2.0341 0.9512
1.8285 12.2110 -2.0341 0.9512
0.7426 12.3247 -2.0340 0.9512
-1.4991 7.2032 -1.2121 0.9706
9.7483 4.6988 -2.0340 0.9569
8.7692 6.3411 -2.0340 0.9569
6.7992 8.4190 -2.0341 0.9569
6.0289 8.9867 -2.0341 0.9569
5.2114 9.4841 -2.0341 0.9569
4.3533 9.9074 -2.0340 0.9569
3.4611 10.2533 -2.0340 0.9569
2.5417 10.5189 -2.0340 0.9569
1.6025 10.7022 -2.0340 0.9569
-0.8562 7.3012 -1.3817 0.9705
-1.5098 7.2545 -1.3928 0.9703
8.6682 4.1781 -2.0340 0.9614
7.7976 5.6385 -2.0340 0.9614
6.6836 6.9228 -2.0340 0.9614
4.6340 8.4333 -2.0340 0.9614
3.8709 8.8097 -2.0340 0.9614
3.0775 9.1172 -2.0340 0.9614
1.4250 9.5165 -2.0340 0.9614
0.5787 9.6051 -2.0340 0.9614
-0.8572 7.3100 -1.5558 0.9704
-1.4832 7.1264 -1.5387 0.9707
7.7961 3.7578 -2.0340 0.9651
6.5377 5.6709 -2.0340 0.9651
5.4377 6.7330 -2.0340 0.9651
4.8216 7.1871 -2.0340 0.9651
3.4815 7.9234 -2.0340 0.9651
2.7679 8.2000 -2.0340 0.9651
1.2816 8.5591 -2.0340 0.9651
0.5205 8.6388 -2.0340 0.9651
-0.2447 8.6510 -2.0340 0.9651
7.3503 2.7725 -2.0340 0.9681
6.3659 4.6032 -2.0340 0.9681
5.9344 5.1476 -2.0340 0.9681
5.4564 5.6517 -2.0340 0.9681
4.9358 6.1116 -2.0340 0.9681
3.7832 6.8849 -2.0340 0.9681
2.5125 7.4432 -2.0340 0.9681
1.8451 7.6360 -2.0340 0.9681
1.1633 7.7691 -2.0340 0.9681
-0.8704 7.4226 -1.9350 0.9696
6.7225 2.5357 -2.0340 0.9706
6.1714 3.6793 -2.0340 0.9706
5.4275 4.7079 -2.0340 0.9706
4.9904 5.1690 -2.0340 0.9706
4.5143 5.5896 -2.0340 0.9706
4.0029 5.9666 -2.0340 0.9706
2.8903 6.5779 -2.0340 0.9706
2.2979 6.8075 -2.0340 0.9706
1.6875 6.9839 -2.0340 0.9706
1.0640 7.1056 -2.0340 0.9706
-0.2031 7.1820 -2.0340 0.9706
-1.4639 7.0341 -2.0340 0.9706
6.1873 2.3338 -2.0340 0.9727
5.6801 3.3863 -2.0340 0.9727
5.3587 3.8749 -2.0340 0.9727
4.9955 4.3331 -2.0340 0.9727
4.1549 5.1446 -2.0340 0.9727
3.1846 5.7956 -2.0340 0.9727
2.1150 6.2656 -2.0340 0.9727
0.9793 6.5400 -2.0340 0.9727
0.3977 6.6009 -2.0340 0.9727
-0.1870 6.6102 -2.0340 0.9727
-1.3474 6.4741 -2.0340 0.9727
5.5121 2.6569 -2.0340 0.9745
4.9585 3.5854 -2.0340 0.9745
4.6223 4.0095 -2.0340 0.9745
4.2500 4.4021 -2.0340 0.9745
3.4090 5.0814 -2.0340 0.9745
2.9468 5.3627 -2.0340 0.9745
1.4371 5.9478 -2.0340 0.9745
0.9061 6.0515 -2.0340 0.9745
0.3680 6.1079 -2.0340 0.9745
-0.1730 6.1165 -2.0340 0.9745
-0.7126 6.0773 -2.0340 0.9745
-1.2467 5.9905 -2.0340 0.9745
5.3217 2.0073 -2.0340 0.9761
5.1236 2.4696 -2.0340 0.9761
4.8854 2.9126 -2.0340 0.9761
4.6090 3.3328 -2.0340 0.9761
3.1688 4.7233 -2.0340 0.9761
1.8191 5.3890 -2.0340 0.9761
1.3359 5.5286 -2.0340 0.9761
0.3421 5.6774 -2.0340 0.9761
-0.6624 5.6489 -2.0340 0.9761
4.5589 2.7179 -2.0340 0.9775
4.0094 3.4778 -2.0340 0.9775
2.1351 4.8592 -2.0340 0.9775
1.2466 5.1591 -2.0340 0.9775
-0.1501 5.3054 -2.0340 0.9775
-0.6182 5.2714 -2.0340 0.9775
4.6499 1.7539 -2.0340 0.9787
4.4768 2.1578 -2.0340 0.9787
4.0271 2.9120 -2.0340 0.9787
3.7542 3.2564 -2.0340 0.9787
3.4518 3.5753 -2.0340 0.9787
1.9991 4.5498 -2.0340 0.9787
1.5894 4.7087 -2.0340 0.9787
1.1673 4.8307 -2.0340 0.9787
4.3667 1.6471 -2.0340 0.9798
4.0087 2.3899 -2.0340 0.9798
3.2416 3.3576 -2.0340 0.9798
2.6001 3.8756 -2.0340 0.9798
2.2475 4.0902 -2.0340 0.9798
1.8774 4.2727 -2.0340 0.9798
1.4926 4.4219 -2.0340 0.9798
0.6911 4.6155 -2.0340 0.9798
-0.9509 4.5691 -2.0339 0.9798
4.1113 1.5507 -2.0340 0.9808
3.9583 1.9079 -2.0340 0.9808
3.7743 2.2501 -2.0340 0.9808
3.0520 3.1612 -2.0340 0.9808
2.4480 3.6490 -2.0340 0.9808
1.4053 4.1633 -2.0340 0.9808
1.0320 4.2712 -2.0340 0.9808
0.6507 4.3456 -2.0340 0.9808
0.2642 4.3861 -2.0340 0.9808
-0.1242 4.3923 -2.0339 0.9808
3.8796 1.4634 -2.0340 0.9817
3.7352 1.8004 -2.0340 0.9817
3.5616 2.1233 -2.0340 0.9817
3.3601 2.4297 -2.0340 0.9817
2.8800 2.9831 -2.0340 0.9817
2.3101 3.4434 -2.0340 0.9817
1.9968 3.6340 -2.0340 0.9817
1.6680 3.7962 -2.0340 0.9817
1.3261 3.9287 -2.0340 0.9817
0.9739 4.0305 -2.0340 0.9817
0.2494 4.1390 -2.0339 0.9817
-0.1172 4.1448 -2.0339 0.9817
-0.8448 4.0595 -2.0339 0.9817
3.6684 1.3837 -2.0339 0.9825
3.1771 2.2973 -2.0340 0.9825
2.7232 2.8206 -2.0340 0.9825
2.4634 3.0502 -2.0340 0.9825
2.1843 3.2558 -2.0340 0.9825
1.8881 3.4361 -2.0340 0.9825
1.5772 3.5895 -2.0340 0.9825
1.2539 3.7147 -2.0340 0.9825
0.5806 3.8774 -2.0339 0.9825
0.2358 3.9135 -2.0339 0.9825
3.4746 1.3106 -2.0339 0.9832
3.3453 1.6124 -2.0339 0.9832
3.1898 1.9017 -2.0339 0.9832
2.3332 2.8891 -2.0340 0.9832
2.0689 3.0839 -2.0340 0.9832
1.7884 3.2546 -2.0340 0.9832
1.1877 3.5185 -2.0340 0.9832
0.5499 3.6726 -2.0339 0.9832
0.2234 3.7068 -2.0339 0.9832
-0.7566 3.6356 -2.0339 0.9832
1.7182 0.6481 -1.0602 0.9916
3.0260 1.8040 -2.0339 0.9839
2.8548 2.0643 -2.0339 0.9839
2.6612 2.3084 -2.0339 0.9839
2.4469 2.5345 -2.0339 0.9839
0.8275 3.4243 -2.0339 0.9839
0.5217 3.4840 -2.0339 0.9839
0.2119 3.5165 -2.0339 0.9839
-0.4103 3.4989 -2.0339 0.9839
-0.7178 3.4490 -2.0339 0.9839
