ply
format ascii 1.0
element vertex 193
property float32 x
property float32 y
property float32 z
property float32 I
end_header
16.5066 -4.0869 -0.8624 0.9342
13.9891 8.8906 -0.8406 0.9358
13.7771 8.7559 -1.1969 0.9366
16.1046 -3.9874 -1.5928 0.9355
13.7051 8.7101 -1.5590 0.9368
15.6175 -7.0204 -2.0340 0.9334
16.1847 -5.5904 -2.0340 0.9334
16.9238 -2.6070 -2.0340 0.9333
16.7596 3.5135 -2.0341 0.9333
15.8617 6.4533 -2.0341 0.9333
14.4525 9.1851 -2.0341 0.9333
13.5699 10.4452 -2.0341 0.9333
12.5777 11.6210 -2.0341 0.9333
9.0279 14.5513 -2.0341 0.9333
13.0930 -5.8856 -2.0339 0.9437
13.5685 -4.6867 -2.0340 0.9437
14.1880 -2.1855 -2.0340 0.9437
14.3271 -0.9033 -2.0340 0.9437
14.2579 1.6726 -2.0340 0.9437
14.0503 2.9455 -2.0341 0.9437
13.2975 5.4100 -2.0341 0.9437
10.5444 9.7423 -2.0341 0.9437
9.6275 10.6494 -2.0341 0.9437
7.5685 12.1986 -2.0341 0.9437
11.2610 -5.0621 -2.0339 0.9512
12.3223 -0.7769 -2.0340 0.9512
12.2629 1.4386 -2.0340 0.9512
11.8082 3.6078 -2.0340 0.9512
11.4368 4.6530 -2.0341 0.9512
9.0689 8.3791 -2.0341 0.9512
6.5094 10.4920 -2.0341 0.9512
9.8697 -4.4366 -2.0339 0.9569
10.5040 -2.6007 -2.0340 0.9569
10.8175 0.2911 -2.0340 0.9569
10.3493 3.1620 -2.0340 0.9569
10.0237 4.0781 -2.0340 0.9569
9.6173 4.9613 -2.0340 0.9569
8.5754 6.6008 -2.0340 0.9569
7.9484 7.3438 -2.0341 0.9569
5.7052 9.1956 -2.0341 0.9569
4.8568 9.6706 -2.0341 0.9569
8.7762 -3.9451 -2.0339 0.9614
9.0949 -3.1415 -2.0339 0.9614
9.3403 -2.3126 -2.0340 0.9614
9.6189 0.2589 -2.0340 0.9614
9.4178 1.9744 -2.0340 0.9614
5.7864 7.6885 -2.0340 0.9614
5.0730 8.1768 -2.0340 0.9614
7.8934 -3.5482 -2.0339 0.9651
8.5535 -1.3176 -2.0340 0.9651
8.6371 -0.5446 -2.0340 0.9651
8.6512 0.2328 -2.0340 0.9651
8.5955 1.0083 -2.0340 0.9651
8.0164 3.2614 -2.0340 0.9651
7.6914 3.9678 -2.0340 0.9651
7.3043 4.6421 -2.0340 0.9651
6.8581 5.2789 -2.0340 0.9651
5.8039 6.4200 -2.0340 0.9651
5.2043 6.9150 -2.0340 0.9651
3.8842 7.7340 -2.0340 0.9651
7.4251 -2.5647 -2.0339 0.9681
7.6254 -1.8880 -2.0339 0.9681
7.7640 -1.1960 -2.0340 0.9681
7.8529 0.2113 -2.0340 0.9681
7.2766 2.9604 -2.0340 0.9681
6.9816 3.6016 -2.0340 0.9681
6.6301 4.2137 -2.0340 0.9681
6.2252 4.7917 -2.0340 0.9681
5.7700 5.3311 -2.0340 0.9681
4.1416 6.6754 -2.0340 0.9681
6.9741 -1.7267 -2.0339 0.9706
7.1010 -1.0938 -2.0339 0.9706
7.1705 -0.4521 -2.0340 0.9706
7.0320 1.4742 -2.0340 0.9706
6.8713 2.0994 -2.0340 0.9706
6.6552 2.7076 -2.0340 0.9706
6.0639 3.8538 -2.0340 0.9706
5.2773 4.8758 -2.0340 0.9706
3.7879 6.1054 -2.0340 0.9706
6.0314 -2.7112 -2.0339 0.9727
6.2504 -2.1590 -2.0339 0.9727
6.4189 -1.5893 -2.0339 0.9727
6.6104 0.1779 -2.0340 0.9727
6.5678 0.7705 -2.0340 0.9727
6.4721 1.3568 -2.0340 0.9727
6.3243 1.9322 -2.0340 0.9727
6.1254 2.4921 -2.0340 0.9727
5.8770 3.0318 -2.0340 0.9727
5.2403 4.0336 -2.0340 0.9727
4.8571 4.4877 -2.0340 0.9727
4.4348 4.9055 -2.0340 0.9727
3.9766 5.2837 -2.0340 0.9727
3.4863 5.6193 -2.0340 0.9727
5.5809 -2.5087 -2.0339 0.9745
5.9395 -1.4706 -2.0339 0.9745
6.1167 0.1646 -2.0340 0.9745
6.0772 0.7129 -2.0340 0.9745
5.9887 1.2555 -2.0340 0.9745
5.6679 2.3059 -2.0340 0.9745
5.4380 2.8053 -2.0340 0.9745
4.8489 3.7323 -2.0340 0.9745
4.1035 4.5391 -2.0340 0.9745
3.2259 5.1996 -2.0340 0.9745
5.1875 -2.3319 -2.0339 0.9761
5.6764 -0.3579 -2.0339 0.9761
5.6490 0.6627 -2.0340 0.9761
5.2684 2.1434 -2.0340 0.9761
4.8004 3.0508 -2.0340 0.9761
4.5071 3.4693 -2.0340 0.9761
4.1776 3.8598 -2.0340 0.9761
3.8143 4.2192 -2.0340 0.9761
2.9986 4.8331 -2.0340 0.9761
2.5527 5.0827 -2.0340 0.9761
5.1520 -1.2756 -2.0339 0.9775
5.2457 -0.8081 -2.0339 0.9775
5.2970 -0.3340 -2.0339 0.9775
5.3056 0.1428 -2.0339 0.9775
4.7170 2.4333 -2.0340 0.9775
4.4795 2.8468 -2.0340 0.9775
3.1917 4.2408 -2.0340 0.9775
2.3821 4.7430 -2.0340 0.9775
4.8239 -1.1944 -2.0339 0.9788
4.9117 -0.7566 -2.0339 0.9788
4.9598 -0.3127 -2.0339 0.9787
4.9678 0.1337 -2.0339 0.9788
4.8639 1.0197 -2.0340 0.9787
4.7528 1.4521 -2.0340 0.9787
4.6033 1.8728 -2.0340 0.9787
3.3328 3.6865 -2.0340 0.9787
2.9884 3.9708 -2.0340 0.9787
2.2304 4.4411 -2.0340 0.9787
4.2566 -1.9135 -2.0339 0.9798
4.4112 -1.5237 -2.0339 0.9798
4.6653 0.1255 -2.0339 0.9798
4.6352 0.5437 -2.0339 0.9798
4.5677 0.9576 -2.0340 0.9798
4.3229 1.7587 -2.0340 0.9798
3.6983 2.8467 -2.0340 0.9798
3.4279 3.1671 -2.0340 0.9798
3.1298 3.4620 -2.0340 0.9798
2.8064 3.7289 -2.0340 0.9798
2.4604 3.9658 -2.0340 0.9798
2.0946 4.1706 -2.0340 0.9798
4.0077 -1.8015 -2.0339 0.9808
4.1532 -1.4346 -2.0339 0.9808
4.2653 -1.0560 -2.0339 0.9808
4.3925 0.1182 -2.0339 0.9808
4.3006 0.9016 -2.0339 0.9808
4.0701 1.6559 -2.0340 0.9808
3.7085 2.3569 -2.0340 0.9808
3.4820 2.6802 -2.0340 0.9808
3.2274 2.9819 -2.0340 0.9808
2.9468 3.2596 -2.0340 0.9808
2.6423 3.5109 -2.0340 0.9808
1.9721 3.9267 -2.0340 0.9808
4.0249 -0.9965 -2.0339 0.9817
4.0981 -0.6313 -2.0339 0.9817
4.1382 -0.2609 -2.0339 0.9817
4.1450 0.1115 -2.0339 0.9817
4.1182 0.4831 -2.0339 0.9817
4.0582 0.8508 -2.0339 0.9817
3.9655 1.2116 -2.0339 0.9817
3.4996 2.2241 -2.0340 0.9817
2.7807 3.0759 -2.0340 0.9817
2.4935 3.3130 -2.0340 0.9817
2.1861 3.5235 -2.0340 0.9817
1.8609 3.7054 -2.0340 0.9817
3.5759 -1.6074 -2.0339 0.9825
3.8057 -0.9423 -2.0339 0.9825
2.1079 0.4419 -1.1173 0.9903
3.7495 1.1456 -2.0339 0.9825
3.6316 1.4775 -2.0339 0.9825
3.3089 2.1029 -2.0340 0.9825
3.1068 2.3914 -2.0340 0.9825
2.3576 3.1326 -2.0340 0.9825
1.7596 3.5036 -2.0340 0.9825
3.3871 -1.5226 -2.0339 0.9832
1.9332 -0.6678 -1.1202 0.9907
1.8574 -0.4599 -1.0480 0.9913
1.8491 -0.2849 -1.0247 0.9915
1.8766 0.5733 -1.0747 0.9911
2.9428 2.2652 -2.0340 0.9832
2.2331 2.9671 -2.0340 0.9832
1.6667 3.3186 -2.0340 0.9832
1.7266 -0.5964 -1.0546 0.9916
1.7232 -0.1087 -0.9969 0.9921
1.7245 0.0464 -0.9960 0.9921
1.7175 0.2015 -0.9984 0.9920
1.7554 0.7142 -1.0941 0.9913
2.9733 1.8896 -2.0339 0.9839
2.7917 2.1488 -2.0339 0.9839
2.3625 2.6133 -2.0340 0.9839
1.8573 2.9936 -2.0339 0.9839
