ply
format ascii 1.0
element vertex 173
property float32 x
property float32 y
property float32 z
property float32 I
end_header
2.9621 -6.0765 -0.6490 0.9732
-4.5764 -16.4975 -2.0337 0.9334
-1.5312 -17.0520 -2.0337 0.9334
0.0165 -17.1208 -2.0337 0.9334
3.0990 -16.8382 -2.0337 0.9334
1.8061 -6.4623 -0.7970 0.9733
2.3157 -6.0957 -0.7746 0.9741
2.8731 -5.8940 -0.7789 0.9739
8.8630 -14.6493 -2.0338 0.9334
12.4680 -11.7354 -2.0339 0.9334
-6.2644 -12.9140 -2.0337 0.9437
-5.0713 -13.4275 -2.0337 0.9437
-3.8368 -13.8310 -2.0337 0.9437
-1.2837 -14.2959 -2.0337 0.9437
0.0139 -14.3536 -2.0337 0.9437
2.5981 -14.1166 -2.0338 0.9437
1.7152 -6.1371 -0.9029 0.9746
2.3440 -6.1702 -0.9352 0.9737
7.4304 -12.2814 -2.0338 0.9437
8.5103 -11.5595 -2.0338 0.9437
10.4527 -9.8384 -2.0339 0.9437
11.2994 -8.8533 -2.0339 0.9437
-6.3700 -10.5748 -2.0337 0.9512
-5.3879 -11.1073 -2.0337 0.9512
-2.2111 -12.1457 -2.0337 0.9512
0.0120 -12.3454 -2.0338 0.9512
2.2346 -12.1416 -2.0338 0.9512
2.2698 -5.9749 -1.0529 0.9744
6.3908 -10.5630 -2.0338 0.9512
7.3195 -9.9421 -2.0339 0.9512
8.1884 -9.2398 -2.0339 0.9512
8.9902 -8.4618 -2.0339 0.9512
-3.8230 -10.1222 -2.0338 0.9569
-1.9379 -10.6452 -2.0338 0.9569
-0.9677 -10.7768 -2.0338 0.9569
1.9586 -10.6416 -2.0338 0.9569
2.2590 -5.9465 -1.1956 0.9744
2.7593 -5.6605 -1.1836 0.9747
7.8795 -7.4164 -2.0339 0.9569
-4.9646 -8.2416 -2.0338 0.9614
-4.1992 -8.6567 -2.0338 0.9614
-2.5719 -9.2713 -2.0338 0.9614
-1.7233 -9.4659 -2.0338 0.9614
0.0093 -9.6215 -2.0338 0.9614
1.7416 -9.4627 -2.0338 0.9614
1.6653 -5.9584 -1.3077 0.9750
2.7501 -5.6415 -1.3266 0.9747
3.6219 -5.9865 -1.4790 0.9718
5.7045 -7.7485 -2.0339 0.9614
6.3816 -7.2011 -2.0339 0.9614
7.5740 -5.9344 -2.0339 0.9614
-4.4652 -7.4126 -2.0338 0.9651
-3.0575 -8.0954 -2.0338 0.9651
-2.3132 -8.3387 -2.0338 0.9651
-1.5499 -8.5137 -2.0338 0.9651
-0.7740 -8.6190 -2.0338 0.9651
0.0083 -8.6537 -2.0338 0.9651
1.5664 -8.5108 -2.0338 0.9651
2.2054 -5.8053 -1.4595 0.9748
2.7528 -5.6472 -1.4765 0.9745
4.4796 -7.4042 -2.0339 0.9651
5.7397 -6.4767 -2.0339 0.9651
6.3016 -5.9313 -2.0339 0.9651
-4.0532 -6.7285 -2.0338 0.9681
-2.0997 -7.5692 -2.0338 0.9681
-0.7025 -7.8236 -2.0338 0.9681
1.4218 -7.7254 -2.0338 0.9681
1.6401 -5.8683 -1.5776 0.9751
4.0662 -6.7209 -2.0339 0.9681
5.2100 -5.8790 -2.0339 0.9681
5.7201 -5.3840 -2.0339 0.9681
6.1834 -4.8449 -2.0339 0.9681
-2.5384 -6.7209 -2.0338 0.9706
-1.2868 -7.0681 -2.0338 0.9706
-0.6426 -7.1555 -2.0338 0.9706
0.6563 -7.1543 -2.0338 0.9706
2.4557 -6.4642 -1.9576 0.9717
3.7190 -6.1470 -2.0339 0.9706
4.2595 -5.7856 -2.0339 0.9706
4.7651 -5.3769 -2.0339 0.9706
5.2316 -4.9242 -2.0339 0.9706
-3.4120 -5.6641 -2.0338 0.9727
-1.1843 -6.5055 -2.0338 0.9727
-0.5914 -6.5859 -2.0338 0.9727
0.6041 -6.5848 -2.0338 0.9727
1.1969 -6.5032 -2.0338 0.9727
1.6963 -6.0695 -1.9384 0.9740
2.8975 -5.9439 -2.0339 0.9727
3.4229 -5.6577 -2.0339 0.9727
4.8152 -4.5322 -2.0339 0.9727
5.2052 -4.0784 -2.0339 0.9727
-2.6704 -5.5050 -2.0338 0.9745
-2.1618 -5.7239 -2.0338 0.9745
-1.6355 -5.8959 -2.0338 0.9745
-1.0959 -6.0196 -2.0338 0.9745
0.0059 -6.1185 -2.0338 0.9745
3.6276 -4.9273 -2.0339 0.9745
4.4555 -4.1937 -2.0339 0.9745
-2.9346 -4.8717 -2.0338 0.9761
-1.5203 -5.4804 -2.0338 0.9761
-0.5087 -5.6646 -2.0338 0.9761
3.7722 -4.2566 -2.0339 0.9761
4.4770 -3.5078 -2.0339 0.9761
-2.3163 -4.7751 -2.0338 0.9775
-1.8752 -4.9649 -2.0338 0.9775
-0.4747 -5.2860 -2.0338 0.9775
0.4849 -5.2851 -2.0338 0.9775
2.3255 -4.7707 -2.0339 0.9775
2.7473 -4.5409 -2.0339 0.9775
3.1466 -4.2740 -2.0339 0.9775
4.1778 -3.2734 -2.0339 0.9775
-2.5641 -4.2567 -2.0338 0.9788
-2.1688 -4.4711 -2.0338 0.9788
-1.3284 -4.7886 -2.0338 0.9788
1.3376 -4.7860 -2.0339 0.9788
1.7648 -4.6455 -2.0339 0.9788
2.1775 -4.4670 -2.0339 0.9788
2.9462 -4.0019 -2.0339 0.9788
3.2959 -3.7192 -2.0339 0.9788
-2.0368 -4.1988 -2.0338 0.9798
-1.6489 -4.3658 -2.0338 0.9798
-1.2475 -4.4969 -2.0338 0.9798
-0.8359 -4.5913 -2.0338 0.9798
-0.4174 -4.6480 -2.0338 0.9798
0.0045 -4.6668 -2.0338 0.9798
0.8447 -4.5897 -2.0339 0.9798
1.2561 -4.4946 -2.0339 0.9798
2.7668 -3.7582 -2.0339 0.9798
-1.9177 -3.9533 -2.0338 0.9808
-1.1745 -4.2340 -2.0338 0.9808
-0.3930 -4.3763 -2.0338 0.9808
0.4014 -4.3755 -2.0339 0.9808
0.7953 -4.3213 -2.0339 0.9808
1.9253 -3.9496 -2.0339 0.9808
3.1996 -3.0116 -2.0339 0.9808
3.4588 -2.7100 -2.0339 0.9808
-1.4650 -3.8788 -2.0338 0.9817
-0.7427 -4.0793 -2.0338 0.9817
1.4724 -3.8761 -2.0339 0.9817
1.8168 -3.7271 -2.0339 0.9817
2.1463 -3.5476 -2.0339 0.9817
2.4582 -3.3391 -2.0339 0.9817
3.2639 -2.5573 -2.0339 0.9817
-2.0229 -3.3582 -2.0338 0.9825
-1.3852 -3.6676 -2.0338 0.9825
-0.7022 -3.8571 -2.0339 0.9825
-0.3507 -3.9048 -2.0339 0.9825
0.7096 -3.8557 -2.0339 0.9825
1.3923 -3.6650 -2.0339 0.9825
2.0295 -3.3544 -2.0339 0.9825
2.8549 -2.6871 -2.0339 0.9825
3.0861 -2.4180 -2.0339 0.9825
-1.9161 -3.1809 -2.0338 0.9832
-1.6207 -3.3411 -2.0338 0.9832
-0.9927 -3.5783 -2.0339 0.9832
-0.3321 -3.6986 -2.0339 0.9832
0.0036 -3.7134 -2.0339 0.9832
0.6722 -3.6521 -2.0339 0.9832
0.9995 -3.5764 -2.0339 0.9832
1.3188 -3.4714 -2.0339 0.9832
1.6272 -3.3380 -2.0339 0.9832
2.2016 -2.9905 -2.0339 0.9832
2.9231 -2.2903 -2.0339 0.9832
-1.5375 -3.1696 -2.0339 0.9839
-1.2447 -3.2955 -2.0339 0.9839
-0.6310 -3.4658 -2.0339 0.9839
0.0034 -3.5228 -2.0339 0.9839
0.3218 -3.5080 -2.0339 0.9839
0.6377 -3.4646 -2.0339 0.9839
0.9482 -3.3928 -2.0339 0.9839
1.8236 -3.0141 -2.0339 0.9839
2.0886 -2.8369 -2.0339 0.9839
2.7730 -2.1727 -2.0339 0.9839
