ply
format ascii 1.0
element vertex 195
property float32 x
property float32 y
property float32 z
property float32 I
end_header
2.6089 18.8540 3.3561 0.9256
2.5348 18.3183 2.8330 0.9279
2.5219 18.2259 2.3960 0.9285
2.4235 17.5146 1.8987 0.9313
2.5698 18.5714 1.5871 0.9275
2.3982 17.3314 1.0850 0.9323
2.5193 18.2066 0.7247 0.9291
2.4668 17.8278 0.3040 0.9305
4.1677 18.0965 -0.1046 0.9284
2.6441 19.1084 -0.1086 0.9257
14.4839 8.7759 -1.2417 0.9343
13.1105 9.6317 -1.5618 0.9367
17.1225 0.1991 -2.0340 0.9333
17.0374 1.7177 -2.0341 0.9333
15.9835 6.1451 -2.0341 0.9333
15.3752 7.5393 -2.0341 0.9333
14.6456 8.8739 -2.0341 0.9333
11.7909 12.4185 -2.0341 0.9333
10.6424 13.4159 -2.0341 0.9333
6.7325 15.7454 -2.0341 0.9333
5.3087 16.2806 -2.0341 0.9333
3.8431 16.6874 -2.0341 0.9333
2.3471 16.9626 -2.0341 0.9333
13.8039 3.9423 -2.0341 0.9437
12.2780 7.4394 -2.0341 0.9437
9.8848 10.4109 -2.0341 0.9437
7.8887 11.9944 -2.0341 0.9437
6.7933 12.6471 -2.0341 0.9437
1.9677 14.2204 -2.0341 0.9437
12.3460 0.1436 -2.0340 0.9512
12.2846 1.2385 -2.0340 0.9512
11.0861 5.4361 -2.0341 0.9512
9.2626 8.1644 -2.0341 0.9512
8.5016 8.9541 -2.0341 0.9512
7.6735 9.6732 -2.0341 0.9512
5.8427 10.8774 -2.0341 0.9512
4.8544 11.3529 -2.0341 0.9512
3.8278 11.7389 -2.0341 0.9512
10.6281 2.0367 -2.0340 0.9569
9.7163 4.7644 -2.0340 0.9569
9.2552 5.6078 -2.0340 0.9569
8.1182 7.1556 -2.0341 0.9569
7.4512 7.8480 -2.0341 0.9569
5.1208 9.5334 -2.0341 0.9569
4.2546 9.9502 -2.0340 0.9569
2.4287 10.5456 -2.0340 0.9569
1.4833 10.7195 -2.0340 0.9569
9.5739 0.9653 -2.0340 0.9614
8.9816 3.4531 -2.0340 0.9614
8.6398 4.2365 -2.0340 0.9614
8.2298 4.9865 -2.0340 0.9614
7.7548 5.6971 -2.0340 0.9614
7.2187 6.3628 -2.0340 0.9614
6.6256 6.9783 -2.0340 0.9614
4.5534 8.4771 -2.0340 0.9614
3.7832 8.8477 -2.0340 0.9614
2.9831 9.1485 -2.0340 0.9614
2.1596 9.3771 -2.0340 0.9614
1.3189 9.5317 -2.0340 0.9614
8.6538 0.1006 -2.0340 0.9651
8.6108 0.8681 -2.0340 0.9651
8.3218 2.3766 -2.0340 0.9651
7.7706 3.8103 -2.0340 0.9651
5.9591 6.2762 -2.0340 0.9651
4.7557 7.2308 -2.0340 0.9651
4.0953 7.6243 -2.0340 0.9651
3.4026 7.9576 -2.0340 0.9651
2.6830 8.2282 -2.0340 0.9651
1.1862 8.5728 -2.0340 0.9651
7.8552 0.0913 -2.0340 0.9681
7.8161 0.7880 -2.0340 0.9681
7.7153 1.4785 -2.0340 0.9681
7.5537 2.1573 -2.0340 0.9681
7.3325 2.8191 -2.0340 0.9681
7.0534 3.4587 -2.0340 0.9681
6.7188 4.0709 -2.0340 0.9681
4.3168 6.5635 -2.0340 0.9681
2.4354 7.4688 -2.0340 0.9681
1.7630 7.6554 -2.0340 0.9681
1.0768 7.7816 -2.0340 0.9681
7.0564 1.3522 -2.0340 0.9706
6.1449 3.7233 -2.0340 0.9706
5.3900 4.7509 -2.0340 0.9706
4.9471 5.2104 -2.0340 0.9706
3.9481 6.0029 -2.0340 0.9706
3.3999 6.3296 -2.0340 0.9706
2.8248 6.6063 -2.0340 0.9706
2.2274 6.8309 -2.0340 0.9706
1.6125 7.0016 -2.0340 0.9706
0.9848 7.1171 -2.0340 0.9706
6.6124 0.0769 -2.0340 0.9727
6.5795 0.6633 -2.0340 0.9727
6.4946 1.2446 -2.0340 0.9727
6.3586 1.8160 -2.0340 0.9727
5.9375 2.9114 -2.0340 0.9727
5.6557 3.4268 -2.0340 0.9727
4.9609 4.3727 -2.0340 0.9727
4.5533 4.7956 -2.0340 0.9727
4.1098 5.1808 -2.0340 0.9727
3.1292 5.8257 -2.0340 0.9727
2.5999 6.0804 -2.0340 0.9727
2.0501 6.2871 -2.0340 0.9727
6.0880 0.6138 -2.0340 0.9745
5.8837 1.6803 -2.0340 0.9745
5.7114 2.1958 -2.0340 0.9745
5.4940 2.6940 -2.0340 0.9745
4.9313 3.6228 -2.0340 0.9745
4.5904 4.0461 -2.0340 0.9745
3.8029 4.7938 -2.0340 0.9745
2.8955 5.3905 -2.0340 0.9745
2.4057 5.6262 -2.0340 0.9745
1.8970 5.8175 -2.0340 0.9745
1.3732 5.9629 -2.0340 0.9745
0.8387 6.0612 -2.0340 0.9745
5.6873 0.0661 -2.0340 0.9761
5.6590 0.5705 -2.0340 0.9761
5.4690 1.5619 -2.0340 0.9761
3.9162 4.1247 -2.0340 0.9761
3.5348 4.4560 -2.0340 0.9761
2.2362 5.2297 -2.0340 0.9761
1.7633 5.4075 -2.0340 0.9761
5.2808 0.5324 -2.0340 0.9775
5.2127 0.9989 -2.0340 0.9775
5.1036 1.4575 -2.0340 0.9775
4.5394 2.7504 -2.0340 0.9775
3.6545 3.8491 -2.0340 0.9775
3.2986 4.1582 -2.0340 0.9775
2.9166 4.4344 -2.0340 0.9775
2.0867 4.8802 -2.0340 0.9775
1.6454 5.0461 -2.0340 0.9775
1.1911 5.1722 -2.0340 0.9775
4.7786 1.3647 -2.0340 0.9787
4.6387 1.7834 -2.0340 0.9787
3.4219 3.6040 -2.0340 0.9787
2.3516 4.3781 -2.0340 0.9787
1.5406 4.7248 -2.0340 0.9787
0.6812 4.9228 -2.0340 0.9787
4.5836 0.8783 -2.0339 0.9798
3.2135 3.3845 -2.0340 0.9798
2.9004 3.6563 -2.0340 0.9798
2.2084 4.1114 -2.0340 0.9798
1.8349 4.2912 -2.0340 0.9798
4.3938 0.0511 -2.0339 0.9808
4.3155 0.8270 -2.0339 0.9808
4.2252 1.2067 -2.0340 0.9808
4.1014 1.5769 -2.0340 0.9808
3.9453 1.9346 -2.0340 0.9808
3.5412 2.6016 -2.0340 0.9808
3.2964 2.9055 -2.0340 0.9808
3.0255 3.1866 -2.0340 0.9808
2.7308 3.4425 -2.0340 0.9808
2.4146 3.6712 -2.0340 0.9808
2.0793 3.8710 -2.0340 0.9808
1.7276 4.0402 -2.0340 0.9808
0.9862 4.2820 -2.0340 0.9808
0.6023 4.3526 -2.0340 0.9808
4.1462 0.0482 -2.0339 0.9817
4.1256 0.4159 -2.0339 0.9817
4.0724 0.7804 -2.0339 0.9817
3.9871 1.1387 -2.0339 0.9817
3.8703 1.4880 -2.0340 0.9817
3.7230 1.8256 -2.0340 0.9817
3.5463 2.1487 -2.0340 0.9817
3.1106 2.7418 -2.0340 0.9817
2.5770 3.2485 -2.0340 0.9817
1.6302 3.8126 -2.0340 0.9817
2.1054 0.4034 -1.1121 0.9904
3.7699 1.0766 -2.0339 0.9825
3.5202 1.7261 -2.0340 0.9825
3.3532 2.0317 -2.0340 0.9825
3.1596 2.3212 -2.0340 0.9825
2.9412 2.5925 -2.0340 0.9825
2.6996 2.8432 -2.0340 0.9825
2.1544 3.2757 -2.0340 0.9825
1.8553 3.4539 -2.0340 0.9825
1.2154 3.7275 -2.0340 0.9825
0.8799 3.8206 -2.0340 0.9825
0.5374 3.8836 -2.0339 0.9825
1.8512 0.0215 -1.0140 0.9916
1.8491 0.1864 -1.0179 0.9916
1.8552 0.3555 -1.0346 0.9914
1.8690 0.5337 -1.0646 0.9912
3.4662 1.3327 -2.0339 0.9832
2.5570 2.6931 -2.0340 0.9832
2.3079 2.9093 -2.0340 0.9832
1.7573 3.2715 -2.0340 0.9832
1.4600 3.4145 -2.0340 0.9832
1.1513 3.5306 -2.0339 0.9832
0.5090 3.6785 -2.0339 0.9832
1.7199 0.1734 -0.9980 0.9920
1.7138 0.3284 -1.0075 0.9920
1.7188 0.6608 -1.0632 0.9915
3.0130 1.8256 -2.0339 0.9839
2.6428 2.3295 -2.0339 0.9839
0.4829 3.4896 -2.0339 0.9839
