ply
format ascii 1.0
element vertex 176
property float32 x
property float32 y
property float32 z
property float32 I
end_header
-11.1830 13.4977 2.6853 0.9315
-12.3838 12.5022 2.6958 0.9313
-10.9954 13.2711 2.2443 0.9328
-12.1981 12.3146 1.8613 0.9326
-11.9836 12.0980 1.4415 0.9339
-12.4736 15.0554 0.7709 0.9247
-1.9427 7.6685 -0.5800 0.9688
-16.3121 5.8874 -1.2716 0.9328
-1.2210 7.5973 -0.9140 0.9695
-1.8623 7.3511 -0.9008 0.9699
-7.0700 15.5956 -2.0340 0.9334
-9.7127 14.1019 -2.0340 0.9334
-12.0499 12.1650 -2.0339 0.9334
-13.0805 11.0489 -2.0339 0.9334
-16.1050 5.8126 -2.0338 0.9334
-16.8779 2.8774 -2.0338 0.9334
-17.0664 1.3700 -2.0338 0.9334
-17.1205 -0.1481 -2.0338 0.9334
-5.9271 13.0746 -2.0340 0.9437
-9.1584 11.0539 -2.0339 0.9437
-11.7440 8.2543 -2.0339 0.9437
-13.0168 6.0507 -2.0339 0.9437
-13.8804 3.6571 -2.0338 0.9437
-14.3079 1.1486 -2.0338 0.9437
-14.3532 -0.1242 -2.0338 0.9437
-14.2856 -1.3960 -2.0338 0.9437
-1.1738 7.3035 -1.2186 0.9705
-5.0978 11.2451 -2.0340 0.9512
-7.0032 10.1681 -2.0340 0.9512
-7.8770 9.5072 -2.0339 0.9512
-9.4318 7.9668 -2.0339 0.9512
-10.6902 6.1761 -2.0339 0.9512
-11.1955 5.2041 -2.0339 0.9512
-11.9384 3.1454 -2.0338 0.9512
-12.3060 0.9879 -2.0338 0.9512
-12.2869 -1.2007 -2.0338 0.9512
-1.1520 7.1679 -1.3646 0.9709
-1.7909 7.0693 -1.3707 0.9708
-4.4679 9.8558 -2.0340 0.9569
-5.3239 9.4209 -2.0340 0.9569
-6.1380 8.9119 -2.0339 0.9569
-10.6666 1.8185 -2.0338 0.9569
-10.7857 0.8658 -2.0338 0.9569
-10.8200 -0.0936 -2.0338 0.9569
-1.7994 7.1029 -1.5488 0.9705
-3.9729 8.7638 -2.0340 0.9614
-4.7341 8.3771 -2.0340 0.9614
-5.4580 7.9245 -2.0339 0.9614
-6.1389 7.4095 -2.0339 0.9614
-7.3507 6.2089 -2.0339 0.9614
-7.8721 5.5329 -2.0339 0.9614
-8.3314 4.8133 -2.0339 0.9614
-9.0504 3.2665 -2.0339 0.9614
-9.3043 2.4514 -2.0338 0.9614
-9.4848 1.6170 -2.0338 0.9614
-9.5908 0.7699 -2.0338 0.9614
-1.8406 7.2654 -1.7615 0.9697
-3.5732 7.8822 -2.0340 0.9651
-6.0902 6.1484 -2.0339 0.9651
-6.6112 5.5843 -2.0339 0.9651
-7.4933 4.3291 -2.0339 0.9651
-7.8475 3.6478 -2.0339 0.9651
-8.3682 2.2047 -2.0339 0.9651
-8.6126 -0.8416 -2.0338 0.9651
-1.2465 7.7561 -2.0340 0.9681
-2.5965 7.4141 -2.0340 0.9681
-3.2435 7.1547 -2.0340 0.9681
-4.4558 6.4695 -2.0339 0.9681
-5.5282 5.5810 -2.0339 0.9681
-6.0011 5.0690 -2.0339 0.9681
-7.1233 3.3112 -2.0339 0.9681
-7.7434 1.3201 -2.0338 0.9681
-7.8299 0.6285 -2.0338 0.9681
-1.1401 7.0938 -2.0340 0.9706
-1.7644 6.9647 -2.0340 0.9706
-2.3748 6.7810 -2.0340 0.9706
-4.0754 5.9170 -2.0339 0.9706
-5.8779 4.1313 -2.0339 0.9706
-6.9473 1.8304 -2.0339 0.9706
-2.1857 6.2411 -2.0340 0.9727
-2.7303 6.0228 -2.0339 0.9727
-5.4100 3.8024 -2.0339 0.9727
-5.9964 2.7874 -2.0339 0.9727
-6.2198 2.2449 -2.0339 0.9727
-6.3943 1.6847 -2.0339 0.9727
-6.5184 1.1113 -2.0339 0.9727
-6.6122 -0.0572 -2.0338 0.9727
-6.5811 -0.6431 -2.0338 0.9727
-0.9710 6.0413 -2.0340 0.9745
-3.0104 5.3271 -2.0339 0.9745
-3.4707 5.0392 -2.0339 0.9745
-3.9037 4.7117 -2.0339 0.9745
-4.3060 4.3471 -2.0339 0.9745
-5.2980 3.0608 -2.0339 0.9745
-5.7553 2.0772 -2.0339 0.9745
-5.9167 1.5589 -2.0339 0.9745
-6.0895 -0.5951 -2.0338 0.9745
-1.3967 5.5135 -2.0340 0.9761
-2.3484 5.1802 -2.0339 0.9761
-2.7982 4.9516 -2.0339 0.9761
-3.2261 4.6841 -2.0339 0.9761
-3.6286 4.3797 -2.0339 0.9761
-4.9247 2.8451 -2.0339 0.9761
-5.1575 2.3974 -2.0339 0.9761
-5.6871 -0.0492 -2.0339 0.9761
-0.8422 5.2403 -2.0340 0.9775
-1.3034 5.1450 -2.0339 0.9775
-1.7543 5.0092 -2.0339 0.9775
-2.6112 4.6207 -2.0339 0.9775
-3.0105 4.3710 -2.0339 0.9775
-3.7350 3.7707 -2.0339 0.9775
-4.0546 3.4248 -2.0339 0.9775
-4.3422 3.0519 -2.0339 0.9775
-4.9921 1.8018 -2.0339 0.9775
-5.1322 1.3522 -2.0339 0.9775
-5.2318 0.8919 -2.0339 0.9775
-5.3071 -0.0459 -2.0339 0.9775
-0.7886 4.9066 -2.0339 0.9788
-2.0519 4.5262 -2.0339 0.9788
-2.4450 4.3265 -2.0339 0.9788
-2.8189 4.0927 -2.0339 0.9788
-3.1705 3.8268 -2.0339 0.9788
-4.5064 2.0947 -2.0339 0.9788
-4.6743 1.6871 -2.0339 0.9788
-4.8054 1.2661 -2.0339 0.9788
-2.1186 0.1700 -0.8699 0.9909
-0.7406 4.6078 -2.0339 0.9798
-1.9269 4.2505 -2.0339 0.9798
-2.6472 3.8435 -2.0339 0.9798
-2.9775 3.5937 -2.0339 0.9798
-3.2843 3.3156 -2.0339 0.9798
-3.5652 3.0114 -2.0339 0.9798
-3.8181 2.6836 -2.0339 0.9798
-4.2320 1.9672 -2.0339 0.9798
-1.9051 0.3247 -0.8423 0.9916
-1.9145 0.1537 -0.8370 0.9917
-1.9184 -0.0166 -0.8361 0.9917
-1.9112 -0.1868 -0.8369 0.9917
-1.0791 4.2595 -2.0339 0.9808
-2.4924 3.6187 -2.0339 0.9808
-2.8033 3.3836 -2.0339 0.9808
-3.0922 3.1217 -2.0339 0.9808
-3.8046 2.1980 -2.0339 0.9808
-1.8150 0.6551 -0.8932 0.9915
-1.5662 0.4126 -0.7497 0.9929
-1.6025 0.1286 -0.7442 0.9929
-1.3705 3.9134 -2.0339 0.9817
-2.9180 2.9458 -2.0339 0.9817
-3.5902 2.0742 -2.0339 0.9817
-1.3112 0.3454 -0.6651 0.9940
-1.3431 0.2289 -0.6683 0.9939
-1.3382 -0.0116 -0.6564 0.9941
-0.9628 3.8005 -2.0339 0.9825
-1.6187 3.5708 -2.0339 0.9825
-3.3947 1.9612 -2.0339 0.9825
-1.1323 0.4087 -0.6245 0.9946
-1.1621 0.3062 -0.6235 0.9946
-1.1892 0.2027 -0.6258 0.9946
-0.9120 3.5998 -2.0339 0.9832
-1.8270 3.2330 -2.0339 0.9832
-2.6134 2.6383 -2.0339 0.9832
-2.8369 2.3963 -2.0339 0.9832
-3.2155 1.8577 -2.0339 0.9832
-1.0676 0.1820 -0.5932 0.9951
-1.0807 0.0867 -0.5938 0.9951
-1.0770 -0.0094 -0.5899 0.9951
-1.0794 -0.1055 -0.5940 0.9951
-1.1644 3.3248 -2.0339 0.9839
-1.4545 3.2085 -2.0339 0.9839
-2.2475 2.7127 -2.0339 0.9839
-2.4791 2.5028 -2.0339 0.9839
-2.6912 2.2732 -2.0339 0.9839
-2.8821 2.0257 -2.0339 0.9839
-1.1886 0.6867 -0.7925 0.9937
-0.9217 0.4284 -0.5868 0.9953
-0.9892 0.0794 -0.5729 0.9954
