ply
format ascii 1.0
element vertex 163
property float32 x
property float32 y
property float32 z
property float32 I
end_header
-4.5904 -16.4937 -2.0337 0.9334
-3.1230 -16.8334 -2.0337 0.9334
-1.6316 -17.0428 -2.0337 0.9334
-0.1275 -17.1203 -2.0337 0.9334
1.3775 -17.0654 -2.0337 0.9334
2.8719 -16.8784 -2.0337 0.9334
2.3245 -6.4776 -0.8175 0.9727
2.7467 -5.9493 -0.7784 0.9740
8.5152 -14.8540 -2.0338 0.9334
12.0964 -12.1179 -2.0339 0.9334
13.1147 -11.0081 -2.0339 0.9334
-5.0487 -13.4361 -2.0337 0.9437
-2.6182 -14.1126 -2.0337 0.9437
-0.1069 -14.3531 -2.0337 0.9437
1.1549 -14.3071 -2.0338 0.9437
2.4077 -14.1503 -2.0338 0.9437
1.7096 -6.5176 -0.9547 0.9731
7.1388 -12.4530 -2.0338 0.9437
9.2090 -11.0110 -2.0339 0.9437
10.1411 -10.1592 -2.0339 0.9437
10.9948 -9.2288 -2.0339 0.9437
11.7634 -8.2269 -2.0339 0.9437
-1.1765 -12.2891 -2.0338 0.9512
0.9933 -12.3054 -2.0338 0.9512
2.0709 -12.1705 -2.0338 0.9512
1.6546 -6.3079 -1.0743 0.9739
2.1811 -6.0781 -1.0638 0.9742
2.6673 -5.7774 -1.0483 0.9745
6.1400 -10.7107 -2.0338 0.9512
7.0575 -10.1298 -2.0338 0.9512
7.9205 -9.4704 -2.0339 0.9512
9.4564 -7.9375 -2.0339 0.9512
-0.0806 -10.8199 -2.0338 0.9569
0.8706 -10.7852 -2.0338 0.9569
1.8150 -10.6670 -2.0338 0.9569
1.5938 -6.0761 -1.1807 0.9748
2.6634 -5.7690 -1.1943 0.9745
6.1857 -8.8783 -2.0339 0.9569
7.6446 -7.6582 -2.0339 0.9569
-0.9170 -9.5777 -2.0338 0.9614
1.6237 -6.1899 -1.3527 0.9742
2.0748 -5.7819 -1.2985 0.9752
2.6314 -5.6997 -1.3270 0.9747
5.5004 -7.8947 -2.0339 0.9614
7.3699 -6.1861 -2.0339 0.9614
-3.7439 -7.8017 -2.0338 0.9651
-3.0438 -8.1005 -2.0338 0.9651
-0.8247 -8.6143 -2.0338 0.9651
0.6962 -8.6256 -2.0338 0.9651
1.4516 -8.5311 -2.0338 0.9651
2.0488 -5.7096 -1.4257 0.9754
4.9470 -7.1005 -2.0339 0.9651
5.5519 -6.6383 -2.0339 0.9651
6.1138 -6.1247 -2.0339 0.9651
6.6285 -5.5638 -2.0339 0.9651
-3.3984 -7.0818 -2.0338 0.9681
-0.7486 -7.8193 -2.0338 0.9681
-0.0586 -7.8549 -2.0338 0.9681
0.6320 -7.8296 -2.0338 0.9681
1.3177 -7.7438 -2.0338 0.9681
2.0616 -5.7452 -1.5804 0.9751
3.3693 -5.8775 -1.7541 0.9724
5.5496 -5.5595 -2.0339 0.9681
6.0167 -5.0503 -2.0339 0.9681
6.4373 -4.5020 -2.0339 0.9681
-1.9262 -6.9212 -2.0338 0.9706
-0.0536 -7.1841 -2.0338 0.9706
0.5780 -7.1610 -2.0338 0.9706
1.5822 -6.0317 -1.7653 0.9744
2.1542 -6.0033 -1.8056 0.9738
2.7182 -5.8876 -1.8358 0.9734
3.5730 -6.2329 -2.0339 0.9706
5.0757 -5.0847 -2.0339 0.9706
-2.8609 -5.9614 -2.0338 0.9727
-1.7729 -6.3702 -2.0338 0.9727
-0.6302 -6.5823 -2.0338 0.9727
0.5320 -6.5910 -2.0338 0.9727
1.1092 -6.5187 -2.0338 0.9727
2.7717 -6.0035 -2.0339 0.9727
3.2887 -5.7367 -2.0339 0.9727
3.7800 -5.4256 -2.0339 0.9727
5.0648 -4.2513 -2.0339 0.9727
5.4189 -3.7898 -2.0339 0.9727
-2.6472 -5.5162 -2.0338 0.9745
-2.1522 -5.7275 -2.0338 0.9745
-1.6405 -5.8945 -2.0338 0.9745
-0.0456 -6.1184 -2.0338 0.9745
2.0666 -5.7590 -2.0339 0.9745
2.5647 -5.5552 -2.0339 0.9745
4.3227 -4.3304 -2.0339 0.9745
-2.0005 -5.3239 -2.0338 0.9761
0.9540 -5.6068 -2.0338 0.9761
1.4430 -5.5013 -2.0339 0.9761
2.3840 -5.1637 -2.0339 0.9761
2.8286 -4.9342 -2.0339 0.9761
3.6488 -4.3628 -2.0339 0.9761
4.3563 -3.6566 -2.0339 0.9761
-2.2962 -4.7848 -2.0338 0.9775
-1.4230 -5.1129 -2.0338 0.9775
-0.9681 -5.2182 -2.0338 0.9775
1.3466 -5.1336 -2.0339 0.9775
2.6395 -4.6045 -2.0339 0.9775
3.0339 -4.3547 -2.0339 0.9775
4.0652 -3.4122 -2.0339 0.9775
-1.7480 -4.6518 -2.0338 0.9788
-0.4736 -4.9468 -2.0338 0.9788
0.3998 -4.9533 -2.0338 0.9788
0.8336 -4.8990 -2.0339 0.9788
1.6784 -4.6774 -2.0339 0.9788
2.0830 -4.5118 -2.0339 0.9788
2.4715 -4.3113 -2.0339 0.9788
2.8408 -4.0774 -2.0339 0.9788
3.1882 -3.8120 -2.0339 0.9788
3.5108 -3.5171 -2.0339 0.9788
3.8064 -3.1950 -2.0339 0.9788
-2.0191 -4.2073 -2.0338 0.9798
-1.6415 -4.3685 -2.0338 0.9798
-1.2513 -4.4959 -2.0338 0.9798
-0.8513 -4.5885 -2.0338 0.9798
-0.0348 -4.6666 -2.0338 0.9798
1.1841 -4.5141 -2.0339 0.9798
1.9562 -4.2370 -2.0339 0.9798
2.3210 -4.0487 -2.0339 0.9798
2.6678 -3.8291 -2.0339 0.9798
2.9940 -3.5799 -2.0339 0.9798
0.3535 -4.3796 -2.0339 0.9808
1.8418 -3.9893 -2.0339 0.9808
2.5118 -3.6052 -2.0339 0.9808
3.1042 -3.1098 -2.0339 0.9808
3.3655 -2.8249 -2.0339 0.9808
3.6008 -2.5182 -2.0339 0.9808
-1.4584 -3.8813 -2.0338 0.9817
-1.1117 -3.9945 -2.0338 0.9817
-0.0309 -4.1462 -2.0339 0.9817
1.0520 -4.0106 -2.0339 0.9817
1.4004 -3.9027 -2.0339 0.9817
2.0621 -3.5972 -2.0339 0.9817
2.9293 -2.9346 -2.0339 0.9817
3.1759 -2.6658 -2.0339 0.9817
-1.6962 -3.5345 -2.0338 0.9825
-1.3790 -3.6699 -2.0338 0.9825
-0.3736 -3.9026 -2.0339 0.9825
0.3154 -3.9078 -2.0339 0.9825
0.6577 -3.8649 -2.0339 0.9825
0.9948 -3.7922 -2.0339 0.9825
1.3241 -3.6901 -2.0339 0.9825
1.6434 -3.5595 -2.0339 0.9825
1.9498 -3.4013 -2.0339 0.9825
2.2412 -3.2168 -2.0339 0.9825
-1.6066 -3.3479 -2.0338 0.9832
-1.3062 -3.4761 -2.0339 0.9832
-0.3539 -3.6965 -2.0339 0.9832
0.2988 -3.7014 -2.0339 0.9832
1.5566 -3.3715 -2.0339 0.9832
2.1228 -3.0469 -2.0339 0.9832
-0.6426 -3.4637 -2.0339 0.9839
-0.0262 -3.5227 -2.0339 0.9839
0.2834 -3.5113 -2.0339 0.9839
1.4766 -3.1984 -2.0339 0.9839
1.7520 -3.0562 -2.0339 0.9839
2.0138 -2.8905 -2.0339 0.9839
2.2600 -2.7023 -2.0339 0.9839
2.6983 -2.2649 -2.0339 0.9839
