ply
format ascii 1.0
element vertex 200
property float32 x
property float32 y
property float32 z
property float32 I
end_header
-16.2703 5.5546 -1.2606 0.9334
-16.1055 5.4983 -1.6338 0.9339
-11.8511 -7.7430 -1.3591 0.9447
-15.6355 6.9779 -2.0338 0.9334
-16.2035 5.5317 -2.0338 0.9334
-17.1111 -0.5838 -2.0337 0.9334
-16.9877 -2.1324 -2.0337 0.9334
-16.7243 -3.6635 -2.0337 0.9334
-11.8512 -7.7431 -1.6816 0.9446
-13.4246 -10.6249 -2.0337 0.9334
-12.4062 -11.7981 -2.0337 0.9334
-10.0722 -13.8441 -2.0337 0.9334
-8.7758 -14.7001 -2.0337 0.9334
-13.1082 5.8499 -2.0339 0.9437
-13.5844 4.6376 -2.0338 0.9437
-14.1982 2.1087 -2.0338 0.9437
-14.3307 0.8130 -2.0338 0.9437
-14.3454 -0.4894 -2.0338 0.9437
-14.0211 -3.0714 -2.0337 0.9437
-13.6850 -4.3297 -2.0337 0.9437
-13.2360 -5.5523 -2.0337 0.9437
-12.6782 -6.7293 -2.0337 0.9437
-10.4010 -9.8912 -2.0337 0.9437
-9.4616 -10.7932 -2.0337 0.9437
-7.3573 -12.3242 -2.0337 0.9437
-11.2742 5.0315 -2.0339 0.9512
-11.6838 3.9887 -2.0338 0.9512
-12.2493 -1.5376 -2.0338 0.9512
-10.9045 -5.7878 -2.0337 0.9512
-10.3348 -6.7524 -2.0337 0.9512
-9.6802 -7.6614 -2.0337 0.9512
-8.1378 -9.2832 -2.0337 0.9512
-7.2628 -9.9827 -2.0337 0.9512
-10.2403 3.4960 -2.0339 0.9569
-10.5150 2.5533 -2.0338 0.9569
-10.7030 1.5896 -2.0338 0.9569
-10.7360 -1.3477 -2.0338 0.9569
-10.3162 -3.2639 -2.0338 0.9569
-9.9779 -4.1856 -2.0338 0.9569
-9.5573 -5.0728 -2.0338 0.9569
-7.8407 -7.4564 -2.0337 0.9569
-7.1325 -8.1364 -2.0337 0.9569
-6.3656 -8.7495 -2.0337 0.9569
-5.5462 -9.2905 -2.0337 0.9569
-8.7866 3.9213 -2.0339 0.9614
-9.1058 3.1086 -2.0339 0.9614
-9.3500 2.2704 -2.0338 0.9614
-9.6062 0.5450 -2.0338 0.9614
-9.6160 -0.3280 -2.0338 0.9614
-9.5466 -1.1984 -2.0338 0.9614
-9.3987 -2.0588 -2.0338 0.9614
-9.1733 -2.9023 -2.0338 0.9614
-8.8725 -3.7218 -2.0338 0.9614
-8.0546 -5.2626 -2.0338 0.9614
-7.5444 -5.9710 -2.0338 0.9614
-7.9026 3.5268 -2.0339 0.9651
-8.1898 2.7959 -2.0339 0.9651
-8.4094 2.0420 -2.0339 0.9651
-8.5599 1.2713 -2.0338 0.9651
-8.6399 0.4901 -2.0338 0.9651
-8.6487 -0.2951 -2.0338 0.9651
-8.4532 -1.8517 -2.0338 0.9651
-8.2505 -2.6104 -2.0338 0.9651
-7.9800 -3.3475 -2.0338 0.9651
-7.6436 -4.0571 -2.0338 0.9651
-7.2444 -4.7332 -2.0338 0.9651
-6.7855 -5.3704 -2.0338 0.9651
-6.2707 -5.9634 -2.0338 0.9651
-5.7043 -6.5072 -2.0338 0.9651
-5.0910 -6.9975 -2.0338 0.9651
-7.1734 3.2013 -2.0339 0.9681
-7.4340 2.5379 -2.0339 0.9681
-7.6334 1.8536 -2.0339 0.9681
-7.7700 1.1540 -2.0338 0.9681
-7.8425 0.4449 -2.0338 0.9681
-7.8505 -0.2679 -2.0338 0.9681
-7.6731 -1.6808 -2.0338 0.9681
-7.2436 -3.0386 -2.0338 0.9681
-6.9382 -3.6826 -2.0338 0.9681
-6.5759 -4.2964 -2.0338 0.9681
-6.1593 -4.8748 -2.0338 0.9681
-5.6920 -5.4131 -2.0338 0.9681
-4.6212 -6.3518 -2.0338 0.9681
-6.5608 2.9279 -2.0339 0.9706
-6.9815 1.6953 -2.0339 0.9706
-7.1064 1.0554 -2.0339 0.9706
-7.1728 0.4069 -2.0338 0.9706
-7.1284 -0.8948 -2.0338 0.9706
-6.3458 -3.3682 -2.0338 0.9706
-6.0143 -3.9296 -2.0338 0.9706
-5.6334 -4.4585 -2.0338 0.9706
-5.2060 -4.9508 -2.0338 0.9706
-4.7358 -5.4024 -2.0338 0.9706
-3.6826 -6.1686 -2.0338 0.9706
-6.0385 2.6949 -2.0339 0.9727
-6.2579 2.1364 -2.0339 0.9727
-6.6018 0.3745 -2.0338 0.9727
-6.3043 -1.9946 -2.0338 0.9727
-6.0976 -2.5579 -2.0338 0.9727
-5.8406 -3.1001 -2.0338 0.9727
-5.5356 -3.6167 -2.0338 0.9727
-5.1849 -4.1036 -2.0338 0.9727
-4.3588 -4.9723 -2.0338 0.9727
-3.8902 -5.3470 -2.0338 0.9727
-5.5875 2.4936 -2.0339 0.9745
-5.7905 1.9768 -2.0339 0.9745
-5.9458 1.4438 -2.0339 0.9745
-6.1150 -0.2086 -2.0338 0.9745
-6.0709 -0.7621 -2.0338 0.9745
-5.8335 -1.8457 -2.0338 0.9745
-5.4044 -2.8685 -2.0338 0.9745
-5.1221 -3.3466 -2.0338 0.9745
-4.4337 -4.2164 -2.0338 0.9745
-4.0332 -4.6009 -2.0338 0.9745
-3.5996 -4.9476 -2.0338 0.9745
-3.1363 -5.2535 -2.0338 0.9745
-5.1937 2.3179 -2.0339 0.9761
-5.6257 0.8355 -2.0339 0.9761
-5.6782 0.3221 -2.0339 0.9761
-5.6840 -0.1939 -2.0338 0.9761
-5.5556 -1.2170 -2.0338 0.9761
-5.4224 -1.7156 -2.0338 0.9761
-5.2446 -2.2000 -2.0338 0.9761
-4.7611 -3.1108 -2.0338 0.9761
-4.4596 -3.5296 -2.0338 0.9761
-4.1213 -3.9193 -2.0338 0.9761
-3.7490 -4.2767 -2.0338 0.9761
-3.3459 -4.5989 -2.0338 0.9761
-4.8466 2.1630 -2.0339 0.9775
-5.2988 0.3006 -2.0339 0.9775
-5.2659 -0.6610 -2.0338 0.9775
-5.1843 -1.1356 -2.0338 0.9775
-4.8941 -2.0530 -2.0338 0.9775
-4.4430 -2.9029 -2.0338 0.9775
-4.1616 -3.2937 -2.0338 0.9775
-2.7205 -4.5570 -2.0338 0.9775
-4.5380 2.0253 -2.0339 0.9788
-4.7029 1.6056 -2.0339 0.9788
-2.1493 0.5219 -0.9052 0.9905
-2.1130 0.3138 -0.8743 0.9908
-2.1217 0.1203 -0.8697 0.9909
-2.1227 -0.0725 -0.8693 0.9909
-4.7379 -1.4990 -2.0338 0.9788
-4.3893 -2.3298 -2.0338 0.9788
-4.2617 1.9019 -2.0339 0.9798
-1.8993 0.4612 -0.8518 0.9915
-1.9038 0.2827 -0.8388 0.9916
-1.9175 0.1088 -0.8370 0.9917
-1.9188 -0.0655 -0.8367 0.9917
-1.9041 -0.2391 -0.8364 0.9917
-1.9029 -0.4169 -0.8490 0.9915
-4.3034 -1.8052 -2.0338 0.9798
-3.6593 -2.8962 -2.0338 0.9798
-3.3817 -3.2160 -2.0338 0.9798
-2.7455 -3.7737 -2.0338 0.9798
-1.5850 -0.0541 -0.7341 0.9930
-4.0518 -1.6997 -2.0338 0.9808
-3.8810 -2.0600 -2.0338 0.9808
-3.6783 -2.4033 -2.0338 0.9808
-3.4453 -2.7268 -2.0338 0.9808
-2.8964 -3.3040 -2.0338 0.9808
-2.2523 -3.7727 -2.0338 0.9808
-3.7864 1.6898 -2.0339 0.9817
-1.2756 0.4355 -0.6612 0.9940
-1.3484 0.2002 -0.6687 0.9939
-1.3458 -0.0459 -0.6605 0.9940
-1.3285 -0.2910 -0.6671 0.9940
-3.8235 -1.6039 -2.0338 0.9817
-3.6623 -1.9439 -2.0338 0.9817
-2.7332 -3.1179 -2.0338 0.9817
-2.1254 -3.5602 -2.0338 0.9817
-1.1051 0.4931 -0.6278 0.9946
-1.1684 0.2837 -0.6237 0.9946
-1.1994 0.0680 -0.6232 0.9946
-1.1423 -0.3615 -0.6216 0.9946
-2.3065 -3.1702 -2.0338 0.9825
-1.0280 0.3509 -0.5950 0.9951
-1.0465 0.2541 -0.5898 0.9951
-1.0723 0.1592 -0.5937 0.9951
-1.0814 0.0613 -0.5932 0.9951
-1.0801 -0.0369 -0.5919 0.9951
-1.0761 -0.1351 -0.5940 0.9951
-1.0543 -0.2310 -0.5911 0.9951
-1.0329 -0.3268 -0.5934 0.9951
-1.0072 -0.4226 -0.5982 0.9950
-3.2800 -1.7410 -2.0339 0.9832
-2.9118 -2.3045 -2.0338 0.9832
-2.4479 -2.7924 -2.0338 0.9832
-2.1847 -3.0028 -2.0338 0.9832
-0.9655 0.2344 -0.5736 0.9954
-0.9831 0.1460 -0.5738 0.9954
-0.9858 -0.1238 -0.5736 0.9954
-0.9712 -0.2128 -0.5740 0.9954
-0.9336 -0.3916 -0.5845 0.9953
-0.9042 -0.4800 -0.5910 0.9953
-2.9490 -1.9268 -2.0339 0.9839
-2.7623 -2.1862 -2.0339 0.9839
-2.3221 -2.6490 -2.0339 0.9839
-2.0725 -2.8486 -2.0339 0.9839
-1.8057 -3.0248 -2.0339 0.9839
