ply
format ascii 1.0
element vertex 197
property float32 x
property float32 y
property float32 z
property float32 I
end_header
1.7797 18.6486 3.3032 0.9267
3.4501 18.6344 2.9032 0.9262
1.6871 17.6789 2.7206 0.9307
-11.2686 13.4812 2.6917 0.9314
-12.3524 12.3829 2.6795 0.9317
1.7039 17.8555 2.3357 0.9302
-11.0664 13.2393 2.2470 0.9328
-11.8012 11.8304 2.1760 0.9348
3.4441 18.6022 2.0315 0.9267
1.7262 18.0895 1.9513 0.9295
-11.2850 13.5009 1.8895 0.9317
1.7785 18.6371 1.5848 0.9276
-11.5113 13.7717 1.5194 0.9305
-12.1579 12.1879 1.4573 0.9332
-12.2958 14.7102 1.1889 0.9260
-11.9930 12.0226 1.0530 0.9342
-12.5373 14.9990 0.7708 0.9247
3.5009 18.9091 0.3248 0.9260
1.8873 19.7774 0.3356 0.9236
-1.3487 7.9207 -0.7714 0.9682
-1.9530 7.4438 -0.7388 0.9695
7.4001 15.4429 -2.0341 0.9333
4.5842 16.4993 -2.0341 0.9333
3.1175 16.8380 -2.0341 0.9333
1.6268 17.0467 -2.0341 0.9333
-0.6539 8.0827 -0.9633 0.9679
-1.2934 7.5960 -0.9153 0.9694
-1.9214 7.3235 -0.8994 0.9700
-5.7832 16.1173 -2.0340 0.9333
-7.1762 15.5470 -2.0340 0.9334
-8.5137 14.8566 -2.0340 0.9334
-9.7854 14.0514 -2.0340 0.9334
-10.9814 13.1377 -2.0340 0.9334
-12.0926 12.1225 -2.0339 0.9334
-13.1103 11.0136 -2.0339 0.9334
5.0430 13.4411 -2.0341 0.9437
3.8431 13.8320 -2.0341 0.9437
0.1036 14.3554 -2.0341 0.9437
-1.2672 7.4424 -1.0697 0.9700
-1.9268 7.3439 -1.0758 0.9698
-4.8484 13.5119 -2.0340 0.9437
-6.0161 13.0338 -2.0340 0.9437
-10.9911 9.2333 -2.0339 0.9437
2.2478 12.1408 -2.0341 0.9512
1.1730 12.2912 -2.0340 0.9512
0.0891 12.3467 -2.0340 0.9512
-0.6013 7.4328 -1.2285 0.9702
-1.8553 7.0714 -1.2044 0.9708
-2.6857 7.4846 -1.3100 0.9683
-6.1388 10.7123 -2.0340 0.9512
-7.0557 10.1318 -2.0340 0.9512
-10.1141 7.0805 -2.0339 0.9512
4.6765 9.7590 -2.0340 0.9569
3.8014 10.1320 -2.0340 0.9569
2.8969 10.4266 -2.0340 0.9569
1.9701 10.6407 -2.0340 0.9569
-0.6178 7.6362 -1.4400 0.9693
-1.2431 7.3006 -1.3920 0.9703
-1.8428 7.0238 -1.3649 0.9709
-2.6657 7.4289 -1.4835 0.9684
-4.5350 9.8251 -2.0340 0.9569
-5.3803 9.3888 -2.0340 0.9569
-6.1840 8.8800 -2.0339 0.9569
-6.9399 8.3026 -2.0339 0.9569
-7.6421 7.6610 -2.0339 0.9569
-8.8645 6.2057 -2.0339 0.9569
3.3802 9.0094 -2.0340 0.9614
1.7518 9.4618 -2.0340 0.9614
0.9141 9.5790 -2.0340 0.9614
-0.6024 7.4461 -1.5791 0.9699
-1.8975 7.2320 -1.5804 0.9699
-4.0326 8.7365 -2.0340 0.9614
-4.7843 8.3486 -2.0340 0.9614
-5.4989 7.8961 -2.0339 0.9614
-7.8824 5.5182 -2.0339 0.9614
1.5755 8.5099 -2.0340 0.9651
-0.6009 7.4279 -1.7514 0.9698
-2.9229 8.1458 -2.0340 0.9651
-3.6269 7.8576 -2.0340 0.9651
-4.3029 7.5087 -2.0339 0.9651
-5.5502 6.6400 -2.0339 0.9651
-6.1118 6.1269 -2.0339 0.9651
-6.6262 5.5665 -2.0339 0.9651
2.7596 7.3552 -2.0340 0.9681
1.4302 7.7245 -2.0340 0.9681
0.7463 7.8202 -2.0340 0.9681
-2.6531 7.3940 -2.0340 0.9681
-3.9058 6.8157 -2.0339 0.9681
-4.4893 6.4464 -2.0339 0.9681
-5.0380 6.0272 -2.0339 0.9681
-6.0147 5.0528 -2.0339 0.9681
3.1049 6.4794 -2.0340 0.9706
2.5238 6.7270 -2.0340 0.9706
1.9234 6.9227 -2.0340 0.9706
1.3080 7.0648 -2.0340 0.9706
0.0518 7.1846 -2.0340 0.9706
-3.0111 6.5233 -2.0339 0.9706
-4.1059 5.8959 -2.0339 0.9706
-5.5011 4.6213 -2.0339 0.9706
-5.8856 4.1203 -2.0339 0.9706
2.8577 5.9636 -2.0340 0.9727
2.3229 6.1915 -2.0340 0.9727
1.2039 6.5024 -2.0340 0.9727
0.6282 6.5830 -2.0340 0.9727
-2.2334 6.2242 -2.0340 0.9727
-2.7714 6.0040 -2.0339 0.9727
-3.2879 5.7374 -2.0339 0.9727
-5.0632 4.2534 -2.0339 0.9727
-5.4171 3.7923 -2.0339 0.9727
1.1140 6.0167 -2.0340 0.9745
-0.4934 6.0990 -2.0340 0.9745
-1.5528 5.9186 -2.0340 0.9745
-2.5643 5.5556 -2.0339 0.9745
-3.0423 5.3089 -2.0339 0.9745
-3.9242 4.6947 -2.0339 0.9745
0.5403 5.6620 -2.0340 0.9761
-0.4586 5.6691 -2.0340 0.9761
-0.9547 5.6070 -2.0340 0.9761
-1.4434 5.5014 -2.0339 0.9761
-1.9209 5.3534 -2.0339 0.9761
-2.3836 5.1640 -2.0339 0.9761
-3.2504 4.6673 -2.0339 0.9761
-3.6476 4.3639 -2.0339 0.9761
-4.3548 3.6583 -2.0339 0.9761
-4.6593 3.2618 -2.0339 0.9761
2.2936 4.7864 -2.0340 0.9775
0.9663 5.2189 -2.0340 0.9775
0.5042 5.2836 -2.0340 0.9775
-0.4280 5.2903 -2.0340 0.9775
-0.8909 5.2322 -2.0340 0.9775
-1.3470 5.1338 -2.0339 0.9775
-1.7925 4.9956 -2.0339 0.9775
-2.6389 4.6049 -2.0339 0.9775
-3.4039 4.0722 -2.0339 0.9775
-4.0638 3.4138 -2.0339 0.9775
-4.3479 3.0438 -2.0339 0.9775
2.1476 4.4817 -2.0340 0.9787
1.7457 4.6529 -2.0340 0.9787
0.4721 4.9471 -2.0340 0.9788
0.0359 4.9695 -2.0340 0.9787
-0.4007 4.9534 -2.0340 0.9788
-1.6784 4.6776 -2.0339 0.9788
-2.0827 4.5121 -2.0339 0.9788
-3.5096 3.5183 -2.0339 0.9788
-4.0711 2.8500 -2.0339 0.9788
2.0168 4.2087 -2.0340 0.9798
0.8496 4.5890 -2.0340 0.9798
-1.1843 4.5142 -2.0339 0.9798
-1.5762 4.3927 -2.0339 0.9798
-2.3204 4.0492 -2.0339 0.9798
-2.6671 3.8298 -2.0339 0.9798
-3.5733 3.0018 -2.0339 0.9798
-3.8231 2.6764 -2.0339 0.9798
1.5436 4.1141 -2.0340 0.9808
1.1763 4.2337 -2.0340 0.9808
0.0317 4.3939 -2.0339 0.9808
-0.3543 4.3797 -2.0339 0.9808
-0.7376 4.3317 -2.0339 0.9808
-1.1151 4.2502 -2.0339 0.9808
-1.4840 4.1358 -2.0339 0.9808
-1.8415 3.9895 -2.0339 0.9808
-2.5111 3.6058 -2.0339 0.9808
-2.8180 3.3713 -2.0339 0.9808
-3.1032 3.1108 -2.0339 0.9808
-3.3643 2.8263 -2.0339 0.9808
-3.5996 2.5199 -2.0339 0.9808
1.1100 3.9951 -2.0340 0.9817
0.3939 4.1277 -2.0340 0.9817
-0.6960 4.0876 -2.0339 0.9817
-1.0523 4.0107 -2.0339 0.9817
-2.0616 3.5976 -2.0339 0.9817
-3.3968 2.3779 -2.0339 0.9817
0.7138 3.8551 -2.0339 0.9825
0.3725 3.9029 -2.0339 0.9825
-0.9949 3.7922 -2.0339 0.9825
-1.6431 3.5597 -2.0339 0.9825
-1.9493 3.4016 -2.0339 0.9825
-2.2405 3.2173 -2.0339 0.9825
-2.5144 3.0081 -2.0339 0.9825
-2.7688 2.7757 -2.0339 0.9825
-3.0019 2.5218 -2.0339 0.9825
-3.2117 2.2484 -2.0339 0.9825
1.3045 3.4769 -2.0340 0.9832
0.9941 3.5780 -2.0339 0.9832
0.6761 3.6515 -2.0339 0.9832
0.3528 3.6968 -2.0339 0.9832
-0.2994 3.7015 -2.0339 0.9832
-0.6233 3.6609 -2.0339 0.9832
-1.2542 3.4953 -2.0339 0.9832
-1.5563 3.3717 -2.0339 0.9832
-2.8434 2.3886 -2.0339 0.9832
-3.0421 2.1297 -2.0339 0.9832
0.3347 3.5070 -2.0339 0.9839
-0.2841 3.5114 -2.0339 0.9839
-1.4764 3.1986 -2.0339 0.9839
-1.7516 3.0565 -2.0339 0.9839
-2.8859 2.0203 -2.0339 0.9839
