ply
format ascii 1.0
element vertex 207
property float32 x
property float32 y
property float32 z
property float32 I
end_header
-11.9742 13.0920 3.1284 0.9305
-11.4826 12.5545 2.6064 0.9335
-11.3257 12.3829 2.1853 0.9345
-11.4485 12.5171 1.8215 0.9340
1.5440 18.4921 1.5709 0.9282
-12.1679 13.3038 1.1180 0.9303
1.5116 18.1038 0.7163 0.9299
-11.8309 12.9353 0.6912 0.9322
-12.0148 13.1363 0.3007 0.9313
3.2591 18.4467 -0.5275 0.9278
-11.9675 13.0846 -1.3002 0.9314
-0.7925 7.9116 -0.7634 0.9686
-1.4862 7.6696 -0.7500 0.9691
-2.1544 7.4088 -0.7407 0.9695
8.8212 14.6775 -2.0341 0.9333
7.4421 15.4227 -2.0341 0.9333
4.5089 16.5200 -2.0341 0.9333
2.9794 16.8630 -2.0341 0.9333
1.4248 17.0647 -2.0341 0.9333
-0.7768 7.7550 -0.9258 0.9691
-6.2647 15.9363 -2.0340 0.9333
-11.5562 12.6350 -2.0339 0.9334
-12.6630 11.5252 -2.0339 0.9334
6.2391 12.9294 -2.0341 0.9437
3.7800 13.8494 -2.0341 0.9437
2.4977 14.1370 -2.0341 0.9437
-0.7501 7.4882 -1.0663 0.9701
-1.4282 7.3704 -1.0637 0.9701
-2.1161 7.2773 -1.0738 0.9698
-6.4516 12.8238 -2.0340 0.9437
-7.5972 12.1800 -2.0340 0.9437
-8.6791 11.4342 -2.0340 0.9437
-9.6882 10.5926 -2.0339 0.9437
-10.6161 9.6622 -2.0339 0.9437
7.3015 9.9570 -2.0341 0.9512
3.2511 11.9115 -2.0341 0.9512
1.0274 12.3043 -2.0340 0.9512
-0.1021 12.3466 -2.0340 0.9512
-0.7529 7.5156 -1.2443 0.9698
-2.1110 7.2596 -1.2455 0.9698
-5.5489 11.0295 -2.0340 0.9512
-7.4646 9.8343 -2.0339 0.9512
-8.3326 9.1104 -2.0339 0.9512
-9.1307 8.3102 -2.0339 0.9512
3.7921 10.1355 -2.0340 0.9569
2.8494 10.4398 -2.0340 0.9569
1.8828 10.6565 -2.0340 0.9569
0.9005 10.7840 -2.0340 0.9569
-0.0895 10.8212 -2.0340 0.9569
-1.3868 7.1563 -1.3701 0.9708
-2.0891 7.1845 -1.4063 0.9700
-3.9590 10.0711 -2.0340 0.9569
-4.8633 9.6668 -2.0340 0.9569
-7.3031 7.9849 -2.0339 0.9569
-8.0027 7.2835 -2.0339 0.9569
4.1819 8.6664 -2.0340 0.9614
2.5336 9.2830 -2.0340 0.9614
1.6741 9.4758 -2.0340 0.9614
-0.7323 7.3105 -1.5530 0.9704
-1.3807 7.1250 -1.5341 0.9708
-3.5204 8.9553 -2.0340 0.9614
-5.8176 7.6643 -2.0339 0.9614
-6.4940 7.1002 -2.0339 0.9614
-7.1160 6.4766 -2.0339 0.9614
4.4582 7.4179 -2.0340 0.9651
3.7612 7.7945 -2.0340 0.9651
3.0327 8.1058 -2.0340 0.9651
2.2787 8.3491 -2.0340 0.9651
0.7201 8.6245 -2.0340 0.9651
-1.4571 7.5188 -1.8000 0.9690
-2.0987 7.2173 -1.7665 0.9696
-3.8895 7.7310 -2.0340 0.9651
-4.5801 7.3429 -2.0339 0.9651
4.6455 6.3351 -2.0340 0.9681
3.4141 7.0752 -2.0340 0.9681
2.7528 7.3577 -2.0340 0.9681
0.6536 7.8285 -2.0340 0.9681
-0.0650 7.8554 -2.0340 0.9681
-0.7477 7.4639 -1.9422 0.9695
-1.4945 7.7122 -2.0340 0.9681
-4.1574 6.6653 -2.0339 0.9681
-4.7495 6.2571 -2.0339 0.9681
-5.3017 5.7966 -2.0339 0.9681
-5.8095 5.2875 -2.0339 0.9681
4.2487 5.7940 -2.0340 0.9706
3.7011 6.1583 -2.0340 0.9706
3.1225 6.4709 -2.0340 0.9706
1.8918 6.9314 -2.0340 0.9706
0.5979 7.1599 -2.0340 0.9706
-0.7161 7.1490 -2.0340 0.9706
-1.3669 7.0536 -2.0340 0.9706
-2.6286 6.6866 -2.0340 0.9706
-3.2290 6.4182 -2.0339 0.9706
-3.8023 6.0960 -2.0339 0.9706
-4.3438 5.7228 -2.0339 0.9706
-4.8489 5.3016 -2.0339 0.9706
3.4064 5.6680 -2.0340 0.9727
2.8739 5.9558 -2.0340 0.9727
2.3172 6.1936 -2.0340 0.9727
1.7412 6.3796 -2.0340 0.9727
-0.0547 6.6126 -2.0340 0.9727
-1.2580 6.4921 -2.0340 0.9727
-2.4193 6.1543 -2.0339 0.9727
-4.4629 4.8795 -2.0339 0.9727
3.6184 4.9345 -2.0340 0.9745
2.6593 5.5109 -2.0340 0.9745
1.6111 5.9030 -2.0340 0.9745
0.5091 6.0977 -2.0340 0.9745
-0.6099 6.0884 -2.0340 0.9745
-1.7085 5.8755 -2.0340 0.9745
-2.2386 5.6946 -2.0339 0.9745
-2.7500 5.4661 -2.0339 0.9745
-3.2382 5.1917 -2.0339 0.9745
-3.6994 4.8738 -2.0339 0.9745
-4.1296 4.5151 -2.0339 0.9745
3.3634 4.5867 -2.0340 0.9761
1.9930 5.3271 -2.0340 0.9761
0.4733 5.6680 -2.0340 0.9761
-0.0470 5.6875 -2.0340 0.9761
-0.5669 5.6594 -2.0340 0.9761
-1.0820 5.5838 -2.0340 0.9761
-2.5561 5.0809 -2.0339 0.9761
-3.8386 4.1969 -2.0339 0.9761
-4.2062 3.8283 -2.0339 0.9761
3.1387 4.2801 -2.0340 0.9775
2.7341 4.5492 -2.0340 0.9775
2.3067 4.7802 -2.0340 0.9775
1.3975 5.1203 -2.0340 0.9775
0.9234 5.2266 -2.0340 0.9775
0.4416 5.2892 -2.0340 0.9775
-1.0097 5.2106 -2.0340 0.9775
-1.9418 4.9396 -2.0339 0.9775
-2.3853 4.7413 -2.0339 0.9775
-3.2089 4.2276 -2.0339 0.9775
-3.5820 3.9164 -2.0339 0.9775
-3.9251 3.5724 -2.0339 0.9775
2.9388 4.0076 -2.0340 0.9787
0.4135 4.9524 -2.0340 0.9788
-0.9454 4.8788 -2.0339 0.9788
-1.3876 4.7720 -2.0339 0.9788
-2.6300 4.2166 -2.0339 0.9788
-3.0046 3.9584 -2.0339 0.9788
-3.3539 3.6671 -2.0339 0.9788
-3.6752 3.3450 -2.0339 0.9788
2.4041 4.0002 -2.0340 0.9798
2.0282 4.2032 -2.0340 0.9798
1.6354 4.3711 -2.0340 0.9798
1.2288 4.5023 -2.0340 0.9798
-0.0386 4.6668 -2.0340 0.9798
-0.4652 4.6437 -2.0339 0.9798
-0.8879 4.5817 -2.0339 0.9798
-1.7074 4.3434 -2.0339 0.9798
-3.1497 3.4437 -2.0339 0.9798
-3.4514 3.1413 -2.0339 0.9798
2.5984 3.5435 -2.0340 0.9808
1.5398 4.1155 -2.0340 0.9808
1.1570 4.2390 -2.0340 0.9808
0.7645 4.3271 -2.0340 0.9808
-0.0363 4.3939 -2.0339 0.9808
-0.4380 4.3721 -2.0339 0.9808
-1.2269 4.2193 -2.0339 0.9808
-1.6076 4.0894 -2.0339 0.9808
-2.6566 3.5000 -2.0339 0.9808
-3.2496 2.9576 -2.0339 0.9808
2.4521 3.3438 -2.0340 0.9817
2.1360 3.5540 -2.0340 0.9817
1.8020 3.7345 -2.0340 0.9817
1.0918 4.0002 -2.0340 0.9817
0.3450 4.1321 -2.0339 0.9817
-0.0343 4.1463 -2.0339 0.9817
-0.7888 4.0707 -2.0339 0.9817
-1.5170 3.8590 -2.0339 0.9817
-1.8635 3.7041 -2.0339 0.9817
-2.5069 3.3028 -2.0339 0.9817
-2.7984 3.0596 -2.0339 0.9817
-3.0664 2.7909 -2.0339 0.9817
2.0196 3.3604 -2.0340 0.9825
1.3739 3.6720 -2.0340 0.9825
-2.0749 3.3265 -2.0339 0.9825
-2.8994 2.6389 -2.0339 0.9825
2.1961 2.9947 -2.0340 0.9832
1.9130 3.1830 -2.0340 0.9832
1.3013 3.4781 -2.0340 0.9832
0.9778 3.5825 -2.0339 0.9832
0.6461 3.6569 -2.0339 0.9832
0.3090 3.7007 -2.0339 0.9832
-0.0307 3.7134 -2.0339 0.9832
-0.3702 3.6951 -2.0339 0.9832
-0.7064 3.6457 -2.0339 0.9832
-1.0369 3.5659 -2.0339 0.9832
-1.6689 3.3174 -2.0339 0.9832
-1.9653 3.1508 -2.0339 0.9832
-2.5063 2.7402 -2.0339 0.9832
-2.7463 2.4996 -2.0339 0.9832
2.0833 2.8409 -2.0340 0.9839
1.8147 3.0195 -2.0339 0.9839
1.5310 3.1728 -2.0339 0.9839
1.2345 3.2995 -2.0339 0.9839
0.9276 3.3986 -2.0339 0.9839
-0.3511 3.5053 -2.0339 0.9839
-0.6702 3.4585 -2.0339 0.9839
-0.9836 3.3827 -2.0339 0.9839
-1.5832 3.1470 -2.0339 0.9839
-1.8644 2.9891 -2.0339 0.9839
-2.1299 2.8061 -2.0339 0.9839
-2.3776 2.5995 -2.0339 0.9839
-2.6053 2.3712 -2.0339 0.9839
