ply
format ascii 1.0
element vertex 206
property float32 x
property float32 y
property float32 z
property float32 I
end_header
16.2572 -4.0040 -1.2276 0.9351
16.1171 -3.9695 -1.5936 0.9355
1.6781 -6.5323 -0.8011 0.9732
2.2936 -6.4578 -0.8140 0.9728
2.7413 -5.9598 -0.7792 0.9739
8.5212 -14.8506 -2.0338 0.9334
11.0377 -13.0894 -2.0338 0.9334
12.1675 -12.0466 -2.0339 0.9334
14.1244 -9.6789 -2.0339 0.9334
14.9359 -8.3730 -2.0339 0.9334
15.6269 -6.9996 -2.0340 0.9334
16.1919 -5.5697 -2.0340 0.9334
16.6264 -4.0949 -2.0340 0.9334
16.9269 -2.5871 -2.0340 0.9333
17.1170 0.4790 -2.0341 0.9333
17.0051 2.0125 -2.0341 0.9333
16.7562 3.5298 -2.0341 0.9333
15.8561 6.4671 -2.0341 0.9333
1.6852 -6.5599 -0.9597 0.9730
2.1811 -6.1408 -0.9233 0.9740
9.2536 -10.9736 -2.0339 0.9437
10.2007 -10.0994 -2.0339 0.9437
13.1008 -5.8681 -2.0339 0.9437
14.3500 0.4016 -2.0340 0.9437
14.2562 1.6872 -2.0340 0.9437
14.0475 2.9592 -2.0341 0.9437
13.7254 4.2073 -2.0341 0.9437
2.1277 -5.9904 -1.0473 0.9746
6.1443 -10.7082 -2.0338 0.9512
8.7734 -8.6863 -2.0339 0.9512
10.1845 -6.9790 -2.0339 0.9512
11.9884 -2.9526 -2.0340 0.9512
12.2050 -1.8654 -2.0340 0.9512
12.2614 1.4511 -2.0340 0.9512
12.0818 2.5451 -2.0340 0.9512
11.8049 3.6186 -2.0340 0.9512
11.4327 4.6629 -2.0341 0.9512
1.5823 -6.1593 -1.1953 0.9744
2.6601 -5.7834 -1.1965 0.9744
6.9755 -8.2722 -2.0339 0.9569
7.6895 -7.6132 -2.0339 0.9569
8.3415 -6.8928 -2.0339 0.9569
10.2327 -3.5199 -2.0339 0.9569
10.5072 -2.5878 -2.0340 0.9569
10.6971 -1.6349 -2.0340 0.9569
10.7464 1.2718 -2.0340 0.9569
10.3464 3.1715 -2.0340 0.9569
2.6281 -5.7138 -1.3294 0.9746
3.2887 -5.7317 -1.3968 0.9733
6.2027 -7.3557 -2.0339 0.9614
7.9372 -5.4391 -2.0339 0.9614
8.3932 -4.7053 -2.0339 0.9614
9.0989 -3.1299 -2.0339 0.9614
9.6186 0.2692 -2.0340 0.9614
9.5558 1.1309 -2.0340 0.9614
9.4159 1.9835 -2.0340 0.9614
9.2000 2.8201 -2.0340 0.9614
8.9100 3.6340 -2.0340 0.9614
1.5339 -5.9709 -1.4489 0.9750
3.3062 -5.7621 -1.5613 0.9731
6.6712 -5.5125 -2.0339 0.9651
7.5489 -4.2319 -2.0339 0.9651
8.1836 -2.8150 -2.0339 0.9651
8.4032 -2.0696 -2.0339 0.9651
8.6378 -0.5349 -2.0340 0.9651
8.6510 0.2421 -2.0340 0.9651
8.5944 1.0171 -2.0340 0.9651
8.4686 1.7840 -2.0340 0.9651
2.0514 -5.7757 -1.5870 0.9750
4.5048 -6.4352 -2.0339 0.9681
5.0639 -6.0052 -2.0339 0.9681
5.5822 -5.5268 -2.0339 0.9681
6.0555 -5.0038 -2.0339 0.9681
6.4799 -4.4405 -2.0339 0.9681
6.8522 -3.8413 -2.0339 0.9681
7.1691 -3.2112 -2.0339 0.9681
7.7655 -1.1868 -2.0340 0.9681
7.8406 -0.4855 -2.0340 0.9681
7.8526 0.2198 -2.0340 0.9681
7.6870 1.6193 -2.0340 0.9681
7.2740 2.9668 -2.0340 0.9681
1.5491 -6.0299 -1.7625 0.9745
3.5756 -6.2315 -2.0339 0.9706
4.6315 -5.4924 -2.0339 0.9706
5.9266 -4.0613 -2.0339 0.9706
6.9763 -1.7182 -2.0339 0.9706
7.1350 0.8444 -2.0340 0.9706
3.7921 -5.4171 -2.0339 0.9727
4.6991 -4.6524 -2.0339 0.9727
5.0975 -4.2122 -2.0339 0.9727
6.2532 -2.1510 -2.0339 0.9727
6.4209 -1.5814 -2.0339 0.9727
6.5369 -0.9991 -2.0339 0.9727
6.6002 -0.4087 -2.0340 0.9727
6.6103 0.1850 -2.0340 0.9727
6.5670 0.7772 -2.0340 0.9727
6.4709 1.3631 -2.0340 0.9727
2.5568 -5.5588 -2.0339 0.9745
3.9444 -4.6776 -2.0339 0.9745
4.3481 -4.3049 -2.0339 0.9745
5.3373 -2.9921 -2.0339 0.9745
5.9413 -1.4633 -2.0339 0.9745
6.1165 0.1712 -2.0340 0.9745
5.9875 1.2613 -2.0340 0.9745
5.8503 1.7933 -2.0340 0.9745
5.6658 2.3108 -2.0340 0.9745
1.9035 -5.3594 -2.0339 0.9761
2.3766 -5.1671 -2.0339 0.9761
3.6664 -4.3480 -2.0339 0.9761
4.3843 -3.6229 -2.0339 0.9761
4.6916 -3.2150 -2.0339 0.9761
5.6223 -0.8593 -2.0339 0.9761
5.6768 -0.3515 -2.0339 0.9761
5.6855 0.1591 -2.0340 0.9761
5.5655 1.1724 -2.0340 0.9761
5.4380 1.6669 -2.0340 0.9761
5.2665 2.1480 -2.0340 0.9761
1.3206 -5.1404 -2.0339 0.9775
2.2178 -4.8218 -2.0339 0.9775
3.4214 -4.0574 -2.0339 0.9775
3.7716 -3.7341 -2.0339 0.9775
4.0913 -3.3808 -2.0339 0.9775
4.3781 -3.0002 -2.0339 0.9775
4.6296 -2.5954 -2.0339 0.9775
5.0189 -1.7264 -2.0339 0.9775
5.1535 -1.2693 -2.0339 0.9775
5.2466 -0.8019 -2.0339 0.9775
5.2708 0.6238 -2.0340 0.9775
5.1936 1.0940 -2.0340 0.9775
5.0745 1.5555 -2.0340 0.9775
4.9146 2.0044 -2.0340 0.9775
2.8499 -4.0711 -2.0339 0.9788
3.2036 -3.7991 -2.0339 0.9788
3.8309 -3.1655 -2.0339 0.9788
4.3349 -2.4301 -2.0339 0.9788
4.9352 0.5841 -2.0339 0.9787
4.8629 1.0244 -2.0340 0.9787
4.7514 1.4565 -2.0340 0.9787
1.1612 -4.5200 -2.0339 0.9798
1.5620 -4.3976 -2.0339 0.9798
2.3226 -4.0478 -2.0339 0.9798
3.0084 -3.5677 -2.0339 0.9798
3.3164 -3.2834 -2.0339 0.9798
3.8497 -2.6380 -2.0339 0.9798
4.2592 -1.9078 -2.0339 0.9798
4.4132 -1.5181 -2.0339 0.9798
4.5315 -1.1161 -2.0339 0.9798
4.6134 -0.7051 -2.0339 0.9798
4.6580 -0.2885 -2.0339 0.9798
4.5668 0.9620 -2.0340 0.9798
4.4621 1.3678 -2.0340 0.9798
4.3214 1.7625 -2.0340 0.9798
1.0933 -4.2557 -2.0339 0.9808
2.5198 -3.5996 -2.0339 0.9808
3.3872 -2.7989 -2.0339 0.9808
4.0101 -1.7962 -2.0339 0.9808
4.1551 -1.4293 -2.0339 0.9808
4.2666 -1.0508 -2.0339 0.9808
4.2997 0.9057 -2.0339 0.9808
4.0687 1.6594 -2.0340 0.9808
1.0317 -4.0159 -2.0339 0.9817
1.3877 -3.9072 -2.0339 0.9817
2.0636 -3.5964 -2.0339 0.9817
3.1964 -2.6412 -2.0339 0.9817
3.6169 -2.0276 -2.0339 0.9817
3.9210 -1.3487 -2.0339 0.9817
4.0261 -0.9916 -2.0339 0.9817
4.0989 -0.6265 -2.0339 0.9817
4.1386 -0.2563 -2.0339 0.9817
4.1449 0.1160 -2.0339 0.9817
3.8395 1.5659 -2.0340 0.9817
0.9755 -3.7972 -2.0339 0.9825
1.3121 -3.6944 -2.0339 0.9825
2.5273 -2.9972 -2.0339 0.9825
2.7861 -2.7584 -2.0339 0.9825
3.5781 -1.6027 -2.0339 0.9825
3.8068 -0.9376 -2.0339 0.9825
2.0784 -0.1287 -1.0803 0.9907
2.0759 0.0581 -1.0774 0.9907
2.0851 0.2468 -1.0893 0.9906
2.1080 0.4441 -1.1176 0.9903
3.7485 1.1490 -2.0339 0.9825
3.6303 1.4806 -2.0339 0.9825
0.9239 -3.5967 -2.0339 0.9832
1.8481 -3.2209 -2.0339 0.9832
2.6389 -2.6127 -2.0339 0.9832
3.0633 -2.0992 -2.0339 0.9832
3.3891 -1.5180 -2.0339 0.9832
1.9220 -0.6611 -1.1132 0.9908
1.8523 0.0518 -1.0149 0.9916
1.8568 0.3911 -1.0393 0.9914
1.8773 0.5754 -1.0754 0.9911
3.4386 1.4025 -2.0339 0.9832
1.1791 -3.3196 -2.0339 0.9839
1.7532 -3.0555 -2.0339 0.9839
2.0203 -2.8860 -2.0339 0.9839
2.5034 -2.4785 -2.0339 0.9839
3.0729 -1.7227 -2.0339 0.9839
1.7787 -0.7967 -1.1252 0.9910
1.7143 -0.4222 -1.0193 0.9919
1.7140 -0.2620 -1.0010 0.9920
1.7233 -0.1067 -0.9968 0.9921
1.7245 0.0482 -0.9960 0.9921
1.7173 0.2032 -0.9984 0.9920
1.7148 0.3612 -1.0117 0.9919
1.7560 0.7162 -1.0949 0.9913
