ply
format ascii 1.0
element vertex 191
property float32 x
property float32 y
property float32 z
property float32 I
end_header
16.9451 -4.6737 -1.2888 0.9319
17.5741 -3.2063 -1.3098 0.9309
16.3634 -4.5132 -1.6296 0.9341
-0.4846 -17.1139 -2.0337 0.9334
1.0327 -17.0897 -2.0337 0.9334
2.5419 -16.9312 -2.0337 0.9334
4.0312 -16.6398 -2.0337 0.9334
2.6377 -5.9867 -0.7771 0.9740
8.2638 -14.9953 -2.0338 0.9334
9.5593 -14.2047 -2.0338 0.9334
10.7797 -13.3026 -2.0338 0.9334
13.8979 -10.0014 -2.0339 0.9334
15.4445 -7.3931 -2.0340 0.9334
16.0386 -5.9965 -2.0340 0.9334
16.5068 -4.5528 -2.0340 0.9334
16.8452 -3.0733 -2.0340 0.9334
-0.4063 -14.3478 -2.0337 0.9437
2.1311 -14.1946 -2.0338 0.9437
1.6176 -6.6771 -0.9734 0.9726
2.1016 -6.2093 -0.9288 0.9739
9.0372 -11.1524 -2.0339 0.9437
9.9893 -10.3084 -2.0339 0.9437
10.8630 -9.3834 -2.0339 0.9437
11.6513 -8.3847 -2.0339 0.9437
12.9480 -6.1980 -2.0339 0.9437
13.8384 -3.8168 -2.0340 0.9437
14.2950 -1.3159 -2.0340 0.9437
0.7447 -12.3229 -2.0338 0.9512
1.8329 -12.2086 -2.0338 0.9512
1.5615 -6.4455 -1.0925 0.9735
2.0115 -5.9432 -1.0336 0.9749
3.2403 -5.8799 -1.1060 0.9732
7.7728 -9.5920 -2.0339 0.9512
10.6204 -6.2959 -2.0339 0.9512
11.5646 -4.3238 -2.0340 0.9512
-0.3063 -10.8159 -2.0338 0.9569
1.6065 -10.7004 -2.0338 0.9569
2.0238 -5.9794 -1.1865 0.9746
2.5212 -5.7221 -1.1753 0.9749
3.2174 -5.8381 -1.2529 0.9732
6.0413 -8.9771 -2.0339 0.9569
8.1888 -7.0735 -2.0339 0.9569
8.7830 -6.3206 -2.0339 0.9569
9.7604 -4.6722 -2.0339 0.9569
10.6455 -1.9422 -2.0340 0.9569
2.5663 -5.8246 -1.3454 0.9743
5.3720 -7.9826 -2.0339 0.9614
7.8100 -5.6203 -2.0339 0.9614
8.6790 -4.1546 -2.0339 0.9614
9.0129 -3.3697 -2.0339 0.9614
9.2759 -2.5584 -2.0340 0.9614
9.5819 -0.8820 -2.0340 0.9614
-0.2450 -8.6502 -2.0338 0.9651
0.5220 -8.6379 -2.0338 0.9651
1.2848 -8.5578 -2.0338 0.9651
1.4634 -6.0405 -1.4607 0.9748
1.9860 -5.8678 -1.4559 0.9749
2.5577 -5.8050 -1.4909 0.9743
3.0540 -5.5416 -1.4871 0.9743
4.8316 -7.1796 -2.0339 0.9651
6.5491 -5.6571 -2.0339 0.9651
7.0243 -5.0550 -2.0339 0.9651
7.4443 -4.4131 -2.0339 0.9651
7.8059 -3.7366 -2.0339 0.9651
8.1062 -3.0307 -2.0339 0.9651
8.5138 -1.5532 -2.0340 0.9651
8.6179 -0.7933 -2.0340 0.9651
-0.2223 -7.8519 -2.0338 0.9681
0.4738 -7.8408 -2.0338 0.9681
1.4534 -5.9990 -1.5982 0.9748
2.5977 -5.8958 -1.6681 0.9737
3.2000 -5.8066 -1.7166 0.9730
6.3760 -4.5885 -2.0339 0.9681
6.7573 -4.0058 -2.0339 0.9681
7.0855 -3.3918 -2.0339 0.9681
7.3581 -2.7510 -2.0339 0.9681
-0.2034 -7.1814 -2.0338 0.9706
1.0666 -7.1047 -2.0338 0.9706
1.4596 -6.0252 -1.7550 0.9746
1.9936 -5.8905 -1.7605 0.9745
4.0111 -5.9605 -2.0339 0.9706
5.4370 -4.6965 -2.0339 0.9706
6.4804 -3.1021 -2.0339 0.9706
6.7297 -2.5161 -2.0339 0.9706
6.9261 -1.9103 -2.0339 0.9706
-0.1871 -6.6097 -2.0338 0.9727
0.3989 -6.6004 -2.0338 0.9727
3.6919 -5.4860 -2.0339 0.9727
4.1631 -5.1375 -2.0339 0.9727
5.0042 -4.3226 -2.0339 0.9727
5.3673 -3.8625 -2.0339 0.9727
5.9646 -2.8552 -2.0339 0.9727
6.1939 -2.3158 -2.0339 0.9727
6.3747 -1.7583 -2.0339 0.9727
6.5054 -1.1869 -2.0339 0.9727
-0.1732 -6.1161 -2.0338 0.9745
0.3691 -6.1074 -2.0338 0.9745
0.9084 -6.0507 -2.0338 0.9745
1.4407 -5.9466 -2.0338 0.9745
2.4671 -5.5992 -2.0339 0.9745
3.4161 -5.0762 -2.0339 0.9745
3.8522 -4.7538 -2.0339 0.9745
4.2580 -4.3941 -2.0339 0.9745
4.9664 -3.5740 -2.0339 0.9745
5.2634 -3.1202 -2.0339 0.9745
5.5191 -2.6419 -2.0339 0.9745
6.0195 -1.0982 -2.0339 0.9745
6.0931 -0.5609 -2.0339 0.9745
-0.1610 -5.6851 -2.0338 0.9761
1.3391 -5.5275 -2.0338 0.9761
2.7451 -4.9811 -2.0339 0.9761
3.1754 -4.7185 -2.0339 0.9761
3.9579 -4.0844 -2.0339 0.9761
4.3041 -3.7179 -2.0339 0.9761
4.6164 -3.3222 -2.0339 0.9761
4.8925 -2.9004 -2.0339 0.9761
5.3275 -1.9918 -2.0339 0.9761
5.5953 -1.0208 -2.0339 0.9761
0.3202 -5.2976 -2.0338 0.9775
1.2496 -5.1581 -2.0339 0.9775
1.7015 -5.0272 -2.0339 0.9775
3.6934 -3.8114 -2.0339 0.9775
5.1164 -1.4112 -2.0339 0.9775
5.2852 -0.4865 -2.0339 0.9775
-0.1407 -4.9674 -2.0338 0.9788
0.2997 -4.9604 -2.0338 0.9788
2.0037 -4.5476 -2.0339 0.9788
3.1287 -3.8610 -2.0339 0.9788
3.7607 -3.2485 -2.0339 0.9788
4.0337 -2.9028 -2.0339 0.9788
4.4825 -2.1457 -2.0339 0.9788
4.6549 -1.7404 -2.0339 0.9788
4.7907 -1.3213 -2.0339 0.9788
4.8889 -0.8920 -2.0339 0.9787
1.0988 -4.5356 -2.0339 0.9798
1.8817 -4.2706 -2.0339 0.9798
2.2525 -4.0872 -2.0339 0.9798
2.9381 -3.6258 -2.0339 0.9798
3.2477 -3.3514 -2.0339 0.9798
3.7880 -2.7260 -2.0339 0.9798
4.0145 -2.3799 -2.0339 0.9798
4.2095 -2.0150 -2.0339 0.9798
4.5912 -0.8376 -2.0339 0.9798
4.6473 -0.4278 -2.0339 0.9798
0.2650 -4.3859 -2.0339 0.9808
0.6523 -4.3452 -2.0339 0.9808
1.0346 -4.2704 -2.0339 0.9808
2.7663 -3.4138 -2.0339 0.9808
3.0578 -3.1554 -2.0339 0.9808
3.3252 -2.8723 -2.0339 0.9808
3.5665 -2.5666 -2.0339 0.9808
3.7798 -2.2407 -2.0339 0.9808
4.3227 -0.7887 -2.0339 0.9808
-0.1174 -4.1446 -2.0339 0.9817
0.2501 -4.1388 -2.0339 0.9817
2.0013 -3.6314 -2.0339 0.9817
2.3150 -3.4400 -2.0339 0.9817
2.8855 -2.9777 -2.0339 0.9817
3.3656 -2.4219 -2.0339 0.9817
3.5668 -2.1145 -2.0339 0.9817
3.9972 -1.1025 -2.0339 0.9817
4.0791 -0.7442 -2.0339 0.9817
-0.1110 -3.9189 -2.0339 0.9825
0.9231 -3.8103 -2.0339 0.9825
1.5807 -3.5877 -2.0339 0.9825
2.1888 -3.2526 -2.0339 0.9825
2.7283 -2.8155 -2.0339 0.9825
2.9670 -2.5628 -2.0339 0.9825
3.1822 -2.2900 -2.0339 0.9825
3.5363 -1.6928 -2.0339 0.9825
2.1043 -0.3839 -1.1097 0.9904
2.0736 -0.1909 -1.0803 0.9907
1.4973 -3.3982 -2.0339 0.9832
2.0733 -3.0808 -2.0339 0.9832
2.3379 -2.8851 -2.0339 0.9832
3.0142 -2.1691 -2.0339 0.9832
3.1945 -1.8937 -2.0339 0.9832
3.3496 -1.6034 -2.0339 0.9832
3.4784 -1.3005 -2.0339 0.9832
1.8541 -0.3383 -1.0322 0.9914
1.8502 -0.1703 -1.0176 0.9916
0.2125 -3.5164 -2.0339 0.9839
0.5230 -3.4837 -2.0339 0.9839
1.1293 -3.3369 -2.0339 0.9839
1.7003 -3.0853 -2.0339 0.9839
2.2179 -2.7370 -2.0339 0.9839
2.8594 -2.0577 -2.0339 0.9839
3.0304 -1.7964 -2.0339 0.9839
3.1776 -1.5211 -2.0339 0.9839
1.7191 -0.6428 -1.0596 0.9916
1.7210 -0.1584 -0.9978 0.9920
