ply
format ascii 1.0
element vertex 167
property float32 x
property float32 y
property float32 z
property float32 I
end_header
2.5266 -6.1199 -0.6356 0.9737
-2.3086 -16.9643 -2.0337 0.9334
-0.8121 -17.1015 -2.0337 0.9334
0.6906 -17.1069 -2.0337 0.9334
2.1880 -16.9806 -2.0337 0.9334
3.6686 -16.7234 -2.0337 0.9334
1.9496 -6.2197 -0.7743 0.9741
2.4981 -6.0508 -0.7776 0.9740
3.1071 -5.9777 -0.8003 0.9732
9.1983 -14.4411 -2.0338 0.9334
10.4293 -13.5790 -2.0338 0.9334
14.4648 -9.1626 -2.0339 0.9334
15.2127 -7.8590 -2.0339 0.9334
-3.1751 -13.9978 -2.0337 0.9437
-0.6808 -14.3373 -2.0337 0.9437
0.5790 -14.3419 -2.0337 0.9437
1.9244 -6.1395 -0.9116 0.9743
3.1125 -5.9880 -0.9562 0.9731
7.7115 -12.1068 -2.0338 0.9437
10.5980 -9.6818 -2.0339 0.9437
11.4062 -8.7152 -2.0339 0.9437
12.7536 -6.5886 -2.0339 0.9437
-1.6646 -12.2325 -2.0337 0.9512
-0.5855 -12.3314 -2.0338 0.9512
0.4980 -12.3354 -2.0338 0.9512
1.5778 -12.2442 -2.0338 0.9512
2.6453 -12.0588 -2.0338 0.9512
1.8779 -5.9912 -1.0343 0.9749
2.3955 -5.8022 -1.0341 0.9749
3.0459 -5.8600 -1.0880 0.9736
9.1152 -8.3271 -2.0339 0.9512
10.4298 -6.6067 -2.0339 0.9512
-0.5132 -10.8080 -2.0338 0.9569
0.4365 -10.8115 -2.0338 0.9569
1.3828 -10.7316 -2.0338 0.9569
1.8496 -5.9009 -1.1623 0.9751
3.0407 -5.8499 -1.2392 0.9735
6.5911 -8.5817 -2.0339 0.9569
7.3182 -7.9707 -2.0339 0.9569
7.9891 -7.2983 -2.0339 0.9569
9.6139 -4.9666 -2.0339 0.9569
-2.1283 -9.3831 -2.0338 0.9614
-0.4564 -9.6107 -2.0338 0.9614
0.3881 -9.6137 -2.0338 0.9614
1.2296 -9.5427 -2.0338 0.9614
1.3903 -6.3376 -1.3715 0.9738
6.5075 -7.0876 -2.0339 0.9614
7.1039 -6.4897 -2.0339 0.9614
7.6457 -5.8419 -2.0339 0.9614
-1.1668 -8.5746 -2.0338 0.9651
-0.4105 -8.6439 -2.0338 0.9651
2.9655 -5.7054 -1.5112 0.9739
5.8528 -6.3746 -2.0339 0.9651
6.3892 -5.8369 -2.0339 0.9651
6.8765 -5.2542 -2.0339 0.9651
7.6887 -3.9721 -2.0339 0.9651
-2.4026 -7.4785 -2.0338 0.9681
-1.7376 -7.6604 -2.0338 0.9681
-1.0591 -7.7833 -2.0338 0.9681
-0.3726 -7.8462 -2.0338 0.9681
1.0039 -7.7907 -2.0338 0.9681
1.3482 -6.1460 -1.6291 0.9743
2.4669 -5.9750 -1.6737 0.9736
3.0281 -5.8257 -1.7000 0.9732
4.2201 -6.6254 -2.0339 0.9681
6.6361 -4.2036 -2.0339 0.9681
6.9791 -3.6055 -2.0339 0.9681
-1.5892 -7.0063 -2.0338 0.9706
-0.3408 -7.1762 -2.0338 0.9706
1.8382 -5.8646 -1.7399 0.9748
2.5289 -6.1252 -1.8760 0.9728
3.8597 -6.0596 -2.0339 0.9706
4.3762 -5.6979 -2.0339 0.9706
4.8590 -5.2922 -2.0339 0.9706
-1.4627 -6.4486 -2.0338 0.9727
-0.8916 -6.5520 -2.0338 0.9727
-0.3137 -6.6050 -2.0338 0.9727
1.8812 -6.0016 -1.9345 0.9740
3.0496 -5.8672 -2.0339 0.9727
3.5525 -5.5772 -2.0339 0.9727
4.4722 -4.8709 -2.0339 0.9727
4.8821 -4.4600 -2.0339 0.9727
5.5862 -3.5386 -2.0339 0.9727
-0.8250 -6.0627 -2.0338 0.9745
0.7820 -6.0684 -2.0338 0.9745
1.3111 -5.9765 -2.0338 0.9745
2.8219 -5.4290 -2.0339 0.9745
3.2871 -5.1607 -2.0339 0.9745
3.7270 -4.8526 -2.0339 0.9745
4.1382 -4.5071 -2.0339 0.9745
4.8620 -3.7149 -2.0339 0.9745
-1.7396 -5.4148 -2.0338 0.9761
-1.2581 -5.5465 -2.0338 0.9761
-0.7669 -5.6354 -2.0338 0.9761
1.2187 -5.5553 -2.0338 0.9761
2.6231 -5.0464 -2.0339 0.9761
3.8466 -4.1895 -2.0339 0.9761
4.5193 -3.4531 -2.0339 0.9761
-1.6233 -5.0529 -2.0338 0.9775
-0.7156 -5.2588 -2.0338 0.9775
0.2141 -5.3030 -2.0338 0.9775
1.1372 -5.1840 -2.0339 0.9775
1.5874 -5.0644 -2.0339 0.9775
2.0254 -4.9056 -2.0339 0.9775
3.2329 -4.2092 -2.0339 0.9775
3.9184 -3.5797 -2.0339 0.9775
4.4836 -2.8401 -2.0339 0.9775
4.7154 -2.4360 -2.0339 0.9775
-0.2357 -4.9638 -2.0338 0.9788
0.6351 -4.9287 -2.0339 0.9788
1.4863 -4.7419 -2.0339 0.9788
3.0270 -3.9412 -2.0339 0.9788
3.6690 -3.3518 -2.0339 0.9788
4.1982 -2.6593 -2.0339 0.9788
4.4152 -2.2809 -2.0339 0.9788
-1.0323 -4.5511 -2.0338 0.9798
-0.6293 -4.6241 -2.0338 0.9798
1.0000 -4.5584 -2.0339 0.9798
1.3958 -4.4532 -2.0339 0.9798
1.7809 -4.3136 -2.0339 0.9798
2.1523 -4.1408 -2.0339 0.9798
2.8426 -3.7012 -2.0339 0.9798
3.9425 -2.4974 -2.0339 0.9798
-1.3439 -4.1833 -2.0338 0.9808
-0.9720 -4.2850 -2.0338 0.9808
-0.2084 -4.3889 -2.0338 0.9808
0.1772 -4.3903 -2.0339 0.9808
0.5615 -4.3579 -2.0339 0.9808
0.9415 -4.2918 -2.0339 0.9808
2.3605 -3.7060 -2.0339 0.9808
2.6764 -3.4847 -2.0339 0.9808
3.4915 -2.6677 -2.0339 0.9808
3.9039 -2.0168 -2.0339 0.9808
-1.2682 -3.9476 -2.0338 0.9817
-0.9172 -4.0436 -2.0338 0.9817
-0.5591 -4.1085 -2.0338 0.9817
1.2402 -3.9565 -2.0339 0.9817
1.9123 -3.6790 -2.0339 0.9817
2.2276 -3.4972 -2.0339 0.9817
2.5256 -3.2884 -2.0339 0.9817
3.0613 -2.7966 -2.0339 0.9817
3.2947 -2.5174 -2.0339 0.9817
3.6839 -1.9031 -2.0339 0.9817
-1.1991 -3.7326 -2.0338 0.9825
-0.8672 -3.8234 -2.0339 0.9825
-0.1859 -3.9161 -2.0339 0.9825
2.1062 -3.3067 -2.0339 0.9825
2.6516 -2.8879 -2.0339 0.9825
2.8946 -2.6443 -2.0339 0.9825
3.3120 -2.0980 -2.0339 0.9825
1.7127 -3.2950 -2.0339 0.9832
1.9950 -3.1321 -2.0339 0.9832
2.2620 -2.9451 -2.0339 0.9832
2.9508 -2.2546 -2.0339 0.9832
3.2993 -1.7045 -2.0339 0.9832
-1.0775 -3.3539 -2.0339 0.9839
-0.7793 -3.4355 -2.0339 0.9839
0.1421 -3.5199 -2.0339 0.9839
0.4502 -3.4939 -2.0339 0.9839
0.7548 -3.4410 -2.0339 0.9839
1.0537 -3.3615 -2.0339 0.9839
1.3443 -3.2562 -2.0339 0.9839
1.6247 -3.1258 -2.0339 0.9839
1.8925 -2.9713 -2.0339 0.9839
2.1459 -2.7939 -2.0339 0.9839
2.7993 -2.1388 -2.0339 0.9839
2.9761 -1.8851 -2.0339 0.9839
