ply
format ascii 1.0
element vertex 177
property float32 x
property float32 y
property float32 z
property float32 I
end_header
-12.4186 -7.8558 -1.0775 0.9428
-16.0295 5.7689 -1.6355 0.9338
-16.1102 5.7979 -2.0338 0.9334
-16.5700 4.3106 -2.0338 0.9334
-16.7788 -3.4053 -2.0337 0.9334
-12.6053 -7.9738 -1.7718 0.9417
-12.5742 -11.6189 -2.0337 0.9334
-11.4670 -12.7129 -2.0337 0.9334
-13.5062 4.8607 -2.0338 0.9437
-13.8917 3.6140 -2.0338 0.9437
-14.2680 -1.5655 -2.0338 0.9437
-13.7493 -4.1207 -2.0337 0.9437
-13.3181 -5.3524 -2.0337 0.9437
-9.6136 -10.6581 -2.0337 0.9437
-7.5270 -12.2213 -2.0337 0.9437
-11.9481 3.1083 -2.0338 0.9512
-12.3434 -0.2264 -2.0338 0.9512
-12.2718 -1.3465 -2.0338 0.9512
-12.0987 -2.4555 -2.0338 0.9512
-11.4548 -4.6036 -2.0338 0.9512
-10.9893 -5.6249 -2.0337 0.9512
-10.4330 -6.5997 -2.0337 0.9512
-9.7905 -7.5200 -2.0337 0.9512
-9.0670 -8.3781 -2.0337 0.9512
-8.2686 -9.1670 -2.0337 0.9512
-6.4739 -10.5115 -2.0337 0.9512
-9.8066 4.5738 -2.0339 0.9569
-10.1814 3.6642 -2.0339 0.9569
-10.4720 2.7243 -2.0338 0.9569
-10.7919 0.7850 -2.0338 0.9569
-10.8186 -0.1984 -2.0338 0.9569
-10.3647 -3.1063 -2.0338 0.9569
-9.6318 -4.9300 -2.0338 0.9569
-9.1442 -5.7844 -2.0338 0.9569
-6.4874 -8.6595 -2.0337 0.9569
-5.6741 -9.2129 -2.0337 0.9569
-8.7200 4.0671 -2.0339 0.9614
-9.0533 3.2582 -2.0339 0.9614
-9.4933 1.5667 -2.0338 0.9614
-9.5963 0.6980 -2.0338 0.9614
-9.6200 -0.1764 -2.0338 0.9614
-9.4293 -1.9137 -2.0338 0.9614
-8.5647 -4.3838 -2.0338 0.9614
-8.1311 -5.1436 -2.0338 0.9614
-7.6304 -5.8608 -2.0338 0.9614
-6.4443 -7.1444 -2.0338 0.9614
-5.0455 -8.1923 -2.0338 0.9614
-8.1426 2.9304 -2.0339 0.9651
-8.6310 0.6278 -2.0338 0.9651
-8.6523 -0.1587 -2.0338 0.9651
-8.6020 -0.9439 -2.0338 0.9651
-8.4807 -1.7212 -2.0338 0.9651
-8.0294 -3.2269 -2.0338 0.9651
-7.7032 -3.9428 -2.0338 0.9651
-6.3557 -5.8728 -2.0338 0.9651
-5.7960 -6.4257 -2.0338 0.9651
-5.1884 -6.9256 -2.0338 0.9651
-4.5380 -7.3682 -2.0338 0.9651
-7.1190 3.3203 -2.0339 0.9681
-7.3912 2.6600 -2.0339 0.9681
-7.7504 1.2790 -2.0338 0.9681
-7.6981 -1.5624 -2.0338 0.9681
-6.9923 -3.5790 -2.0338 0.9681
-5.7692 -5.3308 -2.0338 0.9681
-4.1192 -6.6883 -2.0338 0.9681
-6.9530 1.8088 -2.0339 0.9706
-7.1654 0.5212 -2.0338 0.9706
-7.1414 -0.7836 -2.0338 0.9706
-6.8818 -2.0625 -2.0338 0.9706
-6.0714 -3.8407 -2.0338 0.9706
-5.2765 -4.8756 -2.0338 0.9706
-4.8118 -5.3347 -2.0338 0.9706
-4.3075 -5.7497 -2.0338 0.9706
-6.3995 1.6648 -2.0339 0.9727
-6.5242 1.0767 -2.0339 0.9727
-6.5950 0.4797 -2.0338 0.9727
-6.6113 -0.1212 -2.0338 0.9727
-6.5729 -0.7212 -2.0338 0.9727
-6.4803 -1.3152 -2.0338 0.9727
-6.3340 -1.8983 -2.0338 0.9727
-6.1354 -2.4657 -2.0338 0.9727
-5.2440 -4.0279 -2.0338 0.9727
-4.4289 -4.9100 -2.0338 0.9727
-3.4676 -5.6302 -2.0338 0.9727
-5.5452 2.5863 -2.0339 0.9745
-6.1025 0.4439 -2.0339 0.9745
-6.0820 -0.6673 -2.0338 0.9745
-5.9962 -1.2170 -2.0338 0.9745
-5.8609 -1.7566 -2.0338 0.9745
-4.8523 -3.7270 -2.0338 0.9745
-4.0981 -4.5433 -2.0338 0.9745
-3.6685 -4.8967 -2.0338 0.9745
-5.1544 2.4040 -2.0339 0.9761
-5.3514 1.9259 -2.0339 0.9761
-5.5042 1.4319 -2.0339 0.9761
-5.6115 0.9261 -2.0339 0.9761
-5.6724 0.4126 -2.0339 0.9761
-5.6864 -0.1043 -2.0339 0.9761
-5.5737 -1.1312 -2.0338 0.9761
-5.4479 -1.6328 -2.0338 0.9761
-5.2771 -2.1208 -2.0338 0.9761
-5.0626 -2.5913 -2.0338 0.9761
-4.8064 -3.0404 -2.0338 0.9761
-4.1771 -3.8597 -2.0338 0.9761
-3.4100 -4.5517 -2.0338 0.9761
-4.8100 2.2433 -2.0339 0.9775
-5.2365 0.8642 -2.0339 0.9775
-5.3064 -0.0973 -2.0339 0.9775
-5.2756 -0.5789 -2.0338 0.9775
-5.2012 -1.0556 -2.0338 0.9775
-5.0838 -1.5237 -2.0338 0.9775
-4.2090 -3.2329 -2.0338 0.9775
-3.8979 -3.6018 -2.0338 0.9775
-3.5547 -3.9409 -2.0338 0.9775
-3.1821 -4.2475 -2.0338 0.9775
-2.7832 -4.5189 -2.0338 0.9775
-4.8093 1.2512 -2.0339 0.9788
-2.1198 0.1542 -0.8699 0.9909
-2.1118 -0.2318 -0.8695 0.9909
-2.1218 -0.4306 -0.8861 0.9907
-4.7602 -1.4267 -2.0338 0.9788
-4.1996 -2.6566 -2.0338 0.9788
-3.3284 -3.6900 -2.0338 0.9788
-4.3911 1.5803 -2.0339 0.9798
-1.9425 0.5053 -0.8747 0.9913
-1.9049 0.3143 -0.8414 0.9916
-1.9156 0.1393 -0.8371 0.9917
-1.9188 -0.0352 -0.8364 0.9917
-1.9084 -0.2094 -0.8367 0.9917
-4.3301 -1.7402 -2.0338 0.9798
-4.1542 -2.1263 -2.0338 0.9798
-3.7010 -2.8427 -2.0338 0.9798
-2.7980 -3.7349 -2.0338 0.9798
-1.8133 0.6526 -0.8921 0.9915
-1.6111 0.2658 -0.7558 0.9928
-1.5766 -0.0289 -0.7299 0.9931
-1.5393 -0.4614 -0.7438 0.9929
-3.9113 -2.0020 -2.0338 0.9808
-3.7133 -2.3489 -2.0338 0.9808
-3.2271 -2.9819 -2.0338 0.9808
-2.9429 -3.2627 -2.0338 0.9808
-2.6345 -3.5165 -2.0338 0.9808
-3.7577 1.7526 -2.0339 0.9817
-1.2655 0.4554 -0.6597 0.9940
-1.3446 0.2219 -0.6685 0.9939
-1.3532 -0.1485 -0.6678 0.9940
-1.3332 -0.2706 -0.6673 0.9940
-1.7316 -0.6960 -0.9154 0.9917
-3.6909 -1.8892 -2.0338 0.9817
-3.5040 -2.2166 -2.0338 0.9817
-2.7771 -3.0788 -2.0338 0.9817
-2.4860 -3.3183 -2.0338 0.9817
-3.5531 1.6572 -2.0339 0.9825
-1.1326 0.4076 -0.6245 0.9946
-1.1632 0.3026 -0.6235 0.9946
-1.2002 0.0873 -0.6243 0.9946
-1.1950 -0.0220 -0.6200 0.9946
-1.1998 -0.1317 -0.6262 0.9946
-3.3132 -2.0959 -2.0338 0.9825
-0.9928 0.4630 -0.6000 0.9950
-1.0419 0.2710 -0.5896 0.9951
-1.0689 0.1764 -0.5933 0.9951
-1.0783 -0.0198 -0.5907 0.9951
-1.0591 -0.2150 -0.5919 0.9951
-1.0126 -0.4070 -0.5977 0.9950
-2.4872 -2.7574 -2.0338 0.9832
-2.2265 -2.9720 -2.0338 0.9832
-1.9473 -3.1619 -2.0338 0.9832
-0.9608 0.2499 -0.5732 0.9954
-0.9808 0.1618 -0.5739 0.9954
-0.9895 0.0719 -0.5728 0.9954
-0.9897 -0.0182 -0.5715 0.9954
-0.9873 -0.1084 -0.5734 0.9954
-0.9744 -0.1978 -0.5740 0.9954
-2.5873 -2.3907 -2.0339 0.9839
-2.3595 -2.6158 -2.0339 0.9839
-2.1121 -2.8193 -2.0339 0.9839
