ply
format ascii 1.0
element vertex 193
property float32 x
property float32 y
property float32 z
property float32 I
end_header
-12.9043 -7.7923 -1.4472 0.9412
-11.2021 -8.2380 -1.3350 0.9457
-17.1211 0.0306 -2.0338 0.9334
-17.0532 -1.5227 -2.0337 0.9334
-16.4972 -4.5787 -2.0337 0.9334
-15.3982 -7.4840 -2.0337 0.9334
-13.0359 -7.8718 -1.8089 0.9405
-11.2422 -8.2675 -1.6576 0.9453
-12.8154 -11.3523 -2.0337 0.9334
-7.9439 -15.1658 -2.0337 0.9334
-6.5354 -15.8239 -2.0337 0.9334
-3.5688 -16.7445 -2.0337 0.9334
-14.3537 0.0256 -2.0338 0.9437
-14.2968 -1.2766 -2.0338 0.9437
-14.1220 -2.5682 -2.0338 0.9437
-13.4254 -5.0774 -2.0337 0.9437
-12.9094 -6.2744 -2.0337 0.9437
-10.7441 -9.5173 -2.0337 0.9437
-5.4791 -13.2664 -2.0337 0.9437
-2.9920 -14.0381 -2.0337 0.9437
-1.7061 -14.2517 -2.0337 0.9437
-12.3455 0.0221 -2.0338 0.9512
-12.2965 -1.0979 -2.0338 0.9512
-11.8957 -3.3016 -2.0338 0.9512
-11.5471 -4.3671 -2.0338 0.9512
-10.5679 -6.3815 -2.0337 0.9512
-9.9454 -7.3138 -2.0337 0.9512
-9.2409 -8.1859 -2.0337 0.9512
-7.6098 -9.7208 -2.0337 0.9512
-6.6966 -10.3710 -2.0337 0.9512
-4.7125 -11.4104 -2.0337 0.9512
-10.8204 0.0193 -2.0338 0.9569
-10.7775 -0.9623 -2.0338 0.9569
-10.6457 -1.9360 -2.0338 0.9569
-10.4261 -2.8937 -2.0338 0.9569
-10.1206 -3.8276 -2.0338 0.9569
-9.7316 -4.7299 -2.0338 0.9569
-8.7168 -6.4103 -2.0338 0.9569
-7.4151 -7.8797 -2.0337 0.9569
-3.2061 -10.3342 -2.0338 0.9569
-1.2862 -10.7435 -2.0338 0.9569
-9.5804 0.8900 -2.0338 0.9614
-9.6216 0.0172 -2.0338 0.9614
-9.4662 -1.7215 -2.0338 0.9614
-9.2710 -2.5731 -2.0338 0.9614
-8.6535 -4.2059 -2.0338 0.9614
-8.2362 -4.9735 -2.0338 0.9614
-7.7511 -5.7002 -2.0338 0.9614
-7.2020 -6.3798 -2.0338 0.9614
-6.5936 -7.0068 -2.0338 0.9614
-5.9308 -7.5761 -2.0338 0.9614
-4.4644 -8.5230 -2.0338 0.9614
-3.6728 -8.8928 -2.0338 0.9614
-2.8509 -9.1893 -2.0338 0.9614
-2.0056 -9.4101 -2.0338 0.9614
-1.1437 -9.5533 -2.0338 0.9614
-8.6537 0.0154 -2.0338 0.9651
-8.6194 -0.7696 -2.0338 0.9651
-8.5140 -1.5484 -2.0338 0.9651
-7.7830 -3.7828 -2.0338 0.9651
-6.9714 -5.1268 -2.0338 0.9651
-6.4776 -5.7380 -2.0338 0.9651
-4.6941 -7.2697 -2.0338 0.9651
-1.8038 -8.4635 -2.0338 0.9651
-1.0286 -8.5923 -2.0338 0.9651
-7.7283 -1.4054 -2.0338 0.9681
-7.3471 -2.7787 -2.0338 0.9681
-7.0648 -3.4337 -2.0338 0.9681
-6.7242 -4.0604 -2.0338 0.9681
-6.3281 -4.6537 -2.0338 0.9681
-5.3831 -5.7204 -2.0338 0.9681
-4.2609 -6.5989 -2.0338 0.9681
-3.6448 -6.9582 -2.0338 0.9681
-2.9985 -7.2602 -2.0338 0.9681
-2.3275 -7.5023 -2.0338 0.9681
-7.1843 0.0128 -2.0338 0.9706
-7.1558 -0.6390 -2.0338 0.9706
-6.9225 -1.9213 -2.0338 0.9706
-6.7197 -2.5414 -2.0338 0.9706
-6.1500 -3.7137 -2.0338 0.9706
-5.7877 -4.2563 -2.0338 0.9706
-3.8971 -6.0354 -2.0338 0.9706
-3.3335 -6.3640 -2.0338 0.9706
-2.7424 -6.6402 -2.0338 0.9706
-2.1288 -6.8616 -2.0338 0.9706
-1.4975 -7.0264 -2.0338 0.9706
-6.5841 0.6116 -2.0339 0.9727
-6.5057 -1.1831 -2.0338 0.9727
-5.6604 -3.4181 -2.0338 0.9727
-5.3270 -3.9175 -2.0338 0.9727
-4.5315 -4.8155 -2.0338 0.9727
-4.0760 -5.2067 -2.0338 0.9727
-3.5869 -5.5550 -2.0338 0.9727
-2.5242 -6.1116 -2.0338 0.9727
-1.9593 -6.3154 -2.0338 0.9727
-1.3784 -6.4671 -2.0338 0.9727
-5.8956 -1.6363 -2.0338 0.9745
-5.7229 -2.1644 -2.0338 0.9745
-5.5029 -2.6746 -2.0338 0.9745
-4.9291 -3.6249 -2.0338 0.9745
-4.1930 -4.4558 -2.0338 0.9745
-3.7716 -4.8178 -2.0338 0.9745
-3.3190 -5.1401 -2.0338 0.9745
-2.8390 -5.4200 -2.0338 0.9745
-1.8130 -5.8437 -2.0338 0.9745
-1.2754 -5.9841 -2.0338 0.9745
-0.7273 -6.0751 -2.0338 0.9745
-5.6630 0.5260 -2.0339 0.9761
-5.6873 0.0102 -2.0339 0.9761
-5.6648 -0.5058 -2.0338 0.9761
-5.5956 -1.0176 -2.0338 0.9761
-5.4802 -1.5210 -2.0338 0.9761
-5.3196 -2.0119 -2.0338 0.9761
-4.2572 -3.7711 -2.0338 0.9761
-3.5057 -4.4783 -2.0338 0.9761
-1.1855 -5.5624 -2.0338 0.9761
-0.6760 -5.6470 -2.0338 0.9761
-5.2863 -0.4720 -2.0338 0.9775
-5.1139 -1.4194 -2.0338 0.9775
-4.9641 -1.8774 -2.0338 0.9775
-4.5432 -2.7434 -2.0338 0.9775
-4.2756 -3.1443 -2.0338 0.9775
-3.9727 -3.5192 -2.0338 0.9775
-3.2715 -4.1790 -2.0338 0.9775
-2.4626 -4.7013 -2.0338 0.9775
-1.5726 -5.0689 -2.0338 0.9775
-1.1063 -5.1907 -2.0338 0.9775
-0.6309 -5.2696 -2.0338 0.9775
-2.1161 0.1965 -0.8698 0.9909
-2.1212 0.0037 -0.8681 0.9909
-2.1198 -0.3855 -0.8818 0.9907
-4.7883 -1.3290 -2.0338 0.9788
-4.6480 -1.7579 -2.0338 0.9788
-4.4694 -2.1723 -2.0338 0.9788
-4.2539 -2.5688 -2.0338 0.9788
-3.4055 -3.6189 -2.0338 0.9788
-3.0632 -3.9129 -2.0338 0.9788
-1.8970 -4.5930 -2.0338 0.9788
-1.0359 -4.8602 -2.0338 0.9788
-1.9129 -0.1708 -0.8370 0.9917
-1.9052 -0.3465 -0.8439 0.9916
-4.1972 -2.0400 -2.0338 0.9798
-3.7596 -2.7648 -2.0338 0.9798
-3.4933 -3.0944 -2.0338 0.9798
-2.5314 -3.9204 -2.0338 0.9798
-2.1654 -4.1339 -2.0338 0.9798
-1.7814 -4.3134 -2.0338 0.9798
-1.3828 -4.4572 -2.0338 0.9798
-1.6047 -0.1433 -0.7458 0.9929
-1.6072 -0.2923 -0.7562 0.9928
-1.5559 -0.4319 -0.7475 0.9929
-3.9518 -1.9207 -2.0338 0.9808
-3.7613 -2.2713 -2.0338 0.9808
-3.5397 -2.6031 -2.0338 0.9808
-3.2889 -2.9135 -2.0338 0.9808
-2.7084 -3.4598 -2.0338 0.9808
-2.0387 -3.8922 -2.0338 0.9808
-0.9159 -4.2973 -2.0338 0.9808
-0.5223 -4.3627 -2.0338 0.9808
-1.3351 0.0023 -0.6549 0.9941
-1.2585 -0.4760 -0.6600 0.9940
-3.5493 -2.1433 -2.0338 0.9817
-3.3402 -2.4564 -2.0338 0.9817
-3.1036 -2.7493 -2.0338 0.9817
-2.8414 -3.0195 -2.0338 0.9817
-2.5559 -3.2649 -2.0338 0.9817
-1.5827 -3.8323 -2.0338 0.9817
-1.2286 -3.9601 -2.0338 0.9817
-0.4929 -4.1169 -2.0339 0.9817
-1.1921 0.0021 -0.6184 0.9946
-3.5260 -1.7138 -2.0339 0.9825
-2.9346 -2.5996 -2.0338 0.9825
-2.1266 -3.2936 -2.0338 0.9825
-1.1617 -3.7444 -2.0338 0.9825
-1.0798 0.1003 -0.5940 0.9951
-1.0801 -0.0965 -0.5939 0.9951
-1.0387 -0.2883 -0.5904 0.9951
-2.7796 -2.4623 -2.0338 0.9832
-2.5448 -2.7043 -2.0338 0.9832
-2.0144 -3.1196 -2.0338 0.9832
-1.4175 -3.4322 -2.0338 0.9832
-1.1004 -3.5467 -2.0339 0.9832
-0.7741 -3.6319 -2.0339 0.9832
-0.4414 -3.6871 -2.0339 0.9832
-0.9885 0.0918 -0.5732 0.9954
-0.9890 0.0017 -0.5710 0.9954
-2.8379 -2.0871 -2.0339 0.9839
-2.4141 -2.5654 -2.0339 0.9839
-2.1714 -2.7739 -2.0339 0.9839
-1.6346 -3.1206 -2.0339 0.9839
-1.0438 -3.3646 -2.0339 0.9839
-0.7343 -3.4454 -2.0339 0.9839
-0.4188 -3.4978 -2.0339 0.9839
