ply
format ascii 1.0
element vertex 200
property float32 x
property float32 y
property float32 z
property float32 I
end_header
16.5377 -3.8423 -0.8610 0.9343
13.6991 9.0482 -0.8326 0.9364
16.2780 -3.7819 -1.2253 0.9352
16.1979 -3.7633 -1.5965 0.9354
13.3372 8.8093 -1.5345 0.9378
13.3204 -10.7584 -2.0339 0.9334
14.2357 -9.5146 -2.0339 0.9334
16.2619 -5.3621 -2.0340 0.9334
16.4416 -3.8200 -2.0051 0.9343
16.9605 -2.3566 -2.0340 0.9333
17.1040 -0.8189 -2.0340 0.9333
17.1084 0.7256 -2.0341 0.9333
16.2918 5.2736 -2.0341 0.9333
15.7505 6.7201 -2.0341 0.9333
15.0810 8.1119 -2.0341 0.9333
12.3631 11.8490 -2.0341 0.9333
11.1672 -9.0193 -2.0339 0.9437
11.9345 -7.9766 -2.0339 0.9437
12.6048 -6.8689 -2.0339 0.9437
13.1725 -5.7053 -2.0339 0.9437
13.6331 -4.4953 -2.0340 0.9437
13.9828 -3.2487 -2.0340 0.9437
14.2188 -1.9756 -2.0340 0.9437
14.3391 -0.6865 -2.0340 0.9437
14.3427 0.6083 -2.0340 0.9437
14.0008 3.1725 -2.0341 0.9437
13.6581 4.4211 -2.0341 0.9437
12.6430 6.8005 -2.0341 0.9437
11.9789 7.9121 -2.0341 0.9437
12.0263 -2.7941 -2.0340 0.9512
12.3327 -0.5904 -2.0340 0.9512
12.3358 0.5231 -2.0340 0.9512
11.7470 3.8024 -2.0340 0.9512
10.8739 5.8489 -2.0341 0.9512
10.3027 6.8049 -2.0341 0.9512
8.9142 8.5435 -2.0341 0.9512
8.4181 -6.7990 -2.0339 0.9569
8.9965 -6.0129 -2.0339 0.9569
9.9297 -4.3008 -2.0339 0.9569
10.5405 -2.4489 -2.0340 0.9569
10.7184 -1.4893 -2.0340 0.9569
10.5539 2.3914 -2.0340 0.9569
10.2956 3.3326 -2.0340 0.9569
9.0298 5.9642 -2.0340 0.9569
7.8128 7.4879 -2.0341 0.9569
6.9102 -6.6956 -2.0339 0.9614
8.4490 -4.6043 -2.0339 0.9614
8.8295 -3.8243 -2.0339 0.9614
9.6114 -0.4601 -2.0340 0.9614
9.5380 1.2723 -2.0340 0.9614
9.3846 2.1265 -2.0340 0.9614
9.1549 2.9634 -2.0340 0.9614
8.8507 3.7762 -2.0340 0.9614
8.4745 4.5583 -2.0340 0.9614
8.0293 5.3033 -2.0340 0.9614
7.5188 6.0052 -2.0340 0.9614
6.9471 6.6583 -2.0340 0.9614
6.2151 -6.0220 -2.0339 0.9651
7.5991 -4.1411 -2.0339 0.9651
7.9413 -3.4396 -2.0339 0.9651
8.4298 -1.9585 -2.0340 0.9651
8.5720 -1.1910 -2.0340 0.9651
8.4405 1.9125 -2.0340 0.9651
8.2339 2.6653 -2.0340 0.9651
7.9603 3.3963 -2.0340 0.9651
7.6219 4.0997 -2.0340 0.9651
7.2215 4.7698 -2.0340 0.9651
5.6415 -5.4663 -2.0339 0.9681
7.2084 -3.1221 -2.0339 0.9681
7.4605 -2.4600 -2.0339 0.9681
7.8466 -0.3757 -2.0340 0.9681
7.8486 0.3328 -2.0340 0.9681
7.7868 1.0387 -2.0340 0.9681
7.4739 2.4193 -2.0340 0.9681
7.2256 3.0828 -2.0340 0.9681
6.9184 3.7213 -2.0340 0.9681
6.1382 4.9026 -2.0340 0.9681
5.6716 5.4357 -2.0340 0.9681
5.1598 -4.9995 -2.0339 0.9706
5.5893 -4.5142 -2.0339 0.9706
7.1766 -0.3436 -2.0340 0.9706
7.1218 0.9499 -2.0340 0.9706
6.8357 2.2127 -2.0340 0.9706
6.6085 2.8196 -2.0340 0.9706
6.3276 3.4035 -2.0340 0.9706
5.6141 4.4839 -2.0340 0.9706
5.1872 4.9715 -2.0340 0.9706
4.7490 -4.6015 -2.0339 0.9727
5.1443 -4.1549 -2.0339 0.9727
5.4977 -3.6745 -2.0339 0.9727
5.8065 -3.1642 -2.0339 0.9727
6.0680 -2.6282 -2.0339 0.9727
6.2802 -2.0708 -2.0339 0.9727
6.4412 -1.4965 -2.0339 0.9727
6.5498 -0.9101 -2.0339 0.9727
6.6052 -0.3162 -2.0340 0.9727
6.6069 0.2802 -2.0340 0.9727
6.4493 1.4614 -2.0340 0.9727
6.2915 2.0365 -2.0340 0.9727
5.5179 3.6446 -2.0340 0.9727
4.7743 4.5757 -2.0340 0.9727
4.3943 -4.2578 -2.0339 0.9745
4.7601 -3.8446 -2.0339 0.9745
5.0871 -3.4001 -2.0339 0.9745
5.3728 -2.9279 -2.0339 0.9745
5.6148 -2.4319 -2.0339 0.9745
5.8111 -1.9161 -2.0339 0.9745
6.0607 -0.8421 -2.0339 0.9745
6.1119 -0.2926 -2.0339 0.9745
6.1134 0.2592 -2.0340 0.9745
5.3889 2.8986 -2.0340 0.9745
4.0846 -3.9578 -2.0339 0.9761
4.4246 -3.5736 -2.0339 0.9761
4.7286 -3.1604 -2.0339 0.9761
4.9942 -2.7215 -2.0339 0.9761
5.4016 -1.7811 -2.0339 0.9761
5.5401 -1.2871 -2.0339 0.9761
5.6812 -0.2720 -2.0339 0.9761
5.6825 0.2410 -2.0340 0.9761
5.5471 1.2569 -2.0340 0.9761
4.7460 3.1347 -2.0340 0.9761
3.8116 -3.6932 -2.0339 0.9775
4.1289 -3.3348 -2.0339 0.9775
4.6604 -2.5397 -2.0339 0.9775
4.8703 -2.1094 -2.0339 0.9775
5.0405 -1.6621 -2.0339 0.9775
5.1698 -1.2012 -2.0339 0.9775
5.2571 -0.7304 -2.0339 0.9775
5.3014 -0.2538 -2.0339 0.9775
5.3028 0.2249 -2.0339 0.9775
4.6743 2.5143 -2.0340 0.9775
4.4288 2.9252 -2.0340 0.9775
4.1472 3.3123 -2.0340 0.9775
3.8319 3.6725 -2.0340 0.9775
3.5689 -3.4581 -2.0339 0.9788
3.8660 -3.1225 -2.0339 0.9788
4.1317 -2.7615 -2.0339 0.9788
4.8407 -1.1247 -2.0339 0.9788
4.9223 -0.6840 -2.0339 0.9788
4.9639 -0.2377 -2.0339 0.9788
4.9261 0.6571 -2.0340 0.9787
4.8468 1.0982 -2.0340 0.9787
4.1468 2.7389 -2.0340 0.9787
3.8832 3.1014 -2.0340 0.9787
3.3516 -3.2475 -2.0339 0.9798
4.0979 -2.2331 -2.0339 0.9798
4.4322 -1.4615 -2.0339 0.9798
4.5459 -1.0562 -2.0339 0.9798
4.6225 -0.6423 -2.0339 0.9798
4.6616 -0.2232 -2.0339 0.9798
4.6628 0.1977 -2.0339 0.9798
4.6260 0.6171 -2.0339 0.9798
4.2926 1.8315 -2.0340 0.9798
4.1102 2.2108 -2.0340 0.9798
3.4183 -2.7608 -2.0339 0.9808
4.1730 -1.3760 -2.0339 0.9808
4.2800 -0.9944 -2.0339 0.9808
4.3522 -0.6047 -2.0339 0.9808
4.3901 0.1862 -2.0339 0.9808
4.1805 1.3532 -2.0340 0.9808
3.8698 2.0815 -2.0340 0.9808
3.4334 2.7422 -2.0340 0.9808
2.9779 -2.8853 -2.0339 0.9817
3.2257 -2.6053 -2.0339 0.9817
3.9379 -1.2985 -2.0339 0.9817
4.1417 -0.1983 -2.0339 0.9817
4.1428 0.1756 -2.0339 0.9817
4.1101 0.5482 -2.0339 0.9817
4.0440 0.9163 -2.0339 0.9817
3.2400 2.5877 -2.0340 0.9817
3.0500 -2.4634 -2.0339 0.9825
3.2596 -2.1786 -2.0339 0.9825
3.5977 -1.5582 -2.0339 0.9825
2.0936 -0.2909 -1.0965 0.9905
2.0780 -0.0995 -1.0792 0.9907
3.7301 1.2074 -2.0339 0.9825
3.6062 1.5386 -2.0339 0.9825
3.4528 1.8572 -2.0340 0.9825
3.2715 2.1608 -2.0340 0.9825
2.8305 2.7128 -2.0340 0.9825
2.8889 -2.3333 -2.0339 0.9832
3.0875 -2.0635 -2.0339 0.9832
3.4077 -1.4759 -2.0339 0.9832
1.8918 -0.6238 -1.0910 0.9910
1.8528 -0.0887 -1.0159 0.9916
1.8527 0.0786 -1.0157 0.9916
1.8448 0.2461 -1.0193 0.9915
1.8575 0.4209 -1.0431 0.9914
1.8882 0.6112 -1.0870 0.9910
3.0987 2.0467 -2.0340 0.9832
2.7406 -2.2135 -2.0339 0.9839
3.0934 -1.6857 -2.0339 0.9839
1.7707 -0.7670 -1.1141 0.9911
1.7238 -0.5684 -1.0479 0.9917
1.7148 -0.3984 -1.0164 0.9919
1.7133 -0.2381 -0.9987 0.9920
1.7236 -0.0825 -0.9963 0.9921
3.1026 1.6688 -2.0339 0.9839
2.9396 1.9416 -2.0339 0.9839
2.5434 2.4376 -2.0339 0.9839
