ply
format ascii 1.0
element vertex 192
property float32 x
property float32 y
property float32 z
property float32 I
end_header
-12.9368 -8.1032 -1.1193 0.9406
-12.5527 -7.8627 -1.4220 0.9422
-16.8024 -3.2869 -2.0337 0.9334
-16.4312 -4.8101 -2.0337 0.9334
-15.9222 -6.2929 -2.0337 0.9334
-12.8097 -8.0236 -1.7955 0.9409
-11.3072 -8.6170 -1.6887 0.9443
-8.9954 -14.5668 -2.0337 0.9334
-7.6252 -15.3285 -2.0337 0.9334
-4.7052 -16.4613 -2.0337 0.9334
-1.6275 -17.0431 -2.0337 0.9334
-0.0618 -17.1207 -2.0337 0.9334
1.5046 -17.0547 -2.0337 0.9334
3.0583 -16.8457 -2.0337 0.9334
-13.7754 -4.0326 -2.0337 0.9437
-13.3487 -5.2757 -2.0337 0.9437
-12.8101 -6.4746 -2.0337 0.9437
-10.5724 -9.7077 -2.0337 0.9437
-7.5415 -12.2123 -2.0337 0.9437
-5.1905 -13.3820 -2.0337 0.9437
-3.9446 -13.8006 -2.0337 0.9437
-2.6657 -14.1037 -2.0337 0.9437
-1.3645 -14.2885 -2.0337 0.9437
-0.0517 -14.3534 -2.0337 0.9437
1.2614 -14.2980 -2.0338 0.9437
-12.1157 -2.3701 -2.0338 0.9512
-11.8481 -3.4684 -2.0338 0.9512
-10.4623 -6.5533 -2.0337 0.9512
-9.8189 -7.4828 -2.0337 0.9512
1.0849 -12.2977 -2.0338 0.9512
-10.6189 -2.0773 -2.0338 0.9569
-10.3844 -3.0399 -2.0338 0.9569
-10.0628 -3.9771 -2.0338 0.9569
-7.9699 -7.3181 -2.0338 0.9569
-7.2671 -8.0164 -2.0337 0.9569
-5.6851 -9.2062 -2.0337 0.9569
-4.8191 -9.6877 -2.0338 0.9569
-3.9129 -10.0879 -2.0338 0.9569
-2.9736 -10.4035 -2.0338 0.9569
-2.0095 -10.6320 -2.0338 0.9569
-0.0390 -10.8202 -2.0338 0.9569
0.9509 -10.7784 -2.0338 0.9569
1.9329 -10.6463 -2.0338 0.9569
-8.5869 -4.3401 -2.0338 0.9614
-8.1539 -5.1074 -2.0338 0.9614
-4.2852 -8.6144 -2.0338 0.9614
-3.4793 -8.9703 -2.0338 0.9614
-1.7869 -9.4541 -2.0338 0.9614
-0.0347 -9.6214 -2.0338 0.9614
0.8455 -9.5844 -2.0338 0.9614
-8.0479 -3.1807 -2.0338 0.9651
-7.7232 -3.9035 -2.0338 0.9651
-7.3337 -4.5936 -2.0338 0.9651
-6.8827 -5.2452 -2.0338 0.9651
-5.2012 -6.9160 -2.0338 0.9651
-4.5467 -7.3628 -2.0338 0.9651
-3.1294 -8.0679 -2.0338 0.9651
-2.3782 -8.3204 -2.0338 0.9651
-0.8227 -8.6145 -2.0338 0.9651
-0.0312 -8.6536 -2.0338 0.9651
0.7605 -8.6202 -2.0338 0.9651
1.5458 -8.5145 -2.0338 0.9651
-7.3052 -2.8872 -2.0338 0.9681
-7.0105 -3.5433 -2.0338 0.9681
-6.6569 -4.1697 -2.0338 0.9681
-6.2476 -4.7611 -2.0338 0.9681
-5.7859 -5.3127 -2.0338 0.9681
-5.2757 -5.8196 -2.0338 0.9681
-4.7212 -6.2778 -2.0338 0.9681
-3.4985 -7.0329 -2.0338 0.9681
-2.8406 -7.3234 -2.0338 0.9681
-2.1588 -7.5525 -2.0338 0.9681
-1.4589 -7.7184 -2.0338 0.9681
-0.7467 -7.8195 -2.0338 0.9681
-0.0283 -7.8550 -2.0338 0.9681
-7.0507 -1.3793 -2.0338 0.9706
-6.8949 -2.0184 -2.0338 0.9706
-6.6813 -2.6406 -2.0338 0.9706
-6.0885 -3.8137 -2.0338 0.9706
-5.7141 -4.3546 -2.0338 0.9706
-5.2918 -4.8590 -2.0338 0.9706
-4.8252 -5.3227 -2.0338 0.9706
-3.7747 -6.1127 -2.0338 0.9706
-1.9744 -6.9076 -2.0338 0.9706
-1.3343 -7.0593 -2.0338 0.9706
-0.0259 -7.1843 -2.0338 0.9706
0.6314 -7.1565 -2.0338 0.9706
1.2833 -7.0688 -2.0338 0.9706
-6.4894 -1.2695 -2.0338 0.9727
-6.3460 -1.8577 -2.0338 0.9727
-5.2592 -4.0079 -2.0338 0.9727
-4.4411 -4.8990 -2.0338 0.9727
-3.9744 -5.2847 -2.0338 0.9727
-3.4743 -5.6260 -2.0338 0.9727
-2.9451 -5.9203 -2.0338 0.9727
-2.3912 -6.1648 -2.0338 0.9727
-1.8172 -6.3578 -2.0338 0.9727
-0.6286 -6.5825 -2.0338 0.9727
0.5811 -6.5868 -2.0338 0.9727
1.1812 -6.5061 -2.0338 0.9727
-5.8721 -1.7190 -2.0338 0.9745
-5.4606 -2.7600 -2.0338 0.9745
-5.1853 -3.2479 -2.0338 0.9745
-4.8665 -3.7086 -2.0338 0.9745
-4.5068 -4.1382 -2.0338 0.9745
-2.7251 -5.4781 -2.0338 0.9745
-1.6816 -5.8829 -2.0338 0.9745
-0.5816 -6.0908 -2.0338 0.9745
-0.0221 -6.1185 -2.0338 0.9745
0.5377 -6.0949 -2.0338 0.9745
1.0929 -6.0202 -2.0338 0.9745
-4.8199 -3.0190 -2.0338 0.9761
-4.5235 -3.4472 -2.0338 0.9761
-3.4183 -4.5454 -2.0338 0.9761
-2.9882 -4.8390 -2.0338 0.9761
-2.5330 -5.0921 -2.0338 0.9761
-1.0563 -5.5884 -2.0338 0.9761
1.0159 -5.5959 -2.0338 0.9761
-5.2086 -1.0189 -2.0338 0.9775
-5.0935 -1.4911 -2.0338 0.9775
-4.4977 -2.8173 -2.0338 0.9775
-4.2212 -3.2169 -2.0338 0.9775
-3.9092 -3.5895 -2.0338 0.9775
-3.5645 -3.9321 -2.0338 0.9775
-3.1899 -4.2416 -2.0338 0.9775
-2.7885 -4.5156 -2.0338 0.9775
-1.4586 -5.1029 -2.0338 0.9775
-0.0191 -5.3072 -2.0338 0.9775
0.4664 -5.2868 -2.0338 0.9775
0.9480 -5.2220 -2.0339 0.9775
-2.1215 -0.4151 -0.8847 0.9907
-4.7692 -1.3962 -2.0338 0.9788
-4.4351 -2.2417 -2.0338 0.9788
-4.2114 -2.6379 -2.0338 0.9788
-3.3376 -3.6817 -2.0338 0.9788
-2.6110 -4.2281 -2.0338 0.9788
-2.2133 -4.4493 -2.0338 0.9788
-0.4724 -4.9469 -2.0338 0.9788
-0.0180 -4.9694 -2.0338 0.9788
0.4367 -4.9502 -2.0338 0.9788
-1.9048 -0.3727 -0.8459 0.9916
-4.3400 -1.7153 -2.0338 0.9798
-3.9550 -2.4773 -2.0338 0.9798
-3.4374 -3.1563 -2.0338 0.9798
-2.8049 -3.7297 -2.0338 0.9798
-2.4520 -3.9706 -2.0338 0.9798
-2.0785 -4.1783 -2.0338 0.9798
-0.8668 -4.5856 -2.0338 0.9798
-0.0168 -4.6667 -2.0338 0.9798
0.8336 -4.5917 -2.0339 0.9798
-1.6024 -0.3135 -0.7558 0.9928
-3.4947 -2.6632 -2.0338 0.9808
-3.2365 -2.9717 -2.0338 0.9808
-1.9570 -3.9340 -2.0338 0.9808
-1.5889 -4.0965 -2.0338 0.9808
-0.8161 -4.3174 -2.0338 0.9808
-0.4177 -4.3740 -2.0338 0.9808
-1.2993 -0.3804 -0.6641 0.9940
-3.5139 -2.2010 -2.0338 0.9817
-3.2978 -2.5132 -2.0338 0.9817
-3.0540 -2.8043 -2.0338 0.9817
-2.7848 -3.0719 -2.0338 0.9817
-2.4921 -3.3138 -2.0338 0.9817
-1.4994 -3.8657 -2.0338 0.9817
-0.7701 -4.0742 -2.0338 0.9817
-0.3941 -4.1275 -2.0339 0.9817
-1.1818 -0.2312 -0.6247 0.9946
-1.1226 -0.4437 -0.6262 0.9946
-3.3225 -2.0811 -2.0338 0.9825
-2.8877 -2.6515 -2.0338 0.9825
-2.6331 -2.9046 -2.0338 0.9825
-2.3564 -3.1333 -2.0338 0.9825
-2.0599 -3.3357 -2.0338 0.9825
-1.4177 -3.6552 -2.0338 0.9825
-1.0774 -3.7695 -2.0338 0.9825
-1.0612 -0.2076 -0.5923 0.9951
-1.0145 -0.4010 -0.5975 0.9950
-2.4940 -2.7512 -2.0338 0.9832
-2.2320 -2.9679 -2.0338 0.9832
-1.9511 -3.1596 -2.0338 0.9832
-1.3429 -3.4621 -2.0339 0.9832
-1.0205 -3.5704 -2.0339 0.9832
0.3264 -3.6991 -2.0339 0.9832
0.6633 -3.6537 -2.0339 0.9832
-0.9757 -0.1909 -0.5740 0.9954
-0.9571 -0.2802 -0.5758 0.9954
-0.9112 -0.4606 -0.5895 0.9953
-2.9854 -1.8700 -2.0339 0.9839
-2.3660 -2.6099 -2.0339 0.9839
-2.1173 -2.8154 -2.0339 0.9839
-0.0127 -3.5227 -2.0339 0.9839
0.6293 -3.4661 -2.0339 0.9839
