ply
format ascii 1.0
element vertex 179
property float32 x
property float32 y
property float32 z
property float32 I
end_header
13.7304 8.8685 -1.1985 0.9365
16.9574 -2.3788 -2.0340 0.9333
16.9839 2.1851 -2.0341 0.9333
16.7221 3.6878 -2.0341 0.9333
15.8037 6.5939 -2.0341 0.9333
15.1543 7.9741 -2.0341 0.9333
12.5098 11.6940 -2.0341 0.9333
11.4195 12.7608 -2.0341 0.9333
10.2387 13.7265 -2.0341 0.9333
7.6431 15.3239 -2.0341 0.9333
6.2491 15.9434 -2.0341 0.9333
4.8055 16.4362 -2.0341 0.9333
14.3374 -0.7212 -2.0340 0.9437
14.3448 0.5575 -2.0340 0.9437
14.2383 1.8318 -2.0340 0.9437
14.0189 3.0917 -2.0341 0.9437
13.6882 4.3270 -2.0341 0.9437
12.7045 6.6850 -2.0341 0.9437
7.5254 12.2256 -2.0341 0.9437
4.0287 13.7791 -2.0341 0.9437
12.2270 -1.7152 -2.0340 0.9512
12.2460 1.5755 -2.0340 0.9512
9.7345 7.5956 -2.0341 0.9512
8.2338 9.2010 -2.0341 0.9512
6.4724 10.5149 -2.0341 0.9512
4.5058 11.4957 -2.0341 0.9512
3.4649 11.8510 -2.0341 0.9512
10.7164 -1.5033 -2.0340 0.9569
10.8133 0.4202 -2.0340 0.9569
10.7330 1.3808 -2.0340 0.9569
10.3183 3.2617 -2.0340 0.9569
9.9871 4.1670 -2.0340 0.9569
7.9055 7.3900 -2.0341 0.9569
7.2165 8.0641 -2.0341 0.9569
6.4702 8.6744 -2.0341 0.9569
5.6726 9.2157 -2.0341 0.9569
4.8301 9.6839 -2.0341 0.9569
3.0368 10.3868 -2.0340 0.9569
9.5291 -1.3367 -2.0340 0.9614
9.6102 -0.4835 -2.0340 0.9614
9.6152 0.3737 -2.0340 0.9614
9.5438 1.2279 -2.0340 0.9614
9.3967 2.0723 -2.0340 0.9614
9.1751 2.9003 -2.0340 0.9614
8.8806 3.7053 -2.0340 0.9614
8.5156 4.4809 -2.0340 0.9614
7.5864 5.9195 -2.0340 0.9614
5.7534 7.7132 -2.0340 0.9614
4.2949 8.6110 -2.0340 0.9614
3.5115 8.9590 -2.0340 0.9614
8.5704 -1.2023 -2.0340 0.9651
8.6434 -0.4348 -2.0340 0.9651
8.5837 1.1043 -2.0340 0.9651
8.4514 1.8638 -2.0340 0.9651
7.9871 3.3325 -2.0340 0.9651
7.2699 4.6956 -2.0340 0.9651
6.8232 5.3240 -2.0340 0.9651
6.3224 5.9101 -2.0340 0.9651
5.7713 6.4492 -2.0340 0.9651
5.1745 6.9372 -2.0340 0.9651
3.1582 8.0577 -2.0340 0.9651
2.4286 8.3068 -2.0340 0.9651
7.8498 0.3051 -2.0340 0.9681
7.7915 1.0024 -2.0340 0.9681
6.1934 4.8326 -2.0340 0.9681
5.7389 5.3646 -2.0340 0.9681
4.6970 6.2970 -2.0340 0.9681
3.5062 7.0299 -2.0340 0.9681
2.8668 7.3140 -2.0340 0.9681
2.2045 7.5401 -2.0340 0.9681
7.1757 -0.3610 -2.0340 0.9706
7.1794 0.2790 -2.0340 0.9706
7.1261 0.9168 -2.0340 0.9706
6.0354 3.8983 -2.0340 0.9706
5.6646 4.4199 -2.0340 0.9706
5.2488 4.9065 -2.0340 0.9706
3.7663 6.1187 -2.0340 0.9706
2.0162 6.8962 -2.0340 0.9706
6.3054 1.9931 -2.0340 0.9727
5.2136 4.0680 -2.0340 0.9727
4.4099 4.9278 -2.0340 0.9727
3.4664 5.6316 -2.0340 0.9727
2.9516 5.9177 -2.0340 0.9727
2.4132 6.1569 -2.0340 0.9727
6.0595 -0.8501 -2.0339 0.9745
6.1143 0.2376 -2.0340 0.9745
5.6471 2.3562 -2.0340 0.9745
5.4150 2.8493 -2.0340 0.9745
4.8242 3.7642 -2.0340 0.9745
4.4701 4.1786 -2.0340 0.9745
4.0805 4.5598 -2.0340 0.9745
3.2075 5.2109 -2.0340 0.9745
2.2329 5.6970 -2.0340 0.9745
1.7171 5.8731 -2.0340 0.9745
5.6325 -0.7901 -2.0339 0.9761
5.6834 0.2209 -2.0340 0.9761
5.6412 0.7258 -2.0340 0.9761
5.4232 1.7143 -2.0340 0.9761
5.2492 2.1901 -2.0340 0.9761
4.4842 3.4989 -2.0340 0.9761
2.0756 5.2955 -2.0340 0.9761
5.2561 -0.7374 -2.0339 0.9775
5.3008 -0.2667 -2.0339 0.9775
5.3036 0.2061 -2.0339 0.9775
5.2642 0.6772 -2.0340 0.9775
5.1830 1.1430 -2.0340 0.9775
4.8983 2.0437 -2.0340 0.9775
3.5394 3.9552 -2.0340 0.9775
3.1734 4.2544 -2.0340 0.9775
2.7822 4.5199 -2.0340 0.9775
1.9369 4.9416 -2.0340 0.9775
1.4894 5.0943 -2.0340 0.9775
4.9214 -0.6904 -2.0339 0.9788
4.9634 -0.2497 -2.0339 0.9787
4.9659 0.1930 -2.0339 0.9787
4.3980 2.3142 -2.0340 0.9787
3.9181 3.0572 -2.0340 0.9787
3.6304 3.3937 -2.0340 0.9787
2.9713 3.9836 -2.0340 0.9787
1.8136 4.6270 -2.0340 0.9787
1.3946 4.7700 -2.0340 0.9787
4.6611 -0.2345 -2.0339 0.9798
4.5575 1.0051 -2.0340 0.9798
4.4500 1.4066 -2.0340 0.9798
4.3071 1.7971 -2.0340 0.9798
3.9204 2.5322 -2.0340 0.9798
3.6795 2.8710 -2.0340 0.9798
3.1122 3.4778 -2.0340 0.9798
2.7904 3.7409 -2.0340 0.9798
2.4464 3.9744 -2.0340 0.9798
2.0830 4.1764 -2.0340 0.9798
1.7031 4.3452 -2.0340 0.9798
4.3514 -0.6104 -2.0339 0.9808
4.3582 0.5607 -2.0339 0.9808
4.1897 1.3244 -2.0340 0.9808
4.0553 1.6920 -2.0340 0.9808
3.8886 2.0462 -2.0340 0.9808
3.6911 2.3841 -2.0340 0.9808
3.4643 2.7031 -2.0340 0.9808
3.2100 3.0007 -2.0340 0.9808
1.9613 3.9321 -2.0340 0.9808
1.2331 4.2175 -2.0340 0.9808
4.1413 -0.2083 -2.0339 0.9817
4.1434 0.1610 -2.0339 0.9817
4.1126 0.5291 -2.0339 0.9817
4.0492 0.8929 -2.0339 0.9817
3.9536 1.2497 -2.0339 0.9817
3.8268 1.5966 -2.0340 0.9817
3.2691 2.5508 -2.0340 0.9817
1.1636 3.9799 -2.0340 0.9817
2.0941 -0.2938 -1.0970 0.9905
2.0773 0.0807 -1.0785 0.9907
2.0896 0.2688 -1.0930 0.9906
2.1151 0.4664 -1.1236 0.9903
3.7383 1.1817 -2.0339 0.9825
3.6183 1.5097 -2.0339 0.9825
3.4696 1.8257 -2.0340 0.9825
1.4307 3.6503 -2.0340 0.9825
1.8527 0.0720 -1.0155 0.9916
1.8573 0.4096 -1.0417 0.9914
1.8835 0.5954 -1.0819 0.9910
3.2864 1.7293 -2.0339 0.9832
3.1195 2.0149 -2.0339 0.9832
2.9278 2.2845 -2.0340 0.9832
2.2204 2.9767 -2.0340 0.9832
1.6575 3.3232 -2.0340 0.9832
1.3552 3.4575 -2.0340 0.9832
1.7240 0.0670 -0.9961 0.9921
1.7154 0.2207 -0.9986 0.9920
1.7149 0.3782 -1.0139 0.9919
1.7209 0.5439 -1.0420 0.9917
1.7616 0.7350 -1.1020 0.9912
3.1177 1.6405 -2.0339 0.9839
2.9593 1.9114 -2.0339 0.9839
2.7775 2.1672 -2.0339 0.9839
2.5736 2.4057 -2.0339 0.9839
1.5724 3.1525 -2.0339 0.9839
1.2856 3.2799 -2.0339 0.9839
0.9886 3.3813 -2.0339 0.9839
