ply
format ascii 1.0
element vertex 200
property float32 x
property float32 y
property float32 z
property float32 I
end_header
3.6493 18.4437 3.3152 0.9265
1.9657 18.9023 3.3510 0.9257
1.8226 17.5271 2.2947 0.9314
-12.6713 11.9764 2.2705 0.9321
1.8609 17.8951 1.9320 0.9302
3.5016 17.6975 1.5272 0.9301
1.9473 18.7271 1.5939 0.9272
-11.7377 13.3327 1.5037 0.9312
3.4675 17.5253 1.1078 0.9309
3.6007 18.1986 0.7315 0.9284
1.9276 18.5368 0.3148 0.9282
3.5664 18.0248 -0.1035 0.9291
-17.0954 5.2622 -0.9071 0.9309
-16.5825 5.1044 -1.2722 0.9328
-1.3678 7.8947 -0.7692 0.9683
-1.9960 7.4055 -0.7363 0.9696
-16.3271 5.0257 -1.6401 0.9337
3.3238 16.7986 -2.0341 0.9333
-1.3153 7.5919 -0.9153 0.9694
-5.9517 16.0558 -2.0340 0.9333
-10.0899 13.8343 -2.0340 0.9334
-11.3145 12.8519 -2.0339 0.9334
-12.4439 11.7614 -2.0339 0.9334
-14.3803 9.2940 -2.0339 0.9334
-16.7564 3.5171 -2.0338 0.9334
2.7864 14.0829 -2.0341 0.9437
-1.9602 7.2727 -1.0672 0.9700
-4.9896 13.4604 -2.0340 0.9437
-9.4855 10.7745 -2.0339 0.9437
-12.7186 6.6546 -2.0339 0.9437
-14.0479 2.9486 -2.0338 0.9437
1.2771 12.2809 -2.0340 0.9512
-0.5953 7.4410 -1.2297 0.9702
-1.2557 7.2483 -1.2119 0.9706
-4.2914 11.5770 -2.0340 0.9512
-6.3311 10.5997 -2.0340 0.9512
-8.9727 8.4806 -2.0339 0.9512
2.1004 10.6158 -2.0340 0.9569
0.1287 10.8207 -2.0340 0.9569
-0.6112 7.6397 -1.4406 0.9693
-3.7612 10.1466 -2.0340 0.9569
-4.6747 9.7594 -2.0340 0.9569
-7.1504 8.1219 -2.0339 0.9569
-7.8642 7.4329 -2.0339 0.9569
-9.0880 5.8736 -2.0339 0.9569
-9.5877 5.0165 -2.0339 0.9569
-10.0068 4.1172 -2.0339 0.9569
0.9953 9.5709 -2.0340 0.9614
0.1145 9.6219 -2.0340 0.9614
-0.5956 7.4455 -1.5789 0.9699
-3.3445 9.0224 -2.0340 0.9614
-4.1568 8.6781 -2.0340 0.9614
-6.3582 7.2221 -2.0339 0.9614
-6.9929 6.6094 -2.0339 0.9614
-8.0811 5.2228 -2.0339 0.9614
-8.5254 4.4607 -2.0339 0.9614
-8.8981 3.6610 -2.0339 0.9614
-9.1960 2.8307 -2.0339 0.9614
0.8951 8.6081 -2.0340 0.9651
0.1029 8.6538 -2.0340 0.9651
-0.5936 7.4207 -1.7496 0.9699
-1.9630 7.2830 -1.7728 0.9695
-4.4378 7.4298 -2.0339 0.9651
-5.0996 6.9921 -2.0339 0.9651
-6.8074 5.3434 -2.0339 0.9651
-7.6678 4.0119 -2.0339 0.9651
-8.2709 2.5459 -2.0339 0.9651
-8.4693 1.7777 -2.0338 0.9651
0.8125 7.8136 -2.0340 0.9681
0.0935 7.8552 -2.0340 0.9681
-2.0443 7.5850 -2.0340 0.9681
-2.7304 7.3658 -2.0340 0.9681
-3.3936 7.0847 -2.0340 0.9681
-4.0282 6.7441 -2.0339 0.9681
-5.7089 5.3959 -2.0339 0.9681
-6.1792 4.8503 -2.0339 0.9681
-6.5974 4.2639 -2.0339 0.9681
-6.9602 3.6417 -2.0339 0.9681
-7.5076 2.3109 -2.0339 0.9681
1.3946 7.0482 -2.0340 0.9706
0.7431 7.1463 -2.0340 0.9706
-1.2265 7.0793 -2.0340 0.9706
-4.2337 5.8048 -2.0339 0.9706
-4.7475 5.3926 -2.0339 0.9706
-5.2214 4.9351 -2.0339 0.9706
-6.6441 2.7336 -2.0339 0.9706
1.2836 6.4871 -2.0340 0.9727
0.6839 6.5774 -2.0340 0.9727
0.0787 6.6124 -2.0340 0.9727
-0.5273 6.5918 -2.0340 0.9727
-1.1288 6.5158 -2.0340 0.9727
-1.7209 6.3850 -2.0340 0.9727
-3.8966 5.3427 -2.0339 0.9727
-5.2016 4.0829 -2.0339 0.9727
-5.5536 3.5893 -2.0339 0.9727
-5.8590 3.0656 -2.0339 0.9727
-6.4715 1.3583 -2.0339 0.9727
1.1877 6.0026 -2.0340 0.9745
0.6329 6.0861 -2.0340 0.9745
0.0728 6.1185 -2.0340 0.9745
-2.6433 5.5185 -2.0339 0.9745
-4.0432 4.5926 -2.0339 0.9745
-4.8131 3.7780 -2.0339 0.9745
-5.4214 2.8366 -2.0339 0.9745
-5.6584 2.3281 -2.0339 0.9745
-5.9881 1.2569 -2.0339 0.9745
1.1039 5.5795 -2.0340 0.9761
-1.4801 5.4917 -2.0339 0.9761
-1.9769 5.3330 -2.0339 0.9761
-2.4570 5.1296 -2.0339 0.9761
-2.9165 4.8829 -2.0339 0.9761
-3.3515 4.5952 -2.0339 0.9761
-4.1334 3.9068 -2.0339 0.9761
-4.4739 3.5117 -2.0339 0.9761
-4.7767 3.0872 -2.0339 0.9761
-5.4357 1.6732 -2.0339 0.9761
0.5490 5.2791 -2.0340 0.9775
-1.3812 5.1246 -2.0339 0.9775
-2.2928 4.7867 -2.0339 0.9775
-2.7216 4.5566 -2.0339 0.9775
-3.1275 4.2881 -2.0339 0.9775
-3.5071 3.9837 -2.0339 0.9775
-3.8572 3.6457 -2.0339 0.9775
-4.1749 3.2771 -2.0339 0.9775
-5.1941 1.0902 -2.0339 0.9775
0.9646 4.8752 -2.0340 0.9787
0.5141 4.9430 -2.0340 0.9787
0.0591 4.9693 -2.0340 0.9788
-0.3963 4.9538 -2.0340 0.9788
-0.8483 4.8967 -2.0339 0.9788
-1.7273 4.6597 -2.0339 0.9788
-2.5483 4.2665 -2.0339 0.9788
-2.9284 4.0151 -2.0339 0.9788
-3.2838 3.7300 -2.0339 0.9788
-3.9091 3.0684 -2.0339 0.9788
-4.1737 2.6975 -2.0339 0.9788
-4.4032 2.3038 -2.0339 0.9788
-4.5957 1.8908 -2.0339 0.9788
-4.7495 1.4620 -2.0339 0.9788
-2.1214 0.4452 -0.8872 0.9907
0.9059 4.5782 -2.0340 0.9798
0.4827 4.6420 -2.0340 0.9798
0.0555 4.6666 -2.0340 0.9798
-0.3721 4.6521 -2.0339 0.9798
-0.7967 4.5985 -2.0339 0.9798
-1.2145 4.5062 -2.0339 0.9798
-1.6221 4.3760 -2.0339 0.9798
-2.7500 3.7706 -2.0339 0.9798
-3.0838 3.5029 -2.0339 0.9798
-3.6711 2.8815 -2.0339 0.9798
-4.1350 2.1635 -2.0339 0.9798
-2.0814 0.6406 -0.9491 0.9905
-0.7501 4.3295 -2.0339 0.9808
-1.8982 3.9629 -2.0339 0.9808
-2.2532 3.7723 -2.0339 0.9808
-2.5893 3.5501 -2.0339 0.9808
-2.9035 3.2980 -2.0339 0.9808
-3.1933 3.0182 -2.0339 0.9808
-3.6903 2.3850 -2.0339 0.9808
-3.8932 2.0370 -2.0339 0.9808
-1.5334 0.4720 -0.7427 0.9930
0.8048 4.0676 -2.0340 0.9817
0.4289 4.1242 -2.0340 0.9817
0.0493 4.1462 -2.0339 0.9817
-0.7078 4.0856 -2.0339 0.9817
-1.7912 3.7396 -2.0339 0.9817
-2.4433 3.3501 -2.0339 0.9817
-2.7399 3.1122 -2.0339 0.9817
-3.2616 2.5602 -2.0339 0.9817
-3.4824 2.2506 -2.0339 0.9817
-3.6739 1.9222 -2.0339 0.9817
-3.8345 1.5776 -2.0339 0.9817
0.4055 3.8996 -2.0339 0.9825
-0.3126 3.9081 -2.0339 0.9825
-0.6693 3.8631 -2.0339 0.9825
-1.3627 3.6761 -2.0339 0.9825
-1.6937 3.5359 -2.0339 0.9825
-2.0104 3.3659 -2.0339 0.9825
-2.3102 3.1676 -2.0339 0.9825
-2.5907 2.9427 -2.0339 0.9825
-3.0839 2.4207 -2.0339 0.9825
-3.2927 2.1281 -2.0339 0.9825
-1.1459 0.3527 -0.6220 0.9946
-1.1771 0.2470 -0.6239 0.9946
0.0442 3.7133 -2.0339 0.9832
-1.2907 3.4820 -2.0339 0.9832
-1.9043 3.1881 -2.0339 0.9832
-2.4538 2.7873 -2.0339 0.9832
-2.9211 2.2929 -2.0339 0.9832
-1.1105 0.5810 -0.6864 0.9943
-1.0571 0.2218 -0.5916 0.9951
0.6838 3.4559 -2.0339 0.9839
0.3644 3.5040 -2.0339 0.9839
-0.6014 3.4712 -2.0339 0.9839
-1.5219 3.1771 -2.0339 0.9839
-2.3279 2.6441 -2.0339 0.9839
-2.7711 2.1751 -2.0339 0.9839
-2.9587 1.9122 -2.0339 0.9839
-0.9552 0.2940 -0.5770 0.9954
-0.9730 0.2042 -0.5740 0.9954
