ply
format ascii 1.0
element vertex 177
property float32 x
property float32 y
property float32 z
property float32 I
end_header
-11.4230 13.4516 2.7035 0.9311
-11.9130 11.6861 2.1731 0.9349
-11.1391 13.1171 1.8479 0.9331
-12.4460 14.6561 1.1923 0.9258
-16.5039 5.4854 -0.8820 0.9327
-16.0610 5.3382 -1.6249 0.9343
0.4077 17.1192 -2.0341 0.9333
-1.8710 7.3541 -0.9014 0.9699
-5.7123 16.1426 -2.0340 0.9333
-7.1552 15.5567 -2.0340 0.9334
-9.8520 14.0048 -2.0340 0.9334
-12.2234 11.9906 -2.0339 0.9334
-13.2620 10.8303 -2.0339 0.9334
-14.1911 9.5805 -2.0339 0.9334
-15.0026 8.2515 -2.0339 0.9334
-15.6901 6.8542 -2.0338 0.9334
-16.9564 2.3709 -2.0338 0.9334
0.3418 14.3517 -2.0341 0.9437
-0.5220 7.7598 -1.1020 0.9691
-1.1785 7.3893 -1.0602 0.9702
-1.8444 7.2493 -1.0599 0.9702
-4.7888 13.5331 -2.0340 0.9437
-9.2919 10.9419 -2.0339 0.9437
-10.2475 10.0523 -2.0339 0.9437
-11.1183 9.0797 -2.0339 0.9437
-12.5776 6.9177 -2.0339 0.9437
-13.1539 5.7463 -2.0339 0.9437
-13.6215 4.5273 -2.0338 0.9437
-13.9764 3.2711 -2.0338 0.9437
-14.2156 1.9877 -2.0338 0.9437
0.2940 12.3435 -2.0340 0.9512
-0.5088 7.5637 -1.2489 0.9697
-1.1689 7.3298 -1.2228 0.9704
-1.8060 7.0985 -1.2067 0.9707
-5.1591 11.2171 -2.0340 0.9512
-7.9918 9.4109 -2.0339 0.9512
-8.8137 8.6458 -2.0339 0.9512
-9.5627 7.8093 -2.0339 0.9512
-10.2325 6.9081 -2.0339 0.9512
-11.3136 4.9423 -2.0339 0.9512
-0.5005 7.4393 -1.4015 0.9701
-1.7957 7.0580 -1.3689 0.9708
-4.5218 9.8312 -2.0340 0.9569
-6.2261 8.8506 -2.0339 0.9569
-8.3813 6.8444 -2.0339 0.9569
-8.9684 6.0546 -2.0339 0.9569
-9.9158 4.3317 -2.0339 0.9569
-10.5358 2.4658 -2.0338 0.9569
-10.7162 1.4984 -2.0338 0.9569
-1.1658 7.3095 -1.5646 0.9702
-1.8083 7.1077 -1.5503 0.9705
-2.6192 7.4018 -1.6597 0.9684
-5.5363 7.8700 -2.0339 0.9614
-7.4527 6.0861 -2.0339 0.9614
-8.4309 4.6370 -2.0339 0.9614
-9.3686 2.1927 -2.0338 0.9614
-9.5290 1.3324 -2.0338 0.9614
0.2061 8.6520 -2.0340 0.9651
-1.1649 7.3040 -1.7383 0.9701
-1.8295 7.1909 -1.7439 0.9700
-2.8870 8.1586 -2.0340 0.9651
-4.3157 7.5014 -2.0339 0.9651
-5.6018 6.5965 -2.0339 0.9651
-6.1779 6.0603 -2.0339 0.9651
-6.7029 5.4739 -2.0339 0.9651
-8.4261 1.9721 -2.0339 0.9651
0.1870 7.8535 -2.0340 0.9681
-1.1801 7.3994 -1.9400 0.9695
-4.5198 6.4250 -2.0339 0.9681
-5.0848 5.9878 -2.0339 0.9681
-7.1984 3.1446 -2.0339 0.9681
-7.7795 1.0878 -2.0338 0.9681
0.1711 7.1828 -2.0340 0.9706
-0.4822 7.1686 -2.0340 0.9706
-2.3968 6.7732 -2.0340 0.9706
-3.0022 6.5274 -2.0339 0.9706
-3.5829 6.2276 -2.0339 0.9706
-4.6506 5.4764 -2.0339 0.9706
-5.9546 4.0200 -2.0339 0.9706
-6.2952 3.4623 -2.0339 0.9706
-6.5837 2.8761 -2.0339 0.9706
-6.8177 2.2660 -2.0339 0.9706
0.1574 6.6110 -2.0340 0.9727
-0.4439 6.5979 -2.0340 0.9727
-1.0414 6.5303 -2.0340 0.9727
-1.6305 6.4086 -2.0340 0.9727
-3.2976 5.7319 -2.0339 0.9727
-4.2804 5.0404 -2.0339 0.9727
-6.2750 2.0856 -2.0339 0.9727
-6.4385 1.5069 -2.0339 0.9727
-6.5488 0.9156 -2.0339 0.9727
0.1457 6.1172 -2.0340 0.9745
-0.4107 6.1051 -2.0340 0.9745
-0.9637 6.0425 -2.0340 0.9745
-1.5087 5.9300 -2.0340 0.9745
-2.0412 5.7684 -2.0339 0.9745
-2.5568 5.5590 -2.0339 0.9745
-3.5205 5.0046 -2.0339 0.9745
-3.9607 4.6640 -2.0339 0.9745
-5.0712 3.4236 -2.0339 0.9745
-5.6070 2.4494 -2.0339 0.9745
-1.4024 5.5121 -2.0340 0.9761
-1.8973 5.3618 -2.0339 0.9761
-4.0602 3.9829 -2.0339 0.9761
-5.2119 2.2768 -2.0339 0.9761
-5.6326 0.7876 -2.0339 0.9761
0.1264 5.3061 -2.0340 0.9775
-0.3562 5.2956 -2.0340 0.9775
-1.3086 5.1437 -2.0339 0.9775
-2.2178 4.8219 -2.0339 0.9775
-2.6468 4.6005 -2.0339 0.9775
-3.4355 4.0455 -2.0339 0.9775
-3.7889 3.7167 -2.0339 0.9775
-4.1108 3.3571 -2.0339 0.9775
-4.6504 2.5577 -2.0339 0.9775
-5.0364 1.6740 -2.0339 0.9775
-5.1677 1.2095 -2.0339 0.9775
0.1183 4.9682 -2.0340 0.9787
-0.3336 4.9584 -2.0340 0.9787
-1.6578 4.6849 -2.0339 0.9788
-3.5476 3.4801 -2.0339 0.9788
-3.8491 3.1433 -2.0339 0.9788
-4.5539 1.9894 -2.0339 0.9788
-2.1188 0.4959 -0.8906 0.9906
-2.1106 0.2951 -0.8722 0.9908
0.1111 4.6657 -2.0340 0.9798
-1.9501 4.2399 -2.0339 0.9798
-2.6852 3.8171 -2.0339 0.9798
-3.0209 3.5573 -2.0339 0.9798
-3.3315 3.2681 -2.0339 0.9798
-3.6147 2.9519 -2.0339 0.9798
-4.0892 2.2491 -2.0339 0.9798
-4.2765 1.8682 -2.0339 0.9798
-1.9008 0.4448 -0.8508 0.9915
-1.4658 4.1423 -2.0339 0.9808
-2.1912 3.8087 -2.0339 0.9808
-2.8442 3.3493 -2.0339 0.9808
-3.8500 2.1175 -2.0339 0.9808
-4.0265 1.7590 -2.0339 0.9808
-1.5847 0.3709 -0.7534 0.9929
0.0987 4.1453 -2.0339 0.9817
-0.6530 4.0947 -2.0339 0.9817
-1.0223 4.0184 -2.0339 0.9817
-1.7326 3.7671 -2.0339 0.9817
-2.6839 3.1606 -2.0339 0.9817
-2.9600 2.9036 -2.0339 0.9817
-1.2804 0.4255 -0.6618 0.9940
-1.3499 0.1887 -0.6686 0.9939
0.0934 3.9195 -2.0339 0.9825
-0.2632 3.9118 -2.0339 0.9825
-0.9667 3.7996 -2.0339 0.9825
-1.6382 3.5619 -2.0339 0.9825
-2.2557 3.2066 -2.0339 0.9825
-2.7987 2.7455 -2.0339 0.9825
-3.0366 2.4798 -2.0339 0.9825
-3.2494 2.1937 -2.0339 0.9825
-1.1962 0.1672 -0.6266 0.9946
0.0884 3.7125 -2.0339 0.9832
-0.2492 3.7052 -2.0339 0.9832
-0.5848 3.6672 -2.0339 0.9832
-1.2388 3.5008 -2.0339 0.9832
-1.8519 3.2188 -2.0339 0.9832
-2.1366 3.0373 -2.0339 0.9832
-2.4037 2.8306 -2.0339 0.9832
-2.6510 2.6005 -2.0339 0.9832
-2.8763 2.3489 -2.0339 0.9832
-3.0778 2.0778 -2.0339 0.9832
-1.0493 0.2455 -0.5902 0.9951
0.0839 3.5219 -2.0339 0.9839
-0.2364 3.5149 -2.0339 0.9839
-0.8686 3.4141 -2.0339 0.9839
-1.1752 3.3210 -2.0339 0.9839
-1.4721 3.2005 -2.0339 0.9839
-2.0269 2.8813 -2.0339 0.9839
-2.2803 2.6852 -2.0339 0.9839
-0.9292 0.4059 -0.5854 0.9953
-0.9677 0.2264 -0.5738 0.9954
