ply
format ascii 1.0
element vertex 184
property float32 x
property float32 y
property float32 z
property float32 I
end_header
-11.7858 13.0721 3.1035 0.9310
-13.0026 12.0859 2.3117 0.9309
-11.3892 12.6322 1.8264 0.9339
-12.8947 11.9855 1.8904 0.9316
-13.4866 12.5357 1.5587 0.9288
-12.1525 13.4788 1.1254 0.9298
-0.8951 7.6725 -0.7416 0.9694
-1.5536 7.4958 -0.7349 0.9697
-1.5407 7.4340 -0.9018 0.9699
-6.3643 15.8968 -2.0340 0.9333
-7.7401 15.2741 -2.0340 0.9334
-10.3008 13.6780 -2.0340 0.9334
-11.4657 12.7171 -2.0339 0.9334
-12.5415 11.6573 -2.0339 0.9334
-13.5197 10.5068 -2.0339 0.9334
-14.3927 9.2747 -2.0339 0.9334
-15.1538 7.9704 -2.0339 0.9334
-15.7969 6.6042 -2.0338 0.9334
-16.3172 5.1866 -2.0338 0.9334
-17.1053 0.7376 -2.0338 0.9334
-1.4918 7.1974 -1.0415 0.9707
-2.2175 7.3614 -1.0893 0.9694
-6.4889 12.8050 -2.0340 0.9437
-7.5918 12.1833 -2.0340 0.9437
-8.6357 11.4670 -2.0340 0.9437
-12.0662 7.7755 -2.0339 0.9437
-13.6797 4.3482 -2.0338 0.9437
-14.2304 1.8795 -2.0338 0.9437
-0.8671 7.4320 -1.2327 0.9701
-4.5889 11.4623 -2.0340 0.9512
-5.5809 11.0133 -2.0340 0.9512
-6.5295 10.4787 -2.0340 0.9512
-7.4273 9.8625 -2.0339 0.9512
-8.2675 9.1697 -2.0339 0.9512
-9.0431 8.4055 -2.0339 0.9512
-10.9268 5.7471 -2.0339 0.9512
-12.3341 0.5318 -2.0338 0.9512
-2.1627 7.1795 -1.4094 0.9699
-4.0220 10.0461 -2.0340 0.9569
-4.8914 9.6526 -2.0340 0.9569
-5.7229 9.1840 -2.0340 0.9569
-6.5097 8.6440 -2.0339 0.9569
-7.2460 8.0368 -2.0339 0.9569
-7.9259 7.3670 -2.0339 0.9569
-8.5441 6.6400 -2.0339 0.9569
-10.7273 1.4168 -2.0338 0.9569
-2.0949 6.9545 -1.5353 0.9707
-4.3495 8.5831 -2.0340 0.9614
-5.0887 8.1665 -2.0339 0.9614
-5.7885 7.6863 -2.0339 0.9614
-7.0477 6.5508 -2.0339 0.9614
-8.0881 5.2120 -2.0339 0.9614
-9.1697 2.9147 -2.0339 0.9614
-9.5389 1.2598 -2.0338 0.9614
-0.8561 7.3383 -1.7364 0.9701
-1.5452 7.4557 -1.7895 0.9692
-2.1846 7.2524 -1.7801 0.9694
-3.2166 8.0343 -2.0340 0.9651
-3.9119 7.7197 -2.0340 0.9651
-5.7950 6.4274 -2.0339 0.9651
-6.8332 5.3104 -2.0339 0.9651
-7.6591 4.0285 -2.0339 0.9651
-0.8558 7.3355 -1.9122 0.9699
-1.5943 7.6921 -2.0340 0.9681
-2.9197 7.2929 -2.0340 0.9681
-5.2602 5.8343 -2.0339 0.9681
-5.7537 5.3481 -2.0339 0.9681
-6.2025 4.8203 -2.0339 0.9681
-7.2474 3.0299 -2.0339 0.9681
-7.8479 0.3384 -2.0338 0.9681
-3.2477 6.4088 -2.0339 0.9706
-4.3221 5.7392 -2.0339 0.9706
-5.2624 4.8914 -2.0339 0.9706
-6.3586 3.3444 -2.0339 0.9706
-6.8468 2.1763 -2.0339 0.9706
-7.0120 1.5646 -2.0339 0.9706
-1.3420 6.4752 -2.0340 0.9727
-3.4972 5.6123 -2.0339 0.9727
-3.9780 5.2823 -2.0339 0.9727
-4.4280 4.9113 -2.0339 0.9727
-4.8435 4.5020 -2.0339 0.9727
-5.2213 4.0577 -2.0339 0.9727
-6.1008 2.5505 -2.0339 0.9727
-6.3018 2.0031 -2.0339 0.9727
-6.4537 1.4401 -2.0339 0.9727
-6.6062 0.2849 -2.0338 0.9727
-0.7090 6.0777 -2.0340 0.9745
-1.7649 5.8588 -2.0340 0.9745
-2.2742 5.6805 -2.0339 0.9745
-3.2360 5.1931 -2.0339 0.9745
-4.4817 4.1657 -2.0339 0.9745
-5.1433 3.3144 -2.0339 0.9745
-5.6452 2.3601 -2.0339 0.9745
-5.9718 1.3325 -2.0339 0.9745
-6.0659 0.8012 -2.0339 0.9745
-6.1129 0.2636 -2.0339 0.9745
-1.1543 5.5693 -2.0340 0.9761
-3.0079 4.8271 -2.0339 0.9761
-3.4215 4.5433 -2.0339 0.9761
-4.1659 3.8722 -2.0339 0.9761
-4.4908 3.4900 -2.0339 0.9761
-5.4202 1.7229 -2.0339 0.9761
-5.5509 1.2386 -2.0339 0.9761
-5.6384 0.7447 -2.0339 0.9761
-5.6821 0.2450 -2.0339 0.9761
-0.6150 5.2718 -2.0340 0.9775
-1.0771 5.1971 -2.0339 0.9775
-1.5309 5.0820 -2.0339 0.9775
-1.9727 4.9273 -2.0339 0.9775
-2.3991 4.7344 -2.0339 0.9775
-2.8069 4.5045 -2.0339 0.9775
-3.1929 4.2397 -2.0339 0.9775
-3.5540 3.9419 -2.0339 0.9775
-3.8875 3.6134 -2.0339 0.9775
-4.1907 3.2568 -2.0339 0.9775
-4.4613 2.8749 -2.0339 0.9775
-4.6973 2.4706 -2.0339 0.9775
-4.8967 2.0471 -2.0339 0.9775
-5.0580 1.6077 -2.0339 0.9775
-5.1799 1.1558 -2.0339 0.9775
-5.3024 0.2286 -2.0339 0.9775
-0.5759 4.9362 -2.0340 0.9788
-1.8471 4.6136 -2.0339 0.9788
-2.6282 4.2177 -2.0339 0.9788
-3.3277 3.6909 -2.0339 0.9788
-3.9239 3.0494 -2.0339 0.9788
-4.1773 2.6919 -2.0339 0.9788
-4.3982 2.3133 -2.0339 0.9788
-2.1225 0.0915 -0.8695 0.9909
-0.5408 4.6355 -2.0339 0.9798
-0.9471 4.5698 -2.0339 0.9798
-1.3461 4.4686 -2.0339 0.9798
-2.8075 3.7280 -2.0339 0.9798
-3.1250 3.4661 -2.0339 0.9798
-3.6849 2.8637 -2.0339 0.9798
-4.1304 2.1724 -2.0339 0.9798
-4.3057 1.8000 -2.0339 0.9798
-1.9024 0.4245 -0.8495 0.9915
-1.6332 4.0793 -2.0339 0.9808
-2.9423 3.2634 -2.0339 0.9808
-3.4695 2.6963 -2.0339 0.9808
-3.6935 2.3801 -2.0339 0.9808
-3.8888 2.0454 -2.0339 0.9808
-1.5904 0.3548 -0.7543 0.9928
-1.6104 0.2127 -0.7519 0.9929
-1.5894 0.0685 -0.7364 0.9930
-1.1959 3.9702 -2.0339 0.9817
-2.4944 3.3122 -2.0339 0.9817
-2.7765 3.0796 -2.0339 0.9817
-3.2739 2.5444 -2.0339 0.9817
-3.4854 2.2460 -2.0339 0.9817
-3.6697 1.9302 -2.0339 0.9817
-3.8255 1.5993 -2.0339 0.9817
-1.2877 0.4093 -0.6628 0.9940
-0.7957 3.8390 -2.0339 0.9825
-1.1308 3.7540 -2.0339 0.9825
-1.7721 3.4972 -2.0339 0.9825
-2.0735 3.3274 -2.0339 0.9825
-2.3586 3.1318 -2.0339 0.9825
-3.0956 2.4058 -2.0339 0.9825
-1.1152 0.4662 -0.6271 0.9946
-1.1736 0.2618 -0.6238 0.9946
-1.1977 0.1582 -0.6267 0.9946
-1.1982 0.0516 -0.6222 0.9946
-0.7536 3.6363 -2.0339 0.9832
-1.3802 3.4475 -2.0339 0.9832
-1.6786 3.3125 -2.0339 0.9832
-1.9639 3.1517 -2.0339 0.9832
-2.2339 2.9664 -2.0339 0.9832
-2.4866 2.7581 -2.0339 0.9832
-3.1215 2.0115 -2.0339 0.9832
-1.1665 0.6135 -0.7219 0.9940
-1.0077 0.4212 -0.5982 0.9950
-1.0327 0.3282 -0.5935 0.9951
-0.7150 3.4496 -2.0339 0.9839
-1.0161 3.3731 -2.0339 0.9839
-1.3093 3.2705 -2.0339 0.9839
-2.1193 2.8141 -2.0339 0.9839
-2.3589 2.6164 -2.0339 0.9839
-2.5803 2.3984 -2.0339 0.9839
-2.7816 2.1617 -2.0339 0.9839
-2.9612 1.9082 -2.0339 0.9839
-0.9703 0.2165 -0.5740 0.9954
-0.9851 0.1301 -0.5737 0.9954
