ply
format ascii 1.0
element vertex 207
property float32 x
property float32 y
property float32 z
property float32 I
end_header
3.4973 18.5770 3.3332 0.9261
3.4681 18.4221 2.8717 0.9269
1.7598 17.6812 2.7220 0.9306
-11.2211 13.7990 2.3160 0.9308
3.4981 18.5818 2.0304 0.9268
1.8022 18.1089 1.9542 0.9294
-11.9351 12.3181 1.8418 0.9333
3.3485 17.7872 1.5322 0.9299
1.8504 18.5929 1.5817 0.9277
-11.8925 12.2742 1.4468 0.9337
-12.0705 12.4580 1.0757 0.9328
3.6230 19.2451 0.7722 0.9246
1.8672 18.7616 0.7434 0.9273
3.5455 18.8339 0.3237 0.9262
1.9722 19.8169 0.3364 0.9234
-1.9438 7.6661 -0.5799 0.9688
-1.8621 7.3436 -0.7273 0.9700
7.3979 15.4440 -2.0341 0.9333
6.0298 16.0276 -2.0341 0.9333
3.1681 16.8286 -2.0341 0.9333
1.6959 17.0399 -2.0341 0.9333
-0.5934 7.9437 -0.9462 0.9684
-1.8641 7.3517 -0.9009 0.9699
-9.6096 14.1723 -2.0340 0.9334
-10.8030 13.2849 -2.0340 0.9334
-11.9148 12.2972 -2.0339 0.9334
-12.9368 11.2169 -2.0339 0.9334
-13.8612 10.0520 -2.0339 0.9334
6.2020 12.9473 -2.0341 0.9437
5.0551 13.4366 -2.0341 0.9437
2.6559 14.1081 -2.0341 0.9437
0.1768 14.3547 -2.0341 0.9437
-0.5843 7.8212 -1.1113 0.9688
-1.2141 7.4545 -1.0701 0.9699
-5.8808 13.0954 -2.0340 0.9437
-6.9949 12.5356 -2.0340 0.9437
-11.6206 8.4271 -2.0339 0.9437
-12.3079 7.3870 -2.0339 0.9437
4.3478 11.5564 -2.0341 0.9512
3.3286 11.8901 -2.0341 0.9512
2.2843 12.1339 -2.0341 0.9512
1.2228 12.2864 -2.0340 0.9512
0.1521 12.3461 -2.0340 0.9512
-2.5599 7.3485 -1.2819 0.9689
-6.0162 10.7817 -2.0340 0.9512
-8.5912 8.8670 -2.0339 0.9512
-9.3282 8.0880 -2.0339 0.9512
-9.9947 7.2480 -2.0339 0.9512
-10.5859 6.3533 -2.0339 0.9512
-1.1691 7.1781 -1.3670 0.9708
-2.5532 7.3293 -1.4588 0.9689
-4.4330 9.8715 -2.0340 0.9569
-8.7599 6.3526 -2.0339 0.9569
-9.2780 5.5685 -2.0339 0.9569
2.5941 9.2664 -2.0340 0.9614
1.7802 9.4565 -2.0340 0.9614
-0.5527 7.3994 -1.5684 0.9701
-2.5564 7.3387 -1.6427 0.9687
-3.9419 8.7778 -2.0340 0.9614
-5.4001 7.9641 -2.0339 0.9614
-6.0707 7.4654 -2.0339 0.9614
-6.6956 6.9104 -2.0339 0.9614
-7.2699 6.3033 -2.0339 0.9614
3.7388 7.8053 -2.0340 0.9651
3.0475 8.1003 -2.0340 0.9651
2.3331 8.3341 -2.0340 0.9651
1.6011 8.5051 -2.0340 0.9651
0.1066 8.6538 -2.0340 0.9651
-0.5546 7.4242 -1.7497 0.9699
-1.8425 7.2666 -1.7619 0.9697
-4.2170 7.5573 -2.0339 0.9651
-5.4600 6.7144 -2.0339 0.9651
-7.4202 4.4534 -2.0339 0.9651
3.3937 7.0849 -2.0340 0.9681
2.7662 7.3527 -2.0340 0.9681
2.1178 7.5649 -2.0340 0.9681
0.0968 7.8551 -2.0340 0.9681
-0.5598 7.4940 -1.9458 0.9694
-1.9308 7.6146 -2.0340 0.9681
-2.5842 7.4184 -2.0340 0.9681
-3.2182 7.1662 -2.0340 0.9681
-5.4662 5.6417 -2.0339 0.9681
-5.9351 5.1460 -2.0339 0.9681
2.5300 6.7248 -2.0340 0.9706
0.7115 7.1495 -2.0340 0.9706
-0.5352 7.1648 -2.0340 0.9706
-1.7659 6.9644 -2.0340 0.9706
-2.3635 6.7849 -2.0340 0.9706
-2.9433 6.5542 -2.0339 0.9706
-4.5329 5.5742 -2.0339 0.9706
-4.9994 5.1599 -2.0339 0.9706
2.3286 6.1894 -2.0340 0.9727
1.7827 6.3681 -2.0340 0.9727
1.2234 6.4987 -2.0340 0.9727
0.0814 6.6123 -2.0340 0.9727
-0.4927 6.5945 -2.0340 0.9727
-1.6253 6.4099 -2.0340 0.9727
-2.1754 6.2447 -2.0340 0.9727
-2.7090 6.0324 -2.0339 0.9727
-3.2222 5.7746 -2.0339 0.9727
-4.1720 5.1305 -2.0339 0.9727
-4.9961 4.3319 -2.0339 0.9727
-5.3532 3.8820 -2.0339 0.9727
-5.6698 3.4029 -2.0339 0.9727
2.6434 5.5185 -2.0340 0.9745
1.6495 5.8924 -2.0340 0.9745
1.1320 6.0133 -2.0340 0.9745
-0.4558 6.1019 -2.0340 0.9745
-1.5039 5.9312 -2.0340 0.9745
-2.0129 5.7783 -2.0339 0.9745
-2.5067 5.5818 -2.0339 0.9745
-2.9815 5.3433 -2.0339 0.9745
-3.4339 5.0644 -2.0339 0.9745
-3.8604 4.7473 -2.0339 0.9745
-5.2464 3.1487 -2.0339 0.9745
1.0522 5.5895 -2.0340 0.9761
0.5633 5.6597 -2.0340 0.9761
0.0701 5.6873 -2.0340 0.9761
-0.4237 5.6719 -2.0340 0.9761
-0.9143 5.6137 -2.0340 0.9761
-1.3979 5.5132 -2.0340 0.9761
-2.7714 4.9667 -2.0339 0.9761
-3.1919 4.7075 -2.0339 0.9761
-3.5884 4.4127 -2.0339 0.9761
-4.6043 3.3390 -2.0339 0.9761
-4.8766 2.9268 -2.0339 0.9761
1.8689 4.9677 -2.0340 0.9775
0.9819 5.2159 -2.0340 0.9775
-0.8532 5.2385 -2.0340 0.9775
-2.5862 4.6348 -2.0339 0.9775
-3.3486 4.1178 -2.0339 0.9775
-3.6932 3.8117 -2.0339 0.9775
-4.2965 3.1158 -2.0339 0.9775
1.7499 4.6514 -2.0340 0.9787
1.3397 4.7857 -2.0340 0.9787
0.0612 4.9693 -2.0340 0.9787
-1.2214 4.8172 -2.0339 0.9788
-2.0359 4.5334 -2.0339 0.9788
-2.4215 4.3397 -2.0339 0.9788
-3.1354 3.8556 -2.0339 0.9788
-3.4581 3.5690 -2.0339 0.9788
-3.7547 3.2555 -2.0339 0.9788
-4.0230 2.9174 -2.0339 0.9788
-4.2610 2.5573 -2.0339 0.9788
1.6433 4.3681 -2.0340 0.9798
1.2581 4.4942 -2.0340 0.9798
-1.1470 4.5238 -2.0339 0.9798
-1.5353 4.4072 -2.0339 0.9798
-2.6191 3.8627 -2.0339 0.9798
-2.9444 3.6208 -2.0339 0.9798
-3.5260 3.0572 -2.0339 0.9798
1.8983 3.9629 -2.0340 0.9808
1.5472 4.1127 -2.0340 0.9808
0.8129 4.3182 -2.0340 0.9808
0.4352 4.3725 -2.0340 0.9808
0.0541 4.3937 -2.0340 0.9808
-0.3274 4.3818 -2.0339 0.9808
-1.4455 4.1495 -2.0339 0.9808
-1.8001 4.0084 -2.0339 0.9808
-2.4660 3.6368 -2.0339 0.9808
-3.5571 2.5795 -2.0339 0.9808
1.4601 3.8809 -2.0340 0.9817
0.7671 4.0749 -2.0340 0.9817
0.4106 4.1261 -2.0340 0.9817
0.0511 4.1462 -2.0339 0.9817
-0.3089 4.1349 -2.0339 0.9817
-1.0191 4.0193 -2.0339 0.9817
-1.3640 3.9157 -2.0339 0.9817
-1.6986 3.7825 -2.0339 0.9817
-3.1328 2.7163 -2.0339 0.9817
-3.3566 2.4342 -2.0339 0.9817
-3.5552 2.1337 -2.0339 0.9817
1.6937 3.5359 -2.0340 0.9825
1.3805 3.6696 -2.0340 0.9825
1.0570 3.7755 -2.0340 0.9825
0.7254 3.8529 -2.0339 0.9825
0.0483 3.9203 -2.0339 0.9825
-0.2921 3.9097 -2.0339 0.9825
-0.6302 3.8696 -2.0339 0.9825
-0.9636 3.8003 -2.0339 0.9825
-1.2897 3.7024 -2.0339 0.9825
-1.6061 3.5765 -2.0339 0.9825
-1.9104 3.4236 -2.0339 0.9825
-2.4735 3.0418 -2.0339 0.9825
-2.7282 2.8157 -2.0339 0.9825
-3.1738 2.3016 -2.0339 0.9825
-3.3616 2.0176 -2.0339 0.9825
1.0011 3.5761 -2.0339 0.9832
0.3678 3.6953 -2.0339 0.9832
-0.5970 3.6652 -2.0339 0.9832
-1.2216 3.5069 -2.0339 0.9832
-1.5213 3.3876 -2.0339 0.9832
-2.0840 3.0736 -2.0339 0.9832
-2.3429 2.8811 -2.0339 0.9832
-2.8057 2.4327 -2.0339 0.9832
-3.1841 1.9110 -2.0339 0.9832
1.2405 3.2973 -2.0339 0.9839
0.9497 3.3925 -2.0339 0.9839
0.0434 3.5226 -2.0339 0.9839
-0.2624 3.5131 -2.0339 0.9839
-0.5662 3.4771 -2.0339 0.9839
-1.1589 3.3268 -2.0339 0.9839
-1.4432 3.2137 -2.0339 0.9839
-1.7166 3.0763 -2.0339 0.9839
-2.2225 2.7332 -2.0339 0.9839
-2.6616 2.3078 -2.0339 0.9839
-2.8518 2.0681 -2.0339 0.9839
