ply
format ascii 1.0
element vertex 194
property float32 x
property float32 y
property float32 z
property float32 I
end_header
2.0043 18.5574 3.2912 0.9270
3.7561 18.8613 2.5044 0.9254
1.8836 17.4396 2.2842 0.9317
3.7155 18.6574 2.0428 0.9263
1.8752 17.3617 1.0829 0.9324
3.6177 18.1664 0.7304 0.9285
13.4711 8.6991 -1.5395 0.9376
16.9827 2.1940 -2.0341 0.9333
16.7207 3.6946 -2.0341 0.9333
12.5139 11.6896 -2.0341 0.9333
8.9871 14.5766 -2.0341 0.9333
6.2648 15.9372 -2.0341 0.9333
4.8238 16.4308 -2.0341 0.9333
3.3445 16.7944 -2.0341 0.9333
14.2374 1.8394 -2.0340 0.9437
14.0177 3.0973 -2.0341 0.9437
13.6871 4.3307 -2.0341 0.9437
13.2481 5.5299 -2.0341 0.9437
11.3203 8.8288 -2.0341 0.9437
10.4909 9.7998 -2.0341 0.9437
8.5904 11.5022 -2.0341 0.9437
7.5343 12.2201 -2.0341 0.9437
4.0439 13.7746 -2.0341 0.9437
2.8038 14.0795 -2.0341 0.9437
1.5416 14.2729 -2.0341 0.9437
-0.5536 7.8523 -1.1154 0.9687
11.7718 3.7247 -2.0340 0.9512
11.3943 4.7561 -2.0341 0.9512
10.9266 5.7498 -2.0341 0.9512
10.3725 6.6981 -2.0341 0.9512
9.0229 8.4285 -2.0341 0.9512
8.2382 9.1970 -2.0341 0.9512
6.4800 10.5102 -2.0341 0.9512
4.5171 11.4913 -2.0341 0.9512
3.4781 11.8472 -2.0341 0.9512
2.4115 12.1094 -2.0341 0.9512
1.3259 12.2757 -2.0340 0.9512
-0.5318 7.5444 -1.2460 0.9698
10.7323 1.3865 -2.0340 0.9569
10.3174 3.2645 -2.0340 0.9569
9.9865 4.1685 -2.0340 0.9569
9.0909 5.8705 -2.0340 0.9569
6.4755 8.6704 -2.0341 0.9569
4.8384 9.6798 -2.0341 0.9569
3.9591 10.0714 -2.0340 0.9569
1.1620 10.7590 -2.0340 0.9569
0.2014 10.8196 -2.0340 0.9569
9.3959 2.0761 -2.0340 0.9614
9.1743 2.9028 -2.0340 0.9614
8.5155 4.4811 -2.0340 0.9614
8.0837 5.2201 -2.0340 0.9614
7.5878 5.9178 -2.0340 0.9614
7.0319 6.5687 -2.0340 0.9614
6.4204 7.1676 -2.0340 0.9614
5.7580 7.7098 -2.0340 0.9614
5.0501 8.1909 -2.0340 0.9614
4.3023 8.6073 -2.0340 0.9614
3.5204 8.9555 -2.0340 0.9614
2.7105 9.2329 -2.0340 0.9614
1.0333 9.5669 -2.0340 0.9614
-0.5221 7.4076 -1.5697 0.9701
8.4506 1.8672 -2.0340 0.9651
7.6588 4.0303 -2.0340 0.9651
6.8244 5.3224 -2.0340 0.9651
6.3245 5.9078 -2.0340 0.9651
4.5420 7.3669 -2.0340 0.9651
2.4379 8.3041 -2.0340 0.9651
0.9293 8.6044 -2.0340 0.9651
-0.5232 7.4216 -1.7486 0.9699
7.6707 1.6949 -2.0340 0.9681
7.4898 2.3699 -2.0340 0.9681
5.7407 5.3626 -2.0340 0.9681
4.1229 6.6870 -2.0340 0.9681
1.5343 7.7045 -2.0340 0.9681
0.8436 7.8103 -2.0340 0.9681
0.1462 7.8544 -2.0340 0.9681
-0.5429 7.7016 -1.9991 0.9686
7.1256 0.9205 -2.0340 0.9706
6.8502 2.1675 -2.0340 0.9706
6.6304 2.7676 -2.0340 0.9706
6.3583 3.3459 -2.0340 0.9706
4.7939 5.3518 -2.0340 0.9706
4.2994 5.7566 -2.0340 0.9706
2.0239 6.8939 -2.0340 0.9706
0.7715 7.1433 -2.0340 0.9706
0.1337 7.1836 -2.0340 0.9706
-0.5052 7.1670 -2.0340 0.9706
6.4571 1.4267 -2.0340 0.9727
6.3048 1.9949 -2.0340 0.9727
6.1026 2.5473 -2.0340 0.9727
5.8521 3.0795 -2.0340 0.9727
5.5553 3.5874 -2.0340 0.9727
5.2145 4.0669 -2.0340 0.9727
3.9571 5.2983 -2.0340 0.9727
2.9566 5.9152 -2.0340 0.9727
0.1231 6.6117 -2.0340 0.9727
-0.4650 6.5965 -2.0340 0.9727
5.9748 1.3201 -2.0340 0.9745
5.6468 2.3570 -2.0340 0.9745
3.2113 5.2086 -2.0340 0.9745
1.7236 5.8712 -2.0340 0.9745
5.5538 1.2271 -2.0340 0.9761
5.4228 1.7158 -2.0340 0.9761
5.2488 2.1909 -2.0340 0.9761
4.4850 3.4979 -2.0340 0.9761
4.1564 3.8826 -2.0340 0.9761
3.7950 4.2366 -2.0340 0.9761
3.4034 4.5571 -2.0340 0.9761
2.0808 5.2935 -2.0340 0.9761
5.2639 0.6800 -2.0340 0.9775
5.1825 1.1451 -2.0340 0.9775
4.8980 2.0445 -2.0340 0.9775
4.6970 2.4716 -2.0340 0.9775
4.4588 2.8793 -2.0340 0.9775
3.8786 3.6231 -2.0340 0.9775
3.5414 3.9535 -2.0340 0.9775
3.1760 4.2525 -2.0340 0.9775
2.7855 4.5179 -2.0340 0.9775
1.9418 4.9396 -2.0340 0.9775
1.4951 5.0927 -2.0340 0.9775
0.5700 5.2769 -2.0340 0.9775
0.0987 5.3066 -2.0340 0.9775
-0.3732 5.2944 -2.0340 0.9775
4.9287 0.6367 -2.0339 0.9787
4.7382 1.4992 -2.0340 0.9787
4.5862 1.9143 -2.0340 0.9787
3.9188 3.0563 -2.0340 0.9787
3.6317 3.3924 -2.0340 0.9787
2.6082 4.2303 -2.0340 0.9787
2.2219 4.4453 -2.0340 0.9787
1.8181 4.6252 -2.0340 0.9787
1.3999 4.7684 -2.0340 0.9787
0.9706 4.8739 -2.0340 0.9787
0.5336 4.9409 -2.0340 0.9787
0.0925 4.9688 -2.0340 0.9787
-0.3495 4.9573 -2.0340 0.9788
4.5571 1.0069 -2.0340 0.9798
4.4496 1.4079 -2.0340 0.9798
4.3068 1.7977 -2.0340 0.9798
3.9206 2.5318 -2.0340 0.9798
3.4105 3.1858 -2.0340 0.9798
3.1139 3.4763 -2.0340 0.9798
2.7927 3.7393 -2.0340 0.9798
2.4493 3.9726 -2.0340 0.9798
1.7074 4.3435 -2.0340 0.9798
0.9115 4.5771 -2.0340 0.9798
0.5012 4.6400 -2.0340 0.9798
4.3579 0.5630 -2.0339 0.9808
4.2906 0.9480 -2.0339 0.9808
4.1894 1.3255 -2.0340 0.9808
3.6914 2.3837 -2.0340 0.9808
3.2111 2.9995 -2.0340 0.9808
2.9318 3.2730 -2.0340 0.9808
2.6294 3.5206 -2.0340 0.9808
2.3061 3.7403 -2.0340 0.9808
1.6075 4.0895 -2.0340 0.9808
1.2378 4.2162 -2.0340 0.9808
0.8582 4.3094 -2.0340 0.9808
4.0489 0.8946 -2.0339 0.9817
3.8265 1.5972 -2.0340 0.9817
3.0301 2.8305 -2.0340 0.9817
2.7666 3.0886 -2.0340 0.9817
2.4812 3.3222 -2.0340 0.9817
1.8539 3.7090 -2.0340 0.9817
1.1680 3.9786 -2.0340 0.9817
0.8098 4.0666 -2.0340 0.9817
0.0771 4.1458 -2.0339 0.9817
2.0898 0.2700 -1.0932 0.9905
2.3461 3.1412 -2.0340 0.9825
1.7529 3.5070 -2.0340 0.9825
1.4343 3.6488 -2.0340 0.9825
1.1044 3.7619 -2.0340 0.9825
0.7657 3.8451 -2.0340 0.9825
-0.2757 3.9109 -2.0339 0.9825
1.8443 0.2382 -1.0185 0.9916
1.8573 0.4104 -1.0418 0.9914
3.4270 1.4305 -2.0339 0.9832
2.4778 2.7661 -2.0340 0.9832
1.9489 3.1611 -2.0340 0.9832
1.3586 3.4562 -2.0340 0.9832
1.0461 3.5632 -2.0339 0.9832
0.3988 3.6921 -2.0339 0.9832
0.0691 3.7129 -2.0339 0.9832
-0.2611 3.7044 -2.0339 0.9832
1.7153 0.2216 -0.9986 0.9920
1.7149 0.3789 -1.0140 0.9919
1.7617 0.7353 -1.1022 0.9912
3.1176 1.6405 -2.0339 0.9839
2.9595 1.9111 -2.0339 0.9839
2.1080 2.8226 -2.0340 0.9839
1.8489 2.9987 -2.0339 0.9839
1.5751 3.1512 -2.0339 0.9839
1.2888 3.2787 -2.0339 0.9839
0.9924 3.3802 -2.0339 0.9839
