ply
format ascii 1.0
element vertex 206
property float32 x
property float32 y
property float32 z
property float32 I
end_header
-17.1698 5.2077 -0.9099 0.9307
-12.0327 -7.9931 -0.7326 0.9438
-16.6657 5.0547 -1.2769 0.9325
-11.9103 -7.9117 -1.0484 0.9443
-16.4748 4.9969 -1.6528 0.9332
-13.6637 10.3188 -2.0339 0.9334
-14.5184 9.0767 -2.0339 0.9334
-15.2604 7.7643 -2.0339 0.9334
-15.8841 6.3917 -2.0338 0.9334
-16.3846 4.9695 -2.0338 0.9334
-17.0017 2.0210 -2.0338 0.9334
-17.1134 0.5176 -2.0338 0.9334
-17.0924 -0.9899 -2.0337 0.9334
-16.9389 -2.4896 -2.0337 0.9334
-16.6542 -3.9701 -2.0337 0.9334
-16.2403 -5.4197 -2.0337 0.9334
-15.7005 -6.8273 -2.0337 0.9334
-15.0390 -8.1819 -2.0337 0.9334
-11.6489 -7.7381 -1.6612 0.9452
-11.2914 -12.8689 -2.0337 0.9334
-11.4551 8.6508 -2.0339 0.9437
-12.1716 7.6095 -2.0339 0.9437
-12.7937 6.5092 -2.0339 0.9437
-13.7362 4.1662 -2.0338 0.9437
-14.0493 2.9417 -2.0338 0.9437
-14.2536 1.6944 -2.0338 0.9437
-14.3297 -0.8299 -2.0338 0.9437
-14.2011 -2.0872 -2.0338 0.9437
-11.9558 -7.9420 -2.0337 0.9437
-11.2108 -8.9629 -2.0337 0.9437
-10.3789 -9.9144 -2.0337 0.9437
-8.4806 -11.5799 -2.0337 0.9437
-11.0036 5.5985 -2.0339 0.9512
-11.4534 4.6088 -2.0339 0.9512
-11.8143 3.5833 -2.0338 0.9512
-12.0837 2.5301 -2.0338 0.9512
-12.2593 1.4573 -2.0338 0.9512
-12.3399 0.3732 -2.0338 0.9512
-12.2142 -1.7952 -2.0338 0.9512
-9.6423 -7.7090 -2.0337 0.9512
-8.1420 -9.2795 -2.0337 0.9512
-9.1752 5.7363 -2.0339 0.9569
-10.0384 4.0394 -2.0339 0.9569
-10.5908 2.2176 -2.0338 0.9569
-10.7448 1.2773 -2.0338 0.9569
-10.5253 -2.5091 -2.0338 0.9569
-10.2638 -3.4252 -2.0338 0.9569
-9.9226 -4.3148 -2.0338 0.9569
-9.0128 -5.9870 -2.0338 0.9569
-8.4512 -6.7566 -2.0338 0.9569
-7.8240 -7.4739 -2.0337 0.9569
-7.1362 -8.1332 -2.0337 0.9569
-7.6784 5.7987 -2.0339 0.9614
-8.1587 5.1007 -2.0339 0.9614
-8.5757 4.3632 -2.0339 0.9614
-9.2076 2.7927 -2.0339 0.9614
-9.6172 0.2909 -2.0338 0.9614
-9.3593 -2.2311 -2.0338 0.9614
-9.1267 -3.0458 -2.0338 0.9614
-8.8234 -3.8368 -2.0338 0.9614
-8.4516 -4.5981 -2.0338 0.9614
-8.0143 -5.3238 -2.0338 0.9614
-6.9573 -6.6459 -2.0338 0.9614
-6.3456 -7.2322 -2.0338 0.9614
-5.6848 -7.7623 -2.0338 0.9614
-6.9059 5.2154 -2.0339 0.9651
-7.3380 4.5876 -2.0339 0.9651
-8.0283 3.2305 -2.0339 0.9651
-8.6498 0.2616 -2.0338 0.9651
-8.6392 -0.5003 -2.0338 0.9651
-8.4178 -2.0067 -2.0338 0.9651
-7.9358 -3.4509 -2.0338 0.9651
-7.2082 -4.7882 -2.0338 0.9651
-6.2574 -5.9774 -2.0338 0.9651
-5.7073 -6.5046 -2.0338 0.9651
-6.2686 4.7341 -2.0339 0.9681
-6.6608 4.1642 -2.0339 0.9681
-7.5171 2.2799 -2.0339 0.9681
-7.8419 -0.4542 -2.0338 0.9681
-7.7716 -1.1422 -2.0338 0.9681
-7.6409 -1.8215 -2.0338 0.9681
-7.4511 -2.4866 -2.0338 0.9681
-6.1352 -4.9051 -2.0338 0.9681
-5.6799 -5.4257 -2.0338 0.9681
-5.1806 -5.9044 -2.0338 0.9681
-6.0920 3.8086 -2.0339 0.9706
-6.4033 3.2579 -2.0339 0.9706
-6.6651 2.6820 -2.0339 0.9706
-7.0319 1.4724 -2.0339 0.9706
-7.1723 -0.4154 -2.0338 0.9706
-7.1079 -1.0447 -2.0338 0.9706
-6.9885 -1.6659 -2.0338 0.9706
-6.8148 -2.2743 -2.0338 0.9706
-6.3108 -3.4334 -2.0338 0.9706
-5.9842 -3.9752 -2.0338 0.9706
-5.6113 -4.4862 -2.0338 0.9706
-5.1949 -4.9624 -2.0338 0.9706
-4.7382 -5.4002 -2.0338 0.9706
-5.8936 2.9986 -2.0339 0.9727
-6.4721 1.3552 -2.0339 0.9727
-6.5421 -0.9615 -2.0338 0.9727
-5.5079 -3.6588 -2.0338 0.9727
-3.9069 -5.3347 -2.0338 0.9727
-5.1882 3.2436 -2.0339 0.9745
-5.4534 2.7746 -2.0339 0.9745
-5.6763 2.2841 -2.0339 0.9745
-5.8552 1.7759 -2.0339 0.9745
-5.9887 1.2539 -2.0339 0.9745
-6.1158 0.1849 -2.0338 0.9745
-6.0535 -0.8897 -2.0338 0.9745
-5.9518 -1.4188 -2.0338 0.9745
-5.8039 -1.9369 -2.0338 0.9745
-5.0965 -3.3855 -2.0338 0.9745
-4.7789 -3.8207 -2.0338 0.9745
-4.4243 -4.2263 -2.0338 0.9745
-4.0354 -4.5991 -2.0338 0.9745
-4.8226 3.0150 -2.0339 0.9761
-5.0691 2.5791 -2.0339 0.9761
-5.2763 2.1231 -2.0339 0.9761
-5.5667 1.1656 -2.0339 0.9761
-5.6477 0.6714 -2.0339 0.9761
-5.6848 0.1719 -2.0339 0.9761
-4.9958 -2.7180 -2.0338 0.9761
-4.7374 -3.1469 -2.0338 0.9761
-4.1125 -3.9285 -2.0338 0.9761
-3.3604 -4.5884 -2.0338 0.9761
-4.5003 2.8135 -2.0339 0.9775
-5.0789 1.5404 -2.0339 0.9775
-5.1947 1.0877 -2.0339 0.9775
-5.1626 -1.2307 -2.0338 0.9775
-4.4208 -2.9366 -2.0338 0.9775
-3.8377 -3.6659 -2.0338 0.9775
-3.1358 -4.2818 -2.0338 0.9775
-3.9657 2.9949 -2.0339 0.9788
-4.4292 2.2535 -2.0339 0.9788
-4.7555 1.4424 -2.0339 0.9788
-2.1214 0.4442 -0.8871 0.9907
-2.1091 0.2507 -0.8693 0.9909
-2.1335 -0.5086 -0.8976 0.9906
-4.7138 -1.5731 -2.0338 0.9788
-3.8814 -3.1031 -2.0338 0.9788
-3.5934 -3.4325 -2.0338 0.9788
-3.2775 -3.7353 -2.0338 0.9788
-2.9362 -4.0092 -2.0338 0.9788
-3.9571 2.4740 -2.0339 0.9798
-4.1594 2.1163 -2.0339 0.9798
-4.3294 1.7422 -2.0339 0.9798
-1.9000 -0.4530 -0.8513 0.9915
-4.2796 -1.8610 -2.0338 0.9798
-4.0993 -2.2302 -2.0338 0.9798
-3.6450 -2.9141 -2.0338 0.9798
-3.0779 -3.5079 -2.0338 0.9798
-2.7574 -3.7650 -2.0338 0.9798
-3.5064 2.6480 -2.0339 0.9808
-3.9162 1.9925 -2.0339 0.9808
-4.0763 1.6403 -2.0339 0.9808
-1.5956 -0.0924 -0.7398 0.9930
-3.8596 -2.0998 -2.0338 0.9808
-3.1772 -3.0350 -2.0338 0.9808
-2.8979 -3.3027 -2.0338 0.9808
-2.5961 -3.5449 -2.0338 0.9808
-3.3088 2.4988 -2.0339 0.9817
-1.7331 0.6974 -0.9164 0.9917
-1.3526 0.1607 -0.6681 0.9939
-1.3448 0.0406 -0.6600 0.9940
-1.3505 -0.0782 -0.6636 0.9940
-1.3486 -0.1983 -0.6687 0.9939
-1.3217 -0.3151 -0.6665 0.9940
-1.2797 -0.4271 -0.6617 0.9940
-3.2385 -2.5892 -2.0338 0.9817
-2.9982 -2.8640 -2.0338 0.9817
-2.7346 -3.1166 -2.0338 0.9817
-1.1204 0.4508 -0.6265 0.9946
-1.1772 0.2465 -0.6240 0.9946
-1.1993 0.1425 -0.6265 0.9946
-1.1967 0.0362 -0.6211 0.9946
-1.1995 -0.0695 -0.6233 0.9946
-1.1948 -0.1756 -0.6265 0.9946
-1.1387 -0.3800 -0.6228 0.9946
-3.4437 -1.8736 -2.0338 0.9825
-3.2656 -2.1693 -2.0338 0.9825
-3.0621 -2.4481 -2.0338 0.9825
-2.8349 -2.7080 -2.0338 0.9825
-2.5857 -2.9469 -2.0338 0.9825
-2.9634 2.2379 -2.0339 0.9832
-3.1487 1.9686 -2.0339 0.9832
-0.9801 0.4986 -0.6023 0.9950
-1.0572 0.2213 -0.5916 0.9951
-1.0771 0.1280 -0.5941 0.9951
-1.0813 -0.0627 -0.5933 0.9951
-1.0725 -0.1577 -0.5938 0.9951
-1.0296 -0.3436 -0.5945 0.9951
-1.0023 -0.4359 -0.5986 0.9950
-3.2619 -1.7746 -2.0339 0.9832
-3.0932 -2.0547 -2.0339 0.9832
-2.9004 -2.3188 -2.0338 0.9832
-2.1941 -2.9959 -2.0338 0.9832
-2.9871 1.8675 -2.0339 0.9839
-0.9376 0.3772 -0.5835 0.9953
-0.9731 0.2037 -0.5740 0.9954
-0.9864 0.1172 -0.5735 0.9954
-0.9900 0.0299 -0.5718 0.9954
-0.9512 -0.3175 -0.5790 0.9954
-2.9343 -1.9492 -2.0339 0.9839
-2.5473 -2.4333 -2.0339 0.9839
-2.3233 -2.6480 -2.0339 0.9839
