ply
format ascii 1.0
element vertex 181
property float32 x
property float32 y
property float32 z
property float32 I
end_header
-17.0819 1.1599 -2.0338 0.9334
-17.0067 -1.9749 -2.0337 0.9334
-16.7543 -3.5239 -2.0337 0.9334
-15.8304 -6.5203 -2.0337 0.9334
-13.4637 -10.5753 -2.0337 0.9334
-11.3092 -12.8534 -2.0337 0.9334
-8.7754 -14.7003 -2.0337 0.9334
-5.9473 -16.0543 -2.0337 0.9334
-2.9197 -16.8698 -2.0337 0.9334
-14.2579 -1.6557 -2.0338 0.9437
-14.0462 -2.9544 -2.0337 0.9437
-12.0521 -7.7951 -2.0337 0.9437
-10.4283 -9.8624 -2.0337 0.9437
-8.4547 -11.5988 -2.0337 0.9437
-6.1976 -12.9462 -2.0337 0.9437
-3.7326 -13.8595 -2.0337 0.9437
-12.2630 -1.4240 -2.0338 0.9512
-11.4149 -4.7016 -2.0338 0.9512
-10.9364 -5.7272 -2.0337 0.9512
-10.3659 -6.7045 -2.0337 0.9512
-9.7084 -7.6256 -2.0337 0.9512
-8.1548 -9.2682 -2.0337 0.9512
-4.2885 -11.5764 -2.0337 0.9512
-3.2104 -11.9205 -2.0337 0.9512
-10.7955 0.7330 -2.0338 0.9569
-10.8173 -0.2587 -2.0338 0.9569
-10.5885 -2.2271 -2.0338 0.9569
-10.3402 -3.1873 -2.0338 0.9569
-9.0854 -5.8763 -2.0338 0.9569
-7.8612 -7.4347 -2.0337 0.9569
-6.3736 -8.7437 -2.0337 0.9569
-5.5461 -9.2905 -2.0337 0.9569
-4.6720 -9.7595 -2.0338 0.9569
-9.6189 -0.2300 -2.0338 0.9614
-9.5573 -1.1098 -2.0338 0.9614
-9.4155 -1.9804 -2.0338 0.9614
-8.5234 -4.4636 -2.0338 0.9614
-8.0788 -5.2253 -2.0338 0.9614
-7.5664 -5.9431 -2.0338 0.9614
-6.3556 -7.2234 -2.0338 0.9614
-5.6675 -7.7750 -2.0338 0.9614
-4.1545 -8.6782 -2.0338 0.9614
-2.5021 -9.2904 -2.0338 0.9614
-8.6339 0.5862 -2.0338 0.9651
-8.6512 -0.2069 -2.0338 0.9651
-8.5959 -0.9982 -2.0338 0.9651
-8.4683 -1.7812 -2.0338 0.9651
-8.0015 -3.2957 -2.0338 0.9651
-7.6660 -4.0146 -2.0338 0.9651
-7.2662 -4.6997 -2.0338 0.9651
-6.8053 -5.3453 -2.0338 0.9651
-6.2872 -5.9460 -2.0338 0.9651
-5.0973 -6.9929 -2.0338 0.9651
-4.4355 -7.4303 -2.0338 0.9651
-7.8371 0.5321 -2.0338 0.9681
-7.8529 -0.1878 -2.0338 0.9681
-7.8026 -0.9061 -2.0338 0.9681
-7.6868 -1.6168 -2.0338 0.9681
-7.5064 -2.3139 -2.0338 0.9681
-7.2631 -2.9916 -2.0338 0.9681
-6.9586 -3.6441 -2.0338 0.9681
-6.1773 -4.8520 -2.0338 0.9681
-5.1887 -5.8972 -2.0338 0.9681
-2.7287 -7.3658 -2.0338 0.9681
-7.1679 0.4867 -2.0338 0.9706
-7.1823 -0.1717 -2.0338 0.9706
-7.1364 -0.8287 -2.0338 0.9706
-6.8655 -2.1163 -2.0338 0.9706
-6.3644 -3.3329 -2.0338 0.9706
-5.6498 -4.4377 -2.0338 0.9706
-5.2197 -4.9364 -2.0338 0.9706
-3.6824 -6.1687 -2.0338 0.9706
-2.4957 -6.7368 -2.0338 0.9706
-1.8683 -6.9371 -2.0338 0.9706
-1.2252 -7.0791 -2.0338 0.9706
-6.5973 0.4479 -2.0338 0.9727
-6.6105 -0.1581 -2.0338 0.9727
-6.4708 -1.3610 -2.0338 0.9727
-6.3190 -1.9479 -2.0338 0.9727
-6.1140 -2.5183 -2.0338 0.9727
-5.5522 -3.5911 -2.0338 0.9727
-5.2000 -4.0844 -2.0338 0.9727
-4.8042 -4.5435 -2.0338 0.9727
-4.3680 -4.9643 -2.0338 0.9727
-2.2970 -6.2006 -2.0338 0.9727
-1.7195 -6.3849 -2.0338 0.9727
-1.1277 -6.5155 -2.0338 0.9727
-6.1168 -0.1463 -2.0338 0.9745
-6.0777 -0.7058 -2.0338 0.9745
-5.9875 -1.2594 -2.0338 0.9745
-5.6574 -2.3302 -2.0338 0.9745
-5.1375 -3.3229 -2.0338 0.9745
-4.8116 -3.7794 -2.0338 0.9745
-3.1362 -5.2536 -2.0338 0.9745
-2.1255 -5.7375 -2.0338 0.9745
-1.5911 -5.9080 -2.0338 0.9745
-1.0434 -6.0289 -2.0338 0.9745
-5.6743 0.3853 -2.0339 0.9761
-5.6857 -0.1360 -2.0339 0.9761
-5.6494 -0.6560 -2.0338 0.9761
-5.5656 -1.1706 -2.0338 0.9761
-5.4350 -1.6754 -2.0338 0.9761
-5.2587 -2.1660 -2.0338 0.9761
-5.0382 -2.6384 -2.0338 0.9761
-4.7755 -3.0887 -2.0338 0.9761
-4.1321 -3.9078 -2.0338 0.9761
-3.3501 -4.5959 -2.0338 0.9761
-2.9152 -4.8834 -2.0338 0.9761
-2.4557 -5.1298 -2.0338 0.9761
-1.9757 -5.3331 -2.0338 0.9761
-1.4790 -5.4917 -2.0338 0.9761
-5.2951 0.3595 -2.0339 0.9775
-5.0718 -1.5634 -2.0338 0.9775
-4.4564 -2.8823 -2.0338 0.9775
-3.8560 -3.6467 -2.0338 0.9775
-3.1263 -4.2888 -2.0338 0.9775
-2.7204 -4.5570 -2.0338 0.9775
-1.3802 -5.1247 -2.0338 0.9775
-0.9051 -5.2295 -2.0338 0.9775
-2.1100 -0.2451 -0.8694 0.9909
-2.1214 -0.4462 -0.8872 0.9907
-4.5948 -1.8926 -2.0338 0.9788
-3.6105 -3.4145 -2.0338 0.9788
-2.9272 -4.0157 -2.0338 0.9788
-2.1457 -4.4822 -2.0338 0.9788
-1.7262 -4.6599 -2.0338 0.9788
-1.2923 -4.7984 -2.0338 0.9788
-0.8475 -4.8966 -2.0338 0.9788
-1.9038 -0.4004 -0.8479 0.9915
-4.1341 -2.1650 -2.0338 0.9798
-3.9185 -2.5345 -2.0338 0.9798
-3.6700 -2.8826 -2.0338 0.9798
-3.0827 -3.5036 -2.0338 0.9798
-2.0151 -4.2093 -2.0338 0.9798
-1.2136 -4.5062 -2.0338 0.9798
-1.5990 0.1085 -0.7418 0.9930
-1.5797 -0.0378 -0.7314 0.9931
-1.6092 -0.1869 -0.7499 0.9929
-1.5964 -0.3358 -0.7551 0.9928
-1.5331 -0.4726 -0.7426 0.9930
-3.8924 -2.0384 -2.0338 0.9808
-3.1923 -3.0191 -2.0338 0.9808
-2.5882 -3.5507 -2.0338 0.9808
-2.2521 -3.7728 -2.0338 0.9808
-1.5263 -4.1202 -2.0338 0.9808
-1.1427 -4.2427 -2.0338 0.9808
-0.7493 -4.3295 -2.0338 0.9808
-1.3528 -0.1571 -0.6680 0.9940
-3.8338 -1.5791 -2.0338 0.9817
-3.4815 -2.2518 -2.0338 0.9817
-2.7389 -3.1129 -2.0338 0.9817
-2.4424 -3.3506 -2.0338 0.9817
-2.1253 -3.5602 -2.0338 0.9817
-1.0782 -4.0037 -2.0338 0.9817
-0.7071 -4.0856 -2.0338 0.9817
-1.1959 -0.0286 -0.6206 0.9946
-1.1769 -0.2476 -0.6239 0.9946
-1.1457 -0.3532 -0.6220 0.9946
-3.4730 -1.8188 -2.0339 0.9825
-3.2919 -2.1291 -2.0338 0.9825
-2.8484 -2.6938 -2.0338 0.9825
-2.3093 -3.1681 -2.0338 0.9825
-2.0095 -3.3663 -2.0338 0.9825
-1.0195 -3.7856 -2.0338 0.9825
-1.0790 -0.0258 -0.5911 0.9951
-3.1180 -2.0167 -2.0339 0.9832
-2.9203 -2.2938 -2.0338 0.9832
-2.6979 -2.5515 -2.0338 0.9832
-1.2900 -3.4822 -2.0339 0.9832
-0.6333 -3.6591 -2.0339 0.9832
-0.9898 -0.0237 -0.5716 0.9954
-0.9729 -0.2047 -0.5740 0.9954
-0.9354 -0.3853 -0.5841 0.9953
-0.9062 -0.4746 -0.5906 0.9953
-2.7703 -2.1760 -2.0339 0.9839
-2.5594 -2.4206 -2.0339 0.9839
-2.3270 -2.6448 -2.0339 0.9839
-2.0750 -2.8467 -2.0339 0.9839
-1.5211 -3.1774 -2.0339 0.9839
-1.2237 -3.3034 -2.0339 0.9839
-0.9161 -3.4016 -2.0339 0.9839
