ply
format ascii 1.0
element vertex 192
property float32 x
property float32 y
property float32 z
property float32 I
end_header
16.5361 -3.8415 -0.8609 0.9343
16.2780 -3.7815 -1.2253 0.9352
1.6769 -17.0386 -2.0337 0.9334
3.1829 -16.8226 -2.0337 0.9334
1.8224 -6.4374 -0.7947 0.9734
2.8739 -5.8944 -0.7790 0.9739
8.8402 -14.6630 -2.0338 0.9334
10.1070 -13.8205 -2.0338 0.9334
12.3920 -11.8155 -2.0339 0.9334
13.3921 -10.6689 -2.0339 0.9334
14.2865 -9.4381 -2.0339 0.9334
15.0680 -8.1327 -2.0339 0.9334
16.2691 -5.3400 -2.0340 0.9334
1.4059 -14.2846 -2.0338 0.9437
1.7296 -6.1096 -0.8997 0.9747
12.6324 -6.8181 -2.0339 0.9437
13.1879 -5.6698 -2.0340 0.9437
13.6392 -4.4768 -2.0340 0.9437
-0.9826 -12.3061 -2.0338 0.9512
0.1137 -12.3448 -2.0338 0.9512
1.2092 -12.2861 -2.0338 0.9512
1.7591 -6.2138 -1.0639 0.9742
2.2725 -5.9512 -1.0494 0.9745
2.8761 -5.8988 -1.0811 0.9737
6.3743 -10.5729 -2.0338 0.9512
8.1437 -9.2792 -2.0339 0.9512
8.9354 -8.5197 -2.0339 0.9512
9.6565 -7.6929 -2.0339 0.9512
10.8648 -5.8641 -2.0339 0.9512
11.3426 -4.8765 -2.0339 0.9512
12.0264 -2.7938 -2.0340 0.9512
-0.8612 -10.7859 -2.0338 0.9569
1.0598 -10.7683 -2.0338 0.9569
2.0115 -10.6318 -2.0338 0.9569
2.7597 -5.6602 -1.1836 0.9747
3.6159 -5.9977 -1.3163 0.9719
7.1376 -8.1328 -2.0339 0.9569
8.4634 -6.7425 -2.0339 0.9569
9.5225 -5.1396 -2.0339 0.9569
9.9412 -4.2740 -2.0339 0.9569
10.2814 -3.3747 -2.0340 0.9569
-0.7657 -9.5910 -2.0338 0.9614
0.0887 -9.6211 -2.0338 0.9614
0.9424 -9.5753 -2.0338 0.9614
2.2148 -5.8001 -1.3124 0.9749
2.7505 -5.6412 -1.3266 0.9747
3.6078 -5.9842 -1.4770 0.9718
7.5258 -5.9955 -2.0339 0.9614
8.0283 -5.3038 -2.0339 0.9614
8.4675 -4.5702 -2.0339 0.9614
9.3727 -2.1774 -2.0340 0.9614
0.8476 -8.6121 -2.0338 0.9651
1.6570 -5.8531 -1.4297 0.9753
5.1084 -6.9853 -2.0339 0.9651
5.7084 -6.5043 -2.0339 0.9651
6.2632 -5.9719 -2.0339 0.9651
6.7687 -5.3923 -2.0339 0.9651
7.9505 -3.4181 -2.0339 0.9651
8.2226 -2.6989 -2.0339 0.9651
-0.6252 -7.8301 -2.0338 0.9681
0.0724 -7.8547 -2.0338 0.9681
0.7694 -7.8173 -2.0338 0.9681
1.6754 -5.9182 -1.5925 0.9749
4.0558 -6.7272 -2.0339 0.9681
5.1816 -5.9040 -2.0339 0.9681
5.6852 -5.4208 -2.0339 0.9681
6.5543 -4.3300 -2.0339 0.9681
6.9128 -3.7311 -2.0339 0.9681
7.2168 -3.1027 -2.0339 0.9681
-0.5718 -7.1615 -2.0338 0.9706
0.0662 -7.1840 -2.0338 0.9706
1.3356 -7.0591 -2.0338 0.9706
1.6661 -5.8854 -1.7316 0.9749
3.7095 -6.1527 -2.0339 0.9706
4.7391 -5.3999 -2.0339 0.9706
5.1997 -4.9579 -2.0339 0.9706
5.6194 -4.4767 -2.0339 0.9706
5.9946 -3.9602 -2.0339 0.9706
6.3225 -3.4125 -2.0339 0.9706
6.6005 -2.8377 -2.0339 0.9706
6.9984 -1.6258 -2.0339 0.9706
-0.5263 -6.5914 -2.0338 0.9727
1.7228 -6.0856 -1.9454 0.9739
2.3589 -6.1774 -2.0339 0.9727
2.8980 -5.9437 -2.0339 0.9727
3.4142 -5.6629 -2.0339 0.9727
3.9034 -5.3375 -2.0339 0.9727
4.3618 -4.9700 -2.0339 0.9727
5.5173 -3.6450 -2.0339 0.9727
5.8191 -3.1408 -2.0339 0.9727
6.2830 -2.0622 -2.0339 0.9727
-0.4870 -6.0991 -2.0338 0.9745
0.0564 -6.1183 -2.0338 0.9745
0.5993 -6.0892 -2.0338 0.9745
2.1827 -5.7160 -2.0339 0.9745
3.6118 -4.9389 -2.0339 0.9745
4.0360 -4.5988 -2.0339 0.9745
4.7857 -3.8126 -2.0339 0.9745
5.3846 -2.9062 -2.0339 0.9745
5.9602 -1.3846 -2.0339 0.9745
0.5570 -5.6601 -2.0338 0.9761
1.0573 -5.5882 -2.0338 0.9761
2.0289 -5.3132 -2.0339 0.9761
2.4925 -5.1122 -2.0339 0.9761
3.7516 -4.2747 -2.0339 0.9761
4.1163 -3.9248 -2.0339 0.9761
4.4484 -3.5439 -2.0339 0.9761
4.7455 -3.1351 -2.0339 0.9761
5.0051 -2.7014 -2.0339 0.9761
5.2252 -2.2465 -2.0339 0.9761
-0.4224 -5.2904 -2.0338 0.9775
0.0489 -5.3071 -2.0338 0.9775
0.5198 -5.2818 -2.0338 0.9775
2.3259 -4.7705 -2.0339 0.9775
2.7403 -4.5452 -2.0339 0.9775
3.1330 -4.2840 -2.0339 0.9775
3.5009 -3.9890 -2.0339 0.9775
4.1511 -3.3071 -2.0339 0.9775
4.6706 -2.5209 -2.0339 0.9775
5.0428 -1.6552 -2.0339 0.9775
5.1699 -1.2010 -2.0339 0.9775
0.0458 -4.9692 -2.0338 0.9788
1.3537 -4.7815 -2.0339 0.9788
2.9335 -4.0113 -2.0339 0.9788
3.2780 -3.7351 -2.0339 0.9788
3.5966 -3.4293 -2.0339 0.9788
4.1464 -2.7393 -2.0339 0.9788
4.5655 -1.9629 -2.0339 0.9788
4.8407 -1.1246 -2.0339 0.9787
-0.3714 -4.6520 -2.0338 0.9798
0.4571 -4.6443 -2.0339 0.9798
0.8675 -4.5854 -2.0339 0.9798
1.2712 -4.4903 -2.0339 0.9798
2.0452 -4.1948 -2.0339 0.9798
2.4095 -3.9967 -2.0339 0.9798
2.7548 -3.7670 -2.0339 0.9798
3.3775 -3.2205 -2.0339 0.9798
3.8939 -2.5724 -2.0339 0.9798
4.1069 -2.2166 -2.0339 0.9798
4.2875 -1.8433 -2.0339 0.9798
4.5459 -1.0561 -2.0339 0.9798
-0.3497 -4.3799 -2.0338 0.9808
0.0405 -4.3937 -2.0339 0.9808
0.4304 -4.3728 -2.0339 0.9808
0.8168 -4.3173 -2.0339 0.9808
1.1969 -4.2278 -2.0339 0.9808
2.2686 -3.7630 -2.0339 0.9808
2.5937 -3.5467 -2.0339 0.9808
2.8983 -3.3025 -2.0339 0.9808
3.4367 -2.7379 -2.0339 0.9808
3.6662 -2.4220 -2.0339 0.9808
3.8668 -2.0870 -2.0339 0.9808
4.0368 -1.7355 -2.0339 0.9808
0.0382 -4.1461 -2.0339 0.9817
0.4061 -4.1264 -2.0339 0.9817
2.4476 -3.3469 -2.0339 0.9817
2.7350 -3.1164 -2.0339 0.9817
3.2431 -2.5836 -2.0339 0.9817
3.6489 -1.9694 -2.0339 0.9817
3.8093 -1.6377 -2.0339 0.9817
3.9396 -1.2931 -2.0339 0.9817
0.0361 -3.9203 -2.0339 0.9825
1.0679 -3.7722 -2.0339 0.9825
1.3986 -3.6626 -2.0339 0.9825
1.7182 -3.5240 -2.0339 0.9825
2.0242 -3.3575 -2.0339 0.9825
2.3143 -3.1646 -2.0339 0.9825
2.8375 -2.7055 -2.0339 0.9825
3.0664 -2.4429 -2.0339 0.9825
3.2712 -2.1611 -2.0339 0.9825
3.4501 -1.8621 -2.0339 0.9825
3.6018 -1.5485 -2.0339 0.9825
3.7251 -1.2227 -2.0339 0.9825
-0.2955 -3.7017 -2.0339 0.9832
0.0342 -3.7133 -2.0339 0.9832
0.6904 -3.6487 -2.0339 0.9832
1.3247 -3.4691 -2.0339 0.9832
1.9173 -3.1802 -2.0339 0.9832
2.4495 -2.7910 -2.0339 0.9832
2.6876 -2.5626 -2.0339 0.9832
3.0985 -2.0469 -2.0339 0.9832
3.2679 -1.7638 -2.0339 0.9832
3.4116 -1.4667 -2.0339 0.9832
1.8576 -0.4315 -1.0445 0.9913
-0.2804 -3.5116 -2.0339 0.9839
0.3450 -3.5058 -2.0339 0.9839
0.9596 -3.3896 -2.0339 0.9839
1.5438 -3.1665 -2.0339 0.9839
1.8188 -3.0169 -2.0339 0.9839
2.0795 -2.8436 -2.0339 0.9839
1.7235 -0.5657 -1.0473 0.9917
1.7148 -0.3984 -1.0164 0.9919
