ply
format ascii 1.0
element vertex 184
property float32 x
property float32 y
property float32 z
property float32 I
end_header
-16.2596 5.4498 -1.2574 0.9335
-13.0335 -8.0351 -1.1227 0.9404
-16.0611 5.3833 -1.6263 0.9342
-11.4622 -8.5349 -1.3720 0.9442
-15.0377 8.1874 -2.0339 0.9334
-15.6961 6.8405 -2.0338 0.9334
-16.2341 5.4412 -2.0338 0.9334
-16.6477 4.0003 -2.0338 0.9334
-16.9337 2.5287 -2.0338 0.9334
-17.0898 1.0377 -2.0338 0.9334
-17.1149 -0.4612 -2.0337 0.9334
-17.0088 -1.9565 -2.0337 0.9334
-16.7724 -3.4368 -2.0337 0.9334
-16.4073 -4.8908 -2.0337 0.9334
-12.8029 -7.8929 -1.7866 0.9412
-11.2435 -8.3721 -1.6652 0.9451
-12.7847 -11.3868 -2.0337 0.9334
-10.6045 -13.4407 -2.0337 0.9334
-9.3882 -14.3168 -2.0337 0.9334
-13.1589 5.7348 -2.0339 0.9437
-13.6100 4.5617 -2.0338 0.9437
-14.3274 0.8700 -2.0338 0.9437
-14.2596 -1.6403 -2.0338 0.9437
-14.0614 -2.8813 -2.0337 0.9437
-12.8302 -6.4347 -2.0337 0.9437
-11.5123 -8.5722 -2.0337 0.9437
-9.8422 -10.4474 -2.0337 0.9437
-8.8905 -11.2682 -2.0337 0.9437
-10.8431 5.9036 -2.0339 0.9512
-11.7058 3.9235 -2.0338 0.9512
-12.0040 2.8845 -2.0338 0.9512
-12.3229 0.7483 -2.0338 0.9512
-11.4771 -4.5480 -2.0338 0.9512
-11.0352 -5.5345 -2.0337 0.9512
-10.2597 3.4388 -2.0339 0.9569
-10.7018 1.5981 -2.0338 0.9569
-10.8164 -0.2915 -2.0338 0.9569
-10.7494 -1.2365 -2.0338 0.9569
-10.6000 -2.1721 -2.0338 0.9569
-10.3693 -3.0910 -2.0338 0.9569
-10.0592 -3.9861 -2.0338 0.9569
-9.6719 -4.8507 -2.0338 0.9569
-7.4195 -7.8757 -2.0337 0.9569
-6.7020 -8.4945 -2.0337 0.9569
-8.8206 3.8441 -2.0339 0.9614
-9.3554 2.2480 -2.0338 0.9614
-9.5162 1.4210 -2.0338 0.9614
-9.4257 -1.9314 -2.0338 0.9614
-8.9448 -3.5445 -2.0338 0.9614
-8.6005 -4.3134 -2.0338 0.9614
-8.1901 -5.0492 -2.0338 0.9614
-6.5975 -7.0031 -2.0338 0.9614
-5.2760 -8.0458 -2.0338 0.9614
-7.6004 4.1381 -2.0339 0.9651
-8.2052 2.7502 -2.0339 0.9651
-8.5589 1.2781 -2.0338 0.9651
-8.6378 0.5245 -2.0338 0.9651
-8.5970 -0.9889 -2.0338 0.9651
-8.2930 -2.4721 -2.0338 0.9651
-7.7353 -3.8795 -2.0338 0.9651
-6.9408 -5.1682 -2.0338 0.9651
-5.3601 -6.7936 -2.0338 0.9651
-6.8990 3.7562 -2.0339 0.9681
-7.2011 3.1383 -2.0339 0.9681
-7.6378 1.8353 -2.0339 0.9681
-7.8523 -0.2116 -2.0338 0.9681
-7.3026 -2.8938 -2.0338 0.9681
-6.6865 -4.1222 -2.0338 0.9681
-6.3002 -4.6912 -2.0338 0.9681
-5.8657 -5.2244 -2.0338 0.9681
-5.3862 -5.7175 -2.0338 0.9681
-4.8655 -6.1667 -2.0338 0.9681
-6.5862 2.8703 -2.0339 0.9706
-6.8120 2.2832 -2.0339 0.9706
-7.1056 1.0611 -2.0339 0.9706
-7.1711 0.4354 -2.0338 0.9706
-7.1818 -0.1935 -2.0338 0.9706
-7.1372 -0.8210 -2.0338 0.9706
-6.6789 -2.6467 -2.0338 0.9706
-6.4219 -3.2208 -2.0338 0.9706
-6.1155 -3.7702 -2.0338 0.9706
-5.3648 -4.7782 -2.0338 0.9706
-4.9263 -5.2292 -2.0338 0.9706
-6.0619 2.6418 -2.0339 0.9727
-6.2697 2.1014 -2.0339 0.9727
-6.5400 0.9766 -2.0339 0.9727
-5.9106 -2.9644 -2.0338 0.9727
-4.9378 -4.3979 -2.0338 0.9727
-4.5341 -4.8129 -2.0338 0.9727
-4.0957 -5.1911 -2.0338 0.9727
-3.6260 -5.5295 -2.0338 0.9727
-5.3738 2.9258 -2.0339 0.9745
-5.6092 2.4445 -2.0339 0.9745
-5.9493 1.4296 -2.0339 0.9745
-6.0515 0.9037 -2.0339 0.9745
-6.0785 -0.6992 -2.0338 0.9745
-5.9939 -1.2282 -2.0338 0.9745
-5.8636 -1.7479 -2.0338 0.9745
-4.5690 -4.0694 -2.0338 0.9745
-4.1955 -4.4535 -2.0338 0.9745
-3.7899 -4.8034 -2.0338 0.9745
-5.2138 2.2722 -2.0339 0.9761
-5.5300 1.3288 -2.0339 0.9761
-5.6250 0.8400 -2.0339 0.9761
-5.6770 0.3447 -2.0339 0.9761
-5.6853 -0.1532 -2.0338 0.9761
-5.5716 -1.1417 -2.0338 0.9761
-3.8998 -4.1396 -2.0338 0.9761
-3.5228 -4.4649 -2.0338 0.9761
-3.1187 -4.7560 -2.0338 0.9761
-4.6613 2.5379 -2.0339 0.9775
-5.1605 1.2400 -2.0339 0.9775
-5.2491 0.7838 -2.0339 0.9775
-5.2975 0.3217 -2.0339 0.9775
-5.3054 -0.1430 -2.0339 0.9775
-5.2725 -0.6065 -2.0338 0.9775
-5.1993 -1.0654 -2.0338 0.9775
-5.0861 -1.5161 -2.0338 0.9775
-4.7440 -2.3793 -2.0338 0.9775
-4.5177 -2.7851 -2.0338 0.9775
-3.9632 -3.5299 -2.0338 0.9775
-3.6393 -3.8630 -2.0338 0.9775
-3.2874 -4.1665 -2.0338 0.9775
-2.9103 -4.4381 -2.0338 0.9775
-4.3645 2.3763 -2.0339 0.9788
-2.1227 -0.0572 -0.8691 0.9909
-2.1103 -0.2428 -0.8694 0.9909
-4.4420 -2.2278 -2.0338 0.9788
-4.2301 -2.6078 -2.0338 0.9788
-3.4076 -3.6171 -2.0338 0.9788
-2.7250 -4.1556 -2.0338 0.9788
-1.8997 0.4564 -0.8515 0.9915
-1.9039 0.2843 -0.8389 0.9916
-1.9071 -0.2194 -0.8366 0.9917
-1.9042 -0.3902 -0.8471 0.9916
-2.0521 -0.6117 -0.9332 0.9907
-4.3385 -1.7192 -2.0338 0.9798
-4.1714 -2.0921 -2.0338 0.9798
-3.9725 -2.4490 -2.0338 0.9798
-3.7430 -2.7871 -2.0338 0.9798
-3.4849 -3.1039 -2.0338 0.9798
-3.8590 2.1011 -2.0339 0.9808
-4.0280 1.7554 -2.0339 0.9808
-1.6771 0.5621 -0.8188 0.9922
-1.5812 0.3799 -0.7528 0.9929
-1.5966 0.0969 -0.7404 0.9930
-1.5813 -0.0426 -0.7322 0.9931
-1.6091 -0.1851 -0.7497 0.9929
-1.5405 -0.4592 -0.7441 0.9929
-3.9275 -1.9698 -2.0338 0.9808
-3.5241 -2.6241 -2.0338 0.9808
-3.0129 -3.1981 -2.0338 0.9808
-2.7216 -3.4495 -2.0338 0.9808
-2.4095 -3.6743 -2.0338 0.9808
-3.8011 1.6565 -2.0339 0.9817
-1.3482 0.2013 -0.6686 0.9939
-1.3509 0.0820 -0.6639 0.9940
-1.3529 -0.1557 -0.6680 0.9940
-1.2970 -0.3866 -0.6639 0.9940
-1.2527 -0.4964 -0.6610 0.9940
-3.7062 -1.8588 -2.0338 0.9817
-2.5683 -3.2551 -2.0338 0.9817
-1.1691 0.2809 -0.6238 0.9946
-1.1995 -0.1380 -0.6264 0.9946
-1.1788 -0.2416 -0.6242 0.9946
-1.1497 -0.3428 -0.6224 0.9946
-3.1445 -2.3414 -2.0338 0.9825
-2.9276 -2.6075 -2.0338 0.9825
-3.2614 1.7757 -2.0339 0.9832
-1.0813 0.0656 -0.5933 0.9951
-1.0793 -0.0291 -0.5914 0.9951
-1.0775 -0.1240 -0.5941 0.9951
-1.0359 -0.3088 -0.5921 0.9951
-1.0142 -0.4019 -0.5975 0.9950
-0.9821 -0.4926 -0.6018 0.9950
-3.1610 -1.9487 -2.0339 0.9832
-0.9003 0.4901 -0.5918 0.9953
-0.9661 0.2321 -0.5737 0.9954
-0.9740 -0.1996 -0.5740 0.9954
-0.9564 -0.2851 -0.5762 0.9954
-0.9122 -0.4575 -0.5892 0.9953
-2.8254 -2.1039 -2.0339 0.9839
-2.4155 -2.5641 -2.0339 0.9839
-2.1820 -2.7656 -2.0339 0.9839
