ply
format ascii 1.0
element vertex 205
property float32 x
property float32 y
property float32 z
property float32 I
end_header
13.9581 8.9265 -0.8403 0.9358
16.2796 -3.7641 -1.2251 0.9352
16.1835 -3.7418 -1.5947 0.9354
13.5376 8.6576 -1.5427 0.9375
13.4257 -10.6267 -2.0339 0.9334
15.7434 -6.7334 -2.0340 0.9334
16.2769 -5.3162 -2.0340 0.9334
16.4312 -3.7991 -2.0033 0.9343
16.9589 -2.3683 -2.0340 0.9333
17.1112 0.6535 -2.0341 0.9333
16.9867 2.1628 -2.0341 0.9333
14.4264 9.2260 -2.0341 0.9333
13.5550 10.4645 -2.0341 0.9333
12.5775 11.6212 -2.0341 0.9333
10.3356 13.6536 -2.0341 0.9333
11.9987 -7.8798 -2.0339 0.9437
12.6480 -6.7889 -2.0339 0.9437
13.1985 -5.6450 -2.0340 0.9437
13.6457 -4.4568 -2.0340 0.9437
13.9862 -3.2338 -2.0340 0.9437
14.3373 -0.7216 -2.0340 0.9437
14.3451 0.5479 -2.0340 0.9437
14.0249 3.0643 -2.0341 0.9437
13.6994 4.2914 -2.0341 0.9437
13.2668 5.4850 -2.0341 0.9437
11.3637 8.7728 -2.0341 0.9437
9.6422 10.6360 -2.0341 0.9437
8.6648 11.4463 -2.0341 0.9437
9.6807 -7.6624 -2.0339 0.9512
10.8784 -5.8390 -2.0339 0.9512
11.3518 -4.8551 -2.0339 0.9512
12.0293 -2.7813 -2.0340 0.9512
12.3379 0.4712 -2.0340 0.9512
12.2480 1.5595 -2.0340 0.9512
12.0625 2.6355 -2.0340 0.9512
11.4103 4.7175 -2.0341 0.9512
10.4019 6.6522 -2.0341 0.9512
9.7736 7.5453 -2.0341 0.9512
8.2930 9.1477 -2.0341 0.9512
7.4523 9.8446 -2.0341 0.9512
9.0449 -5.9399 -2.0339 0.9569
9.5343 -5.1176 -2.0339 0.9569
10.2864 -3.3597 -2.0340 0.9569
10.5431 -2.4377 -2.0340 0.9569
10.7173 -1.4967 -2.0340 0.9569
10.8077 -0.5440 -2.0340 0.9569
10.3267 3.2349 -2.0340 0.9569
10.0006 4.1346 -2.0340 0.9569
9.5962 5.0021 -2.0340 0.9569
7.9482 7.3439 -2.0341 0.9569
7.2684 8.0175 -2.0341 0.9569
7.5446 -5.9718 -2.0339 0.9614
8.0428 -5.2819 -2.0339 0.9614
8.4780 -4.5506 -2.0339 0.9614
9.1467 -2.9874 -2.0339 0.9614
9.3750 -2.1676 -2.0340 0.9614
9.5454 1.2154 -2.0340 0.9614
9.4007 2.0540 -2.0340 0.9614
8.8925 3.6765 -2.0340 0.9614
8.5329 4.4478 -2.0340 0.9614
8.1066 5.1843 -2.0340 0.9614
7.0676 6.5303 -2.0340 0.9614
6.4630 7.1291 -2.0340 0.9614
5.8079 7.6723 -2.0340 0.9614
6.7857 -5.3710 -2.0339 0.9651
7.2337 -4.7505 -2.0339 0.9651
8.4318 -1.9496 -2.0340 0.9651
8.6434 -0.4351 -2.0340 0.9651
8.6480 0.3303 -2.0340 0.9651
8.5851 1.0931 -2.0340 0.9651
8.2587 2.5871 -2.0340 0.9651
6.8506 5.2887 -2.0340 0.9651
5.8128 6.4119 -2.0340 0.9651
6.5661 -4.3121 -2.0339 0.9681
6.9214 -3.7151 -2.0339 0.9681
7.4674 -2.4389 -2.0339 0.9681
7.6537 -1.7696 -2.0339 0.9681
7.8457 -0.3949 -2.0340 0.9681
7.7928 0.9922 -2.0340 0.9681
7.6746 1.6768 -2.0340 0.9681
7.4966 2.3483 -2.0340 0.9681
6.9662 3.6312 -2.0340 0.9681
6.6181 4.2324 -2.0340 0.9681
6.2183 4.8006 -2.0340 0.9681
5.2763 5.8201 -2.0340 0.9681
6.0054 -3.9438 -2.0339 0.9706
6.6059 -2.8253 -2.0339 0.9706
7.0001 -1.6185 -2.0339 0.9706
7.1757 -0.3612 -2.0340 0.9706
7.1796 0.2742 -2.0340 0.9706
7.1273 0.9075 -2.0340 0.9706
7.0193 1.5337 -2.0340 0.9706
6.8564 2.1478 -2.0340 0.9706
6.3713 3.3211 -2.0340 0.9706
5.2771 4.8759 -2.0340 0.9706
4.3365 5.7286 -2.0340 0.9706
5.5273 -3.6299 -2.0339 0.9727
6.4428 -1.4897 -2.0339 0.9727
6.5599 0.8352 -2.0340 0.9727
6.3105 1.9768 -2.0340 0.9727
5.8641 3.0567 -2.0340 0.9727
5.5711 3.5628 -2.0340 0.9727
4.8570 4.4878 -2.0340 0.9727
4.4416 4.8993 -2.0340 0.9727
3.9913 5.2726 -2.0340 0.9727
4.7977 -3.7975 -2.0339 0.9745
5.1145 -3.3588 -2.0339 0.9745
5.3912 -2.8938 -2.0339 0.9745
5.6259 -2.4062 -2.0339 0.9745
5.8164 -1.8997 -2.0339 0.9745
5.9616 -1.3784 -2.0339 0.9745
6.1112 -0.3076 -2.0339 0.9745
6.1144 0.2335 -2.0340 0.9745
5.8391 1.8291 -2.0340 0.9745
5.6547 2.3379 -2.0340 0.9745
5.4261 2.8283 -2.0340 0.9745
5.1550 3.2967 -2.0340 0.9745
4.8436 3.7392 -2.0340 0.9745
4.4943 4.1526 -2.0340 0.9745
4.4596 -3.5299 -2.0339 0.9761
4.7540 -3.1221 -2.0339 0.9761
5.0113 -2.6899 -2.0339 0.9761
5.2294 -2.2366 -2.0339 0.9761
5.4066 -1.7658 -2.0339 0.9761
5.6805 -0.2859 -2.0339 0.9761
5.0437 2.6290 -2.0340 0.9761
4.7917 3.0644 -2.0340 0.9761
4.1616 -3.2940 -2.0339 0.9775
4.4364 -2.9134 -2.0339 0.9775
4.6764 -2.5101 -2.0339 0.9775
5.1711 -1.1956 -2.0339 0.9775
5.1853 1.1329 -2.0340 0.9775
5.0649 1.5866 -2.0340 0.9775
4.7066 2.4533 -2.0340 0.9775
4.4714 2.8595 -2.0340 0.9775
4.2013 3.2434 -2.0340 0.9775
3.8983 3.6019 -2.0340 0.9775
3.5648 3.9323 -2.0340 0.9775
3.2035 4.2318 -2.0340 0.9775
4.7240 -1.5429 -2.0339 0.9788
4.9661 0.1897 -2.0339 0.9787
4.8551 1.0608 -2.0340 0.9787
4.7425 1.4856 -2.0340 0.9787
4.1867 2.6775 -2.0340 0.9787
3.9339 3.0370 -2.0340 0.9787
3.6501 3.3726 -2.0340 0.9787
3.6593 -2.8964 -2.0339 0.9798
4.2910 -1.8352 -2.0339 0.9798
4.6221 -0.6455 -2.0339 0.9798
4.6611 -0.2346 -2.0339 0.9798
4.6636 0.1781 -2.0339 0.9798
4.6296 0.5894 -2.0339 0.9798
4.5595 0.9962 -2.0340 0.9798
4.4536 1.3951 -2.0340 0.9798
3.9318 2.5144 -2.0340 0.9798
3.6943 2.8520 -2.0340 0.9798
3.4278 3.1672 -2.0340 0.9798
2.8168 3.7211 -2.0340 0.9798
3.6729 -2.4120 -2.0339 0.9808
3.8716 -2.0781 -2.0339 0.9808
4.0400 -1.7279 -2.0339 0.9808
4.1769 -1.3642 -2.0339 0.9808
4.3909 0.1677 -2.0339 0.9808
4.1932 1.3135 -2.0340 0.9808
3.7018 2.3674 -2.0340 0.9808
3.2274 2.9820 -2.0340 0.9808
3.2512 -2.5734 -2.0339 0.9817
3.4658 -2.2761 -2.0339 0.9817
4.1066 -0.5735 -2.0339 0.9817
4.1434 0.1582 -2.0339 0.9817
4.1133 0.5237 -2.0339 0.9817
4.0509 0.8851 -2.0339 0.9817
3.9569 1.2395 -2.0339 0.9817
3.8319 1.5843 -2.0340 0.9817
3.2822 2.5339 -2.0340 0.9817
2.7850 3.0720 -2.0340 0.9817
3.6047 -1.5418 -2.0339 0.9825
3.7268 -1.2172 -2.0339 0.9825
2.0938 -0.2924 -1.0968 0.9905
2.0772 0.0793 -1.0784 0.9907
2.0891 0.2660 -1.0925 0.9906
2.1121 0.4615 -1.1216 0.9903
3.4767 1.8122 -2.0340 0.9825
2.8796 2.6607 -2.0340 0.9825
2.3664 3.1260 -2.0340 0.9825
2.9118 -2.3047 -2.0339 0.9832
1.8899 -0.6173 -1.0889 0.9910
1.8576 -0.4295 -1.0442 0.9913
1.8458 -0.2578 -1.0208 0.9915
1.8527 0.0707 -1.0155 0.9916
1.8446 0.2348 -1.0184 0.9916
1.8573 0.4058 -1.0412 0.9914
3.4318 1.4189 -2.0339 0.9832
3.1286 2.0008 -2.0339 0.9832
2.9396 2.2694 -2.0340 0.9832
2.4943 2.7513 -2.0340 0.9832
2.7623 -2.1864 -2.0339 0.9839
1.7677 -0.7560 -1.1100 0.9912
1.7157 0.2184 -0.9985 0.9920
1.7149 0.3747 -1.0135 0.9919
3.1240 1.6284 -2.0339 0.9839
2.9679 1.8980 -2.0339 0.9839
2.7886 2.1528 -2.0339 0.9839
2.5875 2.3908 -2.0339 0.9839
2.3662 2.6100 -2.0340 0.9839
