ply
format ascii 1.0
element vertex 202
property float32 x
property float32 y
property float32 z
property float32 I
end_header
-12.7534 12.9590 3.2060 0.9288
-10.9272 13.3015 2.2417 0.9329
-11.7311 11.9202 2.1779 0.9348
-4.6887 19.2200 1.6747 0.9237
-12.0168 12.2105 1.4503 0.9335
-12.0286 12.2225 1.0634 0.9336
-1.8209 7.4641 -0.7376 0.9696
-16.0293 5.7596 -1.6352 0.9338
-1.7914 7.3433 -0.8979 0.9700
-6.9611 15.6446 -2.0340 0.9334
-8.3343 14.9580 -2.0340 0.9334
-10.8691 13.2308 -2.0340 0.9334
-12.0104 12.2039 -2.0339 0.9334
-13.0551 11.0790 -2.0339 0.9334
-16.5668 4.3230 -2.0338 0.9334
-16.8873 2.8219 -2.0338 0.9334
-17.0720 1.2980 -2.0338 0.9334
-5.8358 13.1156 -2.0340 0.9437
-10.0689 10.2312 -2.0339 0.9437
-10.9448 9.2882 -2.0339 0.9437
-11.7326 8.2705 -2.0339 0.9437
-12.4261 7.1863 -2.0339 0.9437
-13.0197 6.0443 -2.0339 0.9437
-13.8889 3.6244 -2.0338 0.9437
-14.1577 2.3658 -2.0338 0.9437
-14.3125 1.0882 -2.0338 0.9437
-14.2768 -1.4829 -2.0338 0.9437
-1.0891 7.2265 -1.2039 0.9708
-1.7366 7.1186 -1.2071 0.9707
-5.0192 11.2804 -2.0340 0.9512
-6.0094 10.7854 -2.0340 0.9512
-7.8372 9.5401 -2.0339 0.9512
-9.4134 7.9886 -2.0339 0.9512
-11.9457 3.1173 -2.0338 0.9512
-12.1768 2.0348 -2.0338 0.9512
-12.3100 0.9359 -2.0338 0.9512
-12.2794 -1.2754 -2.0338 0.9512
-1.0784 7.1558 -1.3602 0.9710
-4.3991 9.8867 -2.0340 0.9569
-6.0924 8.9431 -2.0339 0.9569
-6.8689 8.3614 -2.0339 0.9569
-7.5902 7.7125 -2.0339 0.9569
-8.8443 6.2345 -2.0339 0.9569
-9.3671 5.4172 -2.0339 0.9569
-10.4699 2.7322 -2.0338 0.9569
-10.8193 -0.1494 -2.0338 0.9569
-2.4665 7.2254 -1.6139 0.9693
-4.6834 8.4056 -2.0340 0.9614
-5.4174 7.9523 -2.0339 0.9614
-8.3293 4.8170 -2.0339 0.9614
-8.7272 4.0516 -2.0339 0.9614
-9.4901 1.5858 -2.0338 0.9614
-9.6207 -0.1328 -2.0338 0.9614
-9.5701 -0.9940 -2.0338 0.9614
-4.2123 7.5600 -2.0339 0.9651
-6.0703 6.1681 -2.0339 0.9651
-6.5983 5.5996 -2.0339 0.9651
-7.0733 4.9860 -2.0339 0.9651
-7.4914 4.3324 -2.0339 0.9651
-7.8493 3.6440 -2.0339 0.9651
-8.5355 1.4263 -2.0338 0.9651
-8.6288 0.6560 -2.0338 0.9651
-8.6529 -0.1195 -2.0338 0.9651
-8.6074 -0.8940 -2.0338 0.9651
-1.8618 7.6318 -2.0340 0.9681
-2.5379 7.4344 -2.0340 0.9681
-3.1935 7.1772 -2.0340 0.9681
-4.4228 6.4922 -2.0339 0.9681
-4.9864 6.0699 -2.0339 0.9681
-6.8000 3.9326 -2.0339 0.9681
-7.1249 3.3077 -2.0339 0.9681
-7.3925 2.6562 -2.0339 0.9681
-7.6007 1.9834 -2.0339 0.9681
-7.8325 0.5955 -2.0338 0.9681
-7.8543 -0.1085 -2.0338 0.9681
-7.8130 -0.8115 -2.0338 0.9681
-2.3211 6.7995 -2.0340 0.9706
-4.5606 5.5516 -2.0339 0.9706
-5.8722 4.1394 -2.0339 0.9706
-6.2194 3.5968 -2.0339 0.9706
-6.5164 3.0253 -2.0339 0.9706
-6.7612 2.4294 -2.0339 0.9706
-6.9516 1.8140 -2.0339 0.9706
-7.0861 1.1841 -2.0339 0.9706
-7.1637 0.5446 -2.0338 0.9706
-7.1836 -0.0992 -2.0338 0.9706
-7.1459 -0.7422 -2.0338 0.9706
-0.9855 6.5390 -2.0340 0.9727
-3.7230 5.4651 -2.0339 0.9727
-4.1975 5.1096 -2.0339 0.9727
-4.6383 4.7131 -2.0339 0.9727
-5.4048 3.8099 -2.0339 0.9727
-5.7243 3.3105 -2.0339 0.9727
-6.2230 2.2360 -2.0339 0.9727
-6.3982 1.6696 -2.0339 0.9727
-6.5934 0.5013 -2.0338 0.9727
-1.4502 5.9445 -2.0340 0.9745
-1.9768 5.7908 -2.0339 0.9745
-2.9782 5.3451 -2.0339 0.9745
-5.5498 2.5764 -2.0339 0.9745
-5.7582 2.0690 -2.0339 0.9745
-5.9204 1.5449 -2.0339 0.9745
-6.1180 -0.0845 -2.0338 0.9745
-6.0858 -0.6321 -2.0338 0.9745
-0.8476 5.6242 -2.0340 0.9761
-1.3479 5.5256 -2.0340 0.9761
-1.8375 5.3827 -2.0339 0.9761
-2.3121 5.1964 -2.0339 0.9761
-3.2022 4.7005 -2.0339 0.9761
-4.3364 3.6801 -2.0339 0.9761
-4.9234 2.8473 -2.0339 0.9761
-5.3524 1.9232 -2.0339 0.9761
-5.5032 1.4361 -2.0339 0.9761
-5.6096 0.9374 -2.0339 0.9761
-5.6710 0.4312 -2.0339 0.9761
-5.6868 -0.0785 -2.0339 0.9761
-0.7910 5.2483 -2.0340 0.9775
-1.2579 5.1563 -2.0339 0.9775
-2.1577 4.8491 -2.0339 0.9775
-2.5833 4.6364 -2.0339 0.9775
-3.3690 4.1011 -2.0339 0.9775
-3.7228 3.7828 -2.0339 0.9775
-4.0467 3.4342 -2.0339 0.9775
-4.3379 3.0579 -2.0339 0.9775
-4.5944 2.6571 -2.0339 0.9775
-4.9947 1.7947 -2.0339 0.9775
-5.1354 1.3401 -2.0339 0.9775
-5.2789 -0.5483 -2.0338 0.9775
-0.7406 4.9141 -2.0339 0.9788
-1.1778 4.8280 -2.0339 0.9788
-1.6055 4.7031 -2.0339 0.9788
-2.0203 4.5404 -2.0339 0.9788
-2.7979 4.1071 -2.0339 0.9788
-3.1545 3.8400 -2.0339 0.9788
-4.0618 2.8632 -2.0339 0.9788
-4.3018 2.4879 -2.0339 0.9788
-4.8084 1.2548 -2.0339 0.9788
-2.1172 0.3538 -0.8785 0.9908
-2.1221 -0.0293 -0.8686 0.9909
-2.1134 -0.2196 -0.8696 0.9909
-0.6955 4.6148 -2.0339 0.9798
-1.1060 4.5340 -2.0339 0.9798
-1.5077 4.4167 -2.0339 0.9798
-2.2715 4.0768 -2.0339 0.9798
-2.9624 3.6061 -2.0339 0.9798
-3.2735 3.3263 -2.0339 0.9798
-3.5582 3.0197 -2.0339 0.9798
-3.8144 2.6888 -2.0339 0.9798
-4.2329 1.9651 -2.0339 0.9798
-4.3919 1.5781 -2.0339 0.9798
-1.9447 0.5074 -0.8759 0.9913
-1.9152 0.1456 -0.8371 0.9917
-1.9186 -0.0265 -0.8363 0.9917
-1.9098 -0.1984 -0.8368 0.9917
-1.7863 4.0146 -2.0339 0.9808
-2.1387 3.8384 -2.0339 0.9808
-3.0821 3.1317 -2.0339 0.9808
-3.3502 2.8431 -2.0339 0.9808
-3.5914 2.5316 -2.0339 0.9808
-3.9854 1.8502 -2.0339 0.9808
-1.5679 0.4091 -0.7501 0.9929
-1.6014 0.1217 -0.7434 0.9929
-1.5740 -0.0218 -0.7286 0.9931
-0.6179 4.1002 -2.0339 0.9817
-0.9827 4.0283 -2.0339 0.9817
-1.3395 3.9241 -2.0339 0.9817
-2.0182 3.6221 -2.0339 0.9817
-2.3345 3.4268 -2.0339 0.9817
-3.1614 2.6829 -2.0339 0.9817
-3.5893 2.0758 -2.0339 0.9817
-3.7608 1.7460 -2.0339 0.9817
-1.2658 0.4548 -0.6598 0.9940
-1.3122 0.3424 -0.6652 0.9940
-1.3527 0.1028 -0.6654 0.9940
-1.3534 -0.1406 -0.6675 0.9940
-0.9292 3.8089 -2.0339 0.9825
-1.2666 3.7104 -2.0339 0.9825
-2.4886 3.0294 -2.0339 0.9825
-2.9892 2.5368 -2.0339 0.9825
-3.2044 2.2588 -2.0339 0.9825
-3.3938 1.9627 -2.0339 0.9825
-3.5560 1.6508 -2.0339 0.9825
-1.1629 0.3034 -0.6235 0.9946
-1.1900 0.1988 -0.6259 0.9946
-1.1943 -0.0165 -0.6196 0.9946
-1.2001 -0.1247 -0.6259 0.9946
-0.8801 3.6077 -2.0339 0.9832
-1.1997 3.5144 -2.0339 0.9832
-2.0907 3.0690 -2.0339 0.9832
-2.6048 2.6468 -2.0339 0.9832
-0.9934 0.4612 -0.5999 0.9950
-1.0239 0.3679 -0.5959 0.9951
-1.0684 0.1785 -0.5933 0.9951
-1.0788 -0.1121 -0.5941 0.9951
-0.5250 3.4835 -2.0339 0.9839
-1.1381 3.3339 -2.0339 0.9839
-1.9834 2.9114 -2.0339 0.9839
-2.2362 2.7221 -2.0339 0.9839
-2.6859 2.2794 -2.0339 0.9839
-1.1925 0.6896 -0.7953 0.9937
-0.9895 -0.0137 -0.5714 0.9954
-0.9877 -0.1026 -0.5733 0.9954
