ply
format ascii 1.0
element vertex 174
property float32 x
property float32 y
property float32 z
property float32 I
end_header
17.5646 -3.2243 -1.3094 0.9309
3.6959 -16.7174 -2.0337 0.9334
2.5297 -6.0195 -0.7756 0.9740
9.3559 -14.3395 -2.0338 0.9334
12.8464 -11.3199 -2.0339 0.9334
13.8134 -10.1179 -2.0339 0.9334
15.4038 -7.4775 -2.0339 0.9334
16.8419 -3.0916 -2.0340 0.9334
17.0520 -1.5632 -2.0340 0.9333
0.5356 -14.3436 -2.0337 0.9437
3.0985 -14.0153 -2.0338 0.9437
2.5071 -5.9660 -0.9169 0.9742
3.1940 -6.0176 -0.9653 0.9729
8.8938 -11.2671 -2.0339 0.9437
9.8720 -10.4209 -2.0339 0.9437
12.2970 -7.4056 -2.0339 0.9437
13.4257 -5.0811 -2.0340 0.9437
0.4607 -12.3368 -2.0338 0.9512
1.9195 -6.0399 -1.0440 0.9746
2.4351 -5.7945 -1.0354 0.9748
3.1520 -5.9383 -1.1075 0.9731
6.7462 -10.3397 -2.0338 0.9512
8.4907 -8.9629 -2.0339 0.9512
9.2630 -8.1623 -2.0339 0.9512
11.1069 -5.3917 -2.0339 0.9512
11.5472 -4.3702 -2.0340 0.9512
11.8938 -3.3131 -2.0340 0.9512
12.2952 -1.1271 -2.0340 0.9512
0.4038 -10.8127 -2.0338 0.9569
1.4224 -6.4340 -1.2385 0.9735
2.4521 -5.8351 -1.1897 0.9746
3.0891 -5.8201 -1.2385 0.9735
6.7045 -8.4934 -2.0339 0.9569
9.2698 -5.5825 -2.0339 0.9569
9.7346 -4.7256 -2.0339 0.9569
10.1205 -3.8302 -2.0339 0.9569
10.4243 -2.9038 -2.0340 0.9569
10.6435 -1.9538 -2.0340 0.9569
10.7761 -0.9879 -2.0340 0.9569
1.3999 -6.3321 -1.3708 0.9738
1.8682 -5.8787 -1.3039 0.9751
5.2576 -8.0583 -2.0339 0.9614
6.6173 -6.9852 -2.0339 0.9614
7.2191 -6.3613 -2.0339 0.9614
7.7625 -5.6858 -2.0339 0.9614
8.2427 -4.9641 -2.0339 0.9614
9.2693 -2.5821 -2.0340 0.9614
9.4642 -1.7373 -2.0340 0.9614
1.1000 -8.5835 -2.0338 0.9651
1.3530 -6.1200 -1.4731 0.9746
2.3848 -5.6747 -1.4467 0.9750
6.9816 -5.1138 -2.0339 0.9651
7.4135 -4.4647 -2.0339 0.9651
7.7853 -3.7793 -2.0339 0.9651
8.6182 -0.7900 -2.0340 0.9651
0.2931 -7.8496 -2.0338 0.9681
1.3603 -6.1530 -1.6316 0.9743
1.8584 -5.8476 -1.5887 0.9750
3.0929 -5.8270 -1.7081 0.9731
4.8671 -6.1658 -2.0339 0.9681
5.4023 -5.7028 -2.0339 0.9681
5.8937 -5.1934 -2.0339 0.9681
6.3373 -4.6419 -2.0339 0.9681
7.7265 -1.4183 -2.0340 0.9681
7.8229 -0.7171 -2.0340 0.9681
0.2681 -7.1793 -2.0338 0.9706
0.9132 -7.1261 -2.0338 0.9706
1.8728 -5.8931 -1.7505 0.9746
2.5748 -6.1269 -1.8814 0.9727
4.9410 -5.2158 -2.0339 0.9706
5.3904 -4.7499 -2.0339 0.9706
5.7960 -4.2454 -2.0339 0.9706
6.1547 -3.7065 -2.0339 0.9706
7.0667 -1.2972 -2.0339 0.9706
0.2467 -6.6078 -2.0338 0.9727
0.8405 -6.5588 -2.0338 0.9727
1.4274 -6.4565 -2.0338 0.9727
2.5618 -6.0960 -2.0339 0.9727
3.1001 -5.8408 -2.0339 0.9727
3.6133 -5.5380 -2.0339 0.9727
4.0971 -5.1904 -2.0339 0.9727
6.3702 -1.7745 -2.0339 0.9727
6.5041 -1.1939 -2.0339 0.9727
0.7777 -6.0689 -2.0338 0.9745
1.3208 -5.9743 -2.0338 0.9745
1.8532 -5.8312 -2.0339 0.9745
2.8686 -5.4045 -2.0339 0.9745
3.3434 -5.1244 -2.0339 0.9745
4.5907 -4.0453 -2.0339 0.9745
4.9362 -3.6156 -2.0339 0.9745
5.2416 -3.1567 -2.0339 0.9745
5.5045 -2.6721 -2.0339 0.9745
6.0183 -1.1048 -2.0339 0.9745
6.0934 -0.5586 -2.0339 0.9745
0.2122 -5.6834 -2.0338 0.9761
1.7226 -5.4203 -2.0339 0.9761
2.2034 -5.2432 -2.0339 0.9761
2.6664 -5.0237 -2.0339 0.9761
3.1078 -4.7633 -2.0339 0.9761
3.5239 -4.4642 -2.0339 0.9761
3.9114 -4.1290 -2.0339 0.9761
4.5884 -3.3608 -2.0339 0.9761
4.8723 -2.9342 -2.0339 0.9761
5.3194 -2.0132 -2.0339 0.9761
5.5942 -1.0269 -2.0339 0.9761
0.1980 -5.3036 -2.0338 0.9775
0.6746 -5.2643 -2.0338 0.9775
1.1457 -5.1822 -2.0339 0.9775
2.9001 -4.4449 -2.0339 0.9775
3.6500 -3.8530 -2.0339 0.9775
4.2817 -3.1362 -2.0339 0.9775
4.7746 -2.3178 -2.0339 0.9775
4.9639 -1.8787 -2.0339 0.9775
5.1129 -1.4242 -2.0339 0.9775
5.2854 -0.4845 -2.0339 0.9775
0.1854 -4.9660 -2.0338 0.9788
0.6316 -4.9291 -2.0339 0.9788
1.9253 -4.5813 -2.0339 0.9788
2.3298 -4.3895 -2.0339 0.9788
2.7155 -4.1620 -2.0339 0.9788
3.7285 -3.2855 -2.0339 0.9788
4.0091 -2.9366 -2.0339 0.9788
4.2571 -2.5638 -2.0339 0.9788
4.7873 -1.3336 -2.0339 0.9788
4.9489 -0.4537 -2.0339 0.9787
0.1741 -4.6635 -2.0338 0.9798
2.1879 -4.1221 -2.0339 0.9798
3.2095 -3.3880 -2.0339 0.9798
3.9979 -2.4077 -2.0339 0.9798
4.6475 -0.4261 -2.0339 0.9798
0.9485 -4.2903 -2.0339 0.9808
2.0600 -3.8811 -2.0339 0.9808
2.4009 -3.6799 -2.0339 0.9808
3.0218 -3.1898 -2.0339 0.9808
3.7641 -2.2669 -2.0339 0.9808
3.9529 -1.9189 -2.0339 0.9808
4.1096 -1.5553 -2.0339 0.9808
4.3218 -0.7934 -2.0339 0.9808
4.3757 -0.4012 -2.0339 0.9808
1.2558 -3.9516 -2.0339 0.9817
1.6063 -3.8225 -2.0339 0.9817
1.9439 -3.6624 -2.0339 0.9817
2.2657 -3.4726 -2.0339 0.9817
2.8516 -3.0101 -2.0339 0.9817
3.3451 -2.4502 -2.0339 0.9817
3.5520 -2.1391 -2.0339 0.9817
3.7302 -1.8108 -2.0339 0.9817
3.9943 -1.1127 -2.0339 0.9817
4.0783 -0.7487 -2.0339 0.9817
4.1292 -0.3785 -2.0339 0.9817
1.1874 -3.7363 -2.0339 0.9825
2.4291 -3.0773 -2.0339 0.9825
3.1629 -2.3167 -2.0339 0.9825
3.3585 -2.0226 -2.0339 0.9825
3.7768 -1.0521 -2.0339 0.9825
1.7410 -3.2801 -2.0339 0.9832
2.3009 -2.9148 -2.0339 0.9832
2.7862 -2.4551 -2.0339 0.9832
2.9959 -2.1944 -2.0339 0.9832
3.3407 -1.6217 -2.0339 0.9832
3.4732 -1.3144 -2.0339 0.9832
0.1315 -3.5203 -2.0339 0.9839
0.4477 -3.4942 -2.0339 0.9839
0.7604 -3.4397 -2.0339 0.9839
1.0669 -3.3573 -2.0339 0.9839
1.3648 -3.2477 -2.0339 0.9839
1.6516 -3.1116 -2.0339 0.9839
1.9250 -2.9504 -2.0339 0.9839
2.8420 -2.0817 -2.0339 0.9839
3.0179 -1.8174 -2.0339 0.9839
3.1692 -1.5384 -2.0339 0.9839
1.7112 -0.4767 -1.0256 0.9918
1.7139 -0.3146 -1.0060 0.9920
1.7210 -0.1578 -0.9978 0.9920
