ply
format ascii 1.0
element vertex 183
property float32 x
property float32 y
property float32 z
property float32 I
end_header
-17.3189 4.9000 -1.3197 0.9304
-17.7405 5.0193 -1.7700 0.9286
-15.3900 7.5040 -2.0339 0.9334
-15.9958 6.1067 -2.0338 0.9334
-16.8237 3.1788 -2.0338 0.9334
-17.0396 1.6713 -2.0338 0.9334
-17.1205 0.1506 -2.0338 0.9334
-17.0661 -1.3712 -2.0337 0.9334
-16.0997 -5.8239 -2.0337 0.9334
-15.5184 -7.2314 -2.0337 0.9334
-14.8144 -8.5817 -2.0337 0.9334
-11.3610 -8.0086 -1.6511 0.9455
-12.0262 -12.1852 -2.0337 0.9334
-12.9024 6.2910 -2.0339 0.9437
-13.4102 5.1197 -2.0338 0.9437
-14.1044 2.6650 -2.0338 0.9437
-14.3532 0.1263 -2.0338 0.9437
-14.3076 -1.1496 -2.0338 0.9437
-14.1487 -2.4163 -2.0338 0.9437
-13.0102 -6.0626 -2.0337 0.9437
-11.7316 -8.2698 -2.0337 0.9437
-10.0824 -10.2157 -2.0337 0.9437
-9.1348 -11.0712 -2.0337 0.9437
-8.1149 -11.8391 -2.0337 0.9437
-11.0971 5.4108 -2.0339 0.9512
-11.5339 4.4034 -2.0339 0.9512
-12.1311 2.2921 -2.0338 0.9512
-12.3450 0.1086 -2.0338 0.9512
-12.3058 -0.9887 -2.0338 0.9512
-12.1692 -2.0783 -2.0338 0.9512
-11.6091 -4.1995 -2.0338 0.9512
-11.1900 -5.2144 -2.0337 0.9512
-10.6823 -6.1881 -2.0337 0.9512
-9.4182 -7.9812 -2.0337 0.9512
-7.8567 -9.5223 -2.0337 0.9512
-9.7261 4.7423 -2.0339 0.9569
-10.7688 1.0563 -2.0338 0.9569
-10.8200 0.0952 -2.0338 0.9569
-10.6658 -1.8215 -2.0338 0.9569
-10.1750 -3.6807 -2.0338 0.9569
-9.8076 -4.5702 -2.0338 0.9569
-8.2548 -6.9953 -2.0338 0.9569
-6.8862 -8.3460 -2.0337 0.9569
-6.1173 -8.9248 -2.0337 0.9569
-9.5757 0.9393 -2.0338 0.9614
-9.4842 -1.6197 -2.0338 0.9614
-9.3028 -2.4560 -2.0338 0.9614
-8.7211 -4.0639 -2.0338 0.9614
-8.3255 -4.8228 -2.0338 0.9614
-7.8639 -5.5434 -2.0338 0.9614
-8.3270 2.3559 -2.0339 0.9651
-8.6124 0.8447 -2.0338 0.9651
-8.6534 0.0762 -2.0338 0.9651
-8.6259 -0.6931 -2.0338 0.9651
-7.8438 -3.6551 -2.0338 0.9651
-7.4880 -4.3376 -2.0338 0.9651
-7.0729 -4.9858 -2.0338 0.9651
-6.6019 -5.5946 -2.0338 0.9651
-6.0786 -6.1590 -2.0338 0.9651
-5.5074 -6.6748 -2.0338 0.9651
-7.0607 3.4427 -2.0339 0.9681
-7.3386 2.8017 -2.0339 0.9681
-7.5585 2.1385 -2.0339 0.9681
-7.7186 1.4584 -2.0339 0.9681
-7.8176 0.7668 -2.0338 0.9681
-7.8548 0.0691 -2.0338 0.9681
-7.8299 -0.6291 -2.0338 0.9681
-7.5948 -2.0051 -2.0338 0.9681
-4.4409 -6.4791 -2.0338 0.9681
-6.9131 1.9559 -2.0339 0.9706
-7.1500 0.7013 -2.0338 0.9706
-7.1612 -0.5754 -2.0338 0.9706
-7.0818 -1.2094 -2.0338 0.9706
-6.9463 -1.8339 -2.0338 0.9706
-5.4810 -4.6446 -2.0338 0.9706
-5.0465 -5.1133 -2.0338 0.9706
-4.0618 -5.9258 -2.0338 0.9706
-6.1776 2.3585 -2.0339 0.9727
-6.5809 0.6455 -2.0339 0.9727
-6.5180 -1.1132 -2.0338 0.9727
-6.3933 -1.6879 -2.0338 0.9727
-6.2180 -2.2493 -2.0338 0.9727
-5.9935 -2.7929 -2.0338 0.9727
-5.7217 -3.3144 -2.0338 0.9727
-5.4045 -3.8097 -2.0338 0.9727
-5.0446 -4.2749 -2.0338 0.9727
-4.2082 -5.1003 -2.0338 0.9727
-3.7384 -5.4541 -2.0338 0.9727
-6.0122 1.1360 -2.0339 0.9745
-6.0893 0.5973 -2.0339 0.9745
-6.1183 0.0538 -2.0338 0.9745
-5.7536 -2.0813 -2.0338 0.9745
-5.2943 -3.0669 -2.0338 0.9745
-3.4592 -5.0467 -2.0338 0.9745
-5.1121 2.4926 -2.0339 0.9761
-5.3134 2.0285 -2.0339 0.9761
-5.4726 1.5484 -2.0339 0.9761
-5.6871 0.0500 -2.0339 0.9761
-5.6691 -0.4555 -2.0338 0.9761
-5.6062 -0.9574 -2.0338 0.9761
-5.4989 -1.4518 -2.0338 0.9761
-5.3482 -1.9347 -2.0338 0.9761
-5.1551 -2.4022 -2.0338 0.9761
-3.9950 -4.0479 -2.0338 0.9761
-3.6196 -4.3868 -2.0338 0.9761
-3.2155 -4.6911 -2.0338 0.9761
-4.7705 2.3260 -2.0339 0.9775
-5.2150 0.9854 -2.0339 0.9775
-5.2820 0.5181 -2.0339 0.9775
-5.3071 0.0467 -2.0339 0.9775
-5.2902 -0.4251 -2.0339 0.9775
-5.2315 -0.8935 -2.0338 0.9775
-5.1314 -1.3548 -2.0338 0.9775
-4.5923 -2.6603 -2.0338 0.9775
-4.0489 -3.4312 -2.0338 0.9775
-3.7281 -3.7774 -2.0338 0.9775
-4.7818 1.3529 -2.0339 0.9788
-2.1208 0.4007 -0.8833 0.9907
-2.1149 0.2074 -0.8697 0.9909
-2.1179 -0.3617 -0.8794 0.9908
-4.8047 -1.2685 -2.0338 0.9788
-4.6730 -1.6904 -2.0338 0.9788
-4.5043 -2.0990 -2.0338 0.9788
-3.7912 -3.2127 -2.0338 0.9788
-3.1627 -3.8331 -2.0338 0.9788
-2.8095 -4.0989 -2.0338 0.9788
-4.3599 1.6645 -2.0339 0.9798
-2.0075 0.5679 -0.9092 0.9909
-1.9111 0.1874 -0.8369 0.9917
-1.9051 -0.3254 -0.8423 0.9916
-4.3884 -1.5875 -2.0338 0.9798
-4.2300 -1.9712 -2.0338 0.9798
-3.2781 -3.3215 -2.0338 0.9798
-2.6384 -3.8493 -2.0338 0.9798
-3.9495 1.9257 -2.0339 0.9808
-1.5519 0.4390 -0.7465 0.9929
-3.9827 -1.8559 -2.0338 0.9808
-3.5912 -2.5315 -2.0338 0.9808
-3.3521 -2.8406 -2.0338 0.9808
-3.0864 -3.1273 -2.0338 0.9808
-2.7963 -3.3891 -2.0338 0.9808
-2.4841 -3.6242 -2.0338 0.9808
-1.2574 0.4800 -0.6602 0.9940
-1.3035 0.3688 -0.6645 0.9940
-1.3374 0.2527 -0.6676 0.9940
-1.3382 0.0117 -0.6565 0.9941
-1.3430 -0.2294 -0.6683 0.9939
-1.2644 -0.4574 -0.6596 0.9940
-3.5878 -2.0783 -2.0338 0.9817
-3.3889 -2.3889 -2.0338 0.9817
-2.9126 -2.9511 -2.0338 0.9817
-3.5239 1.7182 -2.0339 0.9825
-1.1266 0.4301 -0.6256 0.9946
-1.1839 0.2237 -0.6251 0.9946
-1.2003 0.1177 -0.6257 0.9946
-1.1934 0.0105 -0.6191 0.9946
-1.1891 -0.2031 -0.6258 0.9946
-1.1321 -0.4096 -0.6246 0.9946
-3.3924 -1.9651 -2.0338 0.9825
-3.2043 -2.2588 -2.0338 0.9825
-2.4950 -3.0240 -2.0338 0.9825
-2.2165 -3.2337 -2.0338 0.9825
-0.9864 0.4809 -0.6010 0.9950
-1.0182 0.3887 -0.5970 0.9950
-1.0380 0.2937 -0.5909 0.9951
-1.0630 0.2008 -0.5925 0.9951
-1.0794 0.1058 -0.5940 0.9951
-1.0807 -0.0869 -0.5938 0.9951
-1.0675 -0.1823 -0.5932 0.9951
-1.0234 -0.3702 -0.5960 0.9950
-3.2132 -1.8614 -2.0339 0.9832
-2.0995 -3.0630 -2.0338 0.9832
-0.9770 0.1846 -0.5740 0.9954
-0.9881 0.0969 -0.5732 0.9954
-0.9893 0.0087 -0.5712 0.9954
-0.9892 -0.0795 -0.5729 0.9954
-0.9800 -0.1674 -0.5740 0.9954
-0.9602 -0.2535 -0.5733 0.9954
-0.9214 -0.4294 -0.5869 0.9953
-1.1988 -0.6945 -0.7999 0.9936
-2.6875 -2.2775 -2.0339 0.9839
-2.4745 -2.5073 -2.0339 0.9839
-2.2419 -2.7172 -2.0339 0.9839
