ply
format ascii 1.0
element vertex 181
property float32 x
property float32 y
property float32 z
property float32 I
end_header
-11.8537 -8.2343 -0.7320 0.9438
-16.9241 -2.5881 -2.0337 0.9334
-16.6185 -4.1166 -2.0337 0.9334
-16.1752 -5.6110 -2.0337 0.9334
-14.8909 -8.4482 -2.0337 0.9334
-11.4098 -7.9260 -1.6503 0.9456
-9.6578 -14.1363 -2.0337 0.9334
-8.3321 -14.9561 -2.0337 0.9334
-6.9373 -15.6520 -2.0337 0.9334
-3.9872 -16.6498 -2.0337 0.9334
0.6535 -17.1084 -2.0337 0.9334
-13.5608 -4.7041 -2.0337 0.9437
-12.4841 -7.0827 -2.0337 0.9437
-10.1097 -10.1886 -2.0337 0.9437
-8.0968 -11.8514 -2.0337 0.9437
-0.7589 -14.3334 -2.0337 0.9437
-12.2036 -1.8662 -2.0338 0.9512
-11.6634 -4.0460 -2.0338 0.9512
-11.2471 -5.0900 -2.0337 0.9512
-10.7375 -6.0918 -2.0337 0.9512
-9.4563 -7.9360 -2.0337 0.9512
-5.0023 -11.2863 -2.0337 0.9512
-2.8751 -12.0058 -2.0337 0.9512
-0.6527 -12.3280 -2.0338 0.9512
-10.5028 -2.6017 -2.0338 0.9569
-9.8577 -4.4612 -2.0338 0.9569
-8.8864 -6.1730 -2.0338 0.9569
-8.2881 -6.9557 -2.0338 0.9569
-6.8910 -8.3420 -2.0337 0.9569
-5.2659 -9.4523 -2.0337 0.9569
-4.3843 -9.8920 -2.0338 0.9569
-3.4665 -10.2498 -2.0338 0.9569
-2.5199 -10.5226 -2.0338 0.9569
-1.5525 -10.7082 -2.0338 0.9569
0.4130 -10.8124 -2.0338 0.9569
-9.5110 -1.4545 -2.0338 0.9614
-9.3392 -2.3135 -2.0338 0.9614
-6.7768 -6.8298 -2.0338 0.9614
-3.0824 -9.1142 -2.0338 0.9614
-2.2408 -9.3569 -2.0338 0.9614
-0.5087 -9.6080 -2.0338 0.9614
-8.5543 -1.3082 -2.0338 0.9651
-8.3997 -2.0808 -2.0338 0.9651
-8.1757 -2.8361 -2.0338 0.9651
-6.0952 -6.1427 -2.0338 0.9651
-4.8816 -7.1452 -2.0338 0.9651
-4.2115 -7.5596 -2.0338 0.9651
-3.5064 -7.9113 -2.0338 0.9651
-2.0154 -8.4156 -2.0338 0.9651
0.3303 -8.6474 -2.0338 0.9651
-7.7648 -1.1874 -2.0338 0.9681
-7.4212 -2.5744 -2.0338 0.9681
-7.1563 -3.2387 -2.0338 0.9681
-6.0169 -5.0496 -2.0338 0.9681
-4.4311 -6.4858 -2.0338 0.9681
-3.8228 -6.8620 -2.0338 0.9681
-3.1829 -7.1812 -2.0338 0.9681
-2.5166 -7.4410 -2.0338 0.9681
-0.4153 -7.8441 -2.0338 0.9681
0.2998 -7.8494 -2.0338 0.9681
-7.1018 -1.0861 -2.0338 0.9706
-5.5031 -4.6184 -2.0338 0.9706
-5.0602 -5.0997 -2.0338 0.9706
-3.4964 -6.2760 -2.0338 0.9706
-1.0308 -7.1099 -2.0338 0.9706
-6.5364 -0.9996 -2.0338 0.9727
-6.4184 -1.5899 -2.0338 0.9727
-5.7513 -3.2629 -2.0338 0.9727
-5.0650 -4.2507 -2.0338 0.9727
-4.6574 -4.6937 -2.0338 0.9727
-3.7301 -5.4598 -2.0338 0.9727
-2.1184 -6.2638 -2.0338 0.9727
-0.3496 -6.6031 -2.0338 0.9727
0.2524 -6.6076 -2.0338 0.9727
-6.0482 -0.9249 -2.0338 0.9745
-5.7806 -2.0053 -2.0338 0.9745
-5.0250 -3.4907 -2.0338 0.9745
-4.6867 -3.9333 -2.0338 0.9745
-4.3096 -4.3432 -2.0338 0.9745
-3.4515 -5.0521 -2.0338 0.9745
-2.4793 -5.5937 -2.0338 0.9745
-1.9602 -5.7960 -2.0338 0.9745
-1.4250 -5.9503 -2.0338 0.9745
-0.8779 -6.0552 -2.0338 0.9745
-0.3235 -6.1100 -2.0338 0.9745
-4.6709 -3.2447 -2.0338 0.9761
-4.3565 -3.6561 -2.0338 0.9761
-4.0059 -4.0371 -2.0338 0.9761
-3.2083 -4.6960 -2.0338 0.9761
-2.3045 -5.1995 -2.0338 0.9761
-1.8221 -5.3876 -2.0338 0.9761
-1.3245 -5.5309 -2.0338 0.9761
-0.8160 -5.6285 -2.0338 0.9761
-0.3007 -5.6794 -2.0338 0.9761
0.2171 -5.6832 -2.0338 0.9761
-5.1515 -1.2761 -2.0338 0.9775
-5.0141 -1.7394 -2.0338 0.9775
-4.8351 -2.1882 -2.0338 0.9775
-4.6161 -2.6189 -2.0338 0.9775
-4.3588 -3.0279 -2.0338 0.9775
-4.0654 -3.4118 -2.0338 0.9775
-3.3800 -4.0917 -2.0338 0.9775
-2.9939 -4.3822 -2.0338 0.9775
-2.1505 -4.8520 -2.0338 0.9775
-1.7003 -5.0275 -2.0338 0.9775
-0.2806 -5.2999 -2.0338 0.9775
-2.1668 -0.5368 -0.9136 0.9904
-4.6949 -1.6286 -2.0338 0.9788
-4.3222 -2.4521 -2.0338 0.9788
-3.8066 -3.1945 -2.0338 0.9788
-3.5002 -3.5275 -2.0338 0.9788
-3.1648 -3.8312 -2.0338 0.9788
-2.8032 -4.1032 -2.0338 0.9788
-2.4184 -4.3412 -2.0338 0.9788
-2.0136 -4.5431 -2.0338 0.9788
-1.5921 -4.7075 -2.0338 0.9788
-1.1573 -4.8327 -2.0338 0.9788
-0.2627 -4.9624 -2.0338 0.9788
-1.9042 -0.2912 -0.8395 0.9916
-1.9080 -0.4727 -0.8567 0.9915
-4.2516 -1.9241 -2.0338 0.9798
-3.5747 -3.0000 -2.0338 0.9798
-2.9721 -3.5979 -2.0338 0.9798
-2.6326 -3.8533 -2.0338 0.9798
-1.4952 -4.4208 -2.0338 0.9798
-1.0869 -4.5384 -2.0338 0.9798
-0.6696 -4.6185 -2.0338 0.9798
-1.6104 -0.2463 -0.7541 0.9928
-1.5766 -0.3906 -0.7519 0.9929
-4.0030 -1.8116 -2.0338 0.9808
-3.0948 -3.1189 -2.0338 0.9808
-2.7983 -3.3875 -2.0338 0.9808
-2.4786 -3.6280 -2.0338 0.9808
-2.1384 -3.8384 -2.0338 0.9808
-1.7804 -4.0170 -2.0338 0.9808
-1.4077 -4.1622 -2.0338 0.9808
-1.0233 -4.2730 -2.0338 0.9808
-0.6304 -4.3484 -2.0338 0.9808
-0.2323 -4.3877 -2.0338 0.9808
-1.3474 -0.2061 -0.6686 0.9939
-1.3180 -0.3265 -0.6660 0.9940
-1.2727 -0.4415 -0.6608 0.9940
-3.6063 -2.0460 -2.0338 0.9817
-3.1760 -2.6654 -2.0338 0.9817
-2.9205 -2.9432 -2.0338 0.9817
-2.6407 -3.1967 -2.0338 0.9817
-2.3390 -3.4236 -2.0338 0.9817
-1.6801 -3.7906 -2.0338 0.9817
-0.5949 -4.1034 -2.0338 0.9817
-0.2192 -4.1405 -2.0339 0.9817
-1.1670 -0.2891 -0.6237 0.9946
-1.1027 -0.4991 -0.6279 0.9946
-3.4099 -1.9346 -2.0338 0.9825
-3.2198 -2.2367 -2.0338 0.9825
-2.4969 -3.0225 -2.0338 0.9825
-2.2116 -3.2371 -2.0338 0.9825
-1.5886 -3.5842 -2.0338 0.9825
-1.2560 -3.7138 -2.0338 0.9825
-0.5625 -3.8799 -2.0339 0.9825
-0.2073 -3.9150 -2.0339 0.9825
0.1496 -3.9176 -2.0339 0.9825
-1.0714 -0.1639 -0.5936 0.9951
-1.0453 -0.2590 -0.5898 0.9951
-0.9968 -0.4511 -0.5992 0.9950
-3.2298 -1.8324 -2.0339 0.9832
-2.8444 -2.3871 -2.0338 0.9832
-2.3650 -2.8629 -2.0338 0.9832
-2.0948 -3.0662 -2.0338 0.9832
-1.8073 -3.2440 -2.0338 0.9832
-1.1897 -3.5177 -2.0339 0.9832
-0.5328 -3.6750 -2.0339 0.9832
-0.1963 -3.7083 -2.0339 0.9832
-0.9825 -0.1503 -0.5739 0.9954
-0.9489 -0.3292 -0.5799 0.9954
-0.9251 -0.4187 -0.5862 0.9953
-1.1237 -0.6375 -0.7459 0.9941
-2.4812 -2.5006 -2.0339 0.9839
-1.9872 -2.9087 -2.0339 0.9839
-0.5055 -3.4863 -2.0339 0.9839
-0.1863 -3.5178 -2.0339 0.9839
0.1345 -3.5202 -2.0339 0.9839
