ply
format ascii 1.0
element vertex 190
property float32 x
property float32 y
property float32 z
property float32 I
end_header
2.1780 17.8405 2.3405 0.9301
2.2562 18.4811 1.9993 0.9278
2.1407 17.5347 1.0954 0.9317
3.8844 18.0614 0.7285 0.9287
3.8750 18.0180 0.3113 0.9289
14.4993 8.8052 -1.2438 0.9342
14.5238 8.8201 -1.6313 0.9340
16.8338 3.1387 -2.0341 0.9333
16.4820 4.6449 -2.0341 0.9333
15.3789 7.5316 -2.0341 0.9333
13.7750 10.1731 -2.0341 0.9333
12.8009 11.3746 -2.0341 0.9333
7.9518 15.1662 -2.0341 0.9333
6.5509 15.8218 -2.0341 0.9333
0.5330 17.1157 -2.0341 0.9333
-1.0136 17.0939 -2.0341 0.9333
12.2705 7.4517 -2.0341 0.9437
11.5481 8.5286 -2.0341 0.9437
10.7315 9.5358 -2.0341 0.9437
8.8429 11.3093 -2.0341 0.9437
7.7864 12.0611 -2.0341 0.9437
5.4918 13.2640 -2.0341 0.9437
3.0185 14.0350 -2.0341 0.9437
0.4468 14.3489 -2.0341 0.9437
-0.8497 14.3305 -2.0341 0.9437
12.1378 2.2631 -2.0340 0.9512
11.8842 3.3492 -2.0340 0.9512
11.5335 4.4078 -2.0340 0.9512
10.5535 6.4090 -2.0341 0.9512
4.7234 11.4080 -2.0341 0.9512
2.5961 12.0711 -2.0341 0.9512
1.4963 12.2561 -2.0341 0.9512
-0.4629 7.8071 -1.2884 0.9688
10.6382 1.9835 -2.0340 0.9569
10.4158 2.9353 -2.0340 0.9569
10.1085 3.8632 -2.0340 0.9569
9.7187 4.7596 -2.0340 0.9569
9.2496 5.6171 -2.0340 0.9569
8.0894 7.1881 -2.0341 0.9569
7.4079 7.8888 -2.0341 0.9569
6.6658 8.5250 -2.0341 0.9569
5.8694 9.0917 -2.0341 0.9569
4.1398 9.9985 -2.0340 0.9569
3.2207 10.3313 -2.0340 0.9569
2.2754 10.5797 -2.0340 0.9569
0.3368 10.8163 -2.0340 0.9569
-0.4443 7.4913 -1.4106 0.9699
9.4595 1.7637 -2.0340 0.9614
8.9885 3.4352 -2.0340 0.9614
8.2248 4.9948 -2.0340 0.9614
6.5871 7.0147 -2.0340 0.9614
5.9272 7.5804 -2.0340 0.9614
4.4683 8.5223 -2.0340 0.9614
3.6811 8.8907 -2.0340 0.9614
2.0232 9.4075 -2.0340 0.9614
1.1661 9.5516 -2.0340 0.9614
-0.4439 7.4858 -1.5851 0.9698
8.5078 1.5863 -2.0340 0.9651
7.3973 4.4923 -2.0340 0.9651
6.4695 5.7487 -2.0340 0.9651
5.9244 6.3089 -2.0340 0.9651
5.3309 6.8178 -2.0340 0.9651
3.3107 7.9962 -2.0340 0.9651
2.5757 8.2624 -2.0340 0.9651
1.8197 8.4610 -2.0340 0.9651
1.0487 8.5907 -2.0340 0.9651
0.2693 8.6503 -2.0340 0.9651
7.5612 2.1309 -2.0340 0.9681
6.7146 4.0777 -2.0340 0.9681
5.8724 5.2181 -2.0340 0.9681
5.3776 5.7267 -2.0340 0.9681
3.6479 6.9575 -2.0340 0.9681
3.0052 7.2583 -2.0340 0.9681
2.3380 7.4998 -2.0340 0.9681
1.6517 7.6802 -2.0340 0.9681
0.9520 7.7978 -2.0340 0.9681
0.2445 7.8519 -2.0340 0.9681
-0.4650 7.8419 -2.0340 0.9681
7.0631 1.3169 -2.0340 0.9706
6.4526 3.1601 -2.0340 0.9706
6.1412 3.7294 -2.0340 0.9706
5.3709 4.7725 -2.0340 0.9706
4.4257 5.6601 -2.0340 0.9706
3.3363 6.3633 -2.0340 0.9706
2.7485 6.6384 -2.0340 0.9706
0.8707 7.1319 -2.0340 0.9706
0.2236 7.1814 -2.0340 0.9706
6.5008 1.2121 -2.0340 0.9727
6.3650 1.7937 -2.0340 0.9727
6.1771 2.3608 -2.0340 0.9727
5.6523 3.4325 -2.0340 0.9727
5.3195 3.9285 -2.0340 0.9727
4.9433 4.3925 -2.0340 0.9727
4.5268 4.8206 -2.0340 0.9727
3.0707 5.8567 -2.0340 0.9727
1.9681 6.3132 -2.0340 0.9727
5.8895 1.6598 -2.0340 0.9745
5.7157 2.1844 -2.0340 0.9745
5.4954 2.6912 -2.0340 0.9745
5.2301 3.1761 -2.0340 0.9745
4.5741 4.0644 -2.0340 0.9745
2.3408 5.6536 -2.0340 0.9745
1.8211 5.8417 -2.0340 0.9745
0.1904 6.1160 -2.0340 0.9745
-0.3622 6.1082 -2.0340 0.9745
5.5914 1.0425 -2.0340 0.9761
5.3129 2.0305 -2.0340 0.9761
5.1080 2.5016 -2.0340 0.9761
4.2518 3.7780 -2.0340 0.9761
3.8934 4.1462 -2.0340 0.9761
3.5035 4.4806 -2.0340 0.9761
2.6411 5.0374 -2.0340 0.9761
2.1758 5.2551 -2.0340 0.9761
1.6928 5.4300 -2.0340 0.9761
1.1959 5.5605 -2.0340 0.9761
5.1086 1.4397 -2.0340 0.9775
3.2693 4.1812 -2.0340 0.9775
2.4646 4.7007 -2.0340 0.9775
2.0304 4.9039 -2.0340 0.9775
0.6432 5.2685 -2.0340 0.9775
0.1652 5.3050 -2.0340 0.9775
-0.3141 5.2983 -2.0340 0.9775
4.7834 1.3480 -2.0340 0.9787
4.6422 1.7741 -2.0340 0.9787
4.4632 2.1858 -2.0340 0.9787
3.9977 2.9523 -2.0340 0.9787
3.7150 3.3010 -2.0340 0.9787
3.4020 3.6228 -2.0340 0.9787
2.6955 4.1752 -2.0340 0.9787
1.0449 4.8586 -2.0340 0.9787
0.1547 4.9672 -2.0340 0.9787
-0.2942 4.9609 -2.0340 0.9788
4.5879 0.8554 -2.0339 0.9798
4.4920 1.2659 -2.0340 0.9798
4.3595 1.6661 -2.0340 0.9798
3.9891 2.4225 -2.0340 0.9798
2.8748 3.6765 -2.0340 0.9798
0.5655 4.6326 -2.0340 0.9798
0.1452 4.6647 -2.0340 0.9798
-0.2762 4.6588 -2.0340 0.9798
4.3196 0.8054 -2.0339 0.9808
4.2293 1.1919 -2.0340 0.9808
4.1045 1.5686 -2.0340 0.9808
3.9463 1.9326 -2.0340 0.9808
3.7558 2.2808 -2.0340 0.9808
3.5346 2.6104 -2.0340 0.9808
3.2847 2.9187 -2.0340 0.9808
2.7066 3.4615 -2.0340 0.9808
2.3832 3.6916 -2.0340 0.9808
1.6810 4.0598 -2.0340 0.9808
0.9239 4.2958 -2.0340 0.9808
0.5325 4.3617 -2.0340 0.9808
0.1368 4.3919 -2.0340 0.9808
4.0763 0.7600 -2.0339 0.9817
3.9911 1.1247 -2.0339 0.9817
3.7239 1.8237 -2.0340 0.9817
3.3355 2.4633 -2.0340 0.9817
3.0996 2.7543 -2.0340 0.9817
2.8385 3.0227 -2.0340 0.9817
1.9254 3.6723 -2.0340 0.9817
1.5862 3.8311 -2.0340 0.9817
0.5025 4.1159 -2.0340 0.9817
0.1291 4.1445 -2.0339 0.9817
-0.2454 4.1392 -2.0339 0.9817
2.1048 0.3924 -1.1108 0.9904
3.7737 1.0635 -2.0339 0.9825
3.3511 2.0351 -2.0340 0.9825
2.9308 2.6042 -2.0340 0.9825
2.1264 3.2939 -2.0340 0.9825
1.1669 3.7430 -2.0340 0.9825
0.8243 3.8330 -2.0340 0.9825
0.1220 3.9187 -2.0339 0.9825
1.8546 0.3458 -1.0333 0.9914
3.4689 1.3257 -2.0339 0.9832
3.1741 1.9276 -2.0339 0.9832
2.9873 2.2062 -2.0340 0.9832
2.7760 2.4667 -2.0340 0.9832
2.5421 2.7071 -2.0340 0.9832
2.2875 2.9255 -2.0340 0.9832
2.0142 3.1199 -2.0340 0.9832
1.7244 3.2889 -2.0340 0.9832
1.1053 3.5453 -2.0339 0.9832
0.4500 3.6862 -2.0339 0.9832
0.1156 3.7118 -2.0339 0.9832
3.1639 1.5494 -2.0339 0.9839
2.6334 2.3400 -2.0339 0.9839
2.4116 2.5681 -2.0339 0.9839
2.1700 2.7752 -2.0340 0.9839
1.3477 3.2549 -2.0339 0.9839
0.1096 3.5212 -2.0339 0.9839
