ply
format ascii 1.0
element vertex 213
property float32 x
property float32 y
property float32 z
property float32 I
end_header
-12.2722 13.1793 3.1754 0.9295
-11.8407 12.7160 2.6618 0.9321
-11.3315 12.1690 2.1653 0.9351
-4.3221 19.4032 1.2327 0.9234
-12.6603 13.5961 0.7325 0.9283
-12.0464 12.9368 -0.4977 0.9317
-1.6907 7.5900 -0.5702 0.9693
-16.6725 4.9829 -1.2759 0.9326
-1.0357 7.8768 -0.7627 0.9686
-1.6606 7.4548 -0.7332 0.9698
-16.5472 4.9455 -1.6580 0.9330
-0.9928 7.5504 -0.9046 0.9698
-6.6056 15.7980 -2.0340 0.9333
-9.2820 14.3891 -2.0340 0.9334
-10.5164 13.5129 -2.0340 0.9334
-13.6912 10.2823 -2.0339 0.9334
-14.5457 9.0329 -2.0339 0.9334
-15.9077 6.3326 -2.0338 0.9334
-16.4047 4.9029 -2.0338 0.9334
-16.7735 3.4348 -2.0338 0.9334
-17.0111 1.9400 -2.0338 0.9334
-17.1158 0.4300 -2.0338 0.9334
-1.6176 7.2620 -1.0542 0.9704
-4.3465 13.6816 -2.0340 0.9437
-6.6859 12.7032 -2.0340 0.9437
-7.7816 12.0630 -2.0340 0.9437
-13.3364 5.3090 -2.0338 0.9437
-14.0622 2.8796 -2.0338 0.9437
-14.3249 -0.9082 -2.0338 0.9437
-0.5221 12.3359 -2.0340 0.9512
-0.9683 7.3641 -1.2236 0.9703
-1.5886 7.1315 -1.2036 0.9708
-2.4557 7.7297 -1.3361 0.9677
-4.7629 11.3910 -2.0340 0.9512
-5.7503 10.9258 -2.0340 0.9512
-6.6927 10.3752 -2.0340 0.9512
-9.1788 8.2571 -2.0339 0.9512
-11.0224 5.5614 -2.0339 0.9512
-11.4704 4.5662 -2.0339 0.9512
-12.0947 2.4768 -2.0338 0.9512
-12.2661 1.3989 -2.0338 0.9512
-12.3207 -0.7811 -2.0338 0.9512
-0.3314 7.8292 -1.4729 0.9686
-1.6185 7.2657 -1.3992 0.9702
-2.2747 7.1600 -1.4121 0.9699
-6.6461 8.5396 -2.0339 0.9569
-7.3742 7.9193 -2.0339 0.9569
-8.6525 6.4981 -2.0339 0.9569
-9.1925 5.7086 -2.0339 0.9569
-9.6607 4.8744 -2.0339 0.9569
-10.3674 3.0985 -2.0338 0.9569
-10.7507 1.2260 -2.0338 0.9569
-10.8170 0.2718 -2.0338 0.9569
-1.6218 7.2811 -1.5768 0.9700
-2.2727 7.1537 -1.5866 0.9698
-3.7120 8.8775 -2.0340 0.9614
-5.2160 8.0858 -2.0339 0.9614
-5.9097 7.5935 -2.0339 0.9614
-6.5572 7.0419 -2.0339 0.9614
-8.5904 4.3344 -2.0339 0.9614
-8.9395 3.5587 -2.0339 0.9614
-9.4261 1.9303 -2.0338 0.9614
-9.5597 1.0902 -2.0338 0.9614
-9.6023 -0.6088 -2.0338 0.9614
-0.3660 8.6467 -2.0340 0.9651
-1.6075 7.2170 -1.7377 0.9701
-4.6912 7.2724 -2.0339 0.9651
-8.4779 1.7361 -2.0338 0.9651
-8.6363 -0.5476 -2.0338 0.9651
-0.3322 7.8487 -2.0340 0.9681
-0.9682 7.3634 -1.9229 0.9698
-1.7080 7.6677 -2.0340 0.9681
-3.0304 7.2476 -2.0340 0.9681
-4.8246 6.1993 -2.0339 0.9681
-5.8400 5.2537 -2.0339 0.9681
-7.2982 2.9053 -2.0339 0.9681
-7.5262 2.2494 -2.0339 0.9681
-7.6955 1.5759 -2.0339 0.9681
-7.8526 0.1973 -2.0338 0.9681
-7.8393 -0.4971 -2.0338 0.9681
-0.3039 7.1784 -2.0340 0.9706
-0.9367 7.1235 -2.0340 0.9706
-1.5621 7.0129 -2.0340 0.9706
-4.4126 5.6699 -2.0339 0.9706
-4.8961 5.2580 -2.0339 0.9706
-5.7448 4.3145 -2.0339 0.9706
-6.1034 3.7902 -2.0339 0.9706
-6.6750 2.6572 -2.0339 0.9706
-7.0384 1.4413 -2.0339 0.9706
-7.1821 0.1804 -2.0338 0.9706
-0.8621 6.5564 -2.0340 0.9727
-2.5510 6.1009 -2.0339 0.9727
-3.0798 5.8518 -2.0339 0.9727
-5.2875 3.9710 -2.0339 0.9727
-6.1436 2.4457 -2.0339 0.9727
-6.3356 1.8935 -2.0339 0.9727
-6.6104 0.1661 -2.0338 0.9727
-0.2587 6.1134 -2.0340 0.9745
-2.3604 5.6453 -2.0339 0.9745
-3.3168 5.1418 -2.0339 0.9745
-3.7580 4.8287 -2.0339 0.9745
-4.1698 4.4780 -2.0339 0.9745
-4.8926 3.6744 -2.0339 0.9745
-5.4627 2.7562 -2.0339 0.9745
-5.6848 2.2630 -2.0339 0.9745
-5.8624 1.7521 -2.0339 0.9745
-5.9942 1.2275 -2.0339 0.9745
-6.0792 0.6933 -2.0339 0.9745
-6.1166 0.1537 -2.0338 0.9745
-6.1063 -0.3871 -2.0338 0.9745
-0.7415 5.6391 -2.0340 0.9761
-2.1941 5.2474 -2.0339 0.9761
-2.6489 5.0331 -2.0339 0.9761
-3.0831 4.7795 -2.0339 0.9761
-3.8759 4.1624 -2.0339 0.9761
-4.2284 3.8038 -2.0339 0.9761
-4.5478 3.4155 -2.0339 0.9761
-4.8316 3.0005 -2.0339 0.9761
-5.0777 2.5620 -2.0339 0.9761
-5.5718 1.1410 -2.0339 0.9761
-5.6508 0.6444 -2.0339 0.9761
-5.6856 0.1428 -2.0339 0.9761
-5.6760 -0.3599 -2.0338 0.9761
-0.2245 5.3028 -2.0340 0.9775
-0.6919 5.2623 -2.0340 0.9775
-2.4719 4.6967 -2.0339 0.9775
-3.6169 3.8842 -2.0339 0.9775
-4.2439 3.1872 -2.0339 0.9775
-4.5087 2.8000 -2.0339 0.9775
-5.0851 1.5197 -2.0339 0.9775
-5.1994 1.0647 -2.0339 0.9775
-5.2731 0.6014 -2.0339 0.9775
-5.3056 0.1333 -2.0339 0.9775
-5.2966 -0.3358 -2.0339 0.9775
-0.2102 4.9652 -2.0340 0.9788
-0.6479 4.9272 -2.0340 0.9788
-1.0805 4.8507 -2.0339 0.9788
-1.5047 4.7363 -2.0339 0.9788
-1.9171 4.5849 -2.0339 0.9788
-2.6939 4.1761 -2.0339 0.9788
-3.3866 3.6369 -2.0339 0.9788
-3.6946 3.3236 -2.0339 0.9788
-3.9736 2.9843 -2.0339 0.9788
-4.6171 1.8380 -2.0339 0.9788
-2.1217 0.4344 -0.8864 0.9907
-2.1227 0.0533 -0.8690 0.9909
-2.1210 -0.1345 -0.8698 0.9909
-0.1974 4.6628 -2.0340 0.9798
-0.6084 4.6271 -2.0339 0.9798
-1.4130 4.4479 -2.0339 0.9798
-2.1736 4.1298 -2.0339 0.9798
-2.8663 3.6830 -2.0339 0.9798
-3.4695 3.1212 -2.0339 0.9798
-3.7316 2.8026 -2.0339 0.9798
-4.1665 2.1022 -2.0339 0.9798
-4.3359 1.7261 -2.0339 0.9798
-1.9043 0.3899 -0.8471 0.9916
-1.9168 -0.1216 -0.8370 0.9917
-0.5728 4.3565 -2.0339 0.9808
-1.3304 4.1878 -2.0339 0.9808
-2.3819 3.6924 -2.0339 0.9808
-3.2667 2.9387 -2.0339 0.9808
-3.7327 2.3180 -2.0339 0.9808
-3.9229 1.9793 -2.0339 0.9808
-1.5988 0.3274 -0.7554 0.9928
-1.5804 0.0397 -0.7318 0.9931
-0.1754 4.1428 -2.0339 0.9817
-0.5405 4.1111 -2.0339 0.9817
-0.9015 4.0472 -2.0339 0.9817
-1.2555 3.9518 -2.0339 0.9817
-1.5996 3.8255 -2.0339 0.9817
-1.9311 3.6693 -2.0339 0.9817
-2.5466 3.2722 -2.0339 0.9817
-3.3154 2.4900 -2.0339 0.9817
-1.2918 0.5142 -0.6820 0.9938
-1.2966 0.3875 -0.6638 0.9940
-1.3327 0.2729 -0.6673 0.9940
-1.3529 0.1543 -0.6679 0.9940
-0.5111 3.8871 -2.0339 0.9825
-2.4079 3.0940 -2.0339 0.9825
-2.6718 2.8692 -2.0339 0.9825
-3.1349 2.3544 -2.0339 0.9825
-3.3305 2.0683 -2.0339 0.9825
-3.5002 1.7661 -2.0339 0.9825
-1.1217 0.4465 -0.6263 0.9946
-1.1495 0.3435 -0.6224 0.9946
-1.1788 0.2414 -0.6242 0.9946
-1.1998 -0.0761 -0.6237 0.9946
-1.4325 3.4261 -2.0339 0.9832
-1.7295 3.2862 -2.0339 0.9832
-2.0130 3.1206 -2.0339 0.9832
-2.2807 2.9306 -2.0339 0.9832
-2.5307 2.7177 -2.0339 0.9832
-2.7608 2.4836 -2.0339 0.9832
-2.9693 2.2300 -2.0339 0.9832
-3.1547 1.9591 -2.0339 0.9832
-1.0137 0.4035 -0.5976 0.9950
-1.0358 0.3095 -0.5921 0.9951
-1.0777 0.1229 -0.5941 0.9951
-1.0813 -0.0686 -0.5934 0.9951
-0.7659 3.4386 -2.0339 0.9839
-1.0666 3.3575 -2.0339 0.9839
-1.3590 3.2502 -2.0339 0.9839
-1.6407 3.1174 -2.0339 0.9839
-1.9096 2.9604 -2.0339 0.9839
-2.1636 2.7801 -2.0339 0.9839
-2.4007 2.5781 -2.0339 0.9839
-2.8168 2.1155 -2.0339 0.9839
-0.9386 0.3736 -0.5833 0.9953
-0.9563 0.2858 -0.5763 0.9954
-0.9740 0.1994 -0.5740 0.9954
-0.9869 0.1125 -0.5735 0.9954
-0.9898 0.0248 -0.5717 0.9954
