ply
format ascii 1.0
element vertex 172
property float32 x
property float32 y
property float32 z
property float32 I
end_header
16.5880 -3.6796 -0.8617 0.9342
13.7208 9.0339 -0.8331 0.9363
13.4067 8.8271 -1.5410 0.9375
14.3776 -9.2988 -2.0339 0.9334
15.7965 -6.6079 -2.0340 0.9334
16.7169 -3.7082 -2.0340 0.9334
16.9805 -2.2085 -2.0340 0.9333
17.1096 -0.6914 -2.0340 0.9333
17.1036 0.8312 -2.0341 0.9333
16.6868 3.8449 -2.0341 0.9333
15.0825 8.1092 -2.0341 0.9333
13.4095 10.6503 -2.0341 0.9333
12.6985 -6.6941 -2.0339 0.9437
13.6829 -4.3414 -2.0340 0.9437
14.0146 -3.1088 -2.0340 0.9437
13.6476 4.4533 -2.0341 0.9437
13.1981 5.6481 -2.0341 0.9437
12.6443 6.7982 -2.0341 0.9437
11.9904 7.8946 -2.0341 0.9437
10.4042 9.8920 -2.0341 0.9437
10.3670 -6.7049 -2.0339 0.9512
10.9217 -5.7575 -2.0339 0.9512
12.0536 -2.6738 -2.0340 0.9512
12.2304 1.6925 -2.0340 0.9512
12.0318 2.7723 -2.0340 0.9512
11.3513 4.8578 -2.0341 0.9512
10.3126 6.7900 -2.0341 0.9512
8.1571 9.2690 -2.0341 0.9512
10.7309 -1.3957 -2.0340 0.9569
10.8087 0.5253 -2.0340 0.9569
10.5452 2.4298 -2.0340 0.9569
9.5313 5.1246 -2.0340 0.9569
8.4741 6.7304 -2.0340 0.9569
8.0795 -5.2255 -2.0339 0.9614
8.5118 -4.4871 -2.0339 0.9614
9.6111 0.4671 -2.0340 0.9614
9.5316 1.3191 -2.0340 0.9614
8.8465 3.7858 -2.0340 0.9614
7.5352 5.9847 -2.0340 0.9614
6.9737 6.6304 -2.0340 0.9614
6.3571 7.2237 -2.0340 0.9614
7.2667 -4.6998 -2.0339 0.9651
7.6555 -4.0357 -2.0339 0.9651
8.5821 -1.1162 -2.0340 0.9651
8.6473 -0.3494 -2.0340 0.9651
8.6442 0.4201 -2.0340 0.9651
8.5727 1.1863 -2.0340 0.9651
8.4335 1.9432 -2.0340 0.9651
7.9565 3.4050 -2.0340 0.9651
7.2284 4.7593 -2.0340 0.9651
6.7771 5.3826 -2.0340 0.9651
6.9490 -3.6633 -2.0339 0.9681
7.2470 -3.0315 -2.0339 0.9681
7.6692 -1.7012 -2.0339 0.9681
7.7900 -1.0132 -2.0340 0.9681
7.7815 1.0769 -2.0340 0.9681
7.4682 2.4369 -2.0340 0.9681
7.2222 3.0907 -2.0340 0.9681
6.9191 3.7201 -2.0340 0.9681
6.5613 4.3200 -2.0340 0.9681
6.1516 4.8858 -2.0340 0.9681
5.6933 5.4130 -2.0340 0.9681
7.0143 -1.5559 -2.0339 0.9706
7.1248 -0.9267 -2.0340 0.9706
7.1789 -0.2901 -2.0340 0.9706
7.1170 0.9849 -2.0340 0.9706
7.0014 1.6132 -2.0340 0.9706
6.8304 2.2288 -2.0340 0.9706
6.6054 2.8268 -2.0340 0.9706
5.6262 4.4686 -2.0340 0.9706
5.2071 4.9507 -2.0340 0.9706
5.5525 -3.5912 -2.0339 0.9727
5.8496 -3.0837 -2.0339 0.9727
6.1005 -2.5519 -2.0339 0.9727
6.3031 -1.9999 -2.0339 0.9727
6.4559 -1.4321 -2.0339 0.9727
6.6050 0.3210 -2.0340 0.9727
6.4440 1.4848 -2.0340 0.9727
6.2867 2.0514 -2.0340 0.9727
6.0796 2.6017 -2.0340 0.9727
5.5232 3.6365 -2.0340 0.9727
4.7925 4.5566 -2.0340 0.9727
4.3688 4.9643 -2.0340 0.9727
5.1378 -3.3229 -2.0339 0.9745
5.4128 -2.8534 -2.0339 0.9745
5.8323 -1.8505 -2.0339 0.9745
5.9737 -1.3251 -2.0339 0.9745
6.1139 -0.2471 -2.0340 0.9745
6.1117 0.2971 -2.0340 0.9745
5.8171 1.8981 -2.0340 0.9745
5.6255 2.4074 -2.0340 0.9745
5.3894 2.8976 -2.0340 0.9745
5.1107 3.3649 -2.0340 0.9745
4.7916 3.8056 -2.0340 0.9745
5.0313 -2.6523 -2.0339 0.9761
5.5527 -1.2317 -2.0339 0.9761
5.6830 -0.2296 -2.0339 0.9761
5.6810 0.2761 -2.0340 0.9761
5.6340 0.7797 -2.0340 0.9761
5.5425 1.2771 -2.0340 0.9761
5.2290 2.2378 -2.0340 0.9761
5.0096 2.6934 -2.0340 0.9761
4.7505 3.1278 -2.0340 0.9761
4.4566 -2.8823 -2.0339 0.9775
4.8964 -2.0482 -2.0339 0.9775
5.0590 -1.6051 -2.0339 0.9775
5.1816 -1.1494 -2.0339 0.9775
5.2632 -0.6846 -2.0339 0.9775
5.2575 0.7276 -2.0340 0.9775
5.1721 1.1917 -2.0340 0.9775
5.0458 1.6465 -2.0340 0.9775
4.6748 2.5134 -2.0340 0.9775
4.4330 2.9187 -2.0340 0.9775
4.1562 3.3010 -2.0340 0.9775
4.1729 -2.6988 -2.0339 0.9788
4.3961 -2.3175 -2.0339 0.9788
4.5846 -1.9178 -2.0339 0.9788
4.9281 -0.6410 -2.0339 0.9788
4.9656 -0.2007 -2.0339 0.9788
4.9638 0.2412 -2.0339 0.9787
4.9228 0.6812 -2.0340 0.9787
4.7245 1.5416 -2.0340 0.9787
4.5689 1.9552 -2.0340 0.9787
4.3771 2.3534 -2.0340 0.9787
3.8916 3.0908 -2.0340 0.9787
3.2832 3.7307 -2.0340 0.9787
3.9187 -2.5345 -2.0339 0.9798
4.1284 -2.1763 -2.0339 0.9798
4.6229 0.6397 -2.0339 0.9798
4.5478 1.0479 -2.0340 0.9798
3.3823 3.2158 -2.0340 0.9798
3.6896 -2.3863 -2.0339 0.9808
3.8870 -2.0491 -2.0339 0.9808
4.3574 -0.5667 -2.0339 0.9808
4.3905 -0.1774 -2.0339 0.9808
4.3526 0.6023 -2.0339 0.9808
4.1773 1.3631 -2.0340 0.9808
4.0397 1.7288 -2.0340 0.9808
3.8702 2.0808 -2.0340 0.9808
3.4409 2.7329 -2.0340 0.9808
3.6680 -1.9336 -2.0339 0.9817
3.8253 -1.6002 -2.0339 0.9817
3.9523 -1.2540 -2.0339 0.9817
4.0481 -0.8980 -2.0339 0.9817
4.1118 -0.5348 -2.0339 0.9817
4.0406 0.9310 -2.0339 0.9817
3.6521 1.9636 -2.0340 0.9817
3.4632 2.2802 -2.0340 0.9817
3.0050 2.8571 -2.0340 0.9817
3.7370 -1.1857 -2.0339 0.9825
2.1170 -0.4696 -1.1249 0.9903
2.0902 -0.2719 -1.0935 0.9905
2.1438 0.4939 -1.1413 0.9901
3.4532 1.8566 -2.0340 0.9825
2.8414 2.7015 -2.0340 0.9825
3.1182 -2.0167 -2.0339 0.9832
1.8574 -0.4120 -1.0420 0.9914
1.8528 0.0900 -1.0160 0.9916
1.8455 0.2554 -1.0204 0.9915
1.8576 0.4280 -1.0441 0.9913
3.4141 1.4611 -2.0339 0.9832
3.2708 1.7586 -2.0339 0.9832
2.9581 -1.9132 -2.0339 0.9839
1.7622 -0.7372 -1.1029 0.9912
1.7211 -0.5461 -1.0425 0.9917
1.7152 -0.2231 -0.9986 0.9920
1.7236 0.0837 -0.9963 0.9921
1.7134 0.2371 -0.9987 0.9920
1.7231 0.5622 -1.0465 0.9917
3.1029 1.6682 -2.0339 0.9839
2.9424 1.9373 -2.0339 0.9839
2.5531 2.4274 -2.0339 0.9839
