ply
format ascii 1.0
element vertex 182
property float32 x
property float32 y
property float32 z
property float32 I
end_header
-16.5403 5.2423 -0.8799 0.9329
-12.1902 -8.0469 -0.7408 0.9432
-12.0043 -7.9241 -1.0547 0.9439
-16.2180 5.1401 -1.6333 0.9339
-11.7452 -7.7531 -1.3511 0.9450
-16.3215 5.1730 -2.0338 0.9334
-17.1003 -0.8424 -2.0337 0.9334
-16.6805 -3.8581 -2.0337 0.9334
-16.2712 -5.3260 -2.0337 0.9334
-15.7331 -6.7517 -2.0337 0.9334
-13.3929 -10.6648 -2.0337 0.9334
-12.3915 -11.8134 -2.0337 0.9334
-10.1030 -13.8216 -2.0337 0.9334
-13.2436 5.5364 -2.0338 0.9437
-13.6833 4.3368 -2.0338 0.9437
-14.0146 3.1029 -2.0338 0.9437
-14.3425 0.5713 -2.0338 0.9437
-13.9844 -3.2345 -2.0337 0.9437
-13.1902 -5.6604 -2.0337 0.9437
-11.2282 -8.9411 -2.0337 0.9437
-10.9223 5.7558 -2.0339 0.9512
-12.0538 2.6688 -2.0338 0.9512
-12.3358 0.4914 -2.0338 0.9512
-12.3306 -0.6074 -2.0338 0.9512
-12.0278 -2.7820 -2.0338 0.9512
-11.7328 -3.8404 -2.0338 0.9512
-9.6573 -7.6902 -2.0337 0.9512
-9.5729 5.0447 -2.0339 0.9569
-9.9834 4.1735 -2.0339 0.9569
-10.3149 3.2692 -2.0338 0.9569
-10.5647 2.3390 -2.0338 0.9569
-10.7308 1.3904 -2.0338 0.9569
-10.8073 -0.5324 -2.0338 0.9569
-10.5419 -2.4383 -2.0338 0.9569
-9.5244 -5.1343 -2.0338 0.9569
-9.0302 -5.9608 -2.0338 0.9569
-8.4643 -6.7402 -2.0338 0.9569
-7.8314 -7.4661 -2.0337 0.9569
-6.3851 -8.7353 -2.0337 0.9569
-8.5123 4.4858 -2.0339 0.9614
-8.8774 3.7111 -2.0339 0.9614
-9.1721 2.9070 -2.0339 0.9614
-9.5419 1.2363 -2.0338 0.9614
-9.6140 0.3830 -2.0338 0.9614
-9.6100 -0.4734 -2.0338 0.9614
-9.1441 -2.9931 -2.0338 0.9614
-8.0297 -5.3005 -2.0338 0.9614
-6.3459 -7.2319 -2.0338 0.9614
-7.6559 4.0345 -2.0339 0.9651
-8.4492 1.8707 -2.0338 0.9651
-8.6432 -0.4258 -2.0338 0.9651
-8.4311 -1.9501 -2.0338 0.9651
-8.2242 -2.6920 -2.0338 0.9651
-7.9523 -3.4127 -2.0338 0.9651
-7.6173 -4.1062 -2.0338 0.9651
-6.7695 -5.3906 -2.0338 0.9651
-5.7076 -6.5044 -2.0338 0.9651
-5.1066 -6.9862 -2.0338 0.9651
-6.9494 3.6622 -2.0339 0.9681
-7.6695 1.6980 -2.0339 0.9681
-7.7901 1.0093 -2.0338 0.9681
-7.8456 -0.3865 -2.0338 0.9681
-7.7801 -1.0826 -2.0338 0.9681
-7.6530 -1.7701 -2.0338 0.9681
-7.4652 -2.4436 -2.0338 0.9681
-6.9144 -3.7273 -2.0338 0.9681
-6.5555 -4.3273 -2.0338 0.9681
-6.1448 -4.8931 -2.0338 0.9681
-5.6854 -5.4201 -2.0338 0.9681
-4.6354 -6.3414 -2.0338 0.9681
-6.3560 3.3495 -2.0339 0.9706
-6.6286 2.7710 -2.0339 0.9706
-7.0145 1.5530 -2.0339 0.9706
-7.1248 0.9231 -2.0338 0.9706
-7.1786 0.2859 -2.0338 0.9706
-7.1157 -0.9902 -2.0338 0.9706
-6.6020 -2.8332 -2.0338 0.9706
-6.3239 -3.4090 -2.0338 0.9706
-5.9958 -3.9578 -2.0338 0.9706
-5.8500 3.0828 -2.0339 0.9727
-6.1009 2.5504 -2.0339 0.9727
-6.4561 1.4294 -2.0339 0.9727
-6.6072 0.2632 -2.0338 0.9727
-6.6044 -0.3254 -2.0338 0.9727
-6.5493 -0.9113 -2.0338 0.9727
-6.0764 -2.6077 -2.0338 0.9727
-5.8205 -3.1376 -2.0338 0.9727
-5.5185 -3.6428 -2.0338 0.9727
-5.1727 -4.1190 -2.0338 0.9727
-4.7859 -4.5627 -2.0338 0.9727
-5.4130 2.8526 -2.0339 0.9745
-5.6452 2.3599 -2.0339 0.9745
-6.0679 0.7862 -2.0339 0.9745
-5.3857 -2.9033 -2.0338 0.9745
-5.1063 -3.3707 -2.0338 0.9745
-4.7864 -3.8114 -2.0338 0.9745
-4.0355 -4.5989 -2.0338 0.9745
-3.6106 -4.9396 -2.0338 0.9745
-5.2474 2.1936 -2.0339 0.9761
-5.5530 1.2294 -2.0339 0.9761
-5.6402 0.7308 -2.0339 0.9761
-5.6829 0.2264 -2.0339 0.9761
-5.6805 -0.2798 -2.0338 0.9761
-5.6331 -0.7838 -2.0338 0.9761
-5.0062 -2.6987 -2.0338 0.9761
-4.4491 -3.5428 -2.0338 0.9761
-4.1164 -3.9244 -2.0338 0.9761
-4.8967 2.0470 -2.0339 0.9775
-5.2633 0.6820 -2.0339 0.9775
-5.3009 -0.2611 -2.0339 0.9775
-5.2566 -0.7314 -2.0338 0.9775
-5.0439 -1.6510 -2.0338 0.9775
-4.8771 -2.0930 -2.0338 0.9775
-4.1517 -3.3061 -2.0338 0.9775
-4.3964 2.3168 -2.0339 0.9788
-4.5850 1.9167 -2.0339 0.9788
-2.1222 -0.1046 -0.8696 0.9909
-2.1104 -0.2937 -0.8720 0.9908
-2.1192 -0.4902 -0.8902 0.9906
-4.3743 -2.3580 -2.0338 0.9788
-4.1473 -2.7377 -2.0338 0.9788
-3.8874 -3.0955 -2.0338 0.9788
-3.5968 -3.4290 -2.0338 0.9788
-3.2776 -3.7352 -2.0338 0.9788
-1.9186 0.0764 -0.8368 0.9917
-1.9181 -0.0945 -0.8369 0.9917
-1.9026 -0.2648 -0.8372 0.9917
-4.2885 -1.8404 -2.0338 0.9798
-4.1079 -2.2144 -2.0338 0.9798
-3.6507 -2.9071 -2.0338 0.9798
-3.3777 -3.2201 -2.0338 0.9798
-3.0780 -3.5078 -2.0338 0.9798
-3.8872 2.0485 -2.0339 0.9808
-1.5999 0.5070 -0.7769 0.9926
-1.5912 0.3523 -0.7544 0.9928
-1.5879 0.0632 -0.7356 0.9930
-1.6311 -0.5339 -0.7944 0.9925
-3.6669 -2.4206 -2.0338 0.9808
-3.1802 -3.0318 -2.0338 0.9808
-2.8980 -3.3026 -2.0338 0.9808
-1.2881 0.4082 -0.6628 0.9940
-1.3277 0.2939 -0.6670 0.9940
-1.3514 0.1751 -0.6685 0.9939
-1.3491 -0.0665 -0.6625 0.9940
-1.3500 -0.1879 -0.6686 0.9939
-1.3243 -0.3063 -0.6667 0.9940
-3.4603 -2.2842 -2.0338 0.9817
-3.0010 -2.8610 -2.0338 0.9817
-2.7348 -3.1165 -2.0338 0.9817
-2.4468 -3.3474 -2.0338 0.9817
-3.4684 1.8278 -2.0339 0.9825
-1.1421 0.3620 -0.6216 0.9946
-1.1982 0.1552 -0.6268 0.9946
-1.1964 -0.1665 -0.6266 0.9946
-1.1715 -0.2710 -0.6238 0.9946
-1.1114 -0.4770 -0.6274 0.9946
-3.4510 -1.8603 -2.0338 0.9825
-3.2719 -2.1598 -2.0338 0.9825
-3.0668 -2.4421 -2.0338 0.9825
-2.8375 -2.7052 -2.0338 0.9825
-2.5858 -2.9468 -2.0338 0.9825
-2.3135 -3.1650 -2.0338 0.9825
-1.1885 0.6263 -0.7358 0.9939
-1.0535 0.2332 -0.5910 0.9951
-1.0806 0.0430 -0.5923 0.9951
-1.0813 -0.0533 -0.5930 0.9951
-1.0502 -0.2429 -0.5904 0.9951
-1.0041 -0.4310 -0.5985 0.9950
-3.0991 -2.0457 -2.0339 0.9832
-2.9049 -2.3132 -2.0338 0.9832
-2.6877 -2.5624 -2.0338 0.9832
-0.9339 0.3904 -0.5844 0.9953
-0.9854 0.1276 -0.5737 0.9954
-0.9843 -0.1370 -0.5738 0.9954
-0.9684 -0.2240 -0.5738 0.9954
-0.9522 -0.3117 -0.5785 0.9954
-0.9312 -0.3996 -0.5850 0.9953
-0.9018 -0.4862 -0.5915 0.9953
-2.9400 -1.9407 -2.0339 0.9839
-2.7557 -2.1944 -2.0339 0.9839
-2.3234 -2.6479 -2.0339 0.9839
-2.0788 -2.8440 -2.0339 0.9839
