ply
format ascii 1.0
element vertex 195
property float32 x
property float32 y
property float32 z
property float32 I
end_header
3.4355 18.6312 3.3406 0.9259
1.7081 18.6756 3.3068 0.9267
3.3867 18.3669 2.4321 0.9274
3.4310 18.6071 2.0317 0.9267
1.6527 18.0707 1.9486 0.9296
3.2866 17.8236 1.5343 0.9298
3.4900 18.9273 0.3251 0.9259
13.8066 8.8150 -1.2011 0.9364
13.6220 8.6971 -1.5516 0.9371
14.4334 9.2152 -2.0341 0.9333
12.5239 11.6788 -2.0341 0.9333
11.4091 12.7702 -2.0341 0.9333
10.1995 13.7556 -2.0341 0.9333
7.5371 15.3765 -2.0341 0.9333
4.6250 16.4879 -2.0341 0.9333
3.1052 16.8403 -2.0341 0.9333
-0.7271 7.9625 -0.9498 0.9683
-1.4034 7.6167 -0.9200 0.9693
12.7529 6.5921 -2.0341 0.9437
11.3468 8.7946 -2.0341 0.9437
5.1193 13.4122 -2.0341 0.9437
2.6032 14.1179 -2.0341 0.9437
0.0010 14.3558 -2.0341 0.9437
-0.6855 7.5064 -1.0680 0.9700
-5.1171 13.4124 -2.0340 0.9437
10.9684 5.6697 -2.0341 0.9512
10.4069 6.6444 -2.0341 0.9512
9.7591 7.5640 -2.0341 0.9512
8.2263 9.2077 -2.0341 0.9512
7.3542 9.9182 -2.0341 0.9512
4.4029 11.5355 -2.0341 0.9512
2.2390 12.1424 -2.0341 0.9512
-1.3514 7.3347 -1.2287 0.9702
-2.0251 7.2232 -1.2358 0.9700
-4.4011 11.5357 -2.0340 0.9512
9.1211 5.8235 -2.0340 0.9569
8.5533 6.6294 -2.0340 0.9569
7.2099 8.0701 -2.0341 0.9569
6.4455 8.6928 -2.0341 0.9569
5.6277 9.2433 -2.0341 0.9569
4.7630 9.7171 -2.0340 0.9569
2.9228 10.4194 -2.0340 0.9569
0.0008 10.8215 -2.0340 0.9569
-1.3338 7.2393 -1.3836 0.9705
8.5481 4.4186 -2.0340 0.9614
8.1105 5.1783 -2.0340 0.9614
7.0375 6.5626 -2.0340 0.9614
5.0041 8.2191 -2.0340 0.9614
4.2353 8.6404 -2.0340 0.9614
3.4313 8.9900 -2.0340 0.9614
2.5989 9.2650 -2.0340 0.9614
1.7449 9.4630 -2.0340 0.9614
0.8764 9.5826 -2.0340 0.9614
0.0007 9.6225 -2.0340 0.9614
-0.6761 7.4046 -1.5717 0.9701
-1.3138 7.1305 -1.5326 0.9708
-2.0062 7.1558 -1.5709 0.9701
-3.4300 8.9903 -2.0340 0.9614
7.6882 3.9741 -2.0340 0.9651
7.2946 4.6573 -2.0340 0.9651
5.1548 6.9520 -2.0340 0.9651
3.8093 7.7712 -2.0340 0.9651
3.0861 8.0856 -2.0340 0.9651
2.3375 8.3329 -2.0340 0.9651
0.7883 8.6185 -2.0340 0.9651
0.0006 8.6544 -2.0340 0.9651
-0.6780 7.4241 -1.7521 0.9698
-1.4558 7.9013 -1.8883 0.9675
-2.0521 7.3196 -1.7866 0.9692
6.2091 4.8125 -2.0340 0.9681
5.2339 5.8583 -2.0340 0.9681
3.4577 7.0540 -2.0340 0.9681
2.8013 7.3393 -2.0340 0.9681
2.1217 7.5638 -2.0340 0.9681
-0.7144 7.8231 -2.0340 0.9681
-1.4234 7.7256 -2.0340 0.9681
6.3826 3.2992 -2.0340 0.9706
6.0559 3.8664 -2.0340 0.9706
5.6789 4.4015 -2.0340 0.9706
5.2547 4.9001 -2.0340 0.9706
4.7870 5.3580 -2.0340 0.9706
4.2794 5.7714 -2.0340 0.9706
3.7364 6.1370 -2.0340 0.9706
2.5621 6.7126 -2.0340 0.9706
1.9405 6.9179 -2.0340 0.9706
1.3029 7.0658 -2.0340 0.9706
0.6544 7.1550 -2.0340 0.9706
0.0005 7.1848 -2.0340 0.9706
-0.6534 7.1550 -2.0340 0.9706
-1.9395 6.9180 -2.0340 0.9706
-2.5611 6.7128 -2.0340 0.9706
5.2268 4.0511 -2.0340 0.9727
4.4059 4.9314 -2.0340 0.9727
3.9388 5.3120 -2.0340 0.9727
3.4389 5.6484 -2.0340 0.9727
2.9106 5.9379 -2.0340 0.9727
2.3581 6.1782 -2.0340 0.9727
1.7861 6.3671 -2.0340 0.9727
-0.6014 6.5854 -2.0340 0.9727
-1.7851 6.3673 -2.0340 0.9727
-2.3572 6.1784 -2.0339 0.9727
5.4357 2.8097 -2.0340 0.9745
5.1575 3.2928 -2.0340 0.9745
4.8364 3.7485 -2.0340 0.9745
3.1820 5.2265 -2.0340 0.9745
2.6932 5.4944 -2.0340 0.9745
2.1820 5.7167 -2.0340 0.9745
1.6527 5.8916 -2.0340 0.9745
0.0004 6.1189 -2.0340 0.9745
-0.5565 6.0936 -2.0340 0.9745
-1.1087 6.0176 -2.0340 0.9745
4.7939 3.0607 -2.0340 0.9761
4.4955 3.4844 -2.0340 0.9761
4.1597 3.8790 -2.0340 0.9761
3.3877 4.5688 -2.0340 0.9761
2.9578 4.8581 -2.0340 0.9761
1.5362 5.4763 -2.0340 0.9761
0.5180 5.6641 -2.0340 0.9761
0.0004 5.6877 -2.0340 0.9761
-0.5172 5.6641 -2.0340 0.9761
-2.0275 5.3140 -2.0339 0.9761
4.7150 2.4372 -2.0340 0.9775
4.4736 2.8562 -2.0340 0.9775
3.8818 3.6198 -2.0340 0.9775
3.5362 3.9580 -2.0340 0.9775
3.1613 4.2635 -2.0340 0.9775
2.7602 4.5335 -2.0340 0.9775
2.3361 4.7658 -2.0340 0.9775
1.8927 4.9587 -2.0340 0.9775
0.9625 5.2196 -2.0340 0.9775
0.4834 5.2855 -2.0340 0.9775
0.0004 5.3076 -2.0340 0.9775
-0.4827 5.2856 -2.0340 0.9775
-0.9617 5.2197 -2.0340 0.9775
-1.4328 5.1105 -2.0339 0.9775
4.1887 2.6743 -2.0340 0.9787
3.9280 3.0445 -2.0340 0.9787
3.3111 3.7061 -2.0340 0.9787
2.9600 3.9920 -2.0340 0.9787
2.1873 4.4624 -2.0340 0.9787
1.3422 4.7850 -2.0340 0.9787
0.9013 4.8873 -2.0340 0.9787
0.0004 4.9696 -2.0340 0.9788
-0.4520 4.9490 -2.0340 0.9787
-0.9005 4.8873 -2.0339 0.9788
-1.7714 4.6432 -2.0339 0.9788
3.9336 2.5115 -2.0340 0.9798
3.6888 2.8591 -2.0340 0.9798
3.1094 3.4804 -2.0340 0.9798
2.4270 3.9863 -2.0340 0.9798
2.0541 4.1906 -2.0340 0.9798
1.2604 4.4936 -2.0340 0.9798
0.8462 4.5896 -2.0340 0.9798
-1.2598 4.4937 -2.0339 0.9798
3.9034 2.0177 -2.0340 0.9808
2.9276 3.2768 -2.0340 0.9808
2.6172 3.5296 -2.0340 0.9808
2.2851 3.7532 -2.0340 0.9808
1.5669 4.1052 -2.0340 0.9808
1.1868 4.2308 -2.0340 0.9808
0.4002 4.3758 -2.0340 0.9808
-0.3996 4.3759 -2.0339 0.9808
-1.5663 4.1054 -2.0339 0.9808
2.7626 3.0921 -2.0340 0.9817
2.4697 3.3308 -2.0340 0.9817
2.1563 3.5417 -2.0340 0.9817
1.1200 3.9924 -2.0340 0.9817
0.3777 4.1292 -2.0339 0.9817
-1.4780 3.8741 -2.0339 0.9817
3.4829 1.8003 -2.0340 0.9825
3.3046 2.1098 -2.0340 0.9825
3.0988 2.4018 -2.0340 0.9825
2.6121 2.9237 -2.0340 0.9825
2.3352 3.1494 -2.0340 0.9825
1.7256 3.5205 -2.0340 0.9825
1.3981 3.6629 -2.0340 0.9825
1.0589 3.7749 -2.0340 0.9825
0.3571 3.9043 -2.0339 0.9825
0.0003 3.9206 -2.0339 0.9825
-0.3565 3.9044 -2.0339 0.9825
-1.3975 3.6630 -2.0339 0.9825
3.2989 1.7052 -2.0339 0.9832
2.9352 2.2750 -2.0340 0.9832
2.4742 2.7693 -2.0340 0.9832
1.9312 3.1720 -2.0340 0.9832
0.3382 3.6982 -2.0339 0.9832
2.7845 2.1582 -2.0339 0.9839
2.5765 2.4026 -2.0339 0.9839
2.3471 2.6271 -2.0340 0.9839
1.5506 3.1633 -2.0339 0.9839
1.2562 3.2913 -2.0339 0.9839
0.9515 3.3920 -2.0339 0.9839
0.3209 3.5082 -2.0339 0.9839
0.0003 3.5229 -2.0339 0.9839
-0.9510 3.3921 -2.0339 0.9839
