ply
format ascii 1.0
element vertex 220
property float32 x
property float32 y
property float32 z
property float32 I
end_header
16.5981 -4.2162 -0.8685 0.9337
14.6541 9.2394 -0.8786 0.9330
16.2311 -4.1230 -1.2279 0.9350
12.0559 -12.1582 -2.0339 0.9334
13.1016 -11.0236 -2.0339 0.9334
15.5709 -7.1231 -2.0340 0.9334
16.1491 -5.6925 -2.0340 0.9334
16.5961 -4.2157 -2.0340 0.9334
17.1196 0.3712 -2.0341 0.9333
17.0168 1.9108 -2.0341 0.9333
16.3986 4.9313 -2.0341 0.9333
15.8882 6.3876 -2.0341 0.9333
12.6131 11.5826 -2.0341 0.9333
11.5191 12.6710 -2.0341 0.9333
10.3317 13.6566 -2.0341 0.9333
9.0604 14.5312 -2.0341 0.9333
10.1072 -10.1929 -2.0339 0.9437
13.5386 -4.7724 -2.0340 0.9437
13.9134 -3.5342 -2.0340 0.9437
14.1752 -2.2674 -2.0340 0.9437
14.2660 1.6020 -2.0340 0.9437
14.0640 2.8797 -2.0341 0.9437
13.7477 4.1341 -2.0341 0.9437
13.3197 5.3550 -2.0341 0.9437
11.4052 8.7188 -2.0341 0.9437
7.5957 12.1821 -2.0341 0.9437
8.6930 -8.7668 -2.0339 0.9512
9.4470 -7.9487 -2.0339 0.9512
10.1243 -7.0660 -2.0339 0.9512
10.7194 -6.1260 -2.0339 0.9512
11.6443 -4.1046 -2.0340 0.9512
12.3179 -0.8447 -2.0340 0.9512
12.3440 0.2676 -2.0340 0.9512
12.2698 1.3778 -2.0340 0.9512
12.0960 2.4768 -2.0340 0.9512
10.4445 6.5853 -2.0341 0.9512
9.8093 7.4988 -2.0341 0.9512
6.5329 10.4774 -2.0341 0.9512
8.2799 -6.9667 -2.0339 0.9569
8.8735 -6.1930 -2.0339 0.9569
9.8403 -4.5016 -2.0339 0.9569
10.2056 -3.5975 -2.0339 0.9569
10.6854 -1.7092 -2.0340 0.9569
10.7960 -0.7403 -2.0340 0.9569
10.3631 3.1163 -2.0340 0.9569
7.9707 7.3195 -2.0341 0.9569
6.7749 -6.8324 -2.0339 0.9614
7.8904 -5.5069 -2.0339 0.9614
8.3541 -4.7743 -2.0339 0.9614
9.0749 -3.1989 -2.0339 0.9614
9.3261 -2.3690 -2.0340 0.9614
9.5016 -1.5198 -2.0340 0.9614
9.5998 -0.6583 -2.0340 0.9614
9.6202 0.2086 -2.0340 0.9614
9.5624 1.0738 -2.0340 0.9614
9.2149 2.7711 -2.0340 0.9614
5.8056 7.6739 -2.0340 0.9614
6.0934 -6.1451 -2.0339 0.9651
6.6219 -5.5716 -2.0339 0.9651
7.0966 -4.9529 -2.0339 0.9651
8.5457 -1.3669 -2.0340 0.9651
8.4785 1.7360 -2.0340 0.9651
8.2879 2.4923 -2.0340 0.9651
7.3209 4.6158 -2.0340 0.9651
6.8756 5.2561 -2.0340 0.9651
5.8217 6.4038 -2.0340 0.9651
4.5790 7.3439 -2.0340 0.9651
5.5310 -5.5780 -2.0339 0.9681
6.0108 -5.0574 -2.0339 0.9681
6.4417 -4.4958 -2.0339 0.9681
6.8203 -3.8977 -2.0339 0.9681
7.4088 -2.6116 -2.0339 0.9681
7.6138 -1.9340 -2.0339 0.9681
7.8538 0.1703 -2.0340 0.9681
7.8066 0.8766 -2.0340 0.9681
7.6961 1.5758 -2.0340 0.9681
7.2888 2.9303 -2.0340 0.9681
6.9954 3.5746 -2.0340 0.9681
5.7862 5.3135 -2.0340 0.9681
4.7396 6.2649 -2.0340 0.9681
6.2378 -3.5649 -2.0339 0.9706
6.9636 -1.7688 -2.0339 0.9706
7.0946 -1.1348 -2.0339 0.9706
7.1680 -0.4915 -2.0340 0.9706
7.1400 0.8018 -2.0340 0.9706
6.6663 2.6801 -2.0340 0.9706
5.7080 4.3636 -2.0340 0.9706
4.3349 5.7299 -2.0340 0.9706
3.8015 6.0969 -2.0340 0.9706
5.4225 -3.7846 -2.0339 0.9727
6.0134 -2.7509 -2.0339 0.9727
6.4092 -1.6280 -2.0339 0.9727
6.5298 -1.0445 -2.0339 0.9727
6.5973 -0.4524 -2.0340 0.9727
6.6113 0.1433 -2.0340 0.9727
6.5715 0.7379 -2.0340 0.9727
6.3328 1.9043 -2.0340 0.9727
5.8887 3.0090 -2.0340 0.9727
5.2536 4.0162 -2.0340 0.9727
4.8708 4.4728 -2.0340 0.9727
3.4988 5.6115 -2.0340 0.9727
4.6819 -3.9394 -2.0339 0.9745
5.3124 -3.0360 -2.0339 0.9745
5.5643 -2.5454 -2.0339 0.9745
5.9305 -1.5065 -2.0339 0.9745
6.1175 0.1327 -2.0340 0.9745
5.9946 1.2274 -2.0340 0.9745
5.8597 1.7621 -2.0340 0.9745
5.4488 2.7843 -2.0340 0.9745
4.8613 3.7162 -2.0340 0.9745
4.5070 4.1387 -2.0340 0.9745
3.2375 5.1924 -2.0340 0.9745
4.0046 -4.0387 -2.0339 0.9761
4.3520 -3.6617 -2.0339 0.9761
4.6640 -3.2551 -2.0339 0.9761
5.1721 -2.3660 -2.0339 0.9761
5.3641 -1.8908 -2.0339 0.9761
5.5126 -1.4003 -2.0339 0.9761
5.6163 -0.8984 -2.0339 0.9761
5.0648 2.5880 -2.0340 0.9761
4.8113 3.0335 -2.0340 0.9761
3.4316 4.5359 -2.0340 0.9761
3.0093 4.8264 -2.0340 0.9761
3.7370 -3.7687 -2.0339 0.9775
4.0611 -3.4171 -2.0339 0.9775
4.3523 -3.0376 -2.0339 0.9775
4.6081 -2.6335 -2.0339 0.9775
5.0056 -1.7645 -2.0339 0.9775
5.2409 -0.8383 -2.0339 0.9775
5.2951 -0.3631 -2.0339 0.9775
5.2745 0.5923 -2.0340 0.9775
5.1997 1.0647 -2.0340 0.9775
5.0827 1.5284 -2.0340 0.9775
4.9245 1.9798 -2.0340 0.9775
4.4897 2.8307 -2.0340 0.9775
3.9093 3.5900 -2.0340 0.9775
3.5703 3.9273 -2.0340 0.9775
3.4991 -3.5288 -2.0339 0.9788
3.8025 -3.1995 -2.0339 0.9788
4.0752 -2.8442 -2.0339 0.9788
4.5192 -2.0674 -2.0339 0.9788
4.8167 -1.2235 -2.0339 0.9788
4.9580 -0.3400 -2.0339 0.9787
4.9684 0.1077 -2.0339 0.9788
4.9386 0.5546 -2.0339 0.9788
4.8686 0.9969 -2.0340 0.9787
4.6110 1.8537 -2.0340 0.9787
3.9482 3.0182 -2.0340 0.9787
3.6604 3.3614 -2.0340 0.9787
2.6294 4.2171 -2.0340 0.9787
3.2860 -3.3139 -2.0339 0.9798
3.5710 -3.0046 -2.0339 0.9798
3.8270 -2.6710 -2.0339 0.9798
4.2439 -1.9415 -2.0339 0.9798
4.4015 -1.5515 -2.0339 0.9798
4.5233 -1.1490 -2.0339 0.9798
4.6561 -0.3193 -2.0339 0.9798
4.5721 0.9362 -2.0340 0.9798
4.3302 1.7409 -2.0340 0.9798
4.1559 2.1236 -2.0340 0.9798
3.9479 2.4891 -2.0340 0.9798
3.7077 2.8344 -2.0340 0.9798
3.4375 3.1567 -2.0340 0.9798
2.4693 3.9603 -2.0340 0.9798
3.6032 -2.5148 -2.0339 0.9808
3.8150 -2.1802 -2.0339 0.9808
4.1441 -1.4608 -2.0339 0.9808
4.3048 0.8814 -2.0339 0.9808
4.2079 1.2654 -2.0340 0.9808
4.0770 1.6390 -2.0340 0.9808
3.4909 2.6687 -2.0340 0.9808
3.2365 2.9721 -2.0340 0.9808
2.9558 3.2514 -2.0340 0.9808
3.1728 -2.6695 -2.0339 0.9817
3.4002 -2.3731 -2.0339 0.9817
3.6000 -2.0574 -2.0339 0.9817
3.9106 -1.3785 -2.0339 0.9817
4.0944 -0.6549 -2.0339 0.9817
4.1368 -0.2837 -2.0339 0.9817
4.1455 0.0899 -2.0339 0.9817
3.9709 1.1941 -2.0339 0.9817
3.8472 1.5467 -2.0340 0.9817
3.6924 1.8868 -2.0340 0.9817
3.2942 2.5183 -2.0340 0.9817
2.5017 3.3068 -2.0340 0.9817
2.1939 3.5186 -2.0340 0.9817
2.7605 -2.7839 -2.0339 0.9825
3.0000 -2.5241 -2.0339 0.9825
3.2150 -2.2438 -2.0339 0.9825
3.4039 -1.9453 -2.0339 0.9825
3.5652 -1.6310 -2.0339 0.9825
3.8000 -0.9652 -2.0339 0.9825
2.0749 0.0450 -1.0766 0.9907
3.6377 1.4625 -2.0339 0.9825
3.4913 1.7840 -2.0340 0.9825
3.3165 2.0911 -2.0340 0.9825
2.6373 2.9010 -2.0340 0.9825
2.0744 3.3270 -2.0340 0.9825
2.6148 -2.6369 -2.0339 0.9832
2.8415 -2.3908 -2.0339 0.9832
3.0452 -2.1253 -2.0339 0.9832
1.8571 -0.4718 -1.0494 0.9913
1.8503 -0.2960 -1.0263 0.9915
1.8520 0.0401 -1.0146 0.9916
1.8748 0.5638 -1.0723 0.9911
3.4456 1.3852 -2.0339 0.9832
3.3069 1.6898 -2.0339 0.9832
3.1413 1.9806 -2.0339 0.9832
2.4980 2.7478 -2.0340 0.9832
2.2405 2.9615 -2.0340 0.9832
2.4805 -2.5015 -2.0339 0.9839
2.6956 -2.2680 -2.0339 0.9839
2.8889 -2.0162 -2.0339 0.9839
3.0586 -1.7479 -2.0339 0.9839
1.7836 -0.8160 -1.1324 0.9910
1.7141 -0.2742 -1.0022 0.9920
1.7183 0.1929 -0.9983 0.9920
1.7170 0.5163 -1.0352 0.9918
2.3698 2.6067 -2.0340 0.9839
2.1255 2.8095 -2.0340 0.9839
