ply
format ascii 1.0
element vertex 175
property float32 x
property float32 y
property float32 z
property float32 I
end_header
-11.6643 -8.5592 -0.7337 0.9437
-12.8903 -7.7913 -1.4460 0.9413
-11.1943 -8.2143 -1.3330 0.9457
-16.4750 -4.6580 -2.0337 0.9334
-13.0367 -7.8798 -1.8095 0.9405
-12.8438 -11.3201 -2.0337 0.9334
-2.2763 -16.9687 -2.0337 0.9334
-12.8975 -6.2987 -2.0337 0.9437
-9.8778 -10.4137 -2.0337 0.9437
-8.9088 -11.2538 -2.0337 0.9437
-6.7659 -12.6585 -2.0337 0.9437
-4.4073 -13.6599 -2.0337 0.9437
-0.6310 -14.3396 -2.0337 0.9437
-12.1321 -2.2850 -2.0338 0.9512
-11.8797 -3.3588 -2.0338 0.9512
-11.0931 -5.4175 -2.0337 0.9512
-10.5652 -6.3860 -2.0337 0.9512
-9.9530 -7.3035 -2.0337 0.9512
-9.2614 -8.1627 -2.0337 0.9512
-8.4959 -8.9568 -2.0337 0.9512
-7.6624 -9.6793 -2.0337 0.9512
-5.8193 -10.8875 -2.0337 0.9512
-1.6414 -12.2357 -2.0337 0.9512
-10.6333 -2.0027 -2.0338 0.9569
-10.4121 -2.9438 -2.0338 0.9569
-10.1077 -3.8614 -2.0338 0.9569
-9.7227 -4.7482 -2.0338 0.9569
-9.2600 -5.5971 -2.0338 0.9569
-8.1173 -7.1544 -2.0338 0.9569
-6.7158 -8.4836 -2.0337 0.9569
-5.1004 -9.5426 -2.0338 0.9569
-4.2283 -9.9597 -2.0338 0.9569
-3.3225 -10.2974 -2.0338 0.9569
-2.3901 -10.5529 -2.0338 0.9569
-1.4386 -10.7241 -2.0338 0.9569
-9.4553 -1.7809 -2.0338 0.9614
-8.6455 -4.2222 -2.0338 0.9614
-7.2180 -6.3617 -2.0338 0.9614
-6.6214 -6.9806 -2.0338 0.9614
-5.9718 -7.5437 -2.0338 0.9614
-5.2747 -8.0467 -2.0338 0.9614
-4.5354 -8.4853 -2.0338 0.9614
-2.9544 -9.1566 -2.0338 0.9614
-2.1253 -9.3838 -2.0338 0.9614
-1.2793 -9.5361 -2.0338 0.9614
-0.4230 -9.6122 -2.0338 0.9614
-8.5041 -1.6017 -2.0338 0.9651
-7.7759 -3.7975 -2.0338 0.9651
-6.9768 -5.1195 -2.0338 0.9651
-6.4920 -5.7218 -2.0338 0.9651
-5.9553 -6.2784 -2.0338 0.9651
-5.3711 -6.7849 -2.0338 0.9651
-4.7441 -7.2372 -2.0338 0.9651
-2.6572 -8.2355 -2.0338 0.9651
-1.9115 -8.4398 -2.0338 0.9651
-1.1505 -8.5768 -2.0338 0.9651
-0.3804 -8.6453 -2.0338 0.9651
-7.7193 -1.4539 -2.0338 0.9681
-7.5587 -2.1371 -2.0338 0.9681
-7.0583 -3.4470 -2.0338 0.9681
-6.7225 -4.0632 -2.0338 0.9681
-6.3329 -4.6471 -2.0338 0.9681
-4.8755 -6.1588 -2.0338 0.9681
-4.3063 -6.5694 -2.0338 0.9681
-2.4120 -7.4755 -2.0338 0.9681
0.3565 -7.8470 -2.0338 0.9681
-7.0601 -1.3298 -2.0338 0.9706
-6.1484 -3.7163 -2.0338 0.9706
-5.7921 -4.2503 -2.0338 0.9706
-5.3896 -4.7502 -2.0338 0.9706
-3.3866 -6.3360 -2.0338 0.9706
-2.8075 -6.6129 -2.0338 0.9706
-1.5870 -7.0068 -2.0338 0.9706
-0.3159 -7.1773 -2.0338 0.9706
0.3260 -7.1769 -2.0338 0.9706
-6.4981 -1.2239 -2.0338 0.9727
-6.3629 -1.7990 -2.0338 0.9727
-6.1769 -2.3598 -2.0338 0.9727
-5.9416 -2.9017 -2.0338 0.9727
-5.3311 -3.9120 -2.0338 0.9727
-4.9606 -4.3721 -2.0338 0.9727
-4.5505 -4.7974 -2.0338 0.9727
-3.6250 -5.5301 -2.0338 0.9727
-3.1170 -5.8316 -2.0338 0.9727
-2.5840 -6.0865 -2.0338 0.9727
-2.0304 -6.2929 -2.0338 0.9727
-0.2907 -6.6060 -2.0338 0.9727
-6.0128 -1.1325 -2.0338 0.9745
-5.2363 -3.1650 -2.0338 0.9745
-4.9329 -3.6197 -2.0338 0.9745
-3.7976 -4.7972 -2.0338 0.9745
-2.8842 -5.3961 -2.0338 0.9745
-1.8788 -5.8229 -2.0338 0.9745
0.2777 -6.1122 -2.0338 0.9745
-5.5891 -1.0527 -2.0338 0.9761
-5.3128 -2.0297 -2.0338 0.9761
-4.5853 -3.3647 -2.0338 0.9761
-4.2667 -3.7605 -2.0338 0.9761
-2.6809 -5.0158 -2.0338 0.9761
-2.2225 -5.2351 -2.0338 0.9761
-1.7464 -5.4126 -2.0338 0.9761
-0.2500 -5.6819 -2.0338 0.9761
0.2581 -5.6815 -2.0338 0.9761
-5.1070 -1.4440 -2.0338 0.9775
-4.9578 -1.8940 -2.0338 0.9775
-4.7689 -2.3290 -2.0338 0.9775
-4.2788 -3.1398 -2.0338 0.9775
-3.9815 -3.5092 -2.0338 0.9775
-3.6524 -3.8506 -2.0338 0.9775
-2.5017 -4.6806 -2.0338 0.9775
-2.0740 -4.8852 -2.0338 0.9775
-1.6297 -5.0509 -2.0338 0.9775
-1.1723 -5.1762 -2.0338 0.9775
0.2409 -5.3018 -2.0338 0.9775
-4.7819 -1.3520 -2.0338 0.9788
-4.6421 -1.7735 -2.0338 0.9788
-3.7280 -3.2858 -2.0338 0.9788
-3.0844 -3.8963 -2.0338 0.9788
-2.7243 -4.1560 -2.0338 0.9788
-2.3425 -4.3826 -2.0338 0.9788
-1.9420 -4.5742 -2.0338 0.9788
-0.6607 -4.9253 -2.0338 0.9788
-0.2185 -4.9646 -2.0338 0.9788
0.2255 -4.9643 -2.0338 0.9788
-1.9051 -0.3588 -0.8449 0.9916
-4.3594 -1.6654 -2.0338 0.9798
-3.7624 -2.7609 -2.0338 0.9798
-3.5010 -3.0857 -2.0338 0.9798
-3.2116 -3.3858 -2.0338 0.9798
-2.8966 -3.6590 -2.0338 0.9798
-2.5584 -3.9029 -2.0338 0.9798
-0.6205 -4.6253 -2.0338 0.9798
-0.2052 -4.6623 -2.0338 0.9798
0.2118 -4.6620 -2.0338 0.9798
-1.5520 -0.4388 -0.7466 0.9929
-4.1045 -1.5680 -2.0338 0.9808
-3.9482 -1.9281 -2.0338 0.9808
-3.5424 -2.5994 -2.0338 0.9808
-3.2963 -2.9053 -2.0338 0.9808
-3.0238 -3.1879 -2.0338 0.9808
-2.7272 -3.4450 -2.0338 0.9808
-2.0712 -3.8751 -2.0338 0.9808
-0.5842 -4.3548 -2.0338 0.9808
-0.1931 -4.3896 -2.0338 0.9808
0.1994 -4.3894 -2.0339 0.9808
-1.3376 -0.2520 -0.6676 0.9940
-1.3036 -0.3686 -0.6645 0.9940
-3.7257 -1.8195 -2.0338 0.9817
-3.5484 -2.1448 -2.0338 0.9817
-2.8534 -3.0082 -2.0338 0.9817
-2.5735 -3.2509 -2.0338 0.9817
-2.2731 -3.4677 -2.0338 0.9817
-1.9545 -3.6567 -2.0338 0.9817
-1.6203 -3.8166 -2.0338 0.9817
0.1882 -4.1420 -2.0339 0.9817
-1.1841 -0.2230 -0.6251 0.9946
-1.1555 -0.3267 -0.6230 0.9946
-3.1608 -2.3194 -2.0338 0.9825
-2.9411 -2.5922 -2.0338 0.9825
-2.6980 -2.8444 -2.0338 0.9825
-2.4334 -3.0739 -2.0338 0.9825
-1.0380 -0.2935 -0.5908 0.9951
-1.0182 -0.3890 -0.5970 0.9950
-0.9861 -0.4816 -0.6011 0.9950
-3.1780 -1.9209 -2.0339 0.9832
-2.5555 -2.6942 -2.0338 0.9832
-2.3048 -2.9116 -2.0338 0.9832
-1.7505 -3.2750 -2.0338 0.9832
-1.4512 -3.4182 -2.0338 0.9832
-1.1403 -3.5340 -2.0339 0.9832
-3.0148 -1.8222 -2.0339 0.9839
-2.8401 -2.0841 -2.0339 0.9839
-1.9312 -2.9462 -2.0339 0.9839
-0.4684 -3.4915 -2.0339 0.9839
0.1599 -3.5191 -2.0339 0.9839
