ply
format ascii 1.0
element vertex 184
property float32 x
property float32 y
property float32 z
property float32 I
end_header
-11.6995 -8.5309 -0.7343 0.9437
-17.4914 4.8379 -1.3307 0.9298
-11.1992 -8.1661 -1.3306 0.9458
-16.5021 4.5644 -2.0338 0.9334
-17.0522 1.5366 -2.0338 0.9334
-17.0516 -1.5406 -2.0337 0.9334
-16.8440 -3.0668 -2.0337 0.9334
-16.5001 -4.5680 -2.0337 0.9334
-16.0228 -6.0323 -2.0337 0.9334
-12.8710 -11.2892 -2.0337 0.9334
-10.6423 -13.4108 -2.0337 0.9334
-8.0698 -15.0992 -2.0337 0.9334
-6.6802 -15.7634 -2.0337 0.9334
-13.8347 3.8265 -2.0338 0.9437
-14.2959 1.2882 -2.0338 0.9437
-14.3538 -0.0017 -2.0338 0.9437
-14.2954 -1.2916 -2.0338 0.9437
-13.8332 -3.8297 -2.0337 0.9437
-13.4330 -5.0573 -2.0337 0.9437
-12.9241 -6.2440 -2.0337 0.9437
-11.4930 -8.3803 -2.0154 0.9442
-10.7907 -9.4645 -2.0337 0.9437
-9.8965 -10.3960 -2.0337 0.9437
-8.9222 -11.2432 -2.0337 0.9437
-7.8757 -11.9996 -2.0337 0.9437
-6.7654 -12.6587 -2.0337 0.9437
-11.8990 3.2911 -2.0338 0.9512
-12.1466 2.2085 -2.0338 0.9512
-12.3455 -0.0015 -2.0338 0.9512
-12.2954 -1.1109 -2.0338 0.9512
-12.1457 -2.2114 -2.0338 0.9512
-11.8979 -3.2939 -2.0338 0.9512
-11.1159 -5.3704 -2.0337 0.9512
-10.5883 -6.3476 -2.0337 0.9512
-8.5119 -8.9415 -2.0337 0.9512
-5.8189 -10.8877 -2.0337 0.9512
-10.4290 2.8846 -2.0338 0.9569
-10.7768 0.9711 -2.0338 0.9569
-10.7764 -0.9737 -2.0338 0.9569
-10.4280 -2.8870 -2.0338 0.9569
-10.1263 -3.8124 -2.0338 0.9569
-8.1345 -7.1348 -2.0338 0.9569
-7.4604 -7.8369 -2.0337 0.9569
-6.7259 -8.4756 -2.0337 0.9569
-4.2219 -9.9625 -2.0338 0.9569
-9.4665 1.7212 -2.0338 0.9614
-9.6216 -0.0011 -2.0338 0.9614
-9.5825 -0.8658 -2.0338 0.9614
-8.2522 -4.9471 -2.0338 0.9614
-7.2333 -6.3444 -2.0338 0.9614
-6.6339 -6.9687 -2.0338 0.9614
-5.2793 -8.0436 -2.0338 0.9614
-4.5351 -8.4855 -2.0338 0.9614
-3.7541 -8.8587 -2.0338 0.9614
-8.3407 2.3069 -2.0339 0.9651
-8.5142 1.5480 -2.0338 0.9651
-8.6537 -0.0010 -2.0338 0.9651
-8.6186 -0.7787 -2.0338 0.9651
-8.5137 -1.5501 -2.0338 0.9651
-7.7919 -3.7645 -2.0338 0.9651
-7.4220 -4.4495 -2.0338 0.9651
-6.5057 -5.7062 -2.0338 0.9651
-5.9666 -6.2677 -2.0338 0.9651
-4.0789 -7.6319 -2.0338 0.9651
-7.5710 2.0941 -2.0339 0.9681
-7.8551 -0.0010 -2.0338 0.9681
-7.8232 -0.7069 -2.0338 0.9681
-7.7280 -1.4071 -2.0338 0.9681
-7.3513 -2.7677 -2.0338 0.9681
-7.0729 -3.4171 -2.0338 0.9681
-6.7371 -4.0388 -2.0338 0.9681
-5.9053 -5.1796 -2.0338 0.9681
-4.8827 -6.1530 -2.0338 0.9681
-4.3100 -6.5669 -2.0338 0.9681
-3.7025 -6.9277 -2.0338 0.9681
-7.0685 1.2852 -2.0339 0.9706
-7.1554 0.6448 -2.0338 0.9706
-7.1843 -0.0009 -2.0338 0.9706
-7.1552 -0.6465 -2.0338 0.9706
-6.7235 -2.5313 -2.0338 0.9706
-6.1618 -3.6940 -2.0338 0.9706
-5.4010 -4.7373 -2.0338 0.9706
-4.9535 -5.2035 -2.0338 0.9706
-4.4658 -5.6276 -2.0338 0.9706
-3.9420 -6.0061 -2.0338 0.9706
-3.3863 -6.3361 -2.0338 0.9706
-2.8032 -6.6148 -2.0338 0.9706
-6.5054 -1.1845 -2.0338 0.9727
-6.3727 -1.7643 -2.0338 0.9727
-4.9711 -4.3602 -2.0338 0.9727
-3.6282 -5.5280 -2.0338 0.9727
-2.5801 -6.0882 -2.0338 0.9727
-5.2477 -3.1460 -2.0338 0.9745
-4.9438 -3.6048 -2.0338 0.9745
-4.2186 -4.4316 -2.0338 0.9745
-3.3572 -5.1151 -2.0338 0.9745
-2.8839 -5.3962 -2.0338 0.9745
-5.4816 1.5162 -2.0339 0.9761
-5.6645 0.5104 -2.0339 0.9761
-5.6874 -0.0007 -2.0339 0.9761
-5.6643 -0.5118 -2.0338 0.9761
-5.5954 -1.0187 -2.0338 0.9761
-5.4812 -1.5175 -2.0338 0.9761
-4.8779 -2.9243 -2.0338 0.9761
-4.5954 -3.3508 -2.0338 0.9761
-4.2757 -3.7502 -2.0338 0.9761
-3.9214 -4.1193 -2.0338 0.9761
-3.5353 -4.4550 -2.0338 0.9761
-3.1207 -4.7547 -2.0338 0.9761
-2.6807 -5.0159 -2.0338 0.9761
-2.2191 -5.2365 -2.0338 0.9761
-5.1153 1.4148 -2.0339 0.9775
-5.3073 -0.0006 -2.0339 0.9775
-5.2214 -0.9507 -2.0338 0.9775
-5.1149 -1.4161 -2.0338 0.9775
-4.9669 -1.8700 -2.0338 0.9775
-4.7788 -2.3087 -2.0338 0.9775
-4.5519 -2.7289 -2.0338 0.9775
-3.2990 -4.1573 -2.0338 0.9775
-2.9121 -4.4369 -2.0338 0.9775
-2.5016 -4.6807 -2.0338 0.9775
-2.1198 0.3854 -0.8818 0.9907
-2.1167 0.1907 -0.8698 0.9909
-2.1166 -0.1913 -0.8698 0.9909
-2.1198 -0.3860 -0.8819 0.9907
-4.7892 -1.3259 -2.0338 0.9788
-4.6507 -1.7509 -2.0338 0.9788
-4.4745 -2.1618 -2.0338 0.9788
-3.4263 -3.5993 -2.0338 0.9788
-3.0891 -3.8926 -2.0338 0.9788
-2.7267 -4.1545 -2.0338 0.9788
-1.9052 0.3464 -0.8439 0.9916
-1.9052 -0.3469 -0.8440 0.9916
-1.9898 -0.5509 -0.8998 0.9910
-4.3675 -1.6443 -2.0338 0.9798
-3.7707 -2.7495 -2.0338 0.9798
-3.5084 -3.0773 -2.0338 0.9798
-2.5606 -3.9015 -2.0338 0.9798
-2.1997 -4.1158 -2.0338 0.9798
-1.8209 -4.2968 -2.0338 0.9798
-1.5567 0.4305 -0.7476 0.9929
-1.6072 0.2922 -0.7562 0.9928
-1.6049 0.1446 -0.7459 0.9929
-1.5655 -0.0002 -0.7247 0.9931
-1.6050 -0.1450 -0.7459 0.9929
-4.1121 -1.5481 -2.0338 0.9808
-3.7686 -2.2592 -2.0338 0.9808
-3.5502 -2.5887 -2.0338 0.9808
-3.3032 -2.8973 -2.0338 0.9808
-3.0295 -3.1824 -2.0338 0.9808
-2.7313 -3.4418 -2.0338 0.9808
-2.4109 -3.6733 -2.0338 0.9808
-2.0711 -3.8751 -2.0338 0.9808
-1.7145 -4.0456 -2.0338 0.9808
-1.3061 0.3612 -0.6647 0.9940
-1.3534 0.1219 -0.6666 0.9940
-1.3396 -0.2439 -0.6679 0.9940
-1.9544 -3.6568 -2.0338 0.9817
-1.1860 0.2156 -0.6254 0.9946
-1.2004 0.1081 -0.6253 0.9946
-1.1859 -0.2160 -0.6254 0.9946
-1.1281 -0.4248 -0.6254 0.9946
-3.5300 -1.7054 -2.0339 0.9825
-3.3625 -2.0158 -2.0338 0.9825
-2.9473 -2.5851 -2.0338 0.9825
-2.7031 -2.8396 -2.0338 0.9825
-1.8479 -3.4576 -2.0338 0.9825
-1.0388 0.2873 -0.5903 0.9951
-1.0649 0.1936 -0.5928 0.9951
-1.0800 0.0973 -0.5939 0.9951
-1.0648 -0.1939 -0.5928 0.9951
-3.1849 -1.9094 -2.0339 0.9832
-2.3083 -2.9088 -2.0338 0.9832
-2.0376 -3.1045 -2.0338 0.9832
-1.4490 -3.4191 -2.0338 0.9832
-0.9782 0.1778 -0.5740 0.9954
-0.9889 -0.0002 -0.5709 0.9954
-0.9781 -0.1781 -0.5740 0.9954
-0.9589 -0.2655 -0.5745 0.9954
-0.9170 -0.4430 -0.5880 0.9953
-2.8464 -2.0755 -2.0339 0.9839
-2.1897 -2.7595 -2.0339 0.9839
-1.9330 -2.9451 -2.0339 0.9839
-1.6605 -3.1069 -2.0339 0.9839
