ply
format ascii 1.0
element vertex 206
property float32 x
property float32 y
property float32 z
property float32 I
end_header
3.1489 -6.3693 -0.6821 0.9719
-8.4088 -14.9130 -2.0337 0.9334
-2.7235 -16.9027 -2.0337 0.9334
0.2924 -17.1183 -2.0337 0.9334
1.8028 -17.0257 -2.0337 0.9334
1.8535 -6.3898 -0.7903 0.9736
2.4112 -6.2029 -0.7905 0.9735
10.1700 -13.7742 -2.0338 0.9334
11.3468 -12.8225 -2.0339 0.9334
-10.0807 -10.2173 -2.0337 0.9437
-9.1391 -11.0675 -2.0337 0.9437
-4.7404 -13.5479 -2.0337 0.9437
-3.5256 -13.9136 -2.0337 0.9437
-2.2832 -14.1707 -2.0337 0.9437
0.2452 -14.3515 -2.0337 0.9437
1.5114 -14.2738 -2.0338 0.9437
2.3782 -6.1180 -0.9300 0.9738
7.4731 -12.2554 -2.0338 0.9437
9.5126 -10.7498 -2.0339 0.9437
10.4247 -9.8679 -2.0339 0.9437
-7.8605 -9.5191 -2.0337 0.9512
-6.9893 -10.1761 -2.0337 0.9512
-1.9638 -12.1881 -2.0337 0.9512
-0.8799 -12.3139 -2.0338 0.9512
0.2109 -12.3436 -2.0338 0.9512
1.3000 -12.2768 -2.0338 0.9512
2.3790 -12.1141 -2.0338 0.9512
2.3177 -5.9624 -1.0538 0.9744
2.8950 -5.8557 -1.0761 0.9739
6.4275 -10.5407 -2.0338 0.9512
7.3332 -9.9321 -2.0339 0.9512
8.1816 -9.2458 -2.0339 0.9512
8.9662 -8.4873 -2.0339 0.9512
-7.5993 -7.7022 -2.0337 0.9569
-6.1259 -8.9190 -2.0337 0.9569
-5.3144 -9.4251 -2.0337 0.9569
-4.4614 -9.8575 -2.0338 0.9569
-3.5735 -10.2130 -2.0338 0.9569
-1.7212 -10.6824 -2.0338 0.9569
-0.7712 -10.7927 -2.0338 0.9569
2.0851 -10.6176 -2.0338 0.9569
1.7546 -6.0487 -1.1838 0.9747
2.7978 -5.6589 -1.1865 0.9746
5.6334 -9.2385 -2.0338 0.9569
7.1709 -8.1035 -2.0339 0.9569
-6.1262 -7.4189 -2.0338 0.9614
-5.4472 -7.9309 -2.0338 0.9614
-4.7257 -8.3809 -2.0338 0.9614
-3.9671 -8.7654 -2.0338 0.9614
-1.5305 -9.4989 -2.0338 0.9614
0.1643 -9.6201 -2.0338 0.9614
2.2780 -5.8604 -1.3291 0.9746
2.7791 -5.6211 -1.3255 0.9747
5.0093 -8.2150 -2.0339 0.9614
-6.0777 -6.1600 -2.0338 0.9651
-5.5100 -6.6726 -2.0338 0.9651
-4.8993 -7.1331 -2.0338 0.9651
-3.5680 -7.8837 -2.0338 0.9651
-2.8580 -8.1680 -2.0338 0.9651
-2.1255 -8.3885 -2.0338 0.9651
-0.6168 -8.6316 -2.0338 0.9651
1.2349 -6.2885 -1.5062 0.9740
1.6938 -5.8391 -1.4289 0.9753
5.7349 -6.4809 -2.0339 0.9651
-5.5168 -5.5915 -2.0338 0.9681
-5.0015 -6.0568 -2.0338 0.9681
-3.8580 -6.8422 -2.0338 0.9681
-3.2388 -7.1562 -2.0338 0.9681
-2.5943 -7.4142 -2.0338 0.9681
-1.2496 -7.7550 -2.0338 0.9681
0.1342 -7.8539 -2.0338 0.9681
0.8271 -7.8114 -2.0338 0.9681
1.7071 -5.8852 -1.5866 0.9750
2.8241 -5.7123 -1.6499 0.9740
4.6659 -6.3195 -2.0339 0.9681
5.2057 -5.8828 -2.0339 0.9681
-4.5745 -5.5396 -2.0338 0.9706
-4.0674 -5.9219 -2.0338 0.9706
-3.5286 -6.2580 -2.0338 0.9706
-2.9623 -6.5451 -2.0338 0.9706
-0.5121 -7.1660 -2.0338 0.9706
1.3844 -7.0497 -2.0338 0.9706
1.7057 -5.8801 -1.7332 0.9749
3.1690 -6.4097 -2.0242 0.9707
3.7404 -6.1340 -2.0339 0.9706
4.2674 -5.7798 -2.0339 0.9706
4.7611 -5.3804 -2.0339 0.9706
5.2177 -4.9390 -2.0339 0.9706
-3.7436 -5.4505 -2.0338 0.9727
-2.7264 -6.0241 -2.0338 0.9727
0.1130 -6.6114 -2.0338 0.9727
0.6962 -6.5757 -2.0338 0.9727
1.2742 -6.4885 -2.0338 0.9727
1.7312 -5.9679 -1.9113 0.9743
2.9306 -5.9276 -2.0339 0.9727
3.4426 -5.6457 -2.0339 0.9727
3.9277 -5.3197 -2.0339 0.9727
4.3821 -4.9521 -2.0339 0.9727
-4.2972 -4.3554 -2.0338 0.9745
-3.4641 -5.0434 -2.0338 0.9745
-3.0052 -5.3296 -2.0338 0.9745
-2.5228 -5.5742 -2.0338 0.9745
-2.0208 -5.7752 -2.0338 0.9745
-1.5029 -5.9311 -2.0338 0.9745
0.1045 -6.1177 -2.0338 0.9745
0.6443 -6.0845 -2.0338 0.9745
1.7046 -5.8763 -2.0338 0.9745
2.2169 -5.7029 -2.0339 0.9745
2.7118 -5.4849 -2.0339 0.9745
3.1855 -5.2240 -2.0339 0.9745
-2.7934 -4.9541 -2.0338 0.9761
-2.3450 -5.1814 -2.0338 0.9761
-0.9047 -5.6149 -2.0338 0.9761
1.5845 -5.4622 -2.0339 0.9761
2.9610 -4.8559 -2.0339 0.9761
4.1305 -3.9099 -2.0339 0.9761
-3.7274 -3.7779 -2.0338 0.9775
-3.0047 -4.3747 -2.0338 0.9775
-2.1883 -4.8351 -2.0338 0.9775
-1.7528 -5.0095 -2.0338 0.9775
-1.3037 -5.1447 -2.0338 0.9775
-0.3783 -5.2938 -2.0338 0.9775
0.0906 -5.3065 -2.0338 0.9775
1.9229 -4.9467 -2.0339 0.9775
3.5172 -3.9746 -2.0339 0.9775
-3.4902 -3.5374 -2.0338 0.9788
-2.4408 -4.3287 -2.0338 0.9788
-2.0490 -4.5273 -2.0338 0.9788
-0.3542 -4.9568 -2.0338 0.9788
0.0848 -4.9687 -2.0338 0.9788
0.9576 -4.8763 -2.0339 0.9788
1.8005 -4.6318 -2.0339 0.9788
2.2024 -4.4547 -2.0339 0.9788
2.5872 -4.2429 -2.0339 0.9788
2.9518 -3.9978 -2.0339 0.9788
3.6090 -3.4163 -2.0339 0.9788
-2.6421 -3.8468 -2.0338 0.9798
-1.9242 -4.2516 -2.0338 0.9798
-1.1463 -4.5238 -2.0338 0.9798
-0.7423 -4.6073 -2.0338 0.9798
-0.3327 -4.6549 -2.0338 0.9798
0.0797 -4.6661 -2.0338 0.9798
0.4914 -4.6408 -2.0339 0.9798
0.8993 -4.5793 -2.0339 0.9798
1.3001 -4.4820 -2.0339 0.9798
1.6908 -4.3497 -2.0339 0.9798
2.4297 -3.9845 -2.0339 0.9798
2.7720 -3.7544 -2.0339 0.9798
3.0927 -3.4949 -2.0339 0.9798
3.3892 -3.2082 -2.0339 0.9798
-3.0860 -3.1278 -2.0338 0.9808
-2.7977 -3.3880 -2.0338 0.9808
-2.4877 -3.6218 -2.0338 0.9808
-2.1580 -3.8273 -2.0338 0.9808
-1.8117 -4.0030 -2.0338 0.9808
-1.4512 -4.1473 -2.0338 0.9808
0.4627 -4.3695 -2.0339 0.9808
1.5920 -4.0954 -2.0339 0.9808
1.9474 -3.9388 -2.0339 0.9808
2.9119 -3.2906 -2.0339 0.9808
-2.9121 -2.9515 -2.0338 0.9817
-2.6401 -3.1971 -2.0338 0.9817
-2.3475 -3.4178 -2.0338 0.9817
-2.0365 -3.6117 -2.0338 0.9817
-1.7096 -3.7774 -2.0338 0.9817
-1.0185 -4.0193 -2.0338 0.9817
0.0708 -4.1457 -2.0339 0.9817
1.1551 -3.9822 -2.0339 0.9817
2.7478 -3.1052 -2.0339 0.9817
3.0113 -2.8504 -2.0339 0.9817
-2.2196 -3.2316 -2.0338 0.9825
-1.9255 -3.4150 -2.0338 0.9825
-1.6165 -3.5717 -2.0338 0.9825
-1.2948 -3.7005 -2.0338 0.9825
-0.6237 -3.8706 -2.0339 0.9825
-0.2795 -3.9105 -2.0339 0.9825
0.7555 -3.8470 -2.0339 0.9825
1.0922 -3.7653 -2.0339 0.9825
1.4204 -3.6541 -2.0339 0.9825
2.0411 -3.3473 -2.0339 0.9825
2.3287 -3.1540 -2.0339 0.9825
-2.6080 -2.6434 -2.0338 0.9832
-1.8239 -3.2346 -2.0338 0.9832
-1.5312 -3.3831 -2.0338 0.9832
-1.2264 -3.5051 -2.0339 0.9832
-0.9121 -3.5997 -2.0339 0.9832
-0.5907 -3.6662 -2.0339 0.9832
-0.2647 -3.7040 -2.0339 0.9832
0.7156 -3.6438 -2.0339 0.9832
1.0345 -3.5665 -2.0339 0.9832
1.3454 -3.4612 -2.0339 0.9832
2.2057 -2.9874 -2.0339 0.9832
2.6969 -2.5529 -2.0339 0.9832
-2.4741 -2.5076 -2.0339 0.9839
-2.2430 -2.7163 -2.0339 0.9839
-1.9944 -2.9038 -2.0339 0.9839
-1.4525 -3.2094 -2.0339 0.9839
-0.2511 -3.5138 -2.0339 0.9839
0.3709 -3.5032 -2.0339 0.9839
0.6788 -3.4568 -2.0339 0.9839
0.9814 -3.3833 -2.0339 0.9839
1.2763 -3.2834 -2.0339 0.9839
1.5612 -3.1579 -2.0339 0.9839
2.0925 -2.8340 -2.0339 0.9839
2.3346 -2.6382 -2.0339 0.9839
2.5584 -2.4218 -2.0339 0.9839
