ply
format ascii 1.0
element vertex 188
property float32 x
property float32 y
property float32 z
property float32 I
end_header
-11.7690 -8.4750 -0.7355 0.9436
-16.1983 5.8151 -1.2619 0.9333
-11.2650 -8.1121 -1.3327 0.9457
-13.1297 10.9905 -2.0339 0.9334
-14.8521 8.5196 -2.0339 0.9334
-15.5436 7.1802 -2.0338 0.9334
-16.1148 5.7851 -2.0338 0.9334
-16.5610 4.3451 -2.0338 0.9334
-16.8789 2.8718 -2.0338 0.9334
-17.0659 1.3761 -2.0338 0.9334
-16.8327 -3.1283 -2.0337 0.9334
-16.4922 -4.5967 -2.0337 0.9334
-16.0239 -6.0294 -2.0337 0.9334
-15.4314 -7.4154 -2.0337 0.9334
-14.7193 -8.7439 -2.0337 0.9334
-11.3094 -8.1440 -1.6555 0.9454
-12.9593 -11.1877 -2.0337 0.9334
-11.7750 8.2100 -2.0339 0.9437
-13.0312 6.0195 -2.0339 0.9437
-13.5100 4.8500 -2.0338 0.9437
-13.8841 3.6429 -2.0338 0.9437
-14.1507 2.4075 -2.0338 0.9437
-14.2880 -1.3713 -2.0338 0.9437
-14.1120 -2.6227 -2.0338 0.9437
-12.9371 -6.2168 -2.0337 0.9437
-11.5712 -8.3326 -2.0204 0.9440
-10.8647 -9.3795 -2.0337 0.9437
-10.1275 7.0612 -2.0339 0.9512
-11.2080 5.1773 -2.0339 0.9512
-11.9416 3.1332 -2.0338 0.9512
-12.3057 0.9922 -2.0338 0.9512
-11.8921 -3.3146 -2.0338 0.9512
-11.1272 -5.3470 -2.0337 0.9512
-10.6137 -6.3050 -2.0337 0.9512
-10.0180 -7.2141 -2.0337 0.9512
-9.3447 -8.0673 -2.0337 0.9512
-8.2976 6.9456 -2.0339 0.9569
-9.3862 5.3842 -2.0339 0.9569
-9.8232 4.5377 -2.0339 0.9569
-10.1842 3.6561 -2.0339 0.9569
-10.4663 2.7461 -2.0338 0.9569
-10.6672 1.8149 -2.0338 0.9569
-10.8201 -0.0824 -2.0338 0.9569
-10.7708 -1.0337 -2.0338 0.9569
-10.6381 -1.9771 -2.0338 0.9569
-9.7525 -4.6865 -2.0338 0.9569
-7.3783 6.1761 -2.0339 0.9614
-7.8929 5.5032 -2.0339 0.9614
-8.3462 4.7876 -2.0339 0.9614
-9.0559 3.2510 -2.0339 0.9614
-9.3068 2.4419 -2.0338 0.9614
-9.4854 1.6138 -2.0338 0.9614
-9.5776 -0.9192 -2.0338 0.9614
-9.4596 -1.7580 -2.0338 0.9614
-9.0051 -3.3884 -2.0338 0.9614
-7.8077 -5.6224 -2.0338 0.9614
-7.2829 -6.2873 -2.0338 0.9614
-7.8562 3.6290 -2.0339 0.9651
-8.5312 1.4515 -2.0338 0.9651
-8.5080 -1.5812 -2.0338 0.9651
-8.3359 -2.3234 -2.0338 0.9651
-7.7998 -3.7481 -2.0338 0.9651
-7.4398 -4.4196 -2.0338 0.9651
-6.5503 -5.6549 -2.0338 0.9651
-6.4437 4.4928 -2.0339 0.9681
-6.8139 3.9086 -2.0339 0.9681
-7.1312 3.2941 -2.0339 0.9681
-7.3933 2.6541 -2.0339 0.9681
-7.7439 1.3176 -2.0338 0.9681
-7.8297 0.6313 -2.0338 0.9681
-7.8192 -0.7505 -2.0338 0.9681
-7.7228 -1.4353 -2.0338 0.9681
-7.0800 -3.4022 -2.0338 0.9681
-6.3743 -4.5902 -2.0338 0.9681
-5.9458 -5.1330 -2.0338 0.9681
-5.5092 4.6116 -2.0339 0.9706
-6.2320 3.5748 -2.0339 0.9706
-6.5222 3.0128 -2.0339 0.9706
-6.7619 2.4275 -2.0339 0.9706
-7.0826 1.2050 -2.0339 0.9706
-7.1841 -0.0547 -2.0338 0.9706
-7.1514 -0.6863 -2.0338 0.9706
-6.9205 -1.9289 -2.0338 0.9706
-6.7240 -2.5301 -2.0338 0.9706
-6.4754 -3.1117 -2.0338 0.9706
-5.4380 -4.6947 -2.0338 0.9706
-5.4243 3.7820 -2.0339 0.9727
-6.0030 2.7730 -2.0339 0.9727
-6.2236 2.2342 -2.0339 0.9727
-6.3960 1.6782 -2.0339 0.9727
-6.5188 1.1091 -2.0339 0.9727
-6.5821 -0.6317 -2.0338 0.9727
-6.3696 -1.7753 -2.0338 0.9727
-6.1887 -2.3287 -2.0338 0.9727
-5.9599 -2.8640 -2.0338 0.9727
-5.6849 -3.3771 -2.0338 0.9727
-5.3659 -3.8640 -2.0338 0.9727
-5.0052 -4.3210 -2.0338 0.9727
-4.6919 3.9275 -2.0339 0.9745
-5.3075 3.0445 -2.0339 0.9745
-5.7588 2.0673 -2.0339 0.9745
-6.0988 0.4917 -2.0339 0.9745
-6.1184 -0.0466 -2.0338 0.9745
-6.0155 -1.1180 -2.0338 0.9745
-5.8939 -1.6427 -2.0338 0.9745
-5.5148 -2.6501 -2.0338 0.9745
-5.2604 -3.1249 -2.0338 0.9745
-4.6314 -3.9983 -2.0338 0.9745
-4.3612 3.6507 -2.0339 0.9761
-4.9334 2.8300 -2.0339 0.9761
-5.6872 -0.0433 -2.0339 0.9761
-5.6613 -0.5434 -2.0338 0.9761
-4.6152 -3.3235 -2.0338 0.9761
-4.3050 -3.7165 -2.0338 0.9761
-4.0698 3.4067 -2.0339 0.9775
-4.3536 3.0355 -2.0339 0.9775
-5.2321 0.8902 -2.0339 0.9775
-5.2901 0.4265 -2.0339 0.9775
-5.1124 -1.4249 -2.0338 0.9775
-4.9672 -1.8691 -2.0338 0.9775
-4.5629 -2.7105 -2.0338 0.9775
-4.0764 2.8423 -2.0339 0.9788
-4.5114 2.0840 -2.0339 0.9788
-4.6772 1.6791 -2.0339 0.9788
-2.1178 0.3603 -0.8792 0.9908
-2.1186 0.1708 -0.8699 0.9909
-2.1154 -0.2030 -0.8697 0.9909
-4.7869 -1.3342 -2.0338 0.9788
-4.4790 -2.1524 -2.0338 0.9788
-3.7616 -3.2474 -2.0338 0.9788
-3.8282 2.6692 -2.0339 0.9798
-4.2366 1.9571 -2.0339 0.9798
-1.9487 0.5113 -0.8780 0.9912
-1.9051 0.3241 -0.8422 0.9916
-1.9116 -0.1835 -0.8369 0.9917
-4.2062 -2.0213 -2.0338 0.9798
-3.5325 -3.0496 -2.0338 0.9798
-3.6043 2.5131 -2.0339 0.9808
-3.9889 1.8426 -2.0339 0.9808
-1.5669 0.4111 -0.7499 0.9929
-1.6059 -0.2985 -0.7561 0.9928
-1.5551 -0.4335 -0.7473 0.9929
-3.7776 -2.2440 -2.0338 0.9808
-3.5655 -2.5676 -2.0338 0.9808
-3.3259 -2.8713 -2.0338 0.9808
-3.1795 2.6615 -2.0339 0.9817
-3.4012 2.3715 -2.0339 0.9817
-1.2659 0.4544 -0.6598 0.9940
-1.3530 0.1091 -0.6658 0.9940
-1.3535 -0.1299 -0.6670 0.9940
-1.3053 -0.3638 -0.6647 0.9940
-3.7372 -1.7959 -2.0338 0.9817
-3.1385 -2.7095 -2.0338 0.9817
-3.2160 2.2423 -2.0339 0.9825
-3.4007 1.9508 -2.0339 0.9825
-3.5591 1.6441 -2.0339 0.9825
-1.1328 0.4066 -0.6244 0.9946
-1.1893 0.2023 -0.6258 0.9946
-1.2004 0.0968 -0.6248 0.9946
-1.1569 -0.3225 -0.6231 0.9946
-1.1282 -0.4246 -0.6254 0.9946
-3.3706 -2.0023 -2.0338 0.9825
-3.1814 -2.2910 -2.0338 0.9825
-2.8475 2.3836 -2.0339 0.9832
-3.0461 2.1239 -2.0339 0.9832
-0.9941 0.4592 -0.5997 0.9950
-1.0240 0.3676 -0.5959 0.9951
-1.0412 0.2732 -0.5896 0.9951
-1.0677 0.1816 -0.5932 0.9951
-1.0796 -0.1037 -0.5940 0.9951
-1.0638 -0.1978 -0.5927 0.9951
-1.0386 -0.2895 -0.5905 0.9951
-0.9885 -0.4751 -0.6007 0.9950
-3.0134 -2.1700 -2.0339 0.9832
-2.8108 -2.4266 -2.0338 0.9832
-2.7013 2.2612 -2.0339 0.9839
-2.8897 2.0148 -2.0339 0.9839
-1.1622 0.6666 -0.7735 0.9938
-0.9225 0.4261 -0.5867 0.9953
-0.9603 0.2519 -0.5732 0.9954
-0.9800 0.1667 -0.5740 0.9954
-0.9883 -0.0949 -0.5732 0.9954
-0.9775 -0.1817 -0.5740 0.9954
-0.9587 -0.2672 -0.5746 0.9954
-0.9433 -0.3550 -0.5819 0.9954
-0.9176 -0.4410 -0.5878 0.9953
-3.0286 -1.7992 -2.0339 0.9839
-2.6665 -2.3020 -2.0339 0.9839
