ply
format ascii 1.0
element vertex 194
property float32 x
property float32 y
property float32 z
property float32 I
end_header
16.3902 -4.2912 -1.2423 0.9343
2.8364 -6.1213 -0.6477 0.9733
2.8910 -16.8752 -2.0337 0.9334
1.7114 -6.4923 -0.7975 0.9733
8.5370 -14.8415 -2.0338 0.9334
13.1347 -10.9843 -2.0339 0.9334
14.8567 -8.5126 -2.0339 0.9334
15.5482 -7.1727 -2.0340 0.9334
16.5648 -4.3370 -2.0340 0.9334
17.0689 -1.3668 -2.0340 0.9333
17.1231 0.1400 -2.0340 0.9333
17.0445 1.6457 -2.0341 0.9333
2.4237 -14.1476 -2.0338 0.9437
1.7155 -6.5076 -0.9536 0.9732
2.1991 -6.1035 -0.9192 0.9741
2.7289 -5.8894 -0.9197 0.9741
7.1571 -12.4426 -2.0338 0.9437
8.2240 -11.7648 -2.0338 0.9437
10.1587 -10.1416 -2.0339 0.9437
12.4551 -7.1366 -2.0339 0.9437
13.0348 -6.0133 -2.0339 0.9437
13.5133 -4.8434 -2.0340 0.9437
13.8871 -3.6359 -2.0340 0.9437
14.1533 -2.4002 -2.0340 0.9437
2.0846 -12.1682 -2.0338 0.9512
1.6513 -6.2641 -1.0672 0.9741
7.0734 -10.1187 -2.0338 0.9512
7.9361 -9.4573 -2.0339 0.9512
9.4708 -7.9203 -2.0339 0.9512
11.2109 -5.1719 -2.0339 0.9512
12.1729 -2.0644 -2.0340 0.9512
12.3074 -0.9855 -2.0340 0.9512
12.3464 0.1009 -2.0340 0.9512
12.2898 1.1866 -2.0340 0.9512
1.8271 -10.6650 -2.0338 0.9569
1.5972 -6.0590 -1.1778 0.9748
3.5105 -6.1031 -1.3234 0.9718
6.9556 -8.2890 -2.0339 0.9569
8.8793 -6.1847 -2.0339 0.9569
10.7714 1.0400 -2.0340 0.9569
2.6346 -5.6860 -1.3247 0.9747
3.2959 -5.7298 -1.3972 0.9733
6.1850 -7.3706 -2.0339 0.9614
6.8095 -6.7980 -2.0339 0.9614
7.3811 -6.1727 -2.0339 0.9614
7.8955 -5.4995 -2.0339 0.9614
8.7372 -4.0307 -2.0339 0.9614
9.0580 -3.2465 -2.0339 0.9614
9.4869 -1.6088 -2.0340 0.9614
9.5917 -0.7681 -2.0340 0.9614
9.5779 0.9248 -2.0340 0.9614
1.4612 -8.5294 -2.0338 0.9651
2.0579 -5.7113 -1.4268 0.9754
2.6922 -5.8102 -1.5050 0.9740
4.9581 -7.0928 -2.0339 0.9651
6.1244 -6.1142 -2.0339 0.9651
6.6386 -5.5517 -2.0339 0.9651
7.1012 -4.9463 -2.0339 0.9651
7.5088 -4.3024 -2.0339 0.9651
7.8582 -3.6252 -2.0339 0.9651
8.5325 -1.4470 -2.0340 0.9651
8.6143 0.8317 -2.0340 0.9651
1.3264 -7.7423 -2.0338 0.9681
2.0657 -5.7331 -1.5778 0.9751
3.3796 -5.8755 -1.7550 0.9724
5.0494 -6.0174 -2.0339 0.9681
5.5592 -5.5499 -2.0339 0.9681
6.4459 -4.4898 -2.0339 0.9681
6.8159 -3.9054 -2.0339 0.9681
7.3949 -2.6504 -2.0339 0.9681
7.5994 -1.9897 -2.0339 0.9681
7.7450 -1.3135 -2.0340 0.9681
2.1596 -5.9939 -1.8036 0.9739
4.1162 -5.8884 -2.0339 0.9706
5.0845 -5.0760 -2.0339 0.9706
5.5113 -4.6090 -2.0339 0.9706
7.1846 0.0587 -2.0340 0.9706
7.1515 0.6905 -2.0340 0.9706
1.6855 -6.3940 -2.0338 0.9727
2.2415 -6.2210 -2.0338 0.9727
3.7885 -5.4197 -2.0339 0.9727
4.2506 -5.0654 -2.0339 0.9727
5.0726 -4.2421 -2.0339 0.9727
5.4261 -3.7795 -2.0339 0.9727
5.7375 -3.2875 -2.0339 0.9727
6.0046 -2.7701 -2.0339 0.9727
6.2250 -2.2311 -2.0339 0.9727
6.3971 -1.6749 -2.0339 0.9727
6.5917 -0.5279 -2.0340 0.9727
6.5822 0.6355 -2.0340 0.9727
1.0331 -6.0307 -2.0338 0.9745
1.5597 -5.9164 -2.0338 0.9745
2.0741 -5.7563 -2.0339 0.9745
3.5055 -5.0149 -2.0339 0.9745
3.9331 -4.6871 -2.0339 0.9745
4.6937 -3.9253 -2.0339 0.9745
5.0208 -3.4972 -2.0339 0.9745
5.3090 -3.0420 -2.0339 0.9745
5.5561 -2.5632 -2.0339 0.9745
5.7600 -2.0645 -2.0339 0.9745
5.9193 -1.5498 -2.0339 0.9745
6.0327 -1.0231 -2.0339 0.9745
6.0994 -0.4884 -2.0339 0.9745
0.9603 -5.6057 -2.0338 0.9761
1.4498 -5.4995 -2.0339 0.9761
2.3911 -5.1604 -2.0339 0.9761
4.9349 -2.8276 -2.0339 0.9761
5.1646 -2.3825 -2.0339 0.9761
5.3541 -1.9190 -2.0339 0.9761
5.5022 -1.4406 -2.0339 0.9761
5.6614 0.5466 -2.0340 0.9761
1.7991 -4.9931 -2.0339 0.9775
2.2313 -4.8155 -2.0339 0.9775
3.0407 -4.3499 -2.0339 0.9775
3.4116 -4.0656 -2.0339 0.9775
3.7560 -3.7498 -2.0339 0.9775
4.6051 -2.6387 -2.0339 0.9775
4.9963 -1.7908 -2.0339 0.9775
5.1345 -1.3443 -2.0339 0.9775
5.2907 -0.4237 -2.0339 0.9775
5.3074 0.0434 -2.0339 0.9775
5.2830 0.5101 -2.0340 0.9775
1.2667 -4.8053 -2.0339 0.9788
1.6845 -4.6752 -2.0339 0.9788
3.1945 -3.8068 -2.0339 0.9788
4.3119 -2.4706 -2.0339 0.9788
4.5125 -2.0818 -2.0339 0.9788
4.8076 -1.2587 -2.0339 0.9787
4.8996 -0.8309 -2.0339 0.9788
4.9538 -0.3967 -2.0339 0.9787
4.9466 0.4776 -2.0339 0.9787
1.1896 -4.5126 -2.0339 0.9798
1.9620 -4.2343 -2.0339 0.9798
2.3269 -4.0453 -2.0339 0.9798
2.9998 -3.5749 -2.0339 0.9798
3.3027 -3.2972 -2.0339 0.9798
3.5800 -2.9939 -2.0339 0.9798
3.8295 -2.6673 -2.0339 0.9798
4.0493 -2.3202 -2.0339 0.9798
4.3933 -1.5746 -2.0339 0.9798
4.6013 -0.7803 -2.0339 0.9798
4.6521 -0.3725 -2.0339 0.9798
4.6454 0.4485 -2.0339 0.9798
0.7419 -4.3308 -2.0339 0.9808
1.1200 -4.2487 -2.0339 0.9808
1.4895 -4.1337 -2.0339 0.9808
2.1909 -3.8087 -2.0339 0.9808
2.5174 -3.6013 -2.0339 0.9808
2.8245 -3.3659 -2.0339 0.9808
3.3707 -2.8188 -2.0339 0.9808
3.9899 -1.8407 -2.0339 0.9808
4.1364 -1.4826 -2.0339 0.9808
4.3800 -0.3508 -2.0339 0.9808
4.3939 0.0359 -2.0339 0.9808
4.3737 0.4223 -2.0339 0.9808
1.0569 -4.0094 -2.0339 0.9817
1.4055 -3.9009 -2.0339 0.9817
1.7432 -3.7621 -2.0339 0.9817
2.0674 -3.5942 -2.0339 0.9817
3.1808 -2.6600 -2.0339 0.9817
3.4024 -2.3699 -2.0339 0.9817
3.7651 -1.7369 -2.0339 0.9817
3.9033 -1.3990 -2.0339 0.9817
4.0113 -1.0502 -2.0339 0.9817
4.1464 0.0339 -2.0339 0.9817
4.1273 0.3985 -2.0339 0.9817
0.6620 -3.8642 -2.0339 0.9825
0.9993 -3.7910 -2.0339 0.9825
1.9548 -3.3984 -2.0339 0.9825
2.7746 -2.7699 -2.0339 0.9825
3.0075 -2.5151 -2.0339 0.9825
3.2171 -2.2408 -2.0339 0.9825
3.4018 -1.9491 -2.0339 0.9825
3.5600 -1.6423 -2.0339 0.9825
3.6907 -1.3228 -2.0339 0.9825
2.0762 -0.1663 -1.0806 0.9907
2.0720 0.0169 -1.0750 0.9907
2.0738 0.2002 -1.0808 0.9907
0.6270 -3.6601 -2.0339 0.9832
0.9466 -3.5908 -2.0339 0.9832
1.2587 -3.4936 -2.0339 0.9832
1.8516 -3.2189 -2.0339 0.9832
2.8487 -2.3823 -2.0339 0.9832
3.2221 -1.8462 -2.0339 0.9832
2.0400 -0.7312 -1.1869 0.9902
1.8587 -0.4866 -1.0523 0.9913
1.8521 -0.3141 -1.0289 0.9915
0.5948 -3.4722 -2.0339 0.9839
0.8979 -3.4064 -2.0339 0.9839
2.0183 -2.8873 -2.0339 0.9839
1.7234 -0.6177 -1.0570 0.9916
1.7142 -0.2907 -1.0038 0.9920
1.7221 -0.1379 -0.9975 0.9921
1.7205 0.1661 -0.9979 0.9920
