ply
format ascii 1.0
element vertex 180
property float32 x
property float32 y
property float32 z
property float32 I
end_header
2.5015 -6.1188 -0.6346 0.9738
-11.8926 -12.3156 -2.0337 0.9334
-10.7519 -13.3230 -2.0337 0.9334
-9.5262 -14.2253 -2.0337 0.9334
-8.2253 -15.0150 -2.0337 0.9334
-6.8594 -15.6862 -2.0337 0.9334
-5.4393 -16.2335 -2.0337 0.9334
-3.9761 -16.6525 -2.0337 0.9334
2.4685 -6.0381 -0.7749 0.9741
-9.9704 -10.3250 -2.0337 0.9437
-9.0141 -11.1696 -2.0337 0.9437
-6.8959 -12.5882 -2.0337 0.9437
-5.7507 -13.1509 -2.0337 0.9437
-4.5601 -13.6097 -2.0337 0.9437
-2.0804 -14.2019 -2.0337 0.9437
0.4648 -14.3461 -2.0337 0.9437
1.7371 -14.2482 -2.0338 0.9437
1.9252 -6.2423 -0.9256 0.9740
-6.8692 -10.2575 -2.0337 0.9512
-3.9221 -11.7056 -2.0337 0.9512
-2.8671 -12.0077 -2.0337 0.9512
-1.7894 -12.2149 -2.0337 0.9512
-0.6975 -12.3256 -2.0338 0.9512
0.3998 -12.3389 -2.0338 0.9512
2.5764 -12.0737 -2.0338 0.9512
6.6199 -10.4209 -2.0338 0.9512
8.3592 -9.0856 -2.0339 0.9512
-4.3351 -9.9137 -2.0338 0.9569
-3.4376 -10.2595 -2.0338 0.9569
-2.5129 -10.5243 -2.0338 0.9569
-1.5683 -10.7059 -2.0338 0.9569
1.3095 -10.7408 -2.0338 0.9569
2.3866 -5.8378 -1.1854 0.9747
6.5904 -8.5822 -2.0339 0.9569
-6.6835 -6.9212 -2.0338 0.9614
-6.0424 -7.4874 -2.0338 0.9614
-5.3536 -7.9944 -2.0338 0.9614
-4.6225 -8.4382 -2.0338 0.9614
-2.2345 -9.3584 -2.0338 0.9614
-1.3946 -9.5198 -2.0338 0.9614
-0.5436 -9.6061 -2.0338 0.9614
1.1644 -9.5509 -2.0338 0.9614
2.3714 -5.8007 -1.3247 0.9747
5.1593 -8.1216 -2.0339 0.9614
5.8602 -7.6314 -2.0339 0.9614
-6.0112 -6.2249 -2.0338 0.9651
-5.4346 -6.7342 -2.0338 0.9651
-4.1575 -7.5894 -2.0338 0.9651
-3.4671 -7.9286 -2.0338 0.9651
-2.7493 -8.2052 -2.0338 0.9651
-2.0097 -8.4170 -2.0338 0.9651
-1.2543 -8.5622 -2.0338 0.9651
1.0473 -8.5901 -2.0338 0.9651
1.3171 -6.1725 -1.4833 0.9744
2.9393 -5.6875 -1.5046 0.9740
-4.9330 -6.1127 -2.0338 0.9681
-4.3707 -6.5267 -2.0338 0.9681
-3.7739 -6.8890 -2.0338 0.9681
-3.1471 -7.1969 -2.0338 0.9681
-1.8243 -7.6402 -2.0338 0.9681
1.8101 -5.8690 -1.5902 0.9749
2.4406 -5.9699 -1.6699 0.9737
3.0094 -5.8229 -1.6971 0.9733
-3.9975 -5.9694 -2.0338 0.9706
-3.4516 -6.3008 -2.0338 0.9706
-2.8784 -6.5824 -2.0338 0.9706
-2.2825 -6.8120 -2.0338 0.9706
-1.6685 -6.9878 -2.0338 0.9706
-1.0413 -7.1084 -2.0338 0.9706
0.2327 -7.1806 -2.0338 0.9706
0.8695 -7.1315 -2.0338 0.9706
1.8187 -5.8971 -1.7470 0.9747
3.1873 -6.1671 -1.9653 0.9716
3.8523 -6.0643 -2.0339 0.9706
4.3757 -5.6983 -2.0339 0.9706
4.8645 -5.2872 -2.0339 0.9706
-4.5933 -4.7566 -2.0338 0.9727
-2.6493 -6.0584 -2.0338 0.9727
-0.9584 -6.5426 -2.0338 0.9727
-0.3736 -6.6018 -2.0338 0.9727
0.8002 -6.5638 -2.0338 0.9727
2.5023 -6.1207 -2.0339 0.9727
3.0360 -5.8743 -2.0339 0.9727
3.5457 -5.5815 -2.0339 0.9727
4.4772 -4.8663 -2.0339 0.9727
-2.9396 -5.3661 -2.0338 0.9745
-2.4514 -5.6059 -2.0338 0.9745
-1.4210 -5.9513 -2.0338 0.9745
-0.8869 -6.0539 -2.0338 0.9745
-0.3457 -6.1087 -2.0338 0.9745
1.2769 -5.9839 -2.0338 0.9745
1.8033 -5.8468 -2.0339 0.9745
3.2808 -5.1647 -2.0339 0.9745
3.7266 -4.8529 -2.0339 0.9745
-3.9507 -4.0912 -2.0338 0.9761
-3.5717 -4.4259 -2.0338 0.9761
-3.1646 -4.7256 -2.0338 0.9761
-2.7324 -4.9879 -2.0338 0.9761
-2.2787 -5.2109 -2.0338 0.9761
-1.8069 -5.3927 -2.0338 0.9761
-1.3209 -5.5319 -2.0338 0.9761
-0.8244 -5.6273 -2.0338 0.9761
0.1842 -5.6844 -2.0338 0.9761
0.6883 -5.6456 -2.0338 0.9761
2.1522 -5.2645 -2.0339 0.9761
2.6112 -5.0526 -2.0339 0.9761
3.0496 -4.8007 -2.0339 0.9761
3.4639 -4.5109 -2.0339 0.9761
3.8509 -4.1855 -2.0339 0.9761
-2.5498 -4.6546 -2.0338 0.9775
-1.6862 -5.0323 -2.0338 0.9775
-1.2326 -5.1621 -2.0338 0.9775
-0.7693 -5.2512 -2.0338 0.9775
0.6423 -5.2683 -2.0338 0.9775
1.5642 -5.0716 -2.0339 0.9775
2.0084 -4.9127 -2.0339 0.9775
3.5935 -3.9058 -2.0339 0.9775
-3.4520 -3.5747 -2.0338 0.9788
-2.7651 -4.1290 -2.0338 0.9788
-1.9910 -4.5531 -2.0338 0.9788
-1.5788 -4.7119 -2.0338 0.9788
-0.2808 -4.9614 -2.0338 0.9788
0.1609 -4.9668 -2.0338 0.9788
0.6014 -4.9329 -2.0339 0.9788
1.0371 -4.8600 -2.0339 0.9788
1.4646 -4.7487 -2.0339 0.9788
1.8805 -4.5999 -2.0339 0.9788
2.6646 -4.1946 -2.0339 0.9788
3.3647 -3.6571 -2.0339 0.9788
-3.2417 -3.3570 -2.0338 0.9798
0.1511 -4.6643 -2.0338 0.9798
0.5648 -4.6325 -2.0339 0.9798
1.3754 -4.4595 -2.0339 0.9798
1.7660 -4.3198 -2.0339 0.9798
-2.7595 -3.4193 -2.0338 0.9808
-1.7604 -4.0258 -2.0338 0.9808
-0.2483 -4.3869 -2.0338 0.9808
0.1423 -4.3916 -2.0339 0.9808
0.9170 -4.2971 -2.0339 0.9808
2.3560 -3.7089 -2.0339 0.9808
-2.8802 -2.9826 -2.0338 0.9817
-2.6039 -3.2266 -2.0338 0.9817
-2.3071 -3.4452 -2.0338 0.9817
-1.9920 -3.6364 -2.0338 0.9817
-1.6612 -3.7989 -2.0338 0.9817
-0.2343 -4.1397 -2.0339 0.9817
0.8653 -4.0550 -2.0339 0.9817
1.2220 -3.9622 -2.0339 0.9817
1.5690 -3.8380 -2.0339 0.9817
2.5253 -3.2886 -2.0339 0.9817
2.8074 -3.0513 -2.0339 0.9817
-2.7233 -2.8202 -2.0338 0.9825
-2.1815 -3.2575 -2.0338 0.9825
-1.5708 -3.5921 -2.0338 0.9825
-0.9105 -3.8133 -2.0338 0.9825
-0.5683 -3.8791 -2.0339 0.9825
0.4745 -3.8917 -2.0339 0.9825
1.1554 -3.7463 -2.0339 0.9825
1.4836 -3.6290 -2.0339 0.9825
1.8000 -3.4829 -2.0339 0.9825
2.1022 -3.3093 -2.0339 0.9825
-2.5795 -2.6712 -2.0338 0.9832
-1.7841 -3.2568 -2.0338 0.9832
-1.4878 -3.4023 -2.0338 0.9832
-1.1798 -3.5211 -2.0339 0.9832
-0.5382 -3.6742 -2.0339 0.9832
0.1203 -3.7115 -2.0339 0.9832
0.4494 -3.6862 -2.0339 0.9832
0.7750 -3.6317 -2.0339 0.9832
1.4052 -3.4373 -2.0339 0.9832
1.7050 -3.2989 -2.0339 0.9832
1.9912 -3.1345 -2.0339 0.9832
2.2617 -2.9453 -2.0339 0.9832
-1.9602 -2.9271 -2.0339 0.9839
-1.4114 -3.2277 -2.0339 0.9839
-1.1192 -3.3403 -2.0339 0.9839
-0.8182 -3.4264 -2.0339 0.9839
1.0382 -3.3663 -2.0339 0.9839
1.3331 -3.2608 -2.0339 0.9839
2.1456 -2.7941 -2.0339 0.9839
