ply
format ascii 1.0
element vertex 198
property float32 x
property float32 y
property float32 z
property float32 I
end_header
4.2542 18.1297 0.3146 0.9282
16.5634 -3.8693 -0.8626 0.9341
14.7527 9.1552 -0.8805 0.9328
16.2761 -3.8021 -1.2255 0.9352
14.3980 8.9351 -1.2425 0.9343
16.2144 -3.7877 -1.5986 0.9353
13.9668 8.6675 -1.5781 0.9361
16.4536 -3.8435 -2.0071 0.9342
17.1148 0.5504 -2.0341 0.9333
16.7599 3.5122 -2.0341 0.9333
16.3904 4.9587 -2.0341 0.9333
15.8962 6.3675 -2.0341 0.9333
12.7626 11.4176 -2.0341 0.9333
9.3750 14.3302 -2.0341 0.9333
5.3493 16.2674 -2.0341 0.9333
3.9120 16.6714 -2.0341 0.9333
13.9789 -3.2655 -2.0340 0.9437
14.2104 -2.0355 -2.0340 0.9437
14.3337 -0.7901 -2.0340 0.9437
14.3482 0.4614 -2.0340 0.9437
14.0505 2.9444 -2.0341 0.9437
13.3265 5.3381 -2.0341 0.9437
12.8110 6.4786 -2.0341 0.9437
11.4924 8.6035 -2.0341 0.9437
8.8759 11.2834 -2.0341 0.9437
7.8594 12.0136 -2.0341 0.9437
5.6554 13.1952 -2.0341 0.9437
4.4845 13.6376 -2.0341 0.9437
12.0230 -2.8086 -2.0340 0.9512
12.2220 -1.7507 -2.0340 0.9512
11.4618 4.5911 -2.0341 0.9512
11.0183 5.5720 -2.0341 0.9512
9.8843 7.3996 -2.0341 0.9512
7.6339 9.7045 -2.0341 0.9512
10.8050 -0.5956 -2.0340 0.9569
10.7445 1.2886 -2.0340 0.9569
10.5914 2.2195 -2.0340 0.9569
10.0456 4.0239 -2.0340 0.9569
9.6570 4.8836 -2.0340 0.9569
9.1949 5.7062 -2.0340 0.9569
5.9245 9.0559 -2.0341 0.9569
5.1132 9.5375 -2.0341 0.9569
3.3805 10.2801 -2.0340 0.9569
9.3700 -2.1888 -2.0340 0.9614
9.5252 -1.3644 -2.0340 0.9614
9.5540 1.1458 -2.0340 0.9614
9.4179 1.9736 -2.0340 0.9614
9.2103 2.7864 -2.0340 0.9614
8.5870 4.3425 -2.0340 0.9614
8.1762 5.0739 -2.0340 0.9614
6.5855 7.0161 -2.0340 0.9614
5.9494 7.5631 -2.0340 0.9614
5.2680 8.0525 -2.0340 0.9614
4.5466 8.4807 -2.0340 0.9614
3.7907 8.8445 -2.0340 0.9614
8.6500 0.2782 -2.0340 0.9651
7.3536 4.5635 -2.0340 0.9651
6.9282 5.1866 -2.0340 0.9651
5.9230 6.3103 -2.0340 0.9651
5.3509 6.8022 -2.0340 0.9651
4.7381 7.2424 -2.0340 0.9651
3.4093 7.9547 -2.0340 0.9651
2.7035 8.2214 -2.0340 0.9651
7.8516 0.2525 -2.0340 0.9681
7.6887 1.6112 -2.0340 0.9681
7.5192 2.2748 -2.0340 0.9681
7.2925 2.9211 -2.0340 0.9681
7.0104 3.5452 -2.0340 0.9681
6.2887 4.7079 -2.0340 0.9681
4.8570 6.1744 -2.0340 0.9681
3.7118 6.9236 -2.0340 0.9681
3.0947 7.2206 -2.0340 0.9681
1.7947 7.6480 -2.0340 0.9681
6.9964 -1.6344 -2.0339 0.9706
7.1739 -0.3954 -2.0340 0.9706
7.1811 0.2309 -2.0340 0.9706
7.1337 0.8555 -2.0340 0.9706
7.0321 1.4737 -2.0340 0.9706
6.8771 2.0805 -2.0340 0.9706
6.6696 2.6716 -2.0340 0.9706
6.1049 3.7886 -2.0340 0.9706
5.3548 4.7905 -2.0340 0.9706
3.9335 6.0125 -2.0340 0.9706
2.2444 6.8253 -2.0340 0.9706
1.6414 6.9949 -2.0340 0.9706
6.4394 -1.5042 -2.0339 0.9727
6.5460 -0.9377 -2.0339 0.9727
6.3296 1.9149 -2.0340 0.9727
6.1387 2.4589 -2.0340 0.9727
5.2938 3.9631 -2.0340 0.9727
4.5257 4.8216 -2.0340 0.9727
4.0886 5.1975 -2.0340 0.9727
3.6203 5.5339 -2.0340 0.9727
2.0657 6.2820 -2.0340 0.9727
1.5107 6.4380 -2.0340 0.9727
6.0570 -0.8676 -2.0339 0.9745
6.1096 -0.3368 -2.0339 0.9745
5.8568 1.7719 -2.0340 0.9745
5.4605 2.7614 -2.0340 0.9745
3.7832 4.8093 -2.0340 0.9745
2.4105 5.6242 -2.0340 0.9745
1.9114 5.8128 -2.0340 0.9745
5.5385 -1.2938 -2.0339 0.9761
5.6790 -0.3130 -2.0339 0.9761
5.6847 0.1828 -2.0340 0.9761
5.5668 1.1666 -2.0340 0.9761
5.2799 2.1149 -2.0340 0.9761
4.8328 2.9991 -2.0340 0.9761
4.5532 3.4086 -2.0340 0.9761
3.8925 4.1471 -2.0340 0.9761
3.1138 4.7597 -2.0340 0.9761
2.6874 5.0128 -2.0340 0.9761
5.2539 -0.7526 -2.0339 0.9775
5.2995 -0.2921 -2.0339 0.9775
5.1947 1.0886 -2.0340 0.9775
5.0802 1.5369 -2.0340 0.9775
4.9270 1.9736 -2.0340 0.9775
4.7364 2.3952 -2.0340 0.9775
4.5098 2.7987 -2.0340 0.9775
4.2489 3.1808 -2.0340 0.9775
3.9557 3.5388 -2.0340 0.9775
3.6324 3.8699 -2.0340 0.9775
3.2816 4.1716 -2.0340 0.9775
2.9057 4.4415 -2.0340 0.9775
2.0908 4.8784 -2.0340 0.9775
4.8393 -1.1304 -2.0339 0.9788
4.9194 -0.7047 -2.0339 0.9788
4.9621 -0.2735 -2.0339 0.9788
4.9671 0.1597 -2.0339 0.9788
4.9343 0.5917 -2.0339 0.9787
4.8640 1.0193 -2.0340 0.9787
4.7568 1.4391 -2.0340 0.9787
4.6133 1.8479 -2.0340 0.9787
4.4349 2.2427 -2.0340 0.9787
4.2227 2.6205 -2.0340 0.9787
3.7038 3.3135 -2.0340 0.9787
2.7207 4.1588 -2.0340 0.9787
1.5525 4.7210 -2.0340 0.9787
4.6198 -0.6617 -2.0339 0.9798
4.6646 0.1500 -2.0339 0.9798
4.6338 0.5557 -2.0339 0.9798
4.5678 0.9572 -2.0340 0.9798
4.4671 1.3514 -2.0340 0.9798
4.3324 1.7354 -2.0340 0.9798
4.1648 2.1061 -2.0340 0.9798
3.9655 2.4609 -2.0340 0.9798
3.1940 3.4029 -2.0340 0.9798
1.4579 4.4335 -2.0340 0.9798
1.0662 4.5436 -2.0340 0.9798
4.3874 -0.2418 -2.0339 0.9808
4.3918 0.1412 -2.0339 0.9808
4.3628 0.5232 -2.0339 0.9808
4.2058 1.2724 -2.0340 0.9808
4.0790 1.6339 -2.0340 0.9808
3.9212 1.9830 -2.0340 0.9808
3.5176 2.6334 -2.0340 0.9808
3.0072 3.2039 -2.0340 0.9808
2.7168 3.4536 -2.0340 0.9808
2.4056 3.6771 -2.0340 0.9808
2.0761 3.8727 -2.0340 0.9808
1.0038 4.2779 -2.0340 0.9808
4.0378 -0.9432 -2.0339 0.9817
4.1046 -0.5879 -2.0339 0.9817
4.1443 0.1333 -2.0339 0.9817
4.1170 0.4937 -2.0339 0.9817
3.9689 1.2007 -2.0339 0.9817
3.8492 1.5419 -2.0340 0.9817
3.5232 2.1864 -2.0340 0.9817
3.3194 2.4850 -2.0340 0.9817
3.0904 2.7646 -2.0340 0.9817
2.8378 3.0233 -2.0340 0.9817
1.9592 3.6545 -2.0340 0.9817
1.2953 3.9390 -2.0340 0.9817
0.9473 4.0368 -2.0340 0.9817
3.8179 -0.8918 -2.0339 0.9825
2.0783 -0.1146 -1.0798 0.9907
3.7527 1.1353 -2.0339 0.9825
2.9220 2.6141 -2.0340 0.9825
2.4240 3.0815 -2.0340 0.9825
2.1464 3.2809 -2.0340 0.9825
1.5445 3.6036 -2.0340 0.9825
1.2247 3.7244 -2.0340 0.9825
1.8527 -0.1021 -1.0163 0.9916
1.8460 0.2214 -1.0183 0.9916
3.4473 1.3809 -2.0339 0.9832
3.3139 1.6759 -2.0339 0.9832
2.5415 2.7077 -2.0340 0.9832
2.2961 2.9188 -2.0340 0.9832
1.4629 3.4133 -2.0340 0.9832
1.1600 3.5277 -2.0339 0.9832
1.7243 0.0554 -0.9960 0.9921
1.7170 0.2059 -0.9984 0.9920
1.7147 0.3593 -1.0115 0.9919
1.7493 0.7007 -1.0880 0.9913
2.6256 2.3489 -2.0339 0.9839
2.4110 2.5686 -2.0339 0.9839
1.9287 2.9481 -2.0340 0.9839
1.6646 3.1048 -2.0339 0.9839
