ply
format ascii 1.0
element vertex 211
property float32 x
property float32 y
property float32 z
property float32 I
end_header
2.7923 -6.1182 -0.6457 0.9733
17.9914 -3.2918 -1.7559 0.9291
-4.5871 -16.4945 -2.0337 0.9334
-3.1294 -16.8322 -2.0337 0.9334
-1.6478 -17.0412 -2.0337 0.9334
-0.1536 -17.1201 -2.0337 0.9334
1.3418 -17.0683 -2.0337 0.9334
2.8271 -16.8860 -2.0337 0.9334
1.6863 -6.5142 -0.7993 0.9733
2.7112 -5.9407 -0.7757 0.9740
10.9045 -13.2005 -2.0338 0.9334
13.9546 -9.9221 -2.0339 0.9334
14.7678 -8.6658 -2.0339 0.9334
15.4682 -7.3434 -2.0340 0.9334
16.0505 -5.9648 -2.0340 0.9334
16.5102 -4.5407 -2.0340 0.9334
16.8437 -3.0818 -2.0340 0.9334
-2.6236 -14.1116 -2.0337 0.9437
-0.1287 -14.3530 -2.0337 0.9437
1.1250 -14.3095 -2.0338 0.9437
2.1789 -6.1454 -0.9238 0.9740
2.6795 -5.8711 -0.9144 0.9743
7.0772 -12.4881 -2.0338 0.9437
8.1406 -11.8226 -2.0338 0.9437
9.1419 -11.0668 -2.0339 0.9437
10.0733 -10.2264 -2.0339 0.9437
10.9279 -9.3079 -2.0339 0.9437
11.6989 -8.3182 -2.0339 0.9437
12.3807 -7.2651 -2.0339 0.9437
12.9678 -6.1564 -2.0339 0.9437
13.4559 -5.0006 -2.0340 0.9437
-3.3077 -11.8939 -2.0337 0.9512
-2.2565 -12.1373 -2.0337 0.9512
1.6594 -6.4103 -1.0908 0.9735
2.1255 -5.9948 -1.0478 0.9745
6.0870 -10.7409 -2.0338 0.9512
7.8628 -9.5184 -2.0339 0.9512
10.0620 -7.1544 -2.0339 0.9512
10.6484 -6.2485 -2.0339 0.9512
11.9046 -3.2740 -2.0340 0.9512
12.1451 -2.2221 -2.0340 0.9512
-2.8990 -10.4245 -2.0338 0.9569
-0.0970 -10.8198 -2.0338 0.9569
0.8481 -10.7870 -2.0338 0.9569
1.6142 -6.2358 -1.2107 0.9741
2.1110 -5.9540 -1.1874 0.9746
3.6309 -6.4071 -1.3842 0.9705
6.8914 -8.3424 -2.0339 0.9569
7.5935 -7.7089 -2.0339 0.9569
8.2377 -7.0165 -2.0339 0.9569
9.7754 -4.6408 -2.0339 0.9569
10.1434 -3.7696 -2.0339 0.9569
-2.5779 -9.2696 -2.0338 0.9614
-1.7586 -9.4594 -2.0338 0.9614
-0.0862 -9.6211 -2.0338 0.9614
0.7541 -9.5920 -2.0338 0.9614
1.5887 -9.4895 -2.0338 0.9614
2.0939 -5.9057 -1.3245 0.9747
7.8419 -5.5758 -2.0339 0.9614
8.2987 -4.8698 -2.0339 0.9614
8.6923 -4.1266 -2.0339 0.9614
9.0195 -3.3519 -2.0339 0.9614
9.2778 -2.5516 -2.0340 0.9614
-0.8329 -8.6135 -2.0338 0.9651
2.0230 -5.7056 -1.4227 0.9754
3.2684 -5.7674 -1.5580 0.9731
6.0730 -6.1653 -2.0339 0.9651
7.8179 -3.7115 -2.0339 0.9651
8.1121 -3.0147 -2.0339 0.9651
8.3445 -2.2949 -2.0339 0.9651
-2.1046 -7.5678 -2.0338 0.9681
-0.7560 -7.8186 -2.0338 0.9681
-0.0704 -7.8547 -2.0338 0.9681
0.6156 -7.8309 -2.0338 0.9681
1.2971 -7.7473 -2.0338 0.9681
2.0497 -5.7809 -1.5881 0.9750
2.6629 -5.8346 -1.6606 0.9738
3.3347 -5.8842 -1.7512 0.9724
4.4549 -6.4699 -2.0339 0.9681
5.0028 -6.0562 -2.0339 0.9681
6.4020 -4.5521 -2.0339 0.9681
7.0964 -3.3690 -2.0339 0.9681
-1.3132 -7.0632 -2.0338 0.9706
-0.6914 -7.1509 -2.0338 0.9706
-0.0644 -7.1840 -2.0338 0.9706
0.5630 -7.1622 -2.0338 0.9706
2.1147 -5.9644 -1.7915 0.9740
2.7259 -5.9728 -1.8586 0.9731
3.5422 -6.2505 -2.0339 0.9706
4.5756 -5.5390 -2.0339 0.9706
5.0418 -5.1184 -2.0339 0.9706
5.4695 -4.6587 -2.0339 0.9706
5.8553 -4.1633 -2.0339 0.9706
6.4904 -3.0813 -2.0339 0.9706
6.7347 -2.5028 -2.0339 0.9706
6.9275 -1.9052 -2.0339 0.9706
-1.2087 -6.5010 -2.0338 0.9727
-0.6364 -6.5817 -2.0338 0.9727
-0.0593 -6.6121 -2.0338 0.9727
0.5183 -6.5921 -2.0338 0.9727
1.0919 -6.5217 -2.0338 0.9727
1.6571 -6.4014 -2.0338 0.9727
3.7501 -5.4463 -2.0339 0.9727
4.2113 -5.0981 -2.0339 0.9727
4.6404 -4.7110 -2.0339 0.9727
5.0340 -4.2878 -2.0339 0.9727
6.1986 -2.3036 -2.0339 0.9727
6.3761 -1.7535 -2.0339 0.9727
6.5048 -1.1902 -2.0339 0.9727
-1.1184 -6.0155 -2.0338 0.9745
-0.5889 -6.0901 -2.0338 0.9745
-0.0549 -6.1183 -2.0338 0.9745
0.4796 -6.0997 -2.0338 0.9745
1.5334 -5.9233 -2.0338 0.9745
2.5404 -5.5663 -2.0339 0.9745
3.8968 -4.7173 -2.0339 0.9745
4.2938 -4.3591 -2.0339 0.9745
4.6580 -3.9675 -2.0339 0.9745
5.7356 -2.1315 -2.0339 0.9745
5.8998 -1.6226 -2.0339 0.9745
6.0189 -1.1012 -2.0339 0.9745
-0.5474 -5.6610 -2.0338 0.9761
-0.0510 -5.6871 -2.0338 0.9761
0.9391 -5.6093 -2.0338 0.9761
2.3614 -5.1740 -2.0339 0.9761
3.9912 -4.0519 -2.0339 0.9761
4.6353 -3.2958 -2.0339 0.9761
4.9054 -2.8785 -2.0339 0.9761
5.1380 -2.4392 -2.0339 0.9761
-0.0476 -5.3071 -2.0338 0.9775
0.4159 -5.2910 -2.0338 0.9775
1.3300 -5.1380 -2.0339 0.9775
1.7736 -5.0022 -2.0339 0.9775
2.6168 -4.6174 -2.0339 0.9775
3.3801 -4.0918 -2.0339 0.9775
3.7245 -3.7811 -2.0339 0.9775
4.0404 -3.4415 -2.0339 0.9775
4.9751 -1.8489 -2.0339 0.9775
5.1175 -1.4074 -2.0339 0.9775
-1.3315 -4.7877 -2.0338 0.9788
-0.9084 -4.8857 -2.0338 0.9788
-0.4783 -4.9463 -2.0338 0.9788
0.3895 -4.9541 -2.0338 0.9788
0.8206 -4.9012 -2.0339 0.9788
1.2454 -4.8108 -2.0339 0.9788
1.6607 -4.6837 -2.0339 0.9788
2.4502 -4.3235 -2.0339 0.9788
2.8183 -4.0930 -2.0339 0.9788
3.1649 -3.8313 -2.0339 0.9788
3.4873 -3.5404 -2.0339 0.9788
4.0501 -2.8797 -2.0339 0.9788
4.2861 -2.5151 -2.0339 0.9788
4.7917 -1.3178 -2.0339 0.9788
-1.2504 -4.4962 -2.0338 0.9798
-0.4491 -4.6451 -2.0338 0.9798
0.7706 -4.6027 -2.0339 0.9798
1.1695 -4.5179 -2.0339 0.9798
1.5595 -4.3985 -2.0339 0.9798
1.9376 -4.2455 -2.0339 0.9798
3.2750 -3.3248 -2.0339 0.9798
4.0251 -2.3620 -2.0339 0.9798
4.2160 -2.0015 -2.0339 0.9798
4.3746 -1.6257 -2.0339 0.9798
-0.0394 -4.3937 -2.0339 0.9808
0.3444 -4.3804 -2.0339 0.9808
1.1012 -4.2537 -2.0339 0.9808
1.4683 -4.1413 -2.0339 0.9808
1.8243 -3.9973 -2.0339 0.9808
2.1664 -3.8227 -2.0339 0.9808
2.4919 -3.6190 -2.0339 0.9808
2.7984 -3.3876 -2.0339 0.9808
3.3450 -2.8492 -2.0339 0.9808
3.9694 -1.8845 -2.0339 0.9808
4.1188 -1.5307 -2.0339 0.9808
4.3223 -0.7908 -2.0339 0.9808
-0.7579 -4.0765 -2.0338 0.9817
-0.0372 -4.1462 -2.0339 0.9817
0.3250 -4.1336 -2.0339 0.9817
1.7215 -3.7721 -2.0339 0.9817
3.7458 -1.7782 -2.0339 0.9817
3.8868 -1.4444 -2.0339 0.9817
-1.0504 -3.7771 -2.0338 0.9825
-0.7166 -3.8544 -2.0339 0.9825
0.9825 -3.7954 -2.0339 0.9825
1.3101 -3.6951 -2.0339 0.9825
1.9330 -3.4109 -2.0339 0.9825
2.2234 -3.2291 -2.0339 0.9825
2.4969 -3.0226 -2.0339 0.9825
2.7513 -2.7930 -2.0339 0.9825
3.1952 -2.2719 -2.0339 0.9825
3.3814 -1.9842 -2.0339 0.9825
3.6750 -1.3658 -2.0339 0.9825
2.1044 -0.3850 -1.1098 0.9904
-0.9950 -3.5777 -2.0339 0.9832
-0.3574 -3.6962 -2.0339 0.9832
-0.0333 -3.7133 -2.0339 0.9832
0.2910 -3.7020 -2.0339 0.9832
0.6132 -3.6625 -2.0339 0.9832
1.2409 -3.5000 -2.0339 0.9832
1.8309 -3.2308 -2.0339 0.9832
2.8270 -2.4079 -2.0339 0.9832
3.0265 -2.1519 -2.0339 0.9832
1.8646 -0.5128 -1.0591 0.9912
-0.6439 -3.4634 -2.0339 0.9839
-0.3391 -3.5064 -2.0339 0.9839
0.8828 -3.4104 -2.0339 0.9839
1.1772 -3.3203 -2.0339 0.9839
2.6819 -2.2843 -2.0339 0.9839
3.1825 -1.5108 -2.0339 0.9839
1.7198 -0.6391 -1.0593 0.9916
1.7139 -0.3136 -1.0059 0.9920
