ply
format ascii 1.0
element vertex 191
property float32 x
property float32 y
property float32 z
property float32 I
end_header
2.2729 18.7321 3.3272 0.9262
2.1399 17.6358 2.7215 0.9306
4.0587 18.9574 2.5246 0.9248
2.2394 18.4561 1.9964 0.9279
3.8707 18.0797 0.7291 0.9287
2.1900 18.0488 0.7169 0.9298
3.8604 18.0314 0.3115 0.9289
2.2445 18.4988 0.3148 0.9282
2.3812 19.6250 -0.5567 0.9239
17.1232 0.1273 -2.0340 0.9333
17.0423 1.6686 -2.0341 0.9333
16.4669 4.6982 -2.0341 0.9333
15.9770 6.1619 -2.0341 0.9333
13.7499 10.2071 -2.0341 0.9333
7.9289 15.1782 -2.0341 0.9333
2.0627 16.9995 -2.0341 0.9333
14.3552 0.1067 -2.0340 0.9437
13.8049 3.9387 -2.0341 0.9437
11.5271 8.5570 -2.0341 0.9437
10.7098 9.5601 -2.0341 0.9437
7.7659 12.0743 -2.0341 0.9437
6.6471 12.7244 -2.0341 0.9437
5.4744 13.2712 -2.0341 0.9437
3.0054 14.0378 -2.0341 0.9437
12.2882 1.2032 -2.0340 0.9512
12.1300 2.3047 -2.0340 0.9512
11.8732 3.3876 -2.0340 0.9512
11.0732 5.4621 -2.0341 0.9512
10.5364 6.4370 -2.0341 0.9512
7.5871 9.7411 -2.0341 0.9512
4.7084 11.4142 -2.0341 0.9512
2.5849 12.0736 -2.0341 0.9512
10.8211 0.0804 -2.0340 0.9569
10.6313 2.0199 -2.0340 0.9569
10.0967 3.8940 -2.0340 0.9569
9.2346 5.6417 -2.0340 0.9569
8.0731 7.2065 -2.0341 0.9569
6.6497 8.5376 -2.0341 0.9569
5.8539 9.1016 -2.0341 0.9569
5.0106 9.5918 -2.0341 0.9569
3.2091 10.3349 -2.0340 0.9569
9.5767 0.9377 -2.0340 0.9614
9.2533 2.6401 -2.0340 0.9614
8.2114 5.0166 -2.0340 0.9614
6.5725 7.0284 -2.0340 0.9614
3.6694 8.8955 -2.0340 0.9614
2.8535 9.1898 -2.0340 0.9614
2.0145 9.4094 -2.0340 0.9614
8.6541 0.0644 -2.0340 0.9651
8.0748 3.1142 -2.0340 0.9651
7.7616 3.8286 -2.0340 0.9651
7.3854 4.5119 -2.0340 0.9651
6.9491 5.1586 -2.0340 0.9651
6.4564 5.7634 -2.0340 0.9651
5.9112 6.3212 -2.0340 0.9651
5.3180 6.8278 -2.0340 0.9651
4.6817 7.2790 -2.0340 0.9651
3.3002 8.0006 -2.0340 0.9651
2.5664 8.2653 -2.0340 0.9651
1.8118 8.4627 -2.0340 0.9651
1.0424 8.5915 -2.0340 0.9651
7.8183 0.7655 -2.0340 0.9681
7.7177 1.4663 -2.0340 0.9681
7.3296 2.8268 -2.0340 0.9681
7.0453 3.4753 -2.0340 0.9681
6.7037 4.0955 -2.0340 0.9681
5.8605 5.2314 -2.0340 0.9681
5.3657 5.7379 -2.0340 0.9681
4.8273 6.1977 -2.0340 0.9681
4.2496 6.6072 -2.0340 0.9681
3.6374 6.9630 -2.0340 0.9681
2.3296 7.5024 -2.0340 0.9681
1.6445 7.6817 -2.0340 0.9681
0.9462 7.7986 -2.0340 0.9681
7.1846 0.0534 -2.0340 0.9706
7.1507 0.7001 -2.0340 0.9706
6.9091 1.9712 -2.0340 0.9706
6.7036 2.5854 -2.0340 0.9706
6.4436 3.1785 -2.0340 0.9706
4.9075 5.2479 -2.0340 0.9706
4.4150 5.6684 -2.0340 0.9706
3.3268 6.3684 -2.0340 0.9706
2.7398 6.6420 -2.0340 0.9706
1.5041 7.0257 -2.0340 0.9706
0.8654 7.1325 -2.0340 0.9706
6.3591 1.8143 -2.0340 0.9727
5.9306 2.9254 -2.0340 0.9727
5.3098 3.9416 -2.0340 0.9727
4.0635 5.2171 -2.0340 0.9727
3.5772 5.5619 -2.0340 0.9727
3.0619 5.8613 -2.0340 0.9727
2.5217 6.1132 -2.0340 0.9727
1.9610 6.3154 -2.0340 0.9727
1.3844 6.4663 -2.0340 0.9727
6.1188 0.0455 -2.0340 0.9745
5.8842 1.6788 -2.0340 0.9745
5.7091 2.2018 -2.0340 0.9745
5.2217 3.1901 -2.0340 0.9745
4.9132 3.6472 -2.0340 0.9745
4.1794 4.4693 -2.0340 0.9745
3.7600 4.8275 -2.0340 0.9745
3.3101 5.1464 -2.0340 0.9745
2.8332 5.4236 -2.0340 0.9745
2.3334 5.6566 -2.0340 0.9745
1.8146 5.8437 -2.0340 0.9745
5.6875 0.0423 -2.0339 0.9761
5.6606 0.5542 -2.0340 0.9761
5.5877 1.0616 -2.0340 0.9761
5.3068 2.0466 -2.0340 0.9761
4.8537 2.9652 -2.0340 0.9761
4.2431 3.7876 -2.0340 0.9761
2.6335 5.0413 -2.0340 0.9761
2.1689 5.2580 -2.0340 0.9761
1.1907 5.5617 -2.0340 0.9761
0.6851 5.6463 -2.0340 0.9761
5.3074 0.0395 -2.0339 0.9775
4.5293 2.7670 -2.0340 0.9775
4.2618 3.1636 -2.0340 0.9775
3.2614 4.1874 -2.0340 0.9775
2.0239 4.9066 -2.0340 0.9775
1.5740 5.0689 -2.0340 0.9775
0.6393 5.2689 -2.0340 0.9775
4.9695 0.0369 -2.0339 0.9787
4.9460 0.4843 -2.0339 0.9787
4.8823 0.9276 -2.0340 0.9787
4.7789 1.3635 -2.0340 0.9787
4.6368 1.7882 -2.0340 0.9787
3.9904 2.9622 -2.0340 0.9787
3.3944 3.6299 -2.0340 0.9787
2.6884 4.1798 -2.0340 0.9787
2.3011 4.4049 -2.0340 0.9787
1.8951 4.5942 -2.0340 0.9787
1.4737 4.7461 -2.0340 0.9787
1.0404 4.8595 -2.0340 0.9787
0.5986 4.9335 -2.0340 0.9787
4.6669 0.0347 -2.0339 0.9798
4.6448 0.4548 -2.0339 0.9798
4.5850 0.8711 -2.0339 0.9798
4.4879 1.2804 -2.0340 0.9798
4.3544 1.6793 -2.0340 0.9798
3.4817 3.1079 -2.0340 0.9798
3.1877 3.4088 -2.0340 0.9798
2.8678 3.6820 -2.0340 0.9798
1.3839 4.4571 -2.0340 0.9798
0.9771 4.5636 -2.0340 0.9798
4.3732 0.4282 -2.0339 0.9808
4.3168 0.8202 -2.0339 0.9808
4.0997 1.5811 -2.0340 0.9808
3.9407 1.9439 -2.0340 0.9808
3.7497 2.2908 -2.0340 0.9808
2.7001 3.4666 -2.0340 0.9808
2.0346 3.8947 -2.0340 0.9808
1.3030 4.1964 -2.0340 0.9808
0.9199 4.2967 -2.0340 0.9808
0.5293 4.3621 -2.0340 0.9808
4.1267 0.4040 -2.0339 0.9817
4.0736 0.7740 -2.0339 0.9817
3.9874 1.1376 -2.0339 0.9817
3.8687 1.4920 -2.0340 0.9817
3.5384 2.1617 -2.0340 0.9817
3.0933 2.7613 -2.0340 0.9817
2.5480 3.2713 -2.0340 0.9817
2.2430 3.4874 -2.0340 0.9817
1.5812 3.8332 -2.0340 0.9817
1.2296 3.9600 -2.0340 0.9817
0.8681 4.0546 -2.0340 0.9817
0.4995 4.1163 -2.0340 0.9817
3.6580 1.4108 -2.0339 0.9825
3.5161 1.7344 -2.0340 0.9825
3.3457 2.0440 -2.0340 0.9825
2.1209 3.2975 -2.0340 0.9825
0.8207 3.8338 -2.0340 0.9825
0.4722 3.8921 -2.0339 0.9825
1.8508 0.0137 -1.0137 0.9916
1.8495 0.1811 -1.0178 0.9916
1.8550 0.3524 -1.0342 0.9914
3.4649 1.3363 -2.0339 0.9832
2.9818 2.2135 -2.0340 0.9832
2.7704 2.4730 -2.0340 0.9832
2.5365 2.7124 -2.0340 0.9832
2.2819 2.9298 -2.0340 0.9832
1.4161 3.4330 -2.0340 0.9832
0.7775 3.6313 -2.0339 0.9832
0.4473 3.6865 -2.0339 0.9832
1.7203 0.1684 -0.9980 0.9920
1.7137 0.3256 -1.0071 0.9920
3.0062 1.8366 -2.0339 0.9839
2.8287 2.0998 -2.0339 0.9839
1.9057 2.9629 -2.0340 0.9839
1.6312 3.1225 -2.0339 0.9839
0.7375 3.4448 -2.0339 0.9839
