ply
format ascii 1.0
element vertex 168
property float32 x
property float32 y
property float32 z
property float32 I
end_header
-11.6447 -8.0692 -1.0388 0.9448
-11.5274 -7.9879 -1.3464 0.9452
-15.5114 7.2498 -2.0338 0.9334
-16.0820 5.8756 -2.0338 0.9334
-16.8557 3.0049 -2.0338 0.9334
-17.1211 0.0437 -2.0338 0.9334
-17.0601 -1.4429 -2.0337 0.9334
-16.1108 -5.7930 -2.0337 0.9334
-12.1730 -12.0385 -2.0337 0.9334
-9.9069 -13.9629 -2.0337 0.9334
-13.0041 6.0779 -2.0339 0.9437
-13.8592 3.7367 -2.0338 0.9437
-14.3537 0.0366 -2.0338 0.9437
-14.3026 -1.2097 -2.0338 0.9437
-13.5068 -4.8567 -2.0337 0.9437
-8.3056 -11.7061 -2.0337 0.9437
-12.2962 1.1033 -2.0338 0.9512
-12.3455 0.0315 -2.0338 0.9512
-12.3015 -1.0405 -2.0338 0.9512
-12.1647 -2.1046 -2.0338 0.9512
-11.6171 -4.1772 -2.0338 0.9512
-11.2105 -5.1701 -2.0337 0.9512
-8.7777 -8.6807 -2.0337 0.9512
-7.9908 -9.4100 -2.0337 0.9512
-10.4475 2.8168 -2.0338 0.9569
-10.8204 0.0276 -2.0338 0.9569
-10.7818 -0.9120 -2.0338 0.9569
-10.1820 -3.6612 -2.0338 0.9569
-9.8256 -4.5314 -2.0338 0.9569
-7.6934 -7.6084 -2.0337 0.9569
-7.0037 -8.2476 -2.0337 0.9569
-8.7168 4.0741 -2.0339 0.9614
-9.5832 0.8599 -2.0338 0.9614
-9.4807 -1.6403 -2.0338 0.9614
-9.3024 -2.4572 -2.0338 0.9614
-8.3542 -4.7728 -2.0338 0.9614
-7.4026 -6.1460 -2.0338 0.9614
-6.8410 -6.7655 -2.0338 0.9614
-6.2278 -7.3339 -2.0338 0.9614
-4.8652 -8.3007 -2.0338 0.9614
-7.8399 3.6643 -2.0339 0.9651
-8.5270 -1.4753 -2.0338 0.9651
-8.3666 -2.2100 -2.0338 0.9651
-7.8582 -3.6240 -2.0338 0.9651
-7.5139 -4.2927 -2.0338 0.9651
-7.1128 -4.9288 -2.0338 0.9651
-6.6579 -5.5277 -2.0338 0.9651
-5.6013 -6.5962 -2.0338 0.9651
-7.1164 3.3261 -2.0339 0.9681
-7.3782 2.6956 -2.0339 0.9681
-7.5844 2.0449 -2.0339 0.9681
-7.8271 -0.6621 -2.0338 0.9681
-7.7401 -1.3391 -2.0338 0.9681
-7.5945 -2.0061 -2.0338 0.9681
-7.1330 -3.2896 -2.0338 0.9681
-6.4564 -4.4739 -2.0338 0.9681
-6.0435 -5.0176 -2.0338 0.9681
-4.5453 -6.4062 -2.0338 0.9681
-3.9720 -6.7767 -2.0338 0.9681
-6.5086 3.0421 -2.0339 0.9706
-6.7482 2.4654 -2.0339 0.9706
-6.9367 1.8702 -2.0339 0.9706
-7.0729 1.2609 -2.0339 0.9706
-7.1556 0.6421 -2.0338 0.9706
-7.1843 0.0183 -2.0338 0.9706
-6.9460 -1.8348 -2.0338 0.9706
-6.5239 -3.0087 -2.0338 0.9706
-5.9050 -4.0919 -2.0338 0.9706
-4.1572 -5.8592 -2.0338 0.9706
-3.6328 -6.1980 -2.0338 0.9706
-5.9905 2.7999 -2.0339 0.9727
-6.3845 1.7213 -2.0339 0.9727
-6.5098 1.1605 -2.0339 0.9727
-6.6124 0.0169 -2.0338 0.9727
-6.3931 -1.6887 -2.0338 0.9727
-6.0046 -2.7692 -2.0338 0.9727
-5.7414 -3.2801 -2.0338 0.9727
-5.0875 -4.2238 -2.0338 0.9727
-4.7015 -4.6496 -2.0338 0.9727
-3.8263 -5.3928 -2.0338 0.9727
-3.3436 -5.7047 -2.0338 0.9727
-5.7471 2.0997 -2.0339 0.9745
-6.0236 1.0738 -2.0339 0.9745
-6.0941 0.5468 -2.0339 0.9745
-5.7576 -2.0703 -2.0338 0.9745
-5.5561 -2.5624 -2.0338 0.9745
-4.3504 -4.3023 -2.0338 0.9745
-3.5405 -4.9900 -2.0338 0.9745
-3.0939 -5.2786 -2.0338 0.9745
-5.1525 2.4082 -2.0339 0.9761
-5.3421 1.9517 -2.0339 0.9761
-5.6646 0.5083 -2.0339 0.9761
-5.6873 0.0145 -2.0339 0.9761
-5.4987 -1.4525 -2.0338 0.9761
-5.1645 -2.3818 -2.0338 0.9761
-4.9382 -2.8212 -2.0338 0.9761
-4.3758 -3.6329 -2.0338 0.9761
-4.9851 1.8213 -2.0339 0.9775
-5.1244 1.3816 -2.0339 0.9775
-5.2249 0.9315 -2.0339 0.9775
-5.2861 0.4743 -2.0339 0.9775
-4.8194 -2.2226 -2.0338 0.9775
-4.6082 -2.6327 -2.0338 0.9775
-4.0834 -3.3902 -2.0338 0.9775
-3.7736 -3.7319 -2.0338 0.9775
-4.6676 1.7054 -2.0339 0.9788
-4.7981 1.2936 -2.0339 0.9788
-2.1192 0.3778 -0.8810 0.9907
-2.1178 -0.1792 -0.8699 0.9909
-4.5126 -2.0812 -2.0338 0.9788
-4.0845 -2.8304 -2.0338 0.9788
-3.5333 -3.4943 -2.0338 0.9788
-3.2166 -3.7879 -2.0338 0.9788
-2.8755 -4.0529 -2.0338 0.9788
-2.5128 -4.2872 -2.0338 0.9788
-1.9052 0.3396 -0.8434 0.9916
-1.9179 0.0049 -0.8359 0.9917
-4.2378 -1.9544 -2.0338 0.9798
-3.8358 -2.6580 -2.0338 0.9798
-3.3182 -3.2815 -2.0338 0.9798
-1.6048 0.1440 -0.7458 0.9929
-1.5671 0.0040 -0.7254 0.9931
-1.6098 -0.2785 -0.7562 0.9928
-1.5657 -0.4136 -0.7496 0.9929
-1.8128 -0.6519 -0.8917 0.9915
-3.8151 -2.1796 -2.0338 0.9808
-3.1241 -3.0896 -2.0338 0.9808
-2.8441 -3.3492 -2.0338 0.9808
-2.2218 -3.7907 -2.0338 0.9808
-1.3408 0.2390 -0.6681 0.9940
-1.3534 0.1214 -0.6665 0.9940
-1.3354 0.0034 -0.6551 0.9941
-1.3424 -0.2323 -0.6682 0.9939
-1.3109 -0.3463 -0.6651 0.9940
-1.2656 -0.4551 -0.6597 0.9940
-3.7652 -1.7364 -2.0338 0.9817
-3.6002 -2.0568 -2.0338 0.9817
-3.4080 -2.3616 -2.0338 0.9817
-2.9481 -2.9155 -2.0338 0.9817
-2.3993 -3.3815 -2.0338 0.9817
-1.1312 0.4132 -0.6248 0.9946
-1.1870 0.2116 -0.6255 0.9946
-1.2004 0.1077 -0.6253 0.9946
-1.1922 0.0030 -0.6185 0.9946
-1.2004 -0.1016 -0.6250 0.9946
-3.4041 -1.9448 -2.0338 0.9825
-3.0164 -2.5043 -2.0338 0.9825
-1.9824 -3.3823 -2.0338 0.9825
-1.0225 0.3735 -0.5962 0.9950
-1.0396 0.2803 -0.5897 0.9951
-1.0658 0.1900 -0.5929 0.9951
-1.0801 0.0969 -0.5939 0.9951
-1.0804 -0.0914 -0.5939 0.9951
-1.0670 -0.1846 -0.5931 0.9951
-1.0239 -0.3682 -0.5959 0.9951
-3.0522 -2.1151 -2.0339 0.9832
-2.8571 -2.3721 -2.0338 0.9832
-2.6403 -2.6112 -2.0338 0.9832
-2.4036 -2.8305 -2.0338 0.9832
-2.1488 -3.0286 -2.0338 0.9832
-1.8777 -3.2037 -2.0338 0.9832
-0.9596 0.2587 -0.5738 0.9954
-0.9787 0.1745 -0.5740 0.9954
-0.9890 0.0025 -0.5710 0.9954
-0.9602 -0.2537 -0.5734 0.9954
-0.9466 -0.3404 -0.5808 0.9954
-2.7104 -2.2503 -2.0339 0.9839
-2.5047 -2.4771 -2.0339 0.9839
