ply
format ascii 1.0
element vertex 197
property float32 x
property float32 y
property float32 z
property float32 I
end_header
2.5121 -6.1193 -0.6351 0.9738
-10.8261 -13.2628 -2.0337 0.9334
-9.5972 -14.1775 -2.0337 0.9334
-8.2914 -14.9786 -2.0337 0.9334
-6.9193 -15.6598 -2.0337 0.9334
-5.4917 -16.2158 -2.0337 0.9334
-4.0202 -16.6419 -2.0337 0.9334
-2.5165 -16.9347 -2.0337 0.9334
-0.9925 -17.0920 -2.0337 0.9334
0.5393 -17.1123 -2.0337 0.9334
2.0669 -16.9957 -2.0337 0.9334
3.5779 -16.7430 -2.0337 0.9334
1.9209 -6.2087 -0.7720 0.9742
3.1052 -5.9782 -0.8002 0.9732
9.2189 -14.4280 -2.0338 0.9334
-8.0460 -11.8860 -2.0337 0.9437
-4.6041 -13.5948 -2.0337 0.9437
-2.1097 -14.1975 -2.0337 0.9437
-0.8321 -14.3293 -2.0337 0.9437
0.4521 -14.3464 -2.0337 0.9437
1.7328 -14.2487 -2.0338 0.9437
2.4373 -5.9370 -0.9093 0.9744
9.7593 -10.5265 -2.0339 0.9437
-6.9203 -10.2231 -2.0337 0.9512
-5.9787 -10.8007 -2.0337 0.9512
-4.9893 -11.2920 -2.0337 0.9512
-3.9599 -11.6929 -2.0337 0.9512
-2.8989 -12.0001 -2.0337 0.9512
-0.7157 -12.3246 -2.0338 0.9512
2.5799 -12.0729 -2.0338 0.9512
1.8653 -6.0291 -1.0397 0.9747
6.6474 -10.4034 -2.0338 0.9512
8.3938 -9.0536 -2.0339 0.9512
9.1696 -8.2671 -2.0339 0.9512
-5.2402 -9.4666 -2.0337 0.9569
-4.3730 -9.8971 -2.0338 0.9569
-3.4707 -10.2484 -2.0338 0.9569
-2.5407 -10.5176 -2.0338 0.9569
-1.5904 -10.7027 -2.0338 0.9569
-0.6273 -10.8020 -2.0338 0.9569
0.3409 -10.8149 -2.0338 0.9569
2.3873 -5.8152 -1.1816 0.9747
3.0375 -5.8480 -1.2386 0.9735
6.6180 -8.5610 -2.0339 0.9569
7.3568 -7.9351 -2.0339 0.9569
-5.3935 -7.9675 -2.0338 0.9614
-4.6596 -8.4178 -2.0338 0.9614
-3.8885 -8.8006 -2.0338 0.9614
-3.0863 -9.1130 -2.0338 0.9614
-2.2593 -9.3524 -2.0338 0.9614
-1.4142 -9.5170 -2.0338 0.9614
-0.5578 -9.6053 -2.0338 0.9614
0.3031 -9.6168 -2.0338 0.9614
1.1616 -9.5512 -2.0338 0.9614
1.3582 -6.3558 -1.3738 0.9738
1.8545 -5.9943 -1.3263 0.9747
2.3766 -5.7892 -1.3228 0.9747
6.5418 -7.0560 -2.0339 0.9614
7.1463 -6.4430 -2.0339 0.9614
-5.4721 -6.7037 -2.0338 0.9651
-4.8509 -7.1660 -2.0338 0.9651
-3.4973 -7.9153 -2.0338 0.9651
-2.0320 -8.4116 -2.0338 0.9651
-1.2720 -8.5596 -2.0338 0.9651
1.0447 -8.5904 -2.0338 0.9651
1.8132 -5.8607 -1.4418 0.9751
2.3266 -5.6671 -1.4398 0.9751
2.9623 -5.7031 -1.5104 0.9739
-4.9671 -6.0851 -2.0338 0.9681
-3.8042 -6.8723 -2.0338 0.9681
-3.1746 -7.1848 -2.0338 0.9681
-2.5196 -7.4399 -2.0338 0.9681
-1.8445 -7.6354 -2.0338 0.9681
0.2475 -7.8512 -2.0338 0.9681
4.8043 -6.2148 -2.0339 0.9681
-4.5430 -5.5655 -2.0338 0.9706
-3.4793 -6.2855 -2.0338 0.9706
-2.9036 -6.5713 -2.0338 0.9706
-2.3045 -6.8046 -2.0338 0.9706
-1.6870 -6.9834 -2.0338 0.9706
-0.4165 -7.1722 -2.0338 0.9706
0.8673 -7.1318 -2.0338 0.9706
3.0903 -5.9495 -1.8979 0.9725
3.8684 -6.0541 -2.0339 0.9706
4.3941 -5.6841 -2.0339 0.9706
4.8846 -5.2686 -2.0339 0.9706
5.3360 -4.8109 -2.0339 0.9706
-4.1814 -5.1224 -2.0338 0.9727
-3.7067 -5.4757 -2.0338 0.9727
-3.2024 -5.7851 -2.0338 0.9727
-2.1210 -6.2629 -2.0338 0.9727
-1.5527 -6.4275 -2.0338 0.9727
-0.9719 -6.5405 -2.0338 0.9727
-0.3834 -6.6013 -2.0338 0.9727
0.2082 -6.6091 -2.0338 0.9727
1.3818 -6.4664 -2.0338 0.9727
2.5112 -6.1171 -2.0339 0.9727
3.0480 -5.8681 -2.0339 0.9727
3.5604 -5.5722 -2.0339 0.9727
4.0442 -5.2316 -2.0339 0.9727
-3.8691 -4.7399 -2.0338 0.9745
-2.4728 -5.5965 -2.0338 0.9745
-1.4367 -5.9475 -2.0338 0.9745
0.1928 -6.1155 -2.0338 0.9745
0.7387 -6.0738 -2.0338 0.9745
1.2786 -5.9835 -2.0338 0.9745
1.8084 -5.8452 -2.0339 0.9745
2.3237 -5.6602 -2.0339 0.9745
2.8204 -5.4298 -2.0339 0.9745
3.7422 -4.8409 -2.0339 0.9745
4.5444 -4.0972 -2.0339 0.9745
-3.1882 -4.7097 -2.0338 0.9761
-1.8243 -5.3868 -2.0338 0.9761
-1.3355 -5.5283 -2.0338 0.9761
-0.8359 -5.6256 -2.0338 0.9761
-0.3297 -5.6778 -2.0338 0.9761
1.1886 -5.5618 -2.0338 0.9761
2.6216 -5.0472 -2.0339 0.9761
3.4784 -4.4997 -2.0339 0.9761
-2.5703 -4.6433 -2.0338 0.9775
-1.2462 -5.1589 -2.0338 0.9775
0.6407 -5.2685 -2.0338 0.9775
2.0156 -4.9097 -2.0339 0.9775
3.6084 -3.8920 -2.0339 0.9775
3.9419 -3.5539 -2.0339 0.9775
-3.1424 -3.8497 -2.0338 0.9788
-1.1669 -4.8304 -2.0338 0.9788
1.4688 -4.7474 -2.0339 0.9788
2.2907 -4.4100 -2.0339 0.9788
3.0394 -3.9317 -2.0339 0.9788
3.3786 -3.6443 -2.0339 0.9788
-2.9510 -3.6152 -2.0338 0.9798
-2.6160 -3.8645 -2.0338 0.9798
-1.4970 -4.4201 -2.0338 0.9798
-0.6859 -4.6161 -2.0338 0.9798
0.1470 -4.6645 -2.0338 0.9798
0.9752 -4.5637 -2.0339 0.9798
1.3793 -4.4583 -2.0339 0.9798
2.1512 -4.1415 -2.0339 0.9798
3.4661 -3.1250 -2.0339 0.9798
-2.7785 -3.4038 -2.0338 0.9808
-1.7758 -4.0190 -2.0338 0.9808
-1.0318 -4.2710 -2.0338 0.9808
-0.2548 -4.3865 -2.0338 0.9808
0.1384 -4.3917 -2.0339 0.9808
0.5304 -4.3618 -2.0339 0.9808
1.2987 -4.1976 -2.0339 0.9808
1.6687 -4.0647 -2.0339 0.9808
2.0254 -3.8993 -2.0339 0.9808
3.2634 -2.9423 -2.0339 0.9808
-2.3243 -3.4336 -2.0338 0.9817
-2.0080 -3.6276 -2.0338 0.9817
-1.3300 -3.9272 -2.0338 0.9817
-0.9736 -4.0304 -2.0338 0.9817
-0.2404 -4.1393 -2.0339 0.9817
0.1306 -4.1442 -2.0339 0.9817
0.5005 -4.1160 -2.0339 0.9817
0.8665 -4.0548 -2.0339 0.9817
1.2255 -3.9611 -2.0339 0.9817
1.9112 -3.6796 -2.0339 0.9817
2.8190 -3.0407 -2.0339 0.9817
-1.8987 -3.4300 -2.0338 0.9825
-1.5845 -3.5860 -2.0338 0.9825
-0.9206 -3.8109 -2.0338 0.9825
-0.5763 -3.8779 -2.0339 0.9825
-0.2273 -3.9139 -2.0339 0.9825
0.4733 -3.8918 -2.0339 0.9825
0.8193 -3.8339 -2.0339 0.9825
1.1587 -3.7454 -2.0339 0.9825
1.4889 -3.6268 -2.0339 0.9825
2.1109 -3.3037 -2.0339 0.9825
2.3978 -3.1018 -2.0339 0.9825
2.6655 -2.8750 -2.0339 0.9825
2.9118 -2.6252 -2.0339 0.9825
-2.0816 -3.0751 -2.0338 0.9832
-1.5008 -3.3966 -2.0338 0.9832
-1.1912 -3.5172 -2.0339 0.9832
-0.8720 -3.6096 -2.0339 0.9832
-0.5459 -3.6731 -2.0339 0.9832
-0.2153 -3.7072 -2.0339 0.9832
0.1170 -3.7116 -2.0339 0.9832
0.4483 -3.6863 -2.0339 0.9832
1.0975 -3.5476 -2.0339 0.9832
1.7118 -3.2954 -2.0339 0.9832
1.9995 -3.1293 -2.0339 0.9832
2.5248 -2.7232 -2.0339 0.9832
2.7581 -2.4866 -2.0339 0.9832
-2.2276 -2.7290 -2.0339 0.9839
-1.4237 -3.2222 -2.0339 0.9839
-1.1300 -3.3366 -2.0339 0.9839
-0.8272 -3.4243 -2.0339 0.9839
-0.5178 -3.4845 -2.0339 0.9839
0.4253 -3.4970 -2.0339 0.9839
0.7362 -3.4450 -2.0339 0.9839
1.0412 -3.3654 -2.0339 0.9839
2.1546 -2.7871 -2.0339 0.9839
2.6165 -2.3589 -2.0339 0.9839
