ply
format ascii 1.0
element vertex 203
property float32 x
property float32 y
property float32 z
property float32 I
end_header
-11.9333 12.3172 2.6273 0.9330
-11.6495 12.0243 2.1802 0.9347
-11.4368 14.1235 1.9515 0.9295
-11.9343 12.3181 1.8417 0.9333
-11.7526 14.5136 1.5809 0.9278
-11.8928 12.2754 1.4469 0.9337
-12.0708 12.4590 1.0757 0.9328
-4.6439 19.2991 0.7827 0.9236
-1.8264 7.5900 -0.5724 0.9692
-16.8675 6.2854 -1.3198 0.9303
-17.5292 4.8096 -1.3328 0.9297
-1.8041 7.4977 -0.7404 0.9695
0.5236 17.1160 -2.0341 0.9333
-0.9982 17.0948 -2.0341 0.9333
-1.1316 7.6303 -0.9163 0.9694
-8.2521 15.0035 -2.0340 0.9334
-9.5516 14.2114 -2.0340 0.9334
-12.9591 11.1911 -2.0339 0.9334
-14.7340 8.7223 -2.0339 0.9334
-17.0520 1.5384 -2.0338 0.9334
-1.0981 7.4043 -1.0606 0.9702
-1.7316 7.1963 -1.0487 0.9705
-4.5843 13.6037 -2.0340 0.9437
-5.7740 13.1429 -2.0340 0.9437
-8.0076 11.9142 -2.0340 0.9437
-10.8644 9.3821 -2.0339 0.9437
-11.6544 8.3803 -2.0339 0.9437
-12.3523 7.3124 -2.0339 0.9437
-12.9527 6.1867 -2.0339 0.9437
-14.1250 2.5540 -2.0338 0.9437
-14.2958 1.2897 -2.0338 0.9437
0.3776 12.3412 -2.0340 0.9512
-0.4561 7.8095 -1.2887 0.9688
-1.0737 7.2396 -1.2057 0.9708
-4.9661 11.3038 -2.0340 0.9512
-6.8871 10.2471 -2.0340 0.9512
-8.5909 8.8672 -2.0339 0.9512
-10.6240 6.2893 -2.0339 0.9512
-11.1404 5.3211 -2.0339 0.9512
-11.9058 3.2667 -2.0338 0.9512
-12.1487 2.1967 -2.0338 0.9512
-12.2957 1.1093 -2.0338 0.9512
0.3309 10.8165 -2.0340 0.9569
-0.4408 7.5489 -1.4213 0.9697
-1.0629 7.1667 -1.3618 0.9709
-1.7184 7.1414 -1.3806 0.9705
-2.4246 7.1950 -1.4271 0.9696
-8.1898 7.0724 -2.0339 0.9569
-10.1395 3.7783 -2.0339 0.9569
-10.7766 0.9723 -2.0338 0.9569
0.2942 9.6180 -2.0340 0.9614
-0.4440 7.6034 -1.6099 0.9693
-1.0743 7.2437 -1.5479 0.9705
-1.7241 7.1650 -1.5578 0.9703
-2.4303 7.2116 -1.6086 0.9694
-3.8704 8.8096 -2.0340 0.9614
-4.6372 8.4312 -2.0340 0.9614
-7.8120 5.6174 -2.0339 0.9614
-8.2799 4.9015 -2.0339 0.9614
-8.6823 4.1470 -2.0339 0.9614
-9.0162 3.3597 -2.0339 0.9614
0.2646 8.6504 -2.0340 0.9651
-0.4421 7.5724 -1.7827 0.9693
-1.0702 7.2160 -1.7145 0.9705
-3.4810 7.9234 -2.0340 0.9651
-4.8275 7.1826 -2.0339 0.9651
-6.5498 5.6562 -2.0339 0.9651
-7.0261 5.0523 -2.0339 0.9651
-7.4469 4.4085 -2.0339 0.9651
-7.8089 3.7298 -2.0339 0.9651
-8.1092 3.0217 -2.0339 0.9651
-8.3454 2.2898 -2.0339 0.9651
-8.5157 1.5397 -2.0338 0.9651
0.2402 7.8521 -2.0340 0.9681
-0.4579 7.8423 -2.0340 0.9681
-1.0900 7.3502 -1.9239 0.9698
-1.8379 7.6376 -2.0340 0.9681
-3.1597 7.1921 -2.0340 0.9681
-3.7858 6.8831 -2.0339 0.9681
-5.9454 5.1342 -2.0339 0.9681
-6.3777 4.5860 -2.0339 0.9681
-7.3608 2.7429 -2.0339 0.9681
-7.8234 0.7058 -2.0338 0.9681
0.2196 7.1815 -2.0340 0.9706
-0.4189 7.1726 -2.0340 0.9706
-1.0540 7.1071 -2.0340 0.9706
-1.6809 6.9854 -2.0340 0.9706
-2.2945 6.8085 -2.0340 0.9706
-4.0078 5.9630 -2.0339 0.9706
-4.9993 5.1601 -2.0339 0.9706
-5.4376 4.6958 -2.0339 0.9706
-5.8331 4.1944 -2.0339 0.9706
-6.9283 1.9010 -2.0339 0.9706
0.2022 6.6098 -2.0340 0.9727
-0.3855 6.6016 -2.0340 0.9727
-0.9701 6.5413 -2.0340 0.9727
-1.5471 6.4293 -2.0340 0.9727
-2.1118 6.2665 -2.0340 0.9727
-2.6598 6.0542 -2.0339 0.9727
-3.1868 5.7942 -2.0339 0.9727
-4.1614 5.1391 -2.0339 0.9727
-4.6013 4.7493 -2.0339 0.9727
-5.0048 4.3219 -2.0339 0.9727
-5.6902 3.3686 -2.0339 0.9727
-6.3768 1.7497 -2.0339 0.9727
-6.5070 1.1765 -2.0339 0.9727
-6.5857 0.5942 -2.0339 0.9727
-0.8977 6.0527 -2.0340 0.9745
-1.9541 5.7984 -2.0339 0.9745
-2.9488 5.3614 -2.0339 0.9745
-3.4132 5.0784 -2.0339 0.9745
-3.8506 4.7552 -2.0339 0.9745
-4.6310 3.9992 -2.0339 0.9745
-4.9677 3.5721 -2.0339 0.9745
0.1739 5.6850 -2.0340 0.9761
-1.3306 5.5298 -2.0340 0.9761
-3.1727 4.7205 -2.0339 0.9761
-4.6177 3.3204 -2.0339 0.9761
-4.8942 2.8973 -2.0339 0.9761
-5.1321 2.4513 -2.0339 0.9761
-5.3295 1.9859 -2.0339 0.9761
-5.4847 1.5049 -2.0339 0.9761
-5.5966 1.0119 -2.0339 0.9761
-5.6644 0.5110 -2.0339 0.9761
-0.3093 5.2985 -2.0340 0.9775
-1.6950 5.0296 -2.0339 0.9775
-2.1348 4.8592 -2.0339 0.9775
-2.9606 4.4050 -2.0339 0.9775
-3.6930 3.8118 -2.0339 0.9775
-4.0169 3.4689 -2.0339 0.9775
-4.3090 3.0985 -2.0339 0.9775
-4.7891 2.2875 -2.0339 0.9775
-5.2226 0.9443 -2.0339 0.9775
-5.2858 0.4769 -2.0339 0.9775
0.1520 4.9673 -2.0340 0.9788
-0.2897 4.9612 -2.0340 0.9787
-0.7290 4.9159 -2.0339 0.9788
-1.1626 4.8317 -2.0339 0.9788
-2.7721 4.1246 -2.0339 0.9788
-3.7612 3.2480 -2.0339 0.9788
-4.4842 2.1418 -2.0339 0.9788
-4.6567 1.7352 -2.0339 0.9788
-4.7923 1.3149 -2.0339 0.9788
-2.1196 0.3832 -0.8816 0.9907
-2.1166 0.1909 -0.8698 0.9909
-1.4904 4.4226 -2.0339 0.9798
-2.2491 4.0892 -2.0339 0.9798
-2.6033 3.8734 -2.0339 0.9798
-2.9369 3.6269 -2.0339 0.9798
-3.2473 3.3518 -2.0339 0.9798
-1.9127 0.1725 -0.8370 0.9917
0.1344 4.3920 -2.0340 0.9808
-0.2561 4.3866 -2.0339 0.9808
-0.6446 4.3465 -2.0339 0.9808
-1.4032 4.1639 -2.0339 0.9808
-2.1176 3.8501 -2.0339 0.9808
-3.0575 3.1558 -2.0339 0.9808
-3.3256 2.8719 -2.0339 0.9808
-3.5674 2.5653 -2.0339 0.9808
-3.9649 1.8938 -2.0339 0.9808
-1.6050 0.1448 -0.7459 0.9929
0.1268 4.1446 -2.0339 0.9817
-0.2417 4.1394 -2.0339 0.9817
-0.6083 4.1016 -2.0339 0.9817
-0.9700 4.0314 -2.0339 0.9817
-1.9983 3.6331 -2.0339 0.9817
-2.3129 3.4413 -2.0339 0.9817
-2.8852 2.9780 -2.0339 0.9817
-3.3664 2.4207 -2.0339 0.9817
-1.2602 0.4696 -0.6597 0.9940
-1.3070 0.3586 -0.6648 0.9940
-1.3400 0.2423 -0.6680 0.9940
0.1199 3.9188 -2.0339 0.9825
-0.2286 3.9139 -2.0339 0.9825
-0.5751 3.8782 -2.0339 0.9825
-1.2520 3.7153 -2.0339 0.9825
-1.5770 3.5895 -2.0339 0.9825
-1.8895 3.4353 -2.0339 0.9825
-2.4672 3.0469 -2.0339 0.9825
-2.9672 2.5624 -2.0339 0.9825
-3.1830 2.2888 -2.0339 0.9825
-3.5377 1.6897 -2.0339 0.9825
-1.1584 0.3178 -0.6232 0.9946
-1.1863 0.2145 -0.6254 0.9946
-1.2004 0.1083 -0.6253 0.9946
0.1136 3.7118 -2.0339 0.9832
-0.2165 3.7072 -2.0339 0.9832
-0.8688 3.6105 -2.0339 0.9832
-1.1859 3.5191 -2.0339 0.9832
-1.7896 3.2538 -2.0339 0.9832
-2.8106 2.4271 -2.0339 0.9832
-3.0150 2.1680 -2.0339 0.9832
-3.1955 1.8917 -2.0339 0.9832
-0.9894 0.4726 -0.6005 0.9950
-1.0206 0.3803 -0.5966 0.9950
-1.0800 0.0974 -0.5939 0.9951
0.1077 3.5213 -2.0339 0.9839
-0.5168 3.4847 -2.0339 0.9839
-1.4170 3.2253 -2.0339 0.9839
-1.9651 2.9238 -2.0339 0.9839
-2.4513 2.5301 -2.0339 0.9839
-2.6662 2.3025 -2.0339 0.9839
-0.9440 0.3517 -0.5817 0.9954
