ply
format ascii 1.0
element vertex 190
property float32 x
property float32 y
property float32 z
property float32 I
end_header
3.4461 18.6219 3.3393 0.9260
1.7069 18.6760 3.3068 0.9267
3.4495 18.6407 2.9041 0.9262
1.6212 17.7383 2.7287 0.9305
3.3949 18.3457 2.4296 0.9275
1.6515 18.0704 1.9485 0.9296
-11.4037 12.6040 1.8252 0.9339
3.2971 17.8173 1.5339 0.9298
1.6632 18.1980 1.5469 0.9293
-11.5283 12.7418 1.4546 0.9333
3.2732 17.6880 1.1155 0.9304
1.6505 18.0604 1.1246 0.9299
3.5391 19.1248 0.7669 0.9251
1.7363 18.9980 0.7522 0.9265
-12.4064 13.7123 0.7292 0.9286
-2.1037 7.4212 -0.7405 0.9695
10.2568 13.7129 -2.0341 0.9333
6.1392 15.9860 -2.0341 0.9333
3.1160 16.8383 -2.0341 0.9333
-2.0949 7.3900 -0.9124 0.9695
-8.9756 14.5821 -2.0340 0.9334
-10.2750 13.6974 -2.0340 0.9334
8.5987 11.4961 -2.0341 0.9437
7.5081 12.2363 -2.0341 0.9437
5.1468 13.4017 -2.0341 0.9437
2.6123 14.1163 -2.0341 0.9437
-0.0101 14.3558 -2.0341 0.9437
-0.6961 7.5003 -1.0673 0.9700
-5.1653 13.3939 -2.0340 0.9437
6.4575 10.5240 -2.0341 0.9512
5.4651 11.0719 -2.0341 0.9512
3.3508 11.8838 -2.0341 0.9512
-0.0086 12.3470 -2.0340 0.9512
-0.6842 7.3722 -1.2197 0.9704
-1.3652 7.3199 -1.2267 0.9703
-2.0557 7.2517 -1.2417 0.9699
-5.4803 11.0637 -2.0340 0.9512
-7.4088 9.8764 -2.0339 0.9512
-8.2834 9.1553 -2.0339 0.9512
5.6596 9.2238 -2.0341 0.9569
3.8796 10.1023 -2.0340 0.9569
2.9368 10.4155 -2.0340 0.9569
0.9850 10.7766 -2.0340 0.9569
-0.0076 10.8215 -2.0340 0.9569
-0.7081 7.6294 -1.4402 0.9693
-1.3548 7.2642 -1.3889 0.9704
-6.4935 8.6562 -2.0339 0.9569
4.2591 8.6287 -2.0340 0.9614
-0.0068 9.6225 -2.0340 0.9614
-0.6779 7.3044 -1.5506 0.9705
-2.0281 7.1543 -1.5719 0.9701
-3.4623 8.9779 -2.0340 0.9614
-4.2711 8.6224 -2.0340 0.9614
-5.0438 8.1943 -2.0339 0.9614
5.1837 6.9304 -2.0340 0.9651
4.5262 7.3766 -2.0340 0.9651
3.8306 7.7606 -2.0340 0.9651
3.1027 8.0792 -2.0340 0.9651
2.3487 8.3298 -2.0340 0.9651
1.5748 8.5100 -2.0340 0.9651
0.7877 8.6186 -2.0340 0.9651
-0.0061 8.6544 -2.0340 0.9651
-0.6848 7.3783 -1.7415 0.9700
-3.1139 8.0747 -2.0340 0.9651
-3.8414 7.7550 -2.0340 0.9651
-4.5364 7.3700 -2.0339 0.9651
-5.1932 6.9228 -2.0339 0.9651
2.8164 7.3336 -2.0340 0.9681
2.1319 7.5610 -2.0340 0.9681
1.4295 7.7246 -2.0340 0.9681
0.7150 7.8231 -2.0340 0.9681
-0.0055 7.8557 -2.0340 0.9681
-0.7260 7.8221 -2.0340 0.9681
-1.4403 7.7225 -2.0340 0.9681
-2.8266 7.3295 -2.0340 0.9681
-3.4868 7.0393 -2.0339 0.9681
-4.7139 6.2839 -2.0339 0.9681
4.3034 5.7535 -2.0340 0.9706
3.7576 6.1240 -2.0340 0.9706
3.1802 6.4428 -2.0340 0.9706
2.5759 6.7073 -2.0340 0.9706
1.9498 6.9152 -2.0340 0.9706
0.6539 7.1550 -2.0340 0.9706
-0.0050 7.1848 -2.0340 0.9706
-0.6639 7.1541 -2.0340 0.9706
-1.9595 6.9124 -2.0340 0.9706
-2.5852 6.7035 -2.0340 0.9706
-3.1891 6.4381 -2.0339 0.9706
-4.3114 5.7473 -2.0339 0.9706
4.4298 4.9099 -2.0340 0.9727
3.9609 5.2955 -2.0340 0.9727
3.4585 5.6364 -2.0340 0.9727
2.9270 5.9299 -2.0340 0.9727
2.3708 6.1733 -2.0340 0.9727
-0.0046 6.6129 -2.0340 0.9727
-2.9352 5.9256 -2.0339 0.9727
-3.4663 5.6314 -2.0339 0.9727
3.6650 4.9000 -2.0340 0.9745
3.2002 5.2154 -2.0340 0.9745
2.1937 5.7122 -2.0340 0.9745
1.6606 5.8893 -2.0340 0.9745
-0.5654 6.0927 -2.0340 0.9745
-1.1219 6.0152 -2.0340 0.9745
-2.7160 5.4831 -2.0339 0.9745
-3.2074 5.2108 -2.0339 0.9745
-3.6718 4.8947 -2.0339 0.9745
2.9746 4.8479 -2.0340 0.9761
1.0350 5.5928 -2.0340 0.9761
-0.0040 5.6877 -2.0340 0.9761
-0.5256 5.6633 -2.0340 0.9761
-1.5512 5.4720 -2.0339 0.9761
-2.5246 5.0966 -2.0339 0.9761
3.5554 3.9408 -2.0340 0.9775
1.4404 5.1084 -2.0340 0.9775
0.9658 5.2190 -2.0340 0.9775
-0.0037 5.3076 -2.0340 0.9775
-1.9097 4.9520 -2.0339 0.9775
-2.7821 4.5199 -2.0339 0.9775
-3.5608 3.9356 -2.0339 0.9775
2.5991 4.2359 -2.0340 0.9787
1.7817 4.6393 -2.0340 0.9787
1.3487 4.7832 -2.0340 0.9787
0.9043 4.8867 -2.0340 0.9787
-0.0035 4.9696 -2.0340 0.9788
-0.4592 4.9484 -2.0340 0.9787
-0.9111 4.8854 -2.0339 0.9788
-1.3554 4.7812 -2.0339 0.9788
-2.6050 4.2321 -2.0339 0.9788
-3.3341 3.6851 -2.0339 0.9788
3.1263 3.4651 -2.0340 0.9798
2.4408 3.9779 -2.0340 0.9798
0.8493 4.5891 -2.0340 0.9798
-0.0032 4.6670 -2.0340 0.9798
-0.4313 4.6470 -2.0339 0.9798
-0.8557 4.5878 -2.0339 0.9798
-1.2728 4.4900 -2.0339 0.9798
-1.6793 4.3543 -2.0339 0.9798
-2.0715 4.1820 -2.0339 0.9798
-2.4464 3.9744 -2.0339 0.9798
-2.8005 3.7332 -2.0339 0.9798
-3.1311 3.4607 -2.0339 0.9798
1.5754 4.1020 -2.0340 0.9808
1.1925 4.2292 -2.0340 0.9808
0.3999 4.3758 -2.0340 0.9808
-0.4060 4.3752 -2.0339 0.9808
-0.8056 4.3196 -2.0339 0.9808
-1.1984 4.2275 -2.0339 0.9808
-1.5810 4.0997 -2.0339 0.9808
-1.9504 3.9374 -2.0339 0.9808
-2.3033 3.7419 -2.0339 0.9808
-2.9480 3.2583 -2.0339 0.9808
2.7777 3.0787 -2.0340 0.9817
2.4836 3.3204 -2.0340 0.9817
1.8353 3.7182 -2.0340 0.9817
1.4865 3.8708 -2.0340 0.9817
0.3774 4.1293 -2.0339 0.9817
-0.3832 4.1287 -2.0339 0.9817
-1.1309 3.9892 -2.0339 0.9817
-1.4920 3.8687 -2.0339 0.9817
-1.8405 3.7156 -2.0339 0.9817
-2.4882 3.3169 -2.0339 0.9817
-2.7819 3.0747 -2.0339 0.9817
1.7354 3.5157 -2.0340 0.9825
1.4056 3.6600 -2.0340 0.9825
1.0641 3.7735 -2.0340 0.9825
0.7134 3.8552 -2.0339 0.9825
0.3568 3.9044 -2.0339 0.9825
-0.0027 3.9206 -2.0339 0.9825
-0.3623 3.9038 -2.0339 0.9825
-0.7188 3.8541 -2.0339 0.9825
-2.3526 3.1362 -2.0339 0.9825
-2.6304 2.9072 -2.0339 0.9825
2.4876 2.7572 -2.0340 0.9832
2.2243 2.9738 -2.0340 0.9832
1.9422 3.1652 -2.0340 0.9832
0.6757 3.6516 -2.0339 0.9832
-0.0026 3.7136 -2.0339 0.9832
-0.6809 3.6506 -2.0339 0.9832
-1.0128 3.5728 -2.0339 0.9832
-1.9466 3.1624 -2.0339 0.9832
-2.2284 2.9706 -2.0339 0.9832
1.8425 3.0027 -2.0339 0.9839
0.9561 3.3907 -2.0339 0.9839
0.6411 3.4640 -2.0339 0.9839
-0.3255 3.5078 -2.0339 0.9839
-0.6459 3.4631 -2.0339 0.9839
-0.9608 3.3893 -2.0339 0.9839
-1.2676 3.2869 -2.0339 0.9839
-1.5637 3.1568 -2.0339 0.9839
-1.8466 3.0001 -2.0339 0.9839
