ply
format ascii 1.0
element vertex 183
property float32 x
property float32 y
property float32 z
property float32 I
end_header
-12.2051 -7.8250 -1.0630 0.9435
-12.0027 -7.6953 -1.3688 0.9443
-17.1127 -0.5377 -2.0337 0.9334
-16.9954 -2.0699 -2.0337 0.9334
-16.7412 -3.5854 -2.0337 0.9334
-12.2340 -7.8436 -1.7263 0.9431
-11.4341 -12.7424 -2.0337 0.9334
-10.2455 -13.7163 -2.0337 0.9334
-6.2261 -15.9482 -2.0337 0.9334
-4.7711 -16.4423 -2.0337 0.9334
-14.1967 2.1188 -2.0338 0.9437
-14.3294 0.8373 -2.0338 0.9437
-14.0353 -3.0059 -2.0337 0.9437
-13.7092 -4.2522 -2.0337 0.9437
-13.2727 -5.4643 -2.0337 0.9437
-12.7292 -6.6323 -2.0337 0.9437
-12.0832 -7.7469 -2.0337 0.9437
-7.5239 -12.2232 -2.0337 0.9437
-6.3976 -12.8486 -2.0337 0.9437
-5.2198 -13.3705 -2.0337 0.9437
-12.2104 1.8224 -2.0338 0.9512
-12.3246 0.7202 -2.0338 0.9512
-12.3394 -0.3878 -2.0338 0.9512
-12.0716 -2.5854 -2.0338 0.9512
-11.7912 -3.6573 -2.0338 0.9512
-11.4157 -4.6998 -2.0338 0.9512
-10.9483 -5.7044 -2.0337 0.9512
-10.3927 -6.6630 -2.0337 0.9512
-9.0355 -8.4120 -2.0337 0.9512
-6.4712 -10.5131 -2.0337 0.9512
-5.5025 -11.0510 -2.0337 0.9512
-4.4895 -11.4999 -2.0337 0.9512
-3.4403 -11.8562 -2.0337 0.9512
-10.7020 1.5972 -2.0338 0.9569
-10.0055 -4.1192 -2.0338 0.9569
-9.5958 -4.9997 -2.0338 0.9569
-8.5485 -6.6331 -2.0338 0.9569
-7.9193 -7.3729 -2.0338 0.9569
-7.2263 -8.0532 -2.0337 0.9569
-3.9350 -10.0793 -2.0338 0.9569
-9.5510 -1.1632 -2.0338 0.9614
-9.4082 -2.0149 -2.0338 0.9614
-8.5327 -4.4458 -2.0338 0.9614
-7.6014 -5.8983 -2.0338 0.9614
-6.4258 -7.1611 -2.0338 0.9614
-5.0435 -8.1936 -2.0338 0.9614
-8.5590 1.2774 -2.0338 0.9651
-8.6495 -0.2718 -2.0338 0.9651
-8.4618 -1.8123 -2.0338 0.9651
-7.6743 -3.9986 -2.0338 0.9651
-7.2849 -4.6706 -2.0338 0.9651
-6.8368 -5.3049 -2.0338 0.9651
-5.7794 -6.4407 -2.0338 0.9651
-3.1470 -8.0611 -2.0338 0.9651
-2.4116 -8.3108 -2.0338 0.9651
-7.7691 1.1595 -2.0338 0.9681
-7.7975 -0.9497 -2.0338 0.9681
-7.6809 -1.6450 -2.0338 0.9681
-6.9662 -3.6296 -2.0338 0.9681
-4.1175 -6.6893 -2.0338 0.9681
-3.5012 -7.0315 -2.0338 0.9681
-2.8566 -7.3172 -2.0338 0.9681
-2.1890 -7.5438 -2.0338 0.9681
-7.1057 1.0605 -2.0339 0.9706
-7.1721 0.4191 -2.0338 0.9706
-7.1316 -0.8686 -2.0338 0.9706
-7.0250 -1.5045 -2.0338 0.9706
-6.8618 -2.1284 -2.0338 0.9706
-6.6433 -2.7350 -2.0338 0.9706
-6.0480 -3.8776 -2.0338 0.9706
-5.6759 -4.4042 -2.0338 0.9706
-3.2022 -6.4311 -2.0338 0.9706
-2.6127 -6.6923 -2.0338 0.9706
-6.6012 0.3857 -2.0338 0.9727
-6.4657 -1.3848 -2.0338 0.9727
-6.3155 -1.9589 -2.0338 0.9727
-6.1145 -2.5173 -2.0338 0.9727
-5.5665 -3.5689 -2.0338 0.9727
-5.2241 -4.0536 -2.0338 0.9727
-4.8396 -4.5057 -2.0338 0.9727
-4.4161 -4.9215 -2.0338 0.9727
-3.9571 -5.2976 -2.0338 0.9727
-3.4661 -5.6311 -2.0338 0.9727
-2.9473 -5.9191 -2.0338 0.9727
-6.1082 0.3569 -2.0339 0.9745
-6.1155 -0.1922 -2.0338 0.9745
-6.0736 -0.7397 -2.0338 0.9745
-5.9829 -1.2813 -2.0338 0.9745
-5.8439 -1.8126 -2.0338 0.9745
-5.1508 -3.3023 -2.0338 0.9745
-4.8340 -3.7508 -2.0338 0.9745
-4.0863 -4.5539 -2.0338 0.9745
-3.2073 -5.2105 -2.0338 0.9745
-2.7272 -5.4771 -2.0338 0.9745
-1.7051 -5.8761 -2.0338 0.9745
-5.6251 0.8395 -2.0339 0.9761
-5.6777 0.3318 -2.0339 0.9761
-5.6456 -0.6876 -2.0338 0.9761
-5.2591 -2.1651 -2.0338 0.9761
-5.0437 -2.6279 -2.0338 0.9761
-4.7878 -3.0696 -2.0338 0.9761
-4.4933 -3.4866 -2.0338 0.9761
-4.1627 -3.8754 -2.0338 0.9761
-3.7984 -4.2330 -2.0338 0.9761
-3.4035 -4.5565 -2.0338 0.9761
-2.0683 -5.2979 -2.0338 0.9761
-1.5849 -5.4620 -2.0338 0.9761
-5.2982 0.3096 -2.0339 0.9775
-5.0690 -1.5723 -2.0338 0.9775
-4.9076 -2.0204 -2.0338 0.9775
-4.1930 -3.2535 -2.0338 0.9775
-3.8844 -3.6164 -2.0338 0.9775
-1.9301 -4.9439 -2.0338 0.9775
-2.1215 0.1239 -0.8698 0.9909
-2.1227 -0.0667 -0.8692 0.9909
-2.1211 -0.4543 -0.8878 0.9907
-4.7463 -1.4722 -2.0338 0.9788
-4.4071 -2.2962 -2.0338 0.9788
-4.1834 -2.6821 -2.0338 0.9788
-3.6371 -3.3862 -2.0338 0.9788
-3.3188 -3.6986 -2.0338 0.9788
-2.6049 -4.2319 -2.0338 0.9788
-1.9039 0.2841 -0.8389 0.9916
-1.9173 0.1120 -0.8370 0.9917
-1.9188 -0.0603 -0.8367 0.9917
-1.9052 -0.2321 -0.8365 0.9917
-1.9034 -0.4077 -0.8484 0.9915
-4.3154 -1.7766 -2.0338 0.9798
-4.1387 -2.1564 -2.0338 0.9798
-3.9286 -2.5188 -2.0338 0.9798
-3.4156 -3.1799 -2.0338 0.9798
-3.1168 -3.4734 -2.0338 0.9798
-1.3005 -4.4819 -2.0338 0.9798
-1.6105 0.2403 -0.7537 0.9928
-1.5958 0.0932 -0.7399 0.9930
-1.5837 -0.0498 -0.7334 0.9930
-1.6098 -0.1961 -0.7507 0.9929
-1.5946 -0.3416 -0.7549 0.9928
-1.5316 -0.4751 -0.7423 0.9930
-3.2159 -2.9940 -2.0338 0.9808
-2.9345 -3.2703 -2.0338 0.9808
-2.3032 -3.7418 -2.0338 0.9808
-1.9584 -3.9332 -2.0338 0.9808
-1.2245 -4.2198 -2.0338 0.9808
-1.3482 0.2012 -0.6687 0.9939
-1.3523 -0.1647 -0.6682 0.9939
-1.3300 -0.2849 -0.6672 0.9940
-1.2914 -0.4006 -0.6632 0.9940
-3.8341 -1.5785 -2.0338 0.9817
-3.6771 -1.9159 -2.0338 0.9817
-3.4905 -2.2379 -2.0338 0.9817
-3.2757 -2.5418 -2.0338 0.9817
-2.1734 -3.5310 -2.0338 0.9817
-1.5079 -3.8624 -2.0338 0.9817
-1.1555 -3.9821 -2.0338 0.9817
-1.1943 0.1782 -0.6264 0.9946
-1.1969 -0.0376 -0.6212 0.9946
-1.1991 -0.1461 -0.6266 0.9946
-1.1449 -0.3552 -0.6219 0.9946
-3.3004 -2.1160 -2.0338 0.9825
-3.0973 -2.4034 -2.0338 0.9825
-2.8693 -2.6714 -2.0338 0.9825
-2.6183 -2.9179 -2.0338 0.9825
-2.0551 -3.3387 -2.0338 0.9825
-1.0721 0.1600 -0.5937 0.9951
-1.0813 0.0632 -0.5933 0.9951
-1.0798 -0.0340 -0.5917 0.9951
-1.0766 -0.1312 -0.5941 0.9951
-1.0340 -0.3208 -0.5929 0.9951
-3.1261 -2.0042 -2.0339 0.9832
-2.2223 -2.9751 -2.0338 0.9832
-1.6552 -3.3241 -2.0338 0.9832
-1.3505 -3.4592 -2.0339 0.9832
-0.9830 0.1467 -0.5738 0.9954
-0.9900 -0.0312 -0.5718 0.9954
-0.9862 -0.1201 -0.5736 0.9954
-0.9548 -0.2962 -0.5772 0.9954
-2.7832 -2.1596 -2.0339 0.9839
-2.5783 -2.4004 -2.0339 0.9839
-2.1081 -2.8223 -2.0339 0.9839
-1.8466 -3.0000 -2.0339 0.9839
-1.5702 -3.1535 -2.0339 0.9839
-1.2811 -3.2816 -2.0339 0.9839
