ply
format ascii 1.0
element vertex 208
property float32 x
property float32 y
property float32 z
property float32 I
end_header
3.0545 18.7164 3.3439 0.9259
1.3992 18.9098 2.4692 0.9264
-11.4138 13.0835 2.2609 0.9324
-12.0180 11.5499 2.1706 0.9350
2.8645 17.5529 1.9098 0.9310
-12.7460 12.2495 1.8983 0.9314
2.8786 17.6390 1.5129 0.9308
-11.6621 13.3681 1.5017 0.9313
-12.6421 12.1497 1.4843 0.9320
1.4076 19.0228 1.1828 0.9264
-12.5301 14.3631 1.1819 0.9265
-13.0609 12.5521 1.1233 0.9300
1.4130 19.0961 0.7550 0.9262
-12.4246 14.2422 0.7452 0.9271
2.9978 18.3689 -0.1048 0.9283
-16.4596 5.5640 -0.8811 0.9328
-16.2821 5.5040 -1.2602 0.9334
-16.1363 5.4547 -1.6353 0.9338
2.7581 16.9006 -2.0341 0.9333
-0.7717 7.5420 -0.9006 0.9699
-1.4384 7.4842 -0.9053 0.9698
-2.0777 7.2860 -0.9000 0.9699
-8.8259 14.6733 -2.0340 0.9334
-14.2303 9.5221 -2.0339 0.9334
-15.6762 6.8860 -2.0338 0.9334
-16.2200 5.4830 -2.0338 0.9334
-16.6386 4.0377 -2.0338 0.9334
-1.4172 7.3739 -1.0639 0.9701
-5.1335 13.4061 -2.0340 0.9437
-6.2907 12.9036 -2.0340 0.9437
-7.3992 12.3013 -2.0340 0.9437
-9.4367 10.8172 -2.0339 0.9437
-10.3499 9.9468 -2.0339 0.9437
-13.1423 5.7730 -2.0339 0.9437
-13.9492 3.3851 -2.0338 0.9437
0.9112 12.3134 -2.0340 0.9512
-1.3962 7.2645 -1.2187 0.9705
-2.0707 7.2614 -1.2439 0.9699
-4.4152 11.5303 -2.0340 0.9512
-5.4105 11.0980 -2.0340 0.9512
-6.3639 10.5801 -2.0340 0.9512
-7.2682 9.9804 -2.0339 0.9512
-8.1164 9.3037 -2.0339 0.9512
-10.2608 6.8660 -2.0339 0.9512
-10.8239 5.9385 -2.0339 0.9512
-11.3035 4.9652 -2.0339 0.9512
-11.6957 3.9536 -2.0338 0.9512
-11.9975 2.9115 -2.0338 0.9512
1.7430 10.6803 -2.0340 0.9569
-0.7479 7.3098 -1.3811 0.9705
-1.3773 7.1664 -1.3717 0.9707
-3.8697 10.1057 -2.0340 0.9569
-4.7420 9.7269 -2.0340 0.9569
-6.3702 8.7473 -2.0339 0.9569
-7.1136 8.1542 -2.0339 0.9569
-8.4302 6.7841 -2.0339 0.9569
-9.4867 5.2048 -2.0339 0.9569
-10.2507 3.4652 -2.0339 0.9569
0.7101 9.5963 -2.0340 0.9614
-0.1352 9.6215 -2.0340 0.9614
-0.7482 7.3123 -1.5537 0.9704
-1.3714 7.1357 -1.5360 0.9707
-2.0399 7.1535 -1.5724 0.9700
-4.2166 8.6492 -2.0340 0.9614
-6.9376 6.6674 -2.0339 0.9614
-7.4961 6.0325 -2.0339 0.9614
-7.9968 5.3510 -2.0339 0.9614
-8.4357 4.6282 -2.0339 0.9614
-8.8094 3.8697 -2.0339 0.9614
-9.1151 3.0812 -2.0339 0.9614
-9.3504 2.2691 -2.0338 0.9614
1.3939 8.5415 -2.0340 0.9651
-0.1216 8.6536 -2.0340 0.9651
-0.7419 7.2505 -1.7129 0.9705
-1.4450 7.5183 -1.7993 0.9690
-2.0168 7.0725 -1.7285 0.9702
-3.0948 8.0821 -2.0340 0.9651
-4.4607 7.4160 -2.0339 0.9651
-5.6891 6.5214 -2.0339 0.9651
-6.2397 5.9966 -2.0339 0.9651
1.2653 7.7532 -2.0340 0.9681
0.5796 7.8343 -2.0340 0.9681
-0.7650 7.4757 -1.9457 0.9694
-1.4827 7.7145 -2.0340 0.9681
-2.8092 7.3362 -2.0340 0.9681
-4.0491 6.7316 -2.0339 0.9681
-5.1641 5.9195 -2.0339 0.9681
-5.6639 5.4432 -2.0339 0.9681
-6.5286 4.3685 -2.0339 0.9681
-7.1920 3.1592 -2.0339 0.9681
-7.4415 2.5155 -2.0339 0.9681
0.5302 7.1653 -2.0340 0.9706
-0.1010 7.1841 -2.0340 0.9706
-1.9703 6.9093 -2.0340 0.9706
-2.5693 6.7097 -2.0340 0.9706
-3.1484 6.4581 -2.0339 0.9706
-3.7033 6.1567 -2.0339 0.9706
-5.1802 4.9784 -2.0339 0.9706
-5.5972 4.5043 -2.0339 0.9706
-5.9711 3.9955 -2.0339 0.9706
-6.2988 3.4558 -2.0339 0.9706
-6.5779 2.8894 -2.0339 0.9706
-6.8061 2.3007 -2.0339 0.9706
-6.9818 1.6943 -2.0339 0.9706
0.4880 6.5948 -2.0340 0.9727
-0.6731 6.5785 -2.0340 0.9727
-2.3647 6.1755 -2.0339 0.9727
-2.8978 5.9440 -2.0339 0.9727
-3.4085 5.6666 -2.0339 0.9727
-5.1516 4.1458 -2.0339 0.9727
-5.4957 3.6774 -2.0339 0.9727
-6.2643 2.1176 -2.0339 0.9727
0.4515 6.1022 -2.0340 0.9745
-0.6229 6.0871 -2.0340 0.9745
-1.6780 5.8843 -2.0340 0.9745
-2.1881 5.7142 -2.0339 0.9745
-2.6814 5.5001 -2.0339 0.9745
-5.0853 3.4028 -2.0339 0.9745
-5.7964 1.9594 -2.0339 0.9745
-5.9461 1.4429 -2.0339 0.9745
0.4197 5.6722 -2.0340 0.9761
-0.5789 5.6581 -2.0340 0.9761
-1.0735 5.5854 -2.0340 0.9761
-1.5597 5.4696 -2.0339 0.9761
-2.4924 5.1125 -2.0339 0.9761
-3.3482 4.5976 -2.0339 0.9761
-3.7389 4.2859 -2.0339 0.9761
-4.4309 3.5658 -2.0339 0.9761
-5.2072 2.2873 -2.0339 0.9761
-5.5270 1.3412 -2.0339 0.9761
-0.0746 5.3070 -2.0340 0.9775
-0.5402 5.2800 -2.0340 0.9775
-1.0017 5.2122 -2.0340 0.9775
-1.4555 5.1040 -2.0339 0.9775
-1.8980 4.9565 -2.0339 0.9775
-2.3258 4.7707 -2.0339 0.9775
-3.1245 4.2904 -2.0339 0.9775
-3.4891 3.9994 -2.0339 0.9775
-3.8267 3.6777 -2.0339 0.9775
-4.1348 3.3275 -2.0339 0.9775
-4.4109 2.9516 -2.0339 0.9775
-4.6530 2.5529 -2.0339 0.9775
-5.1576 1.2516 -2.0339 0.9775
-0.0698 4.9692 -2.0340 0.9787
-0.5059 4.9438 -2.0340 0.9787
-1.7771 4.6410 -2.0339 0.9788
-2.5615 4.2586 -2.0339 0.9788
-3.2669 3.7448 -2.0339 0.9788
-3.5831 3.4435 -2.0339 0.9788
-3.8716 3.1156 -2.0339 0.9788
0.7517 4.6061 -2.0340 0.9798
-0.4750 4.6427 -2.0339 0.9798
-0.8808 4.5831 -2.0339 0.9798
-2.0451 4.1950 -2.0339 0.9798
-2.4055 3.9992 -2.0339 0.9798
-2.7474 3.7725 -2.0339 0.9798
-4.2728 1.8769 -2.0339 0.9798
-1.8993 0.4609 -0.8518 0.9915
-0.0618 4.3936 -2.0339 0.9808
-1.2050 4.2256 -2.0339 0.9808
-1.5713 4.1035 -2.0339 0.9808
-1.9255 3.9496 -2.0339 0.9808
-2.2648 3.7653 -2.0339 0.9808
-2.5867 3.5520 -2.0339 0.9808
-2.8885 3.3111 -2.0339 0.9808
-3.1681 3.0447 -2.0339 0.9808
-3.8522 2.1135 -2.0339 0.9808
-4.0229 1.7671 -2.0339 0.9808
-1.5798 0.3833 -0.7525 0.9929
0.3060 4.1352 -2.0339 0.9817
-0.4221 4.1249 -2.0339 0.9817
-1.1371 3.9875 -2.0339 0.9817
-1.4828 3.8722 -2.0339 0.9817
-1.8170 3.7271 -2.0339 0.9817
-2.1372 3.5532 -2.0339 0.9817
-3.2303 2.5996 -2.0339 0.9817
-1.3200 0.3203 -0.6663 0.9940
0.2893 3.9099 -2.0339 0.9825
-0.0551 3.9202 -2.0339 0.9825
-0.3991 3.9003 -2.0339 0.9825
-1.0752 3.7703 -2.0339 0.9825
-1.4020 3.6613 -2.0339 0.9825
-2.3080 3.1692 -2.0339 0.9825
-2.5773 2.9544 -2.0339 0.9825
-3.0543 2.4580 -2.0339 0.9825
-3.2584 2.1803 -2.0339 0.9825
-1.1378 0.3846 -0.6231 0.9946
0.5981 3.6651 -2.0339 0.9832
0.2740 3.7035 -2.0339 0.9832
-1.0184 3.5712 -2.0339 0.9832
-1.3280 3.4680 -2.0339 0.9832
-1.6273 3.3380 -2.0339 0.9832
-2.1861 3.0018 -2.0339 0.9832
-2.8930 2.3281 -2.0339 0.9832
-1.0008 0.4396 -0.5987 0.9950
-1.0287 0.3477 -0.5948 0.9951
-1.0466 0.2539 -0.5898 0.9951
0.2600 3.5133 -2.0339 0.9839
-0.0495 3.5225 -2.0339 0.9839
-0.6649 3.4595 -2.0339 0.9839
-1.2598 3.2899 -2.0339 0.9839
-1.5437 3.1666 -2.0339 0.9839
-1.8158 3.0188 -2.0339 0.9839
-2.0739 2.8477 -2.0339 0.9839
-2.3158 2.6546 -2.0339 0.9839
-2.5400 2.4411 -2.0339 0.9839
-0.8991 0.4932 -0.5921 0.9953
-0.9286 0.4079 -0.5856 0.9953
