ply
format ascii 1.0
element vertex 200
property float32 x
property float32 y
property float32 z
property float32 I
end_header
2.7127 18.8038 3.3499 0.9257
-12.3699 13.1346 3.1814 0.9293
-11.8675 12.6011 2.6518 0.9324
2.5940 17.9812 2.3658 0.9293
1.0058 18.8157 2.4537 0.9268
-10.8857 13.8663 2.2956 0.9314
2.5343 17.5677 1.9060 0.9311
-11.5167 12.2285 1.8038 0.9347
-11.5527 12.2668 1.4264 0.9346
-11.9644 12.7040 1.0821 0.9325
-12.7611 13.5500 0.7339 0.9282
2.5816 17.8949 0.3054 0.9302
2.6047 18.0556 -0.1027 0.9296
2.6871 18.6266 -0.5299 0.9275
-17.6723 5.0082 -0.9315 0.9291
2.6791 18.5707 -1.3757 0.9275
-17.3202 4.9084 -1.3200 0.9303
-0.9748 7.6744 -0.7427 0.9694
-1.6443 7.4865 -0.7359 0.9697
-17.5869 4.9840 -1.7549 0.9292
2.4451 16.9487 -2.0341 0.9333
0.9141 17.0997 -2.0341 0.9333
-0.6243 17.1126 -2.0341 0.9333
-0.9731 7.6617 -0.9174 0.9694
-5.1596 16.3277 -2.0340 0.9333
-7.9954 15.1420 -2.0340 0.9334
-9.3220 14.3632 -2.0340 0.9334
-10.5733 13.4684 -2.0340 0.9334
-12.8105 11.3610 -2.0339 0.9334
-14.6349 8.8876 -2.0339 0.9334
-15.3734 7.5382 -2.0339 0.9334
-15.9877 6.1279 -2.0338 0.9334
-16.4729 4.6683 -2.0338 0.9334
-0.5234 14.3462 -2.0341 0.9437
-0.9429 7.4233 -1.0603 0.9702
-1.6065 7.3142 -1.0610 0.9702
-2.3090 7.3067 -1.0858 0.9695
-6.7029 12.6943 -2.0340 0.9437
-8.8641 11.2913 -2.0340 0.9437
-9.8416 10.4501 -2.0339 0.9437
-10.7398 9.5245 -2.0339 0.9437
-12.8884 6.3196 -2.0339 0.9437
-13.4034 5.1374 -2.0338 0.9437
-13.8103 3.9137 -2.0338 0.9437
0.6591 12.3295 -2.0340 0.9512
-0.4501 12.3388 -2.0340 0.9512
-2.2968 7.2682 -1.2557 0.9696
-6.7216 10.3565 -2.0340 0.9512
-9.9350 7.3297 -2.0339 0.9512
-11.0851 5.4354 -2.0339 0.9512
-11.5281 4.4186 -2.0339 0.9512
0.5777 10.8061 -2.0340 0.9569
-1.5777 7.1829 -1.3823 0.9705
-4.1735 9.9840 -2.0340 0.9569
-5.0528 9.5691 -2.0340 0.9569
-8.0959 7.1797 -2.0339 0.9569
-8.7075 6.4242 -2.0339 0.9569
-9.2489 5.6167 -2.0339 0.9569
-9.7156 4.7639 -2.0339 0.9569
-10.1039 3.8727 -2.0339 0.9569
1.3739 9.5240 -2.0340 0.9614
-0.9175 7.2240 -1.5393 0.9707
-1.5958 7.2657 -1.5724 0.9700
-4.4929 8.5089 -2.0340 0.9614
-7.1989 6.3843 -2.0339 0.9614
-8.6392 4.2362 -2.0339 0.9614
1.2357 8.5658 -2.0340 0.9651
-0.3155 8.6487 -2.0340 0.9651
-1.6383 7.4590 -1.7948 0.9691
-2.3048 7.2937 -1.7977 0.9691
-3.3378 7.9847 -2.0340 0.9651
-4.0409 7.6529 -2.0340 0.9651
-6.4747 5.7421 -2.0339 0.9651
-6.9639 5.1378 -2.0339 0.9651
-7.7701 3.8100 -2.0339 0.9651
-8.0806 3.0972 -2.0339 0.9651
-1.6853 7.6728 -2.0340 0.9681
-2.3671 7.4905 -2.0340 0.9681
-3.6680 6.9466 -2.0339 0.9681
-4.2766 6.5894 -2.0339 0.9681
-4.8507 6.1789 -2.0339 0.9681
-6.7142 4.0774 -2.0339 0.9681
-7.0530 3.4584 -2.0339 0.9681
-7.3349 2.8114 -2.0339 0.9681
1.0259 7.1112 -2.0340 0.9706
-0.9053 7.1275 -2.0340 0.9706
-1.5413 7.0175 -2.0340 0.9706
-3.9114 6.0266 -2.0339 0.9706
-4.4365 5.6512 -2.0339 0.9706
-4.9257 5.2303 -2.0339 0.9706
-0.2411 6.6085 -2.0340 0.9727
-1.4186 6.4588 -2.0340 0.9727
-1.9926 6.3054 -2.0340 0.9727
-3.0877 5.8476 -2.0339 0.9727
-3.6000 5.5469 -2.0339 0.9727
-4.0833 5.2014 -2.0339 0.9727
-4.9474 4.3876 -2.0339 0.9727
-5.6520 3.4324 -2.0339 0.9727
-5.9372 2.9112 -2.0339 0.9727
-6.3620 1.8029 -2.0339 0.9727
0.3266 6.1102 -2.0340 0.9745
-0.2230 6.1149 -2.0340 0.9745
-0.7710 6.0701 -2.0340 0.9745
-1.8438 5.8345 -2.0339 0.9745
-2.8571 5.4109 -2.0339 0.9745
-3.3311 5.1326 -2.0339 0.9745
-3.7783 4.8129 -2.0339 0.9745
-4.5779 4.0598 -2.0339 0.9745
-5.4938 2.6938 -2.0339 0.9745
0.3036 5.6796 -2.0340 0.9761
-0.7167 5.6423 -2.0340 0.9761
-1.2202 5.5552 -2.0340 0.9761
-1.7138 5.4233 -2.0339 0.9761
-3.0964 4.7709 -2.0339 0.9761
-3.5121 4.4737 -2.0339 0.9761
-4.2552 3.7737 -2.0339 0.9761
-4.5767 3.3766 -2.0339 0.9761
-4.8613 2.9522 -2.0339 0.9761
-5.1066 2.5040 -2.0339 0.9761
-5.3107 2.0355 -2.0339 0.9761
-5.4719 1.5507 -2.0339 0.9761
0.7579 5.2532 -2.0340 0.9775
0.2833 5.3000 -2.0340 0.9775
-0.1935 5.3040 -2.0340 0.9775
-1.1386 5.1840 -2.0339 0.9775
-1.5993 5.0609 -2.0339 0.9775
-2.0470 4.8969 -2.0339 0.9775
-2.4782 4.6934 -2.0339 0.9775
-3.6388 3.8637 -2.0339 0.9775
-3.9709 3.5215 -2.0339 0.9775
-4.2709 3.1509 -2.0339 0.9775
0.7096 4.9187 -2.0340 0.9787
0.2653 4.9626 -2.0340 0.9787
-0.1812 4.9663 -2.0340 0.9788
-0.6262 4.9300 -2.0340 0.9788
-1.0661 4.8539 -2.0339 0.9788
-1.4975 4.7386 -2.0339 0.9788
-1.9167 4.5851 -2.0339 0.9788
-2.7055 4.1686 -2.0339 0.9788
-3.0686 3.9089 -2.0339 0.9788
-3.7180 3.2973 -2.0339 0.9788
-4.2476 2.5795 -2.0339 0.9788
-4.4620 2.1879 -2.0339 0.9788
-4.6403 1.7786 -2.0339 0.9788
-4.7811 1.3549 -2.0339 0.9788
0.6663 4.6191 -2.0340 0.9798
0.2491 4.6603 -2.0340 0.9798
-0.1702 4.6639 -2.0340 0.9798
-1.0012 4.5583 -2.0339 0.9798
-1.4062 4.4500 -2.0339 0.9798
-2.5407 3.9147 -2.0339 0.9798
-2.8818 3.6709 -2.0339 0.9798
-3.4916 3.0965 -2.0339 0.9798
-3.7554 2.7707 -2.0339 0.9798
-4.1902 2.0546 -2.0339 0.9798
-0.1602 4.3911 -2.0339 0.9808
-0.9426 4.2917 -2.0339 0.9808
-1.6947 4.0540 -2.0339 0.9808
-2.0517 3.8856 -2.0339 0.9808
-3.0125 3.1987 -2.0339 0.9808
-3.2875 2.9154 -2.0339 0.9808
-3.7556 2.2808 -2.0339 0.9808
-3.9452 1.9345 -2.0339 0.9808
0.2213 4.1405 -2.0339 0.9817
-1.2494 3.9537 -2.0339 0.9817
-1.5992 3.8256 -2.0339 0.9817
-2.2573 3.4781 -2.0339 0.9817
-2.5604 3.2615 -2.0339 0.9817
-2.8428 3.0185 -2.0339 0.9817
-3.1021 2.7512 -2.0339 0.9817
-3.3366 2.4616 -2.0339 0.9817
-1.3033 0.3693 -0.6645 0.9940
0.2093 3.9150 -2.0339 0.9825
-0.1429 3.9180 -2.0339 0.9825
-0.8411 3.8293 -2.0339 0.9825
-1.5121 3.6173 -2.0339 0.9825
-1.8307 3.4669 -2.0339 0.9825
-2.1344 3.2887 -2.0339 0.9825
-2.6879 2.8541 -2.0339 0.9825
-2.9332 2.6013 -2.0339 0.9825
-3.1548 2.3275 -2.0339 0.9825
-3.3510 2.0350 -2.0339 0.9825
-1.1262 0.4316 -0.6257 0.9946
-1.1553 0.3274 -0.6229 0.9946
-0.7966 3.6271 -2.0339 0.9832
-1.4323 3.4262 -2.0339 0.9832
-2.0217 3.1150 -2.0339 0.9832
-2.2931 2.9209 -2.0339 0.9832
-2.5460 2.7034 -2.0339 0.9832
-1.0380 0.2941 -0.5909 0.9951
-0.1284 3.5205 -2.0339 0.9839
-0.4439 3.4948 -2.0339 0.9839
-0.7557 3.4408 -2.0339 0.9839
-1.0615 3.3591 -2.0339 0.9839
-1.3587 3.2503 -2.0339 0.9839
-1.6449 3.1152 -2.0339 0.9839
-2.6357 2.3374 -2.0339 0.9839
-3.0111 1.8286 -2.0339 0.9839
-0.9418 0.3610 -0.5823 0.9954
-0.9582 0.2715 -0.5750 0.9954
