ply
format ascii 1.0
element vertex 264
property float32 x
property float32 y
property float32 z
property float32 I
end_header
-13.1042 12.7983 3.2298 0.9283
1.7065 17.6614 2.7182 0.9307
-11.4994 13.4369 2.7094 0.9309
-12.2392 11.9535 2.6209 0.9331
1.7289 17.8944 2.3411 0.9300
-11.2572 13.1539 2.2545 0.9325
-11.9356 11.6569 2.1726 0.9349
3.4908 18.5846 2.0305 0.9267
-11.1717 13.0539 1.8450 0.9332
1.7994 18.6242 1.5839 0.9276
-11.5039 13.4421 1.4977 0.9314
-12.5748 12.2812 1.4879 0.9319
-12.5200 14.6294 1.1940 0.9257
-12.7614 12.4636 1.1061 0.9310
3.5865 19.0937 0.7661 0.9252
1.8311 18.9519 0.7508 0.9266
-12.4743 14.5761 0.7565 0.9261
1.9120 19.7889 0.3358 0.9235
-1.9821 7.4179 -0.7371 0.9696
11.3146 12.8540 -2.0341 0.9333
10.1225 13.8124 -2.0341 0.9333
8.8495 14.6605 -2.0341 0.9333
6.1026 16.0000 -2.0341 0.9333
4.6505 16.4807 -2.0341 0.9333
0.1193 17.1236 -2.0341 0.9333
-1.9444 7.2771 -0.8947 0.9701
-5.8787 16.0827 -2.0340 0.9333
-8.6438 14.7813 -2.0340 0.9334
-9.9282 13.9509 -2.0340 0.9334
-11.1334 13.0092 -2.0340 0.9334
-14.9804 8.2917 -2.0339 0.9334
-15.6604 6.9218 -2.0338 0.9334
9.4855 10.7760 -2.0341 0.9437
6.2926 12.9035 -2.0341 0.9437
3.8987 13.8164 -2.0341 0.9437
2.6502 14.1092 -2.0341 0.9437
-1.2889 7.4306 -1.0686 0.9700
-1.9494 7.2957 -1.0700 0.9700
-4.9284 13.4829 -2.0340 0.9437
-6.1119 12.9892 -2.0340 0.9437
-7.2465 12.3919 -2.0340 0.9437
-8.3233 11.6957 -2.0340 0.9437
-9.3337 10.9063 -2.0339 0.9437
-10.2695 10.0298 -2.0339 0.9437
-11.1235 9.0733 -2.0339 0.9437
-11.8887 8.0444 -2.0339 0.9437
-12.5589 6.9514 -2.0339 0.9437
-13.1290 5.8029 -2.0339 0.9437
8.1582 9.2681 -2.0341 0.9512
7.2986 9.9592 -2.0341 0.9512
2.2794 12.1349 -2.0341 0.9512
1.1875 12.2898 -2.0340 0.9512
-1.2569 7.2465 -1.2116 0.9706
-1.9130 7.1596 -1.2208 0.9704
-4.2388 11.5963 -2.0340 0.9512
-5.2566 11.1717 -2.0340 0.9512
-7.1587 10.0593 -2.0340 0.9512
-8.0278 9.3803 -2.0339 0.9512
-8.8327 8.6264 -2.0339 0.9512
-9.5671 7.8038 -2.0339 0.9512
-10.2253 6.9189 -2.0339 0.9512
-10.8018 5.9788 -2.0339 0.9512
-11.2921 4.9910 -2.0339 0.9512
4.7434 9.7267 -2.0340 0.9569
2.9389 10.4149 -2.0340 0.9569
1.9978 10.6356 -2.0340 0.9569
1.0408 10.7714 -2.0340 0.9569
-1.2573 7.2489 -1.3829 0.9705
-1.8773 7.0262 -1.3670 0.9708
-3.7151 10.1636 -2.0340 0.9569
-4.6072 9.7915 -2.0340 0.9569
-7.0359 8.2214 -2.0339 0.9569
-8.9620 6.0641 -2.0339 0.9569
6.3580 7.2230 -2.0340 0.9614
4.9728 8.2381 -2.0340 0.9614
4.2178 8.6490 -2.0340 0.9614
3.4292 8.9909 -2.0340 0.9614
2.6132 9.2610 -2.0340 0.9614
1.7764 9.4572 -2.0340 0.9614
-4.0968 8.7066 -2.0340 0.9614
-4.8573 8.3063 -2.0340 0.9614
-5.5791 7.8397 -2.0339 0.9614
-6.2564 7.3105 -2.0339 0.9614
-6.8837 6.7230 -2.0339 0.9614
-7.9690 5.3922 -2.0339 0.9614
-8.4184 4.6596 -2.0339 0.9614
-8.8005 3.8898 -2.0339 0.9614
5.1158 6.9807 -2.0340 0.9651
4.4725 7.4093 -2.0340 0.9651
1.5977 8.5057 -2.0340 0.9651
-0.6135 7.4289 -1.7519 0.9698
-1.9421 7.2686 -1.7682 0.9696
-4.3687 7.4707 -2.0339 0.9651
-5.0179 7.0510 -2.0339 0.9651
-6.1912 6.0467 -2.0339 0.9651
-7.1674 4.8498 -2.0339 0.9651
-7.5715 4.1908 -2.0339 0.9651
5.1906 5.8967 -2.0340 0.9681
3.4434 7.0610 -2.0340 0.9681
2.7996 7.3400 -2.0340 0.9681
2.1334 7.5606 -2.0340 0.9681
0.7555 7.8193 -2.0340 0.9681
0.0547 7.8555 -2.0340 0.9681
-2.0278 7.5894 -2.0340 0.9681
-3.3446 7.1080 -2.0340 0.9681
-3.9655 6.7812 -2.0339 0.9681
-4.5548 6.4003 -2.0339 0.9681
-5.1077 5.9683 -2.0339 0.9681
-5.6198 5.4887 -2.0339 0.9681
-6.0872 4.9652 -2.0339 0.9681
-6.8728 3.8041 -2.0339 0.9681
-7.1848 3.1756 -2.0339 0.9681
4.7473 5.3932 -2.0340 0.9706
4.2471 5.7953 -2.0340 0.9706
3.1493 6.4579 -2.0340 0.9706
2.5605 6.7132 -2.0340 0.9706
1.9512 6.9149 -2.0340 0.9706
1.3264 7.0614 -2.0340 0.9706
-0.5913 7.1604 -2.0340 0.9706
-1.8546 6.9413 -2.0340 0.9706
-2.4667 6.7481 -2.0340 0.9706
-3.0589 6.5010 -2.0339 0.9706
-3.6268 6.2021 -2.0339 0.9706
-5.5673 4.5412 -2.0339 0.9706
-5.9504 4.0263 -2.0339 0.9706
-6.2859 3.4792 -2.0339 0.9706
-6.5712 2.9044 -2.0339 0.9706
4.3693 4.9638 -2.0340 0.9727
3.9090 5.3339 -2.0340 0.9727
3.4174 5.6614 -2.0340 0.9727
2.8986 5.9438 -2.0340 0.9727
2.3566 6.1787 -2.0340 0.9727
1.2208 6.4992 -2.0340 0.9727
0.6360 6.5822 -2.0340 0.9727
0.0461 6.6127 -2.0340 0.9727
-1.7070 6.3887 -2.0340 0.9727
-2.2703 6.2108 -2.0340 0.9727
-3.3381 5.7083 -2.0339 0.9727
-3.8341 5.3877 -2.0339 0.9727
-4.2996 5.0240 -2.0339 0.9727
-5.4767 3.7058 -2.0339 0.9727
-5.7855 3.2023 -2.0339 0.9727
-6.0481 2.6732 -2.0339 0.9727
4.0430 4.5930 -2.0340 0.9745
2.1806 5.7172 -2.0340 0.9745
0.5885 6.0906 -2.0340 0.9745
0.0427 6.1188 -2.0340 0.9745
-1.0457 6.0289 -2.0340 0.9745
-1.5795 5.9115 -2.0340 0.9745
-2.6052 5.5365 -2.0339 0.9745
-3.9785 4.6488 -2.0339 0.9745
-4.7414 3.8675 -2.0339 0.9745
-5.0676 3.4290 -2.0339 0.9745
-5.3534 2.9631 -2.0339 0.9745
-5.5964 2.4736 -2.0339 0.9745
3.7581 4.2694 -2.0340 0.9761
2.9393 4.8694 -2.0340 0.9761
2.4930 5.1122 -2.0340 0.9761
1.5446 5.4740 -2.0340 0.9761
1.0500 5.5900 -2.0340 0.9761
-0.4680 5.6684 -2.0340 0.9761
-1.4682 5.4949 -2.0339 0.9761
-2.8711 4.9097 -2.0339 0.9761
-4.0689 3.9739 -2.0339 0.9761
-4.4073 3.5950 -2.0339 0.9761
-5.2020 2.2992 -2.0339 0.9761
3.1374 4.2810 -2.0340 0.9775
2.3264 4.7706 -2.0340 0.9775
0.5105 5.2830 -2.0340 0.9775
-0.4368 5.2896 -2.0340 0.9775
-0.9070 5.2295 -2.0340 0.9775
-1.8221 4.9849 -2.0339 0.9775
-3.0774 4.3243 -2.0339 0.9775
-3.4509 4.0324 -2.0339 0.9775
-3.7970 3.7083 -2.0339 0.9775
-4.6436 2.5702 -2.0339 0.9775
-4.8543 2.1456 -2.0339 0.9775
3.2836 3.7304 -2.0340 0.9787
2.9377 4.0085 -2.0340 0.9787
2.5683 4.2546 -2.0340 0.9787
0.4780 4.9466 -2.0340 0.9787
-0.8493 4.8965 -2.0339 0.9788
-2.1159 4.4966 -2.0339 0.9788
-2.5086 4.2899 -2.0339 0.9788
-3.5552 3.4722 -2.0339 0.9788
-3.8509 3.1411 -2.0339 0.9788
-4.3479 2.4066 -2.0339 0.9788
3.0836 3.5032 -2.0340 0.9798
2.0457 4.1948 -2.0340 0.9798
1.6632 4.3606 -2.0340 0.9798
1.2674 4.4916 -2.0340 0.9798
0.8615 4.5868 -2.0340 0.9798
0.4488 4.6454 -2.0340 0.9798
-1.2047 4.5088 -2.0339 0.9798
-1.6022 4.3833 -2.0339 0.9798
-2.3559 4.0286 -2.0339 0.9798
-2.7059 3.8024 -2.0339 0.9798
-3.0345 3.5457 -2.0339 0.9798
-3.3387 3.2608 -2.0339 0.9798
-3.6164 2.9498 -2.0339 0.9798
-4.0831 2.2600 -2.0339 0.9798
-4.2685 1.8867 -2.0339 0.9798
2.9033 3.2983 -2.0340 0.9808
2.5974 3.5442 -2.0340 0.9808
2.2708 3.7619 -2.0340 0.9808
1.9261 3.9495 -2.0340 0.9808
1.5659 4.1056 -2.0340 0.9808
0.8112 4.3185 -2.0340 0.9808
0.4226 4.3737 -2.0340 0.9808
0.0306 4.3940 -2.0339 0.9808
-0.7509 4.3294 -2.0339 0.9808
-2.5477 3.5800 -2.0339 0.9808
-3.1435 3.0701 -2.0339 0.9808
-3.4049 2.7773 -2.0339 0.9808
2.7397 3.1125 -2.0340 0.9817
2.4511 3.3445 -2.0340 0.9817
2.1428 3.5499 -2.0340 0.9817
1.8175 3.7269 -2.0340 0.9817
0.0289 4.1463 -2.0339 0.9817
-0.7086 4.0854 -2.0339 0.9817
-1.4236 3.8944 -2.0339 0.9817
-2.0931 3.5793 -2.0339 0.9817
-2.4042 3.3783 -2.0339 0.9817
-2.6961 3.1503 -2.0339 0.9817
-3.2131 2.6208 -2.0339 0.9817
-3.4341 2.3237 -2.0339 0.9817
-3.6277 2.0079 -2.0339 0.9817
-3.7924 1.6762 -2.0339 0.9817
1.7186 3.5239 -2.0340 0.9825
0.7238 3.8532 -2.0339 0.9825
0.0273 3.9205 -2.0339 0.9825
-0.6700 3.8629 -2.0339 0.9825
-1.6692 3.5475 -2.0339 0.9825
-2.2732 3.1943 -2.0339 0.9825
-2.8048 2.7393 -2.0339 0.9825
-3.0380 2.4781 -2.0339 0.9825
-3.2470 2.1971 -2.0339 0.9825
-1.1067 0.4891 -0.6277 0.9946
1.9191 3.1793 -2.0340 0.9832
1.6277 3.3379 -2.0340 0.9832
1.3234 3.4698 -2.0340 0.9832
0.3571 3.6964 -2.0339 0.9832
0.0259 3.7135 -2.0339 0.9832
-0.6346 3.6589 -2.0339 0.9832
-1.2749 3.4878 -2.0339 0.9832
-2.1532 3.0256 -2.0339 0.9832
-2.6567 2.5946 -2.0339 0.9832
-2.8776 2.3472 -2.0339 0.9832
-3.0755 2.0811 -2.0339 0.9832
-3.2490 1.7983 -2.0339 0.9832
2.3277 2.6444 -2.0340 0.9839
1.8206 3.0160 -2.0339 0.9839
1.5442 3.1664 -2.0339 0.9839
1.2555 3.2916 -2.0339 0.9839
0.3388 3.5066 -2.0339 0.9839
0.0246 3.5228 -2.0339 0.9839
-0.9094 3.4035 -2.0339 0.9839
-1.4999 3.1876 -2.0339 0.9839
-1.7783 3.0410 -2.0339 0.9839
-2.0426 2.8702 -2.0339 0.9839
-2.2906 2.6765 -2.0339 0.9839
-2.5203 2.4614 -2.0339 0.9839
-2.7298 2.2267 -2.0339 0.9839
-0.8976 0.4968 -0.5923 0.9953
