ply
format ascii 1.0
element vertex 160
property float32 x
property float32 y
property float32 z
property float32 I
end_header
-11.8168 -7.9965 -1.0462 0.9444
-16.9642 2.3143 -2.0338 0.9334
-16.9573 -2.3612 -2.0337 0.9334
-16.6713 -3.8977 -2.0337 0.9334
-15.6860 -6.8605 -2.0337 0.9334
-12.2006 -12.0105 -2.0337 0.9334
-7.1057 -15.5762 -2.0337 0.9334
-13.9861 3.2291 -2.0338 0.9437
-14.2222 1.9403 -2.0338 0.9437
-14.2165 -1.9796 -2.0338 0.9437
-13.6204 -4.5285 -2.0337 0.9437
-13.1507 -5.7516 -2.0337 0.9437
-12.5714 -6.9268 -2.0337 0.9437
-10.2287 -10.0693 -2.0337 0.9437
-8.2298 -11.7595 -2.0337 0.9437
-12.0293 2.7773 -2.0338 0.9512
-12.3335 0.5464 -2.0338 0.9512
-12.2275 -1.7026 -2.0338 0.9512
-12.0212 -2.8105 -2.0338 0.9512
-11.7148 -3.8949 -2.0338 0.9512
-9.5507 -7.8222 -2.0337 0.9512
-8.7976 -8.6605 -2.0337 0.9512
-7.9713 -9.4267 -2.0337 0.9512
-7.0784 -10.1143 -2.0337 0.9512
-4.0783 -11.6521 -2.0337 0.9512
-10.5432 2.4342 -2.0338 0.9569
-10.7212 1.4626 -2.0338 0.9569
-10.8098 0.4789 -2.0338 0.9569
-10.5361 -2.4633 -2.0338 0.9569
-10.2676 -3.4137 -2.0338 0.9569
-9.4768 -5.2217 -2.0338 0.9569
-8.9611 -6.0641 -2.0338 0.9569
-7.7108 -7.5907 -2.0337 0.9569
-5.3698 -9.3936 -2.0337 0.9569
-9.5334 1.3006 -2.0338 0.9614
-9.6109 -0.4524 -2.0338 0.9614
-8.4269 -4.6432 -2.0338 0.9614
-6.8566 -6.7497 -2.0338 0.9614
-3.1785 -9.0813 -2.0338 0.9614
-8.6453 0.3830 -2.0338 0.9651
-8.6441 -0.4070 -2.0338 0.9651
-8.5709 -1.1935 -2.0338 0.9651
-8.2116 -2.7302 -2.0338 0.9651
-7.5792 -4.1761 -2.0338 0.9651
-7.1668 -4.8498 -2.0338 0.9651
-2.8587 -8.1677 -2.0338 0.9651
-7.6539 1.7671 -2.0339 0.9681
-7.7831 1.0618 -2.0338 0.9681
-6.0769 -4.9771 -2.0338 0.9681
-5.0719 -5.9980 -2.0338 0.9681
-4.5038 -6.4355 -2.0338 0.9681
-3.8982 -6.8194 -2.0338 0.9681
-2.5950 -7.4140 -2.0338 0.9681
-7.1157 -0.9908 -2.0338 0.9706
-6.9957 -1.6356 -2.0338 0.9706
-6.8173 -2.2667 -2.0338 0.9706
-6.5822 -2.8788 -2.0338 0.9706
-5.9500 -4.0264 -2.0338 0.9706
-5.5580 -4.5521 -2.0338 0.9706
-5.1197 -5.0400 -2.0338 0.9706
-3.5654 -6.2371 -2.0338 0.9706
-6.4430 1.4875 -2.0339 0.9727
-6.6060 0.2926 -2.0338 0.9727
-6.6051 -0.3110 -2.0338 0.9727
-6.4387 -1.5054 -2.0338 0.9727
-5.7914 -3.1911 -2.0338 0.9727
-5.4763 -3.7059 -2.0338 0.9727
-5.1155 -4.1898 -2.0338 0.9727
-4.2696 -5.0492 -2.0338 0.9727
-3.2816 -5.7406 -2.0338 0.9727
-6.0624 0.8271 -2.0339 0.9745
-6.1118 -0.2877 -2.0338 0.9745
-5.9579 -1.3929 -2.0338 0.9745
-5.8060 -1.9304 -2.0338 0.9745
-5.6058 -2.4518 -2.0338 0.9745
-5.0673 -3.4291 -2.0338 0.9745
-3.9507 -4.6720 -2.0338 0.9745
-3.5082 -5.0128 -2.0338 0.9745
-3.0364 -5.3119 -2.0338 0.9745
-5.5416 1.2794 -2.0339 0.9761
-5.6352 0.7688 -2.0339 0.9761
-5.6811 -0.2674 -2.0338 0.9761
-4.9812 -2.7446 -2.0338 0.9761
-4.7102 -3.1874 -2.0338 0.9761
-4.3999 -3.6036 -2.0338 0.9761
-4.0530 -3.9898 -2.0338 0.9761
-3.2609 -4.6596 -2.0338 0.9761
-2.3605 -5.1743 -2.0338 0.9761
-5.2565 -0.7319 -2.0338 0.9775
-5.1679 -1.2082 -2.0338 0.9775
-5.0362 -1.6745 -2.0338 0.9775
-4.3954 -2.9744 -2.0338 0.9775
-3.7821 -3.7232 -2.0338 0.9775
-1.7533 -5.0093 -2.0338 0.9775
-2.1193 0.4893 -0.8902 0.9906
-2.1096 0.2878 -0.8714 0.9908
-2.1189 -0.4954 -0.8906 0.9906
-4.7155 -1.5678 -2.0338 0.9788
-4.3524 -2.3982 -2.0338 0.9788
-3.8445 -3.1487 -2.0338 0.9788
-3.5414 -3.4862 -2.0338 0.9788
-1.6416 -4.6904 -2.0338 0.9788
-1.9184 0.0850 -0.8369 0.9917
-1.9182 -0.0903 -0.8369 0.9917
-1.9026 -0.2650 -0.8372 0.9917
-4.4284 -1.4724 -2.0338 0.9798
-4.2757 -1.8700 -2.0338 0.9798
-2.6758 -3.8234 -2.0338 0.9798
-1.9369 -4.2458 -2.0338 0.9798
-1.5417 -4.4047 -2.0338 0.9798
-1.6106 0.2197 -0.7524 0.9929
-1.5899 0.0704 -0.7367 0.9930
-1.6106 -0.2243 -0.7527 0.9929
-1.6556 -0.5505 -0.8076 0.9923
-3.8483 -2.1204 -2.0338 0.9808
-3.6389 -2.4625 -2.0338 0.9808
-3.3993 -2.7841 -2.0338 0.9808
-3.1312 -3.0824 -2.0338 0.9808
-2.5193 -3.5998 -2.0338 0.9808
-1.8236 -3.9975 -2.0338 0.9808
-1.4516 -4.1472 -2.0338 0.9808
-1.3481 0.0597 -0.6619 0.9940
-1.3486 -0.0635 -0.6623 0.9940
-1.3234 -0.3094 -0.6667 0.9940
-3.7988 -1.6615 -2.0338 0.9817
-3.2077 -2.6272 -2.0338 0.9817
-2.6773 -3.1661 -2.0338 0.9817
-2.3773 -3.3970 -2.0338 0.9817
-2.0577 -3.5997 -2.0338 0.9817
-1.7209 -3.7723 -2.0338 0.9817
-1.1969 0.1633 -0.6267 0.9946
-1.1964 -0.1666 -0.6266 0.9946
-1.1709 -0.2738 -0.6238 0.9946
-1.1390 -0.3787 -0.6227 0.9946
-1.1084 -0.4848 -0.6276 0.9946
-2.7938 -2.7503 -2.0338 0.9825
-2.2479 -3.2120 -2.0338 0.9825
-1.6272 -3.5668 -2.0338 0.9825
-1.2952 -3.7004 -2.0338 0.9825
-1.0809 0.0479 -0.5926 0.9951
-1.0739 -0.1496 -0.5939 0.9951
-1.0494 -0.2454 -0.5903 0.9951
-1.0298 -0.3424 -0.5944 0.9951
-3.2524 -1.7921 -2.0339 0.9832
-2.8729 -2.3529 -2.0338 0.9832
-2.6463 -2.6051 -2.0338 0.9832
-2.3977 -2.8355 -2.0338 0.9832
-2.1292 -3.0424 -2.0338 0.9832
-1.8429 -3.2239 -2.0338 0.9832
-1.5412 -3.3785 -2.0338 0.9832
-1.2268 -3.5050 -2.0339 0.9832
-0.9685 0.2236 -0.5739 0.9954
-0.9900 0.0438 -0.5722 0.9954
-0.9900 -0.0466 -0.5722 0.9954
-0.9843 -0.1371 -0.5738 0.9954
-0.9514 -0.3164 -0.5789 0.9954
-2.7253 -2.2321 -2.0339 0.9839
-2.5104 -2.4713 -2.0339 0.9839
-1.4621 -3.2050 -2.0339 0.9839
-1.1637 -3.3250 -2.0339 0.9839
