ply
format ascii 1.0
element vertex 172
property float32 x
property float32 y
property float32 z
property float32 I
end_header
-13.0261 -8.0643 -1.1233 0.9404
-12.5311 -7.7579 -1.4149 0.9425
-11.4909 -8.6177 -1.3789 0.9439
-16.9060 2.7078 -2.0338 0.9334
-17.0797 1.1920 -2.0338 0.9334
-17.1179 -0.3333 -2.0337 0.9334
-16.7872 -3.3637 -2.0337 0.9334
-16.4209 -4.8448 -2.0337 0.9334
-15.9243 -6.2874 -2.0337 0.9334
-15.3013 -7.6801 -2.0337 0.9334
-11.2975 -8.4728 -1.6775 0.9447
-9.2494 -14.4068 -2.0337 0.9334
-7.9301 -15.1730 -2.0337 0.9334
-6.5479 -15.8188 -2.0337 0.9334
-13.9150 3.5229 -2.0338 0.9437
-14.1733 2.2701 -2.0338 0.9437
-14.3190 0.9993 -2.0338 0.9437
-14.3510 -0.2794 -2.0338 0.9437
-14.2691 -1.5559 -2.0338 0.9437
-12.8281 -6.4388 -2.0337 0.9437
-6.6484 -12.7207 -2.0337 0.9437
-11.9682 3.0300 -2.0338 0.9512
-12.1903 1.9525 -2.0338 0.9512
-12.3157 0.8595 -2.0338 0.9512
-12.3432 -0.2403 -2.0338 0.9512
-11.8407 -3.4935 -2.0338 0.9512
-10.4965 -6.4982 -2.0337 0.9512
-8.4062 -9.0410 -2.0337 0.9512
-7.5679 -9.7534 -2.0337 0.9512
-5.7182 -10.9409 -2.0337 0.9512
-4.7215 -11.4066 -2.0337 0.9512
-10.6843 1.7113 -2.0338 0.9569
-10.7942 0.7533 -2.0338 0.9569
-10.8183 -0.2106 -2.0338 0.9569
-10.7565 -1.1729 -2.0338 0.9569
-10.6093 -2.1259 -2.0338 0.9569
-10.3780 -3.0619 -2.0338 0.9569
-9.6704 -4.8538 -2.0338 0.9569
-9.1998 -5.6955 -2.0338 0.9569
-8.0439 -7.2367 -2.0338 0.9569
-7.3677 -7.9241 -2.0337 0.9569
-6.6330 -8.5485 -2.0337 0.9569
-9.3275 2.3615 -2.0338 0.9614
-9.5983 0.6699 -2.0338 0.9614
-9.5648 -1.0430 -2.0338 0.9614
-8.9491 -3.5334 -2.0338 0.9614
-8.5991 -4.3161 -2.0338 0.9614
-7.6973 -5.7727 -2.0338 0.9614
-7.1528 -6.4350 -2.0338 0.9614
-5.1980 -8.0964 -2.0338 0.9614
-4.4566 -8.5270 -2.0338 0.9614
-3.6798 -8.8899 -2.0338 0.9614
-8.3891 2.1239 -2.0339 0.9651
-8.6327 0.6025 -2.0338 0.9651
-8.6027 -0.9381 -2.0338 0.9651
-8.4850 -1.7002 -2.0338 0.9651
-8.2999 -2.4488 -2.0338 0.9651
-8.0489 -3.1780 -2.0338 0.9651
-7.7340 -3.8819 -2.0338 0.9651
-6.4333 -5.7877 -2.0338 0.9651
-4.6752 -7.2820 -2.0338 0.9651
-4.0083 -7.6693 -2.0338 0.9651
-3.3096 -7.9956 -2.0338 0.9651
-7.6150 1.9279 -2.0339 0.9681
-7.8361 0.5469 -2.0338 0.9681
-7.7020 -1.5433 -2.0338 0.9681
-5.8396 -5.2536 -2.0338 0.9681
-5.3486 -5.7526 -2.0338 0.9681
-3.6384 -6.9615 -2.0338 0.9681
-3.0042 -7.2578 -2.0338 0.9681
-7.0940 1.1362 -2.0339 0.9706
-7.1420 -0.7788 -2.0338 0.9706
-7.0443 -1.4115 -2.0338 0.9706
-6.8906 -2.0330 -2.0338 0.9706
-6.6822 -2.6384 -2.0338 0.9706
-6.4209 -3.2228 -2.0338 0.9706
-5.7475 -4.3104 -2.0338 0.9706
-4.4041 -5.6760 -2.0338 0.9706
-3.8814 -6.0455 -2.0338 0.9706
-6.5964 0.4603 -2.0338 0.9727
-6.5734 -0.7168 -2.0338 0.9727
-5.9097 -2.9663 -2.0338 0.9727
-5.6221 -3.4806 -2.0338 0.9727
-5.2900 -3.9673 -2.0338 0.9727
-4.5025 -4.8425 -2.0338 0.9727
-3.0628 -5.8602 -2.0338 0.9727
-2.5289 -6.1096 -2.0338 0.9727
-6.0416 0.9677 -2.0339 0.9745
-6.0825 -0.6633 -2.0338 0.9745
-3.3056 -5.1487 -2.0338 0.9745
-5.6158 0.8995 -2.0339 0.9761
-5.2899 -2.0887 -2.0338 0.9761
-4.5500 -3.4123 -2.0338 0.9761
-3.8727 -4.1651 -2.0338 0.9761
-3.4865 -4.4933 -2.0338 0.9761
-2.1752 -5.2550 -2.0338 0.9761
-5.2405 0.8394 -2.0339 0.9775
-5.2944 0.3695 -2.0339 0.9775
-5.2760 -0.5753 -2.0338 0.9775
-5.2038 -1.0427 -2.0338 0.9775
-5.0903 -1.5019 -2.0338 0.9775
-4.7433 -2.3808 -2.0338 0.9775
-4.2459 -3.1842 -2.0338 0.9775
-3.9455 -3.5496 -2.0338 0.9775
-2.4583 -4.7035 -2.0338 0.9775
-2.0298 -4.9038 -2.0338 0.9775
-2.1203 0.1479 -0.8699 0.9909
-2.1120 -0.2303 -0.8695 0.9909
-2.1218 -0.4252 -0.8857 0.9907
-4.6221 -1.8250 -2.0338 0.9788
-3.6944 -3.3236 -2.0338 0.9788
-2.6848 -4.1817 -2.0338 0.9788
-2.3018 -4.4041 -2.0338 0.9788
-1.9047 0.3050 -0.8407 0.9916
-2.0430 -0.6028 -0.9283 0.9907
-4.3406 -1.7138 -2.0338 0.9798
-4.1708 -2.0935 -2.0338 0.9798
-3.9679 -2.4564 -2.0338 0.9798
-3.4694 -3.1212 -2.0338 0.9798
-3.1777 -3.4177 -2.0338 0.9798
-2.8608 -3.6870 -2.0338 0.9798
-2.5213 -3.9271 -2.0338 0.9798
-1.7848 -4.3120 -2.0338 0.9798
-1.6106 0.2579 -0.7550 0.9928
-1.5996 0.1116 -0.7422 0.9930
-1.5772 -0.0307 -0.7302 0.9931
-1.6006 -0.3208 -0.7556 0.9928
-1.5426 -0.4552 -0.7445 0.9929
-4.0868 -1.6136 -2.0338 0.9808
-3.9270 -1.9711 -2.0338 0.9808
-3.7359 -2.3128 -2.0338 0.9808
-2.6936 -3.4714 -2.0338 0.9808
-2.3738 -3.6974 -2.0338 0.9808
-1.6805 -4.0598 -2.0338 0.9808
-1.3458 0.2155 -0.6686 0.9939
-1.3521 0.0943 -0.6648 0.9940
-1.3339 -0.2673 -0.6673 0.9940
-1.2983 -0.3831 -0.6640 0.9940
-1.2532 -0.4948 -0.6609 0.9940
-3.7057 -1.8600 -2.0338 0.9817
-3.3171 -2.4877 -2.0338 0.9817
-2.8234 -3.0365 -2.0338 0.9817
-1.9205 -3.6747 -2.0338 0.9817
-1.2001 0.0837 -0.6241 0.9946
-1.1952 -0.0233 -0.6202 0.9946
-1.1999 -0.1309 -0.6262 0.9946
-1.1803 -0.2365 -0.6245 0.9946
-1.1509 -0.3396 -0.6225 0.9946
-1.1227 -0.4433 -0.6262 0.9946
-3.1364 -2.3522 -2.0338 0.9825
-1.0785 -0.0210 -0.5908 0.9951
-1.0782 -0.1176 -0.5941 0.9951
-1.0599 -0.2124 -0.5920 0.9951
-1.0364 -0.3058 -0.5918 0.9951
-1.0146 -0.4006 -0.5975 0.9950
-2.7606 -2.4836 -2.0338 0.9832
-2.2764 -2.9339 -2.0338 0.9832
-2.0062 -3.1248 -2.0338 0.9832
-1.7200 -3.2911 -2.0338 0.9832
-1.4202 -3.4311 -2.0338 0.9832
-0.9627 0.2437 -0.5734 0.9954
-0.9896 0.0690 -0.5727 0.9954
-0.9897 -0.0193 -0.5715 0.9954
-0.9568 -0.2823 -0.5760 0.9954
-0.9393 -0.3709 -0.5831 0.9953
-0.9121 -0.4579 -0.5892 0.9953
-2.9952 -1.8543 -2.0339 0.9839
-2.8182 -2.1136 -2.0339 0.9839
-2.1595 -2.7832 -2.0339 0.9839
-1.9032 -2.9644 -2.0339 0.9839
-1.6317 -3.1221 -2.0339 0.9839
-1.3473 -3.2549 -2.0339 0.9839
