ply
format ascii 1.0
element vertex 191
property float32 x
property float32 y
property float32 z
property float32 I
end_header
2.7664 18.8195 3.3540 0.9256
-12.6593 13.0021 3.1998 0.9289
0.9939 18.3371 2.8133 0.9284
-12.3407 12.6750 2.7101 0.9309
2.8590 19.4503 2.1110 0.9240
-11.4281 14.1252 1.9510 0.9295
-11.7447 14.5165 1.5807 0.9278
2.5939 17.6467 1.1060 0.9310
2.6062 17.7304 0.3027 0.9308
2.7157 18.4751 -0.1051 0.9280
2.7266 18.5495 -0.9508 0.9277
-16.6374 5.8808 -0.8949 0.9318
2.7194 18.5006 -1.3711 0.9277
-1.7065 7.5866 -0.5702 0.9693
-16.1752 5.7174 -1.2579 0.9335
2.7170 18.4840 -1.7936 0.9277
-1.0277 7.8946 -0.7643 0.9685
-1.6719 7.4328 -0.7314 0.9698
-16.0280 5.6654 -1.6321 0.9340
2.4904 16.9421 -2.0341 0.9333
-0.9825 7.5477 -0.9041 0.9698
-1.6671 7.4116 -0.9024 0.9699
-6.7445 15.7392 -2.0340 0.9334
-9.5045 14.2430 -2.0340 0.9334
-10.7699 13.3117 -2.0340 0.9334
-13.0189 11.1215 -2.0339 0.9334
-13.9834 9.8811 -2.0339 0.9334
-14.8303 8.5575 -2.0339 0.9334
-16.1430 5.7061 -2.0338 0.9334
3.3810 13.9522 -2.0341 0.9437
-0.9688 7.4423 -1.0634 0.9701
-4.4209 13.6578 -2.0340 0.9437
-5.6542 13.1949 -2.0340 0.9437
-6.8399 12.6209 -2.0340 0.9437
-7.9680 11.9406 -2.0340 0.9437
-9.0290 11.1599 -2.0339 0.9437
-10.9145 9.3237 -2.0339 0.9437
-11.7231 8.2839 -2.0339 0.9437
-12.4330 7.1742 -2.0339 0.9437
-13.5336 4.7837 -2.0338 0.9437
2.9079 11.9998 -2.0341 0.9512
-0.4647 12.3382 -2.0340 0.9512
-0.9605 7.3781 -1.2257 0.9703
-1.6003 7.1148 -1.2014 0.9709
-5.8829 10.8550 -2.0340 0.9512
-8.6128 8.8460 -2.0339 0.9512
-9.3874 8.0192 -2.0339 0.9512
-10.0829 7.1248 -2.0339 0.9512
-11.2140 5.1642 -2.0339 0.9512
2.5487 10.5172 -2.0340 0.9569
1.5738 10.7065 -2.0340 0.9569
0.5857 10.8057 -2.0340 0.9569
-2.3189 7.1640 -1.4154 0.9698
-4.2622 9.9465 -2.0340 0.9569
2.2662 9.3519 -2.0340 0.9614
-0.9403 7.2234 -1.5398 0.9707
-1.6298 7.2459 -1.5699 0.9701
-2.3159 7.1546 -1.5896 0.9697
-3.7900 8.8445 -2.0340 0.9614
-4.5848 8.4598 -2.0340 0.9614
-6.0521 7.4804 -2.0339 0.9614
-6.7124 6.8941 -2.0339 0.9614
-7.3161 6.2497 -2.0339 0.9614
-7.8581 5.5527 -2.0339 0.9614
-8.3340 4.8090 -2.0339 0.9614
1.2586 8.5625 -2.0340 0.9651
0.4684 8.6418 -2.0340 0.9651
-0.3258 8.6483 -2.0340 0.9651
-0.9412 7.2301 -1.7136 0.9705
-1.6258 7.2278 -1.7411 0.9700
-2.3836 7.3637 -1.8190 0.9687
-4.8037 7.1986 -2.0339 0.9651
-6.0371 6.2006 -2.0339 0.9651
-6.5800 5.6210 -2.0339 0.9651
-7.0676 4.9941 -2.0339 0.9651
-7.4956 4.3252 -2.0339 0.9651
1.8501 7.6348 -2.0340 0.9681
1.1425 7.7722 -2.0340 0.9681
0.4252 7.8442 -2.0340 0.9681
-0.9601 7.3751 -1.9257 0.9697
-1.7239 7.6641 -2.0340 0.9681
-2.4193 7.4738 -2.0340 0.9681
-3.0941 7.2206 -2.0340 0.9681
-4.3604 6.5343 -2.0339 0.9681
-5.9728 5.1022 -2.0339 0.9681
-6.4154 4.5332 -2.0339 0.9681
-6.8038 3.9260 -2.0339 0.9681
1.0449 7.1085 -2.0340 0.9706
-0.9275 7.1247 -2.0340 0.9706
-2.2126 6.8356 -2.0340 0.9706
-2.8299 6.6040 -2.0340 0.9706
-3.4234 6.3167 -2.0339 0.9706
-6.2228 3.5907 -2.0339 0.9706
1.5574 6.4269 -2.0340 0.9727
0.3579 6.6032 -2.0340 0.9727
-1.4511 6.4516 -2.0340 0.9727
-2.0364 6.2914 -2.0340 0.9727
-3.6705 5.5005 -2.0339 0.9727
-5.7275 3.3049 -2.0339 0.9727
1.4411 5.9468 -2.0340 0.9745
-1.8843 5.8215 -2.0339 0.9745
-3.3964 5.0897 -2.0339 0.9745
-3.8486 4.7569 -2.0339 0.9745
-4.6523 3.9743 -2.0339 0.9745
-4.9970 3.5310 -2.0339 0.9745
-5.2997 3.0581 -2.0339 0.9745
0.3079 5.6794 -2.0340 0.9761
-0.2141 5.6837 -2.0340 0.9761
-2.2402 5.2279 -2.0339 0.9761
-2.7100 5.0005 -2.0339 0.9761
-3.1570 4.7310 -2.0339 0.9761
-3.9676 4.0751 -2.0339 0.9761
-4.3245 3.6942 -2.0339 0.9761
-5.1661 2.3790 -2.0339 0.9761
1.2500 5.1583 -2.0340 0.9775
0.7719 5.2512 -2.0340 0.9775
0.2872 5.2998 -2.0340 0.9775
-0.1998 5.3038 -2.0340 0.9775
-2.9460 4.4148 -2.0339 0.9775
-3.3383 4.1262 -2.0339 0.9775
-3.7025 3.8027 -2.0339 0.9775
-4.3345 3.0628 -2.0339 0.9775
-4.8207 2.2200 -2.0339 0.9775
1.1704 4.8299 -2.0340 0.9787
0.7227 4.9168 -2.0340 0.9787
-0.1871 4.9661 -2.0340 0.9787
-0.6415 4.9280 -2.0340 0.9788
-1.0906 4.8485 -2.0339 0.9788
-1.9574 4.5679 -2.0339 0.9788
-2.7584 4.1337 -2.0339 0.9788
-3.1257 3.8635 -2.0339 0.9788
-3.7786 3.2278 -2.0339 0.9788
-4.3043 2.4837 -2.0339 0.9788
-4.6854 1.6561 -2.0339 0.9788
-0.1757 4.6637 -2.0340 0.9798
-0.6024 4.6279 -2.0339 0.9798
-1.0241 4.5532 -2.0339 0.9798
-1.8382 4.2896 -2.0339 0.9798
-2.2237 4.1031 -2.0339 0.9798
-2.5905 3.8820 -2.0339 0.9798
-2.9354 3.6281 -2.0339 0.9798
-3.2556 3.3438 -2.0339 0.9798
-3.5484 3.0312 -2.0339 0.9798
-3.8113 2.6932 -2.0339 0.9798
-4.0421 2.3325 -2.0339 0.9798
-4.2389 1.9521 -2.0339 0.9798
1.0348 4.2705 -2.0340 0.9808
0.6390 4.3474 -2.0340 0.9808
0.2378 4.3876 -2.0340 0.9808
-0.5672 4.3573 -2.0339 0.9808
-2.0936 3.8631 -2.0339 0.9808
-2.4390 3.6549 -2.0339 0.9808
-2.7637 3.4160 -2.0339 0.9808
-3.3409 2.8540 -2.0339 0.9808
-3.5885 2.5357 -2.0339 0.9808
0.6030 4.1024 -2.0340 0.9817
-0.1561 4.1435 -2.0339 0.9817
-0.9099 4.0454 -2.0339 0.9817
-1.2769 3.9449 -2.0339 0.9817
-2.3015 3.4490 -2.0339 0.9817
-3.1527 2.6932 -2.0339 0.9817
-3.7662 1.7344 -2.0339 0.9817
-1.2691 0.4485 -0.6602 0.9940
0.5702 3.8789 -2.0339 0.9825
0.2122 3.9149 -2.0339 0.9825
-0.5061 3.8878 -2.0339 0.9825
-1.5442 3.6037 -2.0339 0.9825
-1.8680 3.4469 -2.0339 0.9825
-2.1762 3.2611 -2.0339 0.9825
-2.7350 2.8090 -2.0339 0.9825
-3.2018 2.2625 -2.0339 0.9825
-3.5611 1.6399 -2.0339 0.9825
-1.1342 0.4009 -0.6241 0.9946
0.8746 3.6091 -2.0339 0.9832
0.5400 3.6741 -2.0339 0.9832
0.2010 3.7081 -2.0339 0.9832
-0.4794 3.6825 -2.0339 0.9832
-1.1436 3.5331 -2.0339 0.9832
-1.4627 3.4134 -2.0339 0.9832
-2.0612 3.0889 -2.0339 0.9832
-2.3357 2.8870 -2.0339 0.9832
-3.2164 1.8560 -2.0339 0.9832
0.1907 3.5177 -2.0339 0.9839
-0.1326 3.5204 -2.0339 0.9839
-1.3876 3.2381 -2.0339 0.9839
-1.6785 3.0972 -2.0339 0.9839
-1.9554 2.9303 -2.0339 0.9839
-2.2158 2.7387 -2.0339 0.9839
-2.4575 2.5241 -2.0339 0.9839
-1.1840 0.6832 -0.7892 0.9937
-0.9477 0.3350 -0.5804 0.9954
