ply
format ascii 1.0
element vertex 189
property float32 x
property float32 y
property float32 z
property float32 I
end_header
-11.9543 -7.7673 -1.3687 0.9443
-16.9287 2.5613 -2.0338 0.9334
-17.0911 1.0158 -2.0338 0.9334
-17.1127 -0.5380 -2.0337 0.9334
-16.9932 -2.0875 -2.0337 0.9334
-16.7339 -3.6196 -2.0337 0.9334
-16.3366 -5.1219 -2.0337 0.9334
-15.1429 -7.9879 -2.0337 0.9334
-11.9339 -7.7541 -1.6905 0.9443
-13.4513 -10.5912 -2.0337 0.9334
-12.4355 -11.7671 -2.0337 0.9334
-11.3174 -12.8462 -2.0337 0.9334
-6.0156 -16.0288 -2.0337 0.9334
-4.5375 -16.5083 -2.0337 0.9334
-14.1925 2.1473 -2.0338 0.9437
-14.2465 -1.7500 -2.0338 0.9437
-14.0291 -3.0346 -2.0337 0.9437
-13.6961 -4.2940 -2.0337 0.9437
-12.0358 -7.8203 -2.0337 0.9437
-11.2771 -8.8793 -2.0337 0.9437
-9.4881 -10.7699 -2.0337 0.9437
-7.3872 -12.3063 -2.0337 0.9437
-5.0432 -13.4381 -2.0337 0.9437
-3.8041 -13.8401 -2.0337 0.9437
-12.3238 0.7324 -2.0338 0.9512
-12.3394 -0.3880 -2.0338 0.9512
-12.0663 -2.6100 -2.0338 0.9512
-11.7799 -3.6933 -2.0338 0.9512
-11.3965 -4.7462 -2.0337 0.9512
-10.9192 -5.7599 -2.0337 0.9512
-10.3519 -6.7262 -2.0337 0.9512
-8.9670 -8.4850 -2.0337 0.9512
-6.3537 -10.5846 -2.0337 0.9512
-5.3678 -11.1171 -2.0337 0.9512
-3.2718 -11.9037 -2.0337 0.9512
-10.6987 1.6187 -2.0338 0.9569
-10.8150 -0.3400 -2.0338 0.9569
-10.7396 -1.3193 -2.0338 0.9569
-10.5757 -2.2876 -2.0338 0.9569
-10.3246 -3.2370 -2.0338 0.9569
-9.9886 -4.1598 -2.0338 0.9569
-9.5703 -5.0483 -2.0338 0.9569
-8.5012 -6.6936 -2.0338 0.9569
-6.3870 -8.7339 -2.0337 0.9569
-5.5687 -9.2770 -2.0337 0.9569
-9.5135 1.4393 -2.0338 0.9614
-9.6047 0.5708 -2.0338 0.9614
-9.1808 -2.8784 -2.0338 0.9614
-8.8820 -3.6990 -2.0338 0.9614
-8.5100 -4.4891 -2.0338 0.9614
-8.0679 -5.2422 -2.0338 0.9614
-8.6494 -0.2720 -2.0338 0.9651
-8.5891 -1.0551 -2.0338 0.9651
-8.4580 -1.8295 -2.0338 0.9651
-8.2572 -2.5889 -2.0338 0.9651
-7.9886 -3.3269 -2.0338 0.9651
-6.7989 -5.3533 -2.0338 0.9651
-5.7204 -6.4932 -2.0338 0.9651
-5.1081 -6.9851 -2.0338 0.9651
-4.4538 -7.4195 -2.0338 0.9651
-3.7627 -7.7927 -2.0338 0.9651
-3.0406 -8.1018 -2.0338 0.9651
-2.2935 -8.3441 -2.0338 0.9651
-7.7668 1.1751 -2.0338 0.9681
-7.8512 -0.2469 -2.0338 0.9681
-7.7965 -0.9578 -2.0338 0.9681
-7.6775 -1.6607 -2.0338 0.9681
-7.4953 -2.3500 -2.0338 0.9681
-7.2514 -3.0199 -2.0338 0.9681
-6.9476 -3.6649 -2.0338 0.9681
-6.5867 -4.2797 -2.0338 0.9681
-6.1716 -4.8593 -2.0338 0.9681
-5.1925 -5.8940 -2.0338 0.9681
-4.0427 -6.7348 -2.0338 0.9681
-7.1717 0.4262 -2.0338 0.9706
-7.1807 -0.2258 -2.0338 0.9706
-7.0219 -1.5189 -2.0338 0.9706
-6.6321 -2.7620 -2.0338 0.9706
-6.3544 -3.3520 -2.0338 0.9706
-6.0243 -3.9143 -2.0338 0.9706
-5.2183 -4.9379 -2.0338 0.9706
-4.7491 -5.3907 -2.0338 0.9706
-4.2408 -5.7990 -2.0338 0.9706
-2.5243 -6.7262 -2.0338 0.9706
-1.9041 -6.9273 -2.0338 0.9706
-6.5380 0.9892 -2.0339 0.9727
-6.6091 -0.2078 -2.0338 0.9727
-5.5447 -3.6027 -2.0338 0.9727
-5.1952 -4.0906 -2.0338 0.9727
-4.8029 -4.5448 -2.0338 0.9727
-4.3710 -4.9615 -2.0338 0.9727
-2.8751 -5.9546 -2.0338 0.9727
-2.3234 -6.1908 -2.0338 0.9727
-6.0498 0.9153 -2.0339 0.9745
-6.1155 -0.1923 -2.0338 0.9745
-5.9802 -1.2936 -2.0338 0.9745
-5.6483 -2.3523 -2.0338 0.9745
-5.4117 -2.8547 -2.0338 0.9745
-5.1306 -3.3336 -2.0338 0.9745
-4.4442 -4.2054 -2.0338 0.9745
-4.0446 -4.5910 -2.0338 0.9745
-3.1490 -5.2459 -2.0338 0.9745
-2.6604 -5.5098 -2.0338 0.9745
-2.1498 -5.7284 -2.0338 0.9745
-1.6216 -5.8997 -2.0338 0.9745
-5.6234 0.8508 -2.0339 0.9761
-5.6773 0.3374 -2.0339 0.9761
-5.5588 -1.2024 -2.0338 0.9761
-5.4269 -1.7014 -2.0338 0.9761
-5.2502 -2.1865 -2.0338 0.9761
-4.7691 -3.0987 -2.0338 0.9761
-4.4684 -3.5183 -2.0338 0.9761
-3.7596 -4.2675 -2.0338 0.9761
-5.2979 0.3149 -2.0339 0.9775
-5.3046 -0.1668 -2.0339 0.9775
-5.2677 -0.6471 -2.0338 0.9775
-4.8993 -2.0404 -2.0338 0.9775
-4.4503 -2.8916 -2.0338 0.9775
-3.5083 -3.9823 -2.0338 0.9775
-3.1328 -4.2840 -2.0338 0.9775
-2.7315 -4.5503 -2.0338 0.9775
-2.1227 -0.0668 -0.8692 0.9909
-2.1079 -0.2590 -0.8692 0.9909
-4.7418 -1.4867 -2.0338 0.9788
-3.9044 -3.0742 -2.0338 0.9788
-3.6095 -3.4155 -2.0338 0.9788
-3.2850 -3.7287 -2.0338 0.9788
-2.5576 -4.2607 -2.0338 0.9788
-2.1607 -4.4751 -2.0338 0.9788
-1.9172 0.1139 -0.8370 0.9917
-1.9049 -0.2340 -0.8364 0.9917
-1.9032 -0.4117 -0.8486 0.9915
-2.0988 -0.6580 -0.9586 0.9904
-4.3081 -1.7941 -2.0338 0.9798
-4.1277 -2.1774 -2.0338 0.9798
-3.9132 -2.5426 -2.0338 0.9798
-3.6665 -2.8870 -2.0338 0.9798
-3.3897 -3.2075 -2.0338 0.9798
-2.7547 -3.7669 -2.0338 0.9798
-1.2368 -4.4999 -2.0338 0.9798
-1.6105 0.2436 -0.7539 0.9928
-1.5961 0.0948 -0.7401 0.9930
-1.5837 -0.0498 -0.7334 0.9930
-1.6099 -0.1978 -0.7508 0.9929
-3.8863 -2.0501 -2.0338 0.9808
-3.4521 -2.7182 -2.0338 0.9808
-3.1915 -3.0200 -2.0338 0.9808
-1.9105 -3.9568 -2.0338 0.9808
-1.5439 -4.1137 -2.0338 0.9808
-1.3522 -0.1661 -0.6683 0.9939
-1.3293 -0.2876 -0.6671 0.9940
-1.2898 -0.4044 -0.6630 0.9940
-3.8276 -1.5940 -2.0338 0.9817
-3.6673 -1.9346 -2.0338 0.9817
-3.0116 -2.8498 -2.0338 0.9817
-2.7409 -3.1112 -2.0338 0.9817
-2.1340 -3.5550 -2.0338 0.9817
-1.8029 -3.7338 -2.0338 0.9817
-1.0989 -3.9980 -2.0338 0.9817
-1.1939 0.1806 -0.6264 0.9946
-1.1996 0.0712 -0.6234 0.9946
-1.1969 -0.0377 -0.6212 0.9946
-1.1752 -0.2542 -0.6238 0.9946
-1.1157 -0.4647 -0.6270 0.9946
-3.4676 -1.8292 -2.0339 0.9825
-2.8476 -2.6946 -2.0338 0.9825
-2.0177 -3.3614 -2.0338 0.9825
-1.7046 -3.5305 -2.0338 0.9825
-1.3775 -3.6705 -2.0338 0.9825
-1.0391 -3.7803 -2.0338 0.9825
-1.0798 -0.0340 -0.5917 0.9951
-1.0765 -0.1323 -0.5940 0.9951
-2.4547 -2.7863 -2.0338 0.9832
-2.1920 -2.9975 -2.0338 0.9832
-1.9112 -3.1839 -2.0338 0.9832
-1.3048 -3.4766 -2.0339 0.9832
-0.9842 -3.5807 -2.0339 0.9832
-0.9900 -0.0312 -0.5718 0.9954
-0.9861 -0.1212 -0.5736 0.9954
-0.9717 -0.2102 -0.5740 0.9954
-0.9543 -0.2992 -0.5774 0.9954
-2.9539 -1.9194 -2.0339 0.9839
-2.7677 -2.1793 -2.0339 0.9839
-2.5587 -2.4212 -2.0339 0.9839
-2.3286 -2.6433 -2.0339 0.9839
-2.0794 -2.8436 -2.0339 0.9839
-1.5317 -3.1723 -2.0339 0.9839
-1.2378 -3.2982 -2.0339 0.9839
-0.9337 -3.3968 -2.0339 0.9839
