ply
format ascii 1.0
element vertex 198
property float32 x
property float32 y
property float32 z
property float32 I
end_header
3.1737 18.5951 3.3262 0.9262
1.4556 18.7740 2.8847 0.9266
3.2085 18.7995 2.4835 0.9260
1.3555 17.4841 2.2836 0.9317
2.9711 17.4087 1.8964 0.9314
-11.5046 12.4080 1.8170 0.9342
2.9461 17.2619 1.4824 0.9321
1.3982 18.0343 1.1217 0.9301
3.2843 19.2433 0.7698 0.9248
-12.0521 12.9985 -0.0998 0.9315
-12.0262 12.9705 -0.4981 0.9317
-12.0324 12.9772 -0.8975 0.9316
-1.5240 7.6105 -0.7452 0.9693
-2.2018 7.3972 -0.7410 0.9695
-12.1128 13.0639 -1.7104 0.9309
8.7413 14.7253 -2.0341 0.9333
7.3566 15.4637 -2.0341 0.9333
4.4141 16.5456 -2.0341 0.9333
2.8809 16.8801 -2.0341 0.9333
1.3236 17.0729 -2.0341 0.9333
-0.7986 7.5082 -0.8969 0.9700
-1.4766 7.3740 -0.8933 0.9702
-2.1897 7.3566 -0.9118 0.9696
-6.3668 15.8958 -2.0340 0.9333
-9.1579 14.4684 -2.0340 0.9334
-11.6419 12.5561 -2.0339 0.9334
-12.7422 11.4375 -2.0339 0.9334
7.3282 12.3448 -2.0341 0.9437
2.4152 14.1513 -2.0341 0.9437
1.1097 14.3129 -2.0341 0.9437
-0.2052 14.3543 -2.0341 0.9437
-1.4438 7.2102 -1.0419 0.9707
-2.1923 7.3652 -1.0888 0.9694
-5.3375 13.3262 -2.0340 0.9437
-6.5350 12.7815 -2.0340 0.9437
-7.6775 12.1296 -2.0340 0.9437
-10.6825 9.5887 -2.0339 0.9437
7.2482 9.9959 -2.0341 0.9512
6.3027 10.6174 -2.0341 0.9512
4.2614 11.5885 -2.0341 0.9512
3.1827 11.9299 -2.0341 0.9512
2.0773 12.1711 -2.0341 0.9512
0.9544 12.3101 -2.0340 0.9512
-0.1764 12.3457 -2.0340 0.9512
-0.7883 7.4115 -1.2279 0.9702
-5.6205 10.9931 -2.0340 0.9512
-6.6032 10.4323 -2.0340 0.9512
-7.5304 9.7840 -2.0339 0.9512
-8.3944 9.0535 -2.0339 0.9512
5.5240 9.3056 -2.0341 0.9569
2.7895 10.4559 -2.0340 0.9569
1.8206 10.6673 -2.0340 0.9569
0.8365 10.7892 -2.0340 0.9569
-0.1546 10.8204 -2.0340 0.9569
-0.7781 7.3157 -1.3828 0.9705
-1.4370 7.1762 -1.3756 0.9707
-4.0235 10.0454 -2.0340 0.9569
-6.6001 8.5753 -2.0339 0.9569
-7.3573 7.9350 -2.0339 0.9569
-8.0527 7.2281 -2.0339 0.9569
5.6488 7.7902 -2.0340 0.9614
4.9120 8.2746 -2.0340 0.9614
3.3211 9.0313 -2.0340 0.9614
0.7438 9.5938 -2.0340 0.9614
-0.1375 9.6215 -2.0340 0.9614
-0.7740 7.2770 -1.5469 0.9705
-1.4235 7.1089 -1.5325 0.9708
-3.5778 8.9325 -2.0340 0.9614
-5.1462 8.1304 -2.0339 0.9614
-6.5422 7.0558 -2.0339 0.9614
-7.1605 6.4273 -2.0339 0.9614
4.4178 7.4421 -2.0340 0.9651
3.7180 7.8152 -2.0340 0.9651
2.9870 8.1228 -2.0340 0.9651
2.2309 8.3621 -2.0340 0.9651
0.6689 8.6286 -2.0340 0.9651
-1.4875 7.4285 -1.7805 0.9694
-3.2179 8.0338 -2.0340 0.9651
-4.6285 7.3125 -2.0339 0.9651
-5.2784 6.8581 -2.0339 0.9651
2.7113 7.3731 -2.0340 0.9681
-0.1123 7.8549 -2.0340 0.9681
-0.7832 7.3639 -1.9174 0.9699
-2.2411 7.5292 -2.0340 0.9681
-4.2013 6.6376 -2.0339 0.9681
-5.8459 5.2472 -2.0339 0.9681
4.2178 5.8167 -2.0340 0.9706
3.0867 6.4881 -2.0340 0.9706
2.4798 6.7435 -2.0340 0.9706
1.8521 6.9421 -2.0340 0.9706
1.2088 7.0825 -2.0340 0.9706
0.5554 7.1634 -2.0340 0.9706
-0.7599 7.1445 -2.0340 0.9706
-2.0496 6.8862 -2.0340 0.9706
-3.8426 6.0708 -2.0339 0.9706
-4.3821 5.6935 -2.0339 0.9706
-5.3466 4.7992 -2.0339 0.9706
3.3757 5.6865 -2.0340 0.9727
1.7046 6.3895 -2.0340 0.9727
-0.6994 6.5758 -2.0340 0.9727
-2.4588 6.1387 -2.0339 0.9727
-3.0104 5.8878 -2.0339 0.9727
-4.0333 5.2403 -2.0339 0.9727
-4.4960 4.8490 -2.0339 0.9727
2.6287 5.5256 -2.0340 0.9745
2.1118 5.7430 -2.0340 0.9745
1.5773 5.9122 -2.0340 0.9745
-0.6471 6.0846 -2.0340 0.9745
-1.2014 5.9998 -2.0340 0.9745
-1.7456 5.8646 -2.0340 0.9745
-2.2751 5.6802 -2.0339 0.9745
-2.7855 5.4480 -2.0339 0.9745
-4.5535 4.0872 -2.0339 0.9745
3.3389 4.6046 -2.0340 0.9761
2.4435 5.1362 -2.0340 0.9761
0.9569 5.6066 -2.0340 0.9761
0.4397 5.6707 -2.0340 0.9761
-1.1168 5.5770 -2.0340 0.9761
-2.1148 5.2798 -2.0339 0.9761
-2.5892 5.0641 -2.0339 0.9761
-3.4690 4.5072 -2.0339 0.9761
-3.8670 4.1707 -2.0339 0.9761
-4.2325 3.7992 -2.0339 0.9761
3.1157 4.2969 -2.0340 0.9775
2.7093 4.5640 -2.0340 0.9775
-0.0759 5.3070 -2.0340 0.9775
-1.0421 5.2042 -2.0339 0.9775
-1.5141 5.0870 -2.0339 0.9775
-1.9734 4.9270 -2.0339 0.9775
-2.4162 4.7256 -2.0339 0.9775
-2.8386 4.4846 -2.0339 0.9775
-3.9497 3.5453 -2.0339 0.9775
2.9174 4.0233 -2.0340 0.9787
2.5368 4.2734 -2.0340 0.9787
2.1350 4.4877 -2.0340 0.9787
0.3842 4.9548 -2.0340 0.9787
-0.0711 4.9691 -2.0340 0.9787
-1.8478 4.6133 -2.0339 0.9788
-2.6579 4.1991 -2.0339 0.9788
-3.0311 3.9382 -2.0339 0.9788
-3.3788 3.6442 -2.0339 0.9788
-3.6982 3.3196 -2.0339 0.9788
2.7396 3.7782 -2.0340 0.9798
2.3823 4.0132 -2.0340 0.9798
2.0049 4.2144 -2.0340 0.9798
0.7852 4.6005 -2.0340 0.9798
0.3607 4.6530 -2.0340 0.9798
-0.0667 4.6665 -2.0340 0.9798
-3.1731 3.4222 -2.0339 0.9798
-3.4730 3.1174 -2.0339 0.9798
2.5795 3.5573 -2.0340 0.9808
1.5166 4.1241 -2.0340 0.9808
1.1327 4.2456 -2.0340 0.9808
-1.2535 4.2114 -2.0339 0.9808
-2.0003 3.9123 -2.0339 0.9808
-2.3500 3.7128 -2.0339 0.9808
-2.6800 3.4821 -2.0339 0.9808
-2.9875 3.2221 -2.0339 0.9808
2.4341 3.3569 -2.0340 0.9817
1.7813 3.7444 -2.0340 0.9817
1.0689 4.0064 -2.0340 0.9817
0.3205 4.1341 -2.0339 0.9817
-0.0593 4.1460 -2.0339 0.9817
-0.4386 4.1232 -2.0339 0.9817
-0.8141 4.0657 -2.0339 0.9817
-1.1829 3.9742 -2.0339 0.9817
-2.2176 3.5036 -2.0339 0.9817
-2.8192 3.0405 -2.0339 0.9817
-3.0856 2.7697 -2.0339 0.9817
2.0013 3.3714 -2.0340 0.9825
1.3531 3.6797 -2.0340 0.9825
1.0106 3.7881 -2.0340 0.9825
-0.7698 3.8443 -2.0339 0.9825
-1.7848 3.4908 -2.0339 0.9825
-2.0968 3.3127 -2.0339 0.9825
-2.6656 2.8749 -2.0339 0.9825
1.8956 3.1933 -2.0340 0.9832
1.5954 3.3534 -2.0340 0.9832
1.2817 3.4854 -2.0340 0.9832
0.2871 3.7025 -2.0339 0.9832
-0.0530 3.7132 -2.0339 0.9832
-0.3928 3.6927 -2.0339 0.9832
-0.7291 3.6413 -2.0339 0.9832
-1.3807 3.4473 -2.0339 0.9832
-1.6905 3.3064 -2.0339 0.9832
-2.2650 2.9428 -2.0339 0.9832
-2.7635 2.4805 -2.0339 0.9832
2.0680 2.8520 -2.0340 0.9839
1.7982 3.0293 -2.0339 0.9839
1.5135 3.1812 -2.0339 0.9839
1.2159 3.3064 -2.0339 0.9839
0.5928 3.4727 -2.0339 0.9839
0.2723 3.5123 -2.0339 0.9839
-0.0504 3.5225 -2.0339 0.9839
-1.6037 3.1366 -2.0339 0.9839
-1.8841 2.9766 -2.0339 0.9839
-2.1487 2.7917 -2.0339 0.9839
-2.3952 2.5833 -2.0339 0.9839
