ply
format ascii 1.0
element vertex 183
property float32 x
property float32 y
property float32 z
property float32 I
end_header
16.2834 -3.8058 -1.2261 0.9351
15.6965 -6.8420 -2.0340 0.9334
16.2520 -5.3918 -2.0340 0.9334
16.9586 -2.3704 -2.0340 0.9333
17.1037 -0.8241 -2.0340 0.9333
17.1082 0.7290 -2.0341 0.9333
16.6960 3.8045 -2.0341 0.9333
8.2860 -11.7212 -2.0338 0.9437
10.2654 -10.0336 -2.0339 0.9437
11.1323 -9.0623 -2.0339 0.9437
13.1592 -5.7360 -2.0339 0.9437
13.6249 -4.5202 -2.0340 0.9437
13.9785 -3.2671 -2.0340 0.9437
14.2171 -1.9872 -2.0340 0.9437
14.2283 1.9081 -2.0340 0.9437
13.9970 3.1895 -2.0341 0.9437
7.1267 -10.0813 -2.0338 0.9512
8.0109 -9.3942 -2.0339 0.9512
10.2416 -6.8948 -2.0339 0.9512
10.8243 -5.9386 -2.0339 0.9512
11.7185 -3.8877 -2.0340 0.9512
12.0226 -2.8100 -2.0340 0.9512
12.2279 -1.7092 -2.0340 0.9512
12.3357 0.5256 -2.0340 0.9512
7.0211 -8.2336 -2.0339 0.9569
7.7384 -7.5636 -2.0339 0.9569
8.9763 -6.0430 -2.0339 0.9569
9.4870 -5.2049 -2.0339 0.9569
10.7171 -1.4980 -2.0340 0.9569
10.7254 1.4384 -2.0340 0.9569
10.5511 2.4042 -2.0340 0.9569
6.2433 -7.3214 -2.0339 0.9614
6.8809 -6.7256 -2.0339 0.9614
7.4621 -6.0746 -2.0339 0.9614
8.8206 -3.8449 -2.0339 0.9614
9.5371 1.2790 -2.0340 0.9614
9.1497 2.9791 -2.0340 0.9614
8.8422 3.7959 -2.0340 0.9614
8.4620 4.5814 -2.0340 0.9614
4.9955 -7.0665 -2.0339 0.9651
5.6152 -6.5848 -2.0339 0.9651
6.1887 -6.0490 -2.0339 0.9651
8.4272 -1.9697 -2.0340 0.9651
8.5710 -1.1980 -2.0340 0.9651
8.6443 -0.4165 -2.0340 0.9651
8.4382 1.9228 -2.0340 0.9651
8.2293 2.6794 -2.0340 0.9651
7.6107 4.1205 -2.0340 0.9651
5.0970 -5.9772 -2.0339 0.9681
5.6176 -5.4908 -2.0339 0.9681
6.0920 -4.9592 -2.0339 0.9681
6.5163 -4.3869 -2.0339 0.9681
7.6494 -1.7879 -2.0339 0.9681
7.7800 -1.0874 -2.0340 0.9681
7.8465 -0.3781 -2.0340 0.9681
7.7860 1.0442 -2.0340 0.9681
7.4698 2.4321 -2.0340 0.9681
6.9082 3.7402 -2.0340 0.9681
4.6617 -5.4667 -2.0339 0.9706
6.5862 -2.8709 -2.0339 0.9706
6.9962 -1.6352 -2.0339 0.9706
7.1156 -0.9946 -2.0340 0.9706
7.1764 -0.3458 -2.0340 0.9706
7.1783 0.3059 -2.0340 0.9706
7.1211 0.9550 -2.0340 0.9706
6.6022 2.8343 -2.0340 0.9706
6.3183 3.4208 -2.0340 0.9706
3.8171 -5.3996 -2.0339 0.9727
4.7289 -4.6221 -2.0339 0.9727
5.1282 -4.1747 -2.0339 0.9727
6.0619 -2.6423 -2.0339 0.9727
6.2764 -2.0822 -2.0339 0.9727
6.4393 -1.5050 -2.0339 0.9727
6.6052 -0.3183 -2.0340 0.9727
6.5542 0.8790 -2.0340 0.9727
6.4476 1.4692 -2.0340 0.9727
6.0766 2.6086 -2.0340 0.9727
5.8152 3.1485 -2.0340 0.9727
4.7452 -3.8629 -2.0339 0.9745
5.0757 -3.4171 -2.0339 0.9745
5.6091 -2.4450 -2.0339 0.9745
5.8076 -1.9267 -2.0339 0.9745
6.1118 -0.2945 -2.0339 0.9745
6.1134 0.2605 -2.0340 0.9745
6.0646 0.8133 -2.0340 0.9745
5.8183 1.8944 -2.0340 0.9745
5.6228 2.4138 -2.0340 0.9745
3.2831 -4.6442 -2.0339 0.9761
3.6904 -4.3276 -2.0339 0.9761
4.0673 -3.9755 -2.0339 0.9761
4.7180 -3.1763 -2.0339 0.9761
4.9864 -2.7357 -2.0339 0.9761
5.6329 -0.7874 -2.0339 0.9761
5.6825 0.2421 -2.0340 0.9761
5.5455 1.2637 -2.0340 0.9761
5.2265 2.2437 -2.0340 0.9761
5.0017 2.7080 -2.0340 0.9761
3.0636 -4.3338 -2.0339 0.9775
4.4027 -2.9640 -2.0339 0.9775
4.8654 -2.1208 -2.0339 0.9775
5.1682 -1.2079 -2.0339 0.9775
5.2564 -0.7347 -2.0339 0.9775
5.1749 1.1792 -2.0340 0.9775
4.8772 2.0937 -2.0340 0.9775
2.8686 -4.0579 -2.0339 0.9788
3.8539 -3.1373 -2.0339 0.9788
4.1224 -2.7753 -2.0339 0.9788
4.5556 -1.9858 -2.0339 0.9788
4.7168 -1.5649 -2.0339 0.9788
4.8392 -1.1311 -2.0339 0.9788
4.9652 0.2115 -2.0339 0.9787
4.9255 0.6605 -2.0340 0.9787
4.8454 1.1041 -2.0340 0.9788
4.3703 2.3661 -2.0340 0.9787
3.0281 -3.5510 -2.0339 0.9798
3.8714 -2.6063 -2.0339 0.9798
4.0916 -2.2448 -2.0339 0.9798
4.2782 -1.8648 -2.0339 0.9798
4.5445 -1.0622 -2.0339 0.9798
4.6220 -0.6461 -2.0339 0.9798
4.6615 -0.2246 -2.0339 0.9798
4.6627 0.1987 -2.0339 0.9798
4.6256 0.6203 -2.0339 0.9798
4.4377 1.4449 -2.0340 0.9798
4.2886 1.8410 -2.0340 0.9798
2.5364 -3.5879 -2.0339 0.9808
2.8511 -3.3434 -2.0339 0.9808
3.1423 -3.0713 -2.0339 0.9808
3.6450 -2.4538 -2.0339 0.9808
3.8523 -2.1135 -2.0339 0.9808
4.0280 -1.7558 -2.0339 0.9808
4.3518 -0.6083 -2.0339 0.9808
4.3890 -0.2115 -2.0339 0.9808
4.3901 0.1871 -2.0339 0.9808
4.3551 0.5840 -2.0339 0.9808
4.2843 0.9762 -2.0339 0.9808
4.1782 1.3604 -2.0340 0.9808
4.0378 1.7333 -2.0340 0.9808
2.3935 -3.3858 -2.0339 0.9817
3.8011 -1.6568 -2.0339 0.9817
3.9355 -1.3057 -2.0339 0.9817
4.0377 -0.9437 -2.0339 0.9817
4.1065 -0.5740 -2.0339 0.9817
4.1417 -0.1996 -2.0339 0.9817
4.1427 0.1765 -2.0339 0.9817
4.0429 0.9212 -2.0339 0.9817
3.9428 1.2837 -2.0339 0.9817
3.6464 1.9742 -2.0340 0.9817
2.2631 -3.2014 -2.0339 0.9825
2.8038 -2.7404 -2.0339 0.9825
3.0405 -2.4751 -2.0339 0.9825
3.2523 -2.1894 -2.0339 0.9825
3.8177 -0.8923 -2.0339 0.9825
2.0939 -0.2927 -1.0968 0.9905
2.0780 -0.1001 -1.0793 0.9907
2.0776 0.0885 -1.0788 0.9907
2.0918 0.2805 -1.0949 0.9905
2.1345 0.4864 -1.1357 0.9902
3.6027 1.5466 -2.0339 0.9825
2.1436 -3.0323 -2.0339 0.9832
2.4095 -2.8256 -2.0339 0.9832
2.6557 -2.5957 -2.0339 0.9832
2.8799 -2.3444 -2.0339 0.9832
3.0805 -2.0738 -2.0339 0.9832
3.2557 -1.7862 -2.0339 0.9832
3.4042 -1.4839 -2.0339 0.9832
1.8929 -0.6280 -1.0923 0.9909
1.8576 -0.4342 -1.0448 0.9913
1.8459 -0.2580 -1.0208 0.9915
1.8528 -0.0893 -1.0159 0.9916
1.8448 0.2474 -1.0195 0.9915
1.8575 0.4232 -1.0435 0.9913
1.8893 0.6151 -1.0883 0.9910
3.2657 1.7681 -2.0339 0.9832
2.5193 -2.4624 -2.0339 0.9839
2.7321 -2.2240 -2.0339 0.9839
2.9223 -1.9673 -2.0339 0.9839
3.0886 -1.6945 -2.0339 0.9839
1.7242 -0.5721 -1.0488 0.9916
1.7134 -0.2395 -0.9988 0.9920
1.7143 0.2299 -0.9986 0.9920
1.7149 0.3907 -1.0155 0.9919
1.7230 0.5610 -1.0461 0.9917
