ply
format ascii 1.0
element vertex 210
property float32 x
property float32 y
property float32 z
property float32 I
end_header
2.9548 18.5606 3.3139 0.9265
1.2738 18.2893 2.8086 0.9285
-11.3598 12.8088 2.6228 0.9331
2.9178 18.3285 2.4168 0.9279
-12.6757 11.9738 2.2706 0.9321
-11.3209 12.7648 1.8321 0.9337
-12.8239 12.1139 1.8943 0.9315
1.3215 18.9750 1.6102 0.9265
-12.7175 12.0134 1.4810 0.9322
1.3177 18.9216 1.1762 0.9268
-12.0119 13.5439 1.1226 0.9300
1.3105 18.8170 0.7438 0.9273
2.8366 17.8184 0.3048 0.9304
2.9408 18.4730 -0.1053 0.9279
-0.8302 7.7183 -0.7453 0.9693
-1.5143 7.6469 -0.7484 0.9692
-2.1607 7.4072 -0.7408 0.9695
5.6227 16.1749 -2.0341 0.9333
4.1736 16.6078 -2.0341 0.9333
2.6922 16.9112 -2.0341 0.9333
1.1897 17.0827 -2.0341 0.9333
-0.8072 7.5047 -0.8966 0.9701
-6.2266 15.9512 -2.0340 0.9333
-8.9332 14.6082 -2.0340 0.9334
-12.4471 11.7580 -2.0339 0.9334
-14.3197 9.3871 -2.0339 0.9334
-15.0919 8.0871 -2.0339 0.9334
-15.7464 6.7239 -2.0338 0.9334
-16.2780 5.3085 -2.0338 0.9334
4.7137 13.5601 -2.0341 0.9437
3.4990 13.9230 -2.0341 0.9437
0.9974 14.3212 -2.0341 0.9437
-1.4337 7.2404 -1.0458 0.9706
-2.1215 7.2727 -1.0734 0.9699
-5.2201 13.3727 -2.0340 0.9437
-6.3795 12.8599 -2.0340 0.9437
-8.5403 11.5382 -2.0340 0.9437
-10.4351 9.8574 -2.0339 0.9437
-12.0050 7.8697 -2.0339 0.9437
-12.6524 6.7798 -2.0339 0.9437
-13.2011 5.6371 -2.0339 0.9437
3.0094 11.9748 -2.0341 0.9512
1.9412 12.1936 -2.0341 0.9512
0.8578 12.3172 -2.0340 0.9512
-0.2322 12.3448 -2.0340 0.9512
-0.7974 7.4139 -1.2284 0.9702
-4.4897 11.5015 -2.0340 0.9512
-6.4412 10.5332 -2.0340 0.9512
-7.3453 9.9238 -2.0339 0.9512
-8.1921 9.2370 -2.0339 0.9512
-8.9750 8.4782 -2.0339 0.9512
-9.6880 7.6532 -2.0339 0.9512
-10.3254 6.7686 -2.0339 0.9512
-11.7375 3.8278 -2.0338 0.9512
3.5533 10.2217 -2.0340 0.9569
2.6375 10.4953 -2.0340 0.9569
1.7013 10.6870 -2.0340 0.9569
0.7519 10.7954 -2.0340 0.9569
-2.0680 7.0893 -1.3881 0.9704
-5.6454 9.2318 -2.0340 0.9569
-6.4378 8.6977 -2.0339 0.9569
-7.1800 8.0958 -2.0339 0.9569
-7.8662 7.4307 -2.0339 0.9569
-8.4911 6.7077 -2.0339 0.9569
-10.2874 3.3548 -2.0338 0.9569
3.1595 9.0891 -2.0340 0.9614
2.3453 9.3324 -2.0340 0.9614
1.5128 9.5029 -2.0340 0.9614
0.6686 9.5993 -2.0340 0.9614
-0.1810 9.6208 -2.0340 0.9614
-2.0307 6.9613 -1.5328 0.9708
-3.4990 8.9636 -2.0340 0.9614
-6.9947 6.6074 -2.0339 0.9614
-7.5503 5.9646 -2.0339 0.9614
1.3606 8.5469 -2.0340 0.9651
-0.1627 8.6529 -2.0340 0.9651
-3.1470 8.0619 -2.0340 0.9651
-3.8459 7.7528 -2.0340 0.9651
-4.5149 7.3832 -2.0339 0.9651
-7.9587 3.3985 -2.0339 0.9651
-8.2274 2.6831 -2.0339 0.9651
1.9146 7.6189 -2.0340 0.9681
-2.1998 7.5413 -2.0340 0.9681
-2.8566 7.3178 -2.0340 0.9681
-3.4910 7.0372 -2.0339 0.9681
-4.0982 6.7018 -2.0339 0.9681
-7.2242 3.0849 -2.0339 0.9681
2.3591 6.7866 -2.0340 0.9706
1.7511 6.9682 -2.0340 0.9706
1.1296 7.0955 -2.0340 0.9706
-0.1351 7.1836 -2.0340 0.9706
-3.1929 6.4363 -2.0339 0.9706
-4.7672 5.3752 -2.0339 0.9706
-5.2228 4.9336 -2.0339 0.9706
-5.6377 4.4536 -2.0339 0.9706
-6.0086 3.9388 -2.0339 0.9706
2.1713 6.2462 -2.0340 0.9727
1.0396 6.5307 -2.0340 0.9727
-1.2845 6.4869 -2.0340 0.9727
-1.8518 6.3482 -2.0340 0.9727
-2.4046 6.1601 -2.0339 0.9727
-2.9387 5.9239 -2.0339 0.9727
-3.4499 5.6415 -2.0339 0.9727
-3.9341 5.3151 -2.0339 0.9727
-4.8070 4.5409 -2.0339 0.9727
-5.8285 3.1232 -2.0339 0.9727
-6.0813 2.5968 -2.0339 0.9727
-6.2867 2.0502 -2.0339 0.9727
2.0091 5.7797 -2.0340 0.9745
0.9620 6.0429 -2.0340 0.9745
-2.2250 5.7000 -2.0339 0.9745
-3.1922 5.2201 -2.0339 0.9745
-4.4480 4.2017 -2.0339 0.9745
-5.1172 3.3545 -2.0339 0.9745
-5.3932 2.8900 -2.0339 0.9745
1.8676 5.3724 -2.0340 0.9761
-0.1070 5.6867 -2.0340 0.9761
-2.0682 5.2983 -2.0339 0.9761
-2.9672 4.8523 -2.0339 0.9761
-3.7739 4.2552 -2.0339 0.9761
-4.1345 3.9056 -2.0339 0.9761
-4.4630 3.5256 -2.0339 0.9761
-5.4071 1.7633 -2.0339 0.9761
1.2936 5.1475 -2.0340 0.9775
0.3687 5.2947 -2.0340 0.9775
-0.5676 5.2771 -2.0340 0.9775
-1.4863 5.0952 -2.0339 0.9775
-1.9300 4.9442 -2.0339 0.9775
-2.3587 4.7546 -2.0339 0.9775
-3.1576 4.2660 -2.0339 0.9775
-3.5216 3.9708 -2.0339 0.9775
-4.6781 2.5068 -2.0339 0.9775
-4.8810 2.0843 -2.0339 0.9775
-5.0458 1.6455 -2.0339 0.9775
1.2112 4.8198 -2.0340 0.9787
0.7813 4.9079 -2.0340 0.9787
0.3453 4.9576 -2.0340 0.9787
-0.0934 4.9688 -2.0340 0.9787
-0.5314 4.9411 -2.0340 0.9788
-1.3916 4.7708 -2.0339 0.9788
-2.9566 3.9944 -2.0339 0.9788
-3.2974 3.7180 -2.0339 0.9788
-4.1561 2.7245 -2.0339 0.9788
-4.7246 1.5408 -2.0339 0.9788
1.5324 4.4082 -2.0340 0.9798
0.7337 4.6090 -2.0340 0.9798
-0.4991 4.6402 -2.0339 0.9798
-1.3069 4.4802 -2.0339 0.9798
-2.0740 4.1807 -2.0339 0.9798
-2.7765 3.7512 -2.0339 0.9798
-3.0966 3.4915 -2.0339 0.9798
-3.6621 2.8929 -2.0339 0.9798
-3.9030 2.5585 -2.0339 0.9798
-4.1135 2.2042 -2.0339 0.9798
-4.4368 1.4469 -2.0339 0.9798
1.0710 4.2616 -2.0340 0.9808
0.6908 4.3394 -2.0340 0.9808
-0.0826 4.3933 -2.0339 0.9808
-0.8535 4.3103 -2.0339 0.9808
-1.9527 3.9363 -2.0339 0.9808
-2.6141 3.5318 -2.0339 0.9808
-2.9155 3.2874 -2.0339 0.9808
-3.1942 3.0173 -2.0339 0.9808
-3.4479 2.7237 -2.0339 0.9808
-4.0409 1.7255 -2.0339 0.9808
-1.6274 0.5307 -0.7924 0.9925
1.3615 3.9166 -2.0340 0.9817
1.0106 4.0214 -2.0340 0.9817
0.2881 4.1364 -2.0339 0.9817
-0.0780 4.1457 -2.0339 0.9817
-0.4434 4.1227 -2.0339 0.9817
-0.8054 4.0675 -2.0339 0.9817
-1.5078 3.8626 -2.0339 0.9817
-2.4668 3.3328 -2.0339 0.9817
-3.0142 2.8473 -2.0339 0.9817
-3.2536 2.5703 -2.0339 0.9817
0.2724 3.9112 -2.0339 0.9825
-0.4193 3.8981 -2.0339 0.9825
-0.7616 3.8460 -2.0339 0.9825
-1.0979 3.7637 -2.0339 0.9825
-1.4257 3.6522 -2.0339 0.9825
-2.0454 3.3447 -2.0339 0.9825
-2.8500 2.6922 -2.0339 0.9825
-3.4557 1.8517 -2.0339 0.9825
-1.1121 0.4749 -0.6273 0.9946
-1.1403 0.3718 -0.6222 0.9946
0.9052 3.6016 -2.0339 0.9832
0.2580 3.7046 -2.0339 0.9832
-1.0399 3.5650 -2.0339 0.9832
-1.3504 3.4593 -2.0339 0.9832
-1.6503 3.3267 -2.0339 0.9832
-2.4640 2.7783 -2.0339 0.9832
-2.6995 2.5501 -2.0339 0.9832
-2.9139 2.3020 -2.0339 0.9832
-3.1057 2.0359 -2.0339 0.9832
-3.2732 1.7540 -2.0339 0.9832
-1.0048 0.4291 -0.5984 0.9950
-1.0311 0.3362 -0.5940 0.9951
1.1567 3.3276 -2.0339 0.9839
0.5539 3.4791 -2.0339 0.9839
-0.0662 3.5223 -2.0339 0.9839
-0.3767 3.5027 -2.0339 0.9839
-0.9865 3.3819 -2.0339 0.9839
-1.2811 3.2817 -2.0339 0.9839
-1.8379 3.0054 -2.0339 0.9839
-2.0958 2.8315 -2.0339 0.9839
-2.5609 2.4191 -2.0339 0.9839
-0.9028 0.4837 -0.5913 0.9953
-0.9317 0.3978 -0.5849 0.9953
-0.9524 0.3106 -0.5784 0.9954
