ply
format ascii 1.0
element vertex 193
property float32 x
property float32 y
property float32 z
property float32 I
end_header
13.5291 9.5047 -0.8385 0.9359
16.9449 -4.6745 -1.2888 0.9319
17.5693 -3.2154 -1.3096 0.9309
13.4383 9.4409 -1.2042 0.9363
16.3642 -4.5143 -1.6297 0.9341
17.9934 -3.2930 -1.7561 0.9291
13.1133 9.2126 -1.5386 0.9376
17.1235 -0.0803 -2.0340 0.9333
17.0642 1.4277 -2.0341 0.9333
16.8723 2.9246 -2.0341 0.9333
16.0979 5.8388 -2.0341 0.9333
14.8243 8.5721 -2.0341 0.9333
13.1614 9.2464 -1.9106 0.9373
12.0682 12.1493 -2.0341 0.9333
9.7500 14.0778 -2.0341 0.9333
7.1295 15.5697 -2.0341 0.9333
5.7309 16.1369 -2.0341 0.9333
14.2936 -1.3310 -2.0340 0.9437
14.3554 -0.0673 -2.0340 0.9437
13.8741 3.6877 -2.0341 0.9437
10.9747 9.2548 -2.0341 0.9437
10.1173 10.1852 -2.0341 0.9437
8.1739 11.8019 -2.0341 0.9437
7.1030 12.4758 -2.0341 0.9437
11.9020 -3.2833 -2.0340 0.9512
12.1450 -2.2227 -2.0340 0.9512
12.1655 2.1087 -2.0340 0.9512
11.9327 3.1717 -2.0340 0.9512
11.6071 4.2100 -2.0340 0.9512
10.1032 7.0979 -2.0341 0.9512
9.4390 7.9598 -2.0341 0.9512
6.1091 10.7300 -2.0341 0.9512
5.1406 11.2262 -2.0341 0.9512
4.1322 11.6352 -2.0341 0.9512
10.6445 -1.9481 -2.0340 0.9569
10.6625 1.8482 -2.0340 0.9569
10.4584 2.7798 -2.0340 0.9569
10.1730 3.6898 -2.0340 0.9569
9.3682 5.4171 -2.0340 0.9569
8.8548 6.2209 -2.0340 0.9569
7.6264 7.6777 -2.0341 0.9569
6.9208 8.3193 -2.0341 0.9569
5.3543 9.4043 -2.0341 0.9569
9.6223 -0.0451 -2.0340 0.9614
9.5889 0.8023 -2.0340 0.9614
9.0459 3.2810 -2.0340 0.9614
8.7219 4.0647 -2.0340 0.9614
6.1539 7.3975 -2.0340 0.9614
5.4787 7.9106 -2.0340 0.9614
4.0062 8.7490 -2.0340 0.9614
3.2204 9.0677 -2.0340 0.9614
8.5129 -1.5579 -2.0340 0.9651
8.6171 -0.8024 -2.0340 0.9651
8.6243 0.7215 -2.0340 0.9651
8.3641 2.2232 -2.0340 0.9651
8.1359 2.9509 -2.0340 0.9651
6.6161 5.5793 -2.0340 0.9651
5.5349 6.6533 -2.0340 0.9651
4.9276 7.1148 -2.0340 0.9651
4.2820 7.5210 -2.0340 0.9651
7.7273 -1.4142 -2.0340 0.9681
7.8218 -0.7283 -2.0340 0.9681
7.8556 -0.0368 -2.0340 0.9681
7.8284 0.6550 -2.0340 0.9681
7.5921 2.0179 -2.0340 0.9681
7.3850 2.6786 -2.0340 0.9681
6.8007 3.9324 -2.0340 0.9681
6.4281 4.5159 -2.0340 0.9681
6.0055 5.0644 -2.0340 0.9681
3.8868 6.8269 -2.0340 0.9681
3.2707 7.1426 -2.0340 0.9681
2.6291 7.4028 -2.0340 0.9681
7.1538 -0.6661 -2.0340 0.9706
7.1848 -0.0337 -2.0340 0.9706
7.1598 0.5990 -2.0340 0.9706
7.0793 1.2271 -2.0340 0.9706
6.5124 3.0350 -2.0340 0.9706
5.4926 4.6319 -2.0340 0.9706
2.4046 6.7706 -2.0340 0.9706
6.3746 -1.7585 -2.0339 0.9727
6.3910 1.6987 -2.0340 0.9727
5.7247 3.3103 -2.0340 0.9727
5.4111 3.8014 -2.0340 0.9727
3.7652 5.4364 -2.0340 0.9727
2.2131 6.2316 -2.0340 0.9727
5.8986 -1.6272 -2.0339 0.9745
6.0189 -1.1015 -2.0339 0.9745
6.0925 -0.5673 -2.0339 0.9745
6.1189 -0.0287 -2.0340 0.9745
6.0976 0.5101 -2.0340 0.9745
5.2971 3.0630 -2.0340 0.9745
5.0069 3.5175 -2.0340 0.9745
4.6777 3.9447 -2.0340 0.9745
4.3122 4.3412 -2.0340 0.9745
3.9133 4.7041 -2.0340 0.9745
3.4839 5.0303 -2.0340 0.9745
2.5476 5.5634 -2.0340 0.9745
5.4829 -1.5125 -2.0339 0.9761
5.5947 -1.0239 -2.0339 0.9761
5.3469 1.9393 -2.0340 0.9761
5.1554 2.4026 -2.0340 0.9761
4.9239 2.8472 -2.0340 0.9761
4.6540 3.2696 -2.0340 0.9761
4.3481 3.6667 -2.0340 0.9761
4.0084 4.0353 -2.0340 0.9761
3.6375 4.3725 -2.0340 0.9761
3.2384 4.6758 -2.0340 0.9761
2.8141 4.9428 -2.0340 0.9761
2.3680 5.1713 -2.0340 0.9761
1.9035 5.3597 -2.0340 0.9761
5.1164 -1.4114 -2.0339 0.9775
5.2891 0.4425 -2.0340 0.9775
4.8108 2.2420 -2.0340 0.9775
4.5948 2.6569 -2.0340 0.9775
4.3430 3.0511 -2.0340 0.9775
4.0575 3.4216 -2.0340 0.9775
3.7405 3.7656 -2.0340 0.9775
3.3945 4.0803 -2.0340 0.9775
3.0220 4.3633 -2.0340 0.9775
2.6260 4.6124 -2.0340 0.9775
2.2097 4.8257 -2.0340 0.9775
4.7907 -1.3216 -2.0339 0.9788
4.9482 -0.4608 -2.0339 0.9787
4.6719 1.6945 -2.0340 0.9787
4.5045 2.0993 -2.0340 0.9787
4.3022 2.4877 -2.0340 0.9787
3.7992 3.2038 -2.0340 0.9787
3.1783 3.8205 -2.0340 0.9787
1.6632 4.6831 -2.0340 0.9787
4.4989 -1.2411 -2.0339 0.9798
4.5907 -0.8402 -2.0339 0.9798
4.6468 -0.4327 -2.0339 0.9798
4.6669 -0.0219 -2.0339 0.9798
4.5984 0.7971 -2.0339 0.9798
4.5104 1.1988 -2.0340 0.9798
4.3873 1.5913 -2.0340 0.9798
4.2302 1.9714 -2.0340 0.9798
3.8188 2.6829 -2.0340 0.9798
3.5678 3.0087 -2.0340 0.9798
3.2890 3.3111 -2.0340 0.9798
2.6572 3.8367 -2.0340 0.9798
2.3091 4.0557 -2.0340 0.9798
1.9430 4.2433 -2.0340 0.9798
1.5620 4.3979 -2.0340 0.9798
4.2358 -1.1685 -2.0339 0.9808
4.3940 -0.0206 -2.0339 0.9808
3.8039 2.1996 -2.0340 0.9808
3.5955 2.5260 -2.0340 0.9808
2.5018 3.6123 -2.0340 0.9808
1.8294 3.9952 -2.0340 0.9808
1.4706 4.1407 -2.0340 0.9808
4.0787 -0.7465 -2.0339 0.9817
4.1464 -0.0195 -2.0339 0.9817
4.1320 0.3457 -2.0339 0.9817
4.0073 1.0651 -2.0339 0.9817
3.8980 1.4138 -2.0339 0.9817
3.5896 2.0757 -2.0340 0.9817
3.3929 2.3836 -2.0340 0.9817
2.9222 2.9418 -2.0340 0.9817
2.6518 3.1877 -2.0340 0.9817
1.7264 3.7700 -2.0340 0.9817
1.3877 3.9074 -2.0340 0.9817
2.1044 -0.3851 -1.1098 0.9904
2.1029 0.3645 -1.1072 0.9904
2.7630 2.7816 -2.0340 0.9825
2.5074 3.0141 -2.0340 0.9825
1.9398 3.4071 -2.0340 0.9825
1.6323 3.5647 -2.0340 0.9825
1.8649 -0.5145 -1.0596 0.9912
1.8500 -0.1723 -1.0177 0.9916
1.8505 -0.0087 -1.0135 0.9916
1.8511 0.1548 -1.0174 0.9916
1.8605 0.4945 -1.0544 0.9913
3.4911 1.2662 -2.0339 0.9832
3.3660 1.5687 -2.0339 0.9832
3.2148 1.8589 -2.0339 0.9832
2.8389 2.3940 -2.0340 0.9832
2.6171 2.6347 -2.0340 0.9832
2.3750 2.8549 -2.0340 0.9832
2.1144 3.0529 -2.0340 0.9832
1.8374 3.2272 -2.0340 0.9832
1.5461 3.3764 -2.0340 0.9832
1.2429 3.4994 -2.0340 0.9832
1.7116 -0.4722 -1.0251 0.9918
1.7139 -0.3137 -1.0059 0.9920
1.7209 -0.1603 -0.9978 0.9920
1.7246 -0.0081 -0.9957 0.9921
1.7141 0.2971 -1.0044 0.9920
1.7223 0.6247 -1.0577 0.9916
3.1932 1.4882 -2.0339 0.9839
2.8827 2.0252 -2.0339 0.9839
2.6931 2.2711 -2.0339 0.9839
2.4827 2.4994 -2.0339 0.9839
