ply
format ascii 1.0
element vertex 199
property float32 x
property float32 y
property float32 z
property float32 I
end_header
-13.0623 12.8175 3.2269 0.9284
-11.4459 13.4472 2.7052 0.9310
-12.2592 12.0294 2.6312 0.9329
-12.0637 11.8375 1.8149 0.9343
-12.5560 12.3206 1.4891 0.9318
1.7950 17.5419 1.0935 0.9318
-12.7889 12.5491 1.1111 0.9307
1.9241 18.8034 0.7453 0.9271
-12.4886 14.6722 0.7597 0.9258
2.0305 19.8440 0.3370 0.9233
-16.4689 5.5954 -0.8821 0.9327
-16.2444 5.5191 -1.2579 0.9335
-1.3382 7.9349 -0.7726 0.9682
-1.9542 7.4427 -0.7388 0.9696
-16.0630 5.4575 -1.6287 0.9341
1.7431 17.0352 -2.0341 0.9333
0.2104 17.1227 -2.0341 0.9333
-1.2673 7.5146 -0.9052 0.9698
-5.8144 16.1061 -2.0340 0.9333
-7.2335 15.5204 -2.0340 0.9334
-8.5943 14.8101 -2.0340 0.9334
-9.8861 13.9807 -2.0340 0.9334
-12.2215 11.9924 -2.0339 0.9334
-13.2464 10.8495 -2.0339 0.9334
-14.1647 9.6194 -2.0339 0.9334
-15.6533 6.9379 -2.0338 0.9334
-16.2116 5.5079 -2.0338 0.9334
1.4614 14.2813 -2.0341 0.9437
0.1764 14.3547 -2.0341 0.9437
-1.2537 7.4337 -1.0682 0.9700
-4.8745 13.5025 -2.0340 0.9437
-6.0641 13.0115 -2.0340 0.9437
-8.2880 11.7207 -2.0340 0.9437
-9.3044 10.9312 -2.0339 0.9437
-10.2460 10.0539 -2.0339 0.9437
-11.1052 9.0957 -2.0339 0.9437
-11.8751 8.0645 -2.0339 0.9437
-13.1231 5.8164 -2.0339 0.9437
-13.5912 4.6177 -2.0338 0.9437
0.1517 12.3461 -2.0340 0.9512
-0.5845 7.5367 -1.2453 0.9698
-1.2291 7.2879 -1.2176 0.9705
-2.6939 7.4621 -1.3070 0.9683
-5.2156 11.1910 -2.0340 0.9512
-6.1969 10.6788 -2.0340 0.9512
-8.0026 9.4017 -2.0339 0.9512
-8.8124 8.6471 -2.0339 0.9512
-9.5514 7.8231 -2.0339 0.9512
-10.7936 5.9935 -2.0339 0.9512
-11.2870 5.0026 -2.0339 0.9512
-11.6896 3.9716 -2.0338 0.9512
0.1330 10.8207 -2.0340 0.9569
-0.5932 7.6494 -1.4421 0.9693
-1.8439 7.0230 -1.3648 0.9709
-2.6830 7.4322 -1.4852 0.9684
-6.2477 8.8353 -2.0339 0.9569
-8.3714 6.8566 -2.0339 0.9569
-9.4602 5.2530 -2.0339 0.9569
-9.8926 4.3846 -2.0339 0.9569
-10.2454 3.4809 -2.0339 0.9569
-10.5159 2.5493 -2.0338 0.9569
-0.5743 7.4044 -1.5698 0.9701
-1.2002 7.1162 -1.5255 0.9709
-3.2673 9.0506 -2.0340 0.9614
-6.2368 7.3272 -2.0339 0.9614
-6.8679 6.7391 -2.0339 0.9614
-7.4439 6.0969 -2.0339 0.9614
-7.9600 5.4057 -2.0339 0.9614
-8.7966 3.8988 -2.0339 0.9614
-9.1104 3.0953 -2.0339 0.9614
-9.3509 2.2669 -2.0338 0.9614
0.8810 8.6095 -2.0340 0.9651
-1.9010 7.2402 -1.7593 0.9697
-3.6559 7.8442 -2.0340 0.9651
-4.3437 7.4852 -2.0339 0.9651
-5.6093 6.5901 -2.0339 0.9651
-7.5658 4.2011 -2.0339 0.9651
-8.4102 2.0388 -2.0339 0.9651
-1.3064 7.7462 -2.0340 0.9681
-2.6675 7.3889 -2.0340 0.9681
-5.0916 5.9819 -2.0339 0.9681
-5.6070 5.5018 -2.0339 0.9681
-6.8676 3.8134 -2.0339 0.9681
-7.1815 3.1829 -2.0339 0.9681
-7.4377 2.5270 -2.0339 0.9681
0.7314 7.1475 -2.0340 0.9706
-0.5555 7.1633 -2.0340 0.9706
-3.0351 6.5122 -2.0339 0.9706
-3.6061 6.2142 -2.0339 0.9706
-4.1482 5.8662 -2.0339 0.9706
-4.6569 5.4711 -2.0339 0.9706
-5.1281 5.0320 -2.0339 0.9706
-5.9436 4.0363 -2.0339 0.9706
-6.5682 2.9112 -2.0339 0.9706
-6.9821 1.6926 -2.0339 0.9706
0.6732 6.5785 -2.0340 0.9727
-0.5113 6.5930 -2.0340 0.9727
-1.0997 6.5207 -2.0340 0.9727
-2.2454 6.2199 -2.0340 0.9727
-2.7934 5.9938 -2.0339 0.9727
-3.3190 5.7195 -2.0339 0.9727
-3.8179 5.3992 -2.0339 0.9727
-4.2861 5.0355 -2.0339 0.9727
-4.7199 4.6314 -2.0339 0.9727
-5.1157 4.1900 -2.0339 0.9727
-5.7811 3.2101 -2.0339 0.9727
-6.4264 1.5579 -2.0339 0.9727
0.6229 6.0872 -2.0340 0.9745
0.0752 6.1185 -2.0340 0.9745
-0.4731 6.1006 -2.0340 0.9745
-1.5539 5.9183 -2.0340 0.9745
-3.0711 5.2923 -2.0339 0.9745
-3.5328 4.9959 -2.0339 0.9745
-3.9660 4.6594 -2.0339 0.9745
-4.3673 4.2855 -2.0339 0.9745
-4.7336 3.8771 -2.0339 0.9745
0.5790 5.6581 -2.0340 0.9761
-2.4027 5.1552 -2.0339 0.9761
-3.6865 4.3311 -2.0339 0.9761
-4.0596 3.9835 -2.0339 0.9761
-4.4000 3.6038 -2.0339 0.9761
-5.1996 2.3046 -2.0339 0.9761
-5.5273 1.3399 -2.0339 0.9761
0.5403 5.2800 -2.0340 0.9775
0.0652 5.3071 -2.0340 0.9775
-1.3479 5.1335 -2.0339 0.9775
-2.2421 4.8107 -2.0339 0.9775
-3.0643 4.3335 -2.0339 0.9775
-3.4401 4.0416 -2.0339 0.9775
-3.7882 3.7172 -2.0339 0.9775
-4.1060 3.3630 -2.0339 0.9775
-4.6400 2.5765 -2.0339 0.9775
-5.0252 1.7073 -2.0339 0.9775
-5.1579 1.2504 -2.0339 0.9775
0.5059 4.9438 -2.0340 0.9787
-0.3843 4.9547 -2.0340 0.9788
-0.8264 4.9004 -2.0339 0.9788
-1.2620 4.8067 -2.0339 0.9788
-1.6875 4.6743 -2.0339 0.9788
-3.5471 3.4806 -2.0339 0.9788
-4.1111 2.7919 -2.0339 0.9788
-4.5432 2.0137 -2.0339 0.9788
-2.1478 0.5206 -0.9045 0.9905
0.4751 4.6427 -2.0340 0.9798
-0.7761 4.6020 -2.0339 0.9798
-1.9715 4.2301 -2.0339 0.9798
-2.3424 4.0365 -2.0339 0.9798
-2.6945 3.8105 -2.0339 0.9798
-3.0250 3.5538 -2.0339 0.9798
-3.3310 3.2686 -2.0339 0.9798
-3.6104 2.9571 -2.0339 0.9798
-3.8607 2.6219 -2.0339 0.9798
0.0540 4.3937 -2.0340 0.9808
-0.3397 4.3809 -2.0339 0.9808
-1.1159 4.2500 -2.0339 0.9808
-1.4920 4.1329 -2.0339 0.9808
-1.8562 3.9827 -2.0339 0.9808
-2.2054 3.8004 -2.0339 0.9808
-2.8481 3.3460 -2.0339 0.9808
-3.8415 2.1331 -2.0339 0.9808
-1.7146 0.5825 -0.8382 0.9920
0.0510 4.1462 -2.0339 0.9817
-0.3206 4.1341 -2.0339 0.9817
-0.6895 4.0887 -2.0339 0.9817
-1.0530 4.0105 -2.0339 0.9817
-1.4080 3.9001 -2.0339 0.9817
-2.6876 3.1575 -2.0339 0.9817
-3.2077 2.6273 -2.0339 0.9817
-3.6250 2.0129 -2.0339 0.9817
-1.3201 0.3200 -0.6663 0.9940
0.3991 3.9003 -2.0339 0.9825
-0.3031 3.9089 -2.0339 0.9825
-0.6520 3.8660 -2.0339 0.9825
-0.9957 3.7921 -2.0339 0.9825
-1.9678 3.3910 -2.0339 0.9825
-2.5412 2.9855 -2.0339 0.9825
-1.1685 0.2832 -0.6238 0.9946
0.3780 3.6943 -2.0339 0.9832
-0.2871 3.7024 -2.0339 0.9832
-0.9430 3.5918 -2.0339 0.9832
-1.8639 3.2119 -2.0339 0.9832
-2.4070 2.8278 -2.0339 0.9832
-2.6506 2.6009 -2.0339 0.9832
-3.2465 1.8027 -2.0339 0.9832
-0.9995 0.4429 -0.5988 0.9950
-1.0284 0.3494 -0.5949 0.9951
-1.0466 0.2537 -0.5898 0.9951
0.3586 3.5046 -2.0339 0.9839
0.0433 3.5226 -2.0339 0.9839
-0.5859 3.4738 -2.0339 0.9839
-1.1962 3.3135 -2.0339 0.9839
-1.4882 3.1931 -2.0339 0.9839
-1.7682 3.0470 -2.0339 0.9839
-2.0339 2.8763 -2.0339 0.9839
-2.2834 2.6826 -2.0339 0.9839
-2.7254 2.2322 -2.0339 0.9839
-0.9275 0.4111 -0.5858 0.9953
-0.9502 0.3228 -0.5794 0.9954
-0.9655 0.2340 -0.5736 0.9954
