ply
format ascii 1.0
element vertex 201
property float32 x
property float32 y
property float32 z
property float32 I
end_header
3.5518 18.5292 3.3267 0.9262
3.5575 18.5594 2.0292 0.9268
3.3743 17.6033 1.1115 0.9307
3.5100 18.3114 0.7352 0.9281
3.4526 18.0122 -0.1033 0.9293
13.2352 8.9516 -1.5340 0.9378
17.0298 -1.7887 -2.0340 0.9333
17.1211 -0.2951 -2.0340 0.9333
17.0816 1.2008 -2.0341 0.9333
16.9116 2.6875 -2.0341 0.9333
16.6126 4.1537 -2.0341 0.9333
15.6370 6.9801 -2.0341 0.9333
14.9680 8.3186 -2.0341 0.9333
13.3863 9.0537 -1.9196 0.9370
13.2930 10.7954 -2.0341 0.9333
12.2998 11.9147 -2.0341 0.9333
10.0398 13.8726 -2.0341 0.9333
7.4737 15.4074 -2.0341 0.9333
6.1000 16.0010 -2.0341 0.9333
14.2769 -1.4996 -2.0340 0.9437
14.3203 1.0067 -2.0340 0.9437
12.5482 6.9738 -2.0341 0.9437
11.1440 9.0502 -2.0341 0.9437
10.3114 9.9886 -2.0341 0.9437
8.4168 11.6299 -2.0341 0.9437
6.2655 12.9166 -2.0341 0.9437
5.1139 13.4143 -2.0341 0.9437
2.7026 14.0992 -2.0341 0.9437
12.2792 -1.2897 -2.0340 0.9512
12.3450 -0.2128 -2.0340 0.9512
11.6711 4.0293 -2.0340 0.9512
10.7924 5.9980 -2.0341 0.9512
10.2275 6.9174 -2.0341 0.9512
9.5846 7.7839 -2.0341 0.9512
8.8685 8.5909 -2.0341 0.9512
6.3380 10.5963 -2.0341 0.9512
5.3888 11.1092 -2.0341 0.9512
4.3983 11.5372 -2.0341 0.9512
10.7621 -1.1304 -2.0340 0.9569
10.7948 0.7588 -2.0340 0.9569
10.6874 1.6983 -2.0340 0.9569
10.4983 2.6249 -2.0340 0.9569
9.4589 5.2569 -2.0340 0.9569
7.7727 7.5295 -2.0341 0.9569
7.0857 8.1793 -2.0341 0.9569
5.5550 9.2871 -2.0341 0.9569
3.8549 10.1118 -2.0340 0.9569
2.0373 10.6281 -2.0340 0.9569
9.5697 -1.0051 -2.0340 0.9614
9.5988 0.6747 -2.0340 0.9614
9.0957 3.1402 -2.0340 0.9614
8.7869 3.9223 -2.0340 0.9614
7.9707 5.3909 -2.0340 0.9614
6.3006 7.2731 -2.0340 0.9614
5.6416 7.7954 -2.0340 0.9614
4.1996 8.6578 -2.0340 0.9614
3.4277 8.9914 -2.0340 0.9614
2.6296 9.2563 -2.0340 0.9614
8.5472 1.3583 -2.0340 0.9651
7.9029 3.5277 -2.0340 0.9651
7.5648 4.2042 -2.0340 0.9651
7.1688 4.8486 -2.0340 0.9651
6.7181 5.4559 -2.0340 0.9651
6.2162 6.0217 -2.0340 0.9651
5.6668 6.5413 -2.0340 0.9651
4.4426 7.4273 -2.0340 0.9651
3.0829 8.0868 -2.0340 0.9651
1.6293 8.4998 -2.0340 0.9651
7.8545 -0.1354 -2.0340 0.9681
6.8665 3.8162 -2.0340 0.9681
4.6057 6.3640 -2.0340 0.9681
4.0325 6.7418 -2.0340 0.9681
2.7984 7.3405 -2.0340 0.9681
7.1455 -0.7505 -2.0340 0.9706
7.0958 1.1276 -2.0340 0.9706
6.7915 2.3447 -2.0340 0.9706
6.5609 2.9287 -2.0340 0.9706
6.2802 3.4903 -2.0340 0.9706
4.7045 5.4305 -2.0340 0.9706
4.2124 5.8205 -2.0340 0.9706
3.6881 6.1661 -2.0340 0.9706
3.1357 6.4645 -2.0340 0.9706
2.5594 6.7136 -2.0340 0.9706
1.3526 7.0564 -2.0340 0.9706
6.5766 -0.6908 -2.0339 0.9727
6.6118 -0.1140 -2.0340 0.9727
6.5965 0.4637 -2.0340 0.9727
6.5309 1.0378 -2.0340 0.9727
6.4154 1.6041 -2.0340 0.9727
6.2509 2.1580 -2.0340 0.9727
6.0386 2.6955 -2.0340 0.9727
5.4777 3.7048 -2.0340 0.9727
5.1333 4.1688 -2.0340 0.9727
4.7498 4.6011 -2.0340 0.9727
4.3300 4.9982 -2.0340 0.9727
3.3945 5.6752 -2.0340 0.9727
2.8861 5.9499 -2.0340 0.9727
6.1180 -0.1055 -2.0340 0.9745
6.1039 0.4291 -2.0340 0.9745
5.9362 1.4842 -2.0340 0.9745
5.5875 2.4942 -2.0340 0.9745
5.3485 2.9725 -2.0340 0.9745
5.0686 3.4281 -2.0340 0.9745
4.0066 4.6249 -2.0340 0.9745
3.1410 5.2513 -2.0340 0.9745
2.6705 5.5054 -2.0340 0.9745
2.1797 5.7176 -2.0340 0.9745
1.1520 6.0096 -2.0340 0.9745
5.6737 0.3988 -2.0340 0.9761
5.5179 1.3796 -2.0340 0.9761
5.3763 1.8561 -2.0340 0.9761
4.4152 3.5856 -2.0340 0.9761
4.0853 3.9574 -2.0340 0.9761
3.3346 4.6077 -2.0340 0.9761
2.4823 5.1175 -2.0340 0.9761
2.0261 5.3146 -2.0340 0.9761
1.5544 5.4712 -2.0340 0.9761
1.0707 5.5860 -2.0340 0.9761
5.2785 -0.5545 -2.0339 0.9775
5.3068 -0.0915 -2.0339 0.9775
5.0170 1.7321 -2.0340 0.9775
4.8467 2.1634 -2.0340 0.9775
4.3964 2.9735 -2.0340 0.9775
3.4753 4.0116 -2.0340 0.9775
3.1118 4.2997 -2.0340 0.9775
2.7245 4.5550 -2.0340 0.9775
2.3164 4.7754 -2.0340 0.9775
1.4505 5.1056 -2.0340 0.9775
4.9689 -0.0856 -2.0339 0.9787
4.9574 0.3485 -2.0339 0.9787
4.9081 0.7799 -2.0340 0.9787
4.8213 1.2054 -2.0340 0.9787
4.6976 1.6218 -2.0340 0.9787
4.5381 2.0257 -2.0340 0.9787
4.3439 2.4142 -2.0340 0.9787
4.1165 2.7842 -2.0340 0.9787
3.5695 3.4578 -2.0340 0.9787
3.2540 3.7562 -2.0340 0.9787
2.5510 4.2650 -2.0340 0.9787
2.1689 4.4714 -2.0340 0.9787
1.3581 4.7805 -2.0340 0.9787
4.6555 0.3273 -2.0339 0.9798
4.5276 1.1321 -2.0340 0.9798
3.8659 2.6146 -2.0340 0.9798
3.6228 2.9421 -2.0340 0.9798
2.0368 4.1991 -2.0340 0.9798
1.6625 4.3609 -2.0340 0.9798
1.2754 4.4894 -2.0340 0.9798
4.3934 -0.0758 -2.0339 0.9808
4.3396 0.6896 -2.0339 0.9808
4.2629 1.0658 -2.0339 0.9808
4.0125 1.7911 -2.0340 0.9808
3.1561 3.0573 -2.0340 0.9808
2.5762 3.5597 -2.0340 0.9808
2.2556 3.7710 -2.0340 0.9808
0.8272 4.3155 -2.0340 0.9808
4.1238 -0.4331 -2.0339 0.9817
4.0951 0.6507 -2.0339 0.9817
3.9195 1.3531 -2.0339 0.9817
3.6244 2.0143 -2.0340 0.9817
3.4347 2.3230 -2.0340 0.9817
2.4310 3.3591 -2.0340 0.9817
1.1332 3.9887 -2.0340 0.9817
2.0785 -0.2183 -1.0842 0.9906
2.0997 0.3337 -1.1030 0.9905
3.8036 0.9510 -2.0339 0.9825
3.0434 2.4716 -2.0340 0.9825
2.8161 2.7279 -2.0340 0.9825
2.5671 2.9633 -2.0340 0.9825
2.2986 3.1762 -2.0340 0.9825
2.0126 3.3647 -2.0340 0.9825
1.3966 3.6635 -2.0340 0.9825
1.0714 3.7714 -2.0340 0.9825
0.7381 3.8505 -2.0339 0.9825
1.8517 -0.0319 -1.0143 0.9916
1.8521 0.1302 -1.0169 0.9916
1.8501 0.2940 -1.0260 0.9915
1.9318 0.6669 -1.1194 0.9907
3.3911 1.5137 -2.0339 0.9832
3.2460 1.8040 -2.0339 0.9832
3.0761 2.0805 -2.0340 0.9832
2.8828 2.3411 -2.0340 0.9832
2.6673 2.5838 -2.0340 0.9832
2.4316 2.8068 -2.0340 0.9832
1.6207 3.3412 -2.0340 0.9832
1.0148 3.5722 -2.0339 0.9832
1.7246 -0.0297 -0.9959 0.9921
1.7229 0.1211 -0.9971 0.9921
1.7141 0.2724 -1.0021 0.9920
1.7140 0.4285 -1.0201 0.9919
1.7266 0.5961 -1.0546 0.9916
3.0793 1.7114 -2.0339 0.9839
2.9182 1.9737 -2.0339 0.9839
2.7347 2.2209 -2.0339 0.9839
2.5304 2.4512 -2.0339 0.9839
2.0654 2.8539 -2.0340 0.9839
1.8084 3.0233 -2.0339 0.9839
1.5375 3.1697 -2.0339 0.9839
1.2550 3.2918 -2.0339 0.9839
0.9627 3.3888 -2.0339 0.9839
0.6633 3.4599 -2.0339 0.9839
