ply
format ascii 1.0
element vertex 177
property float32 x
property float32 y
property float32 z
property float32 I
end_header
13.5646 9.1525 -0.8299 0.9366
13.2415 8.9345 -1.5336 0.9378
16.9898 -2.1348 -2.0340 0.9333
16.9454 2.4652 -2.0341 0.9333
16.6561 3.9753 -2.0341 0.9333
12.2555 11.9602 -2.0341 0.9333
9.9212 13.9576 -2.0341 0.9333
8.6293 14.7912 -2.0341 0.9333
5.8475 16.0950 -2.0341 0.9333
4.3802 16.5546 -2.0341 0.9333
14.2434 -1.7897 -2.0340 0.9437
13.6084 4.5718 -2.0341 0.9437
13.1436 5.7741 -2.0341 0.9437
12.5726 6.9298 -2.0341 0.9437
8.3174 11.7012 -2.0341 0.9437
3.6721 13.8784 -2.0341 0.9437
12.3392 -0.4342 -2.0340 0.9512
12.2183 1.7775 -2.0340 0.9512
12.0097 2.8664 -2.0340 0.9512
10.2352 6.9061 -2.0341 0.9512
9.5745 7.7963 -2.0341 0.9512
8.0274 9.3816 -2.0341 0.9512
6.2220 10.6649 -2.0341 0.9512
4.2162 11.6050 -2.0341 0.9512
3.1583 11.9364 -2.0341 0.9512
10.7369 -1.3491 -2.0340 0.9569
10.7087 1.5579 -2.0340 0.9569
10.5259 2.5122 -2.0340 0.9569
9.9077 4.3526 -2.0340 0.9569
9.4773 5.2237 -2.0340 0.9569
7.7448 7.5582 -2.0341 0.9569
5.4532 9.3472 -2.0341 0.9569
3.6954 10.1712 -2.0340 0.9569
2.7681 10.4616 -2.0340 0.9569
9.5473 -1.1996 -2.0340 0.9614
9.6080 0.5256 -2.0340 0.9614
9.5222 1.3853 -2.0340 0.9614
9.3596 2.2339 -2.0340 0.9614
8.4273 4.6449 -2.0340 0.9614
7.9767 5.3821 -2.0340 0.9614
7.4618 6.0760 -2.0340 0.9614
6.2561 7.3114 -2.0340 0.9614
5.5750 7.8431 -2.0340 0.9614
4.0839 8.7130 -2.0340 0.9614
3.2859 9.0442 -2.0340 0.9614
8.5868 -1.0789 -2.0340 0.9651
8.6490 -0.3044 -2.0340 0.9651
8.5643 1.2459 -2.0340 0.9651
8.4180 2.0091 -2.0340 0.9651
8.2039 2.7561 -2.0340 0.9651
7.5795 4.1776 -2.0340 0.9651
7.1742 4.8407 -2.0340 0.9651
2.9554 8.1343 -2.0340 0.9651
7.7943 -0.9794 -2.0340 0.9681
7.8439 0.4290 -2.0340 0.9681
7.7739 1.1309 -2.0340 0.9681
7.1923 3.1596 -2.0340 0.9681
5.1074 5.9690 -2.0340 0.9681
3.9587 6.7855 -2.0340 0.9681
3.3341 7.1132 -2.0340 0.9681
2.6825 7.3836 -2.0340 0.9681
2.0094 7.5944 -2.0340 0.9681
7.1287 -0.8957 -2.0340 0.9706
7.1804 -0.2527 -2.0340 0.9706
7.1100 1.0344 -2.0340 0.9706
6.8108 2.2881 -2.0340 0.9706
6.5782 2.8898 -2.0340 0.9706
5.9559 4.0187 -2.0340 0.9706
5.5714 4.5367 -2.0340 0.9706
4.6712 5.4592 -2.0340 0.9706
3.6206 6.2060 -2.0340 0.9706
2.4535 6.7530 -2.0340 0.9706
6.6087 -0.2326 -2.0340 0.9727
6.6030 0.3612 -2.0340 0.9727
6.5440 0.9520 -2.0340 0.9727
6.2686 2.1060 -2.0340 0.9727
5.7914 3.1921 -2.0340 0.9727
5.4818 3.6988 -2.0340 0.9727
4.7327 4.6187 -2.0340 0.9727
4.2993 5.0246 -2.0340 0.9727
3.8313 5.3900 -2.0340 0.9727
3.3324 5.7119 -2.0340 0.9727
2.8066 5.9878 -2.0340 0.9727
2.2582 6.2154 -2.0340 0.9727
1.6915 6.3929 -2.0340 0.9727
6.0552 0.8809 -2.0340 0.9745
5.8004 1.9487 -2.0340 0.9745
5.3589 2.9537 -2.0340 0.9745
3.0834 5.2853 -2.0340 0.9745
5.6433 -0.7091 -2.0339 0.9761
5.5323 1.3204 -2.0340 0.9761
5.3916 1.8113 -2.0340 0.9761
4.9812 2.7455 -2.0340 0.9761
4.0706 3.9725 -2.0340 0.9761
3.6979 4.3216 -2.0340 0.9761
3.2953 4.6359 -2.0340 0.9761
1.9422 5.3458 -2.0340 0.9761
1.4549 5.4985 -2.0340 0.9761
5.2996 0.2899 -2.0339 0.9775
5.2523 0.7641 -2.0340 0.9775
5.1625 1.2321 -2.0340 0.9775
5.0312 1.6903 -2.0340 0.9775
4.6483 2.5620 -2.0340 0.9775
4.3998 2.9687 -2.0340 0.9775
4.1157 3.3513 -2.0340 0.9775
3.7985 3.7070 -2.0340 0.9775
3.4507 4.0328 -2.0340 0.9775
3.0750 4.3261 -2.0340 0.9775
2.6746 4.5845 -2.0340 0.9775
2.2526 4.8059 -2.0340 0.9775
1.8124 4.9885 -2.0340 0.9775
1.3577 5.1310 -2.0340 0.9775
4.9622 0.2714 -2.0339 0.9787
4.9179 0.7154 -2.0340 0.9787
4.8339 1.1537 -2.0340 0.9787
4.7109 1.5826 -2.0340 0.9787
4.5500 1.9988 -2.0340 0.9787
3.8537 3.1380 -2.0340 0.9787
3.2310 3.7761 -2.0340 0.9787
2.8793 4.0507 -2.0340 0.9787
2.5043 4.2926 -2.0340 0.9787
4.6600 0.2549 -2.0339 0.9798
4.6184 0.6719 -2.0339 0.9798
4.5395 1.0834 -2.0340 0.9798
4.4240 1.4862 -2.0340 0.9798
4.2729 1.8771 -2.0340 0.9798
3.8687 2.6104 -2.0340 0.9798
2.7039 3.8039 -2.0340 0.9798
2.3518 4.0312 -2.0340 0.9798
1.9807 4.2258 -2.0340 0.9798
1.5937 4.3865 -2.0340 0.9798
3.8483 2.1211 -2.0340 0.9808
3.6425 2.4577 -2.0340 0.9808
3.4074 2.7745 -2.0340 0.9808
3.1447 3.0690 -2.0340 0.9808
2.8568 3.3387 -2.0340 0.9808
2.5458 3.5815 -2.0340 0.9808
2.2143 3.7954 -2.0340 0.9808
1.8649 3.9787 -2.0340 0.9808
1.1240 4.2479 -2.0340 0.9808
4.1141 -0.5170 -2.0339 0.9817
4.1439 -0.1458 -2.0339 0.9817
4.1403 0.2264 -2.0339 0.9817
3.7964 1.6678 -2.0340 0.9817
3.4372 2.3192 -2.0340 0.9817
2.9675 2.8961 -2.0340 0.9817
1.7598 3.7545 -2.0340 0.9817
1.4159 3.8972 -2.0340 0.9817
2.0769 -0.0731 -1.0781 0.9907
2.0783 0.1137 -1.0798 0.9907
3.8135 0.9102 -2.0339 0.9825
3.7165 1.2486 -2.0339 0.9825
3.5895 1.5769 -2.0339 0.9825
3.4336 1.8925 -2.0340 0.9825
3.2500 2.1929 -2.0340 0.9825
2.8059 2.7383 -2.0340 0.9825
2.5490 2.9790 -2.0340 0.9825
2.2715 3.1956 -2.0340 0.9825
1.9757 3.3865 -2.0340 0.9825
1.3388 3.6850 -2.0340 0.9825
1.0029 3.7902 -2.0340 0.9825
1.8526 -0.0652 -1.0153 0.9916
1.8956 0.6368 -1.0952 0.9909
3.4000 1.4936 -2.0339 0.9832
3.2523 1.7926 -2.0339 0.9832
2.8796 2.3448 -2.0340 0.9832
1.8714 3.2076 -2.0340 0.9832
1.2681 3.4904 -2.0340 0.9832
1.7160 -0.2156 -0.9985 0.9920
1.7146 0.4092 -1.0177 0.9919
1.7250 0.5795 -1.0506 0.9916
3.0853 1.7005 -2.0339 0.9839
2.9204 1.9704 -2.0339 0.9839
2.5213 2.4605 -2.0339 0.9839
2.2904 2.6768 -2.0340 0.9839
1.4952 3.1899 -2.0339 0.9839
1.2030 3.3112 -2.0339 0.9839
