ply
format ascii 1.0
element vertex 214
property float32 x
property float32 y
property float32 z
property float32 I
end_header
2.0978 18.4185 3.2687 0.9275
2.0180 17.7176 2.7318 0.9304
-12.3469 12.6681 2.7100 0.9309
2.0490 17.9904 2.3579 0.9296
-11.2454 13.7941 2.3176 0.9307
-11.6807 11.9846 2.1793 0.9347
-11.5036 14.1107 1.9549 0.9294
3.6112 17.6332 1.5237 0.9303
-11.3014 13.8629 1.5141 0.9307
-11.8648 12.1734 1.4390 0.9340
3.6572 17.8577 1.1303 0.9296
-12.0545 12.3681 1.0710 0.9331
3.8680 18.8872 0.3257 0.9258
3.6943 18.0390 -0.1037 0.9290
2.0587 18.0753 -0.1024 0.9298
-1.9043 7.7488 -0.5851 0.9685
-16.3956 6.0827 -1.2822 0.9323
-1.8390 7.4831 -0.7398 0.9695
-16.3375 6.0611 -1.6729 0.9324
4.9066 16.4063 -2.0341 0.9333
3.4357 16.7760 -2.0341 0.9333
0.4248 17.1188 -2.0341 0.9333
-1.1701 7.6189 -0.9156 0.9694
-6.9537 15.6479 -2.0340 0.9333
-9.6028 14.1769 -2.0340 0.9334
-11.9511 12.2620 -2.0339 0.9334
-12.9890 11.1564 -2.0339 0.9334
-13.9251 9.9632 -2.0339 0.9334
-15.4629 7.3525 -2.0338 0.9334
-16.0527 5.9554 -2.0338 0.9334
2.8803 14.0640 -2.0341 0.9437
0.3562 14.3514 -2.0341 0.9437
-0.9150 14.3265 -2.0341 0.9437
-1.1314 7.3669 -1.0561 0.9703
-4.6460 13.5828 -2.0340 0.9437
-10.8895 9.3530 -2.0339 0.9437
-12.3674 7.2869 -2.0339 0.9437
-12.9635 6.1640 -2.0339 0.9437
-13.4579 4.9928 -2.0338 0.9437
3.5378 11.8295 -2.0341 0.9512
1.3973 12.2678 -2.0340 0.9512
0.3064 12.3432 -2.0340 0.9512
-0.4852 7.5958 -1.2539 0.9696
-1.7431 7.0928 -1.2032 0.9708
-5.9924 10.7948 -2.0340 0.9512
-6.9240 10.2222 -2.0340 0.9512
-7.8013 9.5694 -2.0339 0.9512
-8.6174 8.8415 -2.0339 0.9512
-9.3658 8.0443 -2.0339 0.9512
-10.0407 7.1840 -2.0339 0.9512
-10.6370 6.2674 -2.0339 0.9512
-11.1497 5.3016 -2.0339 0.9512
3.1007 10.3679 -2.0340 0.9569
2.1712 10.6016 -2.0340 0.9569
1.2246 10.7521 -2.0340 0.9569
-0.4756 7.4456 -1.4023 0.9701
-1.7765 7.2287 -1.3991 0.9702
-2.4580 7.1860 -1.4275 0.9696
-4.3944 9.8888 -2.0340 0.9569
-5.2521 9.4612 -2.0340 0.9569
-6.8375 8.3871 -2.0339 0.9569
-7.5527 7.7492 -2.0339 0.9569
-8.2087 7.0504 -2.0339 0.9569
-8.8003 6.2964 -2.0339 0.9569
-9.3229 5.4931 -2.0339 0.9569
-9.7722 4.6466 -2.0339 0.9569
-10.1450 3.7637 -2.0339 0.9569
2.7571 9.2191 -2.0340 0.9614
1.9306 9.4270 -2.0340 0.9614
1.0889 9.5607 -2.0340 0.9614
-1.1032 7.1833 -1.5362 0.9707
-4.6703 8.4129 -2.0340 0.9614
-6.0799 7.4579 -2.0339 0.9614
-6.7159 6.8906 -2.0339 0.9614
-7.2993 6.2694 -2.0339 0.9614
-8.2900 4.8845 -2.0339 0.9614
-8.6896 4.1318 -2.0339 0.9614
-9.0211 3.3468 -2.0339 0.9614
0.9794 8.5989 -2.0340 0.9651
0.2147 8.6518 -2.0340 0.9651
-1.1256 7.3291 -1.7427 0.9700
-1.7761 7.2273 -1.7491 0.9699
-2.4907 7.2815 -1.8087 0.9689
-3.5144 7.9086 -2.0340 0.9651
-4.8534 7.1652 -2.0339 0.9651
-5.4683 6.7076 -2.0339 0.9651
-6.0404 6.1974 -2.0339 0.9651
-6.5650 5.6387 -2.0339 0.9651
-7.0381 5.0356 -2.0339 0.9651
-7.4560 4.3931 -2.0339 0.9651
-7.8154 3.7162 -2.0339 0.9651
2.2509 7.5264 -2.0340 0.9681
0.8890 7.8053 -2.0340 0.9681
-3.1901 7.1787 -2.0340 0.9681
-6.3886 4.5709 -2.0339 0.9681
-6.7679 3.9877 -2.0339 0.9681
-7.0941 3.3732 -2.0339 0.9681
-7.3647 2.7323 -2.0339 0.9681
2.0586 6.8837 -2.0340 0.9706
0.8131 7.1387 -2.0340 0.9706
-0.4580 7.1702 -2.0340 0.9706
-1.7147 6.9771 -2.0340 0.9706
-2.3253 6.7980 -2.0340 0.9706
-2.9177 6.5656 -2.0339 0.9706
-3.4871 6.2817 -2.0339 0.9706
-4.5398 5.5687 -2.0339 0.9706
-5.0146 5.1451 -2.0339 0.9706
-5.4502 4.6812 -2.0339 0.9706
-6.4884 3.0852 -2.0339 0.9706
1.8948 6.3356 -2.0340 0.9727
-0.4215 6.5994 -2.0340 0.9727
-2.1402 6.2569 -2.0340 0.9727
-2.6854 6.0430 -2.0339 0.9727
-4.6154 4.7355 -2.0339 0.9727
1.2277 5.9946 -2.0340 0.9745
0.6925 6.0796 -2.0340 0.9745
-0.9288 6.0480 -2.0340 0.9745
-1.4603 5.9421 -2.0340 0.9745
-1.9804 5.7895 -2.0339 0.9745
-2.4848 5.5916 -2.0339 0.9745
-2.9698 5.3498 -2.0339 0.9745
-3.4315 5.0660 -2.0339 0.9745
-3.8663 4.7425 -2.0339 0.9745
-4.6417 3.9867 -2.0339 0.9745
-4.9762 3.5604 -2.0339 0.9745
-5.5258 2.6275 -2.0339 0.9745
0.6436 5.6512 -2.0340 0.9761
0.1411 5.6859 -2.0340 0.9761
-0.3626 5.6761 -2.0340 0.9761
-0.8634 5.6218 -2.0340 0.9761
-1.3574 5.5233 -2.0340 0.9761
-3.9697 4.0730 -2.0339 0.9761
-4.3146 3.7058 -2.0339 0.9761
1.5207 5.0850 -2.0340 0.9775
1.0649 5.1996 -2.0340 0.9775
0.1317 5.3059 -2.0340 0.9775
-0.3384 5.2968 -2.0340 0.9775
-0.8057 5.2460 -2.0340 0.9775
-2.1553 4.8502 -2.0339 0.9775
-2.9765 4.3943 -2.0339 0.9775
-3.7044 3.8008 -2.0339 0.9775
-4.0262 3.4581 -2.0339 0.9775
-4.5727 2.6943 -2.0339 0.9775
-4.9760 1.8460 -2.0339 0.9775
0.9971 4.8686 -2.0340 0.9787
0.5623 4.9377 -2.0340 0.9787
-0.7543 4.9120 -2.0339 0.9788
-1.6084 4.7021 -2.0339 0.9788
-2.4120 4.3450 -2.0339 0.9788
-2.7870 4.1145 -2.0339 0.9788
-3.1401 3.8518 -2.0339 0.9788
-3.4686 3.5588 -2.0339 0.9788
-4.0416 2.8917 -2.0339 0.9788
-4.2816 2.5227 -2.0339 0.9788
-4.6591 1.7285 -2.0339 0.9788
-0.2975 4.6575 -2.0340 0.9798
-0.7084 4.6129 -2.0339 0.9798
-1.1138 4.5321 -2.0339 0.9798
-1.5104 4.4157 -2.0339 0.9798
-2.9489 3.6172 -2.0339 0.9798
-3.2573 3.3421 -2.0339 0.9798
-3.5403 3.0407 -2.0339 0.9798
-3.7954 2.7156 -2.0339 0.9798
-4.0208 2.3691 -2.0339 0.9798
-4.2146 2.0040 -2.0339 0.9798
1.2591 4.2098 -2.0340 0.9808
0.8816 4.3047 -2.0340 0.9808
-0.2801 4.3851 -2.0339 0.9808
-0.6670 4.3431 -2.0339 0.9808
-2.1327 3.8417 -2.0339 0.9808
-2.7764 3.4057 -2.0339 0.9808
-3.3332 2.8629 -2.0339 0.9808
-4.1195 1.5283 -2.0339 0.9808
1.1881 3.9726 -2.0340 0.9817
0.8319 4.0622 -2.0340 0.9817
0.4693 4.1198 -2.0340 0.9817
0.1029 4.1452 -2.0339 0.9817
-0.2643 4.1380 -2.0339 0.9817
-0.6294 4.0984 -2.0339 0.9817
-1.3420 3.9233 -2.0339 0.9817
-2.6200 3.2138 -2.0339 0.9817
-3.1454 2.7016 -2.0339 0.9817
0.7866 3.8409 -2.0340 0.9825
0.4437 3.8954 -2.0339 0.9825
-0.2499 3.9127 -2.0339 0.9825
-1.5921 3.5828 -2.0339 0.9825
-2.1987 3.2460 -2.0339 0.9825
-2.4773 3.0387 -2.0339 0.9825
-2.7364 2.8076 -2.0339 0.9825
-2.9741 2.5545 -2.0339 0.9825
-3.5407 1.6835 -2.0339 0.9825
-1.1296 0.4191 -0.6251 0.9946
1.0641 3.5579 -2.0339 0.9832
-0.8862 3.6062 -2.0339 0.9832
-1.5080 3.3936 -2.0339 0.9832
-2.0826 3.0746 -2.0339 0.9832
-2.3464 2.8782 -2.0339 0.9832
-2.5919 2.6593 -2.0339 0.9832
-3.1994 1.8851 -2.0339 0.9832
-1.0211 0.3788 -0.5965 0.9950
1.0094 3.3752 -2.0339 0.9839
0.3987 3.5003 -2.0339 0.9839
-0.2246 3.5157 -2.0339 0.9839
-0.5348 3.4820 -2.0339 0.9839
-0.8408 3.4211 -2.0339 0.9839
-1.1401 3.3332 -2.0339 0.9839
-1.4306 3.2193 -2.0339 0.9839
-1.7098 3.0801 -2.0339 0.9839
-2.2260 2.7305 -2.0339 0.9839
-2.4588 2.5228 -2.0339 0.9839
-2.6724 2.2953 -2.0339 0.9839
-2.8650 2.0499 -2.0339 0.9839
-0.9189 0.4369 -0.5874 0.9953
-0.9444 0.3503 -0.5815 0.9954
