ply
format ascii 1.0
element vertex 181
property float32 x
property float32 y
property float32 z
property float32 I
end_header
13.4204 8.7861 -1.5400 0.9376
12.1937 -12.0201 -2.0339 0.9334
14.9716 -8.3089 -2.0339 0.9334
16.5092 -3.9540 -2.0165 0.9339
16.9448 -2.4666 -2.0340 0.9333
16.3178 5.1926 -2.0341 0.9333
15.1163 8.0460 -2.0341 0.9333
13.4205 10.6365 -2.0341 0.9333
11.0919 -9.1118 -2.0339 0.9437
11.8703 -8.0719 -2.0339 0.9437
13.1300 -5.8026 -2.0339 0.9437
13.9604 -3.3436 -2.0340 0.9437
14.2057 -2.0678 -2.0340 0.9437
14.3461 0.5239 -2.0340 0.9437
14.2400 1.8187 -2.0340 0.9437
13.6799 4.3531 -2.0341 0.9437
13.2304 5.5720 -2.0341 0.9437
12.0109 7.8633 -2.0341 0.9437
10.3987 9.8976 -2.0341 0.9437
8.7923 -8.6672 -2.0339 0.9512
9.5399 -7.8369 -2.0339 0.9512
10.2095 -6.9424 -2.0339 0.9512
10.7953 -5.9911 -2.0339 0.9512
11.2928 -4.9907 -2.0339 0.9512
12.0071 -2.8757 -2.0340 0.9512
12.3288 -0.6667 -2.0340 0.9512
12.0560 2.6650 -2.0340 0.9512
11.3791 4.7923 -2.0341 0.9512
10.3303 6.7630 -2.0341 0.9512
9.6766 7.6692 -2.0341 0.9512
7.7061 -7.5964 -2.0339 0.9569
8.9481 -6.0847 -2.0339 0.9569
9.8976 -4.3741 -2.0339 0.9569
10.7084 -1.5588 -2.0340 0.9569
10.8142 0.3949 -2.0340 0.9569
10.5664 2.3357 -2.0340 0.9569
9.9732 4.2003 -2.0340 0.9569
9.0539 5.9274 -2.0340 0.9569
8.4810 6.7216 -2.0340 0.9569
7.8386 7.4609 -2.0341 0.9569
7.9567 -5.4106 -2.0339 0.9614
8.4133 -4.6692 -2.0339 0.9614
8.8010 -3.8895 -2.0339 0.9614
9.3577 -2.2412 -2.0340 0.9614
9.6161 0.3512 -2.0340 0.9614
9.3957 2.0770 -2.0340 0.9614
8.8682 3.7348 -2.0340 0.9614
8.4943 4.5213 -2.0340 0.9614
8.0507 5.2707 -2.0340 0.9614
6.9701 6.6342 -2.0340 0.9614
6.1630 -6.0753 -2.0339 0.9651
6.6870 -5.4933 -2.0339 0.9651
7.9156 -3.4982 -2.0339 0.9651
8.1995 -2.7683 -2.0339 0.9651
8.4163 -2.0157 -2.0340 0.9651
8.6417 -0.4673 -2.0340 0.9651
8.6486 0.3158 -2.0340 0.9651
8.2470 2.6243 -2.0340 0.9651
7.2408 4.7404 -2.0340 0.9651
6.7826 5.3756 -2.0340 0.9651
6.8686 -3.8119 -2.0339 0.9681
7.4428 -2.5128 -2.0339 0.9681
7.6395 -1.8297 -2.0339 0.9681
7.7737 -1.1316 -2.0340 0.9681
7.8442 -0.4242 -2.0340 0.9681
7.6705 1.6956 -2.0340 0.9681
7.4859 2.3821 -2.0340 0.9681
6.9346 3.6911 -2.0340 0.9681
6.5726 4.3029 -2.0340 0.9681
5.1165 -5.0437 -2.0339 0.9706
6.5715 -2.9042 -2.0339 0.9706
7.1098 -1.0349 -2.0339 0.9706
7.1743 -0.3880 -2.0340 0.9706
7.1800 0.2622 -2.0340 0.9706
6.8466 2.1787 -2.0340 0.9706
5.2044 4.9536 -2.0340 0.9706
4.7092 -4.6422 -2.0339 0.9727
5.1096 -4.1975 -2.0339 0.9727
6.4309 -1.5402 -2.0339 0.9727
6.5438 -0.9526 -2.0339 0.9727
6.6032 -0.3571 -2.0340 0.9727
6.6084 0.2413 -2.0340 0.9727
6.5596 0.8378 -2.0340 0.9727
6.3015 2.0052 -2.0340 0.9727
5.8375 3.1071 -2.0340 0.9727
5.5327 3.6221 -2.0340 0.9727
4.7900 4.5592 -2.0340 0.9727
4.3575 -4.2955 -2.0339 0.9745
5.5967 -2.4734 -2.0339 0.9745
5.7973 -1.9573 -2.0339 0.9745
5.9506 -1.4252 -2.0339 0.9745
6.1100 -0.3304 -2.0339 0.9745
6.0696 0.7752 -2.0340 0.9745
5.9747 1.3207 -2.0340 0.9745
5.1194 3.3516 -2.0340 0.9745
4.9731 -2.7599 -2.0339 0.9761
5.2022 -2.2991 -2.0339 0.9761
5.5312 -1.3247 -2.0339 0.9761
5.6793 -0.3071 -2.0339 0.9761
5.6418 0.7205 -2.0340 0.9761
5.5536 1.2277 -2.0340 0.9761
5.2418 2.2076 -2.0340 0.9761
5.0208 2.6724 -2.0340 0.9761
4.4575 3.5328 -2.0340 0.9761
4.1011 -3.3690 -2.0339 0.9775
4.3888 -2.9845 -2.0339 0.9775
4.8546 -2.1454 -2.0339 0.9775
5.0286 -1.6978 -2.0339 0.9775
5.1616 -1.2362 -2.0339 0.9775
5.2522 -0.7645 -2.0339 0.9775
5.2998 -0.2866 -2.0339 0.9775
5.3040 0.1937 -2.0339 0.9775
4.8915 2.0600 -2.0340 0.9775
4.6852 2.4938 -2.0340 0.9775
3.5391 -3.4887 -2.0339 0.9788
4.1095 -2.7944 -2.0339 0.9788
4.3453 -2.4115 -2.0339 0.9788
4.9663 0.1813 -2.0339 0.9788
4.9296 0.6296 -2.0339 0.9787
4.7357 1.5069 -2.0340 0.9787
4.5801 1.9289 -2.0340 0.9787
3.8592 -2.6243 -2.0339 0.9798
4.0807 -2.2646 -2.0339 0.9798
4.2687 -1.8865 -2.0339 0.9798
4.5386 -1.0870 -2.0339 0.9798
4.6601 -0.2520 -2.0339 0.9798
4.6638 0.1703 -2.0339 0.9798
4.6294 0.5912 -2.0339 0.9798
4.5570 1.0073 -2.0340 0.9798
4.4473 1.4152 -2.0340 0.9798
3.6575 2.8988 -2.0340 0.9798
3.3806 3.2176 -2.0340 0.9798
3.6336 -2.4708 -2.0339 0.9808
3.8420 -2.1322 -2.0339 0.9808
4.0190 -1.7762 -2.0339 0.9808
4.1632 -1.4056 -2.0339 0.9808
4.2732 -1.0235 -2.0339 0.9808
4.3482 -0.6329 -2.0339 0.9808
4.3911 0.1604 -2.0339 0.9808
4.3587 0.5567 -2.0339 0.9808
4.2905 0.9484 -2.0339 0.9808
3.8788 2.0646 -2.0340 0.9808
2.9529 -2.9108 -2.0339 0.9817
3.6255 -2.0121 -2.0339 0.9817
3.9286 -1.3263 -2.0339 0.9817
4.1437 0.1513 -2.0339 0.9817
4.1130 0.5253 -2.0339 0.9817
4.0487 0.8950 -2.0339 0.9817
3.6603 1.9483 -2.0340 0.9817
3.4692 2.2712 -2.0340 0.9817
3.2496 2.5755 -2.0340 0.9817
2.7921 -2.7523 -2.0339 0.9825
3.5861 -1.5848 -2.0339 0.9825
3.8128 -0.9132 -2.0339 0.9825
2.0770 0.0758 -1.0782 0.9907
2.1159 0.4677 -1.1242 0.9903
3.7361 1.1889 -2.0339 0.9825
3.0727 2.4352 -2.0340 0.9825
2.8399 2.7030 -2.0340 0.9825
2.6446 -2.6070 -2.0339 0.9832
2.8695 -2.3572 -2.0339 0.9832
3.0708 -2.0881 -2.0339 0.9832
3.3966 -1.5011 -2.0339 0.9832
1.8988 -0.6411 -1.0976 0.9909
1.8576 -0.4449 -1.0462 0.9913
1.8473 -0.2689 -1.0224 0.9915
1.8445 0.2355 -1.0184 0.9916
1.8848 0.5998 -1.0833 0.9910
3.2782 1.7449 -2.0339 0.9832
3.1070 2.0341 -2.0339 0.9832
2.9104 2.3066 -2.0340 0.9832
2.6900 2.5603 -2.0340 0.9832
1.7755 -0.7847 -1.1207 0.9911
1.7254 -0.5825 -1.0514 0.9916
1.7137 -0.2495 -0.9998 0.9920
1.7235 -0.0932 -0.9965 0.9921
1.7241 0.0629 -0.9961 0.9921
1.7639 0.7429 -1.1050 0.9912
2.9475 1.9296 -2.0339 0.9839
2.7609 2.1882 -2.0339 0.9839
2.5518 2.4288 -2.0339 0.9839
