ply
format ascii 1.0
element vertex 194
property float32 x
property float32 y
property float32 z
property float32 I
end_header
-16.4647 5.5812 -0.8817 0.9327
-16.2614 5.5123 -1.2590 0.9335
-11.4779 -8.5803 -1.3758 0.9440
-16.9274 2.5702 -2.0338 0.9334
-16.7741 -3.4280 -2.0337 0.9334
-15.2967 -7.6894 -2.0337 0.9334
-12.8193 -7.9279 -1.7904 0.9411
-11.3064 -8.4520 -1.6768 0.9447
-11.7041 -12.4948 -2.0337 0.9334
-10.5598 -13.4759 -2.0337 0.9334
-14.3257 0.8982 -2.0338 0.9437
-14.3491 -0.3653 -2.0338 0.9437
-14.2612 -1.6259 -2.0338 0.9437
-14.0629 -2.8739 -2.0337 0.9437
-13.3416 -5.2936 -2.0337 0.9437
-12.2075 -7.5495 -2.0337 0.9437
-11.4962 -8.5939 -2.0337 0.9437
-7.8250 -12.0327 -2.0337 0.9437
-5.5955 -13.2177 -2.0337 0.9437
-11.6923 3.9635 -2.0338 0.9512
-12.3214 0.7726 -2.0338 0.9512
-12.3415 -0.3142 -2.0338 0.9512
-12.2660 -1.3984 -2.0338 0.9512
-12.0954 -2.4719 -2.0338 0.9512
-11.8311 -3.5261 -2.0338 0.9512
-11.4750 -4.5530 -2.0338 0.9512
-11.0301 -5.5446 -2.0337 0.9512
-9.1993 -8.2326 -2.0337 0.9512
-8.4396 -9.0098 -2.0337 0.9512
-7.6144 -9.7171 -2.0337 0.9512
-5.7939 -10.9011 -2.0337 0.9512
-10.2478 3.4738 -2.0339 0.9569
-10.6979 1.6243 -2.0338 0.9569
-10.7507 -1.2257 -2.0338 0.9569
-9.2025 -5.6911 -2.0338 0.9569
-7.3970 -7.8968 -2.0337 0.9569
-4.2181 -9.9641 -2.0338 0.9569
-9.1125 3.0889 -2.0339 0.9614
-9.6028 0.6021 -2.0338 0.9614
-9.6185 -0.2448 -2.0338 0.9614
-9.5596 -1.0899 -2.0338 0.9614
-9.4267 -1.9265 -2.0338 0.9614
-9.2207 -2.7481 -2.0338 0.9614
-8.5964 -4.3213 -2.0338 0.9614
-7.7062 -5.7608 -2.0338 0.9614
-5.2453 -8.0658 -2.0338 0.9614
-4.5155 -8.4959 -2.0338 0.9614
-3.7508 -8.8602 -2.0338 0.9614
-8.4083 2.0466 -2.0339 0.9651
-8.5557 1.2991 -2.0338 0.9651
-8.5979 -0.9803 -2.0338 0.9651
-8.4784 -1.7327 -2.0338 0.9651
-7.7317 -3.8866 -2.0338 0.9651
-6.9310 -5.1813 -2.0338 0.9651
-6.4484 -5.7708 -2.0338 0.9651
-5.3375 -6.8114 -2.0338 0.9651
-3.3735 -7.9689 -2.0338 0.9651
-7.4394 2.5218 -2.0339 0.9681
-7.8526 -0.1999 -2.0338 0.9681
-7.8045 -0.8898 -2.0338 0.9681
-7.6960 -1.5728 -2.0338 0.9681
-7.5278 -2.2436 -2.0338 0.9681
-6.6807 -4.1315 -2.0338 0.9681
-4.8448 -6.1828 -2.0338 0.9681
-4.2823 -6.5850 -2.0338 0.9681
-3.6866 -6.9362 -2.0338 0.9681
-6.9806 1.6990 -2.0339 0.9706
-7.1820 -0.1828 -2.0338 0.9706
-7.1381 -0.8138 -2.0338 0.9706
-7.0388 -1.4385 -2.0338 0.9706
-6.8850 -2.0520 -2.0338 0.9706
-5.7542 -4.3015 -2.0338 0.9706
-3.9166 -6.0227 -2.0338 0.9706
-3.3718 -6.3439 -2.0338 0.9706
-2.8007 -6.6158 -2.0338 0.9706
-6.5995 0.4138 -2.0338 0.9727
-6.6103 -0.1683 -2.0338 0.9727
-6.5698 -0.7490 -2.0338 0.9727
-6.4785 -1.3240 -2.0338 0.9727
-5.9079 -2.9698 -2.0338 0.9727
-5.6238 -3.4779 -2.0338 0.9727
-5.2961 -3.9591 -2.0338 0.9727
-4.9273 -4.4096 -2.0338 0.9727
-4.5204 -4.8258 -2.0338 0.9727
-4.0784 -5.2047 -2.0338 0.9727
-3.1033 -5.8388 -2.0338 0.9727
-2.5778 -6.0892 -2.0338 0.9727
-5.9450 1.4470 -2.0339 0.9745
-6.0493 0.9185 -2.0339 0.9745
-6.1166 -0.1557 -2.0338 0.9745
-5.9946 -1.2251 -2.0338 0.9745
-5.6871 -2.2565 -2.0338 0.9745
-5.4666 -2.7480 -2.0338 0.9745
-4.1828 -4.4654 -2.0338 0.9745
-2.8716 -5.4028 -2.0338 0.9745
-2.3852 -5.6344 -2.0338 0.9745
-5.3864 1.8259 -2.0339 0.9761
-5.5261 1.3450 -2.0339 0.9761
-5.6855 -0.1447 -2.0338 0.9761
-5.6507 -0.6442 -2.0338 0.9761
-5.4504 -1.6245 -2.0338 0.9761
-5.0814 -2.5544 -2.0338 0.9761
-4.8371 -2.9914 -2.0338 0.9761
-3.8881 -4.1507 -2.0338 0.9761
-2.6692 -5.0220 -2.0338 0.9761
-5.1568 1.2551 -2.0339 0.9775
-5.2471 0.7967 -2.0339 0.9775
-5.2969 0.3321 -2.0339 0.9775
-5.2731 -0.6012 -2.0338 0.9775
-5.1998 -1.0627 -2.0338 0.9775
-5.0862 -1.5159 -2.0338 0.9775
-4.9331 -1.9573 -2.0338 0.9775
-3.9548 -3.5393 -2.0338 0.9775
-3.2735 -4.1774 -2.0338 0.9775
-2.8934 -4.4492 -2.0338 0.9775
-2.0690 -4.8873 -2.0338 0.9775
-4.7064 1.5954 -2.0339 0.9788
-2.1211 0.1330 -0.8698 0.9909
-2.1227 -0.0541 -0.8690 0.9909
-2.1106 -0.2407 -0.8694 0.9909
-2.1217 -0.4336 -0.8863 0.9907
-4.7624 -1.4194 -2.0338 0.9788
-4.4400 -2.2319 -2.0338 0.9788
-3.9802 -2.9754 -2.0338 0.9788
-3.0651 -3.9115 -2.0338 0.9788
-2.3323 -4.3881 -2.0338 0.9788
-4.4198 1.4982 -2.0339 0.9798
-1.9073 -0.2175 -0.8366 0.9917
-4.1696 -2.0960 -2.0338 0.9798
-3.4775 -3.1121 -2.0338 0.9798
-2.8784 -3.6733 -2.0338 0.9798
-2.5442 -3.9122 -2.0338 0.9798
-2.1902 -4.1209 -2.0338 0.9798
-1.7082 0.5790 -0.8349 0.9921
-1.5793 0.3844 -0.7524 0.9929
-1.5805 -0.0403 -0.7318 0.9931
-1.6090 -0.1835 -0.7496 0.9929
-1.5989 -0.3268 -0.7554 0.9928
-1.5405 -0.4592 -0.7441 0.9929
-4.0841 -1.6205 -2.0338 0.9808
-3.9257 -1.9734 -2.0338 0.9808
-3.7370 -2.3111 -2.0338 0.9808
-3.5192 -2.6308 -2.0338 0.9808
-3.2742 -2.9301 -2.0338 0.9808
-3.0038 -3.2067 -2.0338 0.9808
-2.3954 -3.6834 -2.0338 0.9808
-2.0622 -3.8799 -2.0338 0.9808
-1.2769 0.4328 -0.6614 0.9940
-1.3197 0.3212 -0.6662 0.9940
-1.3512 0.0847 -0.6641 0.9940
-1.3529 -0.1543 -0.6679 0.9940
-1.3328 -0.2724 -0.6673 0.9940
-1.2970 -0.3866 -0.6639 0.9940
-1.2525 -0.4970 -0.6610 0.9940
-3.7045 -1.8622 -2.0338 0.9817
-3.5264 -2.1809 -2.0338 0.9817
-3.3209 -2.4825 -2.0338 0.9817
-3.0897 -2.7650 -2.0338 0.9817
-2.5574 -3.2636 -2.0338 0.9817
-1.9459 -3.6613 -2.0338 0.9817
-1.1376 0.3856 -0.6231 0.9946
-1.1937 0.1812 -0.6264 0.9946
-1.1221 -0.4453 -0.6263 0.9946
-3.5028 -1.7608 -2.0339 0.9825
-3.3343 -2.0621 -2.0338 0.9825
-2.9214 -2.6144 -2.0338 0.9825
-1.8400 -3.4619 -2.0338 0.9825
-1.5284 -3.6103 -2.0338 0.9825
-1.0464 0.2546 -0.5898 0.9951
-1.0716 0.1627 -0.5937 0.9951
-1.0813 0.0678 -0.5934 0.9951
-1.0777 -0.1229 -0.5941 0.9951
-1.0587 -0.2164 -0.5919 0.9951
-1.0359 -0.3088 -0.5920 0.9951
-0.9818 -0.4936 -0.6019 0.9950
-3.1582 -1.9532 -2.0339 0.9832
-2.9742 -2.2234 -2.0338 0.9832
-2.7671 -2.4763 -2.0338 0.9832
-2.2904 -2.9229 -2.0338 0.9832
-2.0245 -3.1131 -2.0338 0.9832
-1.7428 -3.2791 -2.0338 0.9832
-1.4477 -3.4196 -2.0338 0.9832
-0.9503 0.3221 -0.5793 0.9954
-0.9653 0.2349 -0.5736 0.9954
-0.9827 0.1492 -0.5739 0.9954
-0.9898 -0.0252 -0.5717 0.9954
-0.9869 -0.1125 -0.5735 0.9954
-0.9564 -0.2851 -0.5762 0.9954
-0.9389 -0.3726 -0.5832 0.9953
-2.9961 -1.8529 -2.0339 0.9839
-2.8215 -2.1092 -2.0339 0.9839
-2.6250 -2.3492 -2.0339 0.9839
-2.1728 -2.7729 -2.0339 0.9839
-1.9205 -2.9532 -2.0339 0.9839
