ply
format ascii 1.0
element vertex 191
property float32 x
property float32 y
property float32 z
property float32 I
end_header
2.9714 18.5503 3.3126 0.9265
-11.9274 13.0738 3.1205 0.9306
2.9959 18.7032 2.9017 0.9262
1.2660 18.3214 2.8134 0.9284
-11.4726 12.5753 2.6077 0.9334
2.8209 17.6118 1.9153 0.9308
-11.4380 12.5374 1.8224 0.9340
-12.9602 11.8667 1.8869 0.9317
2.8146 17.5718 1.5065 0.9311
1.3108 18.9716 1.6098 0.9265
-11.5629 12.6742 1.4523 0.9334
2.7729 17.3116 0.6913 0.9322
-12.0670 13.2267 0.7060 0.9308
2.9548 18.4473 -0.1052 0.9280
-0.8575 7.7141 -0.7452 0.9693
-11.9805 13.1320 -1.7066 0.9311
4.2145 16.5975 -2.0341 0.9333
1.1804 17.0834 -2.0341 0.9333
-0.3571 17.1202 -2.0341 0.9333
-1.5336 7.5444 -0.9145 0.9695
-2.1961 7.3491 -0.9111 0.9696
-6.3549 15.9005 -2.0340 0.9333
-13.6149 10.3832 -2.0339 0.9334
-15.8876 6.3829 -2.0338 0.9334
3.5332 13.9144 -2.0341 0.9437
-0.2993 14.3526 -2.0341 0.9437
-5.3276 13.3302 -2.0340 0.9437
-6.5020 12.7983 -2.0340 0.9437
-8.6845 11.4301 -2.0340 0.9437
-10.5871 9.6938 -2.0339 0.9437
-11.4141 8.7048 -2.0339 0.9437
-12.1489 7.6455 -2.0339 0.9437
3.0388 11.9674 -2.0341 0.9512
1.9529 12.1917 -2.0341 0.9512
0.8511 12.3177 -2.0340 0.9512
-1.4893 7.3270 -1.2317 0.9701
-4.5821 11.4650 -2.0340 0.9512
-5.5922 11.0076 -2.0340 0.9512
-6.5572 10.4613 -2.0340 0.9512
-9.1058 8.3375 -2.0339 0.9512
-9.8171 7.4868 -2.0339 0.9512
-11.4559 4.6025 -2.0339 0.9512
1.7116 10.6854 -2.0340 0.9569
0.7460 10.7958 -2.0340 0.9569
-0.2256 10.8191 -2.0340 0.9569
-0.8104 7.2908 -1.3788 0.9706
-4.0159 10.0485 -2.0340 0.9569
-4.9013 9.6476 -2.0340 0.9569
-5.7471 9.1688 -2.0340 0.9569
-6.5465 8.6162 -2.0339 0.9569
-7.2931 7.9941 -2.0339 0.9569
-7.9809 7.3074 -2.0339 0.9569
-9.6383 4.9185 -2.0339 0.9569
1.5219 9.5014 -2.0340 0.9614
0.6633 9.5997 -2.0340 0.9614
-0.2007 9.6204 -2.0340 0.9614
-2.0756 6.9458 -1.5324 0.9708
-3.5711 8.9352 -2.0340 0.9614
-4.3583 8.5787 -2.0340 0.9614
-5.8212 7.6616 -2.0339 0.9614
-7.0966 6.4978 -2.0339 0.9614
-7.6509 5.8349 -2.0339 0.9614
-8.5705 4.3735 -2.0339 0.9614
0.5966 8.6339 -2.0340 0.9651
-0.8120 7.3050 -1.7274 0.9703
-1.4866 7.3138 -1.7541 0.9698
-3.9198 7.7157 -2.0340 0.9651
-4.5963 7.3328 -2.0339 0.9651
-5.2356 6.8908 -2.0339 0.9651
-5.8327 6.3933 -2.0339 0.9651
-6.3827 5.8441 -2.0339 0.9651
-6.8813 5.2479 -2.0339 0.9651
-7.3243 4.6093 -2.0339 0.9651
-8.0301 3.2261 -2.0339 0.9651
1.2425 7.7569 -2.0340 0.9681
-2.9154 7.2946 -2.0340 0.9681
-3.5581 7.0036 -2.0339 0.9681
-4.1721 6.6561 -2.0339 0.9681
-4.7524 6.2549 -2.0339 0.9681
-5.2944 5.8032 -2.0339 0.9681
-5.7936 5.3048 -2.0339 0.9681
-6.2462 4.7636 -2.0339 0.9681
-7.2890 2.9284 -2.0339 0.9681
1.7683 6.9639 -2.0340 0.9706
-0.1498 7.1833 -2.0340 0.9706
-0.7937 7.1408 -2.0340 0.9706
-1.4312 7.0408 -2.0340 0.9706
-2.6664 6.6717 -2.0340 0.9706
-3.8157 6.0877 -2.0339 0.9706
-4.8422 5.3077 -2.0339 0.9706
-5.7128 4.3568 -2.0339 0.9706
-6.0807 3.8267 -2.0339 0.9706
-6.3994 3.2656 -2.0339 0.9706
-6.6665 2.6783 -2.0339 0.9706
1.6275 6.4095 -2.0340 0.9727
0.4558 6.5971 -2.0340 0.9727
-0.1379 6.6114 -2.0340 0.9727
-0.7305 6.5723 -2.0340 0.9727
-1.3172 6.4803 -2.0340 0.9727
-1.8933 6.3359 -2.0340 0.9727
-2.4541 6.1405 -2.0339 0.9727
-4.4568 4.8851 -2.0339 0.9727
-4.8771 4.4656 -2.0339 0.9727
-5.5966 3.5220 -2.0339 0.9727
-6.1359 2.4651 -2.0339 0.9727
1.5060 5.9308 -2.0340 0.9745
0.4218 6.1044 -2.0340 0.9745
-2.2709 5.6819 -2.0339 0.9745
-3.2497 5.1846 -2.0339 0.9745
-4.1239 4.5203 -2.0339 0.9745
-4.8653 3.7104 -2.0339 0.9745
-5.4501 2.7812 -2.0339 0.9745
0.8996 5.6161 -2.0340 0.9761
0.3921 5.6742 -2.0340 0.9761
-0.6283 5.6529 -2.0340 0.9761
-1.1329 5.5737 -2.0340 0.9761
-1.6284 5.4495 -2.0339 0.9761
-2.1108 5.2814 -2.0339 0.9761
-3.4408 4.5287 -2.0339 0.9761
-3.8332 4.2017 -2.0339 0.9761
-5.0660 2.5852 -2.0339 0.9761
0.3658 5.2949 -2.0340 0.9775
-0.1106 5.3064 -2.0340 0.9775
-0.5863 5.2751 -2.0340 0.9775
-2.4039 4.7319 -2.0339 0.9775
-2.8188 4.4971 -2.0339 0.9775
-3.5771 3.9209 -2.0339 0.9775
-4.2202 3.2185 -2.0339 0.9775
-4.4919 2.8269 -2.0339 0.9775
-4.7274 2.4124 -2.0339 0.9775
-4.9248 1.9785 -2.0339 0.9775
1.2231 4.8168 -2.0340 0.9787
0.7860 4.9071 -2.0340 0.9787
0.3426 4.9578 -2.0340 0.9787
-0.1036 4.9686 -2.0340 0.9787
-0.9899 4.8700 -2.0339 0.9788
-1.4228 4.7616 -2.0339 0.9788
-1.8443 4.6147 -2.0339 0.9788
-3.0064 3.9570 -2.0339 0.9788
-3.3494 3.6713 -2.0339 0.9788
-3.6652 3.3559 -2.0339 0.9788
-4.2059 2.6469 -2.0339 0.9788
-4.6112 1.8526 -2.0339 0.9788
1.1486 4.5234 -2.0340 0.9798
0.7381 4.6082 -2.0340 0.9798
-0.0973 4.6660 -2.0340 0.9798
-0.9296 4.5734 -2.0339 0.9798
-1.7320 4.3336 -2.0339 0.9798
-2.4786 3.9543 -2.0339 0.9798
-3.1454 3.4477 -2.0339 0.9798
-3.4420 3.1516 -2.0339 0.9798
-3.9498 2.4857 -2.0339 0.9798
-4.1569 2.1212 -2.0339 0.9798
1.0814 4.2589 -2.0340 0.9808
0.3029 4.3836 -2.0340 0.9808
-0.4854 4.3672 -2.0339 0.9808
-1.2580 4.2101 -2.0339 0.9808
-1.9902 3.9174 -2.0339 0.9808
-2.3336 3.7230 -2.0339 0.9808
-3.4939 2.6646 -2.0339 0.9808
1.0205 4.0189 -2.0340 0.9817
0.6559 4.0943 -2.0340 0.9817
-0.8259 4.0634 -2.0339 0.9817
-2.7946 3.0632 -2.0339 0.9817
-3.6932 1.8847 -2.0339 0.9817
-1.7312 0.6955 -0.9152 0.9917
0.2703 3.9113 -2.0339 0.9825
-2.0822 3.3219 -2.0339 0.9825
-2.8915 2.6476 -2.0339 0.9825
-3.1174 2.3775 -2.0339 0.9825
-3.3182 2.0882 -2.0339 0.9825
-3.4921 1.7820 -2.0339 0.9825
-1.1206 0.4502 -0.6265 0.9946
0.9139 3.5994 -2.0339 0.9832
-0.7397 3.6391 -2.0339 0.9832
-1.0632 3.5581 -2.0339 0.9832
-1.6820 3.3108 -2.0339 0.9832
-1.9723 3.1465 -2.0339 0.9832
-2.2466 2.9569 -2.0339 0.9832
-0.9797 0.4999 -0.6024 0.9950
-1.0126 0.4068 -0.5977 0.9950
0.8670 3.4145 -2.0339 0.9839
0.5572 3.4786 -2.0339 0.9839
0.2429 3.5145 -2.0339 0.9839
-0.0734 3.5221 -2.0339 0.9839
-0.3891 3.5013 -2.0339 0.9839
-0.7017 3.4523 -2.0339 0.9839
-1.3074 3.2713 -2.0339 0.9839
-1.8710 2.9849 -2.0339 0.9839
-2.5982 2.3790 -2.0339 0.9839
-0.9377 0.3767 -0.5835 0.9953
