ply
format ascii 1.0
element vertex 193
property float32 x
property float32 y
property float32 z
property float32 I
end_header
-11.7686 -8.4753 -0.7355 0.9436
-11.2647 -8.1124 -1.3327 0.9457
-17.1206 0.1444 -2.0338 0.9334
-17.0636 -1.4012 -2.0337 0.9334
-16.8674 -2.9354 -2.0337 0.9334
-16.5336 -4.4455 -2.0337 0.9334
-16.0648 -5.9194 -2.0337 0.9334
-15.4650 -7.3450 -2.0337 0.9334
-14.7390 -8.7105 -2.0337 0.9334
-11.3093 -8.1446 -1.6555 0.9454
-11.8680 -12.3393 -2.0337 0.9334
-10.7060 -13.3600 -2.0337 0.9334
-9.4567 -14.2716 -2.0337 0.9334
-5.2896 -16.2829 -2.0337 0.9334
-14.3055 -1.1748 -2.0338 0.9437
-14.1411 -2.4609 -2.0338 0.9437
-13.8612 -3.7270 -2.0337 0.9437
-13.4682 -4.9626 -2.0337 0.9437
-11.5708 -8.3329 -2.0204 0.9440
-9.9498 -10.3449 -2.0337 0.9437
-8.9756 -11.2006 -2.0337 0.9437
-7.9282 -11.9649 -2.0337 0.9437
-4.4346 -13.6511 -2.0337 0.9437
-1.9086 -14.2260 -2.0337 0.9437
-12.3451 0.1041 -2.0338 0.9512
-12.3040 -1.0104 -2.0338 0.9512
-12.1625 -2.1166 -2.0338 0.9512
-11.9220 -3.2056 -2.0338 0.9512
-11.1514 -5.2963 -2.0337 0.9512
-10.6280 -6.2810 -2.0337 0.9512
-10.0177 -7.2145 -2.0337 0.9512
-8.5577 -8.8976 -2.0337 0.9512
-6.8191 -10.2909 -2.0337 0.9512
-5.8625 -10.8643 -2.0337 0.9512
-4.8582 -11.3491 -2.0337 0.9512
-2.7391 -12.0375 -2.0337 0.9512
-1.6416 -12.2357 -2.0337 0.9512
-10.8200 0.0912 -2.0338 0.9569
-10.7840 -0.8856 -2.0338 0.9569
-10.6600 -1.8551 -2.0338 0.9569
-10.4491 -2.8096 -2.0338 0.9569
-10.1529 -3.7410 -2.0338 0.9569
-9.7738 -4.6420 -2.0338 0.9569
-9.3150 -5.5050 -2.0338 0.9569
-8.7802 -6.3232 -2.0338 0.9569
-8.1737 -7.0897 -2.0338 0.9569
-7.5006 -7.7984 -2.0337 0.9569
-6.7662 -8.4435 -2.0337 0.9569
-3.3430 -10.2908 -2.0338 0.9569
-2.4007 -10.5505 -2.0338 0.9569
-1.4388 -10.7241 -2.0338 0.9569
-9.6213 0.0811 -2.0338 0.9614
-9.5893 -0.7875 -2.0338 0.9614
-9.2914 -2.4983 -2.0338 0.9614
-9.0281 -3.3266 -2.0338 0.9614
-8.6911 -4.1277 -2.0338 0.9614
-8.2831 -4.8952 -2.0338 0.9614
-6.6696 -6.9345 -2.0338 0.9614
-5.3145 -8.0204 -2.0338 0.9614
-4.5691 -8.4673 -2.0338 0.9614
-3.7863 -8.8451 -2.0338 0.9614
-1.2794 -9.5360 -2.0338 0.9614
-8.6534 0.0730 -2.0338 0.9651
-8.5255 -1.4837 -2.0338 0.9651
-8.1199 -2.9919 -2.0338 0.9651
-7.8168 -3.7125 -2.0338 0.9651
-7.4499 -4.4028 -2.0338 0.9651
-7.0221 -5.0571 -2.0338 0.9651
-3.4054 -7.9553 -2.0338 0.9651
-7.8287 -0.6429 -2.0338 0.9681
-7.7387 -1.3468 -2.0338 0.9681
-7.5856 -2.0397 -2.0338 0.9681
-7.3706 -2.7159 -2.0338 0.9681
-7.0955 -3.3699 -2.0338 0.9681
-6.3741 -4.5904 -2.0338 0.9681
-4.9120 -6.1297 -2.0338 0.9681
-3.7302 -6.9128 -2.0338 0.9681
-3.0912 -7.2212 -2.0338 0.9681
-2.4269 -7.4707 -2.0338 0.9681
-1.7428 -7.6593 -2.0338 0.9681
-7.1841 0.0606 -2.0338 0.9706
-6.9379 -1.8655 -2.0338 0.9706
-6.7412 -2.4839 -2.0338 0.9706
-6.1849 -3.6552 -2.0338 0.9706
-4.4926 -5.6062 -2.0338 0.9706
-3.9683 -5.9887 -2.0338 0.9706
-3.4117 -6.3225 -2.0338 0.9706
-2.2196 -6.8328 -2.0338 0.9706
-1.5940 -7.0052 -2.0338 0.9706
-6.6122 0.0557 -2.0338 0.9727
-6.5902 -0.5412 -2.0338 0.9727
-6.5145 -1.1337 -2.0338 0.9727
-5.3657 -3.8642 -2.0338 0.9727
-4.9951 -4.3327 -2.0338 0.9727
-4.1349 -5.1599 -2.0338 0.9727
-3.6524 -5.5121 -2.0338 0.9727
-2.6022 -6.0788 -2.0338 0.9727
-1.4671 -6.4476 -2.0338 0.9727
-6.1184 0.0516 -2.0338 0.9745
-5.9086 -1.5888 -2.0338 0.9745
-5.7412 -2.1155 -2.0338 0.9745
-5.5268 -2.6249 -2.0338 0.9745
-3.8261 -4.7746 -2.0338 0.9745
-3.3796 -5.1004 -2.0338 0.9745
-2.9055 -5.3846 -2.0338 0.9745
-2.4078 -5.6248 -2.0338 0.9745
-1.3576 -5.9660 -2.0338 0.9745
-5.6682 -0.4655 -2.0338 0.9761
-5.6031 -0.9751 -2.0338 0.9761
-5.4923 -1.4768 -2.0338 0.9761
-5.1373 -2.4399 -2.0338 0.9761
-4.8962 -2.8936 -2.0338 0.9761
-4.6152 -3.3237 -2.0338 0.9761
-4.2963 -3.7266 -2.0338 0.9761
-3.9425 -4.0991 -2.0338 0.9761
-3.1415 -4.7410 -2.0338 0.9761
-2.7008 -5.0051 -2.0338 0.9761
-1.7571 -5.4091 -2.0338 0.9761
-0.7563 -5.6368 -2.0338 0.9761
-5.3071 0.0447 -2.0339 0.9775
-5.2287 -0.9099 -2.0338 0.9775
-4.7941 -2.2769 -2.0338 0.9775
-4.5690 -2.7002 -2.0338 0.9775
-4.3066 -3.1015 -2.0338 0.9775
-3.6791 -3.8251 -2.0338 0.9775
-3.3188 -4.1415 -2.0338 0.9775
-2.9315 -4.4241 -2.0338 0.9775
-2.0885 -4.8790 -2.0338 0.9775
-1.6398 -5.0476 -2.0338 0.9775
-0.7057 -5.2601 -2.0338 0.9775
-2.1218 0.0179 -0.8684 0.9909
-4.6629 -1.7181 -2.0338 0.9788
-4.4888 -2.1319 -2.0338 0.9788
-3.7539 -3.2561 -2.0338 0.9788
-1.9556 -4.5684 -2.0338 0.9788
-1.5354 -4.7262 -2.0338 0.9788
-1.1026 -4.8455 -2.0338 0.9788
-0.6608 -4.9253 -2.0338 0.9788
-1.9184 0.0161 -0.8361 0.9917
-1.9052 -0.3316 -0.8428 0.9916
-4.2154 -2.0021 -2.0338 0.9798
-4.0175 -2.3743 -2.0338 0.9798
-3.7869 -2.7272 -2.0338 0.9798
-3.2350 -3.3635 -2.0338 0.9798
-2.2162 -4.1070 -2.0338 0.9798
-1.4419 -4.4384 -2.0338 0.9798
-1.0355 -4.5504 -2.0338 0.9798
-1.6095 -0.2801 -0.7562 0.9928
-1.5623 -0.4201 -0.7489 0.9929
-4.1229 -1.5192 -2.0338 0.9808
-3.9689 -1.8850 -2.0338 0.9808
-3.7826 -2.2355 -2.0338 0.9808
-3.3192 -2.8790 -2.0338 0.9808
-2.4270 -3.6627 -2.0338 0.9808
-1.3381 0.0112 -0.6564 0.9941
-1.3531 -0.1112 -0.6659 0.9940
-3.1321 -2.7168 -2.0338 0.9817
-2.2903 -3.4564 -2.0338 0.9817
-1.9690 -3.6489 -2.0338 0.9817
-1.6317 -3.8117 -2.0338 0.9817
-1.2811 -3.9434 -2.0338 0.9817
-0.9199 -4.0429 -2.0338 0.9817
-1.1933 0.0100 -0.6191 0.9946
-1.2004 -0.0986 -0.6249 0.9946
-3.5413 -1.6819 -2.0339 0.9825
-3.3751 -1.9946 -2.0338 0.9825
-2.7177 -2.8256 -2.0338 0.9825
-1.8618 -3.4502 -2.0338 0.9825
-0.8698 -3.8228 -2.0339 0.9825
-0.5213 -3.8856 -2.0339 0.9825
-1.0770 0.0090 -0.5899 0.9951
-1.0668 -0.1857 -0.5931 0.9951
-1.0217 -0.3765 -0.5964 0.9950
-0.9902 -0.4703 -0.6004 0.9950
-3.1968 -1.8893 -2.0339 0.9832
-2.8052 -2.4332 -2.0338 0.9832
-2.5742 -2.6764 -2.0338 0.9832
-2.3221 -2.8978 -2.0338 0.9832
-1.7634 -3.2680 -2.0338 0.9832
-1.4614 -3.4138 -2.0338 0.9832
-1.1473 -3.5318 -2.0339 0.9832
-0.8239 -3.6209 -2.0339 0.9832
-0.9597 -0.2581 -0.5738 0.9954
-0.9449 -0.3482 -0.5814 0.9954
-0.9190 -0.4365 -0.5874 0.9953
-3.0327 -1.7923 -2.0339 0.9839
-2.8586 -2.0587 -2.0339 0.9839
-2.6611 -2.3082 -2.0339 0.9839
-2.4420 -2.5390 -2.0339 0.9839
-2.2029 -2.7490 -2.0339 0.9839
-1.9459 -2.9366 -2.0339 0.9839
-1.6729 -3.1002 -2.0339 0.9839
-1.3863 -3.2385 -2.0339 0.9839
