ply
format ascii 1.0
element vertex 185
property float32 x
property float32 y
property float32 z
property float32 I
end_header
-11.6837 -8.5436 -0.7340 0.9437
-11.6785 -8.5398 -1.0608 0.9436
-13.2839 -7.9725 -1.4874 0.9396
-16.8252 3.1710 -2.0338 0.9334
-17.0434 1.6314 -2.0338 0.9334
-17.0573 -1.4753 -2.0337 0.9334
-16.5097 -4.5333 -2.0337 0.9334
-16.0302 -6.0124 -2.0337 0.9334
-13.0252 -7.8172 -1.8045 0.9406
-11.2757 -8.2452 -1.6593 0.9453
-12.8459 -11.3177 -2.0337 0.9334
-11.7661 -12.4365 -2.0337 0.9334
-9.3251 -14.3579 -2.0337 0.9334
-7.9839 -15.1448 -2.0337 0.9334
-5.1158 -16.3384 -2.0337 0.9334
-14.1057 2.6584 -2.0338 0.9437
-14.2886 1.3677 -2.0338 0.9437
-14.3536 0.0657 -2.0338 0.9437
-14.3003 -1.2369 -2.0338 0.9437
-14.1290 -2.5292 -2.0338 0.9437
-13.4393 -5.0406 -2.0337 0.9437
-12.3070 -7.3862 -2.0337 0.9437
-10.7696 -9.4885 -2.0337 0.9437
-8.8777 -11.2784 -2.0337 0.9437
-7.8179 -12.0373 -2.0337 0.9437
-5.5139 -13.2519 -2.0337 0.9437
-12.3454 0.0565 -2.0338 0.9512
-11.5590 -4.3354 -2.0338 0.9512
-11.1180 -5.3662 -2.0337 0.9512
-10.5852 -6.3528 -2.0337 0.9512
-9.9651 -7.2869 -2.0337 0.9512
-8.4843 -8.9677 -2.0337 0.9512
-5.7570 -10.9206 -2.0337 0.9512
-4.7425 -11.3979 -2.0337 0.9512
-10.6333 2.0040 -2.0338 0.9569
-10.7712 1.0310 -2.0338 0.9569
-10.7801 -0.9324 -2.0338 0.9569
-10.6510 -1.9066 -2.0338 0.9569
-10.4340 -2.8650 -2.0338 0.9569
-10.1310 -3.7998 -2.0338 0.9569
-9.2775 -5.5680 -2.0338 0.9569
-8.7341 -6.3867 -2.0338 0.9569
-8.1186 -7.1528 -2.0338 0.9569
-6.6924 -8.5021 -2.0337 0.9569
-9.5858 -0.8291 -2.0338 0.9614
-9.4710 -1.6953 -2.0338 0.9614
-9.2781 -2.5476 -2.0338 0.9614
-7.7665 -5.6792 -2.0338 0.9614
-7.2192 -6.3604 -2.0338 0.9614
-6.6124 -6.9891 -2.0338 0.9614
-5.2405 -8.0690 -2.0338 0.9614
-3.6962 -8.8831 -2.0338 0.9614
-8.5041 1.6027 -2.0338 0.9651
-8.6536 0.0396 -2.0338 0.9651
-8.6215 -0.7457 -2.0338 0.9651
-8.5183 -1.5248 -2.0338 0.9651
-7.7933 -3.7615 -2.0338 0.9651
-7.4198 -4.4531 -2.0338 0.9651
-5.9472 -6.2861 -2.0338 0.9651
-5.3524 -6.7997 -2.0338 0.9651
-4.7134 -7.2572 -2.0338 0.9651
-3.3244 -7.9896 -2.0338 0.9651
-2.5858 -8.2582 -2.0338 0.9651
-7.7193 1.4548 -2.0339 0.9681
-7.8194 0.7485 -2.0338 0.9681
-7.8550 0.0360 -2.0338 0.9681
-7.8259 -0.6769 -2.0338 0.9681
-6.7352 -4.0422 -2.0338 0.9681
-6.3406 -4.6365 -2.0338 0.9681
-5.3984 -5.7060 -2.0338 0.9681
-4.8584 -6.1722 -2.0338 0.9681
-3.6631 -6.9486 -2.0338 0.9681
-3.0175 -7.2522 -2.0338 0.9681
-2.3472 -7.4961 -2.0338 0.9681
-7.1517 0.6846 -2.0338 0.9706
-7.1843 0.0329 -2.0338 0.9706
-7.1576 -0.6191 -2.0338 0.9706
-7.0719 -1.2659 -2.0338 0.9706
-6.4700 -3.1229 -2.0338 0.9706
-5.3905 -4.7493 -2.0338 0.9706
-4.4436 -5.6452 -2.0338 0.9706
-3.9131 -6.0251 -2.0338 0.9706
-3.3503 -6.3552 -2.0338 0.9706
-2.1467 -6.8560 -2.0338 0.9706
-6.6123 0.0303 -2.0338 0.9727
-6.5089 -1.1651 -2.0338 0.9727
-6.3764 -1.7509 -2.0338 0.9727
-6.1912 -2.3221 -2.0338 0.9727
-5.6696 -3.4027 -2.0338 0.9727
-5.3375 -3.9030 -2.0338 0.9727
-4.5444 -4.8033 -2.0338 0.9727
-4.0898 -5.1958 -2.0338 0.9727
-3.6016 -5.5454 -2.0338 0.9727
-2.5402 -6.1050 -2.0338 0.9727
-1.9759 -6.3103 -2.0338 0.9727
-6.0127 1.1332 -2.0339 0.9745
-6.0907 0.5830 -2.0339 0.9745
-6.1186 0.0280 -2.0338 0.9745
-6.0958 -0.5272 -2.0338 0.9745
-5.9002 -1.6201 -2.0338 0.9745
-5.7288 -2.1487 -2.0338 0.9745
-5.2462 -3.1486 -2.0338 0.9745
-4.9389 -3.6115 -2.0338 0.9745
-4.2050 -4.4446 -2.0338 0.9745
-1.8283 -5.8390 -2.0338 0.9745
-5.5890 1.0533 -2.0339 0.9761
-5.6615 0.5419 -2.0339 0.9761
-5.6873 0.0260 -2.0339 0.9761
-5.5983 -1.0021 -2.0338 0.9761
-3.5177 -4.4689 -2.0338 0.9761
-2.6522 -5.0310 -2.0338 0.9761
-1.6995 -5.4275 -2.0338 0.9761
-5.2831 0.5057 -2.0339 0.9775
-5.2875 -0.4573 -2.0338 0.9775
-5.1178 -1.4053 -2.0338 0.9775
-4.7796 -2.3070 -2.0338 0.9775
-3.9822 -3.5084 -2.0338 0.9775
-3.2826 -4.1703 -2.0338 0.9775
-1.5859 -5.0648 -2.0338 0.9775
-2.1214 0.0097 -0.8683 0.9909
-2.1193 -0.3794 -0.8812 0.9907
-4.7920 -1.3158 -2.0338 0.9788
-4.0113 -2.9332 -2.0338 0.9788
-3.0737 -3.9048 -2.0338 0.9788
-2.3174 -4.3960 -2.0338 0.9788
-1.4849 -4.7423 -2.0338 0.9788
-1.9051 0.3590 -0.8449 0.9916
-1.9116 0.1829 -0.8369 0.9917
-1.9134 -0.1655 -0.8370 0.9917
-1.9052 -0.3411 -0.8435 0.9916
-1.9834 -0.5446 -0.8964 0.9911
-4.0014 -2.4015 -2.0338 0.9798
-3.7670 -2.7546 -2.0338 0.9798
-3.2073 -3.3900 -2.0338 0.9798
-2.8864 -3.6670 -2.0338 0.9798
-2.5419 -3.9137 -2.0338 0.9798
-2.1763 -4.1282 -2.0338 0.9798
-1.7928 -4.3086 -2.0338 0.9798
-1.3945 -4.4535 -2.0338 0.9798
-1.6061 0.1537 -0.7468 0.9929
-1.6041 -0.1388 -0.7453 0.9929
-1.6081 -0.2879 -0.7562 0.9928
-1.5582 -0.4279 -0.7480 0.9929
-4.1140 -1.5430 -2.0338 0.9808
-3.9570 -1.9099 -2.0338 0.9808
-3.0197 -3.1917 -2.0338 0.9808
-2.7177 -3.4526 -2.0338 0.9808
-2.0491 -3.8868 -2.0338 0.9808
-1.6880 -4.0567 -2.0338 0.9808
-1.3129 -4.1931 -2.0338 0.9808
-1.3363 0.0061 -0.6555 0.9941
-1.3533 -0.1171 -0.6663 0.9940
-1.3069 -0.3589 -0.6648 0.9940
-1.2595 -0.4724 -0.6598 0.9940
-3.7341 -1.8023 -2.0338 0.9817
-3.3469 -2.4474 -2.0338 0.9817
-3.1111 -2.7410 -2.0338 0.9817
-2.8496 -3.0119 -2.0338 0.9817
-2.2584 -3.4773 -2.0338 0.9817
-1.9336 -3.6678 -2.0338 0.9817
-1.5929 -3.8281 -2.0338 0.9817
-1.2389 -3.9568 -2.0338 0.9817
-1.1926 0.0054 -0.6187 0.9946
-1.2004 -0.1039 -0.6251 0.9946
-1.1868 -0.2125 -0.6255 0.9946
-3.3615 -2.0175 -2.0338 0.9825
-2.9416 -2.5917 -2.0338 0.9825
-2.6943 -2.8478 -2.0338 0.9825
-1.5061 -3.6196 -2.0338 0.9825
-1.1715 -3.7414 -2.0338 0.9825
-1.0632 0.2003 -0.5926 0.9951
-1.0764 0.0049 -0.5895 0.9951
-1.0390 -0.2853 -0.5901 0.9951
-2.5521 -2.6975 -2.0338 0.9832
-2.0226 -3.1143 -2.0338 0.9832
-1.7317 -3.2849 -2.0338 0.9832
-0.9770 0.1841 -0.5740 0.9954
-0.9883 0.0946 -0.5732 0.9954
-0.9889 -0.0856 -0.5730 0.9954
-0.9786 -0.1752 -0.5740 0.9954
-0.9171 -0.4427 -0.5879 0.9953
-2.8436 -2.0794 -2.0339 0.9839
-2.4210 -2.5590 -2.0339 0.9839
-1.3533 -3.2524 -2.0339 0.9839
-1.0527 -3.3618 -2.0339 0.9839
