ply
format ascii 1.0
element vertex 195
property float32 x
property float32 y
property float32 z
property float32 I
end_header
2.9890 18.5393 3.3112 0.9266
3.0145 18.6979 2.9014 0.9262
-11.5157 12.4853 2.6020 0.9336
-11.3601 12.3165 2.1819 0.9346
-11.4831 12.4498 1.8187 0.9341
1.3181 18.9740 1.6101 0.9265
1.3141 18.9176 1.1759 0.9268
-12.3484 13.3879 1.1294 0.9296
2.7925 17.3209 0.6918 0.9322
1.3072 18.8169 0.7438 0.9273
-11.7884 12.7808 0.6856 0.9328
2.8777 17.8492 0.3054 0.9302
-12.0108 13.0220 -0.8984 0.9315
-12.0503 13.0649 -1.3032 0.9312
11.0681 13.0669 -2.0341 0.9333
9.8420 14.0136 -2.0341 0.9333
8.5354 14.8456 -2.0341 0.9333
7.1590 15.5561 -2.0341 0.9333
1.1868 17.0829 -2.0341 0.9333
-0.3618 17.1202 -2.0341 0.9333
-6.4003 15.8823 -2.0340 0.9333
-7.8092 15.2388 -2.0340 0.9334
-11.6090 12.5864 -2.0339 0.9334
-12.6987 11.4858 -2.0339 0.9334
9.2788 10.9545 -2.0341 0.9437
7.1556 12.4456 -2.0341 0.9437
6.0017 13.0413 -2.0341 0.9437
3.5564 13.9085 -2.0341 0.9437
2.2850 14.1729 -2.0341 0.9437
-1.4729 7.1879 -1.0396 0.9708
-2.2175 7.3614 -1.0893 0.9694
-5.3657 13.3149 -2.0340 0.9437
-6.5469 12.7754 -2.0340 0.9437
-8.7392 11.3883 -2.0340 0.9437
-9.7324 10.5519 -2.0339 0.9437
7.0964 10.1042 -2.0341 0.9512
6.1543 10.7041 -2.0341 0.9512
4.1272 11.6370 -2.0341 0.9512
3.0587 11.9623 -2.0341 0.9512
1.9653 12.1897 -2.0341 0.9512
0.8557 12.3173 -2.0340 0.9512
-0.2609 12.3443 -2.0340 0.9512
-2.1817 7.2425 -1.2461 0.9698
-5.6308 10.9879 -2.0340 0.9512
-6.6006 10.4340 -2.0340 0.9512
-8.3707 9.0754 -2.0339 0.9512
6.9944 8.2575 -2.0341 0.9569
5.3939 9.3816 -2.0341 0.9569
4.5241 9.8306 -2.0340 0.9569
3.6173 10.1992 -2.0340 0.9569
2.6808 10.4843 -2.0340 0.9569
1.7225 10.6836 -2.0340 0.9569
-0.8163 7.2832 -1.3775 0.9706
-1.4783 7.2144 -1.3842 0.9705
-4.0447 10.0370 -2.0340 0.9569
-7.3365 7.9542 -2.0339 0.9569
3.2164 9.0691 -2.0340 0.9614
2.3838 9.3227 -2.0340 0.9614
1.5316 9.4999 -2.0340 0.9614
0.6668 9.5994 -2.0340 0.9614
-2.0950 6.9545 -1.5353 0.9707
-7.1361 6.4544 -2.0339 0.9614
4.9741 7.0823 -2.0340 0.9651
2.8929 8.1567 -2.0340 0.9651
2.1439 8.3847 -2.0340 0.9651
-0.1829 8.6525 -2.0340 0.9651
-0.8195 7.3108 -1.7290 0.9702
-2.1847 7.2523 -1.7801 0.9694
-3.9469 7.7019 -2.0340 0.9651
-5.2686 6.8656 -2.0339 0.9651
-5.8674 6.3614 -2.0339 0.9651
3.9156 6.8104 -2.0340 0.9681
3.2842 7.1364 -2.0340 0.9681
2.6259 7.4039 -2.0340 0.9681
1.2504 7.7556 -2.0340 0.9681
-0.1659 7.8540 -2.0340 0.9681
-3.5826 6.9911 -2.0339 0.9681
-4.7824 6.2320 -2.0339 0.9681
-5.3259 5.7743 -2.0339 0.9681
-5.8259 5.2694 -2.0339 0.9681
4.6438 5.4825 -2.0340 0.9706
2.4016 6.7716 -2.0340 0.9706
0.4979 7.1676 -2.0340 0.9706
-1.4422 7.0385 -2.0340 0.9706
-2.0723 6.8794 -2.0340 0.9706
-2.6854 6.6640 -2.0340 0.9706
-3.2767 6.3940 -2.0339 0.9706
-3.8410 6.0717 -2.0339 0.9706
-4.3740 5.6998 -2.0339 0.9706
4.2741 5.0460 -2.0340 0.9727
3.2961 5.7329 -2.0340 0.9727
2.2104 6.2325 -2.0340 0.9727
1.0525 6.5286 -2.0340 0.9727
0.4584 6.5970 -2.0340 0.9727
-0.7366 6.5717 -2.0340 0.9727
-1.3274 6.4782 -2.0340 0.9727
-1.9074 6.3317 -2.0340 0.9727
-3.5352 5.5884 -2.0339 0.9727
3.9549 4.6691 -2.0340 0.9745
1.5158 5.9282 -2.0340 0.9745
0.9739 6.0409 -2.0340 0.9745
-1.2282 5.9943 -2.0340 0.9745
-2.7906 5.4454 -2.0339 0.9745
-3.7250 4.8542 -2.0339 0.9745
-4.5379 4.1044 -2.0339 0.9745
3.6762 4.3401 -2.0340 0.9761
2.8350 4.9308 -2.0340 0.9761
2.3778 5.1669 -2.0340 0.9761
1.9012 5.3606 -2.0340 0.9761
1.4090 5.5104 -2.0340 0.9761
-0.6335 5.6523 -2.0340 0.9761
-1.1417 5.5719 -2.0340 0.9761
-2.1259 5.2754 -2.0339 0.9761
-2.5939 5.0617 -2.0339 0.9761
-3.0407 4.8066 -2.0339 0.9761
-3.8561 4.1808 -2.0339 0.9761
-4.2181 3.8152 -2.0339 0.9761
3.4305 4.0500 -2.0340 0.9775
1.3148 5.1421 -2.0340 0.9775
0.8448 5.2399 -2.0340 0.9775
0.3678 5.2948 -2.0340 0.9775
-0.1121 5.3064 -2.0340 0.9775
-0.5912 5.2745 -2.0340 0.9775
-1.5309 5.0819 -2.0339 0.9775
-2.4205 4.7234 -2.0339 0.9775
-3.5984 3.9013 -2.0339 0.9775
2.8563 4.0669 -2.0340 0.9787
2.4771 4.3084 -2.0340 0.9787
2.0776 4.5146 -2.0340 0.9787
1.6612 4.6838 -2.0340 0.9787
1.2312 4.8147 -2.0340 0.9787
0.7910 4.9063 -2.0340 0.9787
-0.5535 4.9387 -2.0340 0.9787
-0.9976 4.8685 -2.0339 0.9788
-2.2664 4.4227 -2.0339 0.9788
-2.6568 4.1998 -2.0339 0.9788
-3.0254 3.9425 -2.0339 0.9788
-3.3693 3.6530 -2.0339 0.9788
3.0164 3.5612 -2.0340 0.9798
2.6823 3.8192 -2.0340 0.9798
2.3262 4.0460 -2.0340 0.9798
0.7429 4.6075 -2.0340 0.9798
0.3234 4.6557 -2.0340 0.9798
-0.0986 4.6659 -2.0340 0.9798
-0.5198 4.6379 -2.0339 0.9798
-0.9368 4.5720 -2.0339 0.9798
-1.3461 4.4686 -2.0339 0.9798
-2.1284 4.1533 -2.0339 0.9798
-2.8412 3.7024 -2.0339 0.9798
-3.4611 3.1305 -2.0339 0.9798
2.8401 3.3529 -2.0340 0.9808
2.5255 3.5959 -2.0340 0.9808
2.1902 3.8093 -2.0340 0.9808
1.0885 4.2571 -2.0340 0.9808
0.3045 4.3835 -2.0340 0.9808
-0.0928 4.3931 -2.0339 0.9808
-1.2674 4.2073 -2.0339 0.9808
-1.6424 4.0755 -2.0339 0.9808
-2.3491 3.7133 -2.0339 0.9808
-2.9790 3.2299 -2.0339 0.9808
-3.2587 2.9475 -2.0339 0.9808
2.6800 3.1640 -2.0340 0.9817
2.3832 3.3932 -2.0340 0.9817
1.7335 3.7668 -2.0340 0.9817
1.3860 3.9080 -2.0340 0.9817
0.2874 4.1365 -2.0339 0.9817
-0.0876 4.1455 -2.0339 0.9817
-0.4619 4.1206 -2.0339 0.9817
-1.1960 3.9702 -2.0339 0.9817
-1.5498 3.8459 -2.0339 0.9817
-2.8112 3.0479 -2.0339 0.9817
2.5340 2.9917 -2.0340 0.9825
1.9542 3.3989 -2.0340 0.9825
1.3105 3.6951 -2.0340 0.9825
0.9712 3.7984 -2.0340 0.9825
0.6241 3.8707 -2.0339 0.9825
-0.0829 3.9197 -2.0339 0.9825
-2.0960 3.3133 -2.0339 0.9825
-2.3868 3.1103 -2.0339 0.9825
-2.6581 2.8819 -2.0339 0.9825
2.1344 3.0390 -2.0340 0.9832
1.5525 3.3735 -2.0340 0.9832
0.5911 3.6662 -2.0339 0.9832
-0.0784 3.7127 -2.0339 0.9832
-1.0711 3.5557 -2.0339 0.9832
-1.9853 3.1383 -2.0339 0.9832
-2.2607 2.9460 -2.0339 0.9832
2.2770 2.6882 -2.0340 0.9839
0.5607 3.4780 -2.0339 0.9839
-0.3923 3.5009 -2.0339 0.9839
-0.7071 3.4511 -2.0339 0.9839
-1.0161 3.3731 -2.0339 0.9839
-1.3168 3.2675 -2.0339 0.9839
-1.8834 2.9771 -2.0339 0.9839
-2.6127 2.3631 -2.0339 0.9839
