ply
format ascii 1.0
element vertex 180
property float32 x
property float32 y
property float32 z
property float32 I
end_header
3.7325 18.3911 3.3090 0.9266
3.7643 18.5481 2.4646 0.9265
3.7814 18.6318 2.0415 0.9264
3.5821 17.6502 1.5246 0.9303
3.6246 17.8593 1.1300 0.9296
3.6834 18.1489 0.7302 0.9285
3.7699 18.5754 0.3202 0.9270
17.0580 1.4996 -2.0341 0.9333
16.8493 3.0542 -2.0341 0.9333
16.4993 4.5832 -2.0341 0.9333
12.7707 11.4086 -2.0341 0.9333
9.1943 14.4468 -2.0341 0.9333
7.8337 15.2275 -2.0341 0.9333
6.4074 15.8804 -2.0341 0.9333
14.2899 -1.3701 -2.0340 0.9437
14.1255 2.5605 -2.0341 0.9437
13.4225 5.0919 -2.0341 0.9437
12.9003 6.2988 -2.0341 0.9437
12.2698 7.4529 -2.0341 0.9437
11.5364 8.5444 -2.0341 0.9437
10.7061 9.5642 -2.0341 0.9437
8.7838 11.3552 -2.0341 0.9437
4.1308 13.7488 -2.0341 0.9437
2.8554 14.0691 -2.0341 0.9437
12.2904 -1.1784 -2.0340 0.9512
12.2995 1.0812 -2.0340 0.9512
11.5443 4.3794 -2.0340 0.9512
11.0952 5.4175 -2.0341 0.9512
9.2080 8.2259 -2.0341 0.9512
8.4167 9.0340 -2.0341 0.9512
7.5548 9.7663 -2.0341 0.9512
5.6484 10.9795 -2.0341 0.9512
3.5528 11.8250 -2.0341 0.9512
2.4559 12.1004 -2.0341 0.9512
10.7719 -1.0328 -2.0340 0.9569
10.7798 0.9477 -2.0340 0.9569
10.6480 1.9301 -2.0340 0.9569
10.4267 2.8964 -2.0340 0.9569
10.1179 3.8384 -2.0340 0.9569
9.7243 4.7481 -2.0340 0.9569
8.0703 7.2096 -2.0341 0.9569
6.6213 8.5596 -2.0341 0.9569
4.9505 9.6229 -2.0341 0.9569
3.1139 10.3640 -2.0340 0.9569
2.1525 10.6054 -2.0340 0.9569
9.5855 0.8427 -2.0340 0.9614
9.4682 1.7163 -2.0340 0.9614
8.6469 4.2221 -2.0340 0.9614
8.2243 4.9956 -2.0340 0.9614
6.5594 7.0405 -2.0340 0.9614
5.8877 7.6112 -2.0340 0.9614
5.1664 8.1180 -2.0340 0.9614
4.4020 8.5567 -2.0340 0.9614
2.7688 9.2156 -2.0340 0.9614
8.6148 -0.8260 -2.0340 0.9651
8.6211 0.7579 -2.0340 0.9651
8.5157 1.5436 -2.0340 0.9651
8.3387 2.3163 -2.0340 0.9651
8.0918 3.0697 -2.0340 0.9651
7.3969 4.4930 -2.0340 0.9651
4.6467 7.3013 -2.0340 0.9651
3.9591 7.6959 -2.0340 0.9651
3.2382 8.0259 -2.0340 0.9651
7.8556 -0.0310 -2.0340 0.9681
7.7298 1.4012 -2.0340 0.9681
7.3450 2.7864 -2.0340 0.9681
5.3550 5.7478 -2.0340 0.9681
4.2179 6.6275 -2.0340 0.9681
3.5937 6.9856 -2.0340 0.9681
2.2604 7.5236 -2.0340 0.9681
1.5625 7.6988 -2.0340 0.9681
7.1520 -0.6857 -2.0340 0.9706
7.0696 1.2815 -2.0340 0.9706
6.9227 1.9230 -2.0340 0.9706
6.1408 3.7300 -2.0340 0.9706
5.3582 4.7867 -2.0340 0.9706
4.8977 5.2569 -2.0340 0.9706
4.3961 5.6830 -2.0340 0.9706
2.6883 6.6630 -2.0340 0.9706
6.5826 -0.6311 -2.0339 0.9727
6.6128 -0.0261 -2.0340 0.9727
6.5069 1.1795 -2.0340 0.9727
6.3716 1.7699 -2.0340 0.9727
5.9424 2.9015 -2.0340 0.9727
5.3141 3.9359 -2.0340 0.9727
4.5078 4.8384 -2.0340 0.9727
4.0461 5.2306 -2.0340 0.9727
3.5505 5.5789 -2.0340 0.9727
6.0910 -0.5840 -2.0339 0.9745
6.1189 -0.0242 -2.0340 0.9745
6.0954 0.5358 -2.0340 0.9745
6.0208 1.0913 -2.0340 0.9745
5.8957 1.6377 -2.0340 0.9745
5.7211 2.1704 -2.0340 0.9745
5.4985 2.6848 -2.0340 0.9745
5.2298 3.1766 -2.0340 0.9745
4.1711 4.4770 -2.0340 0.9745
3.7439 4.8399 -2.0340 0.9745
3.2854 5.1622 -2.0340 0.9745
2.7992 5.4412 -2.0340 0.9745
2.2896 5.6745 -2.0340 0.9745
1.2170 5.9967 -2.0340 0.9745
5.6617 -0.5428 -2.0339 0.9761
5.4802 1.5223 -2.0340 0.9761
5.3179 2.0174 -2.0340 0.9761
4.5706 3.3852 -2.0340 0.9761
3.8772 4.1615 -2.0340 0.9761
3.4801 4.4988 -2.0340 0.9761
3.0538 4.7984 -2.0340 0.9761
2.6019 5.0577 -2.0340 0.9761
1.1313 5.5741 -2.0340 0.9761
5.2833 -0.5065 -2.0339 0.9775
5.3075 -0.0210 -2.0339 0.9775
5.1139 1.4206 -2.0340 0.9775
4.9625 1.8826 -2.0340 0.9775
4.7694 2.3287 -2.0340 0.9775
4.5363 2.7554 -2.0340 0.9775
4.2652 3.1590 -2.0340 0.9775
3.6180 3.8834 -2.0340 0.9775
3.2475 4.1982 -2.0340 0.9775
2.8497 4.4777 -2.0340 0.9775
2.4280 4.7197 -2.0340 0.9775
1.9859 4.9220 -2.0340 0.9775
1.5272 5.0831 -2.0340 0.9775
1.0557 5.2016 -2.0340 0.9775
4.9470 -0.4743 -2.0339 0.9788
4.9696 -0.0196 -2.0339 0.9788
4.9505 0.4352 -2.0339 0.9788
4.6466 1.7627 -2.0340 0.9787
3.9936 2.9578 -2.0340 0.9787
3.7062 3.3109 -2.0340 0.9787
2.2734 4.4192 -2.0340 0.9787
1.8595 4.6087 -2.0340 0.9787
4.6457 -0.4454 -2.0339 0.9798
4.4967 1.2491 -2.0340 0.9798
4.3636 1.6553 -2.0340 0.9798
4.1938 2.0477 -2.0340 0.9798
3.9888 2.4229 -2.0340 0.9798
1.3429 4.4696 -2.0340 0.9798
4.3740 -0.4194 -2.0339 0.9808
4.3772 0.3848 -2.0339 0.9808
4.2338 1.1761 -2.0340 0.9808
4.1084 1.5585 -2.0340 0.9808
3.9486 1.9279 -2.0340 0.9808
3.7555 2.2812 -2.0340 0.9808
2.9953 3.2150 -2.0340 0.9808
2.3593 3.7070 -2.0340 0.9808
2.0101 3.9073 -2.0340 0.9808
1.2644 4.2082 -2.0340 0.9808
0.8740 4.3063 -2.0340 0.9808
4.1275 -0.3958 -2.0339 0.9817
4.0800 0.7396 -2.0339 0.9817
3.7261 1.8193 -2.0340 0.9817
3.5439 2.1527 -2.0340 0.9817
3.3321 2.4679 -2.0340 0.9817
3.0923 2.7625 -2.0340 0.9817
1.8969 3.6872 -2.0340 0.9817
2.0734 -0.1988 -1.0806 0.9907
2.0710 -0.0082 -1.0744 0.9907
2.1042 0.3814 -1.1094 0.9904
3.5231 1.7202 -2.0340 0.9825
3.1506 2.3335 -2.0340 0.9825
2.6726 2.8686 -2.0340 0.9825
2.3989 3.1011 -2.0340 0.9825
1.8505 -0.0073 -1.0135 0.9916
1.8539 0.3360 -1.0319 0.9914
3.4721 1.3172 -2.0339 0.9832
3.1739 1.9279 -2.0339 0.9832
2.9842 2.2102 -2.0340 0.9832
2.2722 2.9373 -2.0340 0.9832
1.9939 3.1329 -2.0340 0.9832
1.0686 3.5565 -2.0339 0.9832
1.7245 -0.0068 -0.9957 0.9921
1.7139 0.3107 -1.0057 0.9920
1.7114 0.4754 -1.0255 0.9918
3.1657 1.5457 -2.0339 0.9839
3.0110 1.8289 -2.0339 0.9839
2.4014 2.5776 -2.0339 0.9839
1.8915 2.9721 -2.0340 0.9839
1.6116 3.1327 -2.0339 0.9839
