ply
format ascii 1.0
element vertex 167
property float32 x
property float32 y
property float32 z
property float32 I
end_header
17.8087 -3.1787 -1.3264 0.9300
16.3253 -4.4580 -1.6247 0.9343
17.8124 -3.1794 -1.7371 0.9299
14.5212 8.7615 -1.6282 0.9341
16.5184 -4.5107 -2.0340 0.9334
17.0592 -1.4826 -2.0340 0.9333
17.1236 0.0556 -2.0340 0.9333
16.4896 4.6181 -2.0341 0.9333
16.0082 6.0805 -2.0341 0.9333
15.3974 7.4938 -2.0341 0.9333
14.6622 8.8465 -2.0341 0.9333
12.8430 11.3271 -2.0341 0.9333
11.7737 12.4348 -2.0341 0.9333
10.6093 13.4421 -2.0341 0.9333
9.3591 14.3407 -2.0341 0.9333
8.0332 15.1233 -2.0341 0.9333
13.8482 -3.7815 -2.0340 0.9437
14.1320 -2.5225 -2.0340 0.9437
14.3015 -1.2430 -2.0340 0.9437
14.3555 0.0466 -2.0340 0.9437
14.1157 2.6142 -2.0341 0.9437
13.8239 3.8715 -2.0341 0.9437
12.2919 7.4164 -2.0341 0.9437
10.7668 9.4959 -2.0341 0.9437
8.8942 11.2690 -2.0341 0.9437
5.5686 13.2321 -2.0341 0.9437
12.3468 0.0401 -2.0340 0.9512
12.1405 2.2484 -2.0340 0.9512
11.5425 4.3842 -2.0340 0.9512
11.1021 5.4033 -2.0341 0.9512
10.5719 6.3786 -2.0341 0.9512
7.6496 9.6922 -2.0341 0.9512
6.7482 10.3401 -2.0341 0.9512
5.7921 10.9044 -2.0341 0.9512
4.7894 11.3805 -2.0341 0.9512
10.6529 -1.9015 -2.0340 0.9569
10.7745 1.0070 -2.0340 0.9569
10.1164 3.8426 -2.0340 0.9569
9.7304 4.7357 -2.0340 0.9569
8.1161 7.1581 -2.0341 0.9569
7.4404 7.8581 -2.0341 0.9569
6.7045 8.4946 -2.0341 0.9569
5.0765 9.5571 -2.0341 0.9569
9.2825 -2.5347 -2.0340 0.9614
9.5862 -0.8332 -2.0340 0.9614
9.6223 0.0313 -2.0340 0.9614
9.2660 2.5951 -2.0340 0.9614
8.9955 3.4168 -2.0340 0.9614
7.7593 5.6910 -2.0340 0.9614
6.6159 6.9874 -2.0340 0.9614
5.9616 7.5535 -2.0340 0.9614
5.2591 8.0584 -2.0340 0.9614
4.5140 8.4981 -2.0340 0.9614
8.3486 -2.2797 -2.0339 0.9651
8.6543 0.0281 -2.0340 0.9651
8.3338 2.3340 -2.0340 0.9651
8.0905 3.0731 -2.0340 0.9651
7.7818 3.7873 -2.0340 0.9651
4.7300 7.2477 -2.0340 0.9651
4.0599 7.6432 -2.0340 0.9651
3.3570 7.9770 -2.0340 0.9651
7.5781 -2.0694 -2.0339 0.9681
7.7334 -1.3804 -2.0340 0.9681
7.8556 0.0255 -2.0340 0.9681
7.8216 0.7310 -2.0340 0.9681
7.7244 1.4305 -2.0340 0.9681
7.3438 2.7894 -2.0340 0.9681
6.7263 4.0583 -2.0340 0.9681
6.3346 4.6461 -2.0340 0.9681
4.2934 6.5787 -2.0340 0.9681
3.0472 7.2407 -2.0340 0.9681
6.9310 -1.8927 -2.0339 0.9706
7.0730 -1.2625 -2.0339 0.9706
7.1578 -0.6221 -2.0340 0.9706
6.9187 1.9376 -2.0340 0.9706
6.4604 3.1442 -2.0340 0.9706
6.1519 3.7118 -2.0340 0.9706
5.7936 4.2493 -2.0340 0.9706
4.9399 5.2173 -2.0340 0.9706
4.4513 5.6399 -2.0340 0.9706
3.9268 6.0169 -2.0340 0.9706
3.3705 6.3453 -2.0340 0.9706
6.5099 -1.1620 -2.0339 0.9727
6.5880 -0.5726 -2.0340 0.9727
6.5841 0.6153 -2.0340 0.9727
6.5023 1.2042 -2.0340 0.9727
6.1820 2.3481 -2.0340 0.9727
5.9461 2.8939 -2.0340 0.9727
4.9596 4.3742 -2.0340 0.9727
2.5651 6.0952 -2.0340 0.9727
5.9027 -1.6119 -2.0339 0.9745
6.0237 -1.0752 -2.0339 0.9745
6.1189 0.0199 -2.0340 0.9745
5.8922 1.6502 -2.0340 0.9745
5.7202 2.1727 -2.0340 0.9745
5.5020 2.6778 -2.0340 0.9745
4.9341 3.6189 -2.0340 0.9745
3.7909 4.8032 -2.0340 0.9745
2.3735 5.6399 -2.0340 0.9745
5.6630 0.5292 -2.0340 0.9761
5.4770 1.5339 -2.0340 0.9761
5.1142 2.4890 -2.0340 0.9761
4.8700 2.9383 -2.0340 0.9761
3.9106 4.1301 -2.0340 0.9761
3.5237 4.4647 -2.0340 0.9761
3.1086 4.7631 -2.0340 0.9761
2.2062 5.2424 -2.0340 0.9761
5.1200 -1.3981 -2.0339 0.9775
5.2250 -0.9326 -2.0339 0.9775
5.3075 0.0172 -2.0339 0.9775
5.2188 0.9665 -2.0340 0.9775
4.7724 2.3226 -2.0340 0.9775
4.5445 2.7419 -2.0340 0.9775
4.2799 3.1390 -2.0340 0.9775
3.9806 3.5108 -2.0340 0.9775
4.9510 -0.4303 -2.0339 0.9788
4.9481 0.4624 -2.0339 0.9787
4.8866 0.9050 -2.0340 0.9787
4.7855 1.3402 -2.0340 0.9787
4.6458 1.7646 -2.0340 0.9787
4.4686 2.1748 -2.0340 0.9787
4.2552 2.5673 -2.0340 0.9787
4.0074 2.9392 -2.0340 0.9787
3.0789 3.9011 -2.0340 0.9787
1.9277 4.5806 -2.0340 0.9787
4.5021 -1.2294 -2.0339 0.9798
4.5943 -0.8201 -2.0339 0.9798
4.6494 -0.4041 -2.0339 0.9798
4.3629 1.6572 -2.0340 0.9798
4.1964 2.0423 -2.0340 0.9798
3.9961 2.4110 -2.0340 0.9798
3.7633 2.7602 -2.0340 0.9798
2.5507 3.9084 -2.0340 0.9798
1.8103 4.3016 -2.0340 0.9798
4.2389 -1.1575 -2.0339 0.9808
4.3750 0.4088 -2.0339 0.9808
4.3206 0.8001 -2.0339 0.9808
4.2313 1.1850 -2.0340 0.9808
3.5432 2.5987 -2.0340 0.9808
2.7223 3.4492 -2.0340 0.9808
4.1464 0.0134 -2.0339 0.9817
3.9929 1.1182 -2.0339 0.9817
3.5503 2.1421 -2.0340 0.9817
3.1098 2.7427 -2.0340 0.9817
2.5689 3.2549 -2.0340 0.9817
1.9451 3.6619 -2.0340 0.9817
2.1037 -0.3755 -1.1086 0.9904
2.0733 0.1937 -1.0803 0.9907
2.1047 0.3898 -1.1104 0.9904
3.7754 1.0573 -2.0339 0.9825
3.5253 1.7157 -2.0339 0.9825
2.1428 3.2833 -2.0340 0.9825
1.8392 3.4625 -2.0340 0.9825
1.5208 3.6137 -2.0340 0.9825
1.8535 -0.3309 -1.0312 0.9915
1.8500 0.1729 -1.0177 0.9916
3.4716 1.3186 -2.0339 0.9832
3.1796 1.9185 -2.0339 0.9832
2.9945 2.1963 -2.0340 0.9832
2.5532 2.6966 -2.0340 0.9832
2.0296 3.1099 -2.0340 0.9832
1.4404 3.4229 -2.0340 0.9832
1.7111 0.4792 -1.0259 0.9918
3.0164 1.8200 -2.0339 0.9839
2.6421 2.3302 -2.0339 0.9839
2.1826 2.7654 -2.0340 0.9839
1.9254 2.9502 -2.0340 0.9839
