ply
format ascii 1.0
element vertex 198
property float32 x
property float32 y
property float32 z
property float32 I
end_header
3.1698 18.5946 3.3260 0.9262
-12.1102 13.1447 3.1515 0.9300
1.4582 18.7730 2.8846 0.9266
-11.5112 12.4946 2.6026 0.9336
1.3582 17.4870 2.2840 0.9317
-11.3555 12.3255 2.1824 0.9346
2.9683 17.4125 1.8968 0.9314
1.4462 18.6200 1.5810 0.9278
2.9641 17.3881 1.0938 0.9317
-12.3385 13.3925 1.1292 0.9296
3.2798 19.2402 0.7696 0.9248
1.3902 17.8980 0.7079 0.9307
-12.0080 13.0338 -0.8988 0.9315
-17.2759 4.9370 -1.3174 0.9305
-1.5188 7.6305 -0.7469 0.9692
-12.0374 13.0657 -1.7056 0.9311
-17.5624 5.0189 -1.7536 0.9292
1.3261 17.0727 -2.0341 0.9333
-1.4926 7.4987 -0.9082 0.9697
-2.1809 7.3671 -0.9126 0.9695
-6.3377 15.9074 -2.0340 0.9333
-9.1216 14.4913 -2.0340 0.9334
-12.7019 11.4823 -2.0339 0.9334
-15.3345 7.6169 -2.0339 0.9334
-16.4626 4.7045 -2.0338 0.9334
2.4125 14.1517 -2.0341 0.9437
1.1117 14.3127 -2.0341 0.9437
-0.1983 14.3544 -2.0341 0.9437
-1.4363 7.2160 -1.0425 0.9707
-6.5073 12.7957 -2.0340 0.9437
-8.7231 11.4005 -2.0340 0.9437
-9.7265 10.5574 -2.0339 0.9437
-11.4822 8.6148 -2.0339 0.9437
-12.2199 7.5316 -2.0339 0.9437
-12.8558 6.3857 -2.0339 0.9437
2.0749 12.1715 -2.0341 0.9512
0.9562 12.3100 -2.0340 0.9512
-0.1705 12.3458 -2.0340 0.9512
-0.7820 7.4098 -1.2275 0.9702
-4.5697 11.4699 -2.0340 0.9512
-7.5026 9.8054 -2.0339 0.9512
-8.3656 9.0802 -2.0339 0.9512
-9.1588 8.2793 -2.0339 0.9512
-9.8756 7.4095 -2.0339 0.9512
-10.5102 6.4778 -2.0339 0.9512
-11.0571 5.4922 -2.0339 0.9512
-11.8706 3.3923 -2.0338 0.9512
-0.1495 10.8205 -2.0340 0.9569
-0.7710 7.3052 -1.3807 0.9705
-1.4291 7.1798 -1.3760 0.9706
-4.0051 10.0528 -2.0340 0.9569
-5.7645 9.1579 -2.0340 0.9569
-8.6555 6.4940 -2.0339 0.9569
-9.2117 5.6775 -2.0339 0.9569
-9.6911 4.8137 -2.0339 0.9569
-10.0896 3.9097 -2.0339 0.9569
0.7451 9.5937 -2.0340 0.9614
-0.1329 9.6216 -2.0340 0.9614
-1.4148 7.1081 -1.5320 0.9708
-2.0550 6.9420 -1.5304 0.9708
-3.5614 8.9390 -2.0340 0.9614
-4.3618 8.5769 -2.0340 0.9614
-5.1258 8.1433 -2.0339 0.9614
-6.5197 7.0766 -2.0339 0.9614
-7.1379 6.4525 -2.0339 0.9614
-9.2514 2.6438 -2.0339 0.9614
-9.4539 1.7890 -2.0338 0.9614
0.6702 8.6285 -2.0340 0.9651
-0.7673 7.2702 -1.7182 0.9704
-2.1278 7.1879 -1.7618 0.9697
-3.2031 8.0397 -2.0340 0.9651
-4.6102 7.3240 -2.0339 0.9651
-5.8638 6.3647 -2.0339 0.9651
-6.4198 5.8033 -2.0339 0.9651
-7.3671 4.5406 -2.0339 0.9651
-8.5029 1.6090 -2.0338 0.9651
1.3201 7.7440 -2.0340 0.9681
0.6083 7.8321 -2.0340 0.9681
-0.1085 7.8550 -2.0340 0.9681
-0.7767 7.3595 -1.9161 0.9699
-2.9075 7.2977 -2.0340 0.9681
-4.7736 6.2387 -2.0339 0.9681
-6.2835 4.7143 -2.0339 0.9681
-7.0352 3.4945 -2.0339 0.9681
-7.3246 2.8383 -2.0339 0.9681
-7.7182 1.4605 -2.0339 0.9681
1.2074 7.0827 -2.0340 0.9706
0.5564 7.1633 -2.0340 0.9706
-1.4025 7.0466 -2.0340 0.9706
-2.0394 6.8892 -2.0340 0.9706
-3.2568 6.4042 -2.0339 0.9706
-6.4345 3.1961 -2.0339 0.9706
-7.0591 1.3358 -2.0339 0.9706
1.1112 6.5188 -2.0340 0.9727
0.5121 6.5930 -2.0340 0.9727
-0.0913 6.6122 -2.0340 0.9727
-1.8770 6.3408 -2.0340 0.9727
-2.4475 6.1431 -2.0339 0.9727
-4.0183 5.2517 -2.0339 0.9727
-4.4806 4.8633 -2.0339 0.9727
-5.6293 3.4695 -2.0339 0.9727
-5.9222 2.9417 -2.0339 0.9727
-6.1658 2.3893 -2.0339 0.9727
-6.3580 1.8169 -2.0339 0.9727
-1.1945 6.0012 -2.0340 0.9745
-1.7368 5.8672 -2.0340 0.9745
-3.7182 4.8595 -2.0339 0.9745
-4.1459 4.5001 -2.0339 0.9745
-4.5391 4.1032 -2.0339 0.9745
-4.8943 3.6721 -2.0339 0.9745
-6.0119 1.1377 -2.0339 0.9745
0.9558 5.6068 -2.0340 0.9761
-1.1103 5.5782 -2.0340 0.9761
-2.5782 5.0697 -2.0339 0.9761
-3.0298 4.8134 -2.0339 0.9761
-3.4562 4.5170 -2.0339 0.9761
-3.8537 4.1829 -2.0339 0.9761
-4.2192 3.8140 -2.0339 0.9761
-5.3032 2.0550 -2.0339 0.9761
-5.4685 1.5628 -2.0339 0.9761
-5.5882 1.0575 -2.0339 0.9761
-0.5570 5.2782 -2.0340 0.9775
-1.9644 4.9306 -2.0339 0.9775
-2.4059 4.7309 -2.0339 0.9775
-2.8273 4.4917 -2.0339 0.9775
-3.2252 4.2151 -2.0339 0.9775
-3.5962 3.9034 -2.0339 0.9775
-3.9372 3.5591 -2.0339 0.9775
-4.2454 3.1852 -2.0339 0.9775
-4.5182 2.7847 -2.0339 0.9775
-5.1030 1.4583 -2.0339 0.9775
-5.2148 0.9868 -2.0339 0.9775
0.3848 4.9547 -2.0340 0.9787
-0.0687 4.9692 -2.0340 0.9787
-2.2527 4.4296 -2.0339 0.9788
-2.6473 4.2058 -2.0339 0.9788
-3.9751 2.9824 -2.0339 0.9788
-4.4507 2.2107 -2.0339 0.9788
-4.7782 1.3655 -2.0339 0.9788
-2.1208 0.4013 -0.8834 0.9907
-0.0645 4.6665 -2.0340 0.9798
-0.4898 4.6412 -2.0339 0.9798
-1.3247 4.4750 -2.0339 0.9798
-1.7273 4.3355 -2.0339 0.9798
-2.1155 4.1599 -2.0339 0.9798
-2.4861 3.9496 -2.0339 0.9798
-3.4620 3.1296 -2.0339 0.9798
-3.7330 2.8008 -2.0339 0.9798
-4.1796 2.0761 -2.0339 0.9798
-1.9051 0.3605 -0.8450 0.9916
0.7384 4.3316 -2.0340 0.9808
-0.4611 4.3698 -2.0339 0.9808
-0.8578 4.3095 -2.0339 0.9808
-1.6263 4.0820 -2.0339 0.9808
-1.9918 3.9166 -2.0339 0.9808
-2.3407 3.7186 -2.0339 0.9808
-2.6701 3.4896 -2.0339 0.9808
-2.9772 3.2316 -2.0339 0.9808
-3.5147 2.6370 -2.0339 0.9808
-4.0971 1.5876 -2.0339 0.9808
-1.5496 0.4428 -0.7460 0.9929
-1.6048 0.3037 -0.7560 0.9928
0.6968 4.0875 -2.0340 0.9817
0.3211 4.1340 -2.0339 0.9817
-0.8094 4.0667 -2.0339 0.9817
-1.5346 3.8520 -2.0339 0.9817
-3.3167 2.4884 -2.0339 0.9817
-1.2556 0.4865 -0.6605 0.9940
0.6588 3.8649 -2.0339 0.9825
0.3036 3.9089 -2.0339 0.9825
-0.4114 3.8990 -2.0339 0.9825
-0.7654 3.8452 -2.0339 0.9825
-1.7772 3.4946 -2.0339 0.9825
-2.6564 2.8834 -2.0339 0.9825
-3.1360 2.3529 -2.0339 0.9825
-3.3375 2.0570 -2.0339 0.9825
-3.5112 1.7441 -2.0339 0.9825
-1.1544 0.3299 -0.6229 0.9946
0.2876 3.7024 -2.0339 0.9832
-0.3898 3.6930 -2.0339 0.9832
-1.0541 3.5608 -2.0339 0.9832
-1.3744 3.4498 -2.0339 0.9832
-1.9782 3.1427 -2.0339 0.9832
-2.9704 2.2286 -2.0339 0.9832
-3.1612 1.9484 -2.0339 0.9832
-0.9835 0.4885 -0.6015 0.9950
-1.0167 0.3939 -0.5972 0.9950
-1.0377 0.2965 -0.5911 0.9951
-1.0630 0.2011 -0.5925 0.9951
0.2728 3.5123 -2.0339 0.9839
-0.3697 3.5034 -2.0339 0.9839
-0.6877 3.4551 -2.0339 0.9839
-1.5969 3.1401 -2.0339 0.9839
-1.8767 2.9813 -2.0339 0.9839
-2.3870 2.5909 -2.0339 0.9839
-2.6133 2.3624 -2.0339 0.9839
-2.9989 1.8484 -2.0339 0.9839
-0.9409 0.3646 -0.5826 0.9954
