ply
format ascii 1.0
element vertex 187
property float32 x
property float32 y
property float32 z
property float32 I
end_header
13.9297 8.9644 -0.8401 0.9358
13.7204 8.8297 -1.1963 0.9367
16.0892 -3.9993 -1.5916 0.9356
13.4889 8.6807 -1.5400 0.9376
16.1754 -5.6173 -2.0340 0.9334
16.9233 -2.6102 -2.0340 0.9333
17.1169 0.4825 -2.0341 0.9333
17.0032 2.0293 -2.0341 0.9333
16.7499 3.5595 -2.0341 0.9333
16.3592 5.0605 -2.0341 0.9333
15.1795 7.9260 -2.0341 0.9333
13.5026 10.5320 -2.0341 0.9333
12.4943 11.7106 -2.0341 0.9333
13.9312 -3.4629 -2.0340 0.9437
14.1876 -2.1882 -2.0340 0.9437
14.0422 2.9841 -2.0341 0.9437
13.2746 5.4660 -2.0341 0.9437
11.3197 8.8294 -2.0341 0.9437
8.5336 11.5445 -2.0341 0.9437
7.4541 12.2692 -2.0341 0.9437
6.3133 12.8933 -2.0341 0.9437
11.6632 -4.0503 -2.0340 0.9512
12.2025 -1.8821 -2.0340 0.9512
12.3228 -0.7702 -2.0340 0.9512
12.3420 0.3479 -2.0340 0.9512
12.2600 1.4632 -2.0340 0.9512
11.4171 4.7012 -2.0341 0.9512
8.2078 9.2242 -2.0341 0.9512
7.3395 9.9290 -2.0341 0.9512
6.4110 10.5524 -2.0341 0.9512
5.4299 11.0892 -2.0341 0.9512
10.5016 -2.6104 -2.0340 0.9569
10.8171 0.3049 -2.0340 0.9569
10.7452 1.2824 -2.0340 0.9569
10.5852 2.2494 -2.0340 0.9569
10.0064 4.1203 -2.0340 0.9569
9.5927 5.0088 -2.0340 0.9569
8.5329 6.6556 -2.0340 0.9569
7.1937 8.0845 -2.0341 0.9569
6.4327 8.7023 -2.0341 0.9569
4.7590 9.7191 -2.0340 0.9569
9.5099 -1.4668 -2.0340 0.9614
9.6036 -0.6003 -2.0340 0.9614
9.6186 0.2712 -2.0340 0.9614
9.4123 2.0002 -2.0340 0.9614
9.1928 2.8437 -2.0340 0.9614
8.5298 4.4539 -2.0340 0.9614
8.0918 5.2074 -2.0340 0.9614
6.3966 7.1887 -2.0340 0.9614
5.7200 7.7380 -2.0340 0.9614
4.9963 8.2239 -2.0340 0.9614
4.2317 8.6422 -2.0340 0.9614
8.1753 -2.8390 -2.0339 0.9651
8.3987 -2.0877 -2.0339 0.9651
8.5532 -1.3192 -2.0340 0.9651
8.5934 1.0256 -2.0340 0.9651
8.4654 1.7990 -2.0340 0.9651
8.2679 2.5576 -2.0340 0.9651
8.0026 3.2952 -2.0340 0.9651
7.6717 4.0058 -2.0340 0.9651
6.8241 5.3228 -2.0340 0.9651
6.3145 5.9184 -2.0340 0.9651
5.7531 6.4655 -2.0340 0.9651
4.4937 7.3965 -2.0340 0.9651
3.8059 7.7728 -2.0340 0.9651
7.4208 -2.5771 -2.0339 0.9681
7.7638 -1.1975 -2.0340 0.9681
7.8404 -0.4901 -2.0340 0.9681
7.8003 0.9310 -2.0340 0.9681
7.6841 1.6329 -2.0340 0.9681
7.5049 2.3215 -2.0340 0.9681
7.2640 2.9911 -2.0340 0.9681
6.9636 3.6361 -2.0340 0.9681
6.6061 4.2513 -2.0340 0.9681
6.1943 4.8316 -2.0340 0.9681
5.7317 5.3722 -2.0340 0.9681
6.9726 -1.7332 -2.0339 0.9706
7.1820 0.2024 -2.0340 0.9706
7.0279 1.4935 -2.0340 0.9706
5.2423 4.9134 -2.0340 0.9706
4.2709 5.7777 -2.0340 0.9706
6.4175 -1.5952 -2.0339 0.9727
6.6102 0.1863 -2.0340 0.9727
6.4684 1.3746 -2.0340 0.9727
6.1148 2.5179 -2.0340 0.9727
5.5609 3.5787 -2.0340 0.9727
4.3959 4.9403 -2.0340 0.9727
3.4336 5.6516 -2.0340 0.9727
2.9081 5.9391 -2.0340 0.9727
5.9853 1.2719 -2.0340 0.9745
5.8457 1.8083 -2.0340 0.9745
5.6581 2.3298 -2.0340 0.9745
5.4241 2.8322 -2.0340 0.9745
4.8248 3.7634 -2.0340 0.9745
4.4645 4.1845 -2.0340 0.9745
4.0676 4.5713 -2.0340 0.9745
3.1771 5.2295 -2.0340 0.9745
2.6909 5.4955 -2.0340 0.9745
5.3729 -1.8659 -2.0339 0.9761
5.5196 -1.3721 -2.0339 0.9761
5.6212 -0.8670 -2.0339 0.9761
5.6766 -0.3548 -2.0339 0.9761
5.5635 1.1823 -2.0340 0.9761
5.0418 2.6326 -2.0340 0.9761
3.3809 4.5738 -2.0340 0.9761
2.9532 4.8610 -2.0340 0.9761
2.5013 5.1082 -2.0340 0.9761
5.2455 -0.8091 -2.0339 0.9775
5.2972 -0.3311 -2.0339 0.9775
5.3055 0.1496 -2.0339 0.9775
5.2702 0.6290 -2.0340 0.9775
5.0705 1.5685 -2.0340 0.9775
4.7048 2.4566 -2.0340 0.9775
4.4633 2.8723 -2.0340 0.9775
4.1851 3.2643 -2.0340 0.9775
2.3341 4.7668 -2.0340 0.9775
4.8229 -1.1988 -2.0339 0.9788
4.9116 -0.7576 -2.0339 0.9788
4.9677 0.1400 -2.0339 0.9788
4.1791 2.6894 -2.0340 0.9787
3.9186 3.0565 -2.0340 0.9787
3.6260 3.3986 -2.0340 0.9787
3.3036 3.7127 -2.0340 0.9787
2.5804 4.2473 -2.0340 0.9787
2.1855 4.4633 -2.0340 0.9787
4.5291 -1.1258 -2.0339 0.9798
4.6124 -0.7114 -2.0339 0.9798
4.6651 0.1315 -2.0339 0.9798
4.4586 1.3792 -2.0340 0.9798
4.3155 1.7770 -2.0340 0.9798
4.1370 2.1601 -2.0340 0.9798
3.9246 2.5256 -2.0340 0.9798
3.6800 2.8704 -2.0340 0.9798
2.4233 3.9886 -2.0340 0.9798
2.0524 4.1915 -2.0340 0.9798
4.1509 -1.4415 -2.0339 0.9808
4.2643 -1.0600 -2.0339 0.9808
4.2981 0.9134 -2.0339 0.9808
3.8951 2.0338 -2.0340 0.9808
3.4647 2.7025 -2.0340 0.9808
3.2061 3.0049 -2.0340 0.9808
2.6120 3.5335 -2.0340 0.9808
1.9324 3.9464 -2.0340 0.9808
4.0240 -1.0003 -2.0339 0.9817
4.0980 -0.6321 -2.0339 0.9817
4.1173 0.4914 -2.0339 0.9817
4.0559 0.8619 -2.0339 0.9817
3.9613 1.2254 -2.0339 0.9817
3.4869 2.2439 -2.0340 0.9817
3.0254 2.8356 -2.0340 0.9817
2.4648 3.3344 -2.0340 0.9817
1.8235 3.7240 -2.0340 0.9817
2.0985 -0.3237 -1.1015 0.9905
2.0856 0.2489 -1.0896 0.9906
2.1083 0.4480 -1.1182 0.9903
3.7455 1.1586 -2.0339 0.9825
3.2969 2.1217 -2.0340 0.9825
2.8606 2.6811 -2.0340 0.9825
2.6063 2.9290 -2.0340 0.9825
2.0357 3.3507 -2.0340 0.9825
1.9479 -0.6765 -1.1294 0.9906
1.8573 -0.4617 -1.0482 0.9913
1.8492 -0.2852 -1.0248 0.9915
1.8525 -0.1158 -1.0166 0.9916
1.8461 0.2203 -1.0183 0.9916
1.8570 0.3946 -1.0398 0.9914
1.8791 0.5813 -1.0773 0.9911
3.2919 1.7189 -2.0339 0.9832
3.1228 2.0097 -2.0339 0.9832
2.9282 2.2840 -2.0340 0.9832
2.4686 2.7743 -2.0340 0.9832
1.9282 3.1738 -2.0340 0.9832
1.6331 3.3352 -2.0340 0.9832
1.7262 -0.5995 -1.0550 0.9916
1.7141 -0.4261 -1.0198 0.9919
1.7140 -0.2644 -1.0013 0.9920
1.7232 -0.1077 -0.9969 0.9921
1.7245 0.0486 -0.9960 0.9921
1.7171 0.2049 -0.9984 0.9920
1.7148 0.3644 -1.0122 0.9919
1.7584 0.7240 -1.0979 0.9913
3.1229 1.6306 -2.0339 0.9839
2.9625 1.9064 -2.0339 0.9839
2.7778 2.1667 -2.0339 0.9839
2.0941 2.8329 -2.0340 0.9839
1.8292 3.0108 -2.0339 0.9839
1.5493 3.1640 -2.0339 0.9839
