ply
format ascii 1.0
element vertex 176
property float32 x
property float32 y
property float32 z
property float32 I
end_header
-5.2618 -16.2919 -2.0337 0.9334
-3.7904 -16.6957 -2.0337 0.9334
-0.7691 -17.1035 -2.0337 0.9334
2.5786 -6.0852 -0.7851 0.9737
10.6091 -13.4389 -2.0338 0.9334
13.7840 -10.1578 -2.0339 0.9334
14.6338 -8.8903 -2.0339 0.9334
15.3673 -7.5521 -2.0339 0.9334
-4.4113 -13.6586 -2.0337 0.9437
-3.1777 -13.9972 -2.0337 0.9437
-1.9189 -14.2246 -2.0337 0.9437
-0.6448 -14.3390 -2.0337 0.9437
0.6344 -14.3395 -2.0337 0.9437
1.9086 -14.2262 -2.0338 0.9437
1.4848 -6.5625 -0.9533 0.9732
7.8558 -12.0137 -2.0338 0.9437
11.5559 -8.5158 -2.0339 0.9437
12.2683 -7.4532 -2.0339 0.9437
12.8832 -6.3314 -2.0339 0.9437
-3.7941 -11.7477 -2.0337 0.9512
-2.7331 -12.0389 -2.0337 0.9512
-0.5546 -12.3329 -2.0338 0.9512
2.4660 -5.8196 -1.0412 0.9747
3.1660 -5.9361 -1.1083 0.9731
8.4823 -8.9708 -2.0339 0.9512
9.9390 -7.3243 -2.0339 0.9512
11.0806 -5.4455 -2.0339 0.9512
-1.4465 -10.7231 -2.0338 0.9569
-0.4861 -10.8093 -2.0338 0.9569
0.4782 -10.8097 -2.0338 0.9569
1.9078 -5.9219 -1.1694 0.9750
2.4750 -5.8409 -1.1923 0.9745
3.1021 -5.8165 -1.2390 0.9735
6.7048 -8.4931 -2.0339 0.9569
7.4344 -7.8625 -2.0339 0.9569
8.1049 -7.1694 -2.0339 0.9569
8.7111 -6.4194 -2.0339 0.9569
9.7116 -4.7727 -2.0339 0.9569
-2.1301 -9.3827 -2.0338 0.9614
0.4252 -9.6121 -2.0338 0.9614
1.4290 -6.3156 -1.3687 0.9739
1.9183 -5.9546 -1.3224 0.9747
2.4659 -5.8191 -1.3359 0.9745
5.2659 -8.0530 -2.0339 0.9614
5.9620 -7.5522 -2.0339 0.9614
6.6107 -6.9914 -2.0339 0.9614
7.2070 -6.3751 -2.0339 0.9614
-2.6595 -8.2347 -2.0338 0.9651
-1.9158 -8.4389 -2.0338 0.9651
-1.1569 -8.5760 -2.0338 0.9651
-0.3887 -8.6449 -2.0338 0.9651
0.3825 -8.6452 -2.0338 0.9651
1.8633 -5.7837 -1.4281 0.9753
2.4775 -5.8467 -1.4924 0.9742
2.9626 -5.5548 -1.4796 0.9745
4.7361 -7.2429 -2.0339 0.9651
6.4820 -5.7338 -2.0339 0.9651
7.3962 -4.4933 -2.0339 0.9651
7.7669 -3.8170 -2.0339 0.9651
-2.4141 -7.4748 -2.0338 0.9681
-1.7391 -7.6601 -2.0338 0.9681
0.3472 -7.8474 -2.0338 0.9681
1.0445 -7.7854 -2.0338 0.9681
1.3745 -6.0748 -1.6126 0.9746
2.5286 -5.9671 -1.6780 0.9736
2.9871 -5.6007 -1.6435 0.9741
5.3970 -5.7078 -2.0339 0.9681
5.8837 -5.2046 -2.0339 0.9681
7.0501 -3.4647 -2.0339 0.9681
-0.9605 -7.1198 -2.0338 0.9706
1.4097 -6.2304 -1.8084 0.9738
1.8846 -5.8499 -1.7399 0.9748
3.3372 -6.2571 -2.0075 0.9709
3.9320 -6.0130 -2.0339 0.9706
4.4517 -5.6391 -2.0339 0.9706
4.9361 -5.2204 -2.0339 0.9706
5.3813 -4.7602 -2.0339 0.9706
6.4480 -3.1689 -2.0339 0.9706
-1.4639 -6.4483 -2.0338 0.9727
-0.2970 -6.6057 -2.0338 0.9727
0.8792 -6.5537 -2.0338 0.9727
3.1118 -5.8345 -2.0339 0.9727
3.6189 -5.5344 -2.0339 0.9727
4.0973 -5.1902 -2.0339 0.9727
4.9529 -4.3812 -2.0339 0.9727
5.6515 -3.4334 -2.0339 0.9727
5.9348 -2.9166 -2.0339 0.9727
2.3873 -5.6337 -2.0339 0.9745
3.3486 -5.1210 -2.0339 0.9745
4.5830 -4.0540 -2.0339 0.9745
5.2294 -3.1769 -2.0339 0.9745
5.4915 -2.6988 -2.0339 0.9745
-1.7479 -5.4121 -2.0338 0.9761
-1.2591 -5.5462 -2.0338 0.9761
0.7562 -5.6369 -2.0338 0.9761
1.7440 -5.4134 -2.0339 0.9761
2.6765 -5.0183 -2.0339 0.9761
3.5241 -4.4641 -2.0339 0.9761
4.5786 -3.3741 -2.0339 0.9761
5.1045 -2.5086 -2.0339 0.9761
-1.6311 -5.0504 -2.0338 0.9775
-0.2384 -5.3019 -2.0338 0.9775
0.2346 -5.3021 -2.0338 0.9775
2.0707 -4.8867 -2.0339 0.9775
2.9046 -4.4420 -2.0339 0.9775
3.6464 -3.8564 -2.0339 0.9775
4.2726 -3.1486 -2.0339 0.9775
-1.1002 -4.8461 -2.0338 0.9788
0.2196 -4.9646 -2.0338 0.9788
1.0966 -4.8469 -2.0339 0.9788
1.5238 -4.7300 -2.0339 0.9788
3.4143 -3.6109 -2.0339 0.9788
3.7222 -3.2926 -2.0339 0.9788
4.0006 -2.9481 -2.0339 0.9788
4.2472 -2.5803 -2.0339 0.9788
4.4601 -2.1919 -2.0339 0.9788
-1.4342 -4.4409 -2.0338 0.9798
0.6205 -4.6254 -2.0339 0.9798
1.0299 -4.5517 -2.0339 0.9798
1.4310 -4.4420 -2.0339 0.9798
1.8209 -4.2969 -2.0339 0.9798
2.8917 -3.6630 -2.0339 0.9798
3.7570 -2.7686 -2.0339 0.9798
-1.3504 -4.1812 -2.0338 0.9808
-0.9728 -4.2848 -2.0338 0.9808
0.1941 -4.3896 -2.0339 0.9808
1.3474 -4.1822 -2.0339 0.9808
1.7144 -4.0457 -2.0339 0.9808
2.0677 -3.8770 -2.0339 0.9808
3.0188 -3.1927 -2.0339 0.9808
3.5373 -2.6067 -2.0339 0.9808
3.9436 -1.9380 -2.0339 0.9808
-0.5543 -4.1091 -2.0338 0.9817
0.5513 -4.1095 -2.0339 0.9817
0.9150 -4.0441 -2.0339 0.9817
1.6177 -3.8177 -2.0339 0.9817
1.9512 -3.6585 -2.0339 0.9817
2.2693 -3.4703 -2.0339 0.9817
2.5691 -3.2545 -2.0339 0.9817
2.8487 -3.0128 -2.0339 0.9817
3.3380 -2.4598 -2.0339 0.9817
3.5437 -2.1529 -2.0339 0.9817
3.7213 -1.8288 -2.0339 0.9817
-1.2049 -3.7307 -2.0338 0.9825
0.5213 -3.8857 -2.0339 0.9825
0.8652 -3.8238 -2.0339 0.9825
1.2022 -3.7316 -2.0339 0.9825
1.5297 -3.6098 -2.0339 0.9825
1.8449 -3.4593 -2.0339 0.9825
2.1456 -3.2813 -2.0339 0.9825
2.6936 -2.8487 -2.0339 0.9825
3.3507 -2.0356 -2.0339 0.9825
3.5187 -1.7292 -2.0339 0.9825
-1.1413 -3.5337 -2.0339 0.9832
-0.8221 -3.6213 -2.0339 0.9832
-0.4964 -3.6801 -2.0339 0.9832
-0.1668 -3.7097 -2.0339 0.9832
0.8195 -3.6219 -2.0339 0.9832
1.1387 -3.5346 -2.0339 0.9832
1.4489 -3.4191 -2.0339 0.9832
2.0323 -3.1080 -2.0339 0.9832
2.5514 -2.6983 -2.0339 0.9832
2.7815 -2.4604 -2.0339 0.9832
2.9895 -2.2030 -2.0339 0.9832
-0.1583 -3.5192 -2.0339 0.9839
0.1557 -3.5193 -2.0339 0.9839
0.4684 -3.4915 -2.0339 0.9839
1.0802 -3.3531 -2.0339 0.9839
1.3745 -3.2436 -2.0339 0.9839
1.6578 -3.1084 -2.0339 0.9839
1.9280 -2.9484 -2.0339 0.9839
2.4204 -2.5597 -2.0339 0.9839
2.6387 -2.3341 -2.0339 0.9839
2.8360 -2.0899 -2.0339 0.9839
3.0108 -1.8291 -2.0339 0.9839
3.1617 -1.5538 -2.0339 0.9839
