ply
format ascii 1.0
element vertex 211
property float32 x
property float32 y
property float32 z
property float32 I
end_header
16.4122 -3.9669 -0.8563 0.9346
14.7379 9.1679 -0.8802 0.9328
16.3468 -3.9510 -1.2331 0.9348
16.6439 -4.0229 -2.0340 0.9334
16.9338 -2.5415 -2.0340 0.9333
17.0919 -1.0403 -2.0340 0.9333
17.1173 0.4690 -2.0341 0.9333
17.0096 1.9747 -2.0341 0.9333
15.9018 6.3536 -2.0341 0.9333
15.2805 7.7294 -2.0341 0.9333
13.6875 10.2906 -2.0341 0.9333
7.9868 15.1478 -2.0341 0.9333
6.6218 15.7923 -2.0341 0.9333
13.9534 -3.3726 -2.0340 0.9437
14.1964 -2.1306 -2.0340 0.9437
14.3502 0.3932 -2.0340 0.9437
14.2599 1.6555 -2.0340 0.9437
14.0588 2.9049 -2.0341 0.9437
13.7484 4.1318 -2.0341 0.9437
13.3311 5.3265 -2.0341 0.9437
12.1899 7.5829 -2.0341 0.9437
11.4747 8.6270 -2.0341 0.9437
10.6704 9.6040 -2.0341 0.9437
9.7832 10.5065 -2.0341 0.9437
8.8199 11.3272 -2.0341 0.9437
7.7880 12.0600 -2.0341 0.9437
6.6957 12.6990 -2.0341 0.9437
5.5513 13.2393 -2.0341 0.9437
12.3422 0.3382 -2.0340 0.9512
12.0916 2.4984 -2.0340 0.9512
11.4658 4.5812 -2.0340 0.9512
10.4842 6.5219 -2.0341 0.9512
8.4142 9.0363 -2.0341 0.9512
5.7588 10.9220 -2.0341 0.9512
4.7745 11.3867 -2.0341 0.9512
3.7532 11.7629 -2.0341 0.9512
10.5184 -2.5423 -2.0340 0.9569
10.7014 -1.6061 -2.0340 0.9569
10.8014 -0.6574 -2.0340 0.9569
10.8173 0.2964 -2.0340 0.9569
10.5976 2.1897 -2.0340 0.9569
10.3636 3.1145 -2.0340 0.9569
10.0491 4.0152 -2.0340 0.9569
9.1888 5.7161 -2.0340 0.9569
7.3746 7.9198 -2.0341 0.9569
6.6484 8.5385 -2.0341 0.9569
5.8707 9.0909 -2.0341 0.9569
5.0473 9.5726 -2.0341 0.9569
3.2895 10.3096 -2.0340 0.9569
9.3530 -2.2606 -2.0340 0.9614
9.5158 -1.4281 -2.0340 0.9614
9.6046 -0.5846 -2.0340 0.9614
9.5583 1.1097 -2.0340 0.9614
9.2154 2.7695 -2.0340 0.9614
8.9357 3.5703 -2.0340 0.9614
8.5866 4.3434 -2.0340 0.9614
8.1707 5.0827 -2.0340 0.9614
7.1522 6.4374 -2.0340 0.9614
5.9118 7.5925 -2.0340 0.9614
5.2202 8.0836 -2.0340 0.9614
4.4880 8.5119 -2.0340 0.9614
3.7210 8.8741 -2.0340 0.9614
8.4121 -2.0332 -2.0339 0.9651
8.5585 -1.2845 -2.0340 0.9651
8.6384 -0.5258 -2.0340 0.9651
8.6511 0.2371 -2.0340 0.9651
8.5967 0.9980 -2.0340 0.9651
8.4754 1.7512 -2.0340 0.9651
8.2883 2.4908 -2.0340 0.9651
7.3487 4.5714 -2.0340 0.9651
6.4327 5.7898 -2.0340 0.9651
5.8978 6.3338 -2.0340 0.9651
5.3171 6.8286 -2.0340 0.9651
4.0365 7.6556 -2.0340 0.9651
3.3466 7.9813 -2.0340 0.9651
7.6357 -1.8456 -2.0339 0.9681
7.8411 -0.4772 -2.0340 0.9681
7.5233 2.2610 -2.0340 0.9681
7.2950 2.9147 -2.0340 0.9681
6.6705 4.1495 -2.0340 0.9681
6.2791 4.7208 -2.0340 0.9681
5.8390 5.2555 -2.0340 0.9681
4.8264 6.1984 -2.0340 0.9681
4.2617 6.5994 -2.0340 0.9681
3.6639 6.9490 -2.0340 0.9681
2.3879 7.4841 -2.0340 0.9681
7.0362 1.4539 -2.0340 0.9706
6.8809 2.0679 -2.0340 0.9706
6.4113 3.2431 -2.0340 0.9706
5.3404 4.8066 -2.0340 0.9706
4.8962 5.2583 -2.0340 0.9706
4.4142 5.6690 -2.0340 0.9706
3.3511 6.3556 -2.0340 0.9706
6.4277 -1.5536 -2.0339 0.9727
6.6104 0.1811 -2.0340 0.9727
6.5687 0.7626 -2.0340 0.9727
6.4761 1.3381 -2.0340 0.9727
5.9009 2.9849 -2.0340 0.9727
5.2857 3.9739 -2.0340 0.9727
4.9152 4.4240 -2.0340 0.9727
4.0627 5.2177 -2.0340 0.9727
3.5874 5.5553 -2.0340 0.9727
3.0843 5.8496 -2.0340 0.9727
2.5571 6.0985 -2.0340 0.9727
2.0101 6.3000 -2.0340 0.9727
5.9476 -1.4375 -2.0339 0.9745
6.1166 0.1676 -2.0340 0.9745
5.9923 1.2381 -2.0340 0.9745
5.6822 2.2703 -2.0340 0.9745
5.4602 2.7619 -2.0340 0.9745
5.1957 3.2321 -2.0340 0.9745
4.8909 3.6771 -2.0340 0.9745
4.5480 4.0935 -2.0340 0.9745
3.7593 4.8280 -2.0340 0.9745
1.8600 5.8294 -2.0340 0.9745
5.5284 -1.3362 -2.0339 0.9761
5.6855 0.1558 -2.0340 0.9761
5.6498 0.6559 -2.0340 0.9761
5.5701 1.1509 -2.0340 0.9761
5.4471 1.6370 -2.0340 0.9761
5.2818 2.1103 -2.0340 0.9761
4.2275 3.8050 -2.0340 0.9761
3.0856 4.7781 -2.0340 0.9761
5.1590 -1.2469 -2.0339 0.9775
5.2487 -0.7878 -2.0339 0.9775
5.2978 -0.3224 -2.0339 0.9775
5.3056 0.1454 -2.0339 0.9775
5.1978 1.0740 -2.0340 0.9775
4.7362 2.3957 -2.0340 0.9775
4.5068 2.8035 -2.0340 0.9775
4.2424 3.1895 -2.0340 0.9775
3.9450 3.5507 -2.0340 0.9775
3.6170 3.8844 -2.0340 0.9775
3.2608 4.1878 -2.0340 0.9775
2.8794 4.4587 -2.0340 0.9775
4.9146 -0.7376 -2.0339 0.9788
4.9678 0.1361 -2.0339 0.9788
4.9365 0.5731 -2.0339 0.9787
4.8668 1.0056 -2.0340 0.9788
3.9722 2.9864 -2.0340 0.9787
1.5106 4.7345 -2.0340 0.9787
4.5363 -1.0964 -2.0339 0.9798
4.6653 0.1278 -2.0339 0.9798
4.6359 0.5382 -2.0339 0.9798
4.5705 0.9444 -2.0340 0.9798
4.4696 1.3432 -2.0340 0.9798
4.3339 1.7316 -2.0340 0.9798
4.1646 2.1065 -2.0340 0.9798
3.1804 3.4155 -2.0340 0.9798
2.5318 3.9206 -2.0340 0.9798
2.1767 4.1283 -2.0340 0.9798
1.8047 4.3039 -2.0340 0.9798
4.2711 -1.0323 -2.0339 0.9808
4.3454 -0.6522 -2.0339 0.9808
4.3032 0.8891 -2.0339 0.9808
4.0804 1.6303 -2.0340 0.9808
3.7311 2.3210 -2.0340 0.9808
3.5122 2.6406 -2.0340 0.9808
2.9944 3.2158 -2.0340 0.9808
2.3838 3.6913 -2.0340 0.9808
2.0494 3.8869 -2.0340 0.9808
1.6992 4.0523 -2.0340 0.9808
1.3357 4.1862 -2.0340 0.9808
4.0304 -0.9742 -2.0339 0.9817
4.1005 -0.6154 -2.0339 0.9817
4.1388 -0.2519 -2.0339 0.9817
4.1450 0.1136 -2.0339 0.9817
4.1188 0.4781 -2.0339 0.9817
3.9710 1.1934 -2.0339 0.9817
3.7001 1.8716 -2.0340 0.9817
3.5209 2.1902 -2.0340 0.9817
3.3143 2.4918 -2.0340 0.9817
3.0820 2.7740 -2.0340 0.9817
1.2604 3.9503 -2.0340 0.9817
3.8109 -0.9211 -2.0339 0.9825
2.0973 -0.3148 -1.1002 0.9905
2.0784 -0.1265 -1.0802 0.9907
2.0841 0.2419 -1.0884 0.9906
2.1074 0.4354 -1.1164 0.9903
3.4986 1.7696 -2.0340 0.9825
3.1338 2.3561 -2.0340 0.9825
2.9141 2.6229 -2.0340 0.9825
2.6718 2.8693 -2.0340 0.9825
2.1270 3.2936 -2.0340 0.9825
1.1918 3.7351 -2.0340 0.9825
1.8575 -0.4490 -1.0467 0.9913
1.8525 -0.1128 -1.0165 0.9916
1.8523 0.0507 -1.0149 0.9916
1.8566 0.3836 -1.0383 0.9914
1.8748 0.5634 -1.0722 0.9911
3.4485 1.3779 -2.0339 0.9832
3.3138 1.6762 -2.0339 0.9832
3.1533 1.9616 -2.0339 0.9832
2.9683 2.2316 -2.0340 0.9832
2.5307 2.7178 -2.0340 0.9832
2.2815 2.9301 -2.0340 0.9832
2.0146 3.1196 -2.0340 0.9832
1.7320 3.2849 -2.0340 0.9832
1.4360 3.4247 -2.0340 0.9832
1.7145 -0.4144 -1.0184 0.9919
1.7139 -0.2572 -1.0006 0.9920
1.7245 0.0472 -0.9960 0.9921
1.7177 0.1994 -0.9984 0.9920
1.7146 0.3543 -1.0109 0.9919
2.9914 1.8608 -2.0339 0.9839
2.6185 2.3568 -2.0339 0.9839
2.1643 2.7796 -2.0340 0.9839
1.9112 2.9595 -2.0340 0.9839
1.6431 3.1163 -2.0339 0.9839
1.3623 3.2489 -2.0339 0.9839
1.0709 3.3562 -2.0339 0.9839
