ply
format ascii 1.0
element vertex 162
property float32 x
property float32 y
property float32 z
property float32 I
end_header
17.3129 -3.5457 -0.8962 0.9317
13.6037 9.4048 -0.8387 0.9359
16.7751 -3.4355 -2.0340 0.9334
17.1192 -0.3886 -2.0340 0.9333
16.9143 2.6709 -2.0341 0.9333
15.5967 7.0697 -2.0341 0.9333
14.9011 8.4378 -2.0341 0.9333
13.2714 9.1750 -1.9165 0.9371
13.1575 10.9602 -2.0341 0.9333
10.9918 13.1311 -2.0341 0.9333
8.4736 14.8810 -2.0341 0.9333
5.6837 16.1536 -2.0341 0.9333
14.0634 -2.8802 -2.0340 0.9437
14.3234 0.9605 -2.0340 0.9437
13.9227 3.4998 -2.0341 0.9437
13.5534 4.7323 -2.0341 0.9437
13.0754 5.9268 -2.0341 0.9437
12.4922 7.0737 -2.0341 0.9437
11.8088 8.1638 -2.0341 0.9437
11.0304 9.1883 -2.0341 0.9437
10.1635 10.1391 -2.0341 0.9437
8.1922 11.7892 -2.0341 0.9437
5.9582 13.0612 -2.0341 0.9437
12.0956 -2.4772 -2.0340 0.9512
12.3436 -0.2802 -2.0340 0.9512
7.0459 10.1396 -2.0341 0.9512
6.1097 10.7296 -2.0341 0.9512
10.6891 1.6879 -2.0340 0.9569
10.2167 3.5672 -2.0340 0.9569
9.8563 4.4677 -2.0340 0.9569
9.4168 5.3322 -2.0340 0.9569
8.9015 6.1539 -2.0340 0.9569
7.6612 7.6425 -2.0341 0.9569
5.3548 9.4039 -2.0341 0.9569
9.6200 -0.2184 -2.0340 0.9614
9.6009 0.6438 -2.0340 0.9614
7.3935 6.1588 -2.0340 0.9614
6.8124 6.7961 -2.0340 0.9614
6.1765 7.3787 -2.0340 0.9614
5.4911 7.9021 -2.0340 0.9614
4.7615 8.3620 -2.0340 0.9614
3.9937 8.7547 -2.0340 0.9614
8.4783 -1.7364 -2.0340 0.9651
8.6521 -0.1964 -2.0340 0.9651
8.6350 0.5790 -2.0340 0.9651
8.3933 2.1098 -2.0340 0.9651
7.5310 4.2644 -2.0340 0.9651
7.1189 4.9216 -2.0340 0.9651
6.6497 5.5392 -2.0340 0.9651
5.5552 6.6364 -2.0340 0.9651
3.5919 7.8740 -2.0340 0.9651
2.8725 8.1639 -2.0340 0.9651
7.6959 -1.5761 -2.0339 0.9681
7.8536 -0.1783 -2.0340 0.9681
7.8381 0.5256 -2.0340 0.9681
7.6187 1.9151 -2.0340 0.9681
7.4167 2.5896 -2.0340 0.9681
7.1550 3.2432 -2.0340 0.9681
6.8359 3.8708 -2.0340 0.9681
6.0360 5.0279 -2.0340 0.9681
5.0425 6.0239 -2.0340 0.9681
4.4829 6.4512 -2.0340 0.9681
3.8873 6.8267 -2.0340 0.9681
2.6074 7.4104 -2.0340 0.9681
7.0386 -1.4415 -2.0339 0.9706
7.1395 -0.8055 -2.0340 0.9706
7.1829 -0.1631 -2.0340 0.9706
7.1687 0.4807 -2.0340 0.9706
7.0969 1.1206 -2.0340 0.9706
6.9680 1.7515 -2.0340 0.9706
6.7833 2.3684 -2.0340 0.9706
6.5440 2.9663 -2.0340 0.9706
6.2521 3.5403 -2.0340 0.9706
5.9101 4.0858 -2.0340 0.9706
4.1000 5.9002 -2.0340 0.9706
3.5553 6.2437 -2.0340 0.9706
6.5319 1.0314 -2.0340 0.9727
6.4134 1.6121 -2.0340 0.9727
6.2433 2.1798 -2.0340 0.9727
5.7544 3.2584 -2.0340 0.9727
5.0811 4.2325 -2.0340 0.9727
4.2446 5.0708 -2.0340 0.9727
3.7736 5.4305 -2.0340 0.9727
3.2723 5.7466 -2.0340 0.9727
2.7446 6.0165 -2.0340 0.9727
6.1173 -0.1389 -2.0340 0.9745
6.0441 0.9544 -2.0340 0.9745
5.9343 1.4917 -2.0340 0.9745
5.7770 2.0171 -2.0340 0.9745
5.5732 2.5262 -2.0340 0.9745
5.3246 3.0151 -2.0340 0.9745
3.0279 5.3174 -2.0340 0.9745
2.5396 5.5671 -2.0340 0.9745
2.0309 5.7721 -2.0340 0.9745
5.6749 0.3805 -2.0340 0.9761
4.9494 2.8025 -2.0340 0.9761
4.3702 3.6403 -2.0340 0.9761
3.2457 4.6708 -2.0340 0.9761
2.8145 4.9426 -2.0340 0.9761
2.3606 5.1747 -2.0340 0.9761
1.8878 5.3653 -2.0340 0.9761
5.2426 0.8278 -2.0340 0.9775
5.1475 1.2939 -2.0340 0.9775
5.0110 1.7496 -2.0340 0.9775
4.0781 3.3970 -2.0340 0.9775
2.6263 4.6123 -2.0340 0.9775
4.8686 -0.9971 -2.0339 0.9788
4.9383 -0.5572 -2.0339 0.9787
4.9684 -0.1128 -2.0339 0.9788
4.6919 1.6382 -2.0340 0.9787
4.5264 2.0517 -2.0340 0.9787
4.3245 2.4487 -2.0340 0.9787
4.0879 2.8261 -2.0340 0.9787
3.5183 3.5099 -2.0340 0.9787
3.1899 3.8108 -2.0340 0.9787
2.4591 4.3186 -2.0340 0.9787
1.6495 4.6879 -2.0340 0.9787
4.5721 -0.9364 -2.0339 0.9798
4.6658 -0.1059 -2.0339 0.9798
4.6565 0.3122 -2.0339 0.9798
4.6099 0.7279 -2.0339 0.9798
4.2507 1.9267 -2.0340 0.9798
3.8389 2.6540 -2.0340 0.9798
3.5859 2.9871 -2.0340 0.9798
2.9957 3.5787 -2.0340 0.9798
2.6632 3.8325 -2.0340 0.9798
2.3094 4.0556 -2.0340 0.9798
4.3047 -0.8816 -2.0339 0.9808
4.3403 0.6853 -2.0339 0.9808
4.1485 1.4485 -2.0340 0.9808
3.8237 2.1651 -2.0340 0.9808
3.6145 2.4988 -2.0340 0.9808
3.3762 2.8124 -2.0340 0.9808
2.8205 3.3694 -2.0340 0.9808
2.1743 3.8184 -2.0340 0.9808
1.4584 4.1450 -2.0340 0.9808
4.1204 -0.4649 -2.0339 0.9817
4.1454 -0.0941 -2.0339 0.9817
4.0957 0.6467 -2.0339 0.9817
3.7767 1.7119 -2.0340 0.9817
2.9355 2.9285 -2.0340 0.9817
2.3662 3.4051 -2.0340 0.9817
2.0825 -0.2350 -1.0872 0.9906
2.0995 0.3315 -1.1027 0.9905
3.5709 1.6186 -2.0339 0.9825
3.2250 2.2296 -2.0340 0.9825
2.7757 2.7690 -2.0340 0.9825
1.9400 3.4070 -2.0340 0.9825
1.6272 3.5670 -2.0340 0.9825
1.8520 -0.0421 -1.0146 0.9916
1.8499 0.2921 -1.0258 0.9915
3.2315 1.8298 -2.0339 0.9832
2.6291 2.6228 -2.0340 0.9832
2.3837 2.8476 -2.0340 0.9832
2.1191 3.0496 -2.0340 0.9832
1.2326 3.5031 -2.0340 0.9832
1.7146 -0.3512 -1.0105 0.9919
1.7815 0.8075 -1.1293 0.9910
2.7068 2.2548 -2.0339 0.9839
2.4941 2.4881 -2.0339 0.9839
2.2613 2.7014 -2.0340 0.9839
2.0104 2.8930 -2.0340 0.9839
