ply
format ascii 1.0
element vertex 189
property float32 x
property float32 y
property float32 z
property float32 I
end_header
2.7652 18.8192 3.3540 0.9257
2.5804 17.5612 2.7192 0.9307
2.6344 17.9293 2.3598 0.9295
2.8578 19.4498 2.1110 0.9240
2.5636 17.4473 1.4928 0.9317
2.5930 17.6473 1.1061 0.9310
2.7256 18.5497 -0.9508 0.9277
17.1224 0.2110 -2.0340 0.9333
16.4704 4.6859 -2.0341 0.9333
15.9932 6.1199 -2.0341 0.9333
14.6696 8.8341 -2.0341 0.9333
6.8377 15.7000 -2.0341 0.9333
5.4268 16.2417 -2.0341 0.9333
2.4894 16.9422 -2.0341 0.9333
14.3545 0.1769 -2.0340 0.9437
14.2831 1.4418 -2.0340 0.9437
14.1004 2.6956 -2.0341 0.9437
12.2982 7.4060 -2.0341 0.9437
10.8061 9.4511 -2.0341 0.9437
9.9307 10.3672 -2.0341 0.9437
7.9552 11.9504 -2.0341 0.9437
4.5495 13.6160 -2.0341 0.9437
3.3312 13.9641 -2.0341 0.9437
12.3459 0.1521 -2.0340 0.9512
12.2845 1.2401 -2.0340 0.9512
12.1274 2.3184 -2.0340 0.9512
11.5316 4.4126 -2.0340 0.9512
8.5411 8.9165 -2.0341 0.9512
6.8421 10.2782 -2.0341 0.9512
5.9091 10.8414 -2.0341 0.9512
3.9129 11.7108 -2.0341 0.9512
2.8651 12.0101 -2.0341 0.9512
1.7950 12.2159 -2.0341 0.9512
10.7668 1.0869 -2.0340 0.9569
10.6290 2.0320 -2.0340 0.9569
10.4085 2.9612 -2.0340 0.9569
10.1069 3.8675 -2.0340 0.9569
9.7265 4.7435 -2.0340 0.9569
8.1457 7.1243 -2.0340 0.9569
6.7676 8.4444 -2.0341 0.9569
5.1790 9.5019 -2.0341 0.9569
4.3211 9.9215 -2.0340 0.9569
2.5111 10.5262 -2.0340 0.9569
1.5732 10.7066 -2.0340 0.9569
9.6216 0.1185 -2.0340 0.9614
9.4514 1.8068 -2.0340 0.9614
9.2553 2.6331 -2.0340 0.9614
8.9871 3.4390 -2.0340 0.9614
8.6489 4.2180 -2.0340 0.9614
8.2433 4.9642 -2.0340 0.9614
7.2432 6.3350 -2.0340 0.9614
6.6564 6.9489 -2.0340 0.9614
4.6052 8.4491 -2.0340 0.9614
2.2329 9.3600 -2.0340 0.9614
8.6537 0.1066 -2.0340 0.9651
8.5005 1.6251 -2.0340 0.9651
6.9914 5.1011 -2.0340 0.9651
6.5145 5.6976 -2.0340 0.9651
5.9867 6.2498 -2.0340 0.9651
4.1419 7.5991 -2.0340 0.9651
3.4557 7.9347 -2.0340 0.9651
2.0082 8.4183 -2.0340 0.9651
1.2581 8.5625 -2.0340 0.9651
7.8160 0.7890 -2.0340 0.9681
7.3370 2.8075 -2.0340 0.9681
6.3462 4.6303 -2.0340 0.9681
5.9132 5.1718 -2.0340 0.9681
4.9128 6.1301 -2.0340 0.9681
3.1368 7.2024 -2.0340 0.9681
1.8229 7.6413 -2.0340 0.9681
1.1420 7.7723 -2.0340 0.9681
7.1843 0.0885 -2.0340 0.9706
7.1485 0.7216 -2.0340 0.9706
7.0570 1.3491 -2.0340 0.9706
6.9106 1.9661 -2.0340 0.9706
6.7104 2.5678 -2.0340 0.9706
4.9701 5.1885 -2.0340 0.9706
4.4933 5.6066 -2.0340 0.9706
3.9814 5.9809 -2.0340 0.9706
3.4386 6.3087 -2.0340 0.9706
2.2770 6.8146 -2.0340 0.9706
1.0445 7.1086 -2.0340 0.9706
6.4953 1.2417 -2.0340 0.9727
6.1761 2.3633 -2.0340 0.9727
5.9437 2.8987 -2.0340 0.9727
4.5745 4.7755 -2.0340 0.9727
4.1355 5.1602 -2.0340 0.9727
1.5345 6.4324 -2.0340 0.9727
6.1184 0.0754 -2.0340 0.9745
6.0880 0.6146 -2.0340 0.9745
6.0101 1.1489 -2.0340 0.9745
5.7148 2.1868 -2.0340 0.9745
5.2419 3.1567 -2.0340 0.9745
4.9432 3.6066 -2.0340 0.9745
4.6059 4.0284 -2.0340 0.9745
3.3907 5.0936 -2.0340 0.9745
2.4433 5.6100 -2.0340 0.9745
1.4199 5.9519 -2.0340 0.9745
0.8895 6.0539 -2.0340 0.9745
5.6873 0.0701 -2.0340 0.9761
5.6589 0.5713 -2.0340 0.9761
5.5865 1.0680 -2.0340 0.9761
5.4707 1.5564 -2.0340 0.9761
4.8725 2.9342 -2.0340 0.9761
4.5948 3.3524 -2.0340 0.9761
4.2813 3.7445 -2.0340 0.9761
3.9345 4.1074 -2.0340 0.9761
3.5570 4.4383 -2.0340 0.9761
0.8269 5.6273 -2.0340 0.9761
5.3071 0.0654 -2.0339 0.9775
5.2807 0.5331 -2.0340 0.9775
5.1050 1.4524 -2.0340 0.9775
4.7705 2.3265 -2.0340 0.9775
4.5468 2.7381 -2.0340 0.9775
3.6715 3.8329 -2.0340 0.9775
3.3193 4.1417 -2.0340 0.9775
2.9411 4.4182 -2.0340 0.9775
0.7716 5.2512 -2.0340 0.9775
4.9446 0.4991 -2.0339 0.9787
4.7800 1.3599 -2.0340 0.9787
4.6415 1.7761 -2.0340 0.9787
4.2573 2.5638 -2.0340 0.9787
4.0147 2.9292 -2.0340 0.9787
3.7408 3.2718 -2.0340 0.9787
3.4378 3.5888 -2.0340 0.9787
3.1079 3.8780 -2.0340 0.9787
2.7539 4.1369 -2.0340 0.9787
2.3784 4.3636 -2.0340 0.9787
1.5749 4.7135 -2.0340 0.9787
0.7225 4.9169 -2.0340 0.9787
4.6666 0.0575 -2.0339 0.9798
4.6434 0.4687 -2.0339 0.9798
3.9980 2.4076 -2.0340 0.9798
3.7702 2.7508 -2.0340 0.9798
3.2284 3.3703 -2.0340 0.9798
2.9186 3.6418 -2.0340 0.9798
2.5862 3.8849 -2.0340 0.9798
2.2336 4.0979 -2.0340 0.9798
1.8635 4.2788 -2.0340 0.9798
1.4790 4.4264 -2.0340 0.9798
1.0829 4.5396 -2.0340 0.9798
4.3719 0.4413 -2.0339 0.9808
4.3159 0.8251 -2.0339 0.9808
4.2264 1.2024 -2.0340 0.9808
3.9495 1.9261 -2.0340 0.9808
3.7642 2.2668 -2.0340 0.9808
3.5497 2.5899 -2.0340 0.9808
3.3075 2.8928 -2.0340 0.9808
2.7479 3.4288 -2.0340 0.9808
2.1029 3.8582 -2.0340 0.9808
0.6388 4.3474 -2.0340 0.9808
4.0727 0.7786 -2.0339 0.9817
3.8727 1.4819 -2.0340 0.9817
3.7269 1.8176 -2.0340 0.9817
3.5521 2.1391 -2.0340 0.9817
3.3497 2.4440 -2.0340 0.9817
3.1211 2.7298 -2.0340 0.9817
2.5931 3.2356 -2.0340 0.9817
1.6557 3.8016 -2.0340 0.9817
1.3141 3.9328 -2.0340 0.9817
0.6028 4.1024 -2.0340 0.9817
2.0730 0.0255 -1.0755 0.9907
2.0762 0.2096 -1.0826 0.9906
2.1053 0.4025 -1.1120 0.9904
3.6617 1.4012 -2.0339 0.9825
3.5239 1.7186 -2.0340 0.9825
3.3587 2.0226 -2.0340 0.9825
2.7121 2.8313 -2.0340 0.9825
0.9097 3.8136 -2.0340 0.9825
0.5700 3.8789 -2.0339 0.9825
1.8552 0.3546 -1.0345 0.9914
1.8686 0.5316 -1.0640 0.9912
3.1813 1.9158 -2.0339 0.9832
2.7953 2.4448 -2.0340 0.9832
2.5689 2.6818 -2.0340 0.9832
1.7773 3.2607 -2.0340 0.9832
1.4828 3.4047 -2.0340 0.9832
1.1768 3.5222 -2.0340 0.9832
0.8617 3.6122 -2.0339 0.9832
1.7247 0.0212 -0.9958 0.9921
1.7199 0.1736 -0.9980 0.9920
3.1664 1.5442 -2.0339 0.9839
3.0179 1.8174 -2.0339 0.9839
2.6518 2.3193 -2.0339 0.9839
2.4369 2.5440 -2.0339 0.9839
2.2032 2.7490 -2.0340 0.9839
1.9522 2.9325 -2.0340 0.9839
1.6860 3.0932 -2.0339 0.9839
1.1164 3.3413 -2.0339 0.9839
