ply
format ascii 1.0
element vertex 187
property float32 x
property float32 y
property float32 z
property float32 I
end_header
1.0304 -17.0898 -2.0337 0.9334
2.1860 -6.5155 -0.8163 0.9727
2.6247 -6.0137 -0.7794 0.9739
8.1990 -15.0308 -2.0338 0.9334
10.6997 -13.3670 -2.0338 0.9334
11.8311 -12.3770 -2.0339 0.9334
12.8713 -11.2917 -2.0339 0.9334
15.3684 -7.5499 -2.0339 0.9334
-1.6532 -14.2579 -2.0337 0.9437
0.8639 -14.3276 -2.0337 0.9437
2.0845 -6.2130 -0.9285 0.9739
2.6051 -5.9687 -0.9227 0.9740
3.2517 -5.9613 -0.9621 0.9729
8.9702 -11.2064 -2.0339 0.9437
9.9187 -10.3764 -2.0339 0.9437
11.5796 -8.4835 -2.0339 0.9437
13.3898 -5.1750 -2.0340 0.9437
-1.4219 -12.2631 -2.0338 0.9512
-0.3407 -12.3406 -2.0338 0.9512
0.7430 -12.3230 -2.0338 0.9512
1.8211 -12.2104 -2.0338 0.9512
1.5502 -6.4496 -1.0928 0.9735
2.0015 -5.9657 -1.0366 0.9748
3.2044 -5.8745 -1.1024 0.9732
6.8399 -10.2779 -2.0338 0.9512
7.7151 -9.6384 -2.0339 0.9512
9.2809 -8.1420 -2.0339 0.9512
9.9594 -7.2965 -2.0339 0.9512
10.5611 -6.3949 -2.0339 0.9512
11.0814 -5.4439 -2.0339 0.9512
11.8624 -3.4237 -2.0340 0.9512
0.6513 -10.8007 -2.0338 0.9569
1.5961 -10.7020 -2.0338 0.9569
1.4899 -6.1988 -1.1983 0.9744
1.9926 -5.9391 -1.1775 0.9748
2.5030 -5.7348 -1.1761 0.9749
5.9949 -9.0082 -2.0339 0.9569
7.4770 -7.8220 -2.0339 0.9569
8.7289 -6.3951 -2.0339 0.9569
9.2563 -5.6048 -2.0339 0.9569
9.7123 -4.7713 -2.0339 0.9569
10.0935 -3.9010 -2.0339 0.9569
10.3968 -3.0007 -2.0340 0.9569
0.5791 -9.6041 -2.0338 0.9614
1.4193 -9.5163 -2.0338 0.9614
1.9727 -5.8795 -1.3109 0.9750
2.5539 -5.8513 -1.3495 0.9742
3.1358 -5.7488 -1.3842 0.9736
5.3307 -8.0102 -2.0339 0.9614
6.0129 -7.5117 -2.0339 0.9614
7.2331 -6.3455 -2.0339 0.9614
7.7619 -5.6866 -2.0339 0.9614
8.2308 -4.9838 -2.0339 0.9614
8.6362 -4.2427 -2.0339 0.9614
8.9752 -3.4688 -2.0339 0.9614
9.2450 -2.6682 -2.0340 0.9614
-0.2388 -8.6504 -2.0338 0.9651
0.5208 -8.6380 -2.0338 0.9651
1.9644 -5.8550 -1.4514 0.9749
4.7945 -7.2044 -2.0339 0.9651
5.4080 -6.7561 -2.0339 0.9651
5.9798 -6.2557 -2.0339 0.9651
7.4027 -4.4825 -2.0339 0.9651
7.7675 -3.8159 -2.0339 0.9651
8.0723 -3.1199 -2.0339 0.9651
-0.9047 -7.8028 -2.0338 0.9681
0.4728 -7.8409 -2.0338 0.9681
1.4427 -6.0023 -1.5984 0.9748
1.9515 -5.8167 -1.5886 0.9750
3.1455 -5.7666 -1.7008 0.9732
4.3520 -6.5395 -2.0339 0.9681
4.9089 -6.1326 -2.0339 0.9681
5.4279 -5.6784 -2.0339 0.9681
7.0506 -3.4637 -2.0339 0.9681
7.3273 -2.8319 -2.0339 0.9681
7.5475 -2.1783 -2.0339 0.9681
0.4324 -7.1713 -2.0338 0.9706
1.9850 -5.9164 -1.7667 0.9744
3.2502 -5.9585 -1.9214 0.9722
3.9804 -5.9811 -2.0339 0.9706
4.4897 -5.6089 -2.0339 0.9706
5.4008 -4.7380 -2.0339 0.9706
6.1457 -3.7213 -2.0339 0.9706
6.4485 -3.1679 -2.0339 0.9706
6.7016 -2.5901 -2.0339 0.9706
6.9030 -1.9923 -2.0339 0.9706
-0.7616 -6.5684 -2.0338 0.9727
0.9754 -6.5401 -2.0338 0.9727
2.1033 -6.2690 -2.0338 0.9727
2.6452 -6.0604 -2.0339 0.9727
3.1665 -5.8050 -2.0339 0.9727
4.1323 -5.1624 -2.0339 0.9727
4.5692 -4.7801 -2.0339 0.9727
4.9709 -4.3608 -2.0339 0.9727
5.3342 -3.9080 -2.0339 0.9727
5.6565 -3.4251 -2.0339 0.9727
5.9352 -2.9157 -2.0339 0.9727
6.1681 -2.3839 -2.0339 0.9727
6.3534 -1.8337 -2.0339 0.9727
0.9026 -6.0516 -2.0338 0.9745
1.4299 -5.9491 -2.0338 0.9745
3.8236 -4.7768 -2.0339 0.9745
4.2279 -4.4230 -2.0339 0.9745
5.4919 -2.6980 -2.0339 0.9745
0.8389 -5.6252 -2.0338 0.9761
1.3291 -5.5299 -2.0338 0.9761
2.2751 -5.2126 -2.0339 0.9761
2.7236 -4.9929 -2.0339 0.9761
3.5542 -4.4402 -2.0339 0.9761
5.1049 -2.5078 -2.0339 0.9761
5.3052 -2.0504 -2.0339 0.9761
0.3195 -5.2977 -2.0338 0.9775
1.6881 -5.0317 -2.0339 0.9775
2.5415 -4.6593 -2.0339 0.9775
3.3166 -4.1434 -2.0339 0.9775
3.6673 -3.8366 -2.0339 0.9775
3.9898 -3.5001 -2.0339 0.9775
4.7637 -2.3403 -2.0339 0.9775
0.2991 -4.9604 -2.0338 0.9788
0.7330 -4.9151 -2.0339 0.9788
1.1614 -4.8318 -2.0339 0.9788
2.3797 -4.3626 -2.0339 0.9788
3.7357 -3.2773 -2.0339 0.9788
4.2510 -2.5740 -2.0339 0.9788
4.6354 -1.7916 -2.0339 0.9788
-0.5375 -4.6357 -2.0338 0.9798
-0.1288 -4.6650 -2.0338 0.9798
0.6884 -4.6157 -2.0339 0.9798
1.8668 -4.2772 -2.0339 0.9798
2.2348 -4.0969 -2.0339 0.9798
2.5855 -3.8852 -2.0339 0.9798
3.2247 -3.3735 -2.0339 0.9798
3.7647 -2.7581 -2.0339 0.9798
3.9921 -2.4173 -2.0339 0.9798
4.3531 -1.6824 -2.0339 0.9798
-0.5061 -4.3646 -2.0338 0.9808
0.6481 -4.3458 -2.0339 0.9808
1.0269 -4.2722 -2.0339 0.9808
1.7576 -4.0271 -2.0339 0.9808
2.4343 -3.6579 -2.0339 0.9808
2.7458 -3.4303 -2.0339 0.9808
3.3031 -2.8977 -2.0339 0.9808
3.5445 -2.5968 -2.0339 0.9808
3.7586 -2.2759 -2.0339 0.9808
3.9438 -1.9375 -2.0339 0.9808
0.2495 -4.1388 -2.0339 0.9817
0.6116 -4.1010 -2.0339 0.9817
1.3189 -3.9310 -2.0339 0.9817
1.6586 -3.8002 -2.0339 0.9817
1.9855 -3.6400 -2.0339 0.9817
2.2972 -3.4518 -2.0339 0.9817
2.5911 -3.2371 -2.0339 0.9817
2.8651 -2.9973 -2.0339 0.9817
3.7216 -1.8283 -2.0339 0.9817
-0.1082 -3.9190 -2.0339 0.9825
0.2359 -3.9134 -2.0339 0.9825
0.9162 -3.8120 -2.0339 0.9825
1.2470 -3.7169 -2.0339 0.9825
2.4500 -3.0607 -2.0339 0.9825
3.1626 -2.3171 -2.0339 0.9825
3.3537 -2.0307 -2.0339 0.9825
3.5189 -1.7287 -2.0339 0.9825
3.6570 -1.4134 -2.0339 0.9825
-0.4277 -3.6887 -2.0339 0.9832
-0.1025 -3.7120 -2.0339 0.9832
0.2235 -3.7067 -2.0339 0.9832
0.8679 -3.6106 -2.0339 0.9832
1.1812 -3.5206 -2.0339 0.9832
1.4854 -3.4034 -2.0339 0.9832
1.7782 -3.2600 -2.0339 0.9832
2.0573 -3.0915 -2.0339 0.9832
2.5660 -2.6844 -2.0339 0.9832
2.7916 -2.4489 -2.0339 0.9832
2.9956 -2.1947 -2.0339 0.9832
3.1766 -1.9234 -2.0339 0.9832
3.3331 -1.6374 -2.0339 0.9832
1.8702 -0.5398 -1.0661 0.9912
-0.4058 -3.4993 -2.0339 0.9839
0.5196 -3.4842 -2.0339 0.9839
0.8233 -3.4252 -2.0339 0.9839
1.4091 -3.2287 -2.0339 0.9839
1.6869 -3.0926 -2.0339 0.9839
1.9517 -2.9327 -2.0339 0.9839
2.2014 -2.7502 -2.0339 0.9839
2.4342 -2.5465 -2.0339 0.9839
1.7226 -0.6658 -1.0662 0.9915
1.7136 -0.4946 -1.0297 0.9918
