ply
format ascii 1.0
element vertex 209
property float32 x
property float32 y
property float32 z
property float32 I
end_header
3.4598 18.6098 3.3376 0.9260
3.3109 17.8092 1.5334 0.9299
3.5538 19.1152 0.7666 0.9251
13.7231 8.8422 -1.1970 0.9366
16.6233 -4.1072 -2.0340 0.9334
16.7465 3.5753 -2.0341 0.9333
13.4977 10.5383 -2.0341 0.9333
12.4899 11.7152 -2.0341 0.9333
11.3799 12.7962 -2.0341 0.9333
8.8902 14.6359 -2.0341 0.9333
13.9362 -3.4432 -2.0340 0.9437
14.3286 -0.8780 -2.0340 0.9437
14.3494 0.4207 -2.0340 0.9437
14.2527 1.7161 -2.0340 0.9437
14.0394 2.9973 -2.0341 0.9437
11.3157 8.8347 -2.0341 0.9437
10.4709 9.8213 -2.0341 0.9437
8.5316 11.5460 -2.0341 0.9437
7.4530 12.2699 -2.0341 0.9437
6.3134 12.8933 -2.0341 0.9437
5.1222 13.4111 -2.0341 0.9437
3.8891 13.8192 -2.0341 0.9437
2.6240 14.1141 -2.0341 0.9437
12.2049 -1.8659 -2.0340 0.9512
12.3416 0.3619 -2.0340 0.9512
12.2584 1.4759 -2.0340 0.9512
9.7322 7.5984 -2.0341 0.9512
7.3378 9.9304 -2.0341 0.9512
5.4300 11.0891 -2.0341 0.9512
4.4055 11.5345 -2.0341 0.9512
10.5053 -2.5956 -2.0340 0.9569
10.8011 -0.6618 -2.0340 0.9569
10.5830 2.2594 -2.0340 0.9569
10.3355 3.2067 -2.0340 0.9569
10.0034 4.1278 -2.0340 0.9569
9.5894 5.0151 -2.0340 0.9569
8.5298 6.6596 -2.0340 0.9569
7.1915 8.0865 -2.0341 0.9569
5.6181 9.2491 -2.0341 0.9569
2.9316 10.4170 -2.0340 0.9569
1.9780 10.6393 -2.0340 0.9569
9.3414 -2.3080 -2.0340 0.9614
9.6043 -0.5885 -2.0340 0.9614
9.6183 0.2820 -2.0340 0.9614
9.5535 1.1503 -2.0340 0.9614
9.4105 2.0091 -2.0340 0.9614
9.1904 2.8514 -2.0340 0.9614
8.8950 3.6704 -2.0340 0.9614
8.0889 5.2119 -2.0340 0.9614
7.5847 5.9217 -2.0340 0.9614
7.0184 6.5831 -2.0340 0.9614
4.9956 8.2243 -2.0340 0.9614
4.2318 8.6421 -2.0340 0.9614
2.6067 9.2628 -2.0340 0.9614
1.7588 9.4604 -2.0340 0.9614
8.4016 -2.0758 -2.0339 0.9651
8.6382 -0.5293 -2.0340 0.9651
8.5924 1.0345 -2.0340 0.9651
8.4637 1.8070 -2.0340 0.9651
4.4930 7.3969 -2.0340 0.9651
3.0879 8.0849 -2.0340 0.9651
7.6263 -1.8842 -2.0339 0.9681
7.7654 -1.1872 -2.0340 0.9681
7.7993 0.9390 -2.0340 0.9681
7.6826 1.6402 -2.0340 0.9681
7.5029 2.3279 -2.0340 0.9681
7.2618 2.9965 -2.0340 0.9681
5.7298 5.3743 -2.0340 0.9681
4.6686 6.3181 -2.0340 0.9681
3.4548 7.0553 -2.0340 0.9681
2.1281 7.5620 -2.0340 0.9681
1.4359 7.7234 -2.0340 0.9681
6.9750 -1.7233 -2.0339 0.9706
7.1817 0.2106 -2.0340 0.9706
7.1333 0.8588 -2.0340 0.9706
7.0265 1.5001 -2.0340 0.9706
6.8622 2.1291 -2.0340 0.9706
6.6416 2.7406 -2.0340 0.9706
5.2404 4.9154 -2.0340 0.9706
3.7301 6.1408 -2.0340 0.9706
1.9464 6.9162 -2.0340 0.9706
1.3132 7.0638 -2.0340 0.9706
6.5368 -0.9994 -2.0339 0.9727
6.6100 0.1938 -2.0340 0.9727
6.5654 0.7905 -2.0340 0.9727
6.3158 1.9596 -2.0340 0.9727
6.1129 2.5224 -2.0340 0.9727
5.8599 3.0646 -2.0340 0.9727
5.5589 3.5818 -2.0340 0.9727
4.8232 4.5241 -2.0340 0.9727
2.9082 5.9391 -2.0340 0.9727
2.3595 6.1777 -2.0340 0.9727
1.7914 6.3656 -2.0340 0.9727
5.9402 -1.4677 -2.0339 0.9745
6.0486 -0.9247 -2.0339 0.9745
6.1163 0.1793 -2.0340 0.9745
6.0750 0.7314 -2.0340 0.9745
5.9841 1.2776 -2.0340 0.9745
5.8441 1.8132 -2.0340 0.9745
5.6563 2.3340 -2.0340 0.9745
5.4222 2.8357 -2.0340 0.9745
4.4630 4.1861 -2.0340 0.9745
4.0663 4.5724 -2.0340 0.9745
3.6364 4.9212 -2.0340 0.9745
3.1767 5.2298 -2.0340 0.9745
2.6910 5.4955 -2.0340 0.9745
2.1832 5.7162 -2.0340 0.9745
1.6576 5.8902 -2.0340 0.9745
1.1184 6.0159 -2.0340 0.9745
5.6853 0.1667 -2.0340 0.9761
5.6469 0.6799 -2.0340 0.9761
5.4323 1.6854 -2.0340 0.9761
5.2577 2.1696 -2.0340 0.9761
5.0401 2.6359 -2.0340 0.9761
4.7812 3.0807 -2.0340 0.9761
4.4832 3.5002 -2.0340 0.9761
3.7798 4.2502 -2.0340 0.9761
3.3801 4.5744 -2.0340 0.9761
2.9529 4.8612 -2.0340 0.9761
2.5013 5.1082 -2.0340 0.9761
5.1526 -1.2731 -2.0339 0.9775
5.2466 -0.8021 -2.0339 0.9775
5.2976 -0.3246 -2.0339 0.9775
5.1906 1.1081 -2.0340 0.9775
5.0692 1.5728 -2.0340 0.9775
4.9063 2.0245 -2.0340 0.9775
4.4617 2.8748 -2.0340 0.9775
3.8712 3.6311 -2.0340 0.9775
3.1542 4.2687 -2.0340 0.9775
0.9701 5.2182 -2.0340 0.9775
4.8245 -1.1920 -2.0339 0.9788
4.9125 -0.7511 -2.0339 0.9788
4.9340 0.5940 -2.0339 0.9787
4.8601 1.0376 -2.0340 0.9787
4.5939 1.8956 -2.0340 0.9787
3.9172 3.0583 -2.0340 0.9787
3.6247 3.3999 -2.0340 0.9787
2.5800 4.2475 -2.0340 0.9787
0.9084 4.8859 -2.0340 0.9787
4.5307 -1.1194 -2.0339 0.9798
4.6134 -0.7053 -2.0339 0.9798
4.6582 -0.2854 -2.0339 0.9798
4.6650 0.1368 -2.0339 0.9798
4.5641 0.9744 -2.0340 0.9798
4.1356 2.1629 -2.0340 0.9798
3.9232 2.5278 -2.0340 0.9798
3.6786 2.8721 -2.0340 0.9798
3.4039 3.1928 -2.0340 0.9798
0.8530 4.5883 -2.0340 0.9798
4.3436 -0.6641 -2.0339 0.9808
4.3922 0.1287 -2.0339 0.9808
4.3626 0.5252 -2.0339 0.9808
4.1967 1.3021 -2.0340 0.9808
4.0618 1.6761 -2.0340 0.9808
3.6937 2.3800 -2.0340 0.9808
3.4635 2.7041 -2.0340 0.9808
3.2049 3.0061 -2.0340 0.9808
2.9201 3.2835 -2.0340 0.9808
2.6113 3.5340 -2.0340 0.9808
1.5678 4.1049 -2.0340 0.9808
4.0254 -0.9946 -2.0339 0.9817
4.1387 -0.2536 -2.0339 0.9817
4.1447 0.1215 -2.0339 0.9817
4.1167 0.4956 -2.0339 0.9817
3.8330 1.5817 -2.0340 0.9817
3.6743 1.9216 -2.0340 0.9817
3.2684 2.5518 -2.0340 0.9817
3.0243 2.8367 -2.0340 0.9817
2.7555 3.0985 -2.0340 0.9817
2.4642 3.3348 -2.0340 0.9817
1.4795 3.8736 -2.0340 0.9817
0.7579 4.0766 -2.0340 0.9817
3.8062 -0.9404 -2.0339 0.9825
2.0981 -0.3208 -1.1011 0.9905
2.0761 0.0609 -1.0775 0.9907
2.0861 0.2511 -1.0900 0.9906
3.7446 1.1618 -2.0339 0.9825
3.6242 1.4955 -2.0339 0.9825
3.2958 2.1236 -2.0340 0.9825
3.0903 2.4128 -2.0340 0.9825
2.8596 2.6822 -2.0340 0.9825
1.7242 3.5212 -2.0340 0.9825
1.0621 3.7740 -2.0340 0.9825
1.8489 -0.2827 -1.0244 0.9915
1.8525 -0.1135 -1.0165 0.9916
1.8524 0.0543 -1.0150 0.9916
1.8459 0.2222 -1.0183 0.9916
1.8797 0.5832 -1.0780 0.9911
3.4329 1.4165 -2.0339 0.9832
3.2907 1.7210 -2.0339 0.9832
2.9271 2.2853 -2.0340 0.9832
1.9279 3.1739 -2.0340 0.9832
1.3250 3.4692 -2.0340 0.9832
1.0061 3.5747 -2.0339 0.9832
0.6788 3.6510 -2.0339 0.9832
1.7142 -0.4236 -1.0195 0.9919
1.7233 -0.1056 -0.9968 0.9921
1.7170 0.2067 -0.9984 0.9920
1.7148 0.3661 -1.0124 0.9919
1.7195 0.5335 -1.0394 0.9917
1.7589 0.7258 -1.0986 0.9913
3.1218 1.6327 -2.0339 0.9839
2.7768 2.1680 -2.0339 0.9839
2.5695 2.4101 -2.0339 0.9839
2.0936 2.8333 -2.0340 0.9839
1.5493 3.1639 -2.0339 0.9839
1.2570 3.2910 -2.0339 0.9839
0.9544 3.3912 -2.0339 0.9839
0.6439 3.4635 -2.0339 0.9839
