ply
format ascii 1.0
element vertex 178
property float32 x
property float32 y
property float32 z
property float32 I
end_header
2.7621 -6.1414 -0.6465 0.9733
-3.2777 -16.8039 -2.0337 0.9334
-0.2883 -17.1184 -2.0337 0.9334
2.7100 -16.9052 -2.0337 0.9334
9.6457 -14.1462 -2.0338 0.9334
10.8504 -13.2450 -2.0338 0.9334
12.9999 -11.1434 -2.0339 0.9334
13.9281 -9.9593 -2.0339 0.9334
-2.7479 -14.0879 -2.0337 0.9437
-0.2416 -14.3515 -2.0337 0.9437
1.0191 -14.3174 -2.0337 0.9437
2.2721 -14.1727 -2.0338 0.9437
1.6628 -6.5987 -0.9642 0.9729
2.1539 -6.1924 -0.9290 0.9739
8.0866 -11.8596 -2.0338 0.9437
10.8985 -9.3422 -2.0339 0.9437
12.3646 -7.2923 -2.0339 0.9437
12.9572 -6.1787 -2.0339 0.9437
13.4496 -5.0175 -2.0340 0.9437
-2.3634 -12.1170 -2.0337 0.9512
-0.2079 -12.3436 -2.0338 0.9512
0.8765 -12.3143 -2.0338 0.9512
2.1005 -6.0387 -1.0533 0.9744
2.6398 -5.8694 -1.0602 0.9742
7.8238 -9.5505 -2.0339 0.9512
8.6320 -8.8268 -2.0339 0.9512
10.0429 -7.1812 -2.0339 0.9512
10.6346 -6.2719 -2.0339 0.9512
11.5677 -4.3154 -2.0340 0.9512
-2.0715 -10.6200 -2.0338 0.9569
-1.1312 -10.7609 -2.0338 0.9569
-0.1822 -10.8187 -2.0338 0.9569
1.7128 -10.6839 -2.0338 0.9569
2.0773 -5.9720 -1.1885 0.9746
2.5671 -5.7078 -1.1763 0.9748
5.2876 -9.4407 -2.0338 0.9569
7.5656 -7.7363 -2.0339 0.9569
8.2156 -7.0424 -2.0339 0.9569
8.8021 -6.2940 -2.0339 0.9569
9.3207 -5.4971 -2.0339 0.9569
-1.0059 -9.5688 -2.0338 0.9614
-0.1620 -9.6202 -2.0338 0.9614
1.5711 -6.2348 -1.3591 0.9741
2.0347 -5.8496 -1.3091 0.9750
2.5770 -5.7298 -1.3280 0.9746
3.2202 -5.7496 -1.3930 0.9734
6.0975 -7.4432 -2.0339 0.9614
6.7274 -6.8792 -2.0339 0.9614
7.3054 -6.2621 -2.0339 0.9614
8.2880 -4.8880 -2.0339 0.9614
9.0153 -3.3632 -2.0339 0.9614
-1.6567 -8.4936 -2.0338 0.9651
-0.1457 -8.6524 -2.0338 0.9651
0.6144 -8.6318 -2.0338 0.9651
1.5269 -6.0592 -1.4686 0.9747
2.5811 -5.7389 -1.4789 0.9745
4.8752 -7.1499 -2.0339 0.9651
5.4841 -6.6944 -2.0339 0.9651
6.0506 -6.1872 -2.0339 0.9651
7.4543 -4.3963 -2.0339 0.9651
8.1084 -3.0248 -2.0339 0.9651
-1.5038 -7.7097 -2.0338 0.9681
1.2434 -7.7561 -2.0338 0.9681
2.0273 -5.8281 -1.5977 0.9748
5.4923 -5.6162 -2.0339 0.9681
7.0905 -3.3812 -2.0339 0.9681
-1.3754 -7.0514 -2.0338 0.9706
-0.7511 -7.1449 -2.0338 0.9706
-0.1209 -7.1833 -2.0338 0.9706
2.0444 -5.8773 -1.7616 0.9745
2.7295 -6.0688 -1.8838 0.9727
3.5107 -6.2683 -2.0339 0.9706
4.0474 -5.9359 -2.0339 0.9706
5.0232 -5.1366 -2.0339 0.9706
6.4851 -3.0924 -2.0339 0.9706
-0.6913 -6.5761 -2.0338 0.9727
1.0467 -6.5291 -2.0338 0.9727
2.0737 -5.9615 -1.9414 0.9739
2.7123 -6.0306 -2.0339 0.9727
5.0205 -4.3036 -2.0339 0.9727
5.6959 -3.3592 -2.0339 0.9727
5.9688 -2.8463 -2.0339 0.9727
-0.6397 -6.0850 -2.0338 0.9745
0.9685 -6.0414 -2.0338 0.9745
1.4952 -5.9331 -2.0338 0.9745
2.9899 -5.3384 -2.0339 0.9745
3.4470 -5.0553 -2.0339 0.9745
3.8775 -4.7332 -2.0339 0.9745
4.2780 -4.3746 -2.0339 0.9745
-0.5946 -5.6562 -2.0338 0.9761
-0.0958 -5.6866 -2.0338 0.9761
1.8685 -5.3717 -2.0339 0.9761
2.3329 -5.1870 -2.0339 0.9761
3.2041 -4.6991 -2.0339 0.9761
3.6042 -4.3996 -2.0339 0.9761
3.9766 -4.0663 -2.0339 0.9761
4.3182 -3.7015 -2.0339 0.9761
4.6264 -3.3082 -2.0339 0.9761
-1.0161 -5.2091 -2.0338 0.9775
-0.5548 -5.2782 -2.0338 0.9775
-0.0894 -5.3065 -2.0338 0.9775
0.3768 -5.2939 -2.0338 0.9775
1.7436 -5.0127 -2.0339 0.9775
2.1770 -4.8404 -2.0339 0.9775
2.5934 -4.6306 -2.0339 0.9775
2.9900 -4.3850 -2.0339 0.9775
3.3634 -4.1056 -2.0339 0.9775
3.7108 -3.7945 -2.0339 0.9775
4.0295 -3.4542 -2.0339 0.9775
4.3173 -3.0871 -2.0339 0.9775
4.5716 -2.6962 -2.0339 0.9775
-0.9514 -4.8775 -2.0338 0.9788
-0.0837 -4.9687 -2.0338 0.9788
0.7866 -4.9068 -2.0339 0.9788
2.4284 -4.3358 -2.0339 0.9788
2.7996 -4.1058 -2.0339 0.9788
3.1492 -3.8442 -2.0339 0.9788
3.7730 -3.2342 -2.0339 0.9788
4.2806 -2.5245 -2.0339 0.9788
4.4857 -2.1390 -2.0339 0.9788
-0.8934 -4.5804 -2.0338 0.9798
-0.4879 -4.6412 -2.0338 0.9798
-0.0786 -4.6661 -2.0338 0.9798
1.1404 -4.5253 -2.0339 0.9798
1.5332 -4.4078 -2.0339 0.9798
2.2805 -4.0717 -2.0339 0.9798
2.6291 -3.8558 -2.0339 0.9798
2.9574 -3.6101 -2.0339 0.9798
4.2125 -2.0088 -2.0339 0.9798
-0.4594 -4.3698 -2.0338 0.9808
0.3119 -4.3828 -2.0339 0.9808
0.6955 -4.3385 -2.0339 0.9808
1.4436 -4.1500 -2.0339 0.9808
1.8023 -4.0073 -2.0339 0.9808
2.7845 -3.3990 -2.0339 0.9808
3.0721 -3.1414 -2.0339 0.9808
3.3361 -2.8596 -2.0339 0.9808
3.7848 -2.2321 -2.0339 0.9808
3.9662 -1.8913 -2.0339 0.9808
4.1169 -1.5358 -2.0339 0.9808
-0.0698 -4.1457 -2.0339 0.9817
0.2944 -4.1359 -2.0339 0.9817
0.6563 -4.0941 -2.0339 0.9817
1.0132 -4.0206 -2.0339 0.9817
1.3621 -3.9162 -2.0339 0.9817
1.7007 -3.7815 -2.0339 0.9817
2.0261 -3.6176 -2.0339 0.9817
2.6276 -3.2075 -2.0339 0.9817
3.1481 -2.6985 -2.0339 0.9817
3.8849 -1.4493 -2.0339 0.9817
-0.0661 -3.9199 -2.0339 0.9825
0.2783 -3.9106 -2.0339 0.9825
0.6205 -3.8711 -2.0339 0.9825
0.9580 -3.8016 -2.0339 0.9825
1.6080 -3.5755 -2.0339 0.9825
1.9158 -3.4205 -2.0339 0.9825
2.2087 -3.2392 -2.0339 0.9825
3.1892 -2.2804 -2.0339 0.9825
3.5388 -1.6875 -2.0339 0.9825
3.6733 -1.3704 -2.0339 0.9825
-0.3882 -3.6931 -2.0339 0.9832
0.2637 -3.7041 -2.0339 0.9832
0.5878 -3.6666 -2.0339 0.9832
1.5232 -3.3867 -2.0339 0.9832
2.3533 -2.8726 -2.0339 0.9832
2.5964 -2.6550 -2.0339 0.9832
3.0207 -2.1600 -2.0339 0.9832
3.3520 -1.5984 -2.0339 0.9832
0.2501 -3.5139 -2.0339 0.9839
0.5576 -3.4783 -2.0339 0.9839
1.1574 -3.3272 -2.0339 0.9839
1.4450 -3.2128 -2.0339 0.9839
1.7214 -3.0736 -2.0339 0.9839
1.9846 -2.9106 -2.0339 0.9839
2.2325 -2.7251 -2.0339 0.9839
3.0345 -1.7896 -2.0339 0.9839
3.1798 -1.5163 -2.0339 0.9839
1.7194 -0.6414 -1.0595 0.9916
