ply
format ascii 1.0
element vertex 185
property float32 x
property float32 y
property float32 z
property float32 I
end_header
-17.0381 -1.6824 -2.0337 0.9334
-16.8127 -3.2339 -2.0337 0.9334
-16.4463 -4.7582 -2.0337 0.9334
-12.8401 -7.9863 -1.7962 0.9409
-11.2209 -8.4953 -1.6718 0.9449
-10.3333 -13.6503 -2.0337 0.9334
-9.0413 -14.5383 -2.0337 0.9334
-7.6736 -15.3044 -2.0337 0.9334
-4.7571 -16.4464 -2.0337 0.9334
-3.2328 -16.8126 -2.0337 0.9334
-14.3534 -0.0980 -2.0338 0.9437
-14.2842 -1.4105 -2.0338 0.9437
-14.0952 -2.7112 -2.0337 0.9437
-13.7880 -3.9891 -2.0337 0.9437
-13.3653 -5.2336 -2.0337 0.9437
-12.8305 -6.4342 -2.0337 0.9437
-12.1880 -7.5808 -2.0337 0.9437
-10.6030 -9.6743 -2.0337 0.9437
-8.6631 -11.4440 -2.0337 0.9437
-5.2327 -13.3655 -2.0337 0.9437
-3.9882 -13.7881 -2.0337 0.9437
-12.3452 -0.0843 -2.0338 0.9512
-12.2857 -1.2132 -2.0338 0.9512
-11.8590 -3.4310 -2.0338 0.9512
-11.4954 -4.5014 -2.0338 0.9512
-11.0354 -5.5340 -2.0337 0.9512
-9.1196 -8.3208 -2.0337 0.9512
-8.3202 -9.1201 -2.0337 0.9512
-7.4511 -9.8429 -2.0337 0.9512
-6.5195 -10.4832 -2.0337 0.9512
-5.5332 -11.0356 -2.0337 0.9512
-3.4302 -11.8591 -2.0337 0.9512
-2.3311 -12.1232 -2.0337 0.9512
-10.7816 0.9162 -2.0338 0.9569
-10.8201 -0.0739 -2.0338 0.9569
-10.6255 -2.0438 -2.0338 0.9569
-10.3940 -3.0072 -2.0338 0.9569
-10.0753 -3.9453 -2.0338 0.9569
-9.6721 -4.8503 -2.0338 0.9569
-9.1879 -5.7147 -2.0338 0.9569
-7.2923 -7.9935 -2.0337 0.9569
-6.5306 -8.6270 -2.0337 0.9569
-3.9446 -10.0755 -2.0338 0.9569
-9.6214 -0.0657 -2.0338 0.9614
-9.4483 -1.8174 -2.0338 0.9614
-9.2424 -2.6740 -2.0338 0.9614
-8.9591 -3.5082 -2.0338 0.9614
-8.6006 -4.3130 -2.0338 0.9614
-8.1700 -5.0816 -2.0338 0.9614
-7.6709 -5.8077 -2.0338 0.9614
-7.1075 -6.4850 -2.0338 0.9614
-6.4845 -7.1079 -2.0338 0.9614
-5.0811 -8.1703 -2.0338 0.9614
-4.3124 -8.6008 -2.0338 0.9614
-3.5076 -8.9592 -2.0338 0.9614
-1.8167 -9.4484 -2.0338 0.9614
-8.6535 -0.0591 -2.0338 0.9651
-8.6118 -0.8504 -2.0338 0.9651
-8.3127 -2.4050 -2.0338 0.9651
-7.7355 -3.8792 -2.0338 0.9651
-7.3482 -4.5704 -2.0338 0.9651
-4.5700 -7.3485 -2.0338 0.9651
-3.8786 -7.7356 -2.0338 0.9651
-3.1548 -8.0580 -2.0338 0.9651
-2.4045 -8.3128 -2.0338 0.9651
-7.8549 -0.0536 -2.0338 0.9681
-7.7136 -1.4837 -2.0338 0.9681
-7.5456 -2.1831 -2.0338 0.9681
-5.2940 -5.8029 -2.0338 0.9681
-4.7410 -6.2629 -2.0338 0.9681
-2.8636 -7.3144 -2.0338 0.9681
-2.1826 -7.5457 -2.0338 0.9681
-1.4832 -7.7137 -2.0338 0.9681
-7.1841 -0.0490 -2.0338 0.9706
-7.1496 -0.7060 -2.0338 0.9706
-7.0550 -1.3570 -2.0338 0.9706
-6.6897 -2.6196 -2.0338 0.9706
-6.4220 -3.2205 -2.0338 0.9706
-6.1005 -3.7944 -2.0338 0.9706
-3.2200 -6.4221 -2.0338 0.9706
-2.6191 -6.6898 -2.0338 0.9706
-6.6123 -0.0451 -2.0338 0.9727
-6.5804 -0.6498 -2.0338 0.9727
-6.4934 -1.2490 -2.0338 0.9727
-6.1571 -2.4110 -2.0338 0.9727
-5.9108 -2.9641 -2.0338 0.9727
-5.2718 -3.9913 -2.0338 0.9727
-2.9637 -5.9109 -2.0338 0.9727
-2.4106 -6.1573 -2.0338 0.9727
-1.2486 -6.4934 -2.0338 0.9727
-6.1184 -0.0418 -2.0338 0.9745
-6.0889 -0.6012 -2.0338 0.9745
-5.6972 -2.2310 -2.0338 0.9745
-4.5198 -4.1239 -2.0338 0.9745
-4.1236 -4.5201 -2.0338 0.9745
-1.7001 -5.8776 -2.0338 0.9745
-1.1553 -6.0085 -2.0338 0.9745
-5.6670 0.4816 -2.0339 0.9761
-5.5850 -1.0743 -2.0338 0.9761
-5.4633 -1.5806 -2.0338 0.9761
-5.0839 -2.5495 -2.0338 0.9761
-3.4327 -4.5346 -2.0338 0.9761
-2.5491 -5.0840 -2.0338 0.9761
-2.0734 -5.2959 -2.0338 0.9761
-1.5803 -5.4634 -2.0338 0.9761
-5.2882 0.4494 -2.0339 0.9775
-5.2816 -0.5215 -2.0338 0.9775
-4.9419 -1.9352 -2.0338 0.9775
-4.7441 -2.3791 -2.0338 0.9775
-4.2313 -3.2036 -2.0338 0.9775
-3.9205 -3.5772 -2.0338 0.9775
-3.5769 -3.9208 -2.0338 0.9775
-3.2033 -4.2315 -2.0338 0.9775
-2.8028 -4.5068 -2.0338 0.9775
-2.3788 -4.7443 -2.0338 0.9775
-1.9348 -4.9420 -2.0338 0.9775
-2.1177 0.1799 -0.8699 0.9909
-2.1216 -0.0145 -0.8684 0.9909
-2.1147 -0.2088 -0.8697 0.9909
-4.6272 -1.8120 -2.0338 0.9788
-4.4421 -2.2276 -2.0338 0.9788
-2.6243 -4.2199 -2.0338 0.9788
-2.2273 -4.4423 -2.0338 0.9788
-1.8116 -4.6274 -2.0338 0.9788
-1.3808 -4.7737 -2.0338 0.9788
-0.9384 -4.8800 -2.0338 0.9788
-1.9137 0.1626 -0.8370 0.9917
-1.9110 -0.1887 -0.8369 0.9917
-1.9050 -0.3664 -0.8454 0.9916
-2.0261 -0.5862 -0.9192 0.9908
-4.3455 -1.7016 -2.0338 0.9798
-4.1715 -2.0919 -2.0338 0.9798
-3.4474 -3.1455 -2.0338 0.9798
-3.1452 -3.4476 -2.0338 0.9798
-2.4645 -3.9629 -2.0338 0.9798
-2.0917 -4.1718 -2.0338 0.9798
-1.7013 -4.3456 -2.0338 0.9798
-1.2967 -4.4830 -2.0338 0.9798
-1.6067 -0.1587 -0.7473 0.9929
-1.6036 -0.3085 -0.7559 0.9928
-4.0913 -1.6021 -2.0338 0.9808
-3.9277 -1.9696 -2.0338 0.9808
-3.7310 -2.3206 -2.0338 0.9808
-3.5031 -2.6522 -2.0338 0.9808
-3.2458 -2.9615 -2.0338 0.9808
-2.9613 -3.2460 -2.0338 0.9808
-2.6520 -3.5033 -2.0338 0.9808
-2.3204 -3.7312 -2.0338 0.9808
-1.2209 -4.2208 -2.0338 0.9808
-0.8297 -4.3148 -2.0338 0.9808
-1.3373 -0.0092 -0.6560 0.9941
-1.3535 -0.1337 -0.6672 0.9940
-1.3364 -0.2571 -0.6675 0.9940
-1.2543 -0.4912 -0.6607 0.9940
-3.5208 -2.1899 -2.0338 0.9817
-3.3057 -2.5028 -2.0338 0.9817
-3.0629 -2.7946 -2.0338 0.9817
-2.5026 -3.3059 -2.0338 0.9817
-2.1896 -3.5209 -2.0338 0.9817
-1.5116 -3.8609 -2.0338 0.9817
-1.2004 0.1020 -0.6250 0.9946
-1.1930 -0.0082 -0.6189 0.9946
-1.1531 -0.3337 -0.6227 0.9946
-1.1237 -0.4401 -0.6261 0.9946
-2.6422 -2.8963 -2.0338 0.9825
-1.0893 -3.7661 -2.0338 0.9825
-1.0767 -0.0074 -0.5897 0.9951
-0.9821 -0.4926 -0.6018 0.9950
-3.1532 -1.9613 -2.0339 0.9832
-2.9606 -2.2415 -2.0338 0.9832
-2.7431 -2.5029 -2.0338 0.9832
-2.5027 -2.7433 -2.0338 0.9832
-2.2413 -2.9607 -2.0338 0.9832
-1.3538 -3.4579 -2.0339 0.9832
-1.0318 -3.5672 -2.0339 0.9832
-0.7012 -3.6466 -2.0339 0.9832
-0.9575 -0.2771 -0.5755 0.9954
-0.9400 -0.3681 -0.5829 0.9953
-2.8086 -2.1264 -2.0339 0.9839
-2.6023 -2.3744 -2.0339 0.9839
-2.1261 -2.8087 -2.0339 0.9839
-1.8604 -2.9915 -2.0339 0.9839
-1.5789 -3.1491 -2.0339 0.9839
-1.2843 -3.2803 -2.0339 0.9839
-0.6652 -3.4594 -2.0339 0.9839
