ply
format ascii 1.0
element vertex 188
property float32 x
property float32 y
property float32 z
property float32 I
end_header
2.9417 -6.1047 -0.6506 0.9731
-4.4802 -16.5240 -2.0337 0.9334
-2.9900 -16.8575 -2.0337 0.9334
1.7966 -6.4768 -0.7984 0.9733
2.3030 -6.1221 -0.7770 0.9740
10.0526 -13.8601 -2.0338 0.9334
11.2478 -12.9093 -2.0339 0.9334
12.3535 -11.8558 -2.0339 0.9334
14.2621 -9.4749 -2.0339 0.9334
15.7178 -6.7929 -2.0340 0.9334
16.2607 -5.3654 -2.0340 0.9334
-6.1554 -12.9664 -2.0337 0.9437
2.8408 -5.8953 -0.9272 0.9739
7.3587 -12.3245 -2.0338 0.9437
8.4277 -11.6198 -2.0338 0.9437
9.4297 -10.8227 -2.0339 0.9437
10.3566 -9.9395 -2.0339 0.9437
11.2013 -8.9771 -2.0339 0.9437
12.6170 -6.8463 -2.0339 0.9437
13.6322 -4.4981 -2.0340 0.9437
-3.2305 -11.9151 -2.0337 0.9512
1.1359 -12.2930 -2.0338 0.9512
2.2647 -6.0200 -1.0596 0.9743
2.8543 -5.9232 -1.0832 0.9737
7.2486 -9.9940 -2.0339 0.9512
8.1104 -9.3084 -2.0339 0.9512
8.9076 -8.5487 -2.0339 0.9512
9.6340 -7.7210 -2.0339 0.9512
10.8517 -5.8884 -2.0339 0.9512
11.3334 -4.8981 -2.0339 0.9512
-4.6402 -9.7746 -2.0338 0.9569
-2.8315 -10.4431 -2.0338 0.9569
-1.8896 -10.6539 -2.0338 0.9569
0.0315 -10.8202 -2.0338 0.9569
1.7078 -6.1566 -1.2009 0.9743
2.2318 -5.9325 -1.1914 0.9745
2.7383 -5.6825 -1.1856 0.9747
9.5110 -5.1609 -2.0339 0.9569
10.2762 -3.3907 -2.0340 0.9569
-2.5177 -9.2862 -2.0338 0.9614
0.0280 -9.6215 -2.0338 0.9614
0.8853 -9.5807 -2.0338 0.9614
1.7355 -9.4637 -2.0338 0.9614
2.2034 -5.8570 -1.3228 0.9747
6.3208 -7.2546 -2.0339 0.9614
6.9421 -6.6625 -2.0339 0.9614
7.5082 -6.0174 -2.0339 0.9614
8.8326 -3.8173 -2.0339 0.9614
-2.2645 -8.3521 -2.0338 0.9651
-0.7460 -8.6214 -2.0338 0.9651
0.7962 -8.6170 -2.0338 0.9651
1.5609 -8.5118 -2.0338 0.9651
1.6330 -5.8867 -1.4358 0.9752
2.8142 -5.8401 -1.5236 0.9737
3.5041 -5.8688 -1.6065 0.9723
5.0809 -7.0053 -2.0339 0.9651
5.6850 -6.5247 -2.0339 0.9651
8.2184 -2.7117 -2.0339 0.9651
-2.7229 -7.3680 -2.0338 0.9681
-2.0555 -7.5813 -2.0338 0.9681
-1.3718 -7.7343 -2.0338 0.9681
0.0229 -7.8550 -2.0338 0.9681
1.4168 -7.7263 -2.0338 0.9681
1.6292 -5.8731 -1.5781 0.9751
4.6120 -6.3588 -2.0339 0.9681
6.5431 -4.3469 -2.0339 0.9681
6.9045 -3.7465 -2.0339 0.9681
7.2109 -3.1164 -2.0339 0.9681
7.4599 -2.4615 -2.0339 0.9681
-2.4904 -6.7388 -2.0338 0.9706
-1.8800 -6.9339 -2.0338 0.9706
-1.2547 -7.0739 -2.0338 0.9706
-0.6193 -7.1575 -2.0338 0.9706
1.2959 -7.0665 -2.0338 0.9706
1.6340 -5.8906 -1.7306 0.9749
2.2175 -5.8947 -1.7829 0.9742
3.1188 -6.4722 -2.0339 0.9706
4.7196 -5.4169 -2.0339 0.9706
5.1836 -4.9747 -2.0339 0.9706
5.9844 -3.9756 -2.0339 0.9706
6.3148 -3.4266 -2.0339 0.9706
-2.8357 -5.9734 -2.0338 0.9727
-1.7304 -6.3820 -2.0338 0.9727
0.6084 -6.5844 -2.0338 0.9727
1.6811 -6.0602 -1.9344 0.9740
2.3283 -6.1890 -2.0339 0.9727
3.8824 -5.3528 -2.0339 0.9727
4.7709 -4.5787 -2.0339 0.9727
5.1600 -4.1354 -2.0339 0.9727
5.5080 -3.6592 -2.0339 0.9727
6.0701 -2.6234 -2.0339 0.9727
6.2797 -2.0721 -2.0339 0.9727
-2.6239 -5.5273 -2.0338 0.9745
-1.6011 -5.9053 -2.0338 0.9745
-1.0685 -6.0245 -2.0338 0.9745
0.5630 -6.0926 -2.0338 0.9745
1.6355 -5.8959 -2.0338 0.9745
2.1544 -5.7268 -2.0339 0.9745
2.6561 -5.5121 -2.0339 0.9745
3.1368 -5.2534 -2.0339 0.9745
3.5924 -4.9531 -2.0339 0.9745
4.0195 -4.6133 -2.0339 0.9745
4.4146 -4.2368 -2.0339 0.9745
5.3780 -2.9183 -2.0339 0.9745
5.8107 -1.9173 -2.0339 0.9745
-2.4390 -5.1378 -2.0338 0.9761
-1.4883 -5.4891 -2.0338 0.9761
0.5233 -5.6633 -2.0338 0.9761
1.0258 -5.5941 -2.0338 0.9761
1.5202 -5.4805 -2.0339 0.9761
2.4689 -5.1236 -2.0339 0.9761
3.7362 -4.2881 -2.0339 0.9761
4.1034 -3.9382 -2.0339 0.9761
4.9991 -2.7126 -2.0339 0.9761
-1.3888 -5.1223 -2.0338 0.9775
0.9573 -5.2203 -2.0339 0.9775
1.4187 -5.1142 -2.0339 0.9775
2.3039 -4.7812 -2.0339 0.9775
3.1161 -4.2963 -2.0339 0.9775
3.4865 -4.0015 -2.0339 0.9775
3.8292 -3.6750 -2.0339 0.9775
4.6650 -2.5313 -2.0339 0.9775
5.0402 -1.6631 -2.0339 0.9775
-2.1311 -4.4892 -2.0338 0.9788
-1.7226 -4.6613 -2.0338 0.9788
0.0145 -4.9694 -2.0338 0.9788
1.3284 -4.7886 -2.0339 0.9788
1.7498 -4.6512 -2.0339 0.9788
2.1573 -4.4768 -2.0339 0.9788
3.8778 -3.1078 -2.0339 0.9788
4.1393 -2.7500 -2.0339 0.9788
4.3679 -2.3702 -2.0339 0.9788
4.7193 -1.5572 -2.0339 0.9788
-0.8150 -4.5950 -2.0338 0.9798
0.0136 -4.6668 -2.0338 0.9798
0.8418 -4.5902 -2.0339 0.9798
2.0259 -4.2041 -2.0339 0.9798
2.7400 -3.7778 -2.0339 0.9798
3.6417 -2.9185 -2.0339 0.9798
4.1019 -2.2258 -2.0339 0.9798
-0.7673 -4.3263 -2.0338 0.9808
0.4043 -4.3752 -2.0339 0.9808
1.9075 -3.9583 -2.0339 0.9808
2.2526 -3.7726 -2.0339 0.9808
2.8864 -3.3129 -2.0339 0.9808
3.1702 -3.0425 -2.0339 0.9808
4.0335 -1.7432 -2.0339 0.9808
-1.7781 -3.7457 -2.0338 0.9817
-1.4373 -3.8892 -2.0338 0.9817
-1.0850 -4.0018 -2.0338 0.9817
-0.3574 -4.1309 -2.0339 0.9817
0.0121 -4.1463 -2.0339 0.9817
0.7479 -4.0783 -2.0339 0.9817
1.4599 -3.8808 -2.0339 0.9817
1.8000 -3.7353 -2.0339 0.9817
2.4344 -3.3565 -2.0339 0.9817
2.7238 -3.1262 -2.0339 0.9817
2.9916 -2.8711 -2.0339 0.9817
3.4537 -2.2945 -2.0339 0.9817
3.8062 -1.6450 -2.0339 0.9817
3.9376 -1.2993 -2.0339 0.9817
-0.6847 -3.8602 -2.0339 0.9825
-0.3380 -3.9059 -2.0339 0.9825
0.0114 -3.9204 -2.0339 0.9825
0.3607 -3.9039 -2.0339 0.9825
1.0480 -3.7778 -2.0339 0.9825
1.3804 -3.6695 -2.0339 0.9825
1.7019 -3.5318 -2.0339 0.9825
2.8287 -2.7147 -2.0339 0.9825
3.0593 -2.4518 -2.0339 0.9825
-1.5925 -3.3546 -2.0338 0.9832
-1.2873 -3.4832 -2.0339 0.9832
0.3417 -3.6977 -2.0339 0.9832
0.9926 -3.5783 -2.0339 0.9832
2.4395 -2.7998 -2.0339 0.9832
2.6793 -2.5713 -2.0339 0.9832
3.4088 -1.4732 -2.0339 0.9832
1.8919 -0.6243 -1.0911 0.9910
-0.9219 -3.4000 -2.0339 0.9839
-0.6152 -3.4686 -2.0339 0.9839
0.0103 -3.5228 -2.0339 0.9839
0.3241 -3.5078 -2.0339 0.9839
0.9416 -3.3946 -2.0339 0.9839
1.5292 -3.1736 -2.0339 0.9839
1.8059 -3.0247 -2.0339 0.9839
2.7489 -2.2031 -2.0339 0.9839
2.9343 -1.9494 -2.0339 0.9839
1.7239 -0.5688 -1.0480 0.9917
