ply
format ascii 1.0
element vertex 189
property float32 x
property float32 y
property float32 z
property float32 I
end_header
-17.5407 5.0316 -0.9254 0.9295
-11.7860 -8.4467 -0.7354 0.9436
-17.2696 4.9538 -1.3173 0.9305
-17.5514 5.0346 -1.7530 0.9293
-11.4370 -8.1965 -1.3509 0.9450
-13.7355 10.2229 -2.0339 0.9334
-15.9664 6.1830 -2.0338 0.9334
-16.4579 4.7210 -2.0338 0.9334
-17.0373 1.6942 -2.0338 0.9334
-17.1205 0.1540 -2.0338 0.9334
-16.8705 -2.9174 -2.0337 0.9334
-16.5394 -4.4238 -2.0337 0.9334
-16.0741 -5.8943 -2.0337 0.9334
-15.4783 -7.3169 -2.0337 0.9334
-14.7569 -8.6802 -2.0337 0.9334
-11.2918 -8.0925 -1.6502 0.9456
-12.9617 -11.1849 -2.0337 0.9334
-11.9025 -12.3060 -2.0337 0.9334
-11.5153 8.5705 -2.0339 0.9437
-12.2398 7.4993 -2.0339 0.9437
-13.3856 5.1836 -2.0338 0.9437
-14.0978 2.7001 -2.0338 0.9437
-14.2835 1.4204 -2.0338 0.9437
-14.3532 0.1291 -2.0338 0.9437
-13.8661 -3.7088 -2.0337 0.9437
-13.4760 -4.9416 -2.0337 0.9437
-11.0649 5.4764 -2.0339 0.9512
-11.5128 4.4583 -2.0339 0.9512
-11.8672 3.4041 -2.0338 0.9512
-12.2850 1.2216 -2.0338 0.9512
-12.3048 -1.0004 -2.0338 0.9512
-12.1648 -2.1037 -2.0338 0.9512
-10.0344 -7.1913 -2.0337 0.9512
-8.5827 -8.8736 -2.0337 0.9512
-9.6979 4.7998 -2.0339 0.9569
-10.4011 2.9836 -2.0338 0.9569
-10.6273 2.0354 -2.0338 0.9569
-10.7673 1.0707 -2.0338 0.9569
-10.8199 0.0974 -2.0338 0.9569
-10.7847 -0.8768 -2.0338 0.9569
-10.1587 -3.7252 -2.0338 0.9569
-9.7822 -4.6243 -2.0338 0.9569
-9.3263 -5.4859 -2.0338 0.9569
-8.7948 -6.3029 -2.0338 0.9569
-7.5224 -7.7774 -2.0337 0.9569
-7.7188 5.7448 -2.0339 0.9614
-9.5745 0.9521 -2.0338 0.9614
-9.6212 0.0866 -2.0338 0.9614
-9.5899 -0.7796 -2.0338 0.9614
-9.4808 -1.6395 -2.0338 0.9614
-9.2948 -2.4861 -2.0338 0.9614
-9.0333 -3.3125 -2.0338 0.9614
-8.2931 -4.8781 -2.0338 0.9614
-7.2843 -6.2857 -2.0338 0.9614
-6.6890 -6.9158 -2.0338 0.9614
-7.3791 4.5211 -2.0339 0.9651
-7.7560 3.8387 -2.0339 0.9651
-8.3184 2.3861 -2.0339 0.9651
-8.4993 1.6278 -2.0338 0.9651
-8.6113 0.8563 -2.0338 0.9651
-8.6534 0.0778 -2.0338 0.9651
-8.3597 -2.2360 -2.0338 0.9651
-8.1246 -2.9793 -2.0338 0.9651
-7.0338 -5.0409 -2.0338 0.9651
-6.0162 -6.2201 -2.0338 0.9651
-7.0402 3.4844 -2.0339 0.9681
-7.3252 2.8367 -2.0339 0.9681
-7.7150 1.4776 -2.0339 0.9681
-7.8293 -0.6365 -2.0338 0.9681
-7.7402 -1.3385 -2.0338 0.9681
-7.5883 -2.0297 -2.0338 0.9681
-7.1015 -3.3570 -2.0338 0.9681
-6.7706 -3.9826 -2.0338 0.9681
-6.3846 -4.5757 -2.0338 0.9681
-5.4610 -5.6461 -2.0338 0.9681
-5.7635 4.2896 -2.0339 0.9706
-6.1261 3.7534 -2.0339 0.9706
-6.6996 2.5944 -2.0339 0.9706
-7.1840 0.0646 -2.0338 0.9706
-7.1607 -0.5822 -2.0338 0.9706
-6.9403 -1.8564 -2.0338 0.9706
-6.7450 -2.4734 -2.0338 0.9706
-6.4951 -3.0704 -2.0338 0.9706
-5.4391 -4.6935 -2.0338 0.9706
-5.6384 3.4546 -2.0339 0.9727
-5.9264 2.9332 -2.0339 0.9727
-6.1663 2.3879 -2.0339 0.9727
-6.3562 1.8233 -2.0339 0.9727
-6.4944 1.2438 -2.0339 0.9727
-6.6121 0.0595 -2.0338 0.9727
-6.3879 -1.7086 -2.0338 0.9727
-6.2082 -2.2765 -2.0338 0.9727
-5.6995 -3.3525 -2.0338 0.9727
-5.3746 -3.8518 -2.0338 0.9727
-4.5971 -4.7529 -2.0338 0.9727
-5.7057 2.2096 -2.0339 0.9745
-6.1183 0.0551 -2.0338 0.9745
-6.0984 -0.4958 -2.0338 0.9745
-5.9107 -1.5810 -2.0338 0.9745
-5.7445 -2.1065 -2.0338 0.9745
-5.5316 -2.6149 -2.0338 0.9745
-4.5625 3.3957 -2.0339 0.9761
-5.3037 2.0538 -2.0339 0.9761
-5.4670 1.5682 -2.0339 0.9761
-5.6595 0.5628 -2.0339 0.9761
-5.6872 0.0512 -2.0339 0.9761
-5.6687 -0.4609 -2.0338 0.9761
-5.3396 -1.9580 -2.0338 0.9761
-4.9021 -2.8835 -2.0338 0.9761
-4.3059 -3.7155 -2.0338 0.9761
-3.9540 -4.0880 -2.0338 0.9761
-5.1016 1.4634 -2.0339 0.9775
-5.2126 0.9983 -2.0339 0.9775
-5.2813 0.5252 -2.0339 0.9775
-5.2898 -0.4300 -2.0339 0.9775
-4.9828 -1.8272 -2.0338 0.9775
-4.5745 -2.6908 -2.0338 0.9775
-4.3139 -3.0916 -2.0338 0.9775
-4.0181 -3.4672 -2.0338 0.9775
-3.6898 -3.8148 -2.0338 0.9775
-3.9866 2.9671 -2.0339 0.9788
-4.2374 2.5963 -2.0339 0.9788
-4.4539 2.2044 -2.0339 0.9788
-4.7768 1.3702 -2.0339 0.9788
-2.1145 0.2102 -0.8697 0.9909
-2.1218 0.0191 -0.8684 0.9909
-2.1184 -0.1723 -0.8699 0.9909
-4.8006 -1.2840 -2.0338 0.9788
-4.4927 -2.1238 -2.0338 0.9788
-3.4548 -3.5719 -2.0338 0.9788
-3.7438 2.7863 -2.0339 0.9798
-3.9793 2.4381 -2.0339 0.9798
-4.1826 2.0701 -2.0339 0.9798
-4.3519 1.6853 -2.0339 0.9798
-2.0189 0.5791 -0.9154 0.9909
-1.9143 -0.1557 -0.8370 0.9917
-3.5332 -3.0488 -2.0338 0.9798
-3.2445 -3.3544 -2.0338 0.9798
-3.9380 1.9490 -2.0339 0.9808
-4.0974 1.5867 -2.0339 0.9808
-1.5488 0.4442 -0.7458 0.9929
-1.6039 0.3072 -0.7559 0.9928
-1.6068 0.1597 -0.7474 0.9929
-1.5711 0.0141 -0.7273 0.9931
-1.6028 -0.1303 -0.7444 0.9929
-1.6098 -0.2784 -0.7562 0.9928
-1.5633 -0.4182 -0.7491 0.9929
-1.8247 -0.6692 -0.8996 0.9915
-3.9723 -1.8778 -2.0338 0.9808
-3.5714 -2.5595 -2.0338 0.9808
-3.3265 -2.8705 -2.0338 0.9808
-3.5355 2.1662 -2.0339 0.9817
-3.7161 1.8392 -2.0339 0.9817
-1.3019 0.3734 -0.6644 0.9940
-1.3383 0.0120 -0.6565 0.9941
-1.3097 -0.3503 -0.6650 0.9940
-1.2619 -0.4628 -0.6593 0.9940
-3.7485 -1.7720 -2.0338 0.9817
-3.3702 -2.4153 -2.0338 0.9817
-3.1391 -2.7088 -2.0338 0.9817
-3.1450 2.3408 -2.0339 0.9825
-3.5137 1.7390 -2.0339 0.9825
-1.1831 0.2266 -0.6249 0.9946
-1.1934 0.0107 -0.6192 0.9946
-1.1885 -0.2056 -0.6257 0.9946
-1.1608 -0.3105 -0.6234 0.9946
-3.5444 -1.6755 -2.0339 0.9825
-3.3792 -1.9877 -2.0338 0.9825
-3.1866 -2.2838 -2.0338 0.9825
-2.9682 -2.5612 -2.0338 0.9825
-2.9790 2.2171 -2.0339 0.9832
-3.1664 1.9400 -2.0339 0.9832
-0.9841 0.4870 -0.6014 0.9950
-1.0168 0.3937 -0.5972 0.9950
-1.0793 0.1073 -0.5940 0.9951
-1.0770 0.0096 -0.5899 0.9951
-1.0806 -0.0879 -0.5938 0.9951
-1.0398 -0.2781 -0.5895 0.9951
-3.0183 -2.1631 -2.0339 0.9832
-2.8114 -2.4260 -2.0338 0.9832
-2.5816 -2.6692 -2.0338 0.9832
-2.8260 2.1033 -2.0339 0.9839
-3.0038 1.8404 -2.0339 0.9839
-0.9578 0.2747 -0.5753 0.9954
-0.9796 -0.1694 -0.5740 0.9954
-0.9452 -0.3466 -0.5813 0.9954
-0.9196 -0.4347 -0.5873 0.9953
-3.0364 -1.7861 -2.0339 0.9839
-2.6670 -2.3014 -2.0339 0.9839
