ply
format ascii 1.0
element vertex 176
property float32 x
property float32 y
property float32 z
property float32 I
end_header
13.4533 9.4741 -1.2065 0.9361
13.1092 9.2317 -1.5393 0.9376
17.1234 -0.0882 -2.0340 0.9333
16.8723 2.9244 -2.0341 0.9333
16.5484 4.4024 -2.0341 0.9333
16.0953 5.8460 -2.0341 0.9333
15.5166 7.2440 -2.0341 0.9333
14.8166 8.5854 -2.0341 0.9333
13.1716 9.2757 -1.9136 0.9372
10.9279 13.1844 -2.0341 0.9333
8.4391 14.9006 -2.0341 0.9333
7.0908 15.5873 -2.0341 0.9333
14.3554 -0.0739 -2.0340 0.9437
13.4934 4.9009 -2.0341 0.9437
11.7376 8.2658 -2.0341 0.9437
10.9621 9.2696 -2.0341 0.9437
10.1012 10.2012 -2.0341 0.9437
8.1498 11.8185 -2.0341 0.9437
4.7678 13.5411 -2.0341 0.9437
3.5539 13.9091 -2.0341 0.9437
12.3467 -0.0636 -2.0340 0.9512
12.3042 1.0265 -2.0340 0.9512
10.0952 7.1092 -2.0341 0.9512
7.8793 9.5063 -2.0341 0.9512
7.0095 10.1647 -2.0341 0.9512
6.0848 10.7438 -2.0341 0.9512
4.1007 11.6463 -2.0341 0.9512
3.0566 11.9628 -2.0341 0.9512
10.8212 -0.0558 -2.0340 0.9569
10.7839 0.8997 -2.0340 0.9569
10.6625 1.8481 -2.0340 0.9569
10.1714 3.6944 -2.0340 0.9569
9.3633 5.4255 -2.0340 0.9569
8.2634 6.9875 -2.0340 0.9569
6.9057 8.3318 -2.0341 0.9569
6.1434 8.9088 -2.0341 0.9569
2.6789 10.4847 -2.0340 0.9569
9.5803 -0.8987 -2.0340 0.9614
9.2991 2.4738 -2.0340 0.9614
8.7192 4.0706 -2.0340 0.9614
8.3259 4.8244 -2.0340 0.9614
7.3478 6.2133 -2.0340 0.9614
5.4627 7.9217 -2.0340 0.9614
4.7421 8.3730 -2.0340 0.9614
3.9845 8.7589 -2.0340 0.9614
8.6543 -0.0446 -2.0340 0.9651
8.6245 0.7195 -2.0340 0.9651
8.3636 2.2249 -2.0340 0.9651
8.1345 2.9545 -2.0340 0.9651
7.4882 4.3390 -2.0340 0.9651
6.0895 6.1497 -2.0340 0.9651
4.9131 7.1248 -2.0340 0.9651
2.8743 8.1633 -2.0340 0.9651
2.1425 8.3851 -2.0340 0.9651
7.8556 -0.0405 -2.0340 0.9681
7.5917 2.0196 -2.0340 0.9681
7.1182 3.3232 -2.0340 0.9681
6.7971 3.9386 -2.0340 0.9681
4.4597 6.4672 -2.0340 0.9681
1.9448 7.6112 -2.0340 0.9681
7.1534 -0.6711 -2.0340 0.9706
7.1847 -0.0370 -2.0340 0.9706
7.0793 1.2270 -2.0340 0.9706
6.9434 1.8471 -2.0340 0.9706
6.2167 3.6022 -2.0340 0.9706
5.4864 4.6393 -2.0340 0.9706
4.5850 5.5318 -2.0340 0.9706
3.5408 6.2519 -2.0340 0.9706
6.5839 -0.6177 -2.0340 0.9727
6.6127 -0.0341 -2.0340 0.9727
6.5157 1.1293 -2.0340 0.9727
6.3906 1.7001 -2.0340 0.9727
5.9921 2.7974 -2.0340 0.9727
5.7217 3.3154 -2.0340 0.9727
5.4068 3.8076 -2.0340 0.9727
5.0496 4.2699 -2.0340 0.9727
4.6529 4.6990 -2.0340 0.9727
4.2200 5.0914 -2.0340 0.9727
3.7541 5.4440 -2.0340 0.9727
2.7382 6.0194 -2.0340 0.9727
2.1962 6.2376 -2.0340 0.9727
6.0921 -0.5715 -2.0339 0.9745
6.1189 -0.0315 -2.0340 0.9745
5.9133 1.5731 -2.0340 0.9745
5.7514 2.0889 -2.0340 0.9745
5.5445 2.5885 -2.0340 0.9745
4.6724 3.9510 -2.0340 0.9745
4.3054 4.3480 -2.0340 0.9745
3.4737 5.0374 -2.0340 0.9745
2.5337 5.5697 -2.0340 0.9745
2.0322 5.7716 -2.0340 0.9745
5.6876 -0.0293 -2.0339 0.9761
5.6680 0.4729 -2.0340 0.9761
5.4966 1.4622 -2.0340 0.9761
5.3461 1.9417 -2.0340 0.9761
5.1537 2.4060 -2.0340 0.9761
4.3431 3.6726 -2.0340 0.9761
3.2289 4.6824 -2.0340 0.9761
1.8890 5.3649 -2.0340 0.9761
1.4081 5.5107 -2.0340 0.9761
5.2843 -0.4957 -2.0339 0.9775
5.1292 1.3645 -2.0340 0.9775
4.9887 1.8119 -2.0340 0.9775
4.8093 2.2452 -2.0340 0.9775
4.0529 3.4271 -2.0340 0.9775
3.0131 4.3694 -2.0340 0.9775
1.7627 5.0063 -2.0340 0.9775
1.3139 5.1424 -2.0340 0.9775
4.9479 -0.4642 -2.0339 0.9788
4.9696 -0.0256 -2.0339 0.9788
4.9524 0.4132 -2.0339 0.9788
4.8966 0.8487 -2.0340 0.9787
4.8026 1.2776 -2.0340 0.9787
4.3000 2.4916 -2.0340 0.9787
3.7948 3.2089 -2.0340 0.9787
3.4968 3.5314 -2.0340 0.9787
3.1714 3.8262 -2.0340 0.9787
2.4491 4.3243 -2.0340 0.9787
2.0579 4.5236 -2.0340 0.9787
1.2303 4.8150 -2.0340 0.9787
4.6466 -0.4359 -2.0339 0.9798
4.6669 -0.0240 -2.0339 0.9798
4.5985 0.7970 -2.0339 0.9798
4.3866 1.5933 -2.0340 0.9798
4.2289 1.9742 -2.0340 0.9798
4.0381 2.3398 -2.0340 0.9798
3.8158 2.6871 -2.0340 0.9798
3.2838 3.3163 -2.0340 0.9798
2.9782 3.5932 -2.0340 0.9798
2.6494 3.8420 -2.0340 0.9798
2.3000 4.0609 -2.0340 0.9798
3.9816 1.8588 -2.0340 0.9808
3.3553 2.8372 -2.0340 0.9808
2.8041 3.3831 -2.0340 0.9808
2.1654 3.8235 -2.0340 0.9808
1.8195 3.9997 -2.0340 0.9808
1.4593 4.1446 -2.0340 0.9808
4.1284 -0.3873 -2.0339 0.9817
4.1464 -0.0214 -2.0339 0.9817
4.1321 0.3447 -2.0339 0.9817
4.0071 1.0660 -2.0339 0.9817
3.3902 2.3874 -2.0340 0.9817
2.9175 2.9464 -2.0340 0.9817
2.6461 3.1924 -2.0340 0.9817
2.3539 3.4136 -2.0340 0.9817
1.7170 3.7743 -2.0340 0.9817
1.3771 3.9111 -2.0340 0.9817
1.0265 4.0174 -2.0340 0.9817
2.0732 -0.1945 -1.0802 0.9907
3.7889 1.0079 -2.0339 0.9825
3.6851 1.3385 -2.0339 0.9825
3.5526 1.6585 -2.0339 0.9825
3.3923 1.9656 -2.0340 0.9825
2.9938 2.5316 -2.0340 0.9825
2.2257 3.2277 -2.0340 0.9825
1.3021 3.6981 -2.0340 0.9825
1.8511 0.1544 -1.0174 0.9916
1.8527 0.3211 -1.0299 0.9915
1.8606 0.4950 -1.0545 0.9913
3.4905 1.2678 -2.0339 0.9832
3.3650 1.5709 -2.0339 0.9832
3.2132 1.8618 -2.0339 0.9832
3.0362 2.1382 -2.0340 0.9832
2.8357 2.3979 -2.0340 0.9832
2.6129 2.6388 -2.0340 0.9832
2.3698 2.8591 -2.0340 0.9832
2.1082 3.0572 -2.0340 0.9832
1.5377 3.3803 -2.0340 0.9832
0.9193 3.5980 -2.0339 0.9832
1.7219 0.1436 -0.9976 0.9921
1.7127 0.4556 -1.0232 0.9918
1.7221 0.6255 -1.0578 0.9916
3.0482 1.7662 -2.0339 0.9839
2.4788 2.5033 -2.0339 0.9839
2.2482 2.7123 -2.0340 0.9839
1.4588 3.2067 -2.0339 0.9839
