ply
format ascii 1.0
element vertex 196
property float32 x
property float32 y
property float32 z
property float32 I
end_header
-13.1431 -8.0909 -1.1316 0.9400
-11.6154 -8.6279 -1.0609 0.9436
-12.7866 -7.8714 -1.4415 0.9414
-11.4525 -8.5068 -1.3696 0.9443
-17.1137 -0.5033 -2.0337 0.9334
-12.7952 -7.8767 -1.7848 0.9413
-11.2570 -8.3617 -1.6657 0.9451
-12.8039 -11.3652 -2.0337 0.9334
-10.6412 -13.4117 -2.0337 0.9334
-14.2039 2.0703 -2.0338 0.9437
-14.3475 -0.4219 -2.0338 0.9437
-14.2564 -1.6680 -2.0338 0.9437
-13.3420 -5.2929 -2.0337 0.9437
-12.8310 -6.4330 -2.0337 0.9437
-12.2230 -7.5244 -2.0337 0.9437
-11.5223 -8.5588 -2.0337 0.9437
-9.8652 -10.4256 -2.0337 0.9437
-6.8382 -12.6196 -2.0337 0.9437
-5.7149 -13.1664 -2.0337 0.9437
-4.5484 -13.6136 -2.0337 0.9437
-12.3402 -0.3629 -2.0338 0.9512
-11.4753 -4.5524 -2.0338 0.9512
-9.9103 -7.3613 -2.0337 0.9512
-7.6731 -9.6709 -2.0337 0.9512
-4.9154 -11.3244 -2.0337 0.9512
-3.9120 -11.7090 -2.0337 0.9512
-10.7073 1.5607 -2.0338 0.9569
-10.5969 -2.1871 -2.0338 0.9569
-10.3665 -3.1003 -2.0338 0.9569
-9.6725 -4.8495 -2.0338 0.9569
-9.2142 -5.6722 -2.0338 0.9569
-8.0921 -7.1829 -2.0338 0.9569
-7.4368 -7.8593 -2.0337 0.9569
-5.9626 -9.0289 -2.0337 0.9569
-3.4288 -10.2625 -2.0338 0.9569
-2.5234 -10.5218 -2.0338 0.9569
-9.5211 1.3878 -2.0338 0.9614
-9.5564 -1.1180 -2.0338 0.9614
-9.4229 -1.9448 -2.0338 0.9614
-9.2180 -2.7569 -2.0338 0.9614
-8.6500 -0.2544 -2.0338 0.9651
-8.5950 -1.0056 -2.0338 0.9651
-8.4750 -1.7492 -2.0338 0.9651
-8.0438 -3.1911 -2.0338 0.9651
-7.7358 -3.8784 -2.0338 0.9651
-7.3692 -4.5365 -2.0338 0.9651
-6.9468 -5.1600 -2.0338 0.9651
-5.9477 -6.2856 -2.0338 0.9651
-5.3786 -6.7790 -2.0338 0.9651
-4.7687 -7.2210 -2.0338 0.9651
-4.1228 -7.6083 -2.0338 0.9651
-2.7422 -8.2076 -2.0338 0.9651
-7.8518 -0.2309 -2.0338 0.9681
-7.3014 -2.8966 -2.0338 0.9681
-6.6891 -4.1178 -2.0338 0.9681
-5.8745 -5.2145 -2.0338 0.9681
-3.7423 -6.9062 -2.0338 0.9681
-1.8319 -7.6384 -2.0338 0.9681
-7.1093 1.0362 -2.0339 0.9706
-7.1724 0.4141 -2.0338 0.9706
-7.1812 -0.2112 -2.0338 0.9706
-7.1356 -0.8349 -2.0338 0.9706
-7.0359 -1.4522 -2.0338 0.9706
-6.8830 -2.0585 -2.0338 0.9706
-6.6779 -2.6493 -2.0338 0.9706
-6.1180 -3.7662 -2.0338 0.9706
-5.7673 -4.2839 -2.0338 0.9706
-5.3729 -4.7692 -2.0338 0.9706
-4.9379 -5.2183 -2.0338 0.9706
-4.4654 -5.6279 -2.0338 0.9706
-6.5433 0.9537 -2.0339 0.9727
-6.6014 0.3811 -2.0338 0.9727
-6.6096 -0.1944 -2.0338 0.9727
-6.5676 -0.7684 -2.0338 0.9727
-6.4759 -1.3366 -2.0338 0.9727
-6.1464 -2.4384 -2.0338 0.9727
-5.9111 -2.9636 -2.0338 0.9727
-4.9452 -4.3895 -2.0338 0.9727
-4.5448 -4.8029 -2.0338 0.9727
-4.1099 -5.1799 -2.0338 0.9727
-3.6439 -5.5177 -2.0338 0.9727
-2.6328 -6.0656 -2.0338 0.9727
-6.0546 0.8825 -2.0339 0.9745
-6.0771 -0.7110 -2.0338 0.9745
-5.9922 -1.2368 -2.0338 0.9745
-5.8619 -1.7531 -2.0338 0.9745
-5.6873 -2.2562 -2.0338 0.9745
-5.4695 -2.7422 -2.0338 0.9745
-5.2104 -3.2075 -2.0338 0.9745
-4.9117 -3.6484 -2.0338 0.9745
-4.5759 -4.0617 -2.0338 0.9745
-4.2053 -4.4442 -2.0338 0.9745
-2.9150 -5.3795 -2.0338 0.9745
-2.4362 -5.6126 -2.0338 0.9745
-1.4270 -5.9498 -2.0338 0.9745
-5.6279 0.8203 -2.0339 0.9761
-5.6779 0.3278 -2.0339 0.9761
-5.6849 -0.1672 -2.0338 0.9761
-5.4488 -1.6296 -2.0338 0.9761
-5.2865 -2.0972 -2.0338 0.9761
-5.0841 -2.5490 -2.0338 0.9761
-4.8432 -2.9814 -2.0338 0.9761
-4.2534 -3.7755 -2.0338 0.9761
-3.5350 -4.4553 -2.0338 0.9761
-3.1341 -4.7458 -2.0338 0.9761
-2.7096 -5.0004 -2.0338 0.9761
-1.8023 -5.3942 -2.0338 0.9761
-1.3264 -5.5305 -2.0338 0.9761
-5.2518 0.7655 -2.0339 0.9775
-5.3050 -0.1560 -2.0339 0.9775
-5.2713 -0.6167 -2.0338 0.9775
-5.1977 -1.0728 -2.0338 0.9775
-5.0847 -1.5207 -2.0338 0.9775
-4.9332 -1.9571 -2.0338 0.9775
-4.5195 -2.7822 -2.0338 0.9775
-3.6477 -3.8550 -2.0338 0.9775
-3.2987 -4.1576 -2.0338 0.9775
-2.9247 -4.4287 -2.0338 0.9775
-2.5285 -4.6662 -2.0338 0.9775
-1.6818 -5.0338 -2.0338 0.9775
-1.2377 -5.1609 -2.0338 0.9775
-2.1122 0.3078 -0.8736 0.9908
-2.1216 0.1225 -0.8698 0.9909
-2.1227 -0.0625 -0.8692 0.9909
-2.1216 -0.4379 -0.8866 0.9907
-4.7610 -1.4239 -2.0338 0.9788
-3.9892 -2.9632 -2.0338 0.9788
-3.7165 -3.2989 -2.0338 0.9788
-3.4155 -3.6096 -2.0338 0.9788
-3.0887 -3.8929 -2.0338 0.9788
-2.7385 -4.1467 -2.0338 0.9788
-2.3675 -4.3691 -2.0338 0.9788
-1.9786 -4.5585 -2.0338 0.9788
-1.1589 -4.8324 -2.0338 0.9788
-1.9066 -0.2231 -0.8366 0.9917
-4.3379 -1.7209 -2.0338 0.9798
-4.1718 -2.0916 -2.0338 0.9798
-3.9741 -2.4464 -2.0338 0.9798
-3.7462 -2.7827 -2.0338 0.9798
-2.9006 -3.6558 -2.0338 0.9798
-2.5717 -3.8942 -2.0338 0.9798
-1.8581 -4.2809 -2.0338 0.9798
-1.0884 -4.5381 -2.0338 0.9798
-1.6106 0.2347 -0.7534 0.9929
-1.5826 -0.0466 -0.7329 0.9930
-1.5981 -0.3299 -0.7553 0.9928
-1.5398 -0.4605 -0.7439 0.9929
-4.0842 -1.6203 -2.0338 0.9808
-3.9279 -1.9693 -2.0338 0.9808
-3.7417 -2.3034 -2.0338 0.9808
-3.0200 -3.1915 -2.0338 0.9808
-1.7495 -4.0305 -2.0338 0.9808
-1.3923 -4.1674 -2.0338 0.9808
-1.0247 -4.2727 -2.0338 0.9808
-1.3505 0.0779 -0.6636 0.9940
-1.3446 -0.0396 -0.6598 0.9940
-1.3527 -0.1583 -0.6681 0.9940
-3.5309 -2.1736 -2.0338 0.9817
-3.3285 -2.4724 -2.0338 0.9817
-2.8498 -3.0117 -2.0338 0.9817
-2.5771 -3.2481 -2.0338 0.9817
-1.9754 -3.6455 -2.0338 0.9817
-1.6509 -3.8035 -2.0338 0.9817
-1.1950 0.1742 -0.6265 0.9946
-1.1994 -0.1404 -0.6265 0.9946
-1.1494 -0.3438 -0.6224 0.9946
-1.1221 -0.4452 -0.6263 0.9946
-3.3386 -2.0552 -2.0338 0.9825
-2.9320 -2.6025 -2.0338 0.9825
-2.6946 -2.8477 -2.0338 0.9825
-2.4368 -3.0712 -2.0338 0.9825
-2.1605 -3.2715 -2.0338 0.9825
-1.8678 -3.4469 -2.0338 0.9825
-1.5610 -3.5963 -2.0338 0.9825
-1.2423 -3.7184 -2.0338 0.9825
-0.9143 -3.8124 -2.0338 0.9825
-1.0728 0.1563 -0.5938 0.9951
-1.0581 -0.2184 -0.5918 0.9951
-1.0358 -0.3098 -0.5921 0.9951
-1.0141 -0.4023 -0.5975 0.9950
-3.1623 -1.9467 -2.0339 0.9832
-2.9810 -2.2143 -2.0338 0.9832
-2.7771 -2.4651 -2.0338 0.9832
-2.0464 -3.0987 -2.0338 0.9832
-1.4786 -3.4064 -2.0338 0.9832
-1.1767 -3.5221 -2.0339 0.9832
-0.8660 -3.6110 -2.0339 0.9832
-0.9835 0.1433 -0.5738 0.9954
-0.9866 -0.1155 -0.5735 0.9954
-0.9563 -0.2860 -0.5763 0.9954
-0.9389 -0.3725 -0.5832 0.9953
-0.9123 -0.4574 -0.5892 0.9953
-2.8279 -2.1006 -2.0339 0.9839
-2.6345 -2.3386 -2.0339 0.9839
-1.1163 -3.3412 -2.0339 0.9839
-0.8216 -3.4256 -2.0339 0.9839
