ply
format ascii 1.0
element vertex 193
property float32 x
property float32 y
property float32 z
property float32 I
end_header
-13.0726 -8.5063 -0.7910 0.9394
-12.2396 -7.9644 -1.0707 0.9431
-16.9858 2.1505 -2.0338 0.9334
-16.2872 -5.2768 -2.0337 0.9334
-15.7614 -6.6854 -2.0337 0.9334
-15.1139 -8.0425 -2.0337 0.9334
-13.4754 -10.5605 -2.0337 0.9334
-11.4220 -12.7533 -2.0337 0.9334
-7.7052 -15.2885 -2.0337 0.9334
-3.4564 -16.7680 -2.0337 0.9334
-14.3359 -0.7140 -2.0338 0.9437
-13.9902 -3.2089 -2.0337 0.9437
-13.2139 -5.6049 -2.0337 0.9437
-12.6711 -6.7426 -2.0337 0.9437
-12.0306 -7.8283 -2.0337 0.9437
-10.4770 -9.8107 -2.0337 0.9437
-9.5758 -10.6920 -2.0337 0.9437
-8.6008 -11.4909 -2.0337 0.9437
-7.5595 -12.2012 -2.0337 0.9437
-6.4598 -12.8174 -2.0337 0.9437
-12.2479 1.5506 -2.0338 0.9512
-12.3366 0.4701 -2.0338 0.9512
-12.3302 -0.6141 -2.0338 0.9512
-12.0329 -2.7599 -2.0338 0.9512
-11.3651 -4.8207 -2.0337 0.9512
-9.7168 -7.6149 -2.0337 0.9512
-8.2361 -9.1962 -2.0337 0.9512
-4.5674 -11.4692 -2.0337 0.9512
-3.5435 -11.8257 -2.0337 0.9512
-10.7347 1.3591 -2.0338 0.9569
-10.8070 -0.5382 -2.0338 0.9569
-10.5464 -2.4190 -2.0338 0.9569
-10.2935 -3.3349 -2.0338 0.9569
-9.9612 -4.2252 -2.0338 0.9569
-9.5520 -5.0828 -2.0338 0.9569
-7.8980 -7.3957 -2.0338 0.9569
-6.4837 -8.6624 -2.0337 0.9569
-5.6986 -9.1978 -2.0337 0.9569
-2.1845 -10.5974 -2.0338 0.9569
-9.6146 0.3663 -2.0338 0.9614
-9.6097 -0.4786 -2.0338 0.9614
-8.8576 -3.7571 -2.0338 0.9614
-8.0645 -5.2475 -2.0338 0.9614
-7.5729 -5.9348 -2.0338 0.9614
-7.0230 -6.5763 -2.0338 0.9614
-6.4189 -7.1671 -2.0338 0.9614
-5.7653 -7.7027 -2.0338 0.9614
-5.0673 -8.1788 -2.0338 0.9614
-4.3302 -8.5919 -2.0338 0.9614
-3.5597 -8.9387 -2.0338 0.9614
-1.9425 -9.4234 -2.0338 0.9614
-8.5852 1.0869 -2.0338 0.9651
-8.6475 0.3295 -2.0338 0.9651
-8.5718 -1.1871 -2.0338 0.9651
-8.2323 -2.6672 -2.0338 0.9651
-7.9666 -3.3792 -2.0338 0.9651
-7.2532 -4.7196 -2.0338 0.9651
-6.3166 -5.9148 -2.0338 0.9651
-5.7732 -6.4462 -2.0338 0.9651
-4.5576 -7.3561 -2.0338 0.9651
-3.8946 -7.7276 -2.0338 0.9651
-2.4839 -8.2894 -2.0338 0.9651
-1.7470 -8.4754 -2.0338 0.9651
-7.7929 0.9866 -2.0338 0.9681
-7.7808 -1.0776 -2.0338 0.9681
-7.6562 -1.7561 -2.0338 0.9681
-7.4726 -2.4211 -2.0338 0.9681
-6.9343 -3.6899 -2.0338 0.9681
-6.5838 -4.2841 -2.0338 0.9681
-6.1826 -4.8452 -2.0338 0.9681
-5.7337 -5.3690 -2.0338 0.9681
-5.2405 -5.8513 -2.0338 0.9681
-4.1370 -6.6773 -2.0338 0.9681
-3.5352 -7.0145 -2.0338 0.9681
-2.9061 -7.2976 -2.0338 0.9681
-7.1791 0.2736 -2.0338 0.9706
-7.1754 -0.3574 -2.0338 0.9706
-7.1164 -0.9856 -2.0338 0.9706
-7.0025 -1.6061 -2.0338 0.9706
-6.3422 -3.3748 -2.0338 0.9706
-6.0216 -3.9183 -2.0338 0.9706
-5.2440 -4.9105 -2.0338 0.9706
-4.3050 -5.7515 -2.0338 0.9706
-3.7838 -6.1071 -2.0338 0.9706
-3.2333 -6.4155 -2.0338 0.9706
-2.0621 -6.8820 -2.0338 0.9706
-6.5601 0.8305 -2.0339 0.9727
-6.6077 0.2518 -2.0338 0.9727
-6.5499 -0.9071 -2.0338 0.9727
-6.0874 -2.5821 -2.0338 0.9727
-5.8374 -3.1062 -2.0338 0.9727
-5.2045 -4.0787 -2.0338 0.9727
-4.8266 -4.5196 -2.0338 0.9727
-2.9760 -5.9048 -2.0338 0.9727
-1.8980 -6.3341 -2.0338 0.9727
-6.0701 0.7685 -2.0339 0.9745
-5.8207 -1.8858 -2.0338 0.9745
-5.1284 -3.3370 -2.0338 0.9745
-4.8158 -3.7741 -2.0338 0.9745
-1.7562 -5.8610 -2.0338 0.9745
-5.6424 0.7143 -2.0339 0.9761
-5.6832 0.2165 -2.0339 0.9761
-5.5434 -1.2715 -2.0338 0.9761
-5.2358 -2.2209 -2.0338 0.9761
-5.0207 -2.6717 -2.0338 0.9761
-4.4764 -3.5081 -2.0338 0.9761
-4.1514 -3.8874 -2.0338 0.9761
-3.7943 -4.2366 -2.0338 0.9761
-3.4080 -4.5531 -2.0338 0.9761
-1.1482 -5.5702 -2.0338 0.9761
-5.3034 0.2021 -2.0339 0.9775
-5.3007 -0.2640 -2.0339 0.9775
-4.1773 -3.2737 -2.0338 0.9775
-3.1802 -4.2489 -2.0338 0.9775
-2.7952 -4.5115 -2.0338 0.9775
-2.3886 -4.7394 -2.0338 0.9775
-1.9636 -4.9307 -2.0338 0.9775
-1.0715 -5.1980 -2.0338 0.9775
-2.1066 0.2667 -0.8691 0.9909
-4.3870 -2.3344 -2.0338 0.9788
-4.1652 -2.7103 -2.0338 0.9788
-3.6273 -3.3966 -2.0338 0.9788
-3.3154 -3.7018 -2.0338 0.9788
-2.9778 -3.9784 -2.0338 0.9788
-2.6172 -4.2243 -2.0338 0.9788
-2.2366 -4.4376 -2.0338 0.9788
-1.4264 -4.7603 -2.0338 0.9788
-1.0032 -4.8671 -2.0338 0.9788
-1.9038 0.2410 -0.8363 0.9917
-1.9187 0.0731 -0.8368 0.9917
-1.9015 -0.4362 -0.8502 0.9915
-4.4395 -1.4384 -2.0338 0.9798
-4.2962 -1.8223 -2.0338 0.9798
-3.4065 -3.1898 -2.0338 0.9798
-3.1134 -3.4763 -2.0338 0.9798
-2.7964 -3.7361 -2.0338 0.9798
-2.1003 -4.1674 -2.0338 0.9798
-1.6102 0.2038 -0.7513 0.9929
-1.5870 0.0604 -0.7351 0.9930
-1.5924 -0.0793 -0.7380 0.9930
-1.6209 -0.5252 -0.7887 0.9925
-4.0450 -1.7158 -2.0338 0.9808
-3.8789 -2.0640 -2.0338 0.9808
-3.6828 -2.3964 -2.0338 0.9808
-3.4583 -2.7103 -2.0338 0.9808
-2.9314 -3.2730 -2.0338 0.9808
-2.6329 -3.5176 -2.0338 0.9808
-2.3141 -3.7351 -2.0338 0.9808
-1.9775 -3.9237 -2.0338 0.9808
-1.6256 -4.0821 -2.0338 0.9808
-1.2612 -4.2090 -2.0338 0.9808
-1.3467 0.0513 -0.6611 0.9940
-3.8171 -1.6191 -2.0338 0.9817
-3.6603 -1.9478 -2.0338 0.9817
-3.2635 -2.5575 -2.0338 0.9817
-2.7662 -3.0887 -2.0338 0.9817
-1.8661 -3.7026 -2.0338 0.9817
-1.5341 -3.8521 -2.0338 0.9817
-0.8371 -4.0609 -2.0338 0.9817
-1.1986 0.1517 -0.6268 0.9946
-1.1977 0.0456 -0.6218 0.9946
-1.1720 -0.2688 -0.6238 0.9946
-1.1407 -0.3696 -0.6221 0.9946
-3.2860 -2.1382 -2.0338 0.9825
-2.8617 -2.6797 -2.0338 0.9825
-2.6155 -2.9204 -2.0338 0.9825
-2.3493 -3.1387 -2.0338 0.9825
-1.7645 -3.5010 -2.0338 0.9825
-1.4505 -3.6423 -2.0338 0.9825
-1.0760 0.1362 -0.5940 0.9951
-1.0804 0.0411 -0.5922 0.9951
-1.0813 -0.0539 -0.5930 0.9951
-1.0741 -0.1488 -0.5939 0.9951
-1.0315 -0.3342 -0.5939 0.9951
-3.2782 -1.7444 -2.0339 0.9832
-3.1125 -2.0253 -2.0339 0.9832
-2.9228 -2.2906 -2.0338 0.9832
-2.4774 -2.7662 -2.0338 0.9832
-2.2252 -2.9729 -2.0338 0.9832
-1.9557 -3.1567 -2.0338 0.9832
-1.6712 -3.3161 -2.0338 0.9832
-0.7497 -3.6370 -2.0339 0.9832
-0.9900 0.0377 -0.5720 0.9954
-0.9844 -0.1364 -0.5737 0.9954
-0.9688 -0.2222 -0.5739 0.9954
-0.9324 -0.3955 -0.5848 0.9953
-0.9038 -0.4810 -0.5911 0.9953
-2.7727 -2.1729 -2.0339 0.9839
-2.5713 -2.4078 -2.0339 0.9839
-1.8554 -2.9946 -2.0339 0.9839
-1.3034 -3.2728 -2.0339 0.9839
-1.0112 -3.3745 -2.0339 0.9839
-0.7112 -3.4502 -2.0339 0.9839
