ply
format ascii 1.0
element vertex 185
property float32 x
property float32 y
property float32 z
property float32 I
end_header
2.6275 -6.1540 -0.6424 0.9735
17.7155 -3.3133 -1.7303 0.9301
0.7925 -17.1025 -2.0337 0.9334
2.3146 -16.9638 -2.0337 0.9334
3.8184 -16.6898 -2.0337 0.9334
8.1007 -15.0840 -2.0338 0.9334
9.4138 -14.3016 -2.0338 0.9334
12.8644 -11.2996 -2.0339 0.9334
13.8210 -10.1073 -2.0339 0.9334
14.6676 -8.8345 -2.0339 0.9334
15.3972 -7.4911 -2.0339 0.9334
16.0041 -6.0881 -2.0340 0.9334
-0.6170 -14.3402 -2.0337 0.9437
1.9405 -14.2219 -2.0338 0.9437
2.0012 -6.1578 -0.9174 0.9742
2.5406 -5.9505 -0.9168 0.9742
9.8970 -10.3971 -2.0339 0.9437
10.7849 -9.4731 -2.0339 0.9437
12.2966 -7.4064 -2.0339 0.9437
12.9083 -6.2802 -2.0339 0.9437
13.4170 -5.1040 -2.0340 0.9437
13.8189 -3.8870 -2.0340 0.9437
1.6690 -12.2321 -2.0338 0.9512
3.1862 -5.9329 -1.1094 0.9731
6.7879 -10.3123 -2.0338 0.9512
7.6807 -9.6659 -2.0339 0.9512
8.5122 -8.9424 -2.0339 0.9512
9.2759 -8.1477 -2.0339 0.9512
11.1022 -5.4015 -2.0339 0.9512
11.5397 -4.3898 -2.0340 0.9512
12.1363 -2.2698 -2.0340 0.9512
1.4629 -10.7210 -2.0338 0.9569
1.9168 -5.8980 -1.1657 0.9751
2.5077 -5.8734 -1.2004 0.9743
5.9494 -9.0383 -2.0339 0.9569
6.7318 -8.4717 -2.0339 0.9569
7.4606 -7.8376 -2.0339 0.9569
8.1299 -7.1411 -2.0339 0.9569
8.7345 -6.3875 -2.0339 0.9569
10.4169 -2.9301 -2.0340 0.9569
-0.4136 -9.6127 -2.0338 0.9614
0.4454 -9.6112 -2.0338 0.9614
1.3008 -9.5332 -2.0338 0.9614
1.4431 -6.3076 -1.3677 0.9739
2.4736 -5.7934 -1.3315 0.9746
5.9860 -7.5331 -2.0339 0.9614
6.6341 -6.9693 -2.0339 0.9614
7.2292 -6.3499 -2.0339 0.9614
8.2425 -4.9645 -2.0339 0.9614
8.6524 -4.2096 -2.0339 0.9614
8.9934 -3.4212 -2.0339 0.9614
9.4583 -1.7690 -2.0340 0.9614
-0.3720 -8.6457 -2.0338 0.9651
1.1699 -8.5743 -2.0338 0.9651
1.3977 -6.1092 -1.4729 0.9746
1.8818 -5.7905 -1.4310 0.9753
2.4876 -5.8263 -1.4889 0.9743
2.9777 -5.5446 -1.4791 0.9745
4.7580 -7.2285 -2.0339 0.9651
5.9666 -6.2682 -2.0339 0.9651
6.9854 -5.1085 -2.0339 0.9651
7.4132 -4.4651 -2.0339 0.9651
7.7820 -3.7862 -2.0339 0.9651
8.0887 -3.0770 -2.0339 0.9651
8.5068 -1.5910 -2.0340 0.9651
-0.3377 -7.8478 -2.0338 0.9681
1.3864 -6.0598 -1.6095 0.9746
1.8856 -5.8021 -1.5796 0.9751
3.1272 -5.8231 -1.7114 0.9731
5.4160 -5.6897 -2.0339 0.9681
5.9020 -5.1840 -2.0339 0.9681
6.3408 -4.6370 -2.0339 0.9681
7.3423 -2.7931 -2.0339 0.9681
7.7217 -1.4442 -2.0340 0.9681
-0.3088 -7.1776 -2.0338 0.9706
0.3325 -7.1766 -2.0338 0.9706
1.4246 -6.2270 -1.8084 0.9738
2.8211 -6.6073 -2.0339 0.9706
3.9501 -6.0011 -2.0339 0.9706
4.4696 -5.6249 -2.0339 0.9706
4.9535 -5.2038 -2.0339 0.9706
6.1545 -3.7069 -2.0339 0.9706
6.4605 -3.1433 -2.0339 0.9706
6.7152 -2.5545 -2.0339 0.9706
-0.2843 -6.6063 -2.0338 0.9727
0.3061 -6.6053 -2.0338 0.9727
1.4747 -6.4459 -2.0338 0.9727
4.1138 -5.1771 -2.0339 0.9727
4.5592 -4.7896 -2.0339 0.9727
4.9682 -4.3639 -2.0339 0.9727
5.3376 -3.9034 -2.0339 0.9727
5.9463 -2.8930 -2.0339 0.9727
6.1807 -2.3512 -2.0339 0.9727
6.3657 -1.7906 -2.0339 0.9727
-0.2630 -6.1129 -2.0338 0.9745
0.8272 -6.0624 -2.0338 0.9745
2.4026 -5.6272 -2.0339 0.9745
3.3641 -5.1108 -2.0339 0.9745
3.8066 -4.7904 -2.0339 0.9745
4.2187 -4.4319 -2.0339 0.9745
5.2414 -3.1570 -2.0339 0.9745
5.5021 -2.6769 -2.0339 0.9745
6.0146 -1.1249 -2.0339 0.9745
-0.2445 -5.6821 -2.0338 0.9761
0.7689 -5.6352 -2.0338 0.9761
1.7579 -5.4089 -2.0339 0.9761
2.2333 -5.2306 -2.0339 0.9761
3.5383 -4.4529 -2.0339 0.9761
4.5909 -3.3573 -2.0339 0.9761
4.8721 -2.9345 -2.0339 0.9761
5.1144 -2.4883 -2.0339 0.9761
5.3160 -2.0222 -2.0339 0.9761
-0.2282 -5.3024 -2.0338 0.9775
0.2457 -5.3016 -2.0338 0.9775
0.7175 -5.2586 -2.0338 0.9775
2.9180 -4.4332 -2.0339 0.9775
3.3018 -4.1552 -2.0339 0.9775
3.6593 -3.8442 -2.0339 0.9775
4.7726 -2.3220 -2.0339 0.9775
5.1093 -1.4371 -2.0339 0.9775
5.2171 -0.9757 -2.0339 0.9775
1.9513 -4.5703 -2.0339 0.9788
2.3512 -4.3781 -2.0339 0.9788
2.7323 -4.1509 -2.0339 0.9788
3.4263 -3.5995 -2.0339 0.9788
4.0113 -2.9335 -2.0339 0.9788
4.2570 -2.5641 -2.0339 0.9788
4.4687 -2.1742 -2.0339 0.9788
-0.2006 -4.6625 -2.0338 0.9798
0.6309 -4.6239 -2.0339 0.9798
1.8325 -4.2920 -2.0339 0.9798
2.5659 -3.8981 -2.0339 0.9798
2.9033 -3.6538 -2.0339 0.9798
3.2177 -3.3803 -2.0339 0.9798
3.9978 -2.4079 -2.0339 0.9798
4.1966 -2.0418 -2.0339 0.9798
4.3620 -1.6594 -2.0339 0.9798
4.5874 -0.8580 -2.0339 0.9798
0.2033 -4.3892 -2.0339 0.9808
0.9800 -4.2832 -2.0339 0.9808
1.7254 -4.0410 -2.0339 0.9808
2.0789 -3.8711 -2.0339 0.9808
2.4158 -3.6702 -2.0339 0.9808
2.7335 -3.4401 -2.0339 0.9808
3.7640 -2.2671 -2.0339 0.9808
3.9512 -1.9224 -2.0339 0.9808
4.1069 -1.5623 -2.0339 0.9808
4.3192 -0.8078 -2.0339 0.9808
-0.1782 -4.1425 -2.0339 0.9817
0.9247 -4.0419 -2.0339 0.9817
1.6281 -3.8133 -2.0339 0.9817
1.9617 -3.6529 -2.0339 0.9817
2.5795 -3.2463 -2.0339 0.9817
2.8588 -3.0033 -2.0339 0.9817
3.1153 -2.7363 -2.0339 0.9817
3.3470 -2.4476 -2.0339 0.9817
3.5519 -2.1394 -2.0339 0.9817
3.8755 -1.4743 -2.0339 0.9817
-0.1685 -3.9169 -2.0339 0.9825
0.8744 -3.8218 -2.0339 0.9825
1.2117 -3.7286 -2.0339 0.9825
1.8549 -3.4539 -2.0339 0.9825
2.1555 -3.2747 -2.0339 0.9825
2.4391 -3.0695 -2.0339 0.9825
3.1646 -2.3143 -2.0339 0.9825
3.5254 -1.7152 -2.0339 0.9825
-0.1596 -3.7100 -2.0339 0.9832
0.5020 -3.6794 -2.0339 0.9832
1.7569 -3.2715 -2.0339 0.9832
2.7901 -2.4507 -2.0339 0.9832
3.1811 -1.9160 -2.0339 0.9832
3.3393 -1.6246 -2.0339 0.9832
3.4709 -1.3203 -2.0339 0.9832
1.8672 -0.5252 -1.0624 0.9912
1.8546 -0.3469 -1.0334 0.9914
-0.1514 -3.5195 -2.0339 0.9839
0.1630 -3.5190 -2.0339 0.9839
0.7857 -3.4340 -2.0339 0.9839
1.9369 -2.9426 -2.0339 0.9839
2.1916 -2.7581 -2.0339 0.9839
2.6468 -2.3248 -2.0339 0.9839
2.8436 -2.0795 -2.0339 0.9839
1.7172 -0.6532 -1.0607 0.9916
1.7114 -0.4814 -1.0264 0.9918
1.7137 -0.3205 -1.0066 0.9920
