ply
format ascii 1.0
element vertex 186
property float32 x
property float32 y
property float32 z
property float32 I
end_header
-10.9066 13.8621 2.2969 0.9313
2.4488 17.3957 1.4871 0.9319
-4.3038 19.3744 1.2307 0.9235
4.2053 18.0038 -0.1041 0.9287
2.6513 18.8341 -0.5356 0.9267
-1.6574 7.4610 -0.7338 0.9698
11.8855 12.3280 -2.0341 0.9333
10.7346 13.3422 -2.0341 0.9333
6.8052 15.7141 -2.0341 0.9333
2.3871 16.9570 -2.0341 0.9333
-0.6739 17.1107 -2.0341 0.9333
-0.9788 7.5467 -0.9040 0.9698
-1.6479 7.4184 -0.9027 0.9699
-5.1943 16.3167 -2.0340 0.9333
-6.6336 15.7863 -2.0340 0.9333
-8.0196 15.1291 -2.0340 0.9334
-10.5879 13.4569 -2.0340 0.9334
4.5033 13.6314 -2.0341 0.9437
3.2654 13.9797 -2.0341 0.9437
2.0012 14.2157 -2.0341 0.9437
-0.5650 14.3446 -2.0341 0.9437
-1.6128 7.2602 -1.0538 0.9704
-5.5612 13.2344 -2.0340 0.9437
-6.7232 12.6835 -2.0340 0.9437
-7.8312 12.0308 -2.0340 0.9437
-8.8764 11.2817 -2.0340 0.9437
6.8480 10.2742 -2.0341 0.9512
4.9068 11.3304 -2.0341 0.9512
3.8731 11.7240 -2.0341 0.9512
2.8084 12.0235 -2.0341 0.9512
-0.4859 12.3374 -2.0340 0.9512
-5.7825 10.9088 -2.0340 0.9512
-7.6344 9.7031 -2.0339 0.9512
7.5110 7.7906 -2.0341 0.9569
6.7837 8.4315 -2.0341 0.9569
5.1719 9.5057 -2.0341 0.9569
0.5435 10.8079 -2.0340 0.9569
-0.3091 7.8461 -1.4759 0.9685
-2.2790 7.1589 -1.4121 0.9699
-5.0681 9.5610 -2.0340 0.9569
5.3369 8.0070 -2.0340 0.9614
4.5989 8.4525 -2.0340 0.9614
3.8241 8.8302 -2.0340 0.9614
3.0185 9.1369 -2.0340 0.9614
2.1887 9.3704 -2.0340 0.9614
0.4832 9.6104 -2.0340 0.9614
-0.3069 7.7911 -1.6482 0.9686
-0.9375 7.2280 -1.5407 0.9706
-1.6168 7.2781 -1.5759 0.9700
-3.7277 8.8710 -2.0340 0.9614
-5.2493 8.0643 -2.0339 0.9614
-5.9499 7.5621 -2.0339 0.9614
5.4252 6.7430 -2.0340 0.9651
4.8000 7.2015 -2.0340 0.9651
4.1363 7.6021 -2.0340 0.9651
3.4393 7.9418 -2.0340 0.9651
2.7148 8.2177 -2.0340 0.9651
1.9685 8.4277 -2.0340 0.9651
-0.3407 8.6477 -2.0340 0.9651
-0.9392 7.2409 -1.7160 0.9704
-1.6642 7.4917 -1.8036 0.9690
-2.3286 7.3148 -1.8042 0.9689
-3.3527 7.9785 -2.0340 0.9651
-4.0532 7.6464 -2.0340 0.9651
-5.3513 6.8013 -2.0339 0.9651
4.3570 6.5369 -2.0340 0.9681
3.7545 6.9005 -2.0340 0.9681
3.1219 7.2088 -2.0340 0.9681
2.4643 7.4593 -2.0340 0.9681
1.7868 7.6499 -2.0340 0.9681
1.0951 7.7791 -2.0340 0.9681
0.3945 7.8458 -2.0340 0.9681
-1.7036 7.6687 -2.0340 0.9681
-2.3830 7.4855 -2.0340 0.9681
-3.6791 6.9408 -2.0339 0.9681
4.9868 5.1725 -2.0340 0.9706
3.4338 6.3112 -2.0340 0.9706
2.2538 6.8222 -2.0340 0.9706
1.6342 6.9966 -2.0340 0.9706
1.0016 7.1147 -2.0340 0.9706
4.5898 4.7607 -2.0340 0.9727
3.1605 5.8088 -2.0340 0.9727
0.3321 6.6045 -2.0340 0.9727
-1.4340 6.4554 -2.0340 0.9727
-2.0060 6.3012 -2.0340 0.9727
-3.6075 5.5420 -2.0339 0.9727
-4.0889 5.1969 -2.0339 0.9727
3.8357 4.7675 -2.0340 0.9745
3.3937 5.0916 -2.0340 0.9745
2.9244 5.3749 -2.0340 0.9745
0.8529 6.0592 -2.0340 0.9745
-0.2408 6.1142 -2.0340 0.9745
-0.7870 6.0681 -2.0340 0.9745
-1.3269 5.9733 -2.0340 0.9745
-1.8561 5.8305 -2.0339 0.9745
-2.3704 5.6410 -2.0339 0.9745
-3.3380 5.1281 -2.0339 0.9745
3.9477 4.0946 -2.0340 0.9761
3.5654 4.4315 -2.0340 0.9761
2.7184 4.9961 -2.0340 0.9761
1.7841 5.4007 -2.0340 0.9761
1.2937 5.5386 -2.0340 0.9761
0.2856 5.6805 -2.0340 0.9761
-0.2239 5.6833 -2.0340 0.9761
-0.7315 5.6404 -2.0340 0.9761
-1.2334 5.5523 -2.0340 0.9761
-1.7254 5.4196 -2.0339 0.9761
-2.2034 5.2435 -2.0339 0.9761
-3.1028 4.7667 -2.0339 0.9761
3.3271 4.1353 -2.0340 0.9775
2.5366 4.6622 -2.0340 0.9775
2.1093 4.8705 -2.0340 0.9775
0.7398 5.2558 -2.0340 0.9775
-0.2089 5.3035 -2.0340 0.9775
-0.6827 5.2635 -2.0340 0.9775
-1.6100 5.0574 -2.0339 0.9775
3.4493 3.5777 -2.0340 0.9787
1.5589 4.7188 -2.0340 0.9787
1.1304 4.8394 -2.0340 0.9787
0.6927 4.9211 -2.0340 0.9787
0.2496 4.9634 -2.0340 0.9787
-0.1956 4.9658 -2.0340 0.9788
-0.6392 4.9284 -2.0340 0.9788
-1.0777 4.8514 -2.0339 0.9788
-1.9252 4.5815 -2.0339 0.9788
-2.3275 4.3908 -2.0339 0.9788
2.9256 3.6363 -2.0340 0.9798
2.5884 3.8834 -2.0340 0.9798
2.2305 4.0995 -2.0340 0.9798
1.4639 4.4314 -2.0340 0.9798
1.0616 4.5447 -2.0340 0.9798
0.6505 4.6214 -2.0340 0.9798
-0.1837 4.6633 -2.0340 0.9798
-0.6003 4.6282 -2.0339 0.9798
-1.0120 4.5559 -2.0339 0.9798
-1.8079 4.3025 -2.0339 0.9798
-2.5460 3.9113 -2.0339 0.9798
-2.8857 3.6677 -2.0339 0.9798
2.7545 3.4236 -2.0340 0.9808
2.1001 3.8598 -2.0340 0.9808
1.3784 4.1723 -2.0340 0.9808
0.9995 4.2789 -2.0340 0.9808
0.6125 4.3512 -2.0340 0.9808
0.2207 4.3885 -2.0340 0.9808
-0.5652 4.3576 -2.0339 0.9808
-1.3329 4.1870 -2.0339 0.9808
-2.0579 3.8823 -2.0339 0.9808
-2.3971 3.6826 -2.0339 0.9808
-2.7170 3.4532 -2.0339 0.9808
2.5993 3.2307 -2.0340 0.9817
1.3007 3.9372 -2.0340 0.9817
0.5780 4.1060 -2.0340 0.9817
0.2082 4.1412 -2.0339 0.9817
-0.5333 4.1120 -2.0339 0.9817
-0.8992 4.0478 -2.0339 0.9817
-1.6063 3.8226 -2.0339 0.9817
-2.2620 3.4751 -2.0339 0.9817
-2.5639 3.2587 -2.0339 0.9817
2.1745 3.2624 -2.0340 0.9825
1.5581 3.5978 -2.0340 0.9825
1.2299 3.7227 -2.0340 0.9825
0.8918 3.8179 -2.0340 0.9825
0.5465 3.8823 -2.0339 0.9825
-2.1388 3.2858 -2.0339 0.9825
2.5775 2.6735 -2.0340 0.9832
2.3279 2.8934 -2.0340 0.9832
1.4758 3.4078 -2.0340 0.9832
1.1649 3.5262 -2.0339 0.9832
0.8446 3.6163 -2.0339 0.9832
0.5176 3.6773 -2.0339 0.9832
-0.1462 3.7107 -2.0339 0.9832
-0.4777 3.6827 -2.0339 0.9832
-0.8053 3.6252 -2.0339 0.9832
-1.1265 3.5386 -2.0339 0.9832
-1.4386 3.4236 -2.0339 0.9832
-2.2962 2.9185 -2.0339 0.9832
2.4451 2.5362 -2.0339 0.9839
1.9539 2.9314 -2.0340 0.9839
1.4000 3.2328 -2.0339 0.9839
1.1051 3.3451 -2.0339 0.9839
0.4911 3.4885 -2.0339 0.9839
0.1769 3.5184 -2.0339 0.9839
-0.7639 3.4390 -2.0339 0.9839
-1.0686 3.3568 -2.0339 0.9839
-1.6499 3.1126 -2.0339 0.9839
-2.1784 2.7686 -2.0339 0.9839
