ply
format ascii 1.0
element vertex 173
property float32 x
property float32 y
property float32 z
property float32 I
end_header
17.4984 -3.4225 -0.9042 0.9311
14.5218 8.7745 -1.6289 0.9341
13.2712 9.7907 -1.5833 0.9359
17.0361 -1.7277 -2.0340 0.9333
17.1230 -0.1538 -2.0340 0.9333
15.4087 7.4706 -2.0341 0.9333
14.6565 8.8559 -2.0341 0.9333
13.7802 10.1661 -2.0341 0.9333
12.7870 11.3903 -2.0341 0.9333
6.3944 15.8857 -2.0341 0.9333
14.0884 -2.7555 -2.0340 0.9437
14.1360 2.5021 -2.0340 0.9437
12.2871 7.4243 -2.0341 0.9437
11.5525 8.5227 -2.0341 0.9437
10.7198 9.5489 -2.0341 0.9437
9.7964 10.4942 -2.0341 0.9437
7.7089 12.1107 -2.0341 0.9437
12.1171 -2.3700 -2.0340 0.9512
12.3464 -0.1109 -2.0340 0.9512
11.9086 3.2608 -2.0340 0.9512
11.5584 4.3421 -2.0340 0.9512
10.5678 6.3854 -2.0341 0.9512
9.9359 7.3301 -2.0341 0.9512
8.4255 9.0257 -2.0341 0.9512
7.5599 9.7623 -2.0341 0.9512
4.6106 11.4541 -2.0341 0.9512
10.7661 -1.0918 -2.0340 0.9569
10.7841 0.8982 -2.0340 0.9569
10.6559 1.8861 -2.0340 0.9569
9.7375 4.7210 -2.0340 0.9569
9.2621 5.5964 -2.0340 0.9569
7.3845 7.9106 -2.0341 0.9569
5.8110 9.1291 -2.0341 0.9569
4.9469 9.6248 -2.0341 0.9569
4.0410 10.0388 -2.0340 0.9569
9.4434 -1.8470 -2.0340 0.9614
9.5733 -0.9708 -2.0340 0.9614
9.6220 -0.0864 -2.0340 0.9614
9.5893 0.7987 -2.0340 0.9614
9.4752 1.6771 -2.0340 0.9614
9.2809 2.5413 -2.0340 0.9614
8.6586 4.1980 -2.0340 0.9614
8.2359 4.9764 -2.0340 0.9614
7.7434 5.7126 -2.0340 0.9614
5.1672 8.1176 -2.0340 0.9614
8.6102 -0.8731 -2.0340 0.9651
8.6245 0.7184 -2.0340 0.9651
8.5220 1.5084 -2.0340 0.9651
8.3472 2.2857 -2.0340 0.9651
6.9644 5.1379 -2.0340 0.9651
6.4625 5.7565 -2.0340 0.9651
5.9057 6.3264 -2.0340 0.9651
5.2990 6.8427 -2.0340 0.9651
4.6473 7.3009 -2.0340 0.9651
3.9562 7.6973 -2.0340 0.9651
3.2317 8.0285 -2.0340 0.9651
7.8286 0.6521 -2.0340 0.9681
7.7355 1.3692 -2.0340 0.9681
7.5768 2.0747 -2.0340 0.9681
7.0688 3.4271 -2.0340 0.9681
4.8100 6.2112 -2.0340 0.9681
2.9334 7.2876 -2.0340 0.9681
7.0511 -1.3791 -2.0339 0.9706
7.1845 -0.0646 -2.0340 0.9706
7.1600 0.5964 -2.0340 0.9706
6.7259 2.5267 -2.0340 0.9706
6.4651 3.1345 -2.0340 0.9706
6.1495 3.7157 -2.0340 0.9706
5.7818 4.2654 -2.0340 0.9706
4.3992 5.6807 -2.0340 0.9706
3.8581 6.0612 -2.0340 0.9706
2.6829 6.6652 -2.0340 0.9706
6.4898 -1.2693 -2.0339 0.9727
6.5791 -0.6672 -2.0339 0.9727
6.5900 0.5489 -2.0340 0.9727
6.1905 2.3255 -2.0340 0.9727
5.3214 3.9258 -2.0340 0.9727
4.0489 5.2285 -2.0340 0.9727
3.5510 5.5786 -2.0340 0.9727
3.0230 5.8815 -2.0340 0.9727
2.4694 6.1346 -2.0340 0.9727
6.0252 1.0665 -2.0340 0.9745
5.9017 1.6160 -2.0340 0.9745
5.7281 2.1519 -2.0340 0.9745
4.9240 3.6326 -2.0340 0.9745
4.5691 4.0700 -2.0340 0.9745
2.7972 5.4422 -2.0340 0.9745
2.2849 5.6764 -2.0340 0.9745
5.5819 -1.0918 -2.0339 0.9761
5.6875 -0.0511 -2.0339 0.9761
5.4858 1.5021 -2.0340 0.9761
5.3244 2.0002 -2.0340 0.9761
4.8681 2.9414 -2.0340 0.9761
4.5770 3.3766 -2.0340 0.9761
3.8812 4.1577 -2.0340 0.9761
3.4825 4.4970 -2.0340 0.9761
2.6000 5.0587 -2.0340 0.9761
2.1239 5.2763 -2.0340 0.9761
5.2089 -1.0188 -2.0339 0.9775
5.2805 -0.5355 -2.0339 0.9775
5.3074 -0.0477 -2.0339 0.9775
5.2893 0.4406 -2.0340 0.9775
5.2263 0.9250 -2.0340 0.9775
5.1191 1.4017 -2.0340 0.9775
3.6218 3.8798 -2.0340 0.9775
2.4263 4.7206 -2.0340 0.9775
4.8772 -0.9539 -2.0339 0.9788
4.9695 -0.0447 -2.0339 0.9787
4.9525 0.4125 -2.0339 0.9788
4.8936 0.8661 -2.0340 0.9787
4.4718 2.1680 -2.0340 0.9787
3.9992 2.9503 -2.0340 0.9787
3.0429 3.9293 -2.0340 0.9787
2.6686 4.1924 -2.0340 0.9787
2.2718 4.4200 -2.0340 0.9787
1.8557 4.6102 -2.0340 0.9787
4.5802 -0.8958 -2.0339 0.9798
4.6509 0.3874 -2.0339 0.9798
4.5956 0.8134 -2.0339 0.9798
4.3689 1.6412 -2.0340 0.9798
4.1995 2.0360 -2.0340 0.9798
3.7556 2.7707 -2.0340 0.9798
3.1847 3.4116 -2.0340 0.9798
2.5061 3.9371 -2.0340 0.9798
4.3123 -0.8435 -2.0339 0.9808
4.3939 -0.0395 -2.0339 0.9808
4.3268 0.7658 -2.0339 0.9808
4.2381 1.1605 -2.0339 0.9808
4.1134 1.5453 -2.0340 0.9808
3.7609 2.2724 -2.0340 0.9808
3.2811 2.9227 -2.0340 0.9808
2.9985 3.2120 -2.0340 0.9808
2.6904 3.4742 -2.0340 0.9808
2.3596 3.7068 -2.0340 0.9808
2.0087 3.9081 -2.0340 0.9808
4.0693 -0.7959 -2.0339 0.9817
4.1253 -0.4184 -2.0339 0.9817
4.1321 0.3442 -2.0339 0.9817
3.7311 1.8089 -2.0340 0.9817
3.0962 2.7580 -2.0340 0.9817
1.8955 3.6879 -2.0340 0.9817
1.5483 3.8466 -2.0340 0.9817
2.1056 -0.4119 -1.1131 0.9904
2.0765 -0.2106 -1.0828 0.9906
2.0722 -0.0186 -1.0751 0.9907
2.0756 0.1729 -1.0805 0.9907
2.1035 0.3723 -1.1082 0.9904
3.7814 1.0354 -2.0339 0.9825
3.6702 1.3787 -2.0339 0.9825
3.3557 2.0276 -2.0340 0.9825
3.1550 2.3276 -2.0340 0.9825
2.6754 2.8660 -2.0340 0.9825
2.1053 3.3074 -2.0340 0.9825
1.7923 3.4870 -2.0340 0.9825
1.8509 -0.0166 -1.0138 0.9916
1.8511 0.1542 -1.0173 0.9916
3.4764 1.3059 -2.0339 0.9832
2.5341 2.7146 -2.0340 0.9832
2.2738 2.9361 -2.0340 0.9832
1.9941 3.1328 -2.0340 0.9832
1.6976 3.3029 -2.0340 0.9832
1.3867 3.4450 -2.0340 0.9832
1.7246 -0.0155 -0.9958 0.9921
1.7219 0.1434 -0.9976 0.9921
1.7186 0.6456 -1.0599 0.9916
3.1700 1.5369 -2.0339 0.9839
3.0152 1.8219 -2.0339 0.9839
2.8349 2.0914 -2.0339 0.9839
2.6306 2.3433 -2.0339 0.9839
2.4040 2.5752 -2.0339 0.9839
2.1570 2.7854 -2.0340 0.9839
1.8917 2.9719 -2.0340 0.9839
1.6104 3.1333 -2.0339 0.9839
