ply
format ascii 1.0
element vertex 183
property float32 x
property float32 y
property float32 z
property float32 I
end_header
14.4614 -9.1679 -2.0339 0.9334
15.8385 -6.5067 -2.0340 0.9334
16.3473 -5.0959 -2.0340 0.9334
16.7305 -3.6460 -2.0340 0.9334
16.9856 -2.1682 -2.0340 0.9333
17.1104 -0.6737 -2.0340 0.9333
16.9660 2.3195 -2.0341 0.9333
16.3021 5.2417 -2.0341 0.9333
14.3806 9.2973 -2.0341 0.9333
12.1238 -7.6860 -2.0339 0.9437
13.2782 -5.4548 -2.0340 0.9437
13.7047 -4.2722 -2.0340 0.9437
14.0260 -3.0567 -2.0340 0.9437
14.2398 -1.8177 -2.0340 0.9437
14.3389 0.6926 -2.0340 0.9437
13.9987 3.1816 -2.0341 0.9437
12.6916 6.7096 -2.0341 0.9437
12.0558 7.7943 -2.0341 0.9437
11.3276 8.8193 -2.0341 0.9437
9.8090 -7.4975 -2.0339 0.9512
10.4275 -6.6106 -2.0339 0.9512
11.4204 -4.6916 -2.0339 0.9512
12.2474 -1.5634 -2.0340 0.9512
12.3372 -0.4857 -2.0340 0.9512
12.3325 0.5956 -2.0340 0.9512
12.2332 1.6724 -2.0340 0.9512
11.3787 4.7934 -2.0341 0.9512
10.3689 6.7037 -2.0341 0.9512
7.9891 -7.2982 -2.0339 0.9569
8.5971 -6.5712 -2.0339 0.9569
9.1392 -5.7938 -2.0339 0.9569
9.6111 -4.9720 -2.0339 0.9569
10.0094 -4.1120 -2.0339 0.9569
10.7217 1.4658 -2.0340 0.9569
9.5669 5.0577 -2.0340 0.9569
8.5388 6.6481 -2.0340 0.9569
7.9244 7.3697 -2.0341 0.9569
7.6446 -5.8432 -2.0339 0.9614
8.1266 -5.1520 -2.0339 0.9614
8.5463 -4.4211 -2.0339 0.9614
9.6150 -0.3785 -2.0340 0.9614
9.6113 0.4642 -2.0340 0.9614
9.3832 2.1326 -2.0340 0.9614
9.1607 2.9454 -2.0340 0.9614
8.5070 4.4973 -2.0340 0.9614
7.5927 5.9114 -2.0340 0.9614
7.0463 6.5532 -2.0340 0.9614
7.3091 -4.6337 -2.0339 0.9651
7.6865 -3.9764 -2.0339 0.9651
8.4559 -1.8428 -2.0340 0.9651
8.5846 -1.0958 -2.0340 0.9651
8.6477 -0.3404 -2.0340 0.9651
8.6443 0.4175 -2.0340 0.9651
8.4393 1.9181 -2.0340 0.9651
8.2391 2.6491 -2.0340 0.9651
7.2679 4.6988 -2.0340 0.9651
6.8288 5.3167 -2.0340 0.9651
5.7997 -5.2982 -2.0339 0.9681
6.6345 -4.2060 -2.0339 0.9681
7.4996 -2.3379 -2.0339 0.9681
7.8496 -0.3091 -2.0340 0.9681
7.7833 1.0641 -2.0340 0.9681
7.4786 2.4046 -2.0340 0.9681
7.2396 3.0498 -2.0340 0.9681
6.1987 4.8260 -2.0340 0.9681
5.7526 5.3499 -2.0340 0.9681
5.3044 -4.8457 -2.0339 0.9706
6.3813 -3.3012 -2.0339 0.9706
7.1269 -0.9097 -2.0340 0.9706
7.1792 -0.2827 -2.0340 0.9706
7.1764 0.3466 -2.0340 0.9706
7.1186 0.9732 -2.0340 0.9706
7.0062 1.5924 -2.0340 0.9706
6.8400 2.1993 -2.0340 0.9706
6.0337 3.9009 -2.0340 0.9706
5.2613 4.8930 -2.0340 0.9706
4.8821 -4.4600 -2.0339 0.9727
5.2537 -4.0157 -2.0339 0.9727
5.5849 -3.5406 -2.0339 0.9727
6.3131 -1.9680 -2.0339 0.9727
6.4611 -1.4081 -2.0339 0.9727
6.5596 -0.8373 -2.0339 0.9727
6.6077 -0.2602 -2.0340 0.9727
6.6051 0.3190 -2.0340 0.9727
6.4484 1.4656 -2.0340 0.9727
4.8425 4.5035 -2.0340 0.9727
4.8612 -3.7158 -2.0339 0.9745
5.4346 -2.8114 -2.0339 0.9745
5.6598 -2.3251 -2.0339 0.9745
5.9786 -1.3029 -2.0339 0.9745
6.0696 -0.7748 -2.0339 0.9745
6.1142 -0.2407 -2.0340 0.9745
6.0625 0.8288 -2.0340 0.9745
5.9668 1.3561 -2.0340 0.9745
5.8253 1.8730 -2.0340 0.9745
5.1386 3.3222 -2.0340 0.9745
4.4807 4.1671 -2.0340 0.9745
4.5187 -3.4539 -2.0339 0.9761
4.8036 -3.0453 -2.0339 0.9761
5.0517 -2.6133 -2.0339 0.9761
5.6419 -0.7202 -2.0339 0.9761
5.6833 -0.2238 -2.0339 0.9761
5.6811 0.2744 -2.0340 0.9761
5.6353 0.7704 -2.0340 0.9761
5.2416 2.2081 -2.0340 0.9761
4.7764 3.0880 -2.0340 0.9761
4.1650 3.8734 -2.0340 0.9761
3.9185 -3.5797 -2.0339 0.9775
4.4826 -2.8418 -2.0339 0.9775
4.7141 -2.4387 -2.0339 0.9775
4.9094 -2.0168 -2.0339 0.9775
5.0670 -1.5796 -2.0339 0.9775
5.1858 -1.1301 -2.0339 0.9775
5.2648 -0.6721 -2.0339 0.9775
5.0529 1.6246 -2.0340 0.9775
4.8913 2.0605 -2.0340 0.9775
4.4572 2.8816 -2.0340 0.9775
3.8866 3.6146 -2.0340 0.9775
3.6690 -3.3518 -2.0339 0.9788
3.9482 -3.0179 -2.0339 0.9788
4.4139 -2.2834 -2.0339 0.9788
4.5968 -1.8884 -2.0339 0.9788
4.9639 0.2397 -2.0339 0.9787
4.9238 0.6731 -2.0340 0.9788
4.7311 1.5212 -2.0340 0.9787
4.3935 2.3227 -2.0340 0.9787
3.9416 -2.4987 -2.0339 0.9798
4.1451 -2.1444 -2.0339 0.9798
4.3169 -1.7734 -2.0339 0.9798
4.5600 -0.9937 -2.0339 0.9798
4.6294 -0.5910 -2.0339 0.9798
4.6634 -0.1836 -2.0339 0.9798
4.6239 0.6321 -2.0339 0.9798
4.5509 1.0343 -2.0340 0.9798
4.4430 1.4285 -2.0340 0.9798
3.9193 2.5339 -2.0340 0.9798
3.6825 2.8671 -2.0340 0.9798
3.2441 -2.9636 -2.0339 0.9808
3.4910 -2.6684 -2.0339 0.9808
4.0645 -1.6697 -2.0339 0.9808
4.3587 -0.5564 -2.0339 0.9808
4.3907 -0.1729 -2.0339 0.9808
4.2848 0.9738 -2.0339 0.9808
4.1832 1.3450 -2.0340 0.9808
4.0494 1.7058 -2.0340 0.9808
3.6901 2.3857 -2.0340 0.9808
3.2943 -2.5180 -2.0339 0.9817
3.6829 -1.9052 -2.0339 0.9817
3.8354 -1.5756 -2.0339 0.9817
3.9586 -1.2340 -2.0339 0.9817
4.1131 -0.5251 -2.0339 0.9817
4.1417 0.2000 -2.0339 0.9817
4.1083 0.5616 -2.0339 0.9817
3.8212 1.6098 -2.0340 0.9817
3.2718 2.5473 -2.0340 0.9817
3.0364 2.8238 -2.0340 0.9817
3.1149 -2.3809 -2.0339 0.9825
3.3112 -2.0992 -2.0339 0.9825
3.7430 -1.1668 -2.0339 0.9825
2.0892 -0.2667 -1.0926 0.9906
2.0773 -0.0818 -1.0785 0.9907
2.0780 0.1004 -1.0793 0.9907
2.0928 0.2861 -1.0958 0.9905
2.1323 0.4846 -1.1344 0.9902
3.7325 1.2001 -2.0339 0.9825
3.0936 2.4086 -2.0340 0.9825
3.1364 -1.9883 -2.0339 0.9832
3.4350 -1.4111 -2.0339 0.9832
1.8445 -0.2355 -1.0184 0.9916
1.8869 0.6067 -1.0856 0.9910
3.2830 1.7356 -2.0339 0.9832
3.1186 2.0162 -2.0339 0.9832
2.9302 2.2814 -2.0340 0.9832
2.7989 -2.1393 -2.0339 0.9839
3.1289 -1.6187 -2.0339 0.9839
1.7578 -0.7221 -1.0972 0.9913
1.7198 -0.5361 -1.0401 0.9917
1.7239 -0.0679 -0.9961 0.9921
1.7138 0.2343 -0.9987 0.9920
1.7149 0.3897 -1.0153 0.9919
2.9584 1.9127 -2.0339 0.9839
2.7797 2.1642 -2.0339 0.9839
2.5797 2.3991 -2.0339 0.9839
