ply
format ascii 1.0
element vertex 188
property float32 x
property float32 y
property float32 z
property float32 I
end_header
-12.4046 -8.1254 -0.7520 0.9423
-16.2054 5.3641 -1.2516 0.9338
-12.0150 -7.8702 -1.0531 0.9440
-16.0723 5.3201 -1.6254 0.9342
-16.2544 5.3804 -2.0338 0.9334
-16.6718 3.8984 -2.0338 0.9334
-17.1000 0.8521 -2.0338 0.9334
-16.9762 -2.2216 -2.0337 0.9334
-16.7079 -3.7376 -2.0337 0.9334
-16.3045 -5.2234 -2.0337 0.9334
-15.7693 -6.6670 -2.0337 0.9334
-13.4209 -10.6297 -2.0337 0.9334
-11.3021 -12.8596 -2.0337 0.9334
-8.8185 -14.6745 -2.0337 0.9334
-7.4646 -15.4074 -2.0337 0.9334
-6.0503 -16.0157 -2.0337 0.9334
-13.1668 5.7166 -2.0339 0.9437
-13.9770 3.2682 -2.0338 0.9437
-14.3421 -0.5764 -2.0338 0.9437
-13.2205 -5.5894 -2.0337 0.9437
-12.6648 -6.7544 -2.0337 0.9437
-12.0068 -7.8648 -2.0337 0.9437
-11.2517 -8.9116 -2.0337 0.9437
-10.4055 -9.8863 -2.0337 0.9437
-9.4754 -10.7811 -2.0337 0.9437
-8.4685 -11.5888 -2.0337 0.9437
-5.0724 -13.4271 -2.0337 0.9437
-11.7205 3.8796 -2.0338 0.9512
-12.0214 2.8110 -2.0338 0.9512
-12.2253 1.7196 -2.0338 0.9512
-12.3303 0.6144 -2.0338 0.9512
-12.3355 -0.4957 -2.0338 0.9512
-12.0476 -2.6951 -2.0338 0.9512
-11.3708 -4.8074 -2.0337 0.9512
-10.3270 -6.7645 -2.0337 0.9512
-8.1497 -9.2729 -2.0337 0.9512
-7.2837 -9.9675 -2.0337 0.9512
-6.3589 -10.5815 -2.0337 0.9512
-9.9255 4.3094 -2.0339 0.9569
-10.5363 2.4637 -2.0338 0.9569
-10.7150 1.5072 -2.0338 0.9569
-10.8070 0.5385 -2.0338 0.9569
-9.9661 -4.2135 -2.0338 0.9569
-9.0512 -5.9288 -2.0338 0.9569
-7.8442 -7.4528 -2.0337 0.9569
-6.3839 -8.7361 -2.0337 0.9569
-4.7176 -9.7375 -2.0338 0.9569
-3.8238 -10.1219 -2.0338 0.9569
-9.3690 2.1907 -2.0338 0.9614
-9.5279 1.3402 -2.0338 0.9614
-9.5402 -1.2485 -2.0338 0.9614
-9.3894 -2.1004 -2.0338 0.9614
-9.1628 -2.9354 -2.0338 0.9614
-8.0485 -5.2720 -2.0338 0.9614
-6.9751 -6.6271 -2.0338 0.9614
-6.3516 -7.2269 -2.0338 0.9614
-5.6767 -7.7683 -2.0338 0.9614
-7.9380 3.4465 -2.0339 0.9651
-8.2155 2.7194 -2.0339 0.9651
-8.5694 1.2054 -2.0338 0.9651
-8.6430 0.4307 -2.0338 0.9651
-7.6356 -4.0722 -2.0338 0.9651
-7.2389 -4.7417 -2.0338 0.9651
-6.7836 -5.3728 -2.0338 0.9651
-6.2735 -5.9605 -2.0338 0.9651
-5.7127 -6.4999 -2.0338 0.9651
-3.7730 -7.7877 -2.0338 0.9651
-7.2054 3.1284 -2.0339 0.9681
-7.8454 0.3909 -2.0338 0.9681
-7.7886 -1.0193 -2.0338 0.9681
-7.6656 -1.7148 -2.0338 0.9681
-7.4805 -2.3965 -2.0338 0.9681
-7.2350 -3.0588 -2.0338 0.9681
-5.6946 -5.4104 -2.0338 0.9681
-3.4248 -7.0690 -2.0338 0.9681
-2.7759 -7.3481 -2.0338 0.9681
-6.5901 2.8612 -2.0339 0.9706
-6.8205 2.2577 -2.0339 0.9706
-7.1143 1.0007 -2.0339 0.9706
-7.1754 0.3575 -2.0338 0.9706
-7.0110 -1.5684 -2.0338 0.9706
-6.6171 -2.7976 -2.0338 0.9706
-6.3391 -3.3808 -2.0338 0.9706
-6.0098 -3.9366 -2.0338 0.9706
-5.6318 -4.4605 -2.0338 0.9706
-4.7427 -5.3963 -2.0338 0.9706
-4.2388 -5.8005 -2.0338 0.9706
-3.1324 -6.4654 -2.0338 0.9706
-2.5389 -6.7206 -2.0338 0.9706
-6.2775 2.0779 -2.0339 0.9727
-6.4388 1.5056 -2.0339 0.9727
-6.0904 -2.5749 -2.0338 0.9727
-5.5313 -3.6232 -2.0338 0.9727
-5.1835 -4.1054 -2.0338 0.9727
-4.7937 -4.5545 -2.0338 0.9727
-4.3651 -4.9667 -2.0338 0.9727
-3.9013 -5.3388 -2.0338 0.9727
-2.8830 -5.9507 -2.0338 0.9727
-2.3368 -6.1857 -2.0338 0.9727
-5.8087 1.9227 -2.0339 0.9745
-6.0589 0.8522 -2.0339 0.9745
-6.1136 -0.2457 -2.0338 0.9745
-6.0668 -0.7939 -2.0338 0.9745
-5.3987 -2.8792 -2.0338 0.9745
-5.1182 -3.3526 -2.0338 0.9745
-4.7963 -3.7988 -2.0338 0.9745
-3.6100 -4.9400 -2.0338 0.9745
-3.1516 -5.2444 -2.0338 0.9745
-2.6677 -5.5063 -2.0338 0.9745
-5.4162 -1.7352 -2.0338 0.9761
-5.0182 -2.6763 -2.0338 0.9761
-4.7575 -3.1163 -2.0338 0.9761
-4.4584 -3.5311 -2.0338 0.9761
-4.1231 -3.9174 -2.0338 0.9761
-3.7545 -4.2719 -2.0338 0.9761
-3.3556 -4.5919 -2.0338 0.9761
-2.9295 -4.8748 -2.0338 0.9761
-2.4797 -5.1183 -2.0338 0.9761
-4.6829 -2.4975 -2.0338 0.9775
-3.8476 -3.6556 -2.0338 0.9775
-3.1313 -4.2851 -2.0338 0.9775
-2.7337 -4.5490 -2.0338 0.9775
-2.3140 -4.7762 -2.0338 0.9775
-4.5584 1.9791 -2.0339 0.9788
-2.1189 0.4954 -0.8906 0.9906
-2.1108 0.2969 -0.8724 0.9908
-4.7324 -1.5161 -2.0338 0.9788
-4.3848 -2.3385 -2.0338 0.9788
-3.8955 -3.0854 -2.0338 0.9788
-1.9008 0.4444 -0.8508 0.9915
-1.9029 0.2676 -0.8375 0.9917
-1.9186 -0.0771 -0.8368 0.9917
-1.9023 -0.4256 -0.8495 0.9915
-4.2983 -1.8173 -2.0338 0.9798
-4.1177 -2.1961 -2.0338 0.9798
-3.9038 -2.5571 -2.0338 0.9798
-3.6583 -2.8975 -2.0338 0.9798
-3.3832 -3.2144 -2.0338 0.9798
-3.0808 -3.5053 -2.0338 0.9798
-2.7534 -3.7679 -2.0338 0.9798
-2.4038 -4.0000 -2.0338 0.9798
-4.0304 1.7499 -2.0339 0.9808
-1.6442 0.5442 -0.8017 0.9924
-1.5848 0.3705 -0.7534 0.9929
-1.5924 0.0793 -0.7380 0.9930
-1.6101 -0.5158 -0.7826 0.9926
-3.8770 -2.0677 -2.0338 0.9808
-3.4443 -2.7280 -2.0338 0.9808
-3.1854 -3.0264 -2.0338 0.9808
-2.2632 -3.7662 -2.0338 0.9808
-1.5528 -4.1103 -2.0338 0.9808
-3.8033 1.6513 -2.0339 0.9817
-1.2811 0.4240 -0.6619 0.9940
-1.3491 0.0672 -0.6626 0.9940
-1.3472 -0.0542 -0.6614 0.9940
-1.3270 -0.2969 -0.6670 0.9940
-3.8189 -1.6146 -2.0338 0.9817
-3.2503 -2.5743 -2.0338 0.9817
-3.0059 -2.8559 -2.0338 0.9817
-2.7372 -3.1144 -2.0338 0.9817
-2.4463 -3.3477 -2.0338 0.9817
-1.8078 -3.7314 -2.0338 0.9817
-1.4653 -3.8788 -2.0338 0.9817
-1.1096 0.4817 -0.6275 0.9946
-1.1709 0.2738 -0.6238 0.9946
-3.4593 -1.8449 -2.0339 0.9825
-2.8422 -2.7004 -2.0338 0.9825
-2.3131 -3.1654 -2.0338 0.9825
-2.0194 -3.3604 -2.0338 0.9825
-1.0302 0.3410 -0.5943 0.9951
-1.0737 0.1510 -0.5939 0.9951
-1.0806 -0.0435 -0.5923 0.9951
-1.0753 -0.1408 -0.5940 0.9951
-1.0528 -0.2355 -0.5909 0.9951
-1.0322 -0.3307 -0.5936 0.9951
-1.0062 -0.4254 -0.5983 0.9950
-3.1063 -2.0347 -2.0339 0.9832
-2.6921 -2.5578 -2.0338 0.9832
-2.4514 -2.7893 -2.0338 0.9832
-2.1909 -2.9982 -2.0338 0.9832
-1.6191 -3.3419 -2.0338 0.9832
-1.3123 -3.4738 -2.0339 0.9832
-0.9516 0.3150 -0.5788 0.9954
-0.9677 0.2262 -0.5738 0.9954
-0.9900 0.0493 -0.5723 0.9954
-0.9852 -0.1290 -0.5737 0.9954
-2.9468 -1.9303 -2.0339 0.9839
-2.3255 -2.6461 -2.0339 0.9839
