ply
format ascii 1.0
element vertex 175
property float32 x
property float32 y
property float32 z
property float32 I
end_header
2.7582 -6.1438 -0.6465 0.9733
-5.1136 -16.3391 -2.0337 0.9334
-3.6134 -16.7350 -2.0337 0.9334
-0.5364 -17.1123 -2.0337 0.9334
1.0152 -17.0907 -2.0337 0.9334
4.0805 -16.6277 -2.0337 0.9334
10.9509 -13.1620 -2.0338 0.9334
12.0977 -12.1167 -2.0339 0.9334
14.9085 -8.4216 -2.0339 0.9334
15.6098 -7.0373 -2.0340 0.9334
16.1831 -5.5952 -2.0340 0.9334
-4.2871 -13.6982 -2.0337 0.9437
0.8511 -14.3283 -2.0337 0.9437
2.1449 -14.1925 -2.0338 0.9437
2.6531 -5.9097 -0.9179 0.9742
7.0403 -12.5090 -2.0338 0.9437
8.1440 -11.8204 -2.0338 0.9437
9.1808 -11.0345 -2.0339 0.9437
11.0203 -9.1982 -2.0339 0.9437
13.0866 -5.8998 -2.0339 0.9437
-3.6873 -11.7817 -2.0337 0.9512
-2.6055 -12.0672 -2.0337 0.9512
-1.5023 -12.2536 -2.0338 0.9512
1.8448 -12.2069 -2.0338 0.9512
1.5737 -6.4126 -1.0877 0.9736
2.0559 -5.9766 -1.0412 0.9747
2.6340 -5.8671 -1.0595 0.9743
6.0553 -10.7588 -2.0338 0.9512
7.0045 -10.1665 -2.0338 0.9512
7.8962 -9.4907 -2.0339 0.9512
11.2555 -5.0743 -2.0339 0.9512
11.6687 -4.0345 -2.0340 0.9512
-3.2318 -10.3263 -2.0338 0.9569
1.6169 -10.6988 -2.0338 0.9569
6.9207 -8.3181 -2.0339 0.9569
8.3074 -6.9338 -2.0339 0.9569
8.9011 -6.1533 -2.0339 0.9569
9.8649 -4.4474 -2.0339 0.9569
10.2271 -3.5360 -2.0339 0.9569
-0.3014 -9.6168 -2.0338 0.9614
1.4377 -9.5135 -2.0338 0.9614
1.5186 -6.1884 -1.3469 0.9743
2.5822 -5.7518 -1.3327 0.9746
5.4590 -7.9233 -2.0339 0.9614
6.1539 -7.3966 -2.0339 0.9614
6.7984 -6.8091 -2.0339 0.9614
7.9149 -5.4715 -2.0339 0.9614
8.3778 -4.7325 -2.0339 0.9614
9.0940 -3.1443 -2.0339 0.9614
-1.8263 -8.4587 -2.0338 0.9651
-1.0530 -8.5893 -2.0338 0.9651
-0.2711 -8.6494 -2.0338 0.9651
1.4864 -6.0570 -1.4658 0.9747
3.1729 -5.6376 -1.5204 0.9738
4.9098 -7.1263 -2.0339 0.9651
5.5349 -6.6525 -2.0339 0.9651
6.1145 -6.1241 -2.0339 0.9651
6.6439 -5.5454 -2.0339 0.9651
7.1187 -4.9211 -2.0339 0.9651
7.8895 -3.5568 -2.0339 0.9651
0.4658 -7.8413 -2.0338 0.9681
2.0083 -5.8383 -1.5986 0.9748
5.0241 -6.0386 -2.0339 0.9681
5.5502 -5.5589 -2.0339 0.9681
7.1614 -3.2285 -2.0339 0.9681
-2.1458 -6.8563 -2.0338 0.9706
-1.5163 -7.0224 -2.0338 0.9706
-0.2250 -7.1808 -2.0338 0.9706
1.0736 -7.1037 -2.0338 0.9706
1.4789 -6.0262 -1.7566 0.9745
2.7263 -6.0727 -1.8844 0.9727
4.0762 -5.9162 -2.0339 0.9706
5.0763 -5.0842 -2.0339 0.9706
5.5157 -4.6038 -2.0339 0.9706
5.9099 -4.0855 -2.0339 0.9706
6.2555 -3.5337 -2.0339 0.9706
6.5498 -2.9528 -2.0339 0.9706
6.7903 -2.3477 -2.0339 0.9706
-1.9750 -6.3105 -2.0338 0.9727
-0.8046 -6.5632 -2.0338 0.9727
0.3921 -6.6008 -2.0338 0.9727
0.9881 -6.5382 -2.0338 0.9727
1.5760 -6.4219 -2.0338 0.9727
2.0459 -5.9475 -1.9345 0.9740
2.7082 -6.0325 -2.0339 0.9727
3.2432 -5.7625 -2.0339 0.9727
5.0766 -4.2373 -2.0339 0.9727
5.4394 -3.7603 -2.0339 0.9727
-1.8275 -5.8392 -2.0338 0.9745
-1.2913 -5.9807 -2.0338 0.9745
-0.7445 -6.0731 -2.0338 0.9745
1.9902 -5.7859 -2.0339 0.9745
3.4714 -5.0386 -2.0339 0.9745
4.6974 -3.9208 -2.0339 0.9745
5.7829 -1.9994 -2.0339 0.9745
-1.2003 -5.5592 -2.0338 0.9761
0.8498 -5.6235 -2.0338 0.9761
1.8500 -5.3781 -2.0339 0.9761
2.7895 -4.9564 -2.0339 0.9761
4.3664 -3.6445 -2.0339 0.9761
-0.6459 -5.2678 -2.0338 0.9775
-0.1662 -5.3047 -2.0338 0.9775
0.3147 -5.2979 -2.0338 0.9775
0.7930 -5.2477 -2.0338 0.9775
1.2648 -5.1544 -2.0339 0.9775
2.1736 -4.8418 -2.0339 0.9775
4.8385 -2.1813 -2.0339 0.9775
-1.4843 -4.7426 -2.0338 0.9788
-1.0488 -4.8575 -2.0338 0.9788
1.6164 -4.6992 -2.0339 0.9788
2.0353 -4.5336 -2.0339 0.9788
2.4374 -4.3307 -2.0339 0.9788
2.8195 -4.0922 -2.0339 0.9788
3.1784 -3.8202 -2.0339 0.9788
3.5112 -3.5167 -2.0339 0.9788
3.8152 -3.1844 -2.0339 0.9788
4.0879 -2.8259 -2.0339 0.9788
-0.1462 -4.6645 -2.0338 0.9798
0.2767 -4.6586 -2.0339 0.9798
0.6973 -4.6144 -2.0339 0.9798
1.9113 -4.2574 -2.0339 0.9798
2.2889 -4.0669 -2.0339 0.9798
2.6478 -3.8430 -2.0339 0.9798
2.9848 -3.5875 -2.0339 0.9798
3.2973 -3.3026 -2.0339 0.9798
4.0634 -2.2954 -2.0339 0.9798
4.2546 -1.9181 -2.0339 0.9798
-0.9273 -4.2949 -2.0338 0.9808
-0.5347 -4.3612 -2.0338 0.9808
-0.1377 -4.3917 -2.0339 0.9808
1.0472 -4.2673 -2.0339 0.9808
1.7996 -4.0085 -2.0339 0.9808
2.1551 -3.8291 -2.0339 0.9808
3.3733 -2.8156 -2.0339 0.9808
3.6145 -2.4986 -2.0339 0.9808
3.8258 -2.1612 -2.0339 0.9808
4.0057 -1.8059 -2.0339 0.9808
-0.5046 -4.1155 -2.0338 0.9817
-0.1299 -4.1443 -2.0339 0.9817
1.6982 -3.7826 -2.0339 0.9817
2.0337 -3.6133 -2.0339 0.9817
2.3525 -3.4144 -2.0339 0.9817
2.6520 -3.1874 -2.0339 0.9817
3.1833 -2.6570 -2.0339 0.9817
3.4107 -2.3579 -2.0339 0.9817
3.9188 -1.3549 -2.0339 0.9817
-0.1228 -3.9186 -2.0339 0.9825
0.2324 -3.9136 -2.0339 0.9825
0.5859 -3.8765 -2.0339 0.9825
0.9344 -3.8075 -2.0339 0.9825
1.6057 -3.5766 -2.0339 0.9825
2.5075 -3.0138 -2.0339 0.9825
2.7701 -2.7744 -2.0339 0.9825
3.0099 -2.5122 -2.0339 0.9825
3.2250 -2.2294 -2.0339 0.9825
3.5742 -1.6113 -2.0339 0.9825
3.7054 -1.2811 -2.0339 0.9825
-1.1091 -3.5439 -2.0339 0.9832
0.8850 -3.6064 -2.0339 0.9832
1.5209 -3.3877 -2.0339 0.9832
1.8214 -3.2361 -2.0339 0.9832
2.1068 -3.0580 -2.0339 0.9832
-1.0522 -3.3620 -2.0339 0.9839
-0.4287 -3.4966 -2.0339 0.9839
-0.1104 -3.5210 -2.0339 0.9839
0.2089 -3.5166 -2.0339 0.9839
0.5264 -3.4832 -2.0339 0.9839
0.8396 -3.4212 -2.0339 0.9839
1.9987 -2.9009 -2.0339 0.9839
2.2531 -2.7081 -2.0339 0.9839
2.4891 -2.4930 -2.0339 0.9839
2.7045 -2.2574 -2.0339 0.9839
3.0673 -1.7327 -2.0339 0.9839
1.7802 -0.8026 -1.1274 0.9910
1.7265 -0.5970 -1.0547 0.9916
