ply
format ascii 1.0
element vertex 176
property float32 x
property float32 y
property float32 z
property float32 I
end_header
-11.1547 13.1998 2.2505 0.9327
-11.8608 11.7537 2.1744 0.9349
-11.1185 13.1569 1.8497 0.9330
-11.6040 13.7314 1.5219 0.9304
-12.1263 12.0167 1.4452 0.9338
-12.8832 12.7667 1.1247 0.9299
-16.1814 5.7112 -1.2582 0.9335
-16.0162 5.6529 -1.6306 0.9340
-11.0520 13.0784 -2.0340 0.9334
-12.1623 12.0525 -2.0339 0.9334
-13.1778 10.9327 -2.0339 0.9334
-16.1457 5.6985 -2.0338 0.9334
-17.0740 1.2719 -2.0338 0.9334
-17.0315 -1.7479 -2.0337 0.9334
-9.2655 10.9643 -2.0339 0.9437
-10.1963 10.1042 -2.0339 0.9437
-12.4861 7.0816 -2.0339 0.9437
-13.0618 5.9527 -2.0339 0.9437
-13.5359 4.7774 -2.0338 0.9437
-14.1645 2.3247 -2.0338 0.9437
-14.3142 1.0663 -2.0338 0.9437
-14.3523 -0.2003 -2.0338 0.9437
-14.0937 -2.7190 -2.0337 0.9437
-12.8898 -6.3145 -2.0337 0.9437
-12.2826 -7.4267 -2.0337 0.9437
-8.7697 8.6904 -2.0339 0.9512
-10.1601 7.0143 -2.0339 0.9512
-10.7390 6.0908 -2.0339 0.9512
-11.2343 5.1198 -2.0339 0.9512
-11.6420 4.1090 -2.0338 0.9512
-12.2809 -1.2604 -2.0338 0.9512
-11.0864 -5.4310 -2.0337 0.9512
-8.9049 6.1477 -2.0339 0.9569
-9.4123 5.3383 -2.0339 0.9569
-10.2037 3.6014 -2.0339 0.9569
-10.4815 2.6873 -2.0338 0.9569
-10.8193 -0.1510 -2.0338 0.9569
-8.3695 4.7469 -2.0339 0.9614
-9.0732 3.2024 -2.0339 0.9614
-9.4947 1.5583 -2.0338 0.9614
-9.5950 0.7148 -2.0338 0.9614
-9.6207 -0.1343 -2.0338 0.9614
-9.5713 -0.9823 -2.0338 0.9614
-8.9800 -3.4542 -2.0338 0.9614
-8.6404 -4.2328 -2.0338 0.9614
-8.2334 -4.9783 -2.0338 0.9614
-6.1471 6.0915 -2.0339 0.9651
-6.6604 5.5256 -2.0339 0.9651
-8.1605 2.8802 -2.0339 0.9651
-8.3827 2.1492 -2.0339 0.9651
-8.6298 0.6429 -2.0338 0.9651
-8.6084 -0.8835 -2.0338 0.9651
-8.4970 -1.6393 -2.0338 0.9651
-8.3193 -2.3823 -2.0338 0.9651
-8.0767 -3.1068 -2.0338 0.9651
-7.7712 -3.8070 -2.0338 0.9651
-7.4051 -4.4775 -2.0338 0.9651
-6.0457 5.0157 -2.0339 0.9681
-6.4645 4.4629 -2.0339 0.9681
-7.1480 3.2576 -2.0339 0.9681
-7.7514 1.2722 -2.0338 0.9681
-7.8543 -0.1096 -2.0338 0.9681
-7.7129 -1.4880 -2.0338 0.9681
-7.0541 -3.4557 -2.0338 0.9681
-6.7218 -4.0643 -2.0338 0.9681
-4.6373 5.4876 -2.0339 0.9706
-5.1033 5.0572 -2.0339 0.9706
-5.5294 4.5873 -2.0339 0.9706
-5.9124 4.0818 -2.0339 0.9706
-6.2494 3.5444 -2.0339 0.9706
-6.5376 2.9794 -2.0339 0.9706
-6.7749 2.3911 -2.0339 0.9706
-7.0895 1.1635 -2.0339 0.9706
-7.1645 0.5337 -2.0338 0.9706
-7.1468 -0.7335 -2.0338 0.9706
-6.7053 -2.5792 -2.0338 0.9706
-6.1478 -3.7173 -2.0338 0.9706
-4.2682 5.0507 -2.0339 0.9727
-6.5252 1.0709 -2.0339 0.9727
-6.6118 -0.0923 -2.0338 0.9727
-6.5779 -0.6751 -2.0338 0.9727
-6.1715 -2.3739 -2.0338 0.9727
-5.9380 -2.9090 -2.0338 0.9727
-4.3462 4.3069 -2.0339 0.9745
-5.3223 3.0186 -2.0339 0.9745
-5.5677 2.5374 -2.0339 0.9745
-6.0378 0.9909 -2.0339 0.9745
-6.0865 -0.6247 -2.0338 0.9745
-5.8821 -1.6844 -2.0338 0.9745
-5.7106 -2.1966 -2.0338 0.9745
-4.9472 2.8058 -2.0339 0.9761
-5.1754 2.3586 -2.0339 0.9761
-5.5093 1.4125 -2.0339 0.9761
-5.6716 0.4225 -2.0339 0.9761
-5.6868 -0.0794 -2.0339 0.9761
-5.6576 -0.5806 -2.0338 0.9761
-5.4676 -1.5657 -2.0338 0.9761
-4.8668 -2.9428 -2.0338 0.9761
-4.3677 3.0153 -2.0339 0.9775
-4.8295 2.2009 -2.0339 0.9775
-5.2926 0.3943 -2.0339 0.9775
-5.3068 -0.0741 -2.0339 0.9775
-5.2112 -1.0054 -2.0338 0.9775
-5.1022 -1.4611 -2.0338 0.9775
-4.9534 -1.9054 -2.0338 0.9775
-4.7661 -2.3348 -2.0338 0.9775
-4.5415 -2.7461 -2.0338 0.9775
-3.2076 3.7957 -2.0339 0.9788
-3.5299 3.4980 -2.0339 0.9788
-4.3227 2.4516 -2.0339 0.9788
-4.5220 2.0608 -2.0339 0.9788
-4.6861 1.6540 -2.0339 0.9788
-2.1166 0.3473 -0.8779 0.9908
-2.1196 0.1579 -0.8699 0.9909
-2.1222 -0.0296 -0.8686 0.9909
-2.1137 -0.2170 -0.8696 0.9909
-2.1212 -0.4093 -0.8842 0.9907
-4.4627 -2.1862 -2.0338 0.9788
-4.2525 -2.5713 -2.0338 0.9788
-3.0123 3.5646 -2.0339 0.9798
-3.5917 2.9798 -2.0339 0.9798
-4.2466 1.9353 -2.0339 0.9798
-4.4007 1.5532 -2.0339 0.9798
-1.9101 -0.1961 -0.8368 0.9917
-4.3556 -1.6754 -2.0338 0.9798
-3.9934 -2.4147 -2.0338 0.9798
-2.8361 3.3561 -2.0339 0.9808
-3.1211 3.0929 -2.0339 0.9808
-3.3817 2.8055 -2.0339 0.9808
-3.6160 2.4963 -2.0339 0.9808
-3.8220 2.1677 -2.0339 0.9808
-3.9983 1.8221 -2.0339 0.9808
-1.6110 0.2644 -0.7557 0.9928
-1.5492 -0.4437 -0.7459 0.9929
-4.1009 -1.5774 -2.0338 0.9808
-3.9458 -1.9330 -2.0338 0.9808
-3.1911 2.6475 -2.0339 0.9817
-3.4122 2.3557 -2.0339 0.9817
-3.6066 2.0456 -2.0339 0.9817
-1.2693 0.4480 -0.6603 0.9940
-1.3525 0.1007 -0.6653 0.9940
-1.3401 -0.0187 -0.6574 0.9940
-1.3534 -0.1389 -0.6674 0.9940
-1.3021 -0.3729 -0.6644 0.9940
-1.2565 -0.4834 -0.6604 0.9940
-2.5305 2.9945 -2.0339 0.9825
-3.0173 2.5033 -2.0339 0.9825
-3.4102 1.9341 -2.0339 0.9825
-1.1643 0.2985 -0.6236 0.9946
-1.1908 0.1954 -0.6260 0.9946
-1.2003 0.0894 -0.6244 0.9946
-1.1827 -0.2282 -0.6249 0.9946
-1.1542 -0.3305 -0.6228 0.9946
-1.1258 -0.4331 -0.6258 0.9946
-3.5207 -1.7247 -2.0339 0.9825
-2.3969 2.8364 -2.0339 0.9832
-3.0560 2.1097 -2.0339 0.9832
-3.2301 1.8320 -2.0339 0.9832
-0.9959 0.4538 -0.5994 0.9950
-1.0429 0.2674 -0.5897 0.9951
-1.0809 0.0805 -0.5937 0.9951
-1.0777 -0.0151 -0.5903 0.9951
-1.0789 -0.1108 -0.5940 0.9951
-1.0376 -0.2971 -0.5911 0.9951
-0.9856 -0.4829 -0.6011 0.9950
-3.1776 -1.9214 -2.0339 0.9832
-2.5023 2.4797 -2.0339 0.9839
-1.1227 0.6367 -0.7452 0.9941
-0.9619 0.2466 -0.5733 0.9954
-0.9809 0.1610 -0.5739 0.9954
-0.9895 -0.0138 -0.5714 0.9954
-0.9878 -0.1014 -0.5733 0.9954
-0.9762 -0.1884 -0.5740 0.9954
-0.9579 -0.2743 -0.5753 0.9954
-0.9415 -0.3622 -0.5824 0.9954
-0.9153 -0.4484 -0.5884 0.9953
