ply
format ascii 1.0
element vertex 208
property float32 x
property float32 y
property float32 z
property float32 I
end_header
-12.4424 13.1014 3.1859 0.9292
-11.8871 12.5166 2.6444 0.9325
-11.4289 12.0341 1.7821 0.9354
-4.1866 19.1899 1.2180 0.9243
-11.9211 12.5523 1.0735 0.9330
-12.8360 13.5157 0.7350 0.9281
-16.8652 6.2938 -1.3199 0.9303
-17.5552 4.7901 -1.3342 0.9296
-0.9528 7.6443 -0.7396 0.9695
-1.6366 7.5015 -0.7371 0.9696
-16.3316 6.0947 -1.6735 0.9323
0.9859 17.0957 -2.0341 0.9333
-0.5684 17.1145 -2.0341 0.9333
-1.6025 7.3452 -0.8930 0.9702
-6.6114 15.7956 -2.0340 0.9333
-12.8684 11.2953 -2.0339 0.9334
-14.6965 8.7852 -2.0339 0.9334
-15.4325 7.4163 -2.0339 0.9334
-0.4765 14.3479 -2.0341 0.9437
-0.9220 7.3968 -1.0562 0.9703
-1.5993 7.3307 -1.0631 0.9701
-6.7205 12.6849 -2.0340 0.9437
-8.9008 11.2624 -2.0340 0.9437
-9.8853 10.4088 -2.0339 0.9437
-12.3210 7.3652 -2.0339 0.9437
-13.8479 3.7786 -2.0338 0.9437
0.7108 12.3266 -2.0340 0.9512
-2.2932 7.2690 -1.2557 0.9696
-4.7671 11.3893 -2.0340 0.9512
-5.7801 10.9100 -2.0340 0.9512
-6.7455 10.3409 -2.0340 0.9512
-7.6554 9.6865 -2.0339 0.9512
-9.2789 8.1445 -2.0339 0.9512
-11.1277 5.3476 -2.0339 0.9512
-11.5667 4.3165 -2.0338 0.9512
0.6230 10.8036 -2.0340 0.9569
-0.3592 10.8155 -2.0340 0.9569
-0.9107 7.3066 -1.3840 0.9705
-2.2600 7.1636 -1.4119 0.9699
-5.9122 9.0633 -2.0340 0.9569
-6.7096 8.4898 -2.0339 0.9569
-7.4518 7.8463 -2.0339 0.9569
-9.2879 5.5520 -2.0339 0.9569
-10.1377 3.7833 -2.0339 0.9569
-10.4389 2.8484 -2.0338 0.9569
-10.6542 1.8901 -2.0338 0.9569
-0.2600 7.8300 -1.6560 0.9685
-0.9017 7.2341 -1.5410 0.9706
-1.5836 7.2584 -1.5704 0.9701
-3.7152 8.8762 -2.0340 0.9614
-4.5048 8.5027 -2.0340 0.9614
-6.6262 6.9770 -2.0339 0.9614
-7.7772 5.6655 -2.0339 0.9614
-8.2588 4.9369 -2.0339 0.9614
-8.6724 4.1677 -2.0339 0.9614
-9.0146 3.3641 -2.0339 0.9614
-9.2824 2.5329 -2.0338 0.9614
0.4983 8.6401 -2.0340 0.9651
-0.9036 7.2490 -1.7169 0.9704
-2.2996 7.2889 -1.7963 0.9691
-3.3414 7.9832 -2.0340 0.9651
-4.0516 7.6473 -2.0340 0.9651
-4.7283 7.2484 -2.0339 0.9651
-5.9596 6.2751 -2.0339 0.9651
-6.9948 5.0956 -2.0339 0.9651
-8.1077 3.0257 -2.0339 0.9651
-8.3486 2.2780 -2.0339 0.9651
-8.5207 1.5116 -2.0338 0.9651
-0.2607 7.8514 -2.0340 0.9681
-1.6745 7.6751 -2.0340 0.9681
-3.6776 6.9415 -2.0339 0.9681
-4.2919 6.5794 -2.0339 0.9681
-5.9037 5.1820 -2.0339 0.9681
-6.3493 4.6253 -2.0339 0.9681
-7.3595 2.7465 -2.0339 0.9681
-7.7344 1.3721 -2.0338 0.9681
0.4136 7.1729 -2.0340 0.9706
-0.2385 7.1809 -2.0340 0.9706
-0.8886 7.1296 -2.0340 0.9706
-1.5314 7.0197 -2.0340 0.9706
-2.1617 6.8518 -2.0340 0.9706
-2.7741 6.6276 -2.0340 0.9706
-4.9476 5.2096 -2.0339 0.9706
-5.8071 4.2303 -2.0339 0.9706
-6.1667 3.6863 -2.0339 0.9706
-6.7310 2.5119 -2.0339 0.9706
-7.0739 1.2549 -2.0339 0.9706
-0.2195 6.6092 -2.0340 0.9727
-3.0958 5.8433 -2.0339 0.9727
-3.6129 5.5385 -2.0339 0.9727
-4.1002 5.1881 -2.0339 0.9727
-4.5538 4.7949 -2.0339 0.9727
-4.9698 4.3622 -2.0339 0.9727
-5.3448 3.8935 -2.0339 0.9727
-6.1952 2.3119 -2.0339 0.9727
-6.3793 1.7407 -2.0339 0.9727
-0.7568 6.0719 -2.0340 0.9745
-1.8410 5.8354 -2.0340 0.9745
-2.8646 5.4069 -2.0339 0.9745
-4.2136 4.4367 -2.0339 0.9745
-4.5986 4.0364 -2.0339 0.9745
-4.9456 3.6028 -2.0339 0.9745
-5.9028 1.6106 -2.0339 0.9745
-6.0245 1.0688 -2.0339 0.9745
0.3275 5.6783 -2.0340 0.9761
-0.1888 5.6845 -2.0340 0.9761
-0.7034 5.6440 -2.0340 0.9761
-1.2124 5.5570 -2.0340 0.9761
-1.7112 5.4241 -2.0339 0.9761
-2.6627 5.0258 -2.0339 0.9761
-3.1075 4.7637 -2.0339 0.9761
-3.5266 4.4622 -2.0339 0.9761
-3.9167 4.1241 -2.0339 0.9761
-4.5971 3.3488 -2.0339 0.9761
-5.3285 1.9885 -2.0339 0.9761
-5.4868 1.4971 -2.0339 0.9761
-0.1762 5.3046 -2.0340 0.9775
-0.6564 5.2668 -2.0340 0.9775
-1.1313 5.1855 -2.0339 0.9775
-1.5969 5.0616 -2.0339 0.9775
-2.0492 4.8959 -2.0339 0.9775
-2.4848 4.6899 -2.0339 0.9775
-2.8998 4.4453 -2.0339 0.9775
-3.2909 4.1640 -2.0339 0.9775
-3.6549 3.8485 -2.0339 0.9775
-3.9888 3.5012 -2.0339 0.9775
-5.1202 1.3971 -2.0339 0.9775
-5.2257 0.9271 -2.0339 0.9775
0.2861 4.9614 -2.0340 0.9787
-0.1649 4.9669 -2.0340 0.9788
-0.6146 4.9315 -2.0340 0.9788
-1.0593 4.8554 -2.0339 0.9788
-1.4952 4.7393 -2.0339 0.9788
-1.9188 4.5842 -2.0339 0.9788
-2.3266 4.3913 -2.0339 0.9788
-2.7151 4.1623 -2.0339 0.9788
-3.0814 3.8989 -2.0339 0.9788
-3.4222 3.6035 -2.0339 0.9788
-3.7348 3.2783 -2.0339 0.9788
-4.0167 2.9261 -2.0339 0.9788
-4.6558 1.7375 -2.0339 0.9788
-2.1191 0.3759 -0.8808 0.9907
0.2687 4.6592 -2.0340 0.9798
-0.5772 4.6311 -2.0339 0.9798
-0.9948 4.5597 -2.0339 0.9798
-1.4041 4.4507 -2.0339 0.9798
-2.1848 4.1239 -2.0339 0.9798
-2.5498 3.9088 -2.0339 0.9798
-2.8937 3.6615 -2.0339 0.9798
-3.5074 3.0786 -2.0339 0.9798
-4.2063 2.0214 -2.0339 0.9798
-4.3722 1.6317 -2.0339 0.9798
-1.9784 0.5398 -0.8938 0.9911
-1.9052 0.3380 -0.8433 0.9916
0.2530 4.3868 -2.0340 0.9808
-0.1458 4.3916 -2.0339 0.9808
-2.0571 3.8827 -2.0339 0.9808
-2.7245 3.4474 -2.0339 0.9808
-3.0259 3.1861 -2.0339 0.9808
-3.3023 2.8986 -2.0339 0.9808
-3.5515 2.5872 -2.0339 0.9808
-3.7714 2.2545 -2.0339 0.9808
-1.5595 0.4255 -0.7482 0.9929
0.2387 4.1396 -2.0339 0.9817
-0.1377 4.1442 -2.0339 0.9817
-0.5129 4.1146 -2.0339 0.9817
-0.8838 4.0512 -2.0339 0.9817
-1.2475 3.9543 -2.0339 0.9817
-1.9412 3.6639 -2.0339 0.9817
-2.2654 3.4728 -2.0339 0.9817
-2.5710 3.2531 -2.0339 0.9817
-2.8554 3.0066 -2.0339 0.9817
-3.3514 2.4414 -2.0339 0.9817
-3.5589 2.1275 -2.0339 0.9817
-1.2600 0.4702 -0.6597 0.9940
-1.3076 0.3568 -0.6649 0.9940
-1.3411 0.2379 -0.6681 0.9940
0.2257 3.9141 -2.0339 0.9825
-0.1301 3.9185 -2.0339 0.9825
-0.4849 3.8905 -2.0339 0.9825
-1.1796 3.7389 -2.0339 0.9825
-2.9465 2.5863 -2.0339 0.9825
-3.1689 2.3085 -2.0339 0.9825
-1.1590 0.3162 -0.6232 0.9946
-1.1873 0.2106 -0.6256 0.9946
-0.1233 3.7115 -2.0339 0.9832
-0.4593 3.6850 -2.0339 0.9832
-1.1173 3.5415 -2.0339 0.9832
-1.4338 3.4256 -2.0339 0.9832
-1.7385 3.2814 -2.0339 0.9832
-2.3025 2.9135 -2.0339 0.9832
-3.0015 2.1865 -2.0339 0.9832
-0.9885 0.4750 -0.6007 0.9950
-1.0205 0.3808 -0.5966 0.9950
-1.0392 0.2835 -0.5900 0.9951
-0.1169 3.5209 -2.0339 0.9839
-0.4357 3.4958 -2.0339 0.9839
-0.7509 3.4419 -2.0339 0.9839
-1.0599 3.3596 -2.0339 0.9839
-1.3602 3.2497 -2.0339 0.9839
-1.6493 3.1129 -2.0339 0.9839
-1.9247 2.9505 -2.0339 0.9839
-2.1844 2.7639 -2.0339 0.9839
-2.4259 2.5544 -2.0339 0.9839
-2.8474 2.0742 -2.0339 0.9839
-3.0237 1.8075 -2.0339 0.9839
-0.9176 0.4410 -0.5878 0.9953
-0.9439 0.3522 -0.5817 0.9954
