ply
format ascii 1.0
element vertex 191
property float32 x
property float32 y
property float32 z
property float32 I
end_header
3.4996 18.5750 3.3329 0.9261
3.4689 18.4121 2.8703 0.9270
1.7272 17.6698 2.7198 0.9307
3.5006 18.5809 2.0304 0.9268
1.7692 18.1004 1.9529 0.9294
3.3509 17.7859 1.5321 0.9299
1.8192 18.6121 1.5831 0.9277
3.3243 17.6452 1.1134 0.9306
3.6257 19.2449 0.7722 0.9246
1.8535 18.9630 0.7513 0.9266
3.3923 18.0056 -0.1032 0.9293
10.0907 13.8356 -2.0341 0.9333
8.8242 14.6758 -2.0341 0.9333
6.0931 16.0037 -2.0341 0.9333
4.6501 16.4808 -2.0341 0.9333
3.1705 16.8281 -2.0341 0.9333
1.6659 17.0429 -2.0341 0.9333
0.1481 17.1234 -2.0341 0.9333
-0.6496 8.0896 -0.9640 0.9678
-5.8150 16.1059 -2.0340 0.9333
-7.2202 15.5267 -2.0340 0.9334
10.3752 9.9223 -2.0341 0.9437
8.4594 11.5989 -2.0341 0.9437
7.3977 12.3033 -2.0341 0.9437
6.2776 12.9108 -2.0341 0.9437
2.6579 14.1077 -2.0341 0.9437
1.3966 14.2878 -2.0341 0.9437
-1.2695 7.4439 -1.0700 0.9700
-1.9324 7.3319 -1.0743 0.9698
-6.0530 13.0168 -2.0340 0.9437
-8.2569 11.7427 -2.0340 0.9437
5.3992 11.1042 -2.0341 0.9512
4.3934 11.5391 -2.0341 0.9512
3.3529 11.8832 -2.0341 0.9512
-0.5973 7.4382 -1.2293 0.9702
-2.6941 7.4619 -1.3069 0.9684
-6.1781 10.6896 -2.0340 0.9512
7.8209 7.4795 -2.0341 0.9569
7.1269 8.1435 -2.0341 0.9569
6.3768 8.7433 -2.0341 0.9569
3.8505 10.1134 -2.0340 0.9569
2.9386 10.4150 -2.0340 0.9569
1.0527 10.7702 -2.0340 0.9569
-0.6134 7.6385 -1.4404 0.9693
-1.8508 7.0222 -1.3650 0.9709
-2.6834 7.4322 -1.4852 0.9684
-4.5628 9.8122 -2.0340 0.9569
6.3372 7.2412 -2.0340 0.9614
5.6702 7.7746 -2.0340 0.9614
4.9585 8.2467 -2.0340 0.9614
3.4239 8.9929 -2.0340 0.9614
2.6130 9.2610 -2.0340 0.9614
1.7816 9.4562 -2.0340 0.9614
0.9361 9.5769 -2.0340 0.9614
-0.5979 7.4457 -1.5789 0.9699
-1.9060 7.2315 -1.5808 0.9699
-4.0573 8.7251 -2.0340 0.9614
-5.5346 7.8711 -2.0339 0.9614
5.6996 6.5127 -2.0340 0.9651
5.0998 6.9924 -2.0340 0.9651
4.4596 7.4170 -2.0340 0.9651
3.7845 7.7833 -2.0340 0.9651
3.0794 8.0881 -2.0340 0.9651
2.3502 8.3293 -2.0340 0.9651
-0.5949 7.4083 -1.7467 0.9699
-1.2406 7.2744 -1.7343 0.9701
-3.6491 7.8473 -2.0340 0.9651
-4.3305 7.4928 -2.0339 0.9651
-4.9778 7.0793 -2.0339 0.9651
2.7952 7.3417 -2.0340 0.9681
2.1332 7.5606 -2.0340 0.9681
1.4544 7.7199 -2.0340 0.9681
0.7642 7.8185 -2.0340 0.9681
0.0679 7.8554 -2.0340 0.9681
-0.6223 7.7496 -2.0130 0.9684
-1.3207 7.7439 -2.0340 0.9681
-2.0021 7.5962 -2.0340 0.9681
-2.6678 7.3888 -2.0340 0.9681
-3.9309 6.8013 -2.0339 0.9681
4.2338 5.8050 -2.0340 0.9706
3.1418 6.4616 -2.0340 0.9706
2.5565 6.7147 -2.0340 0.9706
1.3302 7.0607 -2.0340 0.9706
0.6989 7.1508 -2.0340 0.9706
-2.4399 6.7578 -2.0340 0.9706
-4.1325 5.8772 -2.0339 0.9706
4.7792 4.5706 -2.0340 0.9727
4.3551 4.9763 -2.0340 0.9727
3.8968 5.3429 -2.0340 0.9727
3.4077 5.6673 -2.0340 0.9727
2.8917 5.9471 -2.0340 0.9727
2.3529 6.1801 -2.0340 0.9727
1.7957 6.3644 -2.0340 0.9727
0.6433 6.5815 -2.0340 0.9727
0.0572 6.6126 -2.0340 0.9727
-0.5293 6.5916 -2.0340 0.9727
-1.1117 6.5187 -2.0340 0.9727
-2.7883 5.9962 -2.0339 0.9727
-3.8036 5.4093 -2.0339 0.9727
4.4222 4.2292 -2.0340 0.9745
4.0298 4.6046 -2.0340 0.9745
3.1531 5.2441 -2.0340 0.9745
2.6757 5.5029 -2.0340 0.9745
2.1772 5.7186 -2.0340 0.9745
1.6616 5.8890 -2.0340 0.9745
1.1329 6.0131 -2.0340 0.9745
0.0529 6.1187 -2.0340 0.9745
-0.4898 6.0993 -2.0340 0.9745
-1.0287 6.0318 -2.0340 0.9745
-1.5595 5.9168 -2.0340 0.9745
-2.5800 5.5483 -2.0339 0.9745
-3.5195 5.0053 -2.0339 0.9745
3.7458 4.2801 -2.0340 0.9761
3.3516 4.5954 -2.0340 0.9761
2.9309 4.8745 -2.0340 0.9761
2.0238 5.3155 -2.0340 0.9761
1.0530 5.5894 -2.0340 0.9761
-0.4553 5.6694 -2.0340 0.9761
-0.9562 5.6067 -2.0340 0.9761
-1.9315 5.3496 -2.0339 0.9761
-3.2714 4.6526 -2.0339 0.9761
2.7350 4.5487 -2.0340 0.9775
2.3209 4.7733 -2.0340 0.9775
-0.4248 5.2905 -2.0340 0.9775
-1.8024 4.9921 -2.0339 0.9775
3.5916 3.4348 -2.0340 0.9787
2.9284 4.0152 -2.0340 0.9787
2.1731 4.4694 -2.0340 0.9787
0.0430 4.9695 -2.0340 0.9787
-0.3978 4.9537 -2.0340 0.9788
-1.2666 4.8055 -2.0339 0.9788
-2.0954 4.5062 -2.0339 0.9788
-2.4868 4.3027 -2.0339 0.9788
2.4050 3.9997 -2.0340 0.9798
2.0408 4.1971 -2.0340 0.9798
1.2673 4.4916 -2.0340 0.9798
0.4540 4.6449 -2.0340 0.9798
-0.3736 4.6520 -2.0339 0.9798
-1.1894 4.5129 -2.0339 0.9798
-1.5848 4.3896 -2.0339 0.9798
-1.9679 4.2318 -2.0339 0.9798
-2.6843 3.8176 -2.0339 0.9798
3.1757 3.0370 -2.0340 0.9808
2.8939 3.3066 -2.0340 0.9808
2.5893 3.5502 -2.0340 0.9808
1.1932 4.2290 -2.0340 0.9808
0.8135 4.3181 -2.0340 0.9808
-0.3517 4.3799 -2.0339 0.9808
-0.7387 4.3315 -2.0339 0.9808
-1.1198 4.2489 -2.0339 0.9808
-1.4922 4.1329 -2.0339 0.9808
-1.8528 3.9843 -2.0339 0.9808
-2.1987 3.8043 -2.0339 0.9808
-2.5274 3.5944 -2.0339 0.9808
2.9968 2.8659 -2.0340 0.9817
2.1367 3.5536 -2.0340 0.9817
-1.0568 4.0095 -2.0339 0.9817
-2.0748 3.5900 -2.0339 0.9817
2.5821 2.9504 -2.0340 0.9825
1.7144 3.5259 -2.0340 0.9825
1.3950 3.6641 -2.0340 0.9825
1.0646 3.7733 -2.0340 0.9825
0.0339 3.9205 -2.0339 0.9825
-0.3139 3.9080 -2.0339 0.9825
-0.9992 3.7911 -2.0339 0.9825
-1.3314 3.6876 -2.0339 0.9825
-1.6532 3.5550 -2.0339 0.9825
-1.9619 3.3944 -2.0339 0.9825
-2.2551 3.2071 -2.0339 0.9825
2.1883 3.0004 -2.0340 0.9832
1.3214 3.4706 -2.0340 0.9832
1.0084 3.5740 -2.0339 0.9832
0.6875 3.6494 -2.0339 0.9832
0.3612 3.6959 -2.0339 0.9832
0.0321 3.7134 -2.0339 0.9832
-0.2973 3.7016 -2.0339 0.9832
-0.6243 3.6607 -2.0339 0.9832
-1.8582 3.2152 -2.0339 0.9832
-2.1360 3.0377 -2.0339 0.9832
2.0759 2.8463 -2.0340 0.9839
1.8154 3.0192 -2.0339 0.9839
1.5405 3.1682 -2.0339 0.9839
0.9566 3.3905 -2.0339 0.9839
0.6523 3.4620 -2.0339 0.9839
0.3427 3.5062 -2.0339 0.9839
0.0305 3.5227 -2.0339 0.9839
-0.2820 3.5116 -2.0339 0.9839
-0.5923 3.4727 -2.0339 0.9839
-1.1963 3.3135 -2.0339 0.9839
-1.4854 3.1944 -2.0339 0.9839
-2.0263 2.8817 -2.0339 0.9839
