ply
format ascii 1.0
element vertex 178
property float32 x
property float32 y
property float32 z
property float32 I
end_header
2.5319 -6.1201 -0.6359 0.9737
-5.2522 -16.2950 -2.0337 0.9334
-2.3177 -16.9631 -2.0337 0.9334
-0.8177 -17.1012 -2.0337 0.9334
3.6736 -16.7223 -2.0337 0.9334
1.9535 -6.2212 -0.7746 0.9741
13.6259 -10.3687 -2.0339 0.9334
14.4847 -9.1311 -2.0339 0.9334
15.2314 -7.8227 -2.0339 0.9334
-3.1855 -13.9954 -2.0337 0.9437
-1.9430 -14.2213 -2.0337 0.9437
-0.6855 -14.3371 -2.0337 0.9437
0.5773 -14.3420 -2.0337 0.9437
1.8356 -14.2358 -2.0338 0.9437
3.0798 -14.0195 -2.0338 0.9437
3.1186 -5.9863 -0.9564 0.9731
7.7252 -12.0981 -2.0338 0.9437
9.7245 -10.5586 -2.0339 0.9437
10.6150 -9.6630 -2.0339 0.9437
11.4234 -8.6927 -2.0339 0.9437
-3.7872 -11.7499 -2.0337 0.9512
-2.7398 -12.0373 -2.0337 0.9512
-0.5896 -12.3313 -2.0338 0.9512
1.5788 -12.2441 -2.0338 0.9512
2.6490 -12.0580 -2.0338 0.9512
3.0505 -5.8556 -1.0877 0.9736
7.5333 -9.7812 -2.0339 0.9512
8.3639 -9.0813 -2.0339 0.9512
9.1298 -8.3110 -2.0339 0.9512
9.8250 -7.4764 -2.0339 0.9512
-3.3194 -10.2984 -2.0338 0.9569
0.4352 -10.8115 -2.0338 0.9569
1.3838 -10.7314 -2.0338 0.9569
1.8534 -5.9026 -1.1629 0.9751
2.4420 -5.9027 -1.2007 0.9743
3.0621 -5.8778 -1.2457 0.9734
5.8235 -9.1199 -2.0338 0.9569
6.6026 -8.5728 -2.0339 0.9569
8.0019 -7.2842 -2.0339 0.9569
8.6112 -6.5528 -2.0339 0.9569
9.1539 -5.7706 -2.0339 0.9569
0.3870 -9.6137 -2.0338 0.9614
1.3920 -6.3366 -1.3714 0.9738
1.8686 -5.9509 -1.3185 0.9748
2.4205 -5.8508 -1.3384 0.9744
-1.1715 -8.5740 -2.0338 0.9651
-0.4133 -8.6438 -2.0338 0.9651
1.8252 -5.8127 -1.4319 0.9753
2.3463 -5.6714 -1.4425 0.9751
2.9759 -5.7124 -1.5138 0.9739
4.6574 -7.2937 -2.0339 0.9651
7.3209 -4.6150 -2.0339 0.9651
-1.0634 -7.7828 -2.0338 0.9681
-0.3752 -7.8461 -2.0338 0.9681
0.3159 -7.8487 -2.0338 0.9681
1.0046 -7.7906 -2.0338 0.9681
1.3500 -6.1454 -1.6291 0.9743
1.8395 -5.8582 -1.5898 0.9749
2.4716 -5.9744 -1.6740 0.9736
3.0308 -5.8177 -1.6985 0.9733
5.8090 -5.2880 -2.0339 0.9681
6.6452 -4.1891 -2.0339 0.9681
-0.3431 -7.1761 -2.0338 0.9706
1.4215 -6.4710 -1.8756 0.9728
1.8317 -5.8334 -1.7309 0.9749
5.7175 -4.3507 -2.0339 0.9706
-2.0286 -6.2935 -2.0338 0.9727
-0.8952 -6.5515 -2.0338 0.9727
0.2659 -6.6071 -2.0338 0.9727
0.8457 -6.5581 -2.0338 0.9727
2.5279 -6.1102 -2.0339 0.9727
3.5587 -5.5732 -2.0339 0.9727
4.0348 -5.2389 -2.0339 0.9727
4.8899 -4.4514 -2.0339 0.9727
5.2623 -4.0044 -2.0339 0.9727
5.5939 -3.5264 -2.0339 0.9727
5.8822 -3.0211 -2.0339 0.9727
-1.8770 -5.8235 -2.0338 0.9745
-0.8283 -6.0622 -2.0338 0.9745
0.7825 -6.0683 -2.0338 0.9745
1.8330 -5.8375 -2.0339 0.9745
2.8270 -5.4264 -2.0339 0.9745
3.2930 -5.1570 -2.0339 0.9745
3.7335 -4.8476 -2.0339 0.9745
4.5247 -4.1190 -2.0339 0.9745
4.8693 -3.7053 -2.0339 0.9745
5.4429 -2.7954 -2.0339 0.9745
-1.7448 -5.4131 -2.0338 0.9761
-0.2716 -5.6809 -2.0338 0.9761
1.2203 -5.5549 -2.0338 0.9761
1.7038 -5.4262 -2.0339 0.9761
2.1742 -5.2554 -2.0339 0.9761
2.6277 -5.0440 -2.0339 0.9761
3.8530 -4.1835 -2.0339 0.9761
4.8113 -3.0331 -2.0339 0.9761
-1.6281 -5.0513 -2.0338 0.9775
-1.1779 -5.1749 -2.0338 0.9775
-0.7184 -5.2584 -2.0338 0.9775
0.2134 -5.3030 -2.0338 0.9775
1.1387 -5.1837 -2.0339 0.9775
1.5900 -5.0636 -2.0339 0.9775
2.0289 -4.9042 -2.0339 0.9775
3.2384 -4.2048 -2.0339 0.9775
3.5955 -3.9039 -2.0339 0.9775
4.2236 -3.2140 -2.0339 0.9775
4.4898 -2.8304 -2.0339 0.9775
-1.5245 -4.7298 -2.0338 0.9788
0.6355 -4.9286 -2.0339 0.9788
1.0662 -4.8537 -2.0339 0.9788
1.4887 -4.7412 -2.0339 0.9788
1.8997 -4.5920 -2.0339 0.9788
2.2960 -4.4073 -2.0339 0.9788
2.6745 -4.1884 -2.0339 0.9788
3.0323 -3.9371 -2.0339 0.9788
3.3666 -3.6554 -2.0339 0.9788
3.6749 -3.3454 -2.0339 0.9788
-1.4316 -4.4417 -2.0338 0.9798
-1.0357 -4.5504 -2.0338 0.9798
-0.6318 -4.6238 -2.0338 0.9798
0.1877 -4.6630 -2.0338 0.9798
1.7841 -4.3124 -2.0339 0.9798
2.1562 -4.1389 -2.0339 0.9798
2.5116 -3.9333 -2.0339 0.9798
3.1616 -3.4328 -2.0339 0.9798
3.4511 -3.1416 -2.0339 0.9798
4.1514 -2.1321 -2.0339 0.9798
-1.3480 -4.1820 -2.0338 0.9808
0.1767 -4.3903 -2.0339 0.9808
0.5619 -4.3578 -2.0339 0.9808
1.3163 -4.1921 -2.0339 0.9808
1.6797 -4.0602 -2.0339 0.9808
2.0301 -3.8968 -2.0339 0.9808
2.3648 -3.7033 -2.0339 0.9808
2.6811 -3.4811 -2.0339 0.9808
2.9767 -3.2320 -2.0339 0.9808
3.2493 -2.9579 -2.0339 0.9808
3.4967 -2.6608 -2.0339 0.9808
3.7171 -2.3432 -2.0339 0.9808
3.9086 -2.0074 -2.0339 0.9808
-1.2720 -3.9464 -2.0338 0.9817
-0.5613 -4.1081 -2.0338 0.9817
-0.1980 -4.1416 -2.0339 0.9817
0.1667 -4.1429 -2.0339 0.9817
1.9157 -3.6773 -2.0339 0.9817
2.2315 -3.4946 -2.0339 0.9817
2.8090 -3.0499 -2.0339 0.9817
3.2997 -2.5109 -2.0339 0.9817
-1.2027 -3.7314 -2.0338 0.9825
-0.8701 -3.8227 -2.0339 0.9825
0.5014 -3.8883 -2.0339 0.9825
0.8412 -3.8292 -2.0339 0.9825
1.1745 -3.7404 -2.0339 0.9825
1.4987 -3.6227 -2.0339 0.9825
1.8113 -3.4770 -2.0339 0.9825
2.1099 -3.3043 -2.0339 0.9825
2.3922 -3.1061 -2.0339 0.9825
2.8992 -2.6392 -2.0339 0.9825
3.1200 -2.3741 -2.0339 0.9825
3.3166 -2.0907 -2.0339 0.9825
-0.8241 -3.6208 -2.0339 0.9832
-0.5027 -3.6793 -2.0339 0.9832
-0.1774 -3.7092 -2.0339 0.9832
0.1493 -3.7104 -2.0339 0.9832
0.7968 -3.6270 -2.0339 0.9832
1.1125 -3.5429 -2.0339 0.9832
1.7157 -3.2934 -2.0339 0.9832
2.2659 -2.9421 -2.0339 0.9832
2.7461 -2.4998 -2.0339 0.9832
3.3033 -1.6966 -2.0339 0.9832
-0.4769 -3.4903 -2.0339 0.9839
0.1416 -3.5199 -2.0339 0.9839
0.4505 -3.4938 -2.0339 0.9839
0.7559 -3.4407 -2.0339 0.9839
1.0554 -3.3610 -2.0339 0.9839
2.1496 -2.7910 -2.0339 0.9839
2.3866 -2.5912 -2.0339 0.9839
2.9801 -1.8786 -2.0339 0.9839
3.1337 -1.6094 -2.0339 0.9839
