ply
format ascii 1.0
element vertex 210
property float32 x
property float32 y
property float32 z
property float32 I
end_header
3.5730 18.5106 3.3242 0.9263
1.9464 18.9129 3.3525 0.9257
3.5395 18.3370 2.8610 0.9272
3.5807 18.5507 2.0288 0.9268
3.4248 17.7425 1.5297 0.9300
1.8034 17.5231 1.0924 0.9318
13.6970 9.1107 -0.8343 0.9362
13.3226 8.8617 -1.5361 0.9377
13.4563 8.9506 -1.9197 0.9370
10.1071 13.8237 -2.0341 0.9333
7.5266 15.3817 -2.0341 0.9333
6.1435 15.9844 -2.0341 0.9333
4.7128 16.4630 -2.0341 0.9333
3.2455 16.8138 -2.0341 0.9333
0.2470 17.1222 -2.0341 0.9333
-0.5868 7.9465 -0.9465 0.9684
-5.6796 16.1541 -2.0340 0.9333
-8.4240 14.9077 -2.0340 0.9334
-9.7033 14.1083 -2.0340 0.9334
11.2071 8.9720 -2.0341 0.9437
10.3740 9.9236 -2.0341 0.9437
9.4603 10.7981 -2.0341 0.9437
8.4731 11.5889 -2.0341 0.9437
7.4203 12.2897 -2.0341 0.9437
6.3098 12.8951 -2.0341 0.9437
5.1504 13.4003 -2.0341 0.9437
3.9509 13.8016 -2.0341 0.9437
1.4696 14.2804 -2.0341 0.9437
0.2070 14.3543 -2.0341 0.9437
-0.5771 7.8154 -1.1104 0.9688
-1.2170 7.4544 -1.0702 0.9699
-4.7615 13.5428 -2.0340 0.9437
-7.0623 12.4978 -2.0340 0.9437
10.2806 6.8382 -2.0341 0.9512
8.9223 8.5350 -2.0341 0.9512
5.4269 11.0906 -2.0341 0.9512
3.3981 11.8704 -2.0341 0.9512
2.3402 12.1233 -2.0341 0.9512
1.2640 12.2822 -2.0340 0.9512
-1.1975 7.3350 -1.2244 0.9703
-1.8121 7.0975 -1.2067 0.9707
-4.0952 11.6478 -2.0340 0.9512
8.4480 6.7632 -2.0340 0.9569
7.8199 7.4805 -2.0341 0.9569
5.5934 9.2640 -2.0341 0.9569
3.8824 10.1013 -2.0340 0.9569
2.9782 10.4037 -2.0340 0.9569
2.0510 10.6255 -2.0340 0.9569
1.1079 10.7647 -2.0340 0.9569
-0.5659 7.6641 -1.4445 0.9692
-1.1721 7.1792 -1.3673 0.9708
-4.4738 9.8531 -2.0340 0.9569
-6.1321 8.9159 -2.0339 0.9569
7.5119 6.0138 -2.0340 0.9614
5.6794 7.7678 -2.0340 0.9614
4.9737 8.2376 -2.0340 0.9614
3.4521 8.9821 -2.0340 0.9614
2.6482 9.2510 -2.0340 0.9614
1.8237 9.4482 -2.0340 0.9614
0.9851 9.5720 -2.0340 0.9614
0.1388 9.6215 -2.0340 0.9614
-0.5465 7.4011 -1.5687 0.9701
-1.1648 7.1343 -1.5280 0.9709
-1.8151 7.1097 -1.5510 0.9704
-4.7339 8.3772 -2.0340 0.9614
6.7562 5.4088 -2.0340 0.9651
6.2539 5.9824 -2.0340 0.9651
5.1080 6.9864 -2.0340 0.9651
3.8038 7.7738 -2.0340 0.9651
3.1049 8.0784 -2.0340 0.9651
1.6402 8.4976 -2.0340 0.9651
0.1248 8.6536 -2.0340 0.9651
-1.1980 7.3378 -1.7474 0.9699
-1.8372 7.1962 -1.7455 0.9699
-2.8705 8.1644 -2.0340 0.9651
6.5410 4.3508 -2.0340 0.9681
6.1327 4.9096 -2.0340 0.9681
5.6767 5.4303 -2.0340 0.9681
4.0604 6.7250 -2.0340 0.9681
3.4528 7.0563 -2.0340 0.9681
2.8184 7.3328 -2.0340 0.9681
0.8042 7.8145 -2.0340 0.9681
-0.5722 7.7489 -2.0118 0.9684
-1.9432 7.6115 -2.0340 0.9681
-3.2478 7.1528 -2.0340 0.9681
-3.8647 6.8391 -2.0339 0.9681
-4.4516 6.4724 -2.0339 0.9681
5.6089 4.4903 -2.0340 0.9706
4.7346 5.4042 -2.0340 0.9706
4.2406 5.8000 -2.0340 0.9706
2.5776 6.7066 -2.0340 0.9706
1.9773 6.9074 -2.0340 0.9706
1.3617 7.0546 -2.0340 0.9706
0.7355 7.1471 -2.0340 0.9706
0.1036 7.1841 -2.0340 0.9706
-1.1577 7.0909 -2.0340 0.9706
-1.7773 6.9615 -2.0340 0.9706
-2.9704 6.5420 -2.0339 0.9706
-4.0714 5.9197 -2.0339 0.9706
5.1624 4.1328 -2.0340 0.9727
3.4180 5.6611 -2.0340 0.9727
2.9065 5.9399 -2.0340 0.9727
1.8199 6.3575 -2.0340 0.9727
0.0954 6.6121 -2.0340 0.9727
-0.4870 6.5949 -2.0340 0.9727
-1.0655 6.5264 -2.0340 0.9727
-2.7339 6.0212 -2.0339 0.9727
-3.7473 5.4485 -2.0339 0.9727
4.4217 4.2297 -2.0340 0.9745
3.6115 4.9395 -2.0340 0.9745
2.6894 5.4963 -2.0340 0.9745
2.1952 5.7116 -2.0340 0.9745
1.6840 5.8827 -2.0340 0.9745
1.1597 6.0080 -2.0340 0.9745
0.6264 6.0868 -2.0340 0.9745
-1.5136 5.9287 -2.0340 0.9745
-2.5297 5.5714 -2.0339 0.9745
-3.0103 5.3271 -2.0339 0.9745
-3.4674 5.0415 -2.0339 0.9745
3.3570 4.5914 -2.0340 0.9761
2.0405 5.3091 -2.0340 0.9761
1.0780 5.5846 -2.0340 0.9761
0.0820 5.6871 -2.0340 0.9761
-0.4188 5.6722 -2.0340 0.9761
-0.9164 5.6134 -2.0340 0.9761
-1.4070 5.5109 -2.0340 0.9761
-1.8865 5.3657 -2.0339 0.9761
-2.7981 4.9517 -2.0339 0.9761
4.4193 2.9395 -2.0340 0.9775
4.1434 3.3171 -2.0340 0.9775
3.8354 3.6689 -2.0340 0.9775
1.4607 5.1026 -2.0340 0.9775
1.0059 5.2114 -2.0340 0.9775
-0.3909 5.2931 -2.0340 0.9775
-0.8552 5.2382 -2.0340 0.9775
-1.3129 5.1426 -2.0339 0.9775
-2.1943 4.8327 -2.0339 0.9775
3.5912 3.4353 -2.0340 0.9787
3.2749 3.7380 -2.0340 0.9787
2.1843 4.4639 -2.0340 0.9787
0.9419 4.8796 -2.0340 0.9787
0.0717 4.9691 -2.0340 0.9787
-0.8008 4.9047 -2.0339 0.9788
-1.2293 4.8152 -2.0339 0.9788
-1.6483 4.6883 -2.0339 0.9788
-2.0546 4.5250 -2.0339 0.9788
-2.8161 4.0946 -2.0339 0.9788
3.8859 2.5848 -2.0340 0.9798
3.0754 3.5104 -2.0340 0.9798
2.7545 3.7674 -2.0340 0.9798
1.6743 4.3563 -2.0340 0.9798
0.4778 4.6425 -2.0340 0.9798
-0.7520 4.6060 -2.0339 0.9798
-1.5480 4.4027 -2.0339 0.9798
-1.9295 4.2494 -2.0339 0.9798
-2.2960 4.0631 -2.0339 0.9798
3.6586 2.4336 -2.0340 0.9808
3.4303 2.7461 -2.0340 0.9808
2.8956 3.3051 -2.0340 0.9808
2.5935 3.5471 -2.0340 0.9808
1.9313 3.9469 -2.0340 0.9808
1.2093 4.2244 -2.0340 0.9808
-0.7080 4.3366 -2.0339 0.9808
-1.8166 4.0009 -2.0339 0.9808
-2.4900 3.6204 -2.0339 0.9808
3.4525 2.2964 -2.0340 0.9817
3.2370 2.5914 -2.0340 0.9817
2.9964 2.8663 -2.0340 0.9817
2.4473 3.3472 -2.0340 0.9817
1.8225 3.7245 -2.0340 0.9817
1.1411 3.9864 -2.0340 0.9817
0.7859 4.0713 -2.0340 0.9817
0.4245 4.1247 -2.0340 0.9817
0.0598 4.1460 -2.0339 0.9817
-0.6681 4.0923 -2.0339 0.9817
-1.0257 4.0176 -2.0339 0.9817
-1.3753 3.9117 -2.0339 0.9817
-1.7143 3.7755 -2.0339 0.9817
-2.3497 3.4164 -2.0339 0.9817
3.2645 2.1714 -2.0340 0.9825
2.5836 2.9490 -2.0340 0.9825
1.7232 3.5216 -2.0340 0.9825
0.7431 3.8496 -2.0339 0.9825
0.0565 3.9202 -2.0339 0.9825
-0.6317 3.8694 -2.0339 0.9825
-1.3004 3.6987 -2.0339 0.9825
-1.6209 3.5698 -2.0339 0.9825
-2.2217 3.2303 -2.0339 0.9825
3.0921 2.0567 -2.0340 0.9832
2.6835 2.5670 -2.0340 0.9832
2.4471 2.7932 -2.0340 0.9832
2.1918 2.9978 -2.0340 0.9832
1.3323 3.4664 -2.0340 0.9832
1.0220 3.5702 -2.0339 0.9832
0.3802 3.6941 -2.0339 0.9832
-0.2735 3.7035 -2.0339 0.9832
-0.9186 3.5981 -2.0339 0.9832
-1.2317 3.5033 -2.0339 0.9832
-1.5353 3.3813 -2.0339 0.9832
-1.8269 3.2330 -2.0339 0.9832
2.9332 1.9511 -2.0339 0.9839
2.5457 2.4352 -2.0339 0.9839
2.3215 2.6498 -2.0340 0.9839
2.0793 2.8439 -2.0340 0.9839
1.8209 3.0158 -2.0339 0.9839
1.5484 3.1644 -2.0339 0.9839
1.2639 3.2884 -2.0339 0.9839
0.3607 3.5044 -2.0339 0.9839
-1.1685 3.3234 -2.0339 0.9839
-1.4564 3.2077 -2.0339 0.9839
