ply
format ascii 1.0
element vertex 192
property float32 x
property float32 y
property float32 z
property float32 I
end_header
17.4914 -3.4329 -0.9040 0.9311
16.9542 -3.3275 -1.2668 0.9331
-0.8442 -17.1000 -2.0337 0.9334
0.6815 -17.1073 -2.0337 0.9334
2.5261 -6.0352 -0.7772 0.9740
3.1484 -5.9667 -0.8014 0.9732
11.7084 -12.4932 -2.0339 0.9334
13.7387 -10.2189 -2.0339 0.9334
15.3335 -7.6205 -2.0339 0.9334
15.9513 -6.2252 -2.0340 0.9334
16.4423 -4.7805 -2.0340 0.9334
16.8028 -3.2977 -2.0340 0.9334
-1.9812 -14.2161 -2.0337 0.9437
0.5714 -14.3422 -2.0337 0.9437
3.1059 -14.0137 -2.0338 0.9437
1.9500 -6.1456 -0.9135 0.9743
2.5037 -5.9818 -0.9188 0.9741
7.8026 -12.0484 -2.0338 0.9437
8.8443 -11.3060 -2.0338 0.9437
11.5179 -8.5671 -2.0339 0.9437
12.2350 -7.5077 -2.0339 0.9437
13.3727 -5.2189 -2.0340 0.9437
13.7844 -4.0077 -2.0340 0.9437
14.0866 -2.7646 -2.0340 0.9437
1.5877 -12.2429 -2.0338 0.9512
7.6069 -9.7241 -2.0339 0.9512
9.2109 -8.2210 -2.0339 0.9512
10.5231 -6.4572 -2.0339 0.9512
11.5016 -4.4887 -2.0339 0.9512
12.1156 -2.3778 -2.0340 0.9512
-1.4935 -10.7166 -2.0338 0.9569
1.8762 -5.9130 -1.1660 0.9751
2.4520 -5.8581 -1.1937 0.9745
3.0734 -5.8245 -1.2378 0.9736
6.6671 -8.5228 -2.0339 0.9569
8.6825 -6.4581 -2.0339 0.9569
9.2230 -5.6595 -2.0339 0.9569
10.0806 -3.9341 -2.0339 0.9569
-1.3280 -9.5294 -2.0338 0.9614
1.2374 -9.5417 -2.0338 0.9614
1.8683 -5.8881 -1.3058 0.9751
2.9939 -5.6738 -1.3560 0.9741
5.9284 -7.5785 -2.0339 0.9614
7.1786 -6.4071 -2.0339 0.9614
8.2011 -5.0325 -2.0339 0.9614
8.6166 -4.2824 -2.0339 0.9614
9.2396 -2.6864 -2.0339 0.9614
9.4422 -1.8531 -2.0340 0.9614
-1.1945 -8.5708 -2.0338 0.9651
-0.4267 -8.6431 -2.0338 0.9651
1.1129 -8.5818 -2.0338 0.9651
1.3559 -6.1175 -1.4726 0.9746
1.8407 -5.8011 -1.4304 0.9753
2.3747 -5.6735 -1.4455 0.9750
2.9433 -5.5779 -1.4822 0.9744
4.7040 -7.2637 -2.0339 0.9651
5.9177 -6.3144 -2.0339 0.9651
6.4564 -5.7625 -2.0339 0.9651
7.3761 -4.5262 -2.0339 0.9651
8.0620 -3.1463 -2.0339 0.9651
8.4923 -1.6667 -2.0340 0.9651
-0.3873 -7.8455 -2.0338 0.9681
0.3127 -7.8489 -2.0338 0.9681
1.3636 -6.1523 -1.6316 0.9743
1.8565 -5.8508 -1.5893 0.9750
2.4991 -5.9709 -1.6759 0.9736
4.2699 -6.5934 -2.0339 0.9681
4.8400 -6.1871 -2.0339 0.9681
6.3030 -4.6882 -2.0339 0.9681
6.6954 -4.1085 -2.0339 0.9681
7.0346 -3.4961 -2.0339 0.9681
0.2860 -7.1786 -2.0338 0.9706
2.5643 -6.1265 -1.8802 0.9728
5.3601 -4.7840 -2.0339 0.9706
5.7648 -4.2879 -2.0339 0.9706
6.1236 -3.7576 -2.0339 0.9706
7.0502 -1.3837 -2.0339 0.9706
-0.9127 -6.5491 -2.0338 0.9727
1.4308 -6.4558 -2.0338 0.9727
3.0860 -5.8482 -2.0339 0.9727
3.5944 -5.5503 -2.0339 0.9727
4.0743 -5.2083 -2.0339 0.9727
4.5218 -4.8249 -2.0339 0.9727
4.9334 -4.4032 -2.0339 0.9727
5.3059 -3.9465 -2.0339 0.9727
5.6361 -3.4585 -2.0339 0.9727
6.3498 -1.8462 -2.0339 0.9727
6.4890 -1.2735 -2.0339 0.9727
0.2436 -6.1137 -2.0338 0.9745
0.7869 -6.0678 -2.0338 0.9745
2.8555 -5.4114 -2.0339 0.9745
3.7700 -4.8193 -2.0339 0.9745
4.1841 -4.4646 -2.0339 0.9745
5.2152 -3.2002 -2.0339 0.9745
5.7001 -2.2246 -2.0339 0.9745
5.8756 -1.7083 -2.0339 0.9745
-0.2804 -5.6804 -2.0338 0.9761
0.2264 -5.6829 -2.0338 0.9761
0.7314 -5.6402 -2.0338 0.9761
1.2306 -5.5526 -2.0338 0.9761
2.6543 -5.0301 -2.0339 0.9761
3.0916 -4.7738 -2.0339 0.9761
4.2432 -3.7872 -2.0339 0.9761
4.5636 -3.3944 -2.0339 0.9761
5.0932 -2.5313 -2.0339 0.9761
5.2984 -2.0678 -2.0339 0.9761
-0.7326 -5.2565 -2.0338 0.9775
-0.2617 -5.3008 -2.0338 0.9775
0.2113 -5.3031 -2.0338 0.9775
1.1484 -5.1816 -2.0339 0.9775
1.6052 -5.0588 -2.0339 0.9775
2.4769 -4.6939 -2.0339 0.9775
2.8849 -4.4548 -2.0339 0.9775
3.6293 -3.8726 -2.0339 0.9775
3.9597 -3.5341 -2.0339 0.9775
4.2586 -3.1676 -2.0339 0.9775
4.7529 -2.3621 -2.0339 0.9775
4.9443 -1.9296 -2.0339 0.9775
5.2082 -1.0222 -2.0339 0.9775
-0.6859 -4.9218 -2.0338 0.9788
0.6391 -4.9281 -2.0339 0.9788
3.3982 -3.6260 -2.0339 0.9788
3.7076 -3.3091 -2.0339 0.9788
4.4503 -2.2117 -2.0339 0.9788
4.6295 -1.8068 -2.0339 0.9788
1.0098 -4.5562 -2.0339 0.9798
1.8018 -4.3050 -2.0339 0.9798
2.5368 -3.9171 -2.0339 0.9798
2.8754 -3.6757 -2.0339 0.9798
3.1913 -3.4052 -2.0339 0.9798
3.4818 -3.1076 -2.0339 0.9798
3.9778 -2.4409 -2.0339 0.9798
4.1793 -2.0770 -2.0339 0.9798
4.3476 -1.6967 -2.0339 0.9798
4.4814 -1.3029 -2.0339 0.9798
-0.6065 -4.3518 -2.0338 0.9808
-0.2167 -4.3885 -2.0338 0.9808
0.1749 -4.3904 -2.0339 0.9808
0.9508 -4.2898 -2.0339 0.9808
1.3289 -4.1881 -2.0339 0.9808
1.6965 -4.0532 -2.0339 0.9808
2.0505 -3.8861 -2.0339 0.9808
2.3884 -3.6881 -2.0339 0.9808
2.7073 -3.4608 -2.0339 0.9808
3.0046 -3.2061 -2.0339 0.9808
3.5257 -2.6224 -2.0339 0.9808
4.0933 -1.5975 -2.0339 0.9808
4.2193 -1.2267 -2.0339 0.9808
-0.5723 -4.1066 -2.0338 0.9817
-0.2045 -4.1413 -2.0339 0.9817
0.8972 -4.0481 -2.0339 0.9817
1.2540 -3.9521 -2.0339 0.9817
1.9350 -3.6671 -2.0339 0.9817
2.5547 -3.2658 -2.0339 0.9817
3.0935 -2.7610 -2.0339 0.9817
3.3270 -2.4746 -2.0339 0.9817
3.5341 -2.1686 -2.0339 0.9817
3.7132 -1.8454 -2.0339 0.9817
3.8627 -1.5075 -2.0339 0.9817
3.9816 -1.1576 -2.0339 0.9817
-0.5411 -3.8829 -2.0339 0.9825
0.1561 -3.9174 -2.0339 0.9825
0.5042 -3.8879 -2.0339 0.9825
1.1857 -3.7369 -2.0339 0.9825
1.5137 -3.6165 -2.0339 0.9825
2.1311 -3.2907 -2.0339 0.9825
2.4156 -3.0879 -2.0339 0.9825
2.6809 -2.8606 -2.0339 0.9825
3.3416 -2.0505 -2.0339 0.9825
3.7647 -1.0946 -2.0339 0.9825
2.1057 -0.4133 -1.1132 0.9904
-0.5126 -3.6779 -2.0339 0.9832
0.1478 -3.7105 -2.0339 0.9832
0.8035 -3.6255 -2.0339 0.9832
1.7330 -3.2843 -2.0339 0.9832
2.0185 -3.1170 -2.0339 0.9832
2.2880 -2.9249 -2.0339 0.9832
2.5394 -2.7096 -2.0339 0.9832
2.9796 -2.2163 -2.0339 0.9832
3.1652 -1.9422 -2.0339 0.9832
3.3255 -1.6527 -2.0339 0.9832
3.4595 -1.3501 -2.0339 0.9832
1.8711 -0.5440 -1.0672 0.9912
1.8557 -0.3642 -1.0357 0.9914
0.1402 -3.5200 -2.0339 0.9839
0.4530 -3.4935 -2.0339 0.9839
1.0655 -3.3578 -2.0339 0.9839
1.3601 -3.2496 -2.0339 0.9839
1.6441 -3.1156 -2.0339 0.9839
1.9149 -2.9569 -2.0339 0.9839
2.6282 -2.3458 -2.0339 0.9839
2.8267 -2.1025 -2.0339 0.9839
