ply
format ascii 1.0
element vertex 205
property float32 x
property float32 y
property float32 z
property float32 I
end_header
-11.8557 13.0461 3.1084 0.9309
-11.2993 12.4337 2.1878 0.9345
-13.0282 12.0395 2.3100 0.9309
-11.4219 12.5687 1.8237 0.9340
-12.9200 11.9396 1.8891 0.9317
-11.5466 12.7059 1.4534 0.9334
-13.5206 12.4946 1.5584 0.9288
-12.4452 13.6946 0.7297 0.9286
-11.9459 13.1453 -1.3024 0.9312
-11.9866 13.1901 -1.7111 0.9309
-16.1819 5.1845 -1.6313 0.9340
-6.4926 15.8448 -2.0340 0.9333
-7.8475 15.2191 -2.0340 0.9334
-9.1429 14.4779 -2.0340 0.9334
-13.5392 10.4817 -2.0339 0.9334
-14.4004 9.2629 -2.0339 0.9334
-15.1520 7.9737 -2.0339 0.9334
-15.7886 6.6240 -2.0338 0.9334
-16.9640 2.3160 -2.0338 0.9334
-17.1011 0.8301 -2.0338 0.9334
-17.1083 -0.6621 -2.0337 0.9334
-16.9855 -2.1493 -2.0337 0.9334
-16.7337 -3.6201 -2.0337 0.9334
-5.4431 13.2834 -2.0340 0.9437
-6.5790 12.7589 -2.0340 0.9437
-7.6649 12.1375 -2.0340 0.9437
-8.6926 11.4239 -2.0340 0.9437
-9.6542 10.6235 -2.0339 0.9437
-11.3507 8.7874 -2.0339 0.9437
-12.0726 7.7656 -2.0339 0.9437
-12.7029 6.6848 -2.0339 0.9437
-13.2366 5.5533 -2.0338 0.9437
-13.6697 4.3796 -2.0338 0.9437
-14.2220 1.9416 -2.0338 0.9437
-14.3370 0.6959 -2.0338 0.9437
-14.0291 -3.0350 -2.0337 0.9437
-4.6814 11.4248 -2.0340 0.9512
-5.6584 10.9737 -2.0340 0.9512
-6.5924 10.4392 -2.0340 0.9512
-9.7625 7.5579 -2.0339 0.9512
-10.3834 6.6790 -2.0339 0.9512
-10.9255 5.7495 -2.0339 0.9512
-11.3846 4.7763 -2.0339 0.9512
-11.7571 3.7669 -2.0338 0.9512
-12.0404 2.7287 -2.0338 0.9512
-12.2322 1.6700 -2.0338 0.9512
-12.3362 -0.4774 -2.0338 0.9512
-12.2478 -1.5498 -2.0338 0.9512
-12.0662 -2.6104 -2.0338 0.9512
-5.7779 9.1494 -2.0340 0.9569
-7.9471 7.3441 -2.0339 0.9569
-8.5564 6.6241 -2.0339 0.9569
-9.1007 5.8539 -2.0339 0.9569
-10.7210 1.4637 -2.0338 0.9569
-10.7347 -1.3583 -2.0338 0.9569
-3.6485 8.9038 -2.0340 0.9614
-4.4099 8.5523 -2.0340 0.9614
-5.1378 8.1358 -2.0339 0.9614
-6.4713 7.1210 -2.0339 0.9614
-7.0667 6.5304 -2.0339 0.9614
-7.6084 5.8902 -2.0339 0.9614
-8.0924 5.2053 -2.0339 0.9614
-8.5148 4.4809 -2.0339 0.9614
-9.6104 0.4664 -2.0338 0.9614
-9.5454 -1.2079 -2.0338 0.9614
-9.4039 -2.0344 -2.0338 0.9614
-5.2405 6.8871 -2.0339 0.9651
-5.8203 6.4046 -2.0339 0.9651
-6.3558 5.8734 -2.0339 0.9651
-6.8430 5.2977 -2.0339 0.9651
-7.2783 4.6817 -2.0339 0.9651
-7.9800 3.3479 -2.0339 0.9651
-8.2412 2.6404 -2.0339 0.9651
-8.6472 -0.3347 -2.0338 0.9651
-8.5852 -1.0864 -2.0338 0.9651
-8.4579 -1.8298 -2.0338 0.9651
-4.1945 6.6420 -2.0339 0.9681
-4.7569 6.2515 -2.0339 0.9681
-5.2831 5.8135 -2.0339 0.9681
-5.7692 5.3314 -2.0339 0.9681
-6.2115 4.8087 -2.0339 0.9681
-6.9515 3.6582 -2.0339 0.9681
-7.2436 3.0390 -2.0339 0.9681
-7.4807 2.3967 -2.0339 0.9681
-7.6609 1.7362 -2.0339 0.9681
-7.7830 1.0626 -2.0338 0.9681
-7.8493 -0.3038 -2.0338 0.9681
-7.6775 -1.6610 -2.0338 0.9681
-2.7242 6.6483 -2.0340 0.9706
-3.8362 6.0748 -2.0339 0.9706
-4.3506 5.7176 -2.0339 0.9706
-4.8319 5.3171 -2.0339 0.9706
-5.2766 4.8761 -2.0339 0.9706
-6.0424 3.8867 -2.0339 0.9706
-6.3579 3.3458 -2.0339 0.9706
-6.6250 2.7795 -2.0339 0.9706
-7.1183 0.9718 -2.0339 0.9706
-7.1759 0.3483 -2.0338 0.9706
-7.1275 -0.9019 -2.0338 0.9706
-3.5309 5.5912 -2.0339 0.9727
-4.4473 4.8938 -2.0339 0.9727
-4.8565 4.4879 -2.0339 0.9727
-5.2288 4.0480 -2.0339 0.9727
-5.5614 3.5773 -2.0339 0.9727
-5.8517 3.0795 -2.0339 0.9727
-6.2972 2.0175 -2.0339 0.9727
-6.4489 1.4615 -2.0339 0.9727
-6.6046 0.3206 -2.0338 0.9727
-6.6075 -0.2558 -2.0338 0.9727
-6.5601 -0.8301 -2.0338 0.9727
-2.3200 5.6619 -2.0339 0.9745
-3.7052 4.8694 -2.0339 0.9745
-4.1151 4.5283 -2.0339 0.9745
-4.4938 4.1527 -2.0339 0.9745
-5.6422 2.3671 -2.0339 0.9745
-5.8268 1.8669 -2.0339 0.9745
-5.9673 1.3524 -2.0339 0.9745
-6.1114 0.2966 -2.0339 0.9745
-6.1140 -0.2367 -2.0338 0.9745
-6.0701 -0.7681 -2.0338 0.9745
-5.9802 -1.2937 -2.0338 0.9745
-2.1566 5.2629 -2.0339 0.9761
-3.4441 4.5263 -2.0339 0.9761
-4.1771 3.8601 -2.0339 0.9761
-4.7833 3.0769 -2.0339 0.9761
-5.2446 2.2003 -2.0339 0.9761
-5.4162 1.7353 -2.0339 0.9761
-5.5468 1.2571 -2.0339 0.9761
-5.6807 0.2757 -2.0339 0.9761
-5.6831 -0.2200 -2.0338 0.9761
-5.6424 -0.7140 -2.0338 0.9761
-2.8339 4.4876 -2.0339 0.9775
-3.2139 4.2238 -2.0339 0.9775
-3.5695 3.9278 -2.0339 0.9775
-3.8979 3.6021 -2.0339 0.9775
-4.1968 3.2490 -2.0339 0.9775
-4.8941 2.0533 -2.0339 0.9775
-5.3011 0.2573 -2.0339 0.9775
-5.1873 -1.1222 -2.0338 0.9775
-1.8843 4.5985 -2.0339 0.9788
-3.0093 3.9549 -2.0339 0.9788
-3.6497 3.3728 -2.0339 0.9788
-3.9295 3.0421 -2.0339 0.9788
-4.3977 2.3143 -2.0339 0.9788
-2.1096 0.2880 -0.8714 0.9908
-2.1227 -0.0822 -0.8694 0.9909
-1.7695 4.3184 -2.0339 0.9798
-2.4919 3.9460 -2.0339 0.9798
-2.8260 3.7140 -2.0339 0.9798
-3.4275 3.1674 -2.0339 0.9798
-3.6903 2.8569 -2.0339 0.9798
-3.9250 2.5247 -2.0339 0.9798
-4.4443 1.4239 -2.0339 0.9798
-1.9020 0.2596 -0.8366 0.9917
-1.9181 0.0931 -0.8369 0.9917
-1.9186 -0.0743 -0.8368 0.9917
-1.9038 -0.2409 -0.8363 0.9917
-1.9032 -0.4118 -0.8486 0.9915
-1.6661 4.0659 -2.0339 0.9808
-2.3462 3.7152 -2.0339 0.9808
-2.6607 3.4968 -2.0339 0.9808
-3.4744 2.6898 -2.0339 0.9808
-3.8884 2.0463 -2.0339 0.9808
-4.0518 1.6999 -2.0339 0.9808
-1.5886 0.3600 -0.7540 0.9928
-1.6106 0.2198 -0.7524 0.9929
-1.5918 0.0772 -0.7377 0.9930
-1.5873 -0.0615 -0.7353 0.9930
-1.6102 -0.2038 -0.7513 0.9929
-2.2140 3.5059 -2.0339 0.9817
-2.5108 3.2998 -2.0339 0.9817
-3.4872 2.2431 -2.0339 0.9817
-1.2864 0.4121 -0.6626 0.9940
-1.3259 0.3005 -0.6669 0.9940
-1.3489 0.0654 -0.6625 0.9940
-1.3518 -0.1711 -0.6684 0.9939
-1.7968 3.4846 -2.0339 0.9825
-2.0934 3.3149 -2.0339 0.9825
-2.6368 2.9015 -2.0339 0.9825
-2.8793 2.6608 -2.0339 0.9825
-3.1001 2.4000 -2.0339 0.9825
-1.1147 0.4676 -0.6271 0.9946
-1.1414 0.3657 -0.6218 0.9946
-1.1969 0.1634 -0.6267 0.9946
-1.1752 -0.2543 -0.6238 0.9946
-1.7019 3.3006 -2.0339 0.9832
-1.9829 3.1398 -2.0339 0.9832
-2.2487 2.9552 -2.0339 0.9832
-2.7273 2.5203 -2.0339 0.9832
-2.9364 2.2733 -2.0339 0.9832
-3.1232 2.0090 -2.0339 0.9832
-1.0812 0.0524 -0.5929 0.9951
-1.0760 -0.1362 -0.5940 0.9951
-1.0551 -0.2283 -0.5913 0.9951
-1.6145 3.1311 -2.0339 0.9839
-1.8810 2.9786 -2.0339 0.9839
-2.1332 2.8035 -2.0339 0.9839
-2.3693 2.6071 -2.0339 0.9839
-2.5872 2.3909 -2.0339 0.9839
-2.7856 2.1565 -2.0339 0.9839
-2.9627 1.9058 -2.0339 0.9839
-0.9055 0.4765 -0.5908 0.9953
-0.9336 0.3916 -0.5845 0.9953
-0.9900 0.0480 -0.5723 0.9954
-0.9717 -0.2103 -0.5740 0.9954
