ply
format ascii 1.0
element vertex 180
property float32 x
property float32 y
property float32 z
property float32 I
end_header
-11.2310 -8.5382 -1.3544 0.9449
-15.8501 -6.4724 -2.0337 0.9334
-12.6721 -11.5120 -2.0337 0.9334
-9.2530 -14.4045 -2.0337 0.9334
-6.6055 -15.7949 -2.0337 0.9334
-3.7564 -16.7034 -2.0337 0.9334
-2.2832 -16.9677 -2.0337 0.9334
0.7040 -17.1064 -2.0337 0.9334
3.6699 -16.7231 -2.0337 0.9334
-13.7114 -4.2450 -2.0337 0.9437
-12.1412 -7.6556 -2.0337 0.9437
-11.4262 -8.6866 -2.0337 0.9437
-9.7404 -10.5423 -2.0337 0.9437
-7.7574 -12.0763 -2.0337 0.9437
-5.5378 -13.2420 -2.0337 0.9437
-3.1492 -14.0036 -2.0337 0.9437
-1.9141 -14.2252 -2.0337 0.9437
0.5902 -14.3414 -2.0337 0.9437
1.8405 -14.2352 -2.0338 0.9437
3.0767 -14.0202 -2.0338 0.9437
-11.4291 -4.6671 -2.0338 0.9512
-9.8276 -7.4713 -2.0337 0.9512
-9.1375 -8.3011 -2.0337 0.9512
-6.6721 -10.3868 -2.0337 0.9512
-5.7395 -10.9298 -2.0337 0.9512
-3.7501 -11.7618 -2.0337 0.9512
0.5077 -12.3349 -2.0338 0.9512
1.5830 -12.2435 -2.0338 0.9512
2.6463 -12.0586 -2.0338 0.9512
-10.3362 -3.2000 -2.0338 0.9569
-10.0172 -4.0905 -2.0338 0.9569
-9.6216 -4.9497 -2.0338 0.9569
-8.6136 -6.5484 -2.0338 0.9569
-7.3427 -7.9472 -2.0337 0.9569
-6.6206 -8.5581 -2.0337 0.9569
-2.3740 -10.5565 -2.0338 0.9569
-0.5009 -10.8086 -2.0338 0.9569
1.4127 -6.4375 -1.2388 0.9735
-9.1911 -2.8455 -2.0338 0.9614
-8.5557 -4.4014 -2.0338 0.9614
-8.1386 -5.1318 -2.0338 0.9614
-7.1215 -6.4696 -2.0338 0.9614
-6.5293 -7.0668 -2.0338 0.9614
-5.8871 -7.6101 -2.0338 0.9614
-5.2000 -8.0951 -2.0338 0.9614
-4.4732 -8.5183 -2.0338 0.9614
-3.7121 -8.8764 -2.0338 0.9614
-2.9227 -9.1667 -2.0338 0.9614
-2.1110 -9.3870 -2.0338 0.9614
-0.4454 -9.6112 -2.0338 0.9614
0.3956 -9.6134 -2.0338 0.9614
1.2337 -9.5421 -2.0338 0.9614
-8.2665 -2.5593 -2.0338 0.9651
-8.0114 -3.2715 -2.0338 0.9651
-7.3199 -4.6155 -2.0338 0.9651
-6.8888 -5.2372 -2.0338 0.9651
-6.4051 -5.8188 -2.0338 0.9651
-4.6770 -7.2808 -2.0338 0.9651
-4.0232 -7.6614 -2.0338 0.9651
-3.3387 -7.9835 -2.0338 0.9651
-1.8987 -8.4427 -2.0338 0.9651
-0.4006 -8.6443 -2.0338 0.9651
-7.2721 -2.9696 -2.0338 0.9681
-5.8141 -5.2818 -2.0338 0.9681
-5.3306 -5.7694 -2.0338 0.9681
-4.8063 -6.2129 -2.0338 0.9681
-4.2454 -6.6089 -2.0338 0.9681
-3.6520 -6.9545 -2.0338 0.9681
-3.0306 -7.2468 -2.0338 0.9681
-2.3861 -7.4838 -2.0338 0.9681
-1.0476 -7.7849 -2.0338 0.9681
-0.3637 -7.8466 -2.0338 0.9681
1.3487 -6.1459 -1.6291 0.9743
-6.6511 -2.7160 -2.0338 0.9706
-5.7192 -4.3479 -2.0338 0.9706
-4.3959 -5.6824 -2.0338 0.9706
-3.8829 -6.0446 -2.0338 0.9706
-3.3401 -6.3606 -2.0338 0.9706
-2.7718 -6.6280 -2.0338 0.9706
-2.1824 -6.8448 -2.0338 0.9706
-0.3326 -7.1766 -2.0338 0.9706
0.9212 -7.1250 -2.0338 0.9706
1.4205 -6.4731 -1.8761 0.9728
-6.3166 -1.9556 -2.0338 0.9727
-6.1216 -2.4998 -2.0338 0.9727
-5.8799 -3.0248 -2.0338 0.9727
-5.2639 -4.0018 -2.0338 0.9727
-4.8943 -4.4463 -2.0338 0.9727
-4.0460 -5.2300 -2.0338 0.9727
-3.5738 -5.5634 -2.0338 0.9727
-2.0087 -6.2999 -2.0338 0.9727
-1.4508 -6.4513 -2.0338 0.9727
0.8479 -6.5579 -2.0338 0.9727
-5.8448 -1.8095 -2.0338 0.9745
-5.1755 -3.2634 -2.0338 0.9745
-4.5287 -4.1142 -2.0338 0.9745
-4.1521 -4.4940 -2.0338 0.9745
-3.7437 -4.8394 -2.0338 0.9745
-1.3424 -5.9694 -2.0338 0.9745
-0.8160 -6.0639 -2.0338 0.9745
-0.2833 -6.1120 -2.0338 0.9745
0.2516 -6.1134 -2.0338 0.9745
1.3115 -5.9764 -2.0338 0.9745
-5.2653 -2.1501 -2.0338 0.9761
-3.0738 -4.7851 -2.0338 0.9761
-2.1943 -5.2470 -2.0338 0.9761
-1.7277 -5.4186 -2.0338 0.9761
-0.7585 -5.6366 -2.0338 0.9761
-0.2633 -5.6813 -2.0338 0.9761
0.7293 -5.6404 -2.0338 0.9761
-5.0698 -1.5696 -2.0338 0.9775
-4.4893 -2.8307 -2.0338 0.9775
-3.9282 -3.5687 -2.0338 0.9775
-3.2474 -4.1978 -2.0338 0.9775
-2.8684 -4.4653 -2.0338 0.9775
-1.6122 -5.0565 -2.0338 0.9775
-1.1645 -5.1779 -2.0338 0.9775
-0.7078 -5.2599 -2.0338 0.9775
-0.2457 -5.3016 -2.0338 0.9775
0.6805 -5.2635 -2.0338 0.9775
-4.4189 -2.2733 -2.0338 0.9788
-4.2035 -2.6505 -2.0338 0.9788
-3.6782 -3.3415 -2.0338 0.9788
-3.3723 -3.6499 -2.0338 0.9788
-2.6858 -4.1810 -2.0338 0.9788
-0.6627 -4.9250 -2.0338 0.9788
0.6372 -4.9284 -2.0339 0.9788
-4.3204 -1.7642 -2.0338 0.9798
-4.1498 -2.1348 -2.0338 0.9798
-3.4542 -3.1380 -2.0338 0.9798
-1.8005 -4.3054 -2.0338 0.9798
-1.4177 -4.4462 -2.0338 0.9798
0.1919 -4.6629 -2.0338 0.9798
0.5984 -4.6282 -2.0339 0.9798
-3.9071 -2.0100 -2.0338 0.9808
-3.7167 -2.3435 -2.0338 0.9808
-3.2522 -2.9545 -2.0338 0.9808
-2.9818 -3.2272 -2.0338 0.9808
-2.6885 -3.4753 -2.0338 0.9808
-1.6952 -4.0537 -2.0338 0.9808
-0.2034 -4.3892 -2.0338 0.9808
0.9418 -4.2918 -2.0339 0.9808
-3.5073 -2.2115 -2.0338 0.9817
-3.3007 -2.5093 -2.0338 0.9817
-3.0689 -2.7880 -2.0338 0.9817
-1.9277 -3.6709 -2.0338 0.9817
-1.5997 -3.8253 -2.0338 0.9817
-1.2595 -3.9504 -2.0338 0.9817
-0.9097 -4.0453 -2.0338 0.9817
0.5316 -4.1121 -2.0339 0.9817
0.8887 -4.0500 -2.0339 0.9817
-1.1452 -0.3546 -0.6219 0.9946
-1.1184 -0.4568 -0.6267 0.9946
-3.3162 -2.0911 -2.0338 0.9825
-2.6605 -2.8795 -2.0338 0.9825
-2.1189 -3.2986 -2.0338 0.9825
-1.8227 -3.4710 -2.0338 0.9825
-1.5126 -3.6169 -2.0338 0.9825
-0.1815 -3.9163 -2.0339 0.9825
0.1612 -3.9172 -2.0339 0.9825
-1.0107 -0.4127 -0.5979 0.9950
-3.1411 -1.9806 -2.0339 0.9832
-2.0070 -3.1244 -2.0338 0.9832
-1.7264 -3.2877 -2.0338 0.9832
-1.4327 -3.4259 -2.0338 0.9832
-0.8148 -3.6230 -2.0339 0.9832
-0.4952 -3.6803 -2.0339 0.9832
-0.1720 -3.7095 -2.0339 0.9832
0.1527 -3.7103 -2.0339 0.9832
-0.9549 -0.2957 -0.5771 0.9954
-0.9362 -0.3823 -0.5839 0.9953
-2.8043 -2.1320 -2.0339 0.9839
-2.6074 -2.3687 -2.0339 0.9839
-2.3906 -2.5874 -2.0339 0.9839
-2.1555 -2.7863 -2.0339 0.9839
-1.9039 -2.9639 -2.0339 0.9839
-1.6378 -3.1189 -2.0339 0.9839
-1.3592 -3.2500 -2.0339 0.9839
-0.7729 -3.4369 -2.0339 0.9839
-0.4698 -3.4913 -2.0339 0.9839
