ply
format ascii 1.0
element vertex 178
property float32 x
property float32 y
property float32 z
property float32 I
end_header
2.8605 -6.0986 -0.6467 0.9733
0.0829 -17.1206 -2.0337 0.9334
1.5659 -17.0492 -2.0337 0.9334
3.0371 -16.8495 -2.0337 0.9334
1.7695 -6.5182 -0.8023 0.9732
2.2869 -6.2295 -0.7883 0.9736
2.7646 -5.8941 -0.7733 0.9741
8.5866 -14.8129 -2.0338 0.9334
9.8378 -14.0134 -2.0338 0.9334
12.1095 -12.1049 -2.0339 0.9334
13.1129 -11.0104 -2.0339 0.9334
14.0176 -9.8330 -2.0339 0.9334
15.5049 -7.2656 -2.0340 0.9334
-1.1744 -14.3054 -2.0337 0.9437
0.0695 -14.3534 -2.0337 0.9437
1.3128 -14.2934 -2.0338 0.9437
2.5462 -14.1261 -2.0338 0.9437
2.7722 -5.9103 -0.9250 0.9740
8.2476 -11.7482 -2.0338 0.9437
9.2345 -10.9896 -2.0339 0.9437
10.1521 -10.1482 -2.0339 0.9437
10.9932 -9.2306 -2.0339 0.9437
12.4218 -7.1944 -2.0339 0.9437
13.4776 -4.9421 -2.0340 0.9437
-2.0723 -12.1701 -2.0337 0.9512
-1.0100 -12.3039 -2.0338 0.9512
2.1900 -12.1497 -2.0338 0.9512
2.2172 -6.0396 -1.0599 0.9743
2.7507 -5.8643 -1.0671 0.9741
6.1914 -10.6810 -2.0338 0.9512
7.9425 -9.4520 -2.0339 0.9512
8.7316 -8.7283 -2.0339 0.9512
11.1798 -5.2389 -2.0339 0.9512
-0.8853 -10.7839 -2.0338 0.9569
1.6423 -6.0494 -1.1782 0.9748
3.5278 -6.0859 -1.3222 0.9718
7.6529 -7.6500 -2.0339 0.9569
8.8587 -6.2141 -2.0339 0.9569
9.3639 -5.4233 -2.0339 0.9569
9.7986 -4.5916 -2.0339 0.9569
10.1596 -3.7254 -2.0339 0.9569
-0.7872 -9.5892 -2.0338 0.9614
0.0466 -9.6214 -2.0338 0.9614
1.7068 -9.4690 -2.0338 0.9614
2.1249 -5.7881 -1.3033 0.9751
3.3180 -5.7240 -1.3985 0.9733
6.1900 -7.3665 -2.0339 0.9614
7.3688 -6.1873 -2.0339 0.9614
7.8773 -5.5257 -2.0339 0.9614
9.0340 -3.3126 -2.0339 0.9614
-0.7080 -8.6246 -2.0338 0.9651
0.0419 -8.6535 -2.0338 0.9651
0.7915 -8.6174 -2.0338 0.9651
1.6077 -5.9220 -1.4422 0.9751
2.0983 -5.7157 -1.4310 0.9753
2.7107 -5.7792 -1.5002 0.9741
3.3559 -5.7895 -1.5727 0.9729
5.5673 -6.6254 -2.0339 0.9651
6.6275 -5.5649 -2.0339 0.9651
7.0848 -4.9698 -2.0339 0.9651
7.4887 -4.3373 -2.0339 0.9651
7.8364 -3.6722 -2.0339 0.9651
8.1252 -2.9794 -2.0339 0.9651
0.0380 -7.8550 -2.0338 0.9681
1.3935 -7.7305 -2.0338 0.9681
3.4032 -5.8709 -1.7570 0.9724
6.0159 -5.0513 -2.0339 0.9681
6.7977 -3.9370 -2.0339 0.9681
-1.2059 -7.0823 -2.0338 0.9706
0.0348 -7.1842 -2.0338 0.9706
0.6571 -7.1542 -2.0338 0.9706
1.6256 -5.9881 -1.7565 0.9745
2.7770 -5.9204 -1.8512 0.9732
4.6220 -5.5004 -2.0339 0.9706
5.0812 -5.0793 -2.0339 0.9706
5.5021 -4.6200 -2.0339 0.9706
6.7455 -2.4735 -2.0339 0.9706
-0.5410 -6.5902 -2.0338 0.9727
0.0320 -6.6123 -2.0338 0.9727
0.6048 -6.5847 -2.0338 0.9727
2.2788 -6.2074 -2.0339 0.9727
3.3162 -5.7209 -2.0339 0.9727
3.7994 -5.4120 -2.0339 0.9727
4.2540 -5.0625 -2.0339 0.9727
5.4135 -3.7974 -2.0339 0.9727
5.7222 -3.3142 -2.0339 0.9727
-0.5006 -6.0980 -2.0338 0.9745
0.0296 -6.1185 -2.0338 0.9745
1.0854 -6.0215 -2.0338 0.9745
3.9363 -4.6844 -2.0339 0.9745
4.3273 -4.3258 -2.0339 0.9745
5.7448 -2.1066 -2.0339 0.9745
-0.4654 -5.6683 -2.0338 0.9761
0.5202 -5.6635 -2.0338 0.9761
1.0089 -5.5972 -2.0338 0.9761
2.4152 -5.1491 -2.0339 0.9761
2.8522 -4.9205 -2.0339 0.9761
3.2679 -4.6549 -2.0339 0.9761
3.6589 -4.3543 -2.0339 0.9761
4.0224 -4.0210 -2.0339 0.9761
4.3557 -3.6573 -2.0339 0.9761
4.6562 -3.2662 -2.0339 0.9761
5.3399 -1.9581 -2.0339 0.9761
-0.8909 -5.2320 -2.0338 0.9775
0.0257 -5.3072 -2.0338 0.9775
0.4854 -5.2850 -2.0338 0.9775
1.8290 -4.9822 -2.0339 0.9775
2.2538 -4.8050 -2.0339 0.9775
3.0495 -4.3438 -2.0339 0.9775
3.7536 -3.7522 -2.0339 0.9775
4.0646 -3.4129 -2.0339 0.9775
4.5928 -2.6600 -2.0339 0.9775
4.8060 -2.2521 -2.0339 0.9775
0.8816 -4.8906 -2.0339 0.9788
2.1103 -4.4991 -2.0339 0.9788
2.4922 -4.2994 -2.0339 0.9788
3.5146 -3.5133 -2.0339 0.9788
3.8058 -3.1956 -2.0339 0.9788
4.3004 -2.4907 -2.0339 0.9788
4.5000 -2.1087 -2.0339 0.9788
4.6658 -1.7109 -2.0339 0.9788
-0.3818 -4.6511 -2.0338 0.9798
0.4268 -4.6472 -2.0339 0.9798
2.3404 -4.0375 -2.0339 0.9798
3.0023 -3.5729 -2.0339 0.9798
3.3005 -3.2994 -2.0339 0.9798
3.8207 -2.6800 -2.0339 0.9798
4.0385 -2.3390 -2.0339 0.9798
4.3817 -1.6067 -2.0339 0.9798
-0.3595 -4.3791 -2.0338 0.9808
0.4019 -4.3755 -2.0339 0.9808
1.1512 -4.2404 -2.0339 0.9808
1.8659 -3.9781 -2.0339 0.9808
3.3651 -2.8255 -2.0339 0.9808
3.5972 -2.5233 -2.0339 0.9808
3.8023 -2.2022 -2.0339 0.9808
-0.6960 -4.0875 -2.0338 0.9817
0.3792 -4.1289 -2.0339 0.9817
0.7355 -4.0806 -2.0339 0.9817
2.0794 -3.5872 -2.0339 0.9817
2.6674 -3.1744 -2.0339 0.9817
2.9325 -2.9314 -2.0339 0.9817
3.1755 -2.6663 -2.0339 0.9817
3.7546 -1.7594 -2.0339 0.9817
3.8930 -1.4275 -2.0339 0.9817
-0.6581 -3.8648 -2.0339 0.9825
-0.3208 -3.9073 -2.0339 0.9825
0.3586 -3.9040 -2.0339 0.9825
1.3511 -3.6804 -2.0339 0.9825
1.9661 -3.3919 -2.0339 0.9825
2.2526 -3.2088 -2.0339 0.9825
2.5222 -3.0015 -2.0339 0.9825
2.7728 -2.7717 -2.0339 0.9825
3.0025 -2.5211 -2.0339 0.9825
3.2096 -2.2514 -2.0339 0.9825
3.5502 -1.6636 -2.0339 0.9825
3.6810 -1.3497 -2.0339 0.9825
-0.6234 -3.6607 -2.0339 0.9832
-0.3038 -3.7010 -2.0339 0.9832
0.0180 -3.7134 -2.0339 0.9832
0.3396 -3.6979 -2.0339 0.9832
0.6587 -3.6546 -2.0339 0.9832
1.2797 -3.4860 -2.0339 0.9832
1.8623 -3.2128 -2.0339 0.9832
2.3890 -2.8430 -2.0339 0.9832
2.6264 -2.6253 -2.0339 0.9832
2.8439 -2.3879 -2.0339 0.9832
3.2135 -1.8612 -2.0339 0.9832
3.3626 -1.5757 -2.0339 0.9832
-0.5913 -3.4728 -2.0339 0.9839
0.0170 -3.5227 -2.0339 0.9839
0.3222 -3.5080 -2.0339 0.9839
0.6249 -3.4669 -2.0339 0.9839
0.9229 -3.3997 -2.0339 0.9839
1.7666 -3.0478 -2.0339 0.9839
2.0241 -2.8832 -2.0339 0.9839
2.2663 -2.6971 -2.0339 0.9839
2.6979 -2.2653 -2.0339 0.9839
