ply
format ascii 1.0
element vertex 175
property float32 x
property float32 y
property float32 z
property float32 I
end_header
2.8488 -6.1095 -0.6472 0.9733
-3.0420 -16.8482 -2.0337 0.9334
-1.5521 -17.0502 -2.0337 0.9334
-0.0502 -17.1207 -2.0337 0.9334
1.4522 -17.0593 -2.0337 0.9334
2.9433 -16.8661 -2.0337 0.9334
4.4119 -16.5430 -2.0338 0.9334
2.3434 -6.4504 -0.8152 0.9727
2.7611 -5.9213 -0.7761 0.9740
9.8370 -14.0140 -2.0338 0.9334
12.1354 -12.0790 -2.0339 0.9334
13.1485 -10.9678 -2.0339 0.9334
14.0602 -9.7720 -2.0339 0.9334
15.5521 -7.1639 -2.0340 0.9334
-2.5503 -14.1250 -2.0337 0.9437
-0.0420 -14.3535 -2.0337 0.9437
1.2175 -14.3019 -2.0338 0.9437
1.7227 -6.4598 -0.9473 0.9734
7.1842 -12.4269 -2.0338 0.9437
8.2469 -11.7487 -2.0338 0.9437
10.1737 -10.1265 -2.0339 0.9437
11.7874 -8.1924 -2.0339 0.9437
-3.2509 -11.9095 -2.0337 0.9512
-2.1935 -12.1489 -2.0337 0.9512
1.0471 -12.3009 -2.0338 0.9512
2.1224 -12.1617 -2.0338 0.9512
2.2006 -6.0573 -1.0617 0.9742
2.7264 -5.8469 -1.0628 0.9742
10.1381 -7.0461 -2.0339 0.9512
10.7173 -6.1295 -2.0339 0.9512
11.2138 -5.1656 -2.0339 0.9512
-2.8493 -10.4382 -2.0338 0.9569
-1.9225 -10.6480 -2.0338 0.9569
-0.0317 -10.8202 -2.0338 0.9569
2.1442 -5.9021 -1.1803 0.9748
3.5218 -6.0919 -1.3226 0.9718
7.6692 -7.6336 -2.0339 0.9569
8.3095 -6.9313 -2.0339 0.9569
9.8284 -4.5274 -2.0339 0.9569
-0.8722 -9.5819 -2.0338 0.9614
-0.0282 -9.6215 -2.0338 0.9614
1.6493 -6.1843 -1.3529 0.9742
2.1212 -5.8389 -1.3132 0.9749
2.7094 -5.8104 -1.3552 0.9741
6.1977 -7.3600 -2.0339 0.9614
6.8195 -6.7879 -2.0339 0.9614
7.9011 -5.4914 -2.0339 0.9614
-2.2788 -8.3482 -2.0338 0.9651
-1.5375 -8.5159 -2.0338 0.9651
1.4877 -8.5249 -2.0338 0.9651
4.9719 -7.0831 -2.0339 0.9651
5.5742 -6.6196 -2.0339 0.9651
6.1335 -6.1050 -2.0339 0.9651
6.6455 -5.5434 -2.0339 0.9651
7.1063 -4.9390 -2.0339 0.9651
0.6663 -7.8268 -2.0338 0.9681
1.3504 -7.7382 -2.0338 0.9681
2.6336 -5.6479 -1.6135 0.9746
4.5130 -6.4295 -2.0339 0.9681
5.0598 -6.0087 -2.0339 0.9681
6.0323 -5.0318 -2.0339 0.9681
6.4505 -4.4832 -2.0339 0.9681
6.8190 -3.9000 -2.0339 0.9681
7.1349 -3.2866 -2.0339 0.9681
-1.8919 -6.9307 -2.0338 0.9706
-0.0211 -7.1843 -2.0338 0.9706
2.7550 -5.9080 -1.8454 0.9733
4.1277 -5.8804 -2.0339 0.9706
4.6277 -5.4956 -2.0339 0.9706
5.0920 -5.0684 -2.0339 0.9706
5.5171 -4.6021 -2.0339 0.9706
6.2366 -3.5669 -2.0339 0.9706
6.5256 -3.0060 -2.0339 0.9706
-1.7413 -6.3790 -2.0338 0.9727
-0.0194 -6.6124 -2.0338 0.9727
1.1368 -6.5140 -2.0338 0.9727
1.7039 -6.3891 -2.0338 0.9727
4.6866 -4.6649 -2.0339 0.9727
5.4300 -3.7739 -2.0339 0.9727
5.7402 -3.2830 -2.0339 0.9727
-1.6112 -5.9025 -2.0338 0.9745
-0.5547 -6.0933 -2.0338 0.9745
0.5190 -6.0965 -2.0338 0.9745
3.0623 -5.2971 -2.0339 0.9745
3.5153 -5.0080 -2.0339 0.9745
3.9411 -4.6803 -2.0339 0.9745
4.6986 -3.9194 -2.0339 0.9745
5.0244 -3.4921 -2.0339 0.9745
5.3114 -3.0378 -2.0339 0.9745
-0.5156 -5.6639 -2.0338 0.9761
-0.0166 -5.6873 -2.0338 0.9761
0.4824 -5.6669 -2.0338 0.9761
0.9777 -5.6027 -2.0338 0.9761
2.8466 -4.9238 -2.0339 0.9761
4.0310 -4.0123 -2.0339 0.9761
4.3675 -3.6432 -2.0339 0.9761
4.6703 -3.2460 -2.0339 0.9761
-1.3976 -5.1200 -2.0338 0.9775
0.4502 -5.2882 -2.0338 0.9775
0.9124 -5.2283 -2.0338 0.9775
1.3676 -5.1281 -2.0339 0.9775
1.8123 -4.9883 -2.0339 0.9775
2.2429 -4.8101 -2.0339 0.9775
3.0492 -4.3440 -2.0339 0.9775
3.4186 -4.0597 -2.0339 0.9775
3.7616 -3.7441 -2.0339 0.9775
4.0756 -3.3997 -2.0339 0.9775
4.6072 -2.6350 -2.0339 0.9775
4.8206 -2.2206 -2.0339 0.9775
-1.3086 -4.7940 -2.0338 0.9788
0.4215 -4.9515 -2.0338 0.9788
2.1002 -4.5039 -2.0339 0.9788
2.4872 -4.3022 -2.0339 0.9788
3.2009 -3.8013 -2.0339 0.9788
3.5221 -3.5058 -2.0339 0.9788
3.8162 -3.1832 -2.0339 0.9788
4.0807 -2.8362 -2.0339 0.9788
4.3139 -2.4672 -2.0339 0.9788
-0.8292 -4.5925 -2.0338 0.9798
-0.0137 -4.6668 -2.0338 0.9798
1.2025 -4.5092 -2.0339 0.9798
1.5935 -4.3863 -2.0339 0.9798
1.9722 -4.2296 -2.0339 0.9798
3.3076 -3.2923 -2.0339 0.9798
3.5838 -2.9894 -2.0339 0.9798
3.8322 -2.6635 -2.0339 0.9798
4.2389 -1.9526 -2.0339 0.9798
-1.1571 -4.2388 -2.0338 0.9808
-0.7807 -4.3239 -2.0338 0.9808
-0.3983 -4.3758 -2.0338 0.9808
0.7554 -4.3285 -2.0339 0.9808
1.1322 -4.2455 -2.0339 0.9808
1.5004 -4.1298 -2.0339 0.9808
2.5245 -3.5964 -2.0339 0.9808
2.8302 -3.3610 -2.0339 0.9808
3.1142 -3.0998 -2.0339 0.9808
3.3742 -2.8146 -2.0339 0.9808
3.8143 -2.1815 -2.0339 0.9808
3.9910 -1.8384 -2.0339 0.9808
-1.0919 -4.0000 -2.0338 0.9817
-0.3759 -4.1293 -2.0339 0.9817
-0.0121 -4.1463 -2.0339 0.9817
1.0684 -4.0063 -2.0339 0.9817
1.7523 -3.7579 -2.0339 0.9817
2.3822 -3.3937 -2.0339 0.9817
3.5993 -2.0586 -2.0339 0.9817
3.7661 -1.7348 -2.0339 0.9817
-0.6966 -3.8581 -2.0339 0.9825
-0.3554 -3.9043 -2.0339 0.9825
-0.0115 -3.9205 -2.0339 0.9825
1.3387 -3.6849 -2.0339 0.9825
2.7787 -2.7658 -2.0339 0.9825
3.2194 -2.2375 -2.0339 0.9825
3.5610 -1.6403 -2.0339 0.9825
-0.9779 -3.5824 -2.0339 0.9832
-0.6598 -3.6543 -2.0339 0.9832
0.9569 -3.5881 -2.0339 0.9832
1.5694 -3.3656 -2.0339 0.9832
1.8586 -3.2149 -2.0339 0.9832
2.1335 -3.0395 -2.0339 0.9832
2.3920 -2.8405 -2.0339 0.9832
2.8517 -2.3787 -2.0339 0.9832
3.0494 -2.1193 -2.0339 0.9832
3.3729 -1.5537 -2.0339 0.9832
-0.6259 -3.4667 -2.0339 0.9839
-0.3194 -3.5082 -2.0339 0.9839
-0.0104 -3.5227 -2.0339 0.9839
0.2988 -3.5101 -2.0339 0.9839
0.6056 -3.4703 -2.0339 0.9839
0.9077 -3.4038 -2.0339 0.9839
1.4887 -3.1927 -2.0339 0.9839
1.7631 -3.0498 -2.0339 0.9839
2.2692 -2.6947 -2.0339 0.9839
2.7052 -2.2566 -2.0339 0.9839
2.8928 -2.0105 -2.0339 0.9839
