ply
format ascii 1.0
element vertex 214
property float32 x
property float32 y
property float32 z
property float32 I
end_header
2.2640 18.7371 3.3279 0.9262
-12.6966 12.9850 3.2022 0.9289
2.1316 17.6414 2.7222 0.9306
-12.3658 12.6468 2.7097 0.9309
-11.2617 13.7924 2.3187 0.9307
-11.6975 11.9632 2.1788 0.9347
2.2279 18.4391 1.9944 0.9280
-11.0928 13.5856 1.8834 0.9319
3.7369 17.5595 1.5197 0.9305
2.2693 18.7820 1.6015 0.9269
-11.3145 13.8572 1.5144 0.9307
3.8938 18.2971 1.1600 0.9278
2.1816 18.0557 0.7171 0.9298
2.2356 18.5029 0.3148 0.9282
3.8354 18.0227 -0.1037 0.9289
6.4878 15.8478 -2.0341 0.9333
5.0462 16.3639 -2.0341 0.9333
3.5644 16.7491 -2.0341 0.9333
2.0541 17.0005 -2.0341 0.9333
0.5274 17.1159 -2.0341 0.9333
-1.0036 17.0945 -2.0341 0.9333
-1.7810 7.3568 -0.8991 0.9700
-6.9259 15.6602 -2.0340 0.9334
-13.0164 11.1245 -2.0339 0.9334
-13.9579 9.9172 -2.0339 0.9334
-14.7877 8.6307 -2.0339 0.9334
-15.4994 7.2753 -2.0338 0.9334
4.2305 13.7185 -2.0341 0.9437
1.7220 14.2522 -2.0341 0.9437
0.4421 14.3490 -2.0341 0.9437
-1.1036 7.3977 -1.0598 0.9702
-4.6105 13.5949 -2.0340 0.9437
-6.9557 12.5574 -2.0340 0.9437
-10.0358 10.2638 -2.0339 0.9437
-12.3974 7.2357 -2.0339 0.9437
4.6779 11.4267 -2.0341 0.9512
2.5701 12.0767 -2.0341 0.9512
-3.9654 11.6927 -2.0340 0.9512
-5.9825 10.8004 -2.0340 0.9512
-6.9232 10.2228 -2.0340 0.9512
-7.8086 9.5634 -2.0339 0.9512
-9.3855 8.0213 -2.0339 0.9512
-10.0644 7.1509 -2.0339 0.9512
-11.1760 5.2459 -2.0339 0.9512
1.2981 10.7434 -2.0340 0.9569
-1.0685 7.1628 -1.3612 0.9710
-1.7518 7.2357 -1.3993 0.9702
-4.3769 9.8966 -2.0340 0.9569
-5.2434 9.4660 -2.0340 0.9569
-6.0679 8.9597 -2.0339 0.9569
-6.8439 8.3819 -2.0339 0.9569
-9.3455 5.4544 -2.0339 0.9569
2.8356 9.1953 -2.0340 0.9614
2.0029 9.4118 -2.0340 0.9614
1.1543 9.5531 -2.0340 0.9614
0.2964 9.6180 -2.0340 0.9614
-2.4497 7.2234 -1.6123 0.9693
-4.6625 8.4172 -2.0340 0.9614
-6.7271 6.8798 -2.0339 0.9614
-8.3101 4.8501 -2.0339 0.9614
-8.7100 4.0884 -2.0339 0.9614
2.5503 8.2702 -2.0340 0.9651
1.8014 8.4649 -2.0340 0.9651
0.2666 8.6504 -2.0340 0.9651
-1.0882 7.2948 -1.7334 0.9701
-3.5004 7.9148 -2.0340 0.9651
-4.1934 7.5704 -2.0339 0.9651
-4.8529 7.1656 -2.0339 0.9651
-5.4734 6.7034 -2.0339 0.9651
2.9762 7.2702 -2.0340 0.9681
2.3150 7.5070 -2.0340 0.9681
0.9423 7.7990 -2.0340 0.9681
-3.1774 7.1843 -2.0340 0.9681
-4.4050 6.5043 -2.0339 0.9681
-6.4036 4.5498 -2.0339 0.9681
-7.1109 3.3378 -2.0339 0.9681
2.7221 6.6493 -2.0340 0.9706
2.1173 6.8658 -2.0340 0.9706
1.4955 7.0275 -2.0340 0.9706
0.8618 7.1330 -2.0340 0.9706
-0.4211 7.1725 -2.0340 0.9706
-5.4617 4.6678 -2.0339 0.9706
-6.5036 3.0528 -2.0339 0.9706
2.5054 6.1200 -2.0340 0.9727
0.2036 6.6097 -2.0340 0.9727
-0.3875 6.6015 -2.0340 0.9727
-1.5559 6.4271 -2.0340 0.9727
-2.6747 6.0477 -2.0339 0.9727
-3.2042 5.7846 -2.0339 0.9727
-4.6230 4.7281 -2.0339 0.9727
-5.0269 4.2962 -2.0339 0.9727
-5.7110 3.3332 -2.0339 0.9727
2.3182 5.6628 -2.0340 0.9745
1.8032 5.8472 -2.0340 0.9745
1.2736 5.9849 -2.0340 0.9745
0.7340 6.0748 -2.0340 0.9745
0.1884 6.1160 -2.0340 0.9745
-1.9652 5.7947 -2.0339 0.9745
-2.4749 5.5960 -2.0339 0.9745
-3.4311 5.0663 -2.0339 0.9745
-3.8699 4.7396 -2.0339 0.9745
-4.2778 4.3749 -2.0339 0.9745
-4.9879 3.5440 -2.0339 0.9745
-5.2845 3.0842 -2.0339 0.9745
-5.5388 2.5999 -2.0339 0.9745
2.1549 5.2637 -2.0340 0.9761
1.6761 5.4352 -2.0340 0.9761
1.1839 5.5631 -2.0340 0.9761
0.6823 5.6466 -2.0340 0.9761
0.1752 5.6850 -2.0340 0.9761
-0.3333 5.6779 -2.0340 0.9761
-0.8392 5.6254 -2.0340 0.9761
-1.3383 5.5280 -2.0340 0.9761
-1.8267 5.3863 -2.0339 0.9761
-2.3005 5.2016 -2.0339 0.9761
-3.5972 4.4055 -2.0339 0.9761
-4.3236 3.6952 -2.0339 0.9761
-4.9120 2.8669 -2.0339 0.9761
-5.1485 2.4167 -2.0339 0.9761
2.0109 4.9119 -2.0340 0.9775
1.1048 5.1913 -2.0340 0.9775
0.1635 5.3051 -2.0340 0.9775
-0.3111 5.2984 -2.0340 0.9775
-1.7046 5.0263 -2.0339 0.9775
-2.5718 4.6428 -2.0339 0.9775
-2.9761 4.3945 -2.0339 0.9775
-4.0346 3.4482 -2.0339 0.9775
-4.3265 3.0740 -2.0339 0.9775
-4.5838 2.6753 -2.0339 0.9775
-4.8044 2.2552 -2.0339 0.9775
1.8828 4.5992 -2.0340 0.9787
1.4645 4.7490 -2.0340 0.9787
1.0344 4.8608 -2.0340 0.9787
0.1530 4.9673 -2.0340 0.9788
-0.2912 4.9611 -2.0340 0.9788
-0.7332 4.9152 -2.0339 0.9788
-1.1693 4.8301 -2.0339 0.9788
-2.4080 4.3472 -2.0339 0.9788
-2.7867 4.1147 -2.0339 0.9788
-3.4743 3.5532 -2.0339 0.9788
-3.7778 3.2287 -2.0339 0.9788
-4.0511 2.8783 -2.0339 0.9788
-4.2920 2.5050 -2.0339 0.9788
-4.4986 2.1116 -2.0339 0.9788
1.3753 4.4598 -2.0340 0.9798
0.9714 4.5648 -2.0340 0.9798
0.5598 4.6333 -2.0340 0.9798
-0.6886 4.6159 -2.0339 0.9798
-1.0981 4.5359 -2.0339 0.9798
-1.4989 4.4197 -2.0339 0.9798
-1.8876 4.2681 -2.0339 0.9798
-3.5477 3.0321 -2.0339 0.9798
-3.8043 2.7030 -2.0339 0.9798
-4.2246 1.9830 -2.0339 0.9798
1.2949 4.1990 -2.0340 0.9808
0.9146 4.2978 -2.0340 0.9808
0.5271 4.3623 -2.0340 0.9808
-0.6483 4.3460 -2.0339 0.9808
-1.0339 4.2707 -2.0339 0.9808
-1.4112 4.1613 -2.0339 0.9808
-2.1291 3.8438 -2.0339 0.9808
-2.7790 3.4035 -2.0339 0.9808
-3.3403 2.8548 -2.0339 0.9808
-3.9775 1.8670 -2.0339 0.9808
1.5709 3.8374 -2.0340 0.9817
0.4974 4.1165 -2.0340 0.9817
0.1277 4.1445 -2.0339 0.9817
-0.2430 4.1393 -2.0339 0.9817
-0.9756 4.0300 -2.0339 0.9817
-1.6771 3.7921 -2.0339 0.9817
-2.0091 3.6271 -2.0339 0.9817
-2.3251 3.4332 -2.0339 0.9817
-3.1521 2.6939 -2.0339 0.9817
-3.3800 2.4016 -2.0339 0.9817
-3.5811 2.0901 -2.0339 0.9817
-3.7534 1.7618 -2.0339 0.9817
1.1554 3.7465 -2.0340 0.9825
0.8161 3.8347 -2.0340 0.9825
0.4703 3.8923 -2.0339 0.9825
-0.2298 3.9139 -2.0339 0.9825
-0.5784 3.8777 -2.0339 0.9825
-1.2591 3.7129 -2.0339 0.9825
-1.5857 3.5856 -2.0339 0.9825
-1.8997 3.4296 -2.0339 0.9825
-2.1984 3.2462 -2.0339 0.9825
-3.3860 1.9762 -2.0339 0.9825
-3.5490 1.6659 -2.0339 0.9825
1.4070 3.4368 -2.0340 0.9832
1.0943 3.5487 -2.0339 0.9832
0.7730 3.6322 -2.0339 0.9832
0.4454 3.6868 -2.0339 0.9832
-0.2176 3.7072 -2.0339 0.9832
-0.5479 3.6729 -2.0339 0.9832
-1.1927 3.5168 -2.0339 0.9832
-1.5020 3.3962 -2.0339 0.9832
-1.7994 3.2485 -2.0339 0.9832
-2.0823 3.0747 -2.0339 0.9832
-2.5962 2.6552 -2.0339 0.9832
-2.8230 2.4126 -2.0339 0.9832
-3.0272 2.1508 -2.0339 0.9832
-3.2072 1.8719 -2.0339 0.9832
-0.9919 0.4655 -0.6001 0.9950
1.3347 3.2603 -2.0339 0.9839
1.0382 3.3664 -2.0339 0.9839
0.7333 3.4457 -2.0339 0.9839
0.1085 3.5212 -2.0339 0.9839
-0.8289 3.4239 -2.0339 0.9839
-1.1314 3.3362 -2.0339 0.9839
-1.4249 3.2218 -2.0339 0.9839
-1.9754 2.9168 -2.0339 0.9839
-2.6780 2.2888 -2.0339 0.9839
-2.8718 2.0404 -2.0339 0.9839
-1.2418 0.7247 -0.8301 0.9934
-0.9204 0.4320 -0.5870 0.9953
