ply
format ascii 1.0
element vertex 198
property float32 x
property float32 y
property float32 z
property float32 I
end_header
-13.0940 12.8030 3.2291 0.9283
-11.5084 13.4351 2.7101 0.9309
1.5353 17.6750 2.3103 0.9309
-11.2646 13.1505 2.2548 0.9325
-11.9298 11.6645 2.1727 0.9349
-12.5702 12.2908 1.4882 0.9319
1.5702 18.0763 1.1251 0.9299
-12.5287 14.6262 1.1942 0.9257
-12.7681 12.4843 1.1073 0.9309
1.5831 18.2249 0.7213 0.9294
-16.4594 5.6841 -0.8831 0.9326
-16.2771 5.6211 -1.2626 0.9333
-16.0693 5.5494 -1.6321 0.9340
-1.3747 7.6266 -0.9205 0.9693
-2.0164 7.3816 -0.9090 0.9696
-7.3449 15.4680 -2.0340 0.9334
-8.6807 14.7596 -2.0340 0.9334
-11.1393 13.0042 -2.0340 0.9334
-14.1557 9.6326 -2.0339 0.9334
-14.9501 8.3462 -2.0339 0.9334
-16.1839 5.5890 -2.0338 0.9334
-0.6784 7.5161 -1.0693 0.9700
-1.9769 7.2368 -1.0630 0.9701
-4.9897 13.4603 -2.0340 0.9437
-7.2775 12.3738 -2.0340 0.9437
-8.3405 11.6834 -2.0340 0.9437
-9.3386 10.9021 -2.0339 0.9437
-11.1090 9.0911 -2.0339 0.9437
-11.8675 8.0756 -2.0339 0.9437
-13.1018 5.8642 -2.0339 0.9437
-13.9282 3.4704 -2.0338 0.9437
-0.6658 7.3773 -1.2203 0.9704
-1.3221 7.3349 -1.2278 0.9702
-6.2591 10.6424 -2.0340 0.9512
-7.1735 10.0487 -2.0340 0.9512
-10.2070 6.9457 -2.0339 0.9512
-10.7799 6.0182 -2.0339 0.9512
-11.9795 2.9848 -2.0338 0.9512
-0.6757 7.4873 -1.4130 0.9699
-1.9204 7.0301 -1.3698 0.9708
-3.7613 10.1466 -2.0340 0.9569
-5.4859 9.3275 -2.0340 0.9569
-7.0396 8.2181 -2.0339 0.9569
-7.7371 7.5651 -2.0339 0.9569
-8.3742 6.8531 -2.0339 0.9569
-8.9461 6.0876 -2.0339 0.9569
-9.8765 4.4206 -2.0339 0.9569
-10.2279 3.5321 -2.0339 0.9569
0.8327 9.5864 -2.0340 0.9614
-0.0162 9.6225 -2.0340 0.9614
-0.6697 7.4207 -1.5750 0.9700
-1.2840 7.1233 -1.5300 0.9708
-1.9465 7.1257 -1.5614 0.9703
-4.8781 8.2941 -2.0340 0.9614
-7.4464 6.0938 -2.0339 0.9614
-7.9549 5.4131 -2.0339 0.9614
-9.0947 3.1408 -2.0339 0.9614
0.7489 8.6220 -2.0340 0.9651
-0.0146 8.6544 -2.0340 0.9651
-3.0081 8.1147 -2.0340 0.9651
-3.7122 7.8177 -2.0340 0.9651
-4.3874 7.4597 -2.0339 0.9651
-5.0282 7.0436 -2.0339 0.9651
-5.6300 6.5725 -2.0339 0.9651
-6.1877 6.0502 -2.0339 0.9651
-6.6973 5.4807 -2.0339 0.9651
-7.5562 4.2184 -2.0339 0.9651
-8.1798 2.8248 -2.0339 0.9651
-0.0132 7.8557 -2.0340 0.9681
-1.3936 7.7311 -2.0340 0.9681
-2.0701 7.5780 -2.0340 0.9681
-2.7305 7.3658 -2.0340 0.9681
-3.3696 7.0962 -2.0340 0.9681
-5.6167 5.4919 -2.0339 0.9681
-6.0793 4.9749 -2.0339 0.9681
-6.8589 3.8291 -2.0339 0.9681
-7.4250 2.5641 -2.0339 0.9681
-7.6221 1.8991 -2.0339 0.9681
0.6218 7.1579 -2.0340 0.9706
-0.6458 7.1557 -2.0340 0.9706
-1.8933 6.9308 -2.0340 0.9706
-2.4973 6.7368 -2.0340 0.9706
-3.0818 6.4902 -2.0339 0.9706
-3.6423 6.1930 -2.0339 0.9706
-4.1745 5.8475 -2.0339 0.9706
-4.6740 5.4565 -2.0339 0.9706
-5.1371 5.0229 -2.0339 0.9706
-5.9398 4.0419 -2.0339 0.9706
-6.2731 3.5021 -2.0339 0.9706
-6.9713 1.7370 -2.0339 0.9706
-0.0111 6.6128 -2.0340 0.9727
-0.5944 6.5860 -2.0340 0.9727
-1.1730 6.5079 -2.0340 0.9727
-1.7426 6.3791 -2.0340 0.9727
-4.3019 5.0221 -2.0339 0.9727
-4.7281 4.6230 -2.0339 0.9727
-5.1175 4.1879 -2.0339 0.9727
-5.4669 3.7201 -2.0339 0.9727
-5.7737 3.2233 -2.0339 0.9727
0.5295 6.0960 -2.0340 0.9745
-1.6125 5.9026 -2.0340 0.9745
-2.6246 5.5273 -2.0339 0.9745
-3.9806 4.6470 -2.0339 0.9745
-4.3750 4.2777 -2.0339 0.9745
-5.3425 2.9826 -2.0339 0.9745
-5.5848 2.4997 -2.0339 0.9745
0.4922 5.6664 -2.0340 0.9761
-1.0089 5.5975 -2.0340 0.9761
-1.4988 5.4866 -2.0339 0.9761
-1.9770 5.3330 -2.0339 0.9761
-3.3046 4.6291 -2.0339 0.9761
-3.7000 4.3195 -2.0339 0.9761
-4.9660 2.7724 -2.0339 0.9761
-5.5187 1.3751 -2.0339 0.9761
-0.0089 5.3075 -2.0340 0.9775
-0.9415 5.2234 -2.0340 0.9775
-1.3986 5.1199 -2.0339 0.9775
-2.6907 4.5749 -2.0339 0.9775
-3.0838 4.3197 -2.0339 0.9775
-3.4528 4.0308 -2.0339 0.9775
-4.1074 3.3613 -2.0339 0.9775
-4.6341 2.5871 -2.0339 0.9775
-4.8443 2.1682 -2.0339 0.9775
-0.0084 4.9696 -2.0340 0.9788
-0.4467 4.9495 -2.0340 0.9787
-1.3096 4.7940 -2.0339 0.9788
-1.7273 4.6597 -2.0339 0.9788
-2.1317 4.4892 -2.0339 0.9788
-2.5194 4.2836 -2.0339 0.9788
-2.8874 4.0447 -2.0339 0.9788
-3.2329 3.7742 -2.0339 0.9788
-3.8459 3.1473 -2.0339 0.9788
-4.1085 2.7957 -2.0339 0.9788
-4.3391 2.4224 -2.0339 0.9788
-4.5358 2.0302 -2.0339 0.9788
-4.6972 1.6222 -2.0339 0.9788
-2.1720 0.5412 -0.9161 0.9904
0.4039 4.6495 -2.0340 0.9798
-0.0079 4.6670 -2.0340 0.9798
-0.4195 4.6481 -2.0339 0.9798
-1.6222 4.3759 -2.0339 0.9798
-2.0019 4.2158 -2.0339 0.9798
-2.3659 4.0228 -2.0339 0.9798
-2.7116 3.7984 -2.0339 0.9798
-3.0361 3.5443 -2.0339 0.9798
-3.6117 2.9556 -2.0339 0.9798
-3.8583 2.6255 -2.0339 0.9798
-4.0748 2.2749 -2.0339 0.9798
-4.4112 1.5233 -2.0339 0.9798
-1.9120 0.4763 -0.8587 0.9914
0.3803 4.3776 -2.0340 0.9808
-0.0074 4.3940 -2.0339 0.9808
-0.7795 4.3244 -2.0339 0.9808
-1.8848 3.9693 -2.0339 0.9808
-2.2275 3.7875 -2.0339 0.9808
-2.8585 3.3371 -2.0339 0.9808
-3.1418 3.0719 -2.0339 0.9808
-3.4004 2.7828 -2.0339 0.9808
-4.0105 1.7951 -2.0339 0.9808
0.3589 4.1309 -2.0339 0.9817
-0.3727 4.1297 -2.0339 0.9817
-2.1020 3.5741 -2.0339 0.9817
-2.6974 3.1490 -2.0339 0.9817
-3.2089 2.6260 -2.0339 0.9817
-3.4280 2.3327 -2.0339 0.9817
-3.6204 2.0212 -2.0339 0.9817
-1.2735 0.4398 -0.6609 0.9940
-1.3173 0.3282 -0.6660 0.9940
0.3393 3.9059 -2.0339 0.9825
-0.0066 3.9206 -2.0339 0.9825
-0.3524 3.9047 -2.0339 0.9825
-0.6955 3.8584 -2.0339 0.9825
-1.3627 3.6761 -2.0339 0.9825
-1.6817 3.5416 -2.0339 0.9825
-1.9876 3.3794 -2.0339 0.9825
-2.2779 3.1909 -2.0339 0.9825
-2.8032 2.7409 -2.0339 0.9825
-3.4232 1.9111 -2.0339 0.9825
-1.1046 0.4944 -0.6278 0.9946
-1.1666 0.2906 -0.6237 0.9946
-0.0062 3.7136 -2.0339 0.9832
-1.8826 3.2009 -2.0339 0.9832
-2.1576 3.0224 -2.0339 0.9832
-2.4158 2.8203 -2.0339 0.9832
-2.6552 2.5962 -2.0339 0.9832
-3.2424 1.8102 -2.0339 0.9832
-0.9982 0.4467 -0.5990 0.9950
-1.0271 0.3547 -0.5952 0.9951
0.3049 3.5097 -2.0339 0.9839
-0.0059 3.5229 -2.0339 0.9839
-0.3166 3.5086 -2.0339 0.9839
-0.6250 3.4670 -2.0339 0.9839
-0.9283 3.3983 -2.0339 0.9839
-1.5111 3.1823 -2.0339 0.9839
-1.7859 3.0366 -2.0339 0.9839
-2.2918 2.6755 -2.0339 0.9839
-2.7263 2.2310 -2.0339 0.9839
-2.9125 1.9819 -2.0339 0.9839
