ply
format ascii 1.0
element vertex 184
property float32 x
property float32 y
property float32 z
property float32 I
end_header
2.4910 -6.1231 -0.6346 0.9738
-3.9342 -16.6625 -2.0337 0.9334
-0.9450 -17.0946 -2.0337 0.9334
2.0736 -16.9949 -2.0337 0.9334
1.9055 -6.2029 -0.7708 0.9742
3.0761 -5.9860 -0.7994 0.9733
9.1384 -14.4790 -2.0338 0.9334
10.3801 -13.6167 -2.0338 0.9334
11.5408 -12.6482 -2.0339 0.9334
12.6116 -11.5810 -2.0339 0.9334
15.2046 -7.8746 -2.0339 0.9334
-2.0533 -14.2058 -2.0337 0.9437
-0.7922 -14.3316 -2.0337 0.9437
2.9884 -14.0392 -2.0338 0.9437
2.4261 -5.9637 -0.9122 0.9743
9.6753 -10.6037 -2.0339 0.9437
10.5730 -9.7091 -2.0339 0.9437
11.3882 -8.7387 -2.0339 0.9437
12.1147 -7.7002 -2.0339 0.9437
-2.8368 -12.0149 -2.0337 0.9512
-0.6814 -12.3265 -2.0338 0.9512
1.4952 -12.2546 -2.0338 0.9512
2.3738 -5.8351 -1.0378 0.9748
7.4846 -9.8185 -2.0339 0.9512
8.3216 -9.1201 -2.0339 0.9512
9.0936 -8.3506 -2.0339 0.9512
10.9633 -5.6780 -2.0339 0.9512
-2.4864 -10.5306 -2.0338 0.9569
-0.5972 -10.8037 -2.0338 0.9569
2.3858 -5.8645 -1.1900 0.9746
5.7753 -9.1504 -2.0338 0.9569
6.5600 -8.6054 -2.0339 0.9569
7.9702 -7.3189 -2.0339 0.9569
8.5847 -6.5874 -2.0339 0.9569
9.1324 -5.8046 -2.0339 0.9569
9.6088 -4.9765 -2.0339 0.9569
-1.3764 -9.5225 -2.0338 0.9614
0.3184 -9.6163 -2.0338 0.9614
1.1653 -9.5507 -2.0338 0.9614
1.8405 -5.9913 -1.3249 0.9747
2.8993 -5.6420 -1.3409 0.9744
5.1355 -8.1367 -2.0339 0.9614
6.4855 -7.1078 -2.0339 0.9614
7.0871 -6.5080 -2.0339 0.9614
7.6336 -5.8576 -2.0339 0.9614
8.1205 -5.1615 -2.0339 0.9614
8.5442 -4.4251 -2.0339 0.9614
8.9013 -3.6542 -2.0339 0.9614
-1.9885 -8.4220 -2.0338 0.9651
0.2863 -8.6489 -2.0338 0.9651
1.0481 -8.5900 -2.0338 0.9651
1.3145 -6.1754 -1.4839 0.9744
2.8883 -5.6205 -1.4852 0.9744
5.2464 -6.8823 -2.0339 0.9651
5.8330 -6.3927 -2.0339 0.9651
6.3742 -5.8534 -2.0339 0.9651
7.3036 -4.6423 -2.0339 0.9651
7.6847 -3.9800 -2.0339 0.9651
0.2599 -7.8508 -2.0338 0.9681
0.9514 -7.7973 -2.0338 0.9681
1.8037 -5.8714 -1.5903 0.9749
4.1927 -6.6428 -2.0339 0.9681
6.2320 -4.7821 -2.0339 0.9681
6.9755 -3.6126 -2.0339 0.9681
-1.0277 -7.1104 -2.0338 0.9706
-0.3966 -7.1733 -2.0338 0.9706
0.2377 -7.1804 -2.0338 0.9706
0.8701 -7.1314 -2.0338 0.9706
1.4957 -7.0269 -2.0338 0.9706
1.8140 -5.9050 -1.7488 0.9746
2.4913 -6.1238 -1.8716 0.9729
4.3555 -5.7137 -2.0339 0.9706
4.8426 -5.3072 -2.0339 0.9706
5.2918 -4.8595 -2.0339 0.9706
6.6464 -2.7285 -2.0339 0.9706
-1.5195 -6.4354 -2.0338 0.9727
-0.3650 -6.6023 -2.0338 0.9727
0.2188 -6.6088 -2.0338 0.9727
1.3767 -6.4676 -2.0338 0.9727
1.8555 -6.0403 -1.9435 0.9739
4.4571 -4.8847 -2.0339 0.9727
5.2461 -4.0256 -2.0339 0.9727
5.5807 -3.5472 -2.0339 0.9727
6.1173 -2.5113 -2.0339 0.9727
-1.4060 -5.9548 -2.0338 0.9745
-0.8752 -6.0556 -2.0338 0.9745
-0.3377 -6.1092 -2.0338 0.9745
1.2739 -5.9845 -2.0338 0.9745
1.7968 -5.8488 -2.0339 0.9745
2.3057 -5.6676 -2.0339 0.9745
3.7094 -4.8661 -2.0339 0.9745
4.5068 -4.1386 -2.0339 0.9745
4.8543 -3.7249 -2.0339 0.9745
-1.3069 -5.5351 -2.0338 0.9761
0.1882 -5.6843 -2.0338 0.9761
0.6888 -5.6455 -2.0338 0.9761
1.1841 -5.5628 -2.0338 0.9761
2.1432 -5.2681 -2.0339 0.9761
3.0356 -4.8096 -2.0339 0.9761
3.4480 -4.5231 -2.0339 0.9761
3.8335 -4.2014 -2.0339 0.9761
4.1891 -3.8469 -2.0339 0.9761
4.5122 -3.4624 -2.0339 0.9761
4.8000 -3.0509 -2.0339 0.9761
5.0505 -2.6156 -2.0339 0.9761
-1.2196 -5.1653 -2.0338 0.9775
-0.2930 -5.2992 -2.0338 0.9775
0.1756 -5.3044 -2.0338 0.9775
0.6428 -5.2682 -2.0338 0.9775
3.5773 -3.9206 -2.0339 0.9775
3.9092 -3.5898 -2.0339 0.9775
4.2106 -3.2310 -2.0339 0.9775
4.4793 -2.8470 -2.0339 0.9775
4.7129 -2.4408 -2.0339 0.9775
4.9098 -2.0157 -2.0339 0.9775
-1.1420 -4.8364 -2.0338 0.9788
-0.7109 -4.9183 -2.0338 0.9788
1.0346 -4.8605 -2.0339 0.9788
1.4593 -4.7504 -2.0339 0.9788
1.8727 -4.6031 -2.0339 0.9788
2.2714 -4.4200 -2.0339 0.9788
3.0127 -3.9521 -2.0339 0.9788
-0.2576 -4.6596 -2.0338 0.9798
0.5652 -4.6324 -2.0339 0.9798
1.3704 -4.4610 -2.0339 0.9798
2.8292 -3.7115 -2.0339 0.9798
3.4374 -3.1566 -2.0339 0.9798
-1.0097 -4.2763 -2.0338 0.9808
-0.6286 -4.3487 -2.0338 0.9808
0.1454 -4.3915 -2.0339 0.9808
0.9148 -4.2976 -2.0339 0.9808
1.6557 -4.0700 -2.0339 0.9808
2.9616 -3.2458 -2.0339 0.9808
3.2364 -2.9720 -2.0339 0.9808
3.7083 -2.3570 -2.0339 0.9808
3.9018 -2.0208 -2.0339 0.9808
4.0648 -1.6687 -2.0339 0.9808
-0.9528 -4.0353 -2.0338 0.9817
-0.5931 -4.1037 -2.0338 0.9817
-0.2289 -4.1400 -2.0339 0.9817
0.1372 -4.1441 -2.0339 0.9817
0.5022 -4.1158 -2.0339 0.9817
1.2176 -3.9635 -2.0339 0.9817
1.5625 -3.8407 -2.0339 0.9817
1.8952 -3.6879 -2.0339 0.9817
2.5137 -3.2975 -2.0339 0.9817
2.7948 -3.0629 -2.0339 0.9817
3.0541 -2.8045 -2.0339 0.9817
3.6819 -1.9069 -2.0339 0.9817
3.8358 -1.5747 -2.0339 0.9817
-0.2164 -3.9145 -2.0339 0.9825
0.1297 -3.9183 -2.0339 0.9825
0.4748 -3.8916 -2.0339 0.9825
0.8162 -3.8346 -2.0339 0.9825
1.4773 -3.6315 -2.0339 0.9825
2.3768 -3.1179 -2.0339 0.9825
2.8878 -2.6518 -2.0339 0.9825
3.1104 -2.3867 -2.0339 0.9825
3.3088 -2.1031 -2.0339 0.9825
3.4814 -1.8030 -2.0339 0.9825
3.6269 -1.4889 -2.0339 0.9825
-0.8533 -3.6141 -2.0339 0.9832
0.1229 -3.7114 -2.0339 0.9832
0.4498 -3.6861 -2.0339 0.9832
0.7731 -3.6321 -2.0339 0.9832
1.0904 -3.5497 -2.0339 0.9832
1.3994 -3.4397 -2.0339 0.9832
2.5030 -2.7432 -2.0339 0.9832
2.9461 -2.2607 -2.0339 0.9832
3.1341 -1.9920 -2.0339 0.9832
3.2975 -1.7078 -2.0339 0.9832
-0.8095 -3.4285 -2.0339 0.9839
-0.5040 -3.4865 -2.0339 0.9839
-0.1945 -3.5174 -2.0339 0.9839
0.7334 -3.4456 -2.0339 0.9839
1.0345 -3.3675 -2.0339 0.9839
1.3275 -3.2631 -2.0339 0.9839
1.6102 -3.1333 -2.0339 0.9839
1.8802 -2.9791 -2.0339 0.9839
2.1357 -2.8016 -2.0339 0.9839
2.3745 -2.6023 -2.0339 0.9839
2.5948 -2.3827 -2.0339 0.9839
2.7949 -2.1446 -2.0339 0.9839
3.1282 -1.6201 -2.0339 0.9839
