ply
format ascii 1.0
element vertex 207
property float32 x
property float32 y
property float32 z
property float32 I
end_header
2.7265 18.8079 3.3510 0.9257
2.6085 17.9940 2.3677 0.9293
-11.2505 12.5277 2.1926 0.9343
-11.3729 12.6639 1.8278 0.9338
4.2880 18.1881 1.1588 0.9278
2.4905 17.1803 1.0765 0.9328
-12.1187 13.4945 1.1247 0.9299
2.6998 18.6244 -0.5299 0.9275
2.6914 18.5657 -0.9514 0.9276
-16.3043 5.2882 -1.2568 0.9336
-1.5783 7.5409 -0.7397 0.9695
-16.2685 5.2766 -1.6420 0.9336
3.9295 16.6673 -2.0341 0.9333
2.4567 16.9470 -2.0341 0.9333
0.9651 17.0968 -2.0341 0.9333
-0.9172 7.6876 -0.9197 0.9693
-2.2168 7.3246 -0.9090 0.9696
-9.0461 14.5385 -2.0340 0.9334
-11.4408 12.7396 -2.0339 0.9334
-12.5109 11.6901 -2.0339 0.9334
-13.4853 10.5509 -2.0339 0.9334
-16.2864 5.2824 -2.0338 0.9334
-1.5081 7.2056 -1.0431 0.9707
-2.2275 7.3599 -1.0895 0.9694
-6.4888 12.8050 -2.0340 0.9437
-7.5838 12.1883 -2.0340 0.9437
-8.6206 11.4783 -2.0340 0.9437
-9.5914 10.6803 -2.0339 0.9437
-10.4886 9.8004 -2.0339 0.9437
-11.3055 8.8455 -2.0339 0.9437
-12.0357 7.8227 -2.0339 0.9437
-12.6736 6.7401 -2.0339 0.9437
-13.6539 4.4286 -2.0338 0.9437
0.6959 12.3274 -2.0340 0.9512
-0.3849 12.3410 -2.0340 0.9512
-0.8794 7.3704 -1.2228 0.9704
-5.5809 11.0133 -2.0340 0.9512
-6.5227 10.4829 -2.0340 0.9512
-7.4144 9.8722 -2.0339 0.9512
-8.2494 9.1859 -2.0339 0.9512
-10.3517 6.7282 -2.0339 0.9512
-11.3655 4.8215 -2.0339 0.9512
-11.7436 3.8089 -2.0338 0.9512
2.4832 10.5329 -2.0340 0.9569
1.5525 10.7096 -2.0340 0.9569
-0.8645 7.2460 -1.3716 0.9707
-1.5158 7.2420 -1.3907 0.9703
-2.1727 7.1788 -1.4098 0.9699
-4.0284 10.0435 -2.0340 0.9569
-4.8914 9.6526 -2.0340 0.9569
-6.4984 8.6525 -2.0339 0.9569
-7.9066 7.3878 -2.0339 0.9569
-10.2927 3.3384 -2.0338 0.9569
-0.2446 7.8428 -1.6586 0.9684
-0.8519 7.1400 -1.5200 0.9710
-2.1043 6.9528 -1.5355 0.9707
-3.5821 8.9307 -2.0340 0.9614
-4.3495 8.5832 -2.0340 0.9614
-5.0834 8.1698 -2.0339 0.9614
-6.4292 7.1590 -2.0339 0.9614
-7.0306 6.5693 -2.0339 0.9614
-7.5782 5.9291 -2.0339 0.9614
-8.4953 4.5179 -2.0339 0.9614
0.4878 8.6407 -2.0340 0.9651
-0.8725 7.3124 -1.7308 0.9702
-2.1902 7.2365 -1.7769 0.9694
-3.9119 7.7197 -2.0340 0.9651
-5.7823 6.4388 -2.0339 0.9651
-7.2560 4.7162 -2.0339 0.9651
-7.6406 4.0635 -2.0339 0.9651
-8.2317 2.6699 -2.0339 0.9651
1.1271 7.7745 -2.0340 0.9681
0.4427 7.8432 -2.0340 0.9681
-0.8870 7.4337 -1.9384 0.9695
-1.6093 7.6890 -2.0340 0.9681
-2.9244 7.2910 -2.0340 0.9681
-4.1501 6.6698 -2.0339 0.9681
-5.7397 5.3631 -2.0339 0.9681
-6.1868 4.8405 -2.0339 0.9681
-6.5864 4.2809 -2.0339 0.9681
-7.2314 3.0677 -2.0339 0.9681
-7.4720 2.4235 -2.0339 0.9681
0.4050 7.1734 -2.0340 0.9706
-1.4718 7.0324 -2.0340 0.9706
-2.6747 6.6683 -2.0340 0.9706
-3.2476 6.4088 -2.0339 0.9706
-3.7957 6.1002 -2.0339 0.9706
-4.8005 5.3454 -2.0339 0.9706
-5.2496 4.9051 -2.0339 0.9706
-5.6585 4.4272 -2.0339 0.9706
-6.3432 3.3735 -2.0339 0.9706
-6.8339 2.2166 -2.0339 0.9706
1.5174 6.4364 -2.0340 0.9727
-0.2061 6.6096 -2.0340 0.9727
-0.7834 6.5662 -2.0340 0.9727
-2.9891 5.8987 -2.0339 0.9727
-3.4935 5.6146 -2.0339 0.9727
-3.9711 5.2875 -2.0339 0.9727
-4.4184 4.9199 -2.0339 0.9727
-4.8317 4.5146 -2.0339 0.9727
-5.5444 3.6037 -2.0339 0.9727
-5.8382 3.1049 -2.0339 0.9727
-6.0875 2.5824 -2.0339 0.9727
-6.2899 2.0401 -2.0339 0.9727
1.4041 5.9557 -2.0340 0.9745
-1.2535 5.9891 -2.0340 0.9745
-1.7725 5.8565 -2.0340 0.9745
-2.2779 5.6790 -2.0339 0.9745
-3.2326 5.1952 -2.0339 0.9745
-3.6745 4.8926 -2.0339 0.9745
-4.0883 4.5525 -2.0339 0.9745
-4.4708 4.1774 -2.0339 0.9745
1.3052 5.5360 -2.0340 0.9761
-0.1773 5.6849 -2.0340 0.9761
-0.6738 5.6476 -2.0340 0.9761
-1.1652 5.5670 -2.0340 0.9761
-4.4794 3.5047 -2.0339 0.9761
-4.7687 3.0995 -2.0339 0.9761
-5.2358 2.2211 -2.0339 0.9761
-5.4100 1.7547 -2.0339 0.9761
1.2180 5.1660 -2.0340 0.9775
-1.5375 5.0800 -2.0339 0.9775
-1.9758 4.9260 -2.0339 0.9775
-2.8039 4.5063 -2.0339 0.9775
-3.1873 4.2438 -2.0339 0.9775
-3.5462 3.9488 -2.0339 0.9775
-3.8780 3.6235 -2.0339 0.9775
-4.1800 3.2705 -2.0339 0.9775
-4.4500 2.8924 -2.0339 0.9775
-4.8859 2.0727 -2.0339 0.9775
-5.0484 1.6374 -2.0339 0.9775
1.1404 4.8371 -2.0340 0.9787
0.2801 4.9618 -2.0340 0.9787
-0.1549 4.9672 -2.0340 0.9787
-1.0181 4.8642 -2.0339 0.9788
-1.8500 4.6124 -2.0339 0.9788
-2.6254 4.2194 -2.0339 0.9788
-2.9843 3.9737 -2.0339 0.9788
-3.3205 3.6974 -2.0339 0.9788
-3.6311 3.3928 -2.0339 0.9788
-3.9139 3.0622 -2.0339 0.9788
-4.1667 2.7082 -2.0339 0.9788
-4.3876 2.3334 -2.0339 0.9788
-4.5748 1.9407 -2.0339 0.9788
1.0709 4.5425 -2.0340 0.9798
-0.1455 4.6647 -2.0340 0.9798
-0.9561 4.5680 -2.0339 0.9798
-1.3519 4.4668 -2.0339 0.9798
-1.7374 4.3315 -2.0339 0.9798
-2.1095 4.1629 -2.0339 0.9798
-2.8026 3.7317 -2.0339 0.9798
-3.6755 2.8758 -2.0339 0.9798
-4.4391 1.4398 -2.0339 0.9798
0.2477 4.3871 -2.0340 0.9808
-0.1370 4.3919 -2.0339 0.9808
-0.9002 4.3008 -2.0339 0.9808
-1.2729 4.2056 -2.0339 0.9808
-1.9862 3.9195 -2.0339 0.9808
-2.3214 3.7308 -2.0339 0.9808
-2.6387 3.5135 -2.0339 0.9808
-3.2105 2.9999 -2.0339 0.9808
-3.4606 2.7076 -2.0339 0.9808
-3.6841 2.3946 -2.0339 0.9808
-1.6221 0.5261 -0.7893 0.9925
0.5948 4.1036 -2.0340 0.9817
-0.1293 4.1445 -2.0339 0.9817
-0.4912 4.1172 -2.0339 0.9817
-1.5436 3.8484 -2.0339 0.9817
-1.8743 3.6986 -2.0339 0.9817
-2.1905 3.5205 -2.0339 0.9817
-2.4900 3.3155 -2.0339 0.9817
-3.0296 2.8308 -2.0339 0.9817
-3.2656 2.5551 -2.0339 0.9817
-3.4766 2.2596 -2.0339 0.9817
-3.6608 1.9469 -2.0339 0.9817
-3.8171 1.6193 -2.0339 0.9817
-1.2845 0.4166 -0.6624 0.9940
0.2210 3.9144 -2.0339 0.9825
-0.4645 3.8930 -2.0339 0.9825
-1.1357 3.7525 -2.0339 0.9825
-1.7721 3.4972 -2.0339 0.9825
-2.0712 3.3288 -2.0339 0.9825
-2.6196 2.9169 -2.0339 0.9825
-2.8646 2.6767 -2.0339 0.9825
-3.2872 2.1366 -2.0339 0.9825
-1.1131 0.4722 -0.6273 0.9946
-1.1406 0.3699 -0.6221 0.9946
0.8521 3.6145 -2.0339 0.9832
-0.1157 3.7118 -2.0339 0.9832
-0.4399 3.6874 -2.0339 0.9832
-1.6786 3.3125 -2.0339 0.9832
-1.9619 3.1530 -2.0339 0.9832
-2.2301 2.9693 -2.0339 0.9832
-2.4813 2.7629 -2.0339 0.9832
-2.9247 2.2883 -2.0339 0.9832
-3.1136 2.0238 -2.0339 0.9832
-3.2786 1.7437 -2.0339 0.9832
-1.0057 0.4266 -0.5984 0.9950
0.5054 3.4864 -2.0339 0.9839
-0.1098 3.5212 -2.0339 0.9839
-0.4173 3.4981 -2.0339 0.9839
-1.0205 3.3718 -2.0339 0.9839
-1.3114 3.2696 -2.0339 0.9839
-2.1156 2.8168 -2.0339 0.9839
-2.5740 2.4051 -2.0339 0.9839
-2.7745 2.1708 -2.0339 0.9839
-2.9537 1.9198 -2.0339 0.9839
