ply
format ascii 1.0
element vertex 189
property float32 x
property float32 y
property float32 z
property float32 I
end_header
-6.8246 -15.7014 -2.0337 0.9334
-3.9445 -16.6600 -2.0337 0.9334
2.0934 -16.9925 -2.0337 0.9334
3.5916 -16.7402 -2.0337 0.9334
2.4752 -6.0409 -0.7755 0.9740
3.0957 -5.9808 -0.8000 0.9732
9.1875 -14.4479 -2.0338 0.9334
10.4323 -13.5768 -2.0338 0.9334
14.5020 -9.1036 -2.0339 0.9334
-4.5320 -13.6191 -2.0337 0.9437
-2.0557 -14.2055 -2.0337 0.9437
-0.7884 -14.3318 -2.0337 0.9437
0.4852 -14.3454 -2.0337 0.9437
1.9301 -6.2373 -0.9251 0.9740
2.4349 -5.9427 -0.9099 0.9744
7.7024 -12.1126 -2.0338 0.9437
8.7459 -11.3822 -2.0338 0.9437
9.7206 -10.5621 -2.0339 0.9437
11.4333 -8.6797 -2.0339 0.9437
12.1579 -7.6320 -2.0339 0.9437
-4.9210 -11.3220 -2.0337 0.9512
-3.8980 -11.7137 -2.0337 0.9512
-2.8443 -12.0131 -2.0337 0.9512
-1.7681 -12.2180 -2.0337 0.9512
-0.6780 -12.3267 -2.0338 0.9512
0.4173 -12.3384 -2.0338 0.9512
1.5095 -12.2528 -2.0338 0.9512
2.5898 -12.0708 -2.0338 0.9512
2.3892 -5.8312 -1.0381 0.9748
8.3605 -9.0844 -2.0339 0.9512
9.1330 -8.3075 -2.0339 0.9512
9.8336 -7.4652 -2.0339 0.9512
10.4567 -6.5642 -2.0339 0.9512
-5.1758 -9.5019 -2.0337 0.9569
-1.5496 -10.7086 -2.0338 0.9569
-0.5943 -10.8039 -2.0338 0.9569
0.3658 -10.8141 -2.0338 0.9569
1.3230 -10.7391 -2.0338 0.9569
1.8563 -5.9989 -1.1803 0.9748
2.3870 -5.8257 -1.1834 0.9747
5.8063 -9.1308 -2.0338 0.9569
6.5929 -8.5802 -2.0339 0.9569
7.3277 -7.9620 -2.0339 0.9569
-4.6024 -8.4492 -2.0338 0.9614
-3.0380 -9.1292 -2.0338 0.9614
-2.2167 -9.3626 -2.0338 0.9614
0.3253 -9.6161 -2.0338 0.9614
1.1764 -9.5494 -2.0338 0.9614
1.3630 -6.3531 -1.3735 0.9738
1.8550 -5.9945 -1.3264 0.9747
2.3742 -5.7946 -1.3237 0.9747
2.9141 -5.6301 -1.3400 0.9744
7.6638 -5.8180 -2.0339 0.9614
8.1494 -5.1158 -2.0339 0.9614
-3.4495 -7.9363 -2.0338 0.9651
-2.7323 -8.2109 -2.0338 0.9651
-1.9937 -8.4208 -2.0338 0.9651
-1.2394 -8.5644 -2.0338 0.9651
1.0581 -8.5887 -2.0338 0.9651
2.3219 -5.6669 -1.4393 0.9751
2.9463 -5.6922 -1.5064 0.9740
4.6436 -7.3025 -2.0339 0.9651
5.2727 -6.8621 -2.0339 0.9651
5.8603 -6.3677 -2.0339 0.9651
7.3296 -4.6011 -2.0339 0.9651
-3.7574 -6.8980 -2.0338 0.9681
-2.4802 -7.4532 -2.0338 0.9681
-1.8097 -7.6437 -2.0338 0.9681
0.2655 -7.8506 -2.0338 0.9681
1.3204 -6.1545 -1.6298 0.9743
1.8155 -5.8670 -1.5901 0.9749
2.4474 -5.9731 -1.6713 0.9737
3.0179 -5.8305 -1.6999 0.9732
4.7862 -6.2288 -2.0339 0.9681
5.3195 -5.7801 -2.0339 0.9681
6.2567 -4.7498 -2.0339 0.9681
-2.2684 -6.8167 -2.0338 0.9706
-0.3946 -7.1734 -2.0338 0.9706
0.2429 -7.1802 -2.0338 0.9706
0.8784 -7.1304 -2.0338 0.9706
1.8228 -5.8904 -1.7455 0.9747
5.3148 -4.8344 -2.0339 0.9706
5.7224 -4.3442 -2.0339 0.9706
-2.6358 -6.0643 -2.0338 0.9727
-1.5234 -6.4345 -2.0338 0.9727
-0.9470 -6.5442 -2.0338 0.9727
0.2235 -6.6086 -2.0338 0.9727
0.8085 -6.5628 -2.0338 0.9727
1.8648 -6.0263 -1.9403 0.9739
3.0396 -5.8724 -2.0339 0.9727
3.5483 -5.5799 -2.0339 0.9727
4.4779 -4.8656 -2.0339 0.9727
5.2668 -3.9984 -2.0339 0.9727
5.6006 -3.5158 -2.0339 0.9727
-2.9268 -5.3731 -2.0338 0.9745
-1.4096 -5.9539 -2.0338 0.9745
-0.8763 -6.0555 -2.0338 0.9745
-0.3361 -6.1093 -2.0338 0.9745
0.7481 -6.0726 -2.0338 0.9745
1.2835 -5.9824 -2.0338 0.9745
2.3198 -5.6618 -2.0339 0.9745
2.8126 -5.4339 -2.0339 0.9745
3.2832 -5.1631 -2.0339 0.9745
3.7280 -4.8518 -2.0339 0.9745
4.1434 -4.5022 -2.0339 0.9745
5.1823 -3.2532 -2.0339 0.9745
-2.2671 -5.2160 -2.0338 0.9761
-1.7958 -5.3964 -2.0338 0.9761
-1.3103 -5.5343 -2.0338 0.9761
-0.3124 -5.6788 -2.0338 0.9761
0.6954 -5.6447 -2.0338 0.9761
1.1930 -5.5609 -2.0338 0.9761
2.6144 -5.0509 -2.0339 0.9761
3.4653 -4.5099 -2.0339 0.9761
4.2073 -3.8271 -2.0339 0.9761
-2.5387 -4.6606 -2.0338 0.9775
-2.1155 -4.8673 -2.0338 0.9775
-1.6758 -5.0357 -2.0338 0.9775
-0.7601 -5.2525 -2.0338 0.9775
0.1794 -5.3043 -2.0338 0.9775
0.6489 -5.2675 -2.0338 0.9775
1.1133 -5.1892 -2.0339 0.9775
1.5690 -5.0701 -2.0339 0.9775
2.8479 -4.4786 -2.0339 0.9775
3.9261 -3.5712 -2.0339 0.9775
-2.3771 -4.3639 -2.0338 0.9788
-1.9809 -4.5575 -2.0338 0.9788
-0.7117 -4.9182 -2.0338 0.9788
0.6076 -4.9321 -2.0339 0.9788
1.4691 -4.7473 -2.0339 0.9788
2.2843 -4.4133 -2.0339 0.9788
2.6666 -4.1934 -2.0339 0.9788
3.0279 -3.9405 -2.0339 0.9788
-1.4735 -4.4280 -2.0338 0.9798
-0.6684 -4.6187 -2.0338 0.9798
0.1577 -4.6641 -2.0338 0.9798
1.3796 -4.4582 -2.0339 0.9798
2.8434 -3.7005 -2.0339 0.9798
3.7171 -2.8219 -2.0339 0.9798
3.9527 -2.4812 -2.0339 0.9798
-2.1018 -3.8586 -2.0338 0.9808
-1.7515 -4.0297 -2.0338 0.9808
-1.3874 -4.1691 -2.0338 0.9808
-0.6293 -4.3486 -2.0338 0.9808
-0.2414 -4.3872 -2.0338 0.9808
0.5372 -4.3609 -2.0339 0.9808
0.9217 -4.2961 -2.0339 0.9808
2.6772 -3.4842 -2.0339 0.9808
3.4997 -2.6569 -2.0339 0.9808
3.7215 -2.3362 -2.0339 0.9808
-1.9834 -3.6412 -2.0338 0.9817
-1.6528 -3.8026 -2.0338 0.9817
-1.3092 -3.9342 -2.0338 0.9817
-0.9553 -4.0348 -2.0338 0.9817
-0.2277 -4.1401 -2.0339 0.9817
0.8698 -4.0540 -2.0339 0.9817
3.3026 -2.5071 -2.0339 0.9817
-1.5628 -3.5955 -2.0338 0.9825
-1.2379 -3.7199 -2.0338 0.9825
-0.2154 -3.9146 -2.0339 0.9825
0.4794 -3.8911 -2.0339 0.9825
0.8224 -3.8333 -2.0339 0.9825
1.4864 -3.6278 -2.0339 0.9825
1.8022 -3.4817 -2.0339 0.9825
3.1227 -2.3706 -2.0339 0.9825
3.3205 -2.0844 -2.0339 0.9825
-1.4802 -3.4056 -2.0338 0.9832
-1.1725 -3.5235 -2.0339 0.9832
1.0978 -3.5475 -2.0339 0.9832
1.4079 -3.4362 -2.0339 0.9832
1.7070 -3.2979 -2.0339 0.9832
1.9926 -3.1336 -2.0339 0.9832
2.2626 -2.9446 -2.0339 0.9832
2.5148 -2.7324 -2.0339 0.9832
2.9578 -2.2454 -2.0339 0.9832
3.1452 -1.9744 -2.0339 0.9832
-1.6851 -3.0936 -2.0339 0.9839
-1.1123 -3.3425 -2.0339 0.9839
-0.8116 -3.4280 -2.0339 0.9839
-0.5045 -3.4864 -2.0339 0.9839
0.4307 -3.4963 -2.0339 0.9839
0.7390 -3.4444 -2.0339 0.9839
1.0414 -3.3653 -2.0339 0.9839
1.3356 -3.2598 -2.0339 0.9839
1.6194 -3.1285 -2.0339 0.9839
1.8903 -2.9727 -2.0339 0.9839
2.1464 -2.7934 -2.0339 0.9839
2.6060 -2.3704 -2.0339 0.9839
2.8059 -2.1301 -2.0339 0.9839
