ply
format ascii 1.0
element vertex 179
property float32 x
property float32 y
property float32 z
property float32 I
end_header
17.2057 -3.5609 -0.8911 0.9320
16.7343 -3.4633 -1.2530 0.9338
2.4735 -6.1370 -0.6352 0.9738
16.4277 -3.3998 -1.6106 0.9348
0.4358 -17.1153 -2.0337 0.9334
3.0618 -5.9898 -0.7991 0.9733
10.3808 -13.6162 -2.0338 0.9334
14.4913 -9.1206 -2.0339 0.9334
15.2480 -7.7902 -2.0339 0.9334
16.3909 -4.9537 -2.0340 0.9334
16.7679 -3.4703 -2.0340 0.9334
1.6453 -14.2590 -2.0338 0.9437
7.6486 -12.1467 -2.0338 0.9437
8.7028 -11.4152 -2.0338 0.9437
13.3155 -5.3634 -2.0340 0.9437
-0.7890 -12.3201 -2.0338 0.9512
2.5046 -12.0888 -2.0338 0.9512
2.3857 -5.9193 -1.0514 0.9745
6.5784 -10.4471 -2.0338 0.9512
7.4852 -9.8181 -2.0339 0.9512
9.1123 -8.3301 -2.0339 0.9512
10.4490 -6.5764 -2.0339 0.9512
10.9946 -5.6172 -2.0339 0.9512
-0.6916 -10.7981 -2.0338 0.9569
0.2754 -10.8167 -2.0338 0.9569
2.1952 -10.5954 -2.0338 0.9569
1.8166 -6.0062 -1.1794 0.9748
2.3754 -5.8937 -1.1944 0.9745
2.9673 -5.8049 -1.2254 0.9738
5.7658 -9.1565 -2.0338 0.9569
6.5604 -8.6051 -2.0339 0.9569
7.9866 -7.3010 -2.0339 0.9569
8.6067 -6.5587 -2.0339 0.9569
9.1580 -5.7640 -2.0339 0.9569
10.0374 -4.0430 -2.0339 0.9569
10.3584 -3.1306 -2.0340 0.9569
10.5967 -2.1931 -2.0340 0.9569
-0.6149 -9.6018 -2.0338 0.9614
0.2449 -9.6184 -2.0338 0.9614
1.1029 -9.5582 -2.0338 0.9614
2.3488 -5.8278 -1.3282 0.9746
5.1270 -8.1421 -2.0339 0.9614
6.4936 -7.1003 -2.0339 0.9614
7.1018 -6.4921 -2.0339 0.9614
9.2108 -2.7837 -2.0339 0.9614
-0.5530 -8.6359 -2.0338 0.9651
0.9920 -8.5966 -2.0338 0.9651
2.2922 -5.6872 -1.4411 0.9751
4.6112 -7.3230 -2.0339 0.9651
5.2468 -6.8820 -2.0339 0.9651
6.8833 -5.2454 -2.0339 0.9651
7.3241 -4.6097 -2.0339 0.9651
-0.5020 -7.8390 -2.0338 0.9681
0.2000 -7.8525 -2.0338 0.9681
0.9004 -7.8033 -2.0338 0.9681
1.2792 -6.1743 -1.6326 0.9743
1.7786 -5.8806 -1.5907 0.9749
2.3551 -5.8431 -1.6312 0.9743
2.9280 -5.7280 -1.6656 0.9738
5.3014 -5.7967 -2.0339 0.9681
5.7979 -5.3001 -2.0339 0.9681
6.6482 -4.1843 -2.0339 0.9681
6.9954 -3.5739 -2.0339 0.9681
7.2866 -2.9350 -2.0339 0.9681
7.6926 -1.5921 -2.0339 0.9681
1.7934 -5.9293 -1.7536 0.9746
2.4678 -6.1230 -1.8689 0.9729
3.0925 -6.0498 -1.9234 0.9721
3.8282 -6.0795 -2.0339 0.9706
4.3558 -5.7135 -2.0339 0.9706
4.8487 -5.3017 -2.0339 0.9706
5.3027 -4.8476 -2.0339 0.9706
5.7145 -4.3547 -2.0339 0.9706
6.3980 -3.2688 -2.0339 0.9706
6.6644 -2.6844 -2.0339 0.9706
7.0357 -1.4561 -2.0339 0.9706
1.3415 -6.4749 -2.0338 0.9727
2.4719 -6.1331 -2.0339 0.9727
3.5235 -5.5956 -2.0339 0.9727
5.5965 -3.5224 -2.0339 0.9727
5.8887 -3.0085 -2.0339 0.9727
6.3300 -1.9131 -2.0339 0.9727
6.4756 -1.3402 -2.0339 0.9727
-0.3911 -6.1060 -2.0338 0.9745
1.2413 -5.9913 -2.0338 0.9745
1.7714 -5.8566 -2.0339 0.9745
3.2603 -5.1777 -2.0339 0.9745
4.1294 -4.5152 -2.0339 0.9745
4.8667 -3.7087 -2.0339 0.9745
5.1784 -3.2593 -2.0339 0.9745
5.6757 -2.2861 -2.0339 0.9745
-0.3635 -5.6757 -2.0338 0.9761
0.6519 -5.6499 -2.0338 0.9761
1.6465 -5.4438 -2.0339 0.9761
2.1261 -5.2751 -2.0339 0.9761
3.0305 -4.8128 -2.0339 0.9761
3.4482 -4.5230 -2.0339 0.9761
3.8384 -4.1970 -2.0339 0.9761
4.8135 -3.0296 -2.0339 0.9761
5.5696 -1.1527 -2.0339 0.9761
1.9840 -4.9226 -2.0339 0.9775
2.4157 -4.7258 -2.0339 0.9775
2.8280 -4.4912 -2.0339 0.9775
3.2178 -4.2207 -2.0339 0.9775
3.5819 -3.9165 -2.0339 0.9775
3.9173 -3.5810 -2.0339 0.9775
4.2214 -3.2169 -2.0339 0.9775
5.1974 -1.0757 -2.0339 0.9775
-0.3176 -4.9592 -2.0338 0.9788
0.1265 -4.9678 -2.0338 0.9788
1.0082 -4.8661 -2.0339 0.9788
1.4387 -4.7566 -2.0339 0.9788
3.0129 -3.9520 -2.0339 0.9788
3.6679 -3.3530 -2.0339 0.9788
3.9526 -3.0121 -2.0339 0.9788
0.1188 -4.6653 -2.0338 0.9798
0.5349 -4.6360 -2.0339 0.9798
0.9468 -4.5697 -2.0339 0.9798
1.3511 -4.4670 -2.0339 0.9798
2.1241 -4.1554 -2.0339 0.9798
2.8294 -3.7113 -2.0339 0.9798
3.1495 -3.4438 -2.0339 0.9798
3.4445 -3.1488 -2.0339 0.9798
3.7120 -2.8287 -2.0339 0.9798
3.9497 -2.4859 -2.0339 0.9798
4.3289 -1.7437 -2.0339 0.9798
4.4674 -1.3501 -2.0339 0.9798
-0.2808 -4.3849 -2.0338 0.9808
0.5036 -4.3649 -2.0339 0.9808
1.6425 -4.0754 -2.0339 0.9808
1.9999 -3.9124 -2.0339 0.9808
2.6640 -3.4943 -2.0339 0.9808
3.2431 -2.9647 -2.0339 0.9808
3.7188 -2.3405 -2.0339 0.9808
4.2062 -1.2712 -2.0339 0.9808
-0.2650 -4.1379 -2.0339 0.9817
0.4752 -4.1190 -2.0339 0.9817
1.2004 -3.9688 -2.0339 0.9817
1.8872 -3.6920 -2.0339 0.9817
2.2094 -3.5087 -2.0339 0.9817
2.5139 -3.2974 -2.0339 0.9817
3.0604 -2.7977 -2.0339 0.9817
3.2980 -2.5132 -2.0339 0.9817
3.9692 -1.1996 -2.0339 0.9817
4.0604 -0.8404 -2.0339 0.9817
0.0998 -3.9192 -2.0339 0.9825
0.4494 -3.8946 -2.0339 0.9825
1.1350 -3.7526 -2.0339 0.9825
1.4656 -3.6363 -2.0339 0.9825
1.7845 -3.4909 -2.0339 0.9825
2.6459 -2.8931 -2.0339 0.9825
2.8937 -2.6453 -2.0339 0.9825
3.3181 -2.0884 -2.0339 0.9825
3.4914 -1.7837 -2.0339 0.9825
3.6367 -1.4648 -2.0339 0.9825
3.7529 -1.1342 -2.0339 0.9825
2.1075 -0.4362 -1.1165 0.9903
-0.2373 -3.7058 -2.0339 0.9832
0.4256 -3.6890 -2.0339 0.9832
1.0750 -3.5545 -2.0339 0.9832
1.6902 -3.3065 -2.0339 0.9832
1.9787 -3.1424 -2.0339 0.9832
2.7409 -2.5055 -2.0339 0.9832
2.9537 -2.2508 -2.0339 0.9832
3.1429 -1.9781 -2.0339 0.9832
3.4446 -1.3875 -2.0339 0.9832
1.8754 -0.5668 -1.0730 0.9911
1.8566 -0.3843 -1.0384 0.9914
0.0896 -3.5216 -2.0339 0.9839
0.4038 -3.4996 -2.0339 0.9839
1.3169 -3.2674 -2.0339 0.9839
1.6034 -3.1367 -2.0339 0.9839
2.1359 -2.8015 -2.0339 0.9839
2.3775 -2.5996 -2.0339 0.9839
2.6002 -2.3769 -2.0339 0.9839
2.8020 -2.1352 -2.0339 0.9839
2.9814 -1.8765 -2.0339 0.9839
1.7174 -0.5191 -1.0358 0.9917
1.7146 -0.3549 -1.0109 0.9919
