ply
format ascii 1.0
element vertex 177
property float32 x
property float32 y
property float32 z
property float32 I
end_header
13.7771 8.9179 -0.8323 0.9364
13.7162 8.8785 -1.1980 0.9366
13.4736 8.7215 -1.5409 0.9375
16.9011 -2.7500 -2.0340 0.9333
17.0824 -1.1861 -2.0340 0.9333
17.1193 0.3878 -2.0341 0.9333
15.8348 6.5188 -2.0341 0.9333
14.3754 9.3053 -2.0341 0.9333
13.4602 10.5862 -2.0341 0.9333
12.4310 11.7777 -2.0341 0.9333
10.0671 13.8528 -2.0341 0.9333
5.9125 16.0713 -2.0341 0.9333
14.1691 -2.3054 -2.0340 0.9437
14.3210 -0.9944 -2.0340 0.9437
14.3518 0.3251 -2.0340 0.9437
14.2614 1.6418 -2.0340 0.9437
14.0505 2.9447 -2.0341 0.9437
13.2750 5.4650 -2.0341 0.9437
12.7170 6.6611 -2.0341 0.9437
12.0516 7.8009 -2.0341 0.9437
11.2842 8.8748 -2.0341 0.9437
7.3374 12.3393 -2.0341 0.9437
6.1731 12.9610 -2.0341 0.9437
4.9567 13.4732 -2.0341 0.9437
12.1864 -1.9829 -2.0340 0.9512
12.3171 -0.8552 -2.0340 0.9512
12.2659 1.4121 -2.0340 0.9512
10.9375 5.7290 -2.0341 0.9512
10.3652 6.7094 -2.0341 0.9512
7.2587 9.9883 -2.0341 0.9512
5.3093 11.1474 -2.0341 0.9512
4.2631 11.5879 -2.0341 0.9512
10.7954 -0.7496 -2.0340 0.9569
10.8186 0.2450 -2.0340 0.9569
10.7504 1.2376 -2.0340 0.9569
10.3428 3.1831 -2.0340 0.9569
10.0068 4.1196 -2.0340 0.9569
9.0845 5.8804 -2.0340 0.9569
7.8557 7.4429 -2.0341 0.9569
7.1390 8.1329 -2.0341 0.9569
6.3618 8.7542 -2.0341 0.9569
4.6533 9.7701 -2.0340 0.9569
3.7364 10.1562 -2.0340 0.9569
2.7878 10.4563 -2.0340 0.9569
9.4974 -1.5453 -2.0340 0.9614
9.6200 0.2179 -2.0340 0.9614
9.4179 1.9738 -2.0340 0.9614
8.5241 4.4649 -2.0340 0.9614
7.5636 5.9487 -2.0340 0.9614
6.9854 6.6182 -2.0340 0.9614
5.6570 7.7842 -2.0340 0.9614
4.9182 8.2708 -2.0340 0.9614
4.1377 8.6876 -2.0340 0.9614
8.6336 -0.5995 -2.0340 0.9651
8.6522 0.1960 -2.0340 0.9651
8.5976 0.9898 -2.0340 0.9651
8.2716 2.5457 -2.0340 0.9651
7.2653 4.7028 -2.0340 0.9651
6.8027 5.3502 -2.0340 0.9651
5.7094 6.5042 -2.0340 0.9651
5.0879 7.0011 -2.0340 0.9651
4.4234 7.4387 -2.0340 0.9651
3.7214 7.8136 -2.0340 0.9651
2.9881 8.1224 -2.0340 0.9651
2.2295 8.3624 -2.0340 0.9651
7.8368 -0.5442 -2.0340 0.9681
7.8537 0.1779 -2.0340 0.9681
7.8042 0.8984 -2.0340 0.9681
7.5082 2.3107 -2.0340 0.9681
7.2643 2.9905 -2.0340 0.9681
6.9590 3.6451 -2.0340 0.9681
6.5948 4.2688 -2.0340 0.9681
5.7027 5.4030 -2.0340 0.9681
4.6183 6.3549 -2.0340 0.9681
4.0151 6.7522 -2.0340 0.9681
3.3780 7.0924 -2.0340 0.9681
2.7123 7.3727 -2.0340 0.9681
2.0238 7.5906 -2.0340 0.9681
7.0320 1.4738 -2.0340 0.9706
6.8670 2.1134 -2.0340 0.9706
6.3646 3.3338 -2.0340 0.9706
5.2157 4.9416 -2.0340 0.9706
4.7398 5.3997 -2.0340 0.9706
4.2239 5.8122 -2.0340 0.9706
3.0895 6.4868 -2.0340 0.9706
2.4807 6.7431 -2.0340 0.9706
1.8509 6.9424 -2.0340 0.9706
6.5970 -0.4581 -2.0340 0.9727
6.6111 0.1497 -2.0340 0.9727
6.5695 0.7563 -2.0340 0.9727
6.3204 1.9451 -2.0340 0.9727
5.8579 3.0684 -2.0340 0.9727
3.8876 5.3495 -2.0340 0.9727
3.3799 5.6839 -2.0340 0.9727
2.8436 5.9703 -2.0340 0.9727
6.1173 0.1386 -2.0340 0.9745
6.0788 0.6998 -2.0340 0.9745
4.8096 3.7827 -2.0340 0.9745
4.0366 4.5986 -2.0340 0.9745
3.5972 4.9500 -2.0340 0.9745
3.1274 5.2594 -2.0340 0.9745
5.6138 -0.9134 -2.0339 0.9761
5.6740 -0.3940 -2.0339 0.9761
5.5668 1.1666 -2.0340 0.9761
5.0384 2.6391 -2.0340 0.9761
4.7747 3.0907 -2.0340 0.9761
4.4707 3.5161 -2.0340 0.9761
4.1289 3.9119 -2.0340 0.9761
3.7521 4.2745 -2.0340 0.9761
1.9638 5.3380 -2.0340 0.9761
1.4652 5.4957 -2.0340 0.9761
5.2386 -0.8524 -2.0339 0.9775
5.3062 0.1202 -2.0339 0.9775
5.1947 1.0887 -2.0340 0.9775
5.0728 1.5612 -2.0340 0.9775
4.7016 2.4627 -2.0340 0.9775
3.5014 3.9888 -2.0340 0.9775
2.2823 4.7919 -2.0340 0.9775
1.8325 4.9812 -2.0340 0.9775
1.3673 5.1284 -2.0340 0.9775
4.9051 -0.7981 -2.0339 0.9788
4.9577 -0.3443 -2.0339 0.9788
4.9684 0.1125 -2.0339 0.9787
4.7498 1.4618 -2.0340 0.9787
4.5955 1.8918 -2.0340 0.9787
4.4023 2.3059 -2.0340 0.9787
3.9063 3.0722 -2.0340 0.9787
3.6077 3.4180 -2.0340 0.9787
2.5400 4.2715 -2.0340 0.9787
2.1370 4.4868 -2.0340 0.9787
1.7159 4.6641 -2.0340 0.9787
4.6557 -0.3233 -2.0339 0.9798
4.6364 0.5337 -2.0339 0.9798
4.4605 1.3728 -2.0340 0.9798
4.1342 2.1655 -2.0340 0.9798
3.9179 2.5360 -2.0340 0.9798
2.7436 3.7754 -2.0340 0.9798
2.3854 4.0114 -2.0340 0.9798
2.0068 4.2135 -2.0340 0.9798
1.6113 4.3800 -2.0340 0.9798
1.2023 4.5095 -2.0340 0.9798
4.3370 -0.7057 -2.0339 0.9808
4.3929 0.0995 -2.0339 0.9808
4.3653 0.5025 -2.0339 0.9808
4.1997 1.2925 -2.0340 0.9808
3.1898 3.0221 -2.0340 0.9808
2.5832 3.5546 -2.0340 0.9808
1.1320 4.2458 -2.0340 0.9808
4.0926 -0.6659 -2.0339 0.9817
4.0583 0.8505 -2.0339 0.9817
3.8343 1.5785 -2.0340 0.9817
3.4809 2.2532 -2.0340 0.9817
3.2593 2.5633 -2.0340 0.9817
3.0100 2.8518 -2.0340 0.9817
2.7354 3.1162 -2.0340 0.9817
2.4377 3.3543 -2.0340 0.9817
2.1007 -0.3418 -1.1041 0.9905
2.0750 0.0470 -1.0768 0.9907
3.7472 1.1532 -2.0339 0.9825
3.2913 2.1305 -2.0340 0.9825
2.3049 3.1716 -2.0340 0.9825
1.0100 3.7883 -2.0340 0.9825
1.8509 -0.3012 -1.0270 0.9915
1.8520 0.0419 -1.0146 0.9916
1.8568 0.3891 -1.0391 0.9914
1.8781 0.5780 -1.0762 0.9911
2.9190 2.2957 -2.0340 0.9832
2.4498 2.7909 -2.0340 0.9832
2.1832 3.0041 -2.0340 0.9832
1.2822 3.4852 -2.0340 0.9832
1.7179 0.1977 -0.9983 0.9920
1.7583 0.7238 -1.0978 0.9913
3.1207 1.6346 -2.0339 0.9839
2.9574 1.9143 -2.0339 0.9839
2.7691 2.1779 -2.0339 0.9839
2.0711 2.8498 -2.0340 0.9839
0.9075 3.4039 -2.0339 0.9839
