ply
format ascii 1.0
element vertex 177
property float32 x
property float32 y
property float32 z
property float32 I
end_header
-11.6031 -8.1370 -1.0391 0.9447
-14.8596 -8.5032 -2.0337 0.9334
-13.0566 -11.0740 -2.0337 0.9334
-10.8144 -13.2724 -2.0337 0.9334
-9.5517 -14.2082 -2.0337 0.9334
-6.7961 -15.7137 -2.0337 0.9334
-3.8119 -16.6908 -2.0337 0.9334
-0.6994 -17.1065 -2.0337 0.9334
0.8724 -17.0986 -2.0337 0.9334
2.4368 -16.9467 -2.0337 0.9334
2.1746 -6.4224 -0.8054 0.9731
-13.0592 -5.9563 -2.0337 0.9437
-10.9462 -9.2841 -2.0337 0.9437
-9.0665 -11.1272 -2.0337 0.9437
-8.0079 -11.9118 -2.0337 0.9437
-6.8817 -12.5959 -2.0337 0.9437
-5.6976 -13.1739 -2.0337 0.9437
-3.1957 -13.9931 -2.0337 0.9437
0.7314 -14.3349 -2.0337 0.9437
2.1024 -6.2091 -0.9288 0.9739
-10.7149 -6.1314 -2.0337 0.9512
-10.1075 -7.0882 -2.0337 0.9512
-8.6428 -8.8150 -2.0337 0.9512
-4.9005 -11.3309 -2.0337 0.9512
-1.6333 -12.2368 -2.0337 0.9512
0.6291 -12.3293 -2.0338 0.9512
1.5424 -6.4524 -1.0929 0.9735
-9.8446 -4.4901 -2.0338 0.9569
-8.2518 -6.9987 -2.0338 0.9569
-7.5751 -7.7260 -2.0337 0.9569
-6.8347 -8.3881 -2.0337 0.9569
-5.1877 -9.4954 -2.0337 0.9569
-3.3663 -10.2832 -2.0338 0.9569
-2.4091 -10.5486 -2.0338 0.9569
-1.4316 -10.7251 -2.0338 0.9569
-0.4420 -10.8112 -2.0338 0.9569
0.5514 -10.8062 -2.0338 0.9569
1.5401 -10.7102 -2.0338 0.9569
1.4830 -6.2038 -1.1989 0.9744
-8.3508 -4.7786 -2.0338 0.9614
-6.7359 -6.8701 -2.0338 0.9614
-4.6130 -8.4434 -2.0338 0.9614
-2.9934 -9.1439 -2.0338 0.9614
-2.1422 -9.3800 -2.0338 0.9614
1.3695 -9.5236 -2.0338 0.9614
-7.5108 -4.2979 -2.0338 0.9651
-6.5995 -5.5974 -2.0338 0.9651
-4.8279 -7.1816 -2.0338 0.9651
-3.4351 -7.9425 -2.0338 0.9651
-1.9267 -8.4364 -2.0338 0.9651
-1.1449 -8.5776 -2.0338 0.9651
1.2316 -8.5656 -2.0338 0.9651
1.4489 -6.0614 -1.4647 0.9747
1.9871 -5.8684 -1.4561 0.9749
-5.9905 -5.0808 -2.0338 0.9681
-5.4993 -5.6088 -2.0338 0.9681
-4.3824 -6.5188 -2.0338 0.9681
-3.7662 -6.8933 -2.0338 0.9681
-2.4438 -7.4652 -2.0338 0.9681
-1.7489 -7.6579 -2.0338 0.9681
-0.3209 -7.8485 -2.0338 0.9681
1.9675 -5.8108 -1.5884 0.9750
-6.5364 -2.9813 -2.0338 0.9706
-5.4789 -4.6470 -2.0338 0.9706
-5.0297 -5.1298 -2.0338 0.9706
-4.0082 -5.9622 -2.0338 0.9706
-2.8518 -6.5939 -2.0338 0.9706
-2.2351 -6.8277 -2.0338 0.9706
0.3661 -7.1750 -2.0338 0.9706
1.0225 -7.1112 -2.0338 0.9706
-5.7392 -3.2841 -2.0338 0.9727
-4.1768 -5.1261 -2.0338 0.9727
-3.1703 -5.8028 -2.0338 0.9727
-2.6248 -6.0690 -2.0338 0.9727
-2.0572 -6.2842 -2.0338 0.9727
-0.2701 -6.6069 -2.0338 0.9727
2.1207 -6.2632 -2.0338 0.9727
-5.5668 -2.5390 -2.0338 0.9745
-5.3105 -3.0389 -2.0338 0.9745
-5.0095 -3.5130 -2.0338 0.9745
-3.8649 -4.7433 -2.0338 0.9745
-2.4288 -5.6158 -2.0338 0.9745
-1.9036 -5.8149 -2.0338 0.9745
-1.3623 -5.9649 -2.0338 0.9745
0.3118 -6.1106 -2.0338 0.9745
-5.1745 -2.3601 -2.0338 0.9761
-4.9362 -2.8247 -2.0338 0.9761
-4.3373 -3.6787 -2.0338 0.9761
-3.1730 -4.7199 -2.0338 0.9761
-1.2663 -5.5446 -2.0338 0.9761
-0.7525 -5.6373 -2.0338 0.9761
-0.2323 -5.6826 -2.0338 0.9761
0.2898 -5.6800 -2.0338 0.9761
0.8095 -5.6295 -2.0338 0.9761
1.3223 -5.5315 -2.0338 0.9761
-4.3452 -3.0472 -2.0338 0.9775
-4.0475 -3.4329 -2.0338 0.9775
-2.5446 -4.6574 -2.0338 0.9775
-2.1068 -4.8712 -2.0338 0.9775
-1.6512 -5.0439 -2.0338 0.9775
-1.1816 -5.1740 -2.0338 0.9775
-0.2168 -5.3029 -2.0338 0.9775
0.2704 -5.3004 -2.0338 0.9775
0.7554 -5.2533 -2.0338 0.9775
1.2339 -5.1619 -2.0339 0.9775
1.7021 -5.0270 -2.0339 0.9775
-4.5212 -2.0621 -2.0338 0.9788
-3.7898 -3.2143 -2.0338 0.9788
-2.7725 -4.1241 -2.0338 0.9788
-2.3826 -4.3610 -2.0338 0.9788
-1.9727 -4.5611 -2.0338 0.9788
-1.5461 -4.7228 -2.0338 0.9788
-0.6575 -4.9257 -2.0338 0.9788
0.2532 -4.9629 -2.0338 0.9788
0.7073 -4.9188 -2.0339 0.9788
1.1554 -4.8332 -2.0339 0.9788
1.5938 -4.7070 -2.0339 0.9788
-4.0504 -2.3178 -2.0338 0.9798
-3.5591 -3.0186 -2.0338 0.9798
-2.9478 -3.6178 -2.0338 0.9798
-1.8525 -4.2833 -2.0338 0.9798
-1.4519 -4.4352 -2.0338 0.9798
-1.0391 -4.5496 -2.0338 0.9798
-0.6175 -4.6257 -2.0338 0.9798
1.0850 -4.5389 -2.0339 0.9798
1.4967 -4.4203 -2.0339 0.9798
-3.9977 -1.8233 -2.0338 0.9808
-3.8136 -2.1823 -2.0338 0.9808
-3.5974 -2.5228 -2.0338 0.9808
-3.3508 -2.8421 -2.0338 0.9808
-2.4514 -3.6464 -2.0338 0.9808
-1.7442 -4.0329 -2.0338 0.9808
-1.3670 -4.1758 -2.0338 0.9808
-0.5813 -4.3553 -2.0338 0.9808
0.2239 -4.3882 -2.0339 0.9808
0.6254 -4.3491 -2.0339 0.9808
-2.9028 -2.9606 -2.0338 0.9817
-2.6191 -3.2144 -2.0338 0.9817
-2.3133 -3.4410 -2.0338 0.9817
-1.9880 -3.6386 -2.0338 0.9817
-1.6459 -3.8056 -2.0338 0.9817
-1.2900 -3.9405 -2.0338 0.9817
-0.9232 -4.0422 -2.0338 0.9817
-0.5486 -4.1099 -2.0338 0.9817
-0.1694 -4.1429 -2.0339 0.9817
0.2112 -4.1409 -2.0339 0.9817
0.5901 -4.1041 -2.0339 0.9817
-1.1793 -0.5379 -0.6724 0.9942
-2.9898 -2.5358 -2.0338 0.9825
-2.4764 -3.0393 -2.0338 0.9825
-1.8797 -3.4405 -2.0338 0.9825
0.1997 -3.9154 -2.0339 0.9825
0.5580 -3.8806 -2.0339 0.9825
0.9115 -3.8131 -2.0339 0.9825
1.2573 -3.7134 -2.0339 0.9825
-0.9958 -0.4542 -0.5994 0.9950
-3.2230 -1.8443 -2.0339 0.9832
-3.0403 -2.1321 -2.0339 0.9832
-2.5997 -2.6515 -2.0338 0.9832
-2.0718 -3.0818 -2.0338 0.9832
-1.4741 -3.4083 -2.0338 0.9832
-0.8268 -3.6202 -2.0339 0.9832
-0.1517 -3.7104 -2.0339 0.9832
0.1892 -3.7086 -2.0339 0.9832
0.5285 -3.6756 -2.0339 0.9832
1.1910 -3.5173 -2.0339 0.9832
-0.9241 -0.4215 -0.5864 0.9953
-1.1534 -0.6600 -0.7672 0.9939
-2.8842 -2.0226 -2.0339 0.9839
-2.4662 -2.5154 -2.0339 0.9839
-1.9654 -2.9235 -2.0339 0.9839
-1.6890 -3.0915 -2.0339 0.9839
-1.3984 -3.2333 -2.0339 0.9839
-0.7844 -3.4344 -2.0339 0.9839
0.5013 -3.4869 -2.0339 0.9839
0.8191 -3.4262 -2.0339 0.9839
1.1297 -3.3367 -2.0339 0.9839
