ply
format ascii 1.0
element vertex 195
property float32 x
property float32 y
property float32 z
property float32 I
end_header
-12.0830 -7.7786 -1.3796 0.9439
-16.7002 -3.7719 -2.0337 0.9334
-15.7888 -6.6206 -2.0337 0.9334
-15.1500 -7.9744 -2.0337 0.9334
-13.5309 -10.4892 -2.0337 0.9334
-10.3471 -13.6398 -2.0337 0.9334
-7.8154 -15.2324 -2.0337 0.9334
-6.4550 -15.8569 -2.0337 0.9334
-5.0453 -16.3602 -2.0337 0.9334
-3.5970 -16.7385 -2.0337 0.9334
-2.1211 -16.9888 -2.0337 0.9334
-14.3422 0.5776 -2.0338 0.9437
-14.2237 -1.9272 -2.0338 0.9437
-14.0009 -3.1622 -2.0337 0.9437
-13.6711 -4.3731 -2.0337 0.9437
-12.7013 -6.6855 -2.0337 0.9437
-9.6404 -10.6338 -2.0337 0.9437
-7.6427 -12.1493 -2.0337 0.9437
-6.5522 -12.7704 -2.0337 0.9437
-4.2298 -13.7159 -2.0337 0.9437
-3.0155 -14.0330 -2.0337 0.9437
-1.7783 -14.2429 -2.0337 0.9437
-12.2451 1.5724 -2.0338 0.9512
-12.3317 -0.5826 -2.0338 0.9512
-12.0420 -2.7198 -2.0338 0.9512
-11.3849 -4.7739 -2.0337 0.9512
-10.9243 -5.7501 -2.0337 0.9512
-10.3803 -6.6824 -2.0337 0.9512
-9.0589 -8.3869 -2.0337 0.9512
-7.4610 -9.8354 -2.0337 0.9512
-5.6355 -10.9837 -2.0337 0.9512
-2.5937 -12.0697 -2.0337 0.9512
-1.5295 -12.2502 -2.0338 0.9512
-10.8116 0.4354 -2.0338 0.9569
-10.8083 -0.5106 -2.0338 0.9569
-10.5544 -2.3838 -2.0338 0.9569
-10.3059 -3.2966 -2.0338 0.9569
-9.0979 -5.8569 -2.0338 0.9569
-7.9398 -7.3508 -2.0338 0.9569
-7.2673 -8.0162 -2.0337 0.9569
-3.1886 -10.3396 -2.0338 0.9569
-2.2733 -10.5787 -2.0338 0.9569
-1.3405 -10.7368 -2.0338 0.9569
-9.5433 1.2255 -2.0338 0.9614
-9.6138 0.3872 -2.0338 0.9614
-9.6109 -0.4541 -2.0338 0.9614
-9.5344 -1.2918 -2.0338 0.9614
-9.3851 -2.1197 -2.0338 0.9614
-9.1641 -2.9314 -2.0338 0.9614
-8.5140 -4.4814 -2.0338 0.9614
-7.6042 -5.8948 -2.0338 0.9614
-5.8149 -7.6654 -2.0338 0.9614
-4.3921 -8.5604 -2.0338 0.9614
-2.8354 -9.1941 -2.0338 0.9614
-2.0214 -9.4067 -2.0338 0.9614
-8.6441 -0.4084 -2.0338 0.9651
-8.2422 -2.6365 -2.0338 0.9651
-7.9804 -3.3464 -2.0338 0.9651
-7.2762 -4.6841 -2.0338 0.9651
-6.8393 -5.3018 -2.0338 0.9651
-6.3500 -5.8789 -2.0338 0.9651
-5.2300 -6.8943 -2.0338 0.9651
-1.8180 -8.4604 -2.0338 0.9651
-1.0721 -8.5870 -2.0338 0.9651
-7.7912 1.0005 -2.0338 0.9681
-7.8488 0.3161 -2.0338 0.9681
-7.7839 -1.0547 -2.0338 0.9681
-7.6620 -1.7306 -2.0338 0.9681
-4.7473 -6.2581 -2.0338 0.9681
-2.3148 -7.5062 -2.0338 0.9681
-7.1259 0.9150 -2.0338 0.9706
-7.1193 -0.9646 -2.0338 0.9706
-7.0078 -1.5828 -2.0338 0.9706
-6.8427 -2.1888 -2.0338 0.9706
-6.3573 -3.3463 -2.0338 0.9706
-6.0407 -3.8888 -2.0338 0.9706
-5.2718 -4.8807 -2.0338 0.9706
-3.2796 -6.3920 -2.0338 0.9706
-2.7088 -6.6540 -2.0338 0.9706
-6.6050 -0.3121 -2.0338 0.9727
-6.5525 -0.8878 -2.0338 0.9727
-6.4499 -1.4568 -2.0338 0.9727
-6.2980 -2.0146 -2.0338 0.9727
-5.8513 -3.0799 -2.0338 0.9727
-5.5599 -3.5792 -2.0338 0.9727
-4.8521 -4.4922 -2.0338 0.9727
-4.4412 -4.8988 -2.0338 0.9727
-3.9963 -5.2680 -2.0338 0.9727
-3.5209 -5.5970 -2.0338 0.9727
-2.4931 -6.1243 -2.0338 0.9727
-6.0687 0.7793 -2.0339 0.9745
-6.1136 0.2462 -2.0339 0.9745
-5.9682 -1.3480 -2.0338 0.9745
-5.8276 -1.8641 -2.0338 0.9745
-5.6425 -2.3660 -2.0338 0.9745
-5.4143 -2.8499 -2.0338 0.9745
-4.8357 -3.7486 -2.0338 0.9745
-4.4897 -4.1567 -2.0338 0.9745
-3.6979 -4.8746 -2.0338 0.9745
-2.7931 -5.4438 -2.0338 0.9745
-1.2855 -5.9820 -2.0338 0.9745
-5.6411 0.7244 -2.0339 0.9761
-5.6828 0.2288 -2.0339 0.9761
-5.6810 -0.2684 -2.0338 0.9761
-5.2449 -2.1993 -2.0338 0.9761
-5.0327 -2.6490 -2.0338 0.9761
-3.8199 -4.2135 -2.0338 0.9761
-3.4373 -4.5311 -2.0338 0.9761
-2.5963 -5.0602 -2.0338 0.9761
-2.1443 -5.2676 -2.0338 0.9761
-1.1949 -5.5604 -2.0338 0.9761
-5.3030 0.2136 -2.0339 0.9775
-5.3014 -0.2505 -2.0339 0.9775
-5.1769 -1.1693 -2.0338 0.9775
-5.0549 -1.6170 -2.0338 0.9775
-4.4625 -2.8728 -2.0338 0.9775
-4.1945 -3.2516 -2.0338 0.9775
-2.8259 -4.4923 -2.0338 0.9775
-2.4227 -4.7220 -2.0338 0.9775
-2.0010 -4.9156 -2.0338 0.9775
-1.5640 -5.0716 -2.0338 0.9775
-0.6575 -5.2664 -2.0338 0.9775
-2.1070 0.2705 -0.8694 0.9909
-2.1223 -0.1003 -0.8696 0.9909
-2.1093 -0.2858 -0.8712 0.9908
-2.1199 -0.4788 -0.8895 0.9907
-4.7331 -1.5140 -2.0338 0.9788
-4.5828 -1.9217 -2.0338 0.9788
-4.3974 -2.3146 -2.0338 0.9788
-3.9275 -3.0446 -2.0338 0.9788
-1.4645 -4.7487 -2.0338 0.9788
-1.0441 -4.8585 -2.0338 0.9788
-1.9033 0.2444 -0.8363 0.9917
-1.9186 0.0772 -0.8368 0.9917
-1.9182 -0.0907 -0.8369 0.9917
-1.9018 -0.2577 -0.8364 0.9917
-4.4449 -1.4218 -2.0338 0.9798
-4.1296 -2.1737 -2.0338 0.9798
-3.6882 -2.8592 -2.0338 0.9798
-3.1344 -3.4574 -2.0338 0.9798
-2.8205 -3.7180 -2.0338 0.9798
-2.4849 -3.9501 -2.0338 0.9798
-2.1304 -4.1521 -2.0338 0.9798
-1.3753 -4.4595 -2.0338 0.9798
-0.9805 -4.5626 -2.0338 0.9798
-0.5782 -4.6308 -2.0338 0.9798
-1.6105 -0.2182 -0.7523 0.9929
-1.6086 -0.5146 -0.7818 0.9926
-4.0520 -1.6991 -2.0338 0.9808
-3.4726 -2.6920 -2.0338 0.9808
-3.2242 -2.9850 -2.0338 0.9808
-2.3396 -3.7192 -2.0338 0.9808
-2.0058 -3.9093 -2.0338 0.9808
-0.9231 -4.2958 -2.0338 0.9808
-1.3472 0.0542 -0.6614 0.9940
-3.8237 -1.6034 -2.0338 0.9817
-3.6690 -1.9313 -2.0338 0.9817
-3.4863 -2.2444 -2.0338 0.9817
-3.2770 -2.5403 -2.0338 0.9817
-3.0425 -2.8168 -2.0338 0.9817
-2.2078 -3.5096 -2.0338 0.9817
-1.2219 -3.9622 -2.0338 0.9817
-0.5137 -4.1144 -2.0338 0.9817
-1.1984 0.1538 -0.6268 0.9946
-1.1979 0.0482 -0.6220 0.9946
-1.1971 -0.1622 -0.6267 0.9946
-1.1729 -0.2649 -0.6238 0.9946
-1.1415 -0.3652 -0.6217 0.9946
-3.2964 -2.1221 -2.0338 0.9825
-3.0985 -2.4020 -2.0338 0.9825
-2.0875 -3.3185 -2.0338 0.9825
-1.4782 -3.6311 -2.0338 0.9825
-1.0806 0.0435 -0.5923 0.9951
-1.0746 -0.1456 -0.5939 0.9951
-1.0323 -0.3302 -0.5936 0.9951
-1.0073 -0.4224 -0.5982 0.9950
-1.1746 -0.6183 -0.7271 0.9940
-2.9348 -2.2751 -2.0338 0.9832
-2.7249 -2.5228 -2.0338 0.9832
-2.2443 -2.9585 -2.0338 0.9832
-1.6952 -3.3039 -2.0338 0.9832
-1.4001 -3.4394 -2.0338 0.9832
-0.9847 -0.1335 -0.5737 0.9954
-0.9697 -0.2190 -0.5740 0.9954
-0.9534 -0.3050 -0.5779 0.9954
-0.9054 -0.4766 -0.5908 0.9953
-2.9620 -1.9068 -2.0339 0.9839
-2.7841 -2.1583 -2.0339 0.9839
-2.5850 -2.3932 -2.0339 0.9839
-2.3660 -2.6099 -2.0339 0.9839
-2.1290 -2.8066 -2.0339 0.9839
-1.6081 -3.1343 -2.0339 0.9839
-1.3282 -3.2628 -2.0339 0.9839
-1.0381 -3.3663 -2.0339 0.9839
-0.4364 -3.4956 -2.0339 0.9839
