ply
format ascii 1.0
element vertex 214
property float32 x
property float32 y
property float32 z
property float32 I
end_header
2.4971 18.9425 3.3690 0.9253
-12.2008 13.1798 3.1669 0.9296
2.3212 17.6083 2.7208 0.9307
-11.5301 12.4553 2.6002 0.9336
-11.3663 12.2783 2.1788 0.9347
2.3402 17.7535 1.9229 0.9305
-11.4981 12.4207 1.8175 0.9342
-13.0057 11.7842 1.8846 0.9318
2.3048 17.4842 1.0936 0.9318
-12.0556 13.0230 1.1005 0.9313
2.4291 18.4272 0.7329 0.9283
-12.6082 13.6200 0.7318 0.9284
-12.0998 13.0708 0.3009 0.9312
2.5318 19.2066 -0.1091 0.9254
-12.0387 13.0048 -0.0998 0.9316
2.5975 19.7054 -0.5597 0.9235
-12.0270 12.9920 -0.8979 0.9315
-12.0843 13.0539 -1.7078 0.9310
-16.3351 5.0031 -1.6402 0.9337
-1.0028 7.5349 -0.9029 0.9698
-1.6589 7.4151 -0.9026 0.9699
-10.4855 13.5369 -2.0340 0.9334
-12.6887 11.4969 -2.0339 0.9334
-16.3711 5.0141 -2.0338 0.9334
1.8762 14.2328 -2.0341 0.9437
-0.6388 14.3415 -2.0341 0.9437
-0.9884 7.4262 -1.0615 0.9702
-8.7905 11.3487 -2.0340 0.9437
-9.7516 10.5341 -2.0339 0.9437
-12.1575 7.6320 -2.0339 0.9437
-12.7797 6.5365 -2.0339 0.9437
-13.3035 5.3908 -2.0338 0.9437
-14.0404 2.9841 -2.0338 0.9437
1.6137 12.2412 -2.0341 0.9512
-0.9771 7.3422 -1.2202 0.9704
-1.5948 7.1283 -1.2033 0.9708
-2.4575 7.7278 -1.3359 0.9677
-4.7588 11.3927 -2.0340 0.9512
-6.6757 10.3861 -2.0340 0.9512
-7.5605 9.7607 -2.0339 0.9512
-8.3872 9.0602 -2.0339 0.9512
-9.8408 7.4557 -2.0339 0.9512
-11.4421 4.6366 -2.0339 0.9512
-11.8045 3.6155 -2.0338 0.9512
-12.0760 2.5666 -2.0338 0.9512
-0.3483 7.8191 -1.4712 0.9686
-0.9656 7.2553 -1.3757 0.9706
-5.0303 9.5810 -2.0340 0.9569
-6.6264 8.5548 -2.0339 0.9569
-9.1646 5.7532 -2.0339 0.9569
-10.5841 2.2495 -2.0338 0.9569
1.2575 9.5400 -2.0340 0.9614
-0.3456 7.7589 -1.6417 0.9687
-0.9620 7.2286 -1.5415 0.9706
-5.2027 8.0944 -2.0339 0.9614
-7.6694 5.8106 -2.0339 0.9614
-8.5664 4.3815 -2.0339 0.9614
-8.9175 3.6136 -2.0339 0.9614
-0.9663 7.2601 -1.7213 0.9704
-1.6157 7.2218 -1.7392 0.9700
-4.6793 7.2801 -2.0339 0.9651
-5.2996 6.8418 -2.0339 0.9651
-5.8790 6.3507 -2.0339 0.9651
-6.4131 5.8107 -2.0339 0.9651
-6.8979 5.2261 -2.0339 0.9651
-7.7046 3.9407 -2.0339 0.9651
-8.0204 3.2500 -2.0339 0.9651
-8.4648 1.7990 -2.0338 0.9651
0.3398 7.8484 -2.0340 0.9681
-0.3496 7.8479 -2.0340 0.9681
-0.9781 7.3492 -1.9196 0.9698
-1.7151 7.6661 -2.0340 0.9681
-4.2475 6.6082 -2.0339 0.9681
-4.8105 6.2103 -2.0339 0.9681
-6.2613 4.7438 -2.0339 0.9681
-6.6531 4.1765 -2.0339 0.9681
-6.9936 3.5771 -2.0339 0.9681
-7.2802 2.9501 -2.0339 0.9681
-7.5108 2.3004 -2.0339 0.9681
-7.6836 1.6330 -2.0339 0.9681
0.9390 7.1232 -2.0340 0.9706
-0.3197 7.1777 -2.0340 0.9706
-2.1773 6.8469 -2.0340 0.9706
-3.8847 6.0439 -2.0339 0.9706
-4.8807 5.2723 -2.0339 0.9706
-5.7266 4.3387 -2.0339 0.9706
-6.0849 3.8198 -2.0339 0.9706
-6.8695 2.1040 -2.0339 0.9706
-7.0275 1.4936 -2.0339 0.9706
0.2861 6.6067 -2.0340 0.9727
-1.4438 6.4533 -2.0340 0.9727
-2.0040 6.3018 -2.0340 0.9727
-3.0739 5.8548 -2.0339 0.9727
-3.5755 5.5628 -2.0339 0.9727
-4.4921 4.8526 -2.0339 0.9727
-4.9003 4.4401 -2.0339 0.9727
-5.2707 3.9933 -2.0339 0.9727
-5.6005 3.5158 -2.0339 0.9727
-6.1285 2.4834 -2.0339 0.9727
-6.3226 1.9365 -2.0339 0.9727
0.7997 6.0665 -2.0340 0.9745
0.2647 6.1132 -2.0340 0.9745
-1.3359 5.9713 -2.0340 0.9745
-2.3584 5.6461 -2.0339 0.9745
-2.8444 5.4175 -2.0339 0.9745
-3.3084 5.1473 -2.0339 0.9745
-3.7470 4.8373 -2.0339 0.9745
-4.1566 4.4902 -2.0339 0.9745
-4.8770 3.6950 -2.0339 0.9745
-5.1822 3.2532 -2.0339 0.9745
-5.4475 2.7862 -2.0339 0.9745
-5.6708 2.2979 -2.0339 0.9745
0.7434 5.6389 -2.0340 0.9761
0.2461 5.6824 -2.0340 0.9761
-0.7503 5.6380 -2.0340 0.9761
-1.2418 5.5504 -2.0340 0.9761
-1.7236 5.4202 -2.0339 0.9761
-2.1922 5.2482 -2.0339 0.9761
-4.8170 3.0239 -2.0339 0.9761
-5.2711 2.1360 -2.0339 0.9761
-5.5631 1.1823 -2.0339 0.9761
0.2296 5.3026 -2.0340 0.9775
-1.1588 5.1795 -2.0339 0.9775
-2.4672 4.6992 -2.0339 0.9775
-2.8697 4.4647 -2.0339 0.9775
-3.2501 4.1959 -2.0339 0.9775
-3.6055 3.8948 -2.0339 0.9775
-3.9330 3.5637 -2.0339 0.9775
-4.2304 3.2051 -2.0339 0.9775
-4.4951 2.8218 -2.0339 0.9775
-4.7252 2.4168 -2.0339 0.9775
-4.9189 1.9932 -2.0339 0.9775
-5.0747 1.5542 -2.0339 0.9775
0.6495 4.9270 -2.0340 0.9787
0.2150 4.9650 -2.0340 0.9787
-0.2212 4.9647 -2.0340 0.9787
-0.6556 4.9262 -2.0340 0.9788
-1.9155 4.5856 -2.0339 0.9788
-2.3102 4.4000 -2.0339 0.9788
-2.6870 4.1805 -2.0339 0.9788
-3.0432 3.9288 -2.0339 0.9788
-3.3760 3.6468 -2.0339 0.9788
-3.6827 3.3368 -2.0339 0.9788
-3.9611 3.0010 -2.0339 0.9788
-4.7516 1.4553 -2.0339 0.9788
0.6099 4.6270 -2.0340 0.9798
0.2019 4.6626 -2.0340 0.9798
-0.2077 4.6623 -2.0340 0.9798
-0.6157 4.6262 -2.0339 0.9798
-1.0189 4.5544 -2.0339 0.9798
-1.4143 4.4475 -2.0339 0.9798
-2.1694 4.1320 -2.0339 0.9798
-2.5234 3.9259 -2.0339 0.9798
-2.8579 3.6895 -2.0339 0.9798
-3.9526 2.4813 -2.0339 0.9798
-2.0768 0.6360 -0.9466 0.9906
-1.9036 0.4045 -0.8481 0.9915
0.5743 4.3564 -2.0340 0.9808
0.1901 4.3900 -2.0340 0.9808
-0.1955 4.3897 -2.0339 0.9808
-0.5796 4.3556 -2.0339 0.9808
-0.9593 4.2880 -2.0339 0.9808
-1.3316 4.1874 -2.0339 0.9808
-1.6936 4.0545 -2.0339 0.9808
-2.0426 3.8904 -2.0339 0.9808
-2.3758 3.6963 -2.0339 0.9808
-2.6907 3.4738 -2.0339 0.9808
-3.2561 2.9503 -2.0339 0.9808
-3.5023 2.6535 -2.0339 0.9808
-3.7214 2.3362 -2.0339 0.9808
-4.0723 1.6502 -2.0339 0.9808
-1.5346 0.4700 -0.7429 0.9930
0.1794 4.1426 -2.0339 0.9817
-0.1845 4.1423 -2.0339 0.9817
-1.2566 3.9514 -2.0339 0.9817
-2.2420 3.4880 -2.0339 0.9817
-3.3050 2.5039 -2.0339 0.9817
-3.5118 2.2045 -2.0339 0.9817
-1.7415 0.7057 -0.9217 0.9917
-1.3305 0.2827 -0.6672 0.9940
0.5124 3.8870 -2.0339 0.9825
0.1696 3.9170 -2.0339 0.9825
-0.1745 3.9167 -2.0339 0.9825
-0.5172 3.8863 -2.0339 0.9825
-1.5111 3.6177 -2.0339 0.9825
-1.8225 3.4712 -2.0339 0.9825
-2.4008 3.0995 -2.0339 0.9825
-2.6633 2.8770 -2.0339 0.9825
-2.9054 2.6324 -2.0339 0.9825
-3.1250 2.3676 -2.0339 0.9825
-1.1195 0.4536 -0.6266 0.9946
0.1606 3.7101 -2.0339 0.9832
-0.1652 3.7099 -2.0339 0.9832
-0.8108 3.6240 -2.0339 0.9832
-1.1254 3.5389 -2.0339 0.9832
-1.4313 3.4266 -2.0339 0.9832
-1.7262 3.2879 -2.0339 0.9832
-2.0079 3.1239 -2.0339 0.9832
-2.5227 2.7251 -2.0339 0.9832
-2.7519 2.4934 -2.0339 0.9832
-2.9599 2.2425 -2.0339 0.9832
-3.1452 1.9744 -2.0339 0.9832
-1.0116 0.4099 -0.5978 0.9950
-1.0563 0.2245 -0.5915 0.9951
0.4604 3.4927 -2.0339 0.9839
-0.4648 3.4921 -2.0339 0.9839
-0.7691 3.4379 -2.0339 0.9839
-1.9048 2.9635 -2.0339 0.9839
-2.3932 2.5852 -2.0339 0.9839
-2.6106 2.3654 -2.0339 0.9839
-2.9836 1.8730 -2.0339 0.9839
-0.9370 0.3796 -0.5837 0.9953
-0.9554 0.2926 -0.5769 0.9954
-0.9725 0.2067 -0.5740 0.9954
