ply
format ascii 1.0
element vertex 204
property float32 x
property float32 y
property float32 z
property float32 I
end_header
2.8381 18.8405 3.3596 0.9255
1.1289 18.5746 2.8508 0.9275
2.6239 17.4190 1.4912 0.9317
1.1376 18.7186 1.1629 0.9276
2.6584 17.6481 0.7037 0.9310
2.7012 17.9318 0.3063 0.9300
2.9155 19.3546 -0.1102 0.9247
2.7980 18.5750 -0.9526 0.9275
13.4729 9.6587 -1.2155 0.9357
14.8056 8.7379 -1.6505 0.9332
13.1718 9.4429 -1.5559 0.9369
-1.5595 7.4728 -0.7329 0.9698
14.7475 8.7036 -2.0341 0.9333
13.2441 9.4947 -1.9357 0.9365
12.9777 11.1725 -2.0341 0.9333
10.7995 13.2898 -2.0341 0.9333
9.5782 14.1953 -2.0341 0.9333
6.9192 15.6642 -2.0341 0.9333
2.5507 16.9332 -2.0341 0.9333
1.0388 17.0925 -2.0341 0.9333
-0.4813 17.1172 -2.0341 0.9333
-6.4048 15.8805 -2.0340 0.9333
9.0536 11.1413 -2.0341 0.9437
4.6130 13.5946 -2.0341 0.9437
2.1384 14.1958 -2.0341 0.9437
0.8709 14.3294 -2.0341 0.9437
-0.4035 14.3501 -2.0341 0.9437
-0.8712 7.4172 -1.0582 0.9703
-2.2326 7.3591 -1.0896 0.9694
-6.5291 12.7845 -2.0340 0.9437
10.0349 7.1940 -2.0341 0.9512
9.3573 8.0557 -2.0341 0.9512
8.6059 8.8539 -2.0341 0.9512
6.9062 10.2352 -2.0341 0.9512
5.9711 10.8074 -2.0341 0.9512
3.9676 11.6924 -2.0341 0.9512
2.9148 11.9982 -2.0341 0.9512
-0.8732 7.4336 -1.2330 0.9701
-1.4996 7.1857 -1.2093 0.9707
-2.1961 7.2389 -1.2462 0.9698
-4.6181 11.4505 -2.0340 0.9512
-5.6155 10.9957 -2.0340 0.9512
9.3196 5.5002 -2.0340 0.9569
8.7951 6.3051 -2.0340 0.9569
8.2012 7.0604 -2.0340 0.9569
7.5426 7.7600 -2.0341 0.9569
6.8246 8.3984 -2.0341 0.9569
5.2333 9.4721 -2.0341 0.9569
0.6565 10.8016 -2.0340 0.9569
-0.3042 10.8172 -2.0340 0.9569
-0.8577 7.3024 -1.3820 0.9705
-1.5127 7.2484 -1.3918 0.9703
-2.1778 7.1785 -1.4100 0.9699
-4.0475 10.0358 -2.0340 0.9569
-4.9217 9.6372 -2.0340 0.9569
7.8206 5.6065 -2.0340 0.9614
7.2925 6.2781 -2.0340 0.9614
6.7070 6.9002 -2.0340 0.9614
6.0685 7.4679 -2.0340 0.9614
5.3822 7.9767 -2.0340 0.9614
4.6535 8.4226 -2.0340 0.9614
3.8881 8.8021 -2.0340 0.9614
3.0921 9.1123 -2.0340 0.9614
-0.2705 9.6187 -2.0340 0.9614
-0.8586 7.3095 -1.5557 0.9704
-1.5313 7.3375 -1.5844 0.9698
-2.1091 6.9520 -1.5356 0.9707
-4.3764 8.5694 -2.0340 0.9614
7.0338 5.0425 -2.0340 0.9651
5.4580 6.7166 -2.0340 0.9651
3.4969 7.9166 -2.0340 0.9651
1.2891 8.5579 -2.0340 0.9651
-2.2088 7.2806 -1.7881 0.9692
-3.2370 8.0261 -2.0340 0.9651
6.3846 4.5771 -2.0340 0.9681
4.9542 6.0967 -2.0340 0.9681
3.7990 6.8761 -2.0340 0.9681
3.1741 7.1860 -2.0340 0.9681
0.4765 7.8412 -2.0340 0.9681
-0.2208 7.8526 -2.0340 0.9681
-2.2805 7.5173 -2.0340 0.9681
6.1877 3.6518 -2.0340 0.9706
5.8394 4.1862 -2.0340 0.9706
5.0079 5.1521 -2.0340 0.9706
4.5311 5.5760 -2.0340 0.9706
4.0187 5.9559 -2.0340 0.9706
3.4746 6.2889 -2.0340 0.9706
1.6961 6.9818 -2.0340 0.9706
1.0702 7.1047 -2.0340 0.9706
0.4358 7.1716 -2.0340 0.9706
-0.8382 7.1358 -2.0340 0.9706
-2.0858 6.8753 -2.0340 0.9706
-3.2678 6.3986 -2.0339 0.9706
5.6950 3.3611 -2.0340 0.9727
2.1250 6.2622 -2.0340 0.9727
0.9850 6.5391 -2.0340 0.9727
-1.3510 6.4733 -2.0340 0.9727
-1.9197 6.3280 -2.0340 0.9727
-2.4734 6.1328 -2.0339 0.9727
5.2696 3.1100 -2.0340 0.9745
4.9731 3.5652 -2.0340 0.9745
4.2649 4.3878 -2.0340 0.9745
3.4225 5.0723 -2.0340 0.9745
2.9591 5.3559 -2.0340 0.9745
1.9662 5.7945 -2.0340 0.9745
1.4445 5.9460 -2.0340 0.9745
0.9114 6.0507 -2.0340 0.9745
0.3712 6.1077 -2.0340 0.9745
-1.2500 5.9898 -2.0340 0.9745
-2.2887 5.6747 -2.0339 0.9745
4.6226 3.3139 -2.0340 0.9761
3.5869 4.4141 -2.0340 0.9761
3.1813 4.7148 -2.0340 0.9761
2.2982 5.2028 -2.0340 0.9761
1.8277 5.3861 -2.0340 0.9761
-1.1620 5.5677 -2.0340 0.9761
-2.1274 5.2748 -2.0339 0.9761
-2.5868 5.0653 -2.0339 0.9761
4.5709 2.6976 -2.0340 0.9775
4.3136 3.0924 -2.0340 0.9775
4.0224 3.4628 -2.0340 0.9775
3.6994 3.8060 -2.0340 0.9775
3.3472 4.1191 -2.0340 0.9775
2.9687 4.3997 -2.0340 0.9775
2.5668 4.6457 -2.0340 0.9775
1.7055 5.0261 -2.0340 0.9775
0.7906 5.2484 -2.0340 0.9775
0.3220 5.2978 -2.0340 0.9775
-1.0843 5.1956 -2.0339 0.9775
4.2799 2.5259 -2.0340 0.9787
3.7663 3.2424 -2.0340 0.9787
3.1341 3.8568 -2.0340 0.9787
2.4033 4.3499 -2.0340 0.9787
2.0080 4.5459 -2.0340 0.9787
1.5970 4.7061 -2.0340 0.9787
1.1732 4.8292 -2.0340 0.9787
0.3015 4.9605 -2.0340 0.9787
-0.1397 4.9677 -2.0340 0.9787
-0.5797 4.9357 -2.0340 0.9788
-1.0152 4.8648 -2.0339 0.9788
-1.4427 4.7556 -2.0339 0.9788
-2.2603 4.4258 -2.0339 0.9788
3.7930 2.7192 -2.0340 0.9798
3.5369 3.0449 -2.0340 0.9798
1.8857 4.2691 -2.0340 0.9798
1.4997 4.4195 -2.0340 0.9798
1.1018 4.5351 -2.0340 0.9798
0.6952 4.6149 -2.0340 0.9798
-0.5445 4.6351 -2.0339 0.9798
-0.9534 4.5685 -2.0339 0.9798
-1.3548 4.4659 -2.0339 0.9798
-2.1226 4.1563 -2.0339 0.9798
3.3300 2.8668 -2.0340 0.9808
2.7711 3.4101 -2.0340 0.9808
2.4577 3.6425 -2.0340 0.9808
2.1250 3.8461 -2.0340 0.9808
1.7754 4.0194 -2.0340 0.9808
0.6545 4.3450 -2.0340 0.9808
0.2666 4.3860 -2.0340 0.9808
-0.8977 4.3014 -2.0339 0.9808
-1.2756 4.2048 -2.0339 0.9808
-1.9985 3.9132 -2.0339 0.9808
3.3700 2.4159 -2.0340 0.9817
3.1424 2.7053 -2.0340 0.9817
2.6150 3.2180 -2.0340 0.9817
2.3193 3.4372 -2.0340 0.9817
1.6754 3.7929 -2.0340 0.9817
-0.1166 4.1448 -2.0339 0.9817
-0.8471 4.0590 -2.0339 0.9817
-1.5510 3.8454 -2.0339 0.9817
-1.8859 3.6927 -2.0339 0.9817
3.3765 1.9927 -2.0340 0.9825
3.1864 2.2843 -2.0340 0.9825
2.7327 2.8114 -2.0340 0.9825
2.4725 3.0427 -2.0340 0.9825
2.1929 3.2500 -2.0340 0.9825
1.8960 3.4317 -2.0340 0.9825
1.5842 3.5863 -2.0340 0.9825
0.9256 3.8098 -2.0340 0.9825
0.5840 3.8769 -2.0339 0.9825
0.2379 3.9134 -2.0339 0.9825
-0.1102 3.9191 -2.0339 0.9825
-0.8009 3.8379 -2.0339 0.9825
-1.1382 3.7517 -2.0339 0.9825
-1.4664 3.6360 -2.0339 0.9825
-1.7832 3.4916 -2.0339 0.9825
3.1982 1.8875 -2.0339 0.9832
2.5884 2.6629 -2.0340 0.9832
2.3420 2.8820 -2.0340 0.9832
2.0771 3.0784 -2.0340 0.9832
1.7959 3.2505 -2.0340 0.9832
1.5005 3.3969 -2.0340 0.9832
0.8767 3.6086 -2.0339 0.9832
0.2253 3.7067 -2.0339 0.9832
-0.1044 3.7121 -2.0339 0.9832
-0.7586 3.6353 -2.0339 0.9832
2.4554 2.5262 -2.0339 0.9839
2.2217 2.7340 -2.0340 0.9839
1.7036 3.0835 -2.0339 0.9839
1.1320 3.3361 -2.0339 0.9839
0.8316 3.4233 -2.0339 0.9839
-0.4109 3.4988 -2.0339 0.9839
-1.3177 3.2671 -2.0339 0.9839
-1.6023 3.1374 -2.0339 0.9839
