ply
format ascii 1.0
element vertex 194
property float32 x
property float32 y
property float32 z
property float32 I
end_header
4.2339 19.0221 2.5377 0.9244
2.2799 17.6211 2.3138 0.9308
2.3886 18.4610 1.9989 0.9278
2.2696 17.5417 1.0968 0.9316
2.3212 17.9408 0.7133 0.9301
3.9876 17.9158 0.3100 0.9292
4.0774 18.3190 -0.1057 0.9277
2.4898 19.2434 -0.1092 0.9253
2.3986 18.5385 -0.5264 0.9279
14.6653 8.7663 -1.2528 0.9338
14.7407 8.8114 -1.6487 0.9333
17.1236 -0.0555 -2.0340 0.9333
17.0589 1.4895 -2.0341 0.9333
16.8551 3.0224 -2.0341 0.9333
16.5138 4.5306 -2.0341 0.9333
16.0378 6.0019 -2.0341 0.9333
14.6984 8.7862 -2.0341 0.9333
13.2594 9.6495 -1.9480 0.9361
12.8805 11.2844 -2.0341 0.9333
11.8100 12.4004 -2.0341 0.9333
10.6432 13.4152 -2.0341 0.9333
8.0594 15.1093 -2.0341 0.9333
6.6634 15.7747 -2.0341 0.9333
3.7204 16.7152 -2.0341 0.9333
14.3555 -0.0465 -2.0340 0.9437
14.3012 1.2487 -2.0340 0.9437
14.1304 2.5338 -2.0340 0.9437
13.8442 3.7982 -2.0341 0.9437
12.9365 6.2241 -2.0341 0.9437
12.3223 7.3658 -2.0341 0.9437
10.7982 9.4601 -2.0341 0.9437
9.9008 10.3957 -2.0341 0.9437
8.9227 11.2465 -2.0341 0.9437
4.3705 13.6746 -2.0341 0.9437
3.1190 14.0130 -2.0341 0.9437
1.8421 14.2372 -2.0341 0.9437
11.9070 3.2667 -2.0340 0.9512
11.5638 4.3276 -2.0340 0.9512
11.1264 5.3532 -2.0341 0.9512
9.9834 7.2654 -2.0341 0.9512
9.2872 8.1364 -2.0341 0.9512
8.5154 8.9410 -2.0341 0.9512
7.6741 9.6728 -2.0341 0.9512
5.8111 10.8943 -2.0341 0.9512
3.7589 11.7611 -2.0341 0.9512
2.6825 12.0522 -2.0341 0.9512
1.5844 12.2450 -2.0341 0.9512
10.6516 1.9100 -2.0340 0.9569
10.4359 2.8631 -2.0340 0.9569
10.1351 3.7929 -2.0340 0.9569
7.4633 7.8363 -2.0341 0.9569
6.7259 8.4777 -2.0341 0.9569
5.0930 9.5482 -2.0341 0.9569
3.2945 10.3080 -2.0340 0.9569
2.3512 10.5631 -2.0340 0.9569
1.3886 10.7321 -2.0340 0.9569
9.6223 -0.0312 -2.0340 0.9614
9.5860 0.8370 -2.0340 0.9614
8.6712 4.1719 -2.0340 0.9614
7.7804 5.6622 -2.0340 0.9614
7.2379 6.3410 -2.0340 0.9614
6.6363 6.9681 -2.0340 0.9614
5.9807 7.5383 -2.0340 0.9614
5.2762 8.0471 -2.0340 0.9614
3.7443 8.8642 -2.0340 0.9614
2.9294 9.1658 -2.0340 0.9614
2.0906 9.3927 -2.0340 0.9614
1.2347 9.5430 -2.0340 0.9614
8.6543 -0.0281 -2.0340 0.9651
7.4285 4.4405 -2.0340 0.9651
6.9976 5.0925 -2.0340 0.9651
6.5098 5.7030 -2.0340 0.9651
4.7454 7.2376 -2.0340 0.9651
3.3677 7.9725 -2.0340 0.9651
1.8803 8.4478 -2.0340 0.9651
7.8556 -0.0255 -2.0340 0.9681
7.8259 0.6833 -2.0340 0.9681
7.7324 1.3865 -2.0340 0.9681
7.5758 2.0785 -2.0340 0.9681
7.0790 3.4059 -2.0340 0.9681
6.3518 4.6225 -2.0340 0.9681
5.4179 5.6887 -2.0340 0.9681
4.3075 6.5696 -2.0340 0.9681
1.7067 7.6681 -2.0340 0.9681
1.0080 7.7908 -2.0340 0.9681
7.1848 -0.0233 -2.0340 0.9706
7.1576 0.6250 -2.0340 0.9706
6.9288 1.9009 -2.0340 0.9706
6.7291 2.5183 -2.0340 0.9706
6.4745 3.1150 -2.0340 0.9706
6.1671 3.6864 -2.0340 0.9706
4.9552 5.2028 -2.0340 0.9706
4.4656 5.6286 -2.0340 0.9706
3.9396 6.0086 -2.0340 0.9706
2.1873 6.8439 -2.0340 0.9706
1.5610 7.0133 -2.0340 0.9706
6.5878 0.5752 -2.0340 0.9727
6.5091 1.1671 -2.0340 0.9727
6.1934 2.3178 -2.0340 0.9727
5.9591 2.8671 -2.0340 0.9727
4.9741 4.3577 -2.0340 0.9727
4.1101 5.1805 -2.0340 0.9727
2.5732 6.0917 -2.0340 0.9727
6.0957 0.5322 -2.0340 0.9745
5.2521 3.1395 -2.0340 0.9745
4.9475 3.6005 -2.0340 0.9745
4.6025 4.0322 -2.0340 0.9745
4.2200 4.4310 -2.0340 0.9745
3.8031 4.7936 -2.0340 0.9745
3.3552 5.1171 -2.0340 0.9745
2.8798 5.3990 -2.0340 0.9745
2.3810 5.6367 -2.0340 0.9745
5.5984 1.0039 -2.0340 0.9761
5.4850 1.5048 -2.0340 0.9761
5.3269 1.9935 -2.0340 0.9761
5.1254 2.4660 -2.0340 0.9761
4.5989 3.3468 -2.0340 0.9761
2.6768 5.0185 -2.0340 0.9761
1.7315 5.4178 -2.0340 0.9761
1.2357 5.5519 -2.0340 0.9761
0.7298 5.6407 -2.0340 0.9761
5.2875 0.4617 -2.0340 0.9775
5.2242 0.9368 -2.0340 0.9775
4.9709 1.8603 -2.0340 0.9775
4.7829 2.3011 -2.0340 0.9775
3.9922 3.4975 -2.0340 0.9775
3.6605 3.8434 -2.0340 0.9775
4.9696 -0.0161 -2.0339 0.9787
4.7926 1.3148 -2.0340 0.9787
4.6545 1.7418 -2.0340 0.9787
4.4783 2.1546 -2.0340 0.9787
3.4274 3.5987 -2.0340 0.9787
3.0888 3.8932 -2.0340 0.9787
2.3389 4.3849 -2.0340 0.9787
1.9338 4.5780 -2.0340 0.9787
1.0797 4.8510 -2.0340 0.9787
4.6493 0.4059 -2.0339 0.9798
4.5007 1.2348 -2.0340 0.9798
4.2056 2.0234 -2.0340 0.9798
4.0059 2.3945 -2.0340 0.9798
3.5104 3.0754 -2.0340 0.9798
3.2187 3.3796 -2.0340 0.9798
2.9007 3.6561 -2.0340 0.9798
2.5590 3.9029 -2.0340 0.9798
2.1965 4.1178 -2.0340 0.9798
1.4208 4.4455 -2.0340 0.9798
4.3940 -0.0143 -2.0339 0.9808
4.1154 1.5401 -2.0340 0.9808
3.5529 2.5856 -2.0340 0.9808
3.3051 2.8955 -2.0340 0.9808
3.0304 3.1819 -2.0340 0.9808
2.0680 3.8770 -2.0340 0.9808
1.7098 4.0478 -2.0340 0.9808
1.3377 4.1855 -2.0340 0.9808
0.5639 4.3578 -2.0340 0.9808
4.1308 0.3607 -2.0339 0.9817
4.0814 0.7318 -2.0339 0.9817
3.9987 1.0971 -2.0339 0.9817
3.7365 1.7977 -2.0340 0.9817
3.3527 2.4399 -2.0340 0.9817
2.8597 3.0026 -2.0340 0.9817
2.2736 3.4676 -2.0340 0.9817
1.9515 3.6586 -2.0340 0.9817
1.6135 3.8197 -2.0340 0.9817
0.9009 4.0475 -2.0340 0.9817
0.5321 4.1122 -2.0340 0.9817
3.5330 1.6998 -2.0339 0.9825
3.1701 2.3070 -2.0340 0.9825
2.7039 2.8391 -2.0340 0.9825
2.4368 3.0714 -2.0340 0.9825
1.8452 3.4593 -2.0340 0.9825
1.5256 3.6116 -2.0340 0.9825
0.8518 3.8270 -2.0340 0.9825
1.8504 -0.0060 -1.0135 0.9916
1.8507 0.1616 -1.0175 0.9916
1.8536 0.3324 -1.0314 0.9914
3.3464 1.6101 -2.0339 0.9832
3.0027 2.1852 -2.0340 0.9832
2.7933 2.4471 -2.0340 0.9832
2.5611 2.6891 -2.0340 0.9832
2.3081 2.9092 -2.0340 0.9832
2.0362 3.1056 -2.0340 0.9832
1.4450 3.4209 -2.0340 0.9832
0.4765 3.6829 -2.0339 0.9832
1.7245 -0.0056 -0.9957 0.9921
1.7140 0.3073 -1.0054 0.9920
1.7118 0.4696 -1.0248 0.9918
2.6498 2.3215 -2.0339 0.9839
2.4296 2.5511 -2.0339 0.9839
1.9317 2.9461 -2.0340 0.9839
1.3708 3.2452 -2.0339 0.9839
1.0725 3.3557 -2.0339 0.9839
0.7654 3.4387 -2.0339 0.9839
0.4521 3.4937 -2.0339 0.9839
