ply
format ascii 1.0
element vertex 214
property float32 x
property float32 y
property float32 z
property float32 I
end_header
3.1646 18.5938 3.3257 0.9263
-13.1748 12.7661 3.2348 0.9282
3.2000 18.8019 2.4836 0.9260
1.4141 17.5462 2.2923 0.9315
-11.3419 13.1158 2.2580 0.9324
1.5303 18.9874 2.0455 0.9262
-11.2153 12.9694 1.8412 0.9333
-12.7018 12.3077 1.8992 0.9313
2.9616 17.4014 1.4943 0.9316
1.4993 18.6024 1.5799 0.9278
2.9612 17.3990 1.0944 0.9317
3.0467 17.9009 0.3067 0.9299
-16.3916 5.5936 -0.8784 0.9330
-16.2736 5.5533 -1.2608 0.9334
-16.1068 5.4964 -1.6339 0.9339
-0.1324 17.1235 -2.0341 0.9333
-0.7606 7.9075 -0.9436 0.9685
-1.4170 7.6120 -0.9197 0.9693
-2.0618 7.3865 -0.9110 0.9696
-6.0380 16.0236 -2.0340 0.9333
-7.4252 15.4296 -2.0340 0.9334
-10.0163 13.8877 -2.0340 0.9334
-11.2001 12.9518 -2.0339 0.9334
-13.2979 10.7862 -2.0339 0.9334
-14.1958 9.5735 -2.0339 0.9334
-14.9834 8.2863 -2.0339 0.9334
-15.6546 6.9349 -2.0338 0.9334
-16.9226 2.6016 -2.0338 0.9334
2.4087 14.1524 -2.0341 0.9437
1.1533 14.3094 -2.0341 0.9437
-0.1111 14.3554 -2.0341 0.9437
-0.7209 7.4948 -1.0668 0.9700
-1.3732 7.3768 -1.0632 0.9701
-6.2249 12.9354 -2.0340 0.9437
-7.3396 12.3370 -2.0340 0.9437
-8.3972 11.6428 -2.0340 0.9437
-11.9012 8.0259 -2.0339 0.9437
-13.1242 5.8139 -2.0339 0.9437
-13.9403 3.4217 -2.0338 0.9437
-0.7101 7.3825 -1.2218 0.9704
-1.3631 7.3222 -1.2270 0.9703
-2.0164 7.2238 -1.2355 0.9701
-6.3126 10.6108 -2.0340 0.9512
-8.0758 9.3388 -2.0339 0.9512
-9.5886 7.7775 -2.0339 0.9512
-10.2360 6.9030 -2.0339 0.9512
-10.8039 5.9749 -2.0339 0.9512
-11.6843 3.9872 -2.0338 0.9512
-12.2023 1.8759 -2.0338 0.9512
1.8157 10.6682 -2.0340 0.9569
-0.0837 10.8212 -2.0340 0.9569
-0.7196 7.4811 -1.4126 0.9699
-6.3300 8.7765 -2.0339 0.9569
-7.0781 8.1851 -2.0339 0.9569
-8.9714 6.0502 -2.0339 0.9569
-10.2408 3.4946 -2.0339 0.9569
-10.5086 2.5794 -2.0338 0.9569
0.7730 9.5914 -2.0340 0.9614
-0.7029 7.3072 -1.5517 0.9704
-1.3297 7.1432 -1.5359 0.9707
-1.9976 7.1564 -1.5706 0.9701
-3.3930 9.0043 -2.0340 0.9614
-6.9102 6.6958 -2.0339 0.9614
-7.4729 6.0613 -2.0339 0.9614
-8.4201 4.6566 -2.0339 0.9614
-9.1062 3.1074 -2.0339 0.9614
-9.3443 2.2936 -2.0338 0.9614
1.4521 8.5318 -2.0340 0.9651
-0.0670 8.6542 -2.0340 0.9651
-0.6985 7.2616 -1.7145 0.9705
-2.0432 7.3200 -1.7861 0.9693
-6.7211 5.4516 -2.0339 0.9651
-8.5533 1.3149 -2.0338 0.9651
1.3181 7.7444 -2.0340 0.9681
0.6311 7.8304 -2.0340 0.9681
-0.0608 7.8555 -2.0340 0.9681
-0.7521 7.8196 -2.0340 0.9681
-2.1120 7.5664 -2.0340 0.9681
-2.7700 7.3510 -2.0340 0.9681
-3.4064 7.0786 -2.0340 0.9681
-4.5952 6.3713 -2.0339 0.9681
-5.1383 5.9419 -2.0339 0.9681
-5.6415 5.4664 -2.0339 0.9681
-6.1008 4.9485 -2.0339 0.9681
-6.8741 3.8016 -2.0339 0.9681
-7.1821 3.1816 -2.0339 0.9681
-7.6287 1.8725 -2.0339 0.9681
1.2055 7.0830 -2.0340 0.9706
-0.0555 7.1846 -2.0340 0.9706
-1.9317 6.9202 -2.0340 0.9706
-2.5335 6.7233 -2.0340 0.9706
-3.1156 6.4741 -2.0339 0.9706
-3.6734 6.1746 -2.0339 0.9706
-5.1597 4.9996 -2.0339 0.9706
-5.5798 4.5259 -2.0339 0.9706
-5.9566 4.0170 -2.0339 0.9706
-6.7994 2.3203 -2.0339 0.9706
-7.1010 1.0917 -2.0339 0.9706
1.1095 6.5191 -2.0340 0.9727
0.5312 6.5915 -2.0340 0.9727
-3.3810 5.6831 -2.0339 0.9727
-4.3254 5.0019 -2.0339 0.9727
-4.7489 4.6016 -2.0339 0.9727
-5.7866 3.2002 -2.0339 0.9727
1.0266 6.0322 -2.0340 0.9745
-0.5859 6.0908 -2.0340 0.9745
-1.1198 6.0155 -2.0340 0.9745
-2.1576 5.7258 -2.0339 0.9745
-4.0023 4.6283 -2.0339 0.9745
-4.3942 4.2579 -2.0339 0.9745
-5.0729 3.4211 -2.0339 0.9745
-5.3544 2.9612 -2.0339 0.9745
-5.5943 2.4782 -2.0339 0.9745
-5.9422 1.4585 -2.0339 0.9745
0.9543 5.6071 -2.0340 0.9761
0.4570 5.6693 -2.0340 0.9761
-0.0440 5.6875 -2.0340 0.9761
-2.0055 5.3223 -2.0339 0.9761
-2.4664 5.1251 -2.0339 0.9761
-3.3271 4.6130 -2.0339 0.9761
-3.7203 4.3021 -2.0339 0.9761
-4.0846 3.9579 -2.0339 0.9761
-4.9771 2.7525 -2.0339 0.9761
-5.5235 1.3558 -2.0339 0.9761
-5.6214 0.8642 -2.0339 0.9761
-0.0410 5.3074 -2.0340 0.9775
-1.4270 5.1121 -2.0339 0.9775
-2.7136 4.5613 -2.0339 0.9775
-3.1047 4.3047 -2.0339 0.9775
-4.1219 3.3434 -2.0339 0.9775
-4.4003 2.9675 -2.0339 0.9775
-4.8525 2.1496 -2.0339 0.9775
-5.0229 1.7140 -2.0339 0.9775
-5.1543 1.2652 -2.0339 0.9775
-5.2457 0.8064 -2.0339 0.9775
0.3993 4.9536 -2.0340 0.9787
-0.4758 4.9468 -2.0340 0.9788
-0.9095 4.8857 -2.0339 0.9788
-1.3361 4.7866 -2.0339 0.9788
-3.2506 3.7590 -2.0339 0.9788
-3.8595 3.1305 -2.0339 0.9788
-4.1201 2.7785 -2.0339 0.9788
-4.5436 2.0128 -2.0339 0.9788
-4.7032 1.6049 -2.0339 0.9788
-2.1143 0.3250 -0.8755 0.9908
0.3750 4.6519 -2.0340 0.9798
-0.4468 4.6455 -2.0339 0.9798
-0.8541 4.5881 -2.0339 0.9798
-1.2547 4.4951 -2.0339 0.9798
-2.0238 4.2053 -2.0339 0.9798
-2.3861 4.0108 -2.0339 0.9798
-3.0526 3.5301 -2.0339 0.9798
-3.3516 3.2476 -2.0339 0.9798
-3.8692 2.6093 -2.0339 0.9798
-4.0839 2.2585 -2.0339 0.9798
-1.9043 0.2927 -0.8397 0.9916
0.7373 4.3318 -2.0340 0.9808
0.3530 4.3799 -2.0340 0.9808
-0.0339 4.3939 -2.0339 0.9808
-0.4207 4.3739 -2.0339 0.9808
-1.5494 4.1118 -2.0339 0.9808
-2.2466 3.7762 -2.0339 0.9808
-2.5704 3.5638 -2.0339 0.9808
-3.4125 2.7679 -2.0339 0.9808
-3.6429 2.4568 -2.0339 0.9808
-3.8451 2.1265 -2.0339 0.9808
-1.7271 0.5893 -0.8447 0.9920
0.3331 4.1331 -2.0339 0.9817
-1.1148 3.9938 -2.0339 0.9817
-1.7980 3.7363 -2.0339 0.9817
-2.1200 3.5635 -2.0339 0.9817
-2.4255 3.3630 -2.0339 0.9817
-2.7121 3.1364 -2.0339 0.9817
-2.9778 2.8854 -2.0339 0.9817
-3.2202 2.6120 -2.0339 0.9817
-1.2757 0.4353 -0.6612 0.9940
-1.3189 0.3237 -0.6661 0.9940
-1.3473 0.2071 -0.6686 0.9939
0.3150 3.9079 -2.0339 0.9825
-0.0304 3.9205 -2.0339 0.9825
-1.0541 3.7762 -2.0339 0.9825
-1.3825 3.6687 -2.0339 0.9825
-1.7001 3.5328 -2.0339 0.9825
-2.0045 3.3694 -2.0339 0.9825
-2.2934 3.1798 -2.0339 0.9825
-2.8156 2.7282 -2.0339 0.9825
-3.4308 1.8974 -2.0339 0.9825
0.2983 3.7016 -2.0339 0.9832
-0.0287 3.7135 -2.0339 0.9832
-0.6796 3.6508 -2.0339 0.9832
-0.9984 3.5768 -2.0339 0.9832
-1.3095 3.4750 -2.0339 0.9832
-1.6103 3.3462 -2.0339 0.9832
-2.1723 3.0119 -2.0339 0.9832
-2.6669 2.5841 -2.0339 0.9832
-2.8840 2.3393 -2.0339 0.9832
-3.0788 2.0763 -2.0339 0.9832
-0.9996 0.4428 -0.5988 0.9950
-1.0280 0.3508 -0.5949 0.9951
-1.0459 0.2567 -0.5898 0.9951
-0.0273 3.5228 -2.0339 0.9839
-0.3373 3.5067 -2.0339 0.9839
-0.6447 3.4634 -2.0339 0.9839
-0.9471 3.3931 -2.0339 0.9839
-1.5277 3.1744 -2.0339 0.9839
-1.8012 3.0276 -2.0339 0.9839
-2.0607 2.8572 -2.0339 0.9839
-2.3043 2.6647 -2.0339 0.9839
-2.5300 2.4515 -2.0339 0.9839
-2.9207 1.9697 -2.0339 0.9839
-0.8978 0.4965 -0.5923 0.9953
-0.9276 0.4109 -0.5858 0.9953
-0.9648 0.2368 -0.5735 0.9954
-0.9824 0.1510 -0.5739 0.9954
