ply
format ascii 1.0
element vertex 194
property float32 x
property float32 y
property float32 z
property float32 I
end_header
3.3334 18.5034 2.4483 0.9270
3.2706 18.1552 1.9809 0.9285
3.2181 17.8637 1.5366 0.9297
3.1516 17.4946 1.1023 0.9312
3.4552 19.1799 0.7685 0.9250
3.3985 18.8647 0.3238 0.9262
3.2877 18.2500 -0.1044 0.9285
13.6219 8.6977 -1.5516 0.9371
17.0780 -1.2467 -2.0340 0.9333
17.1207 0.3205 -2.0341 0.9333
16.7761 3.4338 -2.0341 0.9333
14.4331 9.2157 -2.0341 0.9333
12.5130 11.6906 -2.0341 0.9333
11.3914 12.7861 -2.0341 0.9333
10.1741 13.7744 -2.0341 0.9333
7.4948 15.3972 -2.0341 0.9333
3.0361 16.8529 -2.0341 0.9333
14.3174 -1.0452 -2.0340 0.9437
14.2684 1.5804 -2.0340 0.9437
14.0641 2.8787 -2.0341 0.9437
13.3046 5.3925 -2.0341 0.9437
12.0999 7.7259 -2.0341 0.9437
11.3425 8.8002 -2.0341 0.9437
10.4902 9.8007 -2.0341 0.9437
7.4375 12.2793 -2.0341 0.9437
6.2832 12.9080 -2.0341 0.9437
5.0763 13.4286 -2.0341 0.9437
2.5453 14.1285 -2.0341 0.9437
12.3140 -0.8989 -2.0340 0.9512
12.2719 1.3592 -2.0340 0.9512
11.8191 3.5719 -2.0340 0.9512
11.4429 4.6379 -2.0341 0.9512
10.9708 5.6651 -2.0341 0.9512
10.4067 6.6448 -2.0341 0.9512
8.2135 9.2192 -2.0341 0.9512
6.3968 10.5610 -2.0341 0.9512
3.2913 11.9004 -2.0341 0.9512
2.1891 12.1515 -2.0341 0.9512
10.7926 -0.7879 -2.0340 0.9569
10.0291 4.0649 -2.0340 0.9569
9.1209 5.8238 -2.0340 0.9569
8.5501 6.6336 -2.0340 0.9569
7.9075 7.3878 -2.0341 0.9569
4.7363 9.7301 -2.0340 0.9569
3.8265 10.1225 -2.0340 0.9569
1.9186 10.6501 -2.0340 0.9569
9.5968 -0.7006 -2.0340 0.9614
9.6207 0.1801 -2.0340 0.9614
9.5640 1.0593 -2.0340 0.9614
9.4270 1.9296 -2.0340 0.9614
9.2111 2.7837 -2.0340 0.9614
8.9179 3.6145 -2.0340 0.9614
8.5500 4.4150 -2.0340 0.9614
8.1103 5.1785 -2.0340 0.9614
7.6027 5.8986 -2.0340 0.9614
7.0314 6.5692 -2.0340 0.9614
5.7171 7.7401 -2.0340 0.9614
1.7060 9.4701 -2.0340 0.9614
8.6314 -0.6301 -2.0340 0.9651
8.6529 0.1620 -2.0340 0.9651
7.6898 3.9708 -2.0340 0.9651
6.3239 5.9083 -2.0340 0.9651
5.7571 6.4620 -2.0340 0.9651
5.1419 6.9614 -2.0340 0.9651
7.8543 0.1470 -2.0340 0.9681
7.8079 0.8648 -2.0340 0.9681
7.6961 1.5753 -2.0340 0.9681
6.6212 4.2277 -2.0340 0.9681
6.2068 4.8155 -2.0340 0.9681
5.7403 5.3630 -2.0340 0.9681
4.6674 6.3189 -2.0340 0.9681
3.4382 7.0634 -2.0340 0.9681
2.7778 7.3483 -2.0340 0.9681
2.0941 7.5715 -2.0340 0.9681
7.1657 -0.5231 -2.0340 0.9706
7.0389 1.4408 -2.0340 0.9706
6.8777 2.0785 -2.0340 0.9706
5.6767 4.4043 -2.0340 0.9706
5.2501 4.9051 -2.0340 0.9706
3.7223 6.1455 -2.0340 0.9706
3.1446 6.4602 -2.0340 0.9706
2.5405 6.7207 -2.0340 0.9706
6.6117 0.1238 -2.0340 0.9727
6.4785 1.3261 -2.0340 0.9727
4.8321 4.5146 -2.0340 0.9727
4.3990 4.9376 -2.0340 0.9727
3.9289 5.3192 -2.0340 0.9727
3.4260 5.6563 -2.0340 0.9727
2.8943 5.9459 -2.0340 0.9727
1.1724 6.5081 -2.0340 0.9727
6.1027 -0.4455 -2.0339 0.9745
6.1179 0.1145 -2.0340 0.9745
5.9947 1.2270 -2.0340 0.9745
5.8573 1.7701 -2.0340 0.9745
5.6709 2.2985 -2.0340 0.9745
5.4369 2.8075 -2.0340 0.9745
5.1573 3.2930 -2.0340 0.9745
4.8345 3.7509 -2.0340 0.9745
3.6355 4.9219 -2.0340 0.9745
2.6781 5.5018 -2.0340 0.9745
2.1637 5.7237 -2.0340 0.9745
1.0849 6.0220 -2.0340 0.9745
5.6867 0.1064 -2.0340 0.9761
5.5722 1.1405 -2.0340 0.9761
5.2712 2.1365 -2.0340 0.9761
4.7939 3.0609 -2.0340 0.9761
4.4939 3.4865 -2.0340 0.9761
4.1561 3.8829 -2.0340 0.9761
3.7836 4.2468 -2.0340 0.9761
3.3792 4.5751 -2.0340 0.9761
1.5162 5.4819 -2.0340 0.9761
5.2935 -0.3864 -2.0339 0.9775
5.0807 1.5354 -2.0340 0.9775
4.7160 2.4352 -2.0340 0.9775
4.4735 2.8563 -2.0340 0.9775
4.1935 3.2535 -2.0340 0.9775
3.8783 3.6234 -2.0340 0.9775
3.1534 4.2693 -2.0340 0.9775
2.3230 4.7723 -2.0340 0.9775
1.8768 4.9647 -2.0340 0.9775
0.9410 5.2235 -2.0340 0.9775
4.9564 -0.3618 -2.0339 0.9788
4.1887 2.6745 -2.0340 0.9787
3.6314 3.3927 -2.0340 0.9787
3.3059 3.7107 -2.0340 0.9787
2.9526 3.9975 -2.0340 0.9787
2.1751 4.4684 -2.0340 0.9787
4.6546 -0.3398 -2.0339 0.9798
4.6386 0.5138 -2.0339 0.9798
4.5722 0.9359 -2.0340 0.9798
4.4675 1.3501 -2.0340 0.9798
3.9336 2.5116 -2.0340 0.9798
3.6874 2.8609 -2.0340 0.9798
3.4102 3.1861 -2.0340 0.9798
2.7728 3.7540 -2.0340 0.9798
2.4179 3.9919 -2.0340 0.9798
1.6502 4.3655 -2.0340 0.9798
1.2441 4.4981 -2.0340 0.9798
4.3933 0.0822 -2.0339 0.9808
4.3048 0.8811 -2.0339 0.9808
4.2062 1.2712 -2.0340 0.9808
3.9043 2.0161 -2.0340 0.9808
3.7035 2.3647 -2.0340 0.9808
3.4717 2.6936 -2.0340 0.9808
1.5538 4.1102 -2.0340 0.9808
0.7790 4.3245 -2.0340 0.9808
4.1457 0.0776 -2.0339 0.9817
4.1213 0.4564 -2.0339 0.9817
4.0623 0.8315 -2.0339 0.9817
3.8429 1.5575 -2.0340 0.9817
3.6843 1.9025 -2.0340 0.9817
3.4949 2.2315 -2.0340 0.9817
3.2761 2.5418 -2.0340 0.9817
3.0299 2.8307 -2.0340 0.9817
2.4636 3.3353 -2.0340 0.9817
2.1482 3.5466 -2.0340 0.9817
1.8148 3.7282 -2.0340 0.9817
1.4662 3.8786 -2.0340 0.9817
2.0775 -0.1517 -1.0806 0.9907
2.0814 0.2305 -1.0864 0.9906
2.1071 0.4313 -1.1158 0.9904
3.7530 1.1342 -2.0339 0.9825
3.3045 2.1099 -2.0340 0.9825
3.0977 2.4033 -2.0340 0.9825
2.8649 2.6766 -2.0340 0.9825
2.3294 3.1536 -2.0340 0.9825
2.0312 3.3535 -2.0340 0.9825
1.7159 3.5252 -2.0340 0.9825
1.0451 3.7788 -2.0340 0.9825
0.6951 3.8585 -2.0339 0.9825
1.8518 0.0346 -1.0144 0.9916
1.8476 0.2046 -1.0181 0.9916
1.8564 0.3800 -1.0378 0.9914
1.8754 0.5667 -1.0730 0.9911
3.4417 1.3949 -2.0339 0.9832
3.2996 1.7038 -2.0339 0.9832
3.1300 1.9985 -2.0339 0.9832
2.9341 2.2764 -2.0340 0.9832
2.7136 2.5352 -2.0340 0.9832
2.4704 2.7728 -2.0340 0.9832
1.9239 3.1764 -2.0340 0.9832
1.6254 3.3390 -2.0340 0.9832
1.3132 3.4737 -2.0340 0.9832
0.9900 3.5792 -2.0339 0.9832
0.6584 3.6547 -2.0339 0.9832
1.7185 0.1903 -0.9983 0.9920
1.7545 0.7111 -1.0930 0.9913
2.9693 1.8959 -2.0339 0.9839
2.7834 2.1595 -2.0339 0.9839
2.5742 2.4050 -2.0339 0.9839
2.0931 2.8337 -2.0340 0.9839
1.8251 3.0133 -2.0339 0.9839
1.5419 3.1676 -2.0339 0.9839
1.2457 3.2953 -2.0339 0.9839
