ply
format ascii 1.0
element vertex 182
property float32 x
property float32 y
property float32 z
property float32 I
end_header
-3.0547 -16.8459 -2.0337 0.9334
-0.0401 -17.1208 -2.0337 0.9334
1.4737 -17.0574 -2.0337 0.9334
2.9760 -16.8604 -2.0337 0.9334
2.2863 -6.2295 -0.7882 0.9736
8.6380 -14.7830 -2.0338 0.9334
9.9111 -13.9616 -2.0338 0.9334
11.1068 -13.0309 -2.0338 0.9334
12.2155 -11.9980 -2.0339 0.9334
13.2284 -10.8712 -2.0339 0.9334
14.1379 -9.6593 -2.0339 0.9334
14.9367 -8.3716 -2.0339 0.9334
15.6184 -7.0183 -2.0340 0.9334
16.1779 -5.6101 -2.0340 0.9334
-0.0336 -14.3535 -2.0337 0.9437
2.4950 -14.1352 -2.0338 0.9437
2.2660 -6.1741 -0.9319 0.9738
7.2417 -12.3936 -2.0338 0.9437
8.3091 -11.7048 -2.0338 0.9437
9.3114 -10.9245 -2.0339 0.9437
10.2409 -10.0586 -2.0339 0.9437
11.0902 -9.1139 -2.0339 0.9437
11.8526 -8.0979 -2.0339 0.9437
12.5222 -7.0184 -2.0339 0.9437
13.5627 -4.7032 -2.0340 0.9437
-2.2027 -12.1471 -2.0337 0.9512
-1.1202 -12.2944 -2.0338 0.9512
2.1459 -12.1576 -2.0338 0.9512
2.2168 -6.0401 -1.0599 0.9743
2.7632 -5.8650 -1.0681 0.9741
6.2285 -10.6595 -2.0338 0.9512
8.0086 -9.3961 -2.0339 0.9512
8.8080 -8.6512 -2.0339 0.9512
9.5384 -7.8387 -2.0339 0.9512
11.2616 -5.0606 -2.0339 0.9512
11.6650 -4.0452 -2.0340 0.9512
-0.0253 -10.8202 -2.0338 0.9569
1.8808 -10.6556 -2.0338 0.9569
1.6337 -6.0626 -1.1802 0.9748
2.7179 -5.7691 -1.1987 0.9744
6.2636 -8.8235 -2.0339 0.9569
8.9348 -6.1044 -2.0339 0.9569
9.8703 -4.4353 -2.0339 0.9569
10.2238 -3.5454 -2.0339 0.9569
-1.7167 -9.4671 -2.0338 0.9614
1.6725 -9.4751 -2.0338 0.9614
3.3624 -5.7545 -1.4088 0.9731
6.8645 -6.7424 -2.0339 0.9614
7.4338 -6.1091 -2.0339 0.9614
8.3936 -4.7044 -2.0339 0.9614
9.0911 -3.1526 -2.0339 0.9614
-1.5440 -8.5148 -2.0338 0.9651
0.7449 -8.6215 -2.0338 0.9651
1.5042 -8.5220 -2.0338 0.9651
2.0974 -5.7146 -1.4307 0.9753
3.3812 -5.7866 -1.5751 0.9728
5.0094 -7.0567 -2.0339 0.9651
5.6137 -6.5862 -2.0339 0.9651
8.1765 -2.8354 -2.0339 0.9651
-1.4015 -7.7290 -2.0338 0.9681
-0.0184 -7.8550 -2.0338 0.9681
2.1284 -5.7990 -1.5994 0.9748
5.0956 -5.9784 -2.0339 0.9681
5.6042 -5.5045 -2.0339 0.9681
6.0689 -4.9875 -2.0339 0.9681
6.4861 -4.4314 -2.0339 0.9681
-0.0168 -7.1843 -2.0338 0.9706
0.6184 -7.1577 -2.0338 0.9706
2.1843 -5.9515 -1.7947 0.9740
3.6245 -6.2031 -2.0339 0.9706
4.1588 -5.8584 -2.0339 0.9706
4.6605 -5.4678 -2.0339 0.9706
5.1256 -5.0344 -2.0339 0.9706
5.5507 -4.5616 -2.0339 0.9706
5.9323 -4.0530 -2.0339 0.9706
6.5534 -2.9449 -2.0339 0.9706
6.7882 -2.3540 -2.0339 0.9706
-0.6000 -6.5851 -2.0338 0.9727
0.5692 -6.5879 -2.0338 0.9727
1.1494 -6.5118 -2.0338 0.9727
1.7206 -6.3847 -2.0338 0.9727
2.2783 -6.2076 -2.0339 0.9727
3.3360 -5.7093 -2.0339 0.9727
3.8277 -5.3920 -2.0339 0.9727
4.2895 -5.0326 -2.0339 0.9727
5.1088 -4.1985 -2.0339 0.9727
6.2478 -2.1666 -2.0339 0.9727
-0.5552 -6.0933 -2.0338 0.9745
-0.0143 -6.1185 -2.0338 0.9745
0.5267 -6.0958 -2.0338 0.9745
1.0636 -6.0254 -2.0338 0.9745
1.5921 -5.9078 -2.0338 0.9745
3.0869 -5.2829 -2.0339 0.9745
3.9691 -4.6567 -2.0339 0.9745
4.3652 -4.2876 -2.0339 0.9745
4.7272 -3.8849 -2.0339 0.9745
5.0522 -3.4517 -2.0339 0.9745
5.3376 -2.9916 -2.0339 0.9745
-0.0133 -5.6874 -2.0338 0.9761
0.9886 -5.6008 -2.0338 0.9761
1.4798 -5.4915 -2.0339 0.9761
2.4240 -5.1450 -2.0339 0.9761
3.2922 -4.6377 -2.0339 0.9761
4.0576 -3.9854 -2.0339 0.9761
4.3941 -3.6111 -2.0339 0.9761
4.6962 -3.2085 -2.0339 0.9761
4.9614 -2.7808 -2.0339 0.9761
5.1879 -2.3312 -2.0339 0.9761
5.3737 -1.8635 -2.0339 0.9761
-0.9470 -5.2221 -2.0338 0.9775
-0.4816 -5.2854 -2.0338 0.9775
1.3810 -5.1245 -2.0339 0.9775
2.6776 -4.5824 -2.0339 0.9775
3.0722 -4.3278 -2.0339 0.9775
3.7864 -3.7191 -2.0339 0.9775
4.1004 -3.3697 -2.0339 0.9775
4.8411 -2.1754 -2.0339 0.9775
-0.0116 -4.9694 -2.0338 0.9788
0.4278 -4.9510 -2.0338 0.9788
1.2930 -4.7983 -2.0339 0.9788
1.7122 -4.6652 -2.0339 0.9788
2.5071 -4.2907 -2.0339 0.9788
2.8766 -4.0522 -2.0339 0.9788
3.2236 -3.7821 -2.0339 0.9788
3.5454 -3.4823 -2.0339 0.9788
3.8394 -3.1552 -2.0339 0.9788
4.5329 -2.0370 -2.0339 0.9788
4.6953 -1.6282 -2.0339 0.9788
-0.0109 -4.6668 -2.0338 0.9798
1.6079 -4.3811 -2.0339 0.9798
1.9889 -4.2218 -2.0339 0.9798
2.7014 -3.8055 -2.0339 0.9798
3.3295 -3.2702 -2.0339 0.9798
3.8535 -2.6327 -2.0339 0.9798
4.0711 -2.2818 -2.0339 0.9798
4.2569 -1.9129 -2.0339 0.9798
4.4093 -1.5291 -2.0339 0.9798
-0.3987 -4.3757 -2.0338 0.9808
-0.0103 -4.3939 -2.0339 0.9808
1.5139 -4.1248 -2.0339 0.9808
1.8727 -3.9749 -2.0339 0.9808
2.2167 -3.7938 -2.0339 0.9808
2.8502 -3.3440 -2.0339 0.9808
3.3947 -2.7898 -2.0339 0.9808
3.6281 -2.4788 -2.0339 0.9808
3.8330 -2.1483 -2.0339 0.9808
4.1515 -1.4397 -2.0339 0.9808
-0.3762 -4.1292 -2.0339 0.9817
0.3569 -4.1309 -2.0339 0.9817
1.0789 -4.0035 -2.0339 0.9817
1.4286 -3.8924 -2.0339 0.9817
1.7671 -3.7509 -2.0339 0.9817
3.7821 -1.6995 -2.0339 0.9817
-0.6995 -3.8576 -2.0339 0.9825
-0.3557 -3.9043 -2.0339 0.9825
-0.0092 -3.9205 -2.0339 0.9825
0.3375 -3.9059 -2.0339 0.9825
0.6815 -3.8608 -2.0339 0.9825
1.0201 -3.7855 -2.0339 0.9825
1.6709 -3.5466 -2.0339 0.9825
2.2695 -3.1969 -2.0339 0.9825
2.7970 -2.7472 -2.0339 0.9825
3.0290 -2.4892 -2.0339 0.9825
3.4200 -1.9168 -2.0339 0.9825
-0.3370 -3.6981 -2.0339 0.9832
-0.0087 -3.7134 -2.0339 0.9832
1.2795 -3.4861 -2.0339 0.9832
1.5827 -3.3593 -2.0339 0.9832
1.8734 -3.2062 -2.0339 0.9832
2.1496 -3.0281 -2.0339 0.9832
3.0662 -2.0949 -2.0339 0.9832
3.2394 -1.8156 -2.0339 0.9832
1.9439 -0.6741 -1.1269 0.9907
-0.6286 -3.4662 -2.0339 0.9839
-0.3196 -3.5082 -2.0339 0.9839
-0.0083 -3.5228 -2.0339 0.9839
0.3032 -3.5097 -2.0339 0.9839
1.2138 -3.3071 -2.0339 0.9839
1.5013 -3.1869 -2.0339 0.9839
2.0393 -2.8726 -2.0339 0.9839
2.5133 -2.4686 -2.0339 0.9839
2.9088 -1.9873 -2.0339 0.9839
