ply
format ascii 1.0
element vertex 189
property float32 x
property float32 y
property float32 z
property float32 I
end_header
-17.5002 4.8509 -1.3315 0.9298
-11.6092 -8.6366 -1.0609 0.9436
-11.4586 -8.5245 -1.3711 0.9442
-16.4995 4.5735 -2.0338 0.9334
-17.0461 -1.6002 -2.0337 0.9334
-15.9830 -6.1369 -2.0337 0.9334
-15.3591 -7.5639 -2.0337 0.9334
-13.0221 -7.9590 -1.8129 0.9404
-11.2486 -8.3682 -1.6654 0.9451
-12.7507 -11.4249 -2.0337 0.9334
-6.4326 -15.8661 -2.0337 0.9334
-14.1236 2.5613 -2.0338 0.9437
-14.2908 -1.3416 -2.0338 0.9437
-14.1097 -2.6347 -2.0338 0.9437
-13.3996 -5.1450 -2.0337 0.9437
-12.2470 -7.4853 -2.0337 0.9437
-11.5161 -8.5672 -2.0337 0.9437
-10.6898 -9.5783 -2.0337 0.9437
-9.7751 -10.5101 -2.0337 0.9437
-8.7796 -11.3549 -2.0337 0.9437
-7.7114 -12.1058 -2.0337 0.9437
-11.8971 3.2978 -2.0338 0.9512
-12.1475 2.2029 -2.0338 0.9512
-12.2974 1.0899 -2.0338 0.9512
-12.3454 -0.0321 -2.0338 0.9512
-12.2914 -1.1539 -2.0338 0.9512
-12.1356 -2.2661 -2.0338 0.9512
-11.0751 -5.4542 -2.0337 0.9512
-8.4076 -9.0397 -2.0337 0.9512
-6.6325 -10.4121 -2.0337 0.9512
-4.6384 -11.4407 -2.0337 0.9512
-3.5795 -11.8149 -2.0337 0.9512
-10.8204 -0.0282 -2.0338 0.9569
-10.7729 -1.0113 -2.0338 0.9569
-10.4119 -2.9445 -2.0338 0.9569
-10.1012 -3.8785 -2.0338 0.9569
-9.7069 -4.7804 -2.0338 0.9569
-9.2323 -5.6427 -2.0338 0.9569
-8.6813 -6.4583 -2.0338 0.9569
-8.0584 -7.2205 -2.0338 0.9569
-7.3689 -7.9229 -2.0337 0.9569
-6.6184 -8.5598 -2.0337 0.9569
-3.1373 -10.3553 -2.0338 0.9569
-9.4673 1.7169 -2.0338 0.9614
-9.5841 0.8495 -2.0338 0.9614
-9.5795 -0.8993 -2.0338 0.9614
-9.4580 -1.7661 -2.0338 0.9614
-9.2584 -2.6183 -2.0338 0.9614
-8.2095 -5.0176 -2.0338 0.9614
-7.1657 -6.4206 -2.0338 0.9614
-5.8852 -7.6115 -2.0338 0.9614
-5.1691 -8.1148 -2.0338 0.9614
-4.4103 -8.5510 -2.0338 0.9614
-3.6150 -8.9165 -2.0338 0.9614
-8.3394 2.3116 -2.0339 0.9651
-8.5149 1.5442 -2.0338 0.9651
-8.6200 0.7640 -2.0338 0.9651
-8.5066 -1.5885 -2.0338 0.9651
-8.3270 -2.3549 -2.0338 0.9651
-7.7632 -3.8232 -2.0338 0.9651
-7.3837 -4.5129 -2.0338 0.9651
-6.4448 -5.7747 -2.0338 0.9651
-5.8934 -6.3365 -2.0338 0.9651
-5.2932 -6.8459 -2.0338 0.9651
-4.6491 -7.2986 -2.0338 0.9651
-3.9667 -7.6909 -2.0338 0.9651
-7.7291 1.4016 -2.0338 0.9681
-7.8551 -0.0204 -2.0338 0.9681
-7.5586 -2.1376 -2.0338 0.9681
-7.3330 -2.8156 -2.0338 0.9681
-7.0468 -3.4704 -2.0338 0.9681
-6.3023 -4.6885 -2.0338 0.9681
-5.3496 -5.7518 -2.0338 0.9681
-3.6006 -6.9811 -2.0338 0.9681
-2.9513 -7.2795 -2.0338 0.9681
-6.9233 1.9191 -2.0339 0.9706
-7.0691 1.2820 -2.0339 0.9706
-7.1843 -0.0187 -2.0338 0.9706
-7.0622 -1.3188 -2.0338 0.9706
-6.9131 -1.9551 -2.0338 0.9706
-6.4451 -3.1740 -2.0338 0.9706
-5.3505 -4.7942 -2.0338 0.9706
-4.3944 -5.6835 -2.0338 0.9706
-3.8598 -6.0593 -2.0338 0.9706
-2.0831 -6.8756 -2.0338 0.9706
-6.3722 1.7663 -2.0339 0.9727
-6.5866 0.5838 -2.0339 0.9727
-6.5835 -0.6181 -2.0338 0.9727
-6.3628 -1.7994 -2.0338 0.9727
-5.6420 -3.4484 -2.0338 0.9727
-4.5033 -4.8419 -2.0338 0.9727
-4.0446 -5.2310 -2.0338 0.9727
-3.5525 -5.5770 -2.0338 0.9727
-2.4844 -6.1279 -2.0338 0.9727
-5.8963 1.6344 -2.0339 0.9745
-6.0947 0.5402 -2.0339 0.9745
-5.8876 -1.6650 -2.0338 0.9745
-5.7119 -2.1932 -2.0338 0.9745
-5.2206 -3.1908 -2.0338 0.9745
-4.9090 -3.6520 -2.0338 0.9745
-4.5568 -4.0830 -2.0338 0.9745
-3.7425 -4.8404 -2.0338 0.9745
-2.2989 -5.6702 -2.0338 0.9745
-5.5962 1.0149 -2.0339 0.9761
-5.6873 -0.0148 -2.0339 0.9761
-5.6625 -0.5316 -2.0338 0.9761
-5.3094 -2.0386 -2.0338 0.9761
-4.5631 -3.3947 -2.0338 0.9761
-3.4788 -4.4993 -2.0338 0.9761
-3.0555 -4.7968 -2.0338 0.9761
-5.1145 1.4177 -2.0339 0.9775
-5.2866 0.4685 -2.0339 0.9775
-5.3073 -0.0138 -2.0339 0.9775
-5.2840 -0.4960 -2.0338 0.9775
-5.1070 -1.4443 -2.0338 0.9775
-4.7612 -2.3448 -2.0338 0.9775
-4.2582 -3.1678 -2.0338 0.9775
-3.9527 -3.5417 -2.0338 0.9775
-3.6145 -3.8862 -2.0338 0.9775
-3.2463 -4.1986 -2.0338 0.9775
-2.4328 -4.7168 -2.0338 0.9775
-1.5388 -5.0793 -2.0338 0.9775
-4.7889 1.3274 -2.0339 0.9788
-2.1170 0.1876 -0.8698 0.9909
-2.1205 -0.3960 -0.8829 0.9907
-4.6391 -1.7813 -2.0338 0.9788
-4.4580 -2.1955 -2.0338 0.9788
-2.6698 -4.1912 -2.0338 0.9788
-2.2779 -4.4165 -2.0338 0.9788
-1.9130 0.1695 -0.8370 0.9917
-1.9120 -0.1795 -0.8369 0.9917
-1.9051 -0.3558 -0.8446 0.9916
-2.0071 -0.5677 -0.9090 0.9909
-4.3566 -1.6728 -2.0338 0.9798
-3.9819 -2.4337 -2.0338 0.9798
-3.7442 -2.7855 -2.0338 0.9798
-3.4756 -3.1142 -2.0338 0.9798
-2.5073 -3.9360 -2.0338 0.9798
-2.1392 -4.1476 -2.0338 0.9798
-1.3531 -4.4662 -2.0338 0.9798
-1.5562 0.4313 -0.7475 0.9929
-1.6057 -0.1508 -0.7465 0.9929
-1.6056 -0.2998 -0.7561 0.9928
-3.9418 -1.9412 -2.0338 0.9808
-3.7490 -2.2914 -2.0338 0.9808
-2.6876 -3.4760 -2.0338 0.9808
-2.3606 -3.7059 -2.0338 0.9808
-2.0141 -3.9051 -2.0338 0.9808
-1.2740 -4.2051 -2.0338 0.9808
-1.3059 0.3620 -0.6647 0.9940
-1.3398 0.2429 -0.6679 0.9940
-1.3354 -0.0035 -0.6551 0.9941
-1.3535 -0.1271 -0.6668 0.9940
-1.3036 -0.3687 -0.6645 0.9940
-1.2567 -0.4826 -0.6603 0.9940
-3.7197 -1.8319 -2.0338 0.9817
-3.3266 -2.4748 -2.0338 0.9817
-3.0880 -2.7669 -2.0338 0.9817
-2.8238 -3.0361 -2.0338 0.9817
-1.9006 -3.6850 -2.0338 0.9817
-1.5579 -3.8425 -2.0338 0.9817
-1.2023 -3.9682 -2.0338 0.9817
-1.1922 -0.0031 -0.6185 0.9946
-1.2004 -0.1127 -0.6255 0.9946
-1.1846 -0.2212 -0.6252 0.9946
-1.1555 -0.3268 -0.6229 0.9946
-1.1260 -0.4324 -0.6257 0.9946
-2.9198 -2.6162 -2.0338 0.9825
-2.6700 -2.8707 -2.0338 0.9825
-2.3981 -3.1015 -2.0338 0.9825
-2.1063 -3.3066 -2.0338 0.9825
-1.7971 -3.4843 -2.0338 0.9825
-1.0650 0.1931 -0.5928 0.9951
-1.0636 -0.1987 -0.5926 0.9951
-1.0177 -0.3908 -0.5970 0.9950
-2.7656 -2.4781 -2.0338 0.9832
-1.9951 -3.1320 -2.0338 0.9832
-1.7022 -3.3003 -2.0338 0.9832
-1.0767 -3.5539 -2.0339 0.9832
-0.9589 0.2658 -0.5745 0.9954
-0.9890 -0.0026 -0.5710 0.9954
-0.9884 -0.0928 -0.5732 0.9954
-0.9773 -0.1825 -0.5740 0.9954
-0.9146 -0.4504 -0.5886 0.9953
-3.0057 -1.8371 -2.0339 0.9839
-2.8264 -2.1027 -2.0339 0.9839
-2.6236 -2.3508 -2.0339 0.9839
-1.8927 -2.9712 -2.0339 0.9839
-1.3236 -3.2647 -2.0339 0.9839
