ply
format ascii 1.0
element vertex 190
property float32 x
property float32 y
property float32 z
property float32 I
end_header
-4.9179 -16.3990 -2.0337 0.9334
-3.4614 -16.7670 -2.0337 0.9334
-1.9782 -17.0060 -2.0337 0.9334
2.5164 -16.9351 -2.0337 0.9334
3.9913 -16.6494 -2.0337 0.9334
2.1887 -6.5376 -0.8189 0.9726
8.1876 -15.0370 -2.0338 0.9334
9.4743 -14.2616 -2.0338 0.9334
10.6881 -13.3763 -2.0338 0.9334
11.8197 -12.3880 -2.0339 0.9334
14.6371 -8.8847 -2.0339 0.9334
15.3598 -7.5675 -2.0339 0.9334
-2.9019 -14.0570 -2.0337 0.9437
0.8570 -14.3280 -2.0337 0.9437
2.1097 -14.1978 -2.0338 0.9437
1.5688 -6.5443 -0.9535 0.9732
3.2479 -5.9650 -0.9623 0.9729
7.9429 -11.9564 -2.0338 0.9437
10.7815 -9.4770 -2.0339 0.9437
12.2711 -7.4485 -2.0339 0.9437
-2.4959 -12.0903 -2.0337 0.9512
-1.4264 -12.2626 -2.0338 0.9512
-0.3460 -12.3405 -2.0338 0.9512
0.7371 -12.3234 -2.0338 0.9512
1.5465 -6.4510 -1.0928 0.9735
2.5891 -5.9435 -1.0680 0.9741
3.1967 -5.8710 -1.1013 0.9733
6.8316 -10.2835 -2.0338 0.9512
7.7068 -9.6451 -2.0339 0.9512
8.5227 -8.9324 -2.0339 0.9512
9.2730 -8.1510 -2.0339 0.9512
9.9519 -7.3068 -2.0339 0.9512
11.0752 -5.4566 -2.0339 0.9512
-3.1081 -10.3641 -2.0338 0.9569
-0.3033 -10.8160 -2.0338 0.9569
0.6460 -10.8010 -2.0338 0.9569
1.5904 -10.7028 -2.0338 0.9569
1.4862 -6.1997 -1.1983 0.9744
1.9902 -5.9446 -1.1783 0.9748
2.4993 -5.7374 -1.1763 0.9749
6.7547 -8.4535 -2.0339 0.9569
7.4698 -7.8289 -2.0339 0.9569
8.1273 -7.1440 -2.0339 0.9569
9.2502 -5.6149 -2.0339 0.9569
-2.7637 -9.2160 -2.0338 0.9614
-1.1117 -9.5570 -2.0338 0.9614
0.5745 -9.6044 -2.0338 0.9614
1.4142 -9.5171 -2.0338 0.9614
1.4723 -6.1418 -1.3350 0.9745
2.5492 -5.8520 -1.3493 0.9742
6.0063 -7.5170 -2.0339 0.9614
7.2269 -6.3525 -2.0339 0.9614
7.7560 -5.6946 -2.0339 0.9614
8.6314 -4.2525 -2.0339 0.9614
-2.4857 -8.2889 -2.0338 0.9651
-0.9999 -8.5957 -2.0338 0.9651
-0.2425 -8.6503 -2.0338 0.9651
0.5167 -8.6382 -2.0338 0.9651
1.4520 -6.0570 -1.4639 0.9747
1.9591 -5.8519 -1.4503 0.9750
2.5406 -5.8321 -1.4951 0.9742
3.0168 -5.5405 -1.4827 0.9744
4.7886 -7.2083 -2.0339 0.9651
5.4021 -6.7608 -2.0339 0.9651
6.4998 -5.7135 -2.0339 0.9651
7.3979 -4.4905 -2.0339 0.9651
-2.2563 -7.5240 -2.0338 0.9681
-1.5881 -7.6928 -2.0338 0.9681
-0.9076 -7.8024 -2.0338 0.9681
-0.2202 -7.8520 -2.0338 0.9681
1.9478 -5.8181 -1.5886 0.9750
3.1680 -5.8185 -1.7153 0.9730
4.3467 -6.5430 -2.0339 0.9681
4.9036 -6.1368 -2.0339 0.9681
5.4227 -5.6834 -2.0339 0.9681
5.9000 -5.1862 -2.0339 0.9681
6.3320 -4.6490 -2.0339 0.9681
-2.0637 -6.8815 -2.0338 0.9706
-0.2014 -7.1815 -2.0338 0.9706
0.4290 -7.1715 -2.0338 0.9706
1.0560 -7.1063 -2.0338 0.9706
1.4442 -6.0244 -1.7538 0.9746
1.9815 -5.9187 -1.7670 0.9744
2.6737 -6.1377 -1.8952 0.9726
4.9596 -5.1981 -2.0339 0.9706
5.3962 -4.7433 -2.0339 0.9706
6.4449 -3.1753 -2.0339 0.9706
-1.3369 -6.4758 -2.0338 0.9727
-0.7641 -6.5681 -2.0338 0.9727
0.3948 -6.6006 -2.0338 0.9727
2.6409 -6.0622 -2.0339 0.9727
3.6591 -5.5079 -2.0339 0.9727
4.9666 -4.3657 -2.0339 0.9727
5.6528 -3.4312 -2.0339 0.9727
5.9318 -2.9225 -2.0339 0.9727
-1.7575 -5.8606 -2.0338 0.9745
-1.2370 -5.9922 -2.0338 0.9745
-0.7070 -6.0776 -2.0338 0.9745
-0.1715 -6.1161 -2.0338 0.9745
0.8993 -6.0521 -2.0338 0.9745
1.9425 -5.8021 -2.0339 0.9745
2.4436 -5.6095 -2.0339 0.9745
2.9259 -5.3737 -2.0339 0.9745
5.2305 -3.1750 -2.0339 0.9745
-1.6337 -5.4477 -2.0338 0.9761
-0.1594 -5.6851 -2.0338 0.9761
0.3396 -5.6772 -2.0338 0.9761
0.8359 -5.6256 -2.0338 0.9761
1.3259 -5.5307 -2.0338 0.9761
3.1471 -4.7374 -2.0339 0.9761
3.5503 -4.4433 -2.0339 0.9761
3.9262 -4.1149 -2.0339 0.9761
4.2718 -3.7550 -2.0339 0.9761
4.5845 -3.3661 -2.0339 0.9761
4.8620 -2.9512 -2.0339 0.9761
5.1020 -2.5137 -2.0339 0.9761
-1.0730 -5.1977 -2.0338 0.9775
-0.1487 -5.3052 -2.0338 0.9775
0.3169 -5.2978 -2.0338 0.9775
1.2372 -5.1611 -2.0339 0.9775
1.6849 -5.0328 -2.0339 0.9775
2.1196 -4.8657 -2.0339 0.9775
2.5380 -4.6612 -2.0339 0.9775
2.9368 -4.4208 -2.0339 0.9775
4.2781 -3.1411 -2.0339 0.9775
4.5371 -2.7540 -2.0339 0.9775
-1.0047 -4.8668 -2.0338 0.9788
-0.1393 -4.9674 -2.0338 0.9788
0.7304 -4.9154 -2.0339 0.9788
1.1585 -4.8325 -2.0339 0.9788
1.5777 -4.7124 -2.0339 0.9788
2.3764 -4.3644 -2.0339 0.9788
3.1021 -3.8824 -2.0339 0.9788
3.7325 -3.2809 -2.0339 0.9788
4.0057 -2.9411 -2.0339 0.9788
4.2482 -2.5787 -2.0339 0.9788
4.4579 -2.1963 -2.0339 0.9788
-0.5393 -4.6355 -2.0338 0.9798
0.2786 -4.6584 -2.0339 0.9798
1.4816 -4.4254 -2.0339 0.9798
2.2316 -4.0986 -2.0339 0.9798
2.5824 -3.8872 -2.0339 0.9798
3.2216 -3.3765 -2.0339 0.9798
3.5052 -3.0811 -2.0339 0.9798
-1.2621 -4.2087 -2.0338 0.9808
-0.8884 -4.3031 -2.0338 0.9808
-0.5077 -4.3645 -2.0338 0.9808
0.2623 -4.3861 -2.0339 0.9808
0.6458 -4.3462 -2.0339 0.9808
1.3950 -4.1666 -2.0339 0.9808
1.7548 -4.0283 -2.0339 0.9808
2.1011 -3.8590 -2.0339 0.9808
2.4314 -3.6599 -2.0339 0.9808
3.0332 -3.1791 -2.0339 0.9808
3.3002 -2.9009 -2.0339 0.9808
3.5419 -2.6005 -2.0339 0.9808
3.7562 -2.2800 -2.0339 0.9808
3.9416 -1.9420 -2.0339 0.9808
-1.1910 -3.9716 -2.0338 0.9817
-0.8383 -4.0607 -2.0338 0.9817
0.9666 -4.0321 -2.0339 0.9817
1.3163 -3.9318 -2.0339 0.9817
2.5883 -3.2393 -2.0339 0.9817
3.5445 -2.1515 -2.0339 0.9817
-0.7926 -3.8395 -2.0339 0.9825
0.2341 -3.9135 -2.0339 0.9825
0.5763 -3.8779 -2.0339 0.9825
1.2446 -3.7177 -2.0339 0.9825
1.5657 -3.5943 -2.0339 0.9825
1.8748 -3.4432 -2.0339 0.9825
2.1694 -3.2656 -2.0339 0.9825
2.7064 -2.8365 -2.0339 0.9825
2.9447 -2.5884 -2.0339 0.9825
3.3515 -2.0343 -2.0339 0.9825
-0.1041 -3.7120 -2.0339 0.9832
0.8657 -3.6112 -2.0339 0.9832
1.1789 -3.5214 -2.0339 0.9832
1.4830 -3.4045 -2.0339 0.9832
2.3181 -2.9011 -2.0339 0.9832
2.5635 -2.6868 -2.0339 0.9832
2.7892 -2.4517 -2.0339 0.9832
3.3312 -1.6412 -2.0339 0.9832
-1.0119 -3.3743 -2.0339 0.9839
-0.4070 -3.4992 -2.0339 0.9839
0.8212 -3.4257 -2.0339 0.9839
1.9493 -2.9343 -2.0339 0.9839
2.1990 -2.7521 -2.0339 0.9839
2.4319 -2.5488 -2.0339 0.9839
2.8396 -2.0849 -2.0339 0.9839
3.0115 -1.8280 -2.0339 0.9839
