ply
format ascii 1.0
element vertex 200
property float32 x
property float32 y
property float32 z
property float32 I
end_header
16.4450 -4.4579 -1.2493 0.9339
13.4716 9.6098 -1.2133 0.9358
16.3304 -4.4268 -1.6244 0.9343
14.9694 8.7947 -1.6668 0.9326
16.8579 -3.0029 -2.0340 0.9334
17.0575 -1.5023 -2.0340 0.9333
16.5223 4.4996 -2.0341 0.9333
16.0604 5.9412 -2.0341 0.9333
14.7646 8.6744 -2.0341 0.9333
13.2274 9.4355 -1.9300 0.9366
11.9738 12.2423 -2.0341 0.9333
13.8552 -3.7558 -2.0340 0.9437
14.3001 -1.2595 -2.0340 0.9437
14.3555 0.0084 -2.0340 0.9437
14.2988 1.2762 -2.0340 0.9437
14.1303 2.5341 -2.0340 0.9437
13.4641 4.9808 -2.0341 0.9437
12.9717 6.1505 -2.0341 0.9437
11.6872 8.3369 -2.0341 0.9437
10.0381 10.2632 -2.0341 0.9437
9.0925 11.1096 -2.0341 0.9437
5.8614 13.1049 -2.0341 0.9437
11.9165 -3.2303 -2.0340 0.9512
12.1554 -2.1652 -2.0340 0.9512
12.2991 -1.0832 -2.0340 0.9512
12.1531 2.1795 -2.0340 0.9512
11.5801 4.2838 -2.0340 0.9512
10.0518 7.1703 -2.0341 0.9512
8.6334 8.8271 -2.0341 0.9512
6.9457 10.2084 -2.0341 0.9512
6.0170 10.7819 -2.0341 0.9512
10.6536 -1.8978 -2.0340 0.9569
10.8214 0.0063 -2.0340 0.9569
10.7786 0.9620 -2.0340 0.9569
10.4412 2.8435 -2.0340 0.9569
10.1494 3.7546 -2.0340 0.9569
9.7781 4.6363 -2.0340 0.9569
9.3305 5.4817 -2.0340 0.9569
8.8099 6.2844 -2.0340 0.9569
8.2205 7.0379 -2.0340 0.9569
7.5668 7.7364 -2.0341 0.9569
6.8539 8.3745 -2.0341 0.9569
5.2736 9.4498 -2.0341 0.9569
3.5286 10.2302 -2.0340 0.9569
9.2871 -2.5175 -2.0340 0.9614
9.5844 0.8554 -2.0340 0.9614
9.4714 1.6986 -2.0340 0.9614
9.2844 2.5285 -2.0340 0.9614
8.2967 4.8744 -2.0340 0.9614
7.8338 5.5881 -2.0340 0.9614
7.3096 6.2581 -2.0340 0.9614
6.7284 6.8793 -2.0340 0.9614
6.0945 7.4466 -2.0340 0.9614
5.4130 7.9558 -2.0340 0.9614
4.6892 8.4027 -2.0340 0.9614
3.9288 8.7841 -2.0340 0.9614
8.5202 -1.5177 -2.0340 0.9651
8.6210 -0.7593 -2.0340 0.9651
8.6544 0.0051 -2.0340 0.9651
8.6201 0.7694 -2.0340 0.9651
8.5186 1.5277 -2.0340 0.9651
8.3504 2.2741 -2.0340 0.9651
7.8200 3.7078 -2.0340 0.9651
7.4620 4.3840 -2.0340 0.9651
7.0457 5.0259 -2.0340 0.9651
3.5335 7.9003 -2.0340 0.9651
7.7339 -1.3776 -2.0340 0.9681
7.8254 -0.6892 -2.0340 0.9681
7.8557 0.0046 -2.0340 0.9681
6.3954 4.5621 -2.0340 0.9681
5.9675 5.1091 -2.0340 0.9681
5.4929 5.6161 -2.0340 0.9681
4.4191 6.4950 -2.0340 0.9681
3.8282 6.8599 -2.0340 0.9681
6.9345 -1.8797 -2.0339 0.9706
7.0734 -1.2600 -2.0339 0.9706
7.1848 0.0042 -2.0340 0.9706
7.1564 0.6387 -2.0340 0.9706
7.0721 1.2683 -2.0340 0.9706
6.7386 2.4928 -2.0340 0.9706
6.4921 3.0782 -2.0340 0.9706
6.1949 3.6396 -2.0340 0.9706
5.8493 4.1725 -2.0340 0.9706
5.4579 4.6727 -2.0340 0.9706
4.5506 5.5601 -2.0340 0.9706
4.0418 5.9403 -2.0340 0.9706
2.3428 6.7922 -2.0340 0.9706
6.3824 -1.7301 -2.0339 0.9727
6.5873 -0.5802 -2.0340 0.9727
5.9753 2.8331 -2.0340 0.9727
5.7017 3.3498 -2.0340 0.9727
5.3836 3.8403 -2.0340 0.9727
4.6239 4.7276 -2.0340 0.9727
3.2226 5.7746 -2.0340 0.9727
5.9057 -1.6009 -2.0339 0.9745
6.0947 0.5440 -2.0340 0.9745
5.9039 1.6078 -2.0340 0.9745
5.7389 2.1230 -2.0340 0.9745
4.9815 3.5534 -2.0340 0.9745
3.8755 4.7353 -2.0340 0.9745
2.9819 5.3433 -2.0340 0.9745
1.9952 5.7845 -2.0340 0.9745
5.5995 -0.9974 -2.0339 0.9761
5.6877 0.0033 -2.0339 0.9761
5.5984 1.0040 -2.0340 0.9761
5.4879 1.4945 -2.0340 0.9761
5.3344 1.9733 -2.0340 0.9761
3.9770 4.0662 -2.0340 0.9761
3.6024 4.4015 -2.0340 0.9761
2.7717 4.9667 -2.0340 0.9761
2.3223 5.1921 -2.0340 0.9761
1.8546 5.3769 -2.0340 0.9761
5.3075 0.0031 -2.0339 0.9775
5.2865 0.4718 -2.0340 0.9775
5.2242 0.9369 -2.0340 0.9775
5.1211 1.3946 -2.0340 0.9775
4.7958 2.2739 -2.0340 0.9775
4.5763 2.6886 -2.0340 0.9775
4.3209 3.0822 -2.0340 0.9775
4.0318 3.4518 -2.0340 0.9775
3.7112 3.7944 -2.0340 0.9775
3.3616 4.1074 -2.0340 0.9775
2.1670 4.8451 -2.0340 0.9775
1.7306 5.0175 -2.0340 0.9775
4.7965 -1.3002 -2.0339 0.9788
4.9504 -0.4360 -2.0339 0.9788
4.9500 0.4418 -2.0339 0.9787
4.8916 0.8772 -2.0340 0.9787
4.7950 1.3058 -2.0340 0.9787
4.6610 1.7242 -2.0340 0.9787
3.7751 3.2321 -2.0340 0.9787
3.1475 3.8459 -2.0340 0.9787
2.7956 4.1088 -2.0340 0.9787
2.4218 4.3397 -2.0340 0.9787
2.0291 4.5366 -2.0340 0.9787
1.6205 4.6981 -2.0340 0.9787
4.5044 -1.2210 -2.0339 0.9798
4.6670 0.0027 -2.0339 0.9798
4.5030 1.2263 -2.0340 0.9798
3.7995 2.7103 -2.0340 0.9798
3.5452 3.0352 -2.0340 0.9798
3.2633 3.3365 -2.0340 0.9798
2.9559 3.6116 -2.0340 0.9798
2.6254 3.8586 -2.0340 0.9798
2.2743 4.0754 -2.0340 0.9798
1.9055 4.2603 -2.0340 0.9798
1.5218 4.4119 -2.0340 0.9798
4.3259 -0.7706 -2.0339 0.9808
4.3771 -0.3855 -2.0339 0.9808
4.3941 0.0026 -2.0339 0.9808
4.3767 0.3906 -2.0339 0.9808
4.3251 0.7756 -2.0339 0.9808
4.2396 1.1546 -2.0339 0.9808
4.1212 1.5245 -2.0340 0.9808
3.9704 1.8825 -2.0340 0.9808
3.5772 2.5518 -2.0340 0.9808
2.4718 3.6329 -2.0340 0.9808
2.1413 3.8370 -2.0340 0.9808
1.4328 4.1539 -2.0340 0.9808
4.1305 -0.3638 -2.0339 0.9817
4.1301 0.3686 -2.0339 0.9817
4.0814 0.7319 -2.0339 0.9817
3.8889 1.4386 -2.0340 0.9817
3.3757 2.4080 -2.0340 0.9817
2.6262 3.2088 -2.0340 0.9817
2.3325 3.4282 -2.0340 0.9817
2.0206 3.6208 -2.0340 0.9817
1.3521 3.9199 -2.0340 0.9817
2.1037 -0.3747 -1.1085 0.9904
2.0743 0.1851 -1.0804 0.9907
3.7829 1.0302 -2.0339 0.9825
3.6771 1.3603 -2.0339 0.9825
3.5426 1.6797 -2.0339 0.9825
3.1918 2.2768 -2.0340 0.9825
2.9782 2.5498 -2.0340 0.9825
2.2055 3.2415 -2.0340 0.9825
1.6007 3.5789 -2.0340 0.9825
1.8629 -0.5050 -1.0571 0.9912
1.8534 -0.3302 -1.0311 0.9915
1.8504 0.0011 -1.0134 0.9916
1.8536 0.3324 -1.0314 0.9914
3.4829 1.2884 -2.0339 0.9832
3.3555 1.5910 -2.0339 0.9832
3.2019 1.8812 -2.0339 0.9832
3.0232 2.1566 -2.0340 0.9832
2.8210 2.4152 -2.0340 0.9832
2.5966 2.6548 -2.0340 0.9832
2.0890 3.0703 -2.0340 0.9832
1.8097 3.2428 -2.0340 0.9832
1.2109 3.5106 -2.0340 0.9832
1.7141 -0.3054 -1.0052 0.9920
1.7245 0.0010 -0.9956 0.9921
1.7140 0.3074 -1.0054 0.9920
1.7120 0.4662 -1.0244 0.9918
1.7203 0.6364 -1.0590 0.9916
3.1832 1.5093 -2.0339 0.9839
2.6761 2.2911 -2.0339 0.9839
2.2313 2.7262 -2.0340 0.9839
1.9818 2.9126 -2.0340 0.9839
1.1487 3.3304 -2.0339 0.9839
