ply
format ascii 1.0
element vertex 194
property float32 x
property float32 y
property float32 z
property float32 I
end_header
-13.1089 12.7962 3.2301 0.9283
-12.2370 11.9450 2.6197 0.9331
-11.2454 13.1592 2.2541 0.9326
-11.9383 11.6534 2.1725 0.9349
-12.6622 12.3600 1.9001 0.9313
-12.5060 14.6344 1.1937 0.9258
-12.4781 14.6018 0.7574 0.9260
-16.5056 5.4999 -0.8823 0.9327
-16.2123 5.4021 -1.2530 0.9338
-9.9044 13.9678 -2.0340 0.9334
-11.1240 13.0172 -2.0340 0.9334
-14.2023 9.5638 -2.0339 0.9334
-15.6893 6.8560 -2.0338 0.9334
-16.2437 5.4126 -2.0338 0.9334
-16.6655 3.9251 -2.0338 0.9334
-17.1076 -0.6796 -2.0337 0.9334
-16.9764 -2.2201 -2.0337 0.9334
-16.7068 -3.7426 -2.0337 0.9334
-15.7621 -6.6836 -2.0337 0.9334
-15.0948 -8.0783 -2.0337 0.9334
-9.3258 10.9130 -2.0339 0.9437
-13.9718 3.2906 -2.0338 0.9437
-14.3354 0.7264 -2.0338 0.9437
-14.3424 -0.5697 -2.0338 0.9437
-14.0064 -3.1376 -2.0337 0.9437
-12.6551 -6.7726 -2.0337 0.9437
-7.1415 10.0714 -2.0340 0.9512
-9.5768 7.7918 -2.0339 0.9512
-10.2407 6.8961 -2.0339 0.9512
-10.8209 5.9440 -2.0339 0.9512
-11.3129 4.9436 -2.0339 0.9512
-12.0169 2.8302 -2.0338 0.9512
-12.2412 -1.6009 -2.0338 0.9512
-12.0468 -2.6987 -2.0338 0.9512
-11.7541 -3.7744 -2.0338 0.9512
-11.3657 -4.8194 -2.0337 0.9512
-10.8846 -5.8251 -2.0337 0.9512
-7.0300 8.2264 -2.0339 0.9569
-7.7434 7.5586 -2.0339 0.9569
-8.3936 6.8292 -2.0339 0.9569
-9.4841 5.2097 -2.0339 0.9569
-10.7131 1.5203 -2.0338 0.9569
-10.8065 0.5476 -2.0338 0.9569
-10.8118 -0.4295 -2.0338 0.9569
-10.5586 -2.3653 -2.0338 0.9569
-10.3021 -3.3081 -2.0338 0.9569
-9.9616 -4.2240 -2.0338 0.9569
-5.5657 7.8492 -2.0339 0.9614
-6.2511 7.3150 -2.0339 0.9614
-6.8855 6.7212 -2.0339 0.9614
-7.4637 6.0726 -2.0339 0.9614
-8.4333 4.6325 -2.0339 0.9614
-9.5262 1.3519 -2.0338 0.9614
-9.6093 0.4870 -2.0338 0.9614
-9.3888 -2.1032 -2.0338 0.9614
-9.1608 -2.9416 -2.0338 0.9614
-8.8580 -3.7561 -2.0338 0.9614
-6.1928 6.0450 -2.0339 0.9651
-7.1782 4.8338 -2.0339 0.9651
-7.5850 4.1665 -2.0339 0.9651
-7.9299 3.4652 -2.0339 0.9651
-8.4233 1.9838 -2.0339 0.9651
-8.5679 1.2158 -2.0338 0.9651
-8.6426 0.4380 -2.0338 0.9651
-8.5806 -1.1222 -2.0338 0.9651
-8.2392 -2.6457 -2.0338 0.9651
-4.5438 6.4080 -2.0339 0.9681
-7.1980 3.1454 -2.0339 0.9681
-7.4524 2.4832 -2.0339 0.9681
-7.7773 1.1037 -2.0338 0.9681
-7.8489 -0.3118 -2.0338 0.9681
-7.6651 -1.7171 -2.0338 0.9681
-7.2318 -3.0665 -2.0338 0.9681
-5.9593 4.0130 -2.0339 0.9706
-6.8160 2.2712 -2.0339 0.9706
-7.1131 1.0094 -2.0339 0.9706
-7.1787 -0.2852 -2.0338 0.9706
-7.1236 -0.9316 -2.0338 0.9706
-6.6142 -2.8046 -2.0338 0.9706
-4.2960 5.0271 -2.0339 0.9727
-4.7320 4.6191 -2.0339 0.9727
-5.1293 4.1733 -2.0339 0.9727
-5.7957 3.1837 -2.0339 0.9727
-6.2734 2.0904 -2.0339 0.9727
-6.5469 0.9291 -2.0339 0.9727
-6.6039 0.3346 -2.0338 0.9727
-6.5565 -0.8575 -2.0338 0.9727
-4.3785 4.2741 -2.0339 0.9745
-5.0753 3.4177 -2.0339 0.9745
-5.3629 2.9459 -2.0339 0.9745
-5.6067 2.4501 -2.0339 0.9745
-5.8049 1.9343 -2.0339 0.9745
-5.9557 1.4027 -2.0339 0.9745
-6.0579 0.8597 -2.0339 0.9745
-6.0668 -0.7934 -2.0338 0.9745
-5.8255 -1.8707 -2.0338 0.9745
-5.6330 -2.3886 -2.0338 0.9745
-5.3945 -2.8870 -2.0338 0.9745
-3.2899 4.6396 -2.0339 0.9761
-3.6950 4.3238 -2.0339 0.9761
-4.0700 3.9728 -2.0339 0.9761
-4.7175 3.1768 -2.0339 0.9761
-4.9849 2.7383 -2.0339 0.9761
-5.2116 2.2774 -2.0339 0.9761
-5.5360 1.3038 -2.0339 0.9761
-5.6310 0.7991 -2.0339 0.9761
-5.6801 0.2878 -2.0339 0.9761
-5.6829 -0.2257 -2.0338 0.9761
-5.6393 -0.7375 -2.0338 0.9761
-5.5498 -1.2432 -2.0338 0.9761
-5.2360 -2.2203 -2.0338 0.9761
-3.0700 4.3295 -2.0339 0.9775
-3.7980 3.7074 -2.0339 0.9775
-4.1169 3.3496 -2.0339 0.9775
-4.6518 2.5553 -2.0339 0.9775
-4.8633 2.1252 -2.0339 0.9775
-5.0352 1.6778 -2.0339 0.9775
-5.1660 1.2167 -2.0339 0.9775
-5.2546 0.7457 -2.0339 0.9775
-5.3005 0.2686 -2.0339 0.9775
-5.3031 -0.2107 -2.0339 0.9775
-5.2624 -0.6882 -2.0338 0.9775
-5.0531 -1.6226 -2.0338 0.9775
-4.6793 -2.5042 -2.0338 0.9775
-2.8746 4.0538 -2.0339 0.9788
-3.2285 3.7780 -2.0339 0.9788
-3.5561 3.4713 -2.0339 0.9788
-3.8548 3.1363 -2.0339 0.9788
-4.3556 2.3926 -2.0339 0.9788
-4.5537 1.9899 -2.0339 0.9788
-4.7146 1.5710 -2.0339 0.9788
-2.1234 0.5001 -0.8928 0.9906
-2.1112 0.2996 -0.8727 0.9908
-2.1221 0.1075 -0.8697 0.9909
-4.7314 -1.5193 -2.0338 0.9788
-2.6995 3.8070 -2.0339 0.9798
-3.3396 3.2599 -2.0339 0.9798
-3.6200 2.9453 -2.0339 0.9798
-3.8710 2.6067 -2.0339 0.9798
-4.2764 1.8687 -2.0339 0.9798
-4.4275 1.4753 -2.0339 0.9798
-1.9005 0.4476 -0.8510 0.9915
-1.9031 0.2700 -0.8377 0.9916
-1.9180 0.0972 -0.8370 0.9917
-1.9026 -0.2488 -0.8362 0.9917
-1.9023 -0.4262 -0.8496 0.9915
-4.4432 -1.4268 -2.0338 0.9798
-4.2964 -1.8218 -2.0338 0.9798
-2.8546 3.3404 -2.0339 0.9808
-3.6446 2.4543 -2.0339 0.9808
-3.8511 2.1155 -2.0339 0.9808
-4.0263 1.7594 -2.0339 0.9808
-1.5839 0.3730 -0.7532 0.9929
-1.6106 0.2285 -0.7530 0.9929
-1.5927 0.0807 -0.7382 0.9930
-1.5878 -0.0631 -0.7355 0.9930
-1.6123 -0.5178 -0.7838 0.9926
-2.3984 3.3824 -2.0339 0.9817
-2.6937 3.1522 -2.0339 0.9817
-2.9671 2.8963 -2.0339 0.9817
-3.2163 2.6169 -2.0339 0.9817
-3.4393 2.3160 -2.0339 0.9817
-3.6341 1.9963 -2.0339 0.9817
-3.7994 1.6603 -2.0339 0.9817
-1.2800 0.4265 -0.6618 0.9940
-1.3227 0.3115 -0.6666 0.9940
-1.3471 -0.0536 -0.6613 0.9940
-1.2861 -0.4130 -0.6626 0.9940
-2.2678 3.1981 -2.0339 0.9825
-2.8055 2.7386 -2.0339 0.9825
-3.4362 1.8875 -2.0339 0.9825
-1.1388 0.3794 -0.6227 0.9946
-1.1704 0.2756 -0.6238 0.9946
-1.1959 0.1697 -0.6266 0.9946
-1.1979 -0.0476 -0.6219 0.9946
-1.1979 -0.1567 -0.6268 0.9946
-1.1413 -0.3665 -0.6218 0.9946
-2.4125 2.8231 -2.0339 0.9832
-2.6574 2.5939 -2.0339 0.9832
-3.2547 1.7879 -2.0339 0.9832
-1.0016 0.4376 -0.5987 0.9950
-1.0297 0.3431 -0.5945 0.9951
-1.0735 0.1523 -0.5938 0.9951
-1.0754 -0.1407 -0.5940 0.9951
-1.0527 -0.2358 -0.5908 0.9951
-1.0058 -0.4265 -0.5984 0.9950
-2.7326 2.2233 -2.0339 0.9839
-0.8989 0.4937 -0.5921 0.9953
-0.9292 0.4060 -0.5854 0.9953
-0.9839 0.1396 -0.5738 0.9954
-0.9900 -0.0394 -0.5721 0.9954
-0.9852 -0.1289 -0.5737 0.9954
-0.9701 -0.2174 -0.5740 0.9954
-0.9532 -0.3061 -0.5780 0.9954
