ply
format ascii 1.0
element vertex 200
property float32 x
property float32 y
property float32 z
property float32 I
end_header
2.4925 -6.1219 -0.6346 0.9738
-2.6700 -16.9112 -2.0337 0.9334
-1.1300 -17.0834 -2.0337 0.9334
0.4193 -17.1157 -2.0337 0.9334
1.9651 -17.0078 -2.0337 0.9334
1.8906 -6.1971 -0.7696 0.9742
2.4562 -6.0328 -0.7737 0.9741
3.0927 -5.9816 -0.7999 0.9732
16.4623 -4.7114 -2.0340 0.9334
-3.5111 -13.9173 -2.0337 0.9437
1.6475 -14.2587 -2.0338 0.9437
2.9300 -14.0515 -2.0338 0.9437
3.0980 -5.9918 -0.9557 0.9731
10.6829 -9.5880 -2.0339 0.9437
12.2352 -7.5075 -2.0339 0.9437
12.8639 -6.3706 -2.0339 0.9437
-3.0199 -11.9702 -2.0337 0.9512
0.3023 -12.3417 -2.0338 0.9512
1.4170 -12.2639 -2.0338 0.9512
1.8356 -6.0168 -1.0363 0.9748
2.3755 -5.8346 -1.0378 0.9748
3.0182 -5.8375 -1.0826 0.9737
9.1881 -8.2465 -2.0339 0.9512
9.8962 -7.3820 -2.0339 0.9512
10.5232 -6.4571 -2.0339 0.9512
11.0640 -5.4792 -2.0339 0.9512
11.5142 -4.4564 -2.0339 0.9512
-2.6468 -10.4914 -2.0338 0.9569
-0.7141 -10.7966 -2.0338 0.9569
0.2650 -10.8170 -2.0338 0.9569
1.2420 -10.7488 -2.0338 0.9569
2.2088 -10.5925 -2.0338 0.9569
1.8399 -6.0309 -1.1851 0.9747
2.3859 -5.8601 -1.1893 0.9746
5.8185 -9.1231 -2.0338 0.9569
6.6196 -8.5597 -2.0339 0.9569
7.3664 -7.9262 -2.0339 0.9569
8.0530 -7.2277 -2.0339 0.9569
9.2231 -5.6593 -2.0339 0.9569
9.6970 -4.8022 -2.0339 0.9569
10.4035 -2.9774 -2.0340 0.9569
-2.3536 -9.3291 -2.0338 0.9614
-0.6350 -9.6005 -2.0338 0.9614
0.2356 -9.6187 -2.0338 0.9614
1.1044 -9.5580 -2.0338 0.9614
1.8256 -5.9839 -1.3224 0.9747
2.3621 -5.8015 -1.3241 0.9747
2.9120 -5.6319 -1.3402 0.9744
5.8862 -7.6114 -2.0339 0.9614
6.5503 -7.0480 -2.0339 0.9614
8.2012 -5.0323 -2.0339 0.9614
8.6227 -4.2702 -2.0339 0.9614
8.9736 -3.4731 -2.0339 0.9614
9.2509 -2.6475 -2.0340 0.9614
-2.1169 -8.3907 -2.0338 0.9651
0.2120 -8.6511 -2.0338 0.9651
0.9932 -8.5965 -2.0338 0.9651
1.2989 -6.2295 -1.4955 0.9742
1.8016 -5.9054 -1.4510 0.9749
2.3080 -5.6685 -1.4384 0.9752
2.9414 -5.6888 -1.5052 0.9740
4.6534 -7.2963 -2.0339 0.9651
5.2941 -6.8457 -2.0339 0.9651
5.8914 -6.3390 -2.0339 0.9651
6.4404 -5.7804 -2.0339 0.9651
7.3762 -4.5261 -2.0339 0.9651
7.7553 -3.8406 -2.0339 0.9651
8.0708 -3.1237 -2.0339 0.9651
8.3202 -2.3812 -2.0339 0.9651
-1.9215 -7.6164 -2.0338 0.9681
-0.5184 -7.8379 -2.0338 0.9681
0.1923 -7.8527 -2.0338 0.9681
1.2855 -6.1652 -1.6306 0.9743
3.0118 -5.8251 -1.6979 0.9733
4.2239 -6.6230 -2.0339 0.9681
5.8461 -5.2469 -2.0339 0.9681
6.2965 -4.6969 -2.0339 0.9681
6.6955 -4.1084 -2.0339 0.9681
7.0395 -3.4862 -2.0339 0.9681
7.3260 -2.8354 -2.0339 0.9681
7.5524 -2.1614 -2.0339 0.9681
-0.4741 -7.1686 -2.0338 0.9706
1.8057 -5.9189 -1.7518 0.9746
3.1912 -6.1720 -1.9670 0.9715
3.8632 -6.0574 -2.0339 0.9706
4.3951 -5.6833 -2.0339 0.9706
4.8910 -5.2627 -2.0339 0.9706
5.3468 -4.7989 -2.0339 0.9706
6.4384 -3.1885 -2.0339 0.9706
-0.4364 -6.5980 -2.0338 0.9727
0.1619 -6.6104 -2.0338 0.9727
1.8420 -6.0374 -1.9415 0.9739
3.0370 -5.8738 -2.0339 0.9727
3.5557 -5.5752 -2.0339 0.9727
4.0452 -5.2309 -2.0339 0.9727
4.5016 -4.8437 -2.0339 0.9727
4.9212 -4.4169 -2.0339 0.9727
5.6362 -3.4584 -2.0339 0.9727
6.1670 -2.3869 -2.0339 0.9727
-1.4967 -5.9326 -2.0338 0.9745
-0.9542 -6.0437 -2.0338 0.9745
0.1498 -6.1167 -2.0338 0.9745
1.7854 -5.8523 -2.0339 0.9745
2.8102 -5.4351 -2.0339 0.9745
3.7431 -4.8402 -2.0339 0.9745
4.5536 -4.0870 -2.0339 0.9745
4.9045 -3.6585 -2.0339 0.9745
5.2152 -3.2001 -2.0339 0.9745
5.4833 -2.7155 -2.0339 0.9745
5.8827 -1.6836 -2.0339 0.9745
-1.3913 -5.5145 -2.0338 0.9761
-0.8870 -5.6178 -2.0338 0.9761
-0.3754 -5.6750 -2.0338 0.9761
2.1446 -5.2676 -2.0339 0.9761
3.0583 -4.7952 -2.0339 0.9761
3.4793 -4.4991 -2.0339 0.9761
3.8719 -4.1661 -2.0339 0.9761
4.5588 -3.4007 -2.0339 0.9761
4.8477 -2.9746 -2.0339 0.9761
-1.2983 -5.1460 -2.0338 0.9775
1.0834 -5.1955 -2.0339 0.9775
1.5487 -5.0763 -2.0339 0.9775
2.0013 -4.9155 -2.0339 0.9775
2.8539 -4.4748 -2.0339 0.9775
3.9498 -3.5451 -2.0339 0.9775
4.5238 -2.7758 -2.0339 0.9775
4.7562 -2.3554 -2.0339 0.9775
4.9497 -1.9157 -2.0339 0.9775
5.1027 -1.4604 -2.0339 0.9775
-0.7750 -4.9086 -2.0338 0.9788
0.1217 -4.9679 -2.0338 0.9788
0.5704 -4.9366 -2.0339 0.9788
1.8739 -4.6026 -2.0339 0.9788
2.2824 -4.4143 -2.0339 0.9788
2.6721 -4.1899 -2.0339 0.9788
3.0401 -3.9311 -2.0339 0.9788
3.3831 -3.6402 -2.0339 0.9788
3.6984 -3.3193 -2.0339 0.9788
3.9834 -2.9714 -2.0339 0.9788
4.2357 -2.5991 -2.0339 0.9788
4.4534 -2.2054 -2.0339 0.9788
-1.1416 -4.5250 -2.0338 0.9798
-0.7278 -4.6096 -2.0338 0.9798
0.9526 -4.5685 -2.0339 0.9798
1.7598 -4.3223 -2.0339 0.9798
2.1434 -4.1455 -2.0339 0.9798
2.5095 -3.9347 -2.0339 0.9798
2.8549 -3.6918 -2.0339 0.9798
3.4731 -3.1172 -2.0339 0.9798
3.7408 -2.7904 -2.0339 0.9798
3.9778 -2.4408 -2.0339 0.9798
4.4868 -1.2841 -2.0339 0.9798
-1.0748 -4.2604 -2.0338 0.9808
-0.2900 -4.3843 -2.0338 0.9808
0.1076 -4.3925 -2.0339 0.9808
0.5043 -4.3649 -2.0339 0.9808
0.8969 -4.3014 -2.0339 0.9808
2.0180 -3.9031 -2.0339 0.9808
2.3627 -3.7046 -2.0339 0.9808
3.2700 -2.9349 -2.0339 0.9808
3.7452 -2.2980 -2.0339 0.9808
4.0979 -1.5860 -2.0339 0.9808
-1.0143 -4.0203 -2.0338 0.9817
-0.6466 -4.0956 -2.0338 0.9817
-0.2737 -4.1373 -2.0339 0.9817
0.4759 -4.1189 -2.0339 0.9817
1.5635 -3.8403 -2.0339 0.9817
1.9044 -3.6831 -2.0339 0.9817
2.5366 -3.2800 -2.0339 0.9817
2.8227 -3.0372 -2.0339 0.9817
3.0858 -2.7696 -2.0339 0.9817
-0.9591 -3.8014 -2.0338 0.9825
-0.6114 -3.8725 -2.0339 0.9825
-0.2587 -3.9119 -2.0339 0.9825
0.0960 -3.9193 -2.0339 0.9825
0.4500 -3.8946 -2.0339 0.9825
0.8002 -3.8379 -2.0339 0.9825
1.1440 -3.7499 -2.0339 0.9825
2.1081 -3.3055 -2.0339 0.9825
-0.9084 -3.6006 -2.0339 0.9832
-0.2451 -3.7054 -2.0339 0.9832
0.7580 -3.6353 -2.0339 0.9832
1.4003 -3.4393 -2.0339 0.9832
1.7056 -3.2986 -2.0339 0.9832
1.9968 -3.1309 -2.0339 0.9832
2.2717 -2.9376 -2.0339 0.9832
2.7636 -2.4804 -2.0339 0.9832
2.9766 -2.2204 -2.0339 0.9832
3.4632 -1.3404 -2.0339 0.9832
1.8692 -0.5350 -1.0649 0.9912
-0.8618 -3.4157 -2.0339 0.9839
-0.5494 -3.4796 -2.0339 0.9839
0.0863 -3.5217 -2.0339 0.9839
0.7191 -3.4486 -2.0339 0.9839
2.3982 -2.5804 -2.0339 0.9839
2.6218 -2.3530 -2.0339 0.9839
2.8238 -2.1064 -2.0339 0.9839
3.0027 -1.8424 -2.0339 0.9839
3.1570 -1.5634 -2.0339 0.9839
1.7129 -0.4902 -1.0286 0.9918
