ply
format ascii 1.0
element vertex 205
property float32 x
property float32 y
property float32 z
property float32 I
end_header
2.2864 17.5996 2.7188 0.9307
-11.5100 12.4973 2.6028 0.9336
2.2871 17.6055 2.3119 0.9309
-11.4771 12.4615 1.8192 0.9341
2.4230 18.6511 1.5921 0.9273
2.2772 17.5293 1.0961 0.9316
-4.3546 19.4545 1.2362 0.9232
-12.3357 13.3938 1.1291 0.9296
2.3298 17.9338 0.7131 0.9302
-11.7957 12.8075 0.6866 0.9327
2.4344 18.7394 0.3192 0.9272
-12.0462 13.0795 0.3004 0.9313
2.4989 19.2354 -0.1092 0.9253
-12.0116 13.0420 -0.8992 0.9314
-16.9803 5.2974 -0.9021 0.9312
-1.0512 7.8652 -0.7618 0.9686
-1.6662 7.4438 -0.7323 0.9698
-12.0346 13.0670 -1.7055 0.9311
-1.0075 7.5384 -0.9034 0.9698
-1.6597 7.4148 -0.9026 0.9699
-5.1838 16.3201 -2.0340 0.9333
-7.9413 15.1704 -2.0340 0.9334
-10.4570 13.5589 -2.0340 0.9334
-13.6121 10.3868 -2.0339 0.9334
-14.4662 9.1596 -2.0339 0.9334
-15.2100 7.8626 -2.0339 0.9334
-16.7271 3.6539 -2.0338 0.9334
1.8495 14.2363 -2.0341 0.9437
-0.6531 14.3409 -2.0341 0.9437
-0.9920 7.4222 -1.0610 0.9702
-1.6262 7.2652 -1.0549 0.9704
-5.5227 13.2505 -2.0340 0.9437
-6.6576 12.7181 -2.0340 0.9437
-10.6088 9.6703 -2.0339 0.9437
-11.4119 8.7078 -2.0339 0.9437
-12.1279 7.6790 -2.0339 0.9437
-14.0234 3.0632 -2.0338 0.9437
1.5907 12.2442 -2.0341 0.9512
-2.4553 7.7301 -1.3361 0.9677
-6.6584 10.3972 -2.0340 0.9512
-8.3641 9.0815 -2.0339 0.9512
-9.8151 7.4894 -2.0339 0.9512
-10.4310 6.6046 -2.0339 0.9512
-11.4200 4.6910 -2.0339 0.9512
1.3942 10.7314 -2.0340 0.9569
-0.3556 7.8078 -1.4691 0.9687
-0.9712 7.2666 -1.3780 0.9706
-1.6261 7.2648 -1.3993 0.9702
-2.2743 7.1601 -1.4121 0.9699
-4.1631 9.9884 -2.0340 0.9569
-7.3307 7.9596 -2.0339 0.9569
-7.9971 7.2896 -2.0339 0.9569
-8.6025 6.5641 -2.0339 0.9569
-9.1423 5.7886 -2.0339 0.9569
-10.3296 3.2226 -2.0338 0.9569
1.2396 9.5424 -2.0340 0.9614
-0.3475 7.6300 -1.6145 0.9693
-2.2718 7.1521 -1.5863 0.9698
-5.1892 8.1030 -2.0339 0.9614
-7.6494 5.8369 -2.0339 0.9614
-8.5474 4.4185 -2.0339 0.9614
-8.9002 3.6560 -2.0339 0.9614
1.1149 8.5824 -2.0340 0.9651
-0.3937 8.6455 -2.0340 0.9651
-3.3295 7.9882 -2.0340 0.9651
-4.0136 7.6673 -2.0340 0.9651
-4.6671 7.2879 -2.0339 0.9651
-5.2851 6.8529 -2.0339 0.9651
-5.8628 6.3656 -2.0339 0.9651
-6.8799 5.2497 -2.0339 0.9651
-7.3116 4.6295 -2.0339 0.9651
-7.6875 3.9740 -2.0339 0.9651
-8.4545 1.8468 -2.0338 0.9651
1.0120 7.7903 -2.0340 0.9681
0.3286 7.8488 -2.0340 0.9681
-0.3574 7.8476 -2.0340 0.9681
-3.0222 7.2510 -2.0340 0.9681
-3.6432 6.9596 -2.0339 0.9681
-4.7974 6.2204 -2.0339 0.9681
-5.3217 5.7782 -2.0339 0.9681
-6.9781 3.6072 -2.0339 0.9681
-7.2661 2.9847 -2.0339 0.9681
-7.4988 2.3394 -2.0339 0.9681
-7.6742 1.6763 -2.0339 0.9681
0.9256 7.1250 -2.0340 0.9706
0.3005 7.1786 -2.0340 0.9706
-0.3269 7.1774 -2.0340 0.9706
-0.9518 7.1215 -2.0340 0.9706
-1.5694 7.0113 -2.0340 0.9706
-3.3321 6.3653 -2.0339 0.9706
-3.8746 6.0503 -2.0339 0.9706
-4.3877 5.6892 -2.0339 0.9706
-4.8673 5.2847 -2.0339 0.9706
-5.3097 4.8400 -2.0339 0.9706
-6.6457 2.7298 -2.0339 0.9706
-6.8584 2.1397 -2.0339 0.9706
0.2766 6.6071 -2.0340 0.9727
-0.8760 6.5545 -2.0340 0.9727
-2.0019 6.3025 -2.0340 0.9727
-3.0668 5.8586 -2.0339 0.9727
-3.5662 5.5687 -2.0339 0.9727
-4.0384 5.2363 -2.0339 0.9727
-4.4798 4.8641 -2.0339 0.9727
-4.8870 4.4547 -2.0339 0.9727
0.2560 6.1136 -2.0340 0.9745
-0.8105 6.0650 -2.0340 0.9745
-1.8523 5.8317 -2.0339 0.9745
-2.3541 5.6479 -2.0339 0.9745
-3.7368 4.8452 -2.0339 0.9745
-4.1452 4.5007 -2.0339 0.9745
-4.5220 4.1220 -2.0339 0.9745
-4.8643 3.7117 -2.0339 0.9745
-5.1696 3.2732 -2.0339 0.9745
-5.4354 2.8097 -2.0339 0.9745
0.7327 5.6403 -2.0340 0.9761
0.2379 5.6827 -2.0340 0.9761
-0.7534 5.6375 -2.0340 0.9761
-1.2424 5.5503 -2.0340 0.9761
-2.1881 5.2499 -2.0339 0.9761
-3.0673 4.7896 -2.0339 0.9761
-4.5215 3.4502 -2.0339 0.9761
-5.4294 1.6938 -2.0339 0.9761
-5.5564 1.2137 -2.0339 0.9761
0.2220 5.3029 -2.0340 0.9775
-0.2415 5.3021 -2.0340 0.9775
-0.7030 5.2608 -2.0340 0.9775
-1.6068 5.0584 -2.0339 0.9775
-2.0419 4.8990 -2.0339 0.9775
-2.4615 4.7022 -2.0339 0.9775
-3.5955 3.9040 -2.0339 0.9775
-3.9224 3.5754 -2.0339 0.9775
-4.2193 3.2196 -2.0339 0.9775
-4.4841 2.8392 -2.0339 0.9775
-4.7147 2.4372 -2.0339 0.9775
-4.9093 2.0166 -2.0339 0.9775
-5.0665 1.5806 -2.0339 0.9775
-5.1850 1.1326 -2.0339 0.9775
0.2079 4.9653 -2.0340 0.9788
-1.0855 4.8496 -2.0339 0.9788
-1.5045 4.7364 -2.0339 0.9788
-2.6800 4.1850 -2.0339 0.9788
-3.0349 3.9352 -2.0339 0.9788
-3.3667 3.6554 -2.0339 0.9788
-3.6727 3.3478 -2.0339 0.9788
-3.9507 3.0146 -2.0339 0.9788
-4.1986 2.6585 -2.0339 0.9788
-2.1207 0.4632 -0.8884 0.9907
0.6012 4.6281 -2.0340 0.9798
0.1952 4.6629 -2.0340 0.9798
-0.2123 4.6621 -2.0340 0.9798
-1.0194 4.5543 -2.0339 0.9798
-1.4128 4.4479 -2.0339 0.9798
-2.5168 3.9301 -2.0339 0.9798
-2.8501 3.6955 -2.0339 0.9798
-3.1616 3.4328 -2.0339 0.9798
-3.9429 2.4966 -2.0339 0.9798
-4.1457 2.1431 -2.0339 0.9798
-2.0941 0.6533 -0.9560 0.9905
0.1838 4.3902 -2.0340 0.9808
-0.9598 4.2879 -2.0339 0.9808
-1.3302 4.1878 -2.0339 0.9808
-2.0378 3.8929 -2.0339 0.9808
-2.3696 3.7003 -2.0339 0.9808
-3.7123 2.3506 -2.0339 0.9808
-3.9032 2.0177 -2.0339 0.9808
-1.5303 0.4774 -0.7420 0.9930
-0.1886 4.1422 -2.0339 0.9817
-0.5493 4.1099 -2.0339 0.9817
-1.9230 3.6735 -2.0339 0.9817
-2.8090 3.0499 -2.0339 0.9817
-3.0643 2.7933 -2.0339 0.9817
-3.2963 2.5153 -2.0339 0.9817
-3.5032 2.2181 -2.0339 0.9817
-3.8354 1.5755 -2.0339 0.9817
-1.2905 0.4026 -0.6631 0.9940
-1.3287 0.2902 -0.6671 0.9940
-0.1784 3.9166 -2.0339 0.9825
-2.3943 3.1046 -2.0339 0.9825
-2.6560 2.8838 -2.0339 0.9825
-2.8975 2.6411 -2.0339 0.9825
-3.1168 2.3783 -2.0339 0.9825
-3.3123 2.0973 -2.0339 0.9825
-1.1177 0.4591 -0.6268 0.9946
-1.1442 0.3569 -0.6218 0.9946
-1.1747 0.2566 -0.6238 0.9946
-0.1689 3.7097 -2.0339 0.9832
-0.4920 3.6808 -2.0339 0.9832
-1.4286 3.4277 -2.0339 0.9832
-1.7222 3.2900 -2.0339 0.9832
-2.2679 2.9406 -2.0339 0.9832
-2.5157 2.7315 -2.0339 0.9832
-2.7444 2.5017 -2.0339 0.9832
-2.9522 2.2527 -2.0339 0.9832
-3.1375 1.9865 -2.0339 0.9832
-1.0370 0.5360 -0.6393 0.9947
-1.0337 0.3225 -0.5931 0.9951
-1.0545 0.2303 -0.5911 0.9951
-0.1603 3.5192 -2.0339 0.9839
-1.3553 3.2517 -2.0339 0.9839
-2.1514 2.7896 -2.0339 0.9839
-2.3866 2.5913 -2.0339 0.9839
-2.6035 2.3732 -2.0339 0.9839
-0.9081 0.4694 -0.5902 0.9953
-0.9357 0.3843 -0.5840 0.9953
-0.9713 0.2121 -0.5740 0.9954
