ply
format ascii 1.0
element vertex 166
property float32 x
property float32 y
property float32 z
property float32 I
end_header
-11.6177 -8.6248 -1.0609 0.9436
-16.2429 5.9835 -1.6618 0.9328
-11.4502 -8.5004 -1.3691 0.9443
-16.0664 5.9184 -2.0338 0.9334
-16.5338 4.4482 -2.0338 0.9334
-16.8669 2.9417 -2.0338 0.9334
-17.0630 1.4113 -2.0338 0.9334
-17.1206 -0.1304 -2.0338 0.9334
-17.0393 -1.6711 -2.0337 0.9334
-16.8196 -3.1981 -2.0337 0.9334
-16.4633 -4.6992 -2.0337 0.9334
-15.9733 -6.1621 -2.0337 0.9334
-15.3536 -7.5749 -2.0337 0.9334
-12.7720 -11.4011 -2.0337 0.9334
-11.6937 -12.5045 -2.0337 0.9334
-7.9284 -15.1739 -2.0337 0.9334
-14.3533 -0.1093 -2.0338 0.9437
-14.2852 -1.4010 -2.0338 0.9437
-12.8720 -6.3506 -2.0337 0.9437
-11.5247 -8.5557 -2.0337 0.9437
-9.8038 -10.4834 -2.0337 0.9437
-6.6469 -12.7214 -2.0337 0.9437
-11.5848 4.2675 -2.0338 0.9512
-12.1621 2.1211 -2.0338 0.9512
-12.3036 1.0177 -2.0338 0.9512
-12.1281 -2.3061 -2.0338 0.9512
-11.8713 -3.3885 -2.0338 0.9512
-11.0712 -5.4621 -2.0337 0.9512
-9.2096 -8.2211 -2.0337 0.9512
-7.5862 -9.7392 -2.0337 0.9512
-10.1536 3.7404 -2.0339 0.9569
-10.6596 1.8591 -2.0338 0.9569
-10.7836 0.8920 -2.0338 0.9569
-10.4047 -2.9699 -2.0338 0.9569
-10.0950 -3.8944 -2.0338 0.9569
-9.7035 -4.7873 -2.0338 0.9569
-9.2331 -5.6414 -2.0338 0.9569
-8.6877 -6.4496 -2.0338 0.9569
-8.0719 -7.2055 -2.0338 0.9569
-7.3905 -7.9029 -2.0337 0.9569
-6.6490 -8.5361 -2.0337 0.9569
-5.0107 -9.5900 -2.0338 0.9569
-9.0287 3.3260 -2.0339 0.9614
-9.5889 0.7931 -2.0338 0.9614
-9.6213 -0.0733 -2.0338 0.9614
-8.9767 -3.4629 -2.0338 0.9614
-8.6285 -4.2570 -2.0338 0.9614
-7.7253 -5.7351 -2.0338 0.9614
-7.1777 -6.4072 -2.0338 0.9614
-5.2052 -8.0918 -2.0338 0.9614
-8.1204 2.9913 -2.0339 0.9651
-8.5251 1.4868 -2.0338 0.9651
-7.7605 -3.8287 -2.0338 0.9651
-7.3843 -4.5118 -2.0338 0.9651
-6.9482 -5.1582 -2.0338 0.9651
-7.3710 2.7153 -2.0339 0.9681
-7.7384 1.3496 -2.0338 0.9681
-7.8549 -0.0598 -2.0338 0.9681
-7.8176 -0.7667 -2.0338 0.9681
-7.5533 -2.1560 -2.0338 0.9681
-7.3286 -2.8272 -2.0338 0.9681
-6.7029 -4.0954 -2.0338 0.9681
-5.3652 -5.7372 -2.0338 0.9681
-4.8269 -6.1968 -2.0338 0.9681
-4.2495 -6.6062 -2.0338 0.9681
-3.6376 -6.9619 -2.0338 0.9681
-6.7416 2.4834 -2.0339 0.9706
-6.9377 1.8665 -2.0339 0.9706
-7.1500 -0.7012 -2.0338 0.9706
-6.9084 -1.9719 -2.0338 0.9706
-6.7028 -2.5858 -2.0338 0.9706
-6.1305 -3.7457 -2.0338 0.9706
-5.7684 -4.2824 -2.0338 0.9706
-5.3595 -4.7842 -2.0338 0.9706
-4.9071 -5.2473 -2.0338 0.9706
-3.8866 -6.0421 -2.0338 0.9706
-6.5900 0.5451 -2.0338 0.9727
-6.4960 -1.2352 -2.0338 0.9727
-6.3584 -1.8149 -2.0338 0.9727
-6.1692 -2.3799 -2.0338 0.9727
-5.9299 -2.9256 -2.0338 0.9727
-5.6425 -3.4476 -2.0338 0.9727
-4.9329 -4.4034 -2.0338 0.9727
-4.5164 -4.8296 -2.0338 0.9727
-4.0634 -5.2165 -2.0338 0.9727
-3.5773 -5.5612 -2.0338 0.9727
-3.0621 -5.8606 -2.0338 0.9727
-6.0977 0.5044 -2.0339 0.9745
-6.1184 -0.0466 -2.0338 0.9745
-6.0108 -1.1429 -2.0338 0.9745
-5.2211 -3.1901 -2.0338 0.9745
-4.9127 -3.6471 -2.0338 0.9745
-4.5645 -4.0746 -2.0338 0.9745
-3.3101 -5.1458 -2.0338 0.9745
-5.6680 0.4688 -2.0339 0.9761
-5.6602 -0.5551 -2.0338 0.9761
-5.3061 -2.0470 -2.0338 0.9761
-4.2428 -3.7874 -2.0338 0.9761
-3.8846 -4.1539 -2.0338 0.9761
-3.0768 -4.7831 -2.0338 0.9761
-4.9802 1.8346 -2.0339 0.9775
-5.1251 1.3788 -2.0339 0.9775
-5.2284 0.9119 -2.0339 0.9775
-5.2893 0.4375 -2.0339 0.9775
-5.3071 -0.0404 -2.0339 0.9775
-5.2819 -0.5180 -2.0338 0.9775
-5.2139 -0.9914 -2.0338 0.9775
-4.7595 -2.3482 -2.0338 0.9775
-4.2613 -3.1635 -2.0338 0.9775
-3.9592 -3.5343 -2.0338 0.9775
-2.8712 -4.4635 -2.0338 0.9775
-4.6631 1.7178 -2.0339 0.9788
-2.1186 0.3695 -0.8802 0.9907
-2.1182 0.1752 -0.8699 0.9909
-2.1209 -0.4033 -0.8836 0.9907
-4.4565 -2.1987 -2.0338 0.9788
-3.9901 -2.9621 -2.0338 0.9788
-4.3791 1.6132 -2.0339 0.9798
-1.9675 0.5293 -0.8880 0.9911
-1.9141 0.1583 -0.8370 0.9917
-1.9183 -0.0146 -0.8361 0.9917
-1.9111 -0.1875 -0.8369 0.9917
-1.9050 -0.3623 -0.8451 0.9916
-4.3539 -1.6796 -2.0338 0.9798
-4.1851 -2.0648 -2.0338 0.9798
-3.9822 -2.4331 -2.0338 0.9798
-3.1875 -3.4085 -2.0338 0.9798
-2.8677 -3.6816 -2.0338 0.9798
-1.5622 0.4203 -0.7488 0.9929
-1.6044 -0.3051 -0.7560 0.9928
-4.0993 -1.5814 -2.0338 0.9808
-3.7494 -2.2909 -2.0338 0.9808
-3.2778 -2.9260 -2.0338 0.9808
-2.7001 -3.4663 -2.0338 0.9808
-2.0348 -3.8943 -2.0338 0.9808
-1.2614 0.4646 -0.6594 0.9940
-1.3420 0.2340 -0.6682 0.9939
-1.3370 -0.2543 -0.6676 0.9940
-1.2561 -0.4846 -0.6604 0.9940
-3.7183 -1.8345 -2.0338 0.9817
-3.5381 -2.1618 -2.0338 0.9817
-1.9201 -3.6749 -2.0338 0.9817
-1.1603 0.3121 -0.6233 0.9946
-1.1881 0.2072 -0.6257 0.9946
-1.2003 -0.1178 -0.6257 0.9946
-1.1835 -0.2251 -0.6250 0.9946
-1.1255 -0.4342 -0.6258 0.9946
-3.3454 -2.0440 -2.0338 0.9825
-2.4092 -3.0929 -2.0338 0.9825
-2.1210 -3.2972 -2.0338 0.9825
-1.0217 0.3763 -0.5964 0.9950
-1.0667 0.1860 -0.5931 0.9951
-1.0805 0.0893 -0.5938 0.9951
-1.0171 -0.3924 -0.5971 0.9950
-3.1687 -1.9361 -2.0339 0.9832
-2.7702 -2.4729 -2.0338 0.9832
-2.2820 -2.9296 -2.0338 0.9832
-1.7197 -3.2913 -2.0338 0.9832
-0.9449 0.3480 -0.5814 0.9954
-0.9794 0.1708 -0.5740 0.9954
-0.9891 0.0818 -0.5730 0.9954
-0.9881 -0.0969 -0.5732 0.9954
-0.9413 -0.3632 -0.5825 0.9954
-2.8285 -2.0998 -2.0339 0.9839
-2.4061 -2.5729 -2.0339 0.9839
-1.9058 -2.9627 -2.0339 0.9839
