ply
format ascii 1.0
element vertex 187
property float32 x
property float32 y
property float32 z
property float32 I
end_header
2.2916 17.5957 2.3107 0.9309
2.4285 18.6467 1.5918 0.9273
2.2820 17.5214 1.0957 0.9316
3.9952 17.8158 0.7199 0.9295
2.3351 17.9294 0.7129 0.9302
4.0464 18.0443 0.3124 0.9287
2.4409 18.7422 0.3193 0.9272
2.5046 19.2305 -0.1092 0.9254
14.9737 8.7806 -1.6665 0.9326
13.2445 9.4845 -1.9350 0.9365
12.9580 11.1953 -2.0341 0.9333
10.7153 13.3577 -2.0341 0.9333
8.1177 15.0780 -2.0341 0.9333
6.7125 15.7539 -2.0341 0.9333
-0.9016 17.1002 -2.0341 0.9333
-5.4831 16.2219 -2.0340 0.9333
12.3838 7.2619 -2.0341 0.9437
11.6719 8.3583 -2.0341 0.9437
10.8632 9.3854 -2.0341 0.9437
9.9645 10.3347 -2.0341 0.9437
5.6273 13.2071 -2.0341 0.9437
4.4026 13.6642 -2.0341 0.9437
1.8541 14.2357 -2.0341 0.9437
0.5514 14.3452 -2.0341 0.9437
-4.5967 13.5996 -2.0340 0.9437
-5.8147 13.1250 -2.0340 0.9437
10.0387 7.1887 -2.0341 0.9512
9.3431 8.0721 -2.0341 0.9512
5.8532 10.8717 -2.0341 0.9512
4.8400 11.3590 -2.0341 0.9512
-1.7195 7.1861 -1.2173 0.9705
-3.9536 11.6967 -2.0340 0.9512
-5.0011 11.2885 -2.0340 0.9512
9.3350 5.4741 -2.0340 0.9569
8.1887 7.0748 -2.0340 0.9569
5.1300 9.5285 -2.0341 0.9569
4.2420 9.9556 -2.0340 0.9569
0.4157 10.8136 -2.0340 0.9569
-1.7098 7.1456 -1.3810 0.9705
6.6790 6.9272 -2.0340 0.9614
2.9511 9.1590 -2.0340 0.9614
1.2427 9.5420 -2.0340 0.9614
0.3696 9.6154 -2.0340 0.9614
-0.4006 7.5989 -1.6085 0.9694
-1.7179 7.1795 -1.5604 0.9703
-2.4399 7.2183 -1.6106 0.9693
7.0364 5.0388 -2.0340 0.9651
6.5489 5.6580 -2.0340 0.9651
5.4154 6.7509 -2.0340 0.9651
4.1027 7.6203 -2.0340 0.9651
3.3924 7.9619 -2.0340 0.9651
1.8938 8.4448 -2.0340 0.9651
0.3324 8.6481 -2.0340 0.9651
-1.0565 7.2981 -1.7331 0.9702
-2.7712 8.1987 -2.0340 0.9651
6.3870 4.5738 -2.0340 0.9681
3.0793 7.2271 -2.0340 0.9681
2.4092 7.4773 -2.0340 0.9681
1.7189 7.6654 -2.0340 0.9681
1.0145 7.7899 -2.0340 0.9681
-3.1820 7.1823 -2.0340 0.9681
6.1979 3.6344 -2.0340 0.9706
5.8416 4.1832 -2.0340 0.9706
5.4368 4.6972 -2.0340 0.9706
4.9870 5.1723 -2.0340 0.9706
4.4958 5.6045 -2.0340 0.9706
3.4060 6.3263 -2.0340 0.9706
2.8164 6.6099 -2.0340 0.9706
1.5721 7.0108 -2.0340 0.9706
0.9279 7.1247 -2.0340 0.9706
0.2759 7.1796 -2.0340 0.9706
-1.0294 7.1107 -2.0340 0.9706
-2.3006 6.8064 -2.0340 0.9706
-2.9102 6.5689 -2.0339 0.9706
5.7045 3.3451 -2.0340 0.9727
5.3765 3.8501 -2.0340 0.9727
5.0040 4.3233 -2.0340 0.9727
3.6514 5.5134 -2.0340 0.9727
1.4470 6.4526 -2.0340 0.9727
0.8541 6.5575 -2.0340 0.9727
0.2540 6.6080 -2.0340 0.9727
-0.3482 6.6037 -2.0340 0.9727
-0.9474 6.5446 -2.0340 0.9727
-2.1175 6.2646 -2.0340 0.9727
5.2784 3.0952 -2.0340 0.9745
4.9750 3.5626 -2.0340 0.9745
4.6302 4.0003 -2.0340 0.9745
4.2471 4.4049 -2.0340 0.9745
3.3787 5.1015 -2.0340 0.9745
2.9006 5.3878 -2.0340 0.9745
2.3985 5.6293 -2.0340 0.9745
1.3389 5.9707 -2.0340 0.9745
0.7902 6.0677 -2.0340 0.9745
0.2350 6.1144 -2.0340 0.9745
-0.3221 6.1104 -2.0340 0.9745
4.6243 3.3115 -2.0340 0.9761
4.3039 3.7184 -2.0340 0.9761
3.9478 4.0945 -2.0340 0.9761
3.5590 4.4367 -2.0340 0.9761
2.6962 5.0081 -2.0340 0.9761
2.2295 5.2325 -2.0340 0.9761
1.7443 5.4136 -2.0340 0.9761
1.2446 5.5499 -2.0340 0.9761
0.7346 5.6401 -2.0340 0.9761
0.2185 5.6835 -2.0340 0.9761
-0.2995 5.6798 -2.0340 0.9761
-1.3236 5.5315 -2.0340 0.9761
4.5785 2.6848 -2.0340 0.9775
4.3153 3.0901 -2.0340 0.9775
2.5160 4.6734 -2.0340 0.9775
2.0805 4.8829 -2.0340 0.9775
1.6277 5.0519 -2.0340 0.9775
1.1614 5.1789 -2.0340 0.9775
0.2038 5.3036 -2.0340 0.9775
-0.7604 5.2528 -2.0340 0.9775
-1.2351 5.1618 -2.0339 0.9775
-1.6996 5.0280 -2.0339 0.9775
-2.1499 4.8526 -2.0339 0.9775
4.0405 2.8934 -2.0340 0.9787
3.7606 3.2490 -2.0340 0.9787
1.9480 4.5720 -2.0340 0.9787
1.0875 4.8492 -2.0340 0.9787
0.1909 4.9660 -2.0340 0.9787
-1.1564 4.8332 -2.0339 0.9788
-1.5913 4.7079 -2.0339 0.9788
-2.0130 4.5436 -2.0339 0.9788
3.2393 3.3597 -2.0340 0.9798
2.5770 3.8910 -2.0340 0.9798
2.2124 4.1093 -2.0340 0.9798
1.8294 4.2935 -2.0340 0.9798
1.4312 4.4421 -2.0340 0.9798
1.0212 4.5539 -2.0340 0.9798
0.6027 4.6279 -2.0340 0.9798
-0.2457 4.6605 -2.0340 0.9798
-1.0861 4.5388 -2.0339 0.9798
3.7904 2.2227 -2.0340 0.9808
3.3250 2.8727 -2.0340 0.9808
3.0499 3.1632 -2.0340 0.9808
2.4263 3.6635 -2.0340 0.9808
2.0830 3.8690 -2.0340 0.9808
1.7225 4.0424 -2.0340 0.9808
1.3476 4.1823 -2.0340 0.9808
0.9615 4.2876 -2.0340 0.9808
0.5675 4.3573 -2.0340 0.9808
-0.6295 4.3487 -2.0339 0.9808
-1.0225 4.2734 -2.0339 0.9808
-1.4070 4.1627 -2.0339 0.9808
-1.7798 4.0174 -2.0339 0.9808
3.5769 2.0975 -2.0340 0.9817
3.3712 2.4142 -2.0340 0.9817
2.5946 3.2345 -2.0340 0.9817
1.6254 3.8146 -2.0340 0.9817
0.9073 4.0460 -2.0340 0.9817
0.5355 4.1117 -2.0340 0.9817
0.1593 4.1434 -2.0339 0.9817
-0.9649 4.0326 -2.0339 0.9817
-1.3277 3.9281 -2.0339 0.9817
-1.6796 3.7911 -2.0339 0.9817
3.1876 2.2827 -2.0340 0.9825
2.9668 2.5632 -2.0340 0.9825
1.8586 3.4521 -2.0340 0.9825
1.5368 3.6069 -2.0340 0.9825
1.2024 3.7317 -2.0340 0.9825
0.8579 3.8256 -2.0340 0.9825
0.5064 3.8878 -2.0339 0.9825
0.1506 3.9177 -2.0339 0.9825
-0.2064 3.9152 -2.0339 0.9825
-1.5881 3.5845 -2.0339 0.9825
3.2034 1.8785 -2.0339 0.9832
3.0193 2.1621 -2.0340 0.9832
2.8101 2.4278 -2.0340 0.9832
2.3237 2.8968 -2.0340 0.9832
0.8126 3.6236 -2.0339 0.9832
0.4796 3.6825 -2.0339 0.9832
-0.8641 3.6116 -2.0339 0.9832
-1.1891 3.5180 -2.0339 0.9832
-1.5042 3.3953 -2.0339 0.9832
3.0389 1.7820 -2.0339 0.9839
2.6658 2.3031 -2.0339 0.9839
2.4452 2.5361 -2.0339 0.9839
2.2044 2.7480 -2.0340 0.9839
1.3809 3.2410 -2.0339 0.9839
0.7709 3.4375 -2.0339 0.9839
0.4550 3.4934 -2.0339 0.9839
-0.1854 3.5180 -2.0339 0.9839
-0.5047 3.4865 -2.0339 0.9839
-0.8198 3.4262 -2.0339 0.9839
