ply
format ascii 1.0
element vertex 204
property float32 x
property float32 y
property float32 z
property float32 I
end_header
2.3751 17.6773 1.9153 0.9308
2.4980 18.5916 1.5880 0.9275
-4.1848 19.1871 1.2178 0.9243
3.9957 17.8148 0.7199 0.9295
2.4757 18.4260 0.7331 0.9283
2.3892 17.7824 0.3031 0.9307
2.5755 19.1684 -0.1089 0.9256
13.7851 8.7674 -1.1979 0.9366
14.4495 9.1899 -2.0341 0.9333
13.5956 10.4117 -2.0341 0.9333
12.6387 11.5546 -2.0341 0.9333
11.5859 12.6100 -2.0341 0.9333
5.1867 16.3199 -2.0341 0.9333
3.7477 16.7091 -2.0341 0.9333
0.7958 17.1055 -2.0341 0.9333
-5.0901 16.3495 -2.0340 0.9333
13.2652 5.4887 -2.0341 0.9437
12.7377 6.6216 -2.0341 0.9437
12.1136 7.7043 -2.0341 0.9437
11.3977 8.7285 -2.0341 0.9437
10.5955 9.6867 -2.0341 0.9437
9.7130 10.5715 -2.0341 0.9437
8.7568 11.3761 -2.0341 0.9437
7.7342 12.0946 -2.0341 0.9437
6.6531 12.7214 -2.0341 0.9437
4.3482 13.6817 -2.0341 0.9437
3.1418 14.0080 -2.0341 0.9437
1.9117 14.2280 -2.0341 0.9437
-0.5825 14.3439 -2.0341 0.9437
-2.2736 7.3025 -1.0837 0.9696
10.4186 6.6262 -2.0341 0.9512
9.1128 8.3313 -2.0341 0.9512
6.6520 10.4022 -2.0341 0.9512
5.7221 10.9413 -2.0341 0.9512
3.7398 11.7672 -2.0341 0.9512
1.6442 12.2371 -2.0341 0.9512
0.5738 12.3337 -2.0340 0.9512
-0.5010 12.3368 -2.0340 0.9512
-2.2649 7.2750 -1.2552 0.9696
9.9994 4.1374 -2.0340 0.9569
9.6017 4.9914 -2.0340 0.9569
9.1313 5.8075 -2.0340 0.9569
7.9869 7.3019 -2.0341 0.9569
6.6009 8.5754 -2.0341 0.9569
5.8301 9.1169 -2.0341 0.9569
5.0151 9.5894 -2.0341 0.9569
4.1622 9.9892 -2.0340 0.9569
3.2777 10.3133 -2.0340 0.9569
1.4411 10.7252 -2.0340 0.9569
0.5029 10.8098 -2.0340 0.9569
-0.9329 7.2669 -1.3771 0.9706
-2.2267 7.1520 -1.4079 0.9700
8.8915 3.6790 -2.0340 0.9614
8.1196 5.1640 -2.0340 0.9614
7.6397 5.8506 -2.0340 0.9614
7.1020 6.4929 -2.0340 0.9614
5.8695 7.6252 -2.0340 0.9614
3.7010 8.8824 -2.0340 0.9614
2.1059 9.3893 -2.0340 0.9614
0.4471 9.6121 -2.0340 0.9614
-1.5831 7.2581 -1.5703 0.9701
-2.2326 7.1711 -1.5876 0.9698
7.9970 3.3089 -2.0340 0.9651
7.6789 3.9918 -2.0340 0.9651
7.3027 4.6445 -2.0340 0.9651
5.8554 6.3730 -2.0340 0.9651
5.2790 6.8581 -2.0340 0.9651
4.0108 7.6691 -2.0340 0.9651
1.8941 8.4447 -2.0340 0.9651
1.1525 8.5774 -2.0340 0.9651
0.4021 8.6451 -2.0340 0.9651
-0.3512 8.6473 -2.0340 0.9651
-0.9334 7.2712 -1.7229 0.9703
-2.2577 7.2516 -1.7850 0.9693
6.9702 3.6234 -2.0340 0.9681
6.2370 4.7764 -2.0340 0.9681
4.7918 6.2251 -2.0340 0.9681
4.2323 6.6183 -2.0340 0.9681
3.6406 6.9613 -2.0340 0.9681
3.0214 7.2515 -2.0340 0.9681
1.7192 7.6653 -2.0340 0.9681
0.3651 7.8472 -2.0340 0.9681
-0.3188 7.8492 -2.0340 0.9681
-0.9488 7.3913 -1.9294 0.9697
-1.6740 7.6752 -2.0340 0.9681
-2.3352 7.5005 -2.0340 0.9681
6.6390 2.7470 -2.0340 0.9706
6.3750 3.3140 -2.0340 0.9706
6.0626 3.8558 -2.0340 0.9706
5.7043 4.3684 -2.0340 0.9706
4.8611 5.2908 -2.0340 0.9706
3.8709 6.0531 -2.0340 0.9706
2.7634 6.6322 -2.0340 0.9706
2.1762 6.8474 -2.0340 0.9706
1.5724 7.0107 -2.0340 0.9706
-1.5311 7.0198 -2.0340 0.9706
5.8675 3.0501 -2.0340 0.9727
5.5800 3.5489 -2.0340 0.9727
4.4741 4.8696 -2.0340 0.9727
4.0337 5.2402 -2.0340 0.9727
3.0647 5.8599 -2.0340 0.9727
2.5434 6.1042 -2.0340 0.9727
2.0029 6.3023 -2.0340 0.9727
0.8806 6.5540 -2.0340 0.9727
-0.2684 6.6074 -2.0340 0.9727
-1.4092 6.4609 -2.0340 0.9727
5.6541 2.3395 -2.0340 0.9745
4.5161 4.1287 -2.0340 0.9745
4.1399 4.5059 -2.0340 0.9745
3.2966 5.1551 -2.0340 0.9745
2.8358 5.4222 -2.0340 0.9745
2.3534 5.6483 -2.0340 0.9745
0.8148 6.0645 -2.0340 0.9745
0.2843 6.1123 -2.0340 0.9745
-0.2483 6.1139 -2.0340 0.9745
-0.7791 6.0691 -2.0340 0.9745
-1.3039 5.9783 -2.0340 0.9745
-1.8189 5.8423 -2.0340 0.9745
5.2556 2.1746 -2.0340 0.9761
4.5157 3.4582 -2.0340 0.9761
4.1979 3.8378 -2.0340 0.9761
3.8482 4.1883 -2.0340 0.9761
3.4694 4.5071 -2.0340 0.9761
3.0642 4.7917 -2.0340 0.9761
2.6359 5.0401 -2.0340 0.9761
2.1876 5.2502 -2.0340 0.9761
0.2643 5.6816 -2.0340 0.9761
-0.2308 5.6830 -2.0340 0.9761
-0.7242 5.6414 -2.0340 0.9761
4.7093 2.4481 -2.0340 0.9775
3.5910 3.9084 -2.0340 0.9775
2.8595 4.4715 -2.0340 0.9775
2.4597 4.7032 -2.0340 0.9775
0.2467 5.3019 -2.0340 0.9775
-0.6758 5.2644 -2.0340 0.9775
-1.1310 5.1856 -2.0339 0.9775
-1.5777 5.0676 -2.0339 0.9775
4.5921 1.9000 -2.0340 0.9787
4.4095 2.2922 -2.0340 0.9787
4.1934 2.6670 -2.0340 0.9787
3.6679 3.3533 -2.0340 0.9787
3.3624 3.6596 -2.0340 0.9787
3.0313 3.9381 -2.0340 0.9787
1.5052 4.7362 -2.0340 0.9787
1.0877 4.8492 -2.0340 0.9787
0.6618 4.9254 -2.0340 0.9787
0.2309 4.9643 -2.0340 0.9787
-0.6327 4.9292 -2.0340 0.9788
4.3125 1.7843 -2.0340 0.9798
4.1409 2.1526 -2.0340 0.9798
3.9380 2.5046 -2.0340 0.9798
3.7054 2.8376 -2.0340 0.9798
3.4445 3.1491 -2.0340 0.9798
1.7950 4.3080 -2.0340 0.9798
0.6215 4.6254 -2.0340 0.9798
0.2169 4.6620 -2.0340 0.9798
-0.5942 4.6290 -2.0339 0.9798
4.0602 1.6800 -2.0340 0.9808
3.7078 2.3581 -2.0340 0.9808
3.2431 2.9649 -2.0340 0.9808
2.9729 3.2357 -2.0340 0.9808
2.6803 3.4820 -2.0340 0.9808
2.3673 3.7019 -2.0340 0.9808
2.0364 3.8937 -2.0340 0.9808
-0.9364 4.2931 -2.0339 0.9808
-1.3062 4.1954 -2.0339 0.9808
1.9216 3.6743 -2.0340 0.9817
1.5948 3.8276 -2.0340 0.9817
1.2559 3.9517 -2.0340 0.9817
0.5522 4.1096 -2.0340 0.9817
-1.2326 3.9590 -2.0339 0.9817
3.6228 1.4990 -2.0339 0.9825
3.4787 1.8084 -2.0340 0.9825
2.8936 2.6454 -2.0340 0.9825
2.6526 2.8871 -2.0340 0.9825
2.3915 3.1068 -2.0340 0.9825
1.5079 3.6190 -2.0340 0.9825
1.1875 3.7365 -2.0340 0.9825
0.8580 3.8256 -2.0340 0.9825
0.5221 3.8857 -2.0339 0.9825
0.1822 3.9164 -2.0339 0.9825
-0.8355 3.8305 -2.0339 0.9825
3.1336 1.9929 -2.0339 0.9832
2.7408 2.5057 -2.0340 0.9832
2.2652 2.9427 -2.0340 0.9832
2.0007 3.1286 -2.0340 0.9832
1.4283 3.4279 -2.0340 0.9832
0.4945 3.6805 -2.0339 0.9832
-0.1507 3.7105 -2.0339 0.9832
-0.4728 3.6833 -2.0339 0.9832
-0.7913 3.6282 -2.0339 0.9832
1.7596 0.7280 -1.0994 0.9912
3.1258 1.6249 -2.0339 0.9839
2.7970 2.1420 -2.0339 0.9839
2.6001 2.3771 -2.0339 0.9839
2.3835 2.5942 -2.0340 0.9839
2.1489 2.7916 -2.0340 0.9839
1.6326 3.1218 -2.0339 0.9839
1.3550 3.2519 -2.0339 0.9839
0.7710 3.4375 -2.0339 0.9839
0.4691 3.4915 -2.0339 0.9839
-0.1429 3.5200 -2.0339 0.9839
-0.4485 3.4942 -2.0339 0.9839
-0.7507 3.4420 -2.0339 0.9839
