ply
format ascii 1.0
element vertex 192
property float32 x
property float32 y
property float32 z
property float32 I
end_header
16.4670 -4.4361 -1.2504 0.9339
2.5270 -6.1199 -0.6357 0.9737
0.4311 -17.1154 -2.0337 0.9334
1.9205 -6.2086 -0.7720 0.9742
3.1328 -5.9709 -0.8010 0.9732
10.5843 -13.4586 -2.0338 0.9334
11.7712 -12.4340 -2.0339 0.9334
12.8594 -11.3052 -2.0339 0.9334
13.8398 -10.0816 -2.0339 0.9334
15.4452 -7.3916 -2.0340 0.9334
-0.9527 -14.3218 -2.0337 0.9437
2.9696 -14.0432 -2.0338 0.9437
3.1382 -5.9811 -0.9570 0.9731
7.8040 -12.0474 -2.0338 0.9437
8.8734 -11.2831 -2.0339 0.9437
9.8685 -10.4242 -2.0339 0.9437
10.7807 -9.4779 -2.0339 0.9437
12.3273 -7.3552 -2.0339 0.9437
12.9485 -6.1968 -2.0339 0.9437
13.8610 -3.7341 -2.0340 0.9437
-0.8194 -12.3181 -2.0338 0.9512
0.3108 -12.3415 -2.0338 0.9512
2.5541 -12.0784 -2.0338 0.9512
1.8649 -6.0290 -1.0396 0.9747
2.3958 -5.8020 -1.0341 0.9749
3.1185 -5.9436 -1.1057 0.9732
8.4877 -8.9657 -2.0339 0.9512
9.2723 -8.1517 -2.0339 0.9512
11.1368 -5.3297 -2.0339 0.9512
11.5777 -4.2887 -2.0340 0.9512
-1.7028 -10.6854 -2.0338 0.9569
1.8559 -5.9998 -1.1805 0.9748
2.3883 -5.7838 -1.1762 0.9749
3.0582 -5.8287 -1.2372 0.9736
7.4391 -7.8580 -2.0339 0.9569
8.1268 -7.1446 -2.0339 0.9569
8.7463 -6.3713 -2.0339 0.9569
10.1473 -3.7588 -2.0339 0.9569
10.4487 -2.8148 -2.0340 0.9569
0.2423 -9.6185 -2.0338 0.9614
1.8542 -5.9943 -1.3263 0.9747
2.4173 -5.8539 -1.3387 0.9744
2.9421 -5.6074 -1.3385 0.9744
5.9480 -7.5632 -2.0339 0.9614
6.6149 -6.9874 -2.0339 0.9614
7.7773 -5.6654 -2.0339 0.9614
8.6794 -4.1537 -2.0339 0.9614
9.0230 -3.3423 -2.0339 0.9614
9.2910 -2.5029 -2.0340 0.9614
1.0084 -8.5947 -2.0338 0.9651
2.3416 -5.6709 -1.4419 0.9751
2.9405 -5.6042 -1.4874 0.9743
4.7049 -7.2632 -2.0339 0.9651
5.3496 -6.8024 -2.0339 0.9651
7.8063 -3.7359 -2.0339 0.9651
8.1153 -3.0061 -2.0339 0.9651
8.3564 -2.2512 -2.0339 0.9651
-0.5214 -7.8377 -2.0338 0.9681
0.1978 -7.8526 -2.0338 0.9681
1.3026 -6.1600 -1.6302 0.9743
3.0339 -5.7823 -1.6907 0.9734
5.4004 -5.7046 -2.0339 0.9681
5.8996 -5.1866 -2.0339 0.9681
6.7459 -4.0250 -2.0339 0.9681
7.3664 -2.7287 -2.0339 0.9681
-1.1306 -7.0948 -2.0338 0.9706
-0.4769 -7.1684 -2.0338 0.9706
0.1809 -7.1820 -2.0338 0.9706
1.4863 -7.0289 -2.0338 0.9706
1.8223 -5.8912 -1.7457 0.9747
2.5293 -6.1253 -1.8760 0.9728
3.9060 -6.0299 -2.0339 0.9706
4.4412 -5.6474 -2.0339 0.9706
4.9393 -5.2174 -2.0339 0.9706
5.8072 -4.2303 -2.0339 0.9706
6.1698 -3.6813 -2.0339 0.9706
6.7373 -2.4956 -2.0339 0.9706
6.9374 -1.8689 -2.0339 0.9706
-1.0406 -6.5300 -2.0338 0.9727
-0.4389 -6.5978 -2.0338 0.9727
0.7705 -6.5674 -2.0338 0.9727
1.3680 -6.4694 -2.0338 0.9727
1.8643 -6.0270 -1.9404 0.9739
4.0877 -5.1978 -2.0339 0.9727
4.9663 -4.3661 -2.0339 0.9727
5.3448 -3.8935 -2.0339 0.9727
5.6787 -3.3883 -2.0339 0.9727
5.9648 -2.8546 -2.0339 0.9727
6.2010 -2.2970 -2.0339 0.9727
-0.4062 -6.1051 -2.0338 0.9745
0.1540 -6.1166 -2.0338 0.9745
1.8081 -5.8453 -2.0339 0.9745
2.3353 -5.6554 -2.0339 0.9745
2.8429 -5.4181 -2.0339 0.9745
3.3265 -5.1354 -2.0339 0.9745
4.2065 -4.4434 -2.0339 0.9745
4.5954 -4.0400 -2.0339 0.9745
4.9456 -3.6027 -2.0339 0.9745
5.2545 -3.1352 -2.0339 0.9745
5.9082 -1.5917 -2.0339 0.9745
-0.8950 -5.6165 -2.0338 0.9761
-0.3775 -5.6748 -2.0338 0.9761
1.1766 -5.5644 -2.0338 0.9761
1.6807 -5.4334 -2.0339 0.9761
2.1707 -5.2569 -2.0339 0.9761
3.0921 -4.7735 -2.0339 0.9761
3.9101 -4.1302 -2.0339 0.9761
4.2715 -3.7553 -2.0339 0.9761
4.5971 -3.3488 -2.0339 0.9761
4.8843 -2.9142 -2.0339 0.9761
5.1304 -2.4552 -2.0339 0.9761
5.3335 -1.9756 -2.0339 0.9761
-0.8352 -5.2412 -2.0338 0.9775
-0.3523 -5.2955 -2.0338 0.9775
0.6184 -5.2712 -2.0338 0.9775
1.5684 -5.0703 -2.0339 0.9775
2.0257 -4.9056 -2.0339 0.9775
3.9860 -3.5043 -2.0339 0.9775
4.2899 -3.1250 -2.0339 0.9775
4.5579 -2.7195 -2.0339 0.9775
4.7875 -2.2912 -2.0339 0.9775
4.9770 -1.8436 -2.0339 0.9775
-0.7820 -4.9075 -2.0338 0.9788
-0.3298 -4.9584 -2.0338 0.9788
0.1251 -4.9678 -2.0338 0.9788
0.5790 -4.9356 -2.0339 0.9788
1.0281 -4.8619 -2.0339 0.9788
1.8967 -4.5933 -2.0339 0.9788
2.3089 -4.4005 -2.0339 0.9788
2.7018 -4.1709 -2.0339 0.9788
3.0720 -3.9062 -2.0339 0.9788
3.4164 -3.6088 -2.0339 0.9788
3.7323 -3.2812 -2.0339 0.9788
4.0168 -2.9261 -2.0339 0.9788
4.2676 -2.5463 -2.0339 0.9788
-0.7344 -4.6086 -2.0338 0.9798
-0.3098 -4.6565 -2.0338 0.9798
0.5437 -4.6350 -2.0339 0.9798
0.9655 -4.5658 -2.0339 0.9798
1.7812 -4.3135 -2.0339 0.9798
2.1682 -4.1325 -2.0339 0.9798
4.0077 -2.3913 -2.0339 0.9798
4.2097 -2.0146 -2.0339 0.9798
4.3764 -1.6211 -2.0339 0.9798
4.5063 -1.2140 -2.0339 0.9798
0.5120 -4.3639 -2.0339 0.9808
0.9090 -4.2989 -2.0339 0.9808
1.2985 -4.1976 -2.0339 0.9808
1.6770 -4.0613 -2.0339 0.9808
2.0415 -3.8908 -2.0339 0.9808
2.3888 -3.6878 -2.0339 0.9808
2.7162 -3.4538 -2.0339 0.9808
3.0207 -3.1909 -2.0339 0.9808
3.5516 -2.5871 -2.0339 0.9808
4.1204 -1.5263 -2.0339 0.9808
4.2428 -1.1430 -2.0339 0.9808
-0.6525 -4.0946 -2.0338 0.9817
-0.2752 -4.1371 -2.0339 0.9817
0.1044 -4.1450 -2.0339 0.9817
2.5632 -3.2592 -2.0339 0.9817
2.8505 -3.0111 -2.0339 0.9817
3.3515 -2.4414 -2.0339 0.9817
3.5607 -2.1246 -2.0339 0.9817
3.7402 -1.7899 -2.0339 0.9817
-0.2602 -3.9118 -2.0339 0.9825
0.0987 -3.9192 -2.0339 0.9825
1.1586 -3.7454 -2.0339 0.9825
1.4963 -3.6237 -2.0339 0.9825
2.1315 -3.2905 -2.0339 0.9825
2.4236 -3.0817 -2.0339 0.9825
3.1689 -2.3084 -2.0339 0.9825
3.3668 -2.0089 -2.0339 0.9825
3.5365 -1.6925 -2.0339 0.9825
3.6765 -1.3618 -2.0339 0.9825
3.7857 -1.0198 -2.0339 0.9825
0.4327 -3.6882 -2.0339 0.9832
0.7682 -3.6331 -2.0339 0.9832
1.4173 -3.4324 -2.0339 0.9832
1.7254 -3.2883 -2.0339 0.9832
2.0189 -3.1167 -2.0339 0.9832
2.5530 -2.6967 -2.0339 0.9832
2.7890 -2.4519 -2.0339 0.9832
3.0016 -2.1865 -2.0339 0.9832
3.4823 -1.2899 -2.0339 0.9832
1.8621 -0.5017 -1.0562 0.9912
0.0887 -3.5217 -2.0339 0.9839
0.4105 -3.4988 -2.0339 0.9839
0.7288 -3.4466 -2.0339 0.9839
1.0410 -3.3654 -2.0339 0.9839
2.6458 -2.3260 -2.0339 0.9839
3.0253 -1.8050 -2.0339 0.9839
1.7202 -0.6372 -1.0591 0.9916
