ply
format ascii 1.0
element vertex 209
property float32 x
property float32 y
property float32 z
property float32 I
end_header
-13.0359 12.0254 2.3095 0.9310
-12.9277 11.9256 1.8887 0.9317
-16.7285 5.2466 -0.8891 0.9322
-16.3520 5.1285 -1.2566 0.9336
-12.1483 -7.9324 -1.0638 0.9435
-11.8514 -7.7385 -1.3589 0.9447
-9.1098 14.4987 -2.0340 0.9334
-14.4279 9.2199 -2.0339 0.9334
-15.8221 6.5436 -2.0338 0.9334
-16.3370 5.1238 -2.0338 0.9334
-16.9599 -2.3428 -2.0337 0.9334
-16.6874 -3.8282 -2.0337 0.9334
-15.7560 -6.6983 -2.0337 0.9334
-11.8530 -7.7396 -1.6815 0.9446
-13.4545 -10.5871 -2.0337 0.9334
-8.6785 11.4346 -2.0340 0.9437
-10.5510 9.7332 -2.0339 0.9437
-12.7297 6.6335 -2.0339 0.9437
-13.6964 4.2956 -2.0338 0.9437
-14.0214 3.0719 -2.0338 0.9437
-14.2375 1.8243 -2.0338 0.9437
-14.3428 0.5626 -2.0338 0.9437
-13.6528 -4.4298 -2.0337 0.9437
-8.3018 9.1385 -2.0339 0.9512
-9.0748 8.3713 -2.0339 0.9512
-9.7771 7.5390 -2.0339 0.9512
-10.4033 6.6481 -2.0339 0.9512
-10.9486 5.7054 -2.0339 0.9512
-11.7800 3.6946 -2.0338 0.9512
-12.0597 2.6421 -2.0338 0.9512
-12.3361 0.4839 -2.0338 0.9512
-12.2293 -1.6893 -2.0338 0.9512
-11.7427 -3.8101 -2.0338 0.9512
-11.3612 -4.8300 -2.0337 0.9512
-10.8913 -5.8123 -2.0337 0.9512
-10.3367 -6.7495 -2.0337 0.9512
-9.7017 -7.6341 -2.0337 0.9512
-5.7571 9.1626 -2.0340 0.9569
-6.5421 8.6196 -2.0339 0.9569
-7.2761 8.0095 -2.0339 0.9569
-7.9536 7.3371 -2.0339 0.9569
-8.5692 6.6076 -2.0339 0.9569
-9.1180 5.8268 -2.0339 0.9569
-9.5960 5.0005 -2.0339 0.9569
-10.3247 3.2382 -2.0338 0.9569
-10.8121 0.4241 -2.0338 0.9569
-10.8073 -0.5304 -2.0338 0.9569
-10.7185 -1.4806 -2.0338 0.9569
-9.0598 -5.9157 -2.0338 0.9569
-5.1193 8.1474 -2.0339 0.9614
-5.8173 7.6646 -2.0339 0.9614
-7.0724 6.5242 -2.0339 0.9614
-7.6198 5.8755 -2.0339 0.9614
-9.1809 2.8794 -2.0339 0.9614
-9.6142 0.3771 -2.0338 0.9614
-9.3779 -2.1514 -2.0338 0.9614
-8.8545 -3.7643 -2.0338 0.9614
-8.0561 -5.2603 -2.0338 0.9614
-5.2320 6.8935 -2.0339 0.9651
-5.8191 6.4056 -2.0339 0.9651
-6.3609 5.8679 -2.0339 0.9651
-6.8532 5.2845 -2.0339 0.9651
-7.2922 4.6599 -2.0339 0.9651
-8.6471 0.3392 -2.0338 0.9651
-8.5723 -1.1842 -2.0338 0.9651
-8.4345 -1.9350 -2.0338 0.9651
-8.2311 -2.6707 -2.0338 0.9651
-7.9638 -3.3856 -2.0338 0.9651
-7.6345 -4.0743 -2.0338 0.9651
-7.2457 -4.7312 -2.0338 0.9651
-4.1793 6.6515 -2.0339 0.9681
-4.7492 6.2573 -2.0339 0.9681
-5.2821 5.8144 -2.0339 0.9681
-6.2208 4.7968 -2.0339 0.9681
-6.9662 3.6301 -2.0339 0.9681
-7.6732 1.6811 -2.0339 0.9681
-7.7914 0.9983 -2.0338 0.9681
-7.8491 0.3079 -2.0338 0.9681
-7.2289 -3.0732 -2.0338 0.9681
-6.9300 -3.6983 -2.0338 0.9681
-6.5771 -4.2946 -2.0338 0.9681
-6.1730 -4.8574 -2.0338 0.9681
-5.2808 4.8715 -2.0339 0.9706
-5.6895 4.3871 -2.0339 0.9706
-6.0539 3.8687 -2.0339 0.9706
-6.3713 3.3201 -2.0339 0.9706
-6.8552 2.1500 -2.0339 0.9706
-7.0180 1.5375 -2.0339 0.9706
-7.1261 0.9131 -2.0338 0.9706
-7.1757 -0.3521 -2.0338 0.9706
-7.1168 -0.9831 -2.0338 0.9706
-7.0023 -1.6064 -2.0338 0.9706
-6.6116 -2.8108 -2.0338 0.9706
-6.0154 -3.9279 -2.0338 0.9706
-5.6459 -4.4426 -2.0338 0.9706
-3.5181 5.5992 -2.0339 0.9727
-5.5720 3.5607 -2.0339 0.9727
-5.8641 3.0558 -2.0339 0.9727
-6.3095 1.9788 -2.0339 0.9727
-6.5588 0.8404 -2.0339 0.9727
-6.6073 0.2592 -2.0338 0.9727
-6.6045 -0.3241 -2.0338 0.9727
-6.5502 -0.9049 -2.0338 0.9727
-6.2896 -2.0407 -2.0338 0.9727
-5.1965 -4.0890 -2.0338 0.9727
-4.8455 3.7363 -2.0339 0.9745
-5.6542 2.3384 -2.0339 0.9745
-5.9768 1.3095 -2.0339 0.9745
-6.0690 0.7776 -2.0339 0.9745
-5.9636 -1.3681 -2.0338 0.9745
-5.6307 -2.3938 -2.0338 0.9745
-5.3979 -2.8807 -2.0338 0.9745
-3.0259 4.8159 -2.0339 0.9761
-3.4385 4.5305 -2.0339 0.9761
-3.8244 4.2098 -2.0339 0.9761
-4.1805 3.8564 -2.0339 0.9761
-4.7925 3.0626 -2.0339 0.9761
-5.0437 2.6283 -2.0339 0.9761
-5.2557 2.1736 -2.0339 0.9761
-5.4268 1.7020 -2.0339 0.9761
-5.6830 0.2229 -2.0339 0.9761
-5.6805 -0.2788 -2.0338 0.9761
-5.6339 -0.7783 -2.0338 0.9761
-5.2339 -2.2251 -2.0338 0.9761
-5.0175 -2.6777 -2.0338 0.9761
-4.4695 -3.5170 -2.0338 0.9761
-2.8237 4.4940 -2.0339 0.9775
-3.2087 4.2277 -2.0339 0.9775
-3.5688 3.9285 -2.0339 0.9775
-3.9011 3.5987 -2.0339 0.9775
-4.2030 3.2409 -2.0339 0.9775
-4.9045 2.0284 -2.0339 0.9775
-5.1844 1.1358 -2.0339 0.9775
-4.8842 -2.0764 -2.0338 0.9775
-4.4437 -2.9016 -2.0338 0.9775
-4.1709 -3.2819 -2.0338 0.9775
-3.0044 3.9585 -2.0339 0.9788
-3.3416 3.6784 -2.0339 0.9788
-3.6527 3.3696 -2.0339 0.9788
-4.1875 2.6760 -2.0339 0.9788
-4.5922 1.8992 -2.0339 0.9788
-2.1207 0.4646 -0.8885 0.9907
-2.1227 0.0832 -0.8694 0.9909
-4.3841 -2.3397 -2.0338 0.9788
-3.9053 -3.0730 -2.0338 0.9788
-2.4829 3.9517 -2.0339 0.9798
-2.8214 3.7175 -2.0339 0.9798
-3.4302 3.1644 -2.0339 0.9798
-4.3125 1.7835 -2.0339 0.9798
-1.9034 0.2439 -0.8363 0.9917
-1.9186 0.0752 -0.8368 0.9917
-1.9181 -0.0942 -0.8369 0.9917
-3.6675 -2.8858 -2.0338 0.9798
-2.3377 3.7205 -2.0339 0.9808
-2.6564 3.5001 -2.0339 0.9808
-2.9546 3.2523 -2.0339 0.9808
-3.2296 2.9793 -2.0339 0.9808
-4.0604 1.6792 -2.0339 0.9808
-1.5923 0.3488 -0.7546 0.9928
-1.6102 0.2063 -0.7515 0.9929
-1.5921 -0.0782 -0.7378 0.9930
-1.6106 -0.2225 -0.7526 0.9929
-4.0436 -1.7190 -2.0338 0.9808
-3.4530 -2.7171 -2.0338 0.9808
-2.2060 3.5109 -2.0339 0.9817
-3.2836 2.5319 -2.0339 0.9817
-3.4939 2.2327 -2.0339 0.9817
-1.3284 0.2910 -0.6671 0.9940
-1.3516 0.1732 -0.6684 0.9939
-1.3490 -0.0662 -0.6625 0.9940
-1.3502 -0.1865 -0.6686 0.9939
-3.6580 -1.9522 -2.0338 0.9817
-3.4717 -2.2669 -2.0338 0.9817
-3.2584 -2.5640 -2.0338 0.9817
-2.3702 3.1229 -2.0339 0.9825
-2.8817 2.6583 -2.0339 0.9825
-3.4768 1.8118 -2.0339 0.9825
-1.1167 0.4618 -0.6269 0.9946
-1.1745 0.2573 -0.6238 0.9946
-1.1984 0.1535 -0.6268 0.9946
-1.1966 -0.1653 -0.6267 0.9946
-1.1720 -0.2689 -0.6238 0.9946
-1.1128 -0.4731 -0.6273 0.9946
-3.2826 -2.1434 -2.0338 0.9825
-3.0810 -2.4244 -2.0338 0.9825
-1.9757 3.1444 -2.0339 0.9832
-2.9407 2.2676 -2.0339 0.9832
-3.1291 1.9996 -2.0339 0.9832
-1.0091 0.4173 -0.5981 0.9950
-1.0542 0.2309 -0.5911 0.9951
-1.0813 -0.0531 -0.5929 0.9951
-1.0741 -0.1484 -0.5939 0.9951
-1.0314 -0.3347 -0.5939 0.9951
-3.2761 -1.7483 -2.0339 0.9832
-2.9182 -2.2963 -2.0338 0.9832
-1.8742 2.9829 -2.0339 0.9839
-2.1298 2.8061 -2.0339 0.9839
-2.3687 2.6075 -2.0339 0.9839
-2.5893 2.3886 -2.0339 0.9839
-0.9350 0.3867 -0.5842 0.9953
-0.9711 0.2127 -0.5740 0.9954
-0.9900 0.0388 -0.5720 0.9954
-0.9844 -0.1360 -0.5737 0.9954
-0.9688 -0.2223 -0.5739 0.9954
-0.9527 -0.3091 -0.5783 0.9954
-0.9321 -0.3963 -0.5848 0.9953
-0.9034 -0.4821 -0.5912 0.9953
-2.9496 -1.9260 -2.0339 0.9839
-2.7684 -2.1784 -2.0339 0.9839
