ply
format ascii 1.0
element vertex 187
property float32 x
property float32 y
property float32 z
property float32 I
end_header
16.8164 -3.6542 -0.8727 0.9334
16.3930 -3.5621 -1.2300 0.9349
13.7184 8.8201 -1.1958 0.9367
16.3329 -3.5491 -1.6046 0.9350
16.7328 -3.6360 -2.0340 0.9334
16.9862 -2.1639 -2.0340 0.9333
17.1103 -0.6753 -2.0340 0.9333
16.9679 2.3061 -2.0341 0.9333
16.3099 5.2174 -2.0341 0.9333
15.1563 7.9703 -2.0341 0.9333
14.4041 9.2609 -2.0341 0.9333
13.5422 10.4810 -2.0341 0.9333
11.5166 12.6733 -2.0341 0.9333
10.3683 13.6288 -2.0341 0.9333
9.1411 14.4806 -2.0341 0.9333
7.8443 15.2221 -2.0341 0.9333
13.7087 -4.2591 -2.0340 0.9437
14.0279 -3.0482 -2.0340 0.9437
14.3392 0.6862 -2.0340 0.9437
12.7062 6.6818 -2.0341 0.9437
11.3530 8.7867 -2.0341 0.9437
8.6921 11.4255 -2.0341 0.9437
6.5762 12.7613 -2.0341 0.9437
11.7906 -3.6632 -2.0340 0.9512
12.0651 -2.6217 -2.0340 0.9512
12.3372 -0.4869 -2.0340 0.9512
12.3328 0.5902 -2.0340 0.9512
11.7600 3.7619 -2.0340 0.9512
11.3874 4.7725 -2.0341 0.9512
10.9282 5.7468 -2.0341 0.9512
9.7643 7.5572 -2.0341 0.9512
9.0686 8.3794 -2.0341 0.9512
10.3339 -3.2106 -2.0340 0.9569
10.7229 1.4573 -2.0340 0.9569
10.5551 2.3863 -2.0340 0.9569
10.3071 3.2971 -2.0340 0.9569
9.5780 5.0368 -2.0340 0.9569
8.5579 6.6234 -2.0340 0.9569
6.5521 8.6126 -2.0341 0.9569
5.7766 9.1509 -2.0341 0.9569
9.4029 -2.0432 -2.0340 0.9614
9.6114 0.4599 -2.0340 0.9614
9.5348 1.2959 -2.0340 0.9614
9.3856 2.1219 -2.0340 0.9614
7.0675 6.5304 -2.0340 0.9614
6.4715 7.1214 -2.0340 0.9614
5.1366 8.1370 -2.0340 0.9614
4.4079 8.5537 -2.0340 0.9614
8.5849 -1.0936 -2.0340 0.9651
8.2430 2.6369 -2.0340 0.9651
6.3564 5.8734 -2.0340 0.9651
5.8204 6.4050 -2.0340 0.9651
5.2401 6.8879 -2.0340 0.9651
4.6198 7.3184 -2.0340 0.9651
7.5018 -2.3307 -2.0339 0.9681
7.6764 -1.6681 -2.0339 0.9681
7.8496 -0.3098 -2.0340 0.9681
7.8467 0.3755 -2.0340 0.9681
7.7841 1.0579 -2.0340 0.9681
7.6623 1.7323 -2.0340 0.9681
7.4822 2.3935 -2.0340 0.9681
6.6079 4.2484 -2.0340 0.9681
5.2832 5.8139 -2.0340 0.9681
4.1934 6.6429 -2.0340 0.9681
3.5986 6.9831 -2.0340 0.9681
6.8612 -2.1317 -2.0339 0.9706
7.1272 -0.9079 -2.0340 0.9706
7.1766 0.3434 -2.0340 0.9706
7.1194 0.9676 -2.0340 0.9706
7.0080 1.5844 -2.0340 0.9706
6.6264 2.7772 -2.0340 0.9706
6.3592 3.3441 -2.0340 0.9706
6.0436 3.8856 -2.0340 0.9706
5.6820 4.3975 -2.0340 0.9706
4.8321 5.3174 -2.0340 0.9706
4.3502 5.7182 -2.0340 0.9706
3.2912 6.3868 -2.0340 0.9706
6.6077 -0.2608 -2.0340 0.9727
6.4501 1.4582 -2.0340 0.9727
6.2985 2.0148 -2.0340 0.9727
5.5625 3.5763 -2.0340 0.9727
4.4474 4.8940 -2.0340 0.9727
3.5300 5.5920 -2.0340 0.9727
6.0698 -0.7732 -2.0339 0.9745
6.1141 -0.2413 -2.0340 0.9745
6.1119 0.2925 -2.0340 0.9745
6.0632 0.8240 -2.0340 0.9745
5.9683 1.3493 -2.0340 0.9745
5.8280 1.8644 -2.0340 0.9745
5.4157 2.8480 -2.0340 0.9745
4.4942 4.1526 -2.0340 0.9745
3.7048 4.8699 -2.0340 0.9745
3.2664 5.1743 -2.0340 0.9745
5.5580 -1.2077 -2.0339 0.9761
5.6421 -0.7188 -2.0339 0.9761
5.6812 0.2719 -2.0340 0.9761
5.5477 1.2542 -2.0340 0.9761
5.4173 1.7329 -2.0340 0.9761
5.2457 2.1985 -2.0340 0.9761
5.0341 2.6473 -2.0340 0.9761
4.7843 3.0760 -2.0340 0.9761
4.1775 3.8599 -2.0340 0.9761
3.0361 4.8096 -2.0340 0.9761
5.0686 -1.5747 -2.0339 0.9775
5.1865 -1.1270 -2.0339 0.9775
5.2650 -0.6707 -2.0339 0.9775
5.3034 -0.2093 -2.0339 0.9775
5.3015 0.2537 -2.0339 0.9775
5.2593 0.7148 -2.0340 0.9775
5.1770 1.1704 -2.0340 0.9775
5.0553 1.6171 -2.0340 0.9775
4.6976 2.4703 -2.0340 0.9775
3.2136 4.2242 -2.0340 0.9775
2.4313 4.7180 -2.0340 0.9775
4.7458 -1.4745 -2.0339 0.9788
4.8563 -1.0553 -2.0339 0.9788
4.9298 -0.6280 -2.0339 0.9788
4.9640 0.2375 -2.0339 0.9787
4.8473 1.0959 -2.0340 0.9787
4.5834 1.9209 -2.0340 0.9787
4.3986 2.3131 -2.0340 0.9787
4.1802 2.6876 -2.0340 0.9787
3.9301 3.0417 -2.0340 0.9787
3.6501 3.3727 -2.0340 0.9787
2.6528 4.2024 -2.0340 0.9787
4.4568 -1.3847 -2.0339 0.9798
4.5521 1.0291 -2.0340 0.9798
4.4451 1.4219 -2.0340 0.9798
4.3043 1.8039 -2.0340 0.9798
4.1307 2.1722 -2.0340 0.9798
3.9257 2.5239 -2.0340 0.9798
3.1387 3.4539 -2.0340 0.9798
2.4913 3.9465 -2.0340 0.9798
2.1378 4.1486 -2.0340 0.9798
4.1962 -1.3037 -2.0339 0.9808
4.3588 -0.5553 -2.0339 0.9808
4.3891 0.2100 -2.0339 0.9808
4.1852 1.3388 -2.0340 0.9808
3.6961 2.3763 -2.0340 0.9808
2.0129 3.9060 -2.0340 0.9808
4.0519 -0.8805 -2.0339 0.9817
4.1432 -0.1635 -2.0339 0.9817
4.1417 0.1982 -2.0339 0.9817
4.0444 0.9144 -2.0339 0.9817
3.8242 1.6028 -2.0340 0.9817
3.6700 1.9299 -2.0340 0.9817
3.2791 2.5379 -2.0340 0.9817
3.0455 2.8140 -2.0340 0.9817
2.7886 3.0687 -2.0340 0.9817
2.5106 3.3001 -2.0340 0.9817
2.2134 3.5063 -2.0340 0.9817
1.8994 3.6859 -2.0340 0.9817
3.7440 -1.1633 -2.0339 0.9825
2.0891 -0.2662 -1.0925 0.9906
2.0773 -0.0820 -1.0785 0.9907
2.0780 0.0994 -1.0792 0.9907
2.0925 0.2844 -1.0955 0.9905
2.1280 0.4811 -1.1318 0.9902
3.7343 1.1946 -2.0339 0.9825
3.6159 1.5155 -2.0339 0.9825
3.2979 2.1203 -2.0340 0.9825
3.1005 2.3996 -2.0340 0.9825
2.8796 2.6607 -2.0340 0.9825
2.6368 2.9016 -2.0340 0.9825
2.3739 3.1203 -2.0340 0.9825
1.7960 3.4851 -2.0340 0.9825
1.8800 -0.5841 -1.0782 0.9911
1.8446 -0.2350 -1.0184 0.9916
1.8528 0.0886 -1.0159 0.9916
1.8859 0.6033 -1.0845 0.9910
3.4250 1.4354 -2.0339 0.9832
3.2868 1.7285 -2.0339 0.9832
3.1237 2.0083 -2.0339 0.9832
2.9368 2.2729 -2.0340 0.9832
2.7275 2.5202 -2.0340 0.9832
2.4975 2.7483 -2.0340 0.9832
2.2485 2.9555 -2.0340 0.9832
1.7196 -0.5343 -1.0396 0.9917
1.7157 -0.2186 -0.9985 0.9920
1.7239 -0.0681 -0.9961 0.9921
1.7140 0.2329 -0.9987 0.9920
1.7149 0.3877 -1.0151 0.9919
1.7627 0.7387 -1.1035 0.9912
3.1180 1.6397 -2.0339 0.9839
2.7860 2.1562 -2.0339 0.9839
2.3693 2.6072 -2.0340 0.9839
1.6138 3.1315 -2.0339 0.9839
