ply
format ascii 1.0
element vertex 162
property float32 x
property float32 y
property float32 z
property float32 I
end_header
2.7698 -6.1139 -0.6444 0.9734
-3.5955 -16.7388 -2.0337 0.9334
-0.5068 -17.1133 -2.0337 0.9334
2.5989 -16.9226 -2.0337 0.9334
4.1260 -16.6165 -2.0338 0.9334
2.2750 -6.5483 -0.8234 0.9725
2.7193 -6.0025 -0.7828 0.9738
8.4534 -14.8893 -2.0338 0.9334
16.2186 -5.4915 -2.0340 0.9334
-1.7267 -14.2492 -2.0337 0.9437
1.6458 -6.6282 -0.9677 0.9728
2.1521 -6.1944 -0.9291 0.9739
2.6676 -5.8885 -0.9160 0.9742
7.0870 -12.4826 -2.0338 0.9437
9.2293 -10.9940 -2.0339 0.9437
10.1902 -10.1100 -2.0339 0.9437
11.8519 -8.0989 -2.0339 0.9437
12.5389 -6.9885 -2.0339 0.9437
13.1222 -5.8202 -2.0339 0.9437
13.5969 -4.6037 -2.0340 0.9437
-2.5927 -12.0700 -2.0337 0.9512
1.5791 -6.3597 -1.0795 0.9738
2.0980 -6.0387 -1.0531 0.9744
10.1936 -6.9657 -2.0339 0.9512
10.7845 -6.0107 -2.0339 0.9512
-2.2723 -10.5789 -2.0338 0.9569
-1.3017 -10.7416 -2.0338 0.9569
-0.3202 -10.8155 -2.0338 0.9569
0.6639 -10.7999 -2.0338 0.9569
1.6426 -10.6949 -2.0338 0.9569
2.0701 -5.9585 -1.1856 0.9747
6.1754 -8.8854 -2.0339 0.9569
6.9573 -8.2876 -2.0339 0.9569
8.9342 -6.1051 -2.0339 0.9569
-2.0206 -9.4069 -2.0338 0.9614
-0.2847 -9.6173 -2.0338 0.9614
0.5904 -9.6034 -2.0338 0.9614
1.4606 -9.5101 -2.0338 0.9614
1.5426 -6.2124 -1.3531 0.9742
2.0329 -5.8513 -1.3094 0.9750
6.1865 -7.3694 -2.0339 0.9614
6.8305 -6.7768 -2.0339 0.9614
7.4182 -6.1281 -2.0339 0.9614
8.7958 -3.9013 -2.0339 0.9614
9.1139 -3.0859 -2.0339 0.9614
-1.8173 -8.4606 -2.0338 0.9651
-1.0410 -8.5908 -2.0338 0.9651
-0.2561 -8.6498 -2.0338 0.9651
0.5309 -8.6374 -2.0338 0.9651
1.3136 -8.5534 -2.0338 0.9651
1.9906 -5.7299 -1.4256 0.9754
2.6379 -5.8228 -1.5024 0.9741
6.1434 -6.0951 -2.0339 0.9651
7.5593 -4.2131 -2.0339 0.9651
8.1971 -2.7754 -2.0339 0.9651
-0.2325 -7.8516 -2.0338 0.9681
0.4820 -7.8403 -2.0338 0.9681
1.1924 -7.7641 -2.0338 0.9681
2.0257 -5.8307 -1.5982 0.9748
2.6392 -5.8256 -1.6559 0.9739
4.4830 -6.4504 -2.0339 0.9681
5.5765 -5.5326 -2.0339 0.9681
7.4406 -2.5193 -2.0339 0.9681
-1.5087 -7.0240 -2.0338 0.9706
2.0424 -5.8786 -1.7618 0.9745
3.5471 -6.2477 -2.0339 0.9706
4.1002 -5.8996 -2.0339 0.9706
4.6194 -5.5026 -2.0339 0.9706
5.9319 -4.0535 -2.0339 0.9706
6.5676 -2.9130 -2.0339 0.9706
-1.3887 -6.4649 -2.0338 0.9727
-0.7955 -6.5644 -2.0338 0.9727
0.4057 -6.6000 -2.0338 0.9727
1.0037 -6.5358 -2.0338 0.9727
1.5488 -6.2377 -1.9768 0.9735
2.0706 -5.9599 -1.9406 0.9739
2.7287 -6.0232 -2.0339 0.9727
4.6943 -4.6573 -2.0339 0.9727
5.0980 -4.2115 -2.0339 0.9727
5.7761 -3.2193 -2.0339 0.9727
-0.7361 -6.0741 -2.0338 0.9745
0.3754 -6.1071 -2.0338 0.9745
1.4745 -5.9382 -2.0338 0.9745
3.0209 -5.3209 -2.0339 0.9745
3.4920 -5.0244 -2.0339 0.9745
5.0519 -3.4522 -2.0339 0.9745
5.3447 -2.9788 -2.0339 0.9745
5.5933 -2.4809 -2.0339 0.9745
5.7956 -1.9623 -2.0339 0.9745
-0.6842 -5.6461 -2.0338 0.9761
-0.1683 -5.6849 -2.0338 0.9761
0.3489 -5.6766 -2.0338 0.9761
0.8633 -5.6215 -2.0338 0.9761
1.8665 -5.3724 -2.0339 0.9761
4.3848 -3.6223 -2.0339 0.9761
-1.1146 -5.1889 -2.0338 0.9775
-0.1571 -5.3050 -2.0338 0.9775
0.8057 -5.2458 -2.0338 0.9775
1.2790 -5.1509 -2.0339 0.9775
3.7677 -3.7381 -2.0339 0.9775
4.8517 -2.1519 -2.0339 0.9775
-0.1470 -4.9672 -2.0338 0.9788
1.6309 -4.6942 -2.0339 0.9788
2.4535 -4.3215 -2.0339 0.9788
2.8361 -4.0807 -2.0339 0.9788
3.1952 -3.8062 -2.0339 0.9788
3.8313 -3.1650 -2.0339 0.9788
4.1031 -2.8038 -2.0339 0.9788
4.7071 -1.5938 -2.0339 0.9788
-0.1381 -4.6647 -2.0338 0.9798
0.2863 -4.6580 -2.0339 0.9798
1.1246 -4.5293 -2.0339 0.9798
2.3041 -4.0584 -2.0339 0.9798
2.6634 -3.8322 -2.0339 0.9798
3.0006 -3.5743 -2.0339 0.9798
3.8532 -2.6330 -2.0339 0.9798
4.2661 -1.8922 -2.0339 0.9798
-0.1301 -4.3920 -2.0339 0.9808
1.0588 -4.2644 -2.0339 0.9808
1.4420 -4.1505 -2.0339 0.9808
1.8132 -4.0024 -2.0339 0.9808
2.1694 -3.8211 -2.0339 0.9808
2.5076 -3.6081 -2.0339 0.9808
3.1192 -3.0947 -2.0339 0.9808
3.6279 -2.4791 -2.0339 0.9808
4.0167 -1.7816 -2.0339 0.9808
-0.4988 -4.1162 -2.0339 0.9817
1.3607 -3.9167 -2.0339 0.9817
2.3663 -3.4048 -2.0339 0.9817
3.6219 -2.0186 -2.0339 0.9817
3.7904 -1.6812 -2.0339 0.9817
3.9275 -1.3298 -2.0339 0.9817
-0.1161 -3.9187 -2.0339 0.9825
0.5951 -3.8751 -2.0339 0.9825
2.2374 -3.2194 -2.0339 0.9825
2.5208 -3.0027 -2.0339 0.9825
2.7832 -2.7613 -2.0339 0.9825
3.4246 -1.9087 -2.0339 0.9825
-0.7799 -3.6306 -2.0339 0.9832
-0.4468 -3.6865 -2.0339 0.9832
0.5637 -3.6704 -2.0339 0.9832
0.8949 -3.6040 -2.0339 0.9832
1.2187 -3.5078 -2.0339 0.9832
1.5324 -3.3825 -2.0339 0.9832
1.8334 -3.2293 -2.0339 0.9832
2.1193 -3.0494 -2.0339 0.9832
2.8630 -2.3651 -2.0339 0.9832
3.0661 -2.0952 -2.0339 0.9832
3.2438 -1.8079 -2.0339 0.9832
-0.7398 -3.4442 -2.0339 0.9839
-0.4238 -3.4972 -2.0339 0.9839
-0.1043 -3.5212 -2.0339 0.9839
0.5348 -3.4819 -2.0339 0.9839
1.1561 -3.3277 -2.0339 0.9839
1.7393 -3.0635 -2.0339 0.9839
2.0105 -2.8928 -2.0339 0.9839
2.2650 -2.6981 -2.0339 0.9839
2.5009 -2.4811 -2.0339 0.9839
2.9086 -1.9876 -2.0339 0.9839
3.0772 -1.7151 -2.0339 0.9839
1.7764 -0.7879 -1.1219 0.9911
1.7255 -0.5843 -1.0518 0.9916
