ply
format ascii 1.0
element vertex 183
property float32 x
property float32 y
property float32 z
property float32 I
end_header
-11.5966 -8.3078 -1.0460 0.9444
-17.1207 0.1240 -2.0338 0.9334
-17.0626 -1.4126 -2.0337 0.9334
-16.8670 -2.9378 -2.0337 0.9334
-16.5353 -4.4392 -2.0337 0.9334
-16.0702 -5.9048 -2.0337 0.9334
-15.4755 -7.3228 -2.0337 0.9334
-14.7560 -8.6817 -2.0337 0.9334
-11.2951 -8.0919 -1.6505 0.9456
-11.9114 -12.2973 -2.0337 0.9334
-10.7601 -13.3164 -2.0337 0.9334
-6.8258 -15.7009 -2.0337 0.9334
-5.3896 -16.2500 -2.0337 0.9334
-3.9099 -16.6681 -2.0337 0.9334
-2.3987 -16.9518 -2.0337 0.9334
-13.8627 -3.7217 -2.0337 0.9437
-12.9742 -6.1392 -2.0337 0.9437
-12.3710 -7.2785 -2.0337 0.9437
-7.9829 -11.9285 -2.0337 0.9437
-3.2780 -13.9741 -2.0337 0.9437
-12.3452 0.0894 -2.0338 0.9512
-11.1590 -5.2803 -2.0337 0.9512
-10.6402 -6.2602 -2.0337 0.9512
-10.0356 -7.1896 -2.0337 0.9512
-7.7588 -9.6022 -2.0337 0.9512
-3.8863 -11.7176 -2.0337 0.9512
-2.8194 -12.0190 -2.0337 0.9512
-10.8201 0.0783 -2.0338 0.9569
-10.6598 -1.8567 -2.0338 0.9569
-9.7805 -4.6280 -2.0338 0.9569
-9.3257 -5.4868 -2.0338 0.9569
-8.1950 -7.0652 -2.0338 0.9569
-6.8004 -8.4160 -2.0337 0.9569
-6.0179 -8.9922 -2.0337 0.9569
-9.6214 0.0697 -2.0338 0.9614
-9.5888 -0.7938 -2.0338 0.9614
-9.4789 -1.6510 -2.0338 0.9614
-9.0311 -3.3184 -2.0338 0.9614
-7.8214 -5.6033 -2.0338 0.9614
-7.2871 -6.2825 -2.0338 0.9614
-6.0470 -7.4837 -2.0338 0.9614
-4.6121 -8.4439 -2.0338 0.9614
-3.8359 -8.8236 -2.0338 0.9614
-8.6535 0.0626 -2.0338 0.9651
-8.6242 -0.7140 -2.0338 0.9651
-8.1227 -2.9846 -2.0338 0.9651
-7.8221 -3.7013 -2.0338 0.9651
-7.0346 -5.0397 -2.0338 0.9651
-6.5541 -5.6505 -2.0338 0.9651
-4.8129 -7.1917 -2.0338 0.9651
-4.1482 -7.5945 -2.0338 0.9651
-2.7242 -8.2136 -2.0338 0.9651
-1.9762 -8.4249 -2.0338 0.9651
-1.2124 -8.5683 -2.0338 0.9651
-7.8549 0.0569 -2.0338 0.9681
-7.7385 -1.3479 -2.0338 0.9681
-7.5864 -2.0367 -2.0338 0.9681
-7.1002 -3.3597 -2.0338 0.9681
-6.7702 -3.9832 -2.0338 0.9681
-6.3855 -4.5746 -2.0338 0.9681
-5.9493 -5.1290 -2.0338 0.9681
-4.9368 -6.1097 -2.0338 0.9681
-3.1318 -7.2037 -2.0338 0.9681
-1.7939 -7.6474 -2.0338 0.9681
-7.1841 0.0520 -2.0338 0.9706
-7.1598 -0.5928 -2.0338 0.9706
-7.0777 -1.2328 -2.0338 0.9706
-6.9386 -1.8628 -2.0338 0.9706
-6.7434 -2.4778 -2.0338 0.9706
-6.1920 -3.6431 -2.0338 0.9706
-5.8402 -4.1840 -2.0338 0.9706
-5.4412 -4.6911 -2.0338 0.9706
-4.9984 -5.1603 -2.0338 0.9706
-4.5152 -5.5880 -2.0338 0.9706
-3.9957 -5.9705 -2.0338 0.9706
-3.4439 -6.3050 -2.0338 0.9706
-2.8643 -6.5885 -2.0338 0.9706
-2.2616 -6.8190 -2.0338 0.9706
-1.6407 -6.9944 -2.0338 0.9706
-6.5143 -1.1346 -2.0338 0.9727
-6.2066 -2.2806 -2.0338 0.9727
-5.9770 -2.8282 -2.0338 0.9727
-5.6991 -3.3531 -2.0338 0.9727
-5.3753 -3.8509 -2.0338 0.9727
-5.0081 -4.3176 -2.0338 0.9727
-4.6005 -4.7496 -2.0338 0.9727
-4.1558 -5.1431 -2.0338 0.9727
-3.6776 -5.4953 -2.0338 0.9727
-3.1697 -5.8031 -2.0338 0.9727
-2.6363 -6.0641 -2.0338 0.9727
-2.0816 -6.2762 -2.0338 0.9727
-0.9264 -6.5472 -2.0338 0.9727
-6.1184 0.0443 -2.0338 0.9745
-6.0977 -0.5048 -2.0338 0.9745
-6.0278 -1.0499 -2.0338 0.9745
-5.9093 -1.5865 -2.0338 0.9745
-4.9739 -3.5633 -2.0338 0.9745
-4.6341 -3.9952 -2.0338 0.9745
-3.4029 -5.0849 -2.0338 0.9745
-2.4394 -5.6112 -2.0338 0.9745
-1.9262 -5.8074 -2.0338 0.9745
-1.3973 -5.9568 -2.0338 0.9745
-0.8573 -6.0582 -2.0338 0.9745
-5.1408 -2.4326 -2.0338 0.9761
-4.9018 -2.8840 -2.0338 0.9761
-4.6234 -3.3122 -2.0338 0.9761
-3.5745 -4.4237 -2.0338 0.9761
-3.1631 -4.7265 -2.0338 0.9761
-2.7263 -4.9913 -2.0338 0.9761
-2.2675 -5.2158 -2.0338 0.9761
-0.7968 -5.6312 -2.0338 0.9761
-5.3072 0.0384 -2.0339 0.9775
-5.2892 -0.4379 -2.0339 0.9775
-4.0196 -3.4655 -2.0338 0.9775
-3.6925 -3.8121 -2.0338 0.9775
-2.9518 -4.4107 -2.0338 0.9775
-1.6707 -5.0374 -2.0338 0.9775
-1.2121 -5.1670 -2.0338 0.9775
-2.1186 -0.3690 -0.8801 0.9907
-4.6644 -1.7139 -2.0338 0.9788
-4.2830 -2.5199 -2.0338 0.9788
-4.0396 -2.8941 -2.0338 0.9788
-3.4575 -3.5694 -2.0338 0.9788
-2.7639 -4.1299 -2.0338 0.9788
-2.3821 -4.3612 -2.0338 0.9788
-0.6962 -4.9204 -2.0338 0.9788
-1.9183 0.0138 -0.8360 0.9917
-1.9141 -0.1585 -0.8370 0.9917
-1.9052 -0.3319 -0.8428 0.9916
-4.3804 -1.6095 -2.0338 0.9798
-4.2183 -1.9961 -2.0338 0.9798
-4.0222 -2.3665 -2.0338 0.9798
-3.7936 -2.7178 -2.0338 0.9798
-3.5345 -3.0472 -2.0338 0.9798
-3.2469 -3.3521 -2.0338 0.9798
-2.9330 -3.6298 -2.0338 0.9798
-2.5955 -3.8784 -2.0338 0.9798
-1.0658 -4.5434 -2.0338 0.9798
-0.6538 -4.6207 -2.0338 0.9798
-1.6032 -0.1328 -0.7446 0.9929
-1.5626 -0.4196 -0.7489 0.9929
-1.8260 -0.6710 -0.9005 0.9915
-3.9716 -1.8794 -2.0338 0.9808
-3.7870 -2.2281 -2.0338 0.9808
-3.5718 -2.5588 -2.0338 0.9808
-3.3278 -2.8690 -2.0338 0.9808
-2.4437 -3.6516 -2.0338 0.9808
-2.1063 -3.8561 -2.0338 0.9808
-1.7518 -4.0295 -2.0338 0.9808
-0.6156 -4.3505 -2.0338 0.9808
-1.3531 -0.1121 -0.6660 0.9940
-1.3420 -0.2338 -0.6682 0.9939
-1.3093 -0.3515 -0.6650 0.9940
-1.2617 -0.4636 -0.6593 0.9940
-3.7479 -1.7734 -2.0338 0.9817
-3.1403 -2.7074 -2.0338 0.9817
-2.6059 -3.2250 -2.0338 0.9817
-1.6531 -3.8025 -2.0338 0.9817
-1.3052 -3.9355 -2.0338 0.9817
-0.9469 -4.0367 -2.0338 0.9817
-1.1931 0.0086 -0.6190 0.9946
-3.5437 -1.6769 -2.0339 0.9825
-2.7276 -2.8160 -2.0338 0.9825
-2.1805 -3.2582 -2.0338 0.9825
-1.8794 -3.4407 -2.0338 0.9825
-1.5631 -3.5954 -2.0338 0.9825
-0.8954 -3.8169 -2.0338 0.9825
-1.0668 -0.1858 -0.5931 0.9951
-1.0220 -0.3755 -0.5963 0.9950
-2.8125 -2.4247 -2.0338 0.9832
-2.5836 -2.6673 -2.0338 0.9832
-1.4805 -3.4055 -2.0338 0.9832
-0.5203 -3.6768 -2.0339 0.9832
-0.9891 -0.0819 -0.5730 0.9954
-0.9794 -0.1706 -0.5740 0.9954
-0.9451 -0.3473 -0.5813 0.9954
-0.9195 -0.4351 -0.5873 0.9953
-3.0362 -1.7864 -2.0339 0.9839
-2.4509 -2.5303 -2.0339 0.9839
-2.2140 -2.7401 -2.0339 0.9839
-1.9593 -2.9277 -2.0339 0.9839
-1.6887 -3.0916 -2.0339 0.9839
-1.4045 -3.2307 -2.0339 0.9839
