ply
format ascii 1.0
element vertex 191
property float32 x
property float32 y
property float32 z
property float32 I
end_header
16.5506 -4.1429 -0.8653 0.9339
16.2704 -4.0727 -1.2298 0.9349
14.7483 8.9002 -1.2630 0.9332
13.1507 9.5995 -1.5631 0.9367
16.6107 -4.1579 -2.0340 0.9334
17.1210 0.2992 -2.0341 0.9333
16.8072 3.2783 -2.0341 0.9333
16.4561 4.7360 -2.0341 0.9333
15.9789 6.1573 -2.0341 0.9333
15.3791 7.5314 -2.0341 0.9333
12.8953 11.2675 -2.0341 0.9333
11.8603 12.3523 -2.0341 0.9333
10.7344 13.3424 -2.0341 0.9333
8.2449 15.0089 -2.0341 0.9333
6.9004 15.6725 -2.0341 0.9333
13.9255 -3.4858 -2.0340 0.9437
14.2765 1.5054 -2.0340 0.9437
14.0902 2.7484 -2.0341 0.9437
13.3958 5.1619 -2.0341 0.9437
11.5954 8.4641 -2.0341 0.9437
9.9430 10.3554 -2.0341 0.9437
8.9991 11.1855 -2.0341 0.9437
7.9862 11.9297 -2.0341 0.9437
6.9121 12.5825 -2.0341 0.9437
11.9771 -2.9980 -2.0340 0.9512
12.1936 -1.9389 -2.0340 0.9512
12.3164 -0.8649 -2.0340 0.9512
12.1186 2.3638 -2.0340 0.9512
11.8654 3.4148 -2.0340 0.9512
11.0888 5.4304 -2.0341 0.9512
10.5714 6.3795 -2.0341 0.9512
9.9729 7.2798 -2.0341 0.9512
5.9448 10.8219 -2.0341 0.9512
10.6870 -1.6994 -2.0340 0.9569
10.7947 -0.7581 -2.0340 0.9569
10.8197 0.1890 -2.0340 0.9569
10.6213 2.0718 -2.0340 0.9569
10.3995 2.9929 -2.0340 0.9569
10.0978 3.8911 -2.0340 0.9569
9.7188 4.7594 -2.0340 0.9569
9.2652 5.5913 -2.0340 0.9569
8.1491 7.1204 -2.0340 0.9569
7.4950 7.8060 -2.0341 0.9569
6.0200 8.9927 -2.0341 0.9569
5.2103 9.4848 -2.0341 0.9569
4.3607 9.9042 -2.0340 0.9569
9.3343 -2.3365 -2.0340 0.9614
9.5030 -1.5111 -2.0340 0.9614
9.5988 -0.6741 -2.0340 0.9614
9.6210 0.1681 -2.0340 0.9614
9.5694 1.0090 -2.0340 0.9614
9.2472 2.6613 -2.0340 0.9614
8.6420 4.2321 -2.0340 0.9614
6.6646 6.9411 -2.0340 0.9614
6.0319 7.4974 -2.0340 0.9614
5.3530 7.9963 -2.0340 0.9614
4.6330 8.4339 -2.0340 0.9614
8.6067 0.9075 -2.0340 0.9651
7.4098 4.4716 -2.0340 0.9651
6.9903 5.1026 -2.0340 0.9651
6.5172 5.6946 -2.0340 0.9651
5.9941 6.2428 -2.0340 0.9651
5.4250 6.7431 -2.0340 0.9651
4.8144 7.1918 -2.0340 0.9651
4.1669 7.5854 -2.0340 0.9651
3.4874 7.9208 -2.0340 0.9651
7.6205 -1.9075 -2.0339 0.9681
7.8124 0.8238 -2.0340 0.9681
7.7104 1.5040 -2.0340 0.9681
7.5493 2.1726 -2.0340 0.9681
7.3304 2.8246 -2.0340 0.9681
5.9157 5.1690 -2.0340 0.9681
4.9244 6.1208 -2.0340 0.9681
4.3701 6.5281 -2.0340 0.9681
6.9697 -1.7446 -2.0339 0.9706
7.0956 -1.1283 -2.0339 0.9706
7.0519 1.3755 -2.0340 0.9706
6.1515 3.7123 -2.0340 0.9706
5.4105 4.7275 -2.0340 0.9706
2.8952 6.5757 -2.0340 0.9706
6.4148 -1.6057 -2.0339 0.9727
6.5307 -1.0385 -2.0339 0.9727
6.6118 0.1155 -2.0340 0.9727
6.4905 1.2660 -2.0340 0.9727
5.9390 2.9084 -2.0340 0.9727
5.3413 3.8989 -2.0340 0.9727
4.9798 4.3511 -2.0340 0.9727
4.5801 4.7701 -2.0340 0.9727
4.1453 5.1524 -2.0340 0.9727
3.6787 5.4953 -2.0340 0.9727
2.6648 6.0523 -2.0340 0.9727
5.9357 -1.4858 -2.0339 0.9745
5.4954 2.6912 -2.0340 0.9745
4.9423 3.6077 -2.0340 0.9745
4.2380 4.4138 -2.0340 0.9745
3.4040 5.0848 -2.0340 0.9745
5.5174 -1.3811 -2.0339 0.9761
5.6171 -0.8932 -2.0339 0.9761
5.6737 -0.3985 -2.0339 0.9761
5.5825 1.0889 -2.0340 0.9761
5.1081 2.5015 -2.0340 0.9761
4.5940 3.3534 -2.0340 0.9761
3.9393 4.1027 -2.0340 0.9761
2.7385 4.9851 -2.0340 0.9761
2.2920 5.2055 -2.0340 0.9761
5.2945 -0.3718 -2.0339 0.9775
5.3068 0.0927 -2.0339 0.9775
5.2094 1.0161 -2.0340 0.9775
5.1006 1.4679 -2.0340 0.9775
4.7667 2.3343 -2.0340 0.9775
4.5443 2.7423 -2.0340 0.9775
4.2870 3.1293 -2.0340 0.9775
3.9968 3.4923 -2.0340 0.9775
2.5555 4.6519 -2.0340 0.9775
4.8209 -1.2067 -2.0339 0.9788
4.9689 0.0868 -2.0339 0.9788
4.7758 1.3744 -2.0340 0.9787
4.6373 1.7869 -2.0340 0.9787
4.4632 2.1857 -2.0340 0.9787
4.2549 2.5677 -2.0340 0.9787
4.0140 2.9301 -2.0340 0.9787
3.7423 3.2700 -2.0340 0.9787
3.4420 3.5848 -2.0340 0.9787
3.1152 3.8721 -2.0340 0.9787
2.7646 4.1297 -2.0340 0.9787
4.5273 -1.1333 -2.0339 0.9798
4.6413 0.4894 -2.0339 0.9798
4.5807 0.8935 -2.0339 0.9798
4.4850 1.2907 -2.0340 0.9798
4.3549 1.6781 -2.0340 0.9798
3.9958 2.4113 -2.0340 0.9798
3.7696 2.7516 -2.0340 0.9798
2.5962 3.8782 -2.0340 0.9798
2.2470 4.0904 -2.0340 0.9798
1.8806 4.2713 -2.0340 0.9798
4.3395 -0.6901 -2.0339 0.9808
4.3832 -0.3078 -2.0339 0.9808
4.3934 0.0767 -2.0339 0.9808
4.3698 0.4608 -2.0339 0.9808
4.3128 0.8412 -2.0339 0.9808
4.2227 1.2153 -2.0340 0.9808
4.1002 1.5799 -2.0340 0.9808
3.9463 1.9325 -2.0340 0.9808
3.7621 2.2703 -2.0340 0.9808
3.0433 3.1696 -2.0340 0.9808
2.7544 3.4236 -2.0340 0.9808
4.0950 -0.6512 -2.0339 0.9817
4.1458 0.0724 -2.0339 0.9817
4.0698 0.7938 -2.0339 0.9817
3.9848 1.1468 -2.0339 0.9817
3.7239 1.8237 -2.0340 0.9817
3.5502 2.1424 -2.0340 0.9817
3.3491 2.4447 -2.0340 0.9817
3.1225 2.7283 -2.0340 0.9817
2.8719 2.9910 -2.0340 0.9817
2.5993 3.2307 -2.0340 0.9817
1.6709 3.7949 -2.0340 0.9817
3.8032 -0.9520 -2.0339 0.9825
2.0998 -0.3339 -1.1030 0.9905
2.0779 -0.1459 -1.0806 0.9907
2.0741 0.0362 -1.0761 0.9907
2.0787 0.2192 -1.0844 0.9906
2.1056 0.4107 -1.1129 0.9904
3.6584 1.4097 -2.0339 0.9825
3.5211 1.7243 -2.0340 0.9825
3.3568 2.0257 -2.0340 0.9825
2.9524 2.5797 -2.0340 0.9825
2.7154 2.8280 -2.0340 0.9825
2.4577 3.0547 -2.0340 0.9825
2.1810 3.2580 -2.0340 0.9825
1.5798 3.5882 -2.0340 0.9825
1.8521 -0.1301 -1.0169 0.9916
1.8555 0.3619 -1.0354 0.9914
1.8699 0.5381 -1.0657 0.9912
3.4653 1.3353 -2.0339 0.9832
3.1795 1.9187 -2.0339 0.9832
2.3279 2.8934 -2.0340 0.9832
2.0659 3.0860 -2.0340 0.9832
1.7880 3.2548 -2.0340 0.9832
1.4964 3.3987 -2.0340 0.9832
1.7140 -0.4291 -1.0201 0.9919
1.7141 -0.2726 -1.0021 0.9920
1.7193 0.1813 -0.9981 0.9920
1.7205 0.6629 -1.0645 0.9915
3.0163 1.8202 -2.0339 0.9839
2.6529 2.3180 -2.0339 0.9839
2.4400 2.5412 -2.0339 0.9839
2.2083 2.7449 -2.0340 0.9839
1.9597 2.9275 -2.0340 0.9839
1.6962 3.0877 -2.0339 0.9839
1.4196 3.2242 -2.0339 0.9839
