ply
format ascii 1.0
element vertex 201
property float32 x
property float32 y
property float32 z
property float32 I
end_header
1.8837 18.6653 3.3079 0.9266
3.6030 18.7340 2.9225 0.9257
3.6333 18.8916 2.5052 0.9253
3.5686 18.5552 2.0290 0.9268
1.7962 17.7991 1.9210 0.9306
3.4136 17.7491 1.5300 0.9300
1.8748 18.5779 1.5807 0.9278
3.3839 17.5952 1.1111 0.9307
1.7748 17.5872 1.0961 0.9316
3.5283 18.3459 0.7367 0.9279
1.8954 18.7823 0.7444 0.9272
3.4645 18.0136 -0.1033 0.9293
13.7720 8.9432 -0.8328 0.9363
13.4578 8.7392 -1.5405 0.9376
-1.3425 7.9293 -0.7721 0.9682
13.4716 10.5717 -2.0341 0.9333
12.4736 11.7326 -2.0341 0.9333
10.1874 13.7646 -2.0341 0.9333
8.9173 14.6194 -2.0341 0.9333
6.1743 15.9725 -2.0341 0.9333
0.1909 17.1229 -2.0341 0.9333
-1.2711 7.5074 -0.9045 0.9698
-1.9246 7.3192 -0.8990 0.9700
-5.8163 16.1054 -2.0340 0.9333
-7.2313 15.5214 -2.0340 0.9334
10.4571 9.8359 -2.0341 0.9437
9.5369 10.7305 -2.0341 0.9437
8.5405 11.5394 -2.0341 0.9437
7.4758 12.2560 -2.0341 0.9437
5.1761 13.3904 -2.0341 0.9437
3.9595 13.7991 -2.0341 0.9437
2.7113 14.0976 -2.0341 0.9437
1.4414 14.2833 -2.0341 0.9437
-0.6127 7.8109 -1.1101 0.9688
-4.8761 13.5019 -2.0340 0.9437
-6.0624 13.0123 -2.0340 0.9437
-7.2002 12.4188 -2.0340 0.9437
9.7134 7.6225 -2.0341 0.9512
7.3454 9.9247 -2.0341 0.9512
6.4297 10.5410 -2.0341 0.9512
5.4626 11.0731 -2.0341 0.9512
4.4518 11.5167 -2.0341 0.9512
3.4055 11.8682 -2.0341 0.9512
2.3320 12.1249 -2.0341 0.9512
1.2398 12.2847 -2.0340 0.9512
-0.5911 7.5353 -1.2452 0.9698
-1.2329 7.2823 -1.2168 0.9705
-5.2141 11.1916 -2.0340 0.9512
-6.1927 10.6812 -2.0340 0.9512
7.1890 8.0887 -2.0341 0.9569
6.4378 8.6985 -2.0341 0.9569
4.7877 9.7050 -2.0340 0.9569
2.9847 10.4019 -2.0340 0.9569
2.0438 10.6268 -2.0340 0.9569
1.0866 10.7669 -2.0340 0.9569
-2.6841 7.4324 -1.4853 0.9683
-4.5699 9.8089 -2.0340 0.9569
8.0703 5.2407 -2.0340 0.9614
7.5700 5.9405 -2.0340 0.9614
5.7246 7.7346 -2.0340 0.9614
5.0109 8.2150 -2.0340 0.9614
3.4694 8.9754 -2.0340 0.9614
2.6540 9.2494 -2.0340 0.9614
0.9662 9.5739 -2.0340 0.9614
-0.5840 7.4446 -1.5785 0.9699
-1.2044 7.1141 -1.5252 0.9709
-1.9017 7.2318 -1.5806 0.9699
-4.0636 8.7221 -2.0340 0.9614
-4.8263 8.3243 -2.0340 0.9614
6.8084 5.3429 -2.0340 0.9651
5.1486 6.9565 -2.0340 0.9651
3.8289 7.7615 -2.0340 0.9651
2.3870 8.3188 -2.0340 0.9651
1.6345 8.4987 -2.0340 0.9651
0.0964 8.6539 -2.0340 0.9651
-1.9045 7.2427 -1.7601 0.9697
6.5885 4.2785 -2.0340 0.9681
6.1801 4.8497 -2.0340 0.9681
5.7223 5.3823 -2.0340 0.9681
5.2188 5.8719 -2.0340 0.9681
2.8324 7.3274 -2.0340 0.9681
2.1667 7.5511 -2.0340 0.9681
0.7888 7.8161 -2.0340 0.9681
-1.3113 7.7454 -2.0340 0.9681
-1.9978 7.5974 -2.0340 0.9681
-2.6683 7.3885 -2.0340 0.9681
-3.9402 6.7959 -2.0339 0.9681
5.6523 4.4356 -2.0340 0.9706
4.7730 5.3704 -2.0340 0.9706
4.2743 5.7752 -2.0340 0.9706
3.1787 6.4435 -2.0340 0.9706
1.9817 6.9062 -2.0340 0.9706
-0.5618 7.1628 -2.0340 0.9706
-1.1993 7.0840 -2.0340 0.9706
5.2023 4.0825 -2.0340 0.9727
4.8170 4.5308 -2.0340 0.9727
4.3930 4.9429 -2.0340 0.9727
0.6640 6.5795 -2.0340 0.9727
0.0737 6.6124 -2.0340 0.9727
-1.1039 6.5200 -2.0340 0.9727
-2.7926 5.9941 -2.0339 0.9727
-3.3168 5.7208 -2.0339 0.9727
4.4571 4.1924 -2.0340 0.9745
4.0649 4.5737 -2.0340 0.9745
3.6402 4.9184 -2.0340 0.9745
3.1864 5.2239 -2.0340 0.9745
2.2062 5.7074 -2.0340 0.9745
1.1556 6.0088 -2.0340 0.9745
0.6143 6.0880 -2.0340 0.9745
-1.0214 6.0330 -2.0340 0.9745
-1.5561 5.9177 -2.0340 0.9745
4.4745 3.5113 -2.0340 0.9761
4.1430 3.8969 -2.0340 0.9761
3.7784 4.2513 -2.0340 0.9761
2.9618 4.8557 -2.0340 0.9761
0.5711 5.6590 -2.0340 0.9761
0.0634 5.6873 -2.0340 0.9761
-0.4448 5.6703 -2.0340 0.9761
-1.4465 5.5006 -2.0339 0.9761
-2.4020 5.1556 -2.0339 0.9761
-2.8528 4.9204 -2.0339 0.9761
3.8661 3.6365 -2.0340 0.9775
3.5259 3.9672 -2.0340 0.9775
3.1575 4.2663 -2.0340 0.9775
1.4639 5.1017 -2.0340 0.9775
0.0591 5.3072 -2.0340 0.9775
-0.4150 5.2913 -2.0340 0.9775
-0.8859 5.2331 -2.0340 0.9775
-2.2414 4.8110 -2.0339 0.9775
4.1680 2.7066 -2.0340 0.9787
3.6200 3.4049 -2.0340 0.9787
2.9565 3.9946 -2.0340 0.9787
1.7918 4.6354 -2.0340 0.9787
1.3707 4.7769 -2.0340 0.9787
0.4990 4.9445 -2.0340 0.9787
-0.3886 4.9544 -2.0340 0.9788
-0.8295 4.8999 -2.0339 0.9788
-1.2639 4.8062 -2.0339 0.9788
-1.6880 4.6741 -2.0339 0.9788
-2.0987 4.5047 -2.0339 0.9788
3.9141 2.5418 -2.0340 0.9798
3.6715 2.8812 -2.0340 0.9798
2.7764 3.7513 -2.0340 0.9798
2.4303 3.9843 -2.0340 0.9798
1.6827 4.3531 -2.0340 0.9798
1.2872 4.4860 -2.0340 0.9798
0.4686 4.6434 -2.0340 0.9798
0.0520 4.6667 -2.0340 0.9798
-0.3650 4.6527 -2.0339 0.9798
-1.1869 4.5135 -2.0339 0.9798
-1.5852 4.3895 -2.0339 0.9798
3.4568 2.7127 -2.0340 0.9808
3.2007 3.0106 -2.0340 0.9808
2.2882 3.7513 -2.0340 0.9808
1.9440 3.9407 -2.0340 0.9808
1.2119 4.2236 -2.0340 0.9808
-0.3436 4.3806 -2.0339 0.9808
-0.7335 4.3324 -2.0339 0.9808
-1.8557 3.9829 -2.0339 0.9808
3.4776 2.2583 -2.0340 0.9817
3.0204 2.8409 -2.0340 0.9817
2.4668 3.3329 -2.0340 0.9817
1.8345 3.7186 -2.0340 0.9817
-0.3243 4.1338 -2.0339 0.9817
-1.0545 4.0101 -2.0339 0.9817
-1.4084 3.8999 -2.0339 0.9817
-1.7511 3.7585 -2.0339 0.9817
3.2882 2.1353 -2.0340 0.9825
2.3324 3.1514 -2.0340 0.9825
2.0416 3.3471 -2.0340 0.9825
1.7345 3.5161 -2.0340 0.9825
1.0814 3.7686 -2.0340 0.9825
0.7405 3.8501 -2.0339 0.9825
0.3936 3.9008 -2.0339 0.9825
0.0437 3.9204 -2.0339 0.9825
-0.3066 3.9086 -2.0339 0.9825
-0.6544 3.8656 -2.0339 0.9825
-0.9970 3.7917 -2.0339 0.9825
-1.3318 3.6875 -2.0339 0.9825
-1.9664 3.3918 -2.0339 0.9825
2.7050 2.5443 -2.0340 0.9832
2.4670 2.7758 -2.0340 0.9832
2.2092 2.9850 -2.0340 0.9832
1.0243 3.5696 -2.0339 0.9832
0.7014 3.6467 -2.0339 0.9832
0.3729 3.6948 -2.0339 0.9832
-0.2904 3.7022 -2.0339 0.9832
-0.6199 3.6614 -2.0339 0.9832
-1.2614 3.4928 -2.0339 0.9832
-1.8626 3.2126 -2.0339 0.9832
2.9546 1.9187 -2.0339 0.9839
2.7714 2.1748 -2.0339 0.9839
2.0958 2.8317 -2.0340 0.9839
0.9716 3.3862 -2.0339 0.9839
0.6654 3.4595 -2.0339 0.9839
0.3537 3.5051 -2.0339 0.9839
-0.2755 3.5121 -2.0339 0.9839
-0.5880 3.4735 -2.0339 0.9839
-0.8959 3.4070 -2.0339 0.9839
-1.4878 3.1933 -2.0339 0.9839
-1.7670 3.0477 -2.0339 0.9839
