ply
format ascii 1.0
element vertex 189
property float32 x
property float32 y
property float32 z
property float32 I
end_header
17.3671 -3.2563 -1.2956 0.9316
13.4728 9.6550 -1.2153 0.9357
17.7172 -3.3220 -1.7306 0.9301
14.9646 8.8107 -1.6672 0.9326
13.1700 9.4380 -1.5555 0.9370
17.0452 -1.6356 -2.0340 0.9333
16.8672 2.9542 -2.0341 0.9333
16.5349 4.4530 -2.0341 0.9333
15.4753 7.3316 -2.0341 0.9333
14.7565 8.6882 -2.0341 0.9333
12.9699 11.1815 -2.0341 0.9333
6.8400 15.6990 -2.0341 0.9333
14.2898 -1.3712 -2.0340 0.9437
14.3054 1.2002 -2.0340 0.9437
14.1405 2.4766 -2.0340 0.9437
13.8619 3.7332 -2.0341 0.9437
13.4719 4.9597 -2.0341 0.9437
12.9736 6.1463 -2.0341 0.9437
12.3711 7.2836 -2.0341 0.9437
11.6690 8.3624 -2.0341 0.9437
9.9900 10.3101 -2.0341 0.9437
9.0264 11.1634 -2.0341 0.9437
4.5325 13.6217 -2.0341 0.9437
12.2904 -1.1794 -2.0340 0.9512
11.9222 3.2108 -2.0340 0.9512
10.0362 7.1922 -2.0341 0.9512
9.3517 8.0622 -2.0341 0.9512
8.5920 8.8674 -2.0341 0.9512
7.7633 9.6013 -2.0341 0.9512
5.9259 10.8322 -2.0341 0.9512
3.8982 11.7157 -2.0341 0.9512
10.6359 -1.9942 -2.0340 0.9569
10.7719 -1.0337 -2.0340 0.9569
10.8212 -0.0647 -2.0340 0.9569
10.7836 0.9047 -2.0340 0.9569
9.7796 4.6332 -2.0340 0.9569
9.3254 5.4904 -2.0340 0.9569
8.7961 6.3036 -2.0340 0.9569
7.5304 7.7718 -2.0341 0.9569
6.8041 8.4150 -2.0341 0.9569
5.1937 9.4939 -2.0341 0.9569
9.4575 -1.7733 -2.0340 0.9614
9.5784 -0.9191 -2.0340 0.9614
9.2915 2.5023 -2.0340 0.9614
7.8216 5.6052 -2.0340 0.9614
6.6961 6.9107 -2.0340 0.9614
3.8436 8.8217 -2.0340 0.9614
3.0380 9.1304 -2.0340 0.9614
8.5061 -1.5949 -2.0340 0.9651
8.6148 -0.8267 -2.0340 0.9651
8.6543 -0.0518 -2.0340 0.9651
8.6241 0.7235 -2.0340 0.9651
8.3568 2.2505 -2.0340 0.9651
7.8212 3.7053 -2.0340 0.9651
7.4579 4.3910 -2.0340 0.9651
6.5549 5.6511 -2.0340 0.9651
6.0224 6.2154 -2.0340 0.9651
5.4416 6.7298 -2.0340 0.9651
4.8170 7.1901 -2.0340 0.9651
4.1536 7.5927 -2.0340 0.9651
2.7324 8.2119 -2.0340 0.9651
7.7211 -1.4477 -2.0340 0.9681
7.8197 -0.7504 -2.0340 0.9681
7.8282 0.6568 -2.0340 0.9681
7.7379 1.3553 -2.0340 0.9681
7.5855 2.0429 -2.0340 0.9681
7.3721 2.7140 -2.0340 0.9681
6.7696 3.9857 -2.0340 0.9681
6.3854 4.5760 -2.0340 0.9681
5.9500 5.1295 -2.0340 0.9681
5.4666 5.6418 -2.0340 0.9681
7.0617 -1.3241 -2.0339 0.9706
7.1846 -0.0430 -2.0340 0.9706
7.1596 0.6007 -2.0340 0.9706
7.0771 1.2395 -2.0340 0.9706
6.7425 2.4822 -2.0340 0.9706
5.8401 4.1852 -2.0340 0.9706
5.4418 4.6914 -2.0340 0.9706
4.9998 5.1600 -2.0340 0.9706
3.9990 5.9692 -2.0340 0.9706
3.4483 6.3033 -2.0340 0.9706
2.8698 6.5869 -2.0340 0.9706
6.4995 -1.2187 -2.0339 0.9727
6.5825 -0.6317 -2.0339 0.9727
6.6127 -0.0396 -2.0340 0.9727
6.5137 1.1408 -2.0340 0.9727
6.3854 1.7196 -2.0340 0.9727
5.6986 3.3551 -2.0340 0.9727
5.3752 3.8520 -2.0340 0.9727
5.0086 4.3179 -2.0340 0.9727
4.6018 4.7492 -2.0340 0.9727
4.1579 5.1422 -2.0340 0.9727
3.6806 5.4940 -2.0340 0.9727
6.0909 -0.5845 -2.0339 0.9745
6.1188 -0.0366 -2.0340 0.9745
6.0272 1.0556 -2.0340 0.9745
5.9084 1.5912 -2.0340 0.9745
5.2729 3.1045 -2.0340 0.9745
4.9737 3.5643 -2.0340 0.9745
4.6345 3.9954 -2.0340 0.9745
3.4057 5.0836 -2.0340 0.9745
2.4441 5.6097 -2.0340 0.9745
5.5902 -1.0482 -2.0339 0.9761
5.6876 -0.0340 -2.0339 0.9761
5.6678 0.4755 -2.0340 0.9761
5.3375 1.9650 -2.0340 0.9761
5.1401 2.4351 -2.0340 0.9761
4.9013 2.8857 -2.0340 0.9761
4.6232 3.3131 -2.0340 0.9761
3.5762 4.4228 -2.0340 0.9761
3.1657 4.7254 -2.0340 0.9761
2.7298 4.9899 -2.0340 0.9761
5.2833 -0.5070 -2.0339 0.9775
5.2889 0.4437 -2.0340 0.9775
5.2280 0.9156 -2.0340 0.9775
5.1250 1.3802 -2.0340 0.9775
4.9808 1.8337 -2.0340 0.9775
4.7965 2.2724 -2.0340 0.9775
4.5738 2.6928 -2.0340 0.9775
3.6934 3.8118 -2.0340 0.9775
4.8845 -0.9159 -2.0339 0.9788
4.9469 -0.4747 -2.0339 0.9788
4.9696 -0.0297 -2.0339 0.9787
4.8952 0.8573 -2.0340 0.9787
4.7987 1.2923 -2.0340 0.9787
4.6637 1.7169 -2.0340 0.9787
4.0395 2.8948 -2.0340 0.9787
3.4582 3.5691 -2.0340 0.9787
3.1247 3.8645 -2.0340 0.9787
2.7660 4.1288 -2.0340 0.9787
2.3851 4.3599 -2.0340 0.9787
4.6456 -0.4458 -2.0339 0.9798
4.6669 -0.0279 -2.0339 0.9798
4.6507 0.3902 -2.0339 0.9798
4.5064 1.2136 -2.0340 0.9798
4.2177 1.9981 -2.0340 0.9798
4.0217 2.3678 -2.0340 0.9798
3.5348 3.0474 -2.0340 0.9798
2.9344 3.6291 -2.0340 0.9798
4.3739 -0.4197 -2.0339 0.9808
4.3940 -0.0263 -2.0339 0.9808
4.3282 0.7580 -2.0339 0.9808
4.1236 1.5180 -2.0340 0.9808
3.9710 1.8813 -2.0340 0.9808
3.7866 2.2294 -2.0340 0.9808
3.5717 2.5596 -2.0340 0.9808
3.3281 2.8692 -2.0340 0.9808
2.7628 3.4169 -2.0340 0.9808
2.4457 3.6506 -2.0340 0.9808
1.7551 4.0283 -2.0340 0.9808
1.3873 4.1693 -2.0340 0.9808
4.0039 1.0782 -2.0339 0.9817
3.5732 2.1037 -2.0340 0.9817
3.3704 2.4154 -2.0340 0.9817
3.1405 2.7075 -2.0340 0.9817
2.8854 2.9779 -2.0340 0.9817
2.3079 3.4449 -2.0340 0.9817
1.9900 3.6377 -2.0340 0.9817
2.0715 -0.0124 -1.0747 0.9907
2.0755 0.1741 -1.0805 0.9907
3.7857 1.0195 -2.0339 0.9825
3.6793 1.3545 -2.0339 0.9825
3.5432 1.6786 -2.0339 0.9825
3.3786 1.9892 -2.0340 0.9825
2.9695 2.5600 -2.0340 0.9825
2.1821 3.2572 -2.0340 0.9825
1.8817 3.4396 -2.0340 0.9825
1.2379 3.7201 -2.0340 0.9825
1.8547 -0.3478 -1.0335 0.9914
1.8507 -0.0111 -1.0136 0.9916
1.8510 0.1553 -1.0174 0.9916
1.8530 0.3245 -1.0303 0.9915
1.8621 0.5014 -1.0562 0.9912
3.4850 1.2830 -2.0339 0.9832
3.3561 1.5899 -2.0339 0.9832
3.2001 1.8841 -2.0339 0.9832
2.5842 2.6670 -2.0340 0.9832
2.3349 2.8877 -2.0340 0.9832
1.4833 3.4045 -2.0340 0.9832
1.7137 -0.3213 -1.0066 0.9920
1.7205 -0.1651 -0.9979 0.9920
1.7246 -0.0103 -0.9957 0.9921
1.7218 0.1444 -0.9976 0.9921
1.7141 0.3002 -1.0047 0.9920
1.7123 0.4611 -1.0239 0.9918
1.7208 0.6335 -1.0587 0.9916
2.4515 2.5300 -2.0339 0.9839
2.2150 2.7394 -2.0340 0.9839
1.6907 3.0906 -2.0339 0.9839
