ply
format ascii 1.0
element vertex 187
property float32 x
property float32 y
property float32 z
property float32 I
end_header
-12.9149 -8.3194 -0.7791 0.9403
-12.0792 -7.7811 -1.3794 0.9439
-16.9139 2.6578 -2.0338 0.9334
-17.0853 1.1095 -2.0338 0.9334
-17.1152 -0.4480 -2.0337 0.9334
-17.0036 -2.0018 -2.0337 0.9334
-15.8335 -6.5128 -2.0337 0.9334
-15.1759 -7.9249 -2.0337 0.9334
-12.4765 -11.7237 -2.0337 0.9334
-8.8528 -14.6539 -2.0337 0.9334
-7.4842 -15.3979 -2.0337 0.9334
-6.0538 -16.0144 -2.0337 0.9334
-14.1800 2.2282 -2.0338 0.9437
-14.3488 -0.3756 -2.0338 0.9437
-14.0436 -2.9669 -2.0337 0.9437
-13.2743 -5.4601 -2.0337 0.9437
-12.7231 -6.6440 -2.0337 0.9437
-12.0665 -7.7729 -2.0337 0.9437
-11.3100 -8.8374 -2.0337 0.9437
-8.5078 -11.5599 -2.0337 0.9437
-7.4220 -12.2854 -2.0337 0.9437
-5.0753 -13.4261 -2.0337 0.9437
-3.8340 -13.8318 -2.0337 0.9437
-12.1960 1.9164 -2.0338 0.9512
-12.3196 0.8000 -2.0338 0.9512
-12.3413 -0.3231 -2.0338 0.9512
-12.2607 -1.4434 -2.0338 0.9512
-12.0788 -2.5518 -2.0338 0.9512
-10.3783 -6.6854 -2.0337 0.9512
-9.7277 -7.6010 -2.0337 0.9512
-8.9965 -8.4537 -2.0337 0.9512
-8.1909 -9.2364 -2.0337 0.9512
-7.3175 -9.9426 -2.0337 0.9512
-6.3836 -10.5666 -2.0337 0.9512
-5.3967 -11.1031 -2.0337 0.9512
-3.2977 -11.8966 -2.0337 0.9512
-10.6893 1.6797 -2.0338 0.9569
-10.7977 0.7012 -2.0338 0.9569
-10.8167 -0.2831 -2.0338 0.9569
-10.7461 -1.2651 -2.0338 0.9569
-10.5866 -2.2366 -2.0338 0.9569
-10.0067 -4.1161 -2.0338 0.9569
-9.5912 -5.0085 -2.0338 0.9569
-7.8851 -7.4094 -2.0338 0.9569
-7.1791 -8.0954 -2.0337 0.9569
-6.4136 -8.7144 -2.0337 0.9569
-5.5950 -9.2612 -2.0337 0.9569
-3.8260 -10.1211 -2.0338 0.9569
-2.8903 -10.4270 -2.0338 0.9569
-9.5050 1.4936 -2.0338 0.9614
-8.8981 -3.6600 -2.0338 0.9614
-8.0885 -5.2104 -2.0338 0.9614
-7.0116 -6.5885 -2.0338 0.9614
-6.3837 -7.1985 -2.0338 0.9614
-3.4021 -8.9999 -2.0338 0.9614
-8.5489 1.3433 -2.0338 0.9651
-8.6508 -0.2265 -2.0338 0.9651
-8.4668 -1.7887 -2.0338 0.9651
-7.6707 -4.0056 -2.0338 0.9651
-5.1294 -6.9695 -2.0338 0.9651
-4.4747 -7.4069 -2.0338 0.9651
-3.7830 -7.7829 -2.0338 0.9651
-3.0599 -8.0945 -2.0338 0.9651
-2.3115 -8.3392 -2.0338 0.9651
-7.8386 0.5090 -2.0338 0.9681
-7.8524 -0.2056 -2.0338 0.9681
-7.8012 -0.9184 -2.0338 0.9681
-7.6854 -1.6237 -2.0338 0.9681
-7.2645 -2.9881 -2.0338 0.9681
-6.6035 -4.2538 -2.0338 0.9681
-5.7244 -5.3789 -2.0338 0.9681
-5.2118 -5.8769 -2.0338 0.9681
-4.6560 -6.3263 -2.0338 0.9681
-3.4338 -7.0647 -2.0338 0.9681
-2.7775 -7.3475 -2.0338 0.9681
-7.1693 0.4655 -2.0338 0.9706
-6.6441 -2.7329 -2.0338 0.9706
-6.3682 -3.3255 -2.0338 0.9706
-5.6610 -4.4234 -2.0338 0.9706
-3.7149 -6.1492 -2.0338 0.9706
-2.5404 -6.7201 -2.0338 0.9706
-6.5986 0.4285 -2.0338 0.9727
-6.6102 -0.1730 -2.0338 0.9727
-6.5671 -0.7731 -2.0338 0.9727
-6.4696 -1.3668 -2.0338 0.9727
-6.1152 -2.5154 -2.0338 0.9727
-5.2104 -4.0712 -2.0338 0.9727
-4.8187 -4.5280 -2.0338 0.9727
-4.3872 -4.9472 -2.0338 0.9727
-3.9194 -5.3255 -2.0338 0.9727
-3.4192 -5.6597 -2.0338 0.9727
-2.8906 -5.9470 -2.0338 0.9727
-2.3381 -6.1852 -2.0338 0.9727
-6.0444 0.9498 -2.0339 0.9745
-6.0766 -0.7154 -2.0338 0.9745
-5.9864 -1.2647 -2.0338 0.9745
-5.8466 -1.8036 -2.0338 0.9745
-5.6585 -2.3275 -2.0338 0.9745
-5.4236 -2.8322 -2.0338 0.9745
-4.8212 -3.7672 -2.0338 0.9745
-4.4589 -4.1898 -2.0338 0.9745
-3.6267 -4.9278 -2.0338 0.9745
-3.1638 -5.2370 -2.0338 0.9745
-1.6344 -5.8962 -2.0338 0.9745
-5.6185 0.8828 -2.0339 0.9761
-5.6854 -0.1488 -2.0338 0.9761
-5.6483 -0.6650 -2.0338 0.9761
-5.2597 -2.1635 -2.0338 0.9761
-5.0413 -2.6326 -2.0338 0.9761
-4.4814 -3.5017 -2.0338 0.9761
-4.1446 -3.8946 -2.0338 0.9761
-3.7735 -4.2551 -2.0338 0.9761
-2.4862 -5.1151 -2.0338 0.9761
-5.2961 0.3439 -2.0339 0.9775
-5.2709 -0.6205 -2.0338 0.9775
-5.0714 -1.5644 -2.0338 0.9775
-4.9082 -2.0189 -2.0338 0.9775
-4.7044 -2.4567 -2.0338 0.9775
-4.4616 -2.8741 -2.0338 0.9775
-2.3201 -4.7733 -2.0338 0.9775
-2.1151 0.3323 -0.8763 0.9908
-2.1227 -0.0556 -0.8691 0.9909
-2.1213 -0.4482 -0.8874 0.9907
-4.5957 -1.8904 -2.0338 0.9788
-4.4049 -2.3003 -2.0338 0.9788
-3.9158 -3.0597 -2.0338 0.9788
-3.2971 -3.7180 -2.0338 0.9788
-2.5696 -4.2534 -2.0338 0.9788
-1.9045 0.2992 -0.8402 0.9916
-1.9189 -0.0503 -0.8366 0.9917
-1.9063 -0.2245 -0.8366 0.9917
-2.0834 -0.6427 -0.9502 0.9905
-4.1366 -2.1602 -2.0338 0.9798
-3.6773 -2.8733 -2.0338 0.9798
-3.0963 -3.4915 -2.0338 0.9798
-2.7662 -3.7585 -2.0338 0.9798
-2.4132 -3.9944 -2.0338 0.9798
-1.2466 -4.4972 -2.0338 0.9798
-1.6102 0.2530 -0.7545 0.9928
-1.5980 0.1037 -0.7413 0.9930
-1.5809 -0.0414 -0.7320 0.9931
-1.6094 -0.1895 -0.7501 0.9929
-1.5960 -0.3372 -0.7551 0.9928
-1.5329 -0.4729 -0.7426 0.9930
-3.8948 -2.0339 -2.0338 0.9808
-3.6938 -2.3795 -2.0338 0.9808
-3.2020 -3.0088 -2.0338 0.9808
-2.2720 -3.7608 -2.0338 0.9808
-1.5537 -4.1100 -2.0338 0.9808
-1.3465 0.2115 -0.6686 0.9939
-1.3527 -0.1593 -0.6681 0.9940
-1.3309 -0.2812 -0.6672 0.9940
-3.4857 -2.2454 -2.0338 0.9817
-2.7510 -3.1021 -2.0338 0.9817
-1.4661 -3.8784 -2.0338 0.9817
-1.1076 -3.9956 -2.0338 0.9817
-1.1925 0.1873 -0.6262 0.9946
-1.1962 -0.0313 -0.6208 0.9946
-1.1766 -0.2486 -0.6239 0.9946
-1.1456 -0.3534 -0.6220 0.9946
-1.1175 -0.4597 -0.6268 0.9946
-3.4751 -1.8147 -2.0339 0.9825
-3.2958 -2.1231 -2.0338 0.9825
-3.0892 -2.4138 -2.0338 0.9825
-2.8570 -2.6846 -2.0338 0.9825
-2.3238 -3.1575 -2.0338 0.9825
-2.0273 -3.3556 -2.0338 0.9825
-1.0472 -3.7780 -2.0338 0.9825
-1.0812 0.0702 -0.5934 0.9951
-1.0793 -0.0283 -0.5913 0.9951
-1.0343 -0.3191 -0.5928 0.9951
-1.0908 -0.5697 -0.6740 0.9944
-3.1218 -2.0110 -2.0339 0.9832
-2.9261 -2.2864 -2.0338 0.9832
-2.2011 -2.9908 -2.0338 0.9832
-1.9202 -3.1784 -2.0338 0.9832
-1.6234 -3.3398 -2.0338 0.9832
-0.9920 -3.5785 -2.0339 0.9832
-0.9820 0.1543 -0.5739 0.9954
-0.9897 0.0642 -0.5726 0.9954
-0.9899 -0.0259 -0.5717 0.9954
-0.9866 -0.1162 -0.5735 0.9954
-0.9355 -0.3848 -0.5840 0.9953
-2.9614 -1.9077 -2.0339 0.9839
-2.7758 -2.1690 -2.0339 0.9839
-1.5400 -3.1683 -2.0339 0.9839
-0.9410 -3.3948 -2.0339 0.9839
