ply
format ascii 1.0
element vertex 194
property float32 x
property float32 y
property float32 z
property float32 I
end_header
13.9237 8.6814 -1.2031 0.9363
14.0150 8.7384 -1.5856 0.9358
10.1476 -13.7907 -2.0338 0.9334
11.3189 -12.8471 -2.0339 0.9334
12.4029 -11.8042 -2.0339 0.9334
13.3911 -10.6702 -2.0339 0.9334
14.2761 -9.4538 -2.0339 0.9334
15.0509 -8.1644 -2.0339 0.9334
16.9425 -2.4829 -2.0340 0.9333
17.0045 2.0180 -2.0341 0.9333
16.7619 3.5027 -2.0341 0.9333
16.3899 4.9603 -2.0341 0.9333
15.8914 6.3797 -2.0341 0.9333
15.2702 7.7498 -2.0341 0.9333
14.5311 9.0602 -2.0341 0.9333
13.6800 10.3006 -2.0341 0.9333
11.2265 -8.9454 -2.0339 0.9437
13.1701 -5.7109 -2.0339 0.9437
13.6206 -4.5330 -2.0340 0.9437
14.2037 -2.0816 -2.0340 0.9437
14.3317 -0.8270 -2.0340 0.9437
14.2557 1.6918 -2.0340 0.9437
14.0522 2.9364 -2.0341 0.9437
13.7404 4.1584 -2.0341 0.9437
12.1821 7.5955 -2.0341 0.9437
11.4684 8.6354 -2.0341 0.9437
8.1616 -9.2635 -2.0339 0.9512
8.9432 -8.5115 -2.0339 0.9512
11.7148 -3.8987 -2.0340 0.9512
12.3263 -0.7113 -2.0340 0.9512
12.0860 2.5255 -2.0340 0.9512
11.8177 3.5765 -2.0340 0.9512
11.4582 4.5999 -2.0341 0.9512
11.0104 5.5879 -2.0341 0.9512
9.8637 7.4271 -2.0341 0.9512
6.4130 -8.7155 -2.0339 0.9569
7.1533 -8.1191 -2.0339 0.9569
7.8383 -7.4599 -2.0339 0.9569
8.4629 -6.7433 -2.0339 0.9569
9.9279 -4.3050 -2.0339 0.9569
10.5278 -2.5028 -2.0340 0.9569
10.3576 3.1346 -2.0340 0.9569
5.7025 -7.7499 -2.0339 0.9614
6.3607 -7.2196 -2.0339 0.9614
7.5252 -5.9962 -2.0339 0.9614
8.8279 -3.8280 -2.0339 0.9614
9.1298 -3.0385 -2.0339 0.9614
9.3614 -2.2255 -2.0340 0.9614
9.6180 0.2910 -2.0340 0.9614
9.2100 2.7873 -2.0340 0.9614
8.1655 5.0911 -2.0340 0.9614
7.6871 5.7882 -2.0340 0.9614
6.2687 -5.9662 -2.0339 0.9651
7.6070 -4.1265 -2.0339 0.9651
7.9398 -3.4429 -2.0339 0.9651
8.4196 -2.0016 -2.0340 0.9651
8.5629 -1.2549 -2.0340 0.9651
8.2834 2.5069 -2.0340 0.9651
4.6555 -6.3270 -2.0339 0.9681
5.1929 -5.8940 -2.0339 0.9681
6.1436 -4.8953 -2.0339 0.9681
7.4536 -2.4806 -2.0339 0.9681
7.6426 -1.8169 -2.0339 0.9681
7.8010 0.9258 -2.0340 0.9681
7.0052 3.5552 -2.0340 0.9681
6.6662 4.1563 -2.0340 0.9681
4.2580 -5.7867 -2.0339 0.9706
4.7495 -5.3907 -2.0339 0.9706
5.2043 -4.9531 -2.0339 0.9706
5.9902 -3.9668 -2.0339 0.9706
6.5916 -2.8583 -2.0339 0.9706
6.8171 -2.2688 -2.0339 0.9706
6.9899 -1.6617 -2.0339 0.9706
7.1729 -0.4139 -2.0340 0.9706
7.1815 0.2172 -2.0340 0.9706
6.8768 2.0812 -2.0340 0.9706
6.0970 3.8014 -2.0340 0.9706
4.3714 -4.9616 -2.0339 0.9727
6.4335 -1.5294 -2.0339 0.9727
6.5429 -0.9589 -2.0339 0.9727
6.4730 1.3526 -2.0340 0.9727
6.3294 1.9155 -2.0340 0.9727
6.1368 2.4637 -2.0340 0.9727
5.8969 2.9928 -2.0340 0.9727
5.2828 3.9778 -2.0340 0.9727
3.6263 -4.9283 -2.0339 0.9745
4.0449 -4.5910 -2.0339 0.9745
4.4322 -4.2183 -2.0339 0.9745
5.3784 -2.9176 -2.0339 0.9745
5.6137 -2.4343 -2.0339 0.9745
5.9529 -1.4152 -2.0339 0.9745
6.0542 -0.8872 -2.0339 0.9745
6.1087 -0.3525 -2.0339 0.9745
5.8566 1.7724 -2.0340 0.9745
3.3708 -4.5810 -2.0339 0.9761
4.7420 -3.1403 -2.0339 0.9761
5.5334 -1.3155 -2.0339 0.9761
5.6275 -0.8247 -2.0339 0.9761
5.6782 -0.3277 -2.0339 0.9761
5.6851 0.1720 -2.0340 0.9761
5.6481 0.6703 -2.0340 0.9761
5.4439 1.6476 -2.0340 0.9761
5.2783 2.1190 -2.0340 0.9761
4.8264 3.0093 -2.0340 0.9761
3.1455 -4.2748 -2.0339 0.9775
4.1509 -3.3075 -2.0339 0.9775
4.4251 -2.9304 -2.0339 0.9775
4.6653 -2.5307 -2.0339 0.9775
5.2987 -0.3058 -2.0339 0.9775
5.3051 0.1605 -2.0339 0.9775
5.2706 0.6255 -2.0340 0.9775
5.0800 1.5374 -2.0340 0.9775
4.7330 2.4020 -2.0340 0.9775
4.5039 2.8081 -2.0340 0.9775
3.2851 -3.7287 -2.0339 0.9788
3.8866 -3.0969 -2.0339 0.9788
4.1434 -2.7438 -2.0339 0.9788
4.3683 -2.3696 -2.0339 0.9788
4.7154 -1.5693 -2.0339 0.9788
4.8349 -1.1494 -2.0339 0.9788
4.9171 -0.7206 -2.0339 0.9788
4.9614 -0.2863 -2.0339 0.9788
4.9674 0.1503 -2.0339 0.9787
4.9350 0.5856 -2.0339 0.9787
4.8646 1.0165 -2.0340 0.9787
4.6119 1.8514 -2.0340 0.9787
4.4316 2.2491 -2.0340 0.9787
4.2171 2.6294 -2.0340 0.9787
3.9701 2.9893 -2.0340 0.9787
3.0851 -3.5016 -2.0339 0.9798
3.6499 -2.9083 -2.0339 0.9798
3.8911 -2.5767 -2.0339 0.9798
4.2817 -1.8567 -2.0339 0.9798
4.4282 -1.4737 -2.0339 0.9798
4.5404 -1.0794 -2.0339 0.9798
4.6593 -0.2689 -2.0339 0.9798
4.4669 1.3519 -2.0340 0.9798
4.3310 1.7387 -2.0340 0.9798
3.9603 2.4692 -2.0340 0.9798
3.1829 -3.0292 -2.0339 0.9808
4.0314 -1.7481 -2.0339 0.9808
4.1692 -1.3875 -2.0339 0.9808
4.3920 0.1329 -2.0339 0.9808
4.3635 0.5178 -2.0339 0.9808
4.3012 0.8988 -2.0339 0.9808
4.0778 1.6370 -2.0340 0.9808
3.9183 1.9886 -2.0340 0.9808
3.5103 2.6431 -2.0340 0.9808
2.7410 -3.1111 -2.0339 0.9817
3.0036 -2.8586 -2.0339 0.9817
3.2428 -2.5839 -2.0339 0.9817
3.4571 -2.2893 -2.0339 0.9817
3.6447 -1.9771 -2.0339 0.9817
3.8042 -1.6496 -2.0339 0.9817
4.0588 0.8481 -2.0339 0.9817
3.8480 1.5448 -2.0340 0.9817
3.5186 2.1938 -2.0340 0.9817
3.3125 2.4942 -2.0340 0.9817
2.3235 -3.1578 -2.0339 0.9825
2.5917 -2.9417 -2.0339 0.9825
2.8400 -2.7028 -2.0339 0.9825
3.2688 -2.1646 -2.0339 0.9825
3.8143 -0.9068 -2.0339 0.9825
2.0853 0.2474 -1.0894 0.9906
2.1078 0.4404 -1.1171 0.9903
3.6384 1.4606 -2.0339 0.9825
3.1321 2.3583 -2.0340 0.9825
2.6900 -2.5601 -2.0339 0.9832
2.9043 -2.3142 -2.0339 0.9832
3.0962 -2.0504 -2.0339 0.9832
3.4070 -1.4774 -2.0339 0.9832
1.8935 -0.6302 -1.0930 0.9909
1.8576 -0.4416 -1.0458 0.9913
1.8475 -0.2708 -1.0227 0.9915
1.8524 0.0560 -1.0150 0.9916
1.8568 0.3880 -1.0389 0.9914
1.8755 0.5676 -1.0732 0.9911
3.4462 1.3835 -2.0339 0.9832
3.3115 1.6806 -2.0339 0.9832
3.1512 1.9648 -2.0339 0.9832
2.9667 2.2338 -2.0340 0.9832
2.3288 -2.6433 -2.0339 0.9839
2.9372 -1.9450 -2.0339 0.9839
1.7710 -0.7680 -1.1145 0.9911
1.7244 -0.5739 -1.0493 0.9916
1.7146 -0.4076 -1.0175 0.9919
1.7234 -0.0995 -0.9967 0.9921
1.7244 0.0521 -0.9960 0.9921
1.7172 0.2038 -0.9984 0.9920
1.7175 0.5198 -1.0360 0.9917
1.7510 0.7029 -1.0893 0.9913
3.1415 1.5943 -2.0339 0.9839
2.9895 1.8639 -2.0339 0.9839
2.8143 2.1191 -2.0339 0.9839
