ply
format ascii 1.0
element vertex 182
property float32 x
property float32 y
property float32 z
property float32 I
end_header
16.6555 -4.2531 -0.8718 0.9335
16.2830 -4.1580 -1.2322 0.9348
-1.6473 -17.0413 -2.0337 0.9334
-0.1334 -17.1203 -2.0337 0.9334
1.3815 -17.0651 -2.0337 0.9334
2.8856 -16.8761 -2.0337 0.9334
9.8395 -14.0121 -2.0338 0.9334
11.0405 -13.0870 -2.0338 0.9334
15.5843 -7.0938 -2.0340 0.9334
16.1509 -5.6875 -2.0340 0.9334
-0.1118 -14.3531 -2.0337 0.9437
2.7339 -5.8824 -0.9191 0.9741
7.1776 -12.4308 -2.0338 0.9437
10.1903 -10.1100 -2.0339 0.9437
11.0446 -9.1690 -2.0339 0.9437
11.8125 -8.1562 -2.0339 0.9437
13.5401 -4.7681 -2.0340 0.9437
13.9089 -3.5517 -2.0340 0.9437
14.1687 -2.3075 -2.0340 0.9437
0.9962 -12.3052 -2.0338 0.9512
2.0808 -12.1689 -2.0338 0.9512
2.1909 -6.0678 -1.0628 0.9742
8.7645 -8.6954 -2.0339 0.9512
10.1597 -7.0149 -2.0339 0.9512
11.2371 -5.1150 -2.0339 0.9512
11.6455 -4.1010 -2.0340 0.9512
12.1861 -1.9846 -2.0340 0.9512
1.5978 -6.0570 -1.1774 0.9748
2.1357 -5.9153 -1.1821 0.9747
6.2184 -8.8554 -2.0339 0.9569
10.4848 -2.6774 -2.0340 0.9569
10.6805 -1.7394 -2.0340 0.9569
-0.0750 -9.6213 -2.0338 0.9614
1.6216 -9.4839 -2.0338 0.9614
2.7045 -5.8192 -1.3564 0.9741
6.8306 -6.7768 -2.0339 0.9614
7.4033 -6.1461 -2.0339 0.9614
8.3706 -4.7454 -2.0339 0.9614
8.7576 -3.9863 -2.0339 0.9614
9.0759 -3.1961 -2.0339 0.9614
9.3231 -2.3807 -2.0340 0.9614
9.4972 -1.5467 -2.0340 0.9614
-0.8326 -8.6135 -2.0338 0.9651
0.6983 -8.6255 -2.0338 0.9651
5.5802 -6.6146 -2.0339 0.9651
6.6586 -5.5278 -2.0339 0.9651
7.8766 -3.5853 -2.0339 0.9651
8.1629 -2.8745 -2.0339 0.9651
8.5418 -1.3911 -2.0340 0.9651
-0.0612 -7.8548 -2.0338 0.9681
0.6339 -7.8295 -2.0338 0.9681
1.3239 -7.7427 -2.0338 0.9681
1.5618 -5.9203 -1.5853 0.9750
3.3912 -5.8732 -1.7560 0.9724
4.5142 -6.4286 -2.0339 0.9681
5.0652 -6.0041 -2.0339 0.9681
5.5765 -5.5326 -2.0339 0.9681
6.0441 -5.0176 -2.0339 0.9681
6.4642 -4.4634 -2.0339 0.9681
7.1496 -3.2544 -2.0339 0.9681
7.6113 -1.9436 -2.0339 0.9681
7.7535 -1.2627 -2.0340 0.9681
2.1624 -5.9891 -1.8026 0.9739
3.5925 -6.2218 -2.0339 0.9706
4.1287 -5.8796 -2.0339 0.9706
4.6326 -5.4914 -2.0339 0.9706
5.1003 -5.0601 -2.0339 0.9706
5.5279 -4.5892 -2.0339 0.9706
6.2502 -3.5432 -2.0339 0.9706
6.5391 -2.9765 -2.0339 0.9706
6.7768 -2.3864 -2.0339 0.9706
0.5335 -6.5909 -2.0338 0.9727
1.1145 -6.5179 -2.0338 0.9727
1.6866 -6.3937 -2.0338 0.9727
2.7870 -5.9965 -2.0339 0.9727
3.8001 -5.4116 -2.0339 0.9727
4.2639 -5.0543 -2.0339 0.9727
4.6942 -4.6573 -2.0339 0.9727
5.7526 -3.2612 -2.0339 0.9727
6.5268 -1.0630 -2.0339 0.9727
-0.0477 -6.1184 -2.0338 0.9745
0.4937 -6.0986 -2.0338 0.9745
1.5607 -5.9162 -2.0338 0.9745
2.0779 -5.7549 -2.0339 0.9745
2.5788 -5.5486 -2.0339 0.9745
3.0595 -5.2988 -2.0339 0.9745
3.9454 -4.6768 -2.0339 0.9745
4.7078 -3.9083 -2.0339 0.9745
5.7714 -2.0324 -2.0339 0.9745
5.9286 -1.5139 -2.0339 0.9745
6.0393 -0.9836 -2.0339 0.9745
-0.5472 -5.6609 -2.0338 0.9761
-0.0443 -5.6872 -2.0338 0.9761
0.4589 -5.6688 -2.0338 0.9761
0.9585 -5.6060 -2.0338 0.9761
1.4507 -5.4993 -2.0339 0.9761
2.8439 -4.9254 -2.0339 0.9761
3.2684 -4.6545 -2.0339 0.9761
4.0375 -4.0058 -2.0339 0.9761
4.9478 -2.8049 -2.0339 0.9761
5.1765 -2.3563 -2.0339 0.9761
5.6137 -0.9142 -2.0339 0.9761
-0.0414 -5.3071 -2.0338 0.9775
0.4282 -5.2900 -2.0338 0.9775
0.8945 -5.2314 -2.0338 0.9775
1.3537 -5.1317 -2.0339 0.9775
2.2369 -4.8129 -2.0339 0.9775
2.6538 -4.5962 -2.0339 0.9775
3.4223 -4.0567 -2.0339 0.9775
4.0836 -3.3901 -2.0339 0.9775
5.1425 -1.3132 -2.0339 0.9775
-0.0388 -4.9693 -2.0338 0.9788
1.2675 -4.8051 -2.0339 0.9788
1.6877 -4.6741 -2.0339 0.9788
2.0945 -4.5065 -2.0339 0.9788
2.4849 -4.3036 -2.0339 0.9788
2.8558 -4.0669 -2.0339 0.9788
3.2044 -3.7984 -2.0339 0.9788
3.5279 -3.5000 -2.0339 0.9788
4.0895 -2.8237 -2.0339 0.9788
4.3232 -2.4508 -2.0339 0.9788
4.6875 -1.6507 -2.0339 0.9788
4.9050 -0.7988 -2.0339 0.9788
0.3766 -4.6516 -2.0339 0.9798
1.1904 -4.5124 -2.0339 0.9798
1.5848 -4.3895 -2.0339 0.9798
1.9669 -4.2321 -2.0339 0.9798
2.6819 -3.8193 -2.0339 0.9798
3.5907 -2.9809 -2.0339 0.9798
3.8404 -2.6517 -2.0339 0.9798
4.2476 -1.9334 -2.0339 0.9798
4.6063 -0.7502 -2.0339 0.9798
-0.4228 -4.3735 -2.0338 0.9808
-0.0343 -4.3937 -2.0339 0.9808
0.7405 -4.3310 -2.0339 0.9808
1.4921 -4.1328 -2.0339 0.9808
1.8519 -3.9846 -2.0339 0.9808
2.5251 -3.5959 -2.0339 0.9808
2.8333 -3.3584 -2.0339 0.9808
3.6158 -2.4966 -2.0339 0.9808
4.1446 -1.4595 -2.0339 0.9808
4.3369 -0.7063 -2.0339 0.9808
-0.0323 -4.1462 -2.0339 0.9817
0.3346 -4.1328 -2.0339 0.9817
0.6988 -4.0870 -2.0339 0.9817
1.7475 -3.7601 -2.0339 0.9817
2.3828 -3.3933 -2.0339 0.9817
2.6736 -3.1692 -2.0339 0.9817
3.6071 -2.0449 -2.0339 0.9817
3.7739 -1.7178 -2.0339 0.9817
4.0175 -1.0259 -2.0339 0.9817
4.0925 -0.6665 -2.0339 0.9817
0.6607 -3.8644 -2.0339 0.9825
1.0000 -3.7908 -2.0339 0.9825
1.6523 -3.5553 -2.0339 0.9825
1.9604 -3.3952 -2.0339 0.9825
3.2262 -2.2276 -2.0339 0.9825
3.5683 -1.6243 -2.0339 0.9825
2.1007 -0.3421 -1.1042 0.9905
0.2996 -3.7013 -2.0339 0.9832
0.6259 -3.6603 -2.0339 0.9832
0.9472 -3.5906 -2.0339 0.9832
1.2611 -3.4928 -2.0339 0.9832
1.8568 -3.2159 -2.0339 0.9832
2.3945 -2.8384 -2.0339 0.9832
2.6362 -2.6154 -2.0339 0.9832
2.8573 -2.3720 -2.0339 0.9832
3.2305 -1.8314 -2.0339 0.9832
1.9873 -0.6998 -1.1540 0.9904
1.8509 -0.3014 -1.0271 0.9915
-0.3390 -3.5064 -2.0339 0.9839
-0.0275 -3.5227 -2.0339 0.9839
0.2843 -3.5113 -2.0339 0.9839
0.8985 -3.4063 -2.0339 0.9839
1.4847 -3.1946 -2.0339 0.9839
1.7615 -3.0508 -2.0339 0.9839
2.2716 -2.6926 -2.0339 0.9839
2.5009 -2.4812 -2.0339 0.9839
2.8989 -2.0016 -2.0339 0.9839
1.7250 -0.6075 -1.0559 0.9916
1.7136 -0.4376 -1.0211 0.9919
1.7142 -0.2792 -1.0027 0.9920
