ply
format ascii 1.0
element vertex 187
property float32 x
property float32 y
property float32 z
property float32 I
end_header
2.9981 18.5336 3.3105 0.9266
-12.4084 13.1170 3.1838 0.9293
-11.8779 12.5561 2.6478 0.9324
-10.8913 13.8651 2.2960 0.9313
-11.4982 12.1547 2.1788 0.9347
2.8439 17.5808 1.9124 0.9309
-11.4943 12.1506 1.4159 0.9351
2.8368 17.5366 1.1016 0.9313
1.2980 18.8994 1.1747 0.9269
2.8005 17.3125 0.6915 0.9322
-12.8009 13.5318 0.7345 0.9281
2.9774 18.4060 -0.1050 0.9281
-1.5713 7.4880 -0.7345 0.9697
-1.5620 7.4437 -0.9035 0.9698
-2.3469 7.6236 -0.9475 0.9684
-6.5171 15.8347 -2.0340 0.9333
-9.2984 14.3784 -2.0340 0.9334
-10.5773 13.4653 -2.0340 0.9334
-11.7670 12.4388 -2.0339 0.9334
-12.8576 11.3076 -2.0339 0.9334
-13.8399 10.0812 -2.0339 0.9334
4.8414 13.5150 -2.0341 0.9437
0.9837 14.3221 -2.0341 0.9437
-1.5125 7.2077 -1.0435 0.9707
-6.6575 12.7182 -2.0340 0.9437
-8.8674 11.2887 -2.0340 0.9437
-9.8648 10.4281 -2.0339 0.9437
-10.7792 9.4798 -2.0339 0.9437
-11.6028 8.4516 -2.0339 0.9437
0.8461 12.3180 -2.0340 0.9512
-0.2868 12.3437 -2.0340 0.9512
-2.2412 7.2800 -1.2549 0.9696
-6.7045 10.3675 -2.0340 0.9512
-8.4846 8.9690 -2.0339 0.9512
-9.2710 8.1534 -2.0339 0.9512
-9.9794 7.2691 -2.0339 0.9512
4.5681 9.8103 -2.0340 0.9569
3.6495 10.1877 -2.0340 0.9569
2.7002 10.4793 -2.0340 0.9569
1.7281 10.6827 -2.0340 0.9569
0.7415 10.7961 -2.0340 0.9569
-2.2084 7.1737 -1.4108 0.9699
-4.1185 10.0069 -2.0340 0.9569
-5.0185 9.5871 -2.0340 0.9569
-5.8762 9.0866 -2.0340 0.9569
-6.6845 8.5096 -2.0339 0.9569
-7.4364 7.8610 -2.0339 0.9569
-8.1257 7.1461 -2.0339 0.9569
-8.7464 6.3711 -2.0339 0.9569
3.2451 9.0589 -2.0340 0.9614
1.5366 9.4991 -2.0340 0.9614
0.6593 9.5999 -2.0340 0.9614
-1.5400 7.3392 -1.5851 0.9698
-3.6622 8.8982 -2.0340 0.9614
-4.4625 8.5249 -2.0340 0.9614
-5.9439 7.5668 -2.0339 0.9614
-6.6125 6.9900 -2.0339 0.9614
-7.7775 5.6652 -2.0339 0.9614
-8.2640 4.9283 -2.0339 0.9614
3.6532 7.8457 -2.0340 0.9651
2.9186 8.1476 -2.0340 0.9651
-0.2010 8.6521 -2.0340 0.9651
-0.8446 7.3103 -1.7295 0.9702
-4.0136 7.6673 -2.0340 0.9651
-5.3459 6.8056 -2.0339 0.9651
-6.9950 5.0953 -2.0339 0.9651
-7.4326 4.4325 -2.0339 0.9651
2.6493 7.3956 -2.0340 0.9681
1.9601 7.6073 -2.0340 0.9681
-3.6432 6.9597 -2.0339 0.9681
-4.2658 6.5964 -2.0339 0.9681
-4.8525 6.1775 -2.0339 0.9681
-5.3984 5.7066 -2.0339 0.9681
-6.3495 4.6250 -2.0339 0.9681
-6.7467 4.0235 -2.0339 0.9681
3.0329 6.5134 -2.0340 0.9706
1.7927 6.9576 -2.0340 0.9706
1.1473 7.0927 -2.0340 0.9706
-0.1669 7.1829 -2.0340 0.9706
-0.8247 7.1373 -2.0340 0.9706
-2.7345 6.6440 -2.0340 0.9706
-5.3950 4.7446 -2.0339 0.9706
2.7914 5.9949 -2.0340 0.9727
-0.1536 6.6111 -2.0340 0.9727
-0.7590 6.5691 -2.0340 0.9727
-1.3580 6.4719 -2.0340 0.9727
-1.9456 6.3201 -2.0340 0.9727
-2.5168 6.1151 -2.0339 0.9727
-4.5443 4.8038 -2.0339 0.9727
-4.9655 4.3670 -2.0339 0.9727
-5.3450 3.8933 -2.0339 0.9727
-5.6793 3.3869 -2.0339 0.9727
2.5829 5.5471 -2.0340 0.9745
2.0636 5.7605 -2.0340 0.9745
1.5267 5.9254 -2.0340 0.9745
0.4193 6.1046 -2.0340 0.9745
-0.1421 6.1173 -2.0340 0.9745
-0.7023 6.0785 -2.0340 0.9745
-2.3288 5.6584 -2.0339 0.9745
-3.3227 5.1380 -2.0339 0.9745
-3.7797 4.8118 -2.0339 0.9745
-4.2049 4.4450 -2.0339 0.9745
-4.5946 4.0408 -2.0339 0.9745
-4.9457 3.6025 -2.0339 0.9745
-5.2552 3.1340 -2.0339 0.9745
1.9182 5.3546 -2.0340 0.9761
1.4191 5.5078 -2.0340 0.9761
-0.6529 5.6501 -2.0340 0.9761
-1.1680 5.5664 -2.0340 0.9761
-2.1647 5.2596 -2.0339 0.9761
-4.2709 3.7560 -2.0339 0.9761
-4.5972 3.3487 -2.0339 0.9761
-4.8848 2.9131 -2.0339 0.9761
2.2405 4.8115 -2.0340 0.9775
1.7899 4.9967 -2.0340 0.9775
1.3243 5.1397 -2.0340 0.9775
0.8476 5.2395 -2.0340 0.9775
-0.6092 5.2725 -2.0340 0.9775
-1.0900 5.1944 -2.0339 0.9775
-2.0200 4.9080 -2.0339 0.9775
-2.8821 4.4568 -2.0339 0.9775
-3.2786 4.1737 -2.0339 0.9775
-3.9854 3.5050 -2.0339 0.9775
-4.5583 2.7184 -2.0339 0.9775
-1.0205 4.8637 -2.0339 0.9788
-1.8914 4.5956 -2.0339 0.9788
-2.6986 4.1730 -2.0339 0.9788
-3.0698 3.9080 -2.0339 0.9788
-4.0168 2.9259 -2.0339 0.9788
-4.2682 2.5454 -2.0339 0.9788
1.1645 4.5194 -2.0340 0.9798
0.7453 4.6071 -2.0340 0.9798
-0.5356 4.6361 -2.0339 0.9798
-0.9584 4.5675 -2.0339 0.9798
-1.3731 4.4604 -2.0339 0.9798
-1.7762 4.3157 -2.0339 0.9798
-2.1644 4.1347 -2.0339 0.9798
-2.5343 3.9188 -2.0339 0.9798
-3.2071 3.3903 -2.0339 0.9798
-3.7722 2.7477 -2.0339 0.9798
1.4818 4.1367 -2.0340 0.9808
1.0964 4.2551 -2.0340 0.9808
0.7017 4.3377 -2.0340 0.9808
0.3011 4.3837 -2.0340 0.9808
-0.5044 4.3650 -2.0339 0.9808
-1.2928 4.1995 -2.0339 0.9808
-2.7143 3.4554 -2.0339 0.9808
-3.7738 2.2506 -2.0339 0.9808
1.3984 3.9036 -2.0340 0.9817
1.0346 4.0154 -2.0340 0.9817
0.2841 4.1367 -2.0339 0.9817
-0.8516 4.0580 -2.0339 0.9817
-2.5614 3.2607 -2.0339 0.9817
-2.8495 3.0122 -2.0339 0.9817
-3.1136 2.7383 -2.0339 0.9817
-3.3515 2.4413 -2.0339 0.9817
-3.5612 2.1238 -2.0339 0.9817
1.6550 3.5542 -2.0340 0.9825
0.9782 3.7966 -2.0340 0.9825
0.6261 3.8703 -2.0339 0.9825
-0.0911 3.9196 -2.0339 0.9825
-0.4500 3.8947 -2.0339 0.9825
-2.9440 2.5891 -2.0339 0.9825
-3.1689 2.3083 -2.0339 0.9825
-3.3672 2.0081 -2.0339 0.9825
1.5676 3.3665 -2.0340 0.9832
1.2523 3.4960 -2.0340 0.9832
0.2545 3.7048 -2.0339 0.9832
-0.4262 3.6890 -2.0339 0.9832
-0.7627 3.6344 -2.0339 0.9832
-1.0926 3.5492 -2.0339 0.9832
-1.7222 3.2900 -2.0339 0.9832
-2.2939 2.9203 -2.0339 0.9832
-2.5520 2.6977 -2.0339 0.9832
-2.7886 2.4524 -2.0339 0.9832
-3.0016 2.1864 -2.0339 0.9832
1.4871 3.1936 -2.0339 0.9839
0.5626 3.4777 -2.0339 0.9839
-0.4043 3.4996 -2.0339 0.9839
-0.7234 3.4478 -2.0339 0.9839
-1.0365 3.3669 -2.0339 0.9839
-1.3407 3.2577 -2.0339 0.9839
-1.6337 3.1211 -2.0339 0.9839
-1.9130 2.9582 -2.0339 0.9839
-2.1762 2.7703 -2.0339 0.9839
-2.4209 2.5592 -2.0339 0.9839
-3.0257 1.8044 -2.0339 0.9839
