ply
format ascii 1.0
element vertex 176
property float32 x
property float32 y
property float32 z
property float32 I
end_header
-11.8466 -8.2642 -0.7325 0.9438
-11.4605 -7.9948 -1.3415 0.9454
-17.1201 0.1908 -2.0338 0.9334
-15.5484 -7.1665 -2.0337 0.9334
-11.3570 -7.9226 -1.6449 0.9457
-13.1195 -10.9994 -2.0337 0.9334
-8.4866 -14.8689 -2.0337 0.9334
-4.2824 -16.5763 -2.0337 0.9334
-1.2931 -17.0718 -2.0337 0.9334
-14.3107 -1.1108 -2.0338 0.9437
-14.1561 -2.3728 -2.0338 0.9437
-13.0354 -6.0082 -2.0337 0.9437
-11.7719 -8.2121 -2.0337 0.9437
-10.9991 -9.2216 -2.0337 0.9437
-10.1398 -10.1588 -2.0337 0.9437
-9.2011 -11.0162 -2.0337 0.9437
-8.1901 -11.7871 -2.0337 0.9437
-5.9839 -13.0464 -2.0337 0.9437
-3.5902 -13.8971 -2.0337 0.9437
-2.3463 -14.1603 -2.0337 0.9437
-12.3084 -0.9554 -2.0338 0.9512
-12.1755 -2.0408 -2.0338 0.9512
-11.9471 -3.1103 -2.0338 0.9512
-10.7103 -6.1395 -2.0337 0.9512
-10.1250 -7.0632 -2.0337 0.9512
-8.7212 -8.7375 -2.0337 0.9512
-10.8197 0.1206 -2.0338 0.9569
-10.7879 -0.8373 -2.0338 0.9569
-10.1889 -3.6419 -2.0338 0.9569
-9.8266 -4.5292 -2.0338 0.9569
-8.2916 -6.9516 -2.0338 0.9569
-7.6438 -7.6581 -2.0337 0.9569
-5.3635 -9.3972 -2.0337 0.9569
-4.5109 -9.8350 -2.0338 0.9569
-3.6229 -10.1956 -2.0338 0.9569
-1.7687 -10.6746 -2.0338 0.9569
-9.6210 0.1072 -2.0338 0.9614
-9.3111 -2.4240 -2.0338 0.9614
-9.0601 -3.2385 -2.0338 0.9614
-7.8911 -5.5048 -2.0338 0.9614
-6.1677 -7.3845 -2.0338 0.9614
-2.4066 -9.3156 -2.0338 0.9614
-1.5728 -9.4920 -2.0338 0.9614
-8.6277 -0.6697 -2.0338 0.9651
-5.5473 -6.6416 -2.0338 0.9651
-4.9378 -7.1065 -2.0338 0.9651
-4.2896 -7.5156 -2.0338 0.9651
-2.1645 -8.3785 -2.0338 0.9651
-0.6536 -8.6289 -2.0338 0.9651
-7.8546 0.0875 -2.0338 0.9681
-7.7470 -1.2985 -2.0338 0.9681
-7.3967 -2.6439 -2.0338 0.9681
-7.1337 -3.2881 -2.0338 0.9681
-6.4423 -4.4942 -2.0338 0.9681
-5.0354 -6.0287 -2.0338 0.9681
-1.9648 -7.6053 -2.0338 0.9681
-7.1628 -0.5560 -2.0338 0.9706
-7.0854 -1.1876 -2.0338 0.9706
-6.9525 -1.8100 -2.0338 0.9706
-6.7651 -2.4181 -2.0338 0.9706
-5.5054 -4.6157 -2.0338 0.9706
-4.0994 -5.8999 -2.0338 0.9706
-2.4055 -6.7696 -2.0338 0.9706
-1.1744 -7.0877 -2.0338 0.9706
-6.6120 0.0737 -2.0338 0.9727
-6.3991 -1.6659 -2.0338 0.9727
-6.0051 -2.7679 -2.0338 0.9727
-5.7366 -3.2884 -2.0338 0.9727
-4.6713 -4.6800 -2.0338 0.9727
-3.2777 -5.7428 -2.0338 0.9727
-2.7567 -6.0103 -2.0338 0.9727
-2.2140 -6.2307 -2.0338 0.9727
-1.6539 -6.4022 -2.0338 0.9727
-0.4994 -6.5935 -2.0338 0.9727
-6.1182 0.0682 -2.0338 0.9745
-6.1002 -0.4735 -2.0338 0.9745
-6.0343 -1.0115 -2.0338 0.9745
-5.5566 -2.5612 -2.0338 0.9745
-5.3082 -3.0429 -2.0338 0.9745
-5.0181 -3.5006 -2.0338 0.9745
-4.3224 -4.3304 -2.0338 0.9745
-2.0486 -5.7653 -2.0338 0.9745
-0.4621 -6.1011 -2.0338 0.9745
-5.6091 -0.9402 -2.0338 0.9761
-5.3555 -1.9143 -2.0338 0.9761
-5.1651 -2.3807 -2.0338 0.9761
-4.9341 -2.8284 -2.0338 0.9761
-4.6645 -3.2539 -2.0338 0.9761
-3.6458 -4.3651 -2.0338 0.9761
-3.2452 -4.6705 -2.0338 0.9761
-2.8192 -4.9394 -2.0338 0.9761
-0.9297 -5.6108 -2.0338 0.9761
-5.3070 0.0592 -2.0339 0.9775
-5.2914 -0.4107 -2.0339 0.9775
-5.2343 -0.8773 -2.0338 0.9775
-5.1361 -1.3371 -2.0338 0.9775
-4.9976 -1.7863 -2.0338 0.9775
-4.0670 -3.4097 -2.0338 0.9775
-3.7493 -3.7563 -2.0338 0.9775
-3.4022 -4.0733 -2.0338 0.9775
-3.0284 -4.3584 -2.0338 0.9775
-2.6308 -4.6093 -2.0338 0.9775
-1.3275 -5.1386 -2.0338 0.9775
-0.8676 -5.2359 -2.0338 0.9775
-0.4009 -5.2921 -2.0338 0.9775
-2.1220 0.0236 -0.8685 0.9909
-2.1191 -0.1645 -0.8699 0.9909
-2.1173 -0.3549 -0.8787 0.9908
-4.5130 -2.0802 -2.0338 0.9788
-4.0756 -2.8432 -2.0338 0.9788
-3.8080 -3.1927 -2.0338 0.9788
-3.5106 -3.5171 -2.0338 0.9788
-3.1856 -3.8140 -2.0338 0.9788
-2.8356 -4.0810 -2.0338 0.9788
-1.6639 -4.6826 -2.0338 0.9788
-1.2430 -4.8114 -2.0338 0.9788
-0.8123 -4.9025 -2.0338 0.9788
-0.3754 -4.9552 -2.0338 0.9788
-1.9185 0.0213 -0.8362 0.9917
-1.9149 -0.1487 -0.8371 0.9917
-1.9050 -0.3193 -0.8418 0.9916
-1.9430 -0.5059 -0.8750 0.9913
-4.3945 -1.5708 -2.0338 0.9798
-4.0487 -2.3209 -2.0338 0.9798
-3.5762 -2.9982 -2.0338 0.9798
-2.9916 -3.5817 -2.0338 0.9798
-1.5626 -4.3974 -2.0338 0.9798
-0.7629 -4.6040 -2.0338 0.9798
-0.3525 -4.6534 -2.0338 0.9798
-1.5724 0.0175 -0.7279 0.9931
-1.6018 -0.1244 -0.7437 0.9929
-1.6112 -0.2701 -0.7562 0.9928
-3.9904 -1.8392 -2.0338 0.9808
-3.8120 -2.1851 -2.0338 0.9808
-3.1040 -3.1098 -2.0338 0.9808
-2.8166 -3.3723 -2.0338 0.9808
-1.8318 -3.9938 -2.0338 0.9808
-1.4712 -4.1402 -2.0338 0.9808
-0.7183 -4.3348 -2.0338 0.9808
-1.3125 -0.3417 -0.6653 0.9940
-1.2668 -0.4529 -0.6599 0.9940
-3.5972 -2.0620 -2.0338 0.9817
-3.1773 -2.6639 -2.0338 0.9817
-2.9291 -2.9346 -2.0338 0.9817
-1.7286 -3.7688 -2.0338 0.9817
-1.0371 -4.0145 -2.0338 0.9817
-0.6778 -4.0905 -2.0338 0.9817
-1.1938 0.0133 -0.6194 0.9946
-1.1899 -0.1995 -0.6259 0.9946
-1.1332 -0.4051 -0.6243 0.9946
-3.5605 -1.6411 -2.0339 0.9825
-2.7696 -2.7747 -2.0338 0.9825
-2.5132 -3.0090 -2.0338 0.9825
-1.9434 -3.4049 -2.0338 0.9825
-1.6345 -3.5635 -2.0338 0.9825
-1.3127 -3.6942 -2.0338 0.9825
-0.9806 -3.7959 -2.0338 0.9825
-1.0683 -0.1791 -0.5933 0.9951
-1.0244 -0.3662 -0.5958 0.9951
-2.8456 -2.3858 -2.0338 0.9832
-2.3804 -2.8501 -2.0338 0.9832
-2.1189 -3.0495 -2.0338 0.9832
-1.8407 -3.2251 -2.0338 0.9832
-1.2434 -3.4991 -2.0339 0.9832
-0.2805 -3.7029 -2.0339 0.9832
-0.9804 -0.1644 -0.5739 0.9954
-0.9608 -0.2502 -0.5732 0.9954
-0.9228 -0.4254 -0.5866 0.9953
-1.1596 -0.6648 -0.7717 0.9938
-2.8892 -2.0155 -2.0339 0.9839
-2.6995 -2.2633 -2.0339 0.9839
-2.2582 -2.7037 -2.0339 0.9839
-1.7462 -3.0595 -2.0339 0.9839
-1.4686 -3.2020 -2.0339 0.9839
-0.8812 -3.4108 -2.0339 0.9839
-0.5759 -3.4754 -2.0339 0.9839
