ply
format ascii 1.0
element vertex 263
property float32 x
property float32 y
property float32 z
property float32 I
end_header
2.7852 -6.1149 -0.6451 0.9734
-12.4691 -11.7315 -2.0337 0.9334
-11.3795 -12.7912 -2.0337 0.9334
-10.2002 -13.7500 -2.0337 0.9334
-8.9406 -14.6004 -2.0337 0.9334
-7.6105 -15.3358 -2.0337 0.9334
-4.7814 -16.4393 -2.0337 0.9334
-3.3046 -16.7986 -2.0337 0.9334
-1.8018 -17.0256 -2.0337 0.9334
2.2827 -6.4822 -0.8163 0.9727
2.7270 -5.9874 -0.7815 0.9738
9.7383 -14.0827 -2.0338 0.9334
12.0734 -12.1409 -2.0339 0.9334
13.1027 -11.0224 -2.0339 0.9334
14.0288 -9.8170 -2.0339 0.9334
14.8443 -8.5342 -2.0339 0.9334
15.5429 -7.1841 -2.0340 0.9334
-9.5403 -10.7237 -2.0337 0.9437
-8.5516 -11.5275 -2.0337 0.9437
-7.4956 -12.2406 -2.0337 0.9437
-6.3804 -12.8571 -2.0337 0.9437
-2.7705 -14.0835 -2.0337 0.9437
1.0352 -14.3162 -2.0337 0.9437
2.3007 -14.1681 -2.0338 0.9437
1.6771 -6.5740 -0.9613 0.9730
7.0849 -12.4838 -2.0338 0.9437
9.1792 -11.0359 -2.0339 0.9437
10.1218 -10.1784 -2.0339 0.9437
10.9847 -9.2407 -2.0339 0.9437
12.4448 -7.1547 -2.0339 0.9437
13.0304 -6.0229 -2.0339 0.9437
-8.9912 -8.4593 -2.0337 0.9512
-8.2055 -9.2235 -2.0337 0.9512
-7.3552 -9.9148 -2.0337 0.9512
-6.4469 -10.5280 -2.0337 0.9512
-5.4878 -11.0584 -2.0337 0.9512
-4.4854 -11.5015 -2.0337 0.9512
-0.2052 -12.3437 -2.0338 0.9512
0.8903 -12.3133 -2.0338 0.9512
1.6373 -6.4182 -1.0912 0.9735
2.1170 -6.0118 -1.0500 0.9745
2.6718 -5.8660 -1.0619 0.9742
7.0219 -10.1545 -2.0338 0.9512
7.8949 -9.4918 -2.0339 0.9512
8.7056 -8.7543 -2.0339 0.9512
9.4478 -7.9477 -2.0339 0.9512
10.1155 -7.0786 -2.0339 0.9512
10.7035 -6.1536 -2.0339 0.9512
11.2072 -5.1801 -2.0339 0.9512
-7.1919 -8.0840 -2.0337 0.9569
-6.4466 -8.6900 -2.0337 0.9569
-5.6505 -9.2275 -2.0337 0.9569
-4.8098 -9.6923 -2.0338 0.9569
-3.9313 -10.0806 -2.0338 0.9569
-3.0218 -10.3896 -2.0338 0.9569
-2.0884 -10.6167 -2.0338 0.9569
-1.1387 -10.7601 -2.0338 0.9569
0.7803 -10.7921 -2.0338 0.9569
1.5952 -6.2528 -1.2129 0.9741
2.6040 -5.7172 -1.1808 0.9748
3.6336 -6.4026 -1.3837 0.9705
6.1544 -8.9000 -2.0339 0.9569
6.9195 -8.3191 -2.0339 0.9569
7.6301 -7.6727 -2.0339 0.9569
8.8658 -6.2040 -2.0339 0.9569
9.3811 -5.3933 -2.0339 0.9569
9.8225 -4.5401 -2.0339 0.9569
-6.3951 -7.1884 -2.0338 0.9614
-4.2770 -8.6185 -2.0338 0.9614
-3.4958 -8.9638 -2.0338 0.9614
-2.6871 -9.2386 -2.0338 0.9614
-1.0125 -9.5680 -2.0338 0.9614
-0.1600 -9.6202 -2.0338 0.9614
1.5422 -9.4972 -2.0338 0.9614
1.5881 -6.2251 -1.3580 0.9741
2.6193 -5.7509 -1.3358 0.9745
7.3632 -6.1941 -2.0339 0.9614
8.3417 -4.7958 -2.0339 0.9614
8.7343 -4.0371 -2.0339 0.9614
-6.3025 -5.9297 -2.0338 0.9651
-5.7518 -6.4653 -2.0338 0.9651
-5.1557 -6.9499 -2.0338 0.9651
-4.5191 -7.3798 -2.0338 0.9651
-1.6703 -8.4909 -2.0338 0.9651
-0.9107 -8.6056 -2.0338 0.9651
-0.1439 -8.6524 -2.0338 0.9651
0.6241 -8.6312 -2.0338 0.9651
1.5277 -5.9885 -1.4525 0.9749
2.0111 -5.7108 -1.4230 0.9754
2.6512 -5.8208 -1.5032 0.9741
3.2728 -5.7668 -1.5584 0.9731
6.1022 -6.1363 -2.0339 0.9651
6.6224 -5.5710 -2.0339 0.9651
7.0904 -4.9617 -2.0339 0.9651
7.5026 -4.3133 -2.0339 0.9651
7.8556 -3.6310 -2.0339 0.9651
-5.2211 -5.8687 -2.0338 0.9681
-3.4918 -7.0362 -2.0338 0.9681
-2.1937 -7.5425 -2.0338 0.9681
-1.5162 -7.7073 -2.0338 0.9681
-0.1306 -7.8540 -2.0338 0.9681
1.2591 -7.7535 -2.0338 0.9681
3.3390 -5.8834 -1.7515 0.9724
5.0232 -6.0393 -2.0339 0.9681
5.5391 -5.5700 -2.0339 0.9681
6.0113 -5.0569 -2.0339 0.9681
6.4361 -4.5038 -2.0339 0.9681
-5.2324 -4.9229 -2.0338 0.9706
-4.7752 -5.3676 -2.0338 0.9706
-4.2804 -5.7699 -2.0338 0.9706
-3.7518 -6.1268 -2.0338 0.9706
-2.0064 -6.8984 -2.0338 0.9706
-1.3867 -7.0492 -2.0338 0.9706
-0.1195 -7.1833 -2.0338 0.9706
0.5181 -7.1656 -2.0338 0.9706
1.5361 -6.0214 -1.7592 0.9745
2.1191 -6.0177 -1.8061 0.9738
2.9779 -6.5382 -2.0339 0.9706
4.0863 -5.9092 -2.0339 0.9706
4.5943 -5.5236 -2.0339 0.9706
5.0661 -5.0944 -2.0339 0.9706
5.4979 -4.6250 -2.0339 0.9706
-4.8159 -4.5310 -2.0338 0.9727
-4.3951 -4.9403 -2.0338 0.9727
-3.4531 -5.6391 -2.0338 0.9727
-2.9394 -5.9231 -2.0338 0.9727
-2.4025 -6.1604 -2.0338 0.9727
-1.8467 -6.3493 -2.0338 0.9727
1.6346 -6.4072 -2.0338 0.9727
2.1048 -5.9771 -1.9491 0.9738
2.7409 -6.0177 -2.0339 0.9727
3.2638 -5.7509 -2.0339 0.9727
4.2285 -5.0838 -2.0339 0.9727
5.0602 -4.2568 -2.0339 0.9727
5.7328 -3.2959 -2.0339 0.9727
6.0025 -2.7745 -2.0339 0.9727
-4.4562 -4.1926 -2.0338 0.9745
-4.0668 -4.5713 -2.0338 0.9745
-2.2230 -5.7004 -2.0338 0.9745
-1.1810 -6.0035 -2.0338 0.9745
-0.6439 -6.0846 -2.0338 0.9745
-0.1017 -6.1177 -2.0338 0.9745
0.4412 -6.1026 -2.0338 0.9745
0.9807 -6.0395 -2.0338 0.9745
2.0323 -5.7712 -2.0339 0.9745
3.0200 -5.3214 -2.0339 0.9745
3.4801 -5.0326 -2.0339 0.9745
3.9127 -4.7041 -2.0339 0.9745
4.3145 -4.3386 -2.0339 0.9745
4.6823 -3.9389 -2.0339 0.9745
5.0132 -3.5081 -2.0339 0.9745
5.3046 -3.0497 -2.0339 0.9745
5.5542 -2.5672 -2.0339 0.9745
-2.5282 -5.0945 -2.0338 0.9761
-2.0664 -5.2986 -2.0338 0.9761
-1.5884 -5.4610 -2.0338 0.9761
-1.0977 -5.5804 -2.0338 0.9761
-0.5985 -5.6558 -2.0338 0.9761
0.4101 -5.6726 -2.0338 0.9761
0.9116 -5.6138 -2.0338 0.9761
2.8072 -4.9464 -2.0339 0.9761
3.2348 -4.6779 -2.0339 0.9761
3.6370 -4.3726 -2.0339 0.9761
5.1628 -2.3863 -2.0339 0.9761
-3.8654 -3.6367 -2.0338 0.9775
-3.5276 -3.9652 -2.0338 0.9775
-3.1620 -4.2624 -2.0338 0.9775
-1.9283 -4.9446 -2.0338 0.9775
-1.4822 -5.0961 -2.0338 0.9775
-1.0244 -5.2075 -2.0338 0.9775
-0.5585 -5.2778 -2.0338 0.9775
0.3827 -5.2935 -2.0338 0.9775
0.8507 -5.2387 -2.0338 0.9775
1.3119 -5.1426 -2.0339 0.9775
1.7629 -5.0060 -2.0339 0.9775
2.6196 -4.6158 -2.0339 0.9775
3.0187 -4.3653 -2.0339 0.9775
3.3939 -4.0804 -2.0339 0.9775
3.7424 -3.7634 -2.0339 0.9775
4.6013 -2.6453 -2.0339 0.9775
4.8178 -2.2269 -2.0339 0.9775
-3.6193 -3.4052 -2.0338 0.9788
-3.3031 -3.7128 -2.0338 0.9788
-2.9608 -3.9911 -2.0338 0.9788
-2.5951 -4.2379 -2.0338 0.9788
-2.2090 -4.4514 -2.0338 0.9788
-1.8055 -4.6298 -2.0338 0.9788
-0.0826 -4.9687 -2.0338 0.9788
0.3583 -4.9565 -2.0338 0.9788
1.6506 -4.6873 -2.0339 0.9788
2.0598 -4.5224 -2.0339 0.9788
3.5041 -3.5237 -2.0339 0.9788
3.8028 -3.1991 -2.0339 0.9788
4.3083 -2.4769 -2.0339 0.9788
-3.1019 -3.4867 -2.0338 0.9798
-1.3033 -4.4811 -2.0338 0.9798
-0.9008 -4.5790 -2.0338 0.9798
0.7480 -4.6064 -2.0339 0.9798
1.5501 -4.4018 -2.0339 0.9798
3.5713 -3.0043 -2.0339 0.9798
4.0459 -2.3261 -2.0339 0.9798
4.2363 -1.9581 -2.0339 0.9798
-2.2946 -3.7471 -2.0338 0.9808
-1.9532 -3.9359 -2.0338 0.9808
-1.5964 -4.0936 -2.0338 0.9808
-0.8481 -4.3112 -2.0338 0.9808
-0.4624 -4.3695 -2.0338 0.9808
0.3168 -4.3825 -2.0339 0.9808
1.0862 -4.2575 -2.0339 0.9808
1.4594 -4.1444 -2.0339 0.9808
1.8213 -3.9987 -2.0339 0.9808
2.1687 -3.8214 -2.0339 0.9808
3.3625 -2.8286 -2.0339 0.9808
3.6001 -2.5192 -2.0339 0.9808
3.9886 -1.8436 -2.0339 0.9808
-3.0198 -2.8412 -2.0338 0.9817
-1.8432 -3.7141 -2.0338 0.9817
-0.8003 -4.0683 -2.0338 0.9817
0.2990 -4.1355 -2.0339 0.9817
1.3772 -3.9109 -2.0339 0.9817
1.7186 -3.7734 -2.0339 0.9817
2.0466 -3.6061 -2.0339 0.9817
2.9237 -2.9401 -2.0339 0.9817
3.1730 -2.6692 -2.0339 0.9817
3.3973 -2.3773 -2.0339 0.9817
3.7638 -1.7397 -2.0339 0.9817
-2.8553 -2.6865 -2.0338 0.9825
-2.6059 -2.9291 -2.0338 0.9825
-2.3358 -3.1487 -2.0338 0.9825
-1.7428 -3.5118 -2.0338 0.9825
0.2827 -3.9103 -2.0339 0.9825
0.6284 -3.8698 -2.0339 0.9825
0.9691 -3.7988 -2.0339 0.9825
1.6250 -3.5679 -2.0339 0.9825
1.9351 -3.4097 -2.0339 0.9825
2.2298 -3.2246 -2.0339 0.9825
2.5070 -3.0142 -2.0339 0.9825
3.2122 -2.2478 -2.0339 0.9825
3.3989 -1.9541 -2.0339 0.9825
3.5588 -1.6449 -2.0339 0.9825
-2.4682 -2.7744 -2.0338 0.9832
-2.2125 -2.9824 -2.0338 0.9832
-0.3908 -3.6928 -2.0339 0.9832
0.2678 -3.7038 -2.0339 0.9832
0.5952 -3.6654 -2.0339 0.9832
0.9179 -3.5982 -2.0339 0.9832
1.8329 -3.2296 -2.0339 0.9832
2.3747 -2.8550 -2.0339 0.9832
3.2194 -1.8509 -2.0339 0.9832
3.3709 -1.5581 -2.0339 0.9832
-1.8397 -3.0042 -2.0339 0.9839
-1.5659 -3.1555 -2.0339 0.9839
-1.2800 -3.2820 -2.0339 0.9839
-0.9838 -3.3826 -2.0339 0.9839
-0.6800 -3.4565 -2.0339 0.9839
-0.0586 -3.5223 -2.0339 0.9839
0.5646 -3.4772 -2.0339 0.9839
0.8708 -3.4135 -2.0339 0.9839
1.7387 -3.0638 -2.0339 0.9839
2.0037 -2.8975 -2.0339 0.9839
2.2528 -2.7084 -2.0339 0.9839
2.4841 -2.4979 -2.0339 0.9839
2.6958 -2.2678 -2.0339 0.9839
