ply
format ascii 1.0
element vertex 187
property float32 x
property float32 y
property float32 z
property float32 I
end_header
-17.0571 1.4816 -2.0338 0.9334
-17.1211 -0.0602 -2.0338 0.9334
-17.0459 -1.6014 -2.0337 0.9334
-16.8324 -3.1296 -2.0337 0.9334
-15.3841 -7.5130 -2.0337 0.9334
-13.0382 -7.8947 -1.8105 0.9404
-11.2357 -8.2718 -1.6573 0.9453
-12.8172 -11.3502 -2.0337 0.9334
-11.7432 -12.4581 -2.0337 0.9334
-10.5739 -13.4648 -2.0337 0.9334
-9.3186 -14.3621 -2.0337 0.9334
-5.1425 -16.3299 -2.0337 0.9334
-14.3001 1.2421 -2.0338 0.9437
-14.3536 -0.0504 -2.0338 0.9437
-14.1118 -2.6237 -2.0338 0.9437
-13.8181 -3.8837 -2.0337 0.9437
-12.8975 -6.2987 -2.0337 0.9437
-10.7456 -9.5157 -2.0337 0.9437
-8.8648 -11.2885 -2.0337 0.9437
-5.5264 -13.2467 -2.0337 0.9437
-4.3113 -13.6905 -2.0337 0.9437
-12.2993 1.0683 -2.0338 0.9512
-12.1374 -2.2567 -2.0338 0.9512
-11.5358 -4.3967 -2.0338 0.9512
-8.4678 -8.9833 -2.0337 0.9512
-7.6246 -9.7092 -2.0337 0.9512
-5.7597 -10.9191 -2.0337 0.9512
-4.7533 -11.3934 -2.0337 0.9512
-3.7082 -11.7751 -2.0337 0.9512
-2.6329 -12.0612 -2.0337 0.9512
-10.7798 0.9363 -2.0338 0.9569
-10.4167 -2.9276 -2.0338 0.9569
-9.7226 -4.7482 -2.0338 0.9569
-9.2556 -5.6043 -2.0338 0.9569
-8.1004 -7.1733 -2.0338 0.9569
-7.4218 -7.8735 -2.0337 0.9569
-6.6827 -8.5097 -2.0337 0.9569
-5.8894 -9.0768 -2.0337 0.9569
-3.2500 -10.3205 -2.0338 0.9569
-9.5855 0.8326 -2.0338 0.9614
-9.4594 -1.7588 -2.0338 0.9614
-8.2302 -4.9835 -2.0338 0.9614
-7.2030 -6.3787 -2.0338 0.9614
-6.5995 -7.0013 -2.0338 0.9614
-5.9423 -7.5670 -2.0338 0.9614
-4.4889 -8.5100 -2.0338 0.9614
-2.8900 -9.1771 -2.0338 0.9614
-8.6213 0.7488 -2.0338 0.9651
-8.6157 -0.8094 -2.0338 0.9651
-7.7759 -3.7975 -2.0338 0.9651
-7.4023 -4.4822 -2.0338 0.9651
-6.4785 -5.7370 -2.0338 0.9651
-5.9356 -6.2970 -2.0338 0.9651
-5.3446 -6.8058 -2.0338 0.9651
-4.7102 -7.2594 -2.0338 0.9651
-2.5993 -8.2540 -2.0338 0.9651
-7.8550 -0.0276 -2.0338 0.9681
-7.8206 -0.7347 -2.0338 0.9681
-7.5621 -2.1254 -2.0338 0.9681
-7.3400 -2.7976 -2.0338 0.9681
-7.0583 -3.4471 -2.0338 0.9681
-6.7193 -4.0686 -2.0338 0.9681
-6.3257 -4.6570 -2.0338 0.9681
-5.8806 -5.2076 -2.0338 0.9681
-4.8514 -6.1778 -2.0338 0.9681
-4.2755 -6.5895 -2.0338 0.9681
-3.6648 -6.9477 -2.0338 0.9681
-2.3595 -7.4923 -2.0338 0.9681
-1.6753 -7.6743 -2.0338 0.9681
-7.1574 0.6217 -2.0338 0.9706
-7.1528 -0.6720 -2.0338 0.9706
-6.7132 -2.5587 -2.0338 0.9706
-6.1455 -3.7211 -2.0338 0.9706
-5.7855 -4.2593 -2.0338 0.9706
-5.3785 -4.7629 -2.0338 0.9706
-4.9278 -5.2278 -2.0338 0.9706
-4.4371 -5.6502 -2.0338 0.9706
-3.9104 -6.0268 -2.0338 0.9706
-2.7662 -6.6304 -2.0338 0.9706
-1.5322 -7.0190 -2.0338 0.9706
-6.5876 0.5722 -2.0339 0.9727
-6.6124 -0.0233 -2.0338 0.9727
-6.1788 -2.3550 -2.0338 0.9727
-5.9416 -2.9017 -2.0338 0.9727
-5.6563 -3.4249 -2.0338 0.9727
-3.5991 -5.5470 -2.0338 0.9727
-3.0850 -5.8485 -2.0338 0.9727
-2.5459 -6.1026 -2.0338 0.9727
-1.4102 -6.4603 -2.0338 0.9727
-6.0956 0.5295 -2.0339 0.9745
-6.1185 -0.0215 -2.0338 0.9745
-6.0918 -0.5723 -2.0338 0.9745
-5.8903 -1.6555 -2.0338 0.9745
-5.4979 -2.6850 -2.0338 0.9745
-5.2339 -3.1691 -2.0338 0.9745
-4.5806 -4.0563 -2.0338 0.9745
-3.7789 -4.8121 -2.0338 0.9745
-3.3303 -5.1327 -2.0338 0.9745
-1.8379 -5.8360 -2.0338 0.9745
-1.3049 -5.9778 -2.0338 0.9745
-4.5800 -3.3718 -2.0338 0.9761
-3.9011 -4.1385 -2.0338 0.9761
-3.5126 -4.4729 -2.0338 0.9761
-3.0956 -4.7710 -2.0338 0.9761
-2.6535 -5.0304 -2.0338 0.9761
-2.1898 -5.2489 -2.0338 0.9761
-1.7084 -5.4247 -2.0338 0.9761
-1.2130 -5.5565 -2.0338 0.9761
-5.3073 -0.0187 -2.0339 0.9775
-5.1093 -1.4360 -2.0338 0.9775
-4.7689 -2.3290 -2.0338 0.9775
-4.5398 -2.7489 -2.0338 0.9775
-4.2739 -3.1465 -2.0338 0.9775
-3.9733 -3.5185 -2.0338 0.9775
-3.6404 -3.8620 -2.0338 0.9775
-3.2778 -4.1740 -2.0338 0.9775
-1.5941 -5.0622 -2.0338 0.9775
-2.1158 -0.1988 -0.8698 0.9909
-2.1204 -0.3943 -0.8827 0.9907
-4.7840 -1.3446 -2.0338 0.9788
-4.6435 -1.7698 -2.0338 0.9788
-4.4653 -2.1807 -2.0338 0.9788
-4.0018 -2.9462 -2.0338 0.9788
-2.7048 -4.1688 -2.0338 0.9788
-1.9134 -4.5863 -2.0338 0.9788
-1.0598 -4.8550 -2.0338 0.9788
-1.9120 -0.1796 -0.8369 0.9917
-1.9052 -0.3543 -0.8445 0.9916
-4.3607 -1.6621 -2.0338 0.9798
-4.1934 -2.0479 -2.0338 0.9798
-3.9920 -2.4171 -2.0338 0.9798
-2.8823 -3.6703 -2.0338 0.9798
-2.5402 -3.9149 -2.0338 0.9798
-2.1773 -4.1277 -2.0338 0.9798
-1.7968 -4.3070 -2.0338 0.9798
-0.9953 -4.5594 -2.0338 0.9798
-1.6042 0.1393 -0.7454 0.9929
-1.6057 -0.1509 -0.7465 0.9929
-1.6059 -0.2986 -0.7561 0.9928
-4.1057 -1.5649 -2.0338 0.9808
-3.7586 -2.2758 -2.0338 0.9808
-3.5383 -2.6050 -2.0338 0.9808
-3.2894 -2.9130 -2.0338 0.9808
-2.7137 -3.4556 -2.0338 0.9808
-2.0500 -3.8863 -2.0338 0.9808
-1.6918 -4.0551 -2.0338 0.9808
-1.3198 -4.1910 -2.0338 0.9808
-1.3533 0.1175 -0.6663 0.9940
-1.3359 -0.0047 -0.6553 0.9941
-1.3535 -0.1272 -0.6668 0.9940
-1.3043 -0.3666 -0.6646 0.9940
-1.2576 -0.4794 -0.6602 0.9940
-3.7257 -1.8195 -2.0338 0.9817
-3.5468 -2.1476 -2.0338 0.9817
-3.3390 -2.4582 -2.0338 0.9817
-2.8440 -3.0171 -2.0338 0.9817
-2.5608 -3.2610 -2.0338 0.9817
-1.9345 -3.6674 -2.0338 0.9817
-1.5965 -3.8266 -2.0338 0.9817
-0.8843 -4.0509 -2.0338 0.9817
-1.1924 -0.0042 -0.6186 0.9946
-1.1561 -0.3250 -0.6230 0.9946
-3.5228 -1.7204 -2.0339 0.9825
-3.3536 -2.0306 -2.0338 0.9825
-2.9350 -2.5991 -2.0338 0.9825
-1.8291 -3.4676 -2.0338 0.9825
-1.1776 -3.7394 -2.0338 0.9825
-1.0803 0.0938 -0.5939 0.9951
-1.0762 -0.0038 -0.5895 0.9951
-1.0184 -0.3882 -0.5969 0.9950
-0.9861 -0.4816 -0.6011 0.9950
-2.9904 -2.2016 -2.0339 0.9832
-2.5471 -2.7022 -2.0338 0.9832
-1.4298 -3.4271 -2.0338 0.9832
-0.7920 -3.6280 -2.0339 0.9832
-0.9888 0.0859 -0.5731 0.9954
-0.9891 -0.0035 -0.5710 0.9954
-0.9884 -0.0929 -0.5732 0.9954
-0.9775 -0.1818 -0.5740 0.9954
-0.9423 -0.3592 -0.5822 0.9954
-0.9157 -0.4472 -0.5883 0.9953
-2.8368 -2.0885 -2.0339 0.9839
-2.4163 -2.5634 -2.0339 0.9839
-1.9175 -2.9552 -2.0339 0.9839
-1.6436 -3.1158 -2.0339 0.9839
-1.3564 -3.2512 -2.0339 0.9839
-0.7513 -3.4417 -2.0339 0.9839
