ply
format ascii 1.0
element vertex 179
property float32 x
property float32 y
property float32 z
property float32 I
end_header
17.3677 -3.2650 -1.2957 0.9316
2.4366 -6.1593 -0.6359 0.9737
1.7386 -17.0324 -2.0337 0.9334
1.9030 -6.4943 -0.8039 0.9731
2.4448 -6.1801 -0.7895 0.9736
9.0952 -14.5062 -2.0338 0.9334
10.3850 -13.6129 -2.0338 0.9334
12.6928 -11.4920 -2.0339 0.9334
13.6916 -10.2820 -2.0339 0.9334
14.5754 -8.9857 -2.0339 0.9334
15.3368 -7.6139 -2.0339 0.9334
15.9695 -6.1782 -2.0340 0.9334
16.8285 -3.1636 -2.0340 0.9334
1.4576 -14.2795 -2.0338 0.9437
2.7586 -14.0862 -2.0338 0.9437
3.0340 -5.9971 -0.9523 0.9732
9.7145 -10.5678 -2.0339 0.9437
10.6411 -9.6343 -2.0339 0.9437
11.4784 -8.6200 -2.0339 0.9437
13.3880 -5.1795 -2.0340 0.9437
14.2918 -1.3497 -2.0340 0.9437
2.3726 -12.1154 -2.0338 0.9512
1.7734 -6.0523 -1.0390 0.9748
2.9264 -5.7844 -1.0679 0.9741
6.5582 -10.4598 -2.0338 0.9512
8.3553 -9.0892 -2.0339 0.9512
9.1522 -8.2863 -2.0339 0.9512
11.5148 -4.4548 -2.0339 0.9512
12.1341 -2.2811 -2.0340 0.9512
2.0795 -10.6187 -2.0338 0.9569
2.9230 -5.7777 -1.2171 0.9740
5.7480 -9.1677 -2.0338 0.9569
6.5630 -8.6031 -2.0339 0.9569
7.3230 -7.9663 -2.0339 0.9569
8.6527 -6.4979 -2.0339 0.9569
10.0922 -3.9044 -2.0339 0.9569
0.9771 -9.5718 -2.0338 0.9614
1.8491 -9.4423 -2.0338 0.9614
2.8435 -5.6206 -1.3315 0.9746
7.1328 -6.4580 -2.0339 0.9614
7.6940 -5.7780 -2.0339 0.9614
8.1906 -5.0496 -2.0339 0.9614
8.6185 -4.2787 -2.0339 0.9614
8.9740 -3.4718 -2.0339 0.9614
9.2542 -2.6359 -2.0340 0.9614
9.5798 -0.9047 -2.0340 0.9614
0.8787 -8.6090 -2.0338 0.9651
2.2838 -5.7732 -1.4591 0.9748
4.5970 -7.3319 -2.0339 0.9651
5.2488 -6.8804 -2.0339 0.9651
8.0712 -3.1226 -2.0339 0.9651
8.5053 -1.5989 -2.0340 0.9651
8.6160 -0.8137 -2.0340 0.9651
8.6543 -0.0216 -2.0340 0.9651
0.7977 -7.8145 -2.0338 0.9681
1.5096 -7.7087 -2.0338 0.9681
1.7285 -5.8989 -1.5915 0.9749
2.2420 -5.6672 -1.5780 0.9751
2.8937 -5.7198 -1.6597 0.9739
4.1728 -6.6553 -2.0339 0.9681
5.3161 -5.7831 -2.0339 0.9681
6.2814 -4.7172 -2.0339 0.9681
6.6868 -4.1224 -2.0339 0.9681
7.3264 -2.8344 -2.0339 0.9681
7.5551 -2.1519 -2.0339 0.9681
7.7204 -1.4514 -2.0340 0.9681
7.8209 -0.7386 -2.0340 0.9681
0.7296 -7.1472 -2.0338 0.9706
1.3807 -7.0504 -2.0338 0.9706
2.6429 -6.6806 -2.0338 0.9706
3.8164 -6.0870 -2.0339 0.9706
4.3576 -5.7121 -2.0339 0.9706
4.8622 -5.2893 -2.0339 0.9706
5.3259 -4.8221 -2.0339 0.9706
7.1530 -0.6755 -2.0340 0.9706
7.1848 -0.0180 -2.0340 0.9706
1.2708 -6.4892 -2.0338 0.9727
2.4324 -6.1488 -2.0339 0.9727
2.9850 -5.9004 -2.0339 0.9727
4.0107 -5.2574 -2.0339 0.9727
4.4751 -4.8682 -2.0339 0.9727
5.9230 -2.9404 -2.0339 0.9727
6.1673 -2.3860 -2.0339 0.9727
6.3598 -1.8115 -2.0339 0.9727
6.4989 -1.2217 -2.0339 0.9727
6.5835 -0.6218 -2.0340 0.9727
6.6128 -0.0165 -2.0340 0.9727
1.1759 -6.0045 -2.0338 0.9745
3.2503 -5.1840 -2.0339 0.9745
4.8927 -3.6743 -2.0339 0.9745
5.2085 -3.2110 -2.0339 0.9745
6.0135 -1.1305 -2.0339 0.9745
6.1189 -0.0153 -2.0340 0.9745
1.0930 -5.5814 -2.0338 0.9761
1.5993 -5.4579 -2.0339 0.9761
2.0921 -5.2886 -2.0339 0.9761
2.5675 -5.0750 -2.0339 0.9761
4.2162 -3.8173 -2.0339 0.9761
4.5479 -3.4154 -2.0339 0.9761
4.8414 -2.9848 -2.0339 0.9761
5.0944 -2.5291 -2.0339 0.9761
5.3045 -2.0522 -2.0339 0.9761
5.4701 -1.5581 -2.0339 0.9761
5.5897 -1.0508 -2.0339 0.9761
5.6877 -0.0142 -2.0339 0.9761
0.5390 -5.2799 -2.0338 0.9775
2.8193 -4.4966 -2.0339 0.9775
3.2191 -4.2197 -2.0339 0.9775
3.5918 -3.9073 -2.0339 0.9775
3.9344 -3.5622 -2.0339 0.9775
5.1045 -1.4539 -2.0339 0.9775
5.2161 -0.9806 -2.0339 0.9775
5.2840 -0.4990 -2.0339 0.9775
5.3075 -0.0133 -2.0339 0.9775
0.5046 -4.9437 -2.0338 0.9788
0.9550 -4.8768 -2.0339 0.9788
1.3974 -4.7689 -2.0339 0.9788
1.8280 -4.6210 -2.0339 0.9788
2.2434 -4.4343 -2.0339 0.9788
2.6398 -4.2103 -2.0339 0.9788
3.0141 -3.9511 -2.0339 0.9788
3.3631 -3.6586 -2.0339 0.9788
3.9737 -2.9842 -2.0339 0.9788
4.4513 -2.2098 -2.0339 0.9788
4.9696 -0.0124 -2.0339 0.9787
1.3123 -4.4785 -2.0339 0.9798
1.7167 -4.3396 -2.0339 0.9798
2.4791 -3.9539 -2.0339 0.9798
3.4595 -3.1323 -2.0339 0.9798
3.7318 -2.8025 -2.0339 0.9798
4.1801 -2.0753 -2.0339 0.9798
4.6670 -0.0117 -2.0339 0.9798
0.4462 -4.3712 -2.0339 0.9808
0.8445 -4.3120 -2.0339 0.9808
2.3341 -3.7227 -2.0339 0.9808
2.9736 -3.2348 -2.0339 0.9808
3.2572 -2.9491 -2.0339 0.9808
3.7404 -2.3059 -2.0339 0.9808
3.9357 -1.9539 -2.0339 0.9808
4.2260 -1.2037 -2.0339 0.9808
4.3746 -0.4132 -2.0339 0.9808
0.7968 -4.0690 -2.0339 0.9817
2.2026 -3.5129 -2.0339 0.9817
2.5149 -3.2966 -2.0339 0.9817
3.5296 -2.1760 -2.0339 0.9817
3.7139 -1.8438 -2.0339 0.9817
3.8671 -1.4961 -2.0339 0.9817
0.7534 -3.8474 -2.0339 0.9825
1.1024 -3.7623 -2.0339 0.9825
1.4422 -3.6456 -2.0339 0.9825
1.7698 -3.4983 -2.0339 0.9825
2.0826 -3.3216 -2.0339 0.9825
2.3779 -3.1171 -2.0339 0.9825
2.6533 -2.8863 -2.0339 0.9825
2.9064 -2.6314 -2.0339 0.9825
3.5116 -1.7434 -2.0339 0.9825
3.6565 -1.4146 -2.0339 0.9825
2.0730 -0.1958 -1.0802 0.9907
2.0706 -0.0052 -1.0742 0.9907
0.7137 -3.6442 -2.0339 0.9832
1.0442 -3.5636 -2.0339 0.9832
1.6764 -3.3136 -2.0339 0.9832
2.5132 -2.7339 -2.0339 0.9832
2.7529 -2.4924 -2.0339 0.9832
3.1611 -1.9488 -2.0339 0.9832
1.8687 -0.5323 -1.0642 0.9912
1.8548 -0.3487 -1.0336 0.9914
1.8499 -0.1747 -1.0177 0.9916
0.3577 -3.5046 -2.0339 0.9839
0.6770 -3.4571 -2.0339 0.9839
1.2959 -3.2757 -2.0339 0.9839
1.5903 -3.1434 -2.0339 0.9839
1.8713 -2.9846 -2.0339 0.9839
2.1367 -2.8009 -2.0339 0.9839
2.3841 -2.5935 -2.0339 0.9839
2.6115 -2.3644 -2.0339 0.9839
3.1554 -1.5665 -2.0339 0.9839
1.7125 -0.4878 -1.0280 0.9918
1.7137 -0.3222 -1.0067 0.9920
