ply
format ascii 1.0
element vertex 185
property float32 x
property float32 y
property float32 z
property float32 I
end_header
1.5563 17.7968 2.7368 0.9303
1.5466 17.6871 2.3120 0.9309
-11.2807 12.4695 2.1897 0.9344
3.2245 17.8599 1.5363 0.9297
-11.5279 12.7427 1.4546 0.9333
1.5809 18.0789 1.1254 0.9299
-12.1816 13.4653 1.1260 0.9298
1.6640 19.0293 0.7532 0.9264
3.4039 18.8535 0.3236 0.9262
3.2944 18.2463 -0.1044 0.9285
3.3336 18.4635 -0.5283 0.9277
-17.2922 5.1039 -0.9144 0.9303
-2.1199 7.4172 -0.7406 0.9695
1.4917 17.0590 -2.0341 0.9333
-0.7584 7.9111 -0.9440 0.9685
-7.6199 15.3344 -2.0340 0.9334
-8.9877 14.5747 -2.0340 0.9334
-10.2804 13.6934 -2.0340 0.9334
-11.4871 12.6977 -2.0339 0.9334
-12.5980 11.5962 -2.0339 0.9334
-13.6037 10.3978 -2.0339 0.9334
-15.2669 7.7514 -2.0339 0.9334
-15.9106 6.3255 -2.0338 0.9334
-16.4213 4.8469 -2.0338 0.9334
-2.0869 7.3020 -1.0760 0.9698
-5.1882 13.3851 -2.0340 0.9437
-6.3881 12.8555 -2.0340 0.9437
-9.6303 10.6452 -2.0339 0.9437
-10.5616 9.7217 -2.0339 0.9437
-11.4048 8.7171 -2.0339 0.9437
-12.1527 7.6396 -2.0339 0.9437
-12.7992 6.4985 -2.0339 0.9437
-13.3387 5.3030 -2.0338 0.9437
-13.7670 4.0634 -2.0338 0.9437
2.1938 12.1507 -2.0341 0.9512
1.0756 12.3001 -2.0340 0.9512
-0.0516 12.3469 -2.0340 0.9512
-0.7078 7.3827 -1.2218 0.9704
-1.3816 7.3023 -1.2243 0.9703
-2.0764 7.2651 -1.2448 0.9698
-4.4622 11.5122 -2.0340 0.9512
-5.4943 11.0567 -2.0340 0.9512
-11.0084 5.5892 -2.0339 0.9512
0.9427 10.7804 -2.0340 0.9569
-0.0452 10.8214 -2.0340 0.9569
-1.3701 7.2421 -1.3854 0.9704
-5.6799 9.2106 -2.0340 0.9569
-6.4968 8.6537 -2.0339 0.9569
-7.2595 8.0246 -2.0339 0.9569
-7.9616 7.3284 -2.0339 0.9569
-9.1610 5.7589 -2.0339 0.9569
-9.6484 4.8987 -2.0339 0.9569
-10.3780 3.0631 -2.0338 0.9569
1.7097 9.4695 -2.0340 0.9614
-5.0506 8.1902 -2.0339 0.9614
-6.4552 7.1355 -2.0339 0.9614
-7.0795 6.5165 -2.0339 0.9614
-8.9411 3.5547 -2.0339 0.9614
-9.2282 2.7237 -2.0339 0.9614
-0.6973 7.2731 -1.7172 0.9704
-3.8512 7.7501 -2.0340 0.9651
-4.5425 7.3662 -2.0339 0.9651
-5.8059 6.4177 -2.0339 0.9651
-6.3673 5.8609 -2.0339 0.9651
-8.2999 2.4497 -2.0339 0.9651
-0.0328 7.8556 -2.0340 0.9681
-0.7497 7.8198 -2.0340 0.9681
-1.4603 7.7188 -2.0340 0.9681
-2.1587 7.5532 -2.0340 0.9681
-3.4958 7.0349 -2.0339 0.9681
-4.7163 6.2821 -2.0339 0.9681
-5.2700 5.8254 -2.0339 0.9681
-5.7797 5.3200 -2.0339 0.9681
-6.6504 4.1807 -2.0339 0.9681
-7.0042 3.5562 -2.0339 0.9681
-7.2995 2.9021 -2.0339 0.9681
-7.5339 2.2237 -2.0339 0.9681
1.2766 7.0705 -2.0340 0.9706
-1.3356 7.0596 -2.0340 0.9706
-1.9744 6.9082 -2.0340 0.9706
-2.5966 6.6991 -2.0340 0.9706
-3.7711 6.1154 -2.0339 0.9706
-4.3136 5.7456 -2.0339 0.9706
-4.8200 5.3279 -2.0339 0.9706
-5.7082 4.3629 -2.0339 0.9706
-6.4061 3.2525 -2.0339 0.9706
-0.6311 6.5827 -2.0340 0.9727
-1.2293 6.4975 -2.0340 0.9727
-1.8171 6.3582 -2.0340 0.9727
-3.4709 5.6286 -2.0339 0.9727
-4.4362 4.9038 -2.0339 0.9727
-4.8653 4.4784 -2.0339 0.9727
-5.2537 4.0156 -2.0339 0.9727
-6.3420 1.8719 -2.0339 0.9727
1.0872 6.0216 -2.0340 0.9745
-0.0256 6.1189 -2.0340 0.9745
-0.5839 6.0910 -2.0340 0.9745
-1.1375 6.0122 -2.0340 0.9745
-1.6815 5.8833 -2.0340 0.9745
-3.6736 4.8933 -2.0339 0.9745
-4.5019 4.1439 -2.0339 0.9745
-4.8613 3.7157 -2.0339 0.9745
-5.1802 3.2564 -2.0339 0.9745
-5.8684 1.7321 -2.0339 0.9745
0.4955 5.6661 -2.0340 0.9761
-0.5428 5.6617 -2.0340 0.9761
-1.0573 5.5885 -2.0340 0.9761
-3.8156 4.2177 -2.0339 0.9761
-5.4548 1.6100 -2.0339 0.9761
0.9430 5.2231 -2.0340 0.9775
-1.4585 5.1032 -2.0339 0.9775
-2.3618 4.7530 -2.0339 0.9775
-2.7858 4.5176 -2.0339 0.9775
-3.1865 4.2444 -2.0339 0.9775
-3.9050 3.5944 -2.0339 0.9775
-4.2168 3.2230 -2.0339 0.9775
-4.7323 2.4027 -2.0339 0.9775
-4.9319 1.9608 -2.0339 0.9775
0.4329 4.9508 -2.0340 0.9787
-1.3657 4.7783 -2.0339 0.9788
-2.2115 4.4504 -2.0339 0.9788
-3.3339 3.6853 -2.0339 0.9788
-3.6564 3.3656 -2.0339 0.9788
-3.9483 3.0178 -2.0339 0.9788
-4.2073 2.6448 -2.0339 0.9788
-4.6179 1.8359 -2.0339 0.9788
-0.4454 4.6457 -2.0339 0.9798
-0.8675 4.5856 -2.0339 0.9798
-1.2825 4.4873 -2.0339 0.9798
-3.4337 3.1606 -2.0339 0.9798
-3.7079 2.8340 -2.0339 0.9798
-4.3366 1.7241 -2.0339 0.9798
-2.0434 0.6031 -0.9285 0.9907
0.7807 4.3242 -2.0340 0.9808
-0.4193 4.3740 -2.0339 0.9808
-0.8168 4.3174 -2.0339 0.9808
-1.9554 3.9350 -2.0339 0.9808
-2.3064 3.7400 -2.0339 0.9808
-2.6381 3.5139 -2.0339 0.9808
-2.9478 3.2584 -2.0339 0.9808
-3.4910 2.6683 -2.0339 0.9808
-4.0830 1.6233 -2.0339 0.9808
0.7367 4.0805 -2.0340 0.9817
-0.0173 4.1464 -2.0339 0.9817
-0.3957 4.1275 -2.0339 0.9817
-1.4986 3.8662 -2.0339 0.9817
-1.8452 3.7132 -2.0339 0.9817
-2.1764 3.5293 -2.0339 0.9817
-2.4894 3.3160 -2.0339 0.9817
-2.7817 3.0749 -2.0339 0.9817
-3.0507 2.8081 -2.0339 0.9817
-1.2762 0.5073 -0.6737 0.9939
-1.2983 0.3832 -0.6640 0.9940
0.3416 3.9057 -2.0339 0.9825
-1.0773 3.7697 -2.0339 0.9825
-1.4170 3.6556 -2.0339 0.9825
-1.7446 3.5110 -2.0339 0.9825
-2.0579 3.3371 -2.0339 0.9825
-2.3538 3.1353 -2.0339 0.9825
-2.8846 2.6552 -2.0339 0.9825
-3.1149 2.3808 -2.0339 0.9825
-3.3192 2.0865 -2.0339 0.9825
0.3236 3.6995 -2.0339 0.9832
-0.0155 3.7135 -2.0339 0.9832
-0.3544 3.6966 -2.0339 0.9832
-1.0204 3.5706 -2.0339 0.9832
-1.6525 3.3256 -2.0339 0.9832
-1.9492 3.1609 -2.0339 0.9832
-2.2295 2.9697 -2.0339 0.9832
-2.4913 2.7538 -2.0339 0.9832
-3.1439 1.9764 -2.0339 0.9832
-0.9804 0.4978 -0.6022 0.9950
-1.0138 0.4030 -0.5976 0.9950
-1.0364 0.3059 -0.5918 0.9951
-0.0147 3.5229 -2.0339 0.9839
-0.3362 3.5068 -2.0339 0.9839
-0.9681 3.3872 -2.0339 0.9839
-1.8491 2.9986 -2.0339 0.9839
-2.1151 2.8172 -2.0339 0.9839
-2.3634 2.6124 -2.0339 0.9839
-2.5919 2.3858 -2.0339 0.9839
-2.7989 2.1393 -2.0339 0.9839
-2.9824 1.8749 -2.0339 0.9839
-0.9387 0.3732 -0.5832 0.9953
-0.9568 0.2824 -0.5760 0.9954
