ply
format ascii 1.0
element vertex 178
property float32 x
property float32 y
property float32 z
property float32 I
end_header
-11.8166 -8.0053 -1.0465 0.9444
-16.9948 2.0773 -2.0338 0.9334
-17.1124 0.5477 -2.0338 0.9334
-17.0926 -0.9863 -2.0337 0.9334
-16.6426 -4.0182 -2.0337 0.9334
-11.1135 -13.0229 -2.0337 0.9334
-9.9032 -13.9654 -2.0337 0.9334
-8.6134 -14.7958 -2.0337 0.9334
-5.8372 -16.0946 -2.0337 0.9334
-4.3731 -16.5527 -2.0337 0.9334
-14.3464 0.4591 -2.0338 0.9437
-14.3299 -0.8269 -2.0338 0.9437
-14.1982 -2.1063 -2.0338 0.9437
-13.9527 -3.3687 -2.0337 0.9437
-13.5950 -4.6042 -2.0337 0.9437
-12.5561 -6.9544 -2.0337 0.9437
-11.1148 -9.0817 -2.0337 0.9437
-7.2212 -12.4044 -2.0337 0.9437
-6.0819 -13.0011 -2.0337 0.9437
-3.6662 -13.8772 -2.0337 0.9437
-12.3393 0.3949 -2.0338 0.9512
-12.3250 -0.7112 -2.0338 0.9512
-11.2915 -4.9907 -2.0337 0.9512
-10.7993 -5.9814 -2.0337 0.9512
-10.2206 -6.9241 -2.0337 0.9512
-9.5598 -7.8112 -2.0337 0.9512
-6.2109 -10.6689 -2.0337 0.9512
-5.2310 -11.1821 -2.0337 0.9512
-4.2091 -11.6055 -2.0337 0.9512
-10.7405 1.3128 -2.0338 0.9569
-10.8149 0.3461 -2.0338 0.9569
-10.8023 -0.6234 -2.0338 0.9569
-10.7032 -1.5878 -2.0338 0.9569
-10.5180 -2.5395 -2.0338 0.9569
-10.2485 -3.4708 -2.0338 0.9569
-9.4653 -5.2425 -2.0338 0.9569
-8.9580 -6.0687 -2.0338 0.9569
-7.0237 -8.2304 -2.0337 0.9569
-5.4436 -9.3510 -2.0337 0.9569
-4.5848 -9.8007 -2.0338 0.9569
-3.6891 -10.1718 -2.0338 0.9569
-2.7637 -10.4612 -2.0338 0.9569
-9.6167 0.3078 -2.0338 0.9614
-9.5174 -1.4119 -2.0338 0.9614
-7.9656 -5.3964 -2.0338 0.9614
-7.4505 -6.0877 -2.0338 0.9614
-6.8757 -6.7302 -2.0338 0.9614
-6.2457 -7.3187 -2.0338 0.9614
-4.8406 -8.3150 -2.0338 0.9614
-3.2804 -9.0449 -2.0338 0.9614
-2.4576 -9.3023 -2.0338 0.9614
-8.6493 0.2768 -2.0338 0.9651
-8.5600 -1.2699 -2.0338 0.9651
-7.9150 -3.4983 -2.0338 0.9651
-7.5700 -4.1928 -2.0338 0.9651
-2.9504 -8.1351 -2.0338 0.9651
-2.2104 -8.3665 -2.0338 0.9651
-7.7971 0.9530 -2.0338 0.9681
-7.8511 0.2512 -2.0338 0.9681
-7.8421 -0.4526 -2.0338 0.9681
-7.4400 -2.5196 -2.0338 0.9681
-6.8714 -3.8059 -2.0338 0.9681
-6.0827 -4.9701 -2.0338 0.9681
-5.6134 -5.4946 -2.0338 0.9681
-5.0990 -5.9750 -2.0338 0.9681
-4.5437 -6.4074 -2.0338 0.9681
-2.0064 -7.5945 -2.0338 0.9681
-7.1313 0.8717 -2.0338 0.9706
-7.1807 0.2298 -2.0338 0.9706
-7.1065 -1.0542 -2.0338 0.9706
-6.9836 -1.6862 -2.0338 0.9706
-6.8046 -2.3045 -2.0338 0.9706
-6.2847 -3.4809 -2.0338 0.9706
-5.9479 -4.0295 -2.0338 0.9706
-5.1341 -5.0254 -2.0338 0.9706
-4.6636 -5.4648 -2.0338 0.9706
-4.1557 -5.8603 -2.0338 0.9706
-1.8351 -6.9459 -2.0338 0.9706
-6.5636 0.8022 -2.0339 0.9727
-6.6090 0.2115 -2.0338 0.9727
-6.6014 -0.3810 -2.0338 0.9727
-6.5408 -0.9703 -2.0338 0.9727
-6.4277 -1.5519 -2.0338 0.9727
-6.0479 -2.6732 -2.0338 0.9727
-5.7844 -3.2038 -2.0338 0.9727
-5.1204 -4.1838 -2.0338 0.9727
-4.7253 -4.6254 -2.0338 0.9727
-3.8249 -5.3938 -2.0338 0.9727
-3.3267 -5.7145 -2.0338 0.9727
-2.2545 -6.2162 -2.0338 0.9727
-1.6890 -6.3930 -2.0338 0.9727
-6.1084 -0.3525 -2.0338 0.9745
-6.0523 -0.8979 -2.0338 0.9745
-5.9476 -1.4360 -2.0338 0.9745
-5.7952 -1.9626 -2.0338 0.9745
-5.5962 -2.4735 -2.0338 0.9745
-5.0655 -3.4317 -2.0338 0.9745
-4.7380 -3.8714 -2.0338 0.9745
-4.3724 -4.2799 -2.0338 0.9745
-3.9718 -4.6541 -2.0338 0.9745
-3.5393 -4.9910 -2.0338 0.9745
-2.5926 -5.5421 -2.0338 0.9745
-2.0861 -5.7519 -2.0338 0.9745
-1.5629 -5.9155 -2.0338 0.9745
-5.6779 -0.3277 -2.0338 0.9761
-5.6257 -0.8346 -2.0338 0.9761
-5.5285 -1.3348 -2.0338 0.9761
-5.2019 -2.2992 -2.0338 0.9761
-4.0643 -3.9783 -2.0338 0.9761
-3.6919 -4.3262 -2.0338 0.9761
-2.8614 -4.9151 -2.0338 0.9761
-1.9391 -5.3466 -2.0338 0.9761
-1.4527 -5.4987 -2.0338 0.9761
-5.2681 0.6439 -2.0339 0.9775
-5.2985 -0.3058 -2.0339 0.9775
-5.2498 -0.7788 -2.0338 0.9775
-5.1590 -1.2456 -2.0338 0.9775
-5.0268 -1.7024 -2.0338 0.9775
-4.8543 -2.1455 -2.0338 0.9775
-4.6427 -2.5714 -2.0338 0.9775
-4.3939 -2.9767 -2.0338 0.9775
-3.7927 -3.7125 -2.0338 0.9775
-2.6701 -4.5867 -2.0338 0.9775
-2.2488 -4.8073 -2.0338 0.9775
-1.3556 -5.1312 -2.0338 0.9775
-2.1129 -0.3135 -0.8742 0.9908
-2.1443 -0.5178 -0.9028 0.9905
-4.7068 -1.5940 -2.0338 0.9788
-4.5452 -2.0089 -2.0338 0.9788
-4.1141 -2.7872 -2.0338 0.9788
-3.5512 -3.4761 -2.0338 0.9788
-3.2258 -3.7800 -2.0338 0.9788
-1.6943 -4.6716 -2.0338 0.9788
-1.2693 -4.8046 -2.0338 0.9788
-1.9188 0.0614 -0.8367 0.9917
-1.8995 -0.4587 -0.8516 0.9915
-4.4201 -1.4970 -2.0338 0.9798
-4.2684 -1.8866 -2.0338 0.9798
-3.6138 -2.9528 -2.0338 0.9798
-2.6995 -3.8067 -2.0338 0.9798
-1.5911 -4.3871 -2.0338 0.9798
-1.6098 0.1967 -0.7507 0.9929
-4.0187 -1.7763 -2.0338 0.9808
-3.8437 -2.1289 -2.0338 0.9808
-3.1400 -3.0735 -2.0338 0.9808
-2.8522 -3.3422 -2.0338 0.9808
-2.5416 -3.5842 -2.0338 0.9808
-2.2106 -3.7973 -2.0338 0.9808
-1.8618 -3.9799 -2.0338 0.9808
-1.3523 0.1653 -0.6683 0.9939
-1.3205 -0.3188 -0.6663 0.9940
-3.4327 -2.3255 -2.0338 0.9817
-2.6915 -3.1539 -2.0338 0.9817
-1.7569 -3.7557 -2.0338 0.9817
-1.4137 -3.8979 -2.0338 0.9817
-1.0591 -4.0088 -2.0338 0.9817
-1.1990 0.1465 -0.6267 0.9946
-1.1995 -0.0693 -0.6233 0.9946
-1.1687 -0.2822 -0.6238 0.9946
-1.1377 -0.3853 -0.6231 0.9946
-3.2457 -2.1989 -2.0338 0.9825
-1.3366 -3.6856 -2.0338 0.9825
-1.0799 0.0345 -0.5918 0.9951
-1.0813 -0.0624 -0.5932 0.9951
-0.9999 -0.4420 -0.5988 0.9950
-3.2484 -1.7992 -2.0339 0.9832
-3.0743 -2.0828 -2.0339 0.9832
-2.8755 -2.3496 -2.0338 0.9832
-2.4105 -2.8247 -2.0338 0.9832
-2.1480 -3.0291 -2.0338 0.9832
-1.5735 -3.3636 -2.0338 0.9832
-1.2661 -3.4909 -2.0339 0.9832
-0.9899 -0.0572 -0.5725 0.9954
-0.9831 -0.1459 -0.5738 0.9954
-0.9279 -0.4102 -0.5857 0.9953
-2.5174 -2.4642 -2.0339 0.9839
-1.7723 -3.0445 -2.0339 0.9839
-1.2011 -3.3117 -2.0339 0.9839
