ply
format ascii 1.0
element vertex 183
property float32 x
property float32 y
property float32 z
property float32 I
end_header
-12.2406 11.9589 2.6216 0.9331
-11.1554 13.0854 1.8464 0.9332
-12.7635 12.4697 1.1065 0.9310
-12.4846 14.6446 0.7588 0.9259
-16.1080 5.3074 -1.6282 0.9341
-9.8771 13.9871 -2.0340 0.9334
-12.2476 11.9657 -2.0339 0.9334
-13.2852 10.8019 -2.0339 0.9334
-16.2618 5.3580 -2.0338 0.9334
-16.6815 3.8565 -2.0338 0.9334
-16.9601 -2.3414 -2.0337 0.9334
-16.2549 -5.3755 -2.0337 0.9334
-15.6985 -6.8319 -2.0337 0.9334
-9.3128 10.9241 -2.0339 0.9437
-10.2678 10.0316 -2.0339 0.9437
-13.6332 4.4920 -2.0338 0.9437
-13.9852 3.2331 -2.0338 0.9437
-14.3393 0.6457 -2.0338 0.9437
-14.3385 -0.6614 -2.0338 0.9437
-14.2187 -1.9630 -2.0338 0.9437
-13.1612 -5.7276 -2.0337 0.9437
-7.1219 10.0854 -2.0340 0.9512
-8.8312 8.6279 -2.0339 0.9512
-9.5794 7.7887 -2.0339 0.9512
-10.2481 6.8850 -2.0339 0.9512
-12.0285 2.7808 -2.0338 0.9512
-12.2315 1.6750 -2.0338 0.9512
-12.0251 -2.7938 -2.0338 0.9512
-11.7211 -3.8761 -2.0338 0.9512
-11.3198 -4.9263 -2.0337 0.9512
-10.8247 -5.9356 -2.0337 0.9512
-6.2420 8.8393 -2.0339 0.9569
-7.0202 8.2348 -2.0339 0.9569
-7.7401 7.5620 -2.0339 0.9569
-8.3959 6.8264 -2.0339 0.9569
-8.9820 6.0344 -2.0339 0.9569
-9.4936 5.1922 -2.0339 0.9569
-9.9266 4.3071 -2.0339 0.9569
-10.2771 3.3862 -2.0338 0.9569
-10.5425 2.4372 -2.0338 0.9569
-10.7204 1.4681 -2.0338 0.9569
-10.8094 0.4867 -2.0338 0.9569
-10.8088 -0.4986 -2.0338 0.9569
-10.5395 -2.4487 -2.0338 0.9569
-9.4874 -5.2023 -2.0338 0.9569
-6.8826 6.7242 -2.0339 0.9614
-7.9869 5.3658 -2.0339 0.9614
-8.4418 4.6170 -2.0339 0.9614
-9.1385 3.0110 -2.0339 0.9614
-9.3745 2.1672 -2.0338 0.9614
-9.3719 -2.1774 -2.0338 0.9614
-9.1350 -3.0209 -2.0338 0.9614
-8.8222 -3.8394 -2.0338 0.9614
-4.9921 7.0693 -2.0339 0.9651
-6.7146 5.4595 -2.0339 0.9651
-7.1834 4.8260 -2.0339 0.9651
-7.9388 3.4446 -2.0339 0.9651
-8.2193 2.7081 -2.0339 0.9651
-8.5737 1.1741 -2.0338 0.9651
-8.6450 0.3893 -2.0338 0.9651
-8.6445 -0.3987 -2.0338 0.9651
-8.5724 -1.1835 -2.0338 0.9651
-8.4291 -1.9584 -2.0338 0.9651
-6.0950 4.9557 -2.0339 0.9681
-6.5205 4.3806 -2.0339 0.9681
-6.8919 3.7693 -2.0339 0.9681
-7.2062 3.1267 -2.0339 0.9681
-7.7825 1.0657 -2.0338 0.9681
-7.8468 -0.3620 -2.0338 0.9681
-7.6512 -1.7777 -2.0338 0.9681
-7.2025 -3.1345 -2.0338 0.9681
-6.3034 3.4474 -2.0339 0.9706
-6.5908 2.8597 -2.0339 0.9706
-6.8236 2.2483 -2.0339 0.9706
-6.9998 1.6182 -2.0339 0.9706
-7.1179 0.9748 -2.0339 0.9706
-7.1771 0.3232 -2.0338 0.9706
-6.9979 -1.6259 -2.0338 0.9706
-6.8209 -2.2557 -2.0338 0.9706
-4.2900 5.0322 -2.0339 0.9727
-4.7299 4.6211 -2.0339 0.9727
-5.1307 4.1716 -2.0339 0.9727
-6.4425 1.4894 -2.0339 0.9727
-6.6054 -0.3047 -2.0338 0.9727
-6.4408 -1.4964 -2.0338 0.9727
-6.0631 -2.6386 -2.0338 0.9727
-5.7979 -3.1793 -2.0338 0.9727
-4.7475 3.8601 -2.0339 0.9745
-5.3682 2.9360 -2.0339 0.9745
-5.6130 2.4354 -2.0339 0.9745
-5.8113 1.9147 -2.0339 0.9745
-6.0620 0.8301 -2.0339 0.9745
-6.1124 0.2753 -2.0339 0.9745
-6.0611 -0.8368 -2.0338 0.9745
-5.9598 -1.3847 -2.0338 0.9745
-3.2808 4.6460 -2.0339 0.9761
-5.2175 2.2638 -2.0339 0.9761
-5.6348 0.7717 -2.0339 0.9761
-5.6816 0.2558 -2.0339 0.9761
-5.6813 -0.2621 -2.0338 0.9761
-5.6339 -0.7778 -2.0338 0.9761
-5.5398 -1.2871 -2.0338 0.9761
-5.3997 -1.7857 -2.0338 0.9761
-5.2149 -2.2695 -2.0338 0.9761
-4.9868 -2.7345 -2.0338 0.9761
-3.4432 4.0390 -2.0339 0.9775
-4.1180 3.3482 -2.0339 0.9775
-4.4055 2.9597 -2.0339 0.9775
-4.8688 2.1125 -2.0339 0.9775
-5.2582 0.7201 -2.0339 0.9775
-5.3019 0.2387 -2.0339 0.9775
-5.3016 -0.2445 -2.0339 0.9775
-5.0389 -1.6664 -2.0338 0.9775
-4.6536 -2.5517 -2.0338 0.9775
-3.2240 3.7818 -2.0339 0.9788
-3.5546 3.4729 -2.0339 0.9788
-3.8558 3.1351 -2.0339 0.9788
-4.1250 2.7713 -2.0339 0.9788
-4.3600 2.3846 -2.0339 0.9788
-4.5588 1.9780 -2.0339 0.9788
-4.7199 1.5551 -2.0339 0.9788
-2.1193 0.4899 -0.8902 0.9906
-2.1097 0.2889 -0.8715 0.9908
-2.1224 -0.0979 -0.8696 0.9909
-2.1100 -0.2913 -0.8718 0.9908
-2.1191 -0.4924 -0.8904 0.9906
-4.7180 -1.5603 -2.0338 0.9788
-4.5566 -1.9830 -2.0338 0.9788
-4.3572 -2.3893 -2.0338 0.9788
-3.0277 3.5515 -2.0339 0.9798
-3.6210 2.9442 -2.0339 0.9798
-3.8738 2.6025 -2.0339 0.9798
-4.4324 1.4604 -2.0339 0.9798
-1.9013 0.4395 -0.8504 0.9915
-1.9021 0.2604 -0.8367 0.9917
-1.9183 0.0863 -0.8369 0.9917
-2.8506 3.3438 -2.0339 0.9808
-3.1429 3.0706 -2.0339 0.9808
-3.8550 2.1084 -2.0339 0.9808
-1.5862 0.3667 -0.7536 0.9928
-1.6106 -0.2224 -0.7526 0.9929
-1.5856 -0.3684 -0.7535 0.9929
-1.6417 -0.5429 -0.8004 0.9924
-4.0288 -1.7533 -2.0338 0.9808
-3.8526 -2.1126 -2.0338 0.9808
-2.6900 3.1554 -2.0339 0.9817
-2.9659 2.8976 -2.0339 0.9817
-3.2171 2.6158 -2.0339 0.9817
-3.6379 1.9896 -2.0339 0.9817
-1.2819 0.4223 -0.6620 0.9940
-1.3243 0.3061 -0.6668 0.9940
-1.3502 -0.1864 -0.6686 0.9939
-1.3239 -0.3076 -0.6667 0.9940
-3.8018 -1.6546 -2.0338 0.9817
-2.5435 2.9836 -2.0339 0.9825
-2.8043 2.7398 -2.0339 0.9825
-3.2543 2.1863 -2.0339 0.9825
-3.4397 1.8812 -2.0339 0.9825
-1.1396 0.3754 -0.6225 0.9946
-1.1715 0.2708 -0.6238 0.9946
-1.1968 0.1639 -0.6267 0.9946
-1.1985 -0.0553 -0.6224 0.9946
-1.1966 -0.1652 -0.6267 0.9946
-1.1712 -0.2721 -0.6238 0.9946
-1.1092 -0.4828 -0.6276 0.9946
-2.8813 2.3427 -2.0339 0.9832
-3.0824 2.0709 -2.0339 0.9832
-1.0026 0.4350 -0.5986 0.9950
-1.0503 0.2428 -0.5904 0.9951
-1.0811 -0.0499 -0.5927 0.9951
-1.0741 -0.1483 -0.5939 0.9951
-1.0499 -0.2440 -0.5903 0.9951
-1.0302 -0.3407 -0.5943 0.9951
-3.2561 -1.7854 -2.0339 0.9832
-2.2854 2.6809 -2.0339 0.9839
-2.5198 2.4619 -2.0339 0.9839
-2.7334 2.2224 -2.0339 0.9839
-2.9241 1.9645 -2.0339 0.9839
-0.9300 0.4035 -0.5853 0.9953
-0.9684 0.2238 -0.5738 0.9954
-0.9844 -0.1359 -0.5737 0.9954
-0.9681 -0.2250 -0.5738 0.9954
-0.8991 -0.4931 -0.5920 0.9953
