ply
format ascii 1.0
element vertex 219
property float32 x
property float32 y
property float32 z
property float32 I
end_header
-12.4427 13.1012 3.1859 0.9292
2.5818 17.5537 2.7181 0.9307
-11.8871 12.5163 2.6444 0.9325
2.6374 17.9316 2.3602 0.9295
1.0506 18.9221 2.4678 0.9264
-10.8936 13.7767 2.2871 0.9316
-11.4432 12.0487 1.4067 0.9355
2.5953 17.6459 1.1060 0.9310
-11.9209 12.5518 1.0734 0.9330
2.6525 18.0343 0.7188 0.9296
2.6085 17.7353 0.3028 0.9308
2.7282 18.5492 -0.9508 0.9277
-17.5295 4.8095 -1.3328 0.9297
-1.6445 7.4862 -0.7359 0.9697
5.5031 16.2160 -2.0341 0.9333
4.0139 16.6471 -2.0341 0.9333
2.4919 16.9419 -2.0341 0.9333
-0.6009 17.1134 -2.0341 0.9333
-1.6158 7.3557 -0.8946 0.9701
-5.1714 16.3240 -2.0340 0.9333
-9.3622 14.3369 -2.0340 0.9334
-10.6204 13.4313 -2.0340 0.9334
-12.8659 11.2981 -2.0339 0.9334
-13.8349 10.0881 -2.0339 0.9334
-14.6905 8.7954 -2.0339 0.9334
-15.4256 7.4306 -2.0339 0.9334
-16.8533 3.0182 -2.0338 0.9334
3.3650 13.9560 -2.0341 0.9437
2.0890 14.2031 -2.0341 0.9437
0.7959 14.3337 -2.0341 0.9437
-0.9280 7.3460 -1.0491 0.9705
-1.6066 7.3139 -1.0610 0.9702
-5.5553 13.2368 -2.0340 0.9437
-7.8488 12.0194 -2.0340 0.9437
-9.8854 10.4086 -2.0339 0.9437
-10.7863 9.4718 -2.0339 0.9437
-11.5986 8.4574 -2.0339 0.9437
-12.3159 7.3737 -2.0339 0.9437
-12.9321 6.2295 -2.0339 0.9437
-13.4425 5.0343 -2.0338 0.9437
-13.8425 3.7979 -2.0338 0.9437
-14.1292 2.5304 -2.0338 0.9437
3.9679 11.6922 -2.0341 0.9512
2.8942 12.0032 -2.0341 0.9512
0.6845 12.3280 -2.0340 0.9512
-0.4332 12.3394 -2.0340 0.9512
-0.9349 7.4002 -1.2288 0.9702
-1.5692 7.1434 -1.2049 0.9708
-5.7880 10.9058 -2.0340 0.9512
-7.6578 9.6846 -2.0339 0.9512
-9.9757 7.2740 -2.0339 0.9512
-10.5927 6.3420 -2.0339 0.9512
0.6000 10.8049 -2.0340 0.9569
-0.9207 7.2885 -1.3808 0.9705
-2.2688 7.1614 -1.4120 0.9699
-4.1877 9.9781 -2.0340 0.9569
-5.0730 9.5584 -2.0340 0.9569
-8.1309 7.1401 -2.0339 0.9569
-9.2840 5.5585 -2.0339 0.9569
-10.1333 3.7950 -2.0339 0.9569
-10.4349 2.8630 -2.0338 0.9569
3.0923 9.1122 -2.0340 0.9614
2.2555 9.3545 -2.0340 0.9614
-0.2745 7.8180 -1.6536 0.9685
-0.9130 7.2269 -1.5398 0.9707
-1.5961 7.2658 -1.5725 0.9700
-2.2595 7.1322 -1.5815 0.9699
-3.7237 8.8726 -2.0340 0.9614
-4.5109 8.4994 -2.0340 0.9614
-5.2611 8.0566 -2.0339 0.9614
-5.9681 7.5477 -2.0339 0.9614
-7.7746 5.6690 -2.0339 0.9614
-8.6686 4.1757 -2.0339 0.9614
-9.4711 1.6961 -2.0338 0.9614
2.7812 8.1954 -2.0340 0.9651
1.2593 8.5624 -2.0340 0.9651
-2.3129 7.3008 -1.7999 0.9690
-4.0571 7.6444 -2.0340 0.9651
-5.9596 6.2750 -2.0339 0.9651
-6.9925 5.0988 -2.0339 0.9651
-7.7965 3.7556 -2.0339 0.9651
-8.3454 2.2897 -2.0339 0.9651
-8.5183 1.5255 -2.0338 0.9651
2.5245 7.4391 -2.0340 0.9681
1.8414 7.6369 -2.0340 0.9681
0.4355 7.8437 -2.0340 0.9681
-0.2757 7.8508 -2.0340 0.9681
-0.9361 7.4096 -1.9337 0.9696
-2.3725 7.4888 -2.0340 0.9681
-3.0400 7.2435 -2.0340 0.9681
-3.6827 6.9388 -2.0339 0.9681
-4.2951 6.5773 -2.0339 0.9681
-5.9026 5.1833 -2.0339 0.9681
-7.5753 2.0784 -2.0339 0.9681
1.6841 6.9847 -2.0340 0.9706
-2.1698 6.8493 -2.0340 0.9706
-2.7804 6.6249 -2.0340 0.9706
-3.3682 6.3463 -2.0339 0.9706
-4.4563 5.6357 -2.0339 0.9706
-5.8052 4.2329 -2.0339 0.9706
-6.1642 3.6906 -2.0339 0.9706
-6.4727 3.1179 -2.0339 0.9706
-6.9284 1.9009 -2.0339 0.9706
-7.0719 1.2665 -2.0339 0.9706
2.1252 6.2621 -2.0340 0.9727
1.5501 6.4287 -2.0340 0.9727
0.9623 6.5425 -2.0340 0.9727
-0.2321 6.6088 -2.0340 0.9727
-2.5591 6.0975 -2.0339 0.9727
-3.1000 5.8411 -2.0339 0.9727
-4.1015 5.1870 -2.0339 0.9727
-6.3768 1.7496 -2.0339 0.9727
0.8904 6.0538 -2.0340 0.9745
-0.2147 6.1152 -2.0340 0.9745
-1.8479 5.8332 -2.0339 0.9745
-2.3679 5.6421 -2.0339 0.9745
-3.7952 4.7996 -2.0339 0.9745
-4.5977 4.0374 -2.0339 0.9745
-4.9439 3.6050 -2.0339 0.9745
-5.5124 2.6554 -2.0339 0.9745
-5.7300 2.1459 -2.0339 0.9745
1.8278 5.3861 -2.0340 0.9761
0.8276 5.6271 -2.0340 0.9761
-1.2203 5.5552 -2.0340 0.9761
-2.2011 5.2445 -2.0339 0.9761
-3.5277 4.4614 -2.0339 0.9761
-3.9167 4.1240 -2.0339 0.9761
-4.8798 2.9215 -2.0339 0.9761
-5.3262 1.9947 -2.0339 0.9761
-5.4847 1.5048 -2.0339 0.9761
-5.5984 1.0026 -2.0339 0.9761
1.7057 5.0261 -2.0340 0.9775
1.2441 5.1597 -2.0340 0.9775
-1.1387 5.1839 -2.0339 0.9775
-1.6029 5.0597 -2.0339 0.9775
-2.4882 4.6881 -2.0339 0.9775
-2.9019 4.4439 -2.0339 0.9775
-3.6550 3.8484 -2.0339 0.9775
-3.9880 3.5021 -2.0339 0.9775
-4.5536 2.7263 -2.0339 0.9775
-4.7816 2.3033 -2.0339 0.9775
-5.1182 1.4042 -2.0339 0.9775
1.5970 4.7060 -2.0340 0.9787
0.7232 4.9168 -2.0340 0.9787
-0.1744 4.9666 -2.0340 0.9787
-0.6229 4.9304 -2.0340 0.9788
-1.9232 4.5824 -2.0339 0.9788
-2.7172 4.1610 -2.0339 0.9788
-3.0824 3.8982 -2.0339 0.9788
-4.0154 2.9279 -2.0339 0.9788
-4.4771 2.1566 -2.0339 0.9788
-4.6538 1.7429 -2.0339 0.9788
1.4998 4.4195 -2.0340 0.9798
-0.1637 4.6641 -2.0340 0.9798
-0.5849 4.6302 -2.0339 0.9798
-1.0013 4.5583 -2.0339 0.9798
-1.8060 4.3033 -2.0339 0.9798
-2.1879 4.1223 -2.0339 0.9798
-2.5517 3.9075 -2.0339 0.9798
-2.8946 3.6607 -2.0339 0.9798
-3.7708 2.7496 -2.0339 0.9798
-4.0041 2.3973 -2.0339 0.9798
-4.2045 2.0253 -2.0339 0.9798
-4.3704 1.6368 -2.0339 0.9798
-1.9052 0.3412 -0.8435 0.9916
0.6394 4.3473 -2.0340 0.9808
-0.1542 4.3913 -2.0339 0.9808
-1.7004 4.0516 -2.0339 0.9808
-3.0259 3.1861 -2.0339 0.9808
-3.5504 2.5888 -2.0339 0.9808
-3.7699 2.2571 -2.0339 0.9808
-4.1148 1.5410 -2.0339 0.9808
-1.5583 0.4275 -0.7480 0.9929
1.3325 3.9265 -2.0340 0.9817
-0.8896 4.0499 -2.0339 0.9817
-1.9439 3.6625 -2.0339 0.9817
-2.8554 3.0065 -2.0339 0.9817
-3.1157 2.7360 -2.0339 0.9817
-3.5575 2.1299 -2.0339 0.9817
-3.7355 1.7994 -2.0339 0.9817
-1.2596 0.4717 -0.6598 0.9940
0.9190 3.8114 -2.0340 0.9825
0.5705 3.8789 -2.0339 0.9825
0.2173 3.9146 -2.0339 0.9825
-0.1375 3.9182 -2.0339 0.9825
-0.8411 3.8293 -2.0339 0.9825
-1.5172 3.6151 -2.0339 0.9825
-1.8380 3.4631 -2.0339 0.9825
-2.4317 3.0753 -2.0339 0.9825
-2.6999 2.8428 -2.0339 0.9825
-3.3637 2.0139 -2.0339 0.9825
-1.1584 0.3178 -0.6232 0.9946
-1.1868 0.2125 -0.6255 0.9946
1.1934 3.5166 -2.0340 0.9832
0.5404 3.6741 -2.0339 0.9832
0.2059 3.7079 -2.0339 0.9832
-0.1303 3.7113 -2.0339 0.9832
-1.4371 3.4242 -2.0339 0.9832
-1.7409 3.2802 -2.0339 0.9832
-2.0304 3.1093 -2.0339 0.9832
-2.3033 2.9129 -2.0339 0.9832
-2.5573 2.6927 -2.0339 0.9832
-2.7904 2.4503 -2.0339 0.9832
-0.9882 0.4760 -0.6007 0.9950
-1.0391 0.2850 -0.5901 0.9951
1.1321 3.3360 -2.0339 0.9839
0.1954 3.5175 -2.0339 0.9839
-0.1236 3.5207 -2.0339 0.9839
-0.4415 3.4951 -2.0339 0.9839
-0.7559 3.4408 -2.0339 0.9839
-1.3633 3.2484 -2.0339 0.9839
-2.1850 2.7633 -2.0339 0.9839
-2.4260 2.5544 -2.0339 0.9839
-2.6471 2.3245 -2.0339 0.9839
-2.8464 2.0755 -2.0339 0.9839
-3.0225 1.8096 -2.0339 0.9839
-0.9173 0.4419 -0.5879 0.9953
-0.9592 0.2631 -0.5742 0.9954
-0.9786 0.1752 -0.5740 0.9954
