ply
format ascii 1.0
element vertex 191
property float32 x
property float32 y
property float32 z
property float32 I
end_header
4.0067 17.7916 0.7191 0.9296
4.0552 18.0068 0.3118 0.9288
4.1083 18.2429 -0.1053 0.9279
15.2736 9.0586 -1.3020 0.9313
17.6157 -3.3550 -1.7216 0.9305
14.8259 8.7931 -1.6549 0.9331
17.1232 -0.1253 -2.0340 0.9333
16.8666 2.9572 -2.0341 0.9333
16.5307 4.4685 -2.0341 0.9333
16.0596 5.9432 -2.0341 0.9333
12.9170 11.2426 -2.0341 0.9333
11.8488 12.3633 -2.0341 0.9333
10.6838 13.3830 -2.0341 0.9333
8.1019 15.0866 -2.0341 0.9333
6.7062 15.7566 -2.0341 0.9333
5.2557 16.2978 -2.0341 0.9333
14.3552 -0.1051 -2.0340 0.9437
14.3061 1.1919 -2.0340 0.9437
13.4635 4.9825 -2.0341 0.9437
12.9586 6.1781 -2.0341 0.9437
9.9333 10.3647 -2.0341 0.9437
7.9067 11.9825 -2.0341 0.9437
5.6220 13.2094 -2.0341 0.9437
4.4061 13.6631 -2.0341 0.9437
3.1540 14.0052 -2.0341 0.9437
12.1287 -2.3100 -2.0340 0.9512
12.2878 -1.2051 -2.0340 0.9512
12.3465 -0.0904 -2.0340 0.9512
12.3043 1.0251 -2.0340 0.9512
11.5796 4.2853 -2.0340 0.9512
11.1453 5.3136 -2.0341 0.9512
10.0076 7.2320 -2.0341 0.9512
8.5433 8.9143 -2.0341 0.9512
6.8003 10.3058 -2.0341 0.9512
5.8417 10.8779 -2.0341 0.9512
3.7895 11.7513 -2.0341 0.9512
2.7127 12.0455 -2.0341 0.9512
10.7696 -1.0562 -2.0340 0.9569
10.8211 -0.0792 -2.0340 0.9569
10.6589 1.8688 -2.0340 0.9569
10.1489 3.7558 -2.0340 0.9569
9.7682 4.6571 -2.0340 0.9569
8.7711 6.3384 -2.0340 0.9569
8.1628 7.1047 -2.0340 0.9569
6.7515 8.4573 -2.0341 0.9569
5.1199 9.5339 -2.0341 0.9569
4.2379 9.9573 -2.0340 0.9569
2.3775 10.5572 -2.0340 0.9569
9.4525 -1.8002 -2.0340 0.9614
9.2891 2.5110 -2.0340 0.9614
9.0244 3.3397 -2.0340 0.9614
8.6859 4.1411 -2.0340 0.9614
8.2764 4.9087 -2.0340 0.9614
7.2584 6.3175 -2.0340 0.9614
6.6581 6.9473 -2.0340 0.9614
5.2997 8.0317 -2.0340 0.9614
4.5527 8.4775 -2.0340 0.9614
3.7684 8.8540 -2.0340 0.9614
2.9533 9.1582 -2.0340 0.9614
8.5015 -1.6191 -2.0340 0.9651
8.6541 -0.0633 -2.0340 0.9651
8.5244 1.4946 -2.0340 0.9651
8.3546 2.2583 -2.0340 0.9651
6.5281 5.6819 -2.0340 0.9651
5.9883 6.2483 -2.0340 0.9651
4.0946 7.6246 -2.0340 0.9651
3.3893 7.9633 -2.0340 0.9651
2.6561 8.2369 -2.0340 0.9651
1.9014 8.4431 -2.0340 0.9651
7.8286 0.6522 -2.0340 0.9681
5.9257 5.1575 -2.0340 0.9681
4.3266 6.5570 -2.0340 0.9681
3.7167 6.9210 -2.0340 0.9681
3.0765 7.2283 -2.0340 0.9681
2.4111 7.4766 -2.0340 0.9681
1.7259 7.6638 -2.0340 0.9681
7.0579 -1.3442 -2.0339 0.9706
7.1505 -0.7013 -2.0340 0.9706
7.1846 -0.0526 -2.0340 0.9706
6.7382 2.4936 -2.0340 0.9706
6.4855 3.0921 -2.0340 0.9706
5.8235 4.2083 -2.0340 0.9706
5.4196 4.7171 -2.0340 0.9706
4.9714 5.1873 -2.0340 0.9706
3.3993 6.3299 -2.0340 0.9706
2.2051 6.8381 -2.0340 0.9706
6.5812 -0.6454 -2.0339 0.9727
6.3837 1.7256 -2.0340 0.9727
5.9692 2.8458 -2.0340 0.9727
5.6878 3.3733 -2.0340 0.9727
5.3599 3.8733 -2.0340 0.9727
4.1257 5.1681 -2.0340 0.9727
3.6421 5.5196 -2.0340 0.9727
3.1287 5.8260 -2.0340 0.9727
2.0295 6.2937 -2.0340 0.9727
1.4528 6.4513 -2.0340 0.9727
6.0108 -1.1448 -2.0339 0.9745
6.0897 -0.5972 -2.0339 0.9745
6.0978 0.5080 -2.0340 0.9745
6.0270 1.0567 -2.0340 0.9745
5.9069 1.5967 -2.0340 0.9745
5.7386 2.1237 -2.0340 0.9745
5.2630 3.1214 -2.0340 0.9745
2.8951 5.3908 -2.0340 0.9745
2.3963 5.6303 -2.0340 0.9745
1.3443 5.9695 -2.0340 0.9745
5.3342 1.9740 -2.0340 0.9761
5.1341 2.4477 -2.0340 0.9761
4.6100 3.3314 -2.0340 0.9761
4.2903 3.7341 -2.0340 0.9761
3.9354 4.1064 -2.0340 0.9761
2.6910 5.0109 -2.0340 0.9761
2.2274 5.2335 -2.0340 0.9761
1.7457 5.4132 -2.0340 0.9761
1.2496 5.5487 -2.0340 0.9761
5.3074 -0.0389 -2.0339 0.9775
5.2892 0.4406 -2.0340 0.9775
4.3019 3.1087 -2.0340 0.9775
2.5111 4.6760 -2.0340 0.9775
2.0786 4.8837 -2.0340 0.9775
1.1661 5.1779 -2.0340 0.9775
4.9525 0.4126 -2.0339 0.9788
4.8950 0.8582 -2.0340 0.9787
4.7975 1.2968 -2.0340 0.9787
4.2745 2.5351 -2.0340 0.9787
4.0280 2.9108 -2.0340 0.9787
3.4387 3.5880 -2.0340 0.9787
3.1005 3.8839 -2.0340 0.9787
2.7370 4.1480 -2.0340 0.9787
4.5845 -0.8732 -2.0339 0.9798
4.6447 -0.4555 -2.0339 0.9798
4.6509 0.3874 -2.0339 0.9798
4.3769 1.6197 -2.0340 0.9798
4.2127 2.0084 -2.0340 0.9798
3.7827 2.7336 -2.0340 0.9798
3.5204 3.0640 -2.0340 0.9798
3.2293 3.3695 -2.0340 0.9798
2.9117 3.6473 -2.0340 0.9798
2.2080 4.1116 -2.0340 0.9798
1.8277 4.2942 -2.0340 0.9798
1.4324 4.4418 -2.0340 0.9798
1.0254 4.5529 -2.0340 0.9798
4.3164 -0.8221 -2.0339 0.9808
4.3280 0.7588 -2.0339 0.9808
4.2418 1.1466 -2.0339 0.9808
4.1209 1.5250 -2.0340 0.9808
3.9664 1.8910 -2.0340 0.9808
3.5614 2.5737 -2.0340 0.9808
3.0404 3.1724 -2.0340 0.9808
2.7414 3.4340 -2.0340 0.9808
2.0789 3.8712 -2.0340 0.9808
1.7208 4.0431 -2.0340 0.9808
1.3486 4.1820 -2.0340 0.9808
0.9654 4.2867 -2.0340 0.9808
4.0732 -0.7758 -2.0339 0.9817
4.1267 -0.4047 -2.0339 0.9817
4.0842 0.7160 -2.0339 0.9817
4.0029 1.0820 -2.0339 0.9817
3.7429 1.7845 -2.0340 0.9817
3.1277 2.7223 -2.0340 0.9817
2.8691 2.9937 -2.0340 0.9817
2.5870 3.2405 -2.0340 0.9817
1.6238 3.8153 -2.0340 0.9817
1.2726 3.9464 -2.0340 0.9817
2.1052 -0.4010 -1.1118 0.9904
2.0746 -0.2035 -1.0814 0.9907
2.0718 -0.0152 -1.0748 0.9907
2.0756 0.1729 -1.0805 0.9907
3.7848 1.0231 -2.0339 0.9825
3.6770 1.3607 -2.0339 0.9825
3.3722 2.0000 -2.0340 0.9825
2.9574 2.5740 -2.0340 0.9825
2.7128 2.8306 -2.0340 0.9825
2.4461 3.0640 -2.0340 0.9825
1.2033 3.7314 -2.0340 0.9825
0.8614 3.8248 -2.0340 0.9825
1.8551 -0.3533 -1.0343 0.9914
1.8494 -0.1814 -1.0178 0.9916
1.8511 0.1542 -1.0173 0.9916
1.8530 0.3249 -1.0304 0.9915
3.3521 1.5981 -2.0339 0.9832
2.8012 2.4381 -2.0340 0.9832
2.5695 2.6811 -2.0340 0.9832
2.0453 3.0996 -2.0340 0.9832
1.4543 3.4170 -2.0340 0.9832
1.7246 -0.0126 -0.9957 0.9921
1.7202 0.6366 -1.0590 0.9916
3.1800 1.5161 -2.0339 0.9839
3.0301 1.7971 -2.0339 0.9839
2.4376 2.5434 -2.0339 0.9839
1.3796 3.2415 -2.0339 0.9839
