ply
format ascii 1.0
element vertex 221
property float32 x
property float32 y
property float32 z
property float32 I
end_header
3.5030 18.5720 3.3325 0.9261
-12.7210 12.9738 3.2038 0.9289
1.7555 17.6797 2.7218 0.9306
-12.3823 12.6284 2.7094 0.9309
3.4389 18.2331 2.4162 0.9279
-10.9336 13.2987 2.2419 0.9329
-11.7120 11.9447 2.1784 0.9347
1.7979 18.1078 1.9540 0.9294
3.3542 17.7839 1.5320 0.9299
-11.3722 13.8321 1.5159 0.9306
-12.0359 12.2752 1.4553 0.9333
3.3275 17.6425 1.1133 0.9306
1.8625 18.7581 0.7433 0.9273
3.3961 18.0060 -0.1032 0.9293
-16.3291 6.1086 -1.6738 0.9323
4.6315 16.4861 -2.0341 0.9333
0.1972 17.1229 -2.0341 0.9333
-1.2458 7.5570 -0.9098 0.9696
-1.8857 7.3591 -0.9024 0.9699
-8.4070 14.9173 -2.0340 0.9334
-9.6776 14.1259 -2.0340 0.9334
-10.8743 13.2265 -2.0340 0.9334
-13.9322 9.9533 -2.0339 0.9334
-14.7481 8.6982 -2.0339 0.9334
-15.4513 7.3769 -2.0339 0.9334
5.0751 13.4290 -2.0341 0.9437
3.8828 13.8209 -2.0341 0.9437
1.4185 14.2856 -2.0341 0.9437
0.1654 14.3548 -2.0341 0.9437
-0.5948 7.8174 -1.1108 0.9688
-1.2289 7.4540 -1.0704 0.9699
-4.7643 13.5418 -2.0340 0.9437
-5.9288 13.0738 -2.0340 0.9437
-8.1132 11.8425 -2.0340 0.9437
-9.1164 11.0885 -2.0339 0.9437
-10.9068 9.3328 -2.0339 0.9437
-11.6801 8.3444 -2.0339 0.9437
-12.3642 7.2923 -2.0339 0.9437
-12.9538 6.1844 -2.0339 0.9437
5.3570 11.1246 -2.0341 0.9512
3.3395 11.8870 -2.0341 0.9512
2.2885 12.1332 -2.0341 0.9512
1.2200 12.2867 -2.0340 0.9512
0.1422 12.3462 -2.0340 0.9512
-1.2070 7.3210 -1.2223 0.9704
-4.0976 11.6470 -2.0340 0.9512
-5.0992 11.2445 -2.0340 0.9512
-6.9780 10.1854 -2.0340 0.9512
-7.8409 9.5370 -2.0339 0.9512
-9.3807 8.0270 -2.0339 0.9512
-10.0459 7.1769 -2.0339 0.9512
-11.1413 5.3192 -2.0339 0.9512
3.8256 10.1229 -2.0340 0.9569
2.9269 10.4183 -2.0340 0.9569
0.1246 10.8208 -2.0340 0.9569
-1.1843 7.1834 -1.3684 0.9708
-1.8071 7.0523 -1.3684 0.9708
-2.6100 7.4186 -1.4782 0.9685
-5.3129 9.4272 -2.0340 0.9569
-7.5759 7.7265 -2.0339 0.9569
-8.2218 7.0352 -2.0339 0.9569
-8.8047 6.2902 -2.0339 0.9569
-9.7649 4.6620 -2.0339 0.9569
-10.1347 3.7913 -2.0339 0.9569
4.1749 8.6698 -2.0340 0.9614
3.4018 9.0013 -2.0340 0.9614
2.6026 9.2640 -2.0340 0.9614
0.1108 9.6219 -2.0340 0.9614
-0.5628 7.3966 -1.5680 0.9701
-7.8293 5.5933 -2.0339 0.9614
-8.2879 4.8881 -2.0339 0.9614
2.3407 8.3320 -2.0340 0.9651
0.8551 8.6121 -2.0340 0.9651
0.0996 8.6539 -2.0340 0.9651
-0.5649 7.4250 -1.7501 0.9699
-3.5742 7.8817 -2.0340 0.9651
-4.2489 7.5394 -2.0339 0.9651
-6.0589 6.1793 -2.0339 0.9651
-6.5754 5.6264 -2.0339 0.9651
-7.0416 5.0306 -2.0339 0.9651
-7.4541 4.3964 -2.0339 0.9651
2.7771 7.3485 -2.0340 0.9681
1.4560 7.7196 -2.0340 0.9681
0.7762 7.8173 -2.0340 0.9681
0.0904 7.8552 -2.0340 0.9681
-1.9499 7.6098 -2.0340 0.9681
-3.8568 6.8436 -2.0339 0.9681
-7.0888 3.3844 -2.0339 0.9681
3.1173 6.4734 -2.0340 0.9706
2.5400 6.7210 -2.0340 0.9706
1.3316 7.0604 -2.0340 0.9706
0.7099 7.1497 -2.0340 0.9706
0.0827 7.1844 -2.0340 0.9706
-1.1687 7.0891 -2.0340 0.9706
-1.7834 6.9599 -2.0340 0.9706
-2.3845 6.7775 -2.0340 0.9706
-2.9673 6.5433 -2.0339 0.9706
-3.5275 6.2592 -2.0339 0.9706
-5.0301 5.1300 -2.0339 0.9706
-6.1884 3.6498 -2.0339 0.9706
-6.4835 3.0954 -2.0339 0.9706
2.8691 5.9581 -2.0340 0.9727
1.7886 6.3664 -2.0340 0.9727
1.2257 6.4983 -2.0340 0.9727
-1.0757 6.5248 -2.0340 0.9727
-1.6414 6.4058 -2.0340 0.9727
-2.7311 6.0224 -2.0339 0.9727
-3.7374 5.4553 -2.0339 0.9727
-4.1996 5.1080 -2.0339 0.9727
-5.3806 3.8439 -2.0339 0.9727
-5.9674 2.8490 -2.0339 0.9727
-6.1934 2.3169 -2.0339 0.9727
2.1632 5.7238 -2.0340 0.9745
1.6550 5.8909 -2.0340 0.9745
0.6046 6.0890 -2.0340 0.9745
-2.5271 5.5726 -2.0339 0.9745
-3.4582 5.0478 -2.0339 0.9745
-4.6491 3.9781 -2.0339 0.9745
-5.2703 3.1084 -2.0339 0.9745
-5.5216 2.6362 -2.0339 0.9745
1.5383 5.4758 -2.0340 0.9761
1.0542 5.5892 -2.0340 0.9761
0.5620 5.6599 -2.0340 0.9761
0.0655 5.6873 -2.0340 0.9761
-0.9252 5.6119 -2.0340 0.9761
-1.4118 5.5096 -2.0340 0.9761
-2.3490 5.1799 -2.0339 0.9761
-3.2145 4.6921 -2.0339 0.9761
-4.6279 3.3062 -2.0339 0.9761
-4.8989 2.8893 -2.0339 0.9761
-5.1325 2.4504 -2.0339 0.9761
-5.3269 1.9928 -2.0339 0.9761
2.3028 4.7820 -2.0340 0.9775
-0.8634 5.2369 -2.0340 0.9775
-1.3175 5.1414 -2.0339 0.9775
-2.1920 4.8337 -2.0339 0.9775
-2.9997 4.3785 -2.0339 0.9775
-3.3707 4.0998 -2.0339 0.9775
-4.0326 3.4506 -2.0339 0.9775
-4.3186 3.0852 -2.0339 0.9775
-4.5715 2.6962 -2.0339 0.9775
-4.7895 2.2867 -2.0339 0.9775
2.1562 4.4776 -2.0340 0.9787
1.7569 4.6488 -2.0340 0.9787
0.9211 4.8836 -2.0340 0.9787
0.4911 4.9453 -2.0340 0.9787
0.0573 4.9693 -2.0340 0.9787
-0.3770 4.9553 -2.0340 0.9788
-0.8084 4.9034 -2.0339 0.9788
-1.2336 4.8141 -2.0339 0.9788
-2.0525 4.5259 -2.0339 0.9788
-2.4399 4.3294 -2.0339 0.9788
-3.1561 3.8387 -2.0339 0.9788
-3.4793 3.5484 -2.0339 0.9788
-4.0436 2.8888 -2.0339 0.9788
-4.2805 2.5246 -2.0339 0.9788
-4.4846 2.1411 -2.0339 0.9788
-4.6544 1.7412 -2.0339 0.9788
2.0249 4.2048 -2.0340 0.9798
0.4611 4.6442 -2.0340 0.9798
0.0537 4.6667 -2.0340 0.9798
-1.1584 4.5209 -2.0339 0.9798
-1.5489 4.4024 -2.0339 0.9798
-2.9638 3.6050 -2.0339 0.9798
-3.2674 3.3323 -2.0339 0.9798
-3.5459 3.0342 -2.0339 0.9798
-3.7973 2.7129 -2.0339 0.9798
-4.0198 2.3708 -2.0339 0.9798
-4.3710 1.6351 -2.0339 0.9798
1.9064 3.9590 -2.0340 0.9808
0.0506 4.3938 -2.0340 0.9808
-1.0907 4.2565 -2.0339 0.9808
-1.4583 4.1450 -2.0339 0.9808
-1.8148 4.0018 -2.0339 0.9808
-2.4834 3.6249 -2.0339 0.9808
-3.3386 2.8567 -2.0339 0.9808
-3.5753 2.5542 -2.0339 0.9808
-3.9652 1.8931 -2.0339 0.9808
-4.1154 1.5395 -2.0339 0.9808
1.7990 3.7359 -2.0340 0.9817
0.4097 4.1262 -2.0340 0.9817
-0.6745 4.0912 -2.0339 0.9817
-1.3761 3.9114 -2.0339 0.9817
-1.7125 3.7763 -2.0339 0.9817
-2.0357 3.6123 -2.0339 0.9817
-2.3435 3.4206 -2.0339 0.9817
-2.6333 3.2029 -2.0339 0.9817
-2.9030 2.9606 -2.0339 0.9817
-3.1504 2.6958 -2.0339 0.9817
-1.2597 0.4712 -0.6598 0.9940
1.7011 3.5324 -2.0340 0.9825
1.3860 3.6675 -2.0340 0.9825
0.0452 3.9204 -2.0339 0.9825
-0.6377 3.8684 -2.0339 0.9825
-2.2158 3.2343 -2.0339 0.9825
-2.7448 2.7994 -2.0339 0.9825
-3.1901 2.2790 -2.0339 0.9825
-3.3770 1.9917 -2.0339 0.9825
-1.1288 0.4222 -0.6252 0.9946
1.0043 3.5752 -2.0339 0.9832
0.6883 3.6492 -2.0339 0.9832
0.3670 3.6954 -2.0339 0.9832
-0.2817 3.7029 -2.0339 0.9832
-1.2325 3.5031 -2.0339 0.9832
-1.5337 3.3820 -2.0339 0.9832
-1.8232 3.2351 -2.0339 0.9832
-2.3584 2.8685 -2.0339 0.9832
-2.8215 2.4144 -2.0339 0.9832
-3.0216 2.1587 -2.0339 0.9832
-3.1986 1.8865 -2.0339 0.9832
-0.9895 0.4724 -0.6005 0.9950
1.5285 3.1740 -2.0339 0.9839
1.2454 3.2954 -2.0339 0.9839
0.3481 3.5056 -2.0339 0.9839
0.0406 3.5226 -2.0339 0.9839
-0.5730 3.4759 -2.0339 0.9839
-0.8745 3.4126 -2.0339 0.9839
-1.7296 3.0690 -2.0339 0.9839
-2.2373 2.7212 -2.0339 0.9839
-2.4664 2.5154 -2.0339 0.9839
-0.9184 0.4384 -0.5876 0.9953
