ply
format ascii 1.0
element vertex 194
property float32 x
property float32 y
property float32 z
property float32 I
end_header
-12.4478 -8.1045 -0.7533 0.9422
-17.0857 1.1015 -2.0338 0.9334
-17.1147 -0.4667 -2.0337 0.9334
-17.0000 -2.0310 -2.0337 0.9334
-16.7427 -3.5783 -2.0337 0.9334
-15.8099 -6.5699 -2.0337 0.9334
-15.1423 -7.9892 -2.0337 0.9334
-11.9287 -7.7666 -1.6908 0.9443
-11.2725 -12.8856 -2.0337 0.9334
-4.4096 -16.5429 -2.0337 0.9334
-2.8771 -16.8771 -2.0337 0.9334
-1.3206 -17.0697 -2.0337 0.9334
-14.3484 -0.3913 -2.0338 0.9437
-12.6948 -6.6979 -2.0337 0.9437
-12.0285 -7.8315 -2.0337 0.9437
-11.2612 -8.8994 -2.0337 0.9437
-9.4505 -10.8029 -2.0337 0.9437
-8.4222 -11.6224 -2.0337 0.9437
-6.1628 -12.9629 -2.0337 0.9437
-2.4121 -14.1493 -2.0337 0.9437
-1.1071 -14.3107 -2.0337 0.9437
-12.3409 -0.3366 -2.0338 0.9512
-12.2582 -1.4645 -2.0338 0.9512
-12.0727 -2.5802 -2.0338 0.9512
-11.7859 -3.6743 -2.0338 0.9512
-10.9187 -5.7608 -2.0337 0.9512
-10.3457 -6.7359 -2.0337 0.9512
-9.6857 -7.6544 -2.0337 0.9512
-8.9446 -8.5087 -2.0337 0.9512
-8.1284 -9.2915 -2.0337 0.9512
-7.2439 -9.9964 -2.0337 0.9512
-6.2987 -10.6174 -2.0337 0.9512
-5.3006 -11.1493 -2.0337 0.9512
-3.1796 -11.9287 -2.0337 0.9512
-2.0746 -12.1697 -2.0337 0.9512
-0.9522 -12.3086 -2.0338 0.9512
-10.7980 0.6962 -2.0338 0.9569
-10.8164 -0.2950 -2.0338 0.9569
-10.7439 -1.2836 -2.0338 0.9569
-10.5813 -2.2614 -2.0338 0.9569
-9.9918 -4.1521 -2.0338 0.9569
-9.0676 -5.9037 -2.0338 0.9569
-8.4892 -6.7088 -2.0338 0.9569
-7.1242 -8.1437 -2.0337 0.9569
-5.5206 -9.3058 -2.0337 0.9569
-4.6458 -9.7720 -2.0338 0.9569
-2.7869 -10.4551 -2.0338 0.9569
-1.8184 -10.6663 -2.0338 0.9569
-0.8345 -10.7880 -2.0338 0.9569
-9.6180 -0.2623 -2.0338 0.9614
-8.8849 -3.6922 -2.0338 0.9614
-8.5096 -4.4898 -2.0338 0.9614
-8.0630 -5.2497 -2.0338 0.9614
-6.3350 -7.2415 -2.0338 0.9614
-5.6457 -7.7909 -2.0338 0.9614
-4.9090 -8.2748 -2.0338 0.9614
-4.1311 -8.6894 -2.0338 0.9614
-1.6170 -9.4846 -2.0338 0.9614
-0.7421 -9.5929 -2.0338 0.9614
-8.6358 0.5567 -2.0338 0.9651
-8.6505 -0.2359 -2.0338 0.9651
-8.5926 -1.0266 -2.0338 0.9651
-8.2614 -2.5755 -2.0338 0.9651
-7.9911 -3.3208 -2.0338 0.9651
-7.6536 -4.0381 -2.0338 0.9651
-5.6977 -6.5130 -2.0338 0.9651
-2.9847 -8.1226 -2.0338 0.9651
-2.2288 -8.3616 -2.0338 0.9651
-1.4543 -8.5305 -2.0338 0.9651
-7.8522 -0.2142 -2.0338 0.9681
-7.6816 -1.6417 -2.0338 0.9681
-7.2537 -3.0143 -2.0338 0.9681
-6.5827 -4.2859 -2.0338 0.9681
-6.1629 -4.8704 -2.0338 0.9681
-5.6913 -5.4139 -2.0338 0.9681
-4.0077 -6.7556 -2.0338 0.9681
-3.3727 -7.0941 -2.0338 0.9681
-2.0232 -7.5900 -2.0338 0.9681
-0.6059 -7.8316 -2.0338 0.9681
-7.1817 -0.1959 -2.0338 0.9706
-7.0256 -1.5015 -2.0338 0.9706
-5.6366 -4.4544 -2.0338 0.9706
-4.7303 -5.4072 -2.0338 0.9706
-4.2156 -5.8174 -2.0338 0.9706
-2.4779 -6.7434 -2.0338 0.9706
-1.8504 -6.9419 -2.0338 0.9706
-1.2073 -7.0821 -2.0338 0.9706
-6.5987 0.4254 -2.0338 0.9727
-6.6100 -0.1803 -2.0338 0.9727
-6.4663 -1.3820 -2.0338 0.9727
-6.3127 -1.9680 -2.0338 0.9727
-5.8482 -3.0856 -2.0338 0.9727
-5.5413 -3.6079 -2.0338 0.9727
-5.1879 -4.0999 -2.0338 0.9727
-4.7909 -4.5574 -2.0338 0.9727
-4.3537 -4.9768 -2.0338 0.9727
-2.8391 -5.9718 -2.0338 0.9727
-1.1112 -6.5183 -2.0338 0.9727
-6.1059 0.3936 -2.0339 0.9745
-6.1163 -0.1668 -2.0338 0.9745
-5.9834 -1.2788 -2.0338 0.9745
-5.1275 -3.3384 -2.0338 0.9745
-4.4332 -4.2171 -2.0338 0.9745
-4.0286 -4.6050 -2.0338 0.9745
-3.5902 -4.9544 -2.0338 0.9745
-3.1217 -5.2622 -2.0338 0.9745
-2.6271 -5.5258 -2.0338 0.9745
-1.5759 -5.9121 -2.0338 0.9745
-1.0282 -6.0315 -2.0338 0.9745
-5.6756 0.3659 -2.0339 0.9761
-5.6853 -0.1551 -2.0338 0.9761
-5.6472 -0.6747 -2.0338 0.9761
-5.4296 -1.6927 -2.0338 0.9761
-5.2519 -2.1825 -2.0338 0.9761
-4.7662 -3.1032 -2.0338 0.9761
-4.4622 -3.5263 -2.0338 0.9761
-4.1207 -3.9199 -2.0338 0.9761
-3.7447 -4.2805 -2.0338 0.9761
-3.3373 -4.6053 -2.0338 0.9761
-2.9017 -4.8913 -2.0338 0.9761
-2.4420 -5.1364 -2.0338 0.9761
-1.9616 -5.3383 -2.0338 0.9761
-1.4648 -5.4954 -2.0338 0.9761
-0.4387 -5.6704 -2.0338 0.9761
-5.1900 -1.1093 -2.0338 0.9775
-5.0668 -1.5796 -2.0338 0.9775
-4.4476 -2.8958 -2.0338 0.9775
-3.8454 -3.6579 -2.0338 0.9775
-3.4945 -3.9945 -2.0338 0.9775
-3.1142 -4.2975 -2.0338 0.9775
-2.7078 -4.5645 -2.0338 0.9775
-2.2787 -4.7932 -2.0338 0.9775
-0.8919 -5.2318 -2.0338 0.9775
-2.1209 0.1367 -0.8698 0.9909
-4.7442 -1.4790 -2.0338 0.9788
-4.5889 -1.9070 -2.0338 0.9788
-2.9159 -4.0239 -2.0338 0.9788
-1.7140 -4.6645 -2.0338 0.9788
-0.3833 -4.9546 -2.0338 0.9788
-1.9167 0.1235 -0.8371 0.9917
-1.9189 -0.0524 -0.8366 0.9917
-1.9059 -0.2277 -0.8365 0.9917
-1.9034 -0.4068 -0.8483 0.9915
-4.3095 -1.7908 -2.0338 0.9798
-4.1274 -2.1777 -2.0338 0.9798
-3.9108 -2.5463 -2.0338 0.9798
-3.6614 -2.8935 -2.0338 0.9798
-3.3812 -3.2164 -2.0338 0.9798
-2.0037 -4.2147 -2.0338 0.9798
-0.7843 -4.6004 -2.0338 0.9798
-1.5815 -0.0432 -0.7323 0.9931
-1.6096 -0.1923 -0.7504 0.9929
-1.5305 -0.4772 -0.7421 0.9930
-4.0574 -1.6861 -2.0338 0.9808
-3.6821 -2.3974 -2.0338 0.9808
-3.1835 -3.0284 -2.0338 0.9808
-0.3389 -4.3808 -2.0338 0.9808
-1.3514 0.0871 -0.6643 0.9940
-1.3440 -0.0367 -0.6595 0.9940
-1.3525 -0.1616 -0.6682 0.9939
-1.3301 -0.2843 -0.6672 0.9940
-1.2906 -0.4024 -0.6631 0.9940
-3.4747 -2.2623 -2.0338 0.9817
-2.1155 -3.5660 -2.0338 0.9817
-1.4301 -3.8919 -2.0338 0.9817
-1.0680 -4.0064 -2.0338 0.9817
-0.3198 -4.1339 -2.0339 0.9817
-1.1757 -0.2513 -0.6237 0.9946
-1.1443 -0.3568 -0.6218 0.9946
-3.4674 -1.8294 -2.0339 0.9825
-3.0759 -2.4308 -2.0338 0.9825
-2.3005 -3.1746 -2.0338 0.9825
-1.3522 -3.6799 -2.0338 0.9825
-0.3024 -3.9088 -2.0339 0.9825
-1.0770 -0.1287 -0.5941 0.9951
-1.0559 -0.2257 -0.5914 0.9951
-1.0337 -0.3223 -0.5931 0.9951
-1.0085 -0.4191 -0.5981 0.9950
-1.2024 -0.6344 -0.7446 0.9938
-3.1119 -2.0262 -2.0339 0.9832
-2.9134 -2.3024 -2.0338 0.9832
-2.4450 -2.7949 -2.0338 0.9832
-0.6241 -3.6606 -2.0339 0.9832
-0.2864 -3.7024 -2.0339 0.9832
-0.9898 0.0638 -0.5726 0.9954
-0.9899 -0.0270 -0.5717 0.9954
-0.9864 -0.1179 -0.5735 0.9954
-0.9723 -0.2078 -0.5740 0.9954
-0.9345 -0.3884 -0.5843 0.9953
-2.5524 -2.4280 -2.0339 0.9839
-2.3195 -2.6514 -2.0339 0.9839
-2.0671 -2.8525 -2.0339 0.9839
-0.9073 -3.4039 -2.0339 0.9839
-0.5920 -3.4727 -2.0339 0.9839
