ply
format ascii 1.0
element vertex 198
property float32 x
property float32 y
property float32 z
property float32 I
end_header
2.9061 18.8604 3.3648 0.9254
-12.3697 13.1347 3.1814 0.9293
2.7410 17.7888 2.7573 0.9298
-11.8675 12.6013 2.6518 0.9324
-10.8668 13.8700 2.2945 0.9314
2.7155 17.6242 1.9148 0.9308
-11.5169 12.2290 1.8038 0.9347
2.6799 17.3928 1.4897 0.9318
-11.5530 12.2674 1.4265 0.9346
2.7162 17.6286 1.1061 0.9310
2.7179 17.6395 0.7037 0.9310
-12.7610 13.5500 0.7339 0.9282
2.7576 17.8968 0.3059 0.9301
2.8671 18.6078 -0.1060 0.9275
-1.6025 7.5025 -0.7365 0.9696
2.6078 16.9245 -2.0341 0.9333
1.0619 17.0911 -2.0341 0.9333
-0.4927 17.1169 -2.0341 0.9333
-1.5746 7.3714 -0.8954 0.9701
-5.0811 16.3523 -2.0340 0.9333
-6.5434 15.8239 -2.0340 0.9333
-7.9516 15.1650 -2.0340 0.9334
-11.7392 12.4651 -2.0339 0.9334
-12.8213 11.3488 -2.0339 0.9334
-14.6604 8.8455 -2.0339 0.9334
-15.4021 7.4792 -2.0339 0.9334
3.4642 13.9317 -2.0341 0.9437
2.1862 14.1885 -2.0341 0.9437
0.8902 14.3282 -2.0341 0.9437
-0.8926 7.4265 -1.0598 0.9702
-5.4855 13.2659 -2.0340 0.9437
-6.6662 12.7136 -2.0340 0.9437
-8.8532 11.2999 -2.0340 0.9437
-11.5674 8.5000 -2.0339 0.9437
-12.2906 7.4157 -2.0339 0.9437
-13.4279 5.0732 -2.0338 0.9437
2.9795 11.9823 -2.0341 0.9512
1.8803 12.2031 -2.0341 0.9512
-2.2608 7.2759 -1.2552 0.9696
-4.7180 11.4097 -2.0340 0.9512
-6.7016 10.3694 -2.0340 0.9512
-7.6145 9.7188 -2.0339 0.9512
-8.4646 8.9879 -2.0339 0.9512
-10.5709 6.3781 -2.0339 0.9512
-0.3114 10.8170 -2.0340 0.9569
-0.8796 7.3193 -1.3857 0.9704
-5.0251 9.5837 -2.0340 0.9569
-5.8737 9.0883 -2.0340 0.9569
-7.4188 7.8775 -2.0339 0.9569
-8.1027 7.1721 -2.0339 0.9569
-9.7337 4.7267 -2.0339 0.9569
2.3220 9.3382 -2.0340 0.9614
-0.2769 9.6185 -2.0340 0.9614
-0.8602 7.1572 -1.5238 0.9710
-1.5688 7.3445 -1.5875 0.9698
-3.6770 8.8921 -2.0340 0.9614
-5.2229 8.0814 -2.0339 0.9614
-5.9343 7.5743 -2.0339 0.9614
-6.5968 7.0047 -2.0339 0.9614
-7.2050 6.3775 -2.0339 0.9614
-7.7537 5.6976 -2.0339 0.9614
-8.2385 4.9708 -2.0339 0.9614
2.0884 8.3988 -2.0340 0.9651
0.5367 8.6378 -2.0340 0.9651
-0.8778 7.3039 -1.7290 0.9702
-1.5767 7.3814 -1.7739 0.9695
-4.0188 7.6646 -2.0340 0.9651
-5.9332 6.3001 -2.0339 0.9651
-7.4097 4.4708 -2.0339 0.9651
-7.7846 3.7802 -2.0339 0.9651
1.8956 7.6236 -2.0340 0.9681
-0.2261 7.8524 -2.0340 0.9681
-0.8940 7.4385 -1.9398 0.9695
-1.6410 7.6823 -2.0340 0.9681
-5.3856 5.7187 -2.0339 0.9681
-5.8821 5.2065 -2.0339 0.9681
1.0942 7.1011 -2.0340 0.9706
0.4455 7.1710 -2.0340 0.9706
-0.8573 7.1335 -2.0340 0.9706
-2.7455 6.6395 -2.0340 0.9706
-3.3364 6.3631 -2.0339 0.9706
-4.4310 5.6556 -2.0339 0.9706
-4.9257 5.2303 -2.0339 0.9706
-5.3798 4.7620 -2.0339 0.9706
-5.7895 4.2543 -2.0339 0.9706
-6.1515 3.7116 -2.0339 0.9706
-6.7207 2.5392 -2.0339 0.9706
1.0071 6.5357 -2.0340 0.9727
-0.1903 6.6101 -2.0340 0.9727
-1.9622 6.3150 -2.0340 0.9727
-3.0708 5.8565 -2.0339 0.9727
-4.0782 5.2053 -2.0339 0.9727
-4.5336 4.8139 -2.0339 0.9727
-6.1858 2.3370 -2.0339 0.9727
1.4766 5.9382 -2.0340 0.9745
0.9319 6.0476 -2.0340 0.9745
0.3794 6.1072 -2.0340 0.9745
-0.7302 6.0752 -2.0340 0.9745
-1.2782 5.9839 -2.0340 0.9745
-1.8157 5.8433 -2.0340 0.9745
-2.3382 5.6545 -2.0339 0.9745
-2.8414 5.4191 -2.0339 0.9745
-3.3212 5.1390 -2.0339 0.9745
-3.7737 4.8165 -2.0339 0.9745
-4.1950 4.4544 -2.0339 0.9745
-4.5817 4.0555 -2.0339 0.9745
-5.2389 3.1610 -2.0339 0.9745
-5.7237 2.1625 -2.0339 0.9745
1.3725 5.5196 -2.0340 0.9761
0.3527 5.6768 -2.0340 0.9761
-0.1637 5.6853 -2.0340 0.9761
-2.1734 5.2560 -2.0339 0.9761
-3.5077 4.4771 -2.0339 0.9761
-3.8993 4.1404 -2.0339 0.9761
-4.2588 3.7697 -2.0339 0.9761
-4.5832 3.3678 -2.0339 0.9761
0.8083 5.2457 -2.0340 0.9775
-0.6333 5.2696 -2.0340 0.9775
-1.1087 5.1904 -2.0339 0.9775
-2.4646 4.7005 -2.0339 0.9775
-2.8809 4.4576 -2.0339 0.9775
-3.2733 4.1779 -2.0339 0.9775
-4.9648 1.8757 -2.0339 0.9775
1.1992 4.8228 -2.0340 0.9787
0.7568 4.9117 -2.0340 0.9787
-0.1430 4.9676 -2.0340 0.9787
-0.5930 4.9341 -2.0340 0.9788
-1.4746 4.7458 -2.0339 0.9788
-1.8990 4.5924 -2.0339 0.9788
-2.3077 4.4012 -2.0339 0.9788
-3.0649 3.9119 -2.0339 0.9788
-3.7212 3.2938 -2.0339 0.9788
-4.4703 2.1708 -2.0339 0.9788
0.7107 4.6125 -2.0340 0.9798
-0.1343 4.6650 -2.0340 0.9798
-0.5569 4.6336 -2.0339 0.9798
-0.9749 4.5640 -2.0339 0.9798
-2.5331 3.9196 -2.0339 0.9798
-2.8782 3.6736 -2.0339 0.9798
-3.1996 3.3974 -2.0339 0.9798
-3.7607 2.7635 -2.0339 0.9798
-4.1980 2.0386 -2.0339 0.9798
1.0604 4.2642 -2.0340 0.9808
0.6691 4.3428 -2.0340 0.9808
0.2725 4.3856 -2.0340 0.9808
-0.5243 4.3626 -2.0339 0.9808
-3.0125 3.1988 -2.0339 0.9808
-3.5407 2.6019 -2.0339 0.9808
-3.7622 2.2700 -2.0339 0.9808
-0.1193 4.1447 -2.0339 0.9817
-0.4948 4.1168 -2.0339 0.9817
-1.2304 3.9597 -2.0339 0.9817
-2.2506 3.4824 -2.0339 0.9817
-2.5572 3.2639 -2.0339 0.9817
-2.8427 3.0185 -2.0339 0.9817
-3.1048 2.7482 -2.0339 0.9817
-3.3413 2.4553 -2.0339 0.9817
0.9461 3.8048 -2.0340 0.9825
0.5971 3.8749 -2.0339 0.9825
0.2431 3.9131 -2.0339 0.9825
-0.1128 3.9190 -2.0339 0.9825
-0.8190 3.8341 -2.0339 0.9825
-1.1634 3.7440 -2.0339 0.9825
-1.4982 3.6230 -2.0339 0.9825
-2.1280 3.2928 -2.0339 0.9825
-2.4179 3.0862 -2.0339 0.9825
-2.6879 2.8541 -2.0339 0.9825
-3.1593 2.3215 -2.0339 0.9825
-3.3568 2.0254 -2.0339 0.9825
-3.5267 1.7126 -2.0339 0.9825
-1.1278 0.4261 -0.6254 0.9946
0.8961 3.6038 -2.0339 0.9832
0.5655 3.6703 -2.0339 0.9832
-0.1068 3.7120 -2.0339 0.9832
-0.4431 3.6870 -2.0339 0.9832
-0.7757 3.6316 -2.0339 0.9832
-1.4191 3.4317 -2.0339 0.9832
-1.7245 3.2888 -2.0339 0.9832
-2.0156 3.1189 -2.0339 0.9832
-2.5460 2.7034 -2.0339 0.9832
-2.7807 2.4613 -2.0339 0.9832
-3.1796 1.9184 -2.0339 0.9832
-0.9870 0.4792 -0.6009 0.9950
0.8501 3.4188 -2.0339 0.9839
0.5365 3.4818 -2.0339 0.9839
0.2185 3.5161 -2.0339 0.9839
-0.1014 3.5214 -2.0339 0.9839
-0.4204 3.4977 -2.0339 0.9839
-0.7359 3.4451 -2.0339 0.9839
-1.0454 3.3642 -2.0339 0.9839
-1.6359 3.1200 -2.0339 0.9839
-1.9121 2.9587 -2.0339 0.9839
-2.1727 2.7731 -2.0339 0.9839
-2.4152 2.5646 -2.0339 0.9839
-2.6379 2.3349 -2.0339 0.9839
-2.8388 2.0860 -2.0339 0.9839
-3.0163 1.8199 -2.0339 0.9839
-0.9430 0.3562 -0.5820 0.9954
