ply
format ascii 1.0
element vertex 190
property float32 x
property float32 y
property float32 z
property float32 I
end_header
-12.3764 13.1316 3.1818 0.9293
-10.9036 13.8627 2.2967 0.9313
-11.5429 12.2473 1.4247 0.9347
-11.9605 12.6904 1.0814 0.9325
-12.7677 13.5469 0.7340 0.9282
-17.5376 5.0258 -0.9252 0.9295
-1.6962 7.5888 -0.5702 0.9693
-1.0347 7.8790 -0.7629 0.9686
-1.6645 7.4471 -0.7326 0.9698
-17.5542 5.0306 -1.7531 0.9292
-0.7063 17.1094 -2.0341 0.9333
-1.6575 7.4155 -0.9026 0.9699
-5.2108 16.3114 -2.0340 0.9333
-8.0260 15.1257 -2.0340 0.9334
-9.3432 14.3494 -2.0340 0.9334
-11.7439 12.4606 -2.0339 0.9334
-12.8084 11.3633 -2.0339 0.9334
-15.9729 6.1662 -2.0338 0.9334
-17.0350 1.7171 -2.0338 0.9334
-0.9769 7.4386 -1.0630 0.9701
-1.6236 7.2642 -1.0547 0.9704
-7.8328 12.0298 -2.0340 0.9437
-9.8455 10.4464 -2.0339 0.9437
-10.7380 9.5264 -2.0339 0.9437
-12.8767 6.3434 -2.0339 0.9437
-13.3911 5.1695 -2.0338 0.9437
-13.7987 3.9544 -2.0338 0.9437
-1.5934 7.1290 -1.2034 0.9708
-2.4659 7.7189 -1.3349 0.9677
-5.7872 10.9063 -2.0340 0.9512
-7.6328 9.7044 -2.0339 0.9512
-12.1240 2.3289 -2.0338 0.9512
-0.9502 7.2357 -1.3717 0.9707
-1.6239 7.2651 -1.3993 0.9702
-2.2896 7.1670 -1.4142 0.9698
-5.9045 9.0682 -2.0340 0.9569
-7.4218 7.8747 -2.0339 0.9569
-8.7028 6.4306 -2.0339 0.9569
-10.0946 3.8969 -2.0339 0.9569
-10.7659 1.0852 -2.0338 0.9569
-0.3211 7.7793 -1.6458 0.9687
-1.6198 7.2471 -1.5697 0.9701
-3.7341 8.8683 -2.0340 0.9614
-4.5102 8.4997 -2.0340 0.9614
-5.2504 8.0636 -2.0339 0.9614
-5.9487 7.5630 -2.0339 0.9614
-6.5995 7.0022 -2.0339 0.9614
-7.7386 5.7181 -2.0339 0.9614
-8.6314 4.2520 -2.0339 0.9614
-8.9762 3.4651 -2.0339 0.9614
-9.2495 2.6507 -2.0339 0.9614
-0.9461 7.2043 -1.7077 0.9706
-3.3584 7.9761 -2.0340 0.9651
-4.7222 7.2524 -2.0339 0.9651
-5.3502 6.8022 -2.0339 0.9651
-5.9356 6.2978 -2.0339 0.9651
-6.4737 5.7432 -2.0339 0.9651
-6.9601 5.1429 -2.0339 0.9651
-7.7631 3.8243 -2.0339 0.9651
-8.3190 2.3840 -2.0339 0.9651
-8.6101 0.8679 -2.0338 0.9651
-1.7136 7.6665 -2.0340 0.9681
-3.6821 6.9392 -2.0339 0.9681
-4.2864 6.5830 -2.0339 0.9681
-5.3878 5.7166 -2.0339 0.9681
-6.3178 4.6683 -2.0339 0.9681
-7.5512 2.1640 -2.0339 0.9681
-7.8155 0.7878 -2.0338 0.9681
-0.2964 7.1787 -2.0340 0.9706
-0.9355 7.1236 -2.0340 0.9706
-1.5672 7.0118 -2.0340 0.9706
-2.7882 6.6217 -2.0340 0.9706
-4.4417 5.6471 -2.0339 0.9706
-4.9277 5.2284 -2.0339 0.9706
-5.3744 4.7680 -2.0339 0.9706
-6.1360 3.7372 -2.0339 0.9706
-6.4449 3.1749 -2.0339 0.9706
-6.7024 2.5874 -2.0339 0.9706
-0.8610 6.5565 -2.0340 0.9727
-1.4425 6.4536 -2.0340 0.9727
-2.0123 6.2991 -2.0340 0.9727
-2.5662 6.0946 -2.0339 0.9727
-3.0996 5.8413 -2.0339 0.9727
-3.6082 5.5416 -2.0339 0.9727
-4.0881 5.1976 -2.0339 0.9727
-4.9465 4.3884 -2.0339 0.9727
-5.3183 3.9297 -2.0339 0.9727
-5.6475 3.4396 -2.0339 0.9727
-6.1688 2.3814 -2.0339 0.9727
-6.3567 1.8217 -2.0339 0.9727
-6.4937 1.2474 -2.0339 0.9727
-0.2524 6.1137 -2.0340 0.9745
-0.7967 6.0668 -2.0340 0.9745
-2.8680 5.4051 -2.0339 0.9745
-3.7828 4.8094 -2.0339 0.9745
-5.2257 3.1828 -2.0339 0.9745
-5.4888 2.7039 -2.0339 0.9745
-5.8819 1.6856 -2.0339 0.9745
-6.0088 1.1542 -2.0339 0.9745
-6.0877 0.6136 -2.0339 0.9745
-0.7405 5.6393 -2.0340 0.9761
-1.7308 5.4179 -2.0339 0.9761
-2.2071 5.2419 -2.0339 0.9761
-3.1034 4.7663 -2.0339 0.9761
-3.5162 4.4704 -2.0339 0.9761
-4.2546 3.7745 -2.0339 0.9761
-4.5742 3.3800 -2.0339 0.9761
-5.3058 2.0482 -2.0339 0.9761
-5.4673 1.5668 -2.0339 0.9761
-5.5853 1.0729 -2.0339 0.9761
-5.6587 0.5704 -2.0339 0.9761
-0.2189 5.3030 -2.0340 0.9775
-1.6152 5.0558 -2.0339 0.9775
-2.0596 4.8916 -2.0339 0.9775
-2.4878 4.6883 -2.0339 0.9775
-3.6402 3.8624 -2.0339 0.9775
-4.5329 2.7607 -2.0339 0.9775
-5.2120 1.0012 -2.0339 0.9775
-5.2805 0.5323 -2.0339 0.9775
-0.2050 4.9654 -2.0340 0.9787
-0.6471 4.9273 -2.0340 0.9788
-1.0840 4.8499 -2.0339 0.9788
-1.5123 4.7339 -2.0339 0.9788
-1.9285 4.5801 -2.0339 0.9788
-2.7116 4.1646 -2.0339 0.9788
-3.0723 3.9061 -2.0339 0.9788
-3.4085 3.6165 -2.0339 0.9788
-4.2443 2.5850 -2.0339 0.9788
-4.4579 2.1961 -2.0339 0.9788
-4.7771 1.3690 -2.0339 0.9788
-2.1211 0.4074 -0.8840 0.9907
-2.1142 0.2131 -0.8697 0.9909
-0.6077 4.6272 -2.0339 0.9798
-1.4202 4.4456 -2.0339 0.9798
-1.8111 4.3012 -2.0339 0.9798
-2.5465 3.9110 -2.0339 0.9798
-3.2009 3.3962 -2.0339 0.9798
-3.7534 2.7734 -2.0339 0.9798
-3.9858 2.4276 -2.0339 0.9798
-4.1864 2.0623 -2.0339 0.9798
-2.0181 0.5783 -0.9149 0.9909
-0.5721 4.3566 -2.0339 0.9808
-0.9584 4.2882 -2.0339 0.9808
-1.3371 4.1856 -2.0339 0.9808
-1.7052 4.0497 -2.0339 0.9808
-2.0596 3.8814 -2.0339 0.9808
-2.3976 3.6822 -2.0339 0.9808
-3.2869 2.9160 -2.0339 0.9808
-3.5339 2.6112 -2.0339 0.9808
-3.7527 2.2856 -2.0339 0.9808
-4.0991 1.5824 -2.0339 0.9808
-1.5490 0.4439 -0.7459 0.9929
-1.6091 3.8215 -2.0339 0.9817
-1.9435 3.6627 -2.0339 0.9817
-2.2625 3.4747 -2.0339 0.9817
-2.8439 3.0174 -2.0339 0.9817
-3.1017 2.7517 -2.0339 0.9817
-3.3347 2.4641 -2.0339 0.9817
-3.7196 1.8323 -2.0339 0.9817
-1.3364 0.2567 -0.6675 0.9940
-1.3535 0.1364 -0.6673 0.9940
-0.8552 3.8262 -2.0339 0.9825
-1.1931 3.7346 -2.0339 0.9825
-2.1393 3.2855 -2.0339 0.9825
-2.4238 3.0816 -2.0339 0.9825
-2.9328 2.6019 -2.0339 0.9825
-3.1532 2.3299 -2.0339 0.9825
-3.5170 1.7325 -2.0339 0.9825
-1.1254 0.4344 -0.6258 0.9946
-1.1829 0.2272 -0.6249 0.9946
-1.1301 3.5374 -2.0339 0.9832
-2.0263 3.1120 -2.0339 0.9832
-2.2958 2.9188 -2.0339 0.9832
-2.5470 2.7024 -2.0339 0.9832
-2.9866 2.2068 -2.0339 0.9832
-3.1715 1.9316 -2.0339 0.9832
-1.0171 0.3926 -0.5971 0.9950
-1.0375 0.2973 -0.5911 0.9951
-1.0622 0.2040 -0.5924 0.9951
-0.4587 3.4929 -2.0339 0.9839
-0.7684 3.4380 -2.0339 0.9839
-1.0720 3.3558 -2.0339 0.9839
-1.3671 3.2468 -2.0339 0.9839
-1.6513 3.1119 -2.0339 0.9839
-2.1779 2.7689 -2.0339 0.9839
-2.8332 2.0935 -2.0339 0.9839
-3.0087 1.8325 -2.0339 0.9839
-0.9412 0.3633 -0.5825 0.9954
-0.9579 0.2745 -0.5753 0.9954
-0.9764 0.1875 -0.5740 0.9954
