ply
format ascii 1.0
element vertex 186
property float32 x
property float32 y
property float32 z
property float32 I
end_header
-12.4074 -8.1241 -0.7521 0.9423
-12.0155 -7.8675 -1.0531 0.9440
-12.4383 -11.7643 -2.0337 0.9334
-11.3445 -12.8223 -2.0337 0.9334
-4.7272 -16.4550 -2.0337 0.9334
2.8093 -16.8890 -2.0337 0.9334
2.3154 -6.4905 -0.8186 0.9726
-12.6590 -6.7653 -2.0337 0.9437
-12.0082 -7.8627 -2.0337 0.9437
-11.2625 -8.8979 -2.0337 0.9437
-10.4279 -9.8628 -2.0337 0.9437
-9.5109 -10.7498 -2.0337 0.9437
-6.3409 -12.8766 -2.0337 0.9437
-3.9631 -13.7954 -2.0337 0.9437
-1.4603 -14.2790 -2.0337 0.9437
1.0886 -14.3123 -2.0337 0.9437
2.3552 -14.1591 -2.0338 0.9437
-10.8880 -5.8188 -2.0337 0.9512
-10.3282 -6.7626 -2.0337 0.9512
-9.6868 -7.6530 -2.0337 0.9512
-8.1802 -9.2458 -2.0337 0.9512
-5.4538 -11.0752 -2.0337 0.9512
-4.4488 -11.5157 -2.0337 0.9512
-3.4087 -11.8653 -2.0337 0.9512
-0.1605 -12.3443 -2.0338 0.9512
2.0257 -12.1782 -2.0338 0.9512
-9.0523 -5.9272 -2.0338 0.9569
-7.1697 -8.1037 -2.0337 0.9569
-6.4218 -8.7083 -2.0337 0.9569
-5.6232 -9.2441 -2.0337 0.9569
-4.7800 -9.7070 -2.0338 0.9569
-3.8992 -10.0931 -2.0338 0.9569
-2.9876 -10.3995 -2.0338 0.9569
-2.0523 -10.6237 -2.0338 0.9569
0.8206 -10.7891 -2.0338 0.9569
1.7755 -10.6737 -2.0338 0.9569
-8.4856 -4.5350 -2.0338 0.9614
-6.9901 -6.6113 -2.0338 0.9614
-5.7104 -7.7436 -2.0338 0.9614
-3.4673 -8.9750 -2.0338 0.9614
-2.6566 -9.2474 -2.0338 0.9614
-0.9789 -9.5716 -2.0338 0.9614
0.7297 -9.5938 -2.0338 0.9614
1.5788 -9.4912 -2.0338 0.9614
1.6191 -6.2431 -1.3633 0.9740
2.0841 -5.8421 -1.3111 0.9750
-7.6320 -4.0788 -2.0338 0.9651
-7.2397 -4.7404 -2.0338 0.9651
-6.7902 -5.3645 -2.0338 0.9651
-6.2870 -5.9463 -2.0338 0.9651
-5.7341 -6.4810 -2.0338 0.9651
-4.4972 -7.3932 -2.0338 0.9651
-3.8229 -7.7633 -2.0338 0.9651
-3.1185 -8.0721 -2.0338 0.9651
-2.3893 -8.3171 -2.0338 0.9651
0.6563 -8.6288 -2.0338 0.9651
2.0359 -5.7071 -1.4241 0.9754
-6.1636 -4.8695 -2.0338 0.9681
-5.7068 -5.3975 -2.0338 0.9681
-5.2050 -5.8830 -2.0338 0.9681
-2.8307 -7.3272 -2.0338 0.9681
-1.4899 -7.7124 -2.0338 0.9681
0.5957 -7.8325 -2.0338 0.9681
1.5658 -6.0378 -1.6150 0.9746
-6.3361 -3.3862 -2.0338 0.9706
-5.6372 -4.4537 -2.0338 0.9706
-4.7605 -5.3806 -2.0338 0.9706
-1.3627 -7.0539 -2.0338 0.9706
-0.0934 -7.1837 -2.0338 0.9706
2.1373 -5.9914 -1.8008 0.9739
-5.1885 -4.0991 -2.0338 0.9727
-4.8040 -4.5437 -2.0338 0.9727
-4.3815 -4.9523 -2.0338 0.9727
-3.9245 -5.3218 -2.0338 0.9727
-2.9211 -5.9321 -2.0338 0.9727
-1.8257 -6.3553 -2.0338 0.9727
-1.2542 -6.4923 -2.0338 0.9727
-0.6727 -6.5781 -2.0338 0.9727
-0.0859 -6.6118 -2.0338 0.9727
0.5015 -6.5934 -2.0338 0.9727
2.2217 -6.2281 -2.0338 0.9727
-5.1189 -3.3517 -2.0338 0.9745
-4.4452 -4.2043 -2.0338 0.9745
-4.0543 -4.5824 -2.0338 0.9745
-2.7030 -5.4891 -2.0338 0.9745
-2.2049 -5.7074 -2.0338 0.9745
-1.1605 -6.0074 -2.0338 0.9745
-0.0795 -6.1180 -2.0338 0.9745
0.4640 -6.1009 -2.0338 0.9745
1.0039 -6.0356 -2.0338 0.9745
1.5359 -5.9227 -2.0338 0.9745
2.0558 -5.7629 -2.0339 0.9745
-5.0159 -2.6806 -2.0338 0.9761
-4.7581 -3.1155 -2.0338 0.9761
-4.4627 -3.5257 -2.0338 0.9761
-4.1319 -3.9080 -2.0338 0.9761
-3.7686 -4.2595 -2.0338 0.9761
-3.3755 -4.5773 -2.0338 0.9761
-2.9557 -4.8590 -2.0338 0.9761
-2.5125 -5.1022 -2.0338 0.9761
-2.0495 -5.3052 -2.0338 0.9761
-1.5704 -5.4662 -2.0338 0.9761
0.4313 -5.6710 -2.0338 0.9761
0.9332 -5.6103 -2.0338 0.9761
1.4277 -5.5053 -2.0339 0.9761
-4.6807 -2.5015 -2.0338 0.9775
-4.1645 -3.2901 -2.0338 0.9775
-3.8558 -3.6469 -2.0338 0.9775
-3.5168 -3.9748 -2.0338 0.9775
-3.1499 -4.2714 -2.0338 0.9775
-2.7581 -4.5342 -2.0338 0.9775
-1.0066 -5.2109 -2.0338 0.9775
0.8709 -5.2354 -2.0338 0.9775
1.7832 -4.9988 -2.0339 0.9775
-4.3827 -2.3422 -2.0338 0.9788
-3.8993 -3.0806 -2.0338 0.9788
-3.2929 -3.7218 -2.0338 0.9788
-2.9493 -3.9995 -2.0338 0.9788
-2.1954 -4.4581 -2.0338 0.9788
-1.7908 -4.6355 -2.0338 0.9788
-1.3721 -4.7762 -2.0338 0.9788
-0.5056 -4.9436 -2.0338 0.9788
-0.0646 -4.9690 -2.0338 0.9788
0.3769 -4.9551 -2.0338 0.9788
0.8154 -4.9021 -2.0339 0.9788
1.6697 -4.6805 -2.0339 0.9788
-3.3905 -3.2067 -2.0338 0.9798
-3.0923 -3.4951 -2.0338 0.9798
-2.7698 -3.7559 -2.0338 0.9798
-2.4253 -3.9870 -2.0338 0.9798
-2.0616 -4.1867 -2.0338 0.9798
-1.6817 -4.3532 -2.0338 0.9798
-0.4748 -4.6425 -2.0338 0.9798
-0.0607 -4.6664 -2.0338 0.9798
0.3539 -4.6533 -2.0339 0.9798
1.1715 -4.5173 -2.0339 0.9798
1.5680 -4.3955 -2.0339 0.9798
-3.8751 -2.0710 -2.0338 0.9808
-3.6759 -2.4069 -2.0338 0.9808
-3.4477 -2.7238 -2.0338 0.9808
-3.1922 -3.0192 -2.0338 0.9808
-2.6077 -3.5363 -2.0338 0.9808
-1.9411 -3.9418 -2.0338 0.9808
-1.5834 -4.0986 -2.0338 0.9808
-1.2132 -4.2231 -2.0338 0.9808
-0.8334 -4.3141 -2.0338 0.9808
-0.4470 -4.3711 -2.0338 0.9808
-0.0571 -4.3935 -2.0339 0.9808
0.7209 -4.3344 -2.0339 0.9808
1.1030 -4.2532 -2.0339 0.9808
-3.4688 -2.2713 -2.0338 0.9817
-3.2534 -2.5704 -2.0338 0.9817
-1.4942 -3.8677 -2.0338 0.9817
-1.1448 -3.9851 -2.0338 0.9817
-0.7864 -4.0710 -2.0338 0.9817
-0.0539 -4.1460 -2.0339 0.9817
0.6804 -4.0901 -2.0339 0.9817
1.0409 -4.0136 -2.0339 0.9817
-3.2799 -2.1476 -2.0338 0.9825
-3.0762 -2.4304 -2.0338 0.9825
-2.5978 -2.9362 -2.0338 0.9825
-2.3268 -3.1553 -2.0338 0.9825
-2.0375 -3.3495 -2.0338 0.9825
-1.0825 -3.7681 -2.0338 0.9825
-0.7436 -3.8493 -2.0339 0.9825
-3.2750 -1.7503 -2.0339 0.9832
-3.1067 -2.0342 -2.0339 0.9832
-2.9138 -2.3020 -2.0338 0.9832
-2.6979 -2.5517 -2.0338 0.9832
-2.4606 -2.7812 -2.0338 0.9832
-2.2040 -2.9887 -2.0338 0.9832
-1.9298 -3.1726 -2.0338 0.9832
-1.6405 -3.3314 -2.0338 0.9832
-1.3382 -3.4639 -2.0339 0.9832
-1.0253 -3.5691 -2.0339 0.9832
-0.0483 -3.7131 -2.0339 0.9832
0.2816 -3.7028 -2.0339 0.9832
0.9322 -3.5946 -2.0339 0.9832
-0.9032 -0.4827 -0.5912 0.9953
-2.7641 -2.1838 -2.0339 0.9839
-2.5593 -2.4206 -2.0339 0.9839
-1.8308 -3.0097 -2.0339 0.9839
-1.2695 -3.2861 -2.0339 0.9839
0.2671 -3.5126 -2.0339 0.9839
0.5780 -3.4750 -2.0339 0.9839
0.8843 -3.4100 -2.0339 0.9839
