ply
format ascii 1.0
element vertex 180
property float32 x
property float32 y
property float32 z
property float32 I
end_header
16.5570 -3.5117 -1.2410 0.9344
11.5875 -12.6054 -2.0339 0.9334
13.6231 -10.3725 -2.0339 0.9334
14.4854 -9.1300 -2.0339 0.9334
15.2346 -7.8164 -2.0339 0.9334
15.8650 -6.4417 -2.0340 0.9334
16.9990 -2.0609 -2.0340 0.9333
17.1146 -0.5529 -2.0340 0.9333
16.9456 2.4642 -2.0341 0.9333
16.2488 5.4046 -2.0341 0.9333
3.1054 -5.9899 -0.9560 0.9731
7.7054 -12.1107 -2.0338 0.9437
9.7145 -10.5678 -2.0339 0.9437
10.6091 -9.6695 -2.0339 0.9437
11.4210 -8.6958 -2.0339 0.9437
12.7720 -6.5529 -2.0339 0.9437
13.7252 -4.2058 -2.0340 0.9437
14.0429 -2.9784 -2.0340 0.9437
14.2511 -1.7277 -2.0340 0.9437
13.6221 4.5310 -2.0341 0.9437
3.0407 -5.8650 -1.0883 0.9736
6.6273 -10.4163 -2.0338 0.9512
9.1247 -8.3166 -2.0339 0.9512
10.4447 -6.5833 -2.0339 0.9512
10.9849 -5.6360 -2.0339 0.9512
11.4395 -4.6448 -2.0339 0.9512
11.8048 -3.6173 -2.0340 0.9512
12.0780 -2.5617 -2.0340 0.9512
12.3404 -0.3987 -2.0340 0.9512
12.0140 2.8479 -2.0340 0.9512
11.7160 3.8969 -2.0340 0.9512
11.3264 4.9155 -2.0341 0.9512
3.0292 -5.8429 -1.2370 0.9736
5.8086 -9.1294 -2.0338 0.9569
6.5915 -8.5813 -2.0339 0.9569
9.1543 -5.7699 -2.0339 0.9569
10.0261 -4.0709 -2.0339 0.9569
10.7427 -1.3024 -2.0340 0.9569
10.8157 -0.3495 -2.0340 0.9569
10.5297 2.4961 -2.0340 0.9569
5.1650 -8.1180 -2.0339 0.9614
6.5117 -7.0837 -2.0339 0.9614
7.1113 -6.4816 -2.0339 0.9614
7.6556 -5.8288 -2.0339 0.9614
8.1401 -5.1307 -2.0339 0.9614
9.6174 -0.3107 -2.0340 0.9614
8.8271 3.8309 -2.0340 0.9614
2.9537 -5.6973 -1.5082 0.9740
4.6455 -7.3013 -2.0339 0.9651
5.2716 -6.8630 -2.0339 0.9651
6.3959 -5.8296 -2.0339 0.9651
7.6998 -3.9505 -2.0339 0.9651
8.0184 -3.2558 -2.0339 0.9651
8.5914 -1.0416 -2.0340 0.9651
8.6499 -0.2794 -2.0340 0.9651
8.5643 1.2454 -2.0340 0.9651
8.2121 2.7315 -2.0340 0.9651
3.0121 -5.8098 -1.6944 0.9733
4.2168 -6.6275 -2.0339 0.9681
4.7851 -6.2297 -2.0339 0.9681
5.3162 -5.7831 -2.0339 0.9681
7.8515 -0.2537 -2.0340 0.9681
7.8433 0.4401 -2.0340 0.9681
7.7739 1.1305 -2.0340 0.9681
7.6439 1.8120 -2.0340 0.9681
7.2064 3.1274 -2.0340 0.9681
5.3099 -4.8397 -2.0339 0.9706
6.0780 -3.8310 -2.0339 0.9706
6.3923 -3.2797 -2.0339 0.9706
7.0284 -1.4907 -2.0339 0.9706
7.1325 -0.8647 -2.0340 0.9706
7.1810 -0.2320 -2.0340 0.9706
7.1736 0.4025 -2.0340 0.9706
7.1100 1.0339 -2.0340 0.9706
6.8176 2.2677 -2.0340 0.9706
3.5496 -5.5790 -2.0339 0.9727
4.4751 -4.8682 -2.0339 0.9727
5.2613 -4.0058 -2.0339 0.9727
6.3226 -1.9374 -2.0339 0.9727
6.5440 0.9516 -2.0340 0.9727
6.4346 1.5253 -2.0340 0.9727
6.2749 2.0871 -2.0340 0.9727
6.0663 2.6327 -2.0340 0.9727
3.2846 -5.1623 -2.0339 0.9745
4.1409 -4.5047 -2.0339 0.9745
4.5222 -4.1217 -2.0339 0.9745
5.4441 -2.7932 -2.0339 0.9745
5.6693 -2.3019 -2.0339 0.9745
5.9857 -1.2696 -2.0339 0.9745
6.0744 -0.7364 -2.0339 0.9745
6.1093 0.3428 -2.0340 0.9745
6.0553 0.8805 -2.0340 0.9745
5.6132 2.4360 -2.0340 0.9745
2.6177 -5.0492 -2.0339 0.9761
3.0530 -4.7986 -2.0339 0.9761
3.4646 -4.5105 -2.0339 0.9761
4.5252 -3.4454 -2.0339 0.9761
4.8116 -3.0327 -2.0339 0.9761
5.0604 -2.5963 -2.0339 0.9761
5.2698 -2.1397 -2.0339 0.9761
5.4380 -1.6664 -2.0339 0.9761
5.5639 -1.1801 -2.0339 0.9761
5.6463 -0.6845 -2.0339 0.9761
5.6788 0.3187 -2.0340 0.9761
5.5343 1.3119 -2.0340 0.9761
5.3970 1.7951 -2.0340 0.9761
5.2175 2.2643 -2.0340 0.9761
2.4428 -4.7118 -2.0339 0.9775
2.8490 -4.4779 -2.0339 0.9775
3.2330 -4.2090 -2.0339 0.9775
3.5918 -3.9073 -2.0339 0.9775
4.4900 -2.8300 -2.0339 0.9775
5.0746 -1.5551 -2.0339 0.9775
5.1920 -1.1012 -2.0339 0.9775
5.3048 -0.1714 -2.0339 0.9775
5.2992 0.2973 -2.0339 0.9775
5.2524 0.7638 -2.0340 0.9775
5.1645 1.2242 -2.0340 0.9775
5.0363 1.6751 -2.0340 0.9775
4.8689 2.1130 -2.0340 0.9775
2.2873 -4.4118 -2.0339 0.9788
2.6676 -4.1928 -2.0339 0.9788
3.0272 -3.9410 -2.0339 0.9788
3.3631 -3.6586 -2.0339 0.9788
3.6728 -3.3476 -2.0339 0.9788
3.9539 -3.0104 -2.0339 0.9788
4.2041 -2.6499 -2.0339 0.9788
4.4216 -2.2686 -2.0339 0.9788
4.6045 -1.8696 -2.0339 0.9788
4.7515 -1.4560 -2.0339 0.9788
4.9335 -0.5981 -2.0339 0.9788
4.9671 -0.1605 -2.0339 0.9787
4.9618 0.2784 -2.0339 0.9787
4.5589 1.9785 -2.0340 0.9787
2.5052 -3.9374 -2.0339 0.9798
2.8428 -3.7010 -2.0339 0.9798
3.9481 -2.4885 -2.0339 0.9798
4.3241 -1.7557 -2.0339 0.9798
4.4621 -1.3674 -2.0339 0.9798
4.5654 -0.9683 -2.0339 0.9798
4.6331 -0.5617 -2.0339 0.9798
4.5411 1.0765 -2.0340 0.9798
4.4285 1.4730 -2.0340 0.9798
4.2812 1.8579 -2.0340 0.9798
2.0223 -3.9008 -2.0339 0.9808
2.6766 -3.4846 -2.0339 0.9808
3.7172 -2.3430 -2.0339 0.9808
4.2012 -1.2874 -2.0339 0.9808
4.3621 -0.5288 -2.0339 0.9808
4.3483 0.6323 -2.0339 0.9808
4.1695 1.3868 -2.0340 0.9808
2.8061 -3.0526 -2.0339 0.9817
3.0645 -2.7931 -2.0339 0.9817
3.2990 -2.5118 -2.0339 0.9817
3.8418 -1.5599 -2.0339 0.9817
4.0563 -0.8603 -2.0339 0.9817
1.8045 -3.4805 -2.0339 0.9825
2.1045 -3.3078 -2.0339 0.9825
2.6532 -2.8863 -2.0339 0.9825
2.8976 -2.6410 -2.0339 0.9825
3.7486 -1.1487 -2.0339 0.9825
2.0864 -0.2530 -1.0903 0.9906
3.8149 0.9043 -2.0339 0.9825
3.7203 1.2374 -2.0339 0.9825
1.9934 -3.1331 -2.0339 0.9832
2.2621 -2.9450 -2.0339 0.9832
3.1416 -1.9801 -2.0339 0.9832
1.8569 -0.3939 -1.0397 0.9914
1.8457 -0.2238 -1.0183 0.9916
1.8525 -0.0599 -1.0152 0.9916
1.8934 0.6297 -1.0929 0.9909
1.8910 -2.9722 -2.0339 0.9839
3.1344 -1.6081 -2.0339 0.9839
1.7549 -0.7126 -1.0935 0.9913
1.7168 -0.2082 -0.9984 0.9920
1.7243 -0.0557 -0.9960 0.9921
1.7235 0.0967 -0.9966 0.9921
1.7137 0.2492 -0.9998 0.9920
1.7146 0.4064 -1.0174 0.9919
1.7712 0.7687 -1.1147 0.9911
