ply
format ascii 1.0
element vertex 207
property float32 x
property float32 y
property float32 z
property float32 I
end_header
16.3998 -3.5507 -1.2303 0.9349
13.2328 8.9545 -1.5339 0.9378
16.3430 -5.1095 -2.0340 0.9334
17.1139 -0.5759 -2.0340 0.9333
17.0968 0.9611 -2.0341 0.9333
16.9418 2.4903 -2.0341 0.9333
15.6684 6.9094 -2.0341 0.9333
14.9857 8.2866 -2.0341 0.9333
13.2647 10.8301 -2.0341 0.9333
11.1170 13.0253 -2.0341 0.9333
7.2496 15.5141 -2.0341 0.9333
5.8292 16.1017 -2.0341 0.9333
4.3618 16.5594 -2.0341 0.9333
13.7012 -4.2835 -2.0340 0.9437
14.0302 -3.0377 -2.0340 0.9437
14.3474 -0.4828 -2.0340 0.9437
14.2031 2.0877 -2.0340 0.9437
13.9587 3.3530 -2.0341 0.9437
13.6018 4.5912 -2.0341 0.9437
13.1355 5.7924 -2.0341 0.9437
12.5632 6.9470 -2.0341 0.9437
11.8896 8.0455 -2.0341 0.9437
10.2614 10.0399 -2.0341 0.9437
9.3198 10.9197 -2.0341 0.9437
6.0776 13.0061 -2.0341 0.9437
4.8869 13.4987 -2.0341 0.9437
3.6567 13.8825 -2.0341 0.9437
11.7841 -3.6842 -2.0340 0.9512
12.0671 -2.6127 -2.0340 0.9512
12.2529 -1.5201 -2.0340 0.9512
12.3398 -0.4152 -2.0340 0.9512
12.3275 0.6930 -2.0340 0.9512
11.6986 3.9487 -2.0340 0.9512
11.2975 4.9819 -2.0341 0.9512
10.8052 5.9748 -2.0341 0.9512
10.2260 6.9197 -2.0341 0.9512
8.8255 8.6351 -2.0341 0.9512
8.0156 9.3917 -2.0341 0.9512
6.2092 10.6724 -2.0341 0.9512
4.2030 11.6098 -2.0341 0.9512
3.1450 11.9399 -2.0341 0.9512
10.3282 -3.2290 -2.0340 0.9569
10.5762 -2.2899 -2.0340 0.9569
10.7390 -1.3323 -2.0340 0.9569
10.5222 2.5275 -2.0340 0.9569
9.9016 4.3664 -2.0340 0.9569
8.9625 6.0648 -2.0340 0.9569
5.4420 9.3538 -2.0341 0.9569
4.5814 9.8041 -2.0340 0.9569
3.6837 10.1754 -2.0340 0.9569
2.7564 10.4647 -2.0340 0.9569
9.4044 -2.0362 -2.0340 0.9614
9.5491 -1.1847 -2.0340 0.9614
9.6170 -0.3236 -2.0340 0.9614
9.3564 2.2475 -2.0340 0.9614
8.8045 3.8826 -2.0340 0.9614
8.4209 4.6564 -2.0340 0.9614
4.8391 8.3174 -2.0340 0.9614
4.0737 8.7178 -2.0340 0.9614
2.4510 9.3052 -2.0340 0.9614
8.2600 -2.5824 -2.0339 0.9651
8.4583 -1.8313 -2.0340 0.9651
8.6495 -0.2911 -2.0340 0.9651
8.5624 1.2586 -2.0340 0.9651
8.2000 2.7678 -2.0340 0.9651
7.9187 3.4919 -2.0340 0.9651
7.5737 4.1880 -2.0340 0.9651
7.1677 4.8503 -2.0340 0.9651
6.7039 5.4735 -2.0340 0.9651
5.6184 6.5829 -2.0340 0.9651
5.0054 7.0602 -2.0340 0.9651
2.9460 8.1377 -2.0340 0.9651
2.2044 8.3690 -2.0340 0.9651
7.4977 -2.3441 -2.0339 0.9681
7.6777 -1.6623 -2.0339 0.9681
7.7959 -0.9671 -2.0340 0.9681
7.8433 0.4409 -2.0340 0.9681
7.7722 1.1425 -2.0340 0.9681
7.6384 1.8348 -2.0340 0.9681
7.4432 2.5124 -2.0340 0.9681
7.1879 3.1697 -2.0340 0.9681
6.5062 4.4026 -2.0340 0.9681
5.6152 5.4940 -2.0340 0.9681
4.5435 6.4086 -2.0340 0.9681
3.3257 7.1171 -2.0340 0.9681
2.6741 7.3866 -2.0340 0.9681
2.0010 7.5967 -2.0340 0.9681
7.1735 0.4033 -2.0340 0.9706
7.1084 1.0449 -2.0340 0.9706
6.9861 1.6781 -2.0340 0.9706
6.5741 2.8990 -2.0340 0.9706
6.2876 3.4768 -2.0340 0.9706
5.9505 4.0266 -2.0340 0.9706
5.1356 5.0248 -2.0340 0.9706
4.6643 5.4651 -2.0340 0.9706
3.0417 6.5093 -2.0340 0.9706
2.4458 6.7558 -2.0340 0.9706
1.8301 6.9479 -2.0340 0.9706
6.3114 -1.9732 -2.0339 0.9727
6.4630 -1.3993 -2.0339 0.9727
6.6091 -0.2224 -2.0340 0.9727
6.6024 0.3711 -2.0340 0.9727
6.5425 0.9617 -2.0340 0.9727
6.4300 1.5445 -2.0340 0.9727
5.4768 3.7061 -2.0340 0.9727
5.1224 4.1822 -2.0340 0.9727
3.8247 5.3947 -2.0340 0.9727
3.3255 5.7159 -2.0340 0.9727
2.7995 5.9911 -2.0340 0.9727
2.2511 6.2180 -2.0340 0.9727
1.6844 6.3948 -2.0340 0.9727
6.0723 -0.7534 -2.0339 0.9745
6.1155 -0.2058 -2.0340 0.9745
6.0539 0.8898 -2.0340 0.9745
5.9497 1.4291 -2.0340 0.9745
3.9723 4.6543 -2.0340 0.9745
3.5390 4.9917 -2.0340 0.9745
3.0771 5.2890 -2.0340 0.9745
2.0829 5.7535 -2.0340 0.9745
5.5588 -1.2036 -2.0339 0.9761
5.6444 -0.7003 -2.0339 0.9761
5.6272 0.8271 -2.0340 0.9761
5.5304 1.3284 -2.0340 0.9761
5.2042 2.2949 -2.0340 0.9761
4.9775 2.7523 -2.0340 0.9761
4.7106 3.1876 -2.0340 0.9761
4.4058 3.5971 -2.0340 0.9761
3.2896 4.6400 -2.0340 0.9761
2.8603 4.9162 -2.0340 0.9761
2.4079 5.1529 -2.0340 0.9761
1.9361 5.3480 -2.0340 0.9761
5.0657 -1.5838 -2.0339 0.9775
5.1873 -1.1231 -2.0339 0.9775
5.2671 -0.6535 -2.0339 0.9775
5.2992 0.2979 -2.0339 0.9775
5.2511 0.7719 -2.0340 0.9775
3.4456 4.0371 -2.0340 0.9775
3.0697 4.3298 -2.0340 0.9775
2.6691 4.5877 -2.0340 0.9775
2.2470 4.8085 -2.0340 0.9775
4.8571 -1.0516 -2.0339 0.9788
4.9618 0.2789 -2.0339 0.9787
4.9168 0.7227 -2.0340 0.9788
4.8322 1.1607 -2.0340 0.9787
3.8496 3.1430 -2.0340 0.9787
3.5522 3.4756 -2.0340 0.9787
3.2262 3.7801 -2.0340 0.9787
2.1039 4.5024 -2.0340 0.9787
1.6917 4.6729 -2.0340 0.9787
1.2658 4.8057 -2.0340 0.9787
4.5613 -0.9876 -2.0339 0.9798
4.6314 -0.5746 -2.0339 0.9798
4.6596 0.2619 -2.0339 0.9798
4.5379 1.0900 -2.0340 0.9798
3.8652 2.6155 -2.0340 0.9798
2.3470 4.0339 -2.0340 0.9798
1.9758 4.2281 -2.0340 0.9798
1.5886 4.3883 -2.0340 0.9798
1.1888 4.5130 -2.0340 0.9798
4.2945 -0.9298 -2.0339 0.9808
4.3606 -0.5410 -2.0339 0.9808
4.3473 0.6390 -2.0339 0.9808
4.2725 1.0263 -2.0339 0.9808
4.1633 1.4053 -2.0340 0.9808
4.0205 1.7729 -2.0340 0.9808
3.8454 2.1263 -2.0340 0.9808
1.8602 3.9809 -2.0340 0.9808
3.9575 -1.2373 -2.0339 0.9817
4.1149 -0.5105 -2.0339 0.9817
4.1441 -0.1395 -2.0339 0.9817
4.1400 0.2327 -2.0339 0.9817
4.1024 0.6030 -2.0339 0.9817
4.0318 0.9685 -2.0339 0.9817
3.9287 1.3261 -2.0339 0.9817
3.7940 1.6731 -2.0340 0.9817
3.4342 2.3238 -2.0340 0.9817
3.2119 2.6224 -2.0340 0.9817
2.9639 2.8999 -2.0340 0.9817
2.6919 3.1539 -2.0340 0.9817
3.5874 1.5819 -2.0339 0.9825
3.4310 1.8972 -2.0340 0.9825
3.2471 2.1973 -2.0340 0.9825
3.0370 2.4796 -2.0340 0.9825
2.2676 3.1984 -2.0340 0.9825
1.9716 3.3888 -2.0340 0.9825
1.3346 3.6865 -2.0340 0.9825
0.9986 3.7913 -2.0340 0.9825
1.8452 -0.2289 -1.0184 0.9916
1.8527 0.1041 -1.0163 0.9916
1.8476 0.2716 -1.0228 0.9915
3.2498 1.7971 -2.0339 0.9832
3.0756 2.0812 -2.0340 0.9832
0.9459 3.5911 -2.0339 0.9832
1.7200 -0.5378 -1.0405 0.9917
1.7149 -0.3713 -1.0130 0.9919
1.7163 -0.2129 -0.9985 0.9920
1.7243 -0.0580 -0.9961 0.9921
1.7235 0.0969 -0.9966 0.9921
1.7138 0.2519 -1.0001 0.9920
1.7145 0.4118 -1.0180 0.9919
1.7750 0.7827 -1.1200 0.9911
3.0829 1.7048 -2.0339 0.9839
2.9177 1.9744 -2.0339 0.9839
2.2870 2.6796 -2.0340 0.9839
2.0375 2.8739 -2.0340 0.9839
1.4914 3.1916 -2.0339 0.9839
1.1992 3.3125 -2.0339 0.9839
