ply
format ascii 1.0
element vertex 191
property float32 x
property float32 y
property float32 z
property float32 I
end_header
16.4563 -4.3936 -1.2489 0.9340
2.1311 -6.5187 -0.8147 0.9728
2.6050 -6.0543 -0.7829 0.9738
9.4838 -14.2553 -2.0338 0.9334
11.8917 -12.3189 -2.0339 0.9334
15.4801 -7.3182 -2.0340 0.9334
17.1228 0.1742 -2.0340 0.9333
1.5042 -6.5534 -0.9527 0.9732
7.9509 -11.9511 -2.0338 0.9437
8.9969 -11.1850 -2.0339 0.9437
9.9695 -10.3276 -2.0339 0.9437
13.4786 -4.9393 -2.0340 0.9437
14.1471 -2.4364 -2.0340 0.9437
14.3093 -1.1499 -2.0340 0.9437
14.2832 1.4407 -2.0340 0.9437
14.0950 2.7236 -2.0341 0.9437
1.5217 -6.6297 -1.1206 0.9728
1.9721 -6.0322 -1.0455 0.9746
2.5405 -5.9045 -1.0589 0.9743
3.2134 -5.9287 -1.1109 0.9730
8.5746 -8.8826 -2.0339 0.9512
10.0316 -7.1970 -2.0339 0.9512
10.6402 -6.2624 -2.0339 0.9512
11.5927 -4.2482 -2.0340 0.9512
11.9287 -3.1848 -2.0340 0.9512
12.1676 -2.0955 -2.0340 0.9512
12.3462 0.1256 -2.0340 0.9512
12.1227 2.3426 -2.0340 0.9512
3.1708 -5.8501 -1.2507 0.9733
5.9936 -9.0090 -2.0339 0.9569
6.7820 -8.4315 -2.0339 0.9569
7.5153 -7.7852 -2.0339 0.9569
8.7923 -6.3078 -2.0339 0.9569
9.7829 -4.6249 -2.0339 0.9569
10.4550 -2.7913 -2.0340 0.9569
10.6643 -1.8366 -2.0340 0.9569
10.7866 -0.8668 -2.0340 0.9569
10.8208 0.1100 -2.0340 0.9569
10.7668 1.0860 -2.0340 0.9569
1.4472 -6.3052 -1.3674 0.9739
1.9326 -5.9114 -1.3146 0.9749
2.5042 -5.8200 -1.3393 0.9744
6.6827 -6.9227 -2.0339 0.9614
7.2801 -6.2915 -2.0339 0.9614
8.2924 -4.8806 -2.0339 0.9614
8.6990 -4.1125 -2.0339 0.9614
9.0347 -3.3108 -2.0339 0.9614
9.2966 -2.4821 -2.0340 0.9614
9.5914 -0.7708 -2.0340 0.9614
9.6219 0.0979 -2.0340 0.9614
9.5739 0.9657 -2.0340 0.9614
9.4478 1.8256 -2.0340 0.9614
1.4020 -6.1082 -1.4729 0.9746
1.8946 -5.7951 -1.4329 0.9753
3.0027 -5.5400 -1.4810 0.9744
4.7934 -7.2051 -2.0339 0.9651
7.8239 -3.6988 -2.0339 0.9651
8.1258 -2.9777 -2.0339 0.9651
8.3614 -2.2324 -2.0339 0.9651
8.6265 -0.6932 -2.0340 0.9651
8.6539 0.0880 -2.0340 0.9651
8.6107 0.8686 -2.0340 0.9651
8.4973 1.6420 -2.0340 0.9651
1.9070 -5.8332 -1.5890 0.9750
2.5314 -5.8833 -1.6583 0.9739
4.9235 -6.1209 -2.0339 0.9681
7.7416 -1.3332 -2.0340 0.9681
7.8304 -0.6292 -2.0340 0.9681
7.8553 0.0799 -2.0340 0.9681
1.4290 -6.2261 -1.8084 0.9738
1.8935 -5.7919 -1.7250 0.9750
3.9795 -5.9817 -2.0339 0.9706
4.5030 -5.5982 -2.0339 0.9706
4.9898 -5.1691 -2.0339 0.9706
5.4359 -4.6978 -2.0339 0.9706
5.8377 -4.1881 -2.0339 0.9706
6.1918 -3.6443 -2.0339 0.9706
6.4954 -3.0707 -2.0339 0.9706
6.7460 -2.4721 -2.0339 0.9706
7.0805 -1.2194 -2.0339 0.9706
7.1617 -0.5755 -2.0340 0.9706
7.1845 0.0731 -2.0340 0.9706
7.1486 0.7210 -2.0340 0.9706
7.0543 1.3631 -2.0340 0.9706
2.6136 -6.0741 -2.0339 0.9727
5.3729 -3.8547 -2.0339 0.9727
6.5169 -1.1223 -2.0339 0.9727
6.6125 0.0672 -2.0340 0.9727
6.5795 0.6636 -2.0340 0.9727
1.3688 -5.9635 -2.0338 0.9745
2.9156 -5.3793 -2.0339 0.9745
3.8350 -4.7677 -2.0339 0.9745
4.2496 -4.4022 -2.0339 0.9745
4.6295 -4.0008 -2.0339 0.9745
4.9716 -3.5668 -2.0339 0.9745
5.2732 -3.1037 -2.0339 0.9745
5.5318 -2.6152 -2.0339 0.9745
5.7452 -2.1054 -2.0339 0.9745
6.1186 0.0622 -2.0340 0.9745
1.2723 -5.5432 -2.0338 0.9761
2.2479 -5.2243 -2.0339 0.9761
2.7101 -5.0002 -2.0339 0.9761
3.1503 -4.7353 -2.0339 0.9761
3.5647 -4.4317 -2.0339 0.9761
3.9501 -4.0920 -2.0339 0.9761
4.3032 -3.7189 -2.0339 0.9761
4.9016 -2.8849 -2.0339 0.9761
5.1420 -2.4309 -2.0339 0.9761
5.3404 -1.9570 -2.0339 0.9761
5.6590 0.5708 -2.0340 0.9761
5.5845 1.0791 -2.0340 0.9761
2.0977 -4.8752 -2.0339 0.9775
2.9398 -4.4188 -2.0339 0.9775
4.3124 -3.0939 -2.0339 0.9775
4.7983 -2.2684 -2.0339 0.9775
5.2305 -0.9008 -2.0339 0.9775
5.2905 -0.4252 -2.0339 0.9775
5.3073 0.0540 -2.0339 0.9775
5.2111 1.0070 -2.0340 0.9775
1.5442 -4.7234 -2.0339 0.9788
1.9641 -4.5648 -2.0339 0.9788
2.3680 -4.3690 -2.0339 0.9788
2.7526 -4.1375 -2.0339 0.9788
3.4514 -3.5754 -2.0339 0.9788
4.0379 -2.8969 -2.0339 0.9788
4.2828 -2.5207 -2.0339 0.9788
4.6662 -1.7099 -2.0339 0.9788
4.8975 -0.8435 -2.0339 0.9788
4.9694 0.0505 -2.0339 0.9788
4.8794 0.9429 -2.0340 0.9787
1.8445 -4.2868 -2.0339 0.9798
2.5850 -3.8855 -2.0339 0.9798
3.7920 -2.7205 -2.0339 0.9798
4.0220 -2.3672 -2.0339 0.9798
4.2192 -1.9947 -2.0339 0.9798
4.5993 -0.7921 -2.0339 0.9798
4.6520 -0.3738 -2.0339 0.9798
4.6434 0.4684 -2.0339 0.9798
0.9830 -4.2825 -2.0339 0.9808
1.7367 -4.0361 -2.0339 0.9808
3.0517 -3.1613 -2.0339 0.9808
3.5702 -2.5614 -2.0339 0.9808
3.7868 -2.2288 -2.0339 0.9808
4.2454 -1.1335 -2.0339 0.9808
4.3303 -0.7458 -2.0339 0.9808
4.3800 -0.3520 -2.0339 0.9808
4.3939 0.0447 -2.0339 0.9808
4.3719 0.4410 -2.0339 0.9808
4.3143 0.8337 -2.0339 0.9808
1.6388 -3.8087 -2.0339 0.9817
1.9758 -3.6453 -2.0339 0.9817
2.5988 -3.2309 -2.0339 0.9817
3.1372 -2.7112 -2.0339 0.9817
3.3691 -2.4171 -2.0339 0.9817
3.8933 -1.4267 -2.0339 0.9817
4.0061 -1.0696 -2.0339 0.9817
4.0862 -0.7037 -2.0339 0.9817
4.1332 -0.3322 -2.0339 0.9817
4.1256 0.4161 -2.0339 0.9817
4.0712 0.7867 -2.0339 0.9817
0.8770 -3.8211 -2.0339 0.9825
1.8682 -3.4468 -2.0339 0.9825
2.7229 -2.8207 -2.0339 0.9825
2.9664 -2.5635 -2.0339 0.9825
3.1855 -2.2854 -2.0339 0.9825
3.3788 -1.9886 -2.0339 0.9825
3.7879 -1.0113 -2.0339 0.9825
2.1027 -0.3621 -1.1069 0.9904
2.0762 -0.1669 -1.0806 0.9907
2.0725 0.0211 -1.0752 0.9907
2.1055 0.4068 -1.1125 0.9904
1.1539 -3.5296 -2.0339 0.9832
1.4677 -3.4111 -2.0339 0.9832
1.7695 -3.2648 -2.0339 0.9832
2.3275 -2.8936 -2.0339 0.9832
2.5791 -2.6718 -2.0339 0.9832
2.8097 -2.4282 -2.0339 0.9832
3.0173 -2.1647 -2.0339 0.9832
3.2004 -1.8836 -2.0339 0.9832
3.3573 -1.5871 -2.0339 0.9832
3.4868 -1.2777 -2.0339 0.9832
1.8513 -0.1488 -1.0172 0.9916
1.8511 0.0188 -1.0139 0.9916
0.7880 -3.4335 -2.0339 0.9839
1.9513 -2.9330 -2.0339 0.9839
3.0360 -1.7869 -2.0339 0.9839
3.1849 -1.5057 -2.0339 0.9839
1.7126 -0.4573 -1.0234 0.9918
1.7246 0.0175 -0.9958 0.9921
1.7199 0.1735 -0.9980 0.9920
1.7139 0.3312 -1.0079 0.9920
