ply
format ascii 1.0
element vertex 192
property float32 x
property float32 y
property float32 z
property float32 I
end_header
2.9394 18.5702 3.3152 0.9265
2.8165 17.7935 2.7598 0.9297
2.7936 17.6489 1.9188 0.9306
1.2755 18.9600 1.6086 0.9266
2.7824 17.5781 1.1036 0.9312
-0.8743 7.7424 -0.7480 0.9692
-1.5443 7.5315 -0.7381 0.9696
9.7541 14.0749 -2.0341 0.9333
8.4525 14.8930 -2.0341 0.9333
7.0827 15.5910 -2.0341 0.9333
4.1834 16.6054 -2.0341 0.9333
-0.8427 7.4635 -0.8922 0.9702
-1.5435 7.5272 -0.9127 0.9695
-2.2060 7.3373 -0.9101 0.9696
-6.3811 15.8900 -2.0340 0.9333
10.1537 10.1488 -2.0341 0.9437
9.2026 11.0186 -2.0341 0.9437
7.0861 12.4854 -2.0341 0.9437
5.9377 13.0706 -2.0341 0.9437
3.5071 13.9210 -2.0341 0.9437
2.2444 14.1794 -2.0341 0.9437
0.9636 14.3235 -2.0341 0.9437
-0.3249 14.3521 -2.0341 0.9437
-2.2135 7.3620 -1.0892 0.9694
-5.3495 13.3214 -2.0340 0.9437
-6.5227 12.7878 -2.0340 0.9437
-7.6432 12.1512 -2.0340 0.9437
9.4806 7.9103 -2.0341 0.9512
7.9148 9.4768 -2.0341 0.9512
6.0945 10.7383 -2.0341 0.9512
4.0780 11.6543 -2.0341 0.9512
3.0163 11.9730 -2.0341 0.9512
1.9304 12.1953 -2.0341 0.9512
0.8288 12.3192 -2.0340 0.9512
-0.2794 12.3438 -2.0340 0.9512
-0.8384 7.4246 -1.2309 0.9702
-2.1778 7.2434 -1.2460 0.9698
-4.6010 11.4574 -2.0340 0.9512
-5.6100 10.9985 -2.0340 0.9512
-6.5738 10.4509 -2.0340 0.9512
8.3092 6.9329 -2.0340 0.9569
6.1641 8.8945 -2.0341 0.9569
5.3415 9.4115 -2.0341 0.9569
1.6919 10.6885 -2.0340 0.9569
0.7264 10.7971 -2.0340 0.9569
-0.2449 10.8187 -2.0340 0.9569
-0.8214 7.2743 -1.3760 0.9706
-1.4791 7.2129 -1.3840 0.9705
-2.1586 7.1798 -1.4092 0.9699
-4.0326 10.0418 -2.0340 0.9569
-6.5598 8.6060 -2.0339 0.9569
6.1684 7.3856 -2.0340 0.9614
5.4811 7.9090 -2.0340 0.9614
4.7496 8.3687 -2.0340 0.9614
3.1782 9.0826 -2.0340 0.9614
2.3507 9.3310 -2.0340 0.9614
1.5044 9.5043 -2.0340 0.9614
0.6459 9.6008 -2.0340 0.9614
-0.2178 9.6200 -2.0340 0.9614
-0.8255 7.3111 -1.5552 0.9704
-2.0911 6.9552 -1.5352 0.9707
4.9297 7.1134 -2.0340 0.9651
4.2718 7.5268 -2.0340 0.9651
2.8584 8.1689 -2.0340 0.9651
2.1143 8.3923 -2.0340 0.9651
-2.1755 7.2359 -1.7758 0.9694
-3.9323 7.7093 -2.0340 0.9651
6.0319 5.0329 -2.0340 0.9681
5.5563 5.5535 -2.0340 0.9681
3.8776 6.8322 -2.0340 0.9681
3.2492 7.1524 -2.0340 0.9681
2.5946 7.4150 -2.0340 0.9681
0.5273 7.8380 -2.0340 0.9681
-1.5780 7.6955 -2.0340 0.9681
-2.9274 7.2898 -2.0340 0.9681
-3.5694 6.9978 -2.0339 0.9681
5.0817 5.0792 -2.0340 0.9706
4.6057 5.5146 -2.0340 0.9706
4.0925 5.9054 -2.0340 0.9706
2.3730 6.7817 -2.0340 0.9706
1.1232 7.0965 -2.0340 0.9706
-0.8062 7.1394 -2.0340 0.9706
-1.4432 7.0383 -2.0340 0.9706
-2.0687 6.8805 -2.0340 0.9706
-2.6774 6.6672 -2.0340 0.9706
-3.2646 6.4002 -2.0339 0.9706
4.2390 5.0755 -2.0340 0.9727
3.7668 5.4353 -2.0340 0.9727
3.2641 5.7512 -2.0340 0.9727
2.7351 6.0208 -2.0340 0.9727
1.6155 6.4125 -2.0340 0.9727
1.0338 6.5316 -2.0340 0.9727
0.4439 6.5979 -2.0340 0.9727
-0.1497 6.6112 -2.0340 0.9727
-1.9039 6.3328 -2.0340 0.9727
-3.0047 5.8907 -2.0339 0.9727
-3.5209 5.5974 -2.0339 0.9727
-4.0087 5.2591 -2.0339 0.9727
4.6983 3.9201 -2.0340 0.9745
3.4854 5.0293 -2.0340 0.9745
2.5309 5.5711 -2.0340 0.9745
2.0209 5.7756 -2.0340 0.9745
1.4948 5.9336 -2.0340 0.9745
0.9566 6.0437 -2.0340 0.9745
0.4108 6.1052 -2.0340 0.9745
-0.1385 6.1174 -2.0340 0.9745
-0.6866 6.0803 -2.0340 0.9745
-1.2291 5.9941 -2.0340 0.9745
-1.7618 5.8597 -2.0340 0.9745
-2.2802 5.6781 -2.0339 0.9745
-3.2579 5.1794 -2.0339 0.9745
-3.7093 4.8663 -2.0339 0.9745
4.3672 3.6438 -2.0340 0.9761
4.0229 4.0209 -2.0340 0.9761
3.6460 4.3655 -2.0340 0.9761
2.3525 5.1785 -2.0340 0.9761
0.8893 5.6178 -2.0340 0.9761
-0.6382 5.6518 -2.0340 0.9761
-1.1425 5.5717 -2.0340 0.9761
-2.1195 5.2779 -2.0339 0.9761
-2.5843 5.0666 -2.0339 0.9761
-3.0283 4.8144 -2.0339 0.9761
3.4023 4.0737 -2.0340 0.9775
3.0232 4.3624 -2.0340 0.9775
2.6198 4.6160 -2.0340 0.9775
2.1952 4.8323 -2.0340 0.9775
1.2966 5.1468 -2.0340 0.9775
-0.1202 5.3062 -2.0340 0.9775
-0.5955 5.2740 -2.0340 0.9775
-1.0661 5.1994 -2.0339 0.9775
-2.8259 4.4926 -2.0339 0.9775
-3.2175 4.2210 -2.0339 0.9775
3.8159 3.1838 -2.0340 0.9787
2.8307 4.0847 -2.0340 0.9787
2.4530 4.3221 -2.0340 0.9787
1.2141 4.8191 -2.0340 0.9787
0.7770 4.9086 -2.0340 0.9787
-0.1125 4.9684 -2.0340 0.9787
-0.9983 4.8683 -2.0339 0.9788
-1.4309 4.7592 -2.0339 0.9788
-1.8519 4.6116 -2.0339 0.9788
-2.6460 4.2066 -2.0339 0.9788
3.5835 2.9899 -2.0340 0.9798
3.3009 3.2993 -2.0340 0.9798
1.1401 4.5256 -2.0340 0.9798
0.3133 4.6564 -2.0340 0.9798
-0.1056 4.6658 -2.0340 0.9798
-0.5236 4.6375 -2.0339 0.9798
-1.3437 4.4693 -2.0339 0.9798
-2.4849 3.9504 -2.0339 0.9798
3.1079 3.1063 -2.0340 0.9808
2.8167 3.3725 -2.0340 0.9808
2.5029 3.6116 -2.0340 0.9808
1.8174 4.0006 -2.0340 0.9808
0.2950 4.3842 -2.0340 0.9808
-0.0995 4.3929 -2.0339 0.9808
-2.3396 3.7194 -2.0339 0.9808
3.1838 2.6565 -2.0340 0.9817
2.6580 3.1825 -2.0340 0.9817
1.3695 3.9138 -2.0340 0.9817
1.0130 4.0209 -2.0340 0.9817
0.6483 4.0955 -2.0340 0.9817
0.2784 4.1371 -2.0339 0.9817
-0.0939 4.1454 -2.0339 0.9817
-1.5452 3.8478 -2.0339 0.9817
-1.8840 3.6937 -2.0339 0.9817
-2.5136 3.2977 -2.0339 0.9817
2.2332 3.2225 -2.0340 0.9825
1.9352 3.4098 -2.0340 0.9825
1.6216 3.5696 -2.0340 0.9825
0.2632 3.9118 -2.0339 0.9825
-0.0887 3.9196 -2.0339 0.9825
-0.7876 3.8407 -2.0339 0.9825
-1.7814 3.4925 -2.0339 0.9825
-2.3767 3.1180 -2.0339 0.9825
2.6266 2.6253 -2.0340 0.9832
1.8330 3.2297 -2.0340 0.9832
0.9072 3.6010 -2.0339 0.9832
0.2493 3.7052 -2.0339 0.9832
-0.0840 3.7126 -2.0339 0.9832
-0.7459 3.6379 -2.0339 0.9832
-1.6873 3.3080 -2.0339 0.9832
-1.9772 3.1434 -2.0339 0.9832
2.7050 2.2570 -2.0339 0.9839
2.4917 2.4905 -2.0339 0.9839
2.2583 2.7039 -2.0340 0.9839
1.1635 3.3252 -2.0339 0.9839
0.2365 3.5149 -2.0339 0.9839
-0.3953 3.5006 -2.0339 0.9839
-1.0143 3.3737 -2.0339 0.9839
-1.3128 3.2691 -2.0339 0.9839
-1.6007 3.1382 -2.0339 0.9839
