ply
format ascii 1.0
element vertex 188
property float32 x
property float32 y
property float32 z
property float32 I
end_header
-12.4532 13.0965 3.1866 0.9292
-11.5296 12.1252 2.1788 0.9347
-11.4162 12.0059 1.7790 0.9355
-11.9148 12.5302 1.0722 0.9331
-17.5047 4.8437 -1.3317 0.9297
-10.6346 13.4200 -2.0340 0.9334
-11.7990 12.4085 -2.0339 0.9334
-12.8675 11.2963 -2.0339 0.9334
-13.8316 10.0925 -2.0339 0.9334
-14.6836 8.8069 -2.0339 0.9334
-15.4163 7.4499 -2.0339 0.9334
-16.5015 4.5661 -2.0338 0.9334
-17.0523 1.5345 -2.0338 0.9334
-17.1212 -0.0061 -2.0338 0.9334
-17.0510 -1.5467 -2.0337 0.9334
-16.8426 -3.0746 -2.0337 0.9334
-16.0185 -6.0435 -2.0337 0.9334
-10.7876 9.4703 -2.0339 0.9437
-12.9243 6.2457 -2.0339 0.9437
-13.4339 5.0573 -2.0338 0.9437
-14.2961 1.2865 -2.0338 0.9437
-14.3538 -0.0052 -2.0338 0.9437
-14.1202 -2.5777 -2.0338 0.9437
-13.8309 -3.8378 -2.0337 0.9437
-7.6681 9.6764 -2.0339 0.9512
-9.9734 7.2773 -2.0339 0.9512
-11.1161 5.3718 -2.0339 0.9512
-11.5542 4.3497 -2.0338 0.9512
-11.8986 3.2924 -2.0338 0.9512
-12.1466 2.2084 -2.0338 0.9512
-12.2959 1.1065 -2.0338 0.9512
-12.3455 -0.0045 -2.0338 0.9512
-12.2950 -1.1153 -2.0338 0.9512
-11.8959 -3.3008 -2.0338 0.9512
-10.5824 -6.3575 -2.0337 0.9512
-6.7207 8.4810 -2.0339 0.9569
-10.1268 3.8124 -2.0339 0.9569
-10.8204 -0.0039 -2.0338 0.9569
-10.4263 -2.8930 -2.0338 0.9569
-10.1237 -3.8195 -2.0338 0.9569
-9.7389 -4.7149 -2.0338 0.9569
-5.9762 7.5413 -2.0339 0.9614
-8.2515 4.9491 -2.0339 0.9614
-8.6633 4.1865 -2.0339 0.9614
-9.2733 2.5660 -2.0338 0.9614
-9.4665 1.7212 -2.0338 0.9614
-9.0021 -3.3963 -2.0338 0.9614
-8.2475 -4.9548 -2.0338 0.9614
-5.3750 6.7827 -2.0339 0.9651
-5.9634 6.2715 -2.0339 0.9651
-6.5036 5.7094 -2.0339 0.9651
-6.9908 5.1010 -2.0339 0.9651
-7.4214 4.4512 -2.0339 0.9651
-8.0989 3.0490 -2.0339 0.9651
-8.3404 2.3078 -2.0339 0.9651
-8.5142 1.5480 -2.0338 0.9651
-8.6537 -0.0031 -2.0338 0.9651
-8.6183 -0.7818 -2.0338 0.9651
-8.5129 -1.5541 -2.0338 0.9651
-8.0966 -3.0547 -2.0338 0.9651
-7.7888 -3.7708 -2.0338 0.9651
-4.8789 6.1567 -2.0339 0.9681
-5.9034 5.1825 -2.0339 0.9681
-6.7365 4.0404 -2.0339 0.9681
-7.0727 3.4179 -2.0339 0.9681
-7.5707 2.0949 -2.0339 0.9681
-7.7285 1.4051 -2.0338 0.9681
-7.8230 -0.7096 -2.0338 0.9681
-7.5691 -2.1003 -2.0338 0.9681
-7.3493 -2.7728 -2.0338 0.9681
-7.0701 -3.4228 -2.0338 0.9681
-6.7334 -4.0451 -2.0338 0.9681
-4.4622 5.6309 -2.0339 0.9706
-5.8038 4.2348 -2.0339 0.9706
-6.1612 3.6954 -2.0339 0.9706
-6.7238 2.5312 -2.0339 0.9706
-6.9243 1.9160 -2.0339 0.9706
-7.0685 1.2851 -2.0339 0.9706
-7.1554 0.6439 -2.0338 0.9706
-6.9227 -1.9209 -2.0338 0.9706
-6.1584 -3.6997 -2.0338 0.9706
-5.3417 3.8978 -2.0339 0.9727
-5.6708 3.4012 -2.0339 0.9727
-6.1885 2.3298 -2.0339 0.9727
-6.3730 1.7634 -2.0339 0.9727
-6.5058 1.1828 -2.0339 0.9727
-6.5858 0.5926 -2.0339 0.9727
-6.5049 -1.1875 -2.0338 0.9727
-6.3716 -1.7680 -2.0338 0.9727
-6.1867 -2.3341 -2.0338 0.9727
-5.9515 -2.8814 -2.0338 0.9727
-3.8003 4.7956 -2.0339 0.9745
-4.2164 4.4342 -2.0339 0.9745
-4.5982 4.0368 -2.0339 0.9745
-5.5091 2.6623 -2.0339 0.9745
-5.7263 2.1557 -2.0339 0.9745
-6.0939 0.5484 -2.0339 0.9745
-6.1186 -0.0022 -2.0338 0.9745
-6.0935 -0.5528 -2.0338 0.9745
-6.0190 -1.0988 -2.0338 0.9745
-5.8957 -1.6359 -2.0338 0.9745
-5.5071 -2.6662 -2.0338 0.9745
-3.9192 4.1217 -2.0339 0.9761
-4.5944 3.3524 -2.0339 0.9761
-4.8775 2.9254 -2.0339 0.9761
-5.1209 2.4746 -2.0339 0.9761
-5.3228 2.0038 -2.0339 0.9761
-5.3212 -2.0076 -2.0338 0.9761
-5.1189 -2.4783 -2.0338 0.9761
-4.8752 -2.9288 -2.0338 0.9761
-3.2964 4.1597 -2.0339 0.9775
-3.6573 3.8462 -2.0339 0.9775
-3.9885 3.5015 -2.0339 0.9775
-4.2874 3.1284 -2.0339 0.9775
-4.7787 2.3093 -2.0339 0.9775
-4.9670 1.8699 -2.0339 0.9775
-5.1151 1.4154 -2.0339 0.9775
-5.2217 0.9494 -2.0339 0.9775
-5.2859 0.4757 -2.0339 0.9775
-5.3073 -0.0019 -2.0339 0.9775
-5.2856 -0.4795 -2.0338 0.9775
-5.2210 -0.9531 -2.0338 0.9775
-5.1140 -1.4190 -2.0338 0.9775
-4.7768 -2.3127 -2.0338 0.9775
-3.4245 3.6013 -2.0339 0.9788
-3.7346 3.2786 -2.0339 0.9788
-4.4744 2.1623 -2.0339 0.9788
-4.7895 1.3253 -2.0339 0.9788
-2.1167 0.1904 -0.8698 0.9909
-4.6495 -1.7542 -2.0338 0.9788
-4.4727 -2.1654 -2.0338 0.9788
-3.2159 3.3820 -2.0339 0.9798
-3.7700 2.7508 -2.0339 0.9798
-4.2019 2.0306 -2.0339 0.9798
-1.9895 0.5505 -0.8996 0.9910
-1.9052 -0.3478 -0.8440 0.9916
-4.2004 -2.0336 -2.0338 0.9798
-4.0004 -2.4033 -2.0338 0.9798
-3.5495 2.5900 -2.0339 0.9808
-4.1121 1.5481 -2.0339 0.9808
-1.5566 0.4307 -0.7476 0.9929
-1.6072 0.2922 -0.7562 0.9928
-1.6050 -0.1456 -0.7460 0.9929
-1.6070 -0.2934 -0.7561 0.9928
-1.5560 -0.4318 -0.7475 0.9929
-3.9547 -1.9146 -2.0338 0.9808
-2.5753 3.2497 -2.0339 0.9817
-3.1160 2.7355 -2.0339 0.9817
-3.3495 2.4440 -2.0339 0.9817
-3.5558 2.1327 -2.0339 0.9817
-3.7333 1.8041 -2.0339 0.9817
-1.3061 0.3614 -0.6647 0.9940
-1.3397 0.2435 -0.6679 0.9940
-1.3534 0.1218 -0.6666 0.9940
-1.3344 -0.0005 -0.6546 0.9941
-1.3395 -0.2446 -0.6679 0.9940
-3.5542 -2.1352 -2.0338 0.9817
-2.4350 3.0727 -2.0339 0.9825
-3.5300 1.7058 -2.0339 0.9825
-1.2004 0.1080 -0.6253 0.9946
-1.2004 -0.1089 -0.6253 0.9946
-1.1858 -0.2165 -0.6253 0.9946
-1.1574 -0.3212 -0.6231 0.9946
-1.1279 -0.4256 -0.6254 0.9946
-3.5287 -1.7084 -2.0339 0.9825
-3.3607 -2.0189 -2.0338 0.9825
-2.7907 2.4499 -2.0339 0.9832
-2.9998 2.1889 -2.0339 0.9832
-3.1846 1.9101 -2.0339 0.9832
-1.0196 0.3838 -0.5967 0.9950
-1.0388 0.2874 -0.5903 0.9951
-1.0800 0.0971 -0.5939 0.9951
-1.0800 -0.0980 -0.5939 0.9951
-1.0647 -0.1944 -0.5928 0.9951
-1.0194 -0.3846 -0.5968 0.9950
-0.9874 -0.4781 -0.6009 0.9950
-2.1880 2.7610 -2.0339 0.9839
-2.4275 2.5529 -2.0339 0.9839
-2.6474 2.3241 -2.0339 0.9839
-2.8457 2.0765 -2.0339 0.9839
-3.0211 1.8120 -2.0339 0.9839
-0.9170 0.4431 -0.5880 0.9953
-0.9589 0.2653 -0.5744 0.9954
-0.9782 0.1778 -0.5740 0.9954
-0.9889 -0.0004 -0.5710 0.9954
-0.9886 -0.0897 -0.5731 0.9954
-0.9780 -0.1786 -0.5740 0.9954
-0.9588 -0.2661 -0.5745 0.9954
