ply
format ascii 1.0
element vertex 191
property float32 x
property float32 y
property float32 z
property float32 I
end_header
16.4260 -4.2385 -1.2438 0.9342
14.6320 8.7926 -1.2517 0.9338
14.5845 8.7640 -1.6335 0.9339
13.1675 9.5859 -1.5637 0.9366
14.0809 -9.7421 -2.0339 0.9334
14.8843 -8.4643 -2.0339 0.9334
16.1388 -5.7217 -2.0340 0.9334
16.5651 -4.2744 -2.0322 0.9334
16.8927 -2.8015 -2.0340 0.9333
17.0739 -1.3030 -2.0340 0.9333
17.1224 0.2057 -2.0340 0.9333
17.0379 1.7128 -2.0341 0.9333
13.2583 9.6521 -1.9480 0.9361
12.9029 11.2587 -2.0341 0.9333
10.7275 13.3479 -2.0341 0.9333
11.8048 -8.1673 -2.0339 0.9437
13.0548 -5.9696 -2.0339 0.9437
13.5300 -4.7968 -2.0340 0.9437
13.8999 -3.5867 -2.0340 0.9437
14.3139 -1.0923 -2.0340 0.9437
14.3545 0.1725 -2.0340 0.9437
14.1018 2.6883 -2.0341 0.9437
13.4115 5.1207 -2.0341 0.9437
12.9085 6.2820 -2.0341 0.9437
10.1531 -7.0246 -2.0339 0.9512
11.6368 -4.1256 -2.0340 0.9512
12.1804 -2.0200 -2.0340 0.9512
12.3110 -0.9395 -2.0340 0.9512
12.3460 0.1483 -2.0340 0.9512
12.1286 2.3121 -2.0340 0.9512
11.8779 3.3712 -2.0340 0.9512
11.5349 4.4042 -2.0340 0.9512
11.1022 5.4029 -2.0341 0.9512
10.5833 6.3597 -2.0341 0.9512
9.9821 7.2670 -2.0341 0.9512
8.5523 8.9057 -2.0341 0.9512
8.8987 -6.1567 -2.0339 0.9569
9.8409 -4.5000 -2.0339 0.9569
10.4780 -2.7037 -2.0340 0.9569
10.6755 -1.7704 -2.0340 0.9569
10.7900 -0.8234 -2.0340 0.9569
10.8206 0.1300 -2.0340 0.9569
10.6300 2.0264 -2.0340 0.9569
10.4104 2.9547 -2.0340 0.9569
9.2757 5.5739 -2.0340 0.9569
8.1539 7.1149 -2.0340 0.9569
7.4957 7.8053 -2.0341 0.9569
6.7792 8.4351 -2.0341 0.9569
7.9128 -5.4746 -2.0339 0.9614
8.3643 -4.7565 -2.0339 0.9614
8.7507 -4.0014 -2.0339 0.9614
9.3171 -2.4041 -2.0340 0.9614
9.6217 0.1156 -2.0340 0.9614
9.5742 0.9625 -2.0340 0.9614
9.4523 1.8019 -2.0340 0.9614
9.2569 2.6274 -2.0340 0.9614
8.9896 3.4324 -2.0340 0.9614
8.6524 4.2107 -2.0340 0.9614
7.2505 6.3266 -2.0340 0.9614
6.6652 6.9405 -2.0340 0.9614
7.5228 -4.2780 -2.0339 0.9651
7.8704 -3.5989 -2.0339 0.9651
8.1568 -2.8918 -2.0339 0.9651
8.3798 -2.1623 -2.0339 0.9651
8.3256 2.3630 -2.0340 0.9651
7.7819 3.7871 -2.0340 0.9651
5.9946 6.2422 -2.0340 0.9651
5.4216 6.7459 -2.0340 0.9651
6.4600 -4.4695 -2.0339 0.9681
6.8285 -3.8832 -2.0339 0.9681
7.1440 -3.2668 -2.0339 0.9681
7.4040 -2.6249 -2.0339 0.9681
7.6064 -1.9627 -2.0339 0.9681
7.7498 -1.2852 -2.0340 0.9681
7.8329 -0.5978 -2.0340 0.9681
7.8551 0.0944 -2.0340 0.9681
7.8163 0.7858 -2.0340 0.9681
7.5573 2.1449 -2.0340 0.9681
6.7336 4.0463 -2.0340 0.9681
6.3511 4.6236 -2.0340 0.9681
5.9192 5.1649 -2.0340 0.9681
5.9084 -4.0878 -2.0339 0.9706
6.5339 -2.9878 -2.0339 0.9706
6.7717 -2.4008 -2.0339 0.9706
7.1488 0.7187 -2.0340 0.9706
6.9118 1.9618 -2.0340 0.9706
6.7122 2.5628 -2.0340 0.9706
6.1585 3.7007 -2.0340 0.9706
5.8087 4.2287 -2.0340 0.9706
4.9767 5.1823 -2.0340 0.9706
4.5009 5.6004 -2.0340 0.9706
5.4380 -3.7624 -2.0339 0.9727
5.7482 -3.2688 -2.0339 0.9727
6.0138 -2.7500 -2.0339 0.9727
6.5237 -1.0819 -2.0339 0.9727
6.5936 -0.5032 -2.0340 0.9727
6.6124 0.0795 -2.0340 0.9727
6.5796 0.6615 -2.0340 0.9727
6.3616 1.8056 -2.0340 0.9727
5.9461 2.8937 -2.0340 0.9727
5.6682 3.4061 -2.0340 0.9727
5.0318 -3.4813 -2.0339 0.9745
5.3189 -3.0247 -2.0339 0.9745
5.5646 -2.5446 -2.0339 0.9745
5.9248 -1.5288 -2.0339 0.9745
6.1011 -0.4656 -2.0339 0.9745
6.1185 0.0735 -2.0340 0.9745
6.0882 0.6121 -2.0340 0.9745
6.0107 1.1458 -2.0340 0.9745
5.7164 2.1826 -2.0340 0.9745
5.5020 2.6776 -2.0340 0.9745
3.8332 4.7696 -2.0340 0.9745
5.1725 -2.3652 -2.0339 0.9761
5.5073 -1.4211 -2.0339 0.9761
5.6110 -0.9306 -2.0339 0.9761
5.6873 0.0683 -2.0340 0.9761
5.6591 0.5689 -2.0340 0.9761
5.5871 1.0651 -2.0340 0.9761
5.4716 1.5530 -2.0340 0.9761
5.1143 2.4889 -2.0340 0.9761
4.8752 2.9296 -2.0340 0.9761
4.5983 3.3476 -2.0340 0.9761
4.2856 3.7395 -2.0340 0.9761
4.3646 -3.0197 -2.0339 0.9775
4.6136 -2.6237 -2.0339 0.9775
5.0024 -1.7735 -2.0339 0.9775
5.1392 -1.3261 -2.0339 0.9775
5.2921 -0.4039 -2.0339 0.9775
5.3072 0.0638 -2.0339 0.9775
5.2137 0.9939 -2.0340 0.9775
5.1059 1.4492 -2.0340 0.9775
4.5494 2.7338 -2.0340 0.9775
3.9992 3.4896 -2.0340 0.9775
3.3249 4.1371 -2.0340 0.9775
4.0868 -2.8275 -2.0339 0.9788
4.5195 -2.0667 -2.0339 0.9788
4.6839 -1.6606 -2.0339 0.9788
4.9552 -0.3782 -2.0339 0.9787
4.6427 1.7727 -2.0340 0.9787
4.4686 2.1746 -2.0340 0.9787
4.2597 2.5597 -2.0340 0.9787
3.4423 3.5845 -2.0340 0.9787
4.3987 -1.5595 -2.0339 0.9798
4.5189 -1.1660 -2.0339 0.9798
4.6534 -0.3551 -2.0339 0.9798
4.6436 0.4668 -2.0339 0.9798
4.3600 1.6647 -2.0340 0.9798
4.0003 2.4038 -2.0340 0.9798
3.5165 3.0684 -2.0340 0.9798
2.9236 3.6378 -2.0340 0.9798
4.2546 -1.0979 -2.0339 0.9808
4.3937 0.0528 -2.0339 0.9808
4.3164 0.8228 -2.0339 0.9808
4.1050 1.5673 -2.0340 0.9808
3.9511 1.9228 -2.0340 0.9808
3.7664 2.2633 -2.0340 0.9808
3.5525 2.5862 -2.0340 0.9808
3.0436 3.1693 -2.0340 0.9808
2.7527 3.4250 -2.0340 0.9808
3.6044 -2.0497 -2.0339 0.9817
3.9082 -1.3855 -2.0339 0.9817
4.1345 -0.3155 -2.0339 0.9817
4.1462 0.0498 -2.0339 0.9817
3.9889 1.1321 -2.0339 0.9817
3.8737 1.4790 -2.0340 0.9817
3.5655 -1.6304 -2.0339 0.9825
3.6952 -1.3101 -2.0339 0.9825
2.0770 -0.1585 -1.0806 0.9907
2.0729 0.0249 -1.0755 0.9907
2.1052 0.4013 -1.1118 0.9904
3.3606 2.0194 -2.0340 0.9825
2.9541 2.5777 -2.0340 0.9825
2.7157 2.8278 -2.0340 0.9825
2.4561 3.0560 -2.0340 0.9825
3.0539 -2.1129 -2.0339 0.9832
3.2281 -1.8357 -2.0339 0.9832
3.3772 -1.5443 -2.0339 0.9832
2.0071 -0.7116 -1.1663 0.9903
1.8491 0.1859 -1.0179 0.9916
1.8551 0.3536 -1.0343 0.9914
1.8683 0.5303 -1.0637 0.9912
3.1831 1.9128 -2.0339 0.9832
3.0623 -1.7414 -2.0339 0.9839
1.7835 -0.8156 -1.1323 0.9910
1.7244 -0.6114 -1.0563 0.9916
1.7134 -0.4421 -1.0216 0.9919
1.7142 -0.2843 -1.0032 0.9920
1.7200 0.1729 -0.9980 0.9920
1.7138 0.3267 -1.0073 0.9920
3.1677 1.5416 -2.0339 0.9839
2.2069 2.7460 -2.0340 0.9839
