ply
format ascii 1.0
element vertex 200
property float32 x
property float32 y
property float32 z
property float32 I
end_header
-16.4957 5.4156 -0.8805 0.9328
-16.2285 5.3279 -1.2524 0.9338
-12.4926 -7.7742 -1.4126 0.9426
-11.4957 -8.6316 -1.3801 0.9439
-15.7394 6.7402 -2.0338 0.9334
-16.2674 5.3407 -2.0338 0.9334
-16.6713 3.9005 -2.0338 0.9334
-16.9480 2.4306 -2.0338 0.9334
-17.0953 0.9422 -2.0338 0.9334
-16.9985 -2.0448 -2.0337 0.9334
-16.3837 -4.9694 -2.0337 0.9334
-15.8874 -6.3803 -2.0337 0.9334
-12.8524 -7.9981 -1.7982 0.9408
-11.2943 -8.4803 -1.6777 0.9447
-12.7413 -11.4354 -2.0337 0.9334
-12.0119 7.8592 -2.0339 0.9437
-12.6519 6.7808 -2.0339 0.9437
-13.9766 3.2700 -2.0338 0.9437
-14.2086 2.0377 -2.0338 0.9437
-14.3321 0.7899 -2.0338 0.9437
-14.3462 -0.4640 -2.0338 0.9437
-14.0469 -2.9515 -2.0337 0.9437
-13.7356 -4.1662 -2.0337 0.9437
-10.6820 -9.5871 -2.0337 0.9437
-9.8044 -10.4828 -2.0337 0.9437
-8.8521 -11.2984 -2.0337 0.9437
-10.3313 6.7596 -2.0339 0.9512
-11.7298 3.8510 -2.0338 0.9512
-12.0211 2.8126 -2.0338 0.9512
-12.2207 1.7526 -2.0338 0.9512
-12.3269 0.6794 -2.0338 0.9512
-12.2570 -1.4745 -2.0338 0.9512
-12.0815 -2.5386 -2.0338 0.9512
-11.8138 -3.5833 -2.0338 0.9512
-11.4560 -4.6007 -2.0338 0.9512
-11.0107 -5.5830 -2.0337 0.9512
-10.4814 -6.5226 -2.0337 0.9512
-9.8721 -7.4125 -2.0337 0.9512
-8.4327 -9.0162 -2.0337 0.9512
-9.5373 5.1116 -2.0339 0.9569
-10.2807 3.3752 -2.0338 0.9569
-10.7109 1.5361 -2.0338 0.9569
-10.8147 -0.3498 -2.0338 0.9569
-10.7429 -1.2923 -2.0338 0.9569
-9.6505 -4.8933 -2.0338 0.9569
-9.1866 -5.7168 -2.0338 0.9569
-8.6526 -6.4968 -2.0338 0.9569
-8.4807 4.5453 -2.0339 0.9614
-9.1417 3.0013 -2.0339 0.9614
-9.3687 2.1920 -2.0338 0.9614
-9.5243 1.3659 -2.0338 0.9614
-9.5527 -1.1491 -2.0338 0.9614
-8.9284 -3.5856 -2.0338 0.9614
-8.5814 -4.3512 -2.0338 0.9614
-7.1604 -6.4265 -2.0338 0.9614
-6.5722 -7.0269 -2.0338 0.9614
-5.9338 -7.5737 -2.0338 0.9614
-8.2221 2.6994 -2.0339 0.9651
-8.5661 1.2285 -2.0338 0.9651
-8.6492 -0.2798 -2.0338 0.9651
-8.4687 -1.7795 -2.0338 0.9651
-8.2811 -2.5118 -2.0338 0.9651
-7.7181 -3.9135 -2.0338 0.9651
-7.3471 -4.5721 -2.0338 0.9651
-6.9200 -5.1959 -2.0338 0.9651
-6.4401 -5.7800 -2.0338 0.9651
-5.9111 -6.3200 -2.0338 0.9651
-6.9236 3.7107 -2.0339 0.9681
-7.2210 3.0923 -2.0339 0.9681
-7.6486 1.7895 -2.0339 0.9681
-7.8510 -0.2539 -2.0338 0.9681
-7.7989 -0.9382 -2.0338 0.9681
-7.6871 -1.6153 -2.0338 0.9681
-7.2892 -2.9273 -2.0338 0.9681
-7.0059 -3.5523 -2.0338 0.9681
-5.8459 -5.2466 -2.0338 0.9681
-6.0120 3.9336 -2.0339 0.9706
-6.3324 3.3938 -2.0339 0.9706
-6.6044 2.8282 -2.0339 0.9706
-7.1735 0.3953 -2.0338 0.9706
-7.1329 -0.8581 -2.0338 0.9706
-7.0307 -1.4773 -2.0338 0.9706
-6.8750 -2.0853 -2.0338 0.9706
-6.4076 -3.2490 -2.0338 0.9706
-6.0996 -3.7958 -2.0338 0.9706
-5.3466 -4.7986 -2.0338 0.9706
-4.4307 -5.6552 -2.0338 0.9706
-5.8282 3.1237 -2.0339 0.9727
-6.0786 2.6031 -2.0339 0.9727
-6.4386 1.5064 -2.0339 0.9727
-6.5455 0.9387 -2.0339 0.9727
-6.6089 -0.2138 -2.0338 0.9727
-6.4711 -1.3597 -2.0338 0.9727
-6.3277 -1.9193 -2.0338 0.9727
-6.1360 -2.4642 -2.0338 0.9727
-5.8976 -2.9904 -2.0338 0.9727
-4.9210 -4.4166 -2.0338 0.9727
-4.5168 -4.8293 -2.0338 0.9727
-5.3929 2.8904 -2.0339 0.9745
-5.8133 1.9086 -2.0339 0.9745
-5.9577 1.3939 -2.0339 0.9745
-6.1154 -0.1978 -2.0338 0.9745
-5.9877 -1.2582 -2.0338 0.9745
-5.4571 -2.7670 -2.0338 0.9745
-5.1948 -3.2327 -2.0338 0.9745
-4.8928 -3.6738 -2.0338 0.9745
-4.1795 -4.4686 -2.0338 0.9745
-4.7593 3.1139 -2.0339 0.9761
-5.0129 2.6867 -2.0339 0.9761
-5.2282 2.2389 -2.0339 0.9761
-5.4037 1.7741 -2.0339 0.9761
-5.6788 0.3130 -2.0339 0.9761
-5.6844 -0.1838 -2.0338 0.9761
-5.6466 -0.6793 -2.0338 0.9761
-5.2776 -2.1195 -2.0338 0.9761
-4.5480 -3.4149 -2.0338 0.9761
-3.8849 -4.1537 -2.0338 0.9761
-4.4412 2.9058 -2.0339 0.9775
-4.8788 2.0893 -2.0339 0.9775
-5.0425 1.6555 -2.0339 0.9775
-5.2993 0.2920 -2.0339 0.9775
-5.3045 -0.1716 -2.0339 0.9775
-5.2693 -0.6339 -2.0338 0.9775
-5.1939 -1.0913 -2.0338 0.9775
-5.0787 -1.5405 -2.0338 0.9775
-4.9249 -1.9779 -2.0338 0.9775
-4.5060 -2.8041 -2.0338 0.9775
-4.2441 -3.1867 -2.0338 0.9775
-3.6253 -3.8761 -2.0338 0.9775
-3.2732 -4.1777 -2.0338 0.9775
-4.7215 1.5501 -2.0339 0.9788
-2.1189 0.4957 -0.8906 0.9906
-2.1116 0.3028 -0.8731 0.9908
-2.1218 0.1169 -0.8697 0.9909
-2.1227 -0.0687 -0.8692 0.9909
-2.1087 -0.2537 -0.8693 0.9909
-4.7554 -1.4424 -2.0338 0.9788
-4.6114 -1.8519 -2.0338 0.9788
-4.4322 -2.2473 -2.0338 0.9788
-3.9739 -2.9838 -2.0338 0.9788
-3.3945 -3.6293 -2.0338 0.9788
-3.0648 -3.9117 -2.0338 0.9788
-4.2900 1.8371 -2.0339 0.9798
-1.9033 0.2729 -0.8380 0.9916
-1.9176 0.1056 -0.8370 0.9917
-2.0678 -0.6272 -0.9417 0.9906
-4.1623 -2.1105 -2.0338 0.9798
-3.9621 -2.4657 -2.0338 0.9798
-3.7318 -2.8021 -2.0338 0.9798
-3.4731 -3.1171 -2.0338 0.9798
-3.1878 -3.4083 -2.0338 0.9798
-3.6768 2.4057 -2.0339 0.9808
-3.8728 2.0756 -2.0339 0.9808
-1.6341 0.5365 -0.7961 0.9924
-1.5847 0.3707 -0.7534 0.9929
-1.5841 -0.0513 -0.7337 0.9930
-1.6096 -0.1937 -0.7505 0.9929
-1.5965 -0.3355 -0.7551 0.9928
-4.0773 -1.6374 -2.0338 0.9808
-3.2700 -2.9348 -2.0338 0.9808
-3.0014 -3.2090 -2.0338 0.9808
-3.8116 1.6322 -2.0339 0.9817
-1.3233 0.3096 -0.6667 0.9940
-1.3501 0.0744 -0.6632 0.9940
-1.3454 -0.0436 -0.6603 0.9940
-1.3524 -0.1627 -0.6682 0.9939
-1.2946 -0.3927 -0.6636 0.9940
-1.7308 -0.6951 -0.9149 0.9917
-3.6980 -1.8751 -2.0338 0.9817
-3.5203 -2.1907 -2.0338 0.9817
-3.3156 -2.4896 -2.0338 0.9817
-3.0857 -2.7695 -2.0338 0.9817
-1.1708 0.2739 -0.6238 0.9946
-1.1955 0.1714 -0.6266 0.9946
-1.1970 -0.0388 -0.6213 0.9946
-1.1477 -0.3481 -0.6222 0.9946
-1.1206 -0.4501 -0.6265 0.9946
-3.4966 -1.7730 -2.0339 0.9825
-3.3286 -2.0714 -2.0338 0.9825
-2.6780 -2.8633 -2.0338 0.9825
-2.4179 -3.0861 -2.0338 0.9825
-3.1075 2.0331 -2.0339 0.9832
-3.2730 1.7542 -2.0339 0.9832
-1.0814 0.0596 -0.5932 0.9951
-1.0799 -0.0350 -0.5918 0.9951
-3.1528 -1.9620 -2.0339 0.9832
-2.5365 -2.7121 -2.0338 0.9832
-2.9479 1.9288 -2.0339 0.9839
-0.9027 0.4838 -0.5913 0.9953
-0.9314 0.3988 -0.5850 0.9953
-0.9521 0.3125 -0.5786 0.9954
-0.9677 0.2264 -0.5738 0.9954
-0.9900 -0.0321 -0.5719 0.9954
-0.9863 -0.1187 -0.5735 0.9954
-0.9557 -0.2899 -0.5766 0.9954
-0.9378 -0.3766 -0.5835 0.9953
-0.9107 -0.4618 -0.5896 0.9953
-2.9909 -1.8613 -2.0339 0.9839
-2.6216 -2.3529 -2.0339 0.9839
-2.1725 -2.7730 -2.0339 0.9839
