ply
format ascii 1.0
element vertex 198
property float32 x
property float32 y
property float32 z
property float32 I
end_header
3.1603 18.5913 3.3252 0.9263
-13.1484 12.7781 3.2329 0.9282
3.1709 18.6539 2.8987 0.9263
-11.5759 13.4221 2.7153 0.9308
-12.1379 11.7960 2.5929 0.9338
3.1962 18.8026 2.4836 0.9260
1.4131 17.5451 2.2921 0.9315
2.9614 17.4218 1.8976 0.9314
1.5293 18.9870 2.0455 0.9262
1.4984 18.6044 1.5800 0.9278
-11.5675 13.4123 1.4993 0.9314
2.9590 17.4073 1.0949 0.9317
-12.5608 14.5640 1.1926 0.9258
-12.7328 12.3741 1.1010 0.9313
3.2693 19.2327 0.7692 0.9249
1.4497 17.9989 0.7120 0.9303
-12.4541 14.4403 0.7519 0.9265
3.0929 18.1949 -0.1039 0.9288
-0.7604 7.9258 -0.7644 0.9685
-1.4251 7.6725 -0.7492 0.9691
-2.0695 7.4296 -0.7404 0.9695
8.5147 14.8575 -2.0341 0.9333
7.1759 15.5483 -2.0341 0.9333
5.7816 16.1188 -2.0341 0.9333
2.8697 16.8820 -2.0341 0.9333
-0.1307 17.1235 -2.0341 0.9333
-0.7589 7.9104 -0.9440 0.9685
-1.4141 7.6130 -0.9198 0.9693
-8.7399 14.7246 -2.0340 0.9334
-10.0002 13.8994 -2.0340 0.9334
-11.1830 12.9665 -2.0339 0.9334
-12.2792 11.9333 -2.0339 0.9334
-14.1789 9.5986 -2.0339 0.9334
7.1383 12.4556 -2.0341 0.9437
4.8469 13.5130 -2.0341 0.9437
3.6404 13.8867 -2.0341 0.9437
1.1526 14.3095 -2.0341 0.9437
-0.7190 7.4952 -1.0669 0.9700
-1.3698 7.3746 -1.0628 0.9702
-2.0326 7.2974 -1.0733 0.9699
-5.0524 13.4369 -2.0340 0.9437
-6.2138 12.9407 -2.0340 0.9437
-8.3836 11.6526 -2.0340 0.9437
-9.3753 10.8705 -2.0339 0.9437
-11.1337 9.0607 -2.0339 0.9437
6.1394 10.7127 -2.0341 0.9512
5.1741 11.2108 -2.0341 0.9512
0.9913 12.3072 -2.0340 0.9512
-0.0942 12.3466 -2.0340 0.9512
-1.3604 7.3240 -1.2272 0.9703
-2.0121 7.2236 -1.2353 0.9701
-5.3444 11.1301 -2.0340 0.9512
-6.3019 10.6171 -2.0340 0.9512
-7.2105 10.0221 -2.0340 0.9512
-8.0636 9.3495 -2.0339 0.9512
-8.8540 8.6045 -2.0339 0.9512
-10.2238 6.9211 -2.0339 0.9512
4.5348 9.8257 -2.0340 0.9569
3.6536 10.1862 -2.0340 0.9569
1.8136 10.6686 -2.0340 0.9569
0.8689 10.7866 -2.0340 0.9569
-0.0826 10.8212 -2.0340 0.9569
-0.7176 7.4800 -1.4124 0.9699
-3.8086 10.1290 -2.0340 0.9569
-5.5233 9.3054 -2.0340 0.9569
-7.7601 7.5415 -2.0339 0.9569
2.4401 9.3080 -2.0340 0.9614
1.6126 9.4865 -2.0340 0.9614
0.7725 9.5915 -2.0340 0.9614
-0.0735 9.6222 -2.0340 0.9614
-0.7010 7.3070 -1.5516 0.9704
-5.6196 7.8107 -2.0339 0.9614
-7.4630 6.0735 -2.0339 0.9614
-7.9679 5.3940 -2.0339 0.9614
4.3033 7.5088 -2.0340 0.9651
3.6266 7.8580 -2.0340 0.9651
2.9219 8.1464 -2.0340 0.9651
1.4503 8.5321 -2.0340 0.9651
-0.0661 8.6542 -2.0340 0.9651
-0.6975 7.2709 -1.7167 0.9704
-1.4689 7.9084 -1.8905 0.9675
-2.0389 7.3202 -1.7859 0.9693
-3.0459 8.1006 -2.0340 0.9651
-4.4173 7.4420 -2.0339 0.9651
-5.6521 6.5535 -2.0339 0.9651
-6.7122 5.4625 -2.0339 0.9651
-7.1663 4.8514 -2.0339 0.9651
3.2920 7.1328 -2.0340 0.9681
-0.0600 7.8555 -2.0340 0.9681
-4.0096 6.7552 -2.0339 0.9681
-4.5878 6.3766 -2.0339 0.9681
3.5726 6.2338 -2.0340 0.9706
3.0108 6.5237 -2.0340 0.9706
1.8220 6.9500 -2.0340 0.9706
-0.6861 7.1520 -2.0340 0.9706
-1.3121 7.0640 -2.0340 0.9706
-2.5287 6.7250 -2.0340 0.9706
-4.6923 5.4407 -2.0339 0.9706
-5.9495 4.0276 -2.0339 0.9706
3.2882 5.7375 -2.0340 0.9727
2.7711 6.0043 -2.0340 0.9727
2.2327 6.2246 -2.0340 0.9727
1.6769 6.3967 -2.0340 0.9727
0.5309 6.5915 -2.0340 0.9727
-0.6315 6.5826 -2.0340 0.9727
-2.3274 6.1896 -2.0339 0.9727
-2.8624 5.9612 -2.0339 0.9727
-3.8620 5.3678 -2.0339 0.9727
-4.3188 5.0076 -2.0339 0.9727
2.0659 5.7597 -2.0340 0.9745
-0.0467 6.1188 -2.0340 0.9745
-0.5843 6.0909 -2.0340 0.9745
-3.5735 4.9669 -2.0339 0.9745
-4.7458 3.8622 -2.0339 0.9745
2.3834 5.1643 -2.0340 0.9761
-0.0434 5.6875 -2.0340 0.9761
-0.5431 5.6617 -2.0340 0.9761
-1.0387 5.5920 -2.0340 0.9761
-1.5261 5.4791 -2.0339 0.9761
-2.9030 4.8909 -2.0339 0.9761
-3.3217 4.6168 -2.0339 0.9761
-3.7146 4.3070 -2.0339 0.9761
-4.0788 3.9638 -2.0339 0.9761
-4.4113 3.5900 -2.0339 0.9761
-4.7098 3.1884 -2.0339 0.9761
2.6391 4.6050 -2.0340 0.9775
1.7920 4.9959 -2.0340 0.9775
1.3459 5.1341 -2.0340 0.9775
-0.0405 5.3074 -2.0340 0.9775
-0.5068 5.2833 -2.0340 0.9775
-0.9693 5.2183 -2.0340 0.9775
-2.7090 4.5641 -2.0339 0.9775
-3.4663 4.0192 -2.0339 0.9775
-4.1165 3.3501 -2.0339 0.9775
-4.3950 2.9753 -2.0339 0.9775
2.0825 4.5123 -2.0340 0.9787
0.8328 4.8994 -2.0340 0.9787
0.3990 4.9536 -2.0340 0.9787
-0.0379 4.9695 -2.0340 0.9787
-0.9075 4.8861 -2.0339 0.9788
-2.1511 4.4799 -2.0339 0.9788
-2.5366 4.2735 -2.0339 0.9788
-3.2457 3.7633 -2.0339 0.9788
-3.5638 3.4634 -2.0339 0.9788
-3.8545 3.1368 -2.0339 0.9788
1.9557 4.2375 -2.0340 0.9798
1.1835 4.5145 -2.0340 0.9798
0.3747 4.6519 -2.0340 0.9798
-0.0356 4.6668 -2.0340 0.9798
-0.8523 4.5885 -2.0339 0.9798
-1.2522 4.4958 -2.0339 0.9798
-2.7255 3.7883 -2.0339 0.9798
-3.3468 3.2525 -2.0339 0.9798
-3.6197 2.9457 -2.0339 0.9798
-3.8646 2.6162 -2.0339 0.9798
1.8413 3.9897 -2.0340 0.9808
1.4836 4.1361 -2.0340 0.9808
1.1143 4.2504 -2.0340 0.9808
0.3528 4.3799 -2.0340 0.9808
-1.5465 4.1129 -2.0339 0.9808
-1.9020 3.9610 -2.0339 0.9808
-2.2428 3.7785 -2.0339 0.9808
-3.6386 2.4632 -2.0339 0.9808
1.0515 4.0109 -2.0340 0.9817
0.6948 4.0878 -2.0340 0.9817
0.3329 4.1331 -2.0339 0.9817
-0.0317 4.1463 -2.0339 0.9817
-0.3959 4.1275 -2.0339 0.9817
-1.4593 3.8811 -2.0339 0.9817
-2.4216 3.3658 -2.0339 0.9817
-2.9735 2.8898 -2.0339 0.9817
1.6429 3.5598 -2.0340 0.9825
1.3237 3.6904 -2.0340 0.9825
0.9942 3.7925 -2.0340 0.9825
0.6570 3.8652 -2.0339 0.9825
-0.7160 3.8547 -2.0339 0.9825
-1.6971 3.5342 -2.0339 0.9825
-2.5605 2.9689 -2.0339 0.9825
-2.8116 2.7324 -2.0339 0.9825
-3.0408 2.4747 -2.0339 0.9825
-3.2466 2.1978 -2.0339 0.9825
1.2538 3.4955 -2.0340 0.9832
-0.0283 3.7135 -2.0339 0.9832
-0.3546 3.6966 -2.0339 0.9832
-0.6782 3.6511 -2.0339 0.9832
-0.9964 3.5774 -2.0339 0.9832
-2.1688 3.0144 -2.0339 0.9832
-2.4253 2.8121 -2.0339 0.9832
-2.6631 2.5881 -2.0339 0.9832
1.4763 3.1987 -2.0339 0.9839
0.8934 3.4077 -2.0339 0.9839
0.5904 3.4731 -2.0339 0.9839
-0.9453 3.3937 -2.0339 0.9839
-1.7981 3.0294 -2.0339 0.9839
-2.0574 2.8596 -2.0339 0.9839
-2.5263 2.4552 -2.0339 0.9839
-2.7323 2.2236 -2.0339 0.9839
-2.9172 1.9748 -2.0339 0.9839
