ply
format ascii 1.0
element vertex 182
property float32 x
property float32 y
property float32 z
property float32 I
end_header
-17.0955 -0.9360 -2.0337 0.9334
-16.9394 -2.4864 -2.0337 0.9334
-16.6431 -4.0163 -2.0337 0.9334
-16.2089 -5.5128 -2.0337 0.9334
-11.4534 -7.8521 -1.6495 0.9456
-10.9857 -13.1309 -2.0337 0.9334
-7.0363 -15.6077 -2.0337 0.9334
-5.5881 -16.1828 -2.0337 0.9334
-4.0936 -16.6239 -2.0337 0.9334
-2.5652 -16.9274 -2.0337 0.9334
0.5425 -17.1123 -2.0337 0.9334
-13.9530 -3.3671 -2.0337 0.9437
-13.5890 -4.6217 -2.0337 0.9437
-11.8384 -8.1161 -2.0337 0.9437
-11.0514 -9.1587 -2.0337 0.9437
-9.2101 -11.0086 -2.0337 0.9437
-5.8991 -13.0850 -2.0337 0.9437
-3.4320 -13.9371 -2.0337 0.9437
-12.3270 -0.6749 -2.0338 0.9512
-11.6879 -3.9751 -2.0338 0.9512
-10.7747 -6.0259 -2.0337 0.9512
-9.5052 -7.8774 -2.0337 0.9512
-7.9216 -9.4684 -2.0337 0.9512
-6.0760 -10.7464 -2.0337 0.9512
-2.9518 -11.9871 -2.0337 0.9512
-1.8497 -12.2059 -2.0337 0.9512
-0.7323 -12.3236 -2.0338 0.9512
0.3912 -12.3392 -2.0338 0.9512
-10.8041 -0.5915 -2.0338 0.9569
-10.7056 -1.5714 -2.0338 0.9569
-10.5183 -2.5382 -2.0338 0.9569
-10.2439 -3.4840 -2.0338 0.9569
-9.4436 -5.2815 -2.0338 0.9569
-8.3310 -6.9043 -2.0338 0.9569
-7.6687 -7.6331 -2.0337 0.9569
-6.9430 -8.2988 -2.0337 0.9569
-5.3254 -9.4189 -2.0337 0.9569
-4.4470 -9.8641 -2.0338 0.9569
-3.5317 -10.2275 -2.0338 0.9569
-2.5872 -10.5063 -2.0338 0.9569
-0.6418 -10.8012 -2.0338 0.9569
0.3429 -10.8148 -2.0338 0.9569
-9.6072 -0.5260 -2.0338 0.9614
-9.5195 -1.3973 -2.0338 0.9614
-9.3530 -2.2570 -2.0338 0.9614
-8.3974 -4.6964 -2.0338 0.9614
-7.4081 -6.1394 -2.0338 0.9614
-6.8192 -6.7875 -2.0338 0.9614
-6.1738 -7.3794 -2.0338 0.9614
-5.4773 -7.9101 -2.0338 0.9614
-3.9543 -8.7712 -2.0338 0.9614
-3.1404 -9.0945 -2.0338 0.9614
0.3049 -9.6167 -2.0338 0.9614
-8.6407 -0.4731 -2.0338 0.9651
-8.5619 -1.2568 -2.0338 0.9651
-7.1373 -4.8931 -2.0338 0.9651
-5.5528 -6.6371 -2.0338 0.9651
-2.8245 -8.1796 -2.0338 0.9651
0.2742 -8.6493 -2.0338 0.9651
-7.7718 -1.1408 -2.0338 0.9681
-7.6359 -1.8427 -2.0338 0.9681
-7.4366 -2.5293 -2.0338 0.9681
-7.1759 -3.1950 -2.0338 0.9681
-6.4787 -4.4416 -2.0338 0.9681
-6.0480 -5.0122 -2.0338 0.9681
-5.0404 -6.0246 -2.0338 0.9681
-4.4717 -6.4579 -2.0338 0.9681
-3.8661 -6.8378 -2.0338 0.9681
-3.2284 -7.1609 -2.0338 0.9681
-2.5639 -7.4247 -2.0338 0.9681
-1.1770 -7.7663 -2.0338 0.9681
-0.4659 -7.8412 -2.0338 0.9681
0.2489 -7.8512 -2.0338 0.9681
-7.1736 -0.3928 -2.0338 0.9706
-7.1081 -1.0434 -2.0338 0.9706
-5.9255 -4.0623 -2.0338 0.9706
-4.0898 -5.9064 -2.0338 0.9706
-2.3449 -6.7908 -2.0338 0.9706
-6.5423 -0.9603 -2.0338 0.9727
-6.2602 -2.1292 -2.0338 0.9727
-6.0407 -2.6895 -2.0338 0.9727
-5.7711 -3.2276 -2.0338 0.9727
-5.4537 -3.7389 -2.0338 0.9727
-5.0912 -4.2193 -2.0338 0.9727
-4.6865 -4.6647 -2.0338 0.9727
-3.7643 -5.4363 -2.0338 0.9727
-3.2544 -5.7560 -2.0338 0.9727
-0.9908 -6.5377 -2.0338 0.9727
-0.3922 -6.6008 -2.0338 0.9727
-5.7927 -1.9701 -2.0338 0.9745
-5.5895 -2.4886 -2.0338 0.9745
-5.0464 -3.4597 -2.0338 0.9745
-4.7110 -3.9042 -2.0338 0.9745
-4.3365 -4.3163 -2.0338 0.9745
-3.0114 -5.3261 -2.0338 0.9745
-2.5146 -5.5779 -2.0338 0.9745
-1.9971 -5.7834 -2.0338 0.9745
-1.4630 -5.9411 -2.0338 0.9745
-0.9168 -6.0495 -2.0338 0.9745
-5.6789 -0.3109 -2.0338 0.9761
-5.6271 -0.8260 -2.0338 0.9761
-5.5286 -1.3342 -2.0338 0.9761
-5.3844 -1.8313 -2.0338 0.9761
-5.1956 -2.3133 -2.0338 0.9761
-4.9637 -2.7761 -2.0338 0.9761
-4.3790 -3.6291 -2.0338 0.9761
-4.0309 -4.0122 -2.0338 0.9761
-3.6494 -4.3620 -2.0338 0.9761
-3.2377 -4.6758 -2.0338 0.9761
-2.7991 -4.9508 -2.0338 0.9761
-2.3374 -5.1848 -2.0338 0.9761
-1.8563 -5.3759 -2.0338 0.9761
-0.8522 -5.6232 -2.0338 0.9761
-0.3373 -5.6773 -2.0338 0.9761
-5.1591 -1.2450 -2.0338 0.9775
-4.6320 -2.5905 -2.0338 0.9775
-4.0864 -3.3865 -2.0338 0.9775
-3.7615 -3.7440 -2.0338 0.9775
-3.4055 -4.0705 -2.0338 0.9775
-2.1812 -4.8383 -2.0338 0.9775
-1.7323 -5.0166 -2.0338 0.9775
-1.2690 -5.1533 -2.0338 0.9775
-0.7952 -5.2474 -2.0338 0.9775
-0.3148 -5.2979 -2.0338 0.9775
0.1682 -5.3046 -2.0338 0.9775
-4.7047 -1.6001 -2.0338 0.9788
-4.5397 -2.0212 -2.0338 0.9788
-3.8262 -3.1709 -2.0338 0.9788
-3.5221 -3.5057 -2.0338 0.9788
-3.1887 -3.8114 -2.0338 0.9788
-2.8290 -4.0855 -2.0338 0.9788
-1.1882 -4.8252 -2.0338 0.9788
0.1575 -4.9669 -2.0338 0.9788
-1.9177 -0.1050 -0.8370 0.9917
-1.9036 -0.2795 -0.8385 0.9916
-4.0730 -2.2779 -2.0338 0.9798
-3.8490 -2.6388 -2.0338 0.9798
-3.5932 -2.9778 -2.0338 0.9798
-3.3076 -3.2922 -2.0338 0.9798
-2.9945 -3.5793 -2.0338 0.9798
-1.9180 -4.2544 -2.0338 0.9798
-1.1159 -4.5314 -2.0338 0.9798
-0.6992 -4.6141 -2.0338 0.9798
0.1479 -4.6644 -2.0338 0.9798
-1.5945 -0.0873 -0.7392 0.9930
-1.5806 -0.3815 -0.7526 0.9929
-3.8348 -2.1447 -2.0338 0.9808
-3.6239 -2.4845 -2.0338 0.9808
-2.8194 -3.3700 -2.0338 0.9808
-2.1626 -3.8248 -2.0338 0.9808
0.1392 -4.3917 -2.0339 0.9808
-1.3487 -0.1980 -0.6687 0.9939
-3.7878 -1.6865 -2.0338 0.9817
-3.1924 -2.6457 -2.0338 0.9817
-2.6606 -3.1801 -2.0338 0.9817
-1.7041 -3.7799 -2.0338 0.9817
0.1314 -4.1443 -2.0339 0.9817
-3.2335 -2.2168 -2.0338 0.9825
-2.7786 -2.7657 -2.0338 0.9825
-2.5157 -3.0069 -2.0338 0.9825
-2.2319 -3.2232 -2.0338 0.9825
-1.9295 -3.4128 -2.0338 0.9825
-0.9374 -3.8068 -2.0338 0.9825
-0.5874 -3.8762 -2.0339 0.9825
-0.2326 -3.9136 -2.0339 0.9825
0.1242 -3.9185 -2.0339 0.9825
-1.0726 -0.1575 -0.5938 0.9951
-1.0283 -0.3498 -0.5949 0.9951
-0.9988 -0.4447 -0.5988 0.9950
-2.8592 -2.3695 -2.0338 0.9832
-2.6319 -2.6197 -2.0338 0.9832
-2.3828 -2.8481 -2.0338 0.9832
-0.5564 -3.6715 -2.0339 0.9832
-0.2203 -3.7069 -2.0339 0.9832
-0.9658 -0.2331 -0.5736 0.9954
-2.9055 -1.9919 -2.0339 0.9839
-2.7123 -2.2479 -2.0339 0.9839
-2.4967 -2.4851 -2.0339 0.9839
-2.2604 -2.7019 -2.0339 0.9839
-2.0054 -2.8962 -2.0339 0.9839
-1.4478 -3.2115 -2.0339 0.9839
-0.8423 -3.4206 -2.0339 0.9839
