ply
format ascii 1.0
element vertex 171
property float32 x
property float32 y
property float32 z
property float32 I
end_header
-16.4207 6.0605 -1.2834 0.9322
-17.6795 4.7647 -1.3426 0.9292
-16.2453 5.9958 -1.6625 0.9328
-11.4612 -8.5321 -1.3717 0.9442
-16.5318 4.4554 -2.0338 0.9334
-16.8661 2.9461 -2.0338 0.9334
-17.0388 -1.6755 -2.0337 0.9334
-15.9684 -6.1747 -2.0337 0.9334
-12.8375 -7.8639 -1.7883 0.9412
-12.7548 -11.4202 -2.0337 0.9334
-10.4956 -13.5259 -2.0337 0.9334
-9.2329 -14.4174 -2.0337 0.9334
-12.9633 6.1645 -2.0339 0.9437
-13.4663 4.9701 -2.0338 0.9437
-14.3049 1.1845 -2.0338 0.9437
-14.0997 -2.6874 -2.0337 0.9437
-13.3874 -5.1767 -2.0337 0.9437
-11.5134 -8.5709 -2.0337 0.9437
-10.6933 -9.5744 -2.0337 0.9437
-9.7862 -10.4999 -2.0337 0.9437
-11.1495 5.3020 -2.0339 0.9512
-12.1616 2.1243 -2.0338 0.9512
-12.3452 -0.0951 -2.0338 0.9512
-12.2862 -1.2082 -2.0338 0.9512
-11.0659 -5.4728 -2.0337 0.9512
-9.9025 -7.3718 -2.0337 0.9512
-8.4170 -9.0309 -2.0337 0.9512
-7.5682 -9.7532 -2.0337 0.9512
-6.6576 -10.3961 -2.0337 0.9512
-10.7835 0.8929 -2.0338 0.9569
-10.8200 -0.0834 -2.0338 0.9569
-10.6289 -2.0259 -2.0338 0.9569
-10.0920 -3.9024 -2.0338 0.9569
-9.2266 -5.6520 -2.0338 0.9569
-7.3772 -7.9153 -2.0337 0.9569
-5.8352 -9.1118 -2.0337 0.9569
-9.0267 3.3315 -2.0339 0.9614
-9.2903 2.5038 -2.0338 0.9614
-9.5889 0.7940 -2.0338 0.9614
-9.4514 -1.8014 -2.0338 0.9614
-7.7177 -5.7453 -2.0338 0.9614
-7.1680 -6.4180 -2.0338 0.9614
-6.5599 -7.0383 -2.0338 0.9614
-5.8984 -7.6013 -2.0338 0.9614
-5.1887 -8.1024 -2.0338 0.9614
-7.8153 3.7164 -2.0339 0.9651
-8.1186 2.9964 -2.0339 0.9651
-8.6243 0.7141 -2.0338 0.9651
-8.6121 -0.8469 -2.0338 0.9651
-8.5006 -1.6202 -2.0338 0.9651
-7.3791 -4.5203 -2.0338 0.9651
-6.9413 -5.1674 -2.0338 0.9651
-7.0940 3.3735 -2.0339 0.9681
-7.8549 -0.0605 -2.0338 0.9681
-7.8173 -0.7687 -2.0338 0.9681
-7.7161 -1.4707 -2.0338 0.9681
-7.3263 -2.8330 -2.0338 0.9681
-7.0410 -3.4823 -2.0338 0.9681
-6.6982 -4.1031 -2.0338 0.9681
-6.3008 -4.6905 -2.0338 0.9681
-5.3556 -5.7462 -2.0338 0.9681
-6.4882 3.0854 -2.0339 0.9706
-6.7400 2.4876 -2.0339 0.9706
-6.9369 1.8695 -2.0339 0.9706
-7.1841 -0.0554 -2.0338 0.9706
-7.1498 -0.7031 -2.0338 0.9706
-6.9071 -1.9762 -2.0338 0.9706
-6.7007 -2.5911 -2.0338 0.9706
-5.7627 -4.2900 -2.0338 0.9706
-4.4043 -5.6759 -2.0338 0.9706
-3.8744 -6.0500 -2.0338 0.9706
-5.9717 2.8398 -2.0339 0.9727
-6.3847 1.7207 -2.0339 0.9727
-6.5899 0.5457 -2.0338 0.9727
-6.5807 -0.6471 -2.0338 0.9727
-6.4955 -1.2380 -2.0338 0.9727
-6.3573 -1.8188 -2.0338 0.9727
-6.1673 -2.3848 -2.0338 0.9727
-5.6385 -3.4540 -2.0338 0.9727
-4.9263 -4.4108 -2.0338 0.9727
-4.0537 -5.2241 -2.0338 0.9727
-5.5257 2.6277 -2.0339 0.9745
-5.7402 2.1186 -2.0339 0.9745
-5.9079 1.5922 -2.0339 0.9745
-6.0273 1.0528 -2.0339 0.9745
-6.0977 0.5049 -2.0339 0.9745
-6.1183 -0.0471 -2.0338 0.9745
-6.0104 -1.1456 -2.0338 0.9745
-5.7067 -2.2067 -2.0338 0.9745
-5.2174 -3.1961 -2.0338 0.9745
-4.5583 -4.0813 -2.0338 0.9745
-3.7509 -4.8339 -2.0338 0.9745
-3.2997 -5.1525 -2.0338 0.9745
-5.1363 2.4425 -2.0339 0.9761
-5.3357 1.9693 -2.0339 0.9761
-5.6680 0.4693 -2.0339 0.9761
-5.4679 -1.5644 -2.0338 0.9761
-4.2371 -3.7937 -2.0338 0.9761
-3.4866 -4.4932 -2.0338 0.9761
-4.9791 1.8377 -2.0339 0.9775
-5.1245 1.3811 -2.0339 0.9775
-5.2818 -0.5194 -2.0338 0.9775
-5.1025 -1.4598 -2.0338 0.9775
-4.7572 -2.3528 -2.0338 0.9775
-4.5256 -2.7723 -2.0338 0.9775
-4.2571 -3.1692 -2.0338 0.9775
-3.9539 -3.5402 -2.0338 0.9775
-2.8621 -4.4693 -2.0338 0.9775
-4.4879 2.1341 -2.0339 0.9788
-4.7982 1.2931 -2.0339 0.9788
-2.1182 0.1754 -0.8699 0.9909
-2.1217 -0.0164 -0.8684 0.9909
-2.1210 -0.4043 -0.8837 0.9907
-4.6349 -1.7923 -2.0338 0.9788
-3.7022 -3.3148 -2.0338 0.9788
-3.3882 -3.6352 -2.0338 0.9788
-3.0465 -3.9260 -2.0338 0.9788
-4.2145 2.0042 -2.0339 0.9798
-1.9183 -0.0148 -0.8361 0.9917
-1.9111 -0.1880 -0.8369 0.9917
-2.0167 -0.5770 -0.9142 0.9909
-4.3527 -1.6831 -2.0338 0.9798
-3.9794 -2.4377 -2.0338 0.9798
-3.1818 -3.4139 -2.0338 0.9798
-3.9681 1.8870 -2.0339 0.9808
-1.5703 -0.0121 -0.7269 0.9931
-1.6043 -0.3058 -0.7560 0.9928
-4.0981 -1.5847 -2.0338 0.9808
-3.9385 -1.9479 -2.0338 0.9808
-2.9957 -3.2142 -2.0338 0.9808
-2.6936 -3.4713 -2.0338 0.9808
-1.3089 0.3527 -0.6650 0.9940
-1.3531 0.1120 -0.6660 0.9940
-1.3369 -0.2548 -0.6676 0.9940
-1.2559 -0.4857 -0.6605 0.9940
-3.7166 -1.8381 -2.0338 0.9817
-3.5356 -2.1658 -2.0338 0.9817
-3.0889 -2.7658 -2.0338 0.9817
-2.8270 -3.0331 -2.0338 0.9817
-2.5419 -3.2757 -2.0338 0.9817
-2.2361 -3.4917 -2.0338 0.9817
-1.2004 0.0994 -0.6249 0.9946
-1.1932 -0.0092 -0.6190 0.9946
-1.2003 -0.1181 -0.6257 0.9946
-1.1252 -0.4351 -0.6259 0.9946
-3.1447 -2.3411 -2.0338 0.9825
-2.9207 -2.6151 -2.0338 0.9825
-2.4034 -3.0973 -2.0338 0.9825
-0.9900 0.4708 -0.6004 0.9950
-1.0215 0.3770 -0.5964 0.9950
-1.0396 0.2801 -0.5897 0.9951
-1.0805 0.0894 -0.5938 0.9951
-1.0769 -0.0083 -0.5898 0.9951
-1.0793 -0.1062 -0.5940 0.9951
-1.0626 -0.2026 -0.5925 0.9951
-1.0376 -0.2969 -0.5911 0.9951
-0.9842 -0.4868 -0.6014 0.9950
-3.1665 -1.9397 -2.0339 0.9832
-2.9786 -2.2174 -2.0338 0.9832
-2.7665 -2.4771 -2.0338 0.9832
-2.2765 -2.9338 -2.0338 0.9832
-0.9448 0.3487 -0.5814 0.9954
-0.9793 0.1710 -0.5740 0.9954
-0.9893 -0.0077 -0.5712 0.9954
-0.9881 -0.0972 -0.5732 0.9954
-0.9579 -0.2741 -0.5752 0.9954
-0.9141 -0.4521 -0.5887 0.9953
-3.0039 -1.8401 -2.0339 0.9839
-2.4018 -2.5770 -2.0339 0.9839
-2.1596 -2.7831 -2.0339 0.9839
-1.8998 -2.9666 -2.0339 0.9839
