ply
format ascii 1.0
element vertex 200
property float32 x
property float32 y
property float32 z
property float32 I
end_header
2.1944 18.4378 3.2740 0.9274
2.1020 17.6613 2.7247 0.9306
4.0085 18.9389 2.5209 0.9249
2.1873 18.3790 1.9875 0.9282
2.1021 17.6626 1.1030 0.9312
3.8363 18.1257 0.7305 0.9285
2.1517 18.0802 0.7180 0.9297
3.8234 18.0649 0.3119 0.9288
2.2038 18.5175 0.3150 0.9281
2.1928 18.4249 -0.5225 0.9284
14.9573 9.1947 -0.8904 0.9321
14.1988 8.7285 -1.2221 0.9353
14.3825 8.8414 -1.6208 0.9344
15.3361 7.6186 -2.0341 0.9333
13.7221 10.2444 -2.0341 0.9333
12.7445 11.4378 -2.0341 0.9333
9.2270 14.4260 -2.0341 0.9333
7.8913 15.1978 -2.0341 0.9333
6.4916 15.8462 -2.0341 0.9333
5.0391 16.3661 -2.0341 0.9333
3.5458 16.7531 -2.0341 0.9333
2.0237 17.0041 -2.0341 0.9333
0.4852 17.1171 -2.0341 0.9333
-1.0571 17.0912 -2.0341 0.9333
14.0954 2.7213 -2.0341 0.9437
13.7934 3.9788 -2.0341 0.9437
13.3794 5.2040 -2.0341 0.9437
12.2300 7.5181 -2.0341 0.9437
11.5037 8.5882 -2.0341 0.9437
10.6842 9.5887 -2.0341 0.9437
9.7780 10.5113 -2.0341 0.9437
8.7923 11.3487 -2.0341 0.9437
6.6156 12.7409 -2.0341 0.9437
4.2245 13.7203 -2.0341 0.9437
2.9726 14.0448 -2.0341 0.9437
1.6966 14.2553 -2.0341 0.9437
0.4068 14.3500 -2.0341 0.9437
-0.8862 14.3283 -2.0341 0.9437
9.8941 7.3865 -2.0341 0.9512
7.5621 9.7606 -2.0341 0.9512
4.6806 11.4256 -2.0341 0.9512
3.6334 11.8005 -2.0341 0.9512
1.4591 12.2605 -2.0340 0.9512
0.3499 12.3421 -2.0340 0.9512
10.7668 1.0868 -2.0340 0.9569
10.0855 3.9228 -2.0340 0.9569
9.2190 5.6672 -2.0340 0.9569
8.6716 6.4739 -2.0340 0.9569
4.9869 9.6042 -2.0341 0.9569
4.1023 10.0139 -2.0340 0.9569
1.2789 10.7457 -2.0340 0.9569
9.4480 1.8241 -2.0340 0.9614
8.6178 4.2811 -2.0340 0.9614
6.5540 7.0456 -2.0340 0.9614
5.8934 7.6068 -2.0340 0.9614
5.1848 8.1063 -2.0340 0.9614
4.4343 8.5400 -2.0340 0.9614
0.2727 9.6187 -2.0340 0.9614
8.6107 0.8692 -2.0340 0.9651
8.4975 1.6405 -2.0340 0.9651
8.3154 2.3986 -2.0340 0.9651
8.0658 3.1372 -2.0340 0.9651
7.7508 3.8504 -2.0340 0.9651
6.9351 5.1774 -2.0340 0.9651
6.4410 5.7805 -2.0340 0.9651
5.8946 6.3367 -2.0340 0.9651
5.3004 6.8415 -2.0340 0.9651
4.6633 7.2908 -2.0340 0.9651
3.9882 7.6809 -2.0340 0.9651
2.5467 8.2713 -2.0340 0.9651
1.0228 8.5938 -2.0340 0.9651
-0.4712 7.6185 -1.7940 0.9691
7.7133 1.4892 -2.0340 0.9681
7.3214 2.8477 -2.0340 0.9681
6.6924 4.1140 -2.0340 0.9681
6.2950 4.6996 -2.0340 0.9681
5.8465 5.2471 -2.0340 0.9681
4.8113 6.2101 -2.0340 0.9681
6.9034 1.9913 -2.0340 0.9706
6.6962 2.6045 -2.0340 0.9706
6.4346 3.1966 -2.0340 0.9706
6.1209 3.7627 -2.0340 0.9706
4.8937 5.2607 -2.0340 0.9706
3.3110 6.3766 -2.0340 0.9706
0.8491 7.1345 -2.0340 0.9706
0.2036 7.1820 -2.0340 0.9706
6.5794 0.6641 -2.0340 0.9727
6.4930 1.2535 -2.0340 0.9727
5.9224 2.9421 -2.0340 0.9727
4.9216 4.4169 -2.0340 0.9727
4.5041 4.8419 -2.0340 0.9727
3.5632 5.5709 -2.0340 0.9727
1.3693 6.4696 -2.0340 0.9727
-0.4082 6.6002 -2.0340 0.9727
6.0880 0.6145 -2.0340 0.9745
5.7028 2.2181 -2.0340 0.9745
5.2128 3.2045 -2.0340 0.9745
3.7475 4.8371 -2.0340 0.9745
3.2970 5.1548 -2.0340 0.9745
2.8197 5.4305 -2.0340 0.9745
1.8006 5.8480 -2.0340 0.9745
1.2670 5.9863 -2.0340 0.9745
0.7231 6.0761 -2.0340 0.9745
-0.3778 6.1072 -2.0340 0.9745
5.6590 0.5712 -2.0340 0.9761
5.3009 2.0618 -2.0340 0.9761
5.0938 2.5305 -2.0340 0.9761
4.5577 3.4026 -2.0340 0.9761
4.2330 3.7989 -2.0340 0.9761
3.8739 4.1645 -2.0340 0.9761
3.4834 4.4962 -2.0340 0.9761
1.6737 5.4359 -2.0340 0.9761
1.1777 5.5645 -2.0340 0.9761
0.6722 5.6478 -2.0340 0.9761
5.2113 1.0061 -2.0340 0.9775
5.0996 1.4710 -2.0340 0.9775
4.2531 3.1752 -2.0340 0.9775
3.9501 3.5450 -2.0340 0.9775
3.6150 3.8862 -2.0340 0.9775
3.2507 4.1957 -2.0340 0.9775
2.8598 4.4712 -2.0340 0.9775
2.4458 4.7104 -2.0340 0.9775
1.5618 5.0726 -2.0340 0.9775
1.0990 5.1925 -2.0340 0.9775
-0.3277 5.2974 -2.0340 0.9775
4.7750 1.3774 -2.0340 0.9787
4.2337 2.6026 -2.0340 0.9787
3.9823 2.9730 -2.0340 0.9787
3.6986 3.3194 -2.0340 0.9787
1.8839 4.5988 -2.0340 0.9787
1.4624 4.7496 -2.0340 0.9787
1.0291 4.8619 -2.0340 0.9787
0.5873 4.9348 -2.0340 0.9787
-0.3068 4.9602 -2.0340 0.9788
4.6434 0.4687 -2.0339 0.9798
4.5824 0.8847 -2.0339 0.9798
4.4842 1.2935 -2.0340 0.9798
4.3496 1.6918 -2.0340 0.9798
4.1797 2.0763 -2.0340 0.9798
3.9759 2.4441 -2.0340 0.9798
3.7398 2.7920 -2.0340 0.9798
3.4733 3.1172 -2.0340 0.9798
1.7691 4.3187 -2.0340 0.9798
0.9664 4.5659 -2.0340 0.9798
0.5516 4.6343 -2.0340 0.9798
-0.2881 4.6581 -2.0340 0.9798
4.3718 0.4413 -2.0339 0.9808
4.3144 0.8329 -2.0339 0.9808
4.2220 1.2178 -2.0340 0.9808
3.5211 2.6287 -2.0340 0.9808
2.9929 3.2173 -2.0340 0.9808
2.6911 3.4736 -2.0340 0.9808
2.0249 3.8997 -2.0340 0.9808
1.2930 4.1995 -2.0340 0.9808
4.0713 0.7860 -2.0339 0.9817
3.9840 1.1492 -2.0339 0.9817
3.3227 2.4806 -2.0340 0.9817
2.5395 3.2779 -2.0340 0.9817
2.2342 3.4931 -2.0340 0.9817
1.5718 3.8370 -2.0340 0.9817
1.2202 3.9629 -2.0340 0.9817
0.1175 4.1448 -2.0339 0.9817
-0.2560 4.1386 -2.0339 0.9817
2.1055 0.4065 -1.1124 0.9904
3.7671 1.0866 -2.0339 0.9825
3.6539 1.4212 -2.0339 0.9825
3.1417 2.3455 -2.0340 0.9825
2.9179 2.6187 -2.0340 0.9825
2.6704 2.8707 -2.0340 0.9825
2.4012 3.0993 -2.0340 0.9825
2.1125 3.3028 -2.0340 0.9825
1.8067 3.4795 -2.0340 0.9825
1.1537 3.7470 -2.0340 0.9825
0.8118 3.8357 -2.0340 0.9825
0.1111 3.9191 -2.0339 0.9825
-0.2420 3.9131 -2.0339 0.9825
1.8490 0.1866 -1.0179 0.9916
1.8554 0.3582 -1.0349 0.9914
1.8702 0.5394 -1.0660 0.9912
3.3258 1.6522 -2.0339 0.9832
3.1636 1.9448 -2.0339 0.9832
2.5293 2.7190 -2.0340 0.9832
2.0010 3.1284 -2.0340 0.9832
1.7113 3.2958 -2.0340 0.9832
1.4078 3.4364 -2.0340 0.9832
0.7689 3.6331 -2.0339 0.9832
0.4389 3.6876 -2.0339 0.9832
-0.2293 3.7065 -2.0339 0.9832
1.7199 0.1736 -0.9980 0.9920
1.7136 0.4943 -1.0297 0.9918
1.7273 0.6718 -1.0700 0.9915
2.8230 2.1075 -2.0339 0.9839
2.6219 2.3530 -2.0339 0.9839
2.1576 2.7849 -2.0340 0.9839
1.8982 2.9677 -2.0340 0.9839
1.6234 3.1266 -2.0339 0.9839
1.0367 3.3669 -2.0339 0.9839
0.7295 3.4465 -2.0339 0.9839
0.4163 3.4982 -2.0339 0.9839
-0.2175 3.5162 -2.0339 0.9839
