ply
format ascii 1.0
element vertex 172
property float32 x
property float32 y
property float32 z
property float32 I
end_header
16.4588 -4.4452 -1.2500 0.9339
2.5685 -6.1430 -0.6392 0.9736
16.3330 -4.4113 -1.6242 0.9343
3.6333 -16.7311 -2.0337 0.9334
3.1591 -5.9638 -0.8017 0.9732
10.6234 -13.4277 -2.0338 0.9334
13.8538 -10.0624 -2.0339 0.9334
14.7119 -8.7604 -2.0339 0.9334
15.4480 -7.3858 -2.0340 0.9334
17.1229 0.1627 -2.0340 0.9333
1.7574 -14.2456 -2.0338 0.9437
2.5028 -5.9858 -0.9193 0.9741
8.9062 -11.2572 -2.0339 0.9437
9.8935 -10.4004 -2.0339 0.9437
11.6144 -8.4359 -2.0339 0.9437
13.8586 -3.7430 -2.0340 0.9437
14.1418 -2.4667 -2.0340 0.9437
14.3077 -1.1700 -2.0340 0.9437
1.8799 -5.9726 -1.0315 0.9749
2.4202 -5.7883 -1.0336 0.9749
3.1460 -5.9392 -1.1072 0.9731
6.7475 -10.3388 -2.0338 0.9512
7.6601 -9.6822 -2.0339 0.9512
9.2878 -8.1341 -2.0339 0.9512
9.9893 -7.2555 -2.0339 0.9512
11.1388 -5.3256 -2.0339 0.9512
11.9195 -3.2193 -2.0340 0.9512
12.1630 -2.1216 -2.0340 0.9512
12.3463 0.1173 -2.0340 0.9512
1.3248 -10.7389 -2.0338 0.9569
1.8586 -5.9050 -1.1636 0.9751
2.4519 -5.8640 -1.1947 0.9745
7.4580 -7.8401 -2.0339 0.9569
8.1404 -7.1292 -2.0339 0.9569
9.7626 -4.6676 -2.0339 0.9569
10.1468 -3.7602 -2.0339 0.9569
10.8209 0.1029 -2.0340 0.9569
1.3778 -6.3447 -1.3724 0.9738
1.8685 -5.9366 -1.3156 0.9749
2.4466 -5.8513 -1.3406 0.9744
2.9890 -5.6428 -1.3498 0.9742
5.2587 -8.0577 -2.0339 0.9614
7.7852 -5.6546 -2.0339 0.9614
8.6809 -4.1505 -2.0339 0.9614
9.2895 -2.5089 -2.0340 0.9614
9.4792 -1.6534 -2.0340 0.9614
9.5904 -0.7843 -2.0340 0.9614
1.0595 -8.5886 -2.0338 0.9651
2.3725 -5.6740 -1.4454 0.9750
5.3694 -6.7867 -2.0339 0.9651
5.9645 -6.2702 -2.0339 0.9651
6.5102 -5.7016 -2.0339 0.9651
7.0020 -5.0858 -2.0339 0.9651
7.8077 -3.7329 -2.0339 0.9651
8.3549 -2.2565 -2.0339 0.9651
8.5256 -1.4871 -2.0340 0.9651
8.6256 -0.7054 -2.0340 0.9651
8.6540 0.0823 -2.0340 0.9651
0.9617 -7.7960 -2.0338 0.9681
1.8434 -5.8568 -1.5898 0.9749
2.4967 -5.9712 -1.6757 0.9736
3.0829 -5.8200 -1.7053 0.9732
4.8739 -6.1604 -2.0339 0.9681
5.4141 -5.6915 -2.0339 0.9681
5.9095 -5.1754 -2.0339 0.9681
6.7495 -4.0191 -2.0339 0.9681
7.0871 -3.3884 -2.0339 0.9681
1.8414 -5.8504 -1.7363 0.9748
2.5616 -6.1264 -1.8798 0.9728
3.3059 -6.2410 -1.9993 0.9711
3.9266 -6.0165 -2.0339 0.9706
4.9518 -5.2055 -2.0339 0.9706
5.8130 -4.2222 -2.0339 0.9706
6.1730 -3.6759 -2.0339 0.9706
6.9362 -1.8734 -2.0339 0.9706
7.0779 -1.2346 -2.0339 0.9706
7.1609 -0.5856 -2.0340 0.9706
7.1845 0.0683 -2.0340 0.9706
1.4032 -6.4618 -2.0338 0.9727
2.5508 -6.1007 -2.0339 0.9727
4.5576 -4.7911 -2.0339 0.9727
6.2007 -2.2978 -2.0339 0.9727
6.5145 -1.1363 -2.0339 0.9727
6.6125 0.0629 -2.0340 0.9727
1.2984 -5.9792 -2.0338 0.9745
3.7964 -4.7985 -2.0339 0.9745
4.9507 -3.5958 -2.0339 0.9745
5.2573 -3.1306 -2.0339 0.9745
5.5204 -2.6393 -2.0339 0.9745
5.7375 -2.1262 -2.0339 0.9745
5.9072 -1.5954 -2.0339 0.9745
6.0986 -0.4987 -2.0339 0.9745
0.6963 -5.6446 -2.0338 0.9761
2.1940 -5.2472 -2.0339 0.9761
3.1084 -4.7629 -2.0339 0.9761
3.5288 -4.4604 -2.0339 0.9761
4.6018 -3.3424 -2.0339 0.9761
4.8868 -2.9099 -2.0339 0.9761
5.1313 -2.4533 -2.0339 0.9761
5.3332 -1.9763 -2.0339 0.9761
5.4909 -1.4830 -2.0339 0.9761
5.6030 -0.9773 -2.0339 0.9761
5.6875 0.0540 -2.0339 0.9761
0.6498 -5.2674 -2.0338 0.9775
1.1263 -5.1864 -2.0339 0.9775
3.2930 -4.1623 -2.0339 0.9775
3.6580 -3.8454 -2.0339 0.9775
4.2942 -3.1190 -2.0339 0.9775
4.7884 -2.2894 -2.0339 0.9775
4.9768 -1.8443 -2.0339 0.9775
5.1239 -1.3839 -2.0339 0.9775
5.3073 0.0504 -2.0339 0.9775
0.6084 -4.9320 -2.0339 0.9788
1.9170 -4.5848 -2.0339 0.9788
3.0833 -3.8973 -2.0339 0.9788
4.7977 -1.2958 -2.0339 0.9788
4.8957 -0.8540 -2.0339 0.9788
4.9694 0.0472 -2.0339 0.9788
0.5714 -4.6317 -2.0339 0.9798
0.9904 -4.5605 -2.0339 0.9798
1.4011 -4.4515 -2.0339 0.9798
1.8003 -4.3056 -2.0339 0.9798
2.1845 -4.1240 -2.0339 0.9798
2.5506 -3.9082 -2.0339 0.9798
3.7760 -2.7426 -2.0339 0.9798
4.0099 -2.3877 -2.0339 0.9798
4.2104 -2.0131 -2.0339 0.9798
4.3761 -1.6217 -2.0339 0.9798
4.6514 -0.3804 -2.0339 0.9798
0.5380 -4.3608 -2.0339 0.9808
1.6950 -4.0538 -2.0339 0.9808
2.0568 -3.8828 -2.0339 0.9808
3.3055 -2.8949 -2.0339 0.9808
3.5552 -2.5822 -2.0339 0.9808
4.1202 -1.5269 -2.0339 0.9808
1.5995 -3.8254 -2.0339 0.9817
1.9409 -3.6641 -2.0339 0.9817
2.2662 -3.4723 -2.0339 0.9817
2.5727 -3.2518 -2.0339 0.9817
2.8578 -3.0042 -2.0339 0.9817
3.5626 -2.1214 -2.0339 0.9817
3.7409 -1.7885 -2.0339 0.9817
0.4800 -3.8910 -2.0339 0.9825
0.8320 -3.8312 -2.0339 0.9825
1.5124 -3.6171 -2.0339 0.9825
1.8351 -3.4645 -2.0339 0.9825
2.7022 -2.8406 -2.0339 0.9825
3.1721 -2.3040 -2.0339 0.9825
3.3686 -2.0059 -2.0339 0.9825
3.5371 -1.6911 -2.0339 0.9825
3.6763 -1.3623 -2.0339 0.9825
2.1031 -0.3669 -1.1075 0.9904
0.4546 -3.6855 -2.0339 0.9832
1.1149 -3.5421 -2.0339 0.9832
1.4325 -3.4261 -2.0339 0.9832
2.0296 -3.1098 -2.0339 0.9832
2.5595 -2.6906 -2.0339 0.9832
2.7936 -2.4466 -2.0339 0.9832
3.1907 -1.8999 -2.0339 0.9832
3.3503 -1.6018 -2.0339 0.9832
1.8624 -0.5030 -1.0566 0.9912
1.8529 -0.3232 -1.0301 0.9915
1.8512 -0.1514 -1.0173 0.9916
0.7476 -3.4425 -2.0339 0.9839
2.1858 -2.7627 -2.0339 0.9839
2.4280 -2.5524 -2.0339 0.9839
2.6502 -2.3210 -2.0339 0.9839
3.0269 -1.8024 -2.0339 0.9839
3.1783 -1.5196 -2.0339 0.9839
1.7201 -0.6374 -1.0591 0.9916
1.7123 -0.4625 -1.0240 0.9918
1.7246 0.0164 -0.9958 0.9921
