ply
format ascii 1.0
element vertex 192
property float32 x
property float32 y
property float32 z
property float32 I
end_header
14.6711 8.7652 -1.2531 0.9338
16.1288 -4.2695 -1.6018 0.9352
14.7413 8.8072 -1.6486 0.9333
13.1937 9.5620 -1.5643 0.9366
17.0666 -1.3956 -2.0340 0.9333
16.8343 3.1361 -2.0341 0.9333
16.4909 4.6132 -2.0341 0.9333
14.7004 8.7828 -2.0341 0.9333
13.2727 9.6192 -1.9471 0.9361
11.8776 12.3357 -2.0341 0.9333
9.5174 14.2361 -2.0341 0.9333
13.4977 -4.8868 -2.0340 0.9437
14.1479 -2.4313 -2.0340 0.9437
14.3077 -1.1700 -2.0340 0.9437
14.2901 1.3701 -2.0340 0.9437
14.1129 2.6291 -2.0341 0.9437
13.8250 3.8675 -2.0341 0.9437
13.4288 5.0755 -2.0341 0.9437
12.3240 7.3630 -2.0341 0.9437
10.8333 9.4199 -2.0341 0.9437
7.9788 11.9346 -2.0341 0.9437
6.8916 12.5937 -2.0341 0.9437
11.6091 -4.2030 -2.0340 0.9512
11.9355 -3.1595 -2.0340 0.9512
12.1683 -2.0911 -2.0340 0.9512
12.3057 -1.0063 -2.0340 0.9512
12.1381 2.2612 -2.0340 0.9512
11.8905 3.3263 -2.0340 0.9512
11.5497 4.3653 -2.0340 0.9512
11.1182 5.3700 -2.0341 0.9512
10.5995 6.3327 -2.0341 0.9512
9.9977 7.2456 -2.0341 0.9512
9.3174 8.1018 -2.0341 0.9512
8.5641 8.8944 -2.0341 0.9512
7.7436 9.6172 -2.0341 0.9512
5.9273 10.8315 -2.0341 0.9512
10.1748 -3.6837 -2.0339 0.9569
10.6649 -1.8328 -2.0340 0.9569
10.7854 -0.8820 -2.0340 0.9569
10.7721 1.0329 -2.0340 0.9569
10.4214 2.9153 -2.0340 0.9569
10.1227 3.8259 -2.0340 0.9569
9.7445 4.7065 -2.0340 0.9569
8.1663 7.1008 -2.0340 0.9569
6.7868 8.4290 -2.0341 0.9569
6.0145 8.9964 -2.0341 0.9569
5.1949 9.4932 -2.0341 0.9569
9.5904 -0.7843 -2.0340 0.9614
9.5786 0.9184 -2.0340 0.9614
9.4597 1.7623 -2.0340 0.9614
9.2668 2.5923 -2.0340 0.9614
8.6648 4.1851 -2.0340 0.9614
8.2606 4.9353 -2.0340 0.9614
7.2614 6.3140 -2.0340 0.9614
6.6743 6.9317 -2.0340 0.9614
8.3661 -2.2146 -2.0339 0.9651
8.6256 -0.7054 -2.0340 0.9651
8.6149 0.8260 -2.0340 0.9651
8.5081 1.5850 -2.0340 0.9651
8.0956 3.0598 -2.0340 0.9651
7.7931 3.7640 -2.0340 0.9651
6.5309 5.6788 -2.0340 0.9651
6.0029 6.2344 -2.0340 0.9651
7.3864 -2.6742 -2.0339 0.9681
7.5940 -2.0102 -2.0339 0.9681
7.8555 0.0550 -2.0340 0.9681
7.5653 2.1163 -2.0340 0.9681
7.0739 3.4167 -2.0340 0.9681
4.9268 6.1189 -2.0340 0.9681
3.7712 6.8914 -2.0340 0.9681
6.7556 -2.4458 -2.0339 0.9706
6.9455 -1.8386 -2.0339 0.9706
7.0810 -1.2168 -2.0339 0.9706
7.1609 -0.5856 -2.0340 0.9706
7.1846 0.0503 -2.0340 0.9706
6.7209 2.5402 -2.0340 0.9706
6.4698 3.1249 -2.0340 0.9706
6.1680 3.6850 -2.0340 0.9706
5.8177 4.2163 -2.0340 0.9706
5.4218 4.7145 -2.0340 0.9706
4.5060 5.5963 -2.0340 0.9706
6.5172 -1.1200 -2.0339 0.9727
6.5908 -0.5390 -2.0340 0.9727
6.6127 0.0463 -2.0340 0.9727
6.5010 1.2111 -2.0340 0.9727
5.9547 2.8761 -2.0340 0.9727
5.6769 3.3916 -2.0340 0.9727
5.3546 3.8806 -2.0340 0.9727
4.5868 4.7637 -2.0340 0.9727
3.6753 5.4975 -2.0340 0.9727
5.7534 -2.0830 -2.0339 0.9745
6.0986 -0.4987 -2.0339 0.9745
6.1188 0.0428 -2.0340 0.9745
6.0910 0.5840 -2.0340 0.9745
5.5100 2.6613 -2.0340 0.9745
4.9546 3.5908 -2.0340 0.9745
4.2441 4.4078 -2.0340 0.9745
3.8375 4.7661 -2.0340 0.9745
3.4008 5.0869 -2.0340 0.9745
2.9374 5.3679 -2.0340 0.9745
5.3479 -1.9362 -2.0339 0.9761
5.4982 -1.4554 -2.0339 0.9761
5.6055 -0.9633 -2.0339 0.9761
5.6618 0.5428 -2.0340 0.9761
5.3204 2.0109 -2.0340 0.9761
5.1216 2.4737 -2.0340 0.9761
4.8827 2.9171 -2.0340 0.9761
4.6054 3.3377 -2.0340 0.9761
4.2921 3.7321 -2.0340 0.9761
5.1308 -1.3582 -2.0339 0.9775
5.2899 -0.4326 -2.0339 0.9775
5.2833 0.5065 -2.0340 0.9775
5.2178 0.9720 -2.0340 0.9775
4.9648 1.8765 -2.0340 0.9775
4.5563 2.7222 -2.0340 0.9775
4.2977 3.1146 -2.0340 0.9775
4.0052 3.4826 -2.0340 0.9775
2.9498 4.4124 -2.0340 0.9775
2.5479 4.6560 -2.0340 0.9775
4.8979 -0.8417 -2.0339 0.9788
4.9531 -0.4051 -2.0339 0.9788
4.9695 0.0348 -2.0339 0.9787
4.9470 0.4743 -2.0339 0.9787
4.7860 1.3388 -2.0340 0.9787
4.6487 1.7570 -2.0340 0.9787
4.4750 2.1614 -2.0340 0.9787
4.0240 2.9163 -2.0340 0.9787
3.4470 3.5800 -2.0340 0.9787
3.1167 3.8709 -2.0340 0.9787
2.7621 4.1314 -2.0340 0.9787
4.5996 -0.7904 -2.0339 0.9798
4.6514 -0.3804 -2.0339 0.9798
4.6668 0.0326 -2.0339 0.9798
4.6457 0.4454 -2.0339 0.9798
4.5880 0.8547 -2.0339 0.9798
4.4945 1.2573 -2.0340 0.9798
4.3656 1.6500 -2.0340 0.9798
4.2025 2.0297 -2.0340 0.9798
3.5218 3.0623 -2.0340 0.9798
3.2371 3.3619 -2.0340 0.9798
2.9270 3.6351 -2.0340 0.9798
4.1316 -1.4958 -2.0339 0.9808
4.2477 -1.1244 -2.0339 0.9808
4.3306 -0.7442 -2.0339 0.9808
4.3795 -0.3581 -2.0339 0.9808
4.3740 0.4194 -2.0339 0.9808
4.3197 0.8047 -2.0339 0.9808
3.7721 2.2537 -2.0340 0.9808
3.0478 3.1653 -2.0340 0.9808
2.7557 3.4226 -2.0340 0.9808
2.4421 3.6529 -2.0340 0.9808
2.1094 3.8547 -2.0340 0.9808
3.8988 -1.4115 -2.0339 0.9817
4.0865 -0.7023 -2.0339 0.9817
4.1327 -0.3380 -2.0339 0.9817
3.9932 1.1171 -2.0339 0.9817
3.8787 1.4660 -2.0340 0.9817
3.7338 1.8034 -2.0340 0.9817
3.5596 2.1267 -2.0340 0.9817
3.1290 2.7208 -2.0340 0.9817
2.8761 2.9870 -2.0340 0.9817
2.6005 3.2297 -2.0340 0.9817
2.3045 3.4471 -2.0340 0.9817
2.0718 0.0145 -1.0748 0.9907
2.0734 0.1988 -1.0806 0.9907
3.3657 2.0108 -2.0340 0.9825
2.7194 2.8243 -2.0340 0.9825
2.1790 3.2593 -2.0340 0.9825
1.8600 -0.4924 -1.0538 0.9913
1.8525 -0.3184 -1.0295 0.9915
1.8512 -0.1514 -1.0173 0.9916
1.8507 0.0129 -1.0137 0.9916
1.8497 0.1773 -1.0177 0.9916
1.8546 0.3455 -1.0332 0.9914
3.4738 1.3129 -2.0339 0.9832
3.1880 1.9047 -2.0339 0.9832
2.8024 2.4367 -2.0340 0.9832
2.5758 2.6751 -2.0340 0.9832
2.3290 2.8925 -2.0340 0.9832
1.7827 3.2577 -2.0340 0.9832
1.7225 -0.6236 -1.0576 0.9916
1.7129 -0.4534 -1.0230 0.9918
1.7142 -0.2946 -1.0042 0.9920
1.7220 -0.1408 -0.9975 0.9921
1.7138 0.3192 -1.0065 0.9920
1.7111 0.4787 -1.0258 0.9918
3.1722 1.5322 -2.0339 0.9839
2.6584 2.3116 -2.0339 0.9839
2.4435 2.5377 -2.0339 0.9839
2.2094 2.7440 -2.0340 0.9839
1.9579 2.9287 -2.0340 0.9839
1.6912 3.0904 -2.0339 0.9839
