ply
format ascii 1.0
element vertex 209
property float32 x
property float32 y
property float32 z
property float32 I
end_header
16.4549 -4.4488 -1.2498 0.9339
17.8206 -3.1846 -1.7380 0.9298
12.0834 -12.1309 -2.0339 0.9334
13.0943 -11.0324 -2.0339 0.9334
14.0057 -9.8499 -2.0339 0.9334
14.8106 -8.5926 -2.0339 0.9334
15.5029 -7.2698 -2.0340 0.9334
16.8563 -3.0122 -2.0340 0.9334
17.0548 -1.5325 -2.0340 0.9333
17.1236 -0.0411 -2.0340 0.9333
16.8711 2.9315 -2.0341 0.9333
16.5517 4.3899 -2.0341 0.9333
15.5388 7.1960 -2.0341 0.9333
9.2058 -11.0137 -2.0339 0.9437
10.1302 -10.1700 -2.0339 0.9437
10.9777 -9.2491 -2.0339 0.9437
12.9970 -6.0947 -2.0339 0.9437
13.8577 -3.7466 -2.0340 0.9437
14.2978 -1.2848 -2.0340 0.9437
14.3555 -0.0344 -2.0340 0.9437
14.3040 1.2162 -2.0340 0.9437
14.1438 2.4576 -2.0340 0.9437
13.5027 4.8750 -2.0341 0.9437
13.0268 6.0327 -2.0341 0.9437
11.7821 8.2021 -2.0341 0.9437
7.9177 -9.4727 -2.0339 0.9512
8.7128 -8.7471 -2.0339 0.9512
11.5926 -4.2483 -2.0340 0.9512
11.9186 -3.2224 -2.0340 0.9512
12.3468 -0.0296 -2.0340 0.9512
12.3025 1.0460 -2.0340 0.9512
12.1647 2.1137 -2.0340 0.9512
11.6133 4.1929 -2.0340 0.9512
10.7095 6.1448 -2.0341 0.9512
6.1899 -8.8754 -2.0339 0.9569
8.2752 -6.9721 -2.0339 0.9569
10.4462 -2.8243 -2.0340 0.9569
10.6525 -1.9036 -2.0340 0.9569
10.8213 -0.0260 -2.0340 0.9569
10.7825 0.9168 -2.0340 0.9569
10.6618 1.8525 -2.0340 0.9569
10.4599 2.7742 -2.0340 0.9569
9.8197 4.5475 -2.0340 0.9569
8.8815 6.1828 -2.0340 0.9569
5.5041 -7.8921 -2.0339 0.9614
6.1707 -7.3826 -2.0339 0.9614
6.7904 -6.8171 -2.0339 0.9614
7.3584 -6.1997 -2.0339 0.9614
7.8705 -5.5352 -2.0339 0.9614
8.3228 -4.8286 -2.0339 0.9614
8.7118 -4.0853 -2.0339 0.9614
9.0346 -3.3109 -2.0339 0.9614
9.2887 -2.5114 -2.0340 0.9614
9.5837 -0.8612 -2.0340 0.9614
9.6224 -0.0230 -2.0340 0.9614
9.5879 0.8152 -2.0340 0.9614
8.7317 4.0437 -2.0340 0.9614
8.3463 4.7889 -2.0340 0.9614
7.8975 5.4977 -2.0340 0.9614
4.9505 -7.0981 -2.0339 0.9651
7.0787 -4.9784 -2.0339 0.9651
7.8354 -3.6743 -2.0339 0.9651
8.3543 -2.2587 -2.0339 0.9651
8.5194 -1.5224 -2.0340 0.9651
8.6196 -0.7746 -2.0340 0.9651
8.6233 0.7332 -2.0340 0.9651
8.1402 2.9389 -2.0340 0.9651
7.5066 4.3071 -2.0340 0.9651
4.4936 -6.4431 -2.0339 0.9681
5.5437 -5.5655 -2.0339 0.9681
6.4255 -4.5189 -2.0339 0.9681
7.1123 -3.3352 -2.0339 0.9681
7.7331 -1.3819 -2.0340 0.9681
7.8556 -0.0188 -2.0340 0.9681
7.8275 0.6655 -2.0340 0.9681
7.7397 1.3448 -2.0340 0.9681
7.5932 2.0139 -2.0340 0.9681
7.3889 2.6677 -2.0340 0.9681
7.1285 3.3012 -2.0340 0.9681
6.8138 3.9096 -2.0340 0.9681
4.6075 -5.5125 -2.0339 0.9706
5.0702 -5.0902 -2.0339 0.9706
5.4944 -4.6292 -2.0339 0.9706
5.8768 -4.1330 -2.0339 0.9706
6.5049 -3.0504 -2.0339 0.9706
6.9357 -1.8752 -2.0339 0.9706
7.0727 -1.2639 -2.0339 0.9706
7.1559 -0.6430 -2.0340 0.9706
7.1848 -0.0172 -2.0340 0.9706
7.1590 0.6087 -2.0340 0.9706
6.7579 2.4399 -2.0340 0.9706
6.2320 3.5757 -2.0340 0.9706
5.4089 -3.8040 -2.0339 0.9727
5.9871 -2.8076 -2.0339 0.9727
6.2089 -2.2754 -2.0339 0.9727
6.3836 -1.7259 -2.0339 0.9727
6.5863 -0.5918 -2.0340 0.9727
6.6128 -0.0159 -2.0340 0.9727
6.3919 1.6953 -2.0340 0.9727
6.0007 2.7789 -2.0340 0.9727
5.7359 3.2911 -2.0340 0.9727
3.5002 -5.0186 -2.0339 0.9745
3.9240 -4.6947 -2.0339 0.9745
5.0049 -3.5199 -2.0339 0.9745
5.2925 -3.0706 -2.0339 0.9745
5.9068 -1.5970 -2.0339 0.9745
6.0943 -0.5476 -2.0339 0.9745
6.0969 0.5184 -2.0340 0.9745
5.9145 1.5687 -2.0340 0.9745
5.5525 2.5713 -2.0340 0.9745
5.3074 3.0452 -2.0340 0.9745
5.0220 3.4960 -2.0340 0.9745
3.2535 -4.6650 -2.0339 0.9761
3.6475 -4.3639 -2.0339 0.9761
4.3495 -3.6646 -2.0339 0.9761
4.9196 -2.8542 -2.0339 0.9761
5.3404 -1.9571 -2.0339 0.9761
5.4905 -1.4844 -2.0339 0.9761
5.5989 -1.0005 -2.0339 0.9761
5.6648 -0.5090 -2.0339 0.9761
5.6037 0.9737 -2.0340 0.9761
5.3497 1.9315 -2.0340 0.9761
4.9334 2.8306 -2.0340 0.9761
4.6680 3.2496 -2.0340 0.9761
3.0361 -4.3532 -2.0339 0.9775
3.4037 -4.0722 -2.0339 0.9775
3.7455 -3.7603 -2.0339 0.9775
4.3413 -3.0532 -2.0339 0.9775
4.5908 -2.6634 -2.0339 0.9775
4.8054 -2.2534 -2.0339 0.9775
5.1236 -1.3853 -2.0339 0.9775
5.2248 -0.9337 -2.0339 0.9775
5.2863 -0.4750 -2.0339 0.9775
5.2885 0.4496 -2.0340 0.9775
5.2292 0.9086 -2.0340 0.9775
5.1302 1.3606 -2.0340 0.9775
4.8162 2.2304 -2.0340 0.9775
2.8427 -4.0761 -2.0339 0.9788
3.1870 -3.8129 -2.0339 0.9788
3.8004 -3.2020 -2.0339 0.9788
4.6661 -1.7100 -2.0339 0.9788
4.9497 -0.4447 -2.0339 0.9787
4.9518 0.4210 -2.0339 0.9788
4.8963 0.8507 -2.0340 0.9787
4.8036 1.2740 -2.0340 0.9788
4.5096 2.0884 -2.0340 0.9787
4.0787 2.8393 -2.0340 0.9787
2.6696 -3.8278 -2.0339 0.9798
3.2934 -3.3064 -2.0339 0.9798
3.8174 -2.6847 -2.0339 0.9798
4.2254 -1.9815 -2.0339 0.9798
4.5052 -1.2181 -2.0339 0.9798
4.5942 -0.8210 -2.0339 0.9798
4.6670 -0.0112 -2.0339 0.9798
4.6502 0.3954 -2.0339 0.9798
4.5981 0.7989 -2.0339 0.9798
4.3896 1.5848 -2.0340 0.9798
4.0480 2.3226 -2.0340 0.9798
2.5136 -3.6040 -2.0339 0.9808
3.1009 -3.1131 -2.0339 0.9808
3.3603 -2.8311 -2.0339 0.9808
3.5942 -2.5277 -2.0339 0.9808
3.8007 -2.2050 -2.0339 0.9808
3.9783 -1.8656 -2.0339 0.9808
4.3255 -0.7730 -2.0339 0.9808
4.3764 -0.3933 -2.0339 0.9808
4.3782 0.3723 -2.0339 0.9808
4.3292 0.7522 -2.0339 0.9808
4.1330 1.4922 -2.0340 0.9808
2.3719 -3.4009 -2.0339 0.9817
2.6591 -3.1814 -2.0339 0.9817
2.9262 -2.9377 -2.0339 0.9817
3.5865 -2.0808 -2.0339 0.9817
3.7542 -1.7605 -2.0339 0.9817
3.8932 -1.4267 -2.0339 0.9817
4.0818 -0.7294 -2.0339 0.9817
4.1298 -0.3711 -2.0339 0.9817
4.1316 0.3513 -2.0339 0.9817
3.9001 1.4081 -2.0339 0.9817
3.7626 1.7425 -2.0340 0.9817
3.5965 2.0636 -2.0340 0.9817
2.2427 -3.2157 -2.0339 0.9825
2.5143 -3.0081 -2.0339 0.9825
2.7668 -2.7777 -2.0339 0.9825
3.6812 -1.3490 -2.0339 0.9825
3.7847 -1.0233 -2.0339 0.9825
2.0706 -0.0050 -1.0742 0.9907
2.1030 0.3654 -1.1073 0.9904
3.7896 1.0051 -2.0339 0.9825
3.5577 1.6475 -2.0339 0.9825
3.4007 1.9512 -2.0340 0.9825
2.3816 -2.8493 -2.0339 0.9832
3.0375 -2.1363 -2.0339 0.9832
3.2121 -1.8635 -2.0339 0.9832
1.8535 -0.3312 -1.0313 0.9914
1.8528 0.3219 -1.0300 0.9915
3.3698 1.5605 -2.0339 0.9832
3.2210 1.8481 -2.0339 0.9832
2.0152 -2.8895 -2.0339 0.9839
2.8816 -2.0266 -2.0339 0.9839
3.0471 -1.7679 -2.0339 0.9839
1.7212 -0.6308 -1.0584 0.9916
1.7122 -0.4629 -1.0241 0.9918
1.7245 -0.0042 -0.9956 0.9921
1.7217 0.1464 -0.9976 0.9921
1.7141 0.2978 -1.0045 0.9920
1.7128 0.4543 -1.0231 0.9918
1.7227 0.6220 -1.0575 0.9916
3.0557 1.7532 -2.0339 0.9839
