ply
format ascii 1.0
element vertex 168
property float32 x
property float32 y
property float32 z
property float32 I
end_header
2.6033 -6.1829 -0.6441 0.9734
-9.1632 -14.4618 -2.0337 0.9334
-7.8633 -15.2078 -2.0337 0.9334
-6.5031 -15.8373 -2.0337 0.9334
-5.0931 -16.3454 -2.0337 0.9334
-2.1670 -16.9830 -2.0337 0.9334
-0.6734 -17.1075 -2.0337 0.9334
2.3179 -16.9634 -2.0337 0.9334
2.0882 -6.4981 -0.8108 0.9729
2.5438 -6.0418 -0.7787 0.9739
9.2921 -14.3809 -2.0338 0.9334
11.6560 -12.5420 -2.0339 0.9334
12.7084 -11.4747 -2.0339 0.9334
13.6634 -10.3193 -2.0339 0.9334
-6.5923 -12.7498 -2.0337 0.9437
-3.0550 -14.0245 -2.0337 0.9437
-0.5645 -14.3424 -2.0337 0.9437
1.9433 -14.2215 -2.0338 0.9437
1.4902 -6.5600 -0.9532 0.9732
1.9742 -6.1433 -0.9143 0.9743
8.8148 -11.3290 -2.0338 0.9437
11.4548 -8.6513 -2.0339 0.9437
-6.6074 -10.4281 -2.0337 0.9512
-3.6725 -11.7863 -2.0337 0.9512
-2.6276 -12.0624 -2.0337 0.9512
-0.4855 -12.3358 -2.0338 0.9512
0.5952 -12.3310 -2.0338 0.9512
1.5101 -6.6475 -1.1230 0.9727
1.9352 -6.0219 -1.0420 0.9747
3.1387 -5.9404 -1.1068 0.9731
6.7002 -10.3695 -2.0338 0.9512
8.4046 -9.0435 -2.0339 0.9512
9.8520 -7.4408 -2.0339 0.9512
-4.9695 -9.6113 -2.0338 0.9569
-4.1100 -10.0092 -2.0338 0.9569
1.4451 -6.3618 -1.2262 0.9738
1.9043 -5.9258 -1.1699 0.9750
2.4522 -5.8243 -1.1878 0.9746
6.6448 -8.5401 -2.0339 0.9569
-5.1496 -8.1273 -2.0338 0.9614
-4.4190 -8.5465 -2.0338 0.9614
-3.6546 -8.9003 -2.0338 0.9614
-2.8622 -9.1859 -2.0338 0.9614
-2.0479 -9.4010 -2.0338 0.9614
-1.2178 -9.5441 -2.0338 0.9614
0.4638 -9.6104 -2.0338 0.9614
1.3026 -9.5330 -2.0338 0.9614
1.9147 -5.9579 -1.3228 0.9747
2.4573 -5.8364 -1.3386 0.9744
5.2218 -8.0816 -2.0339 0.9614
6.5502 -7.0481 -2.0339 0.9614
7.6782 -5.7990 -2.0339 0.9614
-4.6315 -7.3098 -2.0338 0.9651
-3.2870 -8.0050 -2.0338 0.9651
-1.0953 -8.5840 -2.0338 0.9651
-0.3404 -8.6469 -2.0338 0.9651
4.6965 -7.2686 -2.0339 0.9651
5.8912 -6.3391 -2.0339 0.9651
6.9058 -5.2156 -2.0339 0.9651
-4.2041 -6.6352 -2.0338 0.9681
-3.6077 -6.9775 -2.0338 0.9681
-2.3368 -7.4994 -2.0338 0.9681
-1.6719 -7.6750 -2.0338 0.9681
1.0634 -7.7828 -2.0338 0.9681
1.3789 -6.0700 -1.6117 0.9746
1.8720 -5.8249 -1.5841 0.9750
4.2631 -6.5978 -2.0339 0.9681
-3.2996 -6.3816 -2.0338 0.9706
1.4150 -6.2292 -1.8084 0.9738
4.8909 -5.2627 -2.0339 0.9706
5.3325 -4.8148 -2.0339 0.9706
-3.5391 -5.5855 -2.0338 0.9727
0.3188 -6.6047 -2.0338 0.9727
1.9132 -5.9533 -1.9233 0.9742
4.0607 -5.2189 -2.0339 0.9727
4.5016 -4.8438 -2.0339 0.9727
4.9080 -4.4315 -2.0339 0.9727
5.2768 -3.9853 -2.0339 0.9727
-3.2747 -5.1684 -2.0338 0.9745
-2.8102 -5.4350 -2.0338 0.9745
-2.3241 -5.6599 -2.0338 0.9745
-1.3023 -5.9783 -2.0338 0.9745
0.2950 -6.1114 -2.0338 0.9745
0.8284 -6.0622 -2.0338 0.9745
1.3554 -5.9666 -2.0338 0.9745
1.8720 -5.8252 -2.0339 0.9745
2.3743 -5.6391 -2.0339 0.9745
2.8584 -5.4099 -2.0339 0.9745
3.7574 -4.8291 -2.0339 0.9745
4.5414 -4.1005 -2.0339 0.9745
4.8827 -3.6876 -2.0339 0.9745
-2.6121 -5.0520 -2.0338 0.9761
-0.2237 -5.6830 -2.0338 0.9761
0.7700 -5.6350 -2.0338 0.9761
1.2598 -5.5461 -2.0338 0.9761
1.7401 -5.4147 -2.0339 0.9761
3.0866 -4.7770 -2.0339 0.9761
4.2213 -3.8116 -2.0339 0.9761
-1.5788 -5.0670 -2.0338 0.9775
-1.1296 -5.1857 -2.0338 0.9775
0.2559 -5.3011 -2.0338 0.9775
1.1757 -5.1755 -2.0339 0.9775
2.0595 -4.8915 -2.0339 0.9775
2.8803 -4.4578 -2.0339 0.9775
3.2592 -4.1888 -2.0339 0.9775
3.6130 -3.8877 -2.0339 0.9775
-1.0577 -4.8555 -2.0338 0.9788
0.2396 -4.9636 -2.0338 0.9788
0.6728 -4.9237 -2.0339 0.9788
1.9284 -4.5800 -2.0339 0.9788
2.3216 -4.3938 -2.0339 0.9788
3.9656 -2.9950 -2.0339 0.9788
-2.4977 -3.9420 -2.0338 0.9798
-2.1434 -4.1454 -2.0338 0.9798
-1.7727 -4.3170 -2.0338 0.9798
-1.3883 -4.4555 -2.0338 0.9798
-0.5907 -4.6292 -2.0338 0.9798
-0.1836 -4.6632 -2.0338 0.9798
0.2250 -4.6613 -2.0339 0.9798
0.6318 -4.6238 -2.0339 0.9798
1.0338 -4.5508 -2.0339 0.9798
2.1802 -4.1262 -2.0339 0.9798
3.4638 -3.1275 -2.0339 0.9798
3.7241 -2.8127 -2.0339 0.9798
-2.3517 -3.7116 -2.0338 0.9808
-0.9352 -4.2932 -2.0338 0.9808
-0.1728 -4.3905 -2.0338 0.9808
0.2118 -4.3888 -2.0339 0.9808
0.5948 -4.3534 -2.0339 0.9808
0.9733 -4.2848 -2.0339 0.9808
2.0527 -3.8850 -2.0339 0.9808
2.3846 -3.6906 -2.0339 0.9808
2.6983 -3.4679 -2.0339 0.9808
3.2613 -2.9447 -2.0339 0.9808
-1.5749 -3.8355 -2.0338 0.9817
-0.8825 -4.0513 -2.0338 0.9817
-0.5248 -4.1130 -2.0338 0.9817
-0.1631 -4.1431 -2.0339 0.9817
1.6090 -3.8214 -2.0339 0.9817
3.0775 -2.7788 -2.0339 0.9817
-2.0983 -3.3117 -2.0338 0.9825
-1.1663 -3.7430 -2.0338 0.9825
-0.8345 -3.8307 -2.0339 0.9825
-0.4963 -3.8889 -2.0339 0.9825
-0.1542 -3.9174 -2.0339 0.9825
0.1890 -3.9159 -2.0339 0.9825
0.5307 -3.8844 -2.0339 0.9825
2.4075 -3.0942 -2.0339 0.9825
2.9099 -2.6274 -2.0339 0.9825
3.1286 -2.3628 -2.0339 0.9825
-1.9875 -3.1368 -2.0338 0.9832
-1.7055 -3.2986 -2.0338 0.9832
-1.4105 -3.4351 -2.0338 0.9832
-0.7904 -3.6284 -2.0339 0.9832
-0.1461 -3.7106 -2.0339 0.9832
1.4410 -3.4225 -2.0339 0.9832
2.0153 -3.1191 -2.0339 0.9832
2.2804 -2.9308 -2.0339 0.9832
2.7563 -2.4886 -2.0339 0.9832
2.9633 -2.2380 -2.0339 0.9832
-1.6180 -3.1292 -2.0339 0.9839
-1.3381 -3.2587 -2.0339 0.9839
-0.7498 -3.4420 -2.0339 0.9839
0.7803 -3.4353 -2.0339 0.9839
1.9118 -2.9589 -2.0339 0.9839
2.1633 -2.7803 -2.0339 0.9839
2.3982 -2.5805 -2.0339 0.9839
2.8112 -2.1231 -2.0339 0.9839
