ply
format ascii 1.0
element vertex 185
property float32 x
property float32 y
property float32 z
property float32 I
end_header
-11.8476 -8.2598 -0.7324 0.9438
-11.6669 -8.1338 -1.0428 0.9446
-15.5499 -7.1635 -2.0337 0.9334
-14.8553 -8.5107 -2.0337 0.9334
-13.1232 -10.9950 -2.0337 0.9334
-8.4944 -14.8645 -2.0337 0.9334
-7.1464 -15.5576 -2.0337 0.9334
-2.8107 -16.8884 -2.0337 0.9334
-1.3060 -17.0709 -2.0337 0.9334
0.2090 -17.1195 -2.0337 0.9334
3.2222 -16.8151 -2.0337 0.9334
-13.0366 -6.0057 -2.0337 0.9437
-11.7743 -8.2087 -2.0337 0.9437
-10.1437 -10.1548 -2.0337 0.9437
-4.8142 -13.5219 -2.0337 0.9437
-3.5994 -13.8947 -2.0337 0.9437
-2.3563 -14.1587 -2.0337 0.9437
-1.0948 -14.3116 -2.0337 0.9437
0.1753 -14.3525 -2.0337 0.9437
1.4440 -14.2808 -2.0338 0.9437
-10.7118 -6.1369 -2.0337 0.9512
-10.1270 -7.0602 -2.0337 0.9512
-9.4629 -7.9282 -2.0337 0.9512
-7.0491 -10.1347 -2.0337 0.9512
-6.1251 -10.7184 -2.0337 0.9512
-5.1530 -11.2183 -2.0337 0.9512
-3.0958 -11.9507 -2.0337 0.9512
-0.9417 -12.3094 -2.0338 0.9512
1.2420 -12.2828 -2.0338 0.9512
2.3235 -12.1249 -2.0338 0.9512
-10.1895 -3.6404 -2.0338 0.9569
-9.3886 -5.3787 -2.0338 0.9569
-8.8760 -6.1880 -2.0338 0.9569
-8.2939 -6.9488 -2.0338 0.9569
-7.6468 -7.6552 -2.0337 0.9569
-6.1783 -8.8827 -2.0337 0.9569
-5.3684 -9.3944 -2.0337 0.9569
-3.6292 -10.1934 -2.0338 0.9569
-1.7763 -10.6734 -2.0338 0.9569
1.0886 -10.7654 -2.0338 0.9569
2.0364 -10.6270 -2.0338 0.9569
-9.0606 -3.2371 -2.0338 0.9614
-8.7387 -4.0257 -2.0338 0.9614
-7.8927 -5.5025 -2.0338 0.9614
-7.3750 -6.1790 -2.0338 0.9614
-6.7996 -6.8071 -2.0338 0.9614
-4.0162 -8.7431 -2.0338 0.9614
-1.5795 -9.4909 -2.0338 0.9614
-0.7339 -9.5935 -2.0338 0.9614
0.9680 -9.5727 -2.0338 0.9614
1.7077 -5.9862 -1.3158 0.9749
-8.1491 -2.9114 -2.0338 0.9651
-7.8597 -3.6208 -2.0338 0.9651
-5.5501 -6.6393 -2.0338 0.9651
-4.9412 -7.1041 -2.0338 0.9651
-3.6121 -7.8636 -2.0338 0.9651
0.1057 -8.6530 -2.0338 0.9651
0.8706 -8.6098 -2.0338 0.9651
1.2746 -6.6517 -1.5917 0.9726
-7.3971 -2.6428 -2.0338 0.9681
-7.1344 -3.2866 -2.0338 0.9681
-6.4436 -4.4923 -2.0338 0.9681
-6.0210 -5.0446 -2.0338 0.9681
-5.5512 -5.5573 -2.0338 0.9681
-3.8973 -6.8200 -2.0338 0.9681
-3.2788 -7.1379 -2.0338 0.9681
-1.9698 -7.6040 -2.0338 0.9681
-0.5991 -7.8322 -2.0338 0.9681
0.7902 -7.8152 -2.0338 0.9681
1.6748 -5.8709 -1.5807 0.9751
-6.5252 -3.0060 -2.0338 0.9706
-5.8934 -4.1087 -2.0338 0.9706
-3.5645 -6.2376 -2.0338 0.9706
-2.9988 -6.5284 -2.0338 0.9706
-2.4096 -6.7681 -2.0338 0.9706
-0.5480 -7.1634 -2.0338 0.9706
0.7227 -7.1479 -2.0338 0.9706
1.6806 -5.8913 -1.7343 0.9749
-6.0057 -2.7667 -2.0338 0.9727
-5.7375 -3.2871 -2.0338 0.9727
-5.4242 -3.7816 -2.0338 0.9727
-4.2410 -5.0732 -2.0338 0.9727
-3.7757 -5.4284 -2.0338 0.9727
-2.7601 -6.0087 -2.0338 0.9727
-2.2179 -6.2293 -2.0338 0.9727
-1.0855 -6.5227 -2.0338 0.9727
0.0807 -6.6119 -2.0338 0.9727
-5.3090 -3.0416 -2.0338 0.9745
-5.0191 -3.4992 -2.0338 0.9745
-3.0357 -5.3122 -2.0338 0.9745
-2.5539 -5.5600 -2.0338 0.9745
-2.0522 -5.7641 -2.0338 0.9745
-1.0045 -6.0355 -2.0338 0.9745
0.6155 -6.0875 -2.0338 0.9745
1.6786 -5.8839 -2.0338 0.9745
-4.9348 -2.8272 -2.0338 0.9761
-4.6654 -3.2526 -2.0338 0.9761
-3.2475 -4.6690 -2.0338 0.9761
-2.8218 -4.9379 -2.0338 0.9761
-2.3740 -5.1681 -2.0338 0.9761
-0.4338 -5.6708 -2.0338 0.9761
0.5721 -5.6585 -2.0338 0.9761
1.0704 -5.5858 -2.0338 0.9761
1.5602 -5.4692 -2.0339 0.9761
-4.8203 -2.2206 -2.0338 0.9775
-4.6050 -2.6383 -2.0338 0.9775
-4.3536 -3.0352 -2.0338 0.9775
-4.0681 -3.4084 -2.0338 0.9775
-3.4039 -4.0719 -2.0338 0.9775
-1.7801 -4.9998 -2.0338 0.9775
-1.3309 -5.1377 -2.0338 0.9775
-0.4048 -5.2918 -2.0338 0.9775
0.0648 -5.3069 -2.0338 0.9775
0.5339 -5.2804 -2.0338 0.9775
0.9989 -5.2124 -2.0339 0.9775
1.4560 -5.1037 -2.0339 0.9775
-4.3119 -2.4703 -2.0338 0.9788
-4.0764 -2.8420 -2.0338 0.9788
-3.5119 -3.5158 -2.0338 0.9788
-2.8375 -4.0796 -2.0338 0.9788
-2.0743 -4.5157 -2.0338 0.9788
-1.6668 -4.6815 -2.0338 0.9788
-0.8158 -4.9020 -2.0338 0.9788
0.0607 -4.9690 -2.0338 0.9788
-3.8282 -2.6689 -2.0338 0.9798
-3.2981 -3.3017 -2.0338 0.9798
-2.9931 -3.5804 -2.0338 0.9798
-2.3154 -4.0518 -2.0338 0.9798
-1.9480 -4.2407 -2.0338 0.9798
-1.5652 -4.3964 -2.0338 0.9798
-1.1703 -4.5176 -2.0338 0.9798
0.4695 -4.6431 -2.0339 0.9798
0.8783 -4.5834 -2.0339 0.9798
1.2803 -4.4878 -2.0339 0.9798
-1.8089 -0.6463 -0.8891 0.9916
-3.8125 -2.1842 -2.0338 0.9808
-3.6043 -2.5129 -2.0338 0.9808
-3.3680 -2.8218 -2.0338 0.9808
-3.1052 -3.1087 -2.0338 0.9808
-2.8181 -3.3711 -2.0338 0.9808
-2.1800 -3.8149 -2.0338 0.9808
-1.8341 -3.9928 -2.0338 0.9808
-1.1019 -4.2535 -2.0338 0.9808
0.0536 -4.3936 -2.0339 0.9808
0.8269 -4.3154 -2.0339 0.9808
-1.2669 -0.4527 -0.6599 0.9940
-3.7659 -1.7349 -2.0338 0.9817
-3.5976 -2.0611 -2.0338 0.9817
-2.9303 -2.9335 -2.0338 0.9817
-2.0572 -3.6000 -2.0338 0.9817
-0.6807 -4.0900 -2.0338 0.9817
0.0506 -4.1460 -2.0339 0.9817
0.7804 -4.0722 -2.0339 0.9817
1.1375 -3.9873 -2.0339 0.9817
-1.1332 -0.4049 -0.6243 0.9946
-3.4017 -1.9489 -2.0338 0.9825
-3.2160 -2.2421 -2.0338 0.9825
-2.5145 -3.0079 -2.0338 0.9825
-2.2386 -3.2185 -2.0338 0.9825
-1.3150 -3.6934 -2.0338 0.9825
-0.9831 -3.7952 -2.0338 0.9825
-0.6436 -3.8673 -2.0339 0.9825
0.7379 -3.8504 -2.0339 0.9825
1.0755 -3.7701 -2.0339 0.9825
-0.9945 -0.4582 -0.5997 0.9950
-3.0462 -2.1237 -2.0339 0.9832
-2.6243 -2.6272 -2.0338 0.9832
-2.3816 -2.8490 -2.0338 0.9832
-2.1204 -3.0485 -2.0338 0.9832
-1.8424 -3.2241 -2.0338 0.9832
-1.5501 -3.3745 -2.0338 0.9832
-1.2455 -3.4983 -2.0339 0.9832
-0.9312 -3.5948 -2.0339 0.9832
-0.2833 -3.7026 -2.0339 0.9832
0.0453 -3.7132 -2.0339 0.9832
-0.9229 -0.4252 -0.5866 0.9953
-1.1576 -0.6632 -0.7702 0.9939
-2.7003 -2.2623 -2.0339 0.9839
-2.4896 -2.4923 -2.0339 0.9839
-2.0114 -2.8920 -2.0339 0.9839
-0.8834 -3.4102 -2.0339 0.9839
-0.2687 -3.5125 -2.0339 0.9839
0.3544 -3.5049 -2.0339 0.9839
0.6630 -3.4598 -2.0339 0.9839
0.9664 -3.3876 -2.0339 0.9839
