ply
format ascii 1.0
element vertex 235
property float32 x
property float32 y
property float32 z
property float32 I
end_header
2.7491 18.8145 3.3527 0.9257
2.5721 17.6033 2.7254 0.9305
0.9964 18.3378 2.8134 0.9284
2.5502 17.4536 1.4932 0.9316
13.5804 9.4603 -0.8394 0.9359
2.7059 18.5192 -1.7968 0.9276
-1.0145 7.9241 -0.7670 0.9684
-1.6549 7.4658 -0.7342 0.9697
16.6118 4.1571 -2.0341 0.9333
14.8808 8.4736 -2.0341 0.9333
13.3110 9.2725 -1.9270 0.9367
13.1057 11.0220 -2.0341 0.9333
4.0021 16.6500 -2.0341 0.9333
2.4758 16.9442 -2.0341 0.9333
0.9291 17.0989 -2.0341 0.9333
-1.6439 7.4160 -0.9023 0.9699
-5.2065 16.3128 -2.0340 0.9333
14.3266 0.9124 -2.0340 0.9437
14.1849 2.2079 -2.0340 0.9437
13.9263 3.4851 -2.0341 0.9437
13.0679 5.9431 -2.0341 0.9437
12.4752 7.1037 -2.0341 0.9437
10.9870 9.2402 -2.0341 0.9437
10.1039 10.1985 -2.0341 0.9437
5.8212 13.1229 -2.0341 0.9437
3.3552 13.9584 -2.0341 0.9437
-0.9512 7.4294 -1.0613 0.9702
-5.5870 13.2235 -2.0340 0.9437
12.3220 0.7848 -2.0340 0.9512
12.2001 1.8989 -2.0340 0.9512
11.9777 2.9974 -2.0340 0.9512
11.2393 5.1115 -2.0341 0.9512
10.7296 6.1097 -2.0341 0.9512
9.4496 7.9472 -2.0341 0.9512
8.6900 8.7714 -2.0341 0.9512
7.8588 9.5233 -2.0341 0.9512
5.0066 11.2866 -2.0341 0.9512
3.9625 11.6941 -2.0341 0.9512
2.8857 12.0052 -2.0341 0.9512
1.7852 12.2174 -2.0341 0.9512
-0.4508 12.3388 -2.0340 0.9512
-0.9462 7.3904 -1.2274 0.9702
-2.4643 7.7207 -1.3351 0.9677
-4.8052 11.3733 -2.0340 0.9512
10.7995 0.6878 -2.0340 0.9569
10.4978 2.6271 -2.0340 0.9569
10.2164 3.5682 -2.0340 0.9569
9.8507 4.4800 -2.0340 0.9569
7.6163 7.6877 -2.0341 0.9569
6.1025 8.9369 -2.0341 0.9569
5.2670 9.4534 -2.0341 0.9569
3.4729 10.2492 -2.0340 0.9569
2.5292 10.5219 -2.0340 0.9569
1.5646 10.7079 -2.0340 0.9569
-0.3952 10.8143 -2.0340 0.9569
-1.6097 7.2618 -1.3981 0.9702
-2.2848 7.1587 -1.4124 0.9699
-4.2115 9.9681 -2.0340 0.9569
9.3346 2.3360 -2.0340 0.9614
9.0844 3.1729 -2.0340 0.9614
8.7593 3.9836 -2.0340 0.9614
8.3620 4.7615 -2.0340 0.9614
7.8957 5.5002 -2.0340 0.9614
7.3644 6.1936 -2.0340 0.9614
6.7725 6.8359 -2.0340 0.9614
6.1246 7.4219 -2.0340 0.9614
3.9018 8.7961 -2.0340 0.9614
3.0881 9.1136 -2.0340 0.9614
0.5220 9.6084 -2.0340 0.9614
-0.2854 7.8090 -1.6518 0.9686
-3.7449 8.8637 -2.0340 0.9614
8.5514 1.3310 -2.0340 0.9651
7.1014 4.9469 -2.0340 0.9651
6.6235 5.5704 -2.0340 0.9651
6.0911 6.1481 -2.0340 0.9651
5.5085 6.6752 -2.0340 0.9651
4.8805 7.1472 -2.0340 0.9651
4.2122 7.5603 -2.0340 0.9651
2.0227 8.4148 -2.0340 0.9651
-0.3161 8.6487 -2.0340 0.9651
7.7622 1.2082 -2.0340 0.9681
7.4164 2.5903 -2.0340 0.9681
6.4460 4.4903 -2.0340 0.9681
5.0001 6.0591 -2.0340 0.9681
4.4300 6.4876 -2.0340 0.9681
3.1854 7.1810 -2.0340 0.9681
2.5211 7.4403 -2.0340 0.9681
-1.7000 7.6695 -2.0340 0.9681
-2.3886 7.4837 -2.0340 0.9681
-3.0573 7.2362 -2.0340 0.9681
7.1703 0.4567 -2.0340 0.9706
6.9699 1.7443 -2.0340 0.9706
6.7831 2.3691 -2.0340 0.9706
6.5403 2.9744 -2.0340 0.9706
6.2436 3.5553 -2.0340 0.9706
4.0517 5.9335 -2.0340 0.9706
3.4969 6.2765 -2.0340 0.9706
2.9134 6.5677 -2.0340 0.9706
2.3057 6.8048 -2.0340 0.9706
1.6792 6.9859 -2.0340 0.9706
1.0388 7.1094 -2.0340 0.9706
0.3898 7.1742 -2.0340 0.9706
-0.9124 7.1266 -2.0340 0.9706
-1.5549 7.0145 -2.0340 0.9706
-2.1846 6.8446 -2.0340 0.9706
6.5342 1.0170 -2.0340 0.9727
6.2430 2.1805 -2.0340 0.9727
6.0196 2.7376 -2.0340 0.9727
5.4262 3.7799 -2.0340 0.9727
5.0610 4.2563 -2.0340 0.9727
3.2186 5.7768 -2.0340 0.9727
2.6814 6.0449 -2.0340 0.9727
2.1222 6.2631 -2.0340 0.9727
-0.2415 6.6084 -2.0340 0.9727
-0.8397 6.5593 -2.0340 0.9727
-2.0107 6.2997 -2.0340 0.9727
-2.5736 6.0914 -2.0339 0.9727
6.0461 0.9411 -2.0340 0.9745
5.9359 1.4854 -2.0340 0.9745
5.7768 2.0176 -2.0340 0.9745
5.5700 2.5332 -2.0340 0.9745
5.0209 3.4975 -2.0340 0.9745
3.8946 4.7195 -2.0340 0.9745
1.9637 5.7953 -2.0340 0.9745
1.4301 5.9495 -2.0340 0.9745
0.8847 6.0547 -2.0340 0.9745
0.3320 6.1099 -2.0340 0.9745
-0.2235 6.1148 -2.0340 0.9745
-0.7770 6.0694 -2.0340 0.9745
-1.3242 5.9739 -2.0340 0.9745
-2.3814 5.6364 -2.0339 0.9745
5.1775 2.3546 -2.0340 0.9761
4.6670 3.2511 -2.0340 0.9761
3.6202 4.3869 -2.0340 0.9761
3.2075 4.6971 -2.0340 0.9761
2.3063 5.1992 -2.0340 0.9761
1.3293 5.5302 -2.0340 0.9761
-0.2077 5.6839 -2.0340 0.9761
-0.7223 5.6416 -2.0340 0.9761
-1.7293 5.4184 -2.0339 0.9761
5.2968 0.3373 -2.0339 0.9775
5.2444 0.8163 -2.0340 0.9775
4.0621 3.4162 -2.0340 0.9775
3.3782 4.0937 -2.0340 0.9775
2.9931 4.3832 -2.0340 0.9775
2.5832 4.6365 -2.0340 0.9775
2.1522 4.8517 -2.0340 0.9775
0.7674 5.2518 -2.0340 0.9775
-0.1938 5.3040 -2.0340 0.9775
-1.1486 5.1818 -2.0339 0.9775
-2.0657 4.8890 -2.0339 0.9775
4.9596 0.3158 -2.0339 0.9787
4.9105 0.7643 -2.0340 0.9787
4.8210 1.2065 -2.0340 0.9787
4.5238 2.0574 -2.0340 0.9787
4.3186 2.4591 -2.0340 0.9787
3.4977 3.5304 -2.0340 0.9787
1.1615 4.8320 -2.0340 0.9787
-0.6311 4.9294 -2.0340 0.9788
4.6115 0.7178 -2.0339 0.9798
4.5274 1.1330 -2.0340 0.9798
3.8295 2.6676 -2.0340 0.9798
2.6318 3.8542 -2.0340 0.9798
1.8924 4.2661 -2.0340 0.9798
1.4977 4.4201 -2.0340 0.9798
1.0907 4.5377 -2.0340 0.9798
0.2532 4.6601 -2.0340 0.9798
-0.5927 4.6292 -2.0339 0.9798
-1.0100 4.5563 -2.0339 0.9798
-1.4190 4.4460 -2.0339 0.9798
4.3852 0.2793 -2.0339 0.9808
4.2626 1.0667 -2.0339 0.9808
3.9999 1.8191 -2.0340 0.9808
3.6055 2.5116 -2.0340 0.9808
3.3629 2.8282 -2.0340 0.9808
3.0926 3.1215 -2.0340 0.9808
2.7968 3.3891 -2.0340 0.9808
2.4779 3.6288 -2.0340 0.9808
2.1386 3.8385 -2.0340 0.9808
1.4102 4.1617 -2.0340 0.9808
-0.1605 4.3911 -2.0339 0.9808
-1.3360 4.1860 -2.0339 0.9808
-1.7101 4.0476 -2.0339 0.9808
4.1382 0.2636 -2.0339 0.9817
4.0971 0.6377 -2.0339 0.9817
4.0225 1.0066 -2.0339 0.9817
3.6033 2.0518 -2.0340 0.9817
2.9183 2.9457 -2.0340 0.9817
2.6392 3.1982 -2.0340 0.9817
1.3307 3.9271 -2.0340 0.9817
0.9691 4.0316 -2.0340 0.9817
0.5995 4.1029 -2.0340 0.9817
0.2250 4.1404 -2.0339 0.9817
-0.1514 4.1437 -2.0339 0.9817
-0.5265 4.1129 -2.0339 0.9817
-0.8973 4.0482 -2.0339 0.9817
-1.6137 3.8195 -2.0339 0.9817
2.0784 0.1323 -1.0804 0.9907
3.7014 1.2928 -2.0339 0.9825
3.5689 1.6231 -2.0339 0.9825
3.4070 1.9401 -2.0340 0.9825
3.2171 2.2410 -2.0340 0.9825
3.0006 2.5235 -2.0340 0.9825
2.7594 2.7852 -2.0340 0.9825
1.9082 3.4249 -2.0340 0.9825
1.5898 3.5839 -2.0340 0.9825
1.2582 3.7133 -2.0340 0.9825
0.9163 3.8121 -2.0340 0.9825
-0.4979 3.8889 -2.0339 0.9825
-1.1921 3.7350 -2.0339 0.9825
-1.5259 3.6115 -2.0339 0.9825
1.8524 0.1179 -1.0166 0.9916
1.8573 0.4648 -1.0486 0.9913
3.3805 1.5374 -2.0339 0.9832
2.6136 2.6381 -2.0340 0.9832
2.3637 2.8643 -2.0340 0.9832
1.8074 3.2441 -2.0340 0.9832
1.5058 3.3946 -2.0340 0.9832
1.1918 3.5172 -2.0340 0.9832
0.8679 3.6108 -2.0339 0.9832
0.5369 3.6745 -2.0339 0.9832
-0.4716 3.6835 -2.0339 0.9832
1.7232 0.1097 -0.9969 0.9921
1.7141 0.2668 -1.0015 0.9920
2.8907 2.0137 -2.0339 0.9839
2.6962 2.2675 -2.0339 0.9839
1.9866 2.9093 -2.0340 0.9839
1.4285 3.2203 -2.0339 0.9839
1.1306 3.3366 -2.0339 0.9839
0.8234 3.4253 -2.0339 0.9839
0.5093 3.4859 -2.0339 0.9839
0.1912 3.5177 -2.0339 0.9839
-0.1287 3.5205 -2.0339 0.9839
-0.7624 3.4394 -2.0339 0.9839
-1.3711 3.2451 -2.0339 0.9839
