ply
format ascii 1.0
element vertex 215
property float32 x
property float32 y
property float32 z
property float32 I
end_header
-11.9170 12.3880 2.6333 0.9328
-11.1215 13.8013 2.3081 0.9310
-11.3886 14.1327 1.9490 0.9296
-11.8483 12.3167 1.8352 0.9336
-4.6940 19.2125 1.6742 0.9237
-17.2763 4.9377 -1.3175 0.9305
-1.8246 7.4680 -0.7381 0.9696
-17.5621 5.0194 -1.7536 0.9292
-1.1664 7.6196 -0.9156 0.9694
-5.5059 16.2142 -2.0340 0.9333
-6.9054 15.6693 -2.0340 0.9334
-8.2516 15.0038 -2.0340 0.9334
-9.5344 14.2230 -2.0340 0.9334
-10.7438 13.3327 -2.0340 0.9334
-11.8707 12.3399 -2.0339 0.9334
-12.9061 11.2523 -2.0339 0.9334
-13.8422 10.0781 -2.0339 0.9334
-14.6719 8.8263 -2.0339 0.9334
-15.3886 7.5068 -2.0339 0.9334
-15.9870 6.1295 -2.0338 0.9334
-16.4624 4.7050 -2.0338 0.9334
-17.0761 -1.2409 -2.0337 0.9334
-16.9014 -2.7324 -2.0337 0.9334
-1.1415 7.4571 -1.0689 0.9700
-1.7761 7.2697 -1.0603 0.9702
-4.6158 13.5931 -2.0340 0.9437
-11.6047 8.4490 -2.0339 0.9437
-13.4029 5.1387 -2.0338 0.9437
-13.8014 3.9446 -2.0338 0.9437
-14.2780 1.4747 -2.0338 0.9437
-14.3160 -1.0404 -2.0338 0.9437
-14.1696 -2.2907 -2.0338 0.9437
-1.1071 7.2324 -1.2053 0.9708
-1.7379 7.1133 -1.2063 0.9708
-3.9700 11.6911 -2.0340 0.9512
-4.9790 11.2982 -2.0340 0.9512
-5.9498 10.8184 -2.0340 0.9512
-6.8748 10.2554 -2.0340 0.9512
-8.5594 8.8977 -2.0339 0.9512
-11.0961 5.4129 -2.0339 0.9512
-11.8705 3.3927 -2.0338 0.9512
-12.2803 1.2684 -2.0338 0.9512
-12.3441 0.1875 -2.0338 0.9512
-12.1871 -1.9702 -2.0338 0.9512
-2.4405 7.1870 -1.4266 0.9696
-4.3639 9.9023 -2.0340 0.9569
-6.0254 8.9884 -2.0339 0.9569
-7.5019 7.7984 -2.0339 0.9569
-8.7479 6.3691 -2.0339 0.9569
-9.2723 5.5780 -2.0339 0.9569
-10.1035 3.8737 -2.0339 0.9569
-10.4039 2.9735 -2.0338 0.9569
-10.6244 2.0505 -2.0338 0.9569
-10.7632 1.1117 -2.0338 0.9569
-10.8191 0.1643 -2.0338 0.9569
-10.7919 -0.7843 -2.0338 0.9569
-10.6816 -1.7268 -2.0338 0.9569
-3.8804 8.8052 -2.0340 0.9614
-6.0375 7.4923 -2.0339 0.9614
-6.6707 6.9344 -2.0339 0.9614
-8.6478 4.2185 -2.0339 0.9614
-8.9841 3.4445 -2.0339 0.9614
-9.4473 1.8233 -2.0338 0.9614
-9.6205 0.1461 -2.0338 0.9614
-9.5963 -0.6974 -2.0338 0.9614
-9.4982 -1.5355 -2.0338 0.9614
-1.1222 7.3313 -1.7431 0.9700
-1.7641 7.2202 -1.7468 0.9699
-3.4900 7.9194 -2.0340 0.9651
-4.8188 7.1885 -2.0339 0.9651
-5.4301 6.7386 -2.0339 0.9651
-5.9996 6.2369 -2.0339 0.9651
-7.7779 3.7941 -2.0339 0.9651
-8.0804 3.0980 -2.0339 0.9651
-8.3207 2.3781 -2.0339 0.9651
-8.6527 0.1314 -2.0338 0.9651
-8.6309 -0.6272 -2.0338 0.9651
-1.1283 7.3711 -1.9307 0.9697
-1.8645 7.6312 -2.0340 0.9681
-2.5259 7.4385 -2.0340 0.9681
-3.1679 7.1885 -2.0340 0.9681
-3.7856 6.8832 -2.0339 0.9681
-4.9290 6.1167 -2.0339 0.9681
-5.4460 5.6612 -2.0339 0.9681
-5.9210 5.1622 -2.0339 0.9681
-6.7312 4.0494 -2.0339 0.9681
-7.0601 3.4440 -2.0339 0.9681
-7.8136 0.8070 -2.0338 0.9681
-1.0871 7.1021 -2.0340 0.9706
-2.8974 6.5746 -2.0339 0.9706
-4.9809 5.1778 -2.0339 0.9706
-5.4154 4.7214 -2.0339 0.9706
-6.1564 3.7036 -2.0339 0.9706
-6.4572 3.1499 -2.0339 0.9706
-6.9079 1.9743 -2.0339 0.9706
-7.1654 -0.5207 -2.0338 0.9706
-7.0922 -1.1465 -2.0338 0.9706
-1.5695 6.4238 -2.0340 0.9727
-2.1263 6.2616 -2.0340 0.9727
-3.6821 5.4927 -2.0339 0.9727
-4.1492 5.1490 -2.0339 0.9727
-4.9843 4.3456 -2.0339 0.9727
-5.3459 3.8921 -2.0339 0.9727
-5.9431 2.8991 -2.0339 0.9727
-6.1743 2.3672 -2.0339 0.9727
-6.3579 1.8171 -2.0339 0.9727
-6.4927 1.2530 -2.0339 0.9727
-6.6116 0.1004 -2.0338 0.9727
-6.5276 -1.0553 -2.0338 0.9727
-1.4523 5.9440 -2.0340 0.9745
-2.4675 5.5993 -2.0339 0.9745
-3.8393 4.7644 -2.0339 0.9745
-4.2420 4.4096 -2.0339 0.9745
-5.2431 3.1542 -2.0339 0.9745
-5.4993 2.6826 -2.0339 0.9745
-5.7131 2.1904 -2.0339 0.9745
-6.1179 0.0929 -2.0338 0.9745
-6.0401 -0.9765 -2.0338 0.9745
-0.8606 5.6222 -2.0340 0.9761
-1.8288 5.3856 -2.0339 0.9761
-2.2936 5.2046 -2.0339 0.9761
-3.9430 4.0989 -2.0339 0.9761
-4.2870 3.7376 -2.0339 0.9761
-4.8736 2.9319 -2.0339 0.9761
-5.1117 2.4936 -2.0339 0.9761
-5.3105 2.0361 -2.0339 0.9761
-5.5844 1.0778 -2.0339 0.9761
-5.6573 0.5843 -2.0339 0.9761
-5.6724 -0.4122 -2.0338 0.9761
-5.6145 -0.9077 -2.0338 0.9761
-0.8031 5.2464 -2.0340 0.9775
-1.2597 5.1559 -2.0339 0.9775
-2.1404 4.8568 -2.0339 0.9775
-3.3302 4.1327 -2.0339 0.9775
-3.6795 3.8249 -2.0339 0.9775
-4.7701 2.3269 -2.0339 0.9775
-4.9556 1.9000 -2.0339 0.9775
-5.2793 0.5453 -2.0339 0.9775
-5.3067 0.0806 -2.0339 0.9775
-5.2933 -0.3847 -2.0339 0.9775
-1.1795 4.8276 -2.0339 0.9788
-1.5979 4.7057 -2.0339 0.9788
-2.0041 4.5476 -2.0339 0.9788
-3.1182 3.8695 -2.0339 0.9788
-4.0175 2.9250 -2.0339 0.9788
-4.2583 2.5617 -2.0339 0.9788
-4.4664 2.1788 -2.0339 0.9788
-4.7781 1.3656 -2.0339 0.9788
-2.1222 0.0322 -0.8687 0.9909
-2.1161 -0.3421 -0.8773 0.9908
-0.7061 4.6132 -2.0339 0.9798
-1.1076 4.5336 -2.0339 0.9798
-2.2489 4.0893 -2.0339 0.9798
-3.9990 2.4057 -2.0339 0.9798
-2.0159 0.5761 -0.9137 0.9909
-1.9049 0.3676 -0.8455 0.9916
-1.9100 0.1972 -0.8368 0.9917
-1.9187 0.0291 -0.8363 0.9917
-0.6648 4.3435 -2.0339 0.9808
-1.0429 4.2685 -2.0339 0.9808
-1.7720 4.0209 -2.0339 0.9808
-2.1175 3.8502 -2.0339 0.9808
-2.4467 3.6498 -2.0339 0.9808
-2.7571 3.4214 -2.0339 0.9808
-3.0462 3.1667 -2.0339 0.9808
-3.5522 2.5862 -2.0339 0.9808
-3.7652 2.2651 -2.0339 0.9808
-3.9491 1.9264 -2.0339 0.9808
-1.5496 0.4429 -0.7460 0.9929
-1.5748 0.0239 -0.7290 0.9931
-1.6721 3.7943 -2.0339 0.9817
-2.3088 3.4441 -2.0339 0.9817
-2.6017 3.2286 -2.0339 0.9817
-2.8746 2.9882 -2.0339 0.9817
-3.1254 2.7249 -2.0339 0.9817
-3.3521 2.4405 -2.0339 0.9817
-3.7266 1.8179 -2.0339 0.9817
-1.2569 0.4819 -0.6603 0.9940
-1.3023 0.3722 -0.6644 0.9940
-1.3534 0.1398 -0.6674 0.9940
-1.3405 0.0203 -0.6576 0.9940
-1.3523 -0.0983 -0.6651 0.9940
-1.3454 -0.2175 -0.6685 0.9939
-0.5932 3.8754 -2.0339 0.9825
-1.2606 3.7124 -2.0339 0.9825
-2.7180 2.8254 -2.0339 0.9825
-3.1695 2.3076 -2.0339 0.9825
-3.3595 2.0210 -2.0339 0.9825
-1.1262 0.4317 -0.6257 0.9946
-1.1544 0.3299 -0.6229 0.9946
-1.2002 0.1239 -0.6259 0.9946
-1.1945 0.0181 -0.6198 0.9946
-1.1914 -0.1926 -0.6261 0.9946
-0.5619 3.6708 -2.0339 0.9832
-1.1941 3.5163 -2.0339 0.9832
-1.4975 3.3982 -2.0339 0.9832
-1.7896 3.2539 -2.0339 0.9832
-2.0678 3.0846 -2.0339 0.9832
-2.7991 2.4404 -2.0339 0.9832
-3.0021 2.1858 -2.0339 0.9832
-1.0178 0.3902 -0.5970 0.9950
-1.0377 0.2965 -0.5911 0.9951
-1.0789 0.1114 -0.5940 0.9951
-1.0779 0.0163 -0.5904 0.9951
-1.0696 -0.1729 -0.5934 0.9951
-0.5330 3.4823 -2.0339 0.9839
-1.6976 3.0868 -2.0339 0.9839
-2.2104 2.7430 -2.0339 0.9839
-2.6553 2.3151 -2.0339 0.9839
-3.0186 1.8160 -2.0339 0.9839
-0.9158 0.4467 -0.5883 0.9953
-0.9418 0.3611 -0.5823 0.9954
-0.9878 0.1020 -0.5733 0.9954
-0.9896 0.0150 -0.5714 0.9954
-0.9813 -0.1587 -0.5739 0.9954
