ply
format ascii 1.0
element vertex 186
property float32 x
property float32 y
property float32 z
property float32 I
end_header
2.6188 -6.1644 -0.6430 0.9734
-7.9157 -15.1805 -2.0337 0.9334
-2.1804 -16.9812 -2.0337 0.9334
3.8241 -16.6886 -2.0337 0.9334
2.5866 -6.0886 -0.7858 0.9737
8.0574 -15.1072 -2.0338 0.9334
9.3574 -14.3385 -2.0338 0.9334
12.7833 -11.3912 -2.0339 0.9334
14.5849 -8.9702 -2.0339 0.9334
-4.2989 -13.6945 -2.0337 0.9437
-3.0754 -14.0200 -2.0337 0.9437
-1.8280 -14.2366 -2.0337 0.9437
1.9605 -14.2191 -2.0338 0.9437
1.5019 -6.5545 -0.9528 0.9732
1.9958 -6.1565 -0.9170 0.9742
3.2042 -6.0077 -0.9647 0.9729
7.8449 -12.0208 -2.0338 0.9437
9.8336 -10.4571 -2.0339 0.9437
11.5170 -8.5684 -2.0339 0.9437
-4.7210 -11.4068 -2.0337 0.9512
-3.6974 -11.7785 -2.0337 0.9512
-1.5722 -12.2448 -2.0338 0.9512
-0.4870 -12.3357 -2.0338 0.9512
0.6020 -12.3307 -2.0338 0.9512
1.6862 -12.2298 -2.0338 0.9512
7.6322 -9.7042 -2.0339 0.9512
8.4577 -8.9940 -2.0339 0.9512
10.5165 -6.4680 -2.0339 0.9512
-1.3780 -10.7321 -2.0338 0.9569
0.5276 -10.8074 -2.0338 0.9569
1.4566 -6.3567 -1.2258 0.9738
5.9137 -9.0617 -2.0338 0.9569
6.6893 -8.5053 -2.0339 0.9569
7.4129 -7.8828 -2.0339 0.9569
8.0787 -7.1989 -2.0339 0.9569
8.6817 -6.4590 -2.0339 0.9569
-4.4485 -8.5312 -2.0338 0.9614
-3.6794 -8.8901 -2.0338 0.9614
-0.3796 -9.6140 -2.0338 0.9614
0.4691 -9.6101 -2.0338 0.9614
1.3142 -9.5314 -2.0338 0.9614
1.4451 -6.3064 -1.3676 0.9739
3.0696 -5.7554 -1.3788 0.9737
5.2586 -8.0578 -2.0339 0.9614
6.5916 -7.0095 -2.0339 0.9614
7.1837 -6.4014 -2.0339 0.9614
-2.5918 -8.2563 -2.0338 0.9651
-0.3414 -8.6469 -2.0338 0.9651
1.1820 -8.5726 -2.0338 0.9651
1.3998 -6.1087 -1.4729 0.9746
2.4809 -5.8398 -1.4912 0.9743
4.7295 -7.2472 -2.0339 0.9651
6.9432 -5.1656 -2.0339 0.9651
-3.0039 -7.2579 -2.0338 0.9681
-2.3527 -7.4944 -2.0338 0.9681
-1.0004 -7.7911 -2.0338 0.9681
-0.3099 -7.8489 -2.0338 0.9681
0.3830 -7.8457 -2.0338 0.9681
1.0729 -7.7815 -2.0338 0.9681
2.4885 -5.8577 -1.6478 0.9740
4.2930 -6.5783 -2.0339 0.9681
4.8561 -6.1745 -2.0339 0.9681
5.8647 -5.2261 -2.0339 0.9681
-3.3216 -6.3702 -2.0338 0.9706
-2.7474 -6.6381 -2.0338 0.9706
-0.9149 -7.1258 -2.0338 0.9706
-0.2834 -7.1787 -2.0338 0.9706
0.3503 -7.1758 -2.0338 0.9706
0.9813 -7.1170 -2.0338 0.9706
1.8884 -5.8252 -1.7335 0.9749
2.8092 -6.6124 -2.0339 0.9706
4.9218 -5.2338 -2.0339 0.9706
5.7643 -4.2885 -2.0339 0.9706
6.1198 -3.7639 -2.0339 0.9706
-3.0573 -5.8631 -2.0338 0.9727
-1.9805 -6.3088 -2.0338 0.9727
0.3224 -6.6045 -2.0338 0.9727
0.9032 -6.5504 -2.0338 0.9727
1.4769 -6.4454 -2.0338 0.9727
2.5855 -6.0861 -2.0339 0.9727
3.6139 -5.5376 -2.0339 0.9727
4.0879 -5.1977 -2.0339 0.9727
4.5300 -4.8172 -2.0339 0.9727
5.3054 -3.9471 -2.0339 0.9727
5.6326 -3.4643 -2.0339 0.9727
-2.8289 -5.4252 -2.0338 0.9745
-1.8325 -5.8376 -2.0338 0.9745
-1.3110 -5.9764 -2.0338 0.9745
-0.7792 -6.0687 -2.0338 0.9745
1.3666 -5.9640 -2.0338 0.9745
1.8868 -5.8204 -2.0339 0.9745
4.9091 -3.6523 -2.0339 0.9745
5.2119 -3.2055 -2.0339 0.9745
-2.6296 -5.0429 -2.0338 0.9761
-0.7243 -5.6411 -2.0338 0.9761
-0.2244 -5.6829 -2.0338 0.9761
0.2773 -5.6806 -2.0338 0.9761
0.7768 -5.6341 -2.0338 0.9761
1.2703 -5.5437 -2.0338 0.9761
2.2238 -5.2346 -2.0339 0.9761
2.6765 -5.0183 -2.0339 0.9761
3.5160 -4.4705 -2.0339 0.9761
4.2462 -3.7838 -2.0339 0.9761
4.8446 -2.9796 -2.0339 0.9761
-2.4538 -4.7059 -2.0338 0.9775
-1.1371 -5.1840 -2.0338 0.9775
-0.6759 -5.2641 -2.0338 0.9775
-0.2094 -5.3031 -2.0338 0.9775
0.7249 -5.2576 -2.0338 0.9775
1.6366 -5.0487 -2.0339 0.9775
2.9006 -4.4446 -2.0339 0.9775
3.2810 -4.1717 -2.0339 0.9775
4.5209 -2.7805 -2.0339 0.9775
-2.2976 -4.4063 -2.0338 0.9788
-1.4884 -4.7413 -2.0338 0.9788
-1.0648 -4.8540 -2.0338 0.9788
0.2423 -4.9635 -2.0338 0.9788
0.6787 -4.9228 -2.0339 0.9788
1.5325 -4.7273 -2.0339 0.9788
2.3386 -4.3848 -2.0339 0.9788
2.7159 -4.1617 -2.0339 0.9788
3.4044 -3.6202 -2.0339 0.9788
3.9871 -2.9663 -2.0339 0.9788
-1.3977 -4.4525 -2.0338 0.9798
-0.9999 -4.5584 -2.0338 0.9798
-0.5943 -4.6287 -2.0338 0.9798
0.2275 -4.6612 -2.0339 0.9798
0.6374 -4.6230 -2.0339 0.9798
1.0423 -4.5489 -2.0339 0.9798
2.1962 -4.1178 -2.0339 0.9798
2.8850 -3.6682 -2.0339 0.9798
3.7443 -2.7857 -2.0339 0.9798
-2.0315 -3.8960 -2.0338 0.9808
-1.6803 -4.0599 -2.0338 0.9808
-1.3160 -4.1922 -2.0338 0.9808
-0.1734 -4.3904 -2.0338 0.9808
0.2142 -4.3887 -2.0339 0.9808
0.6002 -4.3527 -2.0339 0.9808
0.9814 -4.2829 -2.0339 0.9808
1.3550 -4.1797 -2.0339 0.9808
2.0677 -3.8770 -2.0339 0.9808
2.4014 -3.6797 -2.0339 0.9808
2.7163 -3.4537 -2.0339 0.9808
3.0101 -3.2009 -2.0339 0.9808
3.2805 -2.9232 -2.0339 0.9808
3.7428 -2.3020 -2.0339 0.9808
-1.9171 -3.6765 -2.0338 0.9817
-0.8884 -4.0500 -2.0338 0.9817
0.2021 -4.1414 -2.0339 0.9817
0.5663 -4.1074 -2.0339 0.9817
0.9261 -4.0416 -2.0339 0.9817
1.9512 -3.6585 -2.0339 0.9817
2.5633 -3.2591 -2.0339 0.9817
2.8405 -3.0206 -2.0339 0.9817
3.3267 -2.4750 -2.0339 0.9817
-1.8127 -3.4762 -2.0338 0.9825
-1.1742 -3.7405 -2.0338 0.9825
-0.8400 -3.8294 -2.0339 0.9825
-0.4993 -3.8886 -2.0339 0.9825
0.1912 -3.9158 -2.0339 0.9825
0.5355 -3.8837 -2.0339 0.9825
0.8757 -3.8214 -2.0339 0.9825
1.5329 -3.6084 -2.0339 0.9825
1.8450 -3.4593 -2.0339 0.9825
2.4236 -3.0816 -2.0339 0.9825
2.9271 -2.6083 -2.0339 0.9825
3.1455 -2.3402 -2.0339 0.9825
3.3395 -2.0539 -2.0339 0.9825
-1.7170 -3.2927 -2.0338 0.9832
-1.4201 -3.4312 -2.0338 0.9832
-1.1122 -3.5430 -2.0339 0.9832
-0.4729 -3.6832 -2.0339 0.9832
-0.1465 -3.7105 -2.0339 0.9832
0.5072 -3.6787 -2.0339 0.9832
0.8294 -3.6196 -2.0339 0.9832
2.5439 -2.7053 -2.0339 0.9832
-1.6287 -3.1236 -2.0339 0.9839
-1.3472 -3.2550 -2.0339 0.9839
-0.4486 -3.4941 -2.0339 0.9839
0.1718 -3.5186 -2.0339 0.9839
0.7868 -3.4338 -2.0339 0.9839
1.3774 -3.2423 -2.0339 0.9839
1.6578 -3.1083 -2.0339 0.9839
1.9252 -2.9501 -2.0339 0.9839
2.1778 -2.7690 -2.0339 0.9839
2.4134 -2.5663 -2.0339 0.9839
