ply
format ascii 1.0
element vertex 177
property float32 x
property float32 y
property float32 z
property float32 I
end_header
-16.2030 5.6979 -1.2594 0.9334
-15.9910 5.6234 -1.6274 0.9342
-16.1521 5.6800 -2.0338 0.9334
-17.0789 1.2034 -2.0338 0.9334
-17.0209 -1.8487 -2.0337 0.9334
-15.9246 -6.2867 -2.0337 0.9334
-15.3007 -7.6813 -2.0337 0.9334
-12.8272 -7.9447 -1.7923 0.9410
-11.2957 -8.4771 -1.6776 0.9447
-11.6506 -12.5448 -2.0337 0.9334
-13.5413 4.7619 -2.0338 0.9437
-13.9118 3.5357 -2.0338 0.9437
-14.2697 -1.5499 -2.0338 0.9437
-13.7675 -4.0594 -2.0337 0.9437
-13.3507 -5.2706 -2.0337 0.9437
-12.8277 -6.4398 -2.0337 0.9437
-12.2024 -7.5577 -2.0337 0.9437
-11.4801 -8.6154 -2.0337 0.9437
-9.7675 -10.5172 -2.0337 0.9437
-7.7445 -12.0846 -2.0337 0.9437
-10.7344 6.0990 -2.0339 0.9512
-11.2353 5.1177 -2.0339 0.9512
-11.6467 4.0957 -2.0338 0.9512
-12.1887 1.9622 -2.0338 0.9512
-12.3433 -0.2336 -2.0338 0.9512
-9.8739 -7.4101 -2.0337 0.9512
-8.4010 -9.0458 -2.0337 0.9512
-6.6610 -10.3939 -2.0337 0.9512
-9.4082 5.3455 -2.0339 0.9569
-10.4871 2.6654 -2.0338 0.9569
-10.6829 1.7198 -2.0338 0.9569
-10.7936 0.7605 -2.0338 0.9569
-10.7570 -1.1684 -2.0338 0.9569
-10.6100 -2.1227 -2.0338 0.9569
-9.6700 -4.8546 -2.0338 0.9569
-9.1987 -5.6973 -2.0338 0.9569
-8.6541 -6.4947 -2.0338 0.9569
-6.6270 -8.5532 -2.0337 0.9569
-8.3659 4.7532 -2.0339 0.9614
-8.7563 3.9885 -2.0339 0.9614
-9.4994 1.5293 -2.0338 0.9614
-9.5653 -1.0389 -2.0338 0.9614
-9.2287 -2.7211 -2.0338 0.9614
-8.9493 -3.5330 -2.0338 0.9614
-8.1796 -5.0662 -2.0338 0.9614
-8.6323 0.6082 -2.0338 0.9651
-8.6521 -0.1637 -2.0338 0.9651
-8.4855 -1.6977 -2.0338 0.9651
-8.3003 -2.4474 -2.0338 0.9651
-8.0491 -3.1776 -2.0338 0.9651
-7.7338 -3.8825 -2.0338 0.9651
-6.9213 -5.1942 -2.0338 0.9651
-5.8888 -6.3408 -2.0338 0.9651
-5.3001 -6.8405 -2.0338 0.9651
-6.8299 3.8805 -2.0339 0.9681
-7.1486 3.2562 -2.0339 0.9681
-7.4104 2.6059 -2.0339 0.9681
-7.8357 0.5521 -2.0338 0.9681
-7.8537 -0.1487 -2.0338 0.9681
-7.8091 -0.8482 -2.0338 0.9681
-7.7024 -1.5410 -2.0338 0.9681
-4.2383 -6.6134 -2.0338 0.9681
-6.2466 3.5492 -2.0339 0.9706
-6.7776 2.3834 -2.0339 0.9706
-6.9630 1.7697 -2.0339 0.9706
-7.1666 0.5050 -2.0338 0.9706
-7.0446 -1.4094 -2.0338 0.9706
-6.8909 -2.0318 -2.0338 0.9706
-6.6824 -2.6381 -2.0338 0.9706
-6.4206 -3.2233 -2.0338 0.9706
-6.1077 -3.7828 -2.0338 0.9706
-5.3387 -4.8074 -2.0338 0.9706
-3.8764 -6.0487 -2.0338 0.9706
-5.7493 3.2666 -2.0339 0.9727
-6.0177 2.7411 -2.0339 0.9727
-6.5284 1.0510 -2.0339 0.9727
-6.5961 0.4648 -2.0338 0.9727
-6.6112 -0.1251 -2.0338 0.9727
-6.4839 -1.2972 -2.0338 0.9727
-6.3424 -1.8701 -2.0338 0.9727
-6.1504 -2.4281 -2.0338 0.9727
-5.9095 -2.9667 -2.0338 0.9727
-5.6214 -3.4817 -2.0338 0.9727
-5.2887 -3.9690 -2.0338 0.9727
-4.4998 -4.8451 -2.0338 0.9727
-4.0500 -5.2270 -2.0338 0.9727
-3.5678 -5.5672 -2.0338 0.9727
-5.3200 3.0226 -2.0339 0.9745
-5.5682 2.5363 -2.0339 0.9745
-5.7721 2.0298 -2.0339 0.9745
-6.1175 -0.1158 -2.0338 0.9745
-5.6911 -2.2467 -2.0338 0.9745
-5.4681 -2.7452 -2.0338 0.9745
-5.2016 -3.2217 -2.0338 0.9745
-4.8937 -3.6726 -2.0338 0.9745
-3.7474 -4.8366 -2.0338 0.9745
-5.3654 1.8868 -2.0339 0.9761
-5.6151 0.9039 -2.0339 0.9761
-5.6864 -0.1076 -2.0339 0.9761
-5.6541 -0.6141 -2.0338 0.9761
-5.5768 -1.1158 -2.0338 0.9761
-5.0828 -2.5517 -2.0338 0.9761
-4.5489 -3.4137 -2.0338 0.9761
-4.2264 -3.8057 -2.0338 0.9761
-4.6146 2.6219 -2.0339 0.9775
-5.0068 1.7607 -2.0339 0.9775
-5.1438 1.3073 -2.0339 0.9775
-5.2942 0.3730 -2.0339 0.9775
-5.3063 -0.1004 -2.0339 0.9775
-5.2762 -0.5731 -2.0338 0.9775
-4.7430 -2.3812 -2.0338 0.9775
-4.5119 -2.7945 -2.0338 0.9775
-3.9439 -3.5514 -2.0338 0.9775
-3.2506 -4.1953 -2.0338 0.9775
-2.8636 -4.4684 -2.0338 0.9775
-4.3208 2.4549 -2.0339 0.9788
-2.1202 0.1494 -0.8699 0.9909
-2.1224 -0.0402 -0.8688 0.9909
-2.1121 -0.2295 -0.8695 0.9909
-2.1218 -0.4246 -0.8856 0.9907
-4.4411 -2.2296 -2.0338 0.9788
-3.6929 -3.3253 -2.0338 0.9788
-3.3817 -3.6412 -2.0338 0.9788
-4.4025 1.5482 -2.0339 0.9798
-1.9257 0.4894 -0.8660 0.9914
-1.9159 0.1350 -0.8371 0.9917
-1.9188 -0.0363 -0.8364 0.9917
-1.9046 -0.3811 -0.8465 0.9916
-4.3407 -1.7137 -2.0338 0.9798
-3.9674 -2.4573 -2.0338 0.9798
-3.7325 -2.8012 -2.0338 0.9798
-3.8204 2.1706 -2.0339 0.9808
-1.7994 0.6327 -0.8829 0.9916
-1.5725 0.3996 -0.7510 0.9929
-1.6107 0.2593 -0.7552 0.9928
-1.6083 -0.1747 -0.7488 0.9929
-1.6007 -0.3203 -0.7556 0.9928
-1.5427 -0.4549 -0.7445 0.9929
-3.7354 -2.3136 -2.0338 0.9808
-3.2652 -2.9401 -2.0338 0.9808
-2.3708 -3.6994 -2.0338 0.9808
-3.6051 2.0483 -2.0339 0.9817
-3.7733 1.7188 -2.0339 0.9817
-1.3152 0.3342 -0.6657 0.9940
-1.3521 0.0952 -0.6649 0.9940
-1.3532 -0.1470 -0.6677 0.9940
-1.3339 -0.2669 -0.6673 0.9940
-1.2532 -0.4948 -0.6609 0.9940
-3.3162 -2.4888 -2.0338 0.9817
-3.0812 -2.7745 -2.0338 0.9817
-3.4087 1.9368 -2.0339 0.9825
-1.1346 0.3990 -0.6240 0.9946
-1.1916 0.1918 -0.6261 0.9946
-1.2001 0.0845 -0.6242 0.9946
-1.1999 -0.1304 -0.6261 0.9946
-1.1804 -0.2362 -0.6245 0.9946
-1.1510 -0.3394 -0.6225 0.9946
-3.5037 -1.7590 -2.0339 0.9825
-2.4012 -3.0991 -2.0338 0.9825
-0.9959 0.4536 -0.5994 0.9950
-1.0257 0.3607 -0.5955 0.9951
-1.0436 0.2652 -0.5897 0.9951
-1.0697 0.1722 -0.5934 0.9951
-1.0811 0.0761 -0.5936 0.9951
-1.0784 -0.0204 -0.5907 0.9951
-1.0600 -0.2121 -0.5921 0.9951
-1.0146 -0.4006 -0.5975 0.9950
-0.9820 -0.4930 -0.6018 0.9950
-3.1570 -1.9553 -2.0339 0.9832
-2.7595 -2.4849 -2.0338 0.9832
-0.9481 0.3334 -0.5802 0.9954
-0.9625 0.2446 -0.5733 0.9954
-0.9897 -0.0188 -0.5715 0.9954
-0.9568 -0.2822 -0.5759 0.9954
-0.9121 -0.4579 -0.5892 0.9953
-2.9948 -1.8549 -2.0339 0.9839
-2.8175 -2.1145 -2.0339 0.9839
