ply
format ascii 1.0
element vertex 196
property float32 x
property float32 y
property float32 z
property float32 I
end_header
16.5269 -4.1127 -0.8637 0.9341
2.8219 -6.1348 -0.6483 0.9732
2.7413 -5.9597 -0.7792 0.9739
11.0284 -13.0972 -2.0338 0.9334
12.1560 -12.0582 -2.0339 0.9334
15.6133 -7.0297 -2.0340 0.9334
16.1798 -5.6048 -2.0340 0.9334
16.6164 -4.1350 -2.0340 0.9334
16.9199 -2.6320 -2.0340 0.9333
17.0877 -1.1078 -2.0340 0.9333
17.1184 0.4253 -2.0341 0.9333
17.0119 1.9549 -2.0341 0.9333
2.7167 -5.9062 -0.9211 0.9741
7.1410 -12.4518 -2.0338 0.9437
9.2458 -10.9802 -2.0339 0.9437
11.0546 -9.1570 -2.0339 0.9437
11.8296 -8.1314 -2.0339 0.9437
12.5097 -7.0407 -2.0339 0.9437
13.9304 -3.4666 -2.0340 0.9437
14.1848 -2.2065 -2.0340 0.9437
14.3254 -0.9287 -2.0340 0.9437
13.7416 4.1542 -2.0341 0.9437
13.3150 5.3668 -2.0341 0.9437
12.7815 6.5364 -2.0341 0.9437
7.0754 -10.1173 -2.0338 0.9512
8.7652 -8.6947 -2.0339 0.9512
10.1744 -6.9937 -2.0339 0.9512
12.2000 -1.8978 -2.0340 0.9512
12.3209 -0.7988 -2.0340 0.9512
12.3430 0.3066 -2.0340 0.9512
12.2662 1.4096 -2.0340 0.9512
12.0909 2.5013 -2.0340 0.9512
6.9697 -8.2772 -2.0339 0.9569
8.9174 -6.1296 -2.0339 0.9569
9.4300 -5.3074 -2.0339 0.9569
10.2250 -3.5421 -2.0339 0.9569
10.7507 1.2354 -2.0340 0.9569
10.5971 2.1922 -2.0340 0.9569
3.2873 -5.7321 -1.3968 0.9733
6.8312 -6.7762 -2.0339 0.9614
7.4100 -6.1380 -2.0339 0.9614
8.7739 -3.9503 -2.0339 0.9614
9.0921 -3.1496 -2.0339 0.9614
9.3375 -2.3236 -2.0340 0.9614
9.6022 -0.6225 -2.0340 0.9614
9.5596 1.0986 -2.0340 0.9614
8.5673 4.3813 -2.0340 0.9614
2.6758 -5.8171 -1.5049 0.9740
4.9595 -7.0918 -2.0339 0.9651
6.1439 -6.0946 -2.0339 0.9651
6.6645 -5.5205 -2.0339 0.9651
7.5417 -4.2446 -2.0339 0.9651
8.3982 -2.0899 -2.0339 0.9651
8.5514 -1.3302 -2.0340 0.9651
8.6362 -0.5599 -2.0340 0.9651
8.5979 0.9880 -2.0340 0.9651
8.4750 1.7532 -2.0340 0.9651
8.0270 3.2354 -2.0340 0.9651
7.7054 3.9405 -2.0340 0.9651
3.3705 -5.8772 -1.7542 0.9724
5.5770 -5.5321 -2.0339 0.9681
6.0495 -5.0111 -2.0339 0.9681
6.4736 -4.4498 -2.0339 0.9681
7.1630 -3.2250 -2.0339 0.9681
7.7623 -1.2075 -2.0340 0.9681
7.8392 -0.5082 -2.0340 0.9681
7.8532 0.1951 -2.0340 0.9681
7.8043 0.8969 -2.0340 0.9681
7.5196 2.2732 -2.0340 0.9681
7.2862 2.9368 -2.0340 0.9681
2.7047 -5.8801 -1.8323 0.9735
3.5742 -6.2323 -2.0339 0.9706
4.1173 -5.8876 -2.0339 0.9706
4.6276 -5.4957 -2.0339 0.9706
5.9207 -4.0698 -2.0339 0.9706
6.2611 -3.5239 -2.0339 0.9706
6.7889 -2.3517 -2.0339 0.9706
6.9721 -1.7350 -2.0339 0.9706
6.8775 2.0791 -2.0340 0.9706
6.6639 2.6860 -2.0340 0.9706
3.7896 -5.4189 -2.0339 0.9727
4.6946 -4.6569 -2.0339 0.9727
5.4494 -3.7458 -2.0339 0.9727
6.0297 -2.7148 -2.0339 0.9727
6.5989 -0.4279 -2.0340 0.9727
6.4758 1.3396 -2.0340 0.9727
6.3300 1.9136 -2.0340 0.9727
6.1334 2.4722 -2.0340 0.9727
5.8877 3.0110 -2.0340 0.9727
2.5569 -5.5588 -2.0339 0.9745
3.0439 -5.3077 -2.0339 0.9745
3.9411 -4.6804 -2.0339 0.9745
5.3323 -3.0011 -2.0339 0.9745
6.1170 0.1519 -2.0340 0.9745
5.9921 1.2396 -2.0340 0.9745
5.6753 2.2875 -2.0340 0.9745
2.8295 -4.9337 -2.0339 0.9761
4.6870 -3.2218 -2.0339 0.9761
4.9565 -2.7896 -2.0339 0.9761
5.5193 -1.3735 -2.0339 0.9761
5.6859 0.1412 -2.0340 0.9761
5.6505 0.6493 -2.0340 0.9761
5.5698 1.1522 -2.0340 0.9761
5.4444 1.6459 -2.0340 0.9761
5.2753 2.1263 -2.0340 0.9761
3.4185 -4.0598 -2.0339 0.9775
3.7680 -3.7377 -2.0339 0.9775
4.3737 -3.0065 -2.0339 0.9775
4.6253 -2.6032 -2.0339 0.9775
4.8396 -2.1790 -2.0339 0.9775
5.1504 -1.2817 -2.0339 0.9775
5.2445 -0.8158 -2.0339 0.9775
5.2964 -0.3434 -2.0339 0.9775
5.3059 0.1318 -2.0339 0.9775
5.2729 0.6059 -2.0340 0.9775
5.1975 1.0752 -2.0340 0.9775
5.0805 1.5358 -2.0340 0.9775
4.9228 1.9842 -2.0340 0.9775
4.7255 2.4166 -2.0340 0.9775
2.0767 -4.5147 -2.0339 0.9788
2.4722 -4.3109 -2.0339 0.9788
2.8480 -4.0724 -2.0339 0.9788
3.5281 -3.4998 -2.0339 0.9788
3.8271 -3.1701 -2.0339 0.9788
4.0954 -2.8151 -2.0339 0.9788
4.3308 -2.4374 -2.0339 0.9788
4.5315 -2.0403 -2.0339 0.9788
4.8666 1.0067 -2.0340 0.9787
4.6093 1.8579 -2.0340 0.9787
1.9502 -4.2398 -2.0339 0.9798
2.3217 -4.0483 -2.0339 0.9798
2.6745 -3.8244 -2.0339 0.9798
3.5940 -2.9771 -2.0339 0.9798
4.2555 -1.9160 -2.0339 0.9798
4.6115 -0.7174 -2.0339 0.9798
4.6656 0.1159 -2.0339 0.9798
4.5702 0.9454 -2.0340 0.9798
4.4673 1.3505 -2.0340 0.9798
2.1859 -3.8116 -2.0339 0.9808
2.5181 -3.6008 -2.0339 0.9808
2.8302 -3.3611 -2.0339 0.9808
3.3839 -2.8030 -2.0339 0.9808
3.6211 -2.4890 -2.0339 0.9808
4.0066 -1.8040 -2.0339 0.9808
4.2640 -1.0611 -2.0339 0.9808
4.3418 -0.6754 -2.0339 0.9808
4.3654 0.5016 -2.0339 0.9808
4.2061 1.2715 -2.0340 0.9808
3.9122 2.0007 -2.0340 0.9808
2.0627 -3.5969 -2.0339 0.9817
2.6707 -3.1717 -2.0339 0.9817
2.9437 -2.9201 -2.0339 0.9817
3.4170 -2.3488 -2.0339 0.9817
3.7809 -1.7023 -2.0339 0.9817
4.0972 -0.6374 -2.0339 0.9817
4.1378 -0.2683 -2.0339 0.9817
4.1452 0.1029 -2.0339 0.9817
4.1194 0.4734 -2.0339 0.9817
3.8459 1.5501 -2.0340 0.9817
1.6384 -3.5618 -2.0339 0.9825
1.9505 -3.4009 -2.0339 0.9825
2.2468 -3.2128 -2.0339 0.9825
2.5252 -2.9989 -2.0339 0.9825
2.7834 -2.7610 -2.0339 0.9825
3.0193 -2.5010 -2.0339 0.9825
3.2309 -2.2208 -2.0339 0.9825
3.4166 -1.9229 -2.0339 0.9825
3.5750 -1.6096 -2.0339 0.9825
3.7046 -1.2833 -2.0339 0.9825
3.8046 -0.9468 -2.0339 0.9825
2.0988 -0.3265 -1.1019 0.9905
2.0835 0.2394 -1.0880 0.9906
3.7529 1.1345 -2.0339 0.9825
3.6364 1.4657 -2.0339 0.9825
3.4907 1.7851 -2.0340 0.9825
1.8474 -3.2213 -2.0339 0.9832
2.3919 -2.8406 -2.0339 0.9832
2.8598 -2.3689 -2.0339 0.9832
3.0603 -2.1036 -2.0339 0.9832
3.2362 -1.8214 -2.0339 0.9832
3.3862 -1.5246 -2.0339 0.9832
1.9411 -0.6724 -1.1251 0.9907
1.8495 -0.2877 -1.0251 0.9915
1.8523 -0.1201 -1.0167 0.9916
1.8521 0.0460 -1.0147 0.9916
1.8469 0.2122 -1.0182 0.9916
1.8566 0.3840 -1.0384 0.9914
1.8754 0.5669 -1.0731 0.9911
3.4443 1.3883 -2.0339 0.9832
2.2691 -2.6947 -2.0339 0.9839
2.9031 -1.9955 -2.0339 0.9839
3.0700 -1.7279 -2.0339 0.9839
1.7799 -0.8014 -1.1270 0.9910
1.7245 0.0428 -0.9960 0.9921
1.7146 0.3547 -1.0109 0.9919
3.1366 1.6040 -2.0339 0.9839
