ply
format ascii 1.0
element vertex 213
property float32 x
property float32 y
property float32 z
property float32 I
end_header
2.5148 -6.4795 -0.6673 0.9725
-13.3094 -10.7689 -2.0337 0.9334
-12.2870 -11.9221 -2.0337 0.9334
-9.9526 -13.9303 -2.0337 0.9334
-5.8739 -16.0813 -2.0337 0.9334
-2.8982 -16.8736 -2.0337 0.9334
0.1713 -17.1199 -2.0337 0.9334
1.7103 -17.0353 -2.0337 0.9334
2.4100 -6.2095 -0.7912 0.9735
2.9459 -5.9419 -0.7878 0.9736
11.4237 -12.7539 -2.0339 0.9334
14.4136 -9.2429 -2.0339 0.9334
-11.1582 -9.0283 -2.0337 0.9437
-10.3010 -9.9952 -2.0337 0.9437
-9.3604 -10.8811 -2.0337 0.9437
-7.2598 -12.3818 -2.0337 0.9437
-6.1169 -12.9846 -2.0337 0.9437
-3.6920 -13.8704 -2.0337 0.9437
0.1437 -14.3528 -2.0337 0.9437
2.7125 -14.0951 -2.0338 0.9437
1.7548 -6.0984 -0.8991 0.9747
2.3746 -6.1183 -0.9299 0.9738
7.5068 -12.2348 -2.0338 0.9437
12.0837 -7.7488 -2.0339 0.9437
-8.8599 -8.5968 -2.0337 0.9512
-7.1766 -10.0449 -2.0337 0.9512
-5.2611 -11.1680 -2.0337 0.9512
-3.1755 -11.9298 -2.0337 0.9512
-0.9871 -12.3058 -2.0338 0.9512
0.1236 -12.3447 -2.0338 0.9512
2.3330 -12.1230 -2.0338 0.9512
2.3146 -5.9637 -1.0539 0.9744
2.8989 -5.8470 -1.0751 0.9739
7.3766 -9.8998 -2.0339 0.9512
-7.0562 -8.2026 -2.0337 0.9569
-6.2900 -8.8040 -2.0337 0.9569
-4.6112 -9.7884 -2.0338 0.9569
-3.7122 -10.1634 -2.0338 0.9569
-2.7832 -10.4561 -2.0338 0.9569
-1.8316 -10.6640 -2.0338 0.9569
0.1083 -10.8197 -2.0338 0.9569
2.0448 -10.6254 -2.0338 0.9569
2.3025 -5.9327 -1.1961 0.9744
2.8061 -5.6599 -1.1874 0.9746
5.6588 -9.2230 -2.0338 0.9569
7.2195 -8.0602 -2.0339 0.9569
7.9152 -7.3783 -2.0339 0.9569
8.5467 -6.6367 -2.0339 0.9569
-6.9051 -6.7001 -2.0338 0.9614
-4.8665 -8.2999 -2.0338 0.9614
0.9612 -9.5734 -2.0338 0.9614
1.8182 -9.4482 -2.0338 0.9614
1.7259 -5.9981 -1.3193 0.9748
2.7853 -5.6180 -1.3255 0.9747
6.4197 -7.1672 -2.0339 0.9614
7.0382 -6.5609 -2.0339 0.9614
8.0998 -5.1941 -2.0339 0.9614
-6.7272 -5.4432 -2.0338 0.9651
-3.6879 -7.8284 -2.0338 0.9651
-0.6919 -8.6259 -2.0338 0.9651
0.8645 -8.6104 -2.0338 0.9651
2.2448 -5.7838 -1.4581 0.9748
4.5257 -7.3762 -2.0339 0.9651
5.1707 -6.9393 -2.0339 0.9651
6.8353 -5.3077 -2.0339 0.9651
7.2849 -4.6715 -2.0339 0.9651
-6.1064 -4.9409 -2.0338 0.9681
-5.1225 -5.9548 -2.0338 0.9681
-1.3297 -7.7417 -2.0338 0.9681
-0.6280 -7.8299 -2.0338 0.9681
0.7847 -7.8158 -2.0338 0.9681
1.4844 -7.7136 -2.0338 0.9681
1.6927 -5.8829 -1.5850 0.9750
2.2016 -5.6726 -1.5755 0.9752
2.8500 -5.7485 -1.6613 0.9738
4.6935 -6.2989 -2.0339 0.9681
5.2410 -5.8513 -2.0339 0.9681
5.7460 -5.3563 -2.0339 0.9681
6.2045 -4.8179 -2.0339 0.9681
-5.5850 -4.5189 -2.0338 0.9706
-5.1560 -5.0029 -2.0338 0.9706
-4.6852 -5.4463 -2.0338 0.9706
-3.0617 -6.4992 -2.0338 0.9706
-2.4648 -6.7481 -2.0338 0.9706
-1.2161 -7.0806 -2.0338 0.9706
0.0719 -7.1840 -2.0338 0.9706
0.7177 -7.1484 -2.0338 0.9706
1.3577 -7.0549 -2.0338 0.9706
2.5207 -6.4947 -1.9722 0.9715
3.7572 -6.1237 -2.0339 0.9706
4.2927 -5.7610 -2.0339 0.9706
5.2553 -4.8989 -2.0339 0.9706
-5.1404 -4.1592 -2.0338 0.9727
-3.8439 -5.3802 -2.0338 0.9727
-3.3445 -5.7041 -2.0338 0.9727
-1.7009 -6.3899 -2.0338 0.9727
-1.1193 -6.5170 -2.0338 0.9727
5.5664 -3.5696 -2.0339 0.9727
-4.7565 -3.8486 -2.0338 0.9745
-3.5569 -4.9784 -2.0338 0.9745
-1.0357 -6.0302 -2.0338 0.9745
0.6112 -6.0880 -2.0338 0.9745
1.6919 -5.8800 -2.0338 0.9745
2.2138 -5.7041 -2.0339 0.9745
2.7179 -5.4819 -2.0339 0.9745
4.0823 -4.5577 -2.0339 0.9745
-4.4213 -3.5774 -2.0338 0.9761
-4.0816 -3.9604 -2.0338 0.9761
-3.3062 -4.6276 -2.0338 0.9761
-2.8766 -4.9062 -2.0338 0.9761
-1.9512 -5.3421 -2.0338 0.9761
-1.4629 -5.4960 -2.0338 0.9761
-0.9627 -5.6053 -2.0338 0.9761
0.5681 -5.6589 -2.0338 0.9761
3.3983 -4.5606 -2.0339 0.9761
-3.8089 -3.6958 -2.0338 0.9775
-3.4611 -4.0234 -2.0338 0.9775
-3.0852 -4.3183 -2.0338 0.9775
-2.6844 -4.5783 -2.0338 0.9775
-1.8209 -4.9851 -2.0338 0.9775
-0.8984 -5.2307 -2.0338 0.9775
0.0532 -5.3070 -2.0338 0.9775
0.5302 -5.2807 -2.0338 0.9775
3.8822 -3.6189 -2.0339 0.9775
-3.8632 -3.1258 -2.0338 0.9788
-3.2408 -3.7672 -2.0338 0.9788
-2.8888 -4.0434 -2.0338 0.9788
-2.5135 -4.2868 -2.0338 0.9788
-2.1178 -4.4955 -2.0338 0.9788
-1.7049 -4.6678 -2.0338 0.9788
-0.8412 -4.8977 -2.0338 0.9788
0.4964 -4.9446 -2.0338 0.9788
1.7980 -4.6328 -2.0339 0.9788
3.3156 -3.7017 -2.0339 0.9788
3.9251 -3.0479 -2.0339 0.9788
4.1833 -2.6826 -2.0339 0.9788
-2.7129 -3.7972 -2.0338 0.9798
-2.3605 -4.0258 -2.0338 0.9798
-1.9888 -4.2218 -2.0338 0.9798
-1.2004 -4.5097 -2.0338 0.9798
-0.7900 -4.5994 -2.0338 0.9798
-0.3731 -4.6518 -2.0338 0.9798
0.4662 -4.6434 -2.0339 0.9798
0.8819 -4.5827 -2.0339 0.9798
1.2904 -4.4848 -2.0339 0.9798
1.6886 -4.3506 -2.0339 0.9798
2.0730 -4.1811 -2.0339 0.9798
2.7884 -3.7422 -2.0339 0.9798
3.1137 -3.4763 -2.0339 0.9798
3.6861 -2.8623 -2.0339 0.9798
3.9286 -2.5192 -2.0339 0.9798
-3.1534 -3.0598 -2.0338 0.9808
-2.8654 -3.3309 -2.0338 0.9808
-1.8725 -3.9749 -2.0338 0.9808
-0.3513 -4.3798 -2.0338 0.9808
0.0440 -4.3937 -2.0339 0.9808
1.5898 -4.0962 -2.0339 0.9808
1.9517 -3.9367 -2.0339 0.9808
2.2979 -3.7452 -2.0339 0.9808
3.2141 -2.9961 -2.0339 0.9808
3.4705 -2.6949 -2.0339 0.9808
-2.9757 -2.8874 -2.0338 0.9817
-2.7040 -3.1432 -2.0338 0.9817
-2.0972 -3.5768 -2.0338 0.9817
-1.4225 -3.8946 -2.0338 0.9817
-0.7019 -4.0864 -2.0338 0.9817
-0.3316 -4.1330 -2.0339 0.9817
0.0415 -4.1461 -2.0339 0.9817
0.4142 -4.1256 -2.0339 0.9817
1.5002 -3.8654 -2.0339 0.9817
2.1684 -3.5341 -2.0339 0.9817
2.4775 -3.3249 -2.0339 0.9817
3.0330 -2.8273 -2.0339 0.9817
3.4904 -2.2382 -2.0339 0.9817
-2.8136 -2.7301 -2.0338 0.9825
-2.2791 -3.1900 -2.0338 0.9825
-1.6708 -3.5466 -2.0338 0.9825
-1.3451 -3.6825 -2.0338 0.9825
-0.6637 -3.8639 -2.0339 0.9825
-0.3135 -3.9079 -2.0339 0.9825
0.3916 -3.9009 -2.0339 0.9825
0.7409 -3.8498 -2.0339 0.9825
1.0841 -3.7676 -2.0339 0.9825
1.4185 -3.6549 -2.0339 0.9825
2.6158 -2.9204 -2.0339 0.9825
3.3003 -2.1163 -2.0339 0.9825
-2.6650 -2.5859 -2.0338 0.9832
-2.4216 -2.8151 -2.0338 0.9832
-2.1587 -3.0215 -2.0338 0.9832
-1.8782 -3.2034 -2.0338 0.9832
-1.5826 -3.3593 -2.0338 0.9832
-0.6286 -3.6598 -2.0339 0.9832
0.0372 -3.7133 -2.0339 0.9832
0.3709 -3.6949 -2.0339 0.9832
0.7017 -3.6465 -2.0339 0.9832
1.9420 -3.1652 -2.0339 0.9832
2.2188 -2.9777 -2.0339 0.9832
2.7164 -2.5321 -2.0339 0.9832
2.9331 -2.2776 -2.0339 0.9832
-2.5282 -2.4531 -2.0339 0.9839
-2.2973 -2.6706 -2.0339 0.9839
-2.0479 -2.8664 -2.0339 0.9839
-1.5013 -3.1868 -2.0339 0.9839
-1.2086 -3.3089 -2.0339 0.9839
-0.9062 -3.4042 -2.0339 0.9839
-0.5963 -3.4719 -2.0339 0.9839
-0.2817 -3.5115 -2.0339 0.9839
0.3519 -3.5052 -2.0339 0.9839
0.6657 -3.4593 -2.0339 0.9839
0.9741 -3.3854 -2.0339 0.9839
1.5648 -3.1562 -2.0339 0.9839
1.8423 -3.0027 -2.0339 0.9839
2.5769 -2.4021 -2.0339 0.9839
