ply
format ascii 1.0
element vertex 201
property float32 x
property float32 y
property float32 z
property float32 I
end_header
-11.8677 -8.1752 -0.7308 0.9439
-11.4720 -7.9027 -1.3374 0.9456
-16.9288 -2.5575 -2.0337 0.9334
-16.6277 -4.0796 -2.0337 0.9334
-16.1900 -5.5680 -2.0337 0.9334
-15.6193 -7.0108 -2.0337 0.9334
-14.9204 -8.3961 -2.0337 0.9334
-11.4376 -7.8790 -1.6498 0.9456
-13.1618 -10.9488 -2.0337 0.9334
-12.1166 -12.0954 -2.0337 0.9334
-10.9718 -13.1426 -2.0337 0.9334
-9.7369 -14.0819 -2.0337 0.9334
-2.5871 -16.9241 -2.0337 0.9334
-1.0443 -17.0889 -2.0337 0.9334
2.0542 -16.9973 -2.0337 0.9334
3.5846 -16.7416 -2.0337 0.9334
-13.9402 -3.4202 -2.0337 0.9437
-12.5088 -7.0390 -2.0337 0.9437
-11.8202 -8.1425 -2.0337 0.9437
-10.1582 -10.1404 -2.0337 0.9437
-7.0609 -12.4964 -2.0337 0.9437
-5.9005 -13.0843 -2.0337 0.9437
-3.4445 -13.9339 -2.0337 0.9437
-2.1689 -14.1886 -2.0337 0.9437
-0.8755 -14.3268 -2.0337 0.9437
0.4251 -14.3473 -2.0337 0.9437
1.7222 -14.2500 -2.0338 0.9437
-12.2069 -1.8441 -2.0338 0.9512
-11.9898 -2.9416 -2.0338 0.9512
-11.2627 -5.0554 -2.0337 0.9512
-10.7588 -6.0542 -2.0337 0.9512
-10.1665 -7.0033 -2.0337 0.9512
-9.4907 -7.8949 -2.0337 0.9512
-7.9115 -9.4768 -2.0337 0.9512
-7.0211 -10.1541 -2.0337 0.9512
-6.0730 -10.7480 -2.0337 0.9512
-5.0751 -11.2538 -2.0337 0.9512
-4.0354 -11.6670 -2.0337 0.9512
-1.8655 -12.2035 -2.0337 0.9512
-0.7530 -12.3223 -2.0338 0.9512
0.3656 -12.3400 -2.0338 0.9512
1.4812 -12.2563 -2.0338 0.9512
2.5847 -12.0719 -2.0338 0.9512
-10.5086 -2.5782 -2.0338 0.9569
-10.2320 -3.5190 -2.0338 0.9569
-9.8713 -4.4308 -2.0338 0.9569
-9.4297 -5.3063 -2.0338 0.9569
-8.9105 -6.1381 -2.0338 0.9569
-8.3182 -6.9196 -2.0338 0.9569
-7.6577 -7.6442 -2.0337 0.9569
-6.9342 -8.3061 -2.0337 0.9569
-4.4481 -9.8635 -2.0338 0.9569
1.2983 -10.7421 -2.0338 0.9569
1.4037 -6.5558 -1.2602 0.9731
-9.0984 -3.1291 -2.0338 0.9614
-7.3967 -6.1530 -2.0338 0.9614
-6.8093 -6.7974 -2.0338 0.9614
-4.7331 -8.3767 -2.0338 0.9614
-0.5869 -9.6036 -2.0338 0.9614
0.2849 -9.6173 -2.0338 0.9614
-7.8948 -3.5436 -2.0338 0.9651
-6.6527 -5.5341 -2.0338 0.9651
-5.5457 -6.6429 -2.0338 0.9651
-4.9216 -7.1177 -2.0338 0.9651
-4.2570 -7.5340 -2.0338 0.9651
-2.0767 -8.4007 -2.0338 0.9651
-0.5279 -8.6375 -2.0338 0.9651
0.2562 -8.6499 -2.0338 0.9651
1.0383 -8.5912 -2.0338 0.9651
1.3207 -6.1685 -1.4826 0.9744
-7.7670 -1.1734 -2.0338 0.9681
-7.4280 -2.5547 -2.0338 0.9681
-6.8456 -3.8522 -2.0338 0.9681
-5.5592 -5.5495 -2.0338 0.9681
-5.0339 -6.0299 -2.0338 0.9681
-4.4674 -6.4609 -2.0338 0.9681
-3.8641 -6.8388 -2.0338 0.9681
-1.8851 -7.6255 -2.0338 0.9681
-1.1870 -7.7648 -2.0338 0.9681
-6.2610 -3.5232 -2.0338 0.9706
-5.9163 -4.0755 -2.0338 0.9706
-4.0859 -5.9092 -2.0338 0.9706
-3.5341 -6.2548 -2.0338 0.9706
-2.9534 -6.5491 -2.0338 0.9706
-1.0856 -7.1018 -2.0338 0.9706
-0.4382 -7.1709 -2.0338 0.9706
1.5042 -7.0251 -2.0338 0.9706
-6.4219 -1.5756 -2.0338 0.9727
-5.4454 -3.7511 -2.0338 0.9727
-4.6797 -4.6715 -2.0338 0.9727
-4.2376 -5.0760 -2.0338 0.9727
-3.7607 -5.4388 -2.0338 0.9727
-3.2528 -5.7569 -2.0338 0.9727
-2.7183 -6.0278 -2.0338 0.9727
-2.1615 -6.2491 -2.0338 0.9727
-0.9992 -6.5364 -2.0338 0.9727
-0.4034 -6.6001 -2.0338 0.9727
0.7934 -6.5646 -2.0338 0.9727
1.3844 -6.4659 -2.0338 0.9727
-6.0499 -0.9140 -2.0338 0.9745
-5.7859 -1.9899 -2.0338 0.9745
-5.5820 -2.5055 -2.0338 0.9745
-5.3323 -3.0006 -2.0338 0.9745
-4.3302 -4.3226 -2.0338 0.9745
-3.9211 -4.6969 -2.0338 0.9745
-2.0000 -5.7824 -2.0338 0.9745
-1.4683 -5.9397 -2.0338 0.9745
-0.3732 -6.1071 -2.0338 0.9745
0.1812 -6.1159 -2.0338 0.9745
-5.6236 -0.8496 -2.0338 0.9761
-5.5235 -1.3552 -2.0338 0.9761
-5.3782 -1.8497 -2.0338 0.9761
-5.1886 -2.3289 -2.0338 0.9761
-4.9564 -2.7891 -2.0338 0.9761
-4.6836 -3.2264 -2.0338 0.9761
-4.0251 -4.0180 -2.0338 0.9761
-2.3380 -5.1845 -2.0338 0.9761
-1.8591 -5.3749 -2.0338 0.9761
-1.3648 -5.5212 -2.0338 0.9761
-0.8594 -5.6220 -2.0338 0.9761
-0.3469 -5.6768 -2.0338 0.9761
0.6823 -5.6463 -2.0338 0.9761
1.1908 -5.5613 -2.0338 0.9761
-5.0187 -1.7261 -2.0338 0.9775
-3.7561 -3.7495 -2.0338 0.9775
-3.0184 -4.3653 -2.0338 0.9775
-2.1818 -4.8380 -2.0338 0.9775
-1.2737 -5.1522 -2.0338 0.9775
-0.8020 -5.2463 -2.0338 0.9775
-0.3237 -5.2974 -2.0338 0.9775
0.1571 -5.3050 -2.0338 0.9775
0.6368 -5.2689 -2.0338 0.9775
1.1111 -5.1897 -2.0339 0.9775
-2.1136 -0.3193 -0.8749 0.9908
-4.5336 -2.0350 -2.0338 0.9788
-4.0923 -2.8191 -2.0338 0.9788
-3.1846 -3.8147 -2.0338 0.9788
-0.3031 -4.9602 -2.0338 0.9788
0.5962 -4.9335 -2.0339 0.9788
-1.9015 -0.4666 -0.8533 0.9915
-4.4130 -1.5178 -2.0338 0.9798
-4.0670 -2.2886 -2.0338 0.9798
-3.8431 -2.6474 -2.0338 0.9798
-2.9907 -3.5825 -2.0338 0.9798
-2.6541 -3.8385 -2.0338 0.9798
-1.1199 -4.5304 -2.0338 0.9798
-0.7052 -4.6131 -2.0338 0.9798
0.1382 -4.6647 -2.0338 0.9798
0.5600 -4.6331 -2.0339 0.9798
0.9771 -4.5634 -2.0339 0.9798
-4.0086 -1.7993 -2.0338 0.9808
-3.8292 -2.1548 -2.0338 0.9808
-3.3779 -2.8099 -2.0338 0.9808
-3.1096 -3.1042 -2.0338 0.9808
-2.8159 -3.3730 -2.0338 0.9808
-2.1615 -3.8254 -2.0338 0.9808
-1.8063 -4.0054 -2.0338 0.9808
-0.6640 -4.3434 -2.0338 0.9808
0.5272 -4.3621 -2.0339 0.9808
0.9199 -4.2965 -2.0339 0.9808
-3.7827 -1.6979 -2.0338 0.9817
-3.6134 -2.0334 -2.0338 0.9817
-2.3581 -3.4104 -2.0338 0.9817
-2.0397 -3.6099 -2.0338 0.9817
-1.3553 -3.9185 -2.0338 0.9817
-0.9950 -4.0251 -2.0338 0.9817
-0.6266 -4.0987 -2.0338 0.9817
-0.2529 -4.1386 -2.0339 0.9817
-1.1939 -0.1804 -0.6264 0.9946
-1.1677 -0.2865 -0.6237 0.9946
-1.1041 -0.4956 -0.6279 0.9946
-3.4166 -1.9226 -2.0338 0.9825
-3.0139 -2.5072 -2.0338 0.9825
-2.2297 -3.2247 -2.0338 0.9825
-1.2815 -3.7051 -2.0338 0.9825
-0.9409 -3.8059 -2.0338 0.9825
-0.2391 -3.9132 -2.0339 0.9825
0.4704 -3.8922 -2.0339 0.9825
-1.0718 -0.1620 -0.5937 0.9951
-1.0459 -0.2566 -0.5898 0.9951
-1.0275 -0.3534 -0.5951 0.9951
-0.9978 -0.4479 -0.5990 0.9950
-3.0580 -2.1066 -2.0339 0.9832
-2.6281 -2.6235 -2.0338 0.9832
-2.1120 -3.0544 -2.0338 0.9832
-1.5266 -3.3851 -2.0338 0.9832
-0.8912 -3.6049 -2.0339 0.9832
-0.2266 -3.7065 -2.0339 0.9832
0.1100 -3.7118 -2.0339 0.9832
-0.9828 -0.1485 -0.5738 0.9954
-0.9648 -0.2367 -0.5735 0.9954
-0.9495 -0.3266 -0.5797 0.9954
-0.9261 -0.4157 -0.5861 0.9953
-2.9010 -1.9984 -2.0339 0.9839
-2.7082 -2.2529 -2.0339 0.9839
-2.2576 -2.7043 -2.0339 0.9839
-0.8454 -3.4198 -2.0339 0.9839
-0.5323 -3.4823 -2.0339 0.9839
-0.2149 -3.5162 -2.0339 0.9839
0.4227 -3.4973 -2.0339 0.9839
0.7375 -3.4447 -2.0339 0.9839
