ply
format ascii 1.0
element vertex 186
property float32 x
property float32 y
property float32 z
property float32 I
end_header
-11.7909 -8.4574 -0.7359 0.9435
-11.5912 -8.3141 -1.0459 0.9444
-11.4385 -8.2046 -1.3514 0.9450
-12.9425 -11.2071 -2.0337 0.9334
-10.6887 -13.3738 -2.0337 0.9334
-5.1988 -16.3121 -2.0337 0.9334
-3.6877 -16.7187 -2.0337 0.9334
-2.1457 -16.9857 -2.0337 0.9334
-0.5859 -17.1107 -2.0337 0.9334
0.9789 -17.0929 -2.0337 0.9334
2.5355 -16.9322 -2.0337 0.9334
-12.9902 -6.1053 -2.0337 0.9437
-12.3784 -7.2659 -2.0337 0.9437
-11.6633 -8.3658 -2.0337 0.9437
-7.8999 -11.9836 -2.0337 0.9437
-5.5889 -13.2204 -2.0337 0.9437
-4.3585 -13.6756 -2.0337 0.9437
-3.0916 -14.0165 -2.0337 0.9437
2.1348 -6.2022 -0.9294 0.9738
-10.6466 -6.2494 -2.0337 0.9512
-10.0315 -7.1953 -2.0337 0.9512
-8.5557 -8.8996 -2.0337 0.9512
-5.8252 -10.8844 -2.0337 0.9512
-4.8070 -11.3709 -2.0337 0.9512
-3.7487 -11.7623 -2.0337 0.9512
-1.5473 -12.2480 -2.0338 0.9512
-0.4225 -12.3381 -2.0338 0.9512
0.7059 -12.3252 -2.0338 0.9512
1.8283 -12.2093 -2.0338 0.9512
1.5725 -6.4238 -1.0895 0.9735
2.6423 -5.8704 -1.0605 0.9742
-8.1797 -7.0829 -2.0338 0.9569
-6.7552 -8.4523 -2.0337 0.9569
-5.9553 -9.0337 -2.0337 0.9569
-4.2132 -9.9661 -2.0338 0.9569
-2.3306 -10.5662 -2.0338 0.9569
-0.3703 -10.8139 -2.0338 0.9569
1.5158 -6.1921 -1.1982 0.9744
2.0568 -5.9753 -1.1878 0.9746
2.5691 -5.7079 -1.1765 0.9748
-5.2955 -8.0329 -2.0338 0.9614
-3.7465 -8.8620 -2.0338 0.9614
-2.9216 -9.1671 -2.0338 0.9614
-2.0724 -9.3956 -2.0338 0.9614
-1.2059 -9.5456 -2.0338 0.9614
0.5501 -9.6058 -2.0338 0.9614
1.4249 -9.5155 -2.0338 0.9614
1.5136 -6.1833 -1.3456 0.9743
1.9895 -5.7798 -1.2921 0.9753
-7.8317 -3.6809 -2.0338 0.9651
-7.4629 -4.3806 -2.0338 0.9651
-6.5418 -5.6646 -2.0338 0.9651
-5.4027 -6.7599 -2.0338 0.9651
-4.7628 -7.2249 -2.0338 0.9651
-4.0833 -7.6296 -2.0338 0.9651
-2.6277 -8.2450 -2.0338 0.9651
-0.2961 -8.6486 -2.0338 0.9651
0.4948 -8.6395 -2.0338 0.9651
1.4827 -6.0568 -1.4655 0.9747
1.9746 -5.7367 -1.4259 0.9754
2.5819 -5.7362 -1.4784 0.9745
-5.4439 -5.6626 -2.0338 0.9681
-4.3234 -6.5582 -2.0338 0.9681
-3.7064 -6.9255 -2.0338 0.9681
-3.0587 -7.2351 -2.0338 0.9681
-2.3852 -7.4841 -2.0338 0.9681
-1.6920 -7.6706 -2.0338 0.9681
-0.9845 -7.7931 -2.0338 0.9681
-0.2688 -7.8504 -2.0338 0.9681
0.4491 -7.8422 -2.0338 0.9681
1.4675 -5.9946 -1.5979 0.9748
2.0095 -5.8380 -1.5986 0.9748
-6.5020 -3.0559 -2.0338 0.9706
-5.8378 -4.1873 -2.0338 0.9706
-5.4311 -4.7028 -2.0338 0.9706
-4.4853 -5.6121 -2.0338 0.9706
-3.3900 -6.3341 -2.0338 0.9706
-2.1816 -6.8450 -2.0338 0.9706
-1.5474 -7.0156 -2.0338 0.9706
-0.9004 -7.1276 -2.0338 0.9706
-0.2458 -7.1801 -2.0338 0.9706
1.4751 -6.0260 -1.7563 0.9745
2.0270 -5.8888 -1.7631 0.9744
2.7308 -6.0671 -1.8835 0.9727
-5.9843 -2.8126 -2.0338 0.9727
-5.7025 -3.3473 -2.0338 0.9727
-5.3731 -3.8540 -2.0338 0.9727
-4.5826 -4.7668 -2.0338 0.9727
-4.1282 -5.1653 -2.0338 0.9727
-3.6394 -5.5207 -2.0338 0.9727
-2.5748 -6.0904 -2.0338 0.9727
-2.0079 -6.3001 -2.0338 0.9727
-1.4243 -6.4571 -2.0338 0.9727
-0.2263 -6.6085 -2.0338 0.9727
0.3781 -6.6016 -2.0338 0.9727
0.9793 -6.5395 -2.0338 0.9727
2.0475 -5.9484 -1.9349 0.9740
-5.2766 -3.0973 -2.0338 0.9745
-4.6254 -4.0052 -2.0338 0.9745
-4.2404 -4.4108 -2.0338 0.9745
-2.8870 -5.3945 -2.0338 0.9745
-2.3825 -5.6356 -2.0338 0.9745
-1.8579 -5.8296 -2.0338 0.9745
-1.3179 -5.9749 -2.0338 0.9745
0.3498 -6.1086 -2.0338 0.9745
0.9061 -6.0511 -2.0338 0.9745
1.4548 -5.9431 -2.0338 0.9745
2.5113 -5.5795 -2.0339 0.9745
-4.9048 -2.8790 -2.0338 0.9761
-4.6214 -3.3148 -2.0338 0.9761
-4.2995 -3.7229 -2.0338 0.9761
-3.1302 -4.7484 -2.0338 0.9761
-1.7270 -5.4188 -2.0338 0.9761
0.8423 -5.6247 -2.0338 0.9761
-4.5770 -2.6866 -2.0338 0.9775
-4.3126 -3.0933 -2.0338 0.9775
-4.0121 -3.4741 -2.0338 0.9775
-3.6781 -3.8260 -2.0338 0.9775
-3.3134 -4.1458 -2.0338 0.9775
-2.5043 -4.6792 -2.0338 0.9775
-2.0666 -4.8884 -2.0338 0.9775
-0.6652 -5.2654 -2.0338 0.9775
-0.1816 -5.3042 -2.0338 0.9775
0.7859 -5.2488 -2.0338 0.9775
-4.4974 -2.1137 -2.0338 0.9788
-3.7567 -3.2530 -2.0338 0.9788
-3.4440 -3.5824 -2.0338 0.9788
-2.3448 -4.3814 -2.0338 0.9788
-1.0704 -4.8527 -2.0338 0.9788
-0.1701 -4.9665 -2.0338 0.9788
0.7359 -4.9146 -2.0339 0.9788
1.6174 -4.6989 -2.0339 0.9788
-4.2235 -1.9850 -2.0338 0.9798
-4.0246 -2.3624 -2.0338 0.9798
-3.2343 -3.3642 -2.0338 0.9798
-2.9136 -3.6454 -2.0338 0.9798
-2.5685 -3.8963 -2.0338 0.9798
-1.4171 -4.4464 -2.0338 0.9798
-0.1597 -4.6640 -2.0338 0.9798
1.1096 -4.5329 -2.0339 0.9798
1.5189 -4.4127 -2.0339 0.9798
-3.9765 -1.8690 -2.0338 0.9808
-3.7893 -2.2242 -2.0338 0.9808
-3.3216 -2.8762 -2.0338 0.9808
-2.7432 -3.4323 -2.0338 0.9808
-2.4184 -3.6684 -2.0338 0.9808
-2.0733 -3.8739 -2.0338 0.9808
-0.5507 -4.3592 -2.0338 0.9808
1.8034 -4.0068 -2.0339 0.9808
-3.7525 -1.7637 -2.0338 0.9817
-3.5757 -2.0989 -2.0338 0.9817
-3.3692 -2.4167 -2.0338 0.9817
-1.9565 -3.6557 -2.0338 0.9817
-0.5196 -4.1136 -2.0338 0.9817
-0.1420 -4.1439 -2.0339 0.9817
0.2371 -4.1395 -2.0339 0.9817
0.9859 -4.0274 -2.0339 0.9817
1.7019 -3.7810 -2.0339 0.9817
-3.3810 -1.9846 -2.0338 0.9825
-3.1857 -2.2851 -2.0338 0.9825
-2.9637 -2.5663 -2.0338 0.9825
-2.1578 -3.2732 -2.0338 0.9825
-1.5266 -3.6110 -2.0338 0.9825
-1.1905 -3.7354 -2.0338 0.9825
-0.4914 -3.8896 -2.0339 0.9825
-0.1342 -3.9182 -2.0339 0.9825
0.2241 -3.9141 -2.0339 0.9825
0.9321 -3.8081 -2.0339 0.9825
1.6091 -3.5750 -2.0339 0.9825
-0.9917 -0.4661 -0.6002 0.9950
-3.0175 -2.1644 -2.0339 0.9832
-2.8072 -2.4308 -2.0338 0.9832
-1.4459 -3.4204 -2.0338 0.9832
-1.1276 -3.5381 -2.0339 0.9832
-0.7999 -3.6263 -2.0339 0.9832
-0.1271 -3.7113 -2.0339 0.9832
0.5500 -3.6725 -2.0339 0.9832
0.8829 -3.6070 -2.0339 0.9832
1.2086 -3.5113 -2.0339 0.9832
-3.0380 -1.7833 -2.0339 0.9839
-2.6631 -2.3060 -2.0339 0.9839
-1.0697 -3.3564 -2.0339 0.9839
-0.7588 -3.4401 -2.0339 0.9839
-0.4415 -3.4950 -2.0339 0.9839
0.8376 -3.4218 -2.0339 0.9839
1.1465 -3.3310 -2.0339 0.9839
