ply
format ascii 1.0
element vertex 194
property float32 x
property float32 y
property float32 z
property float32 I
end_header
16.5588 -3.8374 -0.8620 0.9342
16.2788 -3.7724 -1.2252 0.9352
13.4633 9.0498 -1.1894 0.9370
16.1902 -3.7519 -1.5955 0.9354
13.2514 8.9074 -1.5329 0.9379
11.1043 -13.0329 -2.0338 0.9334
13.2814 -10.8065 -2.0339 0.9334
15.7049 -6.8228 -2.0340 0.9334
16.4361 -3.8089 -2.0041 0.9343
16.9638 -2.3328 -2.0340 0.9333
17.1061 0.7781 -2.0341 0.9333
16.9645 2.3304 -2.0341 0.9333
16.6824 3.8634 -2.0341 0.9333
15.7071 6.8210 -2.0341 0.9333
15.0218 8.2211 -2.0341 0.9333
8.2772 -11.7275 -2.0338 0.9437
10.2645 -10.0346 -2.0339 0.9437
11.1345 -9.0597 -2.0339 0.9437
11.9123 -8.0097 -2.0339 0.9437
13.1662 -5.7199 -2.0339 0.9437
13.6319 -4.4990 -2.0340 0.9437
14.2221 1.9537 -2.0340 0.9437
12.5934 6.8921 -2.0341 0.9437
8.0069 -9.3975 -2.0339 0.9512
8.8283 -8.6306 -2.0339 0.9512
10.2456 -6.8890 -2.0339 0.9512
10.8296 -5.9289 -2.0339 0.9512
11.3240 -4.9196 -2.0339 0.9512
12.0279 -2.7873 -2.0340 0.9512
12.3339 -0.5629 -2.0340 0.9512
12.3341 0.5610 -2.0340 0.9512
12.2321 1.6803 -2.0340 0.9512
11.3253 4.9182 -2.0341 0.9512
10.8312 5.9277 -2.0341 0.9512
7.0177 -8.2365 -2.0339 0.9569
9.4916 -5.1964 -2.0339 0.9569
9.9250 -4.3117 -2.0339 0.9569
10.5419 -2.4430 -2.0340 0.9569
10.7204 -1.4743 -2.0340 0.9569
10.8101 -0.4933 -2.0340 0.9569
10.8102 0.4917 -2.0340 0.9569
9.9261 4.3105 -2.0340 0.9569
9.4930 5.1953 -2.0340 0.9569
8.9812 6.0370 -2.0340 0.9569
5.5484 -7.8611 -2.0339 0.9614
9.1375 -3.0157 -2.0339 0.9614
9.6125 0.4372 -2.0340 0.9614
9.5329 1.3096 -2.0340 0.9614
9.3744 2.1710 -2.0340 0.9614
9.1382 3.0145 -2.0340 0.9614
7.9861 5.3681 -2.0340 0.9614
4.9902 -7.0703 -2.0339 0.9651
6.1882 -6.0496 -2.0339 0.9651
7.1816 -4.8288 -2.0339 0.9651
7.5910 -4.1558 -2.0339 0.9651
8.2182 -2.7123 -2.0339 0.9651
8.4309 -1.9538 -2.0340 0.9651
8.6454 0.3933 -2.0340 0.9651
8.5739 1.1778 -2.0340 0.9651
8.2189 2.7112 -2.0340 0.9651
7.9383 3.4473 -2.0340 0.9651
7.5919 4.1549 -2.0340 0.9651
7.1827 4.8281 -2.0340 0.9651
5.0945 -5.9793 -2.0339 0.9681
5.6171 -5.4913 -2.0339 0.9681
6.0932 -4.9578 -2.0339 0.9681
6.5188 -4.3832 -2.0339 0.9681
6.8904 -3.7723 -2.0339 0.9681
7.4598 -2.4620 -2.0339 0.9681
7.8475 -0.3581 -2.0340 0.9681
7.8476 0.3570 -2.0340 0.9681
7.7826 1.0691 -2.0340 0.9681
7.4604 2.4610 -2.0340 0.9681
6.8913 3.7714 -2.0340 0.9681
6.5198 4.3825 -2.0340 0.9681
5.1374 -5.0224 -2.0339 0.9706
6.3020 -3.4501 -2.0339 0.9706
6.8227 -2.2517 -2.0339 0.9706
6.9993 -1.6220 -2.0339 0.9706
7.1180 0.9778 -2.0340 0.9706
6.3028 3.4494 -2.0340 0.9706
5.9630 4.0082 -2.0340 0.9706
3.8130 -5.4024 -2.0339 0.9727
4.2885 -5.0333 -2.0339 0.9727
5.1292 -4.1735 -2.0339 0.9727
5.8003 -3.1755 -2.0339 0.9727
6.4420 -1.4929 -2.0339 0.9727
6.6059 -0.3015 -2.0340 0.9727
6.6060 0.3005 -2.0340 0.9727
6.5513 0.8999 -2.0340 0.9727
6.4423 1.4920 -2.0340 0.9727
6.2800 2.0716 -2.0340 0.9727
6.0657 2.6341 -2.0340 0.9727
5.8010 3.1747 -2.0340 0.9727
5.4883 3.6891 -2.0340 0.9727
3.5282 -4.9989 -2.0339 0.9745
4.7462 -3.8617 -2.0339 0.9745
5.3671 -2.9383 -2.0339 0.9745
5.8110 1.9169 -2.0340 0.9745
5.0783 3.4135 -2.0340 0.9745
3.2796 -4.6467 -2.0339 0.9761
4.0670 -3.9759 -2.0339 0.9761
4.4117 -3.5896 -2.0339 0.9761
4.9889 -2.7313 -2.0339 0.9761
5.4011 -1.7826 -2.0339 0.9761
5.5408 -1.2840 -2.0339 0.9761
5.6346 -0.7749 -2.0339 0.9761
5.6347 0.7740 -2.0340 0.9761
5.5411 1.2832 -2.0340 0.9761
5.4014 1.7818 -2.0340 0.9761
5.2170 2.2656 -2.0340 0.9761
4.9894 2.7306 -2.0340 0.9761
4.7204 3.1730 -2.0340 0.9761
3.4420 -4.0399 -2.0339 0.9775
4.1168 -3.3497 -2.0339 0.9775
4.4044 -2.9615 -2.0339 0.9775
4.6554 -2.5487 -2.0339 0.9775
4.8680 -2.1148 -2.0339 0.9775
5.0401 -1.6634 -2.0339 0.9775
5.1705 -1.1982 -2.0339 0.9775
5.2580 -0.7231 -2.0339 0.9775
5.1707 1.1974 -2.0340 0.9775
4.6560 2.5481 -2.0340 0.9775
4.4050 2.9609 -2.0340 0.9775
3.2229 -3.7827 -2.0339 0.9788
4.1240 -2.7729 -2.0339 0.9788
4.3591 -2.3865 -2.0339 0.9788
4.5580 -1.9802 -2.0339 0.9788
4.8413 -1.1219 -2.0339 0.9788
4.9233 -0.6771 -2.0339 0.9788
4.9645 -0.2265 -2.0339 0.9787
4.9645 0.2258 -2.0339 0.9788
4.8415 1.1212 -2.0340 0.9787
4.7195 1.5568 -2.0340 0.9787
4.5584 1.9796 -2.0340 0.9787
4.3595 2.3858 -2.0340 0.9787
3.0266 -3.5523 -2.0339 0.9798
3.3371 -3.2624 -2.0339 0.9798
3.6200 -2.9454 -2.0339 0.9798
4.2805 -1.8596 -2.0339 0.9798
4.5464 -1.0536 -2.0339 0.9798
4.6621 -0.2128 -2.0339 0.9798
4.6621 0.2121 -2.0339 0.9798
4.6236 0.6351 -2.0339 0.9798
4.4321 1.4620 -2.0340 0.9798
4.2808 1.8590 -2.0340 0.9798
3.8733 2.6036 -2.0340 0.9798
2.8496 -3.3446 -2.0339 0.9808
3.1420 -3.0716 -2.0339 0.9808
3.6464 -2.4518 -2.0339 0.9808
3.8542 -2.1100 -2.0339 0.9808
4.0301 -1.7508 -2.0339 0.9808
4.1727 -1.3771 -2.0339 0.9808
4.3895 0.1997 -2.0339 0.9808
4.3532 0.5980 -2.0339 0.9808
2.6891 -3.1562 -2.0339 0.9817
2.9650 -2.8985 -2.0339 0.9817
3.2163 -2.6169 -2.0339 0.9817
3.4409 -2.3136 -2.0339 0.9817
4.0394 -0.9361 -2.0339 0.9817
4.1078 -0.5649 -2.0339 0.9817
4.1421 -0.1890 -2.0339 0.9817
4.1079 0.5643 -2.0339 0.9817
3.4413 2.3132 -2.0340 0.9817
3.0411 -2.4744 -2.0339 0.9825
3.2535 -2.1876 -2.0339 0.9825
3.5959 -1.5622 -2.0339 0.9825
2.1486 -0.4979 -1.1442 0.9901
2.0931 -0.2879 -1.0961 0.9905
2.0779 -0.0948 -1.0791 0.9907
2.0778 0.0945 -1.0790 0.9907
2.0930 0.2875 -1.0960 0.9905
3.7233 1.2282 -2.0339 0.9825
3.5962 1.5617 -2.0339 0.9825
3.4393 1.8822 -2.0340 0.9825
3.2539 2.1872 -2.0340 0.9825
2.6555 -2.5959 -2.0339 0.9832
3.2573 -1.7833 -2.0339 0.9832
3.4060 -1.4797 -2.0339 0.9832
1.8919 -0.6244 -1.0912 0.9910
1.8528 -0.0846 -1.0158 0.9916
1.8528 0.0843 -1.0158 0.9916
1.8453 0.2535 -1.0201 0.9915
1.8576 0.4302 -1.0443 0.9913
3.4063 1.4792 -2.0339 0.9832
2.0314 -2.8781 -2.0339 0.9839
2.5191 -2.4626 -2.0339 0.9839
2.7325 -2.2234 -2.0339 0.9839
1.7714 -0.7696 -1.1151 0.9911
1.7136 -0.2357 -0.9987 0.9920
1.7236 0.0784 -0.9962 0.9921
1.7137 0.2354 -0.9987 0.9920
3.0904 1.6913 -2.0339 0.9839
2.9238 1.9653 -2.0339 0.9839
