ply
format ascii 1.0
element vertex 201
property float32 x
property float32 y
property float32 z
property float32 I
end_header
3.5992 18.4876 3.3211 0.9264
-12.7134 12.9773 3.2033 0.9289
3.6447 18.7209 2.9218 0.9257
1.8549 17.7145 2.7286 0.9305
-10.9185 13.3054 2.2413 0.9329
3.6374 18.6840 2.0440 0.9263
-11.1337 13.5676 1.8847 0.9318
1.9567 18.6863 1.5905 0.9274
-11.3564 13.8390 1.5155 0.9307
-12.0404 12.2904 1.4565 0.9333
-12.1225 14.7725 1.1850 0.9263
-12.0407 12.2907 1.0669 0.9334
3.5709 18.3421 0.7368 0.9279
1.8794 17.9480 0.7116 0.9303
1.9425 18.5515 0.3151 0.9281
-1.9118 7.5676 -0.5723 0.9692
-1.8558 7.3457 -0.7274 0.9700
4.7361 16.4563 -2.0341 0.9333
3.2724 16.8086 -2.0341 0.9333
-0.5701 7.9534 -0.9472 0.9684
-1.2221 7.5963 -0.9139 0.9695
-5.6361 16.1694 -2.0340 0.9333
-7.0345 15.6117 -2.0340 0.9334
-8.3784 14.9334 -2.0340 0.9334
-9.6576 14.1396 -2.0340 0.9334
-11.9825 12.2313 -2.0339 0.9334
-13.0104 11.1314 -2.0339 0.9334
-14.7572 8.6829 -2.0339 0.9334
6.3233 12.8884 -2.0341 0.9437
5.1669 13.3940 -2.0341 0.9437
3.9704 13.7960 -2.0341 0.9437
2.7434 14.0914 -2.0341 0.9437
1.4951 14.2778 -2.0341 0.9437
0.2352 14.3539 -2.0341 0.9437
-4.7250 13.5555 -2.0340 0.9437
-7.0240 12.5194 -2.0340 0.9437
-9.1062 11.0970 -2.0339 0.9437
-10.9073 9.3321 -2.0339 0.9437
-11.6848 8.3379 -2.0339 0.9437
-12.3718 7.2793 -2.0339 0.9437
5.4385 11.0849 -2.0341 0.9512
3.4149 11.8655 -2.0341 0.9512
2.3595 12.1196 -2.0341 0.9512
0.2023 12.3454 -2.0340 0.9512
-0.5407 7.5420 -1.2457 0.9698
-1.1744 7.3003 -1.2181 0.9705
-1.7939 7.1006 -1.2065 0.9707
-2.5618 7.3495 -1.2822 0.9689
-6.0412 10.7676 -2.0340 0.9512
-6.9636 10.1953 -2.0340 0.9512
-7.8321 9.5442 -2.0339 0.9512
4.7666 9.7154 -2.0340 0.9569
3.8948 10.0965 -2.0340 0.9569
2.9930 10.3995 -2.0340 0.9569
0.1773 10.8201 -2.0340 0.9569
-0.5329 7.4338 -1.4009 0.9701
-1.1532 7.1684 -1.3647 0.9709
-2.5548 7.3295 -1.4590 0.9689
-4.4455 9.8660 -2.0340 0.9569
-6.1032 8.9357 -2.0339 0.9569
-6.8644 8.3651 -2.0339 0.9569
-7.5726 7.7297 -2.0339 0.9569
-9.3262 5.4873 -2.0339 0.9569
4.2384 8.6389 -2.0340 0.9614
3.4632 8.9778 -2.0340 0.9614
2.6613 9.2473 -2.0340 0.9614
1.8388 9.4453 -2.0340 0.9614
1.0021 9.5702 -2.0340 0.9614
0.1577 9.6212 -2.0340 0.9614
-2.5589 7.3411 -1.6433 0.9687
-6.7336 6.8734 -2.0339 0.9614
-7.8324 5.5890 -2.0339 0.9614
3.1148 8.0746 -2.0340 0.9651
2.3936 8.3169 -2.0340 0.9651
0.9013 8.6074 -2.0340 0.9651
0.1418 8.6533 -2.0340 0.9651
-0.5321 7.4224 -1.7489 0.9699
-1.8346 7.2619 -1.7603 0.9697
-3.5553 7.8903 -2.0340 0.9651
-4.2345 7.5475 -2.0339 0.9651
-4.8811 7.1463 -2.0339 0.9651
-5.4898 6.6900 -2.0339 0.9651
-6.5757 5.6260 -2.0339 0.9651
-7.0445 5.0267 -2.0339 0.9651
3.4602 7.0527 -2.0340 0.9681
2.1727 7.5494 -2.0340 0.9681
1.5012 7.7110 -2.0340 0.9681
0.8181 7.8130 -2.0340 0.9681
-0.5488 7.6569 -1.9876 0.9688
-1.2477 7.7559 -2.0340 0.9681
-1.9241 7.6163 -2.0340 0.9681
-2.5857 7.4179 -2.0340 0.9681
-3.2272 7.1621 -2.0340 0.9681
-3.8438 6.8510 -2.0339 0.9681
-4.4306 6.4869 -2.0339 0.9681
-4.9832 6.0726 -2.0339 0.9681
-6.7704 3.9835 -2.0339 0.9681
2.5859 6.7034 -2.0340 0.9706
0.1177 7.1839 -2.0340 0.9706
-1.7598 6.9659 -2.0340 0.9706
-5.4592 4.6707 -2.0339 0.9706
-5.8483 4.1732 -2.0339 0.9706
-6.1922 3.6433 -2.0339 0.9706
2.9127 5.9369 -2.0340 0.9727
1.8289 6.3549 -2.0340 0.9727
1.2637 6.4910 -2.0340 0.9727
0.6887 6.5769 -2.0340 0.9727
0.1084 6.6119 -2.0340 0.9727
-0.4728 6.5959 -2.0340 0.9727
-3.7296 5.4605 -2.0339 0.9727
-4.1948 5.1119 -2.0339 0.9727
-4.6276 4.7237 -2.0339 0.9727
-5.3827 3.8410 -2.0339 0.9727
2.6952 5.4934 -2.0340 0.9745
2.2023 5.7089 -2.0340 0.9745
1.1693 6.0062 -2.0340 0.9745
0.6372 6.0857 -2.0340 0.9745
0.1003 6.1181 -2.0340 0.9745
-0.4375 6.1032 -2.0340 0.9745
-0.9719 6.0412 -2.0340 0.9745
-2.5137 5.5787 -2.0339 0.9745
-2.9939 5.3363 -2.0339 0.9745
-4.6493 3.9778 -2.0339 0.9745
2.0470 5.3066 -2.0340 0.9761
1.5731 5.4659 -2.0340 0.9761
1.0869 5.5829 -2.0340 0.9761
0.0932 5.6869 -2.0340 0.9761
-0.4067 5.6731 -2.0340 0.9761
-0.9034 5.6155 -2.0340 0.9761
-1.3931 5.5144 -2.0340 0.9761
-1.8721 5.3707 -2.0339 0.9761
-2.3365 5.1855 -2.0339 0.9761
-3.2079 4.6966 -2.0339 0.9761
-3.9802 4.0628 -2.0339 0.9761
2.3378 4.7650 -2.0340 0.9775
1.0143 5.2098 -2.0340 0.9775
0.5527 5.2787 -2.0340 0.9775
0.0870 5.3069 -2.0340 0.9775
-0.8430 5.2402 -2.0340 0.9775
-1.3000 5.1458 -2.0339 0.9775
-2.5970 4.6287 -2.0339 0.9775
1.7886 4.6366 -2.0340 0.9787
1.3745 4.7758 -2.0340 0.9787
0.5176 4.9426 -2.0340 0.9787
0.0814 4.9690 -2.0340 0.9787
-1.6357 4.6927 -2.0339 0.9788
-2.0415 4.5309 -2.0339 0.9788
-2.4317 4.3340 -2.0339 0.9788
-3.1525 3.8417 -2.0339 0.9788
-3.7761 3.2307 -2.0339 0.9788
-4.0452 2.8866 -2.0339 0.9788
-4.2831 2.5201 -2.0339 0.9788
1.2908 4.4850 -2.0340 0.9798
0.4860 4.6416 -2.0340 0.9798
0.0764 4.6663 -2.0340 0.9798
-0.7412 4.6077 -2.0339 0.9798
-1.5361 4.4069 -2.0339 0.9798
-2.2835 4.0701 -2.0339 0.9798
-2.6322 3.8538 -2.0339 0.9798
-3.2659 3.3337 -2.0339 0.9798
-4.0222 2.3666 -2.0339 0.9798
1.9354 3.9449 -2.0340 0.9808
1.5815 4.0996 -2.0340 0.9808
1.2153 4.2227 -2.0340 0.9808
0.8397 4.3131 -2.0340 0.9808
0.4576 4.3702 -2.0340 0.9808
0.0720 4.3935 -2.0340 0.9808
-1.4463 4.1492 -2.0339 0.9808
-2.4782 3.6284 -2.0339 0.9808
-2.7874 3.3967 -2.0339 0.9808
-3.0750 3.1388 -2.0339 0.9808
-3.3387 2.8565 -2.0339 0.9808
-3.7870 2.2282 -2.0339 0.9808
1.4924 3.8686 -2.0340 0.9817
1.1468 3.9848 -2.0340 0.9817
-0.6586 4.0938 -2.0339 0.9817
-1.0156 4.0201 -2.0339 0.9817
-2.0289 3.6161 -2.0339 0.9817
-2.3386 3.4239 -2.0339 0.9817
-2.9017 2.9619 -2.0339 0.9817
-3.1506 2.6956 -2.0339 0.9817
0.7493 3.8484 -2.0340 0.9825
0.4083 3.8993 -2.0339 0.9825
-1.9183 3.4192 -2.0339 0.9825
-2.9790 2.5488 -2.0339 0.9825
1.3366 3.4647 -2.0340 0.9832
1.0271 3.5687 -2.0339 0.9832
-0.2655 3.7041 -2.0339 0.9832
-0.9096 3.6004 -2.0339 0.9832
-1.8170 3.2386 -2.0339 0.9832
-2.0945 3.0665 -2.0339 0.9832
-2.3557 2.8707 -2.0339 0.9832
-2.5987 2.6527 -2.0339 0.9832
-3.2006 1.8832 -2.0339 0.9832
-0.2519 3.5138 -2.0339 0.9839
-0.8629 3.4155 -2.0339 0.9839
-1.1595 3.3266 -2.0339 0.9839
-1.4472 3.2119 -2.0339 0.9839
-1.9869 2.9090 -2.0339 0.9839
-2.2347 2.7233 -2.0339 0.9839
-2.4653 2.5165 -2.0339 0.9839
