ply
format ascii 1.0
element vertex 242
property float32 x
property float32 y
property float32 z
property float32 I
end_header
-12.9252 -8.2861 -0.7786 0.9404
-12.2055 -7.8248 -1.0630 0.9435
-11.5243 -8.9019 -1.3980 0.9432
2.6171 -6.1665 -0.6431 0.9734
-16.7098 -3.7289 -2.0337 0.9334
-16.3193 -5.1770 -2.0337 0.9334
-12.2345 -7.8433 -1.7263 0.9431
-12.5810 -11.6114 -2.0337 0.9334
-11.5165 -12.6679 -2.0337 0.9334
-10.3637 -13.6273 -2.0337 0.9334
-9.1312 -14.4819 -2.0337 0.9334
-5.0541 -16.3575 -2.0337 0.9334
-3.6032 -16.7371 -2.0337 0.9334
-2.1246 -16.9883 -2.0337 0.9334
2.3633 -16.9571 -2.0337 0.9334
3.8383 -16.6853 -2.0337 0.9334
2.5834 -6.0872 -0.7855 0.9737
-13.6816 -4.3403 -2.0337 0.9437
-12.7151 -6.6593 -2.0337 0.9437
-10.5476 -9.7347 -2.0337 0.9437
-7.6554 -12.1413 -2.0337 0.9437
-6.5634 -12.7646 -2.0337 0.9437
-5.4211 -13.2902 -2.0337 0.9437
-4.2372 -13.7137 -2.0337 0.9437
-3.0208 -14.0319 -2.0337 0.9437
-1.7811 -14.2425 -2.0337 0.9437
1.9813 -14.2162 -2.0338 0.9437
1.9977 -6.1570 -0.9171 0.9742
2.5157 -5.9275 -0.9124 0.9743
-9.0719 -8.3728 -2.0337 0.9512
-8.3043 -9.1346 -2.0337 0.9512
-5.6452 -10.9788 -2.0337 0.9512
-4.6627 -11.4308 -2.0337 0.9512
-3.6444 -11.7950 -2.0337 0.9512
0.6275 -12.3295 -2.0338 0.9512
1.9488 -6.0064 -1.0403 0.9747
2.5107 -5.9157 -1.0587 0.9743
-10.5605 -2.3567 -2.0338 0.9569
-10.3137 -3.2719 -2.0338 0.9569
-9.9878 -4.1619 -2.0338 0.9569
-9.5852 -5.0200 -2.0338 0.9569
-6.5498 -8.6124 -2.0337 0.9569
-4.9478 -9.6226 -2.0338 0.9569
-3.1942 -10.3379 -2.0338 0.9569
-1.3427 -10.7366 -2.0338 0.9569
-0.3979 -10.8129 -2.0338 0.9569
1.4618 -6.3544 -1.2256 0.9738
2.4691 -5.8179 -1.1879 0.9746
-9.1710 -2.9094 -2.0338 0.9614
-8.8812 -3.7008 -2.0338 0.9614
-8.5232 -4.4639 -2.0338 0.9614
-6.4721 -7.1192 -2.0338 0.9614
-5.1316 -8.1387 -2.0338 0.9614
-2.8404 -9.1926 -2.0338 0.9614
-2.0249 -9.4059 -2.0338 0.9614
-1.1939 -9.5471 -2.0338 0.9614
1.3281 -9.5295 -2.0338 0.9614
1.4501 -6.3036 -1.3673 0.9739
1.9243 -5.9309 -1.3180 0.9748
-8.4459 -1.8848 -2.0338 0.9651
-7.9878 -3.3286 -2.0338 0.9651
-7.6659 -4.0149 -2.0338 0.9651
-7.2851 -4.6703 -2.0338 0.9651
-6.8484 -5.2900 -2.0338 0.9651
-6.3591 -5.8690 -2.0338 0.9651
-5.2383 -6.8879 -2.0338 0.9651
-1.0738 -8.5867 -2.0338 0.9651
1.1945 -8.5709 -2.0338 0.9651
1.8783 -5.7892 -1.4304 0.9753
2.4796 -5.8426 -1.4917 0.9743
-7.6664 -1.7109 -2.0338 0.9681
-7.4873 -2.3753 -2.0338 0.9681
-7.2507 -3.0214 -2.0338 0.9681
-6.9584 -3.6444 -2.0338 0.9681
-6.6128 -4.2394 -2.0338 0.9681
-6.2164 -4.8018 -2.0338 0.9681
-5.2839 -5.8121 -2.0338 0.9681
-4.7549 -6.2523 -2.0338 0.9681
-4.1895 -6.6444 -2.0338 0.9681
-2.9668 -7.2732 -2.0338 0.9681
-0.9747 -7.7943 -2.0338 0.9681
0.3993 -7.8449 -2.0338 0.9681
1.0843 -7.7799 -2.0338 0.9681
1.3922 -6.0519 -1.6079 0.9747
1.8836 -5.8055 -1.5803 0.9751
2.4852 -5.8556 -1.6470 0.9741
-7.0118 -1.5648 -2.0338 0.9706
-6.3642 -3.3331 -2.0338 0.9706
-5.6856 -4.3918 -2.0338 0.9706
-5.2794 -4.8725 -2.0338 0.9706
-4.8327 -5.3159 -2.0338 0.9706
-4.3489 -5.7184 -2.0338 0.9706
-3.8317 -6.0771 -2.0338 0.9706
-0.2642 -7.1794 -2.0338 0.9706
1.4313 -6.2220 -1.8074 0.9738
2.8068 -6.6134 -2.0339 0.9706
-6.1036 -2.5434 -2.0338 0.9727
-5.8577 -3.0678 -2.0338 0.9727
-5.5666 -3.5687 -2.0338 0.9727
-5.2330 -4.0422 -2.0338 0.9727
-4.8591 -4.4846 -2.0338 0.9727
-2.4975 -6.1226 -2.0338 0.9727
-1.9520 -6.3177 -2.0338 0.9727
-0.8205 -6.5613 -2.0338 0.9727
0.3361 -6.6038 -2.0338 0.9727
2.5833 -6.0870 -2.0339 0.9727
-5.9716 -1.3326 -2.0338 0.9745
-5.6477 -2.3535 -2.0338 0.9745
-5.1509 -3.3021 -2.0338 0.9745
-4.8421 -3.7403 -2.0338 0.9745
-4.1158 -4.5273 -2.0338 0.9745
-3.7038 -4.8701 -2.0338 0.9745
-3.2634 -5.1756 -2.0338 0.9745
-1.8062 -5.8458 -2.0338 0.9745
-1.2877 -5.9815 -2.0338 0.9745
-0.2250 -6.1144 -2.0338 0.9745
0.8446 -6.0600 -2.0338 0.9745
2.3904 -5.6323 -2.0339 0.9745
-5.5508 -1.2387 -2.0338 0.9761
-5.2497 -2.1876 -2.0338 0.9761
-5.0382 -2.6387 -2.0338 0.9761
-4.7879 -3.0695 -2.0338 0.9761
-4.5009 -3.4767 -2.0338 0.9761
-3.8257 -4.2082 -2.0338 0.9761
-3.0334 -4.8109 -2.0338 0.9761
-2.6007 -5.0579 -2.0338 0.9761
-2.1480 -5.2661 -2.0338 0.9761
-1.1970 -5.5600 -2.0338 0.9761
-0.2091 -5.6835 -2.0338 0.9761
2.2220 -5.2354 -2.0339 0.9761
-5.0588 -1.6048 -2.0338 0.9775
-4.8989 -2.0414 -2.0338 0.9775
-4.7014 -2.4623 -2.0338 0.9775
-4.2001 -3.2444 -2.0338 0.9775
-3.9000 -3.5995 -2.0338 0.9775
-3.5701 -3.9270 -2.0338 0.9775
-3.2127 -4.2244 -2.0338 0.9775
-2.8306 -4.4893 -2.0338 0.9775
-2.4269 -4.7199 -2.0338 0.9775
-2.0045 -4.9142 -2.0338 0.9775
-1.5667 -5.0707 -2.0338 0.9775
-0.6586 -5.2662 -2.0338 0.9775
-0.1952 -5.3037 -2.0338 0.9775
0.7326 -5.2565 -2.0338 0.9775
1.1898 -5.1722 -2.0339 0.9775
1.6379 -5.0483 -2.0339 0.9775
-2.1202 -0.4732 -0.8891 0.9907
-4.7368 -1.5027 -2.0338 0.9788
-4.4021 -2.3055 -2.0338 0.9788
-4.1834 -2.6820 -2.0338 0.9788
-3.9327 -3.0378 -2.0338 0.9788
-3.6518 -3.3703 -2.0338 0.9788
-3.3428 -3.6770 -2.0338 0.9788
-2.6504 -4.2035 -2.0338 0.9788
-2.2724 -4.4194 -2.0338 0.9788
-1.8769 -4.6013 -2.0338 0.9788
-1.4670 -4.7479 -2.0338 0.9788
-0.1827 -4.9660 -2.0338 0.9788
0.2526 -4.9630 -2.0338 0.9788
1.1141 -4.8429 -2.0339 0.9788
1.9414 -4.5745 -2.0339 0.9788
-1.9023 -0.4246 -0.8495 0.9915
-4.4483 -1.4112 -2.0338 0.9798
-4.3077 -1.7950 -2.0338 0.9798
-3.9287 -2.5187 -2.0338 0.9798
-3.6932 -2.8528 -2.0338 0.9798
-3.1392 -3.4531 -2.0338 0.9798
-2.8250 -3.7146 -2.0338 0.9798
-2.4891 -3.9475 -2.0338 0.9798
-2.1340 -4.1502 -2.0338 0.9798
-1.7626 -4.3211 -2.0338 0.9798
-1.3777 -4.4587 -2.0338 0.9798
-0.9822 -4.5622 -2.0338 0.9798
-0.1716 -4.6636 -2.0338 0.9798
1.0462 -4.5480 -2.0339 0.9798
1.8232 -4.2959 -2.0339 0.9798
-3.8924 -2.0386 -2.0338 0.9808
-3.6990 -2.3714 -2.0338 0.9808
-3.2289 -2.9800 -2.0338 0.9808
-2.9556 -3.2512 -2.0338 0.9808
-2.6598 -3.4973 -2.0338 0.9808
-1.6595 -4.0684 -2.0338 0.9808
-0.9247 -4.2955 -2.0338 0.9808
-0.1616 -4.3909 -2.0338 0.9808
0.2233 -4.3882 -2.0339 0.9808
0.9850 -4.2821 -2.0339 0.9808
1.3560 -4.1794 -2.0339 0.9808
-1.3271 -0.2962 -0.6670 0.9940
-1.2880 -0.4086 -0.6628 0.9940
-3.6729 -1.9237 -2.0338 0.9817
-3.4906 -2.2378 -2.0338 0.9817
-2.7891 -3.0680 -2.0338 0.9817
-2.2114 -3.5073 -2.0338 0.9817
-1.8960 -3.6874 -2.0338 0.9817
-1.5660 -3.8392 -2.0338 0.9817
-1.2240 -3.9615 -2.0338 0.9817
-0.8727 -4.0534 -2.0338 0.9817
-0.1525 -4.1435 -2.0339 0.9817
0.9295 -4.0408 -2.0339 0.9817
1.6198 -3.8168 -2.0339 0.9817
-1.1736 -0.2619 -0.6238 0.9946
-1.1420 -0.3623 -0.6215 0.9946
-3.3004 -2.1159 -2.0338 0.9825
-3.1026 -2.3966 -2.0338 0.9825
-2.8810 -2.6590 -2.0338 0.9825
-2.6372 -2.9009 -2.0338 0.9825
-2.3732 -3.1205 -2.0338 0.9825
-2.0910 -3.3163 -2.0338 0.9825
-1.7927 -3.4866 -2.0338 0.9825
-1.1574 -3.7457 -2.0338 0.9825
-0.4865 -3.8902 -2.0339 0.9825
0.1993 -3.9154 -2.0339 0.9825
1.5316 -3.6089 -2.0339 0.9825
-1.0529 -0.2350 -0.5909 0.9951
-1.0081 -0.4201 -0.5982 0.9950
-1.1203 -0.5868 -0.6926 0.9942
-2.9387 -2.2700 -2.0338 0.9832
-2.7288 -2.5185 -2.0338 0.9832
-2.2479 -2.9558 -2.0338 0.9832
-1.9806 -3.1411 -2.0338 0.9832
-1.6980 -3.3024 -2.0338 0.9832
-1.4025 -3.4384 -2.0338 0.9832
-1.0962 -3.5479 -2.0339 0.9832
-0.7816 -3.6303 -2.0339 0.9832
-0.4608 -3.6847 -2.0339 0.9832
0.1887 -3.7087 -2.0339 0.9832
0.8325 -3.6189 -2.0339 0.9832
1.4507 -3.4184 -2.0339 0.9832
-0.9538 -0.3026 -0.5777 0.9954
-0.9342 -0.3893 -0.5843 0.9953
-0.9062 -0.4746 -0.5906 0.9953
-2.9657 -1.9013 -2.0339 0.9839
-2.5887 -2.3892 -2.0339 0.9839
-2.3696 -2.6066 -2.0339 0.9839
-1.8789 -2.9799 -2.0339 0.9839
-1.6109 -3.1329 -2.0339 0.9839
-0.7414 -3.4438 -2.0339 0.9839
-0.4372 -3.4955 -2.0339 0.9839
0.4862 -3.4890 -2.0339 0.9839
0.7897 -3.4331 -2.0339 0.9839
1.0871 -3.3508 -2.0339 0.9839
1.3763 -3.2428 -2.0339 0.9839
