ply
format ascii 1.0
element vertex 222
property float32 x
property float32 y
property float32 z
property float32 I
end_header
-11.8567 -8.2212 -0.7317 0.9439
-16.5471 5.1552 -1.2708 0.9328
-11.5214 -7.9887 -1.3460 0.9452
-15.8176 6.5545 -2.0338 0.9334
-16.3467 5.0928 -2.0338 0.9334
-16.7411 3.5891 -2.0338 0.9334
-16.9975 2.0557 -2.0338 0.9334
-17.0889 -1.0488 -2.0337 0.9334
-14.8962 -8.4390 -2.0337 0.9334
-11.4139 -7.9141 -1.6498 0.9456
-13.1264 -10.9912 -2.0337 0.9334
-8.3636 -14.9385 -2.0337 0.9334
-6.9742 -15.6355 -2.0337 0.9334
-5.5273 -16.2037 -2.0337 0.9334
-4.0348 -16.6384 -2.0337 0.9334
-2.5090 -16.9358 -2.0337 0.9334
-0.9625 -17.0937 -2.0337 0.9334
0.5919 -17.1106 -2.0337 0.9334
-13.2608 5.4950 -2.0338 0.9437
-13.7045 4.2696 -2.0338 0.9437
-14.0351 3.0089 -2.0338 0.9437
-14.1878 -2.1751 -2.0338 0.9437
-13.0789 -5.9131 -2.0337 0.9437
-12.4886 -7.0750 -2.0337 0.9437
-8.1189 -11.8364 -2.0337 0.9437
-5.8470 -13.1084 -2.0337 0.9437
-4.6339 -13.5848 -2.0337 0.9437
-3.3826 -13.9491 -2.0337 0.9437
-11.7870 3.6722 -2.0338 0.9512
-12.3223 -0.7563 -2.0338 0.9512
-11.9828 -2.9699 -2.0338 0.9512
-11.6640 -4.0445 -2.0338 0.9512
-10.1451 -7.0343 -2.0337 0.9512
-2.9094 -11.9975 -2.0337 0.9512
-1.8091 -12.2120 -2.0337 0.9512
-0.6941 -12.3258 -2.0338 0.9512
0.4268 -12.3380 -2.0338 0.9512
-10.5801 2.2682 -2.0338 0.9569
-10.7422 1.2992 -2.0338 0.9569
-10.8157 0.3195 -2.0338 0.9569
-10.8000 -0.6628 -2.0338 0.9569
-10.6953 -1.6397 -2.0338 0.9569
-10.5025 -2.6030 -2.0338 0.9569
-8.8918 -6.1653 -2.0338 0.9569
-7.6316 -7.6703 -2.0337 0.9569
-6.1203 -8.9228 -2.0337 0.9569
-4.4077 -9.8817 -2.0338 0.9569
-3.4932 -10.2407 -2.0338 0.9569
-2.5500 -10.5154 -2.0338 0.9569
-0.6083 -10.8031 -2.0338 0.9569
-9.6175 0.2841 -2.0338 0.9614
-9.6035 -0.5894 -2.0338 0.9614
-8.7671 -3.9637 -2.0338 0.9614
-7.9066 -5.4823 -2.0338 0.9614
-6.1395 -7.4079 -2.0338 0.9614
-5.4423 -7.9342 -2.0338 0.9614
-4.7002 -8.3952 -2.0338 0.9614
-3.9193 -8.7869 -2.0338 0.9614
-1.4100 -9.5176 -2.0338 0.9614
-0.5409 -9.6063 -2.0338 0.9614
-7.9947 3.3129 -2.0339 0.9651
-8.4615 1.8140 -2.0338 0.9651
-8.6500 0.2555 -2.0338 0.9651
-8.6374 -0.5301 -2.0338 0.9651
-8.3995 -2.0818 -2.0338 0.9651
-8.1760 -2.8351 -2.0338 0.9651
-6.6348 -5.5555 -2.0338 0.9651
-6.1035 -6.1344 -2.0338 0.9651
-4.2274 -7.5507 -2.0338 0.9651
-3.5252 -7.9030 -2.0338 0.9651
-2.7938 -8.1902 -2.0338 0.9651
0.2992 -8.6485 -2.0338 0.9651
-7.2569 3.0071 -2.0339 0.9681
-7.4997 2.3365 -2.0339 0.9681
-7.7983 0.9431 -2.0338 0.9681
-7.4215 -2.5734 -2.0338 0.9681
-6.4551 -4.4758 -2.0338 0.9681
-4.4432 -6.4776 -2.0338 0.9681
-3.8373 -6.8539 -2.0338 0.9681
-3.1998 -7.1737 -2.0338 0.9681
-2.5360 -7.4344 -2.0338 0.9681
-0.4416 -7.8426 -2.0338 0.9681
-7.1812 0.2121 -2.0338 0.9706
-7.1708 -0.4401 -2.0338 0.9706
-7.1013 -1.0887 -2.0338 0.9706
-6.9733 -1.7284 -2.0338 0.9706
-6.5463 -2.9597 -2.0338 0.9706
-5.9039 -4.0936 -2.0338 0.9706
-5.0672 -5.0928 -2.0338 0.9706
-4.5844 -5.5315 -2.0338 0.9706
-4.0637 -5.9244 -2.0338 0.9706
-3.5096 -6.2687 -2.0338 0.9706
-1.6931 -6.9819 -2.0338 0.9706
0.2484 -7.1800 -2.0338 0.9706
-6.3132 1.9669 -2.0339 0.9727
-6.5646 0.7939 -2.0339 0.9727
-6.6095 0.1952 -2.0338 0.9727
-6.6000 -0.4051 -2.0338 0.9727
-6.5360 -1.0021 -2.0338 0.9727
-6.4182 -1.5908 -2.0338 0.9727
-5.7533 -3.2594 -2.0338 0.9727
-5.4339 -3.7677 -2.0338 0.9727
-5.0698 -4.2451 -2.0338 0.9727
-4.6638 -4.6874 -2.0338 0.9727
-4.2194 -5.0911 -2.0338 0.9727
-2.6936 -6.0388 -2.0338 0.9727
-2.1347 -6.2583 -2.0338 0.9727
-1.5584 -6.4261 -2.0338 0.9727
-5.9827 1.2826 -2.0339 0.9745
-6.0744 0.7346 -2.0339 0.9745
-5.9388 -1.4720 -2.0338 0.9745
-5.5752 -2.5206 -2.0338 0.9745
-5.3236 -3.0159 -2.0338 0.9745
-5.0280 -3.4863 -2.0338 0.9745
-3.9043 -4.7109 -2.0338 0.9745
-2.9890 -5.3387 -2.0338 0.9745
-2.4924 -5.5878 -2.0338 0.9745
-1.9753 -5.7909 -2.0338 0.9745
-0.8966 -6.0525 -2.0338 0.9745
-0.3440 -6.1089 -2.0338 0.9745
-5.2542 2.1772 -2.0339 0.9761
-5.4300 1.6917 -2.0339 0.9761
-5.6849 0.1679 -2.0339 0.9761
-5.6767 -0.3484 -2.0338 0.9761
-5.3734 -1.8633 -2.0338 0.9761
-4.9484 -2.8034 -2.0338 0.9761
-4.0113 -4.0317 -2.0338 0.9761
-1.8361 -5.3828 -2.0338 0.9761
-0.8335 -5.6260 -2.0338 0.9761
-4.9031 2.0317 -2.0339 0.9775
-5.0671 1.5786 -2.0339 0.9775
-5.3050 0.1567 -2.0339 0.9775
-5.1514 -1.2768 -2.0338 0.9775
-4.0691 -3.4072 -2.0338 0.9775
-1.7134 -5.0231 -2.0338 0.9775
-1.2508 -5.1578 -2.0338 0.9775
0.1835 -5.3041 -2.0338 0.9775
-4.5909 1.9024 -2.0339 0.9788
-2.1211 0.4547 -0.8878 0.9907
-2.1085 0.2550 -0.8692 0.9909
-2.1142 -0.3242 -0.8754 0.9908
-4.6951 -1.6280 -2.0338 0.9788
-4.5280 -2.0472 -2.0338 0.9788
-4.3237 -2.4495 -2.0338 0.9788
-4.0837 -2.8315 -2.0338 0.9788
-3.1711 -3.8261 -2.0338 0.9788
-2.4277 -4.3360 -2.0338 0.9788
-1.6043 -4.7033 -2.0338 0.9788
-0.2794 -4.9616 -2.0338 0.9788
0.1718 -4.9664 -2.0338 0.9788
-4.3113 1.7865 -2.0339 0.9798
-1.9034 0.4080 -0.8484 0.9915
-1.9055 0.2304 -0.8365 0.9917
-1.9189 0.0566 -0.8366 0.9917
-1.9170 -0.1177 -0.8370 0.9917
-1.9042 -0.2920 -0.8396 0.9916
-4.0604 -2.3003 -2.0338 0.9798
-3.8350 -2.6591 -2.0338 0.9798
-3.5780 -2.9960 -2.0338 0.9798
-2.9779 -3.5931 -2.0338 0.9798
-2.6397 -3.8484 -2.0338 0.9798
-1.5066 -4.4169 -2.0338 0.9798
-1.0998 -4.5353 -2.0338 0.9798
-0.2624 -4.6594 -2.0338 0.9798
-1.5306 0.4768 -0.7421 0.9930
-1.6097 0.1946 -0.7505 0.9929
-1.5827 0.0467 -0.7329 0.9930
-1.5968 -0.0980 -0.7405 0.9930
-1.6104 -0.2469 -0.7541 0.9928
-3.8230 -2.1658 -2.0338 0.9808
-3.6107 -2.5036 -2.0338 0.9808
-2.8038 -3.3830 -2.0338 0.9808
-2.4854 -3.6234 -2.0338 0.9808
-1.7899 -4.0128 -2.0338 0.9808
-1.4186 -4.1586 -2.0338 0.9808
-1.0355 -4.2701 -2.0338 0.9808
-0.6439 -4.3464 -2.0338 0.9808
0.1519 -4.3913 -2.0339 0.9808
-3.8305 1.5873 -2.0339 0.9817
-1.3299 0.2851 -0.6672 0.9940
-1.3510 -0.0829 -0.6640 0.9940
-1.3179 -0.3267 -0.6660 0.9940
-3.6076 -2.0438 -2.0338 0.9817
-3.4073 -2.3626 -2.0338 0.9817
-2.9245 -2.9393 -2.0338 0.9817
-2.0255 -3.6179 -2.0338 0.9817
-1.6891 -3.7867 -2.0338 0.9817
-1.3386 -3.9243 -2.0338 0.9817
-0.6077 -4.1016 -2.0338 0.9817
0.1434 -4.1438 -2.0339 0.9817
-1.1164 0.4626 -0.6270 0.9946
-1.1756 0.2520 -0.6237 0.9946
-1.1934 -0.1830 -0.6263 0.9946
-1.1358 -0.3939 -0.6237 0.9946
-1.1029 -0.4987 -0.6279 0.9946
-3.4111 -1.9325 -2.0338 0.9825
-2.7651 -2.7792 -2.0338 0.9825
-2.2176 -3.2330 -2.0338 0.9825
-1.2657 -3.7105 -2.0338 0.9825
-0.5745 -3.8782 -2.0339 0.9825
-1.0088 0.4180 -0.5981 0.9950
-1.0796 0.0319 -0.5916 0.9951
-1.0813 -0.0664 -0.5934 0.9951
-1.0452 -0.2591 -0.5898 0.9951
-2.6191 -2.6324 -2.0338 0.9832
-2.1005 -3.0623 -2.0338 0.9832
-1.1989 -3.5146 -2.0339 0.9832
-0.5442 -3.6734 -2.0339 0.9832
-0.2088 -3.7076 -2.0339 0.9832
0.1284 -3.7112 -2.0339 0.9832
-0.9348 0.3873 -0.5842 0.9953
-0.9546 0.2974 -0.5773 0.9954
-0.9721 0.2084 -0.5740 0.9954
-0.9862 0.1192 -0.5736 0.9954
-0.9899 0.0292 -0.5718 0.9954
-0.9489 -0.3291 -0.5799 0.9954
-2.4846 -2.4972 -2.0339 0.9839
-1.9926 -2.9050 -2.0339 0.9839
-1.7209 -3.0738 -2.0339 0.9839
-1.1373 -3.3341 -2.0339 0.9839
-0.5163 -3.4847 -2.0339 0.9839
0.1218 -3.5206 -2.0339 0.9839
