ply
format ascii 1.0
element vertex 170
property float32 x
property float32 y
property float32 z
property float32 I
end_header
16.5631 -3.8668 -0.8626 0.9341
13.7681 8.9628 -0.8332 0.9363
17.1021 -0.8583 -2.0340 0.9333
17.1104 0.6754 -2.0341 0.9333
15.1296 8.0208 -2.0341 0.9333
13.4578 10.5892 -2.0341 0.9333
13.1736 -5.7030 -2.0339 0.9437
14.2154 -1.9996 -2.0340 0.9437
14.3375 -0.7196 -2.0340 0.9437
14.0139 3.1141 -2.0341 0.9437
13.6791 4.3556 -2.0341 0.9437
13.2346 5.5622 -2.0341 0.9437
12.6838 6.7241 -2.0341 0.9437
8.5194 11.5549 -2.0341 0.9437
11.7238 -3.8715 -2.0340 0.9512
12.0233 -2.8070 -2.0340 0.9512
12.3313 -0.6189 -2.0340 0.9512
12.0530 2.6783 -2.0340 0.9512
11.7650 3.7461 -2.0340 0.9512
11.3827 4.7839 -2.0341 0.9512
10.9090 5.7832 -2.0341 0.9512
9.7035 7.6352 -2.0341 0.9512
8.1871 9.2426 -2.0341 0.9512
9.9305 -4.2990 -2.0339 0.9569
10.5379 -2.4602 -2.0340 0.9569
10.7158 -1.5073 -2.0340 0.9569
10.8078 -0.5424 -2.0340 0.9569
10.8130 0.4268 -2.0340 0.9569
10.7314 1.3927 -2.0340 0.9569
10.5638 2.3474 -2.0340 0.9569
10.3114 3.2833 -2.0340 0.9569
9.9763 4.1928 -2.0340 0.9569
9.5611 5.0687 -2.0340 0.9569
8.5046 6.6918 -2.0340 0.9569
7.8717 7.4260 -2.0341 0.9569
5.6168 9.2499 -2.0341 0.9569
8.8302 -3.8227 -2.0339 0.9614
9.5286 -1.3403 -2.0340 0.9614
9.5425 1.2384 -2.0340 0.9614
9.3934 2.0873 -2.0340 0.9614
9.1689 2.9195 -2.0340 0.9614
8.8710 3.7283 -2.0340 0.9614
7.9419 -3.4382 -2.0339 0.9651
8.2178 -2.7137 -2.0339 0.9651
8.6435 -0.4338 -2.0340 0.9651
8.6477 0.3414 -2.0340 0.9651
8.2466 2.6258 -2.0340 0.9651
7.2531 4.7217 -2.0340 0.9651
6.8015 5.3517 -2.0340 0.9651
6.2953 5.9389 -2.0340 0.9651
5.1359 6.9659 -2.0340 0.9651
7.6499 -1.7859 -2.0339 0.9681
7.7790 -1.0942 -2.0340 0.9681
7.8458 -0.3937 -2.0340 0.9681
7.8496 0.3099 -2.0340 0.9681
7.7904 1.0110 -2.0340 0.9681
7.6687 1.7041 -2.0340 0.9681
7.2421 3.0437 -2.0340 0.9681
6.9407 3.6796 -2.0340 0.9681
6.5837 4.2859 -2.0340 0.9681
6.1737 4.8578 -2.0340 0.9681
5.7143 5.3908 -2.0340 0.9681
4.6619 6.3230 -2.0340 0.9681
4.0774 6.7148 -2.0340 0.9681
6.5934 -2.8544 -2.0339 0.9706
7.1757 -0.3601 -2.0340 0.9706
7.1251 0.9247 -2.0340 0.9706
7.0138 1.5585 -2.0340 0.9706
6.8462 2.1799 -2.0340 0.9706
6.6237 2.7838 -2.0340 0.9706
6.0214 3.9198 -2.0340 0.9706
5.6465 4.4429 -2.0340 0.9706
5.2263 4.9304 -2.0340 0.9706
3.7292 6.1414 -2.0340 0.9706
6.0685 -2.6271 -2.0339 0.9727
6.2793 -2.0736 -2.0339 0.9727
6.5579 0.8511 -2.0340 0.9727
6.3012 2.0064 -2.0340 0.9727
5.5420 3.6078 -2.0340 0.9727
5.1970 4.0892 -2.0340 0.9727
4.8102 4.5379 -2.0340 0.9727
4.3849 4.9501 -2.0340 0.9727
5.8102 -1.9187 -2.0339 0.9745
6.0593 -0.8523 -2.0339 0.9745
4.4510 4.1989 -2.0340 0.9745
3.6312 4.9251 -2.0340 0.9745
3.1759 5.2302 -2.0340 0.9745
5.4007 -1.7835 -2.0339 0.9761
5.6322 -0.7922 -2.0339 0.9761
5.6805 -0.2851 -2.0339 0.9761
5.6832 0.2243 -2.0340 0.9761
5.6404 0.7320 -2.0340 0.9761
5.5523 1.2338 -2.0340 0.9761
5.4196 1.7257 -2.0340 0.9761
5.2435 2.2037 -2.0340 0.9761
5.0253 2.6641 -2.0340 0.9761
4.4699 3.5171 -2.0340 0.9761
4.1373 3.9030 -2.0340 0.9761
3.3753 4.5780 -2.0340 0.9761
5.0398 -1.6643 -2.0339 0.9775
5.2558 -0.7393 -2.0339 0.9775
5.2634 0.6831 -2.0340 0.9775
5.1812 1.1513 -2.0340 0.9775
5.0574 1.6103 -2.0340 0.9775
4.4481 2.8956 -2.0340 0.9775
4.1712 3.2821 -2.0340 0.9775
3.8607 3.6422 -2.0340 0.9775
3.5194 3.9730 -2.0340 0.9775
3.1497 4.2720 -2.0340 0.9775
4.5606 -1.9744 -2.0339 0.9788
4.9658 0.1960 -2.0339 0.9787
4.7354 1.5078 -2.0340 0.9787
4.3908 2.3277 -2.0340 0.9787
3.9056 3.0731 -2.0340 0.9787
3.2953 3.7201 -2.0340 0.9787
4.4315 -1.4634 -2.0339 0.9798
4.5447 -1.0610 -2.0339 0.9798
4.6214 -0.6501 -2.0339 0.9798
4.6611 -0.2339 -2.0339 0.9798
4.6282 0.6006 -2.0339 0.9798
4.5559 1.0124 -2.0340 0.9798
4.3025 1.8082 -2.0340 0.9798
4.1234 2.1860 -2.0340 0.9798
3.6677 2.8859 -2.0340 0.9798
3.3948 3.2026 -2.0340 0.9798
2.7696 3.7564 -2.0340 0.9798
4.0324 -1.7457 -2.0339 0.9808
4.1724 -1.3779 -2.0339 0.9808
4.2790 -0.9990 -2.0339 0.9808
4.3886 -0.2203 -2.0339 0.9808
4.3907 0.1733 -2.0339 0.9808
4.2895 0.9531 -2.0339 0.9808
3.6826 2.3973 -2.0340 0.9808
3.4532 2.7172 -2.0340 0.9808
3.1963 3.0153 -2.0340 0.9808
2.2807 3.7559 -2.0340 0.9808
3.8052 -1.6473 -2.0339 0.9817
4.0379 -0.9427 -2.0339 0.9817
4.1120 0.5336 -2.0339 0.9817
4.0478 0.8994 -2.0339 0.9817
3.8226 1.6065 -2.0340 0.9817
3.4750 2.2622 -2.0340 0.9817
3.2587 2.5641 -2.0340 0.9817
2.1522 3.5442 -2.0340 0.9817
3.5979 -1.5576 -2.0339 0.9825
3.7229 -1.2294 -2.0339 0.9825
2.0942 -0.2946 -1.0971 0.9905
2.0773 0.0820 -1.0785 0.9907
3.6144 1.5190 -2.0339 0.9825
3.2858 2.1390 -2.0340 0.9825
3.0812 2.4244 -2.0340 0.9825
2.8519 2.6904 -2.0340 0.9825
2.5997 2.9348 -2.0340 0.9825
2.3267 3.1556 -2.0340 0.9825
3.4079 -1.4753 -2.0339 0.9832
1.8920 -0.6248 -1.0913 0.9910
1.8528 -0.0930 -1.0160 0.9916
1.8850 0.6002 -1.0835 0.9910
3.4235 1.4388 -2.0339 0.9832
3.2811 1.7394 -2.0339 0.9832
3.1123 2.0260 -2.0339 0.9832
2.4624 2.7798 -2.0340 0.9832
2.2038 2.9890 -2.0340 0.9832
1.7239 0.0680 -0.9961 0.9921
1.7214 0.5481 -1.0430 0.9917
1.7634 0.7411 -1.1044 0.9912
3.1126 1.6501 -2.0339 0.9839
2.9524 1.9220 -2.0339 0.9839
2.7686 2.1785 -2.0339 0.9839
2.3360 2.6371 -2.0340 0.9839
