ply
format ascii 1.0
element vertex 182
property float32 x
property float32 y
property float32 z
property float32 I
end_header
2.5154 18.6118 1.5899 0.9274
4.0347 17.7324 0.7171 0.9298
2.4045 17.7913 0.3033 0.9307
4.1355 18.1755 -0.1049 0.9282
2.5890 19.1566 -0.1088 0.9256
14.7586 8.8980 -1.2636 0.9332
14.5210 8.7547 -1.6279 0.9341
13.1324 9.6141 -1.5625 0.9367
-1.0590 7.8653 -0.7619 0.9686
16.0035 6.0927 -2.0341 0.9333
15.3958 7.4971 -2.0341 0.9333
14.6651 8.8416 -2.0341 0.9333
13.8173 10.1155 -2.0341 0.9333
12.8592 11.3087 -2.0341 0.9333
11.7983 12.4115 -2.0341 0.9333
10.6432 13.4152 -2.0341 0.9333
8.0879 15.0941 -2.0341 0.9333
3.7993 16.6975 -2.0341 0.9333
-0.7608 17.1070 -2.0341 0.9333
-1.0158 7.5446 -0.9043 0.9698
-1.6845 7.4203 -0.9039 0.9698
13.4165 5.1078 -2.0341 0.9437
12.9070 6.2851 -2.0341 0.9437
12.2944 7.4123 -2.0341 0.9437
11.5836 8.4803 -2.0341 0.9437
10.7804 9.4805 -2.0341 0.9437
9.8910 10.4051 -2.0341 0.9437
7.8830 11.9981 -2.0341 0.9437
5.6237 13.2087 -2.0341 0.9437
4.4221 13.6579 -2.0341 0.9437
1.9227 14.2266 -2.0341 0.9437
-0.9984 7.4151 -1.0601 0.9702
11.5391 4.3930 -2.0340 0.9512
9.9627 7.2937 -2.0341 0.9512
9.2718 8.1539 -2.0341 0.9512
8.5069 8.9491 -2.0341 0.9512
5.8316 10.8833 -2.0341 0.9512
3.8033 11.7468 -2.0341 0.9512
2.7395 12.0394 -2.0341 0.9512
0.5548 12.3346 -2.0340 0.9512
-1.6146 7.1128 -1.2016 0.9709
9.2676 5.5874 -2.0340 0.9569
8.7318 6.3925 -2.0340 0.9569
8.1263 7.1465 -2.0340 0.9569
6.7259 8.4777 -2.0341 0.9569
5.9422 9.0443 -2.0341 0.9569
4.2392 9.9568 -2.0340 0.9569
1.4494 10.7241 -2.0340 0.9569
-0.3478 7.8199 -1.4713 0.9686
-0.9811 7.2871 -1.3820 0.9705
8.6514 4.2129 -2.0340 0.9614
8.2407 4.9683 -2.0340 0.9614
7.7643 5.6842 -2.0340 0.9614
4.5448 8.4818 -2.0340 0.9614
3.7694 8.8536 -2.0340 0.9614
2.9640 9.1547 -2.0340 0.9614
2.1349 9.3828 -2.0340 0.9614
-0.3451 7.7594 -1.6418 0.9687
-1.6445 7.2441 -1.5702 0.9701
7.7810 3.7890 -2.0340 0.9651
6.4989 5.7153 -2.0340 0.9651
5.9627 6.2727 -2.0340 0.9651
5.3790 6.7800 -2.0340 0.9651
4.7522 7.2331 -2.0340 0.9651
4.0875 7.6284 -2.0340 0.9651
1.1591 8.5765 -2.0340 0.9651
-0.3845 8.6459 -2.0340 0.9651
-0.9760 7.2484 -1.7189 0.9704
7.3417 2.7951 -2.0340 0.9681
7.0629 3.4393 -2.0340 0.9681
6.7276 4.0561 -2.0340 0.9681
5.8991 5.1879 -2.0340 0.9681
4.3136 6.5655 -2.0340 0.9681
3.7103 6.9244 -2.0340 0.9681
2.4198 7.4738 -2.0340 0.9681
1.0521 7.7850 -2.0340 0.9681
-0.9877 7.3354 -1.9164 0.9699
-1.7391 7.6607 -2.0340 0.9681
6.7147 2.5563 -2.0340 0.9706
5.3954 4.7448 -2.0340 0.9706
2.2131 6.8356 -2.0340 0.9706
1.5941 7.0058 -2.0340 0.9706
-0.3192 7.1777 -2.0340 0.9706
-0.9587 7.1205 -2.0340 0.9706
5.3358 3.9063 -2.0340 0.9727
4.5562 4.7929 -2.0340 0.9727
4.1101 5.1805 -2.0340 0.9727
0.8857 6.5533 -2.0340 0.9727
-0.2938 6.6063 -2.0340 0.9727
-0.8824 6.5537 -2.0340 0.9727
5.7186 2.1771 -2.0340 0.9745
5.5014 2.6789 -2.0340 0.9745
5.2403 3.1594 -2.0340 0.9745
4.5949 4.0409 -2.0340 0.9745
4.2158 4.4349 -2.0340 0.9745
3.8031 4.7936 -2.0340 0.9745
3.3600 5.1140 -2.0340 0.9745
2.8900 5.3935 -2.0340 0.9745
2.3970 5.6300 -2.0340 0.9745
1.8848 5.8215 -2.0340 0.9745
-0.2719 6.1129 -2.0340 0.9745
5.3155 2.0237 -2.0340 0.9761
5.1137 2.4901 -2.0340 0.9761
4.2711 3.7561 -2.0340 0.9761
3.9187 4.1224 -2.0340 0.9761
3.5350 4.4558 -2.0340 0.9761
3.1232 4.7536 -2.0340 0.9761
2.6863 5.0134 -2.0340 0.9761
0.7617 5.6364 -2.0340 0.9761
-0.7590 5.6368 -2.0340 0.9761
-1.2591 5.5465 -2.0340 0.9761
4.7719 2.3237 -2.0340 0.9775
3.9856 3.5051 -2.0340 0.9775
3.6568 3.8469 -2.0340 0.9775
2.0791 4.8834 -2.0340 0.9775
1.6349 5.0495 -2.0340 0.9775
1.1776 5.1753 -2.0340 0.9775
0.7108 5.2597 -2.0340 0.9775
0.2385 5.3022 -2.0340 0.9775
-0.2358 5.3023 -2.0340 0.9775
-0.7082 5.2601 -2.0340 0.9775
-1.1750 5.1758 -2.0339 0.9775
4.6445 1.7682 -2.0340 0.9787
4.4681 2.1757 -2.0340 0.9787
4.2560 2.5659 -2.0340 0.9787
3.4240 3.6020 -2.0340 0.9787
3.0888 3.8933 -2.0340 0.9787
1.5308 4.7280 -2.0340 0.9787
1.1026 4.8458 -2.0340 0.9787
-0.6631 4.9252 -2.0339 0.9788
-1.1002 4.8463 -2.0339 0.9788
3.5046 3.0820 -2.0340 0.9798
3.2154 3.3826 -2.0340 0.9798
2.9007 3.6561 -2.0340 0.9798
2.2042 4.1137 -2.0340 0.9798
1.8282 4.2940 -2.0340 0.9798
1.4375 4.4401 -2.0340 0.9798
1.0355 4.5507 -2.0340 0.9798
0.6250 4.6249 -2.0340 0.9798
4.1065 1.5634 -2.0340 0.9808
3.5455 2.5956 -2.0340 0.9808
3.2996 2.9018 -2.0340 0.9808
3.0274 3.1848 -2.0340 0.9808
2.4128 3.6724 -2.0340 0.9808
2.0754 3.8731 -2.0340 0.9808
0.5886 4.3545 -2.0340 0.9808
0.1974 4.3896 -2.0340 0.9808
-0.1952 4.3897 -2.0339 0.9808
-0.9728 4.2850 -2.0339 0.9808
3.5511 2.1409 -2.0340 0.9817
3.3457 2.4494 -2.0340 0.9817
2.5771 3.2484 -2.0340 0.9817
1.9584 3.6549 -2.0340 0.9817
-0.9179 4.0436 -2.0339 0.9817
3.6641 1.3950 -2.0339 0.9825
3.5250 1.7165 -2.0339 0.9825
2.9441 2.5891 -2.0340 0.9825
2.4368 3.0714 -2.0340 0.9825
1.8517 3.4558 -2.0340 0.9825
1.2077 3.7300 -2.0340 0.9825
0.5251 3.8853 -2.0339 0.9825
0.1761 3.9167 -2.0339 0.9825
-0.5232 3.8855 -2.0339 0.9825
-0.8679 3.8233 -2.0339 0.9825
3.4706 1.3213 -2.0339 0.9832
3.3388 1.6258 -2.0339 0.9832
2.5586 2.6916 -2.0340 0.9832
2.0392 3.1037 -2.0340 0.9832
1.4547 3.4168 -2.0340 0.9832
1.1439 3.5330 -2.0339 0.9832
0.4973 3.6801 -2.0339 0.9832
0.1669 3.7098 -2.0339 0.9832
-0.1650 3.7099 -2.0339 0.9832
3.1674 1.5423 -2.0339 0.9839
3.0170 1.8189 -2.0339 0.9839
2.8426 2.0810 -2.0339 0.9839
2.6454 2.3265 -2.0339 0.9839
2.1896 2.7598 -2.0340 0.9839
1.6639 3.1052 -2.0339 0.9839
0.7816 3.4351 -2.0339 0.9839
0.4718 3.4911 -2.0339 0.9839
-0.1565 3.5194 -2.0339 0.9839
