ply
format ascii 1.0
element vertex 207
property float32 x
property float32 y
property float32 z
property float32 I
end_header
-12.3813 12.4925 2.6945 0.9313
2.2939 17.5908 2.3101 0.9309
-11.7677 11.8733 2.1769 0.9348
2.4064 18.4530 1.9983 0.9279
-11.1785 13.5479 1.8861 0.9318
-12.1954 12.3049 1.8603 0.9327
2.4314 18.6444 1.5917 0.9273
-4.6173 19.3221 1.6817 0.9233
-11.4023 13.8191 1.5166 0.9306
-11.9807 12.0883 1.4407 0.9340
2.2844 17.5175 1.0955 0.9316
-12.0099 12.1178 1.0580 0.9339
3.9969 17.8121 0.7198 0.9295
4.0988 18.2662 -0.1054 0.9279
2.5075 19.2279 -0.1092 0.9254
2.4093 18.4750 -0.5246 0.9282
8.1183 15.0777 -2.0341 0.9333
6.7136 15.7534 -2.0341 0.9333
2.2144 16.9804 -2.0341 0.9333
0.6611 17.1113 -2.0341 0.9333
-0.8976 17.1004 -2.0341 0.9333
-1.7611 7.3698 -0.9001 0.9699
-6.9304 15.6582 -2.0340 0.9333
-9.6515 14.1438 -2.0340 0.9334
-14.0563 9.7772 -2.0339 0.9334
7.9272 11.9690 -2.0341 0.9437
6.8059 12.6403 -2.0341 0.9437
-1.0635 7.3598 -1.0536 0.9704
-1.7243 7.2155 -1.0511 0.9705
-5.8100 13.1270 -2.0340 0.9437
-8.0913 11.8574 -2.0340 0.9437
-9.1359 11.0724 -2.0339 0.9437
-10.1049 10.1957 -2.0339 0.9437
-11.7842 8.1968 -2.0339 0.9437
4.8407 11.3587 -2.0341 0.9512
-3.9497 11.6980 -2.0340 0.9512
-7.8577 9.5231 -2.0339 0.9512
-8.6911 8.7691 -2.0339 0.9512
-9.4524 7.9424 -2.0339 0.9512
-10.1354 7.0499 -2.0339 0.9512
4.2426 9.9553 -2.0340 0.9569
2.3694 10.5590 -2.0340 0.9569
0.4178 10.8135 -2.0340 0.9569
-0.4057 7.7292 -1.4548 0.9690
-1.0381 7.1840 -1.3643 0.9709
-1.7078 7.1466 -1.3811 0.9705
-6.0994 8.9383 -2.0339 0.9569
-8.2846 6.9611 -2.0339 0.9569
-8.8832 6.1789 -2.0339 0.9569
4.5619 8.4725 -2.0340 0.9614
3.7725 8.8523 -2.0340 0.9614
2.9519 9.1586 -2.0340 0.9614
1.2443 9.5418 -2.0340 0.9614
-0.3990 7.6010 -1.6089 0.9694
-1.7164 7.1828 -1.5611 0.9703
-2.4367 7.2167 -1.6101 0.9693
-4.6784 8.4083 -2.0340 0.9614
-5.4236 7.9480 -2.0339 0.9614
-6.1239 7.4219 -2.0339 0.9614
1.8949 8.4446 -2.0340 0.9651
1.1191 8.5818 -2.0340 0.9651
0.3341 8.6480 -2.0340 0.9651
-0.4537 8.6425 -2.0340 0.9651
-1.7190 7.1935 -1.7383 0.9701
-2.7686 8.1996 -2.0340 0.9651
-3.5027 7.9138 -2.0340 0.9651
-4.8780 7.1485 -2.0339 0.9651
-5.5078 6.6752 -2.0339 0.9651
-6.0920 6.1466 -2.0339 0.9651
-6.6256 5.5672 -2.0339 0.9651
2.4099 7.4770 -2.0340 0.9681
0.3033 7.8499 -2.0340 0.9681
-0.4118 7.8449 -2.0340 0.9681
-1.1235 7.7749 -2.0340 0.9681
-1.8258 7.6405 -2.0340 0.9681
-3.1794 7.1834 -2.0340 0.9681
-4.4278 6.4887 -2.0339 0.9681
-5.5297 5.5794 -2.0339 0.9681
3.9674 5.9902 -2.0340 0.9706
2.8168 6.6097 -2.0340 0.9706
1.5732 7.0106 -2.0340 0.9706
0.9291 7.1246 -2.0340 0.9706
0.2774 7.1795 -2.0340 0.9706
-0.3766 7.1749 -2.0340 0.9706
-1.0275 7.1109 -2.0340 0.9706
-1.6699 6.9880 -2.0340 0.9706
-2.2984 6.8072 -2.0340 0.9706
-4.5726 5.5417 -2.0339 0.9706
3.1350 5.8225 -2.0340 0.9727
2.5925 6.0835 -2.0340 0.9727
1.4479 6.4524 -2.0340 0.9727
0.8552 6.5574 -2.0340 0.9727
-1.5370 6.4317 -2.0340 0.9727
-2.1155 6.2653 -2.0340 0.9727
-2.6764 6.0469 -2.0339 0.9727
-3.2152 5.7785 -2.0339 0.9727
-3.7273 5.4622 -2.0339 0.9727
-5.0627 4.2539 -2.0339 0.9727
1.8771 5.8239 -2.0340 0.9745
1.3397 5.9705 -2.0340 0.9745
0.7912 6.0676 -2.0340 0.9745
0.2362 6.1144 -2.0340 0.9745
-0.3208 6.1105 -2.0340 0.9745
-1.9574 5.7973 -2.0339 0.9745
-2.4765 5.5953 -2.0339 0.9745
-2.9750 5.3469 -2.0339 0.9745
-3.4489 5.0542 -2.0339 0.9745
3.1407 4.7420 -2.0340 0.9761
2.6965 5.0080 -2.0340 0.9761
1.2454 5.5497 -2.0340 0.9761
0.2196 5.6835 -2.0340 0.9761
-0.2982 5.6799 -2.0340 0.9761
-0.8134 5.6292 -2.0340 0.9761
-1.3219 5.5319 -2.0340 0.9761
-1.8195 5.3888 -2.0339 0.9761
-2.7654 4.9701 -2.0339 0.9761
-3.2059 4.6980 -2.0339 0.9761
-3.6198 4.3870 -2.0339 0.9761
-4.6691 3.2477 -2.0339 0.9761
2.5162 4.6733 -2.0340 0.9775
2.0809 4.8827 -2.0340 0.9775
1.1621 5.1788 -2.0340 0.9775
-0.2782 5.3003 -2.0340 0.9775
-0.7591 5.2530 -2.0340 0.9775
-1.6979 5.0286 -2.0339 0.9775
-2.1481 4.8534 -2.0339 0.9775
-2.5805 4.6379 -2.0339 0.9775
-2.9916 4.3840 -2.0339 0.9775
-4.0634 3.4143 -2.0339 0.9775
-4.3570 3.0306 -2.0339 0.9775
1.9484 4.5718 -2.0340 0.9787
1.0881 4.8491 -2.0340 0.9787
-1.1551 4.8335 -2.0339 0.9788
-2.0114 4.5444 -2.0339 0.9788
-2.4163 4.3426 -2.0339 0.9788
-2.8011 4.1049 -2.0339 0.9788
-3.8047 3.1969 -2.0339 0.9788
-4.0796 2.8377 -2.0339 0.9788
2.5770 3.8910 -2.0340 0.9798
1.4317 4.4420 -2.0340 0.9798
1.0218 4.5538 -2.0340 0.9798
0.6035 4.6278 -2.0340 0.9798
0.1802 4.6635 -2.0340 0.9798
-0.2446 4.6606 -2.0340 0.9798
-0.6674 4.6190 -2.0339 0.9798
-1.0847 4.5391 -2.0339 0.9798
-2.2691 4.0782 -2.0339 0.9798
-2.6305 3.8549 -2.0339 0.9798
-3.5730 3.0022 -2.0339 0.9798
-3.8312 2.6649 -2.0339 0.9798
2.4264 3.6635 -2.0340 0.9808
2.0832 3.8689 -2.0340 0.9808
1.7227 4.0423 -2.0340 0.9808
1.3480 4.1822 -2.0340 0.9808
0.9621 4.2875 -2.0340 0.9808
0.1696 4.3908 -2.0340 0.9808
-0.2303 4.3880 -2.0339 0.9808
-1.0213 4.2737 -2.0339 0.9808
-1.4056 4.1631 -2.0339 0.9808
-1.7784 4.0180 -2.0339 0.9808
-2.4767 3.6295 -2.0339 0.9808
-2.7965 3.3892 -2.0339 0.9808
-3.3641 2.8267 -2.0339 0.9808
2.2896 3.4570 -2.0340 0.9817
1.6257 3.8145 -2.0340 0.9817
1.2720 3.9466 -2.0340 0.9817
0.9079 4.0459 -2.0340 0.9817
0.5362 4.1117 -2.0340 0.9817
0.1601 4.1434 -2.0339 0.9817
-0.5930 4.1038 -2.0339 0.9817
-0.9637 4.0329 -2.0339 0.9817
-1.3264 3.9286 -2.0339 0.9817
-2.3371 3.4250 -2.0339 0.9817
-2.6389 3.1983 -2.0339 0.9817
-3.1745 2.6674 -2.0339 0.9817
1.5371 3.6068 -2.0340 0.9825
1.2028 3.7316 -2.0340 0.9825
0.5070 3.8877 -2.0339 0.9825
0.1514 3.9177 -2.0339 0.9825
-1.9062 3.4260 -2.0339 0.9825
-2.2098 3.2384 -2.0339 0.9825
-2.7598 2.7846 -2.0339 0.9825
-3.0016 2.5221 -2.0339 0.9825
-3.2185 2.2387 -2.0339 0.9825
1.1392 3.5345 -2.0339 0.9832
0.8131 3.6235 -2.0339 0.9832
0.4803 3.6824 -2.0339 0.9832
0.1434 3.7108 -2.0339 0.9832
-0.5311 3.6754 -2.0339 0.9832
-0.8631 3.6119 -2.0339 0.9832
-1.8056 3.2450 -2.0339 0.9832
-2.0932 3.0674 -2.0339 0.9832
-2.6141 2.6376 -2.0339 0.9832
-3.0486 2.1205 -2.0339 0.9832
1.9453 2.9371 -2.0340 0.9839
1.6701 3.1018 -2.0339 0.9839
1.3811 3.2408 -2.0339 0.9839
0.7714 3.4374 -2.0339 0.9839
0.4555 3.4933 -2.0339 0.9839
0.1360 3.5202 -2.0339 0.9839
-0.1847 3.5180 -2.0339 0.9839
-0.5038 3.4867 -2.0339 0.9839
-1.4258 3.2214 -2.0339 0.9839
-1.9857 2.9099 -2.0339 0.9839
-2.2421 2.7172 -2.0339 0.9839
-2.6971 2.2662 -2.0339 0.9839
-2.8920 2.0116 -2.0339 0.9839
