ply
format ascii 1.0
element vertex 189
property float32 x
property float32 y
property float32 z
property float32 I
end_header
16.8566 -3.6838 -0.8750 0.9332
16.2894 -3.5598 -1.6008 0.9352
11.4199 -12.7574 -2.0339 0.9334
12.5129 -11.6875 -2.0339 0.9334
14.3916 -9.2771 -2.0339 0.9334
15.1622 -7.9559 -2.0339 0.9334
16.7284 -3.6558 -2.0340 0.9334
16.9508 2.4282 -2.0341 0.9333
15.0302 8.2056 -2.0341 0.9333
8.5813 -11.5069 -2.0338 0.9437
10.4903 -9.7983 -2.0339 0.9437
11.3229 -8.8231 -2.0339 0.9437
12.0652 -7.7775 -2.0339 0.9437
12.7113 -6.6699 -2.0339 0.9437
13.2559 -5.5089 -2.0340 0.9437
14.0243 -3.0648 -2.0340 0.9437
14.2420 -1.8010 -2.0340 0.9437
14.3459 -0.5229 -2.0340 0.9437
14.2106 2.0357 -2.0340 0.9437
13.9723 3.2958 -2.0341 0.9437
12.6005 6.8790 -2.0341 0.9437
6.4679 -10.5159 -2.0338 0.9512
7.3806 -9.8969 -2.0339 0.9512
8.2344 -9.1988 -2.0339 0.9512
10.3770 -6.6894 -2.0339 0.9512
12.0620 -2.6360 -2.0340 0.9512
12.2492 -1.5491 -2.0340 0.9512
12.3386 -0.4498 -2.0340 0.9512
12.0172 2.8346 -2.0340 0.9512
11.3220 4.9257 -2.0341 0.9512
10.8373 5.9165 -2.0341 0.9512
6.4688 -8.6742 -2.0339 0.9569
7.9078 -7.3863 -2.0339 0.9569
9.9925 -4.1527 -2.0339 0.9569
10.3233 -3.2445 -2.0340 0.9569
10.5718 -2.3103 -2.0340 0.9569
10.7358 -1.3577 -2.0340 0.9569
10.8063 0.5724 -2.0340 0.9569
10.7121 1.5345 -2.0340 0.9569
10.2688 3.4144 -2.0340 0.9569
7.5898 -5.9142 -2.0339 0.9614
8.0874 -5.2133 -2.0339 0.9614
8.8854 -3.6927 -2.0339 0.9614
9.1796 -2.8850 -2.0339 0.9614
9.4004 -2.0543 -2.0340 0.9614
9.5463 -1.2072 -2.0340 0.9614
9.6090 0.5090 -2.0340 0.9614
9.3655 2.2091 -2.0340 0.9614
8.4459 4.6110 -2.0340 0.9614
4.5337 -7.3712 -2.0339 0.9651
5.1734 -6.9372 -2.0339 0.9651
6.3243 -5.9072 -2.0339 0.9651
7.2737 -4.6889 -2.0339 0.9651
7.6632 -4.0211 -2.0339 0.9651
8.5859 -1.0858 -2.0340 0.9651
8.6486 -0.3153 -2.0340 0.9651
8.6423 0.4578 -2.0340 0.9651
8.5670 1.2272 -2.0340 0.9651
8.4233 1.9868 -2.0340 0.9651
8.2125 2.7306 -2.0340 0.9651
4.6960 -6.2971 -2.0339 0.9681
6.1963 -4.8283 -2.0339 0.9681
6.6025 -4.2562 -2.0339 0.9681
6.9560 -3.6500 -2.0339 0.9681
7.4942 -2.3553 -2.0339 0.9681
7.6745 -1.6771 -2.0339 0.9681
7.7936 -0.9856 -2.0340 0.9681
7.8505 -0.2862 -2.0340 0.9681
7.7763 1.1140 -2.0340 0.9681
7.6459 1.8035 -2.0340 0.9681
4.2950 -5.7593 -2.0339 0.9706
4.7918 -5.3531 -2.0339 0.9706
5.6672 -4.4160 -2.0339 0.9706
6.0387 -3.8927 -2.0339 0.9706
6.3620 -3.3383 -2.0339 0.9706
7.1280 -0.9014 -2.0340 0.9706
7.1748 0.3801 -2.0340 0.9706
3.9531 -5.3009 -2.0339 0.9727
4.4104 -4.9270 -2.0339 0.9727
4.8325 -4.5137 -2.0339 0.9727
5.2160 -4.0645 -2.0339 0.9727
5.5580 -3.5828 -2.0339 0.9727
5.8555 -3.0725 -2.0339 0.9727
6.3086 -1.9827 -2.0339 0.9727
6.5605 -0.8297 -2.0339 0.9727
6.5461 0.9378 -2.0340 0.9727
6.4362 1.5181 -2.0340 0.9727
6.0639 2.6381 -2.0340 0.9727
3.2055 -5.2118 -2.0339 0.9745
3.6578 -4.9050 -2.0339 0.9745
4.0809 -4.5590 -2.0339 0.9745
4.4715 -4.1766 -2.0339 0.9745
4.8264 -3.7609 -2.0339 0.9745
5.1428 -3.3152 -2.0339 0.9745
5.8373 -1.8346 -2.0339 0.9745
6.0705 -0.7677 -2.0339 0.9745
6.1148 -0.2229 -2.0340 0.9745
6.0571 0.8677 -2.0340 0.9745
3.7934 -4.2377 -2.0339 0.9761
4.1564 -3.8823 -2.0339 0.9761
4.4863 -3.4959 -2.0339 0.9761
4.7804 -3.0816 -2.0339 0.9761
5.0364 -2.6427 -2.0339 0.9761
5.2521 -2.1827 -2.0339 0.9761
5.6839 -0.2072 -2.0339 0.9761
3.1729 -4.2546 -2.0339 0.9775
3.5399 -3.9544 -2.0339 0.9775
4.1865 -3.2622 -2.0339 0.9775
4.6998 -2.4661 -2.0339 0.9775
5.0633 -1.5913 -2.0339 0.9775
5.3040 -0.1933 -2.0339 0.9775
5.3002 0.2808 -2.0339 0.9775
5.2539 0.7526 -2.0340 0.9775
4.8670 2.1174 -2.0340 0.9775
4.6586 2.5433 -2.0340 0.9775
4.1769 -2.6925 -2.0339 0.9788
4.4006 -2.3091 -2.0339 0.9788
4.5891 -1.9071 -2.0339 0.9788
4.7410 -1.4900 -2.0339 0.9788
4.8550 -1.0610 -2.0339 0.9788
4.9304 -0.6235 -2.0339 0.9788
4.9664 -0.1810 -2.0339 0.9787
4.9627 0.2629 -2.0339 0.9787
4.9195 0.7047 -2.0340 0.9787
4.7158 1.5680 -2.0340 0.9787
4.5571 1.9826 -2.0340 0.9787
2.4449 -3.9751 -2.0339 0.9798
3.9225 -2.5286 -2.0339 0.9798
4.1325 -2.1685 -2.0339 0.9798
4.4522 -1.3993 -2.0339 0.9798
4.5593 -0.9964 -2.0339 0.9798
4.6605 0.2469 -2.0339 0.9798
4.4286 1.4725 -2.0340 0.9798
4.2796 1.8618 -2.0340 0.9798
2.6268 -3.5223 -2.0339 0.9808
2.9306 -3.2739 -2.0339 0.9808
3.8909 -2.0416 -2.0339 0.9808
4.0576 -1.6863 -2.0339 0.9808
4.1919 -1.3175 -2.0339 0.9808
4.2927 -0.9381 -2.0339 0.9808
4.3911 -0.1601 -2.0339 0.9808
4.3879 0.2324 -2.0339 0.9808
4.0293 1.7529 -2.0340 0.9808
3.8568 2.1055 -2.0340 0.9808
2.1722 -3.5318 -2.0339 0.9817
2.7655 -3.0894 -2.0339 0.9817
3.2707 -2.5486 -2.0339 0.9817
3.4851 -2.2465 -2.0339 0.9817
3.8289 -1.5912 -2.0339 0.9817
3.9557 -1.2432 -2.0339 0.9817
4.0509 -0.8853 -2.0339 0.9817
4.1407 0.2193 -2.0339 0.9817
4.1046 0.5880 -2.0339 0.9817
3.9347 1.3083 -2.0339 0.9817
2.0539 -3.3395 -2.0339 0.9825
2.6149 -2.9211 -2.0339 0.9825
3.0925 -2.4098 -2.0339 0.9825
3.2953 -2.1242 -2.0339 0.9825
3.6204 -1.5046 -2.0339 0.9825
2.0887 -0.2642 -1.0922 0.9906
2.0782 0.1101 -1.0796 0.9907
2.0951 0.3001 -1.0980 0.9905
3.7204 1.2370 -2.0339 0.9825
1.9455 -3.1631 -2.0339 0.9832
2.2200 -2.9769 -2.0339 0.9832
2.4768 -2.7669 -2.0339 0.9832
2.9292 -2.2825 -2.0339 0.9832
3.1212 -2.0120 -2.0339 0.9832
3.2883 -1.7254 -2.0339 0.9832
3.4292 -1.4251 -2.0339 0.9832
1.8573 -0.4059 -1.0412 0.9914
1.8527 -0.0676 -1.0154 0.9916
1.8527 0.0981 -1.0162 0.9916
1.8467 0.2645 -1.0218 0.9915
1.8576 0.4381 -1.0453 0.9913
1.8933 0.6295 -1.0928 0.9909
3.4053 1.4815 -2.0339 0.9832
3.2595 1.7795 -2.0339 0.9832
2.1060 -2.8240 -2.0339 0.9839
2.5745 -2.4046 -2.0339 0.9839
2.7788 -2.1653 -2.0339 0.9839
2.9610 -1.9087 -2.0339 0.9839
3.1195 -1.6368 -2.0339 0.9839
1.7606 -0.7317 -1.1008 0.9912
1.7204 -0.5407 -1.0412 0.9917
1.7149 -0.3748 -1.0135 0.9919
1.7136 0.2454 -0.9994 0.9920
1.7147 0.4044 -1.0171 0.9919
3.0921 1.6881 -2.0339 0.9839
