ply
format ascii 1.0
element vertex 193
property float32 x
property float32 y
property float32 z
property float32 I
end_header
16.4615 -4.4116 -1.2496 0.9339
2.5384 -6.1204 -0.6361 0.9737
2.5120 -6.0567 -0.7789 0.9739
3.1431 -5.9681 -0.8012 0.9732
10.6043 -13.4429 -2.0338 0.9334
13.8540 -10.0621 -2.0339 0.9334
14.7162 -8.7530 -2.0339 0.9334
15.4552 -7.3706 -2.0340 0.9334
16.0647 -5.9264 -2.0340 0.9334
17.1222 0.2209 -2.0340 0.9333
16.7958 3.3358 -2.0341 0.9333
16.4205 4.8579 -2.0341 0.9333
1.9086 -6.1358 -0.9105 0.9744
7.8222 -12.0356 -2.0338 0.9437
8.8902 -11.2700 -2.0339 0.9437
10.7943 -9.4623 -2.0339 0.9437
11.6145 -8.4356 -2.0339 0.9437
12.9570 -6.1792 -2.0339 0.9437
13.8659 -3.7160 -2.0340 0.9437
14.3111 -1.1283 -2.0340 0.9437
14.0807 2.7966 -2.0341 0.9437
2.4036 -5.7954 -1.0336 0.9749
6.7278 -10.3516 -2.0338 0.9512
7.6463 -9.6931 -2.0339 0.9512
8.5008 -8.9533 -2.0339 0.9512
10.6112 -6.3114 -2.0339 0.9512
11.1440 -5.3146 -2.0339 0.9512
12.3086 -0.9704 -2.0340 0.9512
12.3458 0.1593 -2.0340 0.9512
12.1104 2.4052 -2.0340 0.9512
2.4514 -5.9106 -1.2027 0.9743
3.0682 -5.8259 -1.2376 0.9736
6.7016 -8.4956 -2.0339 0.9569
9.3002 -5.5317 -2.0339 0.9569
9.7672 -4.6580 -2.0339 0.9569
10.1523 -3.7453 -2.0339 0.9569
10.4523 -2.8012 -2.0340 0.9569
10.6648 -1.8336 -2.0340 0.9569
10.7879 -0.8506 -2.0340 0.9569
10.6142 2.1081 -2.0340 0.9569
1.8654 -5.9967 -1.3275 0.9747
2.4249 -5.8467 -1.3379 0.9745
5.9591 -7.5544 -2.0339 0.9614
7.2355 -6.3427 -2.0339 0.9614
7.7853 -5.6544 -2.0339 0.9614
9.2943 -2.4908 -2.0340 0.9614
9.5926 -0.7563 -2.0340 0.9614
9.6216 0.1241 -2.0340 0.9614
9.5700 1.0035 -2.0340 0.9614
9.4382 1.8745 -2.0340 0.9614
2.9398 -5.5821 -1.4827 0.9744
5.3597 -6.7944 -2.0339 0.9651
6.5076 -5.7046 -2.0339 0.9651
7.0021 -5.0856 -2.0339 0.9651
7.4379 -4.4240 -2.0339 0.9651
8.1193 -2.9953 -2.0339 0.9651
8.3593 -2.2402 -2.0339 0.9651
8.5292 -1.4663 -2.0340 0.9651
8.4886 1.6860 -2.0340 0.9651
8.2989 2.4552 -2.0340 0.9651
1.7995 -5.7851 -1.5687 0.9753
2.4776 -5.9737 -1.6744 0.9736
3.0530 -5.7970 -1.6964 0.9733
4.2807 -6.5864 -2.0339 0.9681
5.9070 -5.1782 -2.0339 0.9681
7.0905 -3.3815 -2.0339 0.9681
7.3700 -2.7189 -2.0339 0.9681
1.8291 -5.8799 -1.7432 0.9747
2.5407 -6.1256 -1.8774 0.9728
3.3478 -6.3568 -2.0339 0.9706
5.4026 -4.7360 -2.0339 0.9706
5.8131 -4.2221 -2.0339 0.9706
6.1749 -3.6728 -2.0339 0.9706
6.7407 -2.4867 -2.0339 0.9706
7.1842 0.0927 -2.0340 0.9706
7.1457 0.7493 -2.0340 0.9706
7.0472 1.3996 -2.0340 0.9706
1.8714 -6.0162 -1.9379 0.9740
3.6034 -5.5444 -2.0339 0.9727
4.0954 -5.1917 -2.0339 0.9727
4.5530 -4.7954 -2.0339 0.9727
4.9725 -4.3590 -2.0339 0.9727
5.3504 -3.8860 -2.0339 0.9727
5.9687 -2.8465 -2.0339 0.9727
6.2040 -2.2887 -2.0339 0.9727
6.3874 -1.7118 -2.0339 0.9727
6.5171 -1.1205 -2.0339 0.9727
6.5923 -0.5197 -2.0340 0.9727
6.4862 1.2882 -2.0340 0.9727
2.3441 -5.6518 -2.0339 0.9745
3.3343 -5.1303 -2.0339 0.9745
4.2130 -4.4373 -2.0339 0.9745
4.6012 -4.0334 -2.0339 0.9745
4.9507 -3.5957 -2.0339 0.9745
5.2588 -3.1279 -2.0339 0.9745
5.5229 -2.6339 -2.0339 0.9745
5.9103 -1.5839 -2.0339 0.9745
6.0304 -1.0368 -2.0339 0.9745
6.1000 -0.4810 -2.0339 0.9745
6.0856 0.6381 -2.0340 0.9745
1.6893 -5.4307 -2.0339 0.9761
2.1789 -5.2535 -2.0339 0.9761
3.5225 -4.4654 -2.0339 0.9761
4.2769 -3.7492 -2.0339 0.9761
4.6018 -3.3423 -2.0339 0.9761
4.8882 -2.9075 -2.0339 0.9761
5.3361 -1.9685 -2.0339 0.9761
5.4938 -1.4723 -2.0339 0.9761
5.6054 -0.9637 -2.0339 0.9761
5.6872 0.0734 -2.0340 0.9761
5.6567 0.5931 -2.0340 0.9761
5.5787 1.1080 -2.0340 0.9761
5.4540 1.6135 -2.0340 0.9761
1.5764 -5.0678 -2.0339 0.9775
3.6544 -3.8489 -2.0339 0.9775
3.9911 -3.4986 -2.0339 0.9775
4.2943 -3.1190 -2.0339 0.9775
4.5616 -2.7132 -2.0339 0.9775
4.7906 -2.2846 -2.0339 0.9775
5.2307 -0.8993 -2.0339 0.9775
5.3071 0.0684 -2.0339 0.9775
5.2787 0.5535 -2.0340 0.9775
1.9038 -4.5903 -2.0339 0.9788
3.4217 -3.6039 -2.0339 0.9788
3.7369 -3.2759 -2.0339 0.9788
4.0209 -2.9204 -2.0339 0.9788
4.4856 -2.1392 -2.0339 0.9788
4.6625 -1.7200 -2.0339 0.9788
4.9543 -0.3906 -2.0339 0.9788
4.9425 0.5183 -2.0339 0.9788
4.7655 1.4098 -2.0340 0.9787
1.3862 -4.4562 -2.0339 0.9798
1.7879 -4.3107 -2.0339 0.9798
2.1746 -4.1292 -2.0339 0.9798
2.8903 -3.6641 -2.0339 0.9798
3.2133 -3.3844 -2.0339 0.9798
3.5094 -3.0763 -2.0339 0.9798
3.7760 -2.7425 -2.0339 0.9798
4.3785 -1.6153 -2.0339 0.9798
4.5079 -1.2081 -2.0339 0.9798
4.5995 -0.7908 -2.0339 0.9798
4.6416 0.4867 -2.0339 0.9798
4.5775 0.9091 -2.0339 0.9798
1.6834 -4.0587 -2.0339 0.9808
2.0475 -3.8877 -2.0339 0.9808
2.7213 -3.4498 -2.0339 0.9808
3.3042 -2.8964 -2.0339 0.9808
3.7765 -2.2462 -2.0339 0.9808
4.1225 -1.5208 -2.0339 0.9808
4.3805 -0.3454 -2.0339 0.9808
4.3937 0.0567 -2.0339 0.9808
4.3099 0.8560 -2.0339 0.9808
4.2136 1.2465 -2.0340 0.9808
1.5885 -3.8300 -2.0339 0.9817
2.2595 -3.4766 -2.0339 0.9817
3.3550 -2.4366 -2.0339 0.9817
4.0865 -0.7026 -2.0339 0.9817
4.1336 -0.3259 -2.0339 0.9817
4.1239 0.4324 -2.0339 0.9817
4.0670 0.8077 -2.0339 0.9817
3.9761 1.1763 -2.0339 0.9817
1.8269 -3.4689 -2.0339 0.9825
2.1364 -3.2872 -2.0339 0.9825
2.4281 -3.0781 -2.0339 0.9825
2.6995 -2.8432 -2.0339 0.9825
2.9482 -2.5844 -2.0339 0.9825
3.1722 -2.3039 -2.0339 0.9825
3.3696 -2.0042 -2.0339 0.9825
3.5388 -1.6876 -2.0339 0.9825
3.7870 -1.0149 -2.0339 0.9825
2.0765 -0.1637 -1.0806 0.9907
2.0784 0.2179 -1.0841 0.9906
2.1060 0.4182 -1.1139 0.9904
1.4227 -3.4301 -2.0339 0.9832
1.7304 -3.2857 -2.0339 0.9832
2.0236 -3.1137 -2.0339 0.9832
2.3000 -2.9155 -2.0339 0.9832
2.5570 -2.6930 -2.0339 0.9832
2.7925 -2.4479 -2.0339 0.9832
3.4840 -1.2853 -2.0339 0.9832
1.8525 -0.3185 -1.0295 0.9915
1.8514 -0.1460 -1.0172 0.9916
1.8559 0.3686 -1.0363 0.9914
1.8730 0.5541 -1.0698 0.9911
1.0464 -3.3638 -2.0339 0.9839
1.3496 -3.2540 -2.0339 0.9839
1.6415 -3.1170 -2.0339 0.9839
1.9197 -2.9538 -2.0339 0.9839
2.4256 -2.5547 -2.0339 0.9839
2.6491 -2.3222 -2.0339 0.9839
3.1798 -1.5164 -2.0339 0.9839
1.7142 -0.2947 -1.0042 0.9920
1.7247 0.0222 -0.9958 0.9921
