ply
format ascii 1.0
element vertex 181
property float32 x
property float32 y
property float32 z
property float32 I
end_header
-11.6873 -8.5407 -0.7341 0.9437
-11.2795 -8.2427 -1.6595 0.9453
-11.7555 -12.4465 -2.0337 0.9334
-9.2962 -14.3766 -2.0337 0.9334
-6.5270 -15.8275 -2.0337 0.9334
-3.5400 -16.7506 -2.0337 0.9334
1.1295 -17.0836 -2.0337 0.9334
4.2173 -16.5936 -2.0338 0.9334
2.2898 -6.4666 -0.8149 0.9727
8.5546 -14.8314 -2.0338 0.9334
-11.4869 -8.3942 -2.0158 0.9441
-9.8555 -10.4348 -2.0337 0.9437
-8.8616 -11.2911 -2.0337 0.9437
-7.7937 -12.0529 -2.0337 0.9437
-6.6607 -12.7143 -2.0337 0.9437
-4.2376 -13.7135 -2.0337 0.9437
-2.9678 -14.0432 -2.0337 0.9437
-0.3646 -14.3489 -2.0337 0.9437
0.9470 -14.3223 -2.0337 0.9437
2.2507 -14.1761 -2.0338 0.9437
7.1718 -12.4341 -2.0338 0.9437
-9.2607 -8.1635 -2.0337 0.9512
-6.7033 -10.3667 -2.0337 0.9512
-4.7064 -11.4129 -2.0337 0.9512
-3.6447 -11.7949 -2.0337 0.9512
-2.5526 -12.0785 -2.0337 0.9512
-1.4391 -12.2611 -2.0338 0.9512
-0.3137 -12.3414 -2.0338 0.9512
2.1239 -5.9981 -1.0482 0.9745
6.1684 -10.6944 -2.0338 0.9512
-7.4295 -7.8662 -2.0337 0.9569
-6.6802 -8.5117 -2.0337 0.9569
-5.0211 -9.5845 -2.0338 0.9569
-4.1250 -10.0030 -2.0338 0.9569
-3.1945 -10.3379 -2.0338 0.9569
-2.2373 -10.5863 -2.0338 0.9569
-1.2613 -10.7464 -2.0338 0.9569
-0.2749 -10.8168 -2.0338 0.9569
1.6967 -10.6865 -2.0338 0.9569
1.5993 -6.2929 -1.2204 0.9739
2.6616 -5.7769 -1.1955 0.9744
-7.7683 -5.6768 -2.0338 0.9614
-7.2175 -6.3623 -2.0338 0.9614
-5.9402 -7.5687 -2.0338 0.9614
-5.2243 -8.0795 -2.0338 0.9614
-4.4648 -8.5227 -2.0338 0.9614
-3.6680 -8.8948 -2.0338 0.9614
-2.8405 -9.1925 -2.0338 0.9614
-1.9895 -9.4136 -2.0338 0.9614
-0.2445 -9.6184 -2.0338 0.9614
0.6348 -9.6006 -2.0338 0.9614
1.5087 -9.5026 -2.0338 0.9614
1.5829 -6.2281 -1.3583 0.9741
2.0373 -5.7537 -1.2902 0.9754
3.3037 -5.7278 -1.3977 0.9733
-6.9868 -5.1058 -2.0338 0.9651
-6.4915 -5.7223 -2.0338 0.9651
-5.3427 -6.8073 -2.0338 0.9651
-4.6988 -7.2667 -2.0338 0.9651
-2.5548 -8.2678 -2.0338 0.9651
-1.0088 -8.5946 -2.0338 0.9651
1.3570 -8.5467 -2.0338 0.9651
2.6799 -5.8165 -1.5051 0.9740
-3.6451 -6.9580 -2.0338 0.9681
-2.3191 -7.5049 -2.0338 0.9681
-1.6241 -7.6853 -2.0338 0.9681
-0.9157 -7.8015 -2.0338 0.9681
-0.1996 -7.8525 -2.0338 0.9681
0.5182 -7.8380 -2.0338 0.9681
2.0484 -5.7849 -1.5889 0.9750
3.3879 -5.8739 -1.7557 0.9724
-4.9330 -5.2229 -2.0338 0.9706
-3.3339 -6.3638 -2.0338 0.9706
-1.4855 -7.0290 -2.0338 0.9706
-0.8375 -7.1353 -2.0338 0.9706
-0.1825 -7.1820 -2.0338 0.9706
1.1265 -7.0955 -2.0338 0.9706
1.5323 -6.0290 -1.7610 0.9745
2.1098 -5.9585 -1.7894 0.9741
-5.3387 -3.9014 -2.0338 0.9727
-4.9602 -4.3726 -2.0338 0.9727
-4.5403 -4.8072 -2.0338 0.9727
-3.5904 -5.5526 -2.0338 0.9727
-3.0684 -5.8573 -2.0338 0.9727
-2.5209 -6.1130 -2.0338 0.9727
-1.3672 -6.4695 -2.0338 0.9727
-0.1680 -6.6103 -2.0338 0.9727
2.7670 -6.0057 -2.0339 0.9727
3.3038 -5.7280 -2.0339 0.9727
-4.2013 -4.4481 -2.0338 0.9745
-3.7775 -4.8131 -2.0338 0.9745
-2.8393 -5.4198 -2.0338 0.9745
-1.2651 -5.9863 -2.0338 0.9745
-0.7133 -6.0768 -2.0338 0.9745
-0.1555 -6.1166 -2.0338 0.9745
0.4037 -6.1052 -2.0338 0.9745
0.9594 -6.0429 -2.0338 0.9745
1.5071 -5.9300 -2.0338 0.9745
-4.2663 -3.7609 -2.0338 0.9761
-3.9051 -4.1347 -2.0338 0.9761
-3.5113 -4.4739 -2.0338 0.9761
-2.1682 -5.2578 -2.0338 0.9761
-1.6791 -5.4338 -2.0338 0.9761
-0.6630 -5.6486 -2.0338 0.9761
1.4009 -5.5122 -2.0339 0.9761
1.8984 -5.3612 -2.0339 0.9761
2.3799 -5.1655 -2.0339 0.9761
2.8416 -4.9267 -2.0339 0.9761
-3.2767 -4.1750 -2.0338 0.9775
-2.4628 -4.7012 -2.0338 0.9775
-2.0233 -4.9064 -2.0338 0.9775
-0.6187 -5.2711 -2.0338 0.9775
0.8322 -5.2416 -2.0338 0.9775
1.7715 -5.0029 -2.0339 0.9775
-4.0123 -2.9320 -2.0338 0.9788
-3.4121 -3.6127 -2.0338 0.9788
-3.0680 -3.9092 -2.0338 0.9788
-2.3060 -4.4019 -2.0338 0.9788
-1.8945 -4.5941 -2.0338 0.9788
-1.4671 -4.7479 -2.0338 0.9788
-1.0275 -4.8620 -2.0338 0.9788
-0.5793 -4.9355 -2.0338 0.9788
-0.1262 -4.9678 -2.0338 0.9788
2.0795 -4.5135 -2.0339 0.9788
-3.7679 -2.7535 -2.0338 0.9798
-2.8812 -3.6711 -2.0338 0.9798
-2.5340 -3.9188 -2.0338 0.9798
-2.1656 -4.1338 -2.0338 0.9798
-1.3778 -4.4587 -2.0338 0.9798
-0.1186 -4.6652 -2.0338 0.9798
0.7318 -4.6090 -2.0339 0.9798
1.1495 -4.5230 -2.0339 0.9798
2.3317 -4.0426 -2.0339 0.9798
-3.2960 -2.9055 -2.0338 0.9808
-3.0170 -3.1943 -2.0338 0.9808
-2.3858 -3.6897 -2.0338 0.9808
-1.6751 -4.0620 -2.0338 0.9808
-1.2972 -4.1980 -2.0338 0.9808
-0.5122 -4.3639 -2.0338 0.9808
-0.1116 -4.3925 -2.0339 0.9808
1.0823 -4.2585 -2.0339 0.9808
1.4666 -4.1419 -2.0339 0.9808
1.8386 -3.9907 -2.0339 0.9808
2.1954 -3.8062 -2.0339 0.9808
-3.1103 -2.7418 -2.0338 0.9817
-2.5599 -3.2617 -2.0338 0.9817
-1.9241 -3.6728 -2.0338 0.9817
-0.1054 -4.1450 -2.0339 0.9817
0.6502 -4.0950 -2.0339 0.9817
1.0213 -4.0186 -2.0339 0.9817
1.3839 -3.9086 -2.0339 0.9817
2.0716 -3.5917 -2.0339 0.9817
-1.8193 -3.4728 -2.0338 0.9825
-0.8106 -3.8357 -2.0339 0.9825
-0.4570 -3.8937 -2.0339 0.9825
-0.0996 -3.9192 -2.0339 0.9825
0.2586 -3.9120 -2.0339 0.9825
0.6148 -3.8720 -2.0339 0.9825
1.6405 -3.5608 -2.0339 0.9825
-2.9982 -2.1910 -2.0339 0.9832
-2.7856 -2.4556 -2.0338 0.9832
-2.5497 -2.6996 -2.0338 0.9832
-2.2926 -2.9212 -2.0338 0.9832
-2.0164 -3.1183 -2.0338 0.9832
-1.4157 -3.4330 -2.0338 0.9832
-1.0963 -3.5479 -2.0339 0.9832
-0.7679 -3.6332 -2.0339 0.9832
-0.4329 -3.6881 -2.0339 0.9832
0.2450 -3.7053 -2.0339 0.9832
0.9147 -3.5990 -2.0339 0.9832
1.5539 -3.3727 -2.0339 0.9832
-2.8442 -2.0785 -2.0339 0.9839
-1.6348 -3.1205 -2.0339 0.9839
-1.3430 -3.2567 -2.0339 0.9839
-1.0400 -3.3657 -2.0339 0.9839
-0.7284 -3.4466 -2.0339 0.9839
-0.0895 -3.5216 -2.0339 0.9839
0.2324 -3.5151 -2.0339 0.9839
0.8677 -3.4142 -2.0339 0.9839
1.4741 -3.1995 -2.0339 0.9839
1.7601 -3.0516 -2.0339 0.9839
