ply
format ascii 1.0
element vertex 195
property float32 x
property float32 y
property float32 z
property float32 I
end_header
16.2798 -4.0694 -1.2304 0.9349
13.6573 8.6872 -1.5539 0.9370
9.7318 -14.0872 -2.0338 0.9334
14.0775 -9.7471 -2.0339 0.9334
16.1705 -5.6313 -2.0340 0.9334
16.6121 -4.1524 -2.0340 0.9334
17.0878 -1.1057 -2.0340 0.9333
17.1181 0.4374 -2.0341 0.9333
17.0093 1.9770 -2.0341 0.9333
16.7623 3.5005 -2.0341 0.9333
16.3791 4.9957 -2.0341 0.9333
15.8629 6.4502 -2.0341 0.9333
15.2177 7.8524 -2.0341 0.9333
14.4489 9.1908 -2.0341 0.9333
8.1587 -11.8102 -2.0338 0.9437
9.1891 -11.0277 -2.0339 0.9437
12.4898 -7.0757 -2.0339 0.9437
13.0763 -5.9224 -2.0339 0.9437
14.1838 -2.2130 -2.0340 0.9437
14.0525 2.9347 -2.0341 0.9437
13.7314 4.1881 -2.0341 0.9437
13.2985 5.4075 -2.0341 0.9437
12.1131 7.7050 -2.0341 0.9437
6.0740 -10.7482 -2.0338 0.9512
7.0172 -10.1577 -2.0338 0.9512
7.9034 -9.4847 -2.0339 0.9512
8.7254 -8.7346 -2.0339 0.9512
9.4764 -7.9135 -2.0339 0.9512
10.1506 -7.0282 -2.0339 0.9512
11.2466 -5.0938 -2.0339 0.9512
11.9780 -2.9941 -2.0340 0.9512
12.1991 -1.9034 -2.0340 0.9512
12.3211 -0.7973 -2.0340 0.9512
12.2644 1.4255 -2.0340 0.9512
11.8100 3.6021 -2.0340 0.9512
6.9270 -8.3129 -2.0339 0.9569
7.6474 -7.6555 -2.0339 0.9569
8.8965 -6.1599 -2.0339 0.9569
10.6919 -1.6682 -2.0340 0.9569
10.7987 -0.6988 -2.0340 0.9569
10.8179 0.2764 -2.0340 0.9569
10.3508 3.1570 -2.0340 0.9569
10.0245 4.0762 -2.0340 0.9569
9.6168 4.9623 -2.0340 0.9569
3.2455 -5.7430 -1.3944 0.9734
6.1595 -7.3920 -2.0339 0.9614
6.8001 -6.8074 -2.0339 0.9614
7.3855 -6.1674 -2.0339 0.9614
8.3720 -4.7429 -2.0339 0.9614
9.3351 -2.3334 -2.0340 0.9614
9.6023 -0.6213 -2.0340 0.9614
9.6193 0.2458 -2.0340 0.9614
9.2040 2.8072 -2.0340 0.9614
8.9139 3.6246 -2.0340 0.9614
3.2599 -5.7686 -1.5573 0.9731
4.9187 -7.1201 -2.0339 0.9651
6.6425 -5.5470 -2.0339 0.9651
7.1150 -4.9264 -2.0339 0.9651
8.3960 -2.0987 -2.0339 0.9651
8.5509 -1.3342 -2.0340 0.9651
8.6363 -0.5588 -2.0340 0.9651
8.6516 0.2211 -2.0340 0.9651
7.6910 3.9686 -2.0340 0.9651
7.3024 4.6450 -2.0340 0.9651
4.4648 -6.4630 -2.0339 0.9681
5.0286 -6.0348 -2.0339 0.9681
6.0295 -5.0351 -2.0339 0.9681
7.1558 -3.2409 -2.0339 0.9681
7.6211 -1.9050 -2.0339 0.9681
7.8032 0.9070 -2.0340 0.9681
7.6898 1.6059 -2.0340 0.9681
7.5140 2.2918 -2.0340 0.9681
6.9812 3.6023 -2.0340 0.9681
4.5992 -5.5195 -2.0339 0.9706
5.0775 -5.0829 -2.0339 0.9706
6.9703 -1.7423 -2.0339 0.9706
7.0989 -1.1076 -2.0339 0.9706
7.1825 0.1835 -2.0340 0.9706
7.1368 0.8295 -2.0340 0.9706
7.0331 1.4688 -2.0340 0.9706
6.0624 3.8562 -2.0340 0.9706
3.7584 -5.4406 -2.0339 0.9727
5.4366 -3.7643 -2.0339 0.9727
6.2449 -2.1747 -2.0339 0.9727
6.5338 -1.0195 -2.0339 0.9727
6.5686 0.7635 -2.0340 0.9727
6.4732 1.3518 -2.0340 0.9727
3.0103 -5.3269 -2.0339 0.9745
3.4777 -5.0342 -2.0339 0.9745
4.3243 -4.3289 -2.0339 0.9745
5.0306 -3.4831 -2.0339 0.9745
5.3238 -3.0160 -2.0339 0.9745
5.5738 -2.5244 -2.0339 0.9745
5.9362 -1.4838 -2.0339 0.9745
6.0457 -0.9433 -2.0339 0.9745
6.1061 -0.3951 -2.0339 0.9745
5.9897 1.2508 -2.0340 0.9745
5.8528 1.7851 -2.0340 0.9745
5.6683 2.3048 -2.0340 0.9745
5.1630 3.2841 -2.0340 0.9745
3.2327 -4.6795 -2.0339 0.9761
3.6409 -4.3694 -2.0339 0.9761
4.0195 -4.0238 -2.0339 0.9761
4.3655 -3.6456 -2.0339 0.9761
4.6761 -3.2377 -2.0339 0.9761
5.5179 -1.3793 -2.0339 0.9761
5.6758 -0.3673 -2.0339 0.9761
5.6858 0.1453 -2.0340 0.9761
5.6496 0.6567 -2.0340 0.9761
5.5676 1.1627 -2.0340 0.9761
5.4403 1.6593 -2.0340 0.9761
5.2688 2.1424 -2.0340 0.9761
4.7991 3.0527 -2.0340 0.9761
3.3975 -4.0774 -2.0339 0.9775
3.7509 -3.7549 -2.0339 0.9775
4.0738 -3.4019 -2.0339 0.9775
4.6179 -2.6162 -2.0339 0.9775
4.8347 -2.1897 -2.0339 0.9775
5.1491 -1.2871 -2.0339 0.9775
5.2441 -0.8182 -2.0339 0.9775
5.2964 -0.3427 -2.0339 0.9775
5.1955 1.0850 -2.0340 0.9775
5.0767 1.5484 -2.0340 0.9775
4.7167 2.4338 -2.0340 0.9775
2.4449 -4.3264 -2.0339 0.9788
3.1813 -3.8178 -2.0339 0.9788
3.8144 -3.1854 -2.0339 0.9788
4.6932 -1.6344 -2.0339 0.9788
4.8212 -1.2052 -2.0339 0.9788
4.9102 -0.7662 -2.0339 0.9788
4.9680 0.1269 -2.0339 0.9788
4.9364 0.5738 -2.0339 0.9787
4.4164 2.2788 -2.0340 0.9787
2.9875 -3.5853 -2.0339 0.9798
3.2982 -3.3017 -2.0339 0.9798
3.5821 -2.9913 -2.0339 0.9798
4.0606 -2.3004 -2.0339 0.9798
4.2512 -1.9254 -2.0339 0.9798
4.4073 -1.5348 -2.0339 0.9798
4.6112 -0.7195 -2.0339 0.9798
4.6655 0.1192 -2.0339 0.9798
4.6358 0.5388 -2.0339 0.9798
4.5685 0.9540 -2.0340 0.9798
4.4640 1.3615 -2.0340 0.9798
4.1474 2.1401 -2.0340 0.9798
3.9379 2.5048 -2.0340 0.9798
2.1617 -3.8253 -2.0339 0.9808
2.4975 -3.6152 -2.0339 0.9808
2.8128 -3.3756 -2.0339 0.9808
3.3727 -2.8164 -2.0339 0.9808
3.6126 -2.5013 -2.0339 0.9808
3.8231 -2.1659 -2.0339 0.9808
4.1496 -1.4451 -2.0339 0.9808
4.3415 -0.6774 -2.0339 0.9808
4.3849 -0.2837 -2.0339 0.9808
4.3926 0.1122 -2.0339 0.9808
3.9049 2.0149 -2.0340 0.9808
2.3567 -3.4115 -2.0339 0.9817
2.9304 -2.9335 -2.0339 0.9817
3.9158 -1.3637 -2.0339 0.9817
4.0227 -1.0055 -2.0339 0.9817
4.0969 -0.6393 -2.0339 0.9817
4.1378 -0.2678 -2.0339 0.9817
4.1188 0.4787 -2.0339 0.9817
3.9661 1.2096 -2.0339 0.9817
2.5098 -3.0119 -2.0339 0.9825
2.7707 -2.7737 -2.0339 0.9825
3.4112 -1.9325 -2.0339 0.9825
3.7025 -1.2894 -2.0339 0.9825
2.0990 -0.3275 -1.1021 0.9905
2.0783 -0.1345 -1.0804 0.9907
2.0841 0.2422 -1.0885 0.9906
2.1078 0.4402 -1.1171 0.9903
3.7501 1.1438 -2.0339 0.9825
3.6319 1.4768 -2.0339 0.9825
3.4841 1.7978 -2.0340 0.9825
1.8270 -3.2330 -2.0339 0.9832
2.1107 -3.0553 -2.0339 0.9832
2.8504 -2.3802 -2.0339 0.9832
1.8573 -0.4643 -1.0485 0.9913
1.8495 -0.2886 -1.0253 0.9915
1.8523 -0.1199 -1.0167 0.9916
1.8522 0.0473 -1.0148 0.9916
1.8466 0.2146 -1.0182 0.9916
1.8567 0.3877 -1.0389 0.9914
3.4401 1.3988 -2.0339 0.9832
2.4897 -2.4923 -2.0339 0.9839
3.0652 -1.7364 -2.0339 0.9839
1.7813 -0.8068 -1.1290 0.9910
1.7245 0.0440 -0.9960 0.9921
1.7177 0.1996 -0.9984 0.9920
1.7181 0.5240 -1.0371 0.9917
1.7553 0.7137 -1.0940 0.9913
3.1307 1.6154 -2.0339 0.9839
2.9725 1.8908 -2.0339 0.9839
