ply
format ascii 1.0
element vertex 177
property float32 x
property float32 y
property float32 z
property float32 I
end_header
-11.8998 12.4615 2.6397 0.9326
-11.7305 12.2841 2.2119 0.9338
-11.6763 12.2274 1.4312 0.9344
-16.4025 6.0269 -1.2813 0.9323
-0.9491 7.6461 -0.7397 0.9695
-0.9556 7.6986 -0.9215 0.9692
-6.6254 15.7897 -2.0340 0.9333
-10.6476 13.4098 -2.0340 0.9334
-15.4663 7.3454 -2.0338 0.9334
-16.8758 2.8898 -2.0338 0.9334
-17.1197 -0.2215 -2.0338 0.9334
-5.5543 13.2373 -2.0340 0.9437
-6.7376 12.6759 -2.0340 0.9437
-8.9264 11.2421 -2.0339 0.9437
-10.8186 9.4349 -2.0339 0.9437
-11.6333 8.4095 -2.0339 0.9437
-12.3512 7.3142 -2.0339 0.9437
-13.4735 4.9506 -2.0338 0.9437
-13.8685 3.7021 -2.0338 0.9437
-14.1480 2.4227 -2.0338 0.9437
-14.3099 1.1231 -2.0338 0.9437
-14.2758 -1.4930 -2.0338 0.9437
-0.9179 7.3951 -1.2276 0.9702
-1.5600 7.1520 -1.2059 0.9708
-4.7771 11.3851 -2.0340 0.9512
-9.3049 8.1147 -2.0339 0.9512
-10.0056 7.2329 -2.0339 0.9512
-11.5884 4.2580 -2.0338 0.9512
-12.3445 -0.1597 -2.0338 0.9512
-12.2785 -1.2841 -2.0338 0.9512
-0.9076 7.3121 -1.3849 0.9705
-2.2631 7.1629 -1.4119 0.9699
-5.9286 9.0526 -2.0340 0.9569
-6.7289 8.4745 -2.0339 0.9569
-7.4732 7.8259 -2.0339 0.9569
-8.1553 7.1122 -2.0339 0.9569
-8.7695 6.3393 -2.0339 0.9569
-9.3107 5.5136 -2.0339 0.9569
-10.1567 3.7320 -2.0339 0.9569
-10.7873 0.8467 -2.0338 0.9569
-10.7616 -1.1255 -2.0338 0.9569
-0.8982 7.2362 -1.5413 0.9706
-2.2625 7.1609 -1.5874 0.9698
-3.7230 8.8729 -2.0340 0.9614
-5.9834 7.5356 -2.0339 0.9614
-6.6452 6.9588 -2.0339 0.9614
-7.2518 6.3242 -2.0339 0.9614
-7.7979 5.6370 -2.0339 0.9614
-8.6914 4.1278 -2.0339 0.9614
-9.6208 -0.1245 -2.0338 0.9614
-9.5694 -1.0008 -2.0338 0.9614
-1.6227 7.4393 -1.7895 0.9692
-4.0619 7.6418 -2.0340 0.9651
-5.9768 6.2588 -2.0339 0.9651
-6.5223 5.6880 -2.0339 0.9651
-7.4463 4.4095 -2.0339 0.9651
-7.8171 3.7126 -2.0339 0.9651
-8.3611 2.2319 -2.0339 0.9651
-8.6272 0.6771 -2.0338 0.9651
-8.6530 -0.1120 -2.0338 0.9651
-0.9222 7.4295 -1.9384 0.9695
-2.3666 7.4907 -2.0340 0.9681
-3.0395 7.2438 -2.0340 0.9681
-4.3038 6.5716 -2.0339 0.9681
-4.8848 6.1520 -2.0339 0.9681
-5.4252 5.6812 -2.0339 0.9681
-6.7591 4.0026 -2.0339 0.9681
-7.0957 3.3699 -2.0339 0.9681
-7.3733 2.7092 -2.0339 0.9681
-7.8545 -0.1016 -2.0338 0.9681
-7.8125 -0.8171 -2.0338 0.9681
-0.8850 7.1301 -2.0340 0.9706
-2.1646 6.8509 -2.0340 0.9706
-2.7799 6.6252 -2.0340 0.9706
-3.3721 6.3442 -2.0339 0.9706
-3.9363 6.0104 -2.0339 0.9706
-4.9619 5.1960 -2.0339 0.9706
-5.4147 4.7222 -2.0339 0.9706
-6.4898 3.0822 -2.0339 0.9706
-7.0813 1.2126 -2.0339 0.9706
-1.9922 6.3055 -2.0340 0.9727
-2.5586 6.0977 -2.0339 0.9727
-3.1037 5.8391 -2.0339 0.9727
-4.5668 4.7824 -2.0339 0.9727
-5.3590 3.8739 -2.0339 0.9727
-5.6898 3.3694 -2.0339 0.9727
-6.3888 1.7054 -2.0339 0.9727
-6.5921 0.5174 -2.0338 0.9727
-6.6118 -0.0855 -2.0338 0.9727
-6.5765 -0.6878 -2.0338 0.9727
-0.7537 6.0723 -2.0340 0.9745
-2.8718 5.4030 -2.0339 0.9745
-5.2648 3.1177 -2.0339 0.9745
-5.7432 2.1103 -2.0339 0.9745
-6.0308 1.0327 -2.0339 0.9745
-0.7006 5.6444 -2.0340 0.9761
-1.2121 5.5570 -2.0340 0.9761
-1.7135 5.4234 -2.0339 0.9761
-2.2007 5.2446 -2.0339 0.9761
-2.6695 5.0222 -2.0339 0.9761
-3.1161 4.7580 -2.0339 0.9761
-3.5367 4.4542 -2.0339 0.9761
-3.9279 4.1133 -2.0339 0.9761
-4.2865 3.7382 -2.0339 0.9761
-4.8938 2.8980 -2.0339 0.9761
-5.3385 1.9615 -2.0339 0.9761
-5.6058 0.9599 -2.0339 0.9761
-5.6700 0.4450 -2.0339 0.9761
-5.6869 -0.0736 -2.0339 0.9761
-5.6565 -0.5916 -2.0338 0.9761
-0.6538 5.2671 -2.0340 0.9775
-1.1311 5.1856 -2.0339 0.9775
-4.7942 2.2769 -2.0339 0.9775
-4.9817 1.8304 -2.0339 0.9775
-5.1278 1.3688 -2.0339 0.9775
-5.2312 0.8958 -2.0339 0.9775
-5.2785 -0.5521 -2.0338 0.9775
-1.0591 4.8554 -2.0339 0.9788
-1.4971 4.7387 -2.0339 0.9788
-1.9229 4.5825 -2.0339 0.9788
-3.7453 3.2663 -2.0339 0.9788
-4.2759 2.5322 -2.0339 0.9788
-4.4889 2.1319 -2.0339 0.9788
-4.6645 1.7139 -2.0339 0.9788
-2.1132 -0.2210 -0.8696 0.9909
-0.9946 4.5597 -2.0339 0.9798
-1.4060 4.4501 -2.0339 0.9798
-1.8057 4.3034 -2.0339 0.9798
-2.1904 4.1210 -2.0339 0.9798
-2.5569 3.9042 -2.0339 0.9798
-3.5172 3.0674 -2.0339 0.9798
-4.2156 2.0021 -2.0339 0.9798
-1.9616 0.5236 -0.8848 0.9912
-1.9051 0.3262 -0.8424 0.9916
-1.9148 0.1503 -0.8371 0.9917
-1.9186 -0.0249 -0.8362 0.9917
-0.5412 4.3606 -2.0339 0.9808
-1.7001 4.0518 -2.0339 0.9808
-2.4073 3.6759 -2.0339 0.9808
-2.7323 3.4412 -2.0339 0.9808
-3.0346 3.1778 -2.0339 0.9808
-3.5610 2.5742 -2.0339 0.9808
-3.7807 2.2389 -2.0339 0.9808
-1.5637 0.4174 -0.7492 0.9929
-1.5734 -0.0204 -0.7284 0.9931
-0.8837 4.0512 -2.0339 0.9817
-2.2717 3.4687 -2.0339 0.9817
-2.5784 3.2472 -2.0339 0.9817
-2.8636 2.9988 -2.0339 0.9817
-3.5677 2.1128 -2.0339 0.9817
-1.3534 -0.1416 -0.6675 0.9940
-0.4829 3.8908 -2.0339 0.9825
-1.1812 3.7384 -2.0339 0.9825
-2.4379 3.0704 -2.0339 0.9825
-3.3734 1.9977 -2.0339 0.9825
-1.1890 0.2036 -0.6258 0.9946
-1.2004 0.0942 -0.6246 0.9946
-1.1941 -0.0155 -0.6195 0.9946
-1.7429 3.2791 -2.0339 0.9832
-2.5646 2.6857 -2.0339 0.9832
-2.7987 2.4408 -2.0339 0.9832
-0.9902 0.4703 -0.6004 0.9950
-1.0220 0.3755 -0.5963 0.9950
-1.0675 0.1828 -0.5932 0.9951
-1.0807 0.0848 -0.5938 0.9951
-0.7507 3.4419 -2.0339 0.9839
-1.0613 3.3592 -2.0339 0.9839
-1.6534 3.1107 -2.0339 0.9839
-1.9300 2.9471 -2.0339 0.9839
-2.1906 2.7589 -2.0339 0.9839
-2.6550 2.3154 -2.0339 0.9839
-2.8550 2.0638 -2.0339 0.9839
-3.0312 1.7950 -2.0339 0.9839
-0.9190 0.4364 -0.5874 0.9953
-0.9451 0.3472 -0.5813 0.9954
-0.9599 0.2562 -0.5736 0.9954
-0.9895 -0.0128 -0.5713 0.9954
