ply
format ascii 1.0
element vertex 228
property float32 x
property float32 y
property float32 z
property float32 I
end_header
17.3285 -3.5045 -0.8966 0.9316
16.6503 -3.3674 -1.2456 0.9341
13.5742 9.1142 -1.1988 0.9365
16.5691 -3.3509 -1.6229 0.9343
15.3188 -7.6501 -2.0339 0.9334
15.9312 -6.2763 -2.0340 0.9334
16.7836 -3.3943 -2.0340 0.9334
17.0168 -1.9083 -2.0340 0.9333
16.9266 2.5918 -2.0341 0.9333
16.6339 4.0673 -2.0341 0.9333
16.2129 5.5114 -2.0341 0.9333
14.9997 8.2612 -2.0341 0.9333
13.3556 8.9674 -1.9109 0.9373
10.0612 13.8570 -2.0341 0.9333
7.4835 15.4027 -2.0341 0.9333
6.1029 15.9999 -2.0341 0.9333
12.8426 -6.4135 -2.0339 0.9437
13.3560 -5.2617 -2.0340 0.9437
13.7662 -4.0694 -2.0340 0.9437
14.2660 -1.5998 -2.0340 0.9437
14.3262 0.9191 -2.0340 0.9437
14.1903 2.1728 -2.0340 0.9437
13.9450 3.4098 -2.0341 0.9437
13.5920 4.6204 -2.0341 0.9437
13.1341 5.7954 -2.0341 0.9437
12.5749 6.9257 -2.0341 0.9437
11.9186 8.0026 -2.0341 0.9437
10.3359 9.9632 -2.0341 0.9437
9.4217 10.8319 -2.0341 0.9437
8.4348 11.6169 -2.0341 0.9437
6.2737 12.9127 -2.0341 0.9437
5.1163 13.4134 -2.0341 0.9437
3.9195 13.8106 -2.0341 0.9437
11.4872 -4.5255 -2.0339 0.9512
12.1017 -2.4474 -2.0340 0.9512
12.3433 -0.2939 -2.0340 0.9512
11.6901 3.9739 -2.0340 0.9512
10.8153 5.9566 -2.0341 0.9512
10.2509 6.8828 -2.0341 0.9512
9.6073 7.7558 -2.0341 0.9512
8.8896 8.5691 -2.0341 0.9512
6.3497 10.5894 -2.0341 0.9512
4.4004 11.5364 -2.0341 0.9512
3.3710 11.8781 -2.0341 0.9512
10.6065 -2.1451 -2.0340 0.9569
10.7992 0.6928 -2.0340 0.9569
10.6968 1.6379 -2.0340 0.9569
10.5118 2.5703 -2.0340 0.9569
9.9006 4.3686 -2.0340 0.9569
8.4203 6.7976 -2.0340 0.9569
7.7913 7.5103 -2.0341 0.9569
3.8567 10.1111 -2.0340 0.9569
2.9545 10.4105 -2.0340 0.9569
9.2275 -2.7277 -2.0339 0.9614
9.5624 -1.0724 -2.0340 0.9614
9.5116 1.4564 -2.0340 0.9614
9.1105 3.0970 -2.0340 0.9614
8.8036 3.8846 -2.0340 0.9614
8.4288 4.6422 -2.0340 0.9614
5.6536 7.7866 -2.0340 0.9614
4.2052 8.6551 -2.0340 0.9614
3.4294 8.9908 -2.0340 0.9614
7.7424 -3.8665 -2.0339 0.9651
8.4826 -1.7155 -2.0340 0.9651
8.6004 -0.9645 -2.0340 0.9651
8.6367 0.5541 -2.0340 0.9651
8.4068 2.0556 -2.0340 0.9651
7.9179 3.4938 -2.0340 0.9651
6.7341 5.4363 -2.0340 0.9651
6.2310 6.0063 -2.0340 0.9651
5.0849 7.0032 -2.0340 0.9651
4.4507 7.4224 -2.0340 0.9651
2.3628 8.3257 -2.0340 0.9651
7.0278 -3.5097 -2.0339 0.9681
7.6997 -1.5572 -2.0339 0.9681
7.8396 0.5029 -2.0340 0.9681
7.1872 3.1713 -2.0340 0.9681
6.8811 3.7898 -2.0340 0.9681
6.5220 4.3791 -2.0340 0.9681
6.1126 4.9346 -2.0340 0.9681
5.6559 5.4520 -2.0340 0.9681
4.6156 6.3569 -2.0340 0.9681
4.0399 6.7374 -2.0340 0.9681
3.4330 7.0660 -2.0340 0.9681
2.7997 7.3400 -2.0340 0.9681
2.1447 7.5573 -2.0340 0.9681
7.1401 -0.8007 -2.0340 0.9706
7.1828 -0.1710 -2.0340 0.9706
7.1701 0.4600 -2.0340 0.9706
6.9792 1.7065 -2.0340 0.9706
6.8025 2.3124 -2.0340 0.9706
6.2935 3.4662 -2.0340 0.9706
5.5906 4.5132 -2.0340 0.9706
4.7154 5.4211 -2.0340 0.9706
1.9616 6.9119 -2.0340 0.9706
5.9160 -2.9544 -2.0339 0.9727
6.3415 -1.8746 -2.0339 0.9727
6.5367 1.0009 -2.0340 0.9727
6.4236 1.5707 -2.0340 0.9727
6.2610 2.1283 -2.0340 0.9727
6.0501 2.6696 -2.0340 0.9727
5.7925 3.1903 -2.0340 0.9727
5.4902 3.6863 -2.0340 0.9727
5.1455 4.1539 -2.0340 0.9727
4.3400 4.9895 -2.0340 0.9727
3.8853 5.3511 -2.0340 0.9727
3.4007 5.6715 -2.0340 0.9727
2.3567 6.1787 -2.0340 0.9727
5.4742 -2.7337 -2.0339 0.9745
5.6930 -2.2428 -2.0339 0.9745
6.0808 -0.6819 -2.0339 0.9745
6.1064 0.3917 -2.0340 0.9745
6.0484 0.9261 -2.0340 0.9745
5.9438 1.4533 -2.0340 0.9745
5.3598 2.9520 -2.0340 0.9745
4.7611 3.8436 -2.0340 0.9745
3.5952 4.9515 -2.0340 0.9745
2.6741 5.5038 -2.0340 0.9745
2.1807 5.7172 -2.0340 0.9745
5.2918 -2.0847 -2.0339 0.9761
5.4543 -1.6123 -2.0339 0.9761
5.6522 -0.6339 -2.0339 0.9761
5.6222 0.8609 -2.0340 0.9761
5.5249 1.3509 -2.0340 0.9761
5.2037 2.2961 -2.0340 0.9761
4.9821 2.7439 -2.0340 0.9761
4.7221 3.1705 -2.0340 0.9761
4.4256 3.5727 -2.0340 0.9761
3.7328 4.2915 -2.0340 0.9761
3.3418 4.6025 -2.0340 0.9761
2.4856 5.1159 -2.0340 0.9761
2.0270 5.3143 -2.0340 0.9761
1.5529 5.4717 -2.0340 0.9761
4.9381 -1.9454 -2.0339 0.9775
5.2022 -1.0521 -2.0339 0.9775
5.3061 -0.1263 -2.0339 0.9775
5.2967 0.3398 -2.0339 0.9775
5.2464 0.8033 -2.0340 0.9775
5.1557 1.2606 -2.0340 0.9775
4.8559 2.1426 -2.0340 0.9775
4.6491 2.5605 -2.0340 0.9775
4.4065 2.9587 -2.0340 0.9775
4.1298 3.3339 -2.0340 0.9775
3.8213 3.6835 -2.0340 0.9775
3.1184 4.2949 -2.0340 0.9775
2.3195 4.7740 -2.0340 0.9775
1.4491 5.1060 -2.0340 0.9775
4.6237 -1.8216 -2.0339 0.9788
4.9387 -0.5538 -2.0339 0.9788
4.9682 -0.1183 -2.0339 0.9787
3.8669 3.1217 -2.0340 0.9787
3.5780 3.4490 -2.0340 0.9787
3.2615 3.7497 -2.0340 0.9787
2.9199 4.0214 -2.0340 0.9787
2.5557 4.2622 -2.0340 0.9787
2.1718 4.4700 -2.0340 0.9787
1.7712 4.6434 -2.0340 0.9787
1.3568 4.7809 -2.0340 0.9787
4.3421 -1.7106 -2.0339 0.9798
4.6379 -0.5201 -2.0339 0.9798
4.6657 -0.1111 -2.0339 0.9798
4.5335 1.1085 -2.0340 0.9798
4.2698 1.8840 -2.0340 0.9798
4.0880 2.2515 -2.0340 0.9798
3.3601 3.2389 -2.0340 0.9798
3.0629 3.5213 -2.0340 0.9798
2.0395 4.1978 -2.0340 0.9798
1.6633 4.3606 -2.0340 0.9798
4.0882 -1.6106 -2.0339 0.9808
4.2138 -1.2456 -2.0339 0.9808
4.3068 -0.8710 -2.0339 0.9808
4.3929 -0.1046 -2.0339 0.9808
4.3851 0.2813 -2.0339 0.9808
3.8489 2.1198 -2.0340 0.9808
3.6481 2.4495 -2.0340 0.9808
3.4191 2.7601 -2.0340 0.9808
2.2597 3.7685 -2.0340 0.9808
1.5660 4.1056 -2.0340 0.9808
3.8579 -1.5198 -2.0339 0.9817
3.9764 -1.1754 -2.0339 0.9817
4.0642 -0.8219 -2.0339 0.9817
4.1453 -0.0987 -2.0339 0.9817
4.1380 0.2654 -2.0339 0.9817
3.7936 1.6739 -2.0340 0.9817
3.4425 2.3114 -2.0340 0.9817
3.2264 2.6046 -2.0340 0.9817
2.9854 2.8777 -2.0340 0.9817
2.4362 3.3554 -2.0340 0.9817
1.4778 3.8742 -2.0340 0.9817
3.6477 -1.4371 -2.0339 0.9825
3.7598 -1.1114 -2.0339 0.9825
2.1067 -0.4261 -1.1150 0.9904
2.0752 -0.0494 -1.0769 0.9907
3.8085 0.9312 -2.0339 0.9825
3.7120 1.2618 -2.0339 0.9825
3.5870 1.5827 -2.0339 0.9825
3.2550 2.1855 -2.0340 0.9825
3.0507 2.4627 -2.0340 0.9825
2.8228 2.7210 -2.0340 0.9825
2.5730 2.9582 -2.0340 0.9825
2.0162 3.3625 -2.0340 0.9825
1.7134 3.5265 -2.0340 0.9825
1.0704 3.7717 -2.0340 0.9825
3.3223 -1.6591 -2.0339 0.9832
1.8473 -0.2072 -1.0181 0.9916
1.8489 0.2831 -1.0245 0.9915
3.3975 1.4992 -2.0339 0.9832
3.2529 1.7915 -2.0339 0.9832
3.0831 2.0701 -2.0340 0.9832
2.6737 2.5773 -2.0340 0.9832
2.4372 2.8020 -2.0340 0.9832
2.1819 3.0050 -2.0340 0.9832
1.6229 3.3402 -2.0340 0.9832
1.0139 3.5725 -2.0339 0.9832
3.1517 -1.5739 -2.0339 0.9839
1.7156 -0.5072 -1.0329 0.9918
1.7145 -0.3468 -1.0099 0.9920
1.7183 -0.1927 -0.9983 0.9920
1.7246 -0.0411 -0.9960 0.9921
1.7232 0.1105 -0.9969 0.9921
1.7140 0.2624 -1.0011 0.9920
1.7752 0.7833 -1.1202 0.9911
3.0859 1.6995 -2.0339 0.9839
2.5364 2.4449 -2.0339 0.9839
1.8117 3.0213 -2.0339 0.9839
1.5395 3.1687 -2.0339 0.9839
1.2555 3.2916 -2.0339 0.9839
0.9618 3.3891 -2.0339 0.9839
