ply
format ascii 1.0
element vertex 203
property float32 x
property float32 y
property float32 z
property float32 I
end_header
3.0060 18.5287 3.3098 0.9266
1.2750 18.2840 2.8078 0.9285
2.9568 18.2262 2.4045 0.9282
2.8507 17.5717 1.9115 0.9309
2.8474 17.5518 1.5052 0.9311
1.3232 18.9756 1.6102 0.9265
2.8441 17.5311 1.1013 0.9313
1.3196 18.9237 1.1763 0.9268
2.8075 17.3052 0.6913 0.9322
2.9841 18.3939 -0.1049 0.9282
13.5145 9.0307 -1.1918 0.9369
-1.5521 7.5018 -0.7355 0.9697
13.3356 8.9111 -1.9052 0.9374
13.3123 10.7715 -2.0341 0.9333
12.2759 11.9393 -2.0341 0.9333
11.1375 13.0078 -2.0341 0.9333
9.9063 13.9682 -2.0341 0.9333
8.5929 14.8124 -2.0341 0.9333
7.2080 15.5335 -2.0341 0.9333
5.7632 16.1254 -2.0341 0.9333
4.2705 16.5832 -2.0341 0.9333
2.7422 16.9032 -2.0341 0.9333
1.1912 17.0826 -2.0341 0.9333
-0.3697 17.1200 -2.0341 0.9333
-0.8483 7.4882 -0.8952 0.9701
-1.5377 7.4326 -0.9016 0.9699
-2.2829 7.5068 -0.9320 0.9689
-6.4535 15.8608 -2.0340 0.9333
-7.8712 15.2069 -2.0340 0.9334
11.9363 7.9761 -2.0341 0.9437
7.2038 12.4178 -2.0341 0.9437
6.0428 13.0223 -2.0341 0.9437
4.8315 13.5185 -2.0341 0.9437
-1.4888 7.1959 -1.0412 0.9707
-2.2188 7.2961 -1.0805 0.9697
-5.4102 13.2968 -2.0340 0.9437
-6.5989 12.7487 -2.0340 0.9437
10.2661 6.8600 -2.0341 0.9512
9.5986 7.7666 -2.0341 0.9512
8.8513 8.6086 -2.0341 0.9512
8.0304 9.3790 -2.0341 0.9512
7.1428 10.0715 -2.0341 0.9512
4.1555 11.6269 -2.0341 0.9512
0.8589 12.3171 -2.0340 0.9512
-0.2665 12.3441 -2.0340 0.9512
-0.8411 7.4253 -1.2311 0.9702
-4.6532 11.4363 -2.0340 0.9512
-5.6755 10.9648 -2.0340 0.9512
8.9977 6.0124 -2.0340 0.9569
7.7577 7.5450 -2.0341 0.9569
6.2603 8.8271 -2.0341 0.9569
2.6988 10.4797 -2.0340 0.9569
-0.2336 10.8190 -2.0340 0.9569
-2.1829 7.1781 -1.4102 0.9699
-4.0783 10.0233 -2.0340 0.9569
7.4805 6.0528 -2.0340 0.9614
6.8982 6.7090 -2.0340 0.9614
6.2584 7.3094 -2.0340 0.9614
4.8286 8.3235 -2.0340 0.9614
3.2385 9.0613 -2.0340 0.9614
1.5409 9.4984 -2.0340 0.9614
0.6693 9.5992 -2.0340 0.9614
-0.8284 7.3129 -1.5557 0.9704
-1.4738 7.1236 -1.5377 0.9707
-2.1139 6.9511 -1.5358 0.9707
7.1959 4.8084 -2.0340 0.9651
6.2042 6.0340 -2.0340 0.9651
5.6287 6.5740 -2.0340 0.9651
5.0066 7.0594 -2.0340 0.9651
3.6429 7.8505 -2.0340 0.9651
2.9127 8.1497 -2.0340 0.9651
0.6020 8.6335 -2.0340 0.9651
-0.8201 7.2393 -1.7123 0.9705
-2.2169 7.2899 -1.7908 0.9692
-3.2616 8.0162 -2.0340 0.9651
-3.9782 7.6857 -2.0340 0.9651
6.5318 4.3646 -2.0340 0.9681
5.6316 5.4771 -2.0340 0.9681
4.5445 6.4079 -2.0340 0.9681
1.2580 7.7544 -2.0340 0.9681
0.5464 7.8367 -2.0340 0.9681
-0.1696 7.8539 -2.0340 0.9681
-3.6111 6.9764 -2.0339 0.9681
5.1506 5.0094 -2.0340 0.9706
3.0243 6.5174 -2.0340 0.9706
2.4181 6.7658 -2.0340 0.9706
1.1506 7.0921 -2.0340 0.9706
0.4998 7.1674 -2.0340 0.9706
-0.1551 7.1832 -2.0340 0.9706
-0.8087 7.1391 -2.0340 0.9706
-1.4556 7.0358 -2.0340 0.9706
-2.0904 6.8739 -2.0340 0.9706
-2.7078 6.6549 -2.0340 0.9706
-3.3027 6.3806 -2.0339 0.9706
5.1408 4.1596 -2.0340 0.9727
4.7406 4.6106 -2.0340 0.9727
4.3009 5.0232 -2.0340 0.9727
2.2255 6.2271 -2.0340 0.9727
1.0589 6.5275 -2.0340 0.9727
-1.3397 6.4757 -2.0340 0.9727
4.7568 3.8489 -2.0340 0.9745
4.3865 4.2662 -2.0340 0.9745
3.9797 4.6480 -2.0340 0.9745
2.5756 5.5505 -2.0340 0.9745
2.0593 5.7620 -2.0340 0.9745
0.9799 6.0400 -2.0340 0.9745
0.4256 6.1041 -2.0340 0.9745
-0.1321 6.1175 -2.0340 0.9745
-2.8127 5.4340 -2.0339 0.9745
4.4216 3.5776 -2.0340 0.9761
3.6992 4.3204 -2.0340 0.9761
3.2904 4.6394 -2.0340 0.9761
2.8541 4.9198 -2.0340 0.9761
1.9142 5.3560 -2.0340 0.9761
1.4184 5.5080 -2.0340 0.9761
0.9108 5.6143 -2.0340 0.9761
-0.1228 5.6864 -2.0340 0.9761
-1.1523 5.5697 -2.0340 0.9761
-2.1436 5.2682 -2.0339 0.9761
-2.6145 5.0511 -2.0339 0.9761
4.1261 3.3385 -2.0340 0.9775
3.8049 3.7005 -2.0340 0.9775
2.6633 4.5910 -2.0340 0.9775
0.8499 5.2391 -2.0340 0.9775
0.3692 5.2947 -2.0340 0.9775
-0.5974 5.2738 -2.0340 0.9775
-2.0003 4.9161 -2.0339 0.9775
-2.4397 4.7135 -2.0339 0.9775
4.1321 2.7611 -2.0340 0.9787
3.8634 3.1260 -2.0340 0.9787
3.5626 3.4649 -2.0340 0.9787
2.8750 4.0537 -2.0340 0.9787
1.2393 4.8127 -2.0340 0.9787
0.7959 4.9055 -2.0340 0.9787
0.3457 4.9576 -2.0340 0.9787
-0.5594 4.9380 -2.0340 0.9788
-1.0068 4.8665 -2.0339 0.9788
-2.2844 4.4134 -2.0339 0.9788
3.3457 3.2539 -2.0340 0.9798
2.6998 3.8068 -2.0340 0.9798
1.5707 4.3947 -2.0340 0.9798
0.7474 4.6068 -2.0340 0.9798
-0.9455 4.5702 -2.0339 0.9798
-1.7589 4.3228 -2.0339 0.9798
-2.1453 4.1446 -2.0339 0.9798
3.6535 2.4413 -2.0340 0.9808
3.4159 2.7640 -2.0340 0.9808
3.1500 3.0636 -2.0340 0.9808
2.8579 3.3378 -2.0340 0.9808
2.5419 3.5842 -2.0340 0.9808
2.2050 3.8009 -2.0340 0.9808
1.4788 4.1378 -2.0340 0.9808
1.0958 4.2553 -2.0340 0.9808
-0.0949 4.3930 -2.0339 0.9808
-0.4946 4.3661 -2.0339 0.9808
-0.8902 4.3029 -2.0339 0.9808
-1.2784 4.2039 -2.0339 0.9808
-2.0199 3.9022 -2.0339 0.9808
3.2235 2.6082 -2.0340 0.9817
2.9725 2.8910 -2.0340 0.9817
2.3987 3.3822 -2.0340 0.9817
2.0807 3.5867 -2.0340 0.9817
1.7454 3.7613 -2.0340 0.9817
1.0341 4.0155 -2.0340 0.9817
0.2885 4.1364 -2.0339 0.9817
-0.4667 4.1201 -2.0339 0.9817
-1.9061 3.6824 -2.0339 0.9817
3.2598 2.1783 -2.0340 0.9825
3.0479 2.4661 -2.0340 0.9825
2.8106 2.7335 -2.0340 0.9825
2.5499 2.9781 -2.0340 0.9825
2.2681 3.1980 -2.0340 0.9825
1.9674 3.3913 -2.0340 0.9825
1.6503 3.5564 -2.0340 0.9825
1.3195 3.6919 -2.0340 0.9825
0.9777 3.7968 -2.0340 0.9825
0.6279 3.8700 -2.0339 0.9825
0.2728 3.9111 -2.0339 0.9825
-0.0846 3.9197 -2.0339 0.9825
-1.1407 3.7510 -2.0339 0.9825
-1.4776 3.6315 -2.0339 0.9825
3.0877 2.0633 -2.0340 0.9832
2.6621 2.5891 -2.0340 0.9832
2.1483 3.0291 -2.0340 0.9832
1.8635 3.2122 -2.0340 0.9832
1.2498 3.4970 -2.0340 0.9832
0.9261 3.5962 -2.0339 0.9832
0.2583 3.7046 -2.0339 0.9832
-0.0802 3.7127 -2.0339 0.9832
-0.4180 3.6900 -2.0339 0.9832
-1.3996 3.4397 -2.0339 0.9832
-1.7070 3.2979 -2.0339 0.9832
2.9291 1.9573 -2.0339 0.9839
2.2912 2.6760 -2.0340 0.9839
1.7678 3.0472 -2.0339 0.9839
1.4829 3.1956 -2.0339 0.9839
1.1857 3.3174 -2.0339 0.9839
0.8786 3.4116 -2.0339 0.9839
0.2451 3.5143 -2.0339 0.9839
-0.0761 3.5221 -2.0339 0.9839
-1.0250 3.3705 -2.0339 0.9839
-1.3277 3.2631 -2.0339 0.9839
-1.6194 3.1286 -2.0339 0.9839
