ply
format ascii 1.0
element vertex 193
property float32 x
property float32 y
property float32 z
property float32 I
end_header
2.3985 18.6624 3.3177 0.9264
4.2187 19.0164 2.5365 0.9244
2.2679 17.6469 2.3169 0.9307
2.3734 18.4677 1.9994 0.9278
3.9787 17.9351 0.7244 0.9291
2.3072 17.9524 0.7137 0.9301
3.9767 17.9258 0.3102 0.9292
4.0687 18.3405 -0.1058 0.9276
2.4846 19.3325 -0.1097 0.9250
14.4829 8.6443 -1.6193 0.9345
13.1763 9.5788 -1.5639 0.9366
17.0610 1.4653 -2.0341 0.9333
16.5188 4.5122 -2.0341 0.9333
16.0436 5.9865 -2.0341 0.9333
15.4371 7.4118 -2.0341 0.9333
14.7042 8.7764 -2.0341 0.9333
13.2629 9.6417 -1.9477 0.9361
12.8846 11.2797 -2.0341 0.9333
11.8126 12.3979 -2.0341 0.9333
3.7087 16.7178 -2.0341 0.9333
0.6391 17.1121 -2.0341 0.9333
14.3030 1.2284 -2.0340 0.9437
13.4500 5.0187 -2.0341 0.9437
12.9415 6.2136 -2.0341 0.9437
12.3271 7.3576 -2.0341 0.9437
11.6119 8.4415 -2.0341 0.9437
10.8016 9.4562 -2.0341 0.9437
9.9030 10.3937 -2.0341 0.9437
8.9233 11.2460 -2.0341 0.9437
6.7534 12.6684 -2.0341 0.9437
4.3630 13.6770 -2.0341 0.9437
3.1092 14.0153 -2.0341 0.9437
0.5358 14.3458 -2.0341 0.9437
12.3016 1.0565 -2.0340 0.9512
12.1559 2.1638 -2.0340 0.9512
11.9107 3.2535 -2.0340 0.9512
10.6022 6.3281 -2.0341 0.9512
7.6746 9.6724 -2.0341 0.9512
6.7693 10.3263 -2.0341 0.9512
5.8084 10.8957 -2.0341 0.9512
4.8000 11.3760 -2.0341 0.9512
0.4609 12.3384 -2.0340 0.9512
10.7817 0.9260 -2.0340 0.9569
10.6540 1.8965 -2.0340 0.9569
10.4391 2.8515 -2.0340 0.9569
10.1388 3.7831 -2.0340 0.9569
9.7554 4.6838 -2.0340 0.9569
9.2923 5.5462 -2.0340 0.9569
8.7531 6.3632 -2.0340 0.9569
5.0907 9.5495 -2.0341 0.9569
0.4039 10.8140 -2.0340 0.9569
9.2825 2.5355 -2.0340 0.9614
8.6746 4.1649 -2.0340 0.9614
7.7833 5.6582 -2.0340 0.9614
7.2402 6.3384 -2.0340 0.9614
6.6378 6.9667 -2.0340 0.9614
5.9811 7.5380 -2.0340 0.9614
5.2755 8.0476 -2.0340 0.9614
2.9243 9.1675 -2.0340 0.9614
7.8019 3.7459 -2.0340 0.9651
7.0002 5.0889 -2.0340 0.9651
4.0713 7.6371 -2.0340 0.9651
2.6302 8.2452 -2.0340 0.9651
1.8743 8.4491 -2.0340 0.9651
7.8269 0.6722 -2.0340 0.9681
7.5781 2.0700 -2.0340 0.9681
6.3542 4.6193 -2.0340 0.9681
5.4190 5.6875 -2.0340 0.9681
4.8829 6.1539 -2.0340 0.9681
4.3068 6.5700 -2.0340 0.9681
3.0539 7.2379 -2.0340 0.9681
2.3874 7.4842 -2.0340 0.9681
1.0014 7.7917 -2.0340 0.9681
0.2932 7.8503 -2.0340 0.9681
7.1585 0.6148 -2.0340 0.9706
7.0737 1.2592 -2.0340 0.9706
6.7315 2.5118 -2.0340 0.9706
6.1695 3.6823 -2.0340 0.9706
5.8115 4.2248 -2.0340 0.9706
5.4060 4.7327 -2.0340 0.9706
3.9390 6.0089 -2.0340 0.9706
3.3799 6.3403 -2.0340 0.9706
2.7931 6.6197 -2.0340 0.9706
1.5561 7.0143 -2.0340 0.9706
0.2682 7.1798 -2.0340 0.9706
6.5886 0.5659 -2.0340 0.9727
6.3791 1.7425 -2.0340 0.9727
5.9614 2.8622 -2.0340 0.9727
5.6784 3.3892 -2.0340 0.9727
5.3489 3.8885 -2.0340 0.9727
4.9756 4.3559 -2.0340 0.9727
4.5616 4.7877 -2.0340 0.9727
3.6255 5.5305 -2.0340 0.9727
3.1108 5.8355 -2.0340 0.9727
2.0097 6.3001 -2.0340 0.9727
1.4322 6.4559 -2.0340 0.9727
0.2468 6.6082 -2.0340 0.9727
6.0965 0.5236 -2.0340 0.9745
5.9027 1.6123 -2.0340 0.9745
5.7329 2.1391 -2.0340 0.9745
5.2543 3.1361 -2.0340 0.9745
4.9493 3.5980 -2.0340 0.9745
4.2209 4.4301 -2.0340 0.9745
3.3546 5.1175 -2.0340 0.9745
2.3788 5.6377 -2.0340 0.9745
1.8596 5.8296 -2.0340 0.9745
0.2284 6.1147 -2.0340 0.9745
5.5997 0.9968 -2.0340 0.9761
5.4867 1.4987 -2.0340 0.9761
5.3288 1.9884 -2.0340 0.9761
5.1274 2.4618 -2.0340 0.9761
4.6006 3.3445 -2.0340 0.9761
4.2795 3.7465 -2.0340 0.9761
3.5353 4.4556 -2.0340 0.9761
3.1182 4.7568 -2.0340 0.9761
2.6756 5.0191 -2.0340 0.9761
2.2111 5.2404 -2.0340 0.9761
5.2881 0.4542 -2.0340 0.9775
5.2255 0.9302 -2.0340 0.9775
4.9727 1.8555 -2.0340 0.9775
4.7847 2.2972 -2.0340 0.9775
4.5576 2.7202 -2.0340 0.9775
4.2931 3.1209 -2.0340 0.9775
3.9935 3.4961 -2.0340 0.9775
3.6612 3.8427 -2.0340 0.9775
2.9098 4.4389 -2.0340 0.9775
2.4968 4.6837 -2.0340 0.9775
1.6130 5.0565 -2.0340 0.9775
1.1495 5.1816 -2.0340 0.9775
0.6766 5.2643 -2.0340 0.9775
0.1981 5.3039 -2.0340 0.9775
4.9514 0.4253 -2.0339 0.9787
4.8927 0.8709 -2.0340 0.9787
4.7940 1.3095 -2.0340 0.9787
4.4801 2.1510 -2.0340 0.9787
4.0197 2.9222 -2.0340 0.9787
3.7393 3.2735 -2.0340 0.9787
3.4282 3.5980 -2.0340 0.9787
2.7246 4.1563 -2.0340 0.9787
1.0763 4.8517 -2.0340 0.9787
0.6335 4.9291 -2.0340 0.9787
4.5947 0.8179 -2.0339 0.9798
4.5021 1.2297 -2.0340 0.9798
4.3725 1.6315 -2.0340 0.9798
4.0075 2.3919 -2.0340 0.9798
3.2193 3.3789 -2.0340 0.9798
2.9009 3.6559 -2.0340 0.9798
1.4184 4.4462 -2.0340 0.9798
0.1742 4.6637 -2.0340 0.9798
4.3780 0.3760 -2.0339 0.9808
3.9612 1.9018 -2.0340 0.9808
3.0311 3.1813 -2.0340 0.9808
1.7082 4.0484 -2.0340 0.9808
1.3354 4.1862 -2.0340 0.9808
0.9516 4.2897 -2.0340 0.9808
0.1640 4.3910 -2.0340 0.9808
4.1313 0.3548 -2.0339 0.9817
4.0823 0.7267 -2.0339 0.9817
4.0000 1.0926 -2.0339 0.9817
3.5605 2.1251 -2.0340 0.9817
3.3539 2.4382 -2.0340 0.9817
2.8603 3.0020 -2.0340 0.9817
2.5773 3.2482 -2.0340 0.9817
2.2733 3.4678 -2.0340 0.9817
1.2602 3.9504 -2.0340 0.9817
0.8980 4.0481 -2.0340 0.9817
0.1547 4.1436 -2.0339 0.9817
2.1037 0.3745 -1.1085 0.9904
3.7821 1.0331 -2.0339 0.9825
3.5344 1.6969 -2.0339 0.9825
3.3666 2.0094 -2.0340 0.9825
3.1712 2.3054 -2.0340 0.9825
2.7045 2.8385 -2.0340 0.9825
1.5242 3.6123 -2.0340 0.9825
0.4998 3.8886 -2.0339 0.9825
1.8508 0.1589 -1.0174 0.9916
1.8534 0.3299 -1.0311 0.9915
3.3477 1.6073 -2.0339 0.9832
2.5617 2.6886 -2.0340 0.9832
0.8043 3.6254 -2.0339 0.9832
0.4733 3.6833 -2.0339 0.9832
1.7216 0.1479 -0.9976 0.9921
1.7141 0.3051 -1.0052 0.9920
1.7119 0.4676 -1.0246 0.9918
3.1759 1.5248 -2.0339 0.9839
3.0250 1.8055 -2.0339 0.9839
2.4301 2.5505 -2.0339 0.9839
2.1897 2.7597 -2.0340 0.9839
1.3695 3.2458 -2.0339 0.9839
1.0706 3.3563 -2.0339 0.9839
0.7630 3.4393 -2.0339 0.9839
0.4491 3.4941 -2.0339 0.9839
0.1314 3.5204 -2.0339 0.9839
