ply
format ascii 1.0
element vertex 213
property float32 x
property float32 y
property float32 z
property float32 I
end_header
3.7261 18.3914 3.3088 0.9266
3.7823 18.6686 2.9180 0.9258
1.9714 17.7488 2.7357 0.9303
3.7593 18.5553 2.4654 0.9265
1.9296 17.3734 2.2763 0.9319
2.0126 18.1201 1.9577 0.9293
3.5766 17.6535 1.5248 0.9302
3.6183 17.8596 1.1300 0.9296
1.9791 17.8183 1.1117 0.9307
2.1128 19.0217 0.7547 0.9262
3.7648 18.5826 0.3203 0.9270
2.0665 18.6045 0.3162 0.9278
3.6538 18.0345 -0.1036 0.9290
-1.9055 7.5733 -0.5726 0.9692
13.5627 10.4545 -2.0341 0.9333
12.5767 11.6221 -2.0341 0.9333
11.4904 12.6971 -2.0341 0.9333
10.3126 13.6710 -2.0341 0.9333
6.3270 15.9126 -2.0341 0.9333
4.8831 16.4133 -2.0341 0.9333
3.4003 16.7832 -2.0341 0.9333
0.3654 17.1201 -2.0341 0.9333
-1.8484 7.3464 -0.8999 0.9699
-7.0609 15.5998 -2.0340 0.9334
-8.4234 14.9080 -2.0340 0.9334
10.5435 9.7432 -2.0341 0.9437
9.6329 10.6445 -2.0341 0.9437
8.6455 11.4610 -2.0341 0.9437
7.5892 12.1861 -2.0341 0.9437
6.4725 12.8141 -2.0341 0.9437
4.0938 13.7599 -2.0341 0.9437
2.8506 14.0701 -2.0341 0.9437
0.3064 14.3525 -2.0341 0.9437
-0.5347 7.8584 -1.1160 0.9687
-1.1730 7.3997 -1.0616 0.9702
-1.8333 7.2863 -1.0646 0.9701
-4.7299 13.5538 -2.0340 0.9437
-8.1479 11.8186 -2.0340 0.9437
8.2849 9.1550 -2.0341 0.9512
6.5273 10.4809 -2.0341 0.9512
5.5668 11.0211 -2.0341 0.9512
4.5620 11.4735 -2.0341 0.9512
3.5209 11.8345 -2.0341 0.9512
1.3630 12.2716 -2.0340 0.9512
-0.5141 7.5565 -1.2477 0.9698
-1.1506 7.2584 -1.2107 0.9706
-1.7868 7.1018 -1.2064 0.9707
-5.0912 11.2481 -2.0340 0.9512
-7.0078 10.1649 -2.0340 0.9512
7.9477 7.3445 -2.0341 0.9569
7.2613 8.0239 -2.0341 0.9569
6.5170 8.6393 -2.0341 0.9569
5.7208 9.1859 -2.0341 0.9569
3.9984 10.0559 -2.0340 0.9569
3.0859 10.3723 -2.0340 0.9569
2.1488 10.6061 -2.0340 0.9569
1.1946 10.7554 -2.0340 0.9569
0.2309 10.8191 -2.0340 0.9569
-0.5061 7.4382 -1.4013 0.9701
-1.1350 7.1600 -1.3626 0.9709
-1.8219 7.2413 -1.4035 0.9701
-2.5579 7.3298 -1.4592 0.9689
-5.3234 9.4213 -2.0340 0.9569
-6.1421 8.9091 -2.0339 0.9569
7.0671 6.5308 -2.0340 0.9614
5.7949 7.6821 -2.0340 0.9614
5.0869 8.1681 -2.0340 0.9614
3.5554 8.9418 -2.0340 0.9614
2.7440 9.2231 -2.0340 0.9614
1.9107 9.4310 -2.0340 0.9614
-1.1588 7.3102 -1.5645 0.9702
-1.7839 7.0900 -1.5454 0.9706
5.8072 6.4170 -2.0340 0.9651
5.2119 6.9092 -2.0340 0.9651
3.1977 8.0421 -2.0340 0.9651
0.1847 8.6525 -2.0340 0.9651
-0.5049 7.4202 -1.7479 0.9699
-1.1585 7.3081 -1.7390 0.9701
5.7695 5.3316 -2.0340 0.9681
5.2712 5.8248 -2.0340 0.9681
4.1529 6.6683 -2.0340 0.9681
3.5418 7.0121 -2.0340 0.9681
2.9025 7.2999 -2.0340 0.9681
1.5598 7.6993 -2.0340 0.9681
0.8672 7.8077 -2.0340 0.9681
0.1677 7.8539 -2.0340 0.9681
-1.1723 7.3951 -1.9386 0.9695
-1.9168 7.6182 -2.0340 0.9681
-3.2393 7.1566 -2.0340 0.9681
-4.4588 6.4675 -2.0339 0.9681
5.2768 4.8763 -2.0340 0.9706
4.8211 5.3273 -2.0340 0.9706
4.3268 5.7359 -2.0340 0.9706
2.6547 6.6765 -2.0340 0.9706
0.7932 7.1409 -2.0340 0.9706
-0.4877 7.1682 -2.0340 0.9706
-2.3673 6.7836 -2.0340 0.9706
-2.9627 6.5454 -2.0339 0.9706
-4.0780 5.9152 -2.0339 0.9706
5.2375 4.0372 -2.0340 0.9727
4.8567 4.4881 -2.0340 0.9727
3.4958 5.6133 -2.0340 0.9727
2.9815 5.9027 -2.0340 0.9727
2.4433 6.1450 -2.0340 0.9727
1.8857 6.3383 -2.0340 0.9727
1.3131 6.4812 -2.0340 0.9727
0.7300 6.5725 -2.0340 0.9727
-0.4489 6.5976 -2.0340 0.9727
-1.6135 6.4129 -2.0340 0.9727
-2.1788 6.2435 -2.0340 0.9727
-2.7268 6.0244 -2.0339 0.9727
-3.7534 5.4443 -2.0339 0.9727
4.8463 3.7356 -2.0340 0.9745
4.1058 4.5370 -2.0340 0.9745
3.6850 4.8850 -2.0340 0.9745
3.2347 5.1941 -2.0340 0.9745
2.7587 5.4618 -2.0340 0.9745
0.6755 6.0815 -2.0340 0.9745
0.1305 6.1175 -2.0340 0.9745
-0.9580 6.0434 -2.0340 0.9745
-3.0101 5.3272 -2.0339 0.9745
4.5048 3.4724 -2.0340 0.9761
3.0068 4.8280 -2.0340 0.9761
2.5643 5.0768 -2.0340 0.9761
2.1015 5.2853 -2.0340 0.9761
1.6219 5.4516 -2.0340 0.9761
0.6279 5.6529 -2.0340 0.9761
-0.3861 5.6746 -2.0340 0.9761
-0.8905 5.6175 -2.0340 0.9761
-2.3454 5.1816 -2.0339 0.9761
-3.2283 4.6826 -2.0339 0.9761
3.8980 3.6022 -2.0340 0.9775
3.5614 3.9354 -2.0340 0.9775
2.3930 4.7375 -2.0340 0.9775
1.9611 4.9321 -2.0340 0.9775
1.5135 5.0872 -2.0340 0.9775
0.5859 5.2751 -2.0340 0.9775
0.1133 5.3064 -2.0340 0.9775
-0.8309 5.2421 -2.0340 0.9775
-1.7487 5.0112 -2.0339 0.9775
-2.1886 4.8353 -2.0339 0.9775
-2.6110 4.6209 -2.0339 0.9775
-3.0125 4.3697 -2.0339 0.9775
2.9929 3.9675 -2.0340 0.9787
2.2406 4.4359 -2.0340 0.9787
1.8362 4.6180 -2.0340 0.9787
1.4171 4.7633 -2.0340 0.9787
0.9868 4.8707 -2.0340 0.9787
0.1061 4.9685 -2.0340 0.9787
-0.3373 4.9582 -2.0340 0.9788
-2.0492 4.5274 -2.0339 0.9788
-2.4447 4.3267 -2.0339 0.9788
-2.8207 4.0915 -2.0339 0.9788
3.4276 3.1674 -2.0340 0.9798
3.1315 3.4604 -2.0340 0.9798
2.8105 3.7258 -2.0340 0.9798
2.1041 4.1658 -2.0340 0.9798
1.7243 4.3368 -2.0340 0.9798
0.5152 4.6385 -2.0340 0.9798
0.0996 4.6659 -2.0340 0.9798
-0.3168 4.6562 -2.0339 0.9798
-0.7307 4.6094 -2.0339 0.9798
-1.1387 4.5259 -2.0339 0.9798
-1.5377 4.4063 -2.0339 0.9798
-2.6489 3.8423 -2.0339 0.9798
3.4802 2.6826 -2.0340 0.9808
2.9484 3.2580 -2.0340 0.9808
2.6462 3.5079 -2.0340 0.9808
2.3229 3.7299 -2.0340 0.9808
1.9811 3.9221 -2.0340 0.9808
1.6235 4.0832 -2.0340 0.9808
1.2530 4.2117 -2.0340 0.9808
0.8725 4.3066 -2.0340 0.9808
0.0938 4.3931 -2.0340 0.9808
-1.4478 4.1487 -2.0339 0.9808
-1.8119 4.0030 -2.0339 0.9808
-2.4940 3.6176 -2.0339 0.9808
3.2841 2.5314 -2.0340 0.9817
3.0453 2.8142 -2.0340 0.9817
2.7823 3.0745 -2.0340 0.9817
1.1824 3.9743 -2.0340 0.9817
0.8234 4.0639 -2.0340 0.9817
-0.2814 4.1369 -2.0339 0.9817
-1.7098 3.7775 -2.0339 0.9817
-2.3535 3.4137 -2.0339 0.9817
3.1052 2.3936 -2.0340 0.9825
2.3611 3.1300 -2.0340 0.9825
2.0726 3.3280 -2.0340 0.9825
1.1180 3.7579 -2.0340 0.9825
0.0837 3.9197 -2.0339 0.9825
-0.2661 3.9116 -2.0339 0.9825
-0.6138 3.8723 -2.0339 0.9825
-1.6167 3.5717 -2.0339 0.9825
-2.2254 3.2278 -2.0339 0.9825
2.7274 2.5204 -2.0340 0.9832
1.9632 3.1523 -2.0340 0.9832
1.0589 3.5594 -2.0339 0.9832
0.7374 3.6396 -2.0339 0.9832
0.4100 3.6909 -2.0339 0.9832
-0.2521 3.7050 -2.0339 0.9832
-0.9061 3.6013 -2.0339 0.9832
-1.5313 3.3831 -2.0339 0.9832
-2.1078 3.0573 -2.0339 0.9832
2.7902 2.1507 -2.0339 0.9839
2.5873 2.3909 -2.0339 0.9839
2.3639 2.6121 -2.0340 0.9839
1.8623 2.9904 -2.0339 0.9839
1.5883 3.1445 -2.0339 0.9839
0.0752 3.5221 -2.0339 0.9839
-0.2391 3.5147 -2.0339 0.9839
-0.5515 3.4794 -2.0339 0.9839
-1.4526 3.2094 -2.0339 0.9839
-1.7330 3.0671 -2.0339 0.9839
