ply
format ascii 1.0
element vertex 207
property float32 x
property float32 y
property float32 z
property float32 I
end_header
16.6094 -4.5163 -1.2621 0.9333
2.7850 -6.1150 -0.6451 0.9734
16.3283 -4.4399 -1.6245 0.9343
1.3035 -17.0712 -2.0337 0.9334
1.6796 -6.5291 -0.8008 0.9732
2.7270 -5.9875 -0.7815 0.9738
8.4355 -14.8994 -2.0338 0.9334
13.9688 -9.9022 -2.0339 0.9334
15.4840 -7.3100 -2.0340 0.9334
16.0655 -5.9243 -2.0340 0.9334
16.5232 -4.4929 -2.0340 0.9334
17.0543 -1.5375 -2.0340 0.9333
1.0928 -14.3120 -2.0337 0.9437
2.3435 -14.1611 -2.0338 0.9437
1.6868 -6.5572 -0.9593 0.9730
7.0720 -12.4911 -2.0338 0.9437
8.1401 -11.8230 -2.0338 0.9437
10.0804 -10.2195 -2.0339 0.9437
11.7108 -8.3016 -2.0339 0.9437
12.3936 -7.2429 -2.0339 0.9437
12.9811 -6.1284 -2.0339 0.9437
13.4685 -4.9666 -2.0340 0.9437
13.8522 -3.7666 -2.0340 0.9437
14.1293 -2.5376 -2.0340 0.9437
14.3555 -0.0304 -2.0340 0.9437
0.9399 -12.3096 -2.0338 0.9512
2.0156 -12.1798 -2.0338 0.9512
1.6499 -6.4137 -1.0910 0.9735
2.1197 -6.0003 -1.0483 0.9745
6.0826 -10.7434 -2.0338 0.9512
7.8658 -9.5159 -2.0339 0.9512
10.0722 -7.1401 -2.0339 0.9512
10.6595 -6.2295 -2.0339 0.9512
11.1648 -5.2709 -2.0339 0.9512
11.9140 -3.2396 -2.0340 0.9512
12.2969 -1.1086 -2.0340 0.9512
12.3468 -0.0261 -2.0340 0.9512
0.8237 -10.7889 -2.0338 0.9569
1.7666 -10.6752 -2.0338 0.9569
2.1061 -5.9617 -1.1884 0.9746
2.6039 -5.7172 -1.1808 0.9748
6.8941 -8.3402 -2.0339 0.9569
9.3425 -5.4599 -2.0339 0.9569
10.1528 -3.7439 -2.0339 0.9569
10.4421 -2.8393 -2.0340 0.9569
10.6509 -1.9129 -2.0340 0.9569
10.8214 -0.0229 -2.0340 0.9569
0.7325 -9.5936 -2.0338 0.9614
1.6082 -6.2514 -1.3644 0.9740
2.6193 -5.7511 -1.3358 0.9745
3.2507 -5.7416 -1.3947 0.9734
5.4564 -7.9251 -2.0339 0.9614
7.3316 -6.2314 -2.0339 0.9614
7.8498 -5.5646 -2.0339 0.9614
8.7013 -4.1078 -2.0339 0.9614
9.2851 -2.5248 -2.0340 0.9614
9.4708 -1.7009 -2.0340 0.9614
9.6224 -0.0204 -2.0340 0.9614
0.6588 -8.6286 -2.0338 0.9651
1.4129 -8.5376 -2.0338 0.9651
1.5351 -5.9674 -1.4481 0.9750
2.0163 -5.7077 -1.4227 0.9754
2.6511 -5.8208 -1.5032 0.9741
3.2655 -5.7678 -1.5578 0.9731
4.9075 -7.1279 -2.0339 0.9651
6.0772 -6.1611 -2.0339 0.9651
6.5941 -5.6046 -2.0339 0.9651
7.0601 -5.0048 -2.0339 0.9651
7.4717 -4.3665 -2.0339 0.9651
8.3511 -2.2707 -2.0339 0.9651
8.6194 -0.7771 -2.0340 0.9651
8.6544 -0.0183 -2.0340 0.9651
0.5980 -7.8323 -2.0338 0.9681
1.2825 -7.7497 -2.0338 0.9681
1.5464 -6.0112 -1.6071 0.9747
2.0461 -5.7918 -1.5904 0.9749
2.6562 -5.8321 -1.6593 0.9739
5.0047 -6.0546 -2.0339 0.9681
5.9855 -5.0873 -2.0339 0.9681
6.4086 -4.5429 -2.0339 0.9681
6.7822 -3.9636 -2.0339 0.9681
7.1036 -3.3536 -2.0339 0.9681
7.3704 -2.7179 -2.0339 0.9681
7.8239 -0.7054 -2.0340 0.9681
2.9779 -6.5382 -2.0339 0.9706
4.0742 -5.9176 -2.0339 0.9706
4.5773 -5.5376 -2.0339 0.9706
5.0453 -5.1149 -2.0339 0.9706
5.4744 -4.6529 -2.0339 0.9706
5.8612 -4.1550 -2.0339 0.9706
6.7410 -2.4858 -2.0339 0.9706
6.9330 -1.8852 -2.0339 0.9706
7.0716 -1.2700 -2.0339 0.9706
7.1558 -0.6451 -2.0340 0.9706
0.5034 -6.5932 -2.0338 0.9727
1.6474 -6.4039 -2.0338 0.9727
2.1129 -5.9812 -1.9511 0.9738
2.7408 -6.0177 -2.0339 0.9727
3.7499 -5.4465 -2.0339 0.9727
4.2130 -5.0967 -2.0339 0.9727
4.6437 -4.7078 -2.0339 0.9727
5.0386 -4.2825 -2.0339 0.9727
5.7092 -3.3365 -2.0339 0.9727
5.9798 -2.8231 -2.0339 0.9727
6.2043 -2.2879 -2.0339 0.9727
6.3811 -1.7351 -2.0339 0.9727
6.5087 -1.1689 -2.0339 0.9727
6.5861 -0.5938 -2.0340 0.9727
0.4658 -6.1008 -2.0338 0.9745
2.5361 -5.5683 -2.0339 0.9745
3.0145 -5.3245 -2.0339 0.9745
3.8983 -4.7161 -2.0339 0.9745
4.2969 -4.3561 -2.0339 0.9745
5.2828 -3.0873 -2.0339 0.9745
5.5332 -2.6122 -2.0339 0.9745
5.7410 -2.1170 -2.0339 0.9745
5.9045 -1.6055 -2.0339 0.9745
6.0942 -0.5494 -2.0339 0.9745
6.1189 -0.0129 -2.0340 0.9745
0.9286 -5.6111 -2.0338 0.9761
1.4170 -5.5080 -2.0339 0.9761
1.8945 -5.3626 -2.0339 0.9761
3.2252 -4.6845 -2.0339 0.9761
4.6400 -3.2892 -2.0339 0.9761
4.9105 -2.8697 -2.0339 0.9761
5.1432 -2.4281 -2.0339 0.9761
5.6647 -0.5107 -2.0339 0.9761
5.6877 -0.0121 -2.0339 0.9761
0.8665 -5.2361 -2.0338 0.9775
1.3222 -5.1400 -2.0339 0.9775
1.7678 -5.0043 -2.0339 0.9775
2.1998 -4.8300 -2.0339 0.9775
2.6148 -4.6185 -2.0339 0.9775
3.0097 -4.3714 -2.0339 0.9775
3.3814 -4.0907 -2.0339 0.9775
4.7995 -2.2659 -2.0339 0.9775
4.9797 -1.8363 -2.0339 0.9775
5.1215 -1.3926 -2.0339 0.9775
5.3075 -0.0112 -2.0339 0.9775
0.8113 -4.9027 -2.0339 0.9788
1.2381 -4.8127 -2.0339 0.9788
2.0598 -4.5225 -2.0339 0.9788
2.4484 -4.3245 -2.0339 0.9788
2.8181 -4.0931 -2.0339 0.9788
3.4898 -3.5379 -2.0339 0.9788
4.0543 -2.8740 -2.0339 0.9788
4.4939 -2.1216 -2.0339 0.9788
4.6627 -1.7194 -2.0339 0.9788
4.8914 -0.8785 -2.0339 0.9788
4.9696 -0.0105 -2.0339 0.9787
0.3553 -4.6532 -2.0339 0.9798
1.1626 -4.5197 -2.0339 0.9798
1.5545 -4.4003 -2.0339 0.9798
1.9343 -4.2471 -2.0339 0.9798
2.2993 -4.0611 -2.0339 0.9798
2.9734 -3.5970 -2.0339 0.9798
3.2773 -3.3225 -2.0339 0.9798
3.5560 -3.0223 -2.0339 0.9798
3.8073 -2.6989 -2.0339 0.9798
4.3787 -1.6147 -2.0339 0.9798
4.5935 -0.8250 -2.0339 0.9798
0.3345 -4.3811 -2.0339 0.9808
0.7173 -4.3349 -2.0339 0.9808
1.0947 -4.2553 -2.0339 0.9808
1.8212 -3.9987 -2.0339 0.9808
2.1648 -3.8236 -2.0339 0.9808
3.0856 -3.1282 -2.0339 0.9808
3.5847 -2.5411 -2.0339 0.9808
3.7937 -2.2170 -2.0339 0.9808
3.9735 -1.8759 -2.0339 0.9808
4.2401 -1.1529 -2.0339 0.9808
4.3248 -0.7767 -2.0339 0.9808
4.3763 -0.3946 -2.0339 0.9808
0.3156 -4.1343 -2.0339 0.9817
2.3513 -3.4152 -2.0339 0.9817
3.3827 -2.3979 -2.0339 0.9817
3.8904 -1.4346 -2.0339 0.9817
4.1297 -0.3723 -2.0339 0.9817
0.6401 -3.8679 -2.0339 0.9825
0.9768 -3.7969 -2.0339 0.9825
1.3059 -3.6966 -2.0339 0.9825
2.2233 -3.2292 -2.0339 0.9825
2.9873 -2.5390 -2.0339 0.9825
2.0741 -0.1870 -1.0804 0.9907
2.0705 -0.0044 -1.0741 0.9907
0.2827 -3.7027 -2.0339 0.9832
1.5391 -3.3795 -2.0339 0.9832
2.1059 -3.0587 -2.0339 0.9832
2.3660 -2.8622 -2.0339 0.9832
2.6078 -2.6438 -2.0339 0.9832
2.8296 -2.4050 -2.0339 0.9832
3.0295 -2.1476 -2.0339 0.9832
1.8632 -0.5067 -1.0575 0.9912
1.8536 -0.3329 -1.0315 0.9914
1.8504 -0.0039 -1.0135 0.9916
0.5751 -3.4755 -2.0339 0.9839
0.8776 -3.4117 -2.0339 0.9839
1.1734 -3.3216 -2.0339 0.9839
1.4602 -3.2059 -2.0339 0.9839
1.7356 -3.0656 -2.0339 0.9839
2.4739 -2.5080 -2.0339 0.9839
2.6843 -2.2814 -2.0339 0.9839
3.0415 -1.7775 -2.0339 0.9839
1.7206 -0.6345 -1.0588 0.9916
1.7121 -0.4655 -1.0243 0.9918
1.7140 -0.3079 -1.0054 0.9920
1.7212 -0.1552 -0.9978 0.9920
