ply
format ascii 1.0
element vertex 202
property float32 x
property float32 y
property float32 z
property float32 I
end_header
3.1149 18.6450 3.3332 0.9261
3.0667 18.3562 2.8510 0.9275
1.3395 17.4671 2.2813 0.9318
2.9199 17.4780 1.9028 0.9312
-11.3117 12.7826 1.8329 0.9336
-12.8200 12.1209 1.8945 0.9315
2.9438 17.6211 1.5124 0.9308
-11.7806 13.3125 1.5048 0.9311
2.9277 17.5245 1.1018 0.9313
1.3827 18.0305 1.1214 0.9301
1.3699 17.8637 0.7065 0.9308
-1.4789 7.6713 -0.7500 0.9691
-2.1278 7.4153 -0.7406 0.9695
8.5313 14.8479 -2.0341 0.9333
2.8217 16.8901 -2.0341 0.9333
-0.2133 17.1227 -2.0341 0.9333
-2.0952 7.3015 -0.9023 0.9699
-8.8979 14.6297 -2.0340 0.9334
-10.1629 13.7808 -2.0340 0.9334
-13.4381 10.6110 -2.0339 0.9334
7.1522 12.4476 -2.0341 0.9437
6.0175 13.0340 -2.0341 0.9437
1.0977 14.3138 -2.0341 0.9437
-0.1788 14.3546 -2.0341 0.9437
-0.7633 7.4974 -1.0678 0.9700
-5.1702 13.3920 -2.0340 0.9437
-10.4307 9.8620 -2.0339 0.9437
-11.2659 8.8958 -2.0339 0.9437
5.1755 11.2102 -2.0341 0.9512
0.9441 12.3109 -2.0340 0.9512
-0.1538 12.3460 -2.0340 0.9512
-0.7536 7.4024 -1.2258 0.9703
-1.3979 7.2513 -1.2166 0.9705
-2.0867 7.2717 -1.2463 0.9698
-5.4529 11.0773 -2.0340 0.9512
-7.3279 9.9367 -2.0339 0.9512
-8.1820 9.2460 -2.0339 0.9512
-9.6896 7.6511 -2.0339 0.9512
6.2040 8.8668 -2.0341 0.9569
4.5361 9.8251 -2.0340 0.9569
2.7248 10.4730 -2.0340 0.9569
1.7832 10.6737 -2.0340 0.9569
0.8275 10.7899 -2.0340 0.9569
-0.1348 10.8207 -2.0340 0.9569
-0.7442 7.3105 -1.3812 0.9705
-2.0336 7.0868 -1.3858 0.9704
-3.8974 10.0951 -2.0340 0.9569
-4.7792 9.7087 -2.0340 0.9569
-7.1712 8.1036 -2.0339 0.9569
-7.8630 7.4342 -2.0339 0.9569
4.7940 8.3434 -2.0340 0.9614
3.2410 9.0604 -2.0340 0.9614
-0.7444 7.3118 -1.5536 0.9704
-2.0034 6.9814 -1.5353 0.9707
-3.4656 8.9766 -2.0340 0.9614
-4.2497 8.6330 -2.0340 0.9614
-5.0001 8.2211 -2.0339 0.9614
-6.9918 6.6105 -2.0339 0.9614
-7.5516 5.9629 -2.0339 0.9614
4.3116 7.5040 -2.0340 0.9651
0.6617 8.6291 -2.0340 0.9651
-0.7379 7.2473 -1.7121 0.9705
-2.0425 7.1180 -1.7404 0.9700
-4.4971 7.3940 -2.0339 0.9651
-5.1365 6.9650 -2.0339 0.9651
-5.7352 6.4809 -2.0339 0.9651
-6.2884 5.9455 -2.0339 0.9651
-6.7919 5.3630 -2.0339 0.9651
3.2929 7.1324 -2.0340 0.9681
1.2945 7.7484 -2.0340 0.9681
0.6007 7.8328 -2.0340 0.9681
-1.4871 7.7136 -2.0340 0.9681
-3.4694 7.0479 -2.0339 0.9681
-4.6624 6.3222 -2.0339 0.9681
-5.2059 5.8828 -2.0339 0.9681
-5.7081 5.3968 -2.0339 0.9681
-6.1652 4.8681 -2.0339 0.9681
4.1190 5.8870 -2.0340 0.9706
3.5795 6.2298 -2.0340 0.9706
3.0116 6.5233 -2.0340 0.9706
-1.3601 7.0549 -2.0340 0.9706
-1.9818 6.9061 -2.0340 0.9706
-3.1732 6.4460 -2.0339 0.9706
-4.2643 5.7823 -2.0339 0.9706
-4.7613 5.3804 -2.0339 0.9706
3.7911 5.4183 -2.0340 0.9727
3.2945 5.7338 -2.0340 0.9727
2.7718 6.0039 -2.0340 0.9727
2.2273 6.2265 -2.0340 0.9727
1.0896 6.5225 -2.0340 0.9727
0.5056 6.5935 -2.0340 0.9727
-0.0823 6.6123 -2.0340 0.9727
-0.6698 6.5788 -2.0340 0.9727
-1.2518 6.4932 -2.0340 0.9727
-2.9205 5.9329 -2.0339 0.9727
-3.4363 5.6498 -2.0339 0.9727
-3.9248 5.3220 -2.0339 0.9727
-4.8050 4.5430 -2.0339 0.9727
3.5080 5.0136 -2.0340 0.9745
2.0609 5.7615 -2.0340 0.9745
1.0083 6.0353 -2.0340 0.9745
0.4679 6.1010 -2.0340 0.9745
-0.6197 6.0874 -2.0340 0.9745
-1.6877 5.8815 -2.0340 0.9745
-2.2038 5.7082 -2.0339 0.9745
-2.7024 5.4897 -2.0339 0.9745
-4.4461 4.2037 -2.0339 0.9745
3.2607 4.6603 -2.0340 0.9761
2.8336 4.9316 -2.0340 0.9761
1.9157 5.3554 -2.0340 0.9761
-0.0708 5.6872 -2.0340 0.9761
-0.5761 5.6584 -2.0340 0.9761
-1.5688 5.4670 -2.0339 0.9761
-2.0485 5.3059 -2.0339 0.9761
-2.5119 5.1029 -2.0339 0.9761
-2.9555 4.8594 -2.0339 0.9761
-3.3757 4.5775 -2.0339 0.9761
-3.7692 4.2593 -2.0339 0.9761
-4.1328 3.9074 -2.0339 0.9761
-4.4637 3.5246 -2.0339 0.9761
1.7877 4.9975 -2.0340 0.9775
1.3364 5.1366 -2.0340 0.9775
0.8746 5.2350 -2.0340 0.9775
0.4059 5.2921 -2.0340 0.9775
-0.5375 5.2803 -2.0340 0.9775
-1.0047 5.2116 -2.0340 0.9775
-1.4639 5.1016 -2.0339 0.9775
-1.9116 4.9513 -2.0339 0.9775
-2.3440 4.7618 -2.0339 0.9775
-4.1654 3.2891 -2.0339 0.9775
2.4759 4.3090 -2.0340 0.9787
2.0831 4.5121 -2.0340 0.9787
1.2514 4.8096 -2.0340 0.9787
0.8189 4.9017 -2.0340 0.9787
-0.5033 4.9441 -2.0340 0.9788
-0.9407 4.8798 -2.0339 0.9788
-1.3707 4.7768 -2.0339 0.9788
-2.1948 4.4586 -2.0339 0.9788
-2.5824 4.2459 -2.0339 0.9788
-2.9495 3.9996 -2.0339 0.9788
-3.9002 3.0797 -2.0339 0.9788
2.6755 3.8239 -2.0340 0.9798
1.9562 4.2372 -2.0340 0.9798
0.7691 4.6032 -2.0340 0.9798
0.3568 4.6533 -2.0340 0.9798
-0.0582 4.6666 -2.0340 0.9798
-0.8835 4.5826 -2.0339 0.9798
-2.0612 4.1871 -2.0339 0.9798
-2.4251 3.9873 -2.0339 0.9798
-3.3911 3.2062 -2.0339 0.9798
-3.6627 2.8921 -2.0339 0.9798
2.1891 3.8100 -2.0340 0.9808
0.7241 4.3340 -2.0340 0.9808
-0.0547 4.3937 -2.0339 0.9808
-0.4450 4.3715 -2.0339 0.9808
-0.8318 4.3146 -2.0339 0.9808
-1.2120 4.2236 -2.0339 0.9808
-2.2833 3.7542 -2.0339 0.9808
-2.6079 3.5364 -2.0339 0.9808
-3.4485 2.7230 -2.0339 0.9808
1.3966 3.9042 -2.0340 0.9817
0.3171 4.1343 -2.0339 0.9817
-0.0517 4.1461 -2.0339 0.9817
-1.1437 3.9856 -2.0339 0.9817
-1.8313 3.7201 -2.0339 0.9817
-2.1546 3.5426 -2.0339 0.9817
-2.4610 3.3371 -2.0339 0.9817
-3.2542 2.5696 -2.0339 0.9817
2.2477 3.2124 -2.0340 0.9825
1.9532 3.3995 -2.0340 0.9825
1.6434 3.5596 -2.0340 0.9825
1.3205 3.6916 -2.0340 0.9825
0.6461 3.8670 -2.0339 0.9825
-0.3971 3.9004 -2.0339 0.9825
-1.0814 3.7685 -2.0339 0.9825
-2.0373 3.3497 -2.0339 0.9825
-2.8488 2.6935 -2.0339 0.9825
2.1289 3.0427 -2.0340 0.9832
1.5566 3.3716 -2.0340 0.9832
1.2507 3.4966 -2.0340 0.9832
0.6119 3.6628 -2.0339 0.9832
0.2839 3.7027 -2.0339 0.9832
-0.3761 3.6945 -2.0339 0.9832
-1.3375 3.4643 -2.0339 0.9832
-1.9297 3.1728 -2.0339 0.9832
-2.2041 2.9887 -2.0339 0.9832
-2.6984 2.5512 -2.0339 0.9832
-2.9145 2.3013 -2.0339 0.9832
2.0196 2.8865 -2.0340 0.9839
1.7551 3.0546 -2.0339 0.9839
1.1866 3.3171 -2.0339 0.9839
0.8870 3.4094 -2.0339 0.9839
-0.0439 3.5226 -2.0339 0.9839
-0.3568 3.5048 -2.0339 0.9839
-0.6669 3.4592 -2.0339 0.9839
-0.9717 3.3862 -2.0339 0.9839
-1.2688 3.2864 -2.0339 0.9839
-1.8306 3.0098 -2.0339 0.9839
-2.0909 2.8352 -2.0339 0.9839
-2.3346 2.6382 -2.0339 0.9839
-2.5598 2.4202 -2.0339 0.9839
-2.7648 2.1831 -2.0339 0.9839
