ply
format ascii 1.0
element vertex 198
property float32 x
property float32 y
property float32 z
property float32 I
end_header
-11.9839 13.0958 3.1301 0.9304
-11.4847 12.5501 2.6061 0.9335
-11.3278 12.3787 2.1850 0.9346
-11.4507 12.5129 1.8213 0.9340
-12.9739 11.8418 1.8862 0.9318
-11.8282 12.9256 0.6909 0.9323
-12.0165 13.1312 0.3007 0.9313
-11.8486 -8.2556 -0.7324 0.9438
-11.9709 13.0814 -1.3002 0.9314
-11.6703 -8.1313 -1.0429 0.9445
-11.9908 13.1032 -1.7052 0.9311
-16.5469 4.9442 -1.6580 0.9330
-11.4619 -7.9862 -1.3412 0.9454
-13.6316 10.3611 -2.0339 0.9334
-15.2643 7.7564 -2.0339 0.9334
-15.8989 6.3548 -2.0338 0.9334
-17.1175 0.3542 -2.0338 0.9334
-16.5929 -4.2189 -2.0337 0.9334
-15.5709 -7.1178 -2.0337 0.9334
-14.8690 -8.4869 -2.0337 0.9334
-11.3560 -7.9123 -1.6441 0.9458
-9.6909 10.5900 -2.0339 0.9437
-10.6024 9.6772 -2.0339 0.9437
-11.4282 8.6863 -2.0339 0.9437
-12.1617 7.6253 -2.0339 0.9437
-12.7970 6.5027 -2.0339 0.9437
-13.7533 4.1095 -2.0338 0.9437
-14.2662 1.5840 -2.0338 0.9437
-14.1723 -2.2739 -2.0338 0.9437
-13.9109 -3.5370 -2.0337 0.9437
-13.5372 -4.7715 -2.0337 0.9437
-13.0541 -5.9674 -2.0337 0.9437
-11.7766 -8.2054 -2.0337 0.9437
-10.9924 -9.2294 -2.0337 0.9437
-9.1189 8.3232 -2.0339 0.9512
-9.8292 7.4709 -2.0339 0.9512
-10.4601 6.5584 -2.0339 0.9512
-11.4641 4.5822 -2.0339 0.9512
-12.0985 2.4583 -2.0338 0.9512
-12.3429 0.2554 -2.0338 0.9512
-11.6432 -4.1039 -2.0338 0.9512
-11.2278 -5.1325 -2.0337 0.9512
-10.7216 -6.1197 -2.0337 0.9512
-9.4545 -7.9382 -2.0337 0.9512
-7.3053 7.9829 -2.0339 0.9569
-9.6467 4.9019 -2.0339 0.9569
-10.0478 4.0161 -2.0339 0.9569
-10.3677 3.0979 -2.0338 0.9569
-10.6038 2.1546 -2.0338 0.9569
-10.8180 0.2238 -2.0338 0.9569
-10.2049 -3.5969 -2.0338 0.9569
-9.8407 -4.4985 -2.0338 0.9569
-9.3971 -5.3637 -2.0338 0.9569
-8.8777 -6.1856 -2.0338 0.9569
-8.2866 -6.9575 -2.0338 0.9569
-6.4959 7.0985 -2.0339 0.9614
-7.1069 6.4867 -2.0339 0.9614
-7.6604 5.8225 -2.0339 0.9614
-9.2190 2.7546 -2.0339 0.9614
-9.4291 1.9159 -2.0338 0.9614
-9.5629 1.0618 -2.0338 0.9614
-9.6196 0.1990 -2.0338 0.9614
-9.5000 -1.5243 -2.0338 0.9614
-9.3248 -2.3709 -2.0338 0.9614
-9.0743 -3.1984 -2.0338 0.9614
-7.8942 -5.5003 -2.0338 0.9614
-6.3919 5.8341 -2.0339 0.9651
-6.8898 5.2367 -2.0339 0.9651
-7.7150 3.9203 -2.0339 0.9651
-8.0358 3.2119 -2.0339 0.9651
-8.4805 1.7232 -2.0338 0.9651
-8.6518 0.1790 -2.0338 0.9651
-8.6330 -0.5984 -2.0338 0.9651
-8.5443 -1.3710 -2.0338 0.9651
-8.3868 -2.1324 -2.0338 0.9651
-8.1614 -2.8767 -2.0338 0.9651
-7.5155 -4.2897 -2.0338 0.9651
-5.3032 5.7952 -2.0339 0.9681
-5.8020 5.2957 -2.0339 0.9681
-6.6554 4.1728 -2.0339 0.9681
-7.0030 3.5585 -2.0339 0.9681
-7.5264 2.2489 -2.0339 0.9681
-7.6979 1.5642 -2.0339 0.9681
-7.8071 0.8668 -2.0338 0.9681
-7.8363 -0.5432 -2.0338 0.9681
-7.1440 -3.2657 -2.0338 0.9681
-6.8220 -3.8938 -2.0338 0.9681
-6.4449 -4.4905 -2.0338 0.9681
-4.8503 5.3003 -2.0339 0.9706
-5.3065 4.8435 -2.0339 0.9706
-5.7199 4.3475 -2.0339 0.9706
-6.6713 2.6665 -2.0339 0.9706
-7.0405 1.4306 -2.0339 0.9706
-7.1671 -0.4968 -2.0338 0.9706
-6.9627 -1.7704 -2.0338 0.9706
-6.5339 -2.9869 -2.0338 0.9706
-5.8946 -4.1071 -2.0338 0.9706
-5.5020 -4.6196 -2.0338 0.9706
-4.8841 4.4579 -2.0339 0.9727
-5.2645 4.0014 -2.0339 0.9727
-5.8951 2.9956 -2.0339 0.9727
-6.1402 2.4542 -2.0339 0.9727
-6.6110 0.1368 -2.0338 0.9727
-6.5966 -0.4572 -2.0338 0.9727
-6.5289 -1.0476 -2.0338 0.9727
-5.7427 -3.2778 -2.0338 0.9727
-5.4253 -3.7801 -2.0338 0.9727
-5.0641 -4.2519 -2.0338 0.9727
-5.6816 2.2710 -2.0339 0.9745
-5.8625 1.7517 -2.0339 0.9745
-6.0812 0.6752 -2.0339 0.9745
-6.1039 -0.4231 -2.0338 0.9745
-5.9298 -1.5078 -2.0338 0.9745
-5.3139 -3.0330 -2.0338 0.9745
-4.6858 -3.9343 -2.0338 0.9745
-4.5280 3.4416 -2.0339 0.9761
-4.8187 3.0213 -2.0339 0.9761
-5.0704 2.5765 -2.0339 0.9761
-5.2812 2.1109 -2.0339 0.9761
-5.4493 1.6283 -2.0339 0.9761
-5.3639 -1.8906 -2.0338 0.9761
-4.9393 -2.8193 -2.0338 0.9761
-4.6663 -3.2513 -2.0338 0.9761
-4.3557 -3.6571 -2.0338 0.9761
-4.7316 2.4043 -2.0339 0.9775
-4.9283 1.9698 -2.0339 0.9775
-5.0852 1.5194 -2.0339 0.9775
-5.2011 1.0568 -2.0339 0.9775
-5.3062 0.1097 -2.0339 0.9775
-5.1436 -1.3078 -2.0338 0.9775
-5.0054 -1.7643 -2.0338 0.9775
-4.6092 -2.6309 -2.0338 0.9775
-4.3545 -3.0340 -2.0338 0.9775
-4.0646 -3.4127 -2.0338 0.9775
-3.6705 3.3502 -2.0339 0.9788
-3.9564 3.0072 -2.0339 0.9788
-4.2104 2.6398 -2.0339 0.9788
-4.6145 1.8444 -2.0339 0.9788
-2.1217 0.4311 -0.8861 0.9907
-2.1225 0.0439 -0.8689 0.9909
-2.1203 -0.1470 -0.8699 0.9909
-2.1158 -0.3395 -0.8770 0.9908
-2.1906 -0.5570 -0.9251 0.9903
-4.6868 -1.6520 -2.0338 0.9788
-4.3158 -2.4634 -2.0338 0.9788
-4.0772 -2.8408 -2.0338 0.9788
-3.1506 3.4429 -2.0339 0.9798
-3.4470 3.1462 -2.0339 0.9798
-4.1605 2.1141 -2.0339 0.9798
-1.9188 0.0397 -0.8364 0.9917
-1.9047 -0.3056 -0.8407 0.9916
-1.9260 -0.4897 -0.8661 0.9914
-3.8289 -2.6679 -2.0338 0.9798
-3.5740 -3.0008 -2.0338 0.9798
-3.7227 2.3341 -2.0339 0.9808
-3.9172 1.9905 -2.0339 0.9808
-1.5400 0.4601 -0.7440 0.9929
-1.5994 -0.1109 -0.7421 0.9930
-1.8007 -0.6347 -0.8838 0.9916
-3.8160 -2.1781 -2.0338 0.9808
-3.6050 -2.5119 -2.0338 0.9808
-3.3011 2.5091 -2.0339 0.9817
-1.3531 0.1502 -0.6678 0.9940
-1.3152 -0.3344 -0.6657 0.9940
-3.7709 -1.7238 -2.0338 0.9817
-3.6010 -2.0554 -2.0338 0.9817
-3.4020 -2.3703 -2.0338 0.9817
-2.6468 2.8923 -2.0339 0.9825
-2.8957 2.6430 -2.0339 0.9825
-1.1212 0.4481 -0.6264 0.9946
-1.1495 0.3434 -0.6224 0.9946
-1.2001 -0.0832 -0.6241 0.9946
-1.1917 -0.1912 -0.6261 0.9946
-1.2043 -0.5505 -0.6869 0.9941
-3.4048 -1.9434 -2.0338 0.9825
-3.2166 -2.2412 -2.0338 0.9825
-3.0025 -2.5209 -2.0338 0.9825
-2.5070 2.7396 -2.0339 0.9832
-2.7428 2.5035 -2.0339 0.9832
-2.9564 2.2471 -2.0339 0.9832
-3.1462 1.9726 -2.0339 0.9832
-1.0132 0.4050 -0.5976 0.9950
-1.0780 0.1197 -0.5941 0.9951
-1.0786 0.0223 -0.5909 0.9951
-1.0435 -0.2654 -0.5897 0.9951
-1.0255 -0.3615 -0.5956 0.9951
-3.2250 -1.8408 -2.0339 0.9832
-3.0468 -2.1229 -2.0339 0.9832
-2.8439 -2.3878 -2.0338 0.9832
-2.6019 2.3749 -2.0339 0.9839
-2.9846 1.8713 -2.0339 0.9839
-0.9382 0.3750 -0.5833 0.9953
-0.9563 0.2857 -0.5763 0.9954
-0.9871 0.1096 -0.5734 0.9954
-0.9897 0.0204 -0.5716 0.9954
-0.9896 -0.0686 -0.5727 0.9954
-0.9624 -0.2447 -0.5733 0.9954
-0.9238 -0.4223 -0.5865 0.9953
