ply
format ascii 1.0
element vertex 201
property float32 x
property float32 y
property float32 z
property float32 I
end_header
16.5641 -4.1600 -0.8661 0.9339
2.4970 -6.5061 -0.6690 0.9724
2.9621 -6.0765 -0.6490 0.9732
2.3884 -6.2233 -0.7918 0.9735
2.8731 -5.8940 -0.7789 0.9739
11.2245 -12.9296 -2.0339 0.9334
13.2962 -10.7882 -2.0339 0.9334
15.6327 -6.9865 -2.0340 0.9334
16.6075 -4.1708 -2.0340 0.9334
16.9076 -2.7101 -2.0340 0.9333
17.0794 -1.2287 -2.0340 0.9333
17.1217 0.2620 -2.0341 0.9333
17.0341 1.7507 -2.0341 0.9333
16.8173 3.2262 -2.0341 0.9333
2.8606 -5.8683 -0.9250 0.9740
10.3177 -9.9798 -2.0339 0.9437
11.1470 -9.0444 -2.0339 0.9437
11.8917 -8.0403 -2.0339 0.9437
12.5463 -6.9752 -2.0339 0.9437
13.1057 -5.8571 -2.0339 0.9437
13.9229 -3.4966 -2.0340 0.9437
14.2804 1.4677 -2.0340 0.9437
14.0987 2.7046 -2.0341 0.9437
13.8100 3.9211 -2.0341 0.9437
2.2902 -5.9671 -1.0529 0.9744
8.0936 -9.3230 -2.0339 0.9512
9.5873 -7.7788 -2.0339 0.9512
10.7908 -5.9992 -2.0339 0.9512
11.9747 -3.0073 -2.0340 0.9512
12.3150 -0.8860 -2.0340 0.9512
12.3454 0.1889 -2.0340 0.9512
12.1259 2.3262 -2.0340 0.9512
11.8775 3.3724 -2.0340 0.9512
2.2847 -5.9530 -1.1985 0.9744
8.4029 -6.8179 -2.0339 0.9569
9.4577 -5.2580 -2.0339 0.9569
10.4953 -2.6358 -2.0340 0.9569
10.7934 -0.7765 -2.0340 0.9569
10.8201 0.1655 -2.0340 0.9569
10.7647 1.1063 -2.0340 0.9569
10.6277 2.0388 -2.0340 0.9569
10.4100 2.9557 -2.0340 0.9569
2.2181 -5.7795 -1.3086 0.9750
2.7501 -5.6415 -1.3266 0.9747
3.5911 -5.9815 -1.4747 0.9719
5.6516 -7.7871 -2.0339 0.9614
6.9160 -6.6896 -2.0339 0.9614
7.9711 -5.3894 -2.0339 0.9614
9.0931 -3.1469 -2.0339 0.9614
9.5011 -1.5229 -2.0340 0.9614
9.6213 0.1472 -2.0340 0.9614
2.2121 -5.7638 -1.4510 0.9750
5.0830 -7.0038 -2.0339 0.9651
5.6732 -6.5350 -2.0339 0.9651
6.7202 -5.4526 -2.0339 0.9651
7.5638 -4.2051 -2.0339 0.9651
7.9010 -3.5311 -2.0339 0.9651
8.1784 -2.8303 -2.0339 0.9651
8.3936 -2.1080 -2.0339 0.9651
8.6320 -0.6210 -2.0340 0.9651
8.6534 0.1324 -2.0340 0.9651
8.6091 0.8848 -2.0340 0.9651
8.4995 1.6305 -2.0340 0.9651
8.3254 2.3638 -2.0340 0.9651
2.1822 -5.6859 -1.5769 0.9751
2.7350 -5.6108 -1.6161 0.9745
4.6140 -6.3574 -2.0339 0.9681
7.1718 -3.2052 -2.0339 0.9681
7.7566 -1.2433 -2.0340 0.9681
7.8354 -0.5637 -2.0340 0.9681
7.7150 1.4800 -2.0340 0.9681
7.5570 2.1457 -2.0340 0.9681
2.4864 -6.4786 -1.9645 0.9716
2.8751 -5.8980 -1.8575 0.9731
4.2200 -5.8145 -2.0339 0.9706
5.9519 -4.0242 -2.0339 0.9706
6.2795 -3.4911 -2.0339 0.9706
6.9684 -1.7500 -2.0339 0.9706
7.0942 -1.1371 -2.0339 0.9706
7.1663 -0.5156 -2.0340 0.9706
7.1471 0.7346 -2.0340 0.9706
7.0562 1.3536 -2.0340 0.9706
6.9117 1.9624 -2.0340 0.9706
2.3693 -6.1734 -2.0339 0.9727
3.4037 -5.6693 -2.0339 0.9727
3.8840 -5.3517 -2.0339 0.9727
4.3349 -4.9935 -2.0339 0.9727
4.7530 -4.5974 -2.0339 0.9727
5.1350 -4.1664 -2.0339 0.9727
6.2491 -2.1626 -2.0339 0.9727
6.4136 -1.6107 -2.0339 0.9727
6.5295 -1.0466 -2.0339 0.9727
6.6121 0.1012 -2.0340 0.9727
6.5782 0.6761 -2.0340 0.9727
6.4944 1.2459 -2.0340 0.9727
2.6811 -5.4999 -2.0339 0.9745
3.5939 -4.9519 -2.0339 0.9745
4.3980 -4.2540 -2.0339 0.9745
4.7514 -3.8552 -2.0339 0.9745
5.0689 -3.4272 -2.0339 0.9745
5.3478 -2.9732 -2.0339 0.9745
5.9346 -1.4904 -2.0339 0.9745
6.1031 -0.4391 -2.0339 0.9745
6.1182 0.0936 -2.0340 0.9745
6.0869 0.6256 -2.0340 0.9745
6.0094 1.1528 -2.0340 0.9745
2.0379 -5.3098 -2.0339 0.9761
2.4921 -5.1124 -2.0339 0.9761
3.3407 -4.6030 -2.0339 0.9761
3.7285 -4.2949 -2.0339 0.9761
4.9710 -2.7637 -2.0339 0.9761
5.1926 -2.3207 -2.0339 0.9761
5.3749 -1.8601 -2.0339 0.9761
5.5163 -1.3854 -2.0339 0.9761
5.6160 -0.9002 -2.0339 0.9761
5.6579 0.5815 -2.0340 0.9761
5.5859 1.0716 -2.0340 0.9761
5.4714 1.5535 -2.0340 0.9761
1.9017 -4.9549 -2.0339 0.9775
2.3255 -4.7707 -2.0339 0.9775
3.1174 -4.2954 -2.0339 0.9775
4.1214 -3.3440 -2.0339 0.9775
4.3968 -2.9728 -2.0339 0.9775
4.6388 -2.5789 -2.0339 0.9775
5.0157 -1.7358 -2.0339 0.9775
5.1477 -1.2928 -2.0339 0.9775
5.2406 -0.8400 -2.0339 0.9775
5.2797 0.5426 -2.0340 0.9775
5.2125 0.9999 -2.0340 0.9775
5.1058 1.4497 -2.0340 0.9775
1.7806 -4.6395 -2.0339 0.9788
2.1775 -4.4670 -2.0339 0.9788
2.9189 -4.0219 -2.0339 0.9788
3.8590 -3.1311 -2.0339 0.9788
4.5371 -2.0277 -2.0339 0.9788
4.6964 -1.6253 -2.0339 0.9788
4.9070 -0.7865 -2.0339 0.9788
4.7807 1.3574 -2.0340 0.9787
2.0449 -4.1949 -2.0339 0.9798
2.4021 -4.0011 -2.0339 0.9798
2.7412 -3.7770 -2.0339 0.9798
3.3544 -3.2446 -2.0339 0.9798
3.6240 -2.9404 -2.0339 0.9798
4.0789 -2.2677 -2.0339 0.9798
4.4104 -1.5263 -2.0339 0.9798
4.5264 -1.1368 -2.0339 0.9798
4.6082 -0.7387 -2.0339 0.9798
4.6425 0.4771 -2.0339 0.9798
1.5744 -4.1021 -2.0339 0.9808
1.9253 -3.9496 -2.0339 0.9808
2.2617 -3.7671 -2.0339 0.9808
3.4121 -2.7685 -2.0339 0.9808
3.6400 -2.4611 -2.0339 0.9808
3.8404 -2.1351 -2.0339 0.9808
4.0116 -1.7929 -2.0339 0.9808
4.1524 -1.4370 -2.0339 0.9808
4.2617 -1.0703 -2.0339 0.9808
4.3828 -0.3153 -2.0339 0.9808
4.3936 0.0672 -2.0339 0.9808
4.3154 0.8278 -2.0339 0.9808
4.2270 1.2002 -2.0340 0.9808
1.8168 -3.7271 -2.0339 0.9817
2.1342 -3.5549 -2.0339 0.9817
2.4354 -3.3557 -2.0339 0.9817
2.7182 -3.1311 -2.0339 0.9817
3.6241 -2.0148 -2.0339 0.9817
3.7856 -1.6918 -2.0339 0.9817
4.0216 -1.0100 -2.0339 0.9817
4.1358 -0.2976 -2.0339 0.9817
4.1248 0.4239 -2.0339 0.9817
3.9888 1.1325 -2.0339 0.9817
1.4048 -3.6602 -2.0339 0.9825
1.7179 -3.5241 -2.0339 0.9825
2.3028 -3.1729 -2.0339 0.9825
2.5701 -2.9606 -2.0339 0.9825
2.8180 -2.7257 -2.0339 0.9825
3.2479 -2.1960 -2.0339 0.9825
3.5794 -1.5997 -2.0339 0.9825
2.0777 -0.1495 -1.0806 0.9907
2.0773 0.2135 -1.0833 0.9906
2.1054 0.4039 -1.1121 0.9904
3.7715 1.0709 -2.0339 0.9825
1.9114 -3.1838 -2.0339 0.9832
2.4345 -2.8042 -2.0339 0.9832
2.6692 -2.5818 -2.0339 0.9832
3.0764 -2.0800 -2.0339 0.9832
3.3904 -1.5152 -2.0339 0.9832
1.9384 -0.6708 -1.1234 0.9907
1.8573 -0.4664 -1.0488 0.9913
1.8515 0.0283 -1.0142 0.9916
1.8488 0.1900 -1.0179 0.9916
1.8683 0.5304 -1.0637 0.9912
1.8133 -3.0203 -2.0339 0.9839
2.0692 -2.8511 -2.0339 0.9839
2.3095 -2.6602 -2.0339 0.9839
2.9184 -1.9732 -2.0339 0.9839
1.7782 -0.7947 -1.1245 0.9910
1.7264 -0.5975 -1.0548 0.9916
1.7247 0.0264 -0.9959 0.9921
1.7197 0.1767 -0.9981 0.9920
1.7122 0.4861 -1.0276 0.9918
