ply
format ascii 1.0
element vertex 203
property float32 x
property float32 y
property float32 z
property float32 I
end_header
3.5142 18.5621 3.3311 0.9261
3.5499 18.7506 2.9235 0.9257
3.5166 18.5749 2.0300 0.9268
3.3655 17.7772 1.5316 0.9299
1.7802 18.6361 1.5848 0.9276
3.3384 17.6334 1.1129 0.9306
3.4681 18.3188 0.3149 0.9281
14.7328 9.1722 -0.8801 0.9329
-1.4386 7.8884 -0.7698 0.9683
15.9460 6.2420 -2.0341 0.9333
15.3061 7.6786 -2.0341 0.9333
14.5371 9.0505 -2.0341 0.9333
13.6457 10.3460 -2.0341 0.9333
12.6390 11.5543 -2.0341 0.9333
11.5257 12.6651 -2.0341 0.9333
7.6440 15.3234 -2.0341 0.9333
3.1854 16.8253 -2.0341 0.9333
1.6284 17.0465 -2.0341 0.9333
-1.3899 7.6214 -0.9202 0.9693
13.3682 5.2329 -2.0341 0.9437
12.8318 6.4373 -2.0341 0.9437
12.1871 7.5874 -2.0341 0.9437
11.4396 8.6735 -2.0341 0.9437
9.6624 10.6177 -2.0341 0.9437
7.5598 12.2044 -2.0341 0.9437
6.4083 12.8464 -2.0341 0.9437
5.2027 13.3801 -2.0341 0.9437
1.3651 14.2908 -2.0341 0.9437
0.0483 14.3557 -2.0341 0.9437
-0.6710 7.5613 -1.0756 0.9698
11.8620 3.4269 -2.0340 0.9512
11.4976 4.5007 -2.0340 0.9512
11.0362 5.5365 -2.0341 0.9512
9.8389 7.4598 -2.0341 0.9512
9.1130 8.3310 -2.0341 0.9512
8.3104 9.1319 -2.0341 0.9512
6.5020 10.4966 -2.0341 0.9512
5.5116 11.0488 -2.0341 0.9512
4.4747 11.5078 -2.0341 0.9512
3.4001 11.8698 -2.0341 0.9512
2.2968 12.1316 -2.0341 0.9512
-0.6550 7.3803 -1.2206 0.9704
10.0770 3.9446 -2.0340 0.9569
9.6727 4.8525 -2.0340 0.9569
9.1867 5.7194 -2.0340 0.9569
8.6233 6.5381 -2.0340 0.9569
7.9871 7.3016 -2.0341 0.9569
6.5186 8.6381 -2.0341 0.9569
5.6986 9.1997 -2.0341 0.9569
4.8306 9.6837 -2.0341 0.9569
2.9800 10.4032 -2.0340 0.9569
2.0130 10.6327 -2.0340 0.9569
1.0291 10.7725 -2.0340 0.9569
0.0364 10.8215 -2.0340 0.9569
-0.6665 7.5108 -1.4173 0.9698
8.6010 4.3148 -2.0340 0.9614
7.6679 5.8137 -2.0340 0.9614
6.4766 7.1168 -2.0340 0.9614
5.0672 8.1804 -2.0340 0.9614
3.4873 8.9685 -2.0340 0.9614
2.6498 9.2506 -2.0340 0.9614
1.7899 9.4546 -2.0340 0.9614
0.9150 9.5790 -2.0340 0.9614
-0.6593 7.4289 -1.5765 0.9700
-1.2996 7.1265 -1.5312 0.9708
8.0590 3.1547 -2.0340 0.9651
7.3470 4.5741 -2.0340 0.9651
5.2132 6.9083 -2.0340 0.9651
3.1364 8.0662 -2.0340 0.9651
1.6098 8.5035 -2.0340 0.9651
0.8229 8.6153 -2.0340 0.9651
0.0291 8.6544 -2.0340 0.9651
-1.3736 7.5324 -1.7995 0.9690
7.5471 2.1803 -2.0340 0.9681
7.3153 2.8635 -2.0340 0.9681
7.0218 3.5226 -2.0340 0.9681
4.7321 6.2706 -2.0340 0.9681
2.8470 7.3218 -2.0340 0.9681
1.4613 7.7186 -2.0340 0.9681
0.7470 7.8201 -2.0340 0.9681
0.0264 7.8557 -2.0340 0.9681
-0.6944 7.8249 -2.0340 0.9681
-1.4093 7.7282 -2.0340 0.9681
6.9026 1.9941 -2.0340 0.9706
6.6905 2.6190 -2.0340 0.9706
5.7253 4.3409 -2.0340 0.9706
5.3029 4.8479 -2.0340 0.9706
4.3279 5.7351 -2.0340 0.9706
3.2072 6.4294 -2.0340 0.9706
2.6039 6.6965 -2.0340 0.9706
1.9785 6.9071 -2.0340 0.9706
1.3365 7.0595 -2.0340 0.9706
0.6832 7.1523 -2.0340 0.9706
-0.6351 7.1567 -2.0340 0.9706
-1.2890 7.0682 -2.0340 0.9706
6.3530 1.8354 -2.0340 0.9727
6.1579 2.4105 -2.0340 0.9727
4.4509 4.8909 -2.0340 0.9727
3.9834 5.2786 -2.0340 0.9727
3.4823 5.6218 -2.0340 0.9727
2.3965 6.1634 -2.0340 0.9727
1.8211 6.3572 -2.0340 0.9727
1.2301 6.4975 -2.0340 0.9727
0.0223 6.6128 -2.0340 0.9727
-0.5845 6.5870 -2.0340 0.9727
-1.1863 6.5055 -2.0340 0.9727
5.8786 1.6983 -2.0340 0.9745
5.6979 2.2304 -2.0340 0.9745
4.8760 3.6969 -2.0340 0.9745
4.1184 4.5256 -2.0340 0.9745
3.6859 4.8843 -2.0340 0.9745
1.6850 5.8824 -2.0340 0.9745
0.5819 6.0912 -2.0340 0.9745
5.2964 2.0732 -2.0340 0.9761
4.5323 3.4363 -2.0340 0.9761
4.1979 3.8377 -2.0340 0.9761
3.8282 4.2066 -2.0340 0.9761
3.4261 4.5401 -2.0340 0.9761
2.9952 4.8353 -2.0340 0.9761
2.5389 5.0896 -2.0340 0.9761
1.0580 5.5884 -2.0340 0.9761
0.5409 5.6620 -2.0340 0.9761
0.0191 5.6876 -2.0340 0.9761
-0.5028 5.6654 -2.0340 0.9761
-1.0204 5.5954 -2.0340 0.9761
5.0991 1.4731 -2.0340 0.9775
4.9424 1.9347 -2.0340 0.9775
4.5057 2.8052 -2.0340 0.9775
2.7950 4.5121 -2.0340 0.9775
1.9235 4.9468 -2.0340 0.9775
1.4616 5.1024 -2.0340 0.9775
0.9873 5.2150 -2.0340 0.9775
0.0179 5.3075 -2.0340 0.9775
-0.4691 5.2868 -2.0340 0.9775
-0.9522 5.2214 -2.0340 0.9775
4.7744 1.3793 -2.0340 0.9787
4.6278 1.8115 -2.0340 0.9787
4.4421 2.2284 -2.0340 0.9787
4.2189 2.6265 -2.0340 0.9787
3.9601 3.0025 -2.0340 0.9787
3.6680 3.3532 -2.0340 0.9787
2.9936 3.9669 -2.0340 0.9787
2.2184 4.4471 -2.0340 0.9787
1.8011 4.6318 -2.0340 0.9787
1.3686 4.7775 -2.0340 0.9787
0.4726 4.9471 -2.0340 0.9787
-0.4393 4.9502 -2.0340 0.9787
-0.8916 4.8890 -2.0339 0.9788
4.3459 1.7012 -2.0340 0.9798
3.9620 2.4666 -2.0340 0.9798
2.8113 3.7253 -2.0340 0.9798
2.0832 4.1762 -2.0340 0.9798
1.2852 4.4865 -2.0340 0.9798
0.8682 4.5855 -2.0340 0.9798
0.4438 4.6458 -2.0340 0.9798
-0.4125 4.6487 -2.0339 0.9798
4.2214 1.2196 -2.0340 0.9808
4.0918 1.6017 -2.0340 0.9808
3.7303 2.3223 -2.0340 0.9808
2.3139 3.7355 -2.0340 0.9808
1.5925 4.0954 -2.0340 0.9808
1.2100 4.2242 -2.0340 0.9808
0.8174 4.3174 -2.0340 0.9808
-0.7883 4.3228 -2.0339 0.9808
3.9836 1.1508 -2.0339 0.9817
3.8612 1.5114 -2.0340 0.9817
3.7063 1.8593 -2.0340 0.9817
3.5200 2.1915 -2.0340 0.9817
3.3042 2.5052 -2.0340 0.9817
3.0604 2.7978 -2.0340 0.9817
2.4977 3.3098 -2.0340 0.9817
2.1836 3.5250 -2.0340 0.9817
1.5028 3.8646 -2.0340 0.9817
1.1418 3.9862 -2.0340 0.9817
0.3943 4.1277 -2.0340 0.9817
0.0139 4.1464 -2.0339 0.9817
-0.7439 4.0792 -2.0339 0.9817
3.7666 1.0881 -2.0339 0.9825
3.6509 1.4291 -2.0339 0.9825
2.8937 2.6454 -2.0340 0.9825
2.0646 3.3330 -2.0340 0.9825
1.0796 3.7691 -2.0340 0.9825
0.7293 3.8522 -2.0339 0.9825
0.3728 3.9029 -2.0339 0.9825
-0.7034 3.8570 -2.0339 0.9825
1.8703 0.5403 -1.0663 0.9912
3.1525 1.9627 -2.0339 0.9832
2.7409 2.5057 -2.0340 0.9832
2.4995 2.7465 -2.0340 0.9832
1.9556 3.1570 -2.0340 0.9832
1.6577 3.3231 -2.0340 0.9832
1.3458 3.4612 -2.0340 0.9832
0.6908 3.6488 -2.0339 0.9832
0.3532 3.6968 -2.0339 0.9832
-0.3282 3.6990 -2.0339 0.9832
3.1489 1.5797 -2.0339 0.9839
2.9907 1.8619 -2.0339 0.9839
2.8072 2.1284 -2.0339 0.9839
2.3711 2.6055 -2.0340 0.9839
2.1221 2.8121 -2.0340 0.9839
0.9701 3.3867 -2.0339 0.9839
0.6553 3.4614 -2.0339 0.9839
-0.6320 3.4657 -2.0339 0.9839
