ply
format ascii 1.0
element vertex 204
property float32 x
property float32 y
property float32 z
property float32 I
end_header
-12.0690 13.1287 3.1445 0.9301
-11.5944 12.6124 1.4503 0.9335
-12.0313 13.0876 0.3003 0.9314
-12.0083 13.0627 -0.0999 0.9315
-12.0239 13.0796 -0.9010 0.9313
-12.0071 13.0614 -1.3009 0.9313
-16.6175 4.9987 -1.2724 0.9328
-16.5562 4.9802 -1.6598 0.9329
-7.8425 15.2217 -2.0340 0.9334
-9.1673 14.4624 -2.0340 0.9334
-10.4191 13.5880 -2.0340 0.9334
-11.5881 12.6057 -2.0339 0.9334
-12.6649 11.5230 -2.0339 0.9334
-13.6410 10.3488 -2.0339 0.9334
-14.5086 9.0923 -2.0339 0.9334
-15.8916 6.3731 -2.0338 0.9334
-16.7700 3.4517 -2.0338 0.9334
-17.0106 1.9439 -2.0338 0.9334
-17.1160 0.4207 -2.0338 0.9334
-17.0853 -1.1057 -2.0337 0.9334
-16.9187 -2.6234 -2.0337 0.9334
-16.6176 -4.1202 -2.0337 0.9334
-16.1844 -5.5842 -2.0337 0.9334
-6.5748 12.7611 -2.0340 0.9437
-8.7349 11.3915 -2.0340 0.9437
-11.4360 8.6760 -2.0339 0.9437
-12.1634 7.6226 -2.0339 0.9437
-13.3228 5.3429 -2.0338 0.9437
-13.7457 4.1347 -2.0338 0.9437
-14.0593 2.8937 -2.0338 0.9437
-14.2611 1.6297 -2.0338 0.9437
-14.3495 0.3527 -2.0338 0.9437
-14.1841 -2.1994 -2.0338 0.9437
-13.5685 -4.6816 -2.0337 0.9437
-5.6548 10.9755 -2.0340 0.9512
-6.6101 10.4280 -2.0340 0.9512
-10.4615 6.5561 -2.0339 0.9512
-11.0039 5.5979 -2.0339 0.9512
-12.3418 0.3034 -2.0338 0.9512
-12.1996 -1.8917 -2.0338 0.9512
-11.9826 -2.9710 -2.0338 0.9512
-11.6702 -4.0266 -2.0338 0.9512
-4.9562 9.6195 -2.0340 0.9569
-5.7934 9.1397 -2.0340 0.9569
-7.3233 7.9663 -2.0339 0.9569
-8.6207 6.5402 -2.0339 0.9569
-9.1691 5.7461 -2.0339 0.9569
-9.6445 4.9064 -2.0339 0.9569
-10.3620 3.1169 -2.0338 0.9569
-10.5984 2.1814 -2.0338 0.9569
-10.7505 1.2285 -2.0338 0.9569
-10.8171 0.2659 -2.0338 0.9569
-10.7977 -0.6988 -2.0338 0.9569
-10.6925 -1.6580 -2.0338 0.9569
-10.5022 -2.6039 -2.0338 0.9569
-5.1516 8.1270 -2.0339 0.9614
-5.8550 7.6358 -2.0339 0.9614
-7.1171 6.4754 -2.0339 0.9614
-7.6656 5.8156 -2.0339 0.9614
-8.1532 5.1095 -2.0339 0.9614
-8.9304 3.5814 -2.0339 0.9614
-9.4241 1.9397 -2.0338 0.9614
-9.6015 -0.6214 -2.0338 0.9614
-9.3387 -2.3155 -2.0338 0.9614
-9.0953 -3.1382 -2.0338 0.9614
-3.9637 7.6932 -2.0340 0.9651
-5.8569 6.3711 -2.0339 0.9651
-6.4011 5.8240 -2.0339 0.9651
-7.7132 3.9239 -2.0339 0.9651
-8.0321 3.2211 -2.0339 0.9651
-8.5979 0.9825 -2.0338 0.9651
-8.6511 0.2126 -2.0338 0.9651
-8.1803 -2.8225 -2.0338 0.9651
-3.5979 6.9832 -2.0339 0.9681
-4.2057 6.6349 -2.0339 0.9681
-4.7800 6.2338 -2.0339 0.9681
-5.3164 5.7831 -2.0339 0.9681
-5.8104 5.2865 -2.0339 0.9681
-7.6939 1.5836 -2.0339 0.9681
-7.8528 0.1930 -2.0338 0.9681
-7.8387 -0.5073 -2.0338 0.9681
-7.7623 -1.2036 -2.0338 0.9681
-3.2906 6.3869 -2.0339 0.9706
-3.8465 6.0683 -2.0339 0.9706
-5.7238 4.3423 -2.0339 0.9706
-6.4035 3.2576 -2.0339 0.9706
-6.6682 2.6742 -2.0339 0.9706
-7.0369 1.4484 -2.0339 0.9706
-7.1693 -0.4640 -2.0338 0.9706
-7.0995 -1.1008 -2.0338 0.9706
-6.7914 -2.3433 -2.0338 0.9706
-3.0287 5.8784 -2.0339 0.9727
-3.5403 5.5852 -2.0339 0.9727
-4.0238 5.2476 -2.0339 0.9727
-4.4753 4.8682 -2.0339 0.9727
-4.8911 4.4502 -2.0339 0.9727
-5.2682 3.9967 -2.0339 0.9727
-5.8937 2.9983 -2.0339 0.9727
-6.4768 1.3330 -2.0339 0.9727
-6.5697 0.7508 -2.0339 0.9727
-6.6104 0.1625 -2.0338 0.9727
-6.5343 -1.0132 -2.0338 0.9727
-2.8025 5.4393 -2.0339 0.9745
-3.2759 5.1680 -2.0339 0.9745
-4.5258 4.1178 -2.0339 0.9745
-5.1847 3.2492 -2.0339 0.9745
-5.8593 1.7625 -2.0339 0.9745
-6.0791 0.6946 -2.0339 0.9745
-6.1167 0.1504 -2.0338 0.9745
-6.1058 -0.3952 -2.0338 0.9745
-6.0463 -0.9375 -2.0338 0.9745
-4.8193 3.0202 -2.0339 0.9761
-5.2788 2.1170 -2.0339 0.9761
-5.4464 1.6383 -2.0339 0.9761
-5.6506 0.6457 -2.0339 0.9761
-5.6857 0.1397 -2.0339 0.9761
-5.6755 -0.3673 -2.0338 0.9761
-5.6202 -0.8715 -2.0338 0.9761
-5.5202 -1.3687 -2.0338 0.9761
-5.3763 -1.8550 -2.0338 0.9761
-3.2296 4.2118 -2.0339 0.9775
-3.9257 3.5718 -2.0339 0.9775
-4.4973 2.8184 -2.0339 0.9775
-5.0824 1.5288 -2.0339 0.9775
-5.1984 1.0699 -2.0339 0.9775
-5.2446 -0.8132 -2.0338 0.9775
-5.1513 -1.2772 -2.0338 0.9775
-5.0170 -1.7311 -2.0338 0.9775
-2.6606 4.1974 -2.0339 0.9788
-3.3632 3.6585 -2.0339 0.9788
-3.9591 3.0036 -2.0339 0.9788
-4.2110 2.6389 -2.0339 0.9788
-4.4293 2.2533 -2.0339 0.9788
-4.6124 1.8497 -2.0339 0.9788
-2.1227 0.0521 -0.8690 0.9909
-2.1209 -0.1373 -0.8698 0.9909
-2.1146 -0.3279 -0.8758 0.9908
-2.1676 -0.5375 -0.9140 0.9904
-4.6976 -1.6209 -2.0338 0.9788
-2.1375 4.1487 -2.0339 0.9798
-2.4986 3.9418 -2.0339 0.9798
-3.1584 3.4357 -2.0339 0.9798
-3.4519 3.1407 -2.0339 0.9798
-3.7180 2.8207 -2.0339 0.9798
-3.9545 2.4782 -2.0339 0.9798
-4.1595 2.1161 -2.0339 0.9798
-2.0603 0.6197 -0.9376 0.9907
-1.9042 0.3919 -0.8473 0.9916
-1.9073 0.2179 -0.8366 0.9917
-1.9086 -0.4733 -0.8570 0.9915
-4.4115 -1.5221 -2.0338 0.9798
-2.0125 3.9060 -2.0339 0.9808
-2.3525 3.7112 -2.0339 0.9808
-3.2500 2.9571 -2.0339 0.9808
-3.5006 2.6557 -2.0339 0.9808
-3.9163 1.9923 -2.0339 0.9808
-4.0782 1.6355 -2.0339 0.9808
-1.5984 0.3289 -0.7554 0.9928
-1.6090 0.1838 -0.7496 0.9929
-1.5801 0.0388 -0.7316 0.9931
-1.6103 -0.2497 -0.7543 0.9928
-1.5765 -0.3909 -0.7518 0.9929
-1.7595 -0.6071 -0.8616 0.9918
-2.5231 3.2904 -2.0339 0.9817
-2.8062 3.0526 -2.0339 0.9817
-3.0670 2.7904 -2.0339 0.9817
-3.3033 2.5061 -2.0339 0.9817
-3.5135 2.2018 -2.0339 0.9817
-1.3324 0.2742 -0.6673 0.9940
-1.3529 0.1546 -0.6680 0.9940
-1.3433 0.0330 -0.6591 0.9940
-1.3514 -0.0875 -0.6643 0.9940
-1.3470 -0.2089 -0.6686 0.9939
-1.2737 -0.4395 -0.6609 0.9940
-1.7957 3.4852 -2.0339 0.9825
-2.0990 3.3114 -2.0339 0.9825
-2.6533 2.8863 -2.0339 0.9825
-2.8999 2.6384 -2.0339 0.9825
-3.1234 2.3696 -2.0339 0.9825
-3.3221 2.0819 -2.0339 0.9825
-3.4943 1.7777 -2.0339 0.9825
-1.1487 0.3455 -0.6223 0.9946
-1.1785 0.2425 -0.6242 0.9946
-1.1959 0.0294 -0.6206 0.9946
-1.1362 -0.3921 -0.6235 0.9946
-1.7008 3.3011 -2.0339 0.9832
-2.5132 2.7339 -2.0339 0.9832
-2.7468 2.4991 -2.0339 0.9832
-2.9584 2.2445 -2.0339 0.9832
-3.1466 1.9720 -2.0339 0.9832
-0.9801 0.4986 -0.6023 0.9950
-1.0355 0.3114 -0.5923 0.9951
-1.0777 0.1231 -0.5941 0.9951
-1.0452 -0.2592 -0.5898 0.9951
-1.0272 -0.3545 -0.5952 0.9951
-1.6135 3.1316 -2.0339 0.9839
-2.1436 2.7956 -2.0339 0.9839
-2.3841 2.5935 -2.0339 0.9839
-2.6057 2.3708 -2.0339 0.9839
-0.9103 0.4631 -0.5897 0.9953
-0.9561 0.2876 -0.5764 0.9954
-0.9869 0.1127 -0.5735 0.9954
-0.9822 -0.1523 -0.5739 0.9954
-0.9493 -0.3276 -0.5798 0.9954
