ply
format ascii 1.0
element vertex 170
property float32 x
property float32 y
property float32 z
property float32 I
end_header
-11.8172 13.0657 3.1064 0.9309
-12.9333 11.9155 1.8884 0.9317
-12.4034 13.7137 0.7291 0.9287
-16.6718 4.9596 -1.6699 0.9325
-7.6337 15.3275 -2.0340 0.9334
-8.9958 14.5697 -2.0340 0.9334
-10.2834 13.6911 -2.0340 0.9334
-12.5928 11.6018 -2.0339 0.9334
-14.4856 9.1290 -2.0339 0.9334
-17.0728 -1.2846 -2.0337 0.9334
-16.8851 -2.8319 -2.0337 0.9334
-7.5416 12.2145 -2.0340 0.9437
-8.6211 11.4779 -2.0340 0.9437
-9.6291 10.6463 -2.0339 0.9437
-10.5572 9.7265 -2.0339 0.9437
-11.3979 8.7262 -2.0339 0.9437
-12.1441 7.6533 -2.0339 0.9437
-12.7896 6.5172 -2.0339 0.9437
-13.3292 5.3271 -2.0338 0.9437
-13.7582 4.0929 -2.0338 0.9437
-14.0733 2.8248 -2.0338 0.9437
-14.2718 1.5333 -2.0338 0.9437
-14.3520 0.2290 -2.0338 0.9437
-14.3132 -1.0770 -2.0338 0.9437
-13.8813 -3.6516 -2.0337 0.9437
-6.4864 10.5054 -2.0340 0.9512
-7.4148 9.8719 -2.0339 0.9512
-9.0801 8.3656 -2.0339 0.9512
-10.4449 6.5825 -2.0339 0.9512
-11.4642 4.5818 -2.0339 0.9512
-11.8333 3.5202 -2.0338 0.9512
-12.1043 2.4296 -2.0338 0.9512
-12.1754 -2.0420 -2.0338 0.9512
-4.8242 9.6864 -2.0340 0.9569
-6.4987 8.6523 -2.0339 0.9569
-8.5920 6.5779 -2.0339 0.9569
-9.1545 5.7693 -2.0339 0.9569
-10.7585 1.1558 -2.0338 0.9569
-10.8190 0.1727 -2.0338 0.9569
-10.7898 -0.8119 -2.0338 0.9569
-10.6712 -1.7897 -2.0338 0.9569
-10.1705 -3.6929 -2.0338 0.9569
-7.0766 6.5197 -2.0339 0.9614
-7.6400 5.8491 -2.0339 0.9614
-8.5730 4.3686 -2.0339 0.9614
-8.9347 3.5708 -2.0339 0.9614
-9.4336 1.8935 -2.0338 0.9614
-9.5666 1.0278 -2.0338 0.9614
-9.6204 0.1536 -2.0338 0.9614
-9.5945 -0.7219 -2.0338 0.9614
-9.4890 -1.5914 -2.0338 0.9614
-9.3049 -2.4477 -2.0338 0.9614
-9.0438 -3.2837 -2.0338 0.9614
-3.8582 7.7467 -2.0340 0.9651
-4.5466 7.3637 -2.0339 0.9651
-5.1973 6.9197 -2.0339 0.9651
-8.4846 1.7030 -2.0338 0.9651
-8.6043 0.9244 -2.0338 0.9651
-8.6293 -0.6493 -2.0338 0.9651
-8.5345 -1.4314 -2.0338 0.9651
-8.1340 -2.9534 -2.0338 0.9651
-4.7177 6.2811 -2.0339 0.9681
-7.2943 2.9152 -2.0339 0.9681
-7.8102 0.8391 -2.0338 0.9681
-7.8541 0.1254 -2.0338 0.9681
-7.7468 -1.2993 -2.0338 0.9681
-7.3833 -2.6809 -2.0338 0.9681
-4.3148 5.7447 -2.0339 0.9706
-6.0782 3.8305 -2.0339 0.9706
-6.4013 3.2619 -2.0339 0.9706
-6.8861 2.0485 -2.0339 0.9706
-7.0439 1.4138 -2.0339 0.9706
-6.9479 -1.8277 -2.0338 0.9706
-6.7529 -2.4520 -2.0338 0.9706
-3.9713 5.2874 -2.0339 0.9727
-5.2505 4.0197 -2.0339 0.9727
-5.5943 3.5256 -2.0339 0.9727
-6.3380 1.8855 -2.0339 0.9727
-6.4832 1.3013 -2.0339 0.9727
-6.5746 0.7063 -2.0339 0.9727
-6.5938 -0.4962 -2.0338 0.9727
-6.5213 -1.0937 -2.0338 0.9727
-6.3948 -1.6822 -2.0338 0.9727
-6.2154 -2.2568 -2.0338 0.9727
-3.2146 5.2064 -2.0339 0.9745
-3.6747 4.8925 -2.0339 0.9745
-4.1044 4.5380 -2.0339 0.9745
-4.5000 4.1459 -2.0339 0.9745
-5.4517 2.7780 -2.0339 0.9745
-5.8646 1.7447 -2.0339 0.9745
-5.9990 1.2041 -2.0339 0.9745
-6.0343 -1.0121 -2.0338 0.9745
-5.9172 -1.5566 -2.0338 0.9745
-2.5356 5.0911 -2.0339 0.9761
-3.4157 4.5477 -2.0339 0.9761
-4.5160 3.4574 -2.0339 0.9761
-5.0675 2.5822 -2.0339 0.9761
-5.4513 1.6217 -2.0339 0.9761
-5.5762 1.1192 -2.0339 0.9761
-5.6548 0.6075 -2.0339 0.9761
-5.6867 0.0907 -2.0339 0.9761
-5.5002 -1.4469 -2.0338 0.9761
-3.1875 4.2438 -2.0339 0.9775
-3.9034 3.5962 -2.0339 0.9775
-4.4901 2.8297 -2.0339 0.9775
-4.9283 1.9696 -2.0339 0.9775
-5.0870 1.5133 -2.0339 0.9775
-5.2036 1.0444 -2.0339 0.9775
-5.3066 0.0847 -2.0339 0.9775
-5.2923 -0.3982 -2.0339 0.9775
-2.6108 4.2285 -2.0339 0.9788
-2.9845 3.9736 -2.0339 0.9788
-3.6548 3.3672 -2.0339 0.9788
-3.9459 3.0209 -2.0339 0.9788
-2.1218 0.4259 -0.8857 0.9907
-2.1125 0.2269 -0.8696 0.9909
-2.1173 -0.3551 -0.8787 0.9908
-4.8059 -1.2642 -2.0338 0.9788
-4.6710 -1.6960 -2.0338 0.9788
-2.0806 4.1775 -2.0339 0.9798
-2.4518 3.9710 -2.0339 0.9798
-3.1305 3.4612 -2.0339 0.9798
-3.4323 3.1622 -2.0339 0.9798
-4.3336 1.7319 -2.0339 0.9798
-1.9090 0.2051 -0.8368 0.9917
-1.9187 0.0306 -0.8363 0.9917
-1.9506 -0.5132 -0.8790 0.9912
-4.3865 -1.5927 -2.0338 0.9798
-1.9589 3.9332 -2.0339 0.9808
-2.6389 3.5133 -2.0339 0.9808
-3.7173 2.3427 -2.0339 0.9808
-1.6004 0.3212 -0.7556 0.9928
-1.6081 0.1727 -0.7487 0.9929
-1.8485 3.7116 -2.0339 0.9817
-2.4902 3.3154 -2.0339 0.9817
-3.6943 1.8825 -2.0339 0.9817
-1.7251 0.6894 -0.9113 0.9918
-1.2972 0.3859 -0.6639 0.9940
-1.3533 0.1454 -0.6676 0.9940
-1.3407 0.0214 -0.6577 0.9940
-1.3438 -0.2254 -0.6684 0.9939
-1.7478 3.5094 -2.0339 0.9825
-2.0597 3.3359 -2.0339 0.9825
-2.8834 2.6565 -2.0339 0.9825
-3.1130 2.3833 -2.0339 0.9825
-3.3168 2.0903 -2.0339 0.9825
-3.4932 1.7800 -2.0339 0.9825
-1.1213 0.4481 -0.6264 0.9946
-1.1500 0.3421 -0.6224 0.9946
-1.1946 0.0190 -0.6198 0.9946
-1.2003 -0.0904 -0.6244 0.9946
-1.1899 -0.1996 -0.6259 0.9946
-1.6555 3.3241 -2.0339 0.9832
-2.2302 2.9693 -2.0339 0.9832
-2.7311 2.5162 -2.0339 0.9832
-3.1417 1.9799 -2.0339 0.9832
-0.9799 0.4993 -0.6024 0.9950
-1.0132 0.4049 -0.5976 0.9950
-1.0360 0.3082 -0.5920 0.9951
-1.0598 0.2127 -0.5920 0.9951
-1.0784 0.1158 -0.5941 0.9951
-1.0809 -0.0814 -0.5937 0.9951
-2.1157 2.8168 -2.0339 0.9839
-2.5909 2.3870 -2.0339 0.9839
-2.9803 1.8782 -2.0339 0.9839
-0.9382 0.3749 -0.5833 0.9953
-0.9874 0.1061 -0.5734 0.9954
-0.9894 -0.0745 -0.5728 0.9954
-0.9804 -0.1645 -0.5739 0.9954
-0.9602 -0.2526 -0.5733 0.9954
