ply
format ascii 1.0
element vertex 207
property float32 x
property float32 y
property float32 z
property float32 I
end_header
16.4460 -4.4570 -1.2494 0.9339
16.3306 -4.4257 -1.6244 0.9343
13.1771 9.5782 -1.5640 0.9366
13.9164 -9.9756 -2.0339 0.9334
14.7509 -8.6946 -2.0339 0.9334
16.0614 -5.9353 -2.0340 0.9334
17.1236 0.0566 -2.0340 0.9333
17.0504 1.5838 -2.0341 0.9333
16.4979 4.5884 -2.0341 0.9333
16.0229 6.0417 -2.0341 0.9333
13.2632 9.6408 -1.9477 0.9361
12.8984 11.2640 -2.0341 0.9333
10.6916 13.3766 -2.0341 0.9333
12.3665 -7.2891 -2.0339 0.9437
12.9675 -6.1571 -2.0339 0.9437
13.8554 -3.7549 -2.0340 0.9437
14.1353 -2.5041 -2.0340 0.9437
14.3024 -1.2332 -2.0340 0.9437
14.3555 0.0475 -2.0340 0.9437
14.2941 1.3278 -2.0340 0.9437
13.8308 3.8466 -2.0341 0.9437
12.9274 6.2430 -2.0341 0.9437
11.6124 8.4408 -2.0341 0.9437
10.8132 9.4430 -2.0341 0.9437
9.9278 10.3699 -2.0341 0.9437
10.6362 -6.2693 -2.0339 0.9512
11.9167 -3.2295 -2.0340 0.9512
12.1574 -2.1537 -2.0340 0.9512
12.3468 0.0408 -2.0340 0.9512
12.1432 2.2341 -2.0340 0.9512
11.8956 3.3084 -2.0340 0.9512
11.1185 5.3695 -2.0341 0.9512
9.9875 7.2597 -2.0341 0.9512
9.3221 -5.4947 -2.0339 0.9569
10.6429 1.9580 -2.0340 0.9569
10.4258 2.8996 -2.0340 0.9569
10.1257 3.8181 -2.0340 0.9569
9.7448 4.7061 -2.0340 0.9569
9.2861 5.5566 -2.0340 0.9569
8.7535 6.3628 -2.0340 0.9569
8.1510 7.1182 -2.0340 0.9569
6.7565 8.4533 -2.0341 0.9569
8.6921 -4.1271 -2.0339 0.9614
9.0257 -3.3353 -2.0339 0.9614
9.2873 -2.5169 -2.0340 0.9614
9.4748 -1.6785 -2.0340 0.9614
9.5812 0.8900 -2.0340 0.9614
9.4637 1.7411 -2.0340 0.9614
9.2707 2.5783 -2.0340 0.9614
8.2572 4.9409 -2.0340 0.9614
7.7836 5.6578 -2.0340 0.9614
7.2479 6.3295 -2.0340 0.9614
6.0079 7.5167 -2.0340 0.9614
7.0337 -5.0419 -2.0339 0.9651
7.4554 -4.3944 -2.0339 0.9651
8.3529 -2.2637 -2.0339 0.9651
8.5216 -1.5096 -2.0340 0.9651
8.6223 -0.7435 -2.0340 0.9651
8.6543 0.0286 -2.0340 0.9651
8.6173 0.8004 -2.0340 0.9651
8.5116 1.5659 -2.0340 0.9651
8.0979 3.0535 -2.0340 0.9651
7.4265 4.4438 -2.0340 0.9651
6.5187 5.6927 -2.0340 0.9651
6.7673 -3.9888 -2.0339 0.9681
7.0962 -3.3693 -2.0339 0.9681
7.3686 -2.7229 -2.0339 0.9681
7.5821 -2.0548 -2.0339 0.9681
7.7352 -1.3703 -2.0340 0.9681
7.8266 -0.6749 -2.0340 0.9681
7.8556 0.0260 -2.0340 0.9681
7.7261 1.4214 -2.0340 0.9681
7.5685 2.1049 -2.0340 0.9681
6.7411 4.0337 -2.0340 0.9681
6.3545 4.6189 -2.0340 0.9681
5.9171 5.1673 -2.0340 0.9681
5.4326 5.6746 -2.0340 0.9681
4.9048 6.1365 -2.0340 0.9681
5.8393 -4.1858 -2.0339 0.9706
6.1894 -3.6482 -2.0339 0.9706
6.4902 -3.0816 -2.0339 0.9706
6.9346 -1.8793 -2.0339 0.9706
7.1582 -0.6172 -2.0340 0.9706
7.1847 0.0237 -2.0340 0.9706
7.1540 0.6646 -2.0340 0.9706
7.0663 1.3000 -2.0340 0.9706
6.9221 1.9252 -2.0340 0.9706
6.7228 2.5349 -2.0340 0.9706
6.4699 3.1245 -2.0340 0.9706
6.1655 3.6892 -2.0340 0.9706
5.4118 4.7260 -2.0340 0.9706
4.9686 5.1900 -2.0340 0.9706
4.4859 5.6125 -2.0340 0.9706
6.3825 -1.7297 -2.0339 0.9727
6.5114 -1.1535 -2.0339 0.9727
6.5884 -0.5681 -2.0340 0.9727
6.5037 1.1965 -2.0340 0.9727
6.3711 1.7719 -2.0340 0.9727
5.3491 3.8881 -2.0340 0.9727
4.1287 5.1656 -2.0340 0.9727
4.9730 -3.5648 -2.0339 0.9745
5.2712 -3.1070 -2.0339 0.9745
5.5274 -2.6244 -2.0339 0.9745
5.7395 -2.1209 -2.0339 0.9745
5.9058 -1.6005 -2.0339 0.9745
6.0250 -1.0674 -2.0339 0.9745
6.0963 -0.5257 -2.0339 0.9745
6.1189 0.0202 -2.0340 0.9745
6.0180 1.1072 -2.0340 0.9745
5.5101 2.6610 -2.0340 0.9745
5.2507 3.1419 -2.0340 0.9745
3.8204 4.7798 -2.0340 0.9745
4.6226 -3.3136 -2.0339 0.9761
4.8997 -2.8881 -2.0339 0.9761
5.1379 -2.4395 -2.0339 0.9761
5.6876 0.0188 -2.0339 0.9761
5.3220 2.0067 -2.0340 0.9761
4.6007 3.3442 -2.0340 0.9761
4.2841 3.7412 -2.0340 0.9761
3.5511 4.4430 -2.0340 0.9761
4.3136 -3.0921 -2.0339 0.9775
4.5723 -2.6951 -2.0339 0.9775
4.9785 -1.8397 -2.0339 0.9775
5.2879 -0.4560 -2.0339 0.9775
5.3075 0.0175 -2.0339 0.9775
5.2200 0.9604 -2.0340 0.9775
4.9663 1.8726 -2.0340 0.9775
4.7794 2.3081 -2.0340 0.9775
4.5545 2.7253 -2.0340 0.9775
3.3138 4.1460 -2.0340 0.9775
4.4893 -2.1315 -2.0339 0.9788
4.7966 -1.2999 -2.0339 0.9788
4.8934 -0.8669 -2.0339 0.9788
4.9696 0.0164 -2.0339 0.9787
4.8876 0.8992 -2.0340 0.9787
4.7879 1.3316 -2.0340 0.9787
4.6500 1.7534 -2.0340 0.9788
4.4751 2.1612 -2.0340 0.9787
4.0199 2.9220 -2.0340 0.9787
3.1029 3.8820 -2.0340 0.9787
4.0205 -2.3698 -2.0339 0.9798
4.2159 -2.0017 -2.0339 0.9798
4.5045 -1.2208 -2.0339 0.9798
4.5954 -0.8141 -2.0339 0.9798
4.6497 -0.4010 -2.0339 0.9798
4.6670 0.0154 -2.0339 0.9798
4.5900 0.8444 -2.0339 0.9798
4.0048 2.3963 -2.0340 0.9798
3.7751 2.7440 -2.0340 0.9798
3.2275 3.3712 -2.0340 0.9798
2.9139 3.6456 -2.0340 0.9798
3.7854 -2.2312 -2.0339 0.9808
3.9693 -1.8847 -2.0339 0.9808
4.1216 -1.5231 -2.0339 0.9808
4.2411 -1.1494 -2.0339 0.9808
4.3779 -0.3775 -2.0339 0.9808
4.3216 0.7951 -2.0339 0.9808
4.1115 1.5503 -2.0340 0.9808
3.5543 2.5836 -2.0340 0.9808
2.7435 3.4324 -2.0340 0.9808
3.3700 -2.4157 -2.0339 0.9817
3.7457 -1.7785 -2.0339 0.9817
3.8894 -1.4373 -2.0339 0.9817
4.0021 -1.0846 -2.0339 0.9817
4.0829 -0.7233 -2.0339 0.9817
4.1311 -0.3562 -2.0339 0.9817
4.0780 0.7503 -2.0339 0.9817
3.9949 1.1110 -2.0339 0.9817
3.8798 1.4629 -2.0340 0.9817
3.5582 2.1291 -2.0340 0.9817
3.1865 -2.2841 -2.0339 0.9825
3.5417 -1.6816 -2.0339 0.9825
2.1036 -0.3727 -1.1083 0.9904
2.0750 -0.1789 -1.0805 0.9907
2.0708 0.0068 -1.0743 0.9907
3.6685 1.3833 -2.0339 0.9825
3.5305 1.7050 -2.0339 0.9825
3.1714 2.3052 -2.0340 0.9825
2.9531 2.5789 -2.0340 0.9825
2.7113 2.8320 -2.0340 0.9825
3.1992 -1.8856 -2.0339 0.9832
3.3546 -1.5928 -2.0339 0.9832
1.8628 -0.5049 -1.0571 0.9912
1.8508 -0.1596 -1.0174 0.9916
1.8504 0.0061 -1.0135 0.9916
1.8501 0.1718 -1.0176 0.9916
1.8659 0.5189 -1.0607 0.9912
3.4748 1.3102 -2.0339 0.9832
3.3440 1.6150 -2.0339 0.9832
3.1867 1.9068 -2.0339 0.9832
3.0039 2.1835 -2.0340 0.9832
2.7971 2.4427 -2.0340 0.9832
2.5681 2.6825 -2.0340 0.9832
2.3186 2.9009 -2.0340 0.9832
2.8632 -2.0524 -2.0339 0.9839
3.0349 -1.7888 -2.0339 0.9839
1.7204 -0.6358 -1.0589 0.9916
1.7122 -0.4640 -1.0242 0.9918
1.7141 -0.3037 -1.0050 0.9920
1.7209 0.1598 -0.9978 0.9920
1.7139 0.3153 -1.0061 0.9920
1.7113 0.4759 -1.0255 0.9918
1.7182 0.6479 -1.0602 0.9916
3.1723 1.5320 -2.0339 0.9839
2.6536 2.3173 -2.0339 0.9839
2.4362 2.5447 -2.0339 0.9839
2.1995 2.7519 -2.0340 0.9839
