ply
format ascii 1.0
element vertex 217
property float32 x
property float32 y
property float32 z
property float32 I
end_header
3.5398 18.5397 3.3281 0.9262
1.8273 18.5885 3.2935 0.9269
3.5783 18.7417 2.9230 0.9257
-11.6837 13.3732 2.7204 0.9307
-13.3116 12.7042 2.8189 0.9282
-12.5953 12.0205 2.2672 0.9322
1.7795 18.1031 1.9533 0.9294
1.8289 18.6061 1.5827 0.9277
-11.6742 13.3624 1.5021 0.9312
-12.6727 12.0944 1.4829 0.9321
3.3627 17.6130 1.1119 0.9307
-12.5262 14.3375 1.1806 0.9265
1.8645 18.9684 0.7515 0.9265
3.4803 18.2287 0.3135 0.9284
3.4387 18.0107 -0.1032 0.9293
-16.5236 5.2691 -0.8796 0.9329
-2.0129 7.4255 -0.7386 0.9696
-16.1976 5.1651 -1.6322 0.9340
3.2114 16.8204 -2.0341 0.9333
0.1252 17.1235 -2.0341 0.9333
-0.6728 8.0517 -0.9598 0.9680
-7.3871 15.4479 -2.0340 0.9334
-8.7555 14.7154 -2.0340 0.9334
-10.0519 13.8620 -2.0340 0.9334
-11.2656 12.8947 -2.0339 0.9334
-12.3868 11.8216 -2.0339 0.9334
-14.3155 9.3935 -2.0339 0.9334
-15.7746 6.6575 -2.0338 0.9334
-16.3125 5.2017 -2.0338 0.9334
-16.7162 3.7032 -2.0338 0.9334
-16.9827 2.1744 -2.0338 0.9334
2.6923 14.1012 -2.0341 0.9437
1.4044 14.2870 -2.0341 0.9437
0.1050 14.3554 -2.0341 0.9437
-1.3038 7.4155 -1.0668 0.9700
-1.9673 7.2574 -1.0654 0.9701
-6.1930 12.9507 -2.0340 0.9437
-8.4270 11.6212 -2.0340 0.9437
-9.4445 10.8104 -2.0339 0.9437
-11.2393 8.9296 -2.0339 0.9437
-12.0015 7.8751 -2.0339 0.9437
-13.2248 5.5813 -2.0338 0.9437
-0.6191 7.4087 -1.2248 0.9703
-1.2855 7.3119 -1.2230 0.9704
-5.3264 11.1386 -2.0340 0.9512
-6.3130 10.6105 -2.0340 0.9512
-8.9316 8.5240 -2.0339 0.9512
-9.6667 7.6802 -2.0339 0.9512
-10.8931 5.8107 -2.0339 0.9512
-11.3744 4.8004 -2.0339 0.9512
-11.7623 3.7508 -2.0338 0.9512
-12.0535 2.6703 -2.0338 0.9512
-12.2456 1.5679 -2.0338 0.9512
2.0295 10.6296 -2.0340 0.9569
-1.2705 7.2262 -1.3791 0.9706
-7.8281 7.4709 -2.0339 0.9569
-9.0470 5.9364 -2.0339 0.9569
-10.7328 1.3742 -2.0338 0.9569
1.8046 9.4519 -2.0340 0.9614
0.9413 9.5764 -2.0340 0.9614
-0.6223 7.4477 -1.5798 0.9699
-1.2571 7.1504 -1.5346 0.9708
-3.3481 9.0211 -2.0340 0.9614
-4.1511 8.6808 -2.0340 0.9614
-6.3307 7.2462 -2.0339 0.9614
-8.0447 5.2787 -2.0339 0.9614
-8.8647 3.7412 -2.0339 0.9614
-9.1670 2.9232 -2.0339 0.9614
-9.3940 2.0811 -2.0338 0.9614
-9.5438 1.2219 -2.0338 0.9614
1.6230 8.5009 -2.0340 0.9651
0.8466 8.6129 -2.0340 0.9651
0.0632 8.6542 -2.0340 0.9651
-1.2909 7.3428 -1.7522 0.9698
-3.0113 8.1135 -2.0340 0.9651
-5.6939 6.5172 -2.0339 0.9651
-7.2354 4.7477 -2.0339 0.9651
-7.6355 4.0730 -2.0339 0.9651
-7.9729 3.3649 -2.0339 0.9651
-8.2448 2.6291 -2.0339 0.9651
-8.4490 1.8717 -2.0338 0.9651
-8.5837 1.0990 -2.0338 0.9651
1.4733 7.7164 -2.0340 0.9681
0.0574 7.8555 -2.0340 0.9681
-0.6541 7.8284 -2.0340 0.9681
-1.3603 7.7370 -2.0340 0.9681
-2.0553 7.5820 -2.0340 0.9681
-2.7333 7.3648 -2.0340 0.9681
-4.0168 6.7510 -2.0339 0.9681
-4.6115 6.3595 -2.0339 0.9681
-6.1505 4.8866 -2.0339 0.9681
-6.9309 3.6971 -2.0339 0.9681
-7.4839 2.3865 -2.0339 0.9681
-7.6693 1.6990 -2.0339 0.9681
0.0525 7.1846 -2.0340 0.9706
-1.2441 7.0763 -2.0340 0.9706
-1.8797 6.9345 -2.0340 0.9706
-2.4999 6.7358 -2.0340 0.9706
-4.2177 5.8164 -2.0339 0.9706
-4.7270 5.4106 -2.0339 0.9706
-5.6252 4.4693 -2.0339 0.9706
-6.0068 3.9415 -2.0339 0.9706
-6.3390 3.3814 -2.0339 0.9706
-6.6191 2.7935 -2.0339 0.9706
-7.0143 1.5539 -2.0339 0.9706
1.2402 6.4956 -2.0340 0.9727
-0.5506 6.5899 -2.0340 0.9727
-1.1451 6.5129 -2.0340 0.9727
-1.7301 6.3825 -2.0340 0.9727
-2.3009 6.1996 -2.0340 0.9727
-4.3507 4.9798 -2.0339 0.9727
-4.7837 4.5654 -2.0339 0.9727
-5.8344 3.1122 -2.0339 0.9727
-6.0922 2.5711 -2.0339 0.9727
-6.4559 1.4302 -2.0339 0.9727
-6.5589 0.8397 -2.0339 0.9727
1.1475 6.0104 -2.0340 0.9745
0.5986 6.0896 -2.0340 0.9745
0.0447 6.1188 -2.0340 0.9745
-0.5095 6.0977 -2.0340 0.9745
-1.6009 5.9057 -2.0340 0.9745
-3.5920 4.9535 -2.0339 0.9745
-4.7907 3.8062 -2.0339 0.9745
-5.1157 3.3568 -2.0339 0.9745
-5.6372 2.3791 -2.0339 0.9745
-5.9738 1.3234 -2.0339 0.9745
0.5564 5.6604 -2.0340 0.9761
-1.4880 5.4896 -2.0339 0.9761
-1.9790 5.3322 -2.0339 0.9761
-2.4537 5.1311 -2.0339 0.9761
-2.9082 4.8878 -2.0339 0.9761
-4.1145 3.9267 -2.0339 0.9761
-4.7552 3.1203 -2.0339 0.9761
-5.0182 2.6768 -2.0339 0.9761
-5.2399 2.2114 -2.0339 0.9761
-5.5528 1.2302 -2.0339 0.9761
-5.6414 0.7223 -2.0339 0.9761
0.9954 5.2134 -2.0340 0.9775
0.0388 5.3074 -2.0340 0.9775
-1.3886 5.1227 -2.0339 0.9775
-1.8468 4.9759 -2.0339 0.9775
-3.1157 4.2967 -2.0339 0.9775
-4.6828 2.4979 -2.0339 0.9775
-4.8897 2.0637 -2.0339 0.9775
-5.1817 1.1479 -2.0339 0.9775
-5.2643 0.6740 -2.0339 0.9775
0.9320 4.8815 -2.0340 0.9787
-0.8605 4.8946 -2.0339 0.9788
-1.3002 4.7965 -2.0339 0.9788
-1.7291 4.6591 -2.0339 0.9788
-2.1439 4.4833 -2.0339 0.9788
-2.5411 4.2708 -2.0339 0.9788
-3.5951 3.4310 -2.0339 0.9788
-3.8910 3.0914 -2.0339 0.9788
-4.1549 2.7263 -2.0339 0.9788
-4.3847 2.3389 -2.0339 0.9788
-4.5784 1.9323 -2.0339 0.9788
-2.1204 0.4697 -0.8889 0.9907
0.8753 4.5842 -2.0340 0.9798
0.4566 4.6446 -2.0340 0.9798
-0.3886 4.6508 -2.0339 0.9798
-0.8081 4.5964 -2.0339 0.9798
-2.3863 4.0107 -2.0339 0.9798
-3.0705 3.5145 -2.0339 0.9798
-4.4462 1.4178 -2.0339 0.9798
-1.9034 0.2437 -0.8363 0.9917
0.8240 4.3161 -2.0340 0.9808
-0.7609 4.3277 -2.0339 0.9808
-1.1496 4.2410 -2.0339 0.9808
-1.5289 4.1195 -2.0339 0.9808
-1.8956 3.9641 -2.0339 0.9808
-2.8909 3.3090 -2.0339 0.9808
-3.1787 3.0336 -2.0339 0.9808
-3.6736 2.4106 -2.0339 0.9808
-4.0482 1.7085 -2.0339 0.9808
-1.6057 0.5120 -0.7801 0.9926
-1.6102 0.2061 -0.7514 0.9929
0.4057 4.1266 -2.0340 0.9817
0.0303 4.1463 -2.0339 0.9817
-0.3452 4.1321 -2.0339 0.9817
-0.7180 4.0838 -2.0339 0.9817
-1.4428 3.8873 -2.0339 0.9817
-1.7888 3.7407 -2.0339 0.9817
-2.9996 2.8627 -2.0339 0.9817
-1.2872 0.4104 -0.6627 0.9940
0.3836 3.9018 -2.0339 0.9825
0.0287 3.9205 -2.0339 0.9825
-0.6789 3.8614 -2.0339 0.9825
-1.0257 3.7840 -2.0339 0.9825
-1.3641 3.6756 -2.0339 0.9825
-1.6914 3.5370 -2.0339 0.9825
-2.0046 3.3693 -2.0339 0.9825
-2.3015 3.1739 -2.0339 0.9825
-2.5795 2.9525 -2.0339 0.9825
-3.4591 1.8452 -2.0339 0.9825
-1.1138 0.4701 -0.6272 0.9946
-1.1417 0.3640 -0.6217 0.9946
-1.1739 0.2600 -0.6238 0.9946
-1.1984 0.1534 -0.6268 0.9946
-0.9716 3.5842 -2.0339 0.9832
-1.6020 3.3502 -2.0339 0.9832
-1.8988 3.1913 -2.0339 0.9832
-2.1800 3.0063 -2.0339 0.9832
-3.2765 1.7478 -2.0339 0.9832
-1.0757 0.1377 -0.5940 0.9951
0.6607 3.4604 -2.0339 0.9839
-0.2933 3.5106 -2.0339 0.9839
-0.6100 3.4696 -2.0339 0.9839
-0.9217 3.4001 -2.0339 0.9839
-1.2258 3.3027 -2.0339 0.9839
-1.8013 3.0275 -2.0339 0.9839
-2.3178 2.6529 -2.0339 0.9839
-2.7582 2.1914 -2.0339 0.9839
-2.9453 1.9327 -2.0339 0.9839
-0.9329 0.3937 -0.5846 0.9953
-0.9536 0.3040 -0.5778 0.9954
-0.9706 0.2150 -0.5740 0.9954
