ply
format ascii 1.0
element vertex 198
property float32 x
property float32 y
property float32 z
property float32 I
end_header
-11.8169 -7.9924 -1.0460 0.9444
-11.6236 -7.8617 -1.3472 0.9452
-15.9580 6.2048 -2.0338 0.9334
-16.4403 4.7820 -2.0338 0.9334
-16.7960 3.3223 -2.0338 0.9334
-17.0225 1.8372 -2.0338 0.9334
-17.0814 -1.1640 -2.0337 0.9334
-16.9135 -2.6569 -2.0337 0.9334
-16.1894 -5.5698 -2.0337 0.9334
-11.5241 -7.7943 -1.6526 0.9455
-13.2859 -10.7979 -2.0337 0.9334
-12.2882 -11.9209 -2.0337 0.9334
-7.4387 -15.4199 -2.0337 0.9334
-12.8711 6.3546 -2.0339 0.9437
-13.3786 5.2018 -2.0338 0.9437
-13.7829 4.0090 -2.0338 0.9437
-14.2710 1.5402 -2.0338 0.9437
-14.3510 0.2833 -2.0338 0.9437
-14.1797 -2.2274 -2.0338 0.9437
-13.9299 -3.4618 -2.0337 0.9437
-13.5727 -4.6696 -2.0337 0.9437
-13.1110 -5.8414 -2.0337 0.9437
-11.8893 -8.0414 -2.0337 0.9437
-10.3021 -9.9941 -2.0337 0.9437
-9.3863 -10.8587 -2.0337 0.9437
-8.3983 -11.6398 -2.0337 0.9437
-11.0703 5.4655 -2.0339 0.9512
-11.9809 -2.9775 -2.0338 0.9512
-10.7928 -5.9933 -2.0337 0.9512
-10.2259 -6.9163 -2.0337 0.9512
-9.5802 -7.7861 -2.0337 0.9512
-8.8607 -8.5959 -2.0337 0.9512
-7.2233 -10.0113 -2.0337 0.9512
-5.3638 -11.1190 -2.0337 0.9512
-10.7580 1.1610 -2.0338 0.9569
-10.6892 -1.6791 -2.0338 0.9569
-10.2316 -3.5201 -2.0338 0.9569
-9.8836 -4.4035 -2.0338 0.9569
-9.4595 -5.2529 -2.0338 0.9569
-8.3967 -6.8242 -2.0338 0.9569
-9.2389 2.6873 -2.0339 0.9614
-9.4388 1.8671 -2.0338 0.9614
-9.5661 1.0324 -2.0338 0.9614
-9.5993 -0.6541 -2.0338 0.9614
-9.0981 -3.1301 -2.0338 0.9614
-8.7887 -3.9156 -2.0338 0.9614
-8.4115 -4.6710 -2.0338 0.9614
-7.9697 -5.3904 -2.0338 0.9614
-7.4665 -6.0682 -2.0338 0.9614
-6.9058 -6.6994 -2.0338 0.9614
-6.2919 -7.2789 -2.0338 0.9614
-5.6296 -7.8025 -2.0338 0.9614
-4.1804 -8.6657 -2.0338 0.9614
-8.0657 3.1361 -2.0339 0.9651
-8.4893 1.6792 -2.0338 0.9651
-8.6038 0.9286 -2.0338 0.9651
-8.5488 -1.3429 -2.0338 0.9651
-8.1829 -2.8153 -2.0338 0.9651
-7.1680 -4.8481 -2.0338 0.9651
-6.7154 -5.4578 -2.0338 0.9651
-6.2111 -6.0254 -2.0338 0.9651
-3.7599 -7.7941 -2.0338 0.9651
-7.8098 0.8429 -2.0338 0.9681
-7.8536 0.1550 -2.0338 0.9681
-7.7599 -1.2190 -2.0338 0.9681
-7.4277 -2.5555 -2.0338 0.9681
-6.8673 -3.8134 -2.0338 0.9681
-6.5065 -4.4007 -2.0338 0.9681
-5.6380 -5.4694 -2.0338 0.9681
-5.1367 -5.9426 -2.0338 0.9681
-4.5961 -6.3700 -2.0338 0.9681
-6.6961 2.6036 -2.0339 0.9706
-7.0478 1.3941 -2.0339 0.9706
-7.1429 0.7709 -2.0338 0.9706
-6.9722 -1.7328 -2.0338 0.9706
-6.7934 -2.3373 -2.0338 0.9706
-6.5624 -2.9237 -2.0338 0.9706
-6.2808 -3.4878 -2.0338 0.9706
-5.1565 -5.0024 -2.0338 0.9706
-4.6981 -5.4351 -2.0338 0.9706
-3.1215 -6.4706 -2.0338 0.9706
-5.9293 2.9274 -2.0339 0.9727
-6.4868 1.2831 -2.0339 0.9727
-6.5743 0.7095 -2.0339 0.9727
-6.5323 -1.0261 -2.0338 0.9727
-6.2527 -2.1512 -2.0338 0.9727
-6.0400 -2.6910 -2.0338 0.9727
-5.7808 -3.2101 -2.0338 0.9727
-5.4772 -3.7045 -2.0338 0.9727
-5.1314 -4.1704 -2.0338 0.9727
-4.7461 -4.6042 -2.0338 0.9727
-4.3241 -5.0025 -2.0338 0.9727
-3.8689 -5.3623 -2.0338 0.9727
-2.8730 -5.9556 -2.0338 0.9727
-5.4864 2.7087 -2.0339 0.9745
-5.7027 2.2173 -2.0339 0.9745
-6.0832 0.6565 -2.0339 0.9745
-6.1174 0.1207 -2.0338 0.9745
-6.1044 -0.4160 -2.0338 0.9745
-5.7857 -1.9905 -2.0338 0.9745
-5.0681 -3.4278 -2.0338 0.9745
-4.7481 -3.8589 -2.0338 0.9745
-4.3916 -4.2603 -2.0338 0.9745
-4.0012 -4.6288 -2.0338 0.9745
-5.5793 1.1036 -2.0339 0.9761
-5.6546 0.6103 -2.0339 0.9761
-5.5195 -1.3717 -2.0338 0.9761
-5.3779 -1.8503 -2.0338 0.9761
-5.1951 -2.3146 -2.0338 0.9761
-4.7109 -3.1863 -2.0338 0.9761
-4.4136 -3.5870 -2.0338 0.9761
-4.0821 -3.9601 -2.0338 0.9761
-3.3277 -4.6121 -2.0338 0.9761
-2.9106 -4.8861 -2.0338 0.9761
-2.4711 -5.1224 -2.0338 0.9761
-5.2064 1.0299 -2.0339 0.9775
-5.2766 0.5695 -2.0339 0.9775
-5.2950 -0.3608 -2.0339 0.9775
-5.1506 -1.2800 -2.0338 0.9775
-4.6398 -2.5765 -2.0338 0.9775
-4.1186 -3.3473 -2.0338 0.9775
-3.8093 -3.6954 -2.0338 0.9775
-3.1054 -4.3039 -2.0338 0.9775
-4.6317 1.8009 -2.0339 0.9788
-2.1217 0.4197 -0.8852 0.9907
-2.1123 0.2279 -0.8695 0.9909
-2.1225 0.0419 -0.8688 0.9909
-2.1205 -0.1445 -0.8699 0.9909
-2.1151 -0.3323 -0.8763 0.9908
-2.1697 -0.5392 -0.9150 0.9904
-4.6990 -1.6167 -2.0338 0.9788
-4.5392 -2.0224 -2.0338 0.9788
-4.3444 -2.4125 -2.0338 0.9788
-4.1162 -2.7841 -2.0338 0.9788
-3.5668 -3.4601 -2.0338 0.9788
-3.2497 -3.7595 -2.0338 0.9788
-2.5432 -4.2693 -2.0338 0.9788
-4.3496 1.6912 -2.0339 0.9798
-1.9047 0.3767 -0.8462 0.9916
-1.9089 0.2060 -0.8368 0.9917
-1.9162 -0.1306 -0.8371 0.9917
-1.9045 -0.2992 -0.8402 0.9916
-4.4129 -1.5182 -2.0338 0.9798
-3.6216 -2.9433 -2.0338 0.9798
-3.3495 -3.2494 -2.0338 0.9798
-2.3883 -4.0093 -2.0338 0.9798
-2.0277 -4.2032 -2.0338 0.9798
-3.9399 1.9452 -2.0339 0.9808
-4.0953 1.5923 -2.0339 0.9808
-1.6016 0.3168 -0.7557 0.9928
-1.5990 -0.1090 -0.7419 0.9930
-1.5761 -0.3917 -0.7518 0.9929
-3.4097 -2.7712 -2.0338 0.9808
-2.2487 -3.7748 -2.0338 0.9808
-1.9091 -3.9575 -2.0338 0.9808
-1.2552 0.4880 -0.6606 0.9940
-1.3346 0.2640 -0.6674 0.9940
-1.3176 -0.3275 -0.6660 0.9940
-3.4345 -2.3229 -2.0338 0.9817
-3.2176 -2.6150 -2.0338 0.9817
-2.9760 -2.8871 -2.0338 0.9817
-2.7115 -3.1368 -2.0338 0.9817
-3.5154 1.7356 -2.0339 0.9825
-1.1246 0.4372 -0.6260 0.9946
-1.1811 0.2336 -0.6246 0.9946
-1.1999 0.1295 -0.6261 0.9946
-1.1925 -0.1874 -0.6262 0.9946
-1.1364 -0.3910 -0.6235 0.9946
-3.4274 -1.9033 -2.0338 0.9825
-3.2474 -2.1964 -2.0338 0.9825
-3.0423 -2.4726 -2.0338 0.9825
-2.5638 -2.9660 -2.0338 0.9825
-2.2939 -3.1793 -2.0338 0.9825
-2.0064 -3.3682 -2.0338 0.9825
-1.0606 0.2098 -0.5922 0.9951
-1.0784 0.1163 -0.5941 0.9951
-1.0812 -0.0737 -0.5935 0.9951
-1.0705 -0.1682 -0.5935 0.9951
-1.0274 -0.3535 -0.5951 0.9951
-0.9987 -0.4450 -0.5989 0.9950
-3.2464 -1.8028 -2.0339 0.9832
-2.8817 -2.3421 -2.0338 0.9832
-2.1728 -3.0114 -2.0338 0.9832
-0.9143 0.4514 -0.5887 0.9953
-0.9406 0.3657 -0.5827 0.9953
-0.9573 0.2784 -0.5756 0.9954
-0.9754 0.1929 -0.5740 0.9954
-0.9897 0.0195 -0.5715 0.9954
-0.9896 -0.0675 -0.5727 0.9954
-0.9820 -0.1543 -0.5739 0.9954
-0.9639 -0.2396 -0.5735 0.9954
-0.9495 -0.3267 -0.5797 0.9954
-0.9270 -0.4130 -0.5859 0.9953
-0.8971 -0.4982 -0.5924 0.9953
-2.9180 -1.9736 -2.0339 0.9839
-2.3037 -2.6651 -2.0339 0.9839
-2.0612 -2.8568 -2.0339 0.9839
-1.8029 -3.0265 -2.0339 0.9839
