ply
format ascii 1.0
element vertex 172
property float32 x
property float32 y
property float32 z
property float32 I
end_header
-11.6930 -7.9752 -1.0378 0.9448
-11.4704 -7.8234 -1.6493 0.9456
-9.8598 -13.9961 -2.0337 0.9334
-8.5675 -14.8225 -2.0337 0.9334
-7.2064 -15.5298 -2.0337 0.9334
-4.3221 -16.5660 -2.0337 0.9334
-2.8220 -16.8865 -2.0337 0.9334
-1.2993 -17.0714 -2.0337 0.9334
2.9536 -5.9347 -0.7874 0.9737
-11.0863 -9.1165 -2.0337 0.9437
-6.0416 -13.0198 -2.0337 0.9437
-4.8520 -13.5083 -2.0337 0.9437
2.7519 -14.0875 -2.0338 0.9437
1.7686 -6.0922 -0.8988 0.9747
2.8978 -5.8227 -0.9215 0.9741
-10.1988 -6.9561 -2.0337 0.9512
-9.5352 -7.8411 -2.0337 0.9512
-7.9845 -9.4155 -2.0337 0.9512
-6.1779 -10.6882 -2.0337 0.9512
-0.9368 -12.3097 -2.0338 0.9512
1.2729 -12.2796 -2.0338 0.9512
2.9041 -5.8352 -1.0738 0.9739
-8.9389 -6.0968 -2.0338 0.9569
-7.7086 -7.5928 -2.0337 0.9569
-6.9981 -8.2523 -2.0337 0.9569
-5.4146 -9.3678 -2.0337 0.9569
-4.5545 -9.8149 -2.0338 0.9569
-2.7316 -10.4697 -2.0338 0.9569
0.1479 -10.8193 -2.0338 0.9569
2.0745 -10.6196 -2.0338 0.9569
-7.9486 -5.4214 -2.0338 0.9614
-7.4314 -6.1111 -2.0338 0.9614
-6.2228 -7.3381 -2.0338 0.9614
-5.5410 -7.8656 -2.0338 0.9614
-4.8148 -8.3300 -2.0338 0.9614
-3.2525 -9.0550 -2.0338 0.9614
-2.4289 -9.3098 -2.0338 0.9614
-1.5859 -9.4898 -2.0338 0.9614
0.9920 -9.5703 -2.0338 0.9614
2.2847 -5.8529 -1.3281 0.9746
-7.1490 -4.8760 -2.0338 0.9651
-4.9836 -7.0744 -2.0338 0.9651
-3.6425 -7.8496 -2.0338 0.9651
-2.9253 -8.1441 -2.0338 0.9651
-2.1846 -8.3733 -2.0338 0.9651
-0.6567 -8.6287 -2.0338 0.9651
0.1182 -8.6529 -2.0338 0.9651
0.8923 -8.6075 -2.0338 0.9651
1.2303 -6.2982 -1.5082 0.9740
1.6950 -5.8387 -1.4289 0.9753
2.2529 -5.7715 -1.4561 0.9749
2.7910 -5.6080 -1.4722 0.9746
-6.4893 -4.4261 -2.0338 0.9681
-3.9309 -6.8007 -2.0338 0.9681
-3.3064 -7.1252 -2.0338 0.9681
-2.6553 -7.3926 -2.0338 0.9681
-1.2948 -7.7476 -2.0338 0.9681
0.1073 -7.8543 -2.0338 0.9681
0.8099 -7.8132 -2.0338 0.9681
1.5060 -7.7094 -2.0338 0.9681
1.7042 -5.8705 -1.5827 0.9751
2.2116 -5.6658 -1.5748 0.9752
-5.9352 -4.0481 -2.0338 0.9706
-4.1374 -5.8732 -2.0338 0.9706
-3.5952 -6.2199 -2.0338 0.9706
-1.8137 -6.9516 -2.0338 0.9706
-1.1842 -7.0860 -2.0338 0.9706
-0.5452 -7.1636 -2.0338 0.9706
0.0982 -7.1837 -2.0338 0.9706
3.2010 -6.4319 -2.0339 0.9706
-5.4627 -3.7259 -2.0338 0.9727
-4.7109 -4.6401 -2.0338 0.9727
-4.2766 -5.0431 -2.0338 0.9727
-3.3090 -5.7248 -2.0338 0.9727
0.0903 -6.6118 -2.0338 0.9727
0.6818 -6.5772 -2.0338 0.9727
1.7328 -5.9689 -1.9117 0.9743
2.4045 -6.1598 -2.0339 0.9727
2.9462 -5.9199 -2.0339 0.9727
-5.0547 -3.4476 -2.0338 0.9745
-3.9573 -4.6665 -2.0338 0.9745
-3.5237 -5.0019 -2.0338 0.9745
-2.5755 -5.5501 -2.0338 0.9745
-1.5446 -5.9203 -2.0338 0.9745
-0.4643 -6.1009 -2.0338 0.9745
0.0836 -6.1180 -2.0338 0.9745
1.7058 -5.8760 -2.0338 0.9745
2.2249 -5.6998 -2.0339 0.9745
-4.6985 -3.2046 -2.0338 0.9761
-4.3928 -3.6123 -2.0338 0.9761
-4.0518 -3.9910 -2.0338 0.9761
-3.6784 -4.3376 -2.0338 0.9761
-2.8461 -4.9240 -2.0338 0.9761
-2.3939 -5.1589 -2.0338 0.9761
-1.4358 -5.5031 -2.0338 0.9761
-0.9375 -5.6096 -2.0338 0.9761
-0.4316 -5.6710 -2.0338 0.9761
0.0777 -5.6869 -2.0338 0.9761
0.5864 -5.6571 -2.0338 0.9761
-4.3845 -2.9905 -2.0338 0.9775
-3.4326 -4.0477 -2.0338 0.9775
-3.0565 -4.3387 -2.0338 0.9775
-2.6559 -4.5949 -2.0338 0.9775
-2.2340 -4.8142 -2.0338 0.9775
-1.7941 -4.9948 -2.0338 0.9775
-0.4027 -5.2920 -2.0338 0.9775
0.5472 -5.2790 -2.0338 0.9775
1.0175 -5.2088 -2.0339 0.9775
1.9299 -4.9440 -2.0339 0.9775
-4.1053 -2.8001 -2.0338 0.9788
-3.8383 -3.1563 -2.0338 0.9788
-2.8619 -4.0625 -2.0338 0.9788
-2.4868 -4.3024 -2.0338 0.9788
-1.2545 -4.8084 -2.0338 0.9788
0.0679 -4.9689 -2.0338 0.9788
0.5123 -4.9429 -2.0338 0.9788
1.8070 -4.6292 -2.0339 0.9788
2.2141 -4.4489 -2.0339 0.9788
-3.8554 -2.6296 -2.0338 0.9798
-3.6045 -2.9641 -2.0338 0.9798
-3.0183 -3.5593 -2.0338 0.9798
-2.3354 -4.0404 -2.0338 0.9798
-1.5776 -4.3920 -2.0338 0.9798
0.0637 -4.6663 -2.0338 0.9798
0.8947 -4.5802 -2.0339 0.9798
1.3011 -4.4818 -2.0339 0.9798
1.6970 -4.3473 -2.0339 0.9798
-3.6299 -2.4758 -2.0338 0.9808
-3.1303 -3.0833 -2.0338 0.9808
-2.1988 -3.8041 -2.0338 0.9808
-0.7242 -4.3337 -2.0338 0.9808
1.2250 -4.2197 -2.0339 0.9808
-3.4254 -2.3363 -2.0338 0.9817
-2.9539 -2.9096 -2.0338 0.9817
-2.3879 -3.3896 -2.0338 0.9817
-1.7452 -3.7611 -2.0338 0.9817
-1.4016 -3.9022 -2.0338 0.9817
-1.0468 -4.0120 -2.0338 0.9817
-0.6834 -4.0896 -2.0338 0.9817
-0.3147 -4.1343 -2.0339 0.9817
0.4275 -4.1242 -2.0339 0.9817
0.7949 -4.0694 -2.0339 0.9817
1.1560 -3.9819 -2.0339 0.9817
1.8474 -3.7121 -2.0339 0.9817
-3.0281 -2.4901 -2.0338 0.9825
-2.2578 -3.2050 -2.0338 0.9825
-1.6502 -3.5562 -2.0338 0.9825
-1.3253 -3.6897 -2.0338 0.9825
-0.9898 -3.7935 -2.0338 0.9825
-0.6463 -3.8669 -2.0339 0.9825
0.0536 -3.9201 -2.0339 0.9825
0.4042 -3.8996 -2.0339 0.9825
1.0930 -3.7651 -2.0339 0.9825
-3.0678 -2.0924 -2.0339 0.9832
-2.8682 -2.3586 -2.0338 0.9832
-2.1386 -3.0358 -2.0338 0.9832
-1.8583 -3.2150 -2.0338 0.9832
-1.5631 -3.3685 -2.0338 0.9832
-0.9375 -3.5931 -2.0339 0.9832
0.7120 -3.6446 -2.0339 0.9832
1.3503 -3.4593 -2.0339 0.9832
1.6545 -3.3245 -2.0339 0.9832
-2.7209 -2.2375 -2.0339 0.9839
-2.2784 -2.6868 -2.0339 0.9839
-1.7629 -3.0499 -2.0339 0.9839
-1.1909 -3.3154 -2.0339 0.9839
-0.8893 -3.4087 -2.0339 0.9839
-0.2673 -3.5126 -2.0339 0.9839
0.3632 -3.5040 -2.0339 0.9839
0.6754 -3.4574 -2.0339 0.9839
0.9821 -3.3831 -2.0339 0.9839
1.5696 -3.1538 -2.0339 0.9839
