ply
format ascii 1.0
element vertex 179
property float32 x
property float32 y
property float32 z
property float32 I
end_header
2.8270 -6.1300 -0.6481 0.9732
-7.8948 -15.1914 -2.0337 0.9334
-6.4795 -15.8469 -2.0337 0.9334
-1.9598 -17.0081 -2.0337 0.9334
2.2924 -6.4606 -0.8143 0.9728
11.1026 -13.0344 -2.0338 0.9334
15.0207 -8.2197 -2.0339 0.9334
-6.6188 -12.7360 -2.0337 0.9437
-4.2005 -13.7250 -2.0337 0.9437
-2.9339 -14.0503 -2.0337 0.9437
-1.6430 -14.2591 -2.0337 0.9437
-0.3384 -14.3495 -2.0337 0.9437
0.9690 -14.3209 -2.0337 0.9437
2.2683 -14.1733 -2.0338 0.9437
1.6774 -6.5736 -0.9612 0.9730
8.2747 -11.7292 -2.0338 0.9437
10.2639 -10.0351 -2.0339 0.9437
11.9132 -8.0084 -2.0339 0.9437
12.5927 -6.8910 -2.0339 0.9437
-5.6928 -10.9542 -2.0337 0.9512
-4.6722 -11.4269 -2.0337 0.9512
-2.5234 -12.0846 -2.0337 0.9512
-0.2911 -12.3419 -2.0338 0.9512
2.1264 -5.9929 -1.0476 0.9746
2.6655 -5.7797 -1.0485 0.9745
7.1170 -10.0882 -2.0338 0.9512
8.0056 -9.3986 -2.0339 0.9512
8.8278 -8.6310 -2.0339 0.9512
10.2463 -6.8879 -2.0339 0.9512
-4.0950 -10.0153 -2.0338 0.9569
-3.1665 -10.3464 -2.0338 0.9569
-1.2386 -10.7491 -2.0338 0.9569
1.7100 -10.6844 -2.0338 0.9569
1.5948 -6.2499 -1.2124 0.9741
2.1120 -5.9523 -1.1871 0.9746
2.6624 -5.7732 -1.1950 0.9745
7.0166 -8.2374 -2.0339 0.9569
7.7372 -7.5647 -2.0339 0.9569
8.9804 -6.0370 -2.0339 0.9569
-4.4368 -8.5373 -2.0338 0.9614
-1.9668 -9.4183 -2.0338 0.9614
-0.2269 -9.6188 -2.0338 0.9614
1.5205 -9.5007 -2.0338 0.9614
1.5884 -6.2249 -1.3580 0.9741
2.0927 -5.8976 -1.3228 0.9747
6.8800 -6.7266 -2.0339 0.9614
8.4409 -4.6191 -2.0339 0.9614
-3.2750 -8.0098 -2.0338 0.9651
-2.5325 -8.2747 -2.0338 0.9651
1.3676 -8.5450 -2.0338 0.9651
2.0246 -5.7058 -1.4229 0.9754
3.3409 -5.7912 -1.5713 0.9729
5.6116 -6.5880 -2.0339 0.9651
6.1879 -6.0499 -2.0339 0.9651
6.7129 -5.4617 -2.0339 0.9651
7.1821 -4.8281 -2.0339 0.9651
-3.6222 -6.9699 -2.0338 0.9681
-2.9728 -7.2707 -2.0338 0.9681
-1.6056 -7.6892 -2.0338 0.9681
-0.8991 -7.8034 -2.0338 0.9681
0.5303 -7.8372 -2.0338 0.9681
2.0505 -5.7786 -1.5876 0.9750
2.6597 -5.7672 -1.6444 0.9741
3.3885 -5.8737 -1.7557 0.9724
5.0937 -5.9800 -2.0339 0.9681
6.0934 -4.9576 -2.0339 0.9681
6.5193 -4.3825 -2.0339 0.9681
-2.1025 -6.8697 -2.0338 0.9706
-0.8223 -7.1370 -2.0338 0.9706
0.4849 -7.1679 -2.0338 0.9706
1.1354 -7.0941 -2.0338 0.9706
2.1176 -5.9678 -1.7926 0.9740
2.7143 -5.8854 -1.8348 0.9734
3.5901 -6.2231 -2.0339 0.9706
4.1416 -5.8706 -2.0339 0.9706
-1.9352 -6.3229 -2.0338 0.9727
-1.3516 -6.4728 -2.0338 0.9727
0.4464 -6.5973 -2.0338 0.9727
1.0450 -6.5293 -2.0338 0.9727
2.7693 -6.0047 -2.0339 0.9727
4.7282 -4.6228 -2.0339 0.9727
5.1293 -4.1733 -2.0339 0.9727
5.4879 -3.6892 -2.0339 0.9727
-2.8214 -5.4291 -2.0338 0.9745
-2.3156 -5.6634 -2.0338 0.9745
-1.7906 -5.8507 -2.0338 0.9745
-1.2507 -5.9894 -2.0338 0.9745
-0.7004 -6.0783 -2.0338 0.9745
-0.1443 -6.1168 -2.0338 0.9745
0.4130 -6.1046 -2.0338 0.9745
0.9669 -6.0417 -2.0338 0.9745
3.5271 -4.9997 -2.0339 0.9745
4.3751 -4.2776 -2.0339 0.9745
4.7462 -3.8616 -2.0339 0.9745
5.0780 -3.4136 -2.0339 0.9745
-1.6644 -5.4383 -2.0338 0.9761
-0.6511 -5.6500 -2.0338 0.9761
-0.1341 -5.6858 -2.0338 0.9761
0.8988 -5.6159 -2.0338 0.9761
1.4061 -5.5108 -2.0339 0.9761
2.8420 -4.9265 -2.0339 0.9761
3.2786 -4.6474 -2.0339 0.9761
4.4117 -3.5895 -2.0339 0.9761
4.7201 -3.1731 -2.0339 0.9761
-2.4474 -4.7093 -2.0338 0.9775
-1.0848 -5.1952 -2.0338 0.9775
-0.6075 -5.2724 -2.0338 0.9775
-0.1252 -5.3058 -2.0338 0.9775
1.7748 -5.0018 -2.0339 0.9775
2.6521 -4.5972 -2.0339 0.9775
3.0595 -4.3368 -2.0339 0.9775
4.4047 -2.9610 -2.0339 0.9775
-1.8808 -4.5997 -2.0338 0.9788
-1.4543 -4.7518 -2.0338 0.9788
-1.0158 -4.8645 -2.0338 0.9788
-0.1172 -4.9680 -2.0338 0.9788
0.7853 -4.9070 -2.0339 0.9788
1.2286 -4.8152 -2.0339 0.9788
3.5534 -3.4741 -2.0339 0.9788
4.1243 -2.7725 -2.0339 0.9788
4.3595 -2.3856 -2.0339 0.9788
-1.7662 -4.3196 -2.0338 0.9798
-1.3657 -4.4624 -2.0338 0.9798
-0.5342 -4.6361 -2.0338 0.9798
-0.1100 -4.6655 -2.0338 0.9798
0.7375 -4.6081 -2.0339 0.9798
1.5606 -4.3981 -2.0339 0.9798
2.6902 -3.8134 -2.0339 0.9798
3.0262 -3.5527 -2.0339 0.9798
3.3370 -3.2626 -2.0339 0.9798
3.6201 -2.9453 -2.0339 0.9798
-2.0262 -3.8988 -2.0338 0.9808
-1.2859 -4.2015 -2.0338 0.9808
-0.8981 -4.3011 -2.0338 0.9808
-0.5030 -4.3650 -2.0338 0.9808
0.6944 -4.3387 -2.0339 0.9808
1.0864 -4.2575 -2.0339 0.9808
1.4693 -4.1409 -2.0339 0.9808
1.8402 -3.9900 -2.0339 0.9808
2.8492 -3.3449 -2.0339 0.9808
3.1418 -3.0718 -2.0339 0.9808
3.4084 -2.7731 -2.0339 0.9808
3.8546 -2.1093 -2.0339 0.9808
-1.2134 -3.9648 -2.0338 0.9817
-0.4746 -4.1191 -2.0339 0.9817
-0.0978 -4.1452 -2.0339 0.9817
0.6552 -4.0942 -2.0339 0.9817
2.0719 -3.5916 -2.0339 0.9817
2.3902 -3.3881 -2.0339 0.9817
2.6887 -3.1565 -2.0339 0.9817
2.9648 -2.8987 -2.0339 0.9817
3.4411 -2.3133 -2.0339 0.9817
-1.8079 -3.4788 -2.0338 0.9825
-1.1473 -3.7488 -2.0338 0.9825
-0.8014 -3.8377 -2.0339 0.9825
-0.0924 -3.9194 -2.0339 0.9825
0.9693 -3.7988 -2.0339 0.9825
1.3110 -3.6948 -2.0339 0.9825
1.6418 -3.5602 -2.0339 0.9825
2.2600 -3.2036 -2.0339 0.9825
3.0412 -2.4743 -2.0339 0.9825
3.2537 -2.1872 -2.0339 0.9825
3.4393 -1.8821 -2.0339 0.9825
-1.4054 -3.4372 -2.0338 0.9832
-0.4251 -3.6890 -2.0339 0.9832
-0.0876 -3.7124 -2.0339 0.9832
0.9181 -3.5982 -2.0339 0.9832
1.5552 -3.3721 -2.0339 0.9832
1.8556 -3.2166 -2.0339 0.9832
2.4080 -2.8270 -2.0339 0.9832
2.8805 -2.3437 -2.0339 0.9832
3.0819 -2.0718 -2.0339 0.9832
-1.3332 -3.2607 -2.0339 0.9839
-0.0831 -3.5218 -2.0339 0.9839
1.7603 -3.0515 -2.0339 0.9839
2.0307 -2.8786 -2.0339 0.9839
2.2843 -2.6818 -2.0339 0.9839
2.5189 -2.4628 -2.0339 0.9839
3.0904 -1.6911 -2.0339 0.9839
