ply
format ascii 1.0
element vertex 188
property float32 x
property float32 y
property float32 z
property float32 I
end_header
3.0577 18.7127 3.3433 0.9259
3.0534 18.6870 2.9007 0.9262
1.3224 18.6299 2.8612 0.9272
2.8820 17.6381 1.5129 0.9308
1.3475 18.9836 1.6111 0.9264
2.8246 17.2871 0.6907 0.9323
3.0005 18.3637 -0.1048 0.9283
-0.8626 7.7153 -0.7453 0.9693
15.0459 8.1768 -2.0341 0.9333
13.3154 10.7678 -2.0341 0.9333
12.2805 11.9346 -2.0341 0.9333
11.1438 13.0023 -2.0341 0.9333
8.6033 14.8063 -2.0341 0.9333
5.7780 16.1201 -2.0341 0.9333
4.2875 16.5788 -2.0341 0.9333
2.7614 16.9001 -2.0341 0.9333
-0.8351 7.4688 -0.8927 0.9702
-1.5243 7.4264 -0.9006 0.9699
-2.2148 7.3270 -0.9092 0.9696
-6.4252 15.8722 -2.0340 0.9333
11.1628 9.0271 -2.0341 0.9437
10.2952 10.0052 -2.0341 0.9437
9.3423 10.9004 -2.0341 0.9437
7.2125 12.4128 -2.0341 0.9437
4.8439 13.5141 -2.0341 0.9437
3.5944 13.8987 -2.0341 0.9437
1.0164 14.3198 -2.0341 0.9437
-0.8341 7.4605 -1.0637 0.9701
-5.3866 13.3064 -2.0340 0.9437
8.8546 8.6052 -2.0341 0.9512
6.2033 10.6758 -2.0341 0.9512
5.2063 11.1959 -2.0341 0.9512
4.1662 11.6231 -2.0341 0.9512
3.0915 11.9539 -2.0341 0.9512
-0.2498 12.3445 -2.0340 0.9512
-0.8299 7.4223 -1.2304 0.9702
-1.4968 7.2924 -1.2264 0.9703
-2.1888 7.2407 -1.2461 0.9698
-4.6328 11.4446 -2.0340 0.9512
8.9987 6.0109 -2.0340 0.9569
7.7606 7.5420 -2.0341 0.9569
7.0423 8.2168 -2.0341 0.9569
5.4368 9.3568 -2.0341 0.9569
4.5630 9.8126 -2.0340 0.9569
1.7451 10.6799 -2.0340 0.9569
-0.8146 7.2854 -1.3779 0.9706
-1.4801 7.2110 -1.3836 0.9705
8.4547 4.5948 -2.0340 0.9614
6.9007 6.7063 -2.0340 0.9614
3.2468 9.0583 -2.0340 0.9614
2.4092 9.3161 -2.0340 0.9614
0.6813 9.5984 -2.0340 0.9614
-0.1947 9.6205 -2.0340 0.9614
-0.8168 7.3052 -1.5538 0.9704
7.6041 4.1325 -2.0340 0.9651
7.1967 4.8072 -2.0340 0.9651
6.7295 5.4420 -2.0340 0.9651
4.3481 7.4830 -2.0340 0.9651
2.9202 8.1470 -2.0340 0.9651
2.1668 8.3788 -2.0340 0.9651
1.3956 8.5412 -2.0340 0.9651
-1.5287 7.4479 -1.7869 0.9692
-2.1887 7.2407 -1.7778 0.9694
6.9024 3.7511 -2.0340 0.9681
6.5325 4.3635 -2.0340 0.9681
5.6336 5.4750 -2.0340 0.9681
4.5484 6.4052 -2.0340 0.9681
2.6507 7.3951 -2.0340 0.9681
1.2668 7.7529 -2.0340 0.9681
0.5562 7.8360 -2.0340 0.9681
-0.1589 7.8541 -2.0340 0.9681
-2.2730 7.5196 -2.0340 0.9681
-2.9477 7.2816 -2.0340 0.9681
5.9746 3.9909 -2.0340 0.9706
5.1525 5.0074 -2.0340 0.9706
4.6756 5.4554 -2.0340 0.9706
4.1599 5.8582 -2.0340 0.9706
3.6097 6.2123 -2.0340 0.9706
2.4243 6.7635 -2.0340 0.9706
0.5087 7.1668 -2.0340 0.9706
-1.4446 7.0381 -2.0340 0.9706
-2.0789 6.8774 -2.0340 0.9706
-2.6959 6.6597 -2.0340 0.9706
5.8103 3.1577 -2.0340 0.9727
5.1420 4.1582 -2.0340 0.9727
4.3034 5.0211 -2.0340 0.9727
3.8288 5.3918 -2.0340 0.9727
3.3224 5.7178 -2.0340 0.9727
2.7884 5.9963 -2.0340 0.9727
1.6557 6.4022 -2.0340 0.9727
1.0664 6.5263 -2.0340 0.9727
-1.3296 6.4778 -2.0340 0.9727
-2.4813 6.1296 -2.0339 0.9727
5.3763 2.9218 -2.0340 0.9745
5.0882 3.3988 -2.0340 0.9745
4.7579 3.8476 -2.0340 0.9745
2.5801 5.5484 -2.0340 0.9745
0.9867 6.0389 -2.0340 0.9745
0.4332 6.1036 -2.0340 0.9745
-0.1238 6.1176 -2.0340 0.9745
-1.2303 5.9939 -2.0340 0.9745
-1.7705 5.8571 -2.0340 0.9745
-2.2960 5.6718 -2.0339 0.9745
4.9974 2.7159 -2.0340 0.9761
4.0789 3.9640 -2.0340 0.9761
3.7013 4.3187 -2.0340 0.9761
3.2931 4.6375 -2.0340 0.9761
2.8575 4.9178 -2.0340 0.9761
2.3983 5.1574 -2.0340 0.9761
0.4027 5.6734 -2.0340 0.9761
-0.1151 5.6865 -2.0340 0.9761
-0.6320 5.6524 -2.0340 0.9761
-1.1436 5.5715 -2.0340 0.9761
-1.6457 5.4443 -2.0339 0.9761
4.4135 2.9481 -2.0340 0.9775
3.8063 3.6991 -2.0340 0.9775
2.6666 4.5891 -2.0340 0.9775
1.3289 5.1385 -2.0340 0.9775
0.8559 5.2381 -2.0340 0.9775
0.3758 5.2943 -2.0340 0.9775
-0.1074 5.3065 -2.0340 0.9775
-0.5897 5.2747 -2.0340 0.9775
-1.5357 5.0805 -2.0339 0.9775
-1.9916 4.9197 -2.0339 0.9775
4.1325 2.7604 -2.0340 0.9787
3.2341 3.7734 -2.0340 0.9787
2.0955 4.5063 -2.0340 0.9787
0.3519 4.9572 -2.0340 0.9787
-0.1006 4.9686 -2.0340 0.9788
-0.5522 4.9389 -2.0340 0.9787
-0.9992 4.8681 -2.0339 0.9788
-1.4380 4.7570 -2.0339 0.9788
4.1006 2.2285 -2.0340 0.9798
3.0371 3.5436 -2.0340 0.9798
2.3447 4.0353 -2.0340 0.9798
0.7526 4.6059 -2.0340 0.9798
-0.9384 4.5716 -2.0339 0.9798
-1.3504 4.4673 -2.0339 0.9798
-1.7512 4.3259 -2.0339 0.9798
3.8608 2.0982 -2.0340 0.9808
2.8595 3.3364 -2.0340 0.9808
2.5441 3.5827 -2.0340 0.9808
2.2076 3.7993 -2.0340 0.9808
1.8528 3.9844 -2.0340 0.9808
1.4826 4.1364 -2.0340 0.9808
1.1002 4.2541 -2.0340 0.9808
0.3111 4.3830 -2.0340 0.9808
-0.0889 4.3931 -2.0339 0.9808
-1.6487 4.0730 -2.0339 0.9808
3.4480 2.3032 -2.0340 0.9817
2.9736 2.8898 -2.0340 0.9817
2.0832 3.5852 -2.0340 0.9817
1.7484 3.7598 -2.0340 0.9817
1.0382 4.0144 -2.0340 0.9817
0.2936 4.1361 -2.0339 0.9817
-0.0839 4.1456 -2.0339 0.9817
-0.4607 4.1208 -2.0339 0.9817
-0.8337 4.0618 -2.0339 0.9817
-1.5559 3.8435 -2.0339 0.9817
3.4448 1.8721 -2.0340 0.9825
3.2602 2.1777 -2.0340 0.9825
2.8116 2.7324 -2.0340 0.9825
2.5514 2.9769 -2.0340 0.9825
2.2700 3.1967 -2.0340 0.9825
1.9698 3.3899 -2.0340 0.9825
1.6532 3.5551 -2.0340 0.9825
0.6323 3.8693 -2.0339 0.9825
-0.0793 3.9198 -2.0339 0.9825
-1.1344 3.7529 -2.0339 0.9825
3.2629 1.7732 -2.0339 0.9832
2.8876 2.3351 -2.0340 0.9832
2.1501 3.0279 -2.0340 0.9832
1.8657 3.2109 -2.0340 0.9832
1.5659 3.3673 -2.0340 0.9832
0.9298 3.5953 -2.0339 0.9832
-0.0752 3.7128 -2.0339 0.9832
-1.3934 3.4422 -2.0339 0.9832
3.0954 1.6822 -2.0339 0.9839
2.5264 2.4552 -2.0339 0.9839
2.2925 2.6749 -2.0340 0.9839
2.0397 2.8723 -2.0340 0.9839
0.5681 3.4768 -2.0339 0.9839
0.2495 3.5140 -2.0339 0.9839
-0.0712 3.5222 -2.0339 0.9839
-0.3914 3.5011 -2.0339 0.9839
-0.7083 3.4509 -2.0339 0.9839
-1.0193 3.3721 -2.0339 0.9839
-1.3219 3.2654 -2.0339 0.9839
