ply
format ascii 1.0
element vertex 195
property float32 x
property float32 y
property float32 z
property float32 I
end_header
-12.3676 13.1356 3.1812 0.9293
-11.8668 12.6038 2.6520 0.9323
-10.8561 13.7727 2.2837 0.9317
-11.4695 12.1817 2.1788 0.9347
-11.5562 12.2738 1.4271 0.9346
-12.7588 13.5510 0.7339 0.9282
-17.2114 5.1154 -0.9106 0.9306
-1.1296 7.9627 -0.7721 0.9682
-1.7343 7.4508 -0.7344 0.9697
-16.6793 4.9573 -1.6705 0.9325
-0.9098 17.0997 -2.0341 0.9333
-1.7012 7.3087 -0.8914 0.9702
-5.3289 16.2732 -2.0340 0.9333
-6.7347 15.7433 -2.0340 0.9334
-8.0887 15.0923 -2.0340 0.9334
-10.5998 13.4475 -2.0340 0.9334
-14.5774 8.9816 -2.0339 0.9334
-15.3084 7.6692 -2.0339 0.9334
-0.7627 14.3354 -2.0341 0.9437
-5.6460 13.1984 -2.0340 0.9437
-6.7812 12.6526 -2.0340 0.9437
-7.8641 12.0094 -2.0340 0.9437
-9.8403 10.4513 -2.0339 0.9437
-10.7184 9.5485 -2.0339 0.9437
-11.5141 8.5721 -2.0339 0.9437
-13.3480 5.2798 -2.0338 0.9437
-13.7593 4.0894 -2.0338 0.9437
-14.0646 2.8676 -2.0338 0.9437
-14.2618 1.6237 -2.0338 0.9437
-14.3491 0.3673 -2.0338 0.9437
-14.3260 -0.8918 -2.0338 0.9437
-1.0307 7.2657 -1.2089 0.9707
-4.8560 11.3517 -2.0340 0.9512
-7.6430 9.6963 -2.0339 0.9512
-8.4635 8.9890 -2.0339 0.9512
-12.2664 1.3966 -2.0338 0.9512
-12.3415 0.3160 -2.0338 0.9512
-4.2561 9.9491 -2.0340 0.9569
-5.1117 9.5377 -2.0340 0.9569
-8.0798 7.1978 -2.0339 0.9569
-8.6796 6.4619 -2.0339 0.9569
-9.6745 4.8468 -2.0339 0.9569
-10.0621 3.9800 -2.0339 0.9569
-10.3721 3.0827 -2.0338 0.9569
-10.7510 1.2240 -2.0338 0.9569
-10.8168 0.2769 -2.0338 0.9569
-10.7994 -0.6723 -2.0338 0.9569
-0.4042 7.5967 -1.6081 0.9694
-1.0293 7.2553 -1.5490 0.9705
-5.2713 8.0499 -2.0339 0.9614
-5.9565 7.5568 -2.0339 0.9614
-6.5960 7.0056 -2.0339 0.9614
-7.1846 6.4004 -2.0339 0.9614
-7.7179 5.7460 -2.0339 0.9614
-8.1918 5.0473 -2.0339 0.9614
-8.6027 4.3097 -2.0339 0.9614
-9.2230 2.7412 -2.0339 0.9614
-9.6185 0.2462 -2.0338 0.9614
-9.6030 -0.5978 -2.0338 0.9614
-0.4598 8.6422 -2.0340 0.9651
-1.6915 7.2670 -1.7536 0.9698
-4.0881 7.6278 -2.0340 0.9651
-5.3573 6.7966 -2.0339 0.9651
-6.4618 5.7565 -2.0339 0.9651
-6.9416 5.1679 -2.0339 0.9651
-8.2952 2.4654 -2.0339 0.9651
-8.6509 0.2214 -2.0338 0.9651
-3.0896 7.2225 -2.0340 0.9681
-6.3009 4.6910 -2.0339 0.9681
-7.0232 3.5185 -2.0339 0.9681
-7.3046 2.8893 -2.0339 0.9681
-7.6969 1.5693 -2.0339 0.9681
-7.8526 0.2010 -2.0338 0.9681
-7.8399 -0.4881 -2.0338 0.9681
-1.0092 7.1136 -2.0340 0.9706
-1.6288 6.9977 -2.0340 0.9706
-2.8258 6.6057 -2.0340 0.9706
-4.9251 5.2309 -2.0339 0.9706
-5.3646 4.7790 -2.0339 0.9706
-5.7629 4.2904 -2.0339 0.9706
-6.4235 3.2180 -2.0339 0.9706
-6.6808 2.6426 -2.0339 0.9706
-0.3513 6.6035 -2.0340 0.9727
-2.0579 6.2844 -2.0340 0.9727
-2.6008 6.0798 -2.0339 0.9727
-3.1237 5.8284 -2.0339 0.9727
-3.6226 5.5322 -2.0339 0.9727
-4.0936 5.1933 -2.0339 0.9727
-4.5330 4.8145 -2.0339 0.9727
-4.9375 4.3986 -2.0339 0.9727
-5.6298 3.4687 -2.0339 0.9727
-6.4792 1.3210 -2.0339 0.9727
-6.5700 0.7480 -2.0339 0.9727
-0.3251 6.1103 -2.0340 0.9745
-1.9042 5.8150 -2.0339 0.9745
-2.8904 5.3931 -2.0339 0.9745
-3.3520 5.1190 -2.0339 0.9745
-3.7878 4.8054 -2.0339 0.9745
-4.9079 3.6539 -2.0339 0.9745
-5.2093 3.2096 -2.0339 0.9745
-5.6897 2.2506 -2.0339 0.9745
-5.9953 1.2223 -2.0339 0.9745
-6.0793 0.6921 -2.0339 0.9745
-0.3022 5.6796 -2.0340 0.9761
-1.2894 5.5396 -2.0340 0.9761
-2.6868 5.0130 -2.0339 0.9761
-3.1158 4.7582 -2.0339 0.9761
-3.5209 4.4668 -2.0339 0.9761
-4.2468 3.7832 -2.0339 0.9761
-4.5621 3.3964 -2.0339 0.9761
-4.8422 2.9834 -2.0339 0.9761
-5.0850 2.5475 -2.0339 0.9761
-5.2887 2.0920 -2.0339 0.9761
-5.4518 1.6203 -2.0339 0.9761
-5.6509 0.6434 -2.0339 0.9761
-0.2820 5.3001 -2.0340 0.9775
-2.5072 4.6780 -2.0339 0.9775
-2.9075 4.4402 -2.0339 0.9775
-4.2572 3.1694 -2.0339 0.9775
-5.2004 1.0603 -2.0339 0.9775
-5.3056 0.1358 -2.0339 0.9775
-5.2970 -0.3298 -2.0339 0.9775
-1.1266 4.8402 -2.0339 0.9788
-2.3475 4.3801 -2.0339 0.9788
-2.7224 4.1575 -2.0339 0.9788
-3.0764 3.9029 -2.0339 0.9788
-3.9861 2.9676 -2.0339 0.9788
-4.2309 2.6068 -2.0339 0.9788
-4.4431 2.2259 -2.0339 0.9788
-4.6211 1.8279 -2.0339 0.9788
-4.7635 1.4158 -2.0339 0.9788
-2.1217 0.4326 -0.8862 0.9907
-2.1107 0.2403 -0.8694 0.9909
-0.2480 4.6604 -2.0340 0.9798
-1.0580 4.5454 -2.0339 0.9798
-1.4523 4.4352 -2.0339 0.9798
-2.2046 4.1134 -2.0339 0.9798
-2.5567 3.9043 -2.0339 0.9798
-2.8890 3.6652 -2.0339 0.9798
-3.1992 3.3978 -2.0339 0.9798
-3.4846 3.1043 -2.0339 0.9798
-3.9732 2.4480 -2.0339 0.9798
-4.3397 1.7166 -2.0339 0.9798
-1.9043 0.3882 -0.8470 0.9916
-1.9169 -0.1194 -0.8370 0.9917
-1.3674 4.1758 -2.0339 0.9808
-1.7282 4.0399 -2.0339 0.9808
-2.4071 3.6760 -2.0339 0.9808
-2.7201 3.4508 -2.0339 0.9808
-3.5245 2.6239 -2.0339 0.9808
-3.9285 1.9681 -2.0339 0.9808
-1.5991 0.3260 -0.7555 0.9928
-1.6090 0.1831 -0.7496 0.9929
-1.5806 0.0404 -0.7319 0.9931
-1.5971 -0.0995 -0.7407 0.9930
-0.2203 4.1406 -2.0339 0.9817
-1.2904 3.9405 -2.0339 0.9817
-1.9587 3.6546 -2.0339 0.9817
-2.5668 3.2564 -2.0339 0.9817
-3.0961 2.7581 -2.0339 0.9817
-3.3259 2.4761 -2.0339 0.9817
-1.3329 0.2717 -0.6673 0.9940
-1.3529 0.1540 -0.6679 0.9940
-1.3436 0.0344 -0.6593 0.9940
-1.3511 -0.0841 -0.6641 0.9940
-0.8888 3.8185 -2.0339 0.9825
-1.2201 3.7259 -2.0339 0.9825
-1.8520 3.4555 -2.0339 0.9825
-2.1478 3.2799 -2.0339 0.9825
-2.9274 2.6079 -2.0339 0.9825
-3.5052 1.7561 -2.0339 0.9825
-1.1225 0.4440 -0.6262 0.9946
-1.1501 0.3418 -0.6224 0.9946
-1.1996 0.1365 -0.6264 0.9946
-1.1997 -0.0747 -0.6236 0.9946
-0.5216 3.6768 -2.0339 0.9832
-2.2988 2.9164 -2.0339 0.9832
-2.7728 2.4701 -2.0339 0.9832
-2.9786 2.2176 -2.0339 0.9832
-1.0144 0.4012 -0.5975 0.9950
-1.0361 0.3079 -0.5920 0.9951
-1.0589 0.2159 -0.5919 0.9951
-1.0777 0.1227 -0.5941 0.9951
-1.0813 -0.0673 -0.5934 0.9951
-0.1871 3.5179 -2.0339 0.9839
-0.4948 3.4879 -2.0339 0.9839
-1.6641 3.1050 -2.0339 0.9839
-2.1808 2.7667 -2.0339 0.9839
-2.6304 2.3433 -2.0339 0.9839
-2.8257 2.1037 -2.0339 0.9839
-0.9124 0.4571 -0.5892 0.9953
-0.9391 0.3714 -0.5831 0.9953
-0.9566 0.2843 -0.5761 0.9954
-0.9869 0.1123 -0.5735 0.9954
-0.9898 -0.0617 -0.5726 0.9954
