ply
format ascii 1.0
element vertex 205
property float32 x
property float32 y
property float32 z
property float32 I
end_header
2.6442 -6.1341 -0.6413 0.9735
-11.8815 -12.3263 -2.0337 0.9334
-10.7214 -13.3476 -2.0337 0.9334
-9.4739 -14.2602 -2.0337 0.9334
-8.1492 -15.0565 -2.0337 0.9334
-6.7582 -15.7301 -2.0337 0.9334
-5.3120 -16.2756 -2.0337 0.9334
-0.7624 -17.1038 -2.0337 0.9334
0.7832 -17.1029 -2.0337 0.9334
2.3226 -16.9627 -2.0337 0.9334
2.1373 -6.5217 -0.8152 0.9727
2.6076 -6.0491 -0.7825 0.9738
8.1682 -15.0476 -2.0338 0.9334
9.4921 -14.2497 -2.0338 0.9334
10.7387 -13.3357 -2.0338 0.9334
12.9599 -11.1899 -2.0339 0.9334
-9.9611 -10.3340 -2.0337 0.9437
-8.9885 -11.1903 -2.0337 0.9437
-7.9426 -11.9553 -2.0337 0.9437
-5.6658 -13.1877 -2.0337 0.9437
-1.9298 -14.2231 -2.0337 0.9437
0.6567 -14.3386 -2.0337 0.9437
1.9472 -14.2209 -2.0338 0.9437
1.5089 -6.5512 -0.9525 0.9732
2.0195 -6.1621 -0.9188 0.9741
3.2414 -5.9714 -0.9627 0.9729
7.9579 -11.9464 -2.0338 0.9437
9.0029 -11.1802 -2.0339 0.9437
10.8650 -9.3812 -2.0339 0.9437
-7.7310 -9.6247 -2.0337 0.9512
-5.8763 -10.8569 -2.0337 0.9512
-4.8731 -11.3427 -2.0337 0.9512
-0.5497 -12.3331 -2.0338 0.9512
0.5648 -12.3325 -2.0338 0.9512
2.5429 -5.8989 -1.0582 0.9743
3.3575 -6.1853 -1.1594 0.9719
7.7432 -9.6159 -2.0339 0.9512
9.3448 -8.0685 -2.0339 0.9512
-6.7759 -8.4357 -2.0337 0.9569
-5.9875 -9.0124 -2.0337 0.9569
-4.2711 -9.9414 -2.0338 0.9569
-2.4158 -10.5470 -2.0338 0.9569
1.9486 -5.9457 -1.1760 0.9749
2.4808 -5.7549 -1.1779 0.9748
3.1750 -5.8490 -1.2509 0.9733
5.9988 -9.0056 -2.0339 0.9569
7.5191 -7.7815 -2.0339 0.9569
8.1903 -7.0717 -2.0339 0.9569
-6.6773 -6.9272 -2.0338 0.9614
-6.0252 -7.5012 -2.0338 0.9614
-3.7980 -8.8401 -2.0338 0.9614
-2.1481 -9.3786 -2.0338 0.9614
-1.2936 -9.5341 -2.0338 0.9614
1.3052 -9.5326 -2.0338 0.9614
1.4517 -6.3027 -1.3671 0.9739
3.1214 -5.7502 -1.3830 0.9736
7.2829 -6.2883 -2.0339 0.9614
-4.7886 -7.2078 -2.0338 0.9651
-4.1191 -7.6104 -2.0338 0.9651
-3.4159 -7.9508 -2.0338 0.9651
-2.6849 -8.2265 -2.0338 0.9651
-1.9321 -8.4352 -2.0338 0.9651
-1.1634 -8.5750 -2.0338 0.9651
1.1739 -8.5737 -2.0338 0.9651
1.8998 -5.7970 -1.4337 0.9752
2.5004 -5.8004 -1.4845 0.9744
3.0073 -5.5402 -1.4815 0.9744
4.7976 -7.2023 -2.0339 0.9651
5.4276 -6.7403 -2.0339 0.9651
6.0134 -6.2233 -2.0339 0.9651
6.5502 -5.6557 -2.0339 0.9651
-5.4513 -5.6554 -2.0338 0.9681
-4.9191 -6.1240 -2.0338 0.9681
-3.1007 -7.2171 -2.0338 0.9681
-2.4371 -7.4673 -2.0338 0.9681
-1.7537 -7.6568 -2.0338 0.9681
-1.0561 -7.7837 -2.0338 0.9681
0.3594 -7.8469 -2.0338 0.9681
1.3935 -6.0500 -1.6075 0.9747
1.9105 -5.8299 -1.5884 0.9750
2.5378 -5.8871 -1.6599 0.9739
4.3548 -6.5376 -2.0339 0.9681
-4.9858 -5.1725 -2.0338 0.9706
-4.4990 -5.6011 -2.0338 0.9706
-3.9755 -5.9840 -2.0338 0.9706
-2.8359 -6.6008 -2.0338 0.9706
-1.6040 -7.0029 -2.0338 0.9706
-0.9659 -7.1190 -2.0338 0.9706
0.3287 -7.1768 -2.0338 0.9706
2.8440 -6.5975 -2.0339 0.9706
3.4196 -6.2996 -2.0292 0.9706
4.5060 -5.5958 -2.0339 0.9706
5.4380 -4.6953 -2.0339 0.9706
-4.1409 -5.1552 -2.0338 0.9727
-2.6102 -6.0754 -2.0338 0.9727
0.3025 -6.6055 -2.0338 0.9727
0.8970 -6.5513 -2.0338 0.9727
2.6177 -6.0723 -2.0339 0.9727
-4.2462 -4.4052 -2.0338 0.9745
-3.3858 -5.0963 -2.0338 0.9745
-2.9123 -5.3809 -2.0338 0.9745
-0.8227 -6.0630 -2.0338 0.9745
-0.2724 -6.1125 -2.0338 0.9745
1.3733 -5.9625 -2.0338 0.9745
1.9055 -5.8143 -2.0339 0.9745
2.4221 -5.6188 -2.0339 0.9745
2.9190 -5.3774 -2.0339 0.9745
3.3921 -5.0923 -2.0339 0.9745
4.2517 -4.4001 -2.0339 0.9745
4.6312 -3.9988 -2.0339 0.9745
-3.9470 -4.0947 -2.0338 0.9761
-3.5616 -4.4340 -2.0338 0.9761
-3.1472 -4.7371 -2.0338 0.9761
-1.7646 -5.4067 -2.0338 0.9761
-1.2698 -5.5438 -2.0338 0.9761
-0.7646 -5.6357 -2.0338 0.9761
0.2602 -5.6814 -2.0338 0.9761
2.7133 -4.9985 -2.0339 0.9761
3.9521 -4.0901 -2.0339 0.9761
4.3049 -3.7170 -2.0339 0.9761
-3.6832 -3.8211 -2.0338 0.9775
-1.6467 -5.0453 -2.0338 0.9775
-1.1849 -5.1733 -2.0338 0.9775
-0.7135 -5.2591 -2.0338 0.9775
-0.2363 -5.3020 -2.0338 0.9775
1.6529 -5.0434 -2.0339 0.9775
2.1010 -4.8738 -2.0339 0.9775
2.9423 -4.4171 -2.0339 0.9775
3.3287 -4.1338 -2.0339 0.9775
4.0171 -3.4686 -2.0339 0.9775
-3.4488 -3.5779 -2.0338 0.9788
-3.1120 -3.8743 -2.0338 0.9788
-1.9616 -4.5658 -2.0338 0.9788
-0.2213 -4.9645 -2.0338 0.9788
0.6741 -4.9235 -2.0339 0.9788
1.1154 -4.8426 -2.0339 0.9788
1.9672 -4.5635 -2.0339 0.9788
2.7550 -4.1359 -2.0339 0.9788
3.1168 -3.8706 -2.0339 0.9788
-1.8422 -4.2878 -2.0338 0.9798
-1.4480 -4.4364 -2.0338 0.9798
-0.2078 -4.6621 -2.0338 0.9798
0.2135 -4.6619 -2.0339 0.9798
0.6330 -4.6236 -2.0339 0.9798
1.0475 -4.5477 -2.0339 0.9798
2.5872 -3.8840 -2.0339 0.9798
2.9270 -3.6349 -2.0339 0.9798
3.2429 -3.3561 -2.0339 0.9798
3.5323 -3.0500 -2.0339 0.9798
-3.0493 -3.1635 -2.0338 0.9808
-2.7516 -3.4256 -2.0338 0.9808
-2.4314 -3.6598 -2.0338 0.9808
-2.0914 -3.8642 -2.0338 0.9808
-1.7344 -4.0371 -2.0338 0.9808
-0.5907 -4.3540 -2.0338 0.9808
2.0962 -3.8617 -2.0339 0.9808
2.7558 -3.4223 -2.0339 0.9808
3.3259 -2.8716 -2.0339 0.9808
-2.8775 -2.9852 -2.0338 0.9817
-1.9736 -3.6464 -2.0338 0.9817
-1.2865 -3.9417 -2.0338 0.9817
-0.5575 -4.1087 -2.0338 0.9817
0.1896 -4.1420 -2.0339 0.9817
1.2912 -3.9401 -2.0339 0.9817
1.9781 -3.6441 -2.0339 0.9817
2.2987 -3.4508 -2.0339 0.9817
2.6005 -3.2295 -2.0339 0.9817
3.1384 -2.7098 -2.0339 0.9817
-2.7207 -2.8226 -2.0338 0.9825
-2.4552 -3.0565 -2.0338 0.9825
-2.1695 -3.2655 -2.0338 0.9825
-1.8661 -3.4479 -2.0338 0.9825
-1.5476 -3.6021 -2.0338 0.9825
-1.2164 -3.7270 -2.0338 0.9825
-0.8753 -3.8215 -2.0339 0.9825
-0.1746 -3.9166 -2.0339 0.9825
0.8800 -3.8205 -2.0339 0.9825
1.2209 -3.7255 -2.0339 0.9825
1.5520 -3.6003 -2.0339 0.9825
1.8704 -3.4456 -2.0339 0.9825
2.4589 -3.0536 -2.0339 0.9825
2.7243 -2.8194 -2.0339 0.9825
-2.3254 -2.8951 -2.0338 0.9832
-2.0549 -3.0930 -2.0338 0.9832
-1.4659 -3.4119 -2.0338 0.9832
-1.1522 -3.5302 -2.0339 0.9832
-0.8291 -3.6197 -2.0339 0.9832
-0.4993 -3.6797 -2.0339 0.9832
1.1564 -3.5288 -2.0339 0.9832
1.4700 -3.4101 -2.0339 0.9832
1.7716 -3.2636 -2.0339 0.9832
2.0587 -3.0906 -2.0339 0.9832
2.3291 -2.8923 -2.0339 0.9832
2.8108 -2.4269 -2.0339 0.9832
-2.4448 -2.5363 -2.0339 0.9839
-2.2060 -2.7464 -2.0339 0.9839
-1.6768 -3.0981 -2.0339 0.9839
-1.0930 -3.3489 -2.0339 0.9839
-0.4736 -3.4908 -2.0339 0.9839
0.1612 -3.5191 -2.0339 0.9839
0.7907 -3.4329 -2.0339 0.9839
1.0971 -3.3476 -2.0339 0.9839
1.6806 -3.0961 -2.0339 0.9839
2.4479 -2.5334 -2.0339 0.9839
2.6664 -2.3023 -2.0339 0.9839
