ply
format ascii 1.0
element vertex 192
property float32 x
property float32 y
property float32 z
property float32 I
end_header
16.5410 -4.1306 -0.8646 0.9340
13.9430 8.7026 -1.2051 0.9362
14.1176 -9.6889 -2.0339 0.9334
14.9246 -8.3929 -2.0339 0.9334
15.6130 -7.0303 -2.0340 0.9334
16.6130 -4.1486 -2.0340 0.9334
16.9167 -2.6524 -2.0340 0.9333
16.7784 3.4227 -2.0341 0.9333
16.4069 4.9036 -2.0341 0.9333
15.2767 7.7370 -2.0341 0.9333
14.5269 9.0670 -2.0341 0.9333
12.6877 11.5007 -2.0341 0.9333
11.6129 12.5851 -2.0341 0.9333
10.4458 13.5695 -2.0341 0.9333
9.1956 14.4460 -2.0341 0.9333
11.8356 -8.1227 -2.0339 0.9437
13.5623 -4.7046 -2.0340 0.9437
13.9275 -3.4780 -2.0340 0.9437
14.1821 -2.2236 -2.0340 0.9437
14.3518 0.3281 -2.0340 0.9437
13.7546 4.1109 -2.0341 0.9437
13.3339 5.3197 -2.0341 0.9437
12.8071 6.4862 -2.0341 0.9437
11.4531 8.6557 -2.0341 0.9437
9.7356 10.5506 -2.0341 0.9437
7.7091 12.1106 -2.0341 0.9437
10.1796 -6.9862 -2.0339 0.9512
11.2578 -5.0692 -2.0339 0.9512
11.6646 -4.0464 -2.0340 0.9512
12.1977 -1.9125 -2.0340 0.9512
12.2695 1.3805 -2.0340 0.9512
12.0979 2.4679 -2.0340 0.9512
11.8300 3.5357 -2.0340 0.9512
11.0150 5.5786 -2.0341 0.9512
9.1482 8.2924 -2.0341 0.9512
8.3732 9.0743 -2.0341 0.9512
8.9219 -6.1231 -2.0339 0.9569
9.4319 -5.3041 -2.0339 0.9569
10.6907 -1.6762 -2.0340 0.9569
10.0512 4.0100 -2.0340 0.9569
7.3387 7.9531 -2.0341 0.9569
6.6011 8.5752 -2.0341 0.9569
5.8111 9.1291 -2.0341 0.9569
8.3869 -4.7164 -2.0339 0.9614
8.7737 -3.9507 -2.0339 0.9614
9.6012 -0.6378 -2.0340 0.9614
9.6199 0.2199 -2.0340 0.9614
9.5621 1.0759 -2.0340 0.9614
9.2196 2.7555 -2.0340 0.9614
8.1631 5.0950 -2.0340 0.9614
5.1673 8.1176 -2.0340 0.9614
7.1354 -4.8969 -2.0339 0.9651
7.8911 -3.5532 -2.0339 0.9651
8.5499 -1.3405 -2.0340 0.9651
8.6354 -0.5737 -2.0340 0.9651
8.0384 3.2070 -2.0340 0.9651
7.3418 4.5824 -2.0340 0.9651
6.9045 5.2181 -2.0340 0.9651
5.2792 6.8579 -2.0340 0.9651
4.6474 7.3009 -2.0340 0.9651
6.4768 -4.4450 -2.0339 0.9681
6.8470 -3.8505 -2.0339 0.9681
7.4217 -2.5745 -2.0339 0.9681
7.6216 -1.9032 -2.0339 0.9681
7.7608 -1.2168 -2.0340 0.9681
7.8384 -0.5207 -2.0340 0.9681
7.8536 0.1795 -2.0340 0.9681
7.8064 0.8783 -2.0340 0.9681
7.5268 2.2496 -2.0340 0.9681
7.2965 2.9110 -2.0340 0.9681
7.0082 3.5494 -2.0340 0.9681
6.6642 4.1595 -2.0340 0.9681
5.8205 5.2759 -2.0340 0.9681
5.3274 5.7734 -2.0340 0.9681
4.7920 6.2250 -2.0340 0.9681
4.2185 6.6271 -2.0340 0.9681
5.9237 -4.0654 -2.0339 0.9706
6.2623 -3.5217 -2.0339 0.9706
6.5511 -2.9499 -2.0339 0.9706
6.7879 -2.3547 -2.0339 0.9706
7.1829 0.1642 -2.0340 0.9706
7.0398 1.4361 -2.0340 0.9706
6.6734 2.6624 -2.0340 0.9706
6.4097 3.2462 -2.0340 0.9706
6.0951 3.8043 -2.0340 0.9706
5.3234 4.8254 -2.0340 0.9706
5.7638 -3.2413 -2.0339 0.9727
6.0296 -2.7151 -2.0339 0.9727
6.6111 0.1511 -2.0340 0.9727
6.3360 1.8936 -2.0340 0.9727
6.1421 2.4504 -2.0340 0.9727
5.2757 3.9872 -2.0340 0.9727
4.0338 5.2401 -2.0340 0.9727
5.3333 -2.9992 -2.0339 0.9745
5.9365 -1.4825 -2.0339 0.9745
6.0450 -0.9478 -2.0339 0.9745
6.1054 -0.4056 -2.0339 0.9745
5.6834 2.2674 -2.0340 0.9745
5.4588 2.7646 -2.0340 0.9745
5.1909 3.2398 -2.0340 0.9745
4.1496 4.4970 -2.0340 0.9745
3.2859 5.1619 -2.0340 0.9745
4.9575 -2.7879 -2.0339 0.9761
5.3735 -1.8640 -2.0339 0.9761
5.5182 -1.3780 -2.0339 0.9761
5.2829 2.1076 -2.0340 0.9761
5.0741 2.5698 -2.0340 0.9761
4.5376 3.4293 -2.0340 0.9761
3.8571 4.1801 -2.0340 0.9761
3.4695 4.5070 -2.0340 0.9761
3.0543 4.7981 -2.0340 0.9761
4.6261 -2.6015 -2.0339 0.9775
5.0144 -1.7394 -2.0339 0.9775
5.1494 -1.2859 -2.0339 0.9775
5.2435 -0.8221 -2.0339 0.9775
5.2743 0.5934 -2.0340 0.9775
4.9298 1.9668 -2.0340 0.9775
4.2343 3.2001 -2.0340 0.9775
3.5993 3.9007 -2.0340 0.9775
4.0975 -2.8121 -2.0339 0.9788
4.3316 -2.4359 -2.0339 0.9788
4.9587 -0.3294 -2.0339 0.9787
4.9683 0.1135 -2.0339 0.9788
4.9385 0.5556 -2.0339 0.9788
4.4335 2.2454 -2.0340 0.9787
4.2159 2.6313 -2.0340 0.9787
3.9648 2.9964 -2.0340 0.9787
3.6821 3.3376 -2.0340 0.9787
3.0315 3.9380 -2.0340 0.9787
2.6687 4.1924 -2.0340 0.9787
4.0679 -2.2876 -2.0339 0.9798
4.2554 -1.9162 -2.0339 0.9798
4.4092 -1.5295 -2.0339 0.9798
4.5279 -1.1307 -2.0339 0.9798
4.6107 -0.7229 -2.0339 0.9798
4.6657 0.1066 -2.0339 0.9798
4.6377 0.5218 -2.0339 0.9798
4.5728 0.9328 -2.0340 0.9798
4.4716 1.3364 -2.0340 0.9798
4.1635 2.1086 -2.0340 0.9798
3.9591 2.4711 -2.0340 0.9798
3.4579 3.1344 -2.0340 0.9798
3.1650 3.4299 -2.0340 0.9798
3.8300 -2.1538 -2.0339 0.9808
4.1514 -1.4401 -2.0339 0.9808
4.3844 -0.2913 -2.0339 0.9808
4.3665 0.4913 -2.0339 0.9808
4.3054 0.8783 -2.0339 0.9808
4.2101 1.2583 -2.0340 0.9808
3.9200 1.9853 -2.0340 0.9808
3.7276 2.3266 -2.0340 0.9808
3.2557 2.9511 -2.0340 0.9808
2.9799 3.2293 -2.0340 0.9808
2.6804 3.4819 -2.0340 0.9808
2.3596 3.7068 -2.0340 0.9808
3.7808 -1.7024 -2.0339 0.9817
4.0229 -1.0046 -2.0339 0.9817
4.1373 -0.2749 -2.0339 0.9817
4.1454 0.0947 -2.0339 0.9817
4.1205 0.4636 -2.0339 0.9817
4.0629 0.8288 -2.0339 0.9817
3.8513 1.5365 -2.0340 0.9817
3.6992 1.8735 -2.0340 0.9817
3.3080 2.5001 -2.0340 0.9817
3.0722 2.7848 -2.0340 0.9817
2.8119 3.0473 -2.0340 0.9817
2.2266 3.4979 -2.0340 0.9817
3.4173 -1.9217 -2.0339 0.9825
3.5750 -1.6097 -2.0339 0.9825
3.8038 -0.9499 -2.0339 0.9825
2.0992 -0.3291 -1.1023 0.9905
2.0783 -0.1381 -1.0805 0.9907
2.0751 0.0474 -1.0768 0.9907
2.0823 0.2343 -1.0871 0.9906
2.1070 0.4298 -1.1156 0.9904
2.1054 3.3074 -2.0340 0.9825
3.2368 -1.8202 -2.0339 0.9832
1.8523 -0.1231 -1.0167 0.9916
1.8520 0.0423 -1.0146 0.9916
1.8473 0.2078 -1.0181 0.9916
1.8564 0.3787 -1.0377 0.9914
3.4492 1.3761 -2.0339 0.9832
1.9942 3.1327 -2.0340 0.9832
1.7799 -0.8015 -1.1270 0.9910
1.7263 -0.5988 -1.0549 0.9916
1.7140 -0.4280 -1.0200 0.9919
1.7230 -0.1145 -0.9970 0.9921
1.7246 0.0394 -0.9959 0.9921
1.7182 0.1933 -0.9983 0.9920
1.7462 0.6967 -1.0855 0.9914
2.8105 2.1241 -2.0339 0.9839
2.1489 2.7916 -2.0340 0.9839
