ply
format ascii 1.0
element vertex 182
property float32 x
property float32 y
property float32 z
property float32 I
end_header
2.7670 -6.1384 -0.6464 0.9733
-9.3422 -14.3468 -2.0337 0.9334
-8.0002 -15.1362 -2.0337 0.9334
-3.6244 -16.7326 -2.0337 0.9334
-0.5369 -17.1123 -2.0337 0.9334
1.0199 -17.0905 -2.0337 0.9334
4.0955 -16.6241 -2.0337 0.9334
8.4251 -14.9053 -2.0338 0.9334
9.7444 -14.0785 -2.0338 0.9334
10.9832 -13.1351 -2.0338 0.9334
12.1312 -12.0832 -2.0339 0.9334
13.1789 -10.9312 -2.0339 0.9334
-5.5266 -13.2466 -2.0337 0.9437
-4.3004 -13.6940 -2.0337 0.9437
-3.0385 -14.0281 -2.0337 0.9437
-1.7516 -14.2462 -2.0337 0.9437
1.5893 -6.4511 -0.9414 0.9735
2.1414 -6.2008 -0.9295 0.9738
7.0632 -12.4961 -2.0338 0.9437
10.1702 -10.1300 -2.0339 0.9437
11.0486 -9.1643 -2.0339 0.9437
-5.7688 -10.9144 -2.0337 0.9512
-4.7534 -11.3934 -2.0337 0.9512
-3.6988 -11.7781 -2.0337 0.9512
-2.6134 -12.0655 -2.0337 0.9512
-1.5065 -12.2530 -2.0338 0.9512
1.8520 -12.2058 -2.0338 0.9512
1.5755 -6.3951 -1.0850 0.9737
6.0750 -10.7477 -2.0338 0.9512
7.0263 -10.1514 -2.0338 0.9512
7.9196 -9.4712 -2.0339 0.9512
8.7473 -8.7126 -2.0339 0.9512
9.5027 -7.8820 -2.0339 0.9512
-4.1662 -9.9859 -2.0338 0.9569
-3.2418 -10.3230 -2.0338 0.9569
-2.2905 -10.5749 -2.0338 0.9569
-1.3204 -10.7393 -2.0338 0.9569
0.6446 -10.8011 -2.0338 0.9569
3.6262 -6.4154 -1.3851 0.9705
6.9411 -8.3011 -2.0339 0.9569
8.3287 -6.9082 -2.0339 0.9569
-4.4960 -8.5063 -2.0338 0.9614
-3.7046 -8.8796 -2.0338 0.9614
-2.0368 -9.4034 -2.0338 0.9614
-0.3017 -9.6168 -2.0338 0.9614
0.5732 -9.6045 -2.0338 0.9614
1.5265 -6.1962 -1.3489 0.9742
1.9956 -5.7786 -1.2923 0.9753
2.5706 -5.7027 -1.3222 0.9748
3.2461 -5.7429 -1.3944 0.9734
5.4760 -7.9116 -2.0339 0.9614
6.1721 -7.3814 -2.0339 0.9614
7.4059 -6.1428 -2.0339 0.9614
-4.0437 -7.6506 -2.0338 0.9651
-3.3320 -7.9864 -2.0338 0.9651
-2.5927 -8.2560 -2.0338 0.9651
-1.8320 -8.4575 -2.0338 0.9651
-0.2714 -8.6494 -2.0338 0.9651
0.5155 -8.6383 -2.0338 0.9651
1.2981 -8.5558 -2.0338 0.9651
1.4923 -6.0573 -1.4662 0.9747
2.5834 -5.7311 -1.4775 0.9745
3.2606 -5.7685 -1.5573 0.9731
4.9251 -7.1157 -2.0339 0.9651
6.1314 -6.1071 -2.0339 0.9651
6.6609 -5.5249 -2.0339 0.9651
-4.2863 -6.5824 -2.0338 0.9681
-0.9586 -7.7963 -2.0338 0.9681
0.4679 -7.8411 -2.0338 0.9681
1.4773 -5.9966 -1.5990 0.9748
2.0155 -5.8363 -1.5987 0.9748
2.6233 -5.8196 -1.6528 0.9740
4.4706 -6.4590 -2.0339 0.9681
5.5656 -5.5435 -2.0339 0.9681
-3.9203 -6.0204 -2.0338 0.9706
-2.7662 -6.6303 -2.0338 0.9706
-2.1525 -6.8542 -2.0338 0.9706
-0.8767 -7.1306 -2.0338 0.9706
-0.2253 -7.1808 -2.0338 0.9706
0.4280 -7.1715 -2.0338 0.9706
1.0777 -7.1030 -2.0338 0.9706
2.0324 -5.8852 -1.7626 0.9744
5.5298 -4.5868 -2.0339 0.9706
-3.0899 -5.8460 -2.0338 0.9727
-2.5461 -6.1025 -2.0338 0.9727
-0.8070 -6.5629 -2.0338 0.9727
-0.2073 -6.6091 -2.0338 0.9727
0.3939 -6.6007 -2.0338 0.9727
2.0557 -5.9524 -1.9369 0.9740
3.7634 -5.4372 -2.0339 0.9727
4.2418 -5.0729 -2.0339 0.9727
5.0897 -4.2216 -2.0339 0.9727
-3.3387 -5.1273 -2.0338 0.9745
-1.8332 -5.8374 -2.0338 0.9745
-0.7467 -6.0728 -2.0338 0.9745
-0.1919 -6.1155 -2.0338 0.9745
1.4636 -5.9409 -2.0338 0.9745
1.9973 -5.7834 -2.0339 0.9745
3.4823 -5.0311 -2.0339 0.9745
3.9249 -4.6939 -2.0339 0.9745
4.3352 -4.3180 -2.0339 0.9745
4.7095 -3.9063 -2.0339 0.9745
-2.1898 -5.2488 -2.0338 0.9761
-1.7040 -5.4261 -2.0338 0.9761
1.3604 -5.5223 -2.0339 0.9761
3.6483 -4.3631 -2.0339 0.9761
4.3776 -3.6310 -2.0339 0.9761
-2.4800 -4.6921 -2.0338 0.9775
-2.0435 -4.8981 -2.0338 0.9775
0.7961 -5.2473 -2.0338 0.9775
1.2696 -5.1532 -2.0339 0.9775
1.7324 -5.0166 -2.0339 0.9775
2.1810 -4.8385 -2.0339 0.9775
2.6116 -4.6203 -2.0339 0.9775
3.7604 -3.7454 -2.0339 0.9775
-1.4889 -4.7411 -2.0338 0.9788
-0.6065 -4.9323 -2.0338 0.9788
-0.1559 -4.9670 -2.0338 0.9788
1.1888 -4.8252 -2.0339 0.9788
1.6221 -4.6972 -2.0339 0.9788
2.4453 -4.3262 -2.0339 0.9788
2.8282 -4.0862 -2.0339 0.9788
3.1878 -3.8123 -2.0339 0.9788
-2.5465 -3.9107 -2.0338 0.9798
-2.1807 -4.1259 -2.0338 0.9798
-1.7969 -4.3069 -2.0338 0.9798
-1.3982 -4.4524 -2.0338 0.9798
-0.9879 -4.5610 -2.0338 0.9798
1.1164 -4.5313 -2.0339 0.9798
1.5234 -4.4112 -2.0339 0.9798
1.9178 -4.2546 -2.0339 0.9798
2.2964 -4.0627 -2.0339 0.9798
2.9936 -3.5802 -2.0339 0.9798
3.3065 -3.2934 -2.0339 0.9798
-2.0532 -3.8846 -2.0338 0.9808
-1.6918 -4.0551 -2.0338 0.9808
-1.3164 -4.1920 -2.0338 0.9808
-0.9302 -4.2943 -2.0338 0.9808
0.6591 -4.3442 -2.0339 0.9808
1.0511 -4.2663 -2.0339 0.9808
1.4343 -4.1532 -2.0339 0.9808
1.8057 -4.0057 -2.0339 0.9808
2.5007 -3.6129 -2.0339 0.9808
3.1131 -3.1008 -2.0339 0.9808
3.3820 -2.8052 -2.0339 0.9808
-1.9375 -3.6657 -2.0338 0.9817
-1.5965 -3.8266 -2.0338 0.9817
-1.2423 -3.9558 -2.0338 0.9817
-0.1300 -4.1443 -2.0339 0.9817
1.3535 -3.9192 -2.0339 0.9817
1.7039 -3.7800 -2.0339 0.9817
2.0403 -3.6096 -2.0339 0.9817
2.6597 -3.1809 -2.0339 0.9817
3.1914 -2.6471 -2.0339 0.9817
-2.1393 -3.2854 -2.0338 0.9825
-1.5095 -3.6182 -2.0338 0.9825
-1.1746 -3.7404 -2.0338 0.9825
-0.1229 -3.9186 -2.0339 0.9825
0.2336 -3.9135 -2.0339 0.9825
2.7778 -2.7667 -2.0339 0.9825
-2.0263 -3.1118 -2.0338 0.9832
-1.4298 -3.4271 -2.0338 0.9832
-1.1126 -3.5429 -2.0339 0.9832
-0.7862 -3.6293 -2.0339 0.9832
-0.4532 -3.6857 -2.0339 0.9832
-0.1165 -3.7116 -2.0339 0.9832
0.5570 -3.6714 -2.0339 0.9832
0.8883 -3.6056 -2.0339 0.9832
1.2122 -3.5101 -2.0339 0.9832
1.5260 -3.3854 -2.0339 0.9832
2.1134 -3.0534 -2.0339 0.9832
-1.3564 -3.2511 -2.0339 0.9839
-1.0555 -3.3609 -2.0339 0.9839
-0.4299 -3.4964 -2.0339 0.9839
-0.1105 -3.5210 -2.0339 0.9839
0.2098 -3.5165 -2.0339 0.9839
0.5284 -3.4829 -2.0339 0.9839
1.4477 -3.2116 -2.0339 0.9839
1.7334 -3.0668 -2.0339 0.9839
2.0049 -2.8966 -2.0339 0.9839
2.2598 -2.7025 -2.0339 0.9839
2.4960 -2.4860 -2.0339 0.9839
